<svg width="183.54" viewBox="0 0 6118 11223" text-rendering="auto" stroke-width="1" stroke-opacity="1" stroke-miterlimit="10" stroke-linejoin="miter" stroke-linecap="square" stroke-dashoffset="0" stroke-dasharray="none" stroke="black" shape-rendering="auto" image-rendering="auto" height="336.69" font-weight="normal" font-style="normal" font-size="12" font-family="'Dialog'" fill-opacity="1" fill="black" color-rendering="auto" color-interpolation="auto" xmlns="http://www.w3.org/2000/svg"><g><g stroke="white" fill="white"><rect y="0" x="0" width="6118" stroke="none" height="11223"/></g><g transform="translate(32866,32866)" text-rendering="geometricPrecision" stroke-width="44" stroke-linejoin="round" stroke-linecap="round"><line y2="-27822" y1="-28392" x2="-28822" x1="-29804" fill="none"/><line y2="-28392" y1="-27822" x2="-29804" x1="-30792" fill="none"/><line y2="-28175" y1="-27747" x2="-29845" x1="-30584" fill="none"/><line y2="-26687" y1="-27822" x2="-28822" x1="-28822" fill="none"/><line y2="-26829" y1="-27681" x2="-28992" x1="-28992" fill="none"/><line y2="-28392" y1="-27822" x2="-27834" x1="-28822" fill="none"/><line y2="-26687" y1="-27822" x2="-30792" x1="-30792" fill="none"/><line y2="-27822" y1="-28392" x2="-30792" x1="-31774" fill="none"/><line y2="-26118" y1="-26687" x2="-29804" x1="-28822" fill="none"/><line y2="-26687" y1="-26118" x2="-28822" x1="-27834" fill="none"/><line y2="-27822" y1="-28392" x2="-26852" x1="-27834" fill="none"/><line y2="-27747" y1="-28175" x2="-27060" x1="-27796" fill="none"/><line y2="-26687" y1="-26118" x2="-30792" x1="-29804" fill="none"/><line y2="-26762" y1="-26335" x2="-30584" x1="-29845" fill="none"/><line y2="-26118" y1="-26687" x2="-31774" x1="-30792" fill="none"/><line y2="-28392" y1="-27822" x2="-31774" x1="-32762" fill="none"/><line y2="-28175" y1="-27747" x2="-31815" x1="-32554" fill="none"/><line y2="-26118" y1="-26687" x2="-27834" x1="-26852" fill="none"/><line y2="-26335" y1="-26762" x2="-27796" x1="-27060" fill="none"/><line y2="-26687" y1="-27822" x2="-26852" x1="-26852" fill="none"/><line y2="-26687" y1="-26118" x2="-32762" x1="-31774" fill="none"/><line y2="-26762" y1="-26335" x2="-32554" x1="-31815" fill="none"/><line y2="-27822" y1="-26687" x2="-32762" x1="-32762" fill="none"/><line y2="-29440" y1="-28392" x2="-29804" x1="-29804" fill="none"/><line y2="-25069" y1="-26118" x2="-29804" x1="-29804" fill="none"/><line y2="-29440" y1="-29440" x2="-30853" x1="-29804" fill="none"/><line y2="-29351" y1="-29351" x2="-30853" x1="-29807" fill="none"/><line y2="-29530" y1="-29530" x2="-30853" x1="-29804" fill="none"/><line y2="-25069" y1="-25069" x2="-30853" x1="-29804" fill="none"/><line y2="-24980" y1="-24980" x2="-30853" x1="-29804" fill="none"/><line y2="-25159" y1="-25159" x2="-30853" x1="-29807" fill="none"/><line y2="-30489" y1="-29440" x2="-30853" x1="-30853" fill="none"/><line y2="-24021" y1="-25069" x2="-30853" x1="-30853" fill="none"/><line y2="-31055" y1="-30489" x2="-31841" x1="-30853" fill="none"/><line y2="-31133" y1="-30706" x2="-31633" x1="-30890" fill="none"/><line y2="-30489" y1="-31055" x2="-30853" x1="-29871" fill="none"/><line y2="-32193" y1="-31055" x2="-31841" x1="-31841" fill="none"/><line y2="-31055" y1="-32193" x2="-29871" x1="-29871" fill="none"/><line y2="-31200" y1="-32052" x2="-30041" x1="-30041" fill="none"/><line y2="-32762" y1="-32193" x2="-30853" x1="-31841" fill="none"/><line y2="-32543" y1="-32118" x2="-30890" x1="-31633" fill="none"/><line y2="-32193" y1="-32762" x2="-29871" x1="-30853" fill="none"/><line y2="-24021" y1="-23454" x2="-30853" x1="-31841" fill="none"/><line y2="-23804" y1="-23376" x2="-30890" x1="-31633" fill="none"/><line y2="-23454" y1="-24021" x2="-29871" x1="-30853" fill="none"/><line y2="-23454" y1="-22316" x2="-31841" x1="-31841" fill="none"/><line y2="-22316" y1="-23454" x2="-29871" x1="-29871" fill="none"/><line y2="-22458" y1="-23310" x2="-30041" x1="-30041" fill="none"/><line y2="-22316" y1="-21747" x2="-31841" x1="-30853" fill="none"/><line y2="-22394" y1="-21967" x2="-31633" x1="-30890" fill="none"/><line y2="-21747" y1="-22316" x2="-30853" x1="-29871" fill="none"/></g></g></svg>