<svg width="487.74" viewBox="0 0 16258 3962" text-rendering="auto" stroke-width="1" stroke-opacity="1" stroke-miterlimit="10" stroke-linejoin="miter" stroke-linecap="square" stroke-dashoffset="0" stroke-dasharray="none" stroke="black" shape-rendering="auto" image-rendering="auto" height="118.86" font-weight="normal" font-style="normal" font-size="12" font-family="'Dialog'" fill-opacity="1" fill="black" color-rendering="auto" color-interpolation="auto" xmlns="http://www.w3.org/2000/svg"><g><g stroke="white" fill="white"><rect y="0" x="0" width="16258" stroke="none" height="3962"/></g><g transform="translate(32866,32758)" text-rendering="geometricPrecision" stroke-width="44" stroke-linejoin="round" stroke-linecap="round"><line y2="-30235" y1="-30786" x2="-27950" x1="-28660" fill="none"/><line y2="-29172" y1="-30235" x2="-28316" x1="-27950" fill="none"/><line y2="-29359" y1="-30157" x2="-28432" x1="-28158" fill="none"/><line y2="-30792" y1="-30235" x2="-29039" x1="-29793" fill="none"/><line y2="-30584" y1="-30168" x2="-29030" x1="-29596" fill="none"/><line y2="-29172" y1="-29172" x2="-29276" x1="-28316" fill="none"/><line y2="-30235" y1="-29391" x2="-29793" x1="-29530" fill="none"/><line y2="-30758" y1="-30235" x2="-27042" x1="-27950" fill="none"/><line y2="-30344" y1="-30758" x2="-26323" x1="-27042" fill="none"/><line y2="-30758" y1="-30344" x2="-25228" x1="-25948" fill="none"/><line y2="-30235" y1="-30758" x2="-24321" x1="-25228" fill="none"/><line y2="-30651" y1="-30235" x2="-23602" x1="-24321" fill="none"/><line y2="-30235" y1="-30541" x2="-22507" x1="-23033" fill="none"/><line y2="-30541" y1="-30235" x2="-30318" x1="-29793" fill="none"/><line y2="-30235" y1="-30651" x2="-31607" x1="-30888" fill="none"/><line y2="-30651" y1="-30235" x2="-21788" x1="-22507" fill="none"/><line y2="-30477" y1="-30168" x2="-21808" x1="-22348" fill="none"/><line y2="-30486" y1="-30235" x2="-32040" x1="-31607" fill="none"/><line y2="-29406" y1="-30235" x2="-31535" x1="-31535" fill="none"/><line y2="-29406" y1="-30235" x2="-31676" x1="-31676" fill="none"/><line y2="-30344" y1="-30651" x2="-20880" x1="-21412" fill="none"/><line y2="-30758" y1="-30344" x2="-19786" x1="-20505" fill="none"/><line y2="-29582" y1="-30050" x2="-20233" x1="-20505" fill="none"/><line y2="-29512" y1="-29980" x2="-20355" x1="-20626" fill="none"/><line y2="-29512" y1="-29980" x2="-21028" x1="-20756" fill="none"/><line y2="-29582" y1="-30050" x2="-21149" x1="-20878" fill="none"/><line y2="-31896" y1="-30758" x2="-19786" x1="-19786" fill="none"/><line y2="-31754" y1="-30902" x2="-19615" x1="-19615" fill="none"/><line y2="-30758" y1="-30191" x2="-19786" x1="-18798" fill="none"/><line y2="-32465" y1="-31896" x2="-18798" x1="-19786" fill="none"/><line y2="-30191" y1="-30758" x2="-18798" x1="-17815" fill="none"/><line y2="-30408" y1="-30836" x2="-18760" x1="-18023" fill="none"/><line y2="-31896" y1="-32465" x2="-17815" x1="-18798" fill="none"/><line y2="-31821" y1="-32248" x2="-18023" x1="-18760" fill="none"/><line y2="-30758" y1="-31896" x2="-17815" x1="-17815" fill="none"/><line y2="-32225" y1="-31896" x2="-17246" x1="-17815" fill="none"/><text y="-30056" xml:space="preserve" x="-26288" stroke="none" font-size="433.3333" font-family="sans-serif">S</text><text y="-30578" xml:space="preserve" x="-23564" stroke="none" font-size="433.3333" font-family="sans-serif">NH</text><text y="-30578" xml:space="preserve" x="-21750" stroke="none" font-size="433.3333" font-family="sans-serif">N</text><text y="-30056" xml:space="preserve" x="-20843" stroke="none" font-size="433.3333" font-family="sans-serif">S</text><text y="-29148" xml:space="preserve" x="-20320" stroke="none" font-size="433.3333" font-family="sans-serif">O</text><text y="-29148" xml:space="preserve" x="-21369" stroke="none" font-size="433.3333" font-family="sans-serif">O</text><text y="-30578" xml:space="preserve" x="-30850" stroke="none" font-size="433.3333" font-family="sans-serif">NH</text><text y="-29007" xml:space="preserve" x="-31757" stroke="none" font-size="433.3333" font-family="sans-serif">NH</text><text y="-30636" xml:space="preserve" x="-32762" stroke="none" font-size="433.3333" font-family="sans-serif">NH</text><text y="-30547" xml:space="preserve" x="-32185" stroke="none" font-size="313.3333" font-family="sans-serif">2</text><text y="-32242" xml:space="preserve" x="-17139" stroke="none" font-size="433.3333" font-family="sans-serif">Br</text><text y="-30752" xml:space="preserve" x="-29001" stroke="none" font-size="433.3333" font-family="sans-serif">N</text><text y="-28992" xml:space="preserve" x="-29616" stroke="none" font-size="433.3333" font-family="sans-serif">S</text><text y="-30651" xml:space="preserve" x="-22524" stroke="none" font-style="italic" font-size="313.3333" font-family="sans-serif">E</text></g></g></svg>