<svg width="240.57" viewBox="0 0 8019 2671" text-rendering="auto" stroke-width="1" stroke-opacity="1" stroke-miterlimit="10" stroke-linejoin="miter" stroke-linecap="square" stroke-dashoffset="0" stroke-dasharray="none" stroke="black" shape-rendering="auto" image-rendering="auto" height="80.13" font-weight="normal" font-style="normal" font-size="12" font-family="'Dialog'" fill-opacity="1" fill="black" color-rendering="auto" color-interpolation="auto" xmlns="http://www.w3.org/2000/svg"><g><g stroke="white" fill="white"><rect y="0" x="0" width="8019" stroke="none" height="2671"/></g><g transform="translate(32866,32758)" text-rendering="geometricPrecision" stroke-width="44" stroke-linejoin="round" stroke-linecap="round"><line y2="-31896" y1="-32465" x2="-28735" x1="-29718" fill="none"/><line y2="-31821" y1="-32248" x2="-28943" x1="-29680" fill="none"/><line y2="-30758" y1="-31896" x2="-28735" x1="-28735" fill="none"/><line y2="-32465" y1="-31896" x2="-29718" x1="-30706" fill="none"/><line y2="-30191" y1="-30758" x2="-29718" x1="-28735" fill="none"/><line y2="-30408" y1="-30836" x2="-29680" x1="-28943" fill="none"/><line y2="-31896" y1="-30758" x2="-30706" x1="-30706" fill="none"/><line y2="-31754" y1="-30902" x2="-30535" x1="-30535" fill="none"/><line y2="-30758" y1="-30191" x2="-30706" x1="-29718" fill="none"/><line y2="-32312" y1="-31896" x2="-28016" x1="-28735" fill="none"/><line y2="-31896" y1="-32202" x2="-26921" x1="-27447" fill="none"/><line y2="-32312" y1="-31896" x2="-31425" x1="-30706" fill="none"/><line y2="-32063" y1="-32312" x2="-32231" x1="-31800" fill="none"/><line y2="-31896" y1="-30758" x2="-26921" x1="-26921" fill="none"/><line y2="-31754" y1="-30902" x2="-26751" x1="-26751" fill="none"/><line y2="-32465" y1="-31896" x2="-25933" x1="-26921" fill="none"/><line y2="-30758" y1="-30191" x2="-26921" x1="-25933" fill="none"/><line y2="-31896" y1="-32465" x2="-24951" x1="-25933" fill="none"/><line y2="-31821" y1="-32248" x2="-25156" x1="-25896" fill="none"/><line y2="-30191" y1="-30758" x2="-25933" x1="-24951" fill="none"/><line y2="-30408" y1="-30836" x2="-25896" x1="-25156" fill="none"/><line y2="-30758" y1="-31896" x2="-24951" x1="-24951" fill="none"/><text y="-32242" xml:space="preserve" x="-27978" stroke="none" font-size="433.3333" font-family="sans-serif">NH</text><text y="-32242" xml:space="preserve" x="-31763" stroke="none" font-size="433.3333" font-family="sans-serif">O</text><text y="-31665" xml:space="preserve" x="-32762" stroke="none" font-size="433.3333" font-family="sans-serif">CH</text><text y="-31575" xml:space="preserve" x="-32185" stroke="none" font-size="313.3333" font-family="sans-serif">3</text></g></g></svg>