<svg width="165.06" viewBox="0 0 5502 3763" text-rendering="auto" stroke-width="1" stroke-opacity="1" stroke-miterlimit="10" stroke-linejoin="miter" stroke-linecap="square" stroke-dashoffset="0" stroke-dasharray="none" stroke="black" shape-rendering="auto" image-rendering="auto" height="112.89" font-weight="normal" font-style="normal" font-size="12" font-family="'Dialog'" fill-opacity="1" fill="black" color-rendering="auto" color-interpolation="auto" xmlns="http://www.w3.org/2000/svg"><g><g stroke="white" fill="white"><rect y="0" x="0" width="5502" stroke="none" height="3763"/></g><g transform="translate(32866,32758)" text-rendering="geometricPrecision" stroke-width="44" stroke-linejoin="round" stroke-linecap="round"><line y2="-31376" y1="-30807" x2="-28620" x1="-29608" fill="none"/><line y2="-31156" y1="-30729" x2="-28657" x1="-29397" fill="none"/><line y2="-30807" y1="-29668" x2="-29608" x1="-29608" fill="none"/><line y2="-30914" y1="-31376" x2="-27825" x1="-28620" fill="none"/><line y2="-29668" y1="-29099" x2="-29608" x1="-28620" fill="none"/><line y2="-29746" y1="-29319" x2="-29397" x1="-28657" fill="none"/><line y2="-29668" y1="-30587" x2="-27638" x1="-27638" fill="none"/><line y2="-29784" y1="-30472" x2="-27805" x1="-27805" fill="none"/><line y2="-29099" y1="-29668" x2="-28620" x1="-27638" fill="none"/><line y2="-31330" y1="-30807" x2="-30515" x1="-29608" fill="none"/><line y2="-31330" y1="-31330" x2="-31561" x1="-30515" fill="none"/><line y2="-32202" y1="-31376" x2="-28620" x1="-28620" fill="none"/><line y2="-31330" y1="-31330" x2="-32422" x1="-31561" fill="none"/><line y2="-31240" y1="-31240" x2="-32422" x1="-31561" fill="none"/><line y2="-31419" y1="-31419" x2="-32422" x1="-31561" fill="none"/><text y="-31150" xml:space="preserve" x="-32762" stroke="none" font-size="433.3333" font-family="sans-serif">N</text><text y="-32242" xml:space="preserve" x="-28851" stroke="none" font-size="433.3333" font-family="sans-serif">Cl</text><text y="-30628" xml:space="preserve" x="-27788" stroke="none" font-size="433.3333" font-family="sans-serif">N</text></g></g></svg>