<svg width="521.46" viewBox="0 0 17382 4236" text-rendering="auto" stroke-width="1" stroke-opacity="1" stroke-miterlimit="10" stroke-linejoin="miter" stroke-linecap="square" stroke-dashoffset="0" stroke-dasharray="none" stroke="black" shape-rendering="auto" image-rendering="auto" height="127.08" font-weight="normal" font-style="normal" font-size="12" font-family="'Dialog'" fill-opacity="1" fill="black" color-rendering="auto" color-interpolation="auto" xmlns="http://www.w3.org/2000/svg"><g><g stroke="white" fill="white"><rect y="0" x="0" width="17382" stroke="none" height="4236"/></g><g transform="translate(32866,32758)" text-rendering="geometricPrecision" stroke-width="44" stroke-linejoin="round" stroke-linecap="round"><line y2="-30469" y1="-30469" x2="-26118" x1="-24971" fill="none"/><line y2="-30469" y1="-31451" x2="-24971" x1="-25546" fill="none"/><line y2="-31451" y1="-30469" x2="-25546" x1="-26118" fill="none"/><line y2="-32138" y1="-31451" x2="-26338" x1="-25546" fill="none"/><line y2="-32124" y1="-31451" x2="-24743" x1="-25546" fill="none"/><line y2="-30359" y1="-29943" x2="-23345" x1="-24064" fill="none"/><line y2="-29943" y1="-30359" x2="-22250" x1="-22969" fill="none"/><line y2="-29117" y1="-29943" x2="-23995" x1="-23995" fill="none"/><line y2="-29117" y1="-29902" x2="-24136" x1="-24136" fill="none"/><line y2="-29943" y1="-29943" x2="-28074" x1="-27025" fill="none"/><line y2="-30082" y1="-30082" x2="-27944" x1="-27155" fill="none"/><line y2="-30469" y1="-29943" x2="-21343" x1="-22250" fill="none"/><line y2="-30469" y1="-29943" x2="-28981" x1="-28074" fill="none"/><line y2="-30469" y1="-29900" x2="-21343" x1="-20360" fill="none"/><line y2="-30544" y1="-30116" x2="-21135" x1="-20398" fill="none"/><line y2="-31604" y1="-30469" x2="-21343" x1="-21343" fill="none"/><line y2="-29900" y1="-30469" x2="-20360" x1="-19372" fill="none"/><line y2="-32173" y1="-31604" x2="-20360" x1="-21343" fill="none"/><line y2="-31956" y1="-31529" x2="-20398" x1="-21135" fill="none"/><line y2="-30469" y1="-31604" x2="-19372" x1="-19372" fill="none"/><line y2="-30610" y1="-31462" x2="-19543" x1="-19543" fill="none"/><line y2="-31604" y1="-32173" x2="-19372" x1="-20360" fill="none"/><line y2="-30053" y1="-30469" x2="-18653" x1="-19372" fill="none"/><line y2="-30469" y1="-30053" x2="-17558" x1="-18278" fill="none"/><line y2="-28897" y1="-28897" x2="-21392" x1="-22250" fill="none"/><line y2="-28987" y1="-28987" x2="-21392" x1="-22180" fill="none"/><line y2="-28808" y1="-28808" x2="-21392" x1="-22250" fill="none"/><line y2="-30053" y1="-30469" x2="-29700" x1="-28981" fill="none"/><line y2="-30469" y1="-30053" x2="-30795" x1="-30076" fill="none"/><line y2="-31295" y1="-30469" x2="-29050" x1="-29050" fill="none"/><line y2="-31295" y1="-30469" x2="-28912" x1="-28912" fill="none"/><line y2="-31604" y1="-30469" x2="-17558" x1="-17558" fill="none"/><line y2="-31462" y1="-30610" x2="-17388" x1="-17388" fill="none"/><line y2="-30469" y1="-29900" x2="-17558" x1="-16573" fill="none"/><line y2="-32173" y1="-31604" x2="-16573" x1="-17558" fill="none"/><line y2="-29900" y1="-30469" x2="-16573" x1="-15588" fill="none"/><line y2="-30116" y1="-30544" x2="-16536" x1="-15796" fill="none"/><line y2="-31604" y1="-32173" x2="-15588" x1="-16573" fill="none"/><line y2="-31529" y1="-31956" x2="-15796" x1="-16536" fill="none"/><line y2="-30469" y1="-31604" x2="-15588" x1="-15588" fill="none"/><line y2="-29943" y1="-30469" x2="-31702" x1="-30795" fill="none"/><line y2="-31514" y1="-30469" x2="-30795" x1="-30795" fill="none"/><line y2="-30359" y1="-29943" x2="-32422" x1="-31702" fill="none"/><line y2="-29255" y1="-29943" x2="-32101" x1="-31702" fill="none"/><line y2="-29255" y1="-29943" x2="-31304" x1="-31702" fill="none"/><line y2="-31930" y1="-31514" x2="-31514" x1="-30795" fill="none"/><line y2="-32202" y1="-31514" x2="-30396" x1="-30795" fill="none"/><line y2="-31514" y1="-31514" x2="-29934" x1="-30795" fill="none"/><polygon stroke-width="1" stroke="none" points=" -22250 -29943 -22180 -28897 -22319 -28894"/><polygon stroke-width="1" points=" -22250 -29943 -22180 -28897 -22319 -28894" fill="none"/><line y2="-29882" y1="-30004" x2="-24099" x1="-24032" fill="none"/><line y2="-30003" y1="-30100" x2="-24279" x1="-24226" fill="none"/><line y2="-30125" y1="-30196" x2="-24460" x1="-24421" fill="none"/><line y2="-30246" y1="-30293" x2="-24640" x1="-24615" fill="none"/><line y2="-30368" y1="-30389" x2="-24821" x1="-24809" fill="none"/><line y2="-30004" y1="-29885" x2="-27060" x1="-26990" fill="none"/><line y2="-30100" y1="-30006" x2="-26865" x1="-26810" fill="none"/><line y2="-30196" y1="-30127" x2="-26670" x1="-26629" fill="none"/><line y2="-30292" y1="-30247" x2="-26476" x1="-26449" fill="none"/><line y2="-30389" y1="-30368" x2="-26281" x1="-26269" fill="none"/><text y="-30290" xml:space="preserve" x="-23310" stroke="none" font-size="433.3333" font-family="sans-serif">O</text><text y="-28718" xml:space="preserve" x="-24217" stroke="none" font-size="433.3333" font-family="sans-serif">O</text><text y="-28718" xml:space="preserve" x="-21354" stroke="none" font-size="433.3333" font-family="sans-serif">N</text><text y="-29764" xml:space="preserve" x="-30041" stroke="none" font-size="433.3333" font-family="sans-serif">O</text><text y="-31335" xml:space="preserve" x="-29134" stroke="none" font-size="433.3333" font-family="sans-serif">O</text><text y="-30290" xml:space="preserve" x="-32762" stroke="none" font-size="433.3333" font-family="sans-serif">F</text><text y="-28857" xml:space="preserve" x="-32378" stroke="none" font-size="433.3333" font-family="sans-serif">F</text><text y="-28857" xml:space="preserve" x="-31330" stroke="none" font-size="433.3333" font-family="sans-serif">F</text><text y="-31861" xml:space="preserve" x="-31855" stroke="none" font-size="433.3333" font-family="sans-serif">F</text><text y="-32242" xml:space="preserve" x="-30422" stroke="none" font-size="433.3333" font-family="sans-serif">F</text><text y="-31335" xml:space="preserve" x="-29900" stroke="none" font-size="433.3333" font-family="sans-serif">F</text><text y="-29764" xml:space="preserve" x="-18618" stroke="none" font-size="433.3333" font-family="sans-serif">O</text><text y="-30229" xml:space="preserve" x="-27701" stroke="none" font-style="italic" font-size="313.3333" font-family="sans-serif">Z</text><text y="-30067" xml:space="preserve" x="-22403" stroke="none" font-style="italic" font-size="313.3333" font-family="sans-serif">S</text><text y="-30012" xml:space="preserve" x="-25199" stroke="none" font-style="italic" font-size="313.3333" font-family="sans-serif">R</text><text y="-30564" xml:space="preserve" x="-26514" stroke="none" font-style="italic" font-size="313.3333" font-family="sans-serif">S</text></g></g></svg>