<svg width="449.19" viewBox="0 0 14973 2573" text-rendering="auto" stroke-width="1" stroke-opacity="1" stroke-miterlimit="10" stroke-linejoin="miter" stroke-linecap="square" stroke-dashoffset="0" stroke-dasharray="none" stroke="black" shape-rendering="auto" image-rendering="auto" height="77.19" font-weight="normal" font-style="normal" font-size="12" font-family="'Dialog'" fill-opacity="1" fill="black" color-rendering="auto" color-interpolation="auto" xmlns="http://www.w3.org/2000/svg"><g><g stroke="white" fill="white"><rect y="0" x="0" width="14973" stroke="none" height="2573"/></g><g transform="translate(32866,32866)" text-rendering="geometricPrecision" stroke-width="44" stroke-linejoin="round" stroke-linecap="round"><line y2="-31191" y1="-31714" x2="-17997" x1="-18904" fill="none"/><line y2="-31191" y1="-31714" x2="-19812" x1="-18904" fill="none"/><line y2="-32762" y1="-31714" x2="-18904" x1="-18904" fill="none"/><line y2="-32130" y1="-31714" x2="-19624" x1="-18904" fill="none"/><line y2="-31714" y1="-32130" x2="-20719" x1="-19999" fill="none"/><line y2="-32020" y1="-31714" x2="-21247" x1="-20719" fill="none"/><line y2="-31714" y1="-32130" x2="-22533" x1="-21814" fill="none"/><line y2="-32240" y1="-31714" x2="-23440" x1="-22533" fill="none"/><line y2="-31824" y1="-32240" x2="-24159" x1="-23440" fill="none"/><line y2="-32240" y1="-31824" x2="-25254" x1="-24535" fill="none"/><line y2="-31714" y1="-32240" x2="-26161" x1="-25254" fill="none"/><line y2="-32130" y1="-31714" x2="-26881" x1="-26161" fill="none"/><line y2="-31714" y1="-32130" x2="-27976" x1="-27259" fill="none"/><line y2="-32240" y1="-31714" x2="-28886" x1="-27976" fill="none"/><line y2="-31824" y1="-32240" x2="-29602" x1="-28886" fill="none"/><line y2="-32240" y1="-31824" x2="-30700" x1="-29980" fill="none"/><line y2="-31714" y1="-32240" x2="-31607" x1="-30700" fill="none"/><line y2="-31965" y1="-31714" x2="-32040" x1="-31607" fill="none"/><line y2="-30888" y1="-31714" x2="-20649" x1="-20649" fill="none"/><line y2="-30888" y1="-31714" x2="-20788" x1="-20788" fill="none"/><text y="-32060" xml:space="preserve" x="-21779" stroke="none" font-size="433.3333" font-family="sans-serif">NH</text><text y="-32060" xml:space="preserve" x="-19965" stroke="none" font-size="433.3333" font-family="sans-serif">O</text><text y="-30489" xml:space="preserve" x="-20872" stroke="none" font-size="433.3333" font-family="sans-serif">O</text><text y="-31535" xml:space="preserve" x="-24500" stroke="none" font-size="433.3333" font-family="sans-serif">O</text><text y="-32060" xml:space="preserve" x="-27222" stroke="none" font-size="433.3333" font-family="sans-serif">O</text><text y="-31535" xml:space="preserve" x="-29943" stroke="none" font-size="433.3333" font-family="sans-serif">O</text><text y="-32115" xml:space="preserve" x="-32762" stroke="none" font-size="433.3333" font-family="sans-serif">NH</text><text y="-32026" xml:space="preserve" x="-32185" stroke="none" font-size="313.3333" font-family="sans-serif">2</text></g></g></svg>