<svg width="466.92" viewBox="0 0 15564 7126" text-rendering="auto" stroke-width="1" stroke-opacity="1" stroke-miterlimit="10" stroke-linejoin="miter" stroke-linecap="square" stroke-dashoffset="0" stroke-dasharray="none" stroke="black" shape-rendering="auto" image-rendering="auto" height="213.78" font-weight="normal" font-style="normal" font-size="12" font-family="'Dialog'" fill-opacity="1" fill="black" color-rendering="auto" color-interpolation="auto" xmlns="http://www.w3.org/2000/svg"><g><g stroke="white" fill="white"><rect y="0" x="0" width="15564" stroke="none" height="7126"/></g><g transform="translate(32866,32866)" text-rendering="geometricPrecision" stroke-width="44" stroke-linejoin="round" stroke-linecap="round"><line y2="-28311" y1="-29458" x2="-22908" x1="-22908" fill="none"/><line y2="-29001" y1="-29458" x2="-22108" x1="-22908" fill="none"/><line y2="-30032" y1="-29458" x2="-23891" x1="-22908" fill="none"/><line y2="-29458" y1="-29458" x2="-22908" x1="-21762" fill="none"/><line y2="-28311" y1="-28782" x2="-22908" x1="-22108" fill="none"/><line y2="-27848" y1="-28311" x2="-23703" x1="-22908" fill="none"/><line y2="-30032" y1="-29458" x2="-23891" x1="-24873" fill="none"/><line y2="-31176" y1="-30032" x2="-23891" x1="-23891" fill="none"/><line y2="-29458" y1="-30032" x2="-21762" x1="-20779" fill="none"/><line y2="-30769" y1="-29458" x2="-21762" x1="-21762" fill="none"/><line y2="-28311" y1="-27848" x2="-24873" x1="-24078" fill="none"/><line y2="-28311" y1="-29458" x2="-24873" x1="-24873" fill="none"/><line y2="-29458" y1="-30012" x2="-24873" x1="-25864" fill="none"/><line y2="-29380" y1="-29796" x2="-25081" x1="-25823" fill="none"/><line y2="-31751" y1="-31176" x2="-22908" x1="-23891" fill="none"/><line y2="-31176" y1="-30032" x2="-20779" x1="-20779" fill="none"/><line y2="-30032" y1="-29458" x2="-20779" x1="-19797" fill="none"/><line y2="-30108" y1="-29677" x2="-20571" x1="-19835" fill="none"/><line y2="-31751" y1="-30769" x2="-22908" x1="-21762" fill="none"/><line y2="-27739" y1="-28311" x2="-25864" x1="-24873" fill="none"/><line y2="-27958" y1="-28386" x2="-25826" x1="-25084" fill="none"/><line y2="-30012" y1="-29434" x2="-25864" x1="-26855" fill="none"/><line y2="-31751" y1="-31751" x2="-21952" x1="-22908" fill="none"/><line y2="-31176" y1="-31642" x2="-20779" x1="-21574" fill="none"/><line y2="-31751" y1="-31176" x2="-19797" x1="-20779" fill="none"/><line y2="-31532" y1="-31101" x2="-19835" x1="-20571" fill="none"/><line y2="-29458" y1="-30032" x2="-19797" x1="-18815" fill="none"/><line y2="-28299" y1="-27739" x2="-26855" x1="-25864" fill="none"/><line y2="-29434" y1="-28299" x2="-26855" x1="-26855" fill="none"/><line y2="-29293" y1="-28441" x2="-26684" x1="-26684" fill="none"/><line y2="-31176" y1="-31751" x2="-18815" x1="-19797" fill="none"/><line y2="-30032" y1="-31176" x2="-18815" x1="-18815" fill="none"/><line y2="-30174" y1="-31035" x2="-18985" x1="-18985" fill="none"/><line y2="-27788" y1="-28311" x2="-22001" x1="-22908" fill="none"/><line y2="-27776" y1="-28299" x2="-27762" x1="-26855" fill="none"/><line y2="-32762" y1="-31751" x2="-23180" x1="-22908" fill="none"/><line y2="-30841" y1="-30012" x2="-25864" x1="-25864" fill="none"/><line y2="-31592" y1="-31176" x2="-18096" x1="-18815" fill="none"/><line y2="-31532" y1="-31116" x2="-24645" x1="-23925" fill="none"/><line y2="-31653" y1="-31237" x2="-24575" x1="-23856" fill="none"/><line y2="-27788" y1="-26652" x2="-22001" x1="-21984" fill="none"/><line y2="-27649" y1="-26797" x2="-21828" x1="-21816" fill="none"/><line y2="-28374" y1="-27788" x2="-21028" x1="-22001" fill="none"/><line y2="-26652" y1="-26101" x2="-21984" x1="-20987" fill="none"/><line y2="-27825" y1="-28374" x2="-20034" x1="-21028" fill="none"/><line y2="-27744" y1="-28158" x2="-20239" x1="-20984" fill="none"/><line y2="-26101" y1="-26687" x2="-20987" x1="-20014" fill="none"/><line y2="-26320" y1="-26759" x2="-20953" x1="-20222" fill="none"/><line y2="-26687" y1="-27825" x2="-20014" x1="-20034" fill="none"/><line y2="-26349" y1="-26652" x2="-22510" x1="-21984" fill="none"/><line y2="-26271" y1="-26687" x2="-19294" x1="-20014" fill="none"/><line y2="-26858" y1="-27776" x2="-27762" x1="-27762" fill="none"/><line y2="-27776" y1="-28342" x2="-27762" x1="-28747" fill="none"/><line y2="-27698" y1="-28126" x2="-27970" x1="-28709" fill="none"/><line y2="-26638" y1="-26638" x2="-29732" x1="-27950" fill="none"/><line y2="-28342" y1="-27776" x2="-28747" x1="-29732" fill="none"/><line y2="-27776" y1="-26638" x2="-29732" x1="-29732" fill="none"/><line y2="-26069" y1="-26638" x2="-30717" x1="-29732" fill="none"/><line y2="-26286" y1="-26713" x2="-30680" x1="-29940" fill="none"/><line y2="-27776" y1="-28342" x2="-29732" x1="-30717" fill="none"/><line y2="-27698" y1="-28126" x2="-29940" x1="-30680" fill="none"/><line y2="-26638" y1="-26069" x2="-31702" x1="-30717" fill="none"/><line y2="-28342" y1="-27776" x2="-30717" x1="-31702" fill="none"/><line y2="-27776" y1="-26638" x2="-31702" x1="-31702" fill="none"/><line y2="-27632" y1="-26780" x2="-31535" x1="-31535" fill="none"/><line y2="-26335" y1="-26638" x2="-32231" x1="-31702" fill="none"/><text y="-31523" xml:space="preserve" x="-24951" stroke="none" font-size="433.3333" font-family="sans-serif">O</text><text y="-25950" xml:space="preserve" x="-23044" stroke="none" font-size="433.3333" font-family="sans-serif">OH</text><text y="-30882" xml:space="preserve" x="-26017" stroke="none" font-size="433.3333" font-family="sans-serif">OH</text><text y="-25982" xml:space="preserve" x="-19257" stroke="none" font-size="433.3333" font-family="sans-serif">OH</text><text y="-31523" xml:space="preserve" x="-18061" stroke="none" font-size="433.3333" font-family="sans-serif">OH</text><text y="-25936" xml:space="preserve" x="-32762" stroke="none" font-size="433.3333" font-family="sans-serif">OH</text><text y="-28715" xml:space="preserve" x="-22071" stroke="none" font-size="433.3333" font-family="sans-serif">O</text><text y="-27560" xml:space="preserve" x="-24044" stroke="none" font-size="433.3333" font-family="sans-serif">O</text><text y="-31572" xml:space="preserve" x="-21915" stroke="none" font-size="433.3333" font-family="sans-serif">O</text><text y="-26459" xml:space="preserve" x="-27915" stroke="none" font-size="433.3333" font-family="sans-serif">O</text></g></g></svg>