<svg width="204.54" viewBox="0 0 6818 3812" text-rendering="auto" stroke-width="1" stroke-opacity="1" stroke-miterlimit="10" stroke-linejoin="miter" stroke-linecap="square" stroke-dashoffset="0" stroke-dasharray="none" stroke="black" shape-rendering="auto" image-rendering="auto" height="114.36" font-weight="normal" font-style="normal" font-size="12" font-family="'Dialog'" fill-opacity="1" fill="black" color-rendering="auto" color-interpolation="auto" xmlns="http://www.w3.org/2000/svg"><g><g stroke="white" fill="white"><rect y="0" x="0" width="6818" stroke="none" height="3812"/></g><g transform="translate(32866,32758)" text-rendering="geometricPrecision" stroke-width="44" stroke-linejoin="round" stroke-linecap="round"><line y2="-29648" y1="-30850" x2="-28718" x1="-28718" fill="none"/><line y2="-30850" y1="-31448" x2="-28718" x1="-29755" fill="none"/><line y2="-30778" y1="-31226" x2="-28932" x1="-29709" fill="none"/><line y2="-31448" y1="-30850" x2="-27675" x1="-28718" fill="none"/><line y2="-29050" y1="-29648" x2="-29755" x1="-28718" fill="none"/><line y2="-29270" y1="-29720" x2="-29709" x1="-28932" fill="none"/><line y2="-29648" y1="-29648" x2="-28718" x1="-26826" fill="none"/><line y2="-31448" y1="-30850" x2="-29755" x1="-30795" fill="none"/><line y2="-30957" y1="-31448" x2="-26826" x1="-27675" fill="none"/><line y2="-30873" y1="-31240" x2="-27019" x1="-27655" fill="none"/><line y2="-29648" y1="-29050" x2="-30795" x1="-29755" fill="none"/><line y2="-29868" y1="-30630" x2="-26638" x1="-26638" fill="none"/><line y2="-30850" y1="-29648" x2="-30795" x1="-30795" fill="none"/><line y2="-30700" y1="-29798" x2="-30625" x1="-30625" fill="none"/><line y2="-32497" y1="-31448" x2="-29755" x1="-29755" fill="none"/><line y2="-31263" y1="-30850" x2="-31514" x1="-30795" fill="none"/><line y2="-32202" y1="-31592" x2="-31772" x1="-31772" fill="none"/><line y2="-32202" y1="-31592" x2="-31633" x1="-31633" fill="none"/><line y2="-30896" y1="-31202" x2="-32387" x1="-31855" fill="none"/><line y2="-31018" y1="-31327" x2="-32456" x1="-31925" fill="none"/><text y="-31194" xml:space="preserve" x="-31855" stroke="none" font-size="433.3333" font-family="sans-serif">N</text><text y="-32242" xml:space="preserve" x="-31855" stroke="none" font-size="433.3333" font-family="sans-serif">O</text><text y="-30671" xml:space="preserve" x="-32762" stroke="none" font-size="433.3333" font-family="sans-serif">O</text><text y="-29469" xml:space="preserve" x="-26791" stroke="none" font-size="433.3333" font-family="sans-serif">NH</text><text y="-30671" xml:space="preserve" x="-26791" stroke="none" font-size="433.3333" font-family="sans-serif">N</text></g></g></svg>