<svg width="433.05" viewBox="0 0 14435 5652" text-rendering="auto" stroke-width="1" stroke-opacity="1" stroke-miterlimit="10" stroke-linejoin="miter" stroke-linecap="square" stroke-dashoffset="0" stroke-dasharray="none" stroke="black" shape-rendering="auto" image-rendering="auto" height="169.56" font-weight="normal" font-style="normal" font-size="12" font-family="'Dialog'" fill-opacity="1" fill="black" color-rendering="auto" color-interpolation="auto" xmlns="http://www.w3.org/2000/svg"><g><g stroke="white" fill="white"><rect y="0" x="0" width="14435" stroke="none" height="5652"/></g><g transform="translate(32866,32758)" text-rendering="geometricPrecision" stroke-width="44" stroke-linejoin="round" stroke-linecap="round"><line y2="-30235" y1="-30804" x2="-25040" x1="-26026" fill="none"/><line y2="-30160" y1="-30587" x2="-25248" x1="-25988" fill="none"/><line y2="-29096" y1="-30235" x2="-25040" x1="-25040" fill="none"/><line y2="-30804" y1="-30235" x2="-26026" x1="-27011" fill="none"/><line y2="-28530" y1="-29096" x2="-26026" x1="-25040" fill="none"/><line y2="-28747" y1="-29174" x2="-25988" x1="-25248" fill="none"/><line y2="-30235" y1="-29096" x2="-27011" x1="-27011" fill="none"/><line y2="-30093" y1="-29241" x2="-26840" x1="-26840" fill="none"/><line y2="-29096" y1="-28530" x2="-27011" x1="-26026" fill="none"/><line y2="-30651" y1="-30235" x2="-24321" x1="-25040" fill="none"/><line y2="-30235" y1="-30541" x2="-23226" x1="-23755" fill="none"/><line y2="-28683" y1="-29096" x2="-27730" x1="-27011" fill="none"/><line y2="-29096" y1="-28683" x2="-28825" x1="-28106" fill="none"/><line y2="-31633" y1="-30804" x2="-26026" x1="-26026" fill="none"/><line y2="-30651" y1="-30235" x2="-22507" x1="-23226" fill="none"/><line y2="-30235" y1="-30541" x2="-21412" x1="-21941" fill="none"/><line y2="-29406" y1="-30235" x2="-23157" x1="-23157" fill="none"/><line y2="-29406" y1="-30235" x2="-23296" x1="-23296" fill="none"/><line y2="-28530" y1="-29096" x2="-29810" x1="-28825" fill="none"/><line y2="-28747" y1="-29174" x2="-29772" x1="-29033" fill="none"/><line y2="-29096" y1="-30235" x2="-28825" x1="-28825" fill="none"/><line y2="-29096" y1="-28530" x2="-30795" x1="-29810" fill="none"/><line y2="-30235" y1="-30804" x2="-28825" x1="-29810" fill="none"/><line y2="-30160" y1="-30587" x2="-29033" x1="-29772" fill="none"/><line y2="-30235" y1="-29096" x2="-30795" x1="-30795" fill="none"/><line y2="-30093" y1="-29241" x2="-30625" x1="-30625" fill="none"/><line y2="-30804" y1="-30235" x2="-29810" x1="-30795" fill="none"/><line y2="-30758" y1="-30235" x2="-31702" x1="-30795" fill="none"/><line y2="-27701" y1="-28530" x2="-29810" x1="-29810" fill="none"/><line y2="-30758" y1="-30235" x2="-20505" x1="-21412" fill="none"/><line y2="-29406" y1="-30235" x2="-21343" x1="-21343" fill="none"/><line y2="-29406" y1="-30235" x2="-21481" x1="-21481" fill="none"/><line y2="-30344" y1="-30758" x2="-32422" x1="-31702" fill="none"/><line y2="-31448" y1="-30758" x2="-32101" x1="-31702" fill="none"/><line y2="-31448" y1="-30758" x2="-31306" x1="-31702" fill="none"/><line y2="-31896" y1="-30758" x2="-20505" x1="-20505" fill="none"/><line y2="-31754" y1="-30902" x2="-20334" x1="-20334" fill="none"/><line y2="-30758" y1="-30191" x2="-20505" x1="-19520" fill="none"/><line y2="-32465" y1="-31896" x2="-19520" x1="-20505" fill="none"/><line y2="-30191" y1="-30758" x2="-19520" x1="-18535" fill="none"/><line y2="-30408" y1="-30836" x2="-19482" x1="-18743" fill="none"/><line y2="-31896" y1="-32465" x2="-18535" x1="-19520" fill="none"/><line y2="-31821" y1="-32248" x2="-18743" x1="-19482" fill="none"/><line y2="-30758" y1="-31896" x2="-18535" x1="-18535" fill="none"/><line y2="-32312" y1="-31896" x2="-21224" x1="-20505" fill="none"/><line y2="-29362" y1="-30191" x2="-19520" x1="-19520" fill="none"/><text y="-30578" xml:space="preserve" x="-22472" stroke="none" font-size="433.3333" font-family="sans-serif">NH</text><text y="-29007" xml:space="preserve" x="-21565" stroke="none" font-size="433.3333" font-family="sans-serif">O</text><text y="-30578" xml:space="preserve" x="-24286" stroke="none" font-size="433.3333" font-family="sans-serif">NH</text><text y="-29007" xml:space="preserve" x="-23379" stroke="none" font-size="433.3333" font-family="sans-serif">O</text><text y="-32242" xml:space="preserve" x="-21565" stroke="none" font-size="433.3333" font-family="sans-serif">F</text><text y="-28964" xml:space="preserve" x="-19670" stroke="none" font-size="433.3333" font-family="sans-serif">F</text><text y="-31673" xml:space="preserve" x="-26176" stroke="none" font-size="433.3333" font-family="sans-serif">F</text><text y="-28394" xml:space="preserve" x="-28071" stroke="none" font-size="433.3333" font-family="sans-serif">O</text><text y="-27302" xml:space="preserve" x="-30041" stroke="none" font-size="433.3333" font-family="sans-serif">Cl</text><text y="-30056" xml:space="preserve" x="-32762" stroke="none" font-size="433.3333" font-family="sans-serif">F</text><text y="-31486" xml:space="preserve" x="-32378" stroke="none" font-size="433.3333" font-family="sans-serif">F</text><text y="-31486" xml:space="preserve" x="-31332" stroke="none" font-size="433.3333" font-family="sans-serif">F</text></g></g></svg>