<svg width="191.43" viewBox="0 0 6381 6355" text-rendering="auto" stroke-width="1" stroke-opacity="1" stroke-miterlimit="10" stroke-linejoin="miter" stroke-linecap="square" stroke-dashoffset="0" stroke-dasharray="none" stroke="black" shape-rendering="auto" image-rendering="auto" height="190.65" font-weight="normal" font-style="normal" font-size="12" font-family="'Dialog'" fill-opacity="1" fill="black" color-rendering="auto" color-interpolation="auto" xmlns="http://www.w3.org/2000/svg"><g><g stroke="white" fill="white"><rect y="0" x="0" width="6381" stroke="none" height="6355"/></g><g transform="translate(32866,32866)" text-rendering="geometricPrecision" stroke-width="44" stroke-linejoin="round" stroke-linecap="round"><line y2="-29845" y1="-29382" x2="-28862" x1="-29657" fill="none"/><line y2="-29382" y1="-29845" x2="-27692" x1="-28487" fill="none"/><line y2="-28236" y1="-29382" x2="-29657" x1="-29657" fill="none"/><line y2="-29382" y1="-29845" x2="-29657" x1="-30451" fill="none"/><line y2="-29293" y1="-29640" x2="-29845" x1="-30440" fill="none"/><line y2="-28236" y1="-29382" x2="-27692" x1="-27692" fill="none"/><line y2="-28236" y1="-27664" x2="-29657" x1="-28675" fill="none"/><line y2="-27664" y1="-28236" x2="-30639" x1="-29657" fill="none"/><line y2="-27880" y1="-28311" x2="-30604" x1="-29868" fill="none"/><line y2="-29845" y1="-29382" x2="-30830" x1="-31621" fill="none"/><line y2="-27664" y1="-28236" x2="-28675" x1="-27692" fill="none"/><line y2="-27880" y1="-28311" x2="-28640" x1="-27900" fill="none"/><line y2="-28126" y1="-27664" x2="-31434" x1="-30639" fill="none"/><line y2="-29382" y1="-28455" x2="-31621" x1="-31621" fill="none"/><line y2="-29267" y1="-28571" x2="-31454" x1="-31454" fill="none"/><line y2="-31003" y1="-30174" x2="-28675" x1="-28675" fill="none"/><line y2="-26615" y1="-27664" x2="-28675" x1="-28675" fill="none"/><line y2="-27909" y1="-28236" x2="-27126" x1="-27692" fill="none"/><line y2="-29709" y1="-29382" x2="-32188" x1="-31621" fill="none"/><line y2="-29859" y1="-29443" x2="-27008" x1="-27727" fill="none"/><line y2="-29738" y1="-29322" x2="-26938" x1="-27658" fill="none"/><line y2="-31699" y1="-31003" x2="-29576" x1="-28675" fill="none"/><line y2="-31003" y1="-31699" x2="-28675" x1="-27733" fill="none"/><line y2="-32762" y1="-31699" x2="-29206" x1="-29576" fill="none"/><line y2="-31699" y1="-32762" x2="-27733" x1="-28062" fill="none"/><line y2="-32762" y1="-32762" x2="-28062" x1="-29206" fill="none"/><text y="-29726" xml:space="preserve" x="-26938" stroke="none" font-size="433.3333" font-family="sans-serif">O</text><text y="-27534" xml:space="preserve" x="-27016" stroke="none" font-size="433.3333" font-family="sans-serif">Br</text><text y="-29726" xml:space="preserve" x="-32762" stroke="none" font-size="433.3333" font-family="sans-serif">Cl</text><text y="-29775" xml:space="preserve" x="-28828" stroke="none" font-size="433.3333" font-family="sans-serif">N</text><text y="-29775" xml:space="preserve" x="-30792" stroke="none" font-size="433.3333" font-family="sans-serif">N</text><text y="-28056" xml:space="preserve" x="-31774" stroke="none" font-size="433.3333" font-family="sans-serif">N</text></g></g></svg>