<svg width="765.57" viewBox="0 0 25519 12539" text-rendering="auto" stroke-width="1" stroke-opacity="1" stroke-miterlimit="10" stroke-linejoin="miter" stroke-linecap="square" stroke-dashoffset="0" stroke-dasharray="none" stroke="black" shape-rendering="auto" image-rendering="auto" height="376.17" font-weight="normal" font-style="normal" font-size="12" font-family="'Dialog'" fill-opacity="1" fill="black" color-rendering="auto" color-interpolation="auto" xmlns="http://www.w3.org/2000/svg"><g><g stroke="white" fill="white"><rect y="0" x="0" width="25519" stroke="none" height="12539"/></g><g transform="translate(32866,32758)" text-rendering="geometricPrecision" stroke-width="44" stroke-linejoin="round" stroke-linecap="round"><line y2="-27941" y1="-29088" x2="-19222" x1="-19222" fill="none"/><line y2="-29660" y1="-29088" x2="-18237" x1="-19222" fill="none"/><line y2="-29088" y1="-29660" x2="-19222" x1="-20204" fill="none"/><line y2="-27366" y1="-27941" x2="-20204" x1="-19222" fill="none"/><line y2="-27941" y1="-27941" x2="-19222" x1="-17255" fill="none"/><line y2="-29088" y1="-29660" x2="-17255" x1="-18237" fill="none"/><line y2="-30807" y1="-29660" x2="-18237" x1="-18237" fill="none"/><line y2="-29660" y1="-29088" x2="-20204" x1="-21187" fill="none"/><line y2="-27941" y1="-27366" x2="-21187" x1="-20204" fill="none"/><line y2="-26222" y1="-27366" x2="-20204" x1="-20204" fill="none"/><line y2="-27941" y1="-29088" x2="-17255" x1="-17255" fill="none"/><line y2="-29088" y1="-29550" x2="-17255" x1="-16460" fill="none"/><line y2="-30807" y1="-30807" x2="-16273" x1="-18237" fill="none"/><line y2="-30636" y1="-30636" x2="-16518" x1="-17994" fill="none"/><line y2="-29088" y1="-27941" x2="-21187" x1="-21187" fill="none"/><line y2="-27941" y1="-27366" x2="-21187" x1="-22169" fill="none"/><line y2="-25647" y1="-26222" x2="-21187" x1="-20204" fill="none"/><line y2="-29879" y1="-30807" x2="-16273" x1="-16273" fill="none"/><line y2="-26222" y1="-27366" x2="-22169" x1="-22169" fill="none"/><line y2="-27366" y1="-27941" x2="-22169" x1="-23151" fill="none"/><line y2="-26222" y1="-25647" x2="-22169" x1="-21187" fill="none"/><line y2="-26297" y1="-25867" x2="-21961" x1="-21224" fill="none"/><line y2="-25647" y1="-26222" x2="-23151" x1="-22169" fill="none"/><line y2="-27941" y1="-27366" x2="-23151" x1="-24133" fill="none"/><line y2="-26222" y1="-25647" x2="-24133" x1="-23151" fill="none"/><line y2="-27366" y1="-26222" x2="-24133" x1="-24133" fill="none"/><line y2="-26222" y1="-25806" x2="-25948" x1="-25228" fill="none"/><line y2="-31330" y1="-30807" x2="-15366" x1="-16273" fill="none"/><line y2="-30807" y1="-31330" x2="-14458" x1="-15366" fill="none"/><line y2="-31330" y1="-30807" x2="-13551" x1="-14458" fill="none"/><line y2="-31546" y1="-30807" x2="-18980" x1="-18237" fill="none"/><line y2="-25653" y1="-26222" x2="-26933" x1="-25948" fill="none"/><line y2="-26222" y1="-27138" x2="-25948" x1="-25948" fill="none"/><line y2="-26222" y1="-25653" x2="-27918" x1="-26933" fill="none"/><line y2="-27467" y1="-27926" x2="-26135" x1="-26933" fill="none"/><line y2="-27357" y1="-26222" x2="-27918" x1="-27918" fill="none"/><line y2="-27926" y1="-27357" x2="-26933" x1="-27918" fill="none"/><line y2="-23079" y1="-23492" x2="-27840" x1="-27120" fill="none"/><line y2="-27357" y1="-27773" x2="-29732" x1="-29013" fill="none"/><line y2="-29278" y1="-28975" x2="-27458" x1="-26933" fill="none"/><line y2="-30807" y1="-31330" x2="-12644" x1="-13551" fill="none"/><line y2="-31223" y1="-30807" x2="-11925" x1="-12644" fill="none"/><line y2="-23079" y1="-23645" x2="-27840" x1="-28822" fill="none"/><line y2="-22160" y1="-23079" x2="-27840" x1="-27840" fill="none"/><line y2="-23645" y1="-23079" x2="-28822" x1="-29810" fill="none"/><line y2="-21372" y1="-21831" x2="-28822" x1="-28028" fill="none"/><line y2="-23079" y1="-21941" x2="-29810" x1="-29810" fill="none"/><line y2="-21941" y1="-21372" x2="-29810" x1="-28822" fill="none"/><line y2="-27357" y1="-27926" x2="-29732" x1="-30717" fill="none"/><line y2="-26442" y1="-27357" x2="-29732" x1="-29732" fill="none"/><line y2="-27926" y1="-27357" x2="-30717" x1="-31702" fill="none"/><line y2="-25653" y1="-26112" x2="-30717" x1="-29920" fill="none"/><line y2="-27357" y1="-26222" x2="-31702" x1="-31702" fill="none"/><line y2="-26222" y1="-25653" x2="-31702" x1="-30717" fill="none"/><line y2="-30807" y1="-29888" x2="-10830" x1="-10830" fill="none"/><line y2="-31376" y1="-30807" x2="-9848" x1="-10830" fill="none"/><line y2="-29562" y1="-29099" x2="-10642" x1="-9848" fill="none"/><line y2="-30807" y1="-31376" x2="-8860" x1="-9848" fill="none"/><line y2="-29099" y1="-29668" x2="-9848" x1="-8860" fill="none"/><line y2="-29668" y1="-30807" x2="-8860" x1="-8860" fill="none"/><line y2="-27638" y1="-28054" x2="-9128" x1="-9848" fill="none"/><polygon stroke-width="1" stroke="none" points=" -24133 -26222 -24818 -25745 -24887 -25864"/><polygon stroke-width="1" points=" -24133 -26222 -24818 -25745 -24887 -25864" fill="none"/><polygon stroke-width="1" stroke="none" points=" -19222 -29088 -19289 -30134 -19153 -30134"/><polygon stroke-width="1" points=" -19222 -29088 -19289 -30134 -19153 -30134" fill="none"/><polygon stroke-width="1" stroke="none" points=" -22169 -27366 -22238 -28415 -22100 -28415"/><polygon stroke-width="1" points=" -22169 -27366 -22238 -28415 -22100 -28415" fill="none"/><polygon stroke-width="1" stroke="none" points=" -20204 -27366 -20274 -28195 -20135 -28195"/><polygon stroke-width="1" points=" -20204 -27366 -20274 -28195 -20135 -28195" fill="none"/><polygon stroke-width="1" stroke="none" points=" -26933 -27926 -27002 -28975 -26863 -28975"/><polygon stroke-width="1" points=" -26933 -27926 -27002 -28975 -26863 -28975" fill="none"/><polygon stroke-width="1" stroke="none" points=" -27918 -26222 -28409 -25855 -28481 -25976"/><polygon stroke-width="1" points=" -27918 -26222 -28409 -25855 -28481 -25976" fill="none"/><polygon stroke-width="1" stroke="none" points=" -11584 -31162 -10830 -30807 -11515 -31280"/><polygon stroke-width="1" points=" -11584 -31162 -10830 -30807 -11515 -31280" fill="none"/><polygon stroke-width="1" stroke="none" points=" -13551 -31330 -13621 -32378 -13482 -32378"/><polygon stroke-width="1" points=" -13551 -31330 -13621 -32378 -13482 -32378" fill="none"/><polygon stroke-width="1" stroke="none" points=" -28822 -21372 -28753 -20323 -28891 -20323"/><polygon stroke-width="1" points=" -28822 -21372 -28753 -20323 -28891 -20323" fill="none"/><polygon stroke-width="1" stroke="none" points=" -28822 -23645 -28891 -24474 -28753 -24474"/><polygon stroke-width="1" points=" -28822 -23645 -28891 -24474 -28753 -24474" fill="none"/><polygon stroke-width="1" stroke="none" points=" -29810 -23079 -30370 -23322 -30301 -23440"/><polygon stroke-width="1" points=" -29810 -23079 -30370 -23322 -30301 -23440" fill="none"/><polygon stroke-width="1" stroke="none" points=" -27840 -23079 -27086 -22721 -27152 -22602"/><polygon stroke-width="1" points=" -27840 -23079 -27086 -22721 -27152 -22602" fill="none"/><polygon stroke-width="1" stroke="none" points=" -30717 -25653 -30648 -24604 -30786 -24604"/><polygon stroke-width="1" points=" -30717 -25653 -30648 -24604 -30786 -24604" fill="none"/><polygon stroke-width="1" stroke="none" points=" -30717 -27926 -30786 -28756 -30648 -28756"/><polygon stroke-width="1" points=" -30717 -27926 -30786 -28756 -30648 -28756" fill="none"/><polygon stroke-width="1" stroke="none" points=" -31702 -27357 -32266 -27603 -32196 -27721"/><polygon stroke-width="1" points=" -31702 -27357 -32266 -27603 -32196 -27721" fill="none"/><polygon stroke-width="1" stroke="none" points=" -29732 -27357 -28981 -27002 -29047 -26881"/><polygon stroke-width="1" points=" -29732 -27357 -28981 -27002 -29047 -26881" fill="none"/><polygon stroke-width="1" stroke="none" points=" -9848 -29099 -9778 -28054 -9917 -28051"/><polygon stroke-width="1" points=" -9848 -29099 -9778 -28054 -9917 -28051" fill="none"/><polygon stroke-width="1" stroke="none" points=" -8860 -30807 -8175 -31280 -8106 -31162"/><polygon stroke-width="1" points=" -8860 -30807 -8175 -31280 -8106 -31162" fill="none"/><line y2="-27112" y1="-27112" x2="-19289" x1="-19153" fill="none"/><line y2="-27329" y1="-27329" x2="-19271" x1="-19171" fill="none"/><line y2="-27545" y1="-27545" x2="-19254" x1="-19189" fill="none"/><line y2="-27762" y1="-27762" x2="-19236" x1="-19207" fill="none"/><line y2="-27112" y1="-27112" x2="-21256" x1="-21117" fill="none"/><line y2="-27329" y1="-27329" x2="-21238" x1="-21135" fill="none"/><line y2="-27545" y1="-27545" x2="-21220" x1="-21154" fill="none"/><line y2="-27762" y1="-27762" x2="-21202" x1="-21172" fill="none"/><line y2="-28831" y1="-28831" x2="-18306" x1="-18171" fill="none"/><line y2="-29048" y1="-29048" x2="-18288" x1="-18188" fill="none"/><line y2="-29264" y1="-29264" x2="-18270" x1="-18205" fill="none"/><line y2="-29481" y1="-29481" x2="-18252" x1="-18223" fill="none"/><line y2="-29914" y1="-29914" x2="-17188" x1="-17324" fill="none"/><line y2="-29697" y1="-29697" x2="-17206" x1="-17306" fill="none"/><line y2="-29481" y1="-29481" x2="-17223" x1="-17288" fill="none"/><line y2="-29264" y1="-29264" x2="-17241" x1="-17270" fill="none"/><line y2="-23821" y1="-23821" x2="-27002" x1="-26863" fill="none"/><line y2="-24038" y1="-24038" x2="-26994" x1="-26871" fill="none"/><line y2="-24254" y1="-24254" x2="-26986" x1="-26880" fill="none"/><line y2="-24471" y1="-24471" x2="-26978" x1="-26888" fill="none"/><line y2="-24688" y1="-24688" x2="-26969" x1="-26896" fill="none"/><line y2="-24904" y1="-24904" x2="-26961" x1="-26904" fill="none"/><line y2="-25121" y1="-25121" x2="-26953" x1="-26913" fill="none"/><line y2="-25338" y1="-25338" x2="-26945" x1="-26921" fill="none"/><line y2="-25554" y1="-25554" x2="-26937" x1="-26929" fill="none"/><line y2="-27834" y1="-27713" x2="-28602" x1="-28672" fill="none"/><line y2="-27710" y1="-27620" x2="-28424" x1="-28475" fill="none"/><line y2="-27585" y1="-27527" x2="-28245" x1="-28279" fill="none"/><line y2="-27461" y1="-27435" x2="-28067" x1="-28082" fill="none"/><line y2="-25393" y1="-25393" x2="-26017" x1="-25878" fill="none"/><line y2="-25610" y1="-25610" x2="-25999" x1="-25896" fill="none"/><line y2="-25826" y1="-25826" x2="-25981" x1="-25915" fill="none"/><line y2="-26043" y1="-26043" x2="-25963" x1="-25933" fill="none"/><line y2="-21695" y1="-21577" x2="-30370" x1="-30301" fill="none"/><line y2="-21783" y1="-21707" x2="-30170" x1="-30126" fill="none"/><line y2="-21870" y1="-21837" x2="-29971" x1="-29951" fill="none"/><line y2="-25976" y1="-25855" x2="-32266" x1="-32196" fill="none"/><line y2="-26063" y1="-25985" x2="-32066" x1="-32021" fill="none"/><line y2="-26150" y1="-26115" x2="-31866" x1="-31846" fill="none"/><line y2="-32202" y1="-32202" x2="-9778" x1="-9917" fill="none"/><line y2="-31985" y1="-31985" x2="-9796" x1="-9899" fill="none"/><line y2="-31769" y1="-31769" x2="-9815" x1="-9881" fill="none"/><line y2="-31552" y1="-31552" x2="-9833" x1="-9863" fill="none"/><line y2="-29192" y1="-29313" x2="-8175" x1="-8106" fill="none"/><line y2="-29316" y1="-29406" x2="-8354" x1="-8303" fill="none"/><line y2="-29440" y1="-29498" x2="-8532" x1="-8499" fill="none"/><line y2="-29564" y1="-29591" x2="-8711" x1="-8696" fill="none"/><text y="-31150" xml:space="preserve" x="-11890" stroke="none" font-size="433.3333" font-family="sans-serif">O</text><text y="-25517" xml:space="preserve" x="-25194" stroke="none" font-size="433.3333" font-family="sans-serif">O</text><text y="-23423" xml:space="preserve" x="-27083" stroke="none" font-size="433.3333" font-family="sans-serif">O</text><text y="-32242" xml:space="preserve" x="-9998" stroke="none" font-size="433.3333" font-family="sans-serif">OH</text><text y="-25517" xml:space="preserve" x="-28978" stroke="none" font-size="433.3333" font-family="sans-serif">OH</text><text y="-29319" xml:space="preserve" x="-27990" stroke="none" font-size="433.3333" font-family="sans-serif">OH</text><text y="-27349" xml:space="preserve" x="-9091" stroke="none" font-size="433.3333" font-family="sans-serif">OH</text><text y="-31150" xml:space="preserve" x="-8106" stroke="none" font-size="433.3333" font-family="sans-serif">OH</text><text y="-27704" xml:space="preserve" x="-28978" stroke="none" font-size="433.3333" font-family="sans-serif">O</text><text y="-28966" xml:space="preserve" x="-8106" stroke="none" font-size="433.3333" font-family="sans-serif">OH</text><text y="-24515" xml:space="preserve" x="-28975" stroke="none" font-size="433.3333" font-family="sans-serif">OH</text><text y="-23423" xml:space="preserve" x="-30867" stroke="none" font-size="433.3333" font-family="sans-serif">OH</text><text y="-28796" xml:space="preserve" x="-30867" stroke="none" font-size="433.3333" font-family="sans-serif">OH</text><text y="-21236" xml:space="preserve" x="-30867" stroke="none" font-size="433.3333" font-family="sans-serif">OH</text><text y="-27704" xml:space="preserve" x="-32762" stroke="none" font-size="433.3333" font-family="sans-serif">OH</text><text y="-25517" xml:space="preserve" x="-32762" stroke="none" font-size="433.3333" font-family="sans-serif">OH</text><text y="-29481" xml:space="preserve" x="-16426" stroke="none" font-size="433.3333" font-family="sans-serif">O</text><text y="-27178" xml:space="preserve" x="-26101" stroke="none" font-size="433.3333" font-family="sans-serif">O</text><text y="-29489" xml:space="preserve" x="-10983" stroke="none" font-size="433.3333" font-family="sans-serif">O</text><text y="-21762" xml:space="preserve" x="-27990" stroke="none" font-size="433.3333" font-family="sans-serif">O</text><text y="-26043" xml:space="preserve" x="-29885" stroke="none" font-size="433.3333" font-family="sans-serif">O</text><text y="-26713" xml:space="preserve" x="-19372" stroke="none" font-size="433.3333" font-family="sans-serif">H</text><text y="-28236" xml:space="preserve" x="-20358" stroke="none" font-size="433.3333" font-family="sans-serif">H</text><text y="-26713" xml:space="preserve" x="-21340" stroke="none" font-size="433.3333" font-family="sans-serif">H</text><text y="-28432" xml:space="preserve" x="-18390" stroke="none" font-size="433.3333" font-family="sans-serif">H</text><text y="-29954" xml:space="preserve" x="-17408" stroke="none" font-size="433.3333" font-family="sans-serif">H</text><text y="-24994" xml:space="preserve" x="-26101" stroke="none" font-size="433.3333" font-family="sans-serif">H</text><text y="-22374" xml:space="preserve" x="-27083" stroke="none" font-size="433.3333" font-family="sans-serif">H</text><text y="-26655" xml:space="preserve" x="-28978" stroke="none" font-size="433.3333" font-family="sans-serif">H</text><text y="-30847" xml:space="preserve" x="-13704" stroke="none" font-style="italic" font-size="313.3333" font-family="sans-serif">R</text><text y="-28764" xml:space="preserve" x="-19124" stroke="none" font-style="italic" font-size="313.3333" font-family="sans-serif">S</text><text y="-27906" xml:space="preserve" x="-19621" stroke="none" font-style="italic" font-size="313.3333" font-family="sans-serif">S</text><text y="-29625" xml:space="preserve" x="-18639" stroke="none" font-style="italic" font-size="313.3333" font-family="sans-serif">S</text><text y="-27045" xml:space="preserve" x="-20106" stroke="none" font-style="italic" font-size="313.3333" font-family="sans-serif">S</text><text y="-28764" xml:space="preserve" x="-17160" stroke="none" font-style="italic" font-size="313.3333" font-family="sans-serif">S</text><text y="-27906" xml:space="preserve" x="-21091" stroke="none" font-style="italic" font-size="313.3333" font-family="sans-serif">S</text><text y="-27045" xml:space="preserve" x="-22074" stroke="none" font-style="italic" font-size="313.3333" font-family="sans-serif">R</text><text y="-26187" xml:space="preserve" x="-24038" stroke="none" font-style="italic" font-size="313.3333" font-family="sans-serif">S</text><text y="-26187" xml:space="preserve" x="-26349" stroke="none" font-style="italic" font-size="313.3333" font-family="sans-serif">R</text><text y="-25777" xml:space="preserve" x="-27083" stroke="none" font-style="italic" font-size="313.3333" font-family="sans-serif">R</text><text y="-26187" xml:space="preserve" x="-27822" stroke="none" font-style="italic" font-size="313.3333" font-family="sans-serif">S</text><text y="-27447" xml:space="preserve" x="-27083" stroke="none" font-style="italic" font-size="313.3333" font-family="sans-serif">R</text><text y="-27037" xml:space="preserve" x="-27822" stroke="none" font-style="italic" font-size="313.3333" font-family="sans-serif">S</text><text y="-30483" xml:space="preserve" x="-10735" stroke="none" font-style="italic" font-size="313.3333" font-family="sans-serif">R</text><text y="-30893" xml:space="preserve" x="-9998" stroke="none" font-style="italic" font-size="313.3333" font-family="sans-serif">R</text><text y="-29224" xml:space="preserve" x="-9998" stroke="none" font-style="italic" font-size="313.3333" font-family="sans-serif">R</text><text y="-30483" xml:space="preserve" x="-9261" stroke="none" font-style="italic" font-size="313.3333" font-family="sans-serif">S</text><text y="-29634" xml:space="preserve" x="-9261" stroke="none" font-style="italic" font-size="313.3333" font-family="sans-serif">S</text><text y="-23200" xml:space="preserve" x="-27990" stroke="none" font-style="italic" font-size="313.3333" font-family="sans-serif">S</text><text y="-23166" xml:space="preserve" x="-28975" stroke="none" font-style="italic" font-size="313.3333" font-family="sans-serif">R</text><text y="-22755" xml:space="preserve" x="-29712" stroke="none" font-style="italic" font-size="313.3333" font-family="sans-serif">R</text><text y="-21496" xml:space="preserve" x="-28975" stroke="none" font-style="italic" font-size="313.3333" font-family="sans-serif">S</text><text y="-21906" xml:space="preserve" x="-29712" stroke="none" font-style="italic" font-size="313.3333" font-family="sans-serif">R</text><text y="-27482" xml:space="preserve" x="-29885" stroke="none" font-style="italic" font-size="313.3333" font-family="sans-serif">S</text><text y="-27447" xml:space="preserve" x="-30867" stroke="none" font-style="italic" font-size="313.3333" font-family="sans-serif">R</text><text y="-27037" xml:space="preserve" x="-31607" stroke="none" font-style="italic" font-size="313.3333" font-family="sans-serif">R</text><text y="-25777" xml:space="preserve" x="-30867" stroke="none" font-style="italic" font-size="313.3333" font-family="sans-serif">S</text><text y="-26187" xml:space="preserve" x="-31607" stroke="none" font-style="italic" font-size="313.3333" font-family="sans-serif">R</text></g></g></svg>