<svg width="129.12" viewBox="0 0 4304 5442" text-rendering="auto" stroke-width="1" stroke-opacity="1" stroke-miterlimit="10" stroke-linejoin="miter" stroke-linecap="square" stroke-dashoffset="0" stroke-dasharray="none" stroke="black" shape-rendering="auto" image-rendering="auto" height="163.26" font-weight="normal" font-style="normal" font-size="12" font-family="'Dialog'" fill-opacity="1" fill="black" color-rendering="auto" color-interpolation="auto" xmlns="http://www.w3.org/2000/svg"><g><g stroke="white" fill="white"><rect y="0" x="0" width="4304" stroke="none" height="5442"/></g><g transform="translate(32866,32866)" text-rendering="geometricPrecision" stroke-width="44" stroke-linejoin="round" stroke-linecap="round"><line y2="-31142" y1="-29995" x2="-30630" x1="-30630" fill="none"/><line y2="-30997" y1="-30139" x2="-30460" x1="-30460" fill="none"/><line y2="-29423" y1="-29995" x2="-31613" x1="-30630" fill="none"/><line y2="-29995" y1="-29423" x2="-30630" x1="-29648" fill="none"/><line y2="-31142" y1="-31714" x2="-30630" x1="-31613" fill="none"/><line y2="-31604" y1="-31142" x2="-29836" x1="-30630" fill="none"/><line y2="-29995" y1="-29423" x2="-32595" x1="-31613" fill="none"/><line y2="-30070" y1="-29640" x2="-32387" x1="-31650" fill="none"/><line y2="-29423" y1="-29995" x2="-29648" x1="-28666" fill="none"/><line y2="-29640" y1="-30070" x2="-29611" x1="-28874" fill="none"/><line y2="-31714" y1="-31142" x2="-31613" x1="-32595" fill="none"/><line y2="-31497" y1="-31067" x2="-31650" x1="-32387" fill="none"/><line y2="-31142" y1="-31604" x2="-28666" x1="-29460" fill="none"/><line y2="-31052" y1="-31399" x2="-28851" x1="-29446" fill="none"/><line y2="-31142" y1="-29995" x2="-32595" x1="-32595" fill="none"/><line y2="-29995" y1="-31142" x2="-28666" x1="-28666" fill="none"/><line y2="-32762" y1="-31714" x2="-31613" x1="-31613" fill="none"/><line y2="-28594" y1="-29423" x2="-31613" x1="-31613" fill="none"/><line y2="-28019" y1="-28267" x2="-32231" x1="-31800" fill="none"/><line y2="-27958" y1="-28267" x2="-30893" x1="-31425" fill="none"/><text y="-28195" xml:space="preserve" x="-31766" stroke="none" font-size="433.3333" font-family="sans-serif">B</text><text y="-27620" xml:space="preserve" x="-32762" stroke="none" font-size="433.3333" font-family="sans-serif">OH</text><text y="-27672" xml:space="preserve" x="-30859" stroke="none" font-size="433.3333" font-family="sans-serif">OH</text><text y="-31535" xml:space="preserve" x="-29801" stroke="none" font-size="433.3333" font-family="sans-serif">N</text></g></g></svg>