<svg width="222.51" viewBox="0 0 7417 4696" text-rendering="auto" stroke-width="1" stroke-opacity="1" stroke-miterlimit="10" stroke-linejoin="miter" stroke-linecap="square" stroke-dashoffset="0" stroke-dasharray="none" stroke="black" shape-rendering="auto" image-rendering="auto" height="140.88" font-weight="normal" font-style="normal" font-size="12" font-family="'Dialog'" fill-opacity="1" fill="black" color-rendering="auto" color-interpolation="auto" xmlns="http://www.w3.org/2000/svg"><g><g stroke="white" fill="white"><rect y="0" x="0" width="7417" stroke="none" height="4696"/></g><g transform="translate(32866,32758)" text-rendering="geometricPrecision" stroke-width="44" stroke-linejoin="round" stroke-linecap="round"><line y2="-29871" y1="-30440" x2="-28669" x1="-29651" fill="none"/><line y2="-29796" y1="-30223" x2="-28877" x1="-29614" fill="none"/><line y2="-28955" y1="-29871" x2="-28669" x1="-28669" fill="none"/><line y2="-30440" y1="-29980" x2="-29651" x1="-30451" fill="none"/><line y2="-28735" y1="-28735" x2="-30639" x1="-28857" fill="none"/><line y2="-28906" y1="-28906" x2="-30417" x1="-29079" fill="none"/><line y2="-28735" y1="-29654" x2="-30639" x1="-30639" fill="none"/><line y2="-29980" y1="-30440" x2="-30830" x1="-31624" fill="none"/><line y2="-28166" y1="-28735" x2="-31624" x1="-30639" fill="none"/><line y2="-30440" y1="-29871" x2="-31624" x1="-32609" fill="none"/><line y2="-30223" y1="-29796" x2="-31662" x1="-32401" fill="none"/><line y2="-28626" y1="-28166" x2="-32422" x1="-31624" fill="none"/><line y2="-28718" y1="-28371" x2="-32237" x1="-31639" fill="none"/><line y2="-29871" y1="-28955" x2="-32609" x1="-32609" fill="none"/><line y2="-30396" y1="-29871" x2="-27762" x1="-28669" fill="none"/><line y2="-31564" y1="-30396" x2="-27357" x1="-27762" fill="none"/><line y2="-30396" y1="-29778" x2="-27762" x1="-26962" fill="none"/><line y2="-30454" y1="-29989" x2="-27557" x1="-26959" fill="none"/><line y2="-31564" y1="-31564" x2="-26286" x1="-27357" fill="none"/><line y2="-31393" y1="-31393" x2="-26421" x1="-27224" fill="none"/><line y2="-29770" y1="-30258" x2="-26586" x1="-25927" fill="none"/><line y2="-30616" y1="-31344" x2="-25806" x1="-26031" fill="none"/><line y2="-32202" y1="-31564" x2="-27805" x1="-27357" fill="none"/><text y="-32242" xml:space="preserve" x="-28111" stroke="none" font-size="433.3333" font-family="sans-serif">NH</text><text y="-32153" xml:space="preserve" x="-27534" stroke="none" font-size="313.3333" font-family="sans-serif">2</text><text y="-28556" xml:space="preserve" x="-28822" stroke="none" font-size="433.3333" font-family="sans-serif">N</text><text y="-29692" xml:space="preserve" x="-30792" stroke="none" font-size="433.3333" font-family="sans-serif">N</text><text y="-28556" xml:space="preserve" x="-32762" stroke="none" font-size="433.3333" font-family="sans-serif">N</text><text y="-29452" xml:space="preserve" x="-26927" stroke="none" font-size="433.3333" font-family="sans-serif">N</text><text y="-31384" xml:space="preserve" x="-26251" stroke="none" font-size="433.3333" font-family="sans-serif">N</text><text y="-30217" xml:space="preserve" x="-25890" stroke="none" font-size="433.3333" font-family="sans-serif">O</text></g></g></svg>