<svg width="342.15" viewBox="0 0 11405 5670" text-rendering="auto" stroke-width="1" stroke-opacity="1" stroke-miterlimit="10" stroke-linejoin="miter" stroke-linecap="square" stroke-dashoffset="0" stroke-dasharray="none" stroke="black" shape-rendering="auto" image-rendering="auto" height="170.1" font-weight="normal" font-style="normal" font-size="12" font-family="'Dialog'" fill-opacity="1" fill="black" color-rendering="auto" color-interpolation="auto" xmlns="http://www.w3.org/2000/svg"><g><g stroke="white" fill="white"><rect y="0" x="0" width="11405" stroke="none" height="5670"/></g><g transform="translate(32866,32758)" text-rendering="geometricPrecision" stroke-width="44" stroke-linejoin="round" stroke-linecap="round"><line y2="-29189" y1="-29758" x2="-28071" x1="-29053" fill="none"/><line y2="-29114" y1="-29541" x2="-28279" x1="-29016" fill="none"/><line y2="-28054" y1="-29189" x2="-28071" x1="-28071" fill="none"/><line y2="-29758" y1="-29189" x2="-29053" x1="-30041" fill="none"/><line y2="-27484" y1="-28054" x2="-29053" x1="-28071" fill="none"/><line y2="-27701" y1="-28129" x2="-29016" x1="-28279" fill="none"/><line y2="-29189" y1="-28054" x2="-30041" x1="-30041" fill="none"/><line y2="-29047" y1="-28195" x2="-29871" x1="-29871" fill="none"/><line y2="-28054" y1="-27484" x2="-30041" x1="-29053" fill="none"/><line y2="-29715" y1="-29189" x2="-27164" x1="-28071" fill="none"/><line y2="-27528" y1="-28054" x2="-27164" x1="-28071" fill="none"/><line y2="-29605" y1="-29189" x2="-30760" x1="-30041" fill="none"/><line y2="-29189" y1="-29605" x2="-31855" x1="-31136" fill="none"/><line y2="-27747" y1="-28054" x2="-30570" x1="-30041" fill="none"/><line y2="-30850" y1="-29715" x2="-27164" x1="-27164" fill="none"/><line y2="-29715" y1="-29146" x2="-27164" x1="-26176" fill="none"/><line y2="-31419" y1="-30850" x2="-26176" x1="-27164" fill="none"/><line y2="-29146" y1="-29715" x2="-26176" x1="-25194" fill="none"/><line y2="-30960" y1="-31419" x2="-25381" x1="-26176" fill="none"/><line y2="-29715" y1="-30630" x2="-25194" x1="-25194" fill="none"/><line y2="-31376" y1="-30960" x2="-24286" x1="-25006" fill="none"/><line y2="-29715" y1="-29189" x2="-32762" x1="-31855" fill="none"/><line y2="-28143" y1="-29189" x2="-31855" x1="-31855" fill="none"/><line y2="-30960" y1="-31376" x2="-23567" x1="-24286" fill="none"/><line y2="-31376" y1="-30960" x2="-22472" x1="-23192" fill="none"/><line y2="-32202" y1="-31376" x2="-24356" x1="-24356" fill="none"/><line y2="-32202" y1="-31376" x2="-24217" x1="-24217" fill="none"/><line y2="-30850" y1="-31376" x2="-21565" x1="-22472" fill="none"/><line y2="-32283" y1="-31376" x2="-21949" x1="-22472" fill="none"/><line y2="-32283" y1="-31376" x2="-22995" x1="-22472" fill="none"/><text y="-29536" xml:space="preserve" x="-31101" stroke="none" font-size="433.3333" font-family="sans-serif">O</text><text y="-27349" xml:space="preserve" x="-31101" stroke="none" font-size="433.3333" font-family="sans-serif">NH</text><text y="-27259" xml:space="preserve" x="-30524" stroke="none" font-size="313.3333" font-family="sans-serif">2</text><text y="-30671" xml:space="preserve" x="-23532" stroke="none" font-size="433.3333" font-family="sans-serif">O</text><text y="-32242" xml:space="preserve" x="-24440" stroke="none" font-size="433.3333" font-family="sans-serif">O</text><text y="-30671" xml:space="preserve" x="-25347" stroke="none" font-size="433.3333" font-family="sans-serif">N</text></g></g></svg>