<svg width="357.03" viewBox="0 0 11901 2283" text-rendering="auto" stroke-width="1" stroke-opacity="1" stroke-miterlimit="10" stroke-linejoin="miter" stroke-linecap="square" stroke-dashoffset="0" stroke-dasharray="none" stroke="black" shape-rendering="auto" image-rendering="auto" height="68.49" font-weight="normal" font-style="normal" font-size="12" font-family="'Dialog'" fill-opacity="1" fill="black" color-rendering="auto" color-interpolation="auto" xmlns="http://www.w3.org/2000/svg"><g><g stroke="white" fill="white"><rect y="0" x="0" width="11901" stroke="none" height="2283"/></g><g transform="translate(32866,32758)" text-rendering="geometricPrecision" stroke-width="44" stroke-linejoin="round" stroke-linecap="round"><line y2="-32632" y1="-31165" x2="-25144" x1="-25144" fill="none"/><line y2="-32632" y1="-32632" x2="-25419" x1="-25144" fill="none"/><line y2="-31165" y1="-31165" x2="-25419" x1="-25144" fill="none"/><line y2="-32632" y1="-31165" x2="-28848" x1="-28848" fill="none"/><line y2="-32632" y1="-32632" x2="-28576" x1="-28848" fill="none"/><line y2="-31165" y1="-31165" x2="-28576" x1="-28848" fill="none"/><line y2="-31899" y1="-31899" x2="-24295" x1="-25997" fill="none"/><line y2="-31376" y1="-31792" x2="-27092" x1="-26372" fill="none"/><line y2="-31899" y1="-31376" x2="-27999" x1="-27092" fill="none"/><line y2="-32422" y1="-31899" x2="-23388" x1="-24295" fill="none"/><line y2="-31899" y1="-32422" x2="-22481" x1="-23388" fill="none"/><line y2="-31899" y1="-31899" x2="-29700" x1="-27999" fill="none"/><line y2="-32315" y1="-31899" x2="-21762" x1="-22481" fill="none"/><line y2="-31070" y1="-31899" x2="-22409" x1="-22409" fill="none"/><line y2="-31070" y1="-31899" x2="-22550" x1="-22550" fill="none"/><line y2="-31376" y1="-31792" x2="-30795" x1="-30076" fill="none"/><line y2="-31899" y1="-31376" x2="-31702" x1="-30795" fill="none"/><line y2="-31595" y1="-31899" x2="-32231" x1="-31702" fill="none"/><text y="-31168" xml:space="preserve" x="-25043" stroke="none" font-size="433.3333" font-family="sans-serif">n</text><text y="-31720" xml:space="preserve" x="-26335" stroke="none" font-size="433.3333" font-family="sans-serif">O</text><text y="-31720" xml:space="preserve" x="-30041" stroke="none" font-size="433.3333" font-family="sans-serif">O</text><text y="-32242" xml:space="preserve" x="-21724" stroke="none" font-size="433.3333" font-family="sans-serif">OH</text><text y="-30671" xml:space="preserve" x="-22631" stroke="none" font-size="433.3333" font-family="sans-serif">O</text><text y="-31197" xml:space="preserve" x="-32762" stroke="none" font-size="433.3333" font-family="sans-serif">SH</text></g></g></svg>