<svg width="354.78" viewBox="0 0 11826 8755" text-rendering="auto" stroke-width="1" stroke-opacity="1" stroke-miterlimit="10" stroke-linejoin="miter" stroke-linecap="square" stroke-dashoffset="0" stroke-dasharray="none" stroke="black" shape-rendering="auto" image-rendering="auto" height="262.65" font-weight="normal" font-style="normal" font-size="12" font-family="'Dialog'" fill-opacity="1" fill="black" color-rendering="auto" color-interpolation="auto" xmlns="http://www.w3.org/2000/svg"><g><g stroke="white" fill="white"><rect y="0" x="0" width="11826" stroke="none" height="8755"/></g><g transform="translate(32866,32866)" text-rendering="geometricPrecision" stroke-width="44" stroke-linejoin="round" stroke-linecap="round"><line y2="-29394" y1="-28828" x2="-29804" x1="-28822" fill="none"/><line y2="-28828" y1="-29394" x2="-28822" x1="-27834" fill="none"/><line y2="-29044" y1="-29472" x2="-28782" x1="-28042" fill="none"/><line y2="-27909" y1="-28828" x2="-28822" x1="-28822" fill="none"/><line y2="-29394" y1="-28828" x2="-29804" x1="-30792" fill="none"/><line y2="-30532" y1="-29394" x2="-29804" x1="-29804" fill="none"/><line y2="-30391" y1="-29538" x2="-29634" x1="-29634" fill="none"/><line y2="-29394" y1="-30532" x2="-27834" x1="-27834" fill="none"/><line y2="-27120" y1="-27580" x2="-29804" x1="-29010" fill="none"/><line y2="-27326" y1="-27669" x2="-29790" x1="-29195" fill="none"/><line y2="-27909" y1="-28828" x2="-30792" x1="-30792" fill="none"/><line y2="-28828" y1="-29287" x2="-30792" x1="-31587" fill="none"/><line y2="-28738" y1="-29082" x2="-30977" x1="-31572" fill="none"/><line y2="-31101" y1="-30532" x2="-28822" x1="-29804" fill="none"/><line y2="-30532" y1="-31101" x2="-27834" x1="-28822" fill="none"/><line y2="-30454" y1="-30882" x2="-28042" x1="-28782" fill="none"/><line y2="-27580" y1="-27120" x2="-30604" x1="-29804" fill="none"/><line y2="-27690" y1="-27690" x2="-32762" x1="-30980" fill="none"/><line y2="-29287" y1="-28828" x2="-31965" x1="-32762" fill="none"/><line y2="-28828" y1="-27690" x2="-32762" x1="-32762" fill="none"/><line y2="-26291" y1="-27120" x2="-29804" x1="-29804" fill="none"/><line y2="-25534" y1="-25852" x2="-28906" x1="-29440" fill="none"/><line y2="-30948" y1="-30532" x2="-27115" x1="-27834" fill="none"/><line y2="-30532" y1="-30948" x2="-26020" x1="-26739" fill="none"/><line y2="-31055" y1="-30532" x2="-25113" x1="-26020" fill="none"/><line y2="-30532" y1="-31055" x2="-24206" x1="-25113" fill="none"/><line y2="-30948" y1="-30532" x2="-23486" x1="-24206" fill="none"/><line y2="-28981" y1="-29394" x2="-27115" x1="-27834" fill="none"/><line y2="-29287" y1="-28981" x2="-26208" x1="-26739" fill="none"/><line y2="-26057" y1="-25534" x2="-27999" x1="-28906" fill="none"/><line y2="-24705" y1="-25534" x2="-28836" x1="-28836" fill="none"/><line y2="-24705" y1="-25534" x2="-28975" x1="-28975" fill="none"/><line y2="-30948" y1="-30489" x2="-23111" x1="-22316" fill="none"/><line y2="-32193" y1="-31275" x2="-23298" x1="-23298" fill="none"/><line y2="-30489" y1="-31055" x2="-22316" x1="-21328" fill="none"/><line y2="-32762" y1="-32193" x2="-22316" x1="-23298" fill="none"/><line y2="-31055" y1="-31974" x2="-21328" x1="-21328" fill="none"/><line y2="-32303" y1="-32762" x2="-21516" x1="-22316" fill="none"/><line y2="-27196" y1="-26057" x2="-27999" x1="-27999" fill="none"/><line y2="-26057" y1="-25488" x2="-27999" x1="-27011" fill="none"/><line y2="-26135" y1="-25708" x2="-27791" x1="-27051" fill="none"/><line y2="-27655" y1="-27196" x2="-27198" x1="-27999" fill="none"/><line y2="-27450" y1="-27103" x2="-27216" x1="-27814" fill="none"/><line y2="-25488" y1="-25950" x2="-27011" x1="-26216" fill="none"/><line y2="-27196" y1="-27655" x2="-26028" x1="-26823" fill="none"/><line y2="-26277" y1="-27196" x2="-26028" x1="-26028" fill="none"/><line y2="-26392" y1="-27080" x2="-26199" x1="-26199" fill="none"/><line y2="-27612" y1="-27196" x2="-25309" x1="-26028" fill="none"/><text y="-28692" xml:space="preserve" x="-27080" stroke="none" font-size="433.3333" font-family="sans-serif">O</text><text y="-29215" xml:space="preserve" x="-26173" stroke="none" font-size="433.3333" font-family="sans-serif">CH</text><text y="-29125" xml:space="preserve" x="-25595" stroke="none" font-size="313.3333" font-family="sans-serif">3</text><text y="-30876" xml:space="preserve" x="-27080" stroke="none" font-size="433.3333" font-family="sans-serif">O</text><text y="-25893" xml:space="preserve" x="-29957" stroke="none" font-size="433.3333" font-family="sans-serif">NH</text><text y="-24307" xml:space="preserve" x="-29059" stroke="none" font-size="433.3333" font-family="sans-serif">O</text><text y="-27539" xml:space="preserve" x="-25274" stroke="none" font-size="433.3333" font-family="sans-serif">NH</text><text y="-27450" xml:space="preserve" x="-24697" stroke="none" font-size="313.3333" font-family="sans-serif">2</text><text y="-27510" xml:space="preserve" x="-28972" stroke="none" font-size="433.3333" font-family="sans-serif">N</text><text y="-27510" xml:space="preserve" x="-30945" stroke="none" font-size="433.3333" font-family="sans-serif">N</text><text y="-29215" xml:space="preserve" x="-31928" stroke="none" font-size="433.3333" font-family="sans-serif">N</text><text y="-27586" xml:space="preserve" x="-27164" stroke="none" font-size="433.3333" font-family="sans-serif">N</text><text y="-25878" xml:space="preserve" x="-26182" stroke="none" font-size="433.3333" font-family="sans-serif">N</text><text y="-30876" xml:space="preserve" x="-23452" stroke="none" font-size="433.3333" font-family="sans-serif">N</text><text y="-32014" xml:space="preserve" x="-21481" stroke="none" font-size="433.3333" font-family="sans-serif">O</text></g></g></svg>