<svg width="246.03" viewBox="0 0 8201 4002" text-rendering="auto" stroke-width="1" stroke-opacity="1" stroke-miterlimit="10" stroke-linejoin="miter" stroke-linecap="square" stroke-dashoffset="0" stroke-dasharray="none" stroke="black" shape-rendering="auto" image-rendering="auto" height="120.06" font-weight="normal" font-style="normal" font-size="12" font-family="'Dialog'" fill-opacity="1" fill="black" color-rendering="auto" color-interpolation="auto" xmlns="http://www.w3.org/2000/svg"><g><g stroke="white" fill="white"><rect y="0" x="0" width="8201" stroke="none" height="4002"/></g><g transform="translate(32866,32758)" text-rendering="geometricPrecision" stroke-width="44" stroke-linejoin="round" stroke-linecap="round"><line y2="-31850" y1="-30703" x2="-27834" x1="-27834" fill="none"/><line y2="-31705" y1="-30847" x2="-27664" x1="-27664" fill="none"/><line y2="-30131" y1="-30703" x2="-28816" x1="-27834" fill="none"/><line y2="-30703" y1="-30131" x2="-27834" x1="-26852" fill="none"/><line y2="-32312" y1="-31850" x2="-27040" x1="-27834" fill="none"/><line y2="-31850" y1="-32422" x2="-27834" x1="-28816" fill="none"/><line y2="-30703" y1="-30131" x2="-29798" x1="-28816" fill="none"/><line y2="-30778" y1="-30347" x2="-29590" x1="-28854" fill="none"/><line y2="-30131" y1="-30593" x2="-26852" x1="-26057" fill="none"/><line y2="-30336" y1="-30682" x2="-26837" x1="-26242" fill="none"/><line y2="-31850" y1="-32312" x2="-25870" x1="-26664" fill="none"/><line y2="-31760" y1="-32107" x2="-26054" x1="-26650" fill="none"/><line y2="-32422" y1="-31850" x2="-28816" x1="-29798" fill="none"/><line y2="-32205" y1="-31774" x2="-28854" x1="-29590" fill="none"/><line y2="-31850" y1="-30703" x2="-29798" x1="-29798" fill="none"/><line y2="-30922" y1="-31850" x2="-25870" x1="-25870" fill="none"/><line y2="-30180" y1="-30703" x2="-30706" x1="-29798" fill="none"/><line y2="-32176" y1="-31850" x2="-25300" x1="-25870" fill="none"/><line y2="-30596" y1="-30180" x2="-31425" x1="-30706" fill="none"/><line y2="-30347" y1="-30596" x2="-32231" x1="-31800" fill="none"/><line y2="-29351" y1="-30180" x2="-30636" x1="-30636" fill="none"/><line y2="-29351" y1="-30180" x2="-30775" x1="-30775" fill="none"/><text y="-30524" xml:space="preserve" x="-31766" stroke="none" font-size="433.3333" font-family="sans-serif">O</text><text y="-28952" xml:space="preserve" x="-30859" stroke="none" font-size="433.3333" font-family="sans-serif">O</text><text y="-29949" xml:space="preserve" x="-32762" stroke="none" font-size="433.3333" font-family="sans-serif">CH</text><text y="-29859" xml:space="preserve" x="-32185" stroke="none" font-size="313.3333" font-family="sans-serif">3</text><text y="-32193" xml:space="preserve" x="-25194" stroke="none" font-size="433.3333" font-family="sans-serif">Cl</text><text y="-32242" xml:space="preserve" x="-27002" stroke="none" font-size="433.3333" font-family="sans-serif">N</text><text y="-30524" xml:space="preserve" x="-26020" stroke="none" font-size="433.3333" font-family="sans-serif">N</text></g></g></svg>