<svg width="326.55" viewBox="0 0 10885 6736" text-rendering="auto" stroke-width="1" stroke-opacity="1" stroke-miterlimit="10" stroke-linejoin="miter" stroke-linecap="square" stroke-dashoffset="0" stroke-dasharray="none" stroke="black" shape-rendering="auto" image-rendering="auto" height="202.08" font-weight="normal" font-style="normal" font-size="12" font-family="'Dialog'" fill-opacity="1" fill="black" color-rendering="auto" color-interpolation="auto" xmlns="http://www.w3.org/2000/svg"><g><g stroke="white" fill="white"><rect y="0" x="0" width="10885" stroke="none" height="6736"/></g><g transform="translate(32866,32866)" text-rendering="geometricPrecision" stroke-width="44" stroke-linejoin="round" stroke-linecap="round"><line y2="-28077" y1="-29278" x2="-29775" x1="-29775" fill="none"/><line y2="-29278" y1="-29879" x2="-29775" x1="-30815" fill="none"/><line y2="-27479" y1="-28077" x2="-30815" x1="-29775" fill="none"/><line y2="-27701" y1="-28152" x2="-30772" x1="-29989" fill="none"/><line y2="-29879" y1="-29278" x2="-30815" x1="-31855" fill="none"/><line y2="-29657" y1="-29206" x2="-30862" x1="-31642" fill="none"/><line y2="-27857" y1="-27479" x2="-31474" x1="-30815" fill="none"/><line y2="-29278" y1="-28296" x2="-31855" x1="-31855" fill="none"/><line y2="-31055" y1="-29278" x2="-26696" x1="-29775" fill="none"/><line y2="-27554" y1="-28077" x2="-28868" x1="-29775" fill="none"/><line y2="-30928" y1="-29879" x2="-30815" x1="-30815" fill="none"/><line y2="-26430" y1="-27479" x2="-30815" x1="-30815" fill="none"/><line y2="-29801" y1="-29278" x2="-32762" x1="-31855" fill="none"/><line y2="-31055" y1="-30489" x2="-26696" x1="-25714" fill="none"/><line y2="-31133" y1="-30706" x2="-26488" x1="-25751" fill="none"/><line y2="-32193" y1="-31055" x2="-26696" x1="-26696" fill="none"/><line y2="-30489" y1="-31055" x2="-25714" x1="-24726" fill="none"/><line y2="-32762" y1="-32193" x2="-25714" x1="-26696" fill="none"/><line y2="-32546" y1="-32118" x2="-25751" x1="-26488" fill="none"/><line y2="-31055" y1="-32193" x2="-24726" x1="-24726" fill="none"/><line y2="-31200" y1="-32052" x2="-24896" x1="-24896" fill="none"/><line y2="-32193" y1="-32762" x2="-24726" x1="-25714" fill="none"/><line y2="-29440" y1="-30489" x2="-25714" x1="-25714" fill="none"/><line y2="-27970" y1="-27554" x2="-28149" x1="-28868" fill="none"/><line y2="-27554" y1="-27970" x2="-27054" x1="-27773" fill="none"/><line y2="-28077" y1="-27554" x2="-26147" x1="-27054" fill="none"/><line y2="-26725" y1="-27554" x2="-28799" x1="-28799" fill="none"/><line y2="-26725" y1="-27554" x2="-28938" x1="-28938" fill="none"/><line y2="-31341" y1="-30928" x2="-30096" x1="-30815" fill="none"/><line y2="-31035" y1="-31341" x2="-29189" x1="-29720" fill="none"/><line y2="-31280" y1="-30864" x2="-31569" x1="-30850" fill="none"/><line y2="-31402" y1="-30989" x2="-31500" x1="-30781" fill="none"/><line y2="-28917" y1="-29440" x2="-24806" x1="-25714" fill="none"/><line y2="-28862" y1="-29255" x2="-24988" x1="-25670" fill="none"/><line y2="-27869" y1="-28917" x2="-24806" x1="-24806" fill="none"/><line y2="-27453" y1="-27869" x2="-24087" x1="-24806" fill="none"/><line y2="-27869" y1="-27453" x2="-22992" x1="-23712" fill="none"/><line y2="-27392" y1="-27808" x2="-25491" x1="-24772" fill="none"/><line y2="-27513" y1="-27929" x2="-25560" x1="-24841" fill="none"/><line y2="-27346" y1="-27869" x2="-22085" x1="-22992" fill="none"/><line y2="-28776" y1="-27869" x2="-22466" x1="-22992" fill="none"/><line y2="-28776" y1="-27869" x2="-23515" x1="-22992" fill="none"/><text y="-27898" xml:space="preserve" x="-28111" stroke="none" font-size="433.3333" font-family="sans-serif">O</text><text y="-26326" xml:space="preserve" x="-29018" stroke="none" font-size="433.3333" font-family="sans-serif">O</text><text y="-31272" xml:space="preserve" x="-30061" stroke="none" font-size="433.3333" font-family="sans-serif">O</text><text y="-31272" xml:space="preserve" x="-31876" stroke="none" font-size="433.3333" font-family="sans-serif">O</text><text y="-30749" xml:space="preserve" x="-29154" stroke="none" font-size="433.3333" font-family="sans-serif">CH</text><text y="-30659" xml:space="preserve" x="-28576" stroke="none" font-size="313.3333" font-family="sans-serif">3</text><text y="-27167" xml:space="preserve" x="-24052" stroke="none" font-size="433.3333" font-family="sans-serif">O</text><text y="-27167" xml:space="preserve" x="-25867" stroke="none" font-size="433.3333" font-family="sans-serif">O</text><text y="-27898" xml:space="preserve" x="-32008" stroke="none" font-size="433.3333" font-family="sans-serif">NH</text><text y="-29388" xml:space="preserve" x="-25196" stroke="none" font-style="italic" font-size="313.3333" font-family="sans-serif">E</text></g></g></svg>