<svg width="173.22" viewBox="0 0 5774 8339" text-rendering="auto" stroke-width="1" stroke-opacity="1" stroke-miterlimit="10" stroke-linejoin="miter" stroke-linecap="square" stroke-dashoffset="0" stroke-dasharray="none" stroke="black" shape-rendering="auto" image-rendering="auto" height="250.17" font-weight="normal" font-style="normal" font-size="12" font-family="'Dialog'" fill-opacity="1" fill="black" color-rendering="auto" color-interpolation="auto" xmlns="http://www.w3.org/2000/svg"><g><g stroke="white" fill="white"><rect y="0" x="0" width="5774" stroke="none" height="8339"/></g><g transform="translate(32866,32758)" text-rendering="geometricPrecision" stroke-width="44" stroke-linejoin="round" stroke-linecap="round"><line y2="-27253" y1="-28371" x2="-31064" x1="-30677" fill="none"/><line y2="-27450" y1="-28285" x2="-31176" x1="-30888" fill="none"/><line y2="-27253" y1="-27253" x2="-32266" x1="-31064" fill="none"/><line y2="-28371" y1="-28955" x2="-30677" x1="-31434" fill="none"/><line y2="-28152" y1="-27253" x2="-32543" x1="-32266" fill="none"/><line y2="-28088" y1="-27415" x2="-32346" x1="-32138" fill="none"/><line y2="-28961" y1="-28510" x2="-31809" x1="-32422" fill="none"/><line y2="-26837" y1="-27253" x2="-30344" x1="-31064" fill="none"/><line y2="-30148" y1="-29319" x2="-31621" x1="-31621" fill="none"/><line y2="-26511" y1="-25783" x2="-30090" x1="-29865" fill="none"/><line y2="-27352" y1="-26869" x2="-29313" x1="-29969" fill="none"/><line y2="-25563" y1="-25563" x2="-29611" x1="-28542" fill="none"/><line y2="-26730" y1="-27346" x2="-28137" x1="-28938" fill="none"/><line y2="-25563" y1="-26730" x2="-28542" x1="-28137" fill="none"/><line y2="-24523" y1="-25563" x2="-28669" x1="-28542" fill="none"/><line y2="-25309" y1="-25563" x2="-27525" x1="-28542" fill="none"/><line y2="-26271" y1="-26730" x2="-27196" x1="-28137" fill="none"/><line y2="-27617" y1="-26730" x2="-27583" x1="-28137" fill="none"/><line y2="-30717" y1="-30148" x2="-32609" x1="-31621" fill="none"/><line y2="-30148" y1="-30717" x2="-31621" x1="-30639" fill="none"/><line y2="-31855" y1="-30717" x2="-32609" x1="-32609" fill="none"/><line y2="-30717" y1="-31855" x2="-30639" x1="-30639" fill="none"/><line y2="-32315" y1="-31855" x2="-31809" x1="-32609" fill="none"/><line y2="-31855" y1="-32315" x2="-30639" x1="-31434" fill="none"/><text y="-26551" xml:space="preserve" x="-30310" stroke="none" font-size="433.3333" font-family="sans-serif">B</text><text y="-25384" xml:space="preserve" x="-29949" stroke="none" font-size="433.3333" font-family="sans-serif">O</text><text y="-27314" xml:space="preserve" x="-29276" stroke="none" font-size="433.3333" font-family="sans-serif">O</text><text y="-28920" xml:space="preserve" x="-31774" stroke="none" font-size="433.3333" font-family="sans-serif">N</text><text y="-28192" xml:space="preserve" x="-32762" stroke="none" font-size="433.3333" font-family="sans-serif">N</text><text y="-32242" xml:space="preserve" x="-31774" stroke="none" font-size="433.3333" font-family="sans-serif">O</text></g></g></svg>