<svg width="277.86" viewBox="0 0 9262 4040" text-rendering="auto" stroke-width="1" stroke-opacity="1" stroke-miterlimit="10" stroke-linejoin="miter" stroke-linecap="square" stroke-dashoffset="0" stroke-dasharray="none" stroke="black" shape-rendering="auto" image-rendering="auto" height="121.2" font-weight="normal" font-style="normal" font-size="12" font-family="'Dialog'" fill-opacity="1" fill="black" color-rendering="auto" color-interpolation="auto" xmlns="http://www.w3.org/2000/svg"><g><g stroke="white" fill="white"><rect y="0" x="0" width="9262" stroke="none" height="4040"/></g><g transform="translate(32866,32758)" text-rendering="geometricPrecision" stroke-width="44" stroke-linejoin="round" stroke-linecap="round"><line y2="-30850" y1="-31419" x2="-29654" x1="-30636" fill="none"/><line y2="-30775" y1="-31202" x2="-29862" x1="-30599" fill="none"/><line y2="-29715" y1="-30850" x2="-29654" x1="-29654" fill="none"/><line y2="-31419" y1="-30850" x2="-30636" x1="-31624" fill="none"/><line y2="-29146" y1="-29715" x2="-30636" x1="-29654" fill="none"/><line y2="-29362" y1="-29790" x2="-30599" x1="-29862" fill="none"/><line y2="-30850" y1="-29715" x2="-31624" x1="-31624" fill="none"/><line y2="-30708" y1="-29856" x2="-31454" x1="-31454" fill="none"/><line y2="-29715" y1="-29146" x2="-31624" x1="-30636" fill="none"/><line y2="-31376" y1="-30850" x2="-28747" x1="-29654" fill="none"/><line y2="-29385" y1="-29715" x2="-32190" x1="-31624" fill="none"/><line y2="-30960" y1="-31376" x2="-28028" x1="-28747" fill="none"/><line y2="-31376" y1="-31070" x2="-26933" x1="-27458" fill="none"/><line y2="-32422" y1="-31376" x2="-28747" x1="-28747" fill="none"/><line y2="-30850" y1="-31376" x2="-26026" x1="-26933" fill="none"/><line y2="-32202" y1="-31376" x2="-27002" x1="-27002" fill="none"/><line y2="-32202" y1="-31376" x2="-26863" x1="-26863" fill="none"/><line y2="-30850" y1="-30850" x2="-24879" x1="-26026" fill="none"/><line y2="-30850" y1="-29868" x2="-26026" x1="-25451" fill="none"/><line y2="-29868" y1="-30850" x2="-25451" x1="-24879" fill="none"/><line y2="-31899" y1="-30850" x2="-26026" x1="-26026" fill="none"/><line y2="-32422" y1="-31899" x2="-25118" x1="-26026" fill="none"/><line y2="-28822" y1="-29868" x2="-25451" x1="-25451" fill="none"/><line y2="-31662" y1="-30850" x2="-24723" x1="-24879" fill="none"/><line y2="-30604" y1="-30850" x2="-24240" x1="-24879" fill="none"/><text y="-30671" xml:space="preserve" x="-27993" stroke="none" font-size="433.3333" font-family="sans-serif">NH</text><text y="-32242" xml:space="preserve" x="-27086" stroke="none" font-size="433.3333" font-family="sans-serif">O</text><text y="-31702" xml:space="preserve" x="-24910" stroke="none" font-size="433.3333" font-family="sans-serif">Cl</text><text y="-30295" xml:space="preserve" x="-24133" stroke="none" font-size="433.3333" font-family="sans-serif">Cl</text><text y="-29010" xml:space="preserve" x="-32762" stroke="none" font-size="433.3333" font-family="sans-serif">Cl</text></g></g></svg>