<svg width="209.46" viewBox="0 0 6982 4413" text-rendering="auto" stroke-width="1" stroke-opacity="1" stroke-miterlimit="10" stroke-linejoin="miter" stroke-linecap="square" stroke-dashoffset="0" stroke-dasharray="none" stroke="black" shape-rendering="auto" image-rendering="auto" height="132.39" font-weight="normal" font-style="normal" font-size="12" font-family="'Dialog'" fill-opacity="1" fill="black" color-rendering="auto" color-interpolation="auto" xmlns="http://www.w3.org/2000/svg"><g><g stroke="white" fill="white"><rect y="0" x="0" width="6982" stroke="none" height="4413"/></g><g transform="translate(32866,32758)" text-rendering="geometricPrecision" stroke-width="44" stroke-linejoin="round" stroke-linecap="round"><line y2="-30154" y1="-30706" x2="-29772" x1="-30483" fill="none"/><line y2="-29091" y1="-30154" x2="-30139" x1="-29772" fill="none"/><line y2="-30711" y1="-30154" x2="-30859" x1="-31613" fill="none"/><line y2="-29091" y1="-29091" x2="-31098" x1="-30139" fill="none"/><line y2="-30154" y1="-29310" x2="-31613" x1="-31353" fill="none"/><line y2="-30154" y1="-30680" x2="-27958" x1="-28865" fill="none"/><line y2="-31899" y1="-31070" x2="-30671" x1="-30671" fill="none"/><line y2="-30353" y1="-30090" x2="-32445" x1="-31636" fill="none"/><line y2="-30486" y1="-30220" x2="-32401" x1="-31592" fill="none"/><line y2="-30154" y1="-29018" x2="-27958" x1="-27958" fill="none"/><line y2="-30012" y1="-29160" x2="-27788" x1="-27788" fill="none"/><line y2="-30723" y1="-30154" x2="-26970" x1="-27958" fill="none"/><line y2="-29018" y1="-28449" x2="-27958" x1="-26970" fill="none"/><line y2="-30154" y1="-30723" x2="-25988" x1="-26970" fill="none"/><line y2="-30079" y1="-30506" x2="-26196" x1="-26933" fill="none"/><line y2="-28449" y1="-29018" x2="-26970" x1="-25988" fill="none"/><line y2="-28666" y1="-29094" x2="-26933" x1="-26196" fill="none"/><line y2="-29018" y1="-30154" x2="-25988" x1="-25988" fill="none"/><line y2="-32422" y1="-31899" x2="-29764" x1="-30671" fill="none"/><line y2="-31899" y1="-32422" x2="-28857" x1="-29764" fill="none"/><line y2="-32254" y1="-31838" x2="-31425" x1="-30706" fill="none"/><line y2="-32375" y1="-31959" x2="-31356" x1="-30636" fill="none"/><line y2="-32422" y1="-31899" x2="-27950" x1="-28857" fill="none"/><line y2="-30850" y1="-31899" x2="-28857" x1="-28857" fill="none"/><polygon stroke-width="1" stroke="none" points=" -29772 -30154 -28900 -30737 -28831 -30619"/><polygon stroke-width="1" points=" -29772 -30154 -28900 -30737 -28831 -30619" fill="none"/><text y="-32242" xml:space="preserve" x="-31731" stroke-width="1" stroke="none" font-size="433.3333" font-family="sans-serif">O</text><text y="-30301" xml:space="preserve" x="-32762" stroke-width="1" stroke="none" font-size="433.3333" font-family="sans-serif">O</text><text y="-30671" xml:space="preserve" x="-30824" stroke-width="1" stroke="none" font-size="433.3333" font-family="sans-serif">N</text><text y="-28912" xml:space="preserve" x="-31439" stroke-width="1" stroke="none" font-size="433.3333" font-family="sans-serif">O</text></g><g transform="translate(32866,32758)" text-rendering="geometricPrecision" stroke-linejoin="round" stroke-linecap="round" font-style="italic" font-size="313.3333" font-family="sans-serif"><text y="-29879" xml:space="preserve" x="-30194" stroke="none">S</text></g></g></svg>