<svg width="304.95" viewBox="0 0 10165 6456" text-rendering="auto" stroke-width="1" stroke-opacity="1" stroke-miterlimit="10" stroke-linejoin="miter" stroke-linecap="square" stroke-dashoffset="0" stroke-dasharray="none" stroke="black" shape-rendering="auto" image-rendering="auto" height="193.68" font-weight="normal" font-style="normal" font-size="12" font-family="'Dialog'" fill-opacity="1" fill="black" color-rendering="auto" color-interpolation="auto" xmlns="http://www.w3.org/2000/svg"><g><g stroke="white" fill="white"><rect y="0" x="0" width="10165" stroke="none" height="6456"/></g><g transform="translate(32866,32866)" text-rendering="geometricPrecision" stroke-width="44" stroke-linejoin="round" stroke-linecap="round"><line y2="-30116" y1="-28969" x2="-29059" x1="-29059" fill="none"/><line y2="-28969" y1="-28397" x2="-29059" x1="-28077" fill="none"/><line y2="-28397" y1="-28969" x2="-30041" x1="-29059" fill="none"/><line y2="-28614" y1="-29044" x2="-30004" x1="-29267" fill="none"/><line y2="-30116" y1="-30688" x2="-29059" x1="-30041" fill="none"/><line y2="-30041" y1="-30472" x2="-29267" x1="-30004" fill="none"/><line y2="-30578" y1="-30116" x2="-28264" x1="-29059" fill="none"/><line y2="-28397" y1="-28969" x2="-28077" x1="-27094" fill="none"/><line y2="-28969" y1="-28397" x2="-31023" x1="-30041" fill="none"/><line y2="-30688" y1="-30116" x2="-30041" x1="-31023" fill="none"/><line y2="-30116" y1="-30578" x2="-27094" x1="-27886" fill="none"/><line y2="-28969" y1="-30116" x2="-27094" x1="-27094" fill="none"/><line y2="-29114" y1="-29972" x2="-27262" x1="-27262" fill="none"/><line y2="-30116" y1="-28969" x2="-31023" x1="-31023" fill="none"/><line y2="-29972" y1="-29114" x2="-30853" x1="-30853" fill="none"/><line y2="-28446" y1="-28969" x2="-26184" x1="-27094" fill="none"/><line y2="-32240" y1="-30688" x2="-30038" x1="-30041" fill="none"/><line y2="-32762" y1="-32240" x2="-30945" x1="-30038" fill="none"/><line y2="-32240" y1="-32762" x2="-31855" x1="-30945" fill="none"/><line y2="-32185" y1="-32578" x2="-31673" x1="-30992" fill="none"/><line y2="-27568" y1="-28397" x2="-30041" x1="-30041" fill="none"/><line y2="-30420" y1="-30116" x2="-31549" x1="-31023" fill="none"/><line y2="-27568" y1="-28397" x2="-28004" x1="-28004" fill="none"/><line y2="-27568" y1="-28397" x2="-28146" x1="-28146" fill="none"/><line y2="-28446" y1="-27308" x2="-26184" x1="-26184" fill="none"/><line y2="-28305" y1="-27450" x2="-26017" x1="-26017" fill="none"/><line y2="-29016" y1="-28446" x2="-25199" x1="-26184" fill="none"/><line y2="-27308" y1="-26739" x2="-26184" x1="-25199" fill="none"/><line y2="-28446" y1="-29016" x2="-24214" x1="-25199" fill="none"/><line y2="-28368" y1="-28796" x2="-24422" x1="-25162" fill="none"/><line y2="-26739" y1="-27308" x2="-25199" x1="-24214" fill="none"/><line y2="-26959" y1="-27383" x2="-25162" x1="-24422" fill="none"/><line y2="-27308" y1="-28446" x2="-24214" x1="-24214" fill="none"/><line y2="-26892" y1="-27308" x2="-23498" x1="-24214" fill="none"/><line y2="-32762" y1="-32240" x2="-32762" x1="-31855" fill="none"/><line y2="-31191" y1="-32240" x2="-31855" x1="-31855" fill="none"/><text y="-27170" xml:space="preserve" x="-28227" stroke="none" font-size="433.3333" font-family="sans-serif">O</text><text y="-27170" xml:space="preserve" x="-30191" stroke="none" font-size="433.3333" font-family="sans-serif">OH</text><text y="-30460" xml:space="preserve" x="-32084" stroke="none" font-size="433.3333" font-family="sans-serif">OH</text><text y="-26606" xml:space="preserve" x="-23460" stroke="none" font-size="433.3333" font-family="sans-serif">OH</text><text y="-30509" xml:space="preserve" x="-28227" stroke="none" font-size="433.3333" font-family="sans-serif">O</text></g></g></svg>