<svg width="236.58" viewBox="0 0 7886 6851" text-rendering="auto" stroke-width="1" stroke-opacity="1" stroke-miterlimit="10" stroke-linejoin="miter" stroke-linecap="square" stroke-dashoffset="0" stroke-dasharray="none" stroke="black" shape-rendering="auto" image-rendering="auto" height="205.53" font-weight="normal" font-style="normal" font-size="12" font-family="'Dialog'" fill-opacity="1" fill="black" color-rendering="auto" color-interpolation="auto" xmlns="http://www.w3.org/2000/svg"><g><g stroke="white" fill="white"><rect y="0" x="0" width="7886" stroke="none" height="6851"/></g><g transform="translate(32866,32758)" text-rendering="geometricPrecision" stroke-width="44" stroke-linejoin="round" stroke-linecap="round"><line y2="-29668" y1="-29099" x2="-27054" x1="-28042" fill="none"/><line y2="-28184" y1="-29099" x2="-28042" x1="-28042" fill="none"/><line y2="-29099" y1="-29562" x2="-28042" x1="-28839" fill="none"/><line y2="-29010" y1="-29356" x2="-28227" x1="-28825" fill="none"/><line y2="-29099" y1="-29668" x2="-26072" x1="-27054" fill="none"/><line y2="-30807" y1="-29668" x2="-27054" x1="-27054" fill="none"/><line y2="-30665" y1="-29810" x2="-26884" x1="-26884" fill="none"/><line y2="-27964" y1="-27964" x2="-29824" x1="-28230" fill="none"/><line y2="-27854" y1="-27395" x2="-27854" x1="-27054" fill="none"/><line y2="-29562" y1="-29099" x2="-29215" x1="-30012" fill="none"/><line y2="-28184" y1="-29099" x2="-26072" x1="-26072" fill="none"/><line y2="-29099" y1="-29668" x2="-26072" x1="-25084" fill="none"/><line y2="-29319" y1="-29746" x2="-26034" x1="-25295" fill="none"/><line y2="-31376" y1="-30807" x2="-26072" x1="-27054" fill="none"/><line y2="-29099" y1="-28184" x2="-30012" x1="-30012" fill="none"/><line y2="-28987" y1="-28296" x2="-29842" x1="-29842" fill="none"/><line y2="-27395" y1="-27854" x2="-27054" x1="-26260" fill="none"/><line y2="-27597" y1="-27944" x2="-27040" x1="-26444" fill="none"/><line y2="-29668" y1="-30807" x2="-25084" x1="-25084" fill="none"/><line y2="-30807" y1="-31376" x2="-25084" x1="-26072" fill="none"/><line y2="-30729" y1="-31156" x2="-25295" x1="-26034" fill="none"/><line y2="-29625" y1="-29099" x2="-30919" x1="-30012" fill="none"/><line y2="-26566" y1="-27395" x2="-27054" x1="-27054" fill="none"/><line y2="-32202" y1="-31376" x2="-26072" x1="-26072" fill="none"/><line y2="-29625" y1="-30688" x2="-30919" x1="-31249" fill="none"/><line y2="-29706" y1="-30503" x2="-31124" x1="-31370" fill="none"/><line y2="-29068" y1="-29625" x2="-31673" x1="-30919" fill="none"/><line y2="-30688" y1="-30688" x2="-31249" x1="-32396" fill="none"/><line y2="-29625" y1="-29073" x2="-32762" x1="-32052" fill="none"/><line y2="-30688" y1="-29625" x2="-32396" x1="-32762" fill="none"/><line y2="-30498" y1="-29703" x2="-32280" x1="-32554" fill="none"/><text y="-26167" xml:space="preserve" x="-27207" stroke="none" font-size="433.3333" font-family="sans-serif">NH</text><text y="-26078" xml:space="preserve" x="-26629" stroke="none" font-size="313.3333" font-family="sans-serif">2</text><text y="-32242" xml:space="preserve" x="-26303" stroke="none" font-size="433.3333" font-family="sans-serif">Cl</text><text y="-27785" xml:space="preserve" x="-28195" stroke="none" font-size="433.3333" font-family="sans-serif">N</text><text y="-29489" xml:space="preserve" x="-29177" stroke="none" font-size="433.3333" font-family="sans-serif">N</text><text y="-27785" xml:space="preserve" x="-30165" stroke="none" font-size="433.3333" font-family="sans-serif">N</text><text y="-27785" xml:space="preserve" x="-26225" stroke="none" font-size="433.3333" font-family="sans-serif">N</text><text y="-28750" xml:space="preserve" x="-32014" stroke="none" font-size="433.3333" font-family="sans-serif">O</text></g></g></svg>