<svg width="515.19" viewBox="0 0 17173 6516" text-rendering="auto" stroke-width="1" stroke-opacity="1" stroke-miterlimit="10" stroke-linejoin="miter" stroke-linecap="square" stroke-dashoffset="0" stroke-dasharray="none" stroke="black" shape-rendering="auto" image-rendering="auto" height="195.48" font-weight="normal" font-style="normal" font-size="12" font-family="'Dialog'" fill-opacity="1" fill="black" color-rendering="auto" color-interpolation="auto" xmlns="http://www.w3.org/2000/svg"><g><g stroke="white" fill="white"><rect y="0" x="0" width="17173" stroke="none" height="6516"/></g><g transform="translate(32866,32758)" text-rendering="geometricPrecision" stroke-width="44" stroke-linejoin="round" stroke-linecap="round"><line y2="-28054" y1="-28620" x2="-30792" x1="-31774" fill="none"/><line y2="-27976" y1="-28403" x2="-31000" x1="-31737" fill="none"/><line y2="-26915" y1="-28054" x2="-30792" x1="-30792" fill="none"/><line y2="-28620" y1="-28054" x2="-31774" x1="-32762" fill="none"/><line y2="-26346" y1="-26915" x2="-31774" x1="-30792" fill="none"/><line y2="-26563" y1="-26990" x2="-31737" x1="-31000" fill="none"/><line y2="-28054" y1="-26915" x2="-32762" x1="-32762" fill="none"/><line y2="-27909" y1="-27057" x2="-32592" x1="-32592" fill="none"/><line y2="-26915" y1="-26346" x2="-32762" x1="-31774" fill="none"/><line y2="-28467" y1="-28054" x2="-30073" x1="-30792" fill="none"/><line y2="-29668" y1="-28620" x2="-31774" x1="-31774" fill="none"/><line y2="-29715" y1="-28796" x2="-29885" x1="-29885" fill="none"/><line y2="-28467" y1="-28007" x2="-29697" x1="-28897" fill="none"/><line y2="-30281" y1="-29715" x2="-28897" x1="-29885" fill="none"/><line y2="-28007" y1="-28576" x2="-28897" x1="-27915" fill="none"/><line y2="-29822" y1="-30281" x2="-28103" x1="-28897" fill="none"/><line y2="-28576" y1="-29495" x2="-27915" x1="-27915" fill="none"/><line y2="-30238" y1="-29822" x2="-27008" x1="-27727" fill="none"/><line y2="-29715" y1="-30238" x2="-26101" x1="-27008" fill="none"/><line y2="-30238" y1="-29715" x2="-25194" x1="-26101" fill="none"/><line y2="-29715" y1="-30238" x2="-24286" x1="-25194" fill="none"/><line y2="-30238" y1="-29715" x2="-23379" x1="-24286" fill="none"/><line y2="-29715" y1="-30238" x2="-22472" x1="-23379" fill="none"/><line y2="-30238" y1="-29668" x2="-32762" x1="-31774" fill="none"/><line y2="-30316" y1="-29888" x2="-32554" x1="-31815" fill="none"/><line y2="-29668" y1="-30238" x2="-31774" x1="-30792" fill="none"/><line y2="-31376" y1="-30238" x2="-32762" x1="-32762" fill="none"/><line y2="-30238" y1="-31376" x2="-30792" x1="-30792" fill="none"/><line y2="-30379" y1="-31231" x2="-30963" x1="-30963" fill="none"/><line y2="-31945" y1="-31376" x2="-31774" x1="-32762" fill="none"/><line y2="-31725" y1="-31298" x2="-31815" x1="-32554" fill="none"/><line y2="-31376" y1="-31945" x2="-30792" x1="-31774" fill="none"/><line y2="-30128" y1="-29715" x2="-21753" x1="-22472" fill="none"/><line y2="-29715" y1="-30018" x2="-20658" x1="-21184" fill="none"/><line y2="-30238" y1="-29715" x2="-19751" x1="-20658" fill="none"/><line y2="-28886" y1="-29715" x2="-22403" x1="-22403" fill="none"/><line y2="-28886" y1="-29715" x2="-22542" x1="-22542" fill="none"/><line y2="-31376" y1="-30238" x2="-19751" x1="-19751" fill="none"/><line y2="-31231" y1="-30379" x2="-19580" x1="-19580" fill="none"/><line y2="-30238" y1="-29668" x2="-19751" x1="-18763" fill="none"/><line y2="-31945" y1="-31376" x2="-18763" x1="-19751" fill="none"/><line y2="-29668" y1="-30238" x2="-18763" x1="-17781" fill="none"/><line y2="-29885" y1="-30313" x2="-18725" x1="-17989" fill="none"/><line y2="-31376" y1="-31945" x2="-17781" x1="-18763" fill="none"/><line y2="-31298" y1="-31725" x2="-17989" x1="-18725" fill="none"/><line y2="-30238" y1="-31376" x2="-17781" x1="-17781" fill="none"/><line y2="-31899" y1="-31376" x2="-16874" x1="-17781" fill="none"/><line y2="-32315" y1="-31899" x2="-16154" x1="-16874" fill="none"/><line y2="-32393" y1="-31977" x2="-16198" x1="-16917" fill="none"/><line y2="-32237" y1="-31821" x2="-16108" x1="-16827" fill="none"/><text y="-30058" xml:space="preserve" x="-21718" stroke="none" font-size="433.3333" font-family="sans-serif">NH</text><text y="-28487" xml:space="preserve" x="-22625" stroke="none" font-size="433.3333" font-family="sans-serif">O</text><text y="-32242" xml:space="preserve" x="-16117" stroke="none" font-size="433.3333" font-family="sans-serif">N</text><text y="-28397" xml:space="preserve" x="-30038" stroke="none" font-size="433.3333" font-family="sans-serif">N</text><text y="-29536" xml:space="preserve" x="-28068" stroke="none" font-size="433.3333" font-family="sans-serif">N</text></g></g></svg>