<svg width="153.9" viewBox="0 0 5130 4665" text-rendering="auto" stroke-width="1" stroke-opacity="1" stroke-miterlimit="10" stroke-linejoin="miter" stroke-linecap="square" stroke-dashoffset="0" stroke-dasharray="none" stroke="black" shape-rendering="auto" image-rendering="auto" height="139.95" font-weight="normal" font-style="normal" font-size="12" font-family="'Dialog'" fill-opacity="1" fill="black" color-rendering="auto" color-interpolation="auto" xmlns="http://www.w3.org/2000/svg"><g><g stroke="white" fill="white"><rect y="0" x="0" width="5130" stroke="none" height="4665"/></g><g transform="translate(32866,32866)" text-rendering="geometricPrecision" stroke-width="44" stroke-linejoin="round" stroke-linecap="round"><line y2="-31332" y1="-31899" x2="-29654" x1="-30636" fill="none"/><line y2="-31254" y1="-31682" x2="-29862" x1="-30599" fill="none"/><line y2="-30194" y1="-31332" x2="-29654" x1="-29654" fill="none"/><line y2="-31899" y1="-31332" x2="-30636" x1="-31624" fill="none"/><line y2="-29625" y1="-30194" x2="-30636" x1="-29654" fill="none"/><line y2="-29842" y1="-30269" x2="-30599" x1="-29862" fill="none"/><line y2="-31332" y1="-30194" x2="-31624" x1="-31624" fill="none"/><line y2="-31188" y1="-30336" x2="-31454" x1="-31454" fill="none"/><line y2="-30194" y1="-29625" x2="-31624" x1="-30636" fill="none"/><line y2="-31855" y1="-31332" x2="-28747" x1="-29654" fill="none"/><line y2="-29891" y1="-30194" x2="-32153" x1="-31624" fill="none"/><line y2="-31659" y1="-31332" x2="-32190" x1="-31624" fill="none"/><line y2="-28796" y1="-29625" x2="-30636" x1="-30636" fill="none"/><line y2="-31332" y1="-31855" x2="-27840" x1="-28747" fill="none"/><line y2="-32762" y1="-31855" x2="-28224" x1="-28747" fill="none"/><line y2="-32762" y1="-31855" x2="-29270" x1="-28747" fill="none"/><text y="-31676" xml:space="preserve" x="-32762" stroke="none" font-size="433.3333" font-family="sans-serif">Br</text><text y="-28397" xml:space="preserve" x="-30867" stroke="none" font-size="433.3333" font-family="sans-serif">Br</text><text y="-29492" xml:space="preserve" x="-32684" stroke="none" font-size="433.3333" font-family="sans-serif">NH</text><text y="-29403" xml:space="preserve" x="-32107" stroke="none" font-size="313.3333" font-family="sans-serif">2</text></g></g></svg>