<svg width="304.71" viewBox="0 0 10157 5155" text-rendering="auto" stroke-width="1" stroke-opacity="1" stroke-miterlimit="10" stroke-linejoin="miter" stroke-linecap="square" stroke-dashoffset="0" stroke-dasharray="none" stroke="black" shape-rendering="auto" image-rendering="auto" height="154.65" font-weight="normal" font-style="normal" font-size="12" font-family="'Dialog'" fill-opacity="1" fill="black" color-rendering="auto" color-interpolation="auto" xmlns="http://www.w3.org/2000/svg"><g><g stroke="white" fill="white"><rect y="0" x="0" width="10157" stroke="none" height="5155"/></g><g transform="translate(32866,32758)" text-rendering="geometricPrecision" stroke-width="44" stroke-linejoin="round" stroke-linecap="round"><line y2="-29550" y1="-29550" x2="-30656" x1="-28548" fill="none"/><line y2="-30766" y1="-29550" x2="-28548" x1="-28548" fill="none"/><line y2="-29550" y1="-28943" x2="-28548" x1="-27493" fill="none"/><line y2="-30766" y1="-29550" x2="-30656" x1="-30656" fill="none"/><line y2="-28943" y1="-29550" x2="-31708" x1="-30656" fill="none"/><line y2="-29166" y1="-29622" x2="-31662" x1="-30873" fill="none"/><line y2="-30766" y1="-31156" x2="-28548" x1="-29221" fill="none"/><line y2="-31376" y1="-30766" x2="-27493" x1="-28548" fill="none"/><line y2="-28943" y1="-29443" x2="-27493" x1="-26629" fill="none"/><line y2="-31266" y1="-30766" x2="-29787" x1="-30656" fill="none"/><line y2="-30766" y1="-31376" x2="-30656" x1="-31708" fill="none"/><line y2="-30697" y1="-31150" x2="-30873" x1="-31662" fill="none"/><line y2="-29550" y1="-28943" x2="-32762" x1="-31708" fill="none"/><line y2="-30766" y1="-31376" x2="-26442" x1="-27493" fill="none"/><line y2="-29770" y1="-30766" x2="-26442" x1="-26442" fill="none"/><line y2="-31376" y1="-30766" x2="-31708" x1="-32762" fill="none"/><line y2="-30766" y1="-29550" x2="-32762" x1="-32762" fill="none"/><line y2="-30613" y1="-29703" x2="-32592" x1="-32592" fill="none"/><line y2="-29027" y1="-29443" x2="-25534" x1="-26254" fill="none"/><line y2="-32202" y1="-31376" x2="-31708" x1="-31708" fill="none"/><line y2="-29443" y1="-29027" x2="-24815" x1="-25534" fill="none"/><line y2="-29027" y1="-29443" x2="-23720" x1="-24440" fill="none"/><line y2="-29550" y1="-29027" x2="-22813" x1="-23720" fill="none"/><line y2="-28198" y1="-29027" x2="-25465" x1="-25465" fill="none"/><line y2="-28198" y1="-29027" x2="-25604" x1="-25604" fill="none"/><line y2="-28721" y1="-28721" x2="-28617" x1="-28478" fill="none"/><line y2="-28938" y1="-28938" x2="-28599" x1="-28496" fill="none"/><line y2="-29154" y1="-29154" x2="-28581" x1="-28515" fill="none"/><line y2="-29371" y1="-29371" x2="-28563" x1="-28533" fill="none"/><line y2="-31595" y1="-31595" x2="-28478" x1="-28617" fill="none"/><line y2="-31378" y1="-31378" x2="-28496" x1="-28599" fill="none"/><line y2="-31162" y1="-31162" x2="-28515" x1="-28581" fill="none"/><line y2="-30945" y1="-30945" x2="-28533" x1="-28563" fill="none"/><text y="-29371" xml:space="preserve" x="-24780" stroke="none" font-size="433.3333" font-family="sans-serif">O</text><text y="-27799" xml:space="preserve" x="-25688" stroke="none" font-size="433.3333" font-family="sans-serif">O</text><text y="-32242" xml:space="preserve" x="-31939" stroke="none" font-size="433.3333" font-family="sans-serif">Br</text><text y="-31197" xml:space="preserve" x="-29752" stroke="none" font-size="433.3333" font-family="sans-serif">NH</text><text y="-29371" xml:space="preserve" x="-26595" stroke="none" font-size="433.3333" font-family="sans-serif">N</text><text y="-28322" xml:space="preserve" x="-28701" stroke="none" font-size="433.3333" font-family="sans-serif">H</text><text y="-31636" xml:space="preserve" x="-28701" stroke="none" font-size="433.3333" font-family="sans-serif">H</text><text y="-29515" xml:space="preserve" x="-28452" stroke="none" font-style="italic" font-size="313.3333" font-family="sans-serif">R</text><text y="-30443" xml:space="preserve" x="-28452" stroke="none" font-style="italic" font-size="313.3333" font-family="sans-serif">S</text></g></g></svg>