<svg width="243.24" viewBox="0 0 8108 1967" text-rendering="auto" stroke-width="1" stroke-opacity="1" stroke-miterlimit="10" stroke-linejoin="miter" stroke-linecap="square" stroke-dashoffset="0" stroke-dasharray="none" stroke="black" shape-rendering="auto" image-rendering="auto" height="59.01" font-weight="normal" font-style="normal" font-size="12" font-family="'Dialog'" fill-opacity="1" fill="black" color-rendering="auto" color-interpolation="auto" xmlns="http://www.w3.org/2000/svg"><g><g stroke="white" fill="white"><rect y="0" x="0" width="8108" stroke="none" height="1967"/></g><g transform="translate(32866,32866)" text-rendering="geometricPrecision" stroke-width="44" stroke-linejoin="round" stroke-linecap="round"><line y2="-31714" y1="-31714" x2="-27178" x1="-28227" fill="none"/><line y2="-31575" y1="-31575" x2="-27311" x1="-28097" fill="none"/><line y2="-31191" y1="-31714" x2="-29134" x1="-28227" fill="none"/><line y2="-31714" y1="-31191" x2="-30041" x1="-29134" fill="none"/><line y2="-31191" y1="-31714" x2="-30948" x1="-30041" fill="none"/><line y2="-31714" y1="-31191" x2="-31855" x1="-30948" fill="none"/><line y2="-31529" y1="-31136" x2="-31812" x1="-31133" fill="none"/><line y2="-32240" y1="-31714" x2="-29134" x1="-28227" fill="none"/><line y2="-31191" y1="-31714" x2="-26271" x1="-27178" fill="none"/><line y2="-31607" y1="-31191" x2="-25552" x1="-26271" fill="none"/><line y2="-31191" y1="-31714" x2="-32762" x1="-31855" fill="none"/><line y2="-32762" y1="-31714" x2="-31855" x1="-31855" fill="none"/><text y="-31535" xml:space="preserve" x="-25517" stroke="none" font-size="433.3333" font-family="sans-serif">OH</text><text y="-31070" xml:space="preserve" x="-27854" stroke="none" font-style="italic" font-size="313.3333" font-family="sans-serif">Z</text></g></g></svg>