<svg width="151.56" viewBox="0 0 5052 5722" text-rendering="auto" stroke-width="1" stroke-opacity="1" stroke-miterlimit="10" stroke-linejoin="miter" stroke-linecap="square" stroke-dashoffset="0" stroke-dasharray="none" stroke="black" shape-rendering="auto" image-rendering="auto" height="171.66" font-weight="normal" font-style="normal" font-size="12" font-family="'Dialog'" fill-opacity="1" fill="black" color-rendering="auto" color-interpolation="auto" xmlns="http://www.w3.org/2000/svg"><g><g stroke="white" fill="white"><rect y="0" x="0" width="5052" stroke="none" height="5722"/></g><g transform="translate(32866,32758)" text-rendering="geometricPrecision" stroke-width="44" stroke-linejoin="round" stroke-linecap="round"><line y2="-30807" y1="-31376" x2="-29732" x1="-30717" fill="none"/><line y2="-30729" y1="-31156" x2="-29940" x1="-30680" fill="none"/><line y2="-29668" y1="-30807" x2="-29732" x1="-29732" fill="none"/><line y2="-31376" y1="-30807" x2="-30717" x1="-31702" fill="none"/><line y2="-29099" y1="-29668" x2="-30717" x1="-29732" fill="none"/><line y2="-29319" y1="-29744" x2="-30680" x1="-29940" fill="none"/><line y2="-30807" y1="-29668" x2="-31702" x1="-31702" fill="none"/><line y2="-30665" y1="-29810" x2="-31532" x1="-31532" fill="none"/><line y2="-29668" y1="-29099" x2="-31702" x1="-30717" fill="none"/><line y2="-31330" y1="-30807" x2="-28825" x1="-29732" fill="none"/><line y2="-28273" y1="-29099" x2="-30717" x1="-30717" fill="none"/><line y2="-27695" y1="-27944" x2="-31335" x1="-30905" fill="none"/><line y2="-32202" y1="-31376" x2="-30717" x1="-30717" fill="none"/><line y2="-29365" y1="-29668" x2="-32231" x1="-31702" fill="none"/><line y2="-30807" y1="-31330" x2="-27918" x1="-28825" fill="none"/><line y2="-32159" y1="-31330" x2="-28894" x1="-28894" fill="none"/><line y2="-32159" y1="-31330" x2="-28756" x1="-28756" fill="none"/><text y="-32199" xml:space="preserve" x="-28978" stroke="none" font-size="433.3333" font-family="sans-serif">O</text><text y="-32242" xml:space="preserve" x="-30867" stroke="none" font-size="433.3333" font-family="sans-serif">F</text><text y="-27874" xml:space="preserve" x="-30867" stroke="none" font-size="433.3333" font-family="sans-serif">O</text><text y="-27297" xml:space="preserve" x="-31867" stroke="none" font-size="433.3333" font-family="sans-serif">CH</text><text y="-27207" xml:space="preserve" x="-31289" stroke="none" font-size="313.3333" font-family="sans-serif">3</text><text y="-28966" xml:space="preserve" x="-32762" stroke="none" font-size="433.3333" font-family="sans-serif">OH</text></g></g></svg>