<svg width="396.51" viewBox="0 0 13217 9766" text-rendering="auto" stroke-width="1" stroke-opacity="1" stroke-miterlimit="10" stroke-linejoin="miter" stroke-linecap="square" stroke-dashoffset="0" stroke-dasharray="none" stroke="black" shape-rendering="auto" image-rendering="auto" height="292.98" font-weight="normal" font-style="normal" font-size="12" font-family="'Dialog'" fill-opacity="1" fill="black" color-rendering="auto" color-interpolation="auto" xmlns="http://www.w3.org/2000/svg"><g><g stroke="white" fill="white"><rect y="0" x="0" width="13217" stroke="none" height="9766"/></g><g transform="translate(32866,32758)" text-rendering="geometricPrecision" stroke-width="44" stroke-linejoin="round" stroke-linecap="round"><line y2="-26346" y1="-26346" x2="-29654" x1="-27681" fill="none"/><line y2="-26346" y1="-27484" x2="-27681" x1="-27681" fill="none"/><line y2="-26488" y1="-27340" x2="-27851" x1="-27851" fill="none"/><line y2="-27484" y1="-26346" x2="-29654" x1="-29654" fill="none"/><line y2="-25777" y1="-26346" x2="-30636" x1="-29654" fill="none"/><line y2="-25994" y1="-26421" x2="-30599" x1="-29859" fill="none"/><line y2="-27484" y1="-27944" x2="-27681" x1="-28478" fill="none"/><line y2="-27944" y1="-27484" x2="-28854" x1="-29654" fill="none"/><line y2="-27484" y1="-28054" x2="-29654" x1="-30636" fill="none"/><line y2="-27406" y1="-27834" x2="-29859" x1="-30599" fill="none"/><line y2="-26346" y1="-25777" x2="-31624" x1="-30636" fill="none"/><line y2="-28054" y1="-27484" x2="-30636" x1="-31624" fill="none"/><line y2="-27484" y1="-26346" x2="-31624" x1="-31624" fill="none"/><line y2="-27340" y1="-26488" x2="-31454" x1="-31454" fill="none"/><line y2="-25823" y1="-26346" x2="-26774" x1="-27681" fill="none"/><line y2="-29099" y1="-28273" x2="-28666" x1="-28666" fill="none"/><line y2="-26020" y1="-26346" x2="-32188" x1="-31624" fill="none"/><line y2="-25823" y1="-24685" x2="-26774" x1="-26774" fill="none"/><line y2="-26392" y1="-25823" x2="-25789" x1="-26774" fill="none"/><line y2="-24685" y1="-24116" x2="-26774" x1="-25789" fill="none"/><line y2="-25823" y1="-26392" x2="-24804" x1="-25789" fill="none"/><line y2="-24116" y1="-24575" x2="-25789" x1="-24991" fill="none"/><line y2="-24905" y1="-25823" x2="-24804" x1="-24804" fill="none"/><line y2="-24162" y1="-24575" x2="-23896" x1="-24616" fill="none"/><line y2="-24685" y1="-24162" x2="-22989" x1="-23896" fill="none"/><line y2="-24269" y1="-24685" x2="-22270" x1="-22989" fill="none"/><line y2="-29668" y1="-29099" x2="-29651" x1="-28666" fill="none"/><line y2="-29746" y1="-29319" x2="-29443" x1="-28704" fill="none"/><line y2="-29099" y1="-29668" x2="-28666" x1="-27681" fill="none"/><line y2="-30807" y1="-29668" x2="-29651" x1="-29651" fill="none"/><line y2="-29668" y1="-30807" x2="-27681" x1="-27681" fill="none"/><line y2="-29810" y1="-30665" x2="-27851" x1="-27851" fill="none"/><line y2="-31376" y1="-30807" x2="-28666" x1="-29651" fill="none"/><line y2="-31156" y1="-30729" x2="-28704" x1="-29443" fill="none"/><line y2="-30807" y1="-31376" x2="-27681" x1="-28666" fill="none"/><line y2="-32202" y1="-31376" x2="-28666" x1="-28666" fill="none"/><line y2="-24856" y1="-24301" x2="-21140" x1="-21894" fill="none"/><line y2="-23943" y1="-23096" x2="-22016" x1="-21756" fill="none"/><line y2="-24307" y1="-24856" x2="-20430" x1="-21140" fill="none"/><line y2="-23096" y1="-23096" x2="-21756" x1="-20609" fill="none"/><line y2="-23096" y1="-23943" x2="-20609" x1="-20317" fill="none"/><line y2="-25685" y1="-24856" x2="-21210" x1="-21210" fill="none"/><line y2="-25685" y1="-24856" x2="-21071" x1="-21071" fill="none"/><text y="-25644" xml:space="preserve" x="-32762" stroke="none" font-size="433.3333" font-family="sans-serif">Cl</text><text y="-32242" xml:space="preserve" x="-28816" stroke="none" font-size="433.3333" font-family="sans-serif">F</text><text y="-25725" xml:space="preserve" x="-21294" stroke="none" font-size="433.3333" font-family="sans-serif">O</text><text y="-27874" xml:space="preserve" x="-28816" stroke="none" font-size="433.3333" font-family="sans-serif">N</text><text y="-24506" xml:space="preserve" x="-24957" stroke="none" font-size="433.3333" font-family="sans-serif">N</text><text y="-23983" xml:space="preserve" x="-22235" stroke="none" font-size="433.3333" font-family="sans-serif">N</text><text y="-23983" xml:space="preserve" x="-20392" stroke="none" font-size="433.3333" font-family="sans-serif">NH</text></g></g></svg>