<svg width="279.45" viewBox="0 0 9315 3723" text-rendering="auto" stroke-width="1" stroke-opacity="1" stroke-miterlimit="10" stroke-linejoin="miter" stroke-linecap="square" stroke-dashoffset="0" stroke-dasharray="none" stroke="black" shape-rendering="auto" image-rendering="auto" height="111.69" font-weight="normal" font-style="normal" font-size="12" font-family="'Dialog'" fill-opacity="1" fill="black" color-rendering="auto" color-interpolation="auto" xmlns="http://www.w3.org/2000/svg"><g><g stroke="white" fill="white"><rect y="0" x="0" width="9315" stroke="none" height="3723"/></g><g transform="translate(32866,32758)" text-rendering="geometricPrecision" stroke-width="44" stroke-linejoin="round" stroke-linecap="round"><line y2="-29570" y1="-29897" x2="-27002" x1="-27568" fill="none"/><line y2="-30096" y1="-29570" x2="-26095" x1="-27002" fill="none"/><line y2="-29975" y1="-29452" x2="-26026" x1="-26933" fill="none"/><line y2="-29637" y1="-29900" x2="-28704" x1="-28247" fill="none"/><line y2="-30050" y1="-29637" x2="-29798" x1="-29079" fill="none"/><line y2="-29527" y1="-30050" x2="-30706" x1="-29798" fill="none"/><line y2="-29943" y1="-29527" x2="-31425" x1="-30706" fill="none"/><line y2="-29694" y1="-29943" x2="-32231" x1="-31800" fill="none"/><line y2="-30922" y1="-30316" x2="-27909" x1="-27909" fill="none"/><line y2="-31668" y1="-31252" x2="-27002" x1="-27721" fill="none"/><line y2="-31142" y1="-31668" x2="-26095" x1="-27002" fill="none"/><line y2="-31558" y1="-31142" x2="-25376" x1="-26095" fill="none"/><line y2="-31252" y1="-31558" x2="-24468" x1="-25000" fill="none"/><line y2="-30561" y1="-30292" x2="-28712" x1="-28247" fill="none"/><line y2="-31717" y1="-30888" x2="-28900" x1="-28900" fill="none"/><line y2="-32240" y1="-31717" x2="-29807" x1="-28900" fill="none"/><line y2="-31824" y1="-32240" x2="-30526" x1="-29807" fill="none"/><line y2="-32092" y1="-31824" x2="-31367" x1="-30902" fill="none"/><text y="-29917" xml:space="preserve" x="-28140" stroke="none" font-size="433.3333" font-family="sans-serif">Si</text><text y="-29348" xml:space="preserve" x="-29044" stroke="none" font-size="433.3333" font-family="sans-serif">O</text><text y="-30963" xml:space="preserve" x="-28059" stroke="none" font-size="433.3333" font-family="sans-serif">O</text><text y="-30489" xml:space="preserve" x="-29053" stroke="none" font-size="433.3333" font-family="sans-serif">O</text><text y="-29871" xml:space="preserve" x="-31766" stroke="none" font-size="433.3333" font-family="sans-serif">O</text><text y="-31488" xml:space="preserve" x="-25338" stroke="none" font-size="433.3333" font-family="sans-serif">O</text><text y="-31538" xml:space="preserve" x="-30867" stroke="none" font-size="433.3333" font-family="sans-serif">O</text><text y="-29296" xml:space="preserve" x="-32762" stroke="none" font-size="433.3333" font-family="sans-serif">CH</text><text y="-29206" xml:space="preserve" x="-32185" stroke="none" font-size="313.3333" font-family="sans-serif">3</text><text y="-30963" xml:space="preserve" x="-24431" stroke="none" font-size="433.3333" font-family="sans-serif">CH</text><text y="-30873" xml:space="preserve" x="-23853" stroke="none" font-size="313.3333" font-family="sans-serif">3</text><text y="-32242" xml:space="preserve" x="-32089" stroke="none" font-size="433.3333" font-family="sans-serif">CH</text><text y="-32153" xml:space="preserve" x="-31512" stroke="none" font-size="313.3333" font-family="sans-serif">3</text></g></g></svg>