<svg width="622.47" viewBox="0 0 20749 15470" text-rendering="auto" stroke-width="1" stroke-opacity="1" stroke-miterlimit="10" stroke-linejoin="miter" stroke-linecap="square" stroke-dashoffset="0" stroke-dasharray="none" stroke="black" shape-rendering="auto" image-rendering="auto" height="464.1" font-weight="normal" font-style="normal" font-size="12" font-family="'Dialog'" fill-opacity="1" fill="black" color-rendering="auto" color-interpolation="auto" xmlns="http://www.w3.org/2000/svg"><g><g stroke="white" fill="white"><rect y="0" x="0" width="20749" stroke="none" height="15470"/></g><g transform="translate(32866,32866)" text-rendering="geometricPrecision" stroke-width="44" stroke-linejoin="round" stroke-linecap="round"><line y2="-23298" y1="-23712" x2="-24044" x1="-24763" fill="none"/><line y2="-23821" y1="-23298" x2="-23137" x1="-24044" fill="none"/><line y2="-23298" y1="-23821" x2="-22230" x1="-23137" fill="none"/><line y2="-23712" y1="-23298" x2="-21510" x1="-22230" fill="none"/><line y2="-23298" y1="-23602" x2="-20415" x1="-20941" fill="none"/><line y2="-23298" y1="-23712" x2="-25858" x1="-25139" fill="none"/><line y2="-24870" y1="-24041" x2="-24951" x1="-24951" fill="none"/><line y2="-25393" y1="-24870" x2="-24044" x1="-24951" fill="none"/><line y2="-26222" y1="-25393" x2="-24044" x1="-24044" fill="none"/><line y2="-23298" y1="-22380" x2="-20415" x1="-20415" fill="none"/><line y2="-23758" y1="-23298" x2="-19618" x1="-20415" fill="none"/><line y2="-23553" y1="-23209" x2="-19632" x1="-20230" fill="none"/><line y2="-22050" y1="-21591" x2="-20228" x1="-19430" fill="none"/><line y2="-22140" y1="-21796" x2="-20043" x1="-19445" fill="none"/><line y2="-23298" y1="-23758" x2="-18445" x1="-19242" fill="none"/><line y2="-21591" y1="-22050" x2="-19430" x1="-18633" fill="none"/><line y2="-22380" y1="-23298" x2="-18445" x1="-18445" fill="none"/><line y2="-22495" y1="-23183" x2="-18616" x1="-18616" fill="none"/><line y2="-20762" y1="-21591" x2="-19430" x1="-19430" fill="none"/><line y2="-23712" y1="-23298" x2="-17726" x1="-18445" fill="none"/><line y2="-23298" y1="-22380" x2="-27828" x1="-27828" fill="none"/><line y2="-23758" y1="-23298" x2="-27034" x1="-27828" fill="none"/><line y2="-23553" y1="-23209" x2="-27048" x1="-27643" fill="none"/><line y2="-22050" y1="-21591" x2="-27640" x1="-26846" fill="none"/><line y2="-22140" y1="-21796" x2="-27456" x1="-26858" fill="none"/><line y2="-23298" y1="-23758" x2="-25858" x1="-26655" fill="none"/><line y2="-21591" y1="-22050" x2="-26846" x1="-26046" fill="none"/><line y2="-22380" y1="-23298" x2="-25858" x1="-25858" fill="none"/><line y2="-22495" y1="-23183" x2="-26028" x1="-26028" fill="none"/><line y2="-23712" y1="-23298" x2="-28548" x1="-27828" fill="none"/><line y2="-20762" y1="-21591" x2="-26846" x1="-26846" fill="none"/><line y2="-26964" y1="-26548" x2="-23137" x1="-23856" fill="none"/><line y2="-26442" y1="-26964" x2="-22230" x1="-23137" fill="none"/><line y2="-26964" y1="-26442" x2="-21322" x1="-22230" fill="none"/><line y2="-26548" y1="-26964" x2="-20603" x1="-21322" fill="none"/><line y2="-26964" y1="-26661" x2="-19508" x1="-20034" fill="none"/><line y2="-26964" y1="-26548" x2="-24951" x1="-24232" fill="none"/><line y2="-20020" y1="-20436" x2="-18523" x1="-19242" fill="none"/><line y2="-20020" y1="-20436" x2="-20337" x1="-19618" fill="none"/><line y2="-20542" y1="-20020" x2="-21244" x1="-20337" fill="none"/><line y2="-20020" y1="-20542" x2="-22152" x1="-21244" fill="none"/><line y2="-20542" y1="-20020" x2="-23059" x1="-22152" fill="none"/><line y2="-22995" y1="-23714" x2="-16082" x1="-17350" fill="none"/><line y2="-24870" y1="-24041" x2="-17538" x1="-17538" fill="none"/><line y2="-25393" y1="-24870" x2="-18445" x1="-17538" fill="none"/><line y2="-24884" y1="-25393" x2="-19361" x1="-18445" fill="none"/><line y2="-25407" y1="-24884" x2="-20271" x1="-19361" fill="none"/><line y2="-23298" y1="-23712" x2="-29642" x1="-28923" fill="none"/><line y2="-24870" y1="-24041" x2="-28735" x1="-28735" fill="none"/><line y2="-25393" y1="-24870" x2="-29642" x1="-28735" fill="none"/><line y2="-24870" y1="-25393" x2="-30550" x1="-29642" fill="none"/><line y2="-25393" y1="-24870" x2="-31457" x1="-30550" fill="none"/><line y2="-20020" y1="-20436" x2="-25936" x1="-26655" fill="none"/><line y2="-20020" y1="-20436" x2="-27753" x1="-27034" fill="none"/><line y2="-20542" y1="-20020" x2="-28660" x1="-27753" fill="none"/><line y2="-20020" y1="-20542" x2="-29567" x1="-28660" fill="none"/><line y2="-20542" y1="-20020" x2="-30474" x1="-29567" fill="none"/><line y2="-27883" y1="-26964" x2="-19508" x1="-19508" fill="none"/><line y2="-26964" y1="-26505" x2="-19508" x1="-18708" fill="none"/><line y2="-27054" y1="-26710" x2="-19323" x1="-18722" fill="none"/><line y2="-28672" y1="-28210" x2="-18520" x1="-19320" fill="none"/><line y2="-28467" y1="-28120" x2="-18535" x1="-19133" fill="none"/><line y2="-26505" y1="-26964" x2="-18332" x1="-17538" fill="none"/><line y2="-28210" y1="-28672" x2="-17726" x1="-18520" fill="none"/><line y2="-26964" y1="-27883" x2="-17538" x1="-17538" fill="none"/><line y2="-27080" y1="-27768" x2="-17708" x1="-17708" fill="none"/><line y2="-29498" y1="-28672" x2="-18520" x1="-18520" fill="none"/><line y2="-26548" y1="-26964" x2="-16819" x1="-17538" fill="none"/><line y2="-26505" y1="-26964" x2="-25745" x1="-24951" fill="none"/><line y2="-26964" y1="-27883" x2="-24951" x1="-24951" fill="none"/><line y2="-27080" y1="-27768" x2="-25121" x1="-25121" fill="none"/><line y2="-26964" y1="-26505" x2="-26921" x1="-26121" fill="none"/><line y2="-27054" y1="-26710" x2="-26736" x1="-26138" fill="none"/><line y2="-28210" y1="-28672" x2="-25139" x1="-25933" fill="none"/><line y2="-27883" y1="-26964" x2="-26921" x1="-26921" fill="none"/><line y2="-28672" y1="-28210" x2="-25933" x1="-26733" fill="none"/><line y2="-28467" y1="-28120" x2="-25950" x1="-26548" fill="none"/><line y2="-26548" y1="-26964" x2="-27640" x1="-26921" fill="none"/><line y2="-29498" y1="-28672" x2="-25933" x1="-25933" fill="none"/><line y2="-20020" y1="-18881" x2="-18523" x1="-18523" fill="none"/><line y2="-20589" y1="-20020" x2="-17538" x1="-18523" fill="none"/><line y2="-18881" y1="-18312" x2="-18523" x1="-17538" fill="none"/><line y2="-20020" y1="-20589" x2="-16553" x1="-17538" fill="none"/><line y2="-18312" y1="-18774" x2="-17538" x1="-16741" fill="none"/><line y2="-19101" y1="-20020" x2="-16553" x1="-16553" fill="none"/><line y2="-18465" y1="-18774" x2="-15834" x1="-16365" fill="none"/><line y2="-17500" y1="-18312" x2="-16879" x1="-17538" fill="none"/><line y2="-17512" y1="-18312" x2="-18211" x1="-17538" fill="none"/><line y2="-19838" y1="-20020" x2="-15522" x1="-16553" fill="none"/><line y2="-21005" y1="-20020" x2="-16195" x1="-16553" fill="none"/><line y2="-22995" y1="-21857" x2="-16082" x1="-16082" fill="none"/><line y2="-23561" y1="-22995" x2="-15094" x1="-16082" fill="none"/><line y2="-21857" y1="-21288" x2="-16082" x1="-15094" fill="none"/><line y2="-22995" y1="-23561" x2="-14112" x1="-15094" fill="none"/><line y2="-21288" y1="-21747" x2="-15094" x1="-14300" fill="none"/><line y2="-22076" y1="-22995" x2="-14112" x1="-14112" fill="none"/><line y2="-21441" y1="-21747" x2="-13392" x1="-13924" fill="none"/><line y2="-20473" y1="-21288" x2="-14435" x1="-15094" fill="none"/><line y2="-20485" y1="-21288" x2="-15767" x1="-15094" fill="none"/><line y2="-22813" y1="-22995" x2="-13080" x1="-14112" fill="none"/><line y2="-23977" y1="-22995" x2="-13754" x1="-14112" fill="none"/><line y2="-22160" y1="-23298" x2="-29642" x1="-29642" fill="none"/><line y2="-23298" y1="-23865" x2="-29642" x1="-30630" fill="none"/><line y2="-21591" y1="-22160" x2="-30630" x1="-29642" fill="none"/><line y2="-23865" y1="-23298" x2="-30630" x1="-31613" fill="none"/><line y2="-22050" y1="-21591" x2="-31425" x1="-30630" fill="none"/><line y2="-23298" y1="-22380" x2="-31613" x1="-31613" fill="none"/><line y2="-21805" y1="-22050" x2="-32231" x1="-31800" fill="none"/><line y2="-20765" y1="-21591" x2="-29983" x1="-30630" fill="none"/><line y2="-20800" y1="-21591" x2="-31318" x1="-30630" fill="none"/><line y2="-24281" y1="-23298" x2="-31971" x1="-31613" fill="none"/><line y2="-23116" y1="-23298" x2="-32644" x1="-31613" fill="none"/><line y2="-20020" y1="-18881" x2="-25936" x1="-25936" fill="none"/><line y2="-20589" y1="-20020" x2="-24951" x1="-25936" fill="none"/><line y2="-18881" y1="-18312" x2="-25936" x1="-24951" fill="none"/><line y2="-20020" y1="-20589" x2="-23966" x1="-24951" fill="none"/><line y2="-18312" y1="-18774" x2="-24951" x1="-24156" fill="none"/><line y2="-19101" y1="-20020" x2="-23966" x1="-23966" fill="none"/><line y2="-18465" y1="-18774" x2="-23249" x1="-23778" fill="none"/><line y2="-17500" y1="-18312" x2="-24292" x1="-24951" fill="none"/><line y2="-17512" y1="-18312" x2="-25624" x1="-24951" fill="none"/><line y2="-19838" y1="-20020" x2="-22934" x1="-23966" fill="none"/><line y2="-21005" y1="-20020" x2="-23608" x1="-23966" fill="none"/><line y2="-30243" y1="-29827" x2="-19427" x1="-18708" fill="none"/><line y2="-30243" y1="-29827" x2="-17613" x1="-18332" fill="none"/><line y2="-29718" y1="-30243" x2="-16706" x1="-17613" fill="none"/><line y2="-30243" y1="-29718" x2="-15799" x1="-16706" fill="none"/><line y2="-29718" y1="-30243" x2="-14892" x1="-15799" fill="none"/><line y2="-26964" y1="-26548" x2="-15724" x1="-16443" fill="none"/><line y2="-25393" y1="-26222" x2="-16631" x1="-16631" fill="none"/><line y2="-24870" y1="-25393" x2="-15724" x1="-16631" fill="none"/><line y2="-25393" y1="-24870" x2="-14817" x1="-15724" fill="none"/><line y2="-24870" y1="-25393" x2="-13910" x1="-14817" fill="none"/><line y2="-27279" y1="-26548" x2="-29278" x1="-28016" fill="none"/><line y2="-25393" y1="-26222" x2="-27828" x1="-27828" fill="none"/><line y2="-24853" y1="-25393" x2="-26930" x1="-27828" fill="none"/><line y2="-25376" y1="-24853" x2="-26023" x1="-26930" fill="none"/><line y2="-24838" y1="-25376" x2="-25124" x1="-26023" fill="none"/><line y2="-30243" y1="-29827" x2="-26840" x1="-26121" fill="none"/><line y2="-30243" y1="-29827" x2="-25026" x1="-25745" fill="none"/><line y2="-29718" y1="-30243" x2="-24119" x1="-25026" fill="none"/><line y2="-30243" y1="-29718" x2="-23212" x1="-24119" fill="none"/><line y2="-29718" y1="-30243" x2="-22305" x1="-23212" fill="none"/><line y2="-30243" y1="-31379" x2="-19427" x1="-19427" fill="none"/><line y2="-29674" y1="-30243" x2="-20415" x1="-19427" fill="none"/><line y2="-31379" y1="-31948" x2="-19427" x1="-20415" fill="none"/><line y2="-30243" y1="-29674" x2="-21398" x1="-20415" fill="none"/><line y2="-31948" y1="-31488" x2="-20415" x1="-21210" fill="none"/><line y2="-31159" y1="-30243" x2="-21398" x1="-21398" fill="none"/><line y2="-31737" y1="-31488" x2="-22016" x1="-21585" fill="none"/><line y2="-32762" y1="-31948" x2="-21074" x1="-20415" fill="none"/><line y2="-32751" y1="-31948" x2="-19742" x1="-20415" fill="none"/><line y2="-30425" y1="-30243" x2="-22429" x1="-21398" fill="none"/><line y2="-29258" y1="-30243" x2="-21756" x1="-21398" fill="none"/><line y2="-28103" y1="-26964" x2="-15724" x1="-15724" fill="none"/><line y2="-26964" y1="-26395" x2="-15724" x1="-14736" fill="none"/><line y2="-28672" y1="-28103" x2="-14736" x1="-15724" fill="none"/><line y2="-26395" y1="-26964" x2="-14736" x1="-13754" fill="none"/><line y2="-28210" y1="-28672" x2="-13941" x1="-14736" fill="none"/><line y2="-26964" y1="-27883" x2="-13754" x1="-13754" fill="none"/><line y2="-28519" y1="-28210" x2="-13034" x1="-13566" fill="none"/><line y2="-29495" y1="-28672" x2="-15380" x1="-14736" fill="none"/><line y2="-29460" y1="-28672" x2="-14048" x1="-14736" fill="none"/><line y2="-25979" y1="-26964" x2="-13395" x1="-13754" fill="none"/><line y2="-27146" y1="-26964" x2="-12722" x1="-13754" fill="none"/><line y2="-27279" y1="-28415" x2="-29278" x1="-29278" fill="none"/><line y2="-26710" y1="-27279" x2="-30264" x1="-29278" fill="none"/><line y2="-28415" y1="-28984" x2="-29278" x1="-30264" fill="none"/><line y2="-27279" y1="-26710" x2="-31249" x1="-30264" fill="none"/><line y2="-28984" y1="-28524" x2="-30264" x1="-31061" fill="none"/><line y2="-28195" y1="-27279" x2="-31249" x1="-31249" fill="none"/><line y2="-28773" y1="-28524" x2="-31867" x1="-31436" fill="none"/><line y2="-29798" y1="-28984" x2="-30925" x1="-30264" fill="none"/><line y2="-29787" y1="-28984" x2="-29590" x1="-30264" fill="none"/><line y2="-27461" y1="-27279" x2="-32280" x1="-31249" fill="none"/><line y2="-26294" y1="-27279" x2="-31607" x1="-31249" fill="none"/><line y2="-30243" y1="-31379" x2="-26840" x1="-26840" fill="none"/><line y2="-29674" y1="-30243" x2="-27828" x1="-26840" fill="none"/><line y2="-31379" y1="-31948" x2="-26840" x1="-27828" fill="none"/><line y2="-30243" y1="-29674" x2="-28810" x1="-27828" fill="none"/><line y2="-31948" y1="-31488" x2="-27828" x1="-28623" fill="none"/><line y2="-31159" y1="-30243" x2="-28810" x1="-28810" fill="none"/><line y2="-31737" y1="-31488" x2="-29429" x1="-28998" fill="none"/><line y2="-32762" y1="-31948" x2="-28487" x1="-27828" fill="none"/><line y2="-32751" y1="-31948" x2="-27155" x1="-27828" fill="none"/><line y2="-30425" y1="-30243" x2="-29842" x1="-28810" fill="none"/><line y2="-29258" y1="-30243" x2="-29169" x1="-28810" fill="none"/><text y="-23642" xml:space="preserve" x="-28888" stroke="none" font-size="433.3333" font-family="sans-serif">N</text><text y="-20363" xml:space="preserve" x="-26996" stroke="none" font-size="433.3333" font-family="sans-serif">N</text><text y="-23642" xml:space="preserve" x="-25104" stroke="none" font-size="433.3333" font-family="sans-serif">N</text><text y="-26262" xml:space="preserve" x="-24197" stroke="none" font-size="433.3333" font-family="sans-serif">N</text><text y="-23642" xml:space="preserve" x="-21473" stroke="none" font-size="433.3333" font-family="sans-serif">NH</text><text y="-26262" xml:space="preserve" x="-20566" stroke="none" font-size="433.3333" font-family="sans-serif">NH</text><text y="-21406" xml:space="preserve" x="-32762" stroke="none" font-size="433.3333" font-family="sans-serif">CH</text><text y="-21317" xml:space="preserve" x="-32185" stroke="none" font-size="313.3333" font-family="sans-serif">3</text><text y="-18179" xml:space="preserve" x="-23212" stroke="none" font-size="433.3333" font-family="sans-serif">CH</text><text y="-18090" xml:space="preserve" x="-22634" stroke="none" font-size="313.3333" font-family="sans-serif">3</text><text y="-26262" xml:space="preserve" x="-27981" stroke="none" font-size="433.3333" font-family="sans-serif">N</text><text y="-29538" xml:space="preserve" x="-26086" stroke="none" font-size="433.3333" font-family="sans-serif">N</text><text y="-20363" xml:space="preserve" x="-19583" stroke="none" font-size="433.3333" font-family="sans-serif">N</text><text y="-23642" xml:space="preserve" x="-17688" stroke="none" font-size="433.3333" font-family="sans-serif">N</text><text y="-29538" xml:space="preserve" x="-18673" stroke="none" font-size="433.3333" font-family="sans-serif">N</text><text y="-26262" xml:space="preserve" x="-16781" stroke="none" font-size="433.3333" font-family="sans-serif">N</text><text y="-28923" xml:space="preserve" x="-32589" stroke="none" font-size="433.3333" font-family="sans-serif">CH</text><text y="-28834" xml:space="preserve" x="-32011" stroke="none" font-size="313.3333" font-family="sans-serif">3</text><text y="-31887" xml:space="preserve" x="-30151" stroke="none" font-size="433.3333" font-family="sans-serif">CH</text><text y="-31798" xml:space="preserve" x="-29573" stroke="none" font-size="313.3333" font-family="sans-serif">3</text><text y="-18179" xml:space="preserve" x="-15799" stroke="none" font-size="433.3333" font-family="sans-serif">CH</text><text y="-18090" xml:space="preserve" x="-15221" stroke="none" font-size="313.3333" font-family="sans-serif">3</text><text y="-21152" xml:space="preserve" x="-13355" stroke="none" font-size="433.3333" font-family="sans-serif">CH</text><text y="-21062" xml:space="preserve" x="-12777" stroke="none" font-size="313.3333" font-family="sans-serif">3</text><text y="-31887" xml:space="preserve" x="-22738" stroke="none" font-size="433.3333" font-family="sans-serif">CH</text><text y="-31798" xml:space="preserve" x="-22160" stroke="none" font-size="313.3333" font-family="sans-serif">3</text><text y="-28446" xml:space="preserve" x="-12997" stroke="none" font-size="433.3333" font-family="sans-serif">CH</text><text y="-28357" xml:space="preserve" x="-12419" stroke="none" font-size="313.3333" font-family="sans-serif">3</text><text y="-21981" xml:space="preserve" x="-27981" stroke="none" font-size="433.3333" font-family="sans-serif">N</text><text y="-23686" xml:space="preserve" x="-26996" stroke="none" font-size="433.3333" font-family="sans-serif">N</text><text y="-21981" xml:space="preserve" x="-26011" stroke="none" font-size="433.3333" font-family="sans-serif">N</text><text y="-21981" xml:space="preserve" x="-31766" stroke="none" font-size="433.3333" font-family="sans-serif">N</text><text y="-18702" xml:space="preserve" x="-24119" stroke="none" font-size="433.3333" font-family="sans-serif">N</text><text y="-26216" xml:space="preserve" x="-26086" stroke="none" font-size="433.3333" font-family="sans-serif">N</text><text y="-27924" xml:space="preserve" x="-25104" stroke="none" font-size="433.3333" font-family="sans-serif">N</text><text y="-27924" xml:space="preserve" x="-27074" stroke="none" font-size="433.3333" font-family="sans-serif">N</text><text y="-21981" xml:space="preserve" x="-20566" stroke="none" font-size="433.3333" font-family="sans-serif">N</text><text y="-23686" xml:space="preserve" x="-19583" stroke="none" font-size="433.3333" font-family="sans-serif">N</text><text y="-21981" xml:space="preserve" x="-18595" stroke="none" font-size="433.3333" font-family="sans-serif">N</text><text y="-28236" xml:space="preserve" x="-31399" stroke="none" font-size="433.3333" font-family="sans-serif">N</text><text y="-31200" xml:space="preserve" x="-28964" stroke="none" font-size="433.3333" font-family="sans-serif">N</text><text y="-27924" xml:space="preserve" x="-19658" stroke="none" font-size="433.3333" font-family="sans-serif">N</text><text y="-26216" xml:space="preserve" x="-18673" stroke="none" font-size="433.3333" font-family="sans-serif">N</text><text y="-27924" xml:space="preserve" x="-17688" stroke="none" font-size="433.3333" font-family="sans-serif">N</text><text y="-18702" xml:space="preserve" x="-16706" stroke="none" font-size="433.3333" font-family="sans-serif">N</text><text y="-21678" xml:space="preserve" x="-14262" stroke="none" font-size="433.3333" font-family="sans-serif">N</text><text y="-31200" xml:space="preserve" x="-21551" stroke="none" font-size="433.3333" font-family="sans-serif">N</text><text y="-27924" xml:space="preserve" x="-13904" stroke="none" font-size="433.3333" font-family="sans-serif">N</text></g></g></svg>