<svg width="295.14" viewBox="0 0 9838 5769" text-rendering="auto" stroke-width="1" stroke-opacity="1" stroke-miterlimit="10" stroke-linejoin="miter" stroke-linecap="square" stroke-dashoffset="0" stroke-dasharray="none" stroke="black" shape-rendering="auto" image-rendering="auto" height="173.07" font-weight="normal" font-style="normal" font-size="12" font-family="'Dialog'" fill-opacity="1" fill="black" color-rendering="auto" color-interpolation="auto" xmlns="http://www.w3.org/2000/svg"><g><g stroke="white" fill="white"><rect y="0" x="0" width="9838" stroke="none" height="5769"/></g><g transform="translate(32866,32866)" text-rendering="geometricPrecision" stroke-width="44" stroke-linejoin="round" stroke-linecap="round"><line y2="-29432" y1="-30495" x2="-30139" x1="-29772" fill="none"/><line y2="-29432" y1="-29432" x2="-31098" x1="-30139" fill="none"/><line y2="-30495" y1="-31046" x2="-29772" x1="-30483" fill="none"/><line y2="-30495" y1="-29651" x2="-31613" x1="-31353" fill="none"/><line y2="-31052" y1="-30495" x2="-30859" x1="-31613" fill="none"/><line y2="-28906" y1="-29432" x2="-29232" x1="-30139" fill="none"/><line y2="-29322" y1="-28906" x2="-28513" x1="-29232" fill="none"/><line y2="-28906" y1="-29322" x2="-27418" x1="-28137" fill="none"/><line y2="-32240" y1="-31410" x2="-30671" x1="-30671" fill="none"/><line y2="-30691" y1="-30428" x2="-32445" x1="-31636" fill="none"/><line y2="-30824" y1="-30561" x2="-32401" x1="-31592" fill="none"/><line y2="-28906" y1="-27770" x2="-27418" x1="-27418" fill="none"/><line y2="-28764" y1="-27912" x2="-27248" x1="-27248" fill="none"/><line y2="-29475" y1="-28906" x2="-26430" x1="-27418" fill="none"/><line y2="-27770" y1="-27201" x2="-27418" x1="-26430" fill="none"/><line y2="-28906" y1="-29475" x2="-25448" x1="-26430" fill="none"/><line y2="-28831" y1="-29258" x2="-25656" x1="-26392" fill="none"/><line y2="-27201" y1="-27770" x2="-26430" x1="-25448" fill="none"/><line y2="-27418" y1="-27846" x2="-26392" x1="-25656" fill="none"/><line y2="-27770" y1="-28906" x2="-25448" x1="-25448" fill="none"/><line y2="-27245" y1="-27770" x2="-24541" x1="-25448" fill="none"/><line y2="-27661" y1="-27245" x2="-23821" x1="-24541" fill="none"/><line y2="-32762" y1="-32240" x2="-29764" x1="-30671" fill="none"/><line y2="-32762" y1="-32240" x2="-31578" x1="-30671" fill="none"/><text y="-29252" xml:space="preserve" x="-28478" stroke="none" font-size="433.3333" font-family="sans-serif">O</text><text y="-30639" xml:space="preserve" x="-32762" stroke="none" font-size="433.3333" font-family="sans-serif">O</text><text y="-27591" xml:space="preserve" x="-23787" stroke="none" font-size="433.3333" font-family="sans-serif">OH</text><text y="-29252" xml:space="preserve" x="-31439" stroke="none" font-size="433.3333" font-family="sans-serif">O</text><text y="-31012" xml:space="preserve" x="-30824" stroke="none" font-size="433.3333" font-family="sans-serif">N</text></g></g></svg>