<svg width="271.2" viewBox="0 0 9040 3806" text-rendering="auto" stroke-width="1" stroke-opacity="1" stroke-miterlimit="10" stroke-linejoin="miter" stroke-linecap="square" stroke-dashoffset="0" stroke-dasharray="none" stroke="black" shape-rendering="auto" image-rendering="auto" height="114.18" font-weight="normal" font-style="normal" font-size="12" font-family="'Dialog'" fill-opacity="1" fill="black" color-rendering="auto" color-interpolation="auto" xmlns="http://www.w3.org/2000/svg"><g><g stroke="white" fill="white"><rect y="0" x="0" width="9040" stroke="none" height="3806"/></g><g transform="translate(32866,32758)" text-rendering="geometricPrecision" stroke-width="44" stroke-linejoin="round" stroke-linecap="round"><line y2="-29654" y1="-30850" x2="-27534" x1="-27534" fill="none"/><line y2="-30850" y1="-31448" x2="-27534" x1="-28568" fill="none"/><line y2="-31341" y1="-30850" x2="-26681" x1="-27534" fill="none"/><line y2="-31130" y1="-30763" x2="-26704" x1="-27343" fill="none"/><line y2="-29654" y1="-29654" x2="-27534" x1="-25459" fill="none"/><line y2="-29824" y1="-29824" x2="-27274" x1="-25719" fill="none"/><line y2="-29056" y1="-29654" x2="-28568" x1="-27534" fill="none"/><line y2="-31448" y1="-30850" x2="-28568" x1="-29605" fill="none"/><line y2="-31226" y1="-30778" x2="-28614" x1="-29391" fill="none"/><line y2="-30960" y1="-31341" x2="-25647" x1="-26306" fill="none"/><line y2="-29654" y1="-30630" x2="-25459" x1="-25459" fill="none"/><line y2="-29654" y1="-29056" x2="-29605" x1="-28568" fill="none"/><line y2="-29726" y1="-29278" x2="-29391" x1="-28614" fill="none"/><line y2="-30850" y1="-29654" x2="-29605" x1="-29605" fill="none"/><line y2="-31376" y1="-30850" x2="-30512" x1="-29605" fill="none"/><line y2="-31266" y1="-30960" x2="-24740" x1="-25272" fill="none"/><line y2="-30960" y1="-31376" x2="-31231" x1="-30512" fill="none"/><line y2="-31208" y1="-30960" x2="-32037" x1="-31610" fill="none"/><line y2="-32202" y1="-31376" x2="-30584" x1="-30584" fill="none"/><line y2="-32202" y1="-31376" x2="-30443" x1="-30443" fill="none"/><text y="-30671" xml:space="preserve" x="-31572" stroke="none" font-size="433.3333" font-family="sans-serif">O</text><text y="-32242" xml:space="preserve" x="-30665" stroke="none" font-size="433.3333" font-family="sans-serif">O</text><text y="-31358" xml:space="preserve" x="-32762" stroke="none" font-size="433.3333" font-family="sans-serif">CH</text><text y="-31269" xml:space="preserve" x="-32185" stroke="none" font-size="313.3333" font-family="sans-serif">3</text><text y="-31197" xml:space="preserve" x="-24705" stroke="none" font-size="433.3333" font-family="sans-serif">CH</text><text y="-31107" xml:space="preserve" x="-24128" stroke="none" font-size="313.3333" font-family="sans-serif">3</text><text y="-31269" xml:space="preserve" x="-26647" stroke="none" font-size="433.3333" font-family="sans-serif">N</text><text y="-30671" xml:space="preserve" x="-25612" stroke="none" font-size="433.3333" font-family="sans-serif">N</text></g></g></svg>