<svg width="260.16" viewBox="0 0 8672 5387" text-rendering="auto" stroke-width="1" stroke-opacity="1" stroke-miterlimit="10" stroke-linejoin="miter" stroke-linecap="square" stroke-dashoffset="0" stroke-dasharray="none" stroke="black" shape-rendering="auto" image-rendering="auto" height="161.61" font-weight="normal" font-style="normal" font-size="12" font-family="'Dialog'" fill-opacity="1" fill="black" color-rendering="auto" color-interpolation="auto" xmlns="http://www.w3.org/2000/svg"><g><g stroke="white" fill="white"><rect y="0" x="0" width="8672" stroke="none" height="5387"/></g><g transform="translate(32866,32866)" text-rendering="geometricPrecision" stroke-width="44" stroke-linejoin="round" stroke-linecap="round"><line y2="-29593" y1="-30313" x2="-30125" x1="-29876" fill="none"/><line y2="-30677" y1="-31145" x2="-29989" x1="-30593" fill="none"/><line y2="-29374" y1="-29374" x2="-31448" x1="-30391" fill="none"/><line y2="-31150" y1="-30532" x2="-30968" x1="-31806" fill="none"/><line y2="-30532" y1="-29374" x2="-31806" x1="-31448" fill="none"/><line y2="-31055" y1="-30642" x2="-28894" x1="-29614" fill="none"/><line y2="-28331" y1="-29374" x2="-31341" x1="-31448" fill="none"/><line y2="-29157" y1="-29374" x2="-32474" x1="-31448" fill="none"/><line y2="-30108" y1="-30532" x2="-32762" x1="-31806" fill="none"/><line y2="-31439" y1="-30532" x2="-32329" x1="-31806" fill="none"/><line y2="-31055" y1="-30489" x2="-28894" x1="-27906" fill="none"/><line y2="-31133" y1="-30706" x2="-28683" x1="-27944" fill="none"/><line y2="-32193" y1="-31055" x2="-28894" x1="-28894" fill="none"/><line y2="-30489" y1="-30948" x2="-27906" x1="-27112" fill="none"/><line y2="-32762" y1="-32193" x2="-27906" x1="-28894" fill="none"/><line y2="-32543" y1="-32118" x2="-27944" x1="-28683" fill="none"/><line y2="-31275" y1="-32193" x2="-26924" x1="-26924" fill="none"/><line y2="-31390" y1="-32078" x2="-27092" x1="-27092" fill="none"/><line y2="-32193" y1="-32762" x2="-26924" x1="-27906" fill="none"/><line y2="-29660" y1="-30489" x2="-27906" x1="-27906" fill="none"/><line y2="-28900" y1="-29221" x2="-27008" x1="-27539" fill="none"/><line y2="-29316" y1="-28900" x2="-26288" x1="-27008" fill="none"/><line y2="-28886" y1="-29313" x2="-25205" x1="-25913" fill="none"/><line y2="-28074" y1="-28900" x2="-26938" x1="-26938" fill="none"/><line y2="-28074" y1="-28900" x2="-27080" x1="-27080" fill="none"/><line y2="-29408" y1="-28886" x2="-24298" x1="-25205" fill="none"/><line y2="-27970" y1="-28886" x2="-24697" x1="-25205" fill="none"/><line y2="-27987" y1="-28886" x2="-25745" x1="-25205" fill="none"/><text y="-29261" xml:space="preserve" x="-28059" stroke="none" font-size="433.3333" font-family="sans-serif">NH</text><text y="-29247" xml:space="preserve" x="-26254" stroke="none" font-size="433.3333" font-family="sans-serif">O</text><text y="-27675" xml:space="preserve" x="-27161" stroke="none" font-size="433.3333" font-family="sans-serif">O</text><text y="-30353" xml:space="preserve" x="-29952" stroke="none" font-size="433.3333" font-family="sans-serif">B</text><text y="-29195" xml:space="preserve" x="-30353" stroke="none" font-size="433.3333" font-family="sans-serif">O</text><text y="-31110" xml:space="preserve" x="-30934" stroke="none" font-size="433.3333" font-family="sans-serif">O</text><text y="-30876" xml:space="preserve" x="-27074" stroke="none" font-size="433.3333" font-family="sans-serif">N</text></g></g></svg>