<svg width="132.06" viewBox="0 0 4402 3801" text-rendering="auto" stroke-width="1" stroke-opacity="1" stroke-miterlimit="10" stroke-linejoin="miter" stroke-linecap="square" stroke-dashoffset="0" stroke-dasharray="none" stroke="black" shape-rendering="auto" image-rendering="auto" height="114.03" font-weight="normal" font-style="normal" font-size="12" font-family="'Dialog'" fill-opacity="1" fill="black" color-rendering="auto" color-interpolation="auto" xmlns="http://www.w3.org/2000/svg"><g><g stroke="white" fill="white"><rect y="0" x="0" width="4402" stroke="none" height="3801"/></g><g transform="translate(32866,32866)" text-rendering="geometricPrecision" stroke-width="44" stroke-linejoin="round" stroke-linecap="round"><line y2="-32193" y1="-31055" x2="-30706" x1="-30706" fill="none"/><line y2="-31055" y1="-30489" x2="-30706" x1="-29720" fill="none"/><line y2="-31133" y1="-30706" x2="-30498" x1="-29758" fill="none"/><line y2="-32762" y1="-32193" x2="-29720" x1="-30706" fill="none"/><line y2="-32543" y1="-32118" x2="-29758" x1="-30498" fill="none"/><line y2="-30489" y1="-31055" x2="-29720" x1="-28735" fill="none"/><line y2="-32303" y1="-32762" x2="-28923" x1="-29720" fill="none"/><line y2="-31055" y1="-31974" x2="-28735" x1="-28735" fill="none"/><line y2="-31171" y1="-31861" x2="-28906" x1="-28906" fill="none"/><line y2="-32719" y1="-32193" x2="-31613" x1="-30706" fill="none"/><line y2="-30642" y1="-31055" x2="-31425" x1="-30706" fill="none"/><line y2="-29660" y1="-30489" x2="-29720" x1="-29720" fill="none"/><line y2="-30888" y1="-30642" x2="-32231" x1="-31800" fill="none"/><line y2="-29703" y1="-30313" x2="-31613" x1="-31613" fill="none"/><text y="-30353" xml:space="preserve" x="-31766" stroke="none" font-size="433.3333" font-family="sans-serif">B</text><text y="-30928" xml:space="preserve" x="-32762" stroke="none" font-size="433.3333" font-family="sans-serif">OH</text><text y="-29304" xml:space="preserve" x="-31766" stroke="none" font-size="433.3333" font-family="sans-serif">OH</text><text y="-29261" xml:space="preserve" x="-29871" stroke="none" font-size="433.3333" font-family="sans-serif">F</text><text y="-32014" xml:space="preserve" x="-28888" stroke="none" font-size="433.3333" font-family="sans-serif">N</text></g></g></svg>