<svg width="160.14" viewBox="0 0 5338 3947" text-rendering="auto" stroke-width="1" stroke-opacity="1" stroke-miterlimit="10" stroke-linejoin="miter" stroke-linecap="square" stroke-dashoffset="0" stroke-dasharray="none" stroke="black" shape-rendering="auto" image-rendering="auto" height="118.41" font-weight="normal" font-style="normal" font-size="12" font-family="'Dialog'" fill-opacity="1" fill="black" color-rendering="auto" color-interpolation="auto" xmlns="http://www.w3.org/2000/svg"><g><g stroke="white" fill="white"><rect y="0" x="0" width="5338" stroke="none" height="3947"/></g><g transform="translate(32866,32758)" text-rendering="geometricPrecision" stroke-width="44" stroke-linejoin="round" stroke-linecap="round"><line y2="-31896" y1="-30758" x2="-30706" x1="-30706" fill="none"/><line y2="-30758" y1="-30191" x2="-30706" x1="-29718" fill="none"/><line y2="-30836" y1="-30408" x2="-30495" x1="-29755" fill="none"/><line y2="-32465" y1="-31896" x2="-29718" x1="-30706" fill="none"/><line y2="-32245" y1="-31821" x2="-29755" x1="-30495" fill="none"/><line y2="-30191" y1="-30758" x2="-29718" x1="-28735" fill="none"/><line y2="-32006" y1="-32465" x2="-28923" x1="-29718" fill="none"/><line y2="-30758" y1="-31676" x2="-28735" x1="-28735" fill="none"/><line y2="-30873" y1="-31564" x2="-28906" x1="-28906" fill="none"/><line y2="-30344" y1="-30758" x2="-31425" x1="-30706" fill="none"/><line y2="-32222" y1="-31896" x2="-31272" x1="-30706" fill="none"/><line y2="-30431" y1="-30758" x2="-28166" x1="-28735" fill="none"/><line y2="-30590" y1="-30344" x2="-32231" x1="-31800" fill="none"/><line y2="-29406" y1="-30015" x2="-31613" x1="-31613" fill="none"/><text y="-30056" xml:space="preserve" x="-31763" stroke="none" font-size="433.3333" font-family="sans-serif">B</text><text y="-30630" xml:space="preserve" x="-32762" stroke="none" font-size="433.3333" font-family="sans-serif">OH</text><text y="-29007" xml:space="preserve" x="-31763" stroke="none" font-size="433.3333" font-family="sans-serif">OH</text><text y="-32242" xml:space="preserve" x="-31844" stroke="none" font-size="433.3333" font-family="sans-serif">Cl</text><text y="-30056" xml:space="preserve" x="-28059" stroke="none" font-size="433.3333" font-family="sans-serif">Br</text><text y="-31717" xml:space="preserve" x="-28886" stroke="none" font-size="433.3333" font-family="sans-serif">N</text></g></g></svg>