<svg width="294.99" viewBox="0 0 9833 4829" text-rendering="auto" stroke-width="1" stroke-opacity="1" stroke-miterlimit="10" stroke-linejoin="miter" stroke-linecap="square" stroke-dashoffset="0" stroke-dasharray="none" stroke="black" shape-rendering="auto" image-rendering="auto" height="144.87" font-weight="normal" font-style="normal" font-size="12" font-family="'Dialog'" fill-opacity="1" fill="black" color-rendering="auto" color-interpolation="auto" xmlns="http://www.w3.org/2000/svg"><g><g stroke="white" fill="white"><rect y="0" x="0" width="9833" stroke="none" height="4829"/></g><g transform="translate(32866,32758)" text-rendering="geometricPrecision" stroke-width="44" stroke-linejoin="round" stroke-linecap="round"><line y2="-29296" y1="-30015" x2="-30125" x1="-29876" fill="none"/><line y2="-30379" y1="-30847" x2="-29986" x1="-30593" fill="none"/><line y2="-29076" y1="-29076" x2="-31448" x1="-30388" fill="none"/><line y2="-30853" y1="-30235" x2="-30968" x1="-31803" fill="none"/><line y2="-30235" y1="-29076" x2="-31803" x1="-31448" fill="none"/><line y2="-30758" y1="-30344" x2="-28891" x1="-29611" fill="none"/><line y2="-28033" y1="-29076" x2="-31338" x1="-31448" fill="none"/><line y2="-28860" y1="-29076" x2="-32474" x1="-31448" fill="none"/><line y2="-29810" y1="-30235" x2="-32762" x1="-31803" fill="none"/><line y2="-31142" y1="-30235" x2="-32329" x1="-31803" fill="none"/><line y2="-31896" y1="-30758" x2="-28891" x1="-28891" fill="none"/><line y2="-30758" y1="-30191" x2="-28891" x1="-27906" fill="none"/><line y2="-30836" y1="-30408" x2="-28683" x1="-27944" fill="none"/><line y2="-32465" y1="-31896" x2="-27906" x1="-28891" fill="none"/><line y2="-32245" y1="-31821" x2="-27944" x1="-28683" fill="none"/><line y2="-30191" y1="-30651" x2="-27906" x1="-27109" fill="none"/><line y2="-31896" y1="-32465" x2="-26921" x1="-27906" fill="none"/><line y2="-30977" y1="-31896" x2="-26921" x1="-26921" fill="none"/><line y2="-31093" y1="-31780" x2="-27092" x1="-27092" fill="none"/><line y2="-32312" y1="-31896" x2="-26202" x1="-26921" fill="none"/><line y2="-31896" y1="-32202" x2="-25107" x1="-25636" fill="none"/><line y2="-31896" y1="-30758" x2="-25107" x1="-25107" fill="none"/><line y2="-32465" y1="-31896" x2="-24119" x1="-25107" fill="none"/><line y2="-30758" y1="-30191" x2="-25107" x1="-24119" fill="none"/><line y2="-31896" y1="-32465" x2="-23137" x1="-24119" fill="none"/><line y2="-30191" y1="-30758" x2="-24119" x1="-23137" fill="none"/><line y2="-30758" y1="-31896" x2="-23137" x1="-23137" fill="none"/><text y="-32242" xml:space="preserve" x="-26167" stroke="none" font-size="433.3333" font-family="sans-serif">NH</text><text y="-30056" xml:space="preserve" x="-29952" stroke="none" font-size="433.3333" font-family="sans-serif">B</text><text y="-28897" xml:space="preserve" x="-30353" stroke="none" font-size="433.3333" font-family="sans-serif">O</text><text y="-30812" xml:space="preserve" x="-30931" stroke="none" font-size="433.3333" font-family="sans-serif">O</text><text y="-30578" xml:space="preserve" x="-27074" stroke="none" font-size="433.3333" font-family="sans-serif">N</text></g></g></svg>