<svg width="345.6" viewBox="0 0 11520 4645" text-rendering="auto" stroke-width="1" stroke-opacity="1" stroke-miterlimit="10" stroke-linejoin="miter" stroke-linecap="square" stroke-dashoffset="0" stroke-dasharray="none" stroke="black" shape-rendering="auto" image-rendering="auto" height="139.35" font-weight="normal" font-style="normal" font-size="12" font-family="'Dialog'" fill-opacity="1" fill="black" color-rendering="auto" color-interpolation="auto" xmlns="http://www.w3.org/2000/svg"><g><g stroke="white" fill="white"><rect y="0" x="0" width="11520" stroke="none" height="4645"/></g><g transform="translate(32866,32866)" text-rendering="geometricPrecision" stroke-width="44" stroke-linejoin="round" stroke-linecap="round"><line y2="-30599" y1="-30030" x2="-27903" x1="-28891" fill="none"/><line y2="-30379" y1="-29954" x2="-27941" x1="-28680" fill="none"/><line y2="-30030" y1="-28894" x2="-28891" x1="-28891" fill="none"/><line y2="-30030" y1="-30599" x2="-26921" x1="-27903" fill="none"/><line y2="-28894" y1="-28325" x2="-28891" x1="-27903" fill="none"/><line y2="-28969" y1="-28542" x2="-28680" x1="-27941" fill="none"/><line y2="-28894" y1="-30030" x2="-26921" x1="-26921" fill="none"/><line y2="-29036" y1="-29888" x2="-27089" x1="-27089" fill="none"/><line y2="-28325" y1="-28894" x2="-27903" x1="-26921" fill="none"/><line y2="-30555" y1="-30030" x2="-26014" x1="-26921" fill="none"/><line y2="-30446" y1="-30030" x2="-29608" x1="-28891" fill="none"/><line y2="-30139" y1="-30555" x2="-25295" x1="-26014" fill="none"/><line y2="-30555" y1="-30249" x2="-24197" x1="-24726" fill="none"/><line y2="-30030" y1="-30555" x2="-23290" x1="-24197" fill="none"/><line y2="-31382" y1="-30555" x2="-26083" x1="-26083" fill="none"/><line y2="-31382" y1="-30555" x2="-25942" x1="-25942" fill="none"/><line y2="-30775" y1="-31503" x2="-29865" x1="-30090" fill="none"/><line y2="-29928" y1="-30417" x2="-30645" x1="-29986" fill="none"/><line y2="-31722" y1="-31722" x2="-30344" x1="-31416" fill="none"/><line y2="-30555" y1="-29934" x2="-31821" x1="-31020" fill="none"/><line y2="-31722" y1="-30555" x2="-31416" x1="-31821" fill="none"/><line y2="-32762" y1="-31722" x2="-31289" x1="-31416" fill="none"/><line y2="-31977" y1="-31722" x2="-32433" x1="-31416" fill="none"/><line y2="-31015" y1="-30555" x2="-32762" x1="-31821" fill="none"/><line y2="-29666" y1="-30555" x2="-32375" x1="-31821" fill="none"/><line y2="-30030" y1="-28966" x2="-23290" x1="-22963" fill="none"/><line y2="-30587" y1="-30030" x2="-22536" x1="-23290" fill="none"/><line y2="-28966" y1="-28966" x2="-22963" x1="-21816" fill="none"/><line y2="-30030" y1="-30581" x2="-21450" x1="-22160" fill="none"/><line y2="-28966" y1="-30030" x2="-21816" x1="-21450" fill="none"/><text y="-29850" xml:space="preserve" x="-25257" stroke="none" font-size="433.3333" font-family="sans-serif">NH</text><text y="-31422" xml:space="preserve" x="-26164" stroke="none" font-size="433.3333" font-family="sans-serif">O</text><text y="-30376" xml:space="preserve" x="-29949" stroke="none" font-size="433.3333" font-family="sans-serif">B</text><text y="-31543" xml:space="preserve" x="-30310" stroke="none" font-size="433.3333" font-family="sans-serif">O</text><text y="-29611" xml:space="preserve" x="-30986" stroke="none" font-size="433.3333" font-family="sans-serif">O</text><text y="-30547" xml:space="preserve" x="-22501" stroke="none" font-size="433.3333" font-family="sans-serif">O</text></g></g></svg>