<svg width="185.97" viewBox="0 0 6199 5289" text-rendering="auto" stroke-width="1" stroke-opacity="1" stroke-miterlimit="10" stroke-linejoin="miter" stroke-linecap="square" stroke-dashoffset="0" stroke-dasharray="none" stroke="black" shape-rendering="auto" image-rendering="auto" height="158.67" font-weight="normal" font-style="normal" font-size="12" font-family="'Dialog'" fill-opacity="1" fill="black" color-rendering="auto" color-interpolation="auto" xmlns="http://www.w3.org/2000/svg"><g><g stroke="white" fill="white"><rect y="0" x="0" width="6199" stroke="none" height="5289"/></g><g transform="translate(32866,32866)" text-rendering="geometricPrecision" stroke-width="44" stroke-linejoin="round" stroke-linecap="round"><line y2="-30489" y1="-31055" x2="-31627" x1="-30639" fill="none"/><line y2="-30706" y1="-31133" x2="-31590" x1="-30850" fill="none"/><line y2="-31055" y1="-32193" x2="-30639" x1="-30639" fill="none"/><line y2="-30948" y1="-30489" x2="-32422" x1="-31627" fill="none"/><line y2="-32193" y1="-32762" x2="-30639" x1="-31627" fill="none"/><line y2="-32118" y1="-32543" x2="-30850" x1="-31590" fill="none"/><line y2="-32193" y1="-31275" x2="-32609" x1="-32609" fill="none"/><line y2="-32078" y1="-31390" x2="-32439" x1="-32439" fill="none"/><line y2="-32762" y1="-32193" x2="-31627" x1="-32609" fill="none"/><line y2="-30642" y1="-31055" x2="-29920" x1="-30639" fill="none"/><line y2="-29660" y1="-30489" x2="-31627" x1="-31627" fill="none"/><line y2="-30313" y1="-29585" x2="-29666" x1="-29440" fill="none"/><line y2="-31156" y1="-30671" x2="-28888" x1="-29544" fill="none"/><line y2="-29365" y1="-29365" x2="-29186" x1="-28117" fill="none"/><line y2="-30532" y1="-31150" x2="-27716" x1="-28513" fill="none"/><line y2="-29365" y1="-30532" x2="-28117" x1="-27716" fill="none"/><line y2="-28328" y1="-29365" x2="-28244" x1="-28117" fill="none"/><line y2="-29114" y1="-29365" x2="-27100" x1="-28117" fill="none"/><line y2="-30073" y1="-30532" x2="-26771" x1="-27716" fill="none"/><line y2="-31422" y1="-30532" x2="-27158" x1="-27716" fill="none"/><line y2="-28744" y1="-29296" x2="-30726" x1="-31439" fill="none"/><line y2="-29302" y1="-28744" x2="-31815" x1="-32569" fill="none"/><line y2="-27681" y1="-28744" x2="-31096" x1="-30726" fill="none"/><line y2="-28744" y1="-27681" x2="-32569" x1="-32242" fill="none"/><line y2="-27681" y1="-27681" x2="-32242" x1="-31096" fill="none"/><text y="-30876" xml:space="preserve" x="-32762" stroke="none" font-size="433.3333" font-family="sans-serif">N</text><text y="-30353" xml:space="preserve" x="-29885" stroke="none" font-size="433.3333" font-family="sans-serif">B</text><text y="-29186" xml:space="preserve" x="-29527" stroke="none" font-size="433.3333" font-family="sans-serif">O</text><text y="-31116" xml:space="preserve" x="-28854" stroke="none" font-size="433.3333" font-family="sans-serif">O</text><text y="-29261" xml:space="preserve" x="-31780" stroke="none" font-size="433.3333" font-family="sans-serif">N</text></g></g></svg>