<svg width="293.61" viewBox="0 0 9787 6140" text-rendering="auto" stroke-width="1" stroke-opacity="1" stroke-miterlimit="10" stroke-linejoin="miter" stroke-linecap="square" stroke-dashoffset="0" stroke-dasharray="none" stroke="black" shape-rendering="auto" image-rendering="auto" height="184.2" font-weight="normal" font-style="normal" font-size="12" font-family="'Dialog'" fill-opacity="1" fill="black" color-rendering="auto" color-interpolation="auto" xmlns="http://www.w3.org/2000/svg"><g><g stroke="white" fill="white"><rect y="0" x="0" width="9787" stroke="none" height="6140"/></g><g transform="translate(32866,32758)" text-rendering="geometricPrecision" stroke-width="44" stroke-linejoin="round" stroke-linecap="round"><line y2="-28568" y1="-29703" x2="-27164" x1="-27164" fill="none"/><line y2="-29703" y1="-30272" x2="-27164" x1="-28149" fill="none"/><line y2="-27999" y1="-28568" x2="-28149" x1="-27164" fill="none"/><line y2="-30272" y1="-29703" x2="-28149" x1="-29134" fill="none"/><line y2="-28458" y1="-27999" x2="-28943" x1="-28149" fill="none"/><line y2="-29703" y1="-28784" x2="-29134" x1="-29134" fill="none"/><line y2="-30229" y1="-29703" x2="-26257" x1="-27164" fill="none"/><line y2="-28042" y1="-28458" x2="-30041" x1="-29322" fill="none"/><line y2="-31899" y1="-29703" x2="-27164" x1="-27164" fill="none"/><line y2="-31364" y1="-30229" x2="-26257" x1="-26257" fill="none"/><line y2="-31223" y1="-30370" x2="-26086" x1="-26086" fill="none"/><line y2="-30229" y1="-29660" x2="-26257" x1="-25269" fill="none"/><line y2="-31933" y1="-31364" x2="-25269" x1="-26257" fill="none"/><line y2="-29660" y1="-30229" x2="-25269" x1="-24286" fill="none"/><line y2="-29876" y1="-30304" x2="-25231" x1="-24492" fill="none"/><line y2="-31364" y1="-31933" x2="-24286" x1="-25269" fill="none"/><line y2="-31289" y1="-31717" x2="-24492" x1="-25231" fill="none"/><line y2="-30229" y1="-31364" x2="-24286" x1="-24286" fill="none"/><line y2="-31694" y1="-31364" x2="-23717" x1="-24286" fill="none"/><line y2="-28458" y1="-28042" x2="-30760" x1="-30041" fill="none"/><line y2="-28042" y1="-28458" x2="-31855" x1="-31136" fill="none"/><line y2="-27213" y1="-28042" x2="-29969" x1="-29969" fill="none"/><line y2="-27213" y1="-28042" x2="-30110" x1="-30110" fill="none"/><line y2="-32315" y1="-31899" x2="-26444" x1="-27164" fill="none"/><line y2="-32254" y1="-31838" x2="-27915" x1="-27198" fill="none"/><line y2="-32375" y1="-31959" x2="-27846" x1="-27126" fill="none"/><line y2="-28568" y1="-28042" x2="-32762" x1="-31855" fill="none"/><line y2="-27135" y1="-28042" x2="-32378" x1="-31855" fill="none"/><line y2="-27135" y1="-28042" x2="-31330" x1="-31855" fill="none"/><text y="-32242" xml:space="preserve" x="-26410" stroke="none" font-size="433.3333" font-family="sans-serif">OH</text><text y="-32242" xml:space="preserve" x="-28221" stroke="none" font-size="433.3333" font-family="sans-serif">O</text><text y="-28389" xml:space="preserve" x="-31098" stroke="none" font-size="433.3333" font-family="sans-serif">O</text><text y="-26814" xml:space="preserve" x="-30191" stroke="none" font-size="433.3333" font-family="sans-serif">O</text><text y="-31711" xml:space="preserve" x="-23610" stroke="none" font-size="433.3333" font-family="sans-serif">Br</text><text y="-28389" xml:space="preserve" x="-29284" stroke="none" font-size="433.3333" font-family="sans-serif">N</text></g></g></svg>