<svg width="227.49" viewBox="0 0 7583 3012" text-rendering="auto" stroke-width="1" stroke-opacity="1" stroke-miterlimit="10" stroke-linejoin="miter" stroke-linecap="square" stroke-dashoffset="0" stroke-dasharray="none" stroke="black" shape-rendering="auto" image-rendering="auto" height="90.36" font-weight="normal" font-style="normal" font-size="12" font-family="'Dialog'" fill-opacity="1" fill="black" color-rendering="auto" color-interpolation="auto" xmlns="http://www.w3.org/2000/svg"><g><g stroke="white" fill="white"><rect y="0" x="0" width="7583" stroke="none" height="3012"/></g><g transform="translate(32866,32866)" text-rendering="geometricPrecision" stroke-width="44" stroke-linejoin="round" stroke-linecap="round"><line y2="-31275" y1="-31971" x2="-29926" x1="-30824" fill="none"/><line y2="-30212" y1="-31275" x2="-30292" x1="-29926" fill="none"/><line y2="-31971" y1="-31275" x2="-30824" x1="-31766" fill="none"/><line y2="-30212" y1="-30212" x2="-31439" x1="-30292" fill="none"/><line y2="-31275" y1="-30212" x2="-31766" x1="-31439" fill="none"/><line y2="-31194" y1="-30396" x2="-31564" x1="-31318" fill="none"/><line y2="-31800" y1="-31275" x2="-29018" x1="-29926" fill="none"/><line y2="-31275" y1="-31800" x2="-28111" x1="-29018" fill="none"/><line y2="-31223" y1="-31616" x2="-28293" x1="-28972" fill="none"/><line y2="-31800" y1="-31275" x2="-27204" x1="-28111" fill="none"/><line y2="-32762" y1="-31971" x2="-31512" x1="-30824" fill="none"/><line y2="-32739" y1="-31971" x2="-30110" x1="-30824" fill="none"/><line y2="-31601" y1="-31275" x2="-32762" x1="-31766" fill="none"/><line y2="-31275" y1="-31800" x2="-26294" x1="-27204" fill="none"/><line y2="-32708" y1="-31800" x2="-26678" x1="-27204" fill="none"/><line y2="-32708" y1="-31800" x2="-27727" x1="-27204" fill="none"/><line y2="-31800" y1="-31275" x2="-25387" x1="-26294" fill="none"/><line y2="-30448" y1="-31275" x2="-26294" x1="-26294" fill="none"/><text y="-30050" xml:space="preserve" x="-26447" stroke="none" font-size="433.3333" font-family="sans-serif">OH</text></g></g></svg>