<svg width="654.45" viewBox="0 0 21815 10902" text-rendering="auto" stroke-width="1" stroke-opacity="1" stroke-miterlimit="10" stroke-linejoin="miter" stroke-linecap="square" stroke-dashoffset="0" stroke-dasharray="none" stroke="black" shape-rendering="auto" image-rendering="auto" height="327.06" font-weight="normal" font-style="normal" font-size="12" font-family="'Dialog'" fill-opacity="1" fill="black" color-rendering="auto" color-interpolation="auto" xmlns="http://www.w3.org/2000/svg"><g><g stroke="white" fill="white"><rect y="0" x="0" width="21815" stroke="none" height="10902"/></g><g transform="translate(32866,32866)" text-rendering="geometricPrecision" stroke-width="44" stroke-linejoin="round" stroke-linecap="round"><line y2="-28438" y1="-27155" x2="-27638" x1="-28920" fill="none"/><line y2="-28438" y1="-28438" x2="-25829" x1="-27638" fill="none"/><line y2="-27155" y1="-25347" x2="-28920" x1="-28920" fill="none"/><line y2="-27155" y1="-28438" x2="-24549" x1="-25829" fill="none"/><line y2="-25347" y1="-24064" x2="-28920" x1="-27638" fill="none"/><line y2="-28059" y1="-27155" x2="-22986" x1="-24549" fill="none"/><line y2="-24064" y1="-24064" x2="-27638" x1="-25829" fill="none"/><line y2="-27155" y1="-28059" x2="-21415" x1="-22986" fill="none"/><line y2="-24064" y1="-25347" x2="-25829" x1="-24549" fill="none"/><line y2="-27952" y1="-27155" x2="-20037" x1="-21415" fill="none"/><line y2="-25347" y1="-24442" x2="-24549" x1="-22986" fill="none"/><line y2="-25381" y1="-24702" x2="-24269" x1="-23096" fill="none"/><line y2="-27155" y1="-27952" x2="-18286" x1="-19661" fill="none"/><line y2="-24442" y1="-25347" x2="-22986" x1="-21415" fill="none"/><line y2="-25347" y1="-27155" x2="-18286" x1="-18286" fill="none"/><line y2="-25347" y1="-24442" x2="-21415" x1="-19849" fill="none"/><line y2="-25381" y1="-24702" x2="-21135" x1="-19959" fill="none"/><line y2="-24442" y1="-25347" x2="-19849" x1="-18286" fill="none"/><line y2="-30009" y1="-29593" x2="-28545" x1="-27825" fill="none"/><line y2="-25237" y1="-24824" x2="-16660" x1="-17379" fill="none"/><line y2="-27141" y1="-27678" x2="-30726" x1="-29827" fill="none"/><line y2="-26312" y1="-27141" x2="-30726" x1="-30726" fill="none"/><line y2="-27155" y1="-27678" x2="-16472" x1="-17379" fill="none"/><line y2="-26395" y1="-25347" x2="-21415" x1="-21415" fill="none"/><line y2="-23339" y1="-24090" x2="-25462" x1="-25766" fill="none"/><line y2="-23287" y1="-24038" x2="-25589" x1="-25893" fill="none"/><line y2="-27984" y1="-27196" x2="-21484" x1="-21484" fill="none"/><line y2="-27984" y1="-27198" x2="-21346" x1="-21346" fill="none"/><line y2="-29440" y1="-30009" x2="-29530" x1="-28545" fill="none"/><line y2="-30009" y1="-30928" x2="-28545" x1="-28545" fill="none"/><line y2="-30009" y1="-29440" x2="-30515" x1="-29530" fill="none"/><line y2="-31254" y1="-31714" x2="-28732" x1="-29530" fill="none"/><line y2="-31145" y1="-30009" x2="-30515" x1="-30515" fill="none"/><line y2="-31714" y1="-31145" x2="-29530" x1="-30515" fill="none"/><line y2="-25390" y1="-24824" x2="-14580" x1="-15565" fill="none"/><line y2="-24824" y1="-23905" x2="-15565" x1="-15565" fill="none"/><line y2="-24824" y1="-25390" x2="-13595" x1="-14580" fill="none"/><line y2="-23576" y1="-23116" x2="-15377" x1="-14580" fill="none"/><line y2="-23686" y1="-24824" x2="-13595" x1="-13595" fill="none"/><line y2="-23116" y1="-23686" x2="-14580" x1="-13595" fill="none"/><line y2="-26855" y1="-26548" x2="-13863" x1="-14392" fill="none"/><line y2="-24931" y1="-25237" x2="-11968" x1="-12500" fill="none"/><line y2="-25526" y1="-25985" x2="-29741" x1="-30535" fill="none"/><line y2="-25985" y1="-25526" x2="-30914" x1="-31708" fill="none"/><line y2="-24388" y1="-25526" x2="-29741" x1="-29741" fill="none"/><line y2="-25526" y1="-24388" x2="-31708" x1="-31711" fill="none"/><line y2="-23818" y1="-24388" x2="-30723" x1="-29741" fill="none"/><line y2="-24388" y1="-23818" x2="-31711" x1="-30723" fill="none"/><line y2="-29842" y1="-29593" x2="-32040" x1="-31610" fill="none"/><line y2="-28657" y1="-29264" x2="-31422" x1="-31422" fill="none"/><polygon stroke-width="1" stroke="none" points=" -18286 -25347 -17344 -24882 -17411 -24760"/><polygon stroke-width="1" points=" -18286 -25347 -17344 -24882 -17411 -24760" fill="none"/><polygon stroke-width="1" stroke="none" points=" -16316 -25176 -15565 -24824 -16250 -25298"/><polygon stroke-width="1" points=" -16316 -25176 -15565 -24824 -16250 -25298" fill="none"/><polygon stroke-width="1" stroke="none" points=" -25829 -28438 -25482 -29429 -25355 -29374"/><polygon stroke-width="1" points=" -25829 -28438 -25482 -29429 -25355 -29374" fill="none"/><polygon stroke-width="1" stroke="none" points=" -24549 -27155 -24593 -26346 -24731 -26361"/><polygon stroke-width="1" points=" -24549 -27155 -24593 -26346 -24731 -26361" fill="none"/><polygon stroke-width="1" stroke="none" points=" -29530 -31714 -29599 -32762 -29460 -32762"/><polygon stroke-width="1" points=" -29530 -31714 -29599 -32762 -29460 -32762" fill="none"/><polygon stroke-width="1" stroke="none" points=" -30515 -30009 -31200 -29533 -31269 -29651"/><polygon stroke-width="1" points=" -30515 -30009 -31200 -29533 -31269 -29651" fill="none"/><polygon stroke-width="1" stroke="none" points=" -14580 -23116 -14513 -22068 -14649 -22068"/><polygon stroke-width="1" points=" -14580 -23116 -14513 -22068 -14649 -22068" fill="none"/><polygon stroke-width="1" stroke="none" points=" -29741 -24388 -28796 -23922 -28865 -23801"/><polygon stroke-width="1" points=" -29741 -24388 -28796 -23922 -28865 -23801" fill="none"/><polygon stroke-width="1" stroke="none" points=" -31711 -24388 -32580 -23804 -32650 -23922"/><polygon stroke-width="1" points=" -31711 -24388 -32580 -23804 -32650 -23922" fill="none"/><line y2="-29264" y1="-29264" x2="-27568" x1="-27707" fill="none"/><line y2="-29047" y1="-29047" x2="-27586" x1="-27689" fill="none"/><line y2="-28831" y1="-28831" x2="-27605" x1="-27671" fill="none"/><line y2="-28614" y1="-28614" x2="-27623" x1="-27653" fill="none"/><line y2="-27739" y1="-27620" x2="-29793" x1="-29862" fill="none"/><line y2="-27618" y1="-27524" x2="-29613" x1="-29667" fill="none"/><line y2="-27498" y1="-27428" x2="-29432" x1="-29473" fill="none"/><line y2="-27377" y1="-27332" x2="-29252" x1="-29278" fill="none"/><line y2="-27256" y1="-27236" x2="-29071" x1="-29083" fill="none"/><line y2="-27620" y1="-27739" x2="-17344" x1="-17414" fill="none"/><line y2="-27524" y1="-27618" x2="-17539" x1="-17594" fill="none"/><line y2="-27428" y1="-27497" x2="-17734" x1="-17775" fill="none"/><line y2="-27332" y1="-27377" x2="-17928" x1="-17955" fill="none"/><line y2="-27235" y1="-27256" x2="-18123" x1="-18135" fill="none"/><line y2="-23125" y1="-23073" x2="-28111" x1="-27984" fill="none"/><line y2="-23319" y1="-23278" x2="-28013" x1="-27912" fill="none"/><line y2="-23513" y1="-23483" x2="-27915" x1="-27841" fill="none"/><line y2="-23707" y1="-23687" x2="-27818" x1="-27769" fill="none"/><line y2="-23901" y1="-23892" x2="-27720" x1="-27698" fill="none"/><line y2="-28611" y1="-28611" x2="-29599" x1="-29460" fill="none"/><line y2="-28828" y1="-28828" x2="-29581" x1="-29478" fill="none"/><line y2="-29044" y1="-29044" x2="-29563" x1="-29497" fill="none"/><line y2="-29261" y1="-29261" x2="-29545" x1="-29515" fill="none"/><line y2="-31509" y1="-31390" x2="-31009" x1="-31078" fill="none"/><line y2="-31380" y1="-31303" x2="-30834" x1="-30878" fill="none"/><line y2="-31250" y1="-31216" x2="-30658" x1="-30678" fill="none"/><line y2="-29180" y1="-29180" x2="-28614" x1="-28475" fill="none"/><line y2="-29397" y1="-29397" x2="-28596" x1="-28493" fill="none"/><line y2="-29613" y1="-29613" x2="-28578" x1="-28512" fill="none"/><line y2="-29830" y1="-29830" x2="-28560" x1="-28530" fill="none"/><line y2="-26219" y1="-26219" x2="-14513" x1="-14649" fill="none"/><line y2="-26002" y1="-26002" x2="-14531" x1="-14631" fill="none"/><line y2="-25786" y1="-25786" x2="-14548" x1="-14613" fill="none"/><line y2="-25569" y1="-25569" x2="-14566" x1="-14595" fill="none"/><line y2="-25179" y1="-25298" x2="-12841" x1="-12910" fill="none"/><line y2="-25086" y1="-25174" x2="-13038" x1="-13089" fill="none"/><line y2="-24994" y1="-25051" x2="-13234" x1="-13267" fill="none"/><line y2="-24901" y1="-24927" x2="-13431" x1="-13446" fill="none"/><line y2="-23209" y1="-23330" x2="-12907" x1="-12841" fill="none"/><line y2="-23333" y1="-23423" x2="-13086" x1="-13037" fill="none"/><line y2="-23457" y1="-23515" x2="-13265" x1="-13233" fill="none"/><line y2="-23581" y1="-23608" x2="-13444" x1="-13430" fill="none"/><text y="-29304" xml:space="preserve" x="-27791" stroke="none" font-size="433.3333" font-family="sans-serif">O</text><text y="-25956" xml:space="preserve" x="-24847" stroke="none" font-size="433.3333" font-family="sans-serif">OH</text><text y="-28212" xml:space="preserve" x="-29680" stroke="none" font-size="433.3333" font-family="sans-serif">OH</text><text y="-22914" xml:space="preserve" x="-25589" stroke="none" font-size="433.3333" font-family="sans-serif">O</text><text y="-29304" xml:space="preserve" x="-31575" stroke="none" font-size="433.3333" font-family="sans-serif">N</text><text y="-29992" xml:space="preserve" x="-32762" stroke="none" font-size="433.3333" font-family="sans-serif">CH</text><text y="-29902" xml:space="preserve" x="-32185" stroke="none" font-size="313.3333" font-family="sans-serif">3</text><text y="-28259" xml:space="preserve" x="-31575" stroke="none" font-size="433.3333" font-family="sans-serif">CH</text><text y="-28169" xml:space="preserve" x="-30997" stroke="none" font-size="313.3333" font-family="sans-serif">3</text><text y="-28025" xml:space="preserve" x="-21565" stroke="none" font-size="433.3333" font-family="sans-serif">O</text><text y="-31491" xml:space="preserve" x="-31575" stroke="none" font-size="433.3333" font-family="sans-serif">OH</text><text y="-25168" xml:space="preserve" x="-16625" stroke="none" font-size="433.3333" font-family="sans-serif">O</text><text y="-26260" xml:space="preserve" x="-14733" stroke="none" font-size="433.3333" font-family="sans-serif">O</text><text y="-26782" xml:space="preserve" x="-13826" stroke="none" font-size="433.3333" font-family="sans-serif">CH</text><text y="-26693" xml:space="preserve" x="-13248" stroke="none" font-size="313.3333" font-family="sans-serif">3</text><text y="-25168" xml:space="preserve" x="-12841" stroke="none" font-size="433.3333" font-family="sans-serif">O</text><text y="-24645" xml:space="preserve" x="-11931" stroke="none" font-size="433.3333" font-family="sans-serif">CH</text><text y="-24555" xml:space="preserve" x="-11353" stroke="none" font-size="313.3333" font-family="sans-serif">3</text><text y="-22984" xml:space="preserve" x="-12841" stroke="none" font-size="433.3333" font-family="sans-serif">OH</text><text y="-27880" xml:space="preserve" x="-20002" stroke="none" font-size="433.3333" font-family="sans-serif">O</text><text y="-30966" xml:space="preserve" x="-28698" stroke="none" font-size="433.3333" font-family="sans-serif">O</text><text y="-25913" xml:space="preserve" x="-30876" stroke="none" font-size="433.3333" font-family="sans-serif">N</text><text y="-23506" xml:space="preserve" x="-15718" stroke="none" font-size="433.3333" font-family="sans-serif">O</text><text y="-28782" xml:space="preserve" x="-28698" stroke="none" font-size="433.3333" font-family="sans-serif">H</text><text y="-25191" xml:space="preserve" x="-23645" stroke="none" font-style="italic" font-size="313.3333" font-family="sans-serif">E</text><text y="-25191" xml:space="preserve" x="-20511" stroke="none" font-style="italic" font-size="313.3333" font-family="sans-serif">E</text><text y="-27999" xml:space="preserve" x="-27669" stroke="none" font-style="italic" font-size="313.3333" font-family="sans-serif">S</text><text y="-26878" xml:space="preserve" x="-28802" stroke="none" font-style="italic" font-size="313.3333" font-family="sans-serif">R</text><text y="-27990" xml:space="preserve" x="-26080" stroke="none" font-style="italic" font-size="313.3333" font-family="sans-serif">S</text><text y="-27279" xml:space="preserve" x="-24694" stroke="none" font-style="italic" font-size="313.3333" font-family="sans-serif">R</text><text y="-24156" xml:space="preserve" x="-27692" stroke="none" font-style="italic" font-size="313.3333" font-family="sans-serif">R</text><text y="-26834" xml:space="preserve" x="-18688" stroke="none" font-style="italic" font-size="313.3333" font-family="sans-serif">R</text><text y="-25312" xml:space="preserve" x="-18688" stroke="none" font-style="italic" font-size="313.3333" font-family="sans-serif">R</text><text y="-29972" xml:space="preserve" x="-28946" stroke="none" font-style="italic" font-size="313.3333" font-family="sans-serif">R</text><text y="-29562" xml:space="preserve" x="-29680" stroke="none" font-style="italic" font-size="313.3333" font-family="sans-serif">R</text><text y="-29972" xml:space="preserve" x="-30420" stroke="none" font-style="italic" font-size="313.3333" font-family="sans-serif">S</text><text y="-31234" xml:space="preserve" x="-29680" stroke="none" font-style="italic" font-size="313.3333" font-family="sans-serif">R</text><text y="-30824" xml:space="preserve" x="-30420" stroke="none" font-style="italic" font-size="313.3333" font-family="sans-serif">S</text><text y="-24350" xml:space="preserve" x="-30139" stroke="none" font-style="italic" font-size="313.3333" font-family="sans-serif">S</text><text y="-24353" xml:space="preserve" x="-31613" stroke="none" font-style="italic" font-size="313.3333" font-family="sans-serif">R</text><text y="-24500" xml:space="preserve" x="-15470" stroke="none" font-style="italic" font-size="313.3333" font-family="sans-serif">R</text><text y="-24910" xml:space="preserve" x="-14733" stroke="none" font-style="italic" font-size="313.3333" font-family="sans-serif">R</text><text y="-24500" xml:space="preserve" x="-13996" stroke="none" font-style="italic" font-size="313.3333" font-family="sans-serif">R</text><text y="-23241" xml:space="preserve" x="-14733" stroke="none" font-style="italic" font-size="313.3333" font-family="sans-serif">R</text><text y="-23651" xml:space="preserve" x="-13996" stroke="none" font-style="italic" font-size="313.3333" font-family="sans-serif">R</text></g></g></svg>