<svg width="260.52" viewBox="0 0 8684 5424" text-rendering="auto" stroke-width="1" stroke-opacity="1" stroke-miterlimit="10" stroke-linejoin="miter" stroke-linecap="square" stroke-dashoffset="0" stroke-dasharray="none" stroke="black" shape-rendering="auto" image-rendering="auto" height="162.72" font-weight="normal" font-style="normal" font-size="12" font-family="'Dialog'" fill-opacity="1" fill="black" color-rendering="auto" color-interpolation="auto" xmlns="http://www.w3.org/2000/svg"><g><g stroke="white" fill="white"><rect y="0" x="0" width="8684" stroke="none" height="5424"/></g><g transform="translate(32866,32758)" text-rendering="geometricPrecision" stroke-width="44" stroke-linejoin="round" stroke-linecap="round"><line y2="-29099" y1="-29668" x2="-31774" x1="-30792" fill="none"/><line y2="-29319" y1="-29744" x2="-31737" x1="-31000" fill="none"/><line y2="-29668" y1="-30587" x2="-30792" x1="-30792" fill="none"/><line y2="-29668" y1="-29099" x2="-32762" x1="-31774" fill="none"/><line y2="-30914" y1="-31376" x2="-30980" x1="-31774" fill="none"/><line y2="-30824" y1="-31171" x2="-31165" x1="-31760" fill="none"/><line y2="-30807" y1="-29668" x2="-32762" x1="-32762" fill="none"/><line y2="-30665" y1="-29810" x2="-32592" x1="-32592" fill="none"/><line y2="-31376" y1="-30807" x2="-31774" x1="-32762" fill="none"/><line y2="-29146" y1="-29668" x2="-29885" x1="-30792" fill="none"/><line y2="-28054" y1="-29099" x2="-31774" x1="-31774" fill="none"/><line y2="-32202" y1="-31376" x2="-31774" x1="-31774" fill="none"/><line y2="-29715" y1="-29146" x2="-28897" x1="-29885" fill="none"/><line y2="-29495" y1="-29068" x2="-28938" x1="-29677" fill="none"/><line y2="-29146" y1="-28007" x2="-29885" x1="-29885" fill="none"/><line y2="-29146" y1="-29715" x2="-27915" x1="-28897" fill="none"/><line y2="-28007" y1="-27438" x2="-29885" x1="-28897" fill="none"/><line y2="-28085" y1="-27658" x2="-29677" x1="-28938" fill="none"/><line y2="-28007" y1="-29146" x2="-27915" x1="-27915" fill="none"/><line y2="-28149" y1="-29001" x2="-28085" x1="-28085" fill="none"/><line y2="-27438" y1="-28007" x2="-28897" x1="-27915" fill="none"/><line y2="-29668" y1="-29146" x2="-27008" x1="-27915" fill="none"/><line y2="-29252" y1="-29668" x2="-26288" x1="-27008" fill="none"/><line y2="-29668" y1="-29252" x2="-25194" x1="-25913" fill="none"/><line y2="-30498" y1="-29668" x2="-27077" x1="-27077" fill="none"/><line y2="-30498" y1="-29668" x2="-26938" x1="-26938" fill="none"/><line y2="-29146" y1="-29668" x2="-24286" x1="-25194" fill="none"/><line y2="-30576" y1="-29668" x2="-24668" x1="-25194" fill="none"/><line y2="-30576" y1="-29668" x2="-25716" x1="-25194" fill="none"/><text y="-28966" xml:space="preserve" x="-26254" stroke="none" font-size="433.3333" font-family="sans-serif">O</text><text y="-30538" xml:space="preserve" x="-27161" stroke="none" font-size="433.3333" font-family="sans-serif">O</text><text y="-32242" xml:space="preserve" x="-31928" stroke="none" font-size="433.3333" font-family="sans-serif">NH</text><text y="-32153" xml:space="preserve" x="-31350" stroke="none" font-size="313.3333" font-family="sans-serif">2</text><text y="-30628" xml:space="preserve" x="-30945" stroke="none" font-size="433.3333" font-family="sans-serif">N</text></g></g></svg>