<svg width="227.28" viewBox="0 0 7576 7363" text-rendering="auto" stroke-width="1" stroke-opacity="1" stroke-miterlimit="10" stroke-linejoin="miter" stroke-linecap="square" stroke-dashoffset="0" stroke-dasharray="none" stroke="black" shape-rendering="auto" image-rendering="auto" height="220.89" font-weight="normal" font-style="normal" font-size="12" font-family="'Dialog'" fill-opacity="1" fill="black" color-rendering="auto" color-interpolation="auto" xmlns="http://www.w3.org/2000/svg"><g><g stroke="white" fill="white"><rect y="0" x="0" width="7576" stroke="none" height="7363"/></g><g transform="translate(32866,32758)" text-rendering="geometricPrecision" stroke-width="44" stroke-linejoin="round" stroke-linecap="round"><line y2="-29177" y1="-29752" x2="-27909" x1="-28891" fill="none"/><line y2="-28030" y1="-29177" x2="-27909" x1="-27909" fill="none"/><line y2="-28175" y1="-29036" x2="-28080" x1="-28080" fill="none"/><line y2="-29752" y1="-29177" x2="-26927" x1="-27909" fill="none"/><line y2="-29752" y1="-29177" x2="-28891" x1="-29874" fill="none"/><line y2="-29533" y1="-29102" x2="-28929" x1="-29666" fill="none"/><line y2="-28030" y1="-27458" x2="-27909" x1="-26927" fill="none"/><line y2="-27458" y1="-28030" x2="-28891" x1="-27909" fill="none"/><line y2="-29177" y1="-29752" x2="-25945" x1="-26927" fill="none"/><line y2="-29102" y1="-29533" x2="-26153" x1="-26889" fill="none"/><line y2="-29177" y1="-28030" x2="-29874" x1="-29874" fill="none"/><line y2="-27458" y1="-28030" x2="-26927" x1="-25945" fill="none"/><line y2="-27678" y1="-28106" x2="-26889" x1="-26153" fill="none"/><line y2="-28030" y1="-27458" x2="-29874" x1="-28891" fill="none"/><line y2="-28106" y1="-27678" x2="-29666" x1="-28929" fill="none"/><line y2="-28030" y1="-29177" x2="-25945" x1="-25945" fill="none"/><line y2="-30578" y1="-29752" x2="-28891" x1="-28891" fill="none"/><line y2="-26629" y1="-27458" x2="-26927" x1="-26927" fill="none"/><line y2="-31156" y1="-30908" x2="-29510" x1="-29079" fill="none"/><line y2="-30850" y1="-31266" x2="-30795" x1="-30076" fill="none"/><line y2="-31376" y1="-30850" x2="-31702" x1="-30795" fill="none"/><line y2="-31523" y1="-31052" x2="-28556" x1="-28825" fill="none"/><line y2="-31451" y1="-30983" x2="-28432" x1="-28704" fill="none"/><line y2="-30870" y1="-30870" x2="-28030" x1="-28704" fill="none"/><line y2="-30729" y1="-30729" x2="-28030" x1="-28704" fill="none"/><line y2="-25994" y1="-26303" x2="-26208" x1="-26739" fill="none"/><line y2="-26054" y1="-26303" x2="-27545" x1="-27115" fill="none"/><line y2="-31070" y1="-31376" x2="-32231" x1="-31702" fill="none"/><line y2="-32202" y1="-31376" x2="-31772" x1="-31772" fill="none"/><line y2="-32202" y1="-31376" x2="-31633" x1="-31633" fill="none"/><text y="-30619" xml:space="preserve" x="-29044" stroke="none" font-size="433.3333" font-family="sans-serif">S</text><text y="-31197" xml:space="preserve" x="-30041" stroke="none" font-size="433.3333" font-family="sans-serif">NH</text><text y="-31526" xml:space="preserve" x="-28519" stroke="none" font-size="433.3333" font-family="sans-serif">O</text><text y="-30619" xml:space="preserve" x="-27996" stroke="none" font-size="433.3333" font-family="sans-serif">O</text><text y="-30671" xml:space="preserve" x="-32762" stroke="none" font-size="433.3333" font-family="sans-serif">OH</text><text y="-32242" xml:space="preserve" x="-31855" stroke="none" font-size="433.3333" font-family="sans-serif">O</text><text y="-26231" xml:space="preserve" x="-27077" stroke="none" font-size="433.3333" font-family="sans-serif">N</text><text y="-25708" xml:space="preserve" x="-26170" stroke="none" font-size="433.3333" font-family="sans-serif">CH</text><text y="-25618" xml:space="preserve" x="-25592" stroke="none" font-size="313.3333" font-family="sans-serif">3</text><text y="-25656" xml:space="preserve" x="-28077" stroke="none" font-size="433.3333" font-family="sans-serif">CH</text><text y="-25566" xml:space="preserve" x="-27499" stroke="none" font-size="313.3333" font-family="sans-serif">3</text></g></g></svg>