<svg width="312.51" viewBox="0 0 10417 5624" text-rendering="auto" stroke-width="1" stroke-opacity="1" stroke-miterlimit="10" stroke-linejoin="miter" stroke-linecap="square" stroke-dashoffset="0" stroke-dasharray="none" stroke="black" shape-rendering="auto" image-rendering="auto" height="168.72" font-weight="normal" font-style="normal" font-size="12" font-family="'Dialog'" fill-opacity="1" fill="black" color-rendering="auto" color-interpolation="auto" xmlns="http://www.w3.org/2000/svg"><g><g stroke="white" fill="white"><rect y="0" x="0" width="10417" stroke="none" height="5624"/></g><g transform="translate(32866,32866)" text-rendering="geometricPrecision" stroke-width="44" stroke-linejoin="round" stroke-linecap="round"><line y2="-29484" y1="-30622" x2="-26494" x1="-26494" fill="none"/><line y2="-31191" y1="-30622" x2="-25506" x1="-26494" fill="none"/><line y2="-30971" y1="-30544" x2="-25543" x1="-26286" fill="none"/><line y2="-30622" y1="-31191" x2="-26494" x1="-27476" fill="none"/><line y2="-29484" y1="-28917" x2="-26494" x1="-25506" fill="none"/><line y2="-29562" y1="-29134" x2="-26286" x1="-25543" fill="none"/><line y2="-29484" y1="-29484" x2="-28276" x1="-26494" fill="none"/><line y2="-30622" y1="-31191" x2="-24523" x1="-25506" fill="none"/><line y2="-31191" y1="-30622" x2="-27476" x1="-28464" fill="none"/><line y2="-30971" y1="-30544" x2="-27516" x1="-28256" fill="none"/><line y2="-28917" y1="-29484" x2="-25506" x1="-24523" fill="none"/><line y2="-30622" y1="-29703" x2="-28464" x1="-28464" fill="none"/><line y2="-29484" y1="-30622" x2="-24523" x1="-24523" fill="none"/><line y2="-29628" y1="-30480" x2="-24694" x1="-24694" fill="none"/><line y2="-31081" y1="-30622" x2="-23723" x1="-24523" fill="none"/><line y2="-29484" y1="-29484" x2="-24523" x1="-22553" fill="none"/><line y2="-30622" y1="-31081" x2="-22553" x1="-23348" fill="none"/><line y2="-29484" y1="-30622" x2="-22553" x1="-22553" fill="none"/><line y2="-29628" y1="-30480" x2="-22724" x1="-22724" fill="none"/><line y2="-32020" y1="-31191" x2="-25506" x1="-25506" fill="none"/><line y2="-32762" y1="-32346" x2="-26413" x1="-25693" fill="none"/><line y2="-32240" y1="-32762" x2="-27320" x1="-26413" fill="none"/><line y2="-32762" y1="-32240" x2="-28227" x1="-27320" fill="none"/><line y2="-32240" y1="-32762" x2="-29134" x1="-28227" fill="none"/><line y2="-32762" y1="-32240" x2="-30041" x1="-29134" fill="none"/><line y2="-32240" y1="-32762" x2="-30948" x1="-30041" fill="none"/><line y2="-32762" y1="-32240" x2="-31855" x1="-30948" fill="none"/><line y2="-32240" y1="-32762" x2="-32762" x1="-31855" fill="none"/><line y2="-28088" y1="-28917" x2="-25506" x1="-25506" fill="none"/><line y2="-27346" y1="-27759" x2="-26413" x1="-25693" fill="none"/><line y2="-27869" y1="-27346" x2="-27320" x1="-26413" fill="none"/><line y2="-27346" y1="-27869" x2="-28227" x1="-27320" fill="none"/><line y2="-27869" y1="-27346" x2="-29134" x1="-28227" fill="none"/><line y2="-27346" y1="-27869" x2="-30041" x1="-29134" fill="none"/><line y2="-27869" y1="-27346" x2="-30948" x1="-30041" fill="none"/><line y2="-27346" y1="-27869" x2="-31855" x1="-30948" fill="none"/><line y2="-27869" y1="-27346" x2="-32762" x1="-31855" fill="none"/><text y="-32060" xml:space="preserve" x="-25659" stroke="none" font-size="433.3333" font-family="sans-serif">O</text><text y="-27690" xml:space="preserve" x="-25659" stroke="none" font-size="433.3333" font-family="sans-serif">O</text><text y="-29304" xml:space="preserve" x="-28617" stroke="none" font-size="433.3333" font-family="sans-serif">S</text><text y="-31012" xml:space="preserve" x="-23688" stroke="none" font-size="433.3333" font-family="sans-serif">S</text></g></g></svg>