<svg width="130.29" viewBox="0 0 4343 3576" text-rendering="auto" stroke-width="1" stroke-opacity="1" stroke-miterlimit="10" stroke-linejoin="miter" stroke-linecap="square" stroke-dashoffset="0" stroke-dasharray="none" stroke="black" shape-rendering="auto" image-rendering="auto" height="107.28" font-weight="normal" font-style="normal" font-size="12" font-family="'Dialog'" fill-opacity="1" fill="black" color-rendering="auto" color-interpolation="auto" xmlns="http://www.w3.org/2000/svg"><g><g stroke="white" fill="white"><rect y="0" x="0" width="4343" stroke="none" height="3576"/></g><g transform="translate(32866,32704)" text-rendering="geometricPrecision" stroke-width="44" stroke-linejoin="round" stroke-linecap="round"><line y2="-31046" y1="-31506" x2="-30980" x1="-31774" fill="none"/><line y2="-29798" y1="-30717" x2="-30792" x1="-30792" fill="none"/><line y2="-29914" y1="-30602" x2="-30963" x1="-30963" fill="none"/><line y2="-31506" y1="-30937" x2="-31774" x1="-32762" fill="none"/><line y2="-31286" y1="-30859" x2="-31812" x1="-32554" fill="none"/><line y2="-29232" y1="-29798" x2="-31774" x1="-30792" fill="none"/><line y2="-30937" y1="-29798" x2="-32762" x1="-32762" fill="none"/><line y2="-29798" y1="-29232" x2="-32762" x1="-31774" fill="none"/><line y2="-29876" y1="-29449" x2="-32554" x1="-31812" fill="none"/><line y2="-31353" y1="-31046" x2="-30073" x1="-30604" fill="none"/><line y2="-31046" y1="-31295" x2="-29166" x1="-29599" fill="none"/><line y2="-32150" y1="-31734" x2="-29486" x1="-29726" fill="none"/><line y2="-32150" y1="-31679" x2="-30281" x1="-30009" fill="none"/><text y="-31280" xml:space="preserve" x="-30035" stroke="none" font-size="433.3333" font-family="sans-serif">B</text><text y="-30758" xml:space="preserve" x="-29128" stroke="none" font-size="433.3333" font-family="sans-serif">H</text><text y="-32188" xml:space="preserve" x="-29512" stroke="none" font-size="433.3333" font-family="sans-serif">H</text><text y="-32188" xml:space="preserve" x="-30561" stroke="none" font-size="433.3333" font-family="sans-serif">H</text><text y="-30758" xml:space="preserve" x="-30942" stroke="none" font-size="433.3333" font-family="sans-serif">N</text><text y="-31335" xml:space="preserve" x="-29715" stroke="none" font-size="313.3333" font-family="sans-serif">3+</text><text y="-30812" xml:space="preserve" x="-28808" stroke="none" font-size="313.3333" font-family="sans-serif">-</text><text y="-32242" xml:space="preserve" x="-29189" stroke="none" font-size="313.3333" font-family="sans-serif">-</text><text y="-32242" xml:space="preserve" x="-30238" stroke="none" font-size="313.3333" font-family="sans-serif">-</text></g></g></svg>