<svg width="393.27" viewBox="0 0 13109 7874" text-rendering="auto" stroke-width="1" stroke-opacity="1" stroke-miterlimit="10" stroke-linejoin="miter" stroke-linecap="square" stroke-dashoffset="0" stroke-dasharray="none" stroke="black" shape-rendering="auto" image-rendering="auto" height="236.22" font-weight="normal" font-style="normal" font-size="12" font-family="'Dialog'" fill-opacity="1" fill="black" color-rendering="auto" color-interpolation="auto" xmlns="http://www.w3.org/2000/svg"><g><g stroke="white" fill="white"><rect y="0" x="0" width="13109" stroke="none" height="7874"/></g><g transform="translate(32866,32758)" text-rendering="geometricPrecision" stroke-width="44" stroke-linejoin="round" stroke-linecap="round"><line y2="-27510" y1="-28082" x2="-27773" x1="-26791" fill="none"/><line y2="-29229" y1="-28082" x2="-26791" x1="-26791" fill="none"/><line y2="-28082" y1="-28082" x2="-26791" x1="-24824" fill="none"/><line y2="-28082" y1="-27510" x2="-28756" x1="-27773" fill="none"/><line y2="-28158" y1="-27730" x2="-28548" x1="-27811" fill="none"/><line y2="-26364" y1="-27510" x2="-27773" x1="-27773" fill="none"/><line y2="-29804" y1="-29229" x2="-25806" x1="-26791" fill="none"/><line y2="-29229" y1="-29804" x2="-26791" x1="-27773" fill="none"/><line y2="-28082" y1="-29229" x2="-24824" x1="-24824" fill="none"/><line y2="-28082" y1="-27510" x2="-28756" x1="-29738" fill="none"/><line y2="-29229" y1="-28082" x2="-28756" x1="-28756" fill="none"/><line y2="-25792" y1="-26364" x2="-28756" x1="-27773" fill="none"/><line y2="-29229" y1="-29804" x2="-24824" x1="-25806" fill="none"/><line y2="-29804" y1="-29229" x2="-27773" x1="-28756" fill="none"/><line y2="-26364" y1="-27510" x2="-29738" x1="-29738" fill="none"/><line y2="-27510" y1="-28082" x2="-29738" x1="-30720" fill="none"/><line y2="-26364" y1="-25792" x2="-29738" x1="-28756" fill="none"/><line y2="-25792" y1="-26364" x2="-30720" x1="-29738" fill="none"/><line y2="-28082" y1="-27510" x2="-30720" x1="-31702" fill="none"/><line y2="-26364" y1="-25792" x2="-31702" x1="-30720" fill="none"/><line y2="-27510" y1="-26364" x2="-31702" x1="-31702" fill="none"/><line y2="-30850" y1="-29804" x2="-25806" x1="-25806" fill="none"/><line y2="-24988" y1="-25792" x2="-31393" x1="-30720" fill="none"/><line y2="-24988" y1="-25792" x2="-30047" x1="-30720" fill="none"/><line y2="-27071" y1="-28082" x2="-26520" x1="-26791" fill="none"/><line y2="-30278" y1="-29229" x2="-26791" x1="-26791" fill="none"/><line y2="-28559" y1="-27510" x2="-29738" x1="-29738" fill="none"/><line y2="-25948" y1="-26364" x2="-27054" x1="-27773" fill="none"/><line y2="-27580" y1="-28132" x2="-24223" x1="-24775" fill="none"/><line y2="-27482" y1="-28033" x2="-24321" x1="-24873" fill="none"/><line y2="-29585" y1="-29169" x2="-29510" x1="-28790" fill="none"/><line y2="-29706" y1="-29290" x2="-29440" x1="-28721" fill="none"/><line y2="-25887" y1="-26303" x2="-32387" x1="-31668" fill="none"/><line y2="-26008" y1="-26424" x2="-32456" x1="-31737" fill="none"/><line y2="-31376" y1="-30850" x2="-24899" x1="-25806" fill="none"/><line y2="-30850" y1="-31376" x2="-23992" x1="-24899" fill="none"/><line y2="-31757" y1="-30850" x2="-26332" x1="-25806" fill="none"/><line y2="-30850" y1="-30850" x2="-26364" x1="-25806" fill="none"/><line y2="-31376" y1="-30850" x2="-23085" x1="-23992" fill="none"/><line y2="-30850" y1="-31376" x2="-22178" x1="-23085" fill="none"/><line y2="-30024" y1="-30850" x2="-23922" x1="-23922" fill="none"/><line y2="-30024" y1="-30850" x2="-24064" x1="-24064" fill="none"/><line y2="-31376" y1="-30850" x2="-21270" x1="-22178" fill="none"/><line y2="-29804" y1="-30850" x2="-22178" x1="-22178" fill="none"/><line y2="-30960" y1="-31376" x2="-20551" x1="-21270" fill="none"/><line y2="-32202" y1="-31376" x2="-21340" x1="-21340" fill="none"/><line y2="-32202" y1="-31376" x2="-21201" x1="-21201" fill="none"/><text y="-27164" xml:space="preserve" x="-24237" stroke="none" font-size="433.3333" font-family="sans-serif">O</text><text y="-25662" xml:space="preserve" x="-27019" stroke="none" font-size="433.3333" font-family="sans-serif">OH</text><text y="-30671" xml:space="preserve" x="-27008" stroke="none" font-size="433.3333" font-family="sans-serif">OH</text><text y="-29625" xml:space="preserve" x="-24145" stroke="none" font-size="433.3333" font-family="sans-serif">O</text><text y="-30671" xml:space="preserve" x="-20516" stroke="none" font-size="433.3333" font-family="sans-serif">OH</text><text y="-32242" xml:space="preserve" x="-21424" stroke="none" font-size="433.3333" font-family="sans-serif">O</text><text y="-29576" xml:space="preserve" x="-29816" stroke="none" font-size="433.3333" font-family="sans-serif">O</text><text y="-25662" xml:space="preserve" x="-32762" stroke="none" font-size="433.3333" font-family="sans-serif">O</text></g></g></svg>