<svg width="254.22" viewBox="0 0 8474 7345" text-rendering="auto" stroke-width="1" stroke-opacity="1" stroke-miterlimit="10" stroke-linejoin="miter" stroke-linecap="square" stroke-dashoffset="0" stroke-dasharray="none" stroke="black" shape-rendering="auto" image-rendering="auto" height="220.35" font-weight="normal" font-style="normal" font-size="12" font-family="'Dialog'" fill-opacity="1" fill="black" color-rendering="auto" color-interpolation="auto" xmlns="http://www.w3.org/2000/svg"><g><g stroke="white" fill="white"><rect y="0" x="0" width="8474" stroke="none" height="7345"/></g><g transform="translate(32866,32758)" text-rendering="geometricPrecision" stroke-width="44" stroke-linejoin="round" stroke-linecap="round"><line y2="-28048" y1="-29195" x2="-27008" x1="-27008" fill="none"/><line y2="-28192" y1="-29050" x2="-27178" x1="-27178" fill="none"/><line y2="-29195" y1="-29767" x2="-27008" x1="-27990" fill="none"/><line y2="-29767" y1="-29195" x2="-26026" x1="-27008" fill="none"/><line y2="-28048" y1="-27476" x2="-27008" x1="-26026" fill="none"/><line y2="-27476" y1="-28048" x2="-27990" x1="-27008" fill="none"/><line y2="-29767" y1="-29195" x2="-27990" x1="-28972" fill="none"/><line y2="-29550" y1="-29120" x2="-28028" x1="-28764" fill="none"/><line y2="-29195" y1="-29767" x2="-25043" x1="-26026" fill="none"/><line y2="-29120" y1="-29550" x2="-25251" x1="-25991" fill="none"/><line y2="-27476" y1="-28048" x2="-26026" x1="-25043" fill="none"/><line y2="-27692" y1="-28123" x2="-25991" x1="-25251" fill="none"/><line y2="-28048" y1="-27476" x2="-28972" x1="-27990" fill="none"/><line y2="-28123" y1="-27692" x2="-28764" x1="-28028" fill="none"/><line y2="-29195" y1="-28048" x2="-28972" x1="-28972" fill="none"/><line y2="-28048" y1="-29195" x2="-25043" x1="-25043" fill="none"/><line y2="-30596" y1="-29767" x2="-27990" x1="-27990" fill="none"/><line y2="-26647" y1="-27476" x2="-26026" x1="-26026" fill="none"/><line y2="-31171" y1="-30922" x2="-28608" x1="-28181" fill="none"/><line y2="-30850" y1="-31278" x2="-29885" x1="-29177" fill="none"/><line y2="-31538" y1="-31070" x2="-27655" x1="-27926" fill="none"/><line y2="-31468" y1="-31000" x2="-27534" x1="-27805" fill="none"/><line y2="-30885" y1="-30885" x2="-27132" x1="-27802" fill="none"/><line y2="-30746" y1="-30746" x2="-27132" x1="-27802" fill="none"/><line y2="-26011" y1="-26317" x2="-25306" x1="-25838" fill="none"/><line y2="-26072" y1="-26317" x2="-26644" x1="-26213" fill="none"/><line y2="-29278" y1="-29804" x2="-30792" x1="-29885" fill="none"/><line y2="-31376" y1="-30850" x2="-30792" x1="-29885" fill="none"/><line y2="-29278" y1="-29848" x2="-30792" x1="-31777" fill="none"/><line y2="-29203" y1="-29631" x2="-31000" x1="-31740" fill="none"/><line y2="-28143" y1="-29278" x2="-30792" x1="-30792" fill="none"/><line y2="-29848" y1="-29278" x2="-31777" x1="-32762" fill="none"/><line y2="-27574" y1="-28143" x2="-31777" x1="-30792" fill="none"/><line y2="-27791" y1="-28218" x2="-31740" x1="-31000" fill="none"/><line y2="-29278" y1="-28143" x2="-32762" x1="-32762" fill="none"/><line y2="-29137" y1="-28285" x2="-32595" x1="-32595" fill="none"/><line y2="-28143" y1="-27574" x2="-32762" x1="-31777" fill="none"/><line y2="-31070" y1="-31376" x2="-31321" x1="-30792" fill="none"/><line y2="-32202" y1="-31376" x2="-30864" x1="-30864" fill="none"/><line y2="-32202" y1="-31376" x2="-30723" x1="-30723" fill="none"/><polygon stroke-width="1" stroke="none" points=" -29885 -30850 -29819 -29804 -29954 -29801"/><polygon stroke-width="1" points=" -29885 -30850 -29819 -29804 -29954 -29801" fill="none"/><text y="-30636" xml:space="preserve" x="-28143" stroke-width="1" stroke="none" font-size="433.3333" font-family="sans-serif">S</text><text y="-31211" xml:space="preserve" x="-29140" stroke-width="1" stroke="none" font-size="433.3333" font-family="sans-serif">NH</text><text y="-31543" xml:space="preserve" x="-27620" stroke-width="1" stroke="none" font-size="433.3333" font-family="sans-serif">O</text><text y="-30636" xml:space="preserve" x="-27094" stroke-width="1" stroke="none" font-size="433.3333" font-family="sans-serif">O</text><text y="-30671" xml:space="preserve" x="-31852" stroke-width="1" stroke="none" font-size="433.3333" font-family="sans-serif">OH</text><text y="-32242" xml:space="preserve" x="-30945" stroke-width="1" stroke="none" font-size="433.3333" font-family="sans-serif">O</text><text y="-26248" xml:space="preserve" x="-26179" stroke-width="1" stroke="none" font-size="433.3333" font-family="sans-serif">N</text><text y="-25725" xml:space="preserve" x="-25272" stroke-width="1" stroke="none" font-size="433.3333" font-family="sans-serif">CH</text><text y="-25636" xml:space="preserve" x="-24694" stroke-width="1" stroke="none" font-size="313.3333" font-family="sans-serif">3</text><text y="-25673" xml:space="preserve" x="-27175" stroke-width="1" stroke="none" font-size="433.3333" font-family="sans-serif">CH</text><text y="-25584" xml:space="preserve" x="-26598" stroke-width="1" stroke="none" font-size="313.3333" font-family="sans-serif">3</text></g><g transform="translate(32866,32758)" text-rendering="geometricPrecision" stroke-linejoin="round" stroke-linecap="round" font-style="italic" font-size="313.3333" font-family="sans-serif"><text y="-30974" xml:space="preserve" x="-30038" stroke="none">S</text></g></g></svg>