<svg width="287.64" viewBox="0 0 9588 3600" text-rendering="auto" stroke-width="1" stroke-opacity="1" stroke-miterlimit="10" stroke-linejoin="miter" stroke-linecap="square" stroke-dashoffset="0" stroke-dasharray="none" stroke="black" shape-rendering="auto" image-rendering="auto" height="108.0" font-weight="normal" font-style="normal" font-size="12" font-family="'Dialog'" fill-opacity="1" fill="black" color-rendering="auto" color-interpolation="auto" xmlns="http://www.w3.org/2000/svg"><g><g stroke="white" fill="white"><rect y="0" x="0" width="9588" stroke="none" height="3600"/></g><g transform="translate(32866,32866)" text-rendering="geometricPrecision" stroke-width="44" stroke-linejoin="round" stroke-linecap="round"><line y2="-30232" y1="-31148" x2="-27918" x1="-27918" fill="none"/><line y2="-29663" y1="-30232" x2="-28903" x1="-27918" fill="none"/><line y2="-31477" y1="-31936" x2="-28106" x1="-28903" fill="none"/><line y2="-30232" y1="-29663" x2="-29888" x1="-28903" fill="none"/><line y2="-31936" y1="-31477" x2="-28903" x1="-29700" fill="none"/><line y2="-31148" y1="-30232" x2="-29888" x1="-29888" fill="none"/><line y2="-30232" y1="-29706" x2="-26104" x1="-27011" fill="none"/><line y2="-30232" y1="-29706" x2="-31702" x1="-30795" fill="none"/><line y2="-29926" y1="-30232" x2="-32231" x1="-31702" fill="none"/><line y2="-32762" y1="-31936" x2="-29547" x1="-28903" fill="none"/><line y2="-32728" y1="-31936" x2="-28212" x1="-28903" fill="none"/><line y2="-29816" y1="-30232" x2="-25384" x1="-26104" fill="none"/><line y2="-30232" y1="-29816" x2="-24289" x1="-25009" fill="none"/><line y2="-31058" y1="-30232" x2="-26173" x1="-26173" fill="none"/><line y2="-31058" y1="-30232" x2="-26034" x1="-26034" fill="none"/><line y2="-29706" y1="-30232" x2="-23382" x1="-24289" fill="none"/><line y2="-31139" y1="-30232" x2="-23766" x1="-24289" fill="none"/><line y2="-31139" y1="-30232" x2="-24812" x1="-24289" fill="none"/><polygon stroke-width="1" stroke="none" points=" -29888 -30232 -30760 -29648 -30830 -29767"/><polygon stroke-width="1" points=" -29888 -30232 -30760 -29648 -30830 -29767" fill="none"/><line y2="-29645" y1="-29767" x2="-27045" x1="-26976" fill="none"/><line y2="-29766" y1="-29863" x2="-27225" x1="-27171" fill="none"/><line y2="-29888" y1="-29959" x2="-27406" x1="-27365" fill="none"/><line y2="-30009" y1="-30055" x2="-27586" x1="-27560" fill="none"/><line y2="-30130" y1="-30151" x2="-27766" x1="-27754" fill="none"/><text y="-29527" xml:space="preserve" x="-25350" stroke="none" font-size="433.3333" font-family="sans-serif">O</text><text y="-31098" xml:space="preserve" x="-26257" stroke="none" font-size="433.3333" font-family="sans-serif">O</text><text y="-29527" xml:space="preserve" x="-32762" stroke="none" font-size="433.3333" font-family="sans-serif">NH</text><text y="-29437" xml:space="preserve" x="-32185" stroke="none" font-size="313.3333" font-family="sans-serif">2</text><text y="-31188" xml:space="preserve" x="-28071" stroke="none" font-size="433.3333" font-family="sans-serif">O</text><text y="-31188" xml:space="preserve" x="-30041" stroke="none" font-size="433.3333" font-family="sans-serif">O</text><text y="-30194" xml:space="preserve" x="-28319" stroke="none" font-style="italic" font-size="313.3333" font-family="sans-serif">S</text><text y="-30194" xml:space="preserve" x="-29793" stroke="none" font-style="italic" font-size="313.3333" font-family="sans-serif">R</text></g></g></svg>