<svg width="770.55" viewBox="0 0 25685 5605" text-rendering="auto" stroke-width="1" stroke-opacity="1" stroke-miterlimit="10" stroke-linejoin="miter" stroke-linecap="square" stroke-dashoffset="0" stroke-dasharray="none" stroke="black" shape-rendering="auto" image-rendering="auto" height="168.15" font-weight="normal" font-style="normal" font-size="12" font-family="'Dialog'" fill-opacity="1" fill="black" color-rendering="auto" color-interpolation="auto" xmlns="http://www.w3.org/2000/svg"><g><g stroke="white" fill="white"><rect y="0" x="0" width="25685" stroke="none" height="5605"/></g><g transform="translate(32866,32758)" text-rendering="geometricPrecision" stroke-width="44" stroke-linejoin="round" stroke-linecap="round"><line y2="-29668" y1="-30807" x2="-19985" x1="-19985" fill="none"/><line y2="-29810" y1="-30665" x2="-20155" x1="-20155" fill="none"/><line y2="-30807" y1="-31376" x2="-19985" x1="-20970" fill="none"/><line y2="-29099" y1="-29668" x2="-20970" x1="-19985" fill="none"/><line y2="-31376" y1="-30807" x2="-20970" x1="-21955" fill="none"/><line y2="-31156" y1="-30729" x2="-21008" x1="-21747" fill="none"/><line y2="-29668" y1="-29099" x2="-21955" x1="-20970" fill="none"/><line y2="-29746" y1="-29319" x2="-21747" x1="-21008" fill="none"/><line y2="-30807" y1="-29668" x2="-21955" x1="-21955" fill="none"/><line y2="-31330" y1="-30807" x2="-19078" x1="-19985" fill="none"/><line y2="-30914" y1="-31330" x2="-18358" x1="-19078" fill="none"/><line y2="-31330" y1="-30914" x2="-17264" x1="-17983" fill="none"/><line y2="-30807" y1="-31330" x2="-16356" x1="-17264" fill="none"/><line y2="-31330" y1="-30807" x2="-15449" x1="-16356" fill="none"/><line y2="-30807" y1="-31330" x2="-14542" x1="-15449" fill="none"/><line y2="-31330" y1="-30807" x2="-13635" x1="-14542" fill="none"/><line y2="-30807" y1="-31330" x2="-12728" x1="-13635" fill="none"/><line y2="-31330" y1="-30807" x2="-11821" x1="-12728" fill="none"/><line y2="-30807" y1="-31330" x2="-10914" x1="-11821" fill="none"/><line y2="-31330" y1="-30807" x2="-10007" x1="-10914" fill="none"/><line y2="-30807" y1="-31330" x2="-9100" x1="-10007" fill="none"/><line y2="-31330" y1="-30807" x2="-8192" x1="-9100" fill="none"/><line y2="-30807" y1="-31330" x2="-7285" x1="-8192" fill="none"/><line y2="-28054" y1="-29099" x2="-20970" x1="-20970" fill="none"/><line y2="-27638" y1="-28054" x2="-21689" x1="-20970" fill="none"/><line y2="-28054" y1="-27638" x2="-22784" x1="-22065" fill="none"/><line y2="-27528" y1="-28054" x2="-23691" x1="-22784" fill="none"/><line y2="-28054" y1="-27528" x2="-24598" x1="-23691" fill="none"/><line y2="-27528" y1="-28054" x2="-25506" x1="-24598" fill="none"/><line y2="-28054" y1="-27528" x2="-26413" x1="-25506" fill="none"/><line y2="-27528" y1="-28054" x2="-27320" x1="-26413" fill="none"/><line y2="-28054" y1="-27528" x2="-28227" x1="-27320" fill="none"/><line y2="-27528" y1="-28054" x2="-29134" x1="-28227" fill="none"/><line y2="-28054" y1="-27528" x2="-30041" x1="-29134" fill="none"/><line y2="-27528" y1="-28054" x2="-30948" x1="-30041" fill="none"/><line y2="-28054" y1="-27528" x2="-31855" x1="-30948" fill="none"/><line y2="-27528" y1="-28054" x2="-32762" x1="-31855" fill="none"/><line y2="-31330" y1="-30807" x2="-22862" x1="-21955" fill="none"/><line y2="-32202" y1="-31376" x2="-20970" x1="-20970" fill="none"/><text y="-30628" xml:space="preserve" x="-18324" stroke="none" font-size="433.3333" font-family="sans-serif">S</text><text y="-32242" xml:space="preserve" x="-21120" stroke="none" font-size="433.3333" font-family="sans-serif">OH</text><text y="-27349" xml:space="preserve" x="-22030" stroke="none" font-size="433.3333" font-family="sans-serif">S</text></g></g></svg>