<svg width="632.22" viewBox="0 0 21074 2828" text-rendering="auto" stroke-width="1" stroke-opacity="1" stroke-miterlimit="10" stroke-linejoin="miter" stroke-linecap="square" stroke-dashoffset="0" stroke-dasharray="none" stroke="black" shape-rendering="auto" image-rendering="auto" height="84.84" font-weight="normal" font-style="normal" font-size="12" font-family="'Dialog'" fill-opacity="1" fill="black" color-rendering="auto" color-interpolation="auto" xmlns="http://www.w3.org/2000/svg"><g><g stroke="white" fill="white"><rect y="0" x="0" width="21074" stroke="none" height="2828"/></g><g transform="translate(32866,32866)" text-rendering="geometricPrecision" stroke-width="44" stroke-linejoin="round" stroke-linecap="round"><line y2="-31191" y1="-31714" x2="-16432" x1="-17339" fill="none"/><line y2="-31136" y1="-31529" x2="-16616" x1="-17295" fill="none"/><line y2="-31191" y1="-31714" x2="-18246" x1="-17339" fill="none"/><line y2="-31714" y1="-31191" x2="-19153" x1="-18246" fill="none"/><line y2="-31191" y1="-31714" x2="-20060" x1="-19153" fill="none"/><line y2="-31714" y1="-31191" x2="-15524" x1="-16432" fill="none"/><line y2="-31191" y1="-31714" x2="-14617" x1="-15524" fill="none"/><line y2="-31714" y1="-31191" x2="-13710" x1="-14617" fill="none"/><line y2="-31191" y1="-31714" x2="-12803" x1="-13710" fill="none"/><line y2="-31136" y1="-31529" x2="-12985" x1="-13667" fill="none"/><line y2="-30142" y1="-31191" x2="-16432" x1="-16432" fill="none"/><line y2="-31714" y1="-31191" x2="-20967" x1="-20060" fill="none"/><line y2="-31529" y1="-31136" x2="-20924" x1="-20245" fill="none"/><line y2="-30142" y1="-31191" x2="-20060" x1="-20060" fill="none"/><line y2="-31714" y1="-31191" x2="-11896" x1="-12803" fill="none"/><line y2="-30142" y1="-31191" x2="-12803" x1="-12803" fill="none"/><line y2="-31191" y1="-31714" x2="-21874" x1="-20967" fill="none"/><line y2="-31714" y1="-31191" x2="-22781" x1="-21874" fill="none"/><line y2="-31191" y1="-31714" x2="-23688" x1="-22781" fill="none"/><line y2="-31714" y1="-31191" x2="-24596" x1="-23688" fill="none"/><line y2="-31529" y1="-31136" x2="-24552" x1="-23873" fill="none"/><line y2="-31191" y1="-31714" x2="-25503" x1="-24596" fill="none"/><line y2="-31714" y1="-31191" x2="-26410" x1="-25503" fill="none"/><line y2="-31191" y1="-31714" x2="-27317" x1="-26410" fill="none"/><line y2="-32762" y1="-31714" x2="-24596" x1="-24596" fill="none"/><line y2="-31714" y1="-31191" x2="-28224" x1="-27317" fill="none"/><line y2="-31529" y1="-31136" x2="-28181" x1="-27502" fill="none"/><line y2="-31191" y1="-31714" x2="-29131" x1="-28224" fill="none"/><line y2="-31714" y1="-31191" x2="-30038" x1="-29131" fill="none"/><line y2="-31191" y1="-31714" x2="-30945" x1="-30038" fill="none"/><line y2="-31714" y1="-31191" x2="-31855" x1="-30945" fill="none"/><line y2="-31529" y1="-31136" x2="-31809" x1="-31130" fill="none"/><line y2="-32762" y1="-31714" x2="-28224" x1="-28224" fill="none"/><line y2="-31191" y1="-31714" x2="-32762" x1="-31855" fill="none"/><line y2="-32762" y1="-31714" x2="-31855" x1="-31855" fill="none"/><text y="-31659" xml:space="preserve" x="-27701" stroke="none" font-style="italic" font-size="313.3333" font-family="sans-serif">E</text><text y="-31659" xml:space="preserve" x="-24073" stroke="none" font-style="italic" font-size="313.3333" font-family="sans-serif">E</text><text y="-30827" xml:space="preserve" x="-20924" stroke="none" font-style="italic" font-size="313.3333" font-family="sans-serif">E</text><text y="-30824" xml:space="preserve" x="-17287" stroke="none" font-style="italic" font-size="313.3333" font-family="sans-serif">E</text></g></g></svg>