<svg width="223.23" viewBox="0 0 7441 1234" text-rendering="auto" stroke-width="1" stroke-opacity="1" stroke-miterlimit="10" stroke-linejoin="miter" stroke-linecap="square" stroke-dashoffset="0" stroke-dasharray="none" stroke="black" shape-rendering="auto" image-rendering="auto" height="37.02" font-weight="normal" font-style="normal" font-size="12" font-family="'Dialog'" fill-opacity="1" fill="black" color-rendering="auto" color-interpolation="auto" xmlns="http://www.w3.org/2000/svg"><g><g stroke="white" fill="white"><rect y="0" x="0" width="7441" stroke="none" height="1234"/></g><g transform="translate(32866,32758)" text-rendering="geometricPrecision" stroke-width="44" stroke-linejoin="round" stroke-linecap="round"><line y2="-32422" y1="-32422" x2="-25887" x1="-26745" fill="none"/><line y2="-32511" y1="-32511" x2="-25887" x1="-26745" fill="none"/><line y2="-32332" y1="-32332" x2="-25887" x1="-26745" fill="none"/><line y2="-32422" y1="-32422" x2="-27794" x1="-26745" fill="none"/><line y2="-31899" y1="-32422" x2="-28701" x1="-27794" fill="none"/><line y2="-32422" y1="-31899" x2="-29608" x1="-28701" fill="none"/><line y2="-32237" y1="-31844" x2="-29564" x1="-28886" fill="none"/><line y2="-31899" y1="-32422" x2="-30515" x1="-29608" fill="none"/><line y2="-31899" y1="-31899" x2="-31564" x1="-30515" fill="none"/><line y2="-31899" y1="-31899" x2="-32424" x1="-31564" fill="none"/><line y2="-31809" y1="-31809" x2="-32424" x1="-31564" fill="none"/><line y2="-31988" y1="-31988" x2="-32424" x1="-31564" fill="none"/><text y="-31720" xml:space="preserve" x="-32762" stroke="none" font-size="433.3333" font-family="sans-serif">N</text><text y="-32242" xml:space="preserve" x="-25849" stroke="none" font-size="433.3333" font-family="sans-serif">N</text></g></g></svg>