<svg width="335.01" viewBox="0 0 11167 6317" text-rendering="auto" stroke-width="1" stroke-opacity="1" stroke-miterlimit="10" stroke-linejoin="miter" stroke-linecap="square" stroke-dashoffset="0" stroke-dasharray="none" stroke="black" shape-rendering="auto" image-rendering="auto" height="189.51" font-weight="normal" font-style="normal" font-size="12" font-family="'Dialog'" fill-opacity="1" fill="black" color-rendering="auto" color-interpolation="auto" xmlns="http://www.w3.org/2000/svg"><g><g stroke="white" fill="white"><rect y="0" x="0" width="11167" stroke="none" height="6317"/></g><g transform="translate(32866,32866)" text-rendering="geometricPrecision" stroke-width="44" stroke-linejoin="round" stroke-linecap="round"><line y2="-28354" y1="-29328" x2="-28730" x1="-28730" fill="none"/><line y2="-29657" y1="-30142" x2="-28917" x1="-29761" fill="none"/><line y2="-30035" y1="-29657" x2="-27883" x1="-28542" fill="none"/><line y2="-28354" y1="-28354" x2="-28730" x1="-26852" fill="none"/><line y2="-28524" y1="-28524" x2="-28496" x1="-27086" fill="none"/><line y2="-27759" y1="-28354" x2="-29761" x1="-28730" fill="none"/><line y2="-30142" y1="-29547" x2="-29761" x1="-30795" fill="none"/><line y2="-29920" y1="-29475" x2="-29804" x1="-30581" fill="none"/><line y2="-29547" y1="-30035" x2="-26664" x1="-27508" fill="none"/><line y2="-29460" y1="-29827" x2="-26855" x1="-27484" fill="none"/><line y2="-28574" y1="-29547" x2="-26664" x1="-26664" fill="none"/><line y2="-28354" y1="-27759" x2="-30795" x1="-29761" fill="none"/><line y2="-28429" y1="-27981" x2="-30581" x1="-29804" fill="none"/><line y2="-29547" y1="-28354" x2="-30795" x1="-30795" fill="none"/><line y2="-29963" y1="-29547" x2="-25945" x1="-26664" fill="none"/><line y2="-29547" y1="-29853" x2="-24850" x1="-25376" fill="none"/><line y2="-27831" y1="-28354" x2="-31702" x1="-30795" fill="none"/><line y2="-30971" y1="-30142" x2="-29761" x1="-29761" fill="none"/><line y2="-31714" y1="-31298" x2="-30668" x1="-29949" fill="none"/><line y2="-30070" y1="-29547" x2="-23943" x1="-24850" fill="none"/><line y2="-28718" y1="-29547" x2="-24780" x1="-24780" fill="none"/><line y2="-28718" y1="-29547" x2="-24919" x1="-24919" fill="none"/><line y2="-28247" y1="-27831" x2="-32422" x1="-31702" fill="none"/><line y2="-27144" y1="-27831" x2="-32101" x1="-31702" fill="none"/><line y2="-27144" y1="-27831" x2="-31306" x1="-31702" fill="none"/><line y2="-31191" y1="-31714" x2="-31575" x1="-30668" fill="none"/><line y2="-32762" y1="-31714" x2="-30668" x1="-30668" fill="none"/><line y2="-31208" y1="-30070" x2="-23943" x1="-23943" fill="none"/><line y2="-30070" y1="-29504" x2="-23943" x1="-22955" fill="none"/><line y2="-30148" y1="-29720" x2="-23735" x1="-22992" fill="none"/><line y2="-31777" y1="-31208" x2="-22955" x1="-23943" fill="none"/><line y2="-31558" y1="-31133" x2="-22992" x1="-23735" fill="none"/><line y2="-29504" y1="-29963" x2="-22955" x1="-22160" fill="none"/><line y2="-31208" y1="-31777" x2="-21972" x1="-22955" fill="none"/><line y2="-30290" y1="-31208" x2="-21972" x1="-21972" fill="none"/><line y2="-30405" y1="-31093" x2="-22143" x1="-22143" fill="none"/><text y="-31012" xml:space="preserve" x="-29914" stroke="none" font-size="433.3333" font-family="sans-serif">NH</text><text y="-29891" xml:space="preserve" x="-25907" stroke="none" font-size="433.3333" font-family="sans-serif">NH</text><text y="-28319" xml:space="preserve" x="-25000" stroke="none" font-size="433.3333" font-family="sans-serif">O</text><text y="-28175" xml:space="preserve" x="-32762" stroke="none" font-size="433.3333" font-family="sans-serif">F</text><text y="-26745" xml:space="preserve" x="-32378" stroke="none" font-size="433.3333" font-family="sans-serif">F</text><text y="-26745" xml:space="preserve" x="-31332" stroke="none" font-size="433.3333" font-family="sans-serif">F</text><text y="-29368" xml:space="preserve" x="-28883" stroke="none" font-size="433.3333" font-family="sans-serif">N</text><text y="-29963" xml:space="preserve" x="-27846" stroke="none" font-size="433.3333" font-family="sans-serif">N</text><text y="-28175" xml:space="preserve" x="-26817" stroke="none" font-size="433.3333" font-family="sans-serif">N</text><text y="-29891" xml:space="preserve" x="-22123" stroke="none" font-size="433.3333" font-family="sans-serif">N</text></g></g></svg>