<svg width="344.91" viewBox="0 0 11497 5243" text-rendering="auto" stroke-width="1" stroke-opacity="1" stroke-miterlimit="10" stroke-linejoin="miter" stroke-linecap="square" stroke-dashoffset="0" stroke-dasharray="none" stroke="black" shape-rendering="auto" image-rendering="auto" height="157.29" font-weight="normal" font-style="normal" font-size="12" font-family="'Dialog'" fill-opacity="1" fill="black" color-rendering="auto" color-interpolation="auto" xmlns="http://www.w3.org/2000/svg"><g><g stroke="white" fill="white"><rect y="0" x="0" width="11497" stroke="none" height="5243"/></g><g transform="translate(32866,32866)" text-rendering="geometricPrecision" stroke-width="44" stroke-linejoin="round" stroke-linecap="round"><line y2="-29484" y1="-29900" x2="-25257" x1="-25976" fill="none"/><line y2="-29651" y1="-29900" x2="-26782" x1="-26355" fill="none"/><line y2="-29957" y1="-29541" x2="-28071" x1="-27352" fill="none"/><line y2="-31055" y1="-30229" x2="-26167" x1="-26167" fill="none"/><line y2="-30009" y1="-29484" x2="-24350" x1="-25257" fill="none"/><line y2="-28657" y1="-29484" x2="-25188" x1="-25188" fill="none"/><line y2="-28657" y1="-29484" x2="-25329" x1="-25329" fill="none"/><line y2="-29432" y1="-29957" x2="-28978" x1="-28071" fill="none"/><line y2="-30786" y1="-29957" x2="-28140" x1="-28140" fill="none"/><line y2="-30786" y1="-29957" x2="-28002" x1="-28002" fill="none"/><line y2="-31581" y1="-31055" x2="-25257" x1="-26167" fill="none"/><line y2="-31962" y1="-31055" x2="-26690" x1="-26167" fill="none"/><line y2="-31055" y1="-31055" x2="-27213" x1="-26167" fill="none"/><line y2="-31145" y1="-30009" x2="-24350" x1="-24350" fill="none"/><line y2="-31003" y1="-30151" x2="-24182" x1="-24182" fill="none"/><line y2="-30009" y1="-29440" x2="-24350" x1="-23365" fill="none"/><line y2="-31714" y1="-31145" x2="-23365" x1="-24350" fill="none"/><line y2="-29440" y1="-30009" x2="-23365" x1="-22380" fill="none"/><line y2="-29657" y1="-30084" x2="-23327" x1="-22588" fill="none"/><line y2="-31145" y1="-31714" x2="-22380" x1="-23365" fill="none"/><line y2="-31070" y1="-31497" x2="-22588" x1="-23327" fill="none"/><line y2="-30009" y1="-31145" x2="-22380" x1="-22380" fill="none"/><line y2="-32762" y1="-31714" x2="-23365" x1="-23365" fill="none"/><line y2="-29484" y1="-30009" x2="-21473" x1="-22380" fill="none"/><line y2="-28296" y1="-29432" x2="-28978" x1="-28978" fill="none"/><line y2="-28438" y1="-29290" x2="-29148" x1="-29148" fill="none"/><line y2="-29432" y1="-30001" x2="-28978" x1="-29960" fill="none"/><line y2="-27727" y1="-28296" x2="-29960" x1="-28978" fill="none"/><line y2="-30001" y1="-29432" x2="-29960" x1="-30948" fill="none"/><line y2="-29784" y1="-29356" x2="-30001" x1="-30740" fill="none"/><line y2="-28296" y1="-27727" x2="-30948" x1="-29960" fill="none"/><line y2="-28371" y1="-27947" x2="-30740" x1="-30001" fill="none"/><line y2="-29432" y1="-28296" x2="-30948" x1="-30948" fill="none"/><line y2="-27770" y1="-28296" x2="-31855" x1="-30948" fill="none"/><line y2="-28296" y1="-27770" x2="-32762" x1="-31855" fill="none"/><text y="-29830" xml:space="preserve" x="-26317" stroke="none" font-size="433.3333" font-family="sans-serif">N</text><text y="-29252" xml:space="preserve" x="-27317" stroke="none" font-size="433.3333" font-family="sans-serif">NH</text><text y="-28259" xml:space="preserve" x="-25410" stroke="none" font-size="433.3333" font-family="sans-serif">O</text><text y="-30824" xml:space="preserve" x="-28224" stroke="none" font-size="433.3333" font-family="sans-serif">O</text></g></g></svg>