<svg width="215.34" viewBox="0 0 7178 6378" text-rendering="auto" stroke-width="1" stroke-opacity="1" stroke-miterlimit="10" stroke-linejoin="miter" stroke-linecap="square" stroke-dashoffset="0" stroke-dasharray="none" stroke="black" shape-rendering="auto" image-rendering="auto" height="191.34" font-weight="normal" font-style="normal" font-size="12" font-family="'Dialog'" fill-opacity="1" fill="black" color-rendering="auto" color-interpolation="auto" xmlns="http://www.w3.org/2000/svg"><g><g stroke="white" fill="white"><rect y="0" x="0" width="7178" stroke="none" height="6378"/></g><g transform="translate(32866,32866)" text-rendering="geometricPrecision" stroke-width="44" stroke-linejoin="round" stroke-linecap="round"><line y2="-29325" y1="-30469" x2="-28738" x1="-28738" fill="none"/><line y2="-29466" y1="-30327" x2="-28909" x1="-28909" fill="none"/><line y2="-28750" y1="-29325" x2="-27756" x1="-28738" fill="none"/><line y2="-28750" y1="-29325" x2="-29723" x1="-28738" fill="none"/><line y2="-31044" y1="-30469" x2="-27756" x1="-28738" fill="none"/><line y2="-30469" y1="-31044" x2="-28738" x1="-29723" fill="none"/><line y2="-28750" y1="-29325" x2="-27756" x1="-26774" fill="none"/><line y2="-28969" y1="-29400" x2="-27721" x1="-26985" fill="none"/><line y2="-27822" y1="-28750" x2="-27756" x1="-27756" fill="none"/><line y2="-29325" y1="-28750" x2="-30706" x1="-29723" fill="none"/><line y2="-29400" y1="-28969" x2="-30495" x1="-29758" fill="none"/><line y2="-28750" y1="-27603" x2="-29723" x1="-29723" fill="none"/><line y2="-30469" y1="-31044" x2="-26774" x1="-27756" fill="none"/><line y2="-32190" y1="-31044" x2="-27756" x1="-27756" fill="none"/><line y2="-32046" y1="-31185" x2="-27588" x1="-27588" fill="none"/><line y2="-31044" y1="-30469" x2="-29723" x1="-30706" fill="none"/><line y2="-30824" y1="-30394" x2="-29758" x1="-30495" fill="none"/><line y2="-29325" y1="-30469" x2="-26774" x1="-26774" fill="none"/><line y2="-27603" y1="-27603" x2="-29723" x1="-27947" fill="none"/><line y2="-30469" y1="-29325" x2="-30706" x1="-30706" fill="none"/><line y2="-30469" y1="-31044" x2="-26774" x1="-25792" fill="none"/><line y2="-30688" y1="-31119" x2="-26739" x1="-26000" fill="none"/><line y2="-32762" y1="-32190" x2="-26774" x1="-27756" fill="none"/><line y2="-31044" y1="-32190" x2="-25792" x1="-25792" fill="none"/><line y2="-32190" y1="-32762" x2="-25792" x1="-26774" fill="none"/><line y2="-32115" y1="-32543" x2="-26000" x1="-26739" fill="none"/><line y2="-30885" y1="-30469" x2="-31425" x1="-30706" fill="none"/><line y2="-30636" y1="-30885" x2="-32231" x1="-31800" fill="none"/><line y2="-31873" y1="-31044" x2="-29723" x1="-29723" fill="none"/><line y2="-27002" y1="-27554" x2="-30226" x1="-29674" fill="none"/><line y2="-27100" y1="-27652" x2="-30324" x1="-29772" fill="none"/><text y="-31913" xml:space="preserve" x="-29874" stroke="none" font-size="433.3333" font-family="sans-serif">OH</text><text y="-26684" xml:space="preserve" x="-30616" stroke="none" font-size="433.3333" font-family="sans-serif">O</text><text y="-30815" xml:space="preserve" x="-31763" stroke="none" font-size="433.3333" font-family="sans-serif">O</text><text y="-30238" xml:space="preserve" x="-32762" stroke="none" font-size="433.3333" font-family="sans-serif">CH</text><text y="-30148" xml:space="preserve" x="-32185" stroke="none" font-size="313.3333" font-family="sans-serif">3</text><text y="-27424" xml:space="preserve" x="-27909" stroke="none" font-size="433.3333" font-family="sans-serif">NH</text></g></g></svg>