<svg width="183.78" viewBox="0 0 6126 3716" text-rendering="auto" stroke-width="1" stroke-opacity="1" stroke-miterlimit="10" stroke-linejoin="miter" stroke-linecap="square" stroke-dashoffset="0" stroke-dasharray="none" stroke="black" shape-rendering="auto" image-rendering="auto" height="111.48" font-weight="normal" font-style="normal" font-size="12" font-family="'Dialog'" fill-opacity="1" fill="black" color-rendering="auto" color-interpolation="auto" xmlns="http://www.w3.org/2000/svg"><g><g stroke="white" fill="white"><rect y="0" x="0" width="6126" stroke="none" height="3716"/></g><g transform="translate(32866,32758)" text-rendering="geometricPrecision" stroke-width="44" stroke-linejoin="round" stroke-linecap="round"><line y2="-30850" y1="-29715" x2="-28981" x1="-28981" fill="none"/><line y2="-31419" y1="-30850" x2="-27993" x1="-28981" fill="none"/><line y2="-31202" y1="-30775" x2="-28033" x1="-28773" fill="none"/><line y2="-29715" y1="-29146" x2="-28981" x1="-27993" fill="none"/><line y2="-29790" y1="-29362" x2="-28773" x1="-28033" fill="none"/><line y2="-30960" y1="-31419" x2="-27198" x1="-27993" fill="none"/><line y2="-29146" y1="-29715" x2="-27993" x1="-27011" fill="none"/><line y2="-29715" y1="-30630" x2="-27011" x1="-27011" fill="none"/><line y2="-29827" y1="-30518" x2="-27181" x1="-27181" fill="none"/><line y2="-31376" y1="-30850" x2="-29888" x1="-28981" fill="none"/><line y2="-30850" y1="-31376" x2="-30795" x1="-29888" fill="none"/><line y2="-30795" y1="-31188" x2="-30613" x1="-29931" fill="none"/><line y2="-31376" y1="-30850" x2="-31702" x1="-30795" fill="none"/><line y2="-31070" y1="-31376" x2="-32231" x1="-31702" fill="none"/><line y2="-32202" y1="-31376" x2="-31772" x1="-31772" fill="none"/><line y2="-32202" y1="-31376" x2="-31633" x1="-31633" fill="none"/><text y="-30671" xml:space="preserve" x="-32762" stroke="none" font-size="433.3333" font-family="sans-serif">OH</text><text y="-32242" xml:space="preserve" x="-31855" stroke="none" font-size="433.3333" font-family="sans-serif">O</text><text y="-30671" xml:space="preserve" x="-27164" stroke="none" font-size="433.3333" font-family="sans-serif">N</text></g></g></svg>