<svg width="164.91" viewBox="0 0 5497 4775" text-rendering="auto" stroke-width="1" stroke-opacity="1" stroke-miterlimit="10" stroke-linejoin="miter" stroke-linecap="square" stroke-dashoffset="0" stroke-dasharray="none" stroke="black" shape-rendering="auto" image-rendering="auto" height="143.25" font-weight="normal" font-style="normal" font-size="12" font-family="'Dialog'" fill-opacity="1" fill="black" color-rendering="auto" color-interpolation="auto" xmlns="http://www.w3.org/2000/svg"><g><g stroke="white" fill="white"><rect y="0" x="0" width="5497" stroke="none" height="4775"/></g><g transform="translate(32866,32866)" text-rendering="geometricPrecision" stroke-width="44" stroke-linejoin="round" stroke-linecap="round"><line y2="-29377" y1="-30313" x2="-30749" x1="-30425" fill="none"/><line y2="-30677" y1="-31145" x2="-30538" x1="-31142" fill="none"/><line y2="-29377" y1="-29377" x2="-31994" x1="-30749" fill="none"/><line y2="-29547" y1="-29547" x2="-31838" x1="-30905" fill="none"/><line y2="-31150" y1="-30532" x2="-31517" x1="-32349" fill="none"/><line y2="-30937" y1="-30472" x2="-31520" x1="-32144" fill="none"/><line y2="-30532" y1="-29377" x2="-32349" x1="-31994" fill="none"/><line y2="-31055" y1="-30642" x2="-29443" x1="-30162" fill="none"/><line y2="-28750" y1="-29377" x2="-32450" x1="-31994" fill="none"/><line y2="-32193" y1="-31055" x2="-29443" x1="-29443" fill="none"/><line y2="-32052" y1="-31200" x2="-29273" x1="-29273" fill="none"/><line y2="-31055" y1="-30489" x2="-29443" x1="-28455" fill="none"/><line y2="-32762" y1="-32193" x2="-28455" x1="-29443" fill="none"/><line y2="-30489" y1="-31055" x2="-28455" x1="-27473" fill="none"/><line y2="-30706" y1="-31133" x2="-28418" x1="-27681" fill="none"/><line y2="-32193" y1="-32762" x2="-27473" x1="-28455" fill="none"/><line y2="-32118" y1="-32546" x2="-27681" x1="-28418" fill="none"/><line y2="-31055" y1="-32193" x2="-27473" x1="-27473" fill="none"/><text y="-28351" xml:space="preserve" x="-32762" stroke="none" font-size="433.3333" font-family="sans-serif">NH</text><text y="-28262" xml:space="preserve" x="-32185" stroke="none" font-size="313.3333" font-family="sans-serif">2</text><text y="-30353" xml:space="preserve" x="-30500" stroke="none" font-size="433.3333" font-family="sans-serif">N</text><text y="-31110" xml:space="preserve" x="-31480" stroke="none" font-size="433.3333" font-family="sans-serif">N</text></g></g></svg>