<svg width="408.21" viewBox="0 0 13607 5372" text-rendering="auto" stroke-width="1" stroke-opacity="1" stroke-miterlimit="10" stroke-linejoin="miter" stroke-linecap="square" stroke-dashoffset="0" stroke-dasharray="none" stroke="black" shape-rendering="auto" image-rendering="auto" height="161.16" font-weight="normal" font-style="normal" font-size="12" font-family="'Dialog'" fill-opacity="1" fill="black" color-rendering="auto" color-interpolation="auto" xmlns="http://www.w3.org/2000/svg"><g><g stroke="white" fill="white"><rect y="0" x="0" width="13607" stroke="none" height="5372"/></g><g transform="translate(32866,32866)" text-rendering="geometricPrecision" stroke-width="44" stroke-linejoin="round" stroke-linecap="round"><line y2="-31191" y1="-30622" x2="-25116" x1="-26104" fill="none"/><line y2="-30622" y1="-29703" x2="-26104" x1="-26104" fill="none"/><line y2="-30732" y1="-31191" x2="-24321" x1="-25116" fill="none"/><line y2="-29377" y1="-28917" x2="-25916" x1="-25116" fill="none"/><line y2="-29484" y1="-30402" x2="-24133" x1="-24133" fill="none"/><line y2="-28917" y1="-29484" x2="-25116" x1="-24133" fill="none"/><line y2="-31145" y1="-30622" x2="-27011" x1="-26104" fill="none"/><line y2="-30841" y1="-31145" x2="-27539" x1="-27011" fill="none"/><line y2="-31145" y1="-30732" x2="-28825" x1="-28106" fill="none"/><line y2="-31145" y1="-30732" x2="-23226" x1="-23946" fill="none"/><line y2="-30622" y1="-31145" x2="-22319" x1="-23226" fill="none"/><line y2="-30622" y1="-31145" x2="-29732" x1="-28825" fill="none"/><line y2="-31974" y1="-31145" x2="-28894" x1="-28894" fill="none"/><line y2="-31974" y1="-31145" x2="-28756" x1="-28756" fill="none"/><line y2="-30622" y1="-29484" x2="-22319" x1="-22319" fill="none"/><line y2="-30480" y1="-29628" x2="-22149" x1="-22149" fill="none"/><line y2="-31191" y1="-30622" x2="-21331" x1="-22319" fill="none"/><line y2="-29484" y1="-28917" x2="-22319" x1="-21331" fill="none"/><line y2="-30622" y1="-31191" x2="-20349" x1="-21331" fill="none"/><line y2="-30547" y1="-30974" x2="-20557" x1="-21294" fill="none"/><line y2="-28917" y1="-29484" x2="-21331" x1="-20349" fill="none"/><line y2="-29134" y1="-29562" x2="-21294" x1="-20557" fill="none"/><line y2="-29484" y1="-30622" x2="-20349" x1="-20349" fill="none"/><line y2="-29070" y1="-29484" x2="-19630" x1="-20349" fill="none"/><line y2="-30622" y1="-31191" x2="-29732" x1="-30717" fill="none"/><line y2="-30547" y1="-30974" x2="-29940" x1="-30677" fill="none"/><line y2="-29484" y1="-30622" x2="-29732" x1="-29732" fill="none"/><line y2="-31191" y1="-30622" x2="-30717" x1="-31702" fill="none"/><line y2="-28917" y1="-29484" x2="-30717" x1="-29732" fill="none"/><line y2="-29134" y1="-29562" x2="-30677" x1="-29940" fill="none"/><line y2="-30622" y1="-29484" x2="-31702" x1="-31702" fill="none"/><line y2="-30480" y1="-29628" x2="-31532" x1="-31532" fill="none"/><line y2="-29484" y1="-28917" x2="-31702" x1="-30717" fill="none"/><line y2="-32020" y1="-31191" x2="-30717" x1="-30717" fill="none"/><line y2="-32762" y1="-32346" x2="-31624" x1="-30905" fill="none"/><line y2="-32240" y1="-32762" x2="-32531" x1="-31624" fill="none"/><line y2="-29180" y1="-29484" x2="-32231" x1="-31702" fill="none"/><line y2="-28088" y1="-28917" x2="-30717" x1="-30717" fill="none"/><text y="-30443" xml:space="preserve" x="-28071" stroke="none" font-size="433.3333" font-family="sans-serif">NH</text><text y="-32014" xml:space="preserve" x="-28978" stroke="none" font-size="433.3333" font-family="sans-serif">O</text><text y="-32060" xml:space="preserve" x="-30867" stroke="none" font-size="433.3333" font-family="sans-serif">O</text><text y="-27690" xml:space="preserve" x="-30948" stroke="none" font-size="433.3333" font-family="sans-serif">Cl</text><text y="-28782" xml:space="preserve" x="-32762" stroke="none" font-size="433.3333" font-family="sans-serif">NH</text><text y="-28692" xml:space="preserve" x="-32185" stroke="none" font-size="313.3333" font-family="sans-serif">2</text><text y="-28782" xml:space="preserve" x="-19595" stroke="none" font-size="433.3333" font-family="sans-serif">F</text><text y="-29304" xml:space="preserve" x="-26257" stroke="none" font-size="433.3333" font-family="sans-serif">O</text><text y="-30443" xml:space="preserve" x="-24286" stroke="none" font-size="433.3333" font-family="sans-serif">N</text></g></g></svg>