<svg width="197.58" viewBox="0 0 6586 4145" text-rendering="auto" stroke-width="1" stroke-opacity="1" stroke-miterlimit="10" stroke-linejoin="miter" stroke-linecap="square" stroke-dashoffset="0" stroke-dasharray="none" stroke="black" shape-rendering="auto" image-rendering="auto" height="124.35" font-weight="normal" font-style="normal" font-size="12" font-family="'Dialog'" fill-opacity="1" fill="black" color-rendering="auto" color-interpolation="auto" xmlns="http://www.w3.org/2000/svg"><g><g stroke="white" fill="white"><rect y="0" x="0" width="6586" stroke="none" height="4145"/></g><g transform="translate(32866,32866)" text-rendering="geometricPrecision" stroke-width="44" stroke-linejoin="round" stroke-linecap="round"><line y2="-31018" y1="-31714" x2="-30919" x1="-31821" fill="none"/><line y2="-30971" y1="-31494" x2="-31136" x1="-31812" fill="none"/><line y2="-29954" y1="-31018" x2="-31289" x1="-30919" fill="none"/><line y2="-31714" y1="-31018" x2="-31821" x1="-32762" fill="none"/><line y2="-29954" y1="-29954" x2="-32433" x1="-31289" fill="none"/><line y2="-31018" y1="-29954" x2="-32762" x1="-32433" fill="none"/><line y2="-31543" y1="-31018" x2="-30012" x1="-30919" fill="none"/><line y2="-31018" y1="-31543" x2="-29105" x1="-30012" fill="none"/><line y2="-31543" y1="-31018" x2="-28198" x1="-29105" fill="none"/><line y2="-31018" y1="-31543" x2="-27291" x1="-28198" fill="none"/><line y2="-31543" y1="-31018" x2="-26384" x1="-27291" fill="none"/><line y2="-32762" y1="-31714" x2="-31821" x1="-31821" fill="none"/><line y2="-29356" y1="-29995" x2="-30784" x1="-31231" fill="none"/><line y2="-29276" y1="-29914" x2="-30899" x1="-31347" fill="none"/><text y="-28917" xml:space="preserve" x="-30838" stroke="none" font-size="433.3333" font-family="sans-serif">O</text></g></g></svg>