<svg width="310.32" viewBox="0 0 10344 5849" text-rendering="auto" stroke-width="1" stroke-opacity="1" stroke-miterlimit="10" stroke-linejoin="miter" stroke-linecap="square" stroke-dashoffset="0" stroke-dasharray="none" stroke="black" shape-rendering="auto" image-rendering="auto" height="175.47" font-weight="normal" font-style="normal" font-size="12" font-family="'Dialog'" fill-opacity="1" fill="black" color-rendering="auto" color-interpolation="auto" xmlns="http://www.w3.org/2000/svg"><g><g stroke="white" fill="white"><rect y="0" x="0" width="10344" stroke="none" height="5849"/></g><g transform="translate(32866,32823)" text-rendering="geometricPrecision" stroke-width="44" stroke-linejoin="round" stroke-linecap="round"><line y2="-30578" y1="-30116" x2="-26112" x1="-26907" fill="none"/><line y2="-28969" y1="-30116" x2="-26907" x1="-26907" fill="none"/><line y2="-30116" y1="-30688" x2="-26907" x1="-27889" fill="none"/><line y2="-30041" y1="-30472" x2="-27115" x1="-27851" fill="none"/><line y2="-30116" y1="-30578" x2="-24942" x1="-25737" fill="none"/><line y2="-28969" y1="-28397" x2="-26907" x1="-25924" fill="none"/><line y2="-28397" y1="-28969" x2="-27889" x1="-26907" fill="none"/><line y2="-28614" y1="-29044" x2="-27851" x1="-27115" fill="none"/><line y2="-30688" y1="-30116" x2="-27889" x1="-28871" fill="none"/><line y2="-28969" y1="-30116" x2="-24942" x1="-24942" fill="none"/><line y2="-29114" y1="-29972" x2="-25113" x1="-25113" fill="none"/><line y2="-28397" y1="-28969" x2="-25924" x1="-24942" fill="none"/><line y2="-28969" y1="-28397" x2="-28871" x1="-27889" fill="none"/><line y2="-30116" y1="-28969" x2="-28871" x1="-28871" fill="none"/><line y2="-29972" y1="-29114" x2="-28701" x1="-28701" fill="none"/><line y2="-31737" y1="-30908" x2="-25924" x1="-25924" fill="none"/><line y2="-30532" y1="-30116" x2="-29590" x1="-28871" fill="none"/><line y2="-28446" y1="-28969" x2="-24035" x1="-24942" fill="none"/><line y2="-31517" y1="-30688" x2="-27889" x1="-27889" fill="none"/><line y2="-32092" y1="-31844" x2="-28507" x1="-28077" fill="none"/><line y2="-28553" y1="-28969" x2="-29590" x1="-28871" fill="none"/><line y2="-27568" y1="-28397" x2="-25855" x1="-25855" fill="none"/><line y2="-27568" y1="-28397" x2="-25994" x1="-25994" fill="none"/><line y2="-32719" y1="-31737" x2="-26496" x1="-25924" fill="none"/><line y2="-31737" y1="-32719" x2="-25924" x1="-25352" fill="none"/><line y2="-32719" y1="-32719" x2="-25352" x1="-26496" fill="none"/><line y2="-30041" y1="-30532" x2="-30815" x1="-29966" fill="none"/><line y2="-30859" y1="-31838" x2="-29778" x1="-29778" fill="none"/><line y2="-30639" y1="-30041" x2="-31855" x1="-30815" fill="none"/><line y2="-31838" y1="-32436" x2="-29778" x1="-30815" fill="none"/><line y2="-31618" y1="-30639" x2="-31855" x1="-31855" fill="none"/><line y2="-32436" y1="-32058" x2="-30815" x1="-31474" fill="none"/><line y2="-30116" y1="-30639" x2="-32762" x1="-31855" fill="none"/><line y2="-28862" y1="-28446" x2="-23316" x1="-24035" fill="none"/><line y2="-27617" y1="-28446" x2="-23966" x1="-23966" fill="none"/><line y2="-27617" y1="-28446" x2="-24104" x1="-24104" fill="none"/><text y="-31558" xml:space="preserve" x="-28042" stroke="none" font-size="433.3333" font-family="sans-serif">O</text><text y="-32242" xml:space="preserve" x="-29229" stroke="none" font-size="433.3333" font-family="sans-serif">CH</text><text y="-32153" xml:space="preserve" x="-28652" stroke="none" font-size="313.3333" font-family="sans-serif">3</text><text y="-27170" xml:space="preserve" x="-26078" stroke="none" font-size="433.3333" font-family="sans-serif">O</text><text y="-28790" xml:space="preserve" x="-23281" stroke="none" font-size="433.3333" font-family="sans-serif">OH</text><text y="-27219" xml:space="preserve" x="-24188" stroke="none" font-size="433.3333" font-family="sans-serif">O</text><text y="-28267" xml:space="preserve" x="-29931" stroke="none" font-size="433.3333" font-family="sans-serif">F</text><text y="-30509" xml:space="preserve" x="-26078" stroke="none" font-size="433.3333" font-family="sans-serif">N</text><text y="-30460" xml:space="preserve" x="-29931" stroke="none" font-size="433.3333" font-family="sans-serif">N</text><text y="-31659" xml:space="preserve" x="-32008" stroke="none" font-size="433.3333" font-family="sans-serif">NH</text></g></g></svg>