<svg width="410.7" viewBox="0 0 13690 6150" text-rendering="auto" stroke-width="1" stroke-opacity="1" stroke-miterlimit="10" stroke-linejoin="miter" stroke-linecap="square" stroke-dashoffset="0" stroke-dasharray="none" stroke="black" shape-rendering="auto" image-rendering="auto" height="184.5" font-weight="normal" font-style="normal" font-size="12" font-family="'Dialog'" fill-opacity="1" fill="black" color-rendering="auto" color-interpolation="auto" xmlns="http://www.w3.org/2000/svg"><g><g stroke="white" fill="white"><rect y="0" x="0" width="13690" stroke="none" height="6150"/></g><g transform="translate(32866,32866)" text-rendering="geometricPrecision" stroke-width="44" stroke-linejoin="round" stroke-linecap="round"><line y2="-28392" y1="-29530" x2="-26933" x1="-26933" fill="none"/><line y2="-29530" y1="-30099" x2="-26933" x1="-27918" fill="none"/><line y2="-30099" y1="-29530" x2="-25945" x1="-26933" fill="none"/><line y2="-28392" y1="-28392" x2="-26933" x1="-24962" fill="none"/><line y2="-27822" y1="-28392" x2="-27918" x1="-26933" fill="none"/><line y2="-30099" y1="-29530" x2="-27918" x1="-28903" fill="none"/><line y2="-29530" y1="-30099" x2="-24962" x1="-25945" fill="none"/><line y2="-28392" y1="-29530" x2="-24962" x1="-24962" fill="none"/><line y2="-28392" y1="-27822" x2="-28903" x1="-27918" fill="none"/><line y2="-29530" y1="-28392" x2="-28903" x1="-28903" fill="none"/><line y2="-31145" y1="-30099" x2="-27918" x1="-27918" fill="none"/><line y2="-31015" y1="-30229" x2="-27779" x1="-27779" fill="none"/><line y2="-27869" y1="-28392" x2="-24055" x1="-24962" fill="none"/><line y2="-31670" y1="-31145" x2="-28825" x1="-27918" fill="none"/><line y2="-28392" y1="-27869" x2="-23148" x1="-24055" fill="none"/><line y2="-31145" y1="-31670" x2="-29732" x1="-28825" fill="none"/><line y2="-31093" y1="-31486" x2="-29547" x1="-28868" fill="none"/><line y2="-27869" y1="-28392" x2="-22241" x1="-23148" fill="none"/><line y2="-27814" y1="-28207" x2="-22426" x1="-23105" fill="none"/><line y2="-31145" y1="-31714" x2="-29732" x1="-30714" fill="none"/><line y2="-30009" y1="-31145" x2="-29732" x1="-29732" fill="none"/><line y2="-31714" y1="-31145" x2="-30714" x1="-31702" fill="none"/><line y2="-29440" y1="-30009" x2="-30714" x1="-29732" fill="none"/><line y2="-31145" y1="-30009" x2="-31702" x1="-31702" fill="none"/><line y2="-30009" y1="-29440" x2="-31702" x1="-30714" fill="none"/><line y2="-32762" y1="-31714" x2="-30714" x1="-30714" fill="none"/><line y2="-32762" y1="-31714" x2="-30576" x1="-30576" fill="none"/><line y2="-28392" y1="-27869" x2="-21334" x1="-22241" fill="none"/><line y2="-27869" y1="-28392" x2="-20427" x1="-21334" fill="none"/><line y2="-27869" y1="-27869" x2="-19280" x1="-20427" fill="none"/><line y2="-27869" y1="-26886" x2="-20427" x1="-19855" fill="none"/><line y2="-26886" y1="-27869" x2="-19855" x1="-19280" fill="none"/><polygon stroke-width="1" stroke="none" points=" -26933 -29530 -27002 -30356 -26866 -30359"/><polygon stroke-width="1" points=" -26933 -29530 -27002 -30356 -26866 -30359" fill="none"/><polygon stroke-width="1" stroke="none" points=" -24962 -28392 -25107 -27583 -25240 -27614"/><polygon stroke-width="1" points=" -24962 -28392 -25107 -27583 -25240 -27614" fill="none"/><polygon stroke-width="1" stroke="none" points=" -24055 -27869 -23986 -26820 -24125 -26820"/><polygon stroke-width="1" points=" -24055 -27869 -23986 -26820 -24125 -26820" fill="none"/><polygon stroke-width="1" stroke="none" points=" -30714 -29440 -30645 -28611 -30784 -28611"/><polygon stroke-width="1" points=" -30714 -29440 -30645 -28611 -30784 -28611" fill="none"/><polygon stroke-width="1" stroke="none" points=" -21334 -28392 -21403 -29221 -21265 -29221"/><polygon stroke-width="1" points=" -21334 -28392 -21403 -29221 -21265 -29221" fill="none"/><line y2="-27343" y1="-27346" x2="-27002" x1="-26866" fill="none"/><line y2="-27560" y1="-27562" x2="-26988" x1="-26880" fill="none"/><line y2="-27777" y1="-27779" x2="-26973" x1="-26894" fill="none"/><line y2="-27994" y1="-27995" x2="-26959" x1="-26908" fill="none"/><line y2="-28211" y1="-28211" x2="-26945" x1="-26921" fill="none"/><line y2="-31509" y1="-31390" x2="-32193" x1="-32263" fill="none"/><line y2="-31379" y1="-31303" x2="-32018" x1="-32063" fill="none"/><line y2="-31249" y1="-31215" x2="-31843" x1="-31863" fill="none"/><text y="-29261" xml:space="preserve" x="-21487" stroke="none" font-size="433.3333" font-family="sans-serif">OH</text><text y="-31491" xml:space="preserve" x="-32762" stroke="none" font-size="433.3333" font-family="sans-serif">OH</text><text y="-28212" xml:space="preserve" x="-30867" stroke="none" font-size="433.3333" font-family="sans-serif">OH</text><text y="-30399" xml:space="preserve" x="-27086" stroke="none" font-size="433.3333" font-family="sans-serif">H</text><text y="-27201" xml:space="preserve" x="-25387" stroke="none" font-size="433.3333" font-family="sans-serif">H</text><text y="-30443" xml:space="preserve" x="-28432" stroke="none" font-style="italic" font-size="313.3333" font-family="sans-serif">E</text><text y="-30786" xml:space="preserve" x="-29163" stroke="none" font-style="italic" font-size="313.3333" font-family="sans-serif">E</text><text y="-28342" xml:space="preserve" x="-22631" stroke="none" font-style="italic" font-size="313.3333" font-family="sans-serif">E</text><text y="-27993" xml:space="preserve" x="-24208" stroke="none" font-style="italic" font-size="313.3333" font-family="sans-serif">R</text><text y="-27912" xml:space="preserve" x="-21487" stroke="none" font-style="italic" font-size="313.3333" font-family="sans-serif">S</text><text y="-29206" xml:space="preserve" x="-26837" stroke="none" font-style="italic" font-size="313.3333" font-family="sans-serif">S</text><text y="-28357" xml:space="preserve" x="-27334" stroke="none" font-style="italic" font-size="313.3333" font-family="sans-serif">R</text><text y="-28357" xml:space="preserve" x="-24867" stroke="none" font-style="italic" font-size="313.3333" font-family="sans-serif">R</text><text y="-30824" xml:space="preserve" x="-31604" stroke="none" font-style="italic" font-size="313.3333" font-family="sans-serif">S</text><text y="-29562" xml:space="preserve" x="-30867" stroke="none" font-style="italic" font-size="313.3333" font-family="sans-serif">R</text></g></g></svg>