<svg width="319.53" viewBox="0 0 10651 5943" text-rendering="auto" stroke-width="1" stroke-opacity="1" stroke-miterlimit="10" stroke-linejoin="miter" stroke-linecap="square" stroke-dashoffset="0" stroke-dasharray="none" stroke="black" shape-rendering="auto" image-rendering="auto" height="178.29" font-weight="normal" font-style="normal" font-size="12" font-family="'Dialog'" fill-opacity="1" fill="black" color-rendering="auto" color-interpolation="auto" xmlns="http://www.w3.org/2000/svg"><g><g stroke="white" fill="white"><rect y="0" x="0" width="10651" stroke="none" height="5943"/></g><g transform="translate(32866,32758)" text-rendering="geometricPrecision" stroke-width="44" stroke-linejoin="round" stroke-linecap="round"><line y2="-28238" y1="-28761" x2="-27011" x1="-27918" fill="none"/><line y2="-28345" y1="-28761" x2="-28637" x1="-27918" fill="none"/><line y2="-28761" y1="-28345" x2="-29732" x1="-29013" fill="none"/><line y2="-29810" y1="-28761" x2="-27918" x1="-27918" fill="none"/><line y2="-30333" y1="-29810" x2="-27011" x1="-27918" fill="none"/><line y2="-28654" y1="-28238" x2="-26291" x1="-27011" fill="none"/><line y2="-28238" y1="-28542" x2="-25196" x1="-25722" fill="none"/><line y2="-28761" y1="-28238" x2="-24289" x1="-25196" fill="none"/><line y2="-27409" y1="-28238" x2="-26941" x1="-26941" fill="none"/><line y2="-27409" y1="-28238" x2="-27080" x1="-27080" fill="none"/><line y2="-28761" y1="-29900" x2="-29732" x1="-29732" fill="none"/><line y2="-28903" y1="-29755" x2="-29902" x1="-29902" fill="none"/><line y2="-28192" y1="-28761" x2="-30720" x1="-29732" fill="none"/><line y2="-29900" y1="-30469" x2="-29732" x1="-30720" fill="none"/><line y2="-28761" y1="-28192" x2="-31702" x1="-30720" fill="none"/><line y2="-28836" y1="-28412" x2="-31494" x1="-30758" fill="none"/><line y2="-30469" y1="-29900" x2="-30720" x1="-31702" fill="none"/><line y2="-30249" y1="-29822" x2="-30758" x1="-31494" fill="none"/><line y2="-29900" y1="-28761" x2="-31702" x1="-31702" fill="none"/><line y2="-31514" y1="-30469" x2="-30720" x1="-30720" fill="none"/><line y2="-30316" y1="-29900" x2="-32422" x1="-31702" fill="none"/><line y2="-29900" y1="-28761" x2="-24289" x1="-24289" fill="none"/><line y2="-29755" y1="-28903" x2="-24119" x1="-24119" fill="none"/><line y2="-28761" y1="-28192" x2="-24289" x1="-23301" fill="none"/><line y2="-30469" y1="-29900" x2="-23301" x1="-24289" fill="none"/><line y2="-28192" y1="-28761" x2="-23301" x1="-22319" fill="none"/><line y2="-28412" y1="-28836" x2="-23264" x1="-22527" fill="none"/><line y2="-29900" y1="-30469" x2="-22319" x1="-23301" fill="none"/><line y2="-29822" y1="-30249" x2="-22527" x1="-23264" fill="none"/><line y2="-28761" y1="-29900" x2="-22319" x1="-22319" fill="none"/><line y2="-31930" y1="-31514" x2="-30001" x1="-30720" fill="none"/><line y2="-32202" y1="-31514" x2="-31116" x1="-30720" fill="none"/><line y2="-31514" y1="-31514" x2="-31578" x1="-30720" fill="none"/><text y="-28059" xml:space="preserve" x="-28978" stroke="none" font-size="433.3333" font-family="sans-serif">O</text><text y="-28582" xml:space="preserve" x="-26257" stroke="none" font-size="433.3333" font-family="sans-serif">NH</text><text y="-27011" xml:space="preserve" x="-27164" stroke="none" font-size="433.3333" font-family="sans-serif">O</text><text y="-31861" xml:space="preserve" x="-29963" stroke="none" font-size="433.3333" font-family="sans-serif">F</text><text y="-32242" xml:space="preserve" x="-31396" stroke="none" font-size="433.3333" font-family="sans-serif">F</text><text y="-31335" xml:space="preserve" x="-31919" stroke="none" font-size="433.3333" font-family="sans-serif">F</text><text y="-30243" xml:space="preserve" x="-32762" stroke="none" font-size="433.3333" font-family="sans-serif">F</text></g></g></svg>