<svg width="124.8" viewBox="0 0 4160 4702" text-rendering="auto" stroke-width="1" stroke-opacity="1" stroke-miterlimit="10" stroke-linejoin="miter" stroke-linecap="square" stroke-dashoffset="0" stroke-dasharray="none" stroke="black" shape-rendering="auto" image-rendering="auto" height="141.06" font-weight="normal" font-style="normal" font-size="12" font-family="'Dialog'" fill-opacity="1" fill="black" color-rendering="auto" color-interpolation="auto" xmlns="http://www.w3.org/2000/svg"><g><g stroke="white" fill="white"><rect y="0" x="0" width="4160" stroke="none" height="4702"/></g><g transform="translate(32866,32758)" text-rendering="geometricPrecision" stroke-width="44" stroke-linejoin="round" stroke-linecap="round"><line y2="-30154" y1="-30706" x2="-30630" x1="-31344" fill="none"/><line y2="-30711" y1="-30154" x2="-31720" x1="-32474" fill="none"/><line y2="-29091" y1="-30154" x2="-31000" x1="-30630" fill="none"/><line y2="-30154" y1="-29091" x2="-32474" x1="-32147" fill="none"/><line y2="-29091" y1="-29091" x2="-32147" x1="-31000" fill="none"/><line y2="-31899" y1="-31070" x2="-31532" x1="-31532" fill="none"/><line y2="-28244" y1="-29091" x2="-32762" x1="-32147" fill="none"/><line y2="-28160" y1="-29010" x2="-32650" x1="-32034" fill="none"/><line y2="-32315" y1="-31899" x2="-30812" x1="-31532" fill="none"/><line y2="-31899" y1="-32315" x2="-29718" x1="-30437" fill="none"/><line y2="-32254" y1="-31838" x2="-32286" x1="-31566" fill="none"/><line y2="-32375" y1="-31959" x2="-32216" x1="-31497" fill="none"/><line y2="-32422" y1="-31899" x2="-28810" x1="-29718" fill="none"/><line y2="-30992" y1="-31899" x2="-29195" x1="-29718" fill="none"/><line y2="-30992" y1="-31899" x2="-30240" x1="-29718" fill="none"/><text y="-32242" xml:space="preserve" x="-30778" stroke="none" font-size="433.3333" font-family="sans-serif">O</text><text y="-32242" xml:space="preserve" x="-32592" stroke="none" font-size="433.3333" font-family="sans-serif">O</text><text y="-30671" xml:space="preserve" x="-31685" stroke="none" font-size="433.3333" font-family="sans-serif">N</text></g></g></svg>