<svg width="141.75" viewBox="0 0 4725 4794" text-rendering="auto" stroke-width="1" stroke-opacity="1" stroke-miterlimit="10" stroke-linejoin="miter" stroke-linecap="square" stroke-dashoffset="0" stroke-dasharray="none" stroke="black" shape-rendering="auto" image-rendering="auto" height="143.82" font-weight="normal" font-style="normal" font-size="12" font-family="'Dialog'" fill-opacity="1" fill="black" color-rendering="auto" color-interpolation="auto" xmlns="http://www.w3.org/2000/svg"><g><g stroke="white" fill="white"><rect y="0" x="0" width="4725" stroke="none" height="4794"/></g><g transform="translate(32866,32758)" text-rendering="geometricPrecision" stroke-width="44" stroke-linejoin="round" stroke-linecap="round"><line y2="-28669" y1="-29868" x2="-30509" x1="-30509" fill="none"/><line y2="-29868" y1="-30469" x2="-30509" x1="-31546" fill="none"/><line y2="-30359" y1="-29868" x2="-29654" x1="-30509" fill="none"/><line y2="-30151" y1="-29781" x2="-29677" x1="-30318" fill="none"/><line y2="-28068" y1="-28669" x2="-31546" x1="-30509" fill="none"/><line y2="-28669" y1="-28669" x2="-30509" x1="-28617" fill="none"/><line y2="-28836" y1="-28836" x2="-30272" x1="-28854" fill="none"/><line y2="-30469" y1="-29868" x2="-31546" x1="-32586" fill="none"/><line y2="-30243" y1="-29796" x2="-31590" x1="-32372" fill="none"/><line y2="-29975" y1="-30359" x2="-28617" x1="-29278" fill="none"/><line y2="-28669" y1="-28068" x2="-32586" x1="-31546" fill="none"/><line y2="-28741" y1="-28290" x2="-32372" x1="-31590" fill="none"/><line y2="-28886" y1="-29648" x2="-28429" x1="-28429" fill="none"/><line y2="-29868" y1="-28669" x2="-32586" x1="-32586" fill="none"/><line y2="-31295" y1="-30469" x2="-31546" x1="-31546" fill="none"/><line y2="-31887" y1="-31624" x2="-32188" x1="-31734" fill="none"/><line y2="-32240" y1="-31769" x2="-31211" x1="-31480" fill="none"/><line y2="-32167" y1="-31699" x2="-31087" x1="-31358" fill="none"/><line y2="-31587" y1="-31587" x2="-30685" x1="-31358" fill="none"/><line y2="-31445" y1="-31445" x2="-30685" x1="-31358" fill="none"/><text y="-31335" xml:space="preserve" x="-31699" stroke="none" font-size="433.3333" font-family="sans-serif">S</text><text y="-31904" xml:space="preserve" x="-32762" stroke="none" font-size="433.3333" font-family="sans-serif">Cl</text><text y="-32242" xml:space="preserve" x="-31174" stroke="none" font-size="433.3333" font-family="sans-serif">O</text><text y="-31335" xml:space="preserve" x="-30651" stroke="none" font-size="433.3333" font-family="sans-serif">O</text><text y="-30290" xml:space="preserve" x="-29619" stroke="none" font-size="433.3333" font-family="sans-serif">N</text><text y="-28490" xml:space="preserve" x="-28582" stroke="none" font-size="433.3333" font-family="sans-serif">N</text><text y="-29689" xml:space="preserve" x="-28582" stroke="none" font-size="433.3333" font-family="sans-serif">O</text></g></g></svg>