<svg width="337.02" viewBox="0 0 11234 5036" text-rendering="auto" stroke-width="1" stroke-opacity="1" stroke-miterlimit="10" stroke-linejoin="miter" stroke-linecap="square" stroke-dashoffset="0" stroke-dasharray="none" stroke="black" shape-rendering="auto" image-rendering="auto" height="151.08" font-weight="normal" font-style="normal" font-size="12" font-family="'Dialog'" fill-opacity="1" fill="black" color-rendering="auto" color-interpolation="auto" xmlns="http://www.w3.org/2000/svg"><g><g stroke="white" fill="white"><rect y="0" x="0" width="11234" stroke="none" height="5036"/></g><g transform="translate(32866,32758)" text-rendering="geometricPrecision" stroke-width="44" stroke-linejoin="round" stroke-linecap="round"><line y2="-29146" y1="-29715" x2="-30636" x1="-29654" fill="none"/><line y2="-29362" y1="-29790" x2="-30599" x1="-29862" fill="none"/><line y2="-29715" y1="-30630" x2="-29654" x1="-29654" fill="none"/><line y2="-29715" y1="-29146" x2="-31624" x1="-30636" fill="none"/><line y2="-30960" y1="-31419" x2="-29842" x1="-30636" fill="none"/><line y2="-30870" y1="-31214" x2="-30027" x1="-30622" fill="none"/><line y2="-30850" y1="-29715" x2="-31624" x1="-31624" fill="none"/><line y2="-30708" y1="-29856" x2="-31454" x1="-31454" fill="none"/><line y2="-31419" y1="-30850" x2="-30636" x1="-31624" fill="none"/><line y2="-29299" y1="-29715" x2="-28935" x1="-29654" fill="none"/><line y2="-29715" y1="-29299" x2="-27840" x1="-28556" fill="none"/><line y2="-28316" y1="-29146" x2="-30636" x1="-30636" fill="none"/><line y2="-31176" y1="-30850" x2="-32190" x1="-31624" fill="none"/><line y2="-30850" y1="-29715" x2="-27840" x1="-27840" fill="none"/><line y2="-30708" y1="-29856" x2="-27669" x1="-27669" fill="none"/><line y2="-29715" y1="-29146" x2="-27840" x1="-26852" fill="none"/><line y2="-31419" y1="-30850" x2="-26852" x1="-27840" fill="none"/><line y2="-29146" y1="-29715" x2="-26852" x1="-25870" fill="none"/><line y2="-29362" y1="-29790" x2="-26814" x1="-26075" fill="none"/><line y2="-30850" y1="-31419" x2="-25870" x1="-26852" fill="none"/><line y2="-30775" y1="-31202" x2="-26075" x1="-26814" fill="none"/><line y2="-29715" y1="-30850" x2="-25870" x1="-25870" fill="none"/><line y2="-31266" y1="-30850" x2="-25150" x1="-25870" fill="none"/><line y2="-30850" y1="-31266" x2="-24052" x1="-24772" fill="none"/><line y2="-31376" y1="-30850" x2="-23145" x1="-24052" fill="none"/><line y2="-30960" y1="-31376" x2="-22429" x1="-23145" fill="none"/><line y2="-32202" y1="-31376" x2="-23218" x1="-23218" fill="none"/><line y2="-32202" y1="-31376" x2="-23076" x1="-23076" fill="none"/><polygon stroke-width="1" stroke="none" points=" -24052 -30850 -23986 -29804 -24122 -29801"/><polygon stroke-width="1" points=" -24052 -30850 -23986 -29804 -24122 -29801" fill="none"/><text y="-29010" xml:space="preserve" x="-28897" stroke-width="1" stroke="none" font-size="433.3333" font-family="sans-serif">O</text><text y="-27918" xml:space="preserve" x="-30789" stroke-width="1" stroke="none" font-size="433.3333" font-family="sans-serif">F</text><text y="-31197" xml:space="preserve" x="-32762" stroke-width="1" stroke="none" font-size="433.3333" font-family="sans-serif">Cl</text><text y="-31197" xml:space="preserve" x="-25113" stroke-width="1" stroke="none" font-size="433.3333" font-family="sans-serif">O</text><text y="-30671" xml:space="preserve" x="-22391" stroke-width="1" stroke="none" font-size="433.3333" font-family="sans-serif">OH</text><text y="-32242" xml:space="preserve" x="-23298" stroke-width="1" stroke="none" font-size="433.3333" font-family="sans-serif">O</text><text y="-30671" xml:space="preserve" x="-29804" stroke-width="1" stroke="none" font-size="433.3333" font-family="sans-serif">N</text></g><g transform="translate(32866,32758)" text-rendering="geometricPrecision" stroke-linejoin="round" stroke-linecap="round" font-style="italic" font-size="313.3333" font-family="sans-serif"><text y="-30974" xml:space="preserve" x="-24206" stroke="none">R</text></g></g></svg>