<svg width="281.64" viewBox="0 0 9388 3876" text-rendering="auto" stroke-width="1" stroke-opacity="1" stroke-miterlimit="10" stroke-linejoin="miter" stroke-linecap="square" stroke-dashoffset="0" stroke-dasharray="none" stroke="black" shape-rendering="auto" image-rendering="auto" height="116.28" font-weight="normal" font-style="normal" font-size="12" font-family="'Dialog'" fill-opacity="1" fill="black" color-rendering="auto" color-interpolation="auto" xmlns="http://www.w3.org/2000/svg"><g><g stroke="white" fill="white"><rect y="0" x="0" width="9388" stroke="none" height="3876"/></g><g transform="translate(32866,32866)" text-rendering="geometricPrecision" stroke-width="44" stroke-linejoin="round" stroke-linecap="round"><line y2="-29585" y1="-30532" x2="-30916" x1="-30590" fill="none"/><line y2="-30532" y1="-31150" x2="-30590" x1="-31387" fill="none"/><line y2="-30474" y1="-30940" x2="-30795" x1="-31393" fill="none"/><line y2="-29365" y1="-29365" x2="-32063" x1="-31182" fill="none"/><line y2="-31156" y1="-30671" x2="-31766" x1="-32422" fill="none"/><line y2="-30313" y1="-29585" x2="-32543" x1="-32318" fill="none"/><line y2="-30272" y1="-29726" x2="-32352" x1="-32182" fill="none"/><line y2="-31055" y1="-30532" x2="-29683" x1="-30590" fill="none"/><line y2="-31055" y1="-30489" x2="-29683" x1="-28701" fill="none"/><line y2="-31133" y1="-30706" x2="-29475" x1="-28738" fill="none"/><line y2="-32193" y1="-31055" x2="-29683" x1="-29683" fill="none"/><line y2="-30489" y1="-31055" x2="-28701" x1="-27713" fill="none"/><line y2="-32762" y1="-32193" x2="-28701" x1="-29683" fill="none"/><line y2="-32546" y1="-32118" x2="-28738" x1="-29475" fill="none"/><line y2="-31055" y1="-32193" x2="-27713" x1="-27713" fill="none"/><line y2="-31200" y1="-32052" x2="-27883" x1="-27883" fill="none"/><line y2="-32193" y1="-32762" x2="-27713" x1="-28701" fill="none"/><line y2="-30642" y1="-31055" x2="-26993" x1="-27713" fill="none"/><line y2="-31055" y1="-30752" x2="-25898" x1="-26427" fill="none"/><line y2="-30532" y1="-31055" x2="-24991" x1="-25898" fill="none"/><line y2="-31884" y1="-31055" x2="-25968" x1="-25968" fill="none"/><line y2="-31884" y1="-31055" x2="-25829" x1="-25829" fill="none"/><line y2="-30948" y1="-30532" x2="-24272" x1="-24991" fill="none"/><line y2="-29703" y1="-30532" x2="-24922" x1="-24922" fill="none"/><line y2="-29703" y1="-30532" x2="-25061" x1="-25061" fill="none"/><text y="-30353" xml:space="preserve" x="-26959" stroke="none" font-size="433.3333" font-family="sans-serif">NH</text><text y="-31925" xml:space="preserve" x="-26052" stroke="none" font-size="433.3333" font-family="sans-serif">O</text><text y="-30876" xml:space="preserve" x="-24237" stroke="none" font-size="433.3333" font-family="sans-serif">OH</text><text y="-29304" xml:space="preserve" x="-25144" stroke="none" font-size="433.3333" font-family="sans-serif">O</text><text y="-29186" xml:space="preserve" x="-31145" stroke="none" font-size="433.3333" font-family="sans-serif">NH</text><text y="-31116" xml:space="preserve" x="-31728" stroke="none" font-size="433.3333" font-family="sans-serif">N</text><text y="-29186" xml:space="preserve" x="-32404" stroke="none" font-size="433.3333" font-family="sans-serif">N</text><text y="-30353" xml:space="preserve" x="-32762" stroke="none" font-size="433.3333" font-family="sans-serif">N</text></g></g></svg>