<svg width="229.44" viewBox="0 0 7648 2810" text-rendering="auto" stroke-width="1" stroke-opacity="1" stroke-miterlimit="10" stroke-linejoin="miter" stroke-linecap="square" stroke-dashoffset="0" stroke-dasharray="none" stroke="black" shape-rendering="auto" image-rendering="auto" height="84.3" font-weight="normal" font-style="normal" font-size="12" font-family="'Dialog'" fill-opacity="1" fill="black" color-rendering="auto" color-interpolation="auto" xmlns="http://www.w3.org/2000/svg"><g><g stroke="white" fill="white"><rect y="0" x="0" width="7648" stroke="none" height="2810"/></g><g transform="translate(32866,32866)" text-rendering="geometricPrecision" stroke-width="44" stroke-linejoin="round" stroke-linecap="round"><line y2="-31191" y1="-31714" x2="-30948" x1="-31855" fill="none"/><line y2="-31136" y1="-31529" x2="-31133" x1="-31812" fill="none"/><line y2="-31714" y1="-31191" x2="-30041" x1="-30948" fill="none"/><line y2="-31191" y1="-31714" x2="-29134" x1="-30041" fill="none"/><line y2="-31714" y1="-31191" x2="-28227" x1="-29134" fill="none"/><line y2="-31191" y1="-31714" x2="-32762" x1="-31855" fill="none"/><line y2="-32762" y1="-31714" x2="-31855" x1="-31855" fill="none"/><line y2="-31208" y1="-31714" x2="-27311" x1="-28227" fill="none"/><line y2="-30160" y1="-31208" x2="-27311" x1="-27311" fill="none"/><line y2="-30160" y1="-31208" x2="-27450" x1="-27450" fill="none"/><line y2="-32762" y1="-31714" x2="-28227" x1="-28227" fill="none"/><line y2="-32130" y1="-31714" x2="-27508" x1="-28227" fill="none"/><line y2="-31714" y1="-32130" x2="-26413" x1="-27132" fill="none"/><line y2="-32130" y1="-31714" x2="-25693" x1="-26413" fill="none"/><line y2="-31959" y1="-31647" x2="-25714" x1="-26254" fill="none"/><text y="-32060" xml:space="preserve" x="-27473" stroke="none" font-size="433.3333" font-family="sans-serif">O</text><text y="-32060" xml:space="preserve" x="-25659" stroke="none" font-size="433.3333" font-family="sans-serif">O</text></g></g></svg>