<svg width="173.25" viewBox="0 0 5775 3801" text-rendering="auto" stroke-width="1" stroke-opacity="1" stroke-miterlimit="10" stroke-linejoin="miter" stroke-linecap="square" stroke-dashoffset="0" stroke-dasharray="none" stroke="black" shape-rendering="auto" image-rendering="auto" height="114.03" font-weight="normal" font-style="normal" font-size="12" font-family="'Dialog'" fill-opacity="1" fill="black" color-rendering="auto" color-interpolation="auto" xmlns="http://www.w3.org/2000/svg"><g><g stroke="white" fill="white"><rect y="0" x="0" width="5775" stroke="none" height="3801"/></g><g transform="translate(32866,32866)" text-rendering="geometricPrecision" stroke-width="44" stroke-linejoin="round" stroke-linecap="round"><line y2="-30009" y1="-31145" x2="-29654" x1="-29654" fill="none"/><line y2="-31145" y1="-31714" x2="-29654" x1="-30636" fill="none"/><line y2="-31070" y1="-31497" x2="-29859" x1="-30599" fill="none"/><line y2="-31714" y1="-31145" x2="-28666" x1="-29654" fill="none"/><line y2="-29547" y1="-30009" x2="-30448" x1="-29654" fill="none"/><line y2="-29752" y1="-30099" x2="-30434" x1="-29836" fill="none"/><line y2="-30009" y1="-30009" x2="-29654" x1="-27869" fill="none"/><line y2="-31714" y1="-31145" x2="-30636" x1="-31624" fill="none"/><line y2="-31145" y1="-31714" x2="-27681" x1="-28666" fill="none"/><line y2="-31070" y1="-31497" x2="-27889" x1="-28628" fill="none"/><line y2="-30009" y1="-29547" x2="-31624" x1="-30824" fill="none"/><line y2="-30229" y1="-31145" x2="-27681" x1="-27681" fill="none"/><line y2="-31145" y1="-30009" x2="-31624" x1="-31624" fill="none"/><line y2="-31003" y1="-30151" x2="-31454" x1="-31454" fill="none"/><line y2="-32762" y1="-31714" x2="-30636" x1="-30636" fill="none"/><line y2="-31474" y1="-31145" x2="-32188" x1="-31624" fill="none"/><text y="-31491" xml:space="preserve" x="-32762" stroke="none" font-size="433.3333" font-family="sans-serif">Br</text><text y="-29261" xml:space="preserve" x="-30789" stroke="none" font-size="433.3333" font-family="sans-serif">N</text><text y="-29830" xml:space="preserve" x="-27834" stroke="none" font-size="433.3333" font-family="sans-serif">NH</text></g></g></svg>