<svg width="433.89" viewBox="0 0 14463 6651" text-rendering="auto" stroke-width="1" stroke-opacity="1" stroke-miterlimit="10" stroke-linejoin="miter" stroke-linecap="square" stroke-dashoffset="0" stroke-dasharray="none" stroke="black" shape-rendering="auto" image-rendering="auto" height="199.53" font-weight="normal" font-style="normal" font-size="12" font-family="'Dialog'" fill-opacity="1" fill="black" color-rendering="auto" color-interpolation="auto" xmlns="http://www.w3.org/2000/svg"><g><g stroke="white" fill="white"><rect y="0" x="0" width="14463" stroke="none" height="6651"/></g><g transform="translate(32866,32758)" text-rendering="geometricPrecision" stroke-width="44" stroke-linejoin="round" stroke-linecap="round"><line y2="-29189" y1="-29605" x2="-24289" x1="-25009" fill="none"/><line y2="-29715" y1="-29189" x2="-23382" x1="-24289" fill="none"/><line y2="-29189" y1="-29715" x2="-22475" x1="-23382" fill="none"/><line y2="-29189" y1="-29605" x2="-26104" x1="-25384" fill="none"/><line y2="-29715" y1="-29189" x2="-27011" x1="-26104" fill="none"/><line y2="-29299" y1="-29715" x2="-27730" x1="-27011" fill="none"/><line y2="-29715" y1="-29299" x2="-28825" x1="-28106" fill="none"/><line y2="-30541" y1="-29934" x2="-25196" x1="-25196" fill="none"/><line y2="-29189" y1="-28054" x2="-22475" x1="-22475" fill="none"/><line y2="-29047" y1="-28195" x2="-22305" x1="-22305" fill="none"/><line y2="-29758" y1="-29189" x2="-21487" x1="-22475" fill="none"/><line y2="-28054" y1="-27484" x2="-22475" x1="-21487" fill="none"/><line y2="-29189" y1="-29758" x2="-20505" x1="-21487" fill="none"/><line y2="-29114" y1="-29541" x2="-20713" x1="-21450" fill="none"/><line y2="-27484" y1="-28054" x2="-21487" x1="-20505" fill="none"/><line y2="-27701" y1="-28129" x2="-21450" x1="-20713" fill="none"/><line y2="-28054" y1="-29189" x2="-20505" x1="-20505" fill="none"/><line y2="-27638" y1="-28054" x2="-19786" x1="-20505" fill="none"/><line y2="-29715" y1="-30850" x2="-28825" x1="-28825" fill="none"/><line y2="-29856" y1="-30708" x2="-28995" x1="-28995" fill="none"/><line y2="-29146" y1="-29715" x2="-29810" x1="-28825" fill="none"/><line y2="-30850" y1="-31419" x2="-28825" x1="-29810" fill="none"/><line y2="-29715" y1="-29146" x2="-30795" x1="-29810" fill="none"/><line y2="-29790" y1="-29362" x2="-30587" x1="-29848" fill="none"/><line y2="-31419" y1="-30850" x2="-29810" x1="-30795" fill="none"/><line y2="-31202" y1="-30775" x2="-29848" x1="-30587" fill="none"/><line y2="-30850" y1="-29715" x2="-30795" x1="-30795" fill="none"/><line y2="-31266" y1="-30850" x2="-31514" x1="-30795" fill="none"/><line y2="-26699" y1="-27308" x2="-19528" x1="-19528" fill="none"/><line y2="-26699" y1="-27308" x2="-19667" x1="-19667" fill="none"/><line y2="-28004" y1="-27698" x2="-18913" x1="-19445" fill="none"/><line y2="-27883" y1="-27577" x2="-18844" x1="-19375" fill="none"/><line y2="-32202" y1="-31595" x2="-31774" x1="-31774" fill="none"/><line y2="-32202" y1="-31595" x2="-31633" x1="-31633" fill="none"/><line y2="-30899" y1="-31205" x2="-32387" x1="-31855" fill="none"/><line y2="-31020" y1="-31327" x2="-32456" x1="-31928" fill="none"/><text y="-29536" xml:space="preserve" x="-25350" stroke="none" font-size="433.3333" font-family="sans-serif">N</text><text y="-30581" xml:space="preserve" x="-25350" stroke="none" font-size="433.3333" font-family="sans-serif">CH</text><text y="-30492" xml:space="preserve" x="-24772" stroke="none" font-size="313.3333" font-family="sans-serif">3</text><text y="-29010" xml:space="preserve" x="-28071" stroke="none" font-size="433.3333" font-family="sans-serif">O</text><text y="-27349" xml:space="preserve" x="-19751" stroke="none" font-size="433.3333" font-family="sans-serif">N</text><text y="-26303" xml:space="preserve" x="-19751" stroke="none" font-size="433.3333" font-family="sans-serif">O</text><text y="-27874" xml:space="preserve" x="-18844" stroke="none" font-size="433.3333" font-family="sans-serif">O</text><text y="-31197" xml:space="preserve" x="-31855" stroke="none" font-size="433.3333" font-family="sans-serif">N</text><text y="-32242" xml:space="preserve" x="-31855" stroke="none" font-size="433.3333" font-family="sans-serif">O</text><text y="-30671" xml:space="preserve" x="-32762" stroke="none" font-size="433.3333" font-family="sans-serif">O</text></g></g></svg>