<svg width="357.3" viewBox="0 0 11910 5462" text-rendering="auto" stroke-width="1" stroke-opacity="1" stroke-miterlimit="10" stroke-linejoin="miter" stroke-linecap="square" stroke-dashoffset="0" stroke-dasharray="none" stroke="black" shape-rendering="auto" image-rendering="auto" height="163.86" font-weight="normal" font-style="normal" font-size="12" font-family="'Dialog'" fill-opacity="1" fill="black" color-rendering="auto" color-interpolation="auto" xmlns="http://www.w3.org/2000/svg"><g><g stroke="white" fill="white"><rect y="0" x="0" width="11910" stroke="none" height="5462"/></g><g transform="translate(32866,32866)" text-rendering="geometricPrecision" stroke-width="44" stroke-linejoin="round" stroke-linecap="round"><line y2="-30532" y1="-31055" x2="-26257" x1="-27164" fill="none"/><line y2="-30642" y1="-31055" x2="-27883" x1="-27164" fill="none"/><line y2="-31055" y1="-30642" x2="-28978" x1="-28259" fill="none"/><line y2="-30532" y1="-31055" x2="-29885" x1="-28978" fill="none"/><line y2="-31055" y1="-30532" x2="-30792" x1="-29885" fill="none"/><line y2="-31884" y1="-31055" x2="-27233" x1="-27233" fill="none"/><line y2="-31884" y1="-31055" x2="-27092" x1="-27092" fill="none"/><line y2="-31055" y1="-30532" x2="-25350" x1="-26257" fill="none"/><line y2="-30870" y1="-30477" x2="-25393" x1="-26072" fill="none"/><line y2="-31055" y1="-32193" x2="-30792" x1="-30792" fill="none"/><line y2="-31200" y1="-32052" x2="-30963" x1="-30963" fill="none"/><line y2="-30489" y1="-31055" x2="-31774" x1="-30792" fill="none"/><line y2="-32193" y1="-32762" x2="-30792" x1="-31774" fill="none"/><line y2="-31055" y1="-30489" x2="-32762" x1="-31774" fill="none"/><line y2="-31133" y1="-30706" x2="-32554" x1="-31812" fill="none"/><line y2="-32762" y1="-32193" x2="-31774" x1="-32762" fill="none"/><line y2="-32543" y1="-32118" x2="-31812" x1="-32554" fill="none"/><line y2="-32193" y1="-31055" x2="-32762" x1="-32762" fill="none"/><line y2="-30532" y1="-31055" x2="-24442" x1="-25350" fill="none"/><line y2="-30532" y1="-29394" x2="-24442" x1="-24442" fill="none"/><line y2="-30391" y1="-29538" x2="-24272" x1="-24272" fill="none"/><line y2="-31101" y1="-30532" x2="-23454" x1="-24442" fill="none"/><line y2="-29394" y1="-28828" x2="-24442" x1="-23454" fill="none"/><line y2="-30532" y1="-31101" x2="-22472" x1="-23454" fill="none"/><line y2="-30457" y1="-30885" x2="-22677" x1="-23417" fill="none"/><line y2="-28828" y1="-29394" x2="-23454" x1="-22472" fill="none"/><line y2="-29044" y1="-29472" x2="-23417" x1="-22677" fill="none"/><line y2="-29394" y1="-30532" x2="-22472" x1="-22472" fill="none"/><line y2="-27999" y1="-28828" x2="-23454" x1="-23454" fill="none"/><line y2="-28981" y1="-29394" x2="-21753" x1="-22472" fill="none"/><text y="-30353" xml:space="preserve" x="-28221" stroke="none" font-size="433.3333" font-family="sans-serif">O</text><text y="-31925" xml:space="preserve" x="-27314" stroke="none" font-size="433.3333" font-family="sans-serif">O</text><text y="-27600" xml:space="preserve" x="-23608" stroke="none" font-size="433.3333" font-family="sans-serif">OH</text><text y="-28692" xml:space="preserve" x="-21715" stroke="none" font-size="433.3333" font-family="sans-serif">OH</text><text y="-31003" xml:space="preserve" x="-26179" stroke="none" font-style="italic" font-size="313.3333" font-family="sans-serif">E</text></g></g></svg>