<svg width="308.16" viewBox="0 0 10272 3989" text-rendering="auto" stroke-width="1" stroke-opacity="1" stroke-miterlimit="10" stroke-linejoin="miter" stroke-linecap="square" stroke-dashoffset="0" stroke-dasharray="none" stroke="black" shape-rendering="auto" image-rendering="auto" height="119.67" font-weight="normal" font-style="normal" font-size="12" font-family="'Dialog'" fill-opacity="1" fill="black" color-rendering="auto" color-interpolation="auto" xmlns="http://www.w3.org/2000/svg"><g><g stroke="white" fill="white"><rect y="0" x="0" width="10272" stroke="none" height="3989"/></g><g transform="translate(32866,32866)" text-rendering="geometricPrecision" stroke-width="44" stroke-linejoin="round" stroke-linecap="round"><line y2="-31379" y1="-32268" x2="-30252" x1="-30454" fill="none"/><line y2="-30269" y1="-30940" x2="-30914" x1="-30376" fill="none"/><line y2="-32268" y1="-32762" x2="-30454" x1="-31483" fill="none"/><line y2="-30269" y1="-30269" x2="-32049" x1="-30914" fill="none"/><line y2="-32762" y1="-32268" x2="-31483" x1="-32505" fill="none"/><line y2="-31159" y1="-30269" x2="-32762" x1="-32049" fill="none"/><line y2="-32268" y1="-31159" x2="-32505" x1="-32762" fill="none"/><line y2="-30743" y1="-31049" x2="-29484" x1="-30015" fill="none"/><line y2="-31159" y1="-30853" x2="-28389" x1="-28914" fill="none"/><line y2="-30743" y1="-31159" x2="-27669" x1="-28389" fill="none"/><line y2="-31101" y1="-30853" x2="-26670" x1="-27100" fill="none"/><line y2="-31988" y1="-31159" x2="-28458" x1="-28458" fill="none"/><line y2="-31988" y1="-31159" x2="-28316" x1="-28316" fill="none"/><line y2="-30685" y1="-31101" x2="-25575" x1="-26294" fill="none"/><line y2="-31933" y1="-31465" x2="-26147" x1="-26418" fill="none"/><line y2="-31864" y1="-31396" x2="-26026" x1="-26294" fill="none"/><line y2="-31864" y1="-31396" x2="-26941" x1="-26670" fill="none"/><line y2="-31933" y1="-31465" x2="-26817" x1="-26548" fill="none"/><line y2="-30685" y1="-29550" x2="-25575" x1="-25575" fill="none"/><line y2="-30544" y1="-29692" x2="-25404" x1="-25404" fill="none"/><line y2="-31254" y1="-30685" x2="-24590" x1="-25575" fill="none"/><line y2="-29550" y1="-28981" x2="-25575" x1="-24590" fill="none"/><line y2="-30685" y1="-31254" x2="-23605" x1="-24590" fill="none"/><line y2="-30610" y1="-31038" x2="-23813" x1="-24552" fill="none"/><line y2="-28981" y1="-29550" x2="-24590" x1="-23605" fill="none"/><line y2="-29198" y1="-29625" x2="-24552" x1="-23813" fill="none"/><line y2="-29550" y1="-30685" x2="-23605" x1="-23605" fill="none"/><line y2="-29024" y1="-29550" x2="-22698" x1="-23605" fill="none"/><text y="-31032" xml:space="preserve" x="-26635" stroke="none" font-size="433.3333" font-family="sans-serif">S</text><text y="-30454" xml:space="preserve" x="-27632" stroke="none" font-size="433.3333" font-family="sans-serif">NH</text><text y="-31939" xml:space="preserve" x="-26112" stroke="none" font-size="433.3333" font-family="sans-serif">O</text><text y="-31939" xml:space="preserve" x="-27158" stroke="none" font-size="433.3333" font-family="sans-serif">O</text><text y="-30454" xml:space="preserve" x="-29446" stroke="none" font-size="433.3333" font-family="sans-serif">NH</text><text y="-32029" xml:space="preserve" x="-28539" stroke="none" font-size="433.3333" font-family="sans-serif">O</text><text y="-30980" xml:space="preserve" x="-30353" stroke="none" font-size="433.3333" font-family="sans-serif">N</text></g></g></svg>