<svg width="338.82" viewBox="0 0 11294 10272" text-rendering="auto" stroke-width="1" stroke-opacity="1" stroke-miterlimit="10" stroke-linejoin="miter" stroke-linecap="square" stroke-dashoffset="0" stroke-dasharray="none" stroke="black" shape-rendering="auto" image-rendering="auto" height="308.16" font-weight="normal" font-style="normal" font-size="12" font-family="'Dialog'" fill-opacity="1" fill="black" color-rendering="auto" color-interpolation="auto" xmlns="http://www.w3.org/2000/svg"><g><g stroke="white" fill="white"><rect y="0" x="0" width="11294" stroke="none" height="10272"/></g><g transform="translate(32866,32866)" text-rendering="geometricPrecision" stroke-width="44" stroke-linejoin="round" stroke-linecap="round"><line y2="-31191" y1="-30619" x2="-29663" x1="-30645" fill="none"/><line y2="-29472" y1="-30619" x2="-30645" x1="-30645" fill="none"/><line y2="-30619" y1="-31191" x2="-30645" x1="-31627" fill="none"/><line y2="-30544" y1="-30971" x2="-30853" x1="-31590" fill="none"/><line y2="-30619" y1="-31191" x2="-28680" x1="-29663" fill="none"/><line y2="-29472" y1="-28897" x2="-30645" x1="-29663" fill="none"/><line y2="-29547" y1="-29117" x2="-30437" x1="-29700" fill="none"/><line y2="-28897" y1="-29472" x2="-31627" x1="-30645" fill="none"/><line y2="-31191" y1="-30619" x2="-31627" x1="-32609" fill="none"/><line y2="-29692" y1="-30619" x2="-28680" x1="-28680" fill="none"/><line y2="-28897" y1="-29362" x2="-29663" x1="-28868" fill="none"/><line y2="-29362" y1="-28897" x2="-32422" x1="-31627" fill="none"/><line y2="-30619" y1="-29692" x2="-32609" x1="-32609" fill="none"/><line y2="-30619" y1="-31032" x2="-26866" x1="-27586" fill="none"/><line y2="-32762" y1="-32240" x2="-28756" x1="-29663" fill="none"/><line y2="-32641" y1="-32118" x2="-28686" x1="-29593" fill="none"/><line y2="-28071" y1="-28897" x2="-31558" x1="-31558" fill="none"/><line y2="-28071" y1="-28897" x2="-31696" x1="-31696" fill="none"/><line y2="-30619" y1="-29700" x2="-26866" x1="-26866" fill="none"/><line y2="-31185" y1="-30619" x2="-25881" x1="-26866" fill="none"/><line y2="-29371" y1="-28912" x2="-26678" x1="-25881" fill="none"/><line y2="-30619" y1="-31185" x2="-24896" x1="-25881" fill="none"/><line y2="-28912" y1="-29481" x2="-25881" x1="-24896" fill="none"/><line y2="-29481" y1="-30619" x2="-24896" x1="-24896" fill="none"/><line y2="-27447" y1="-27863" x2="-25162" x1="-25881" fill="none"/><line y2="-25832" y1="-26291" x2="-24180" x1="-24974" fill="none"/><line y2="-26291" y1="-25722" x2="-24974" x1="-25962" fill="none"/><line y2="-24587" y1="-25503" x2="-23992" x1="-23992" fill="none"/><line y2="-25722" y1="-24587" x2="-25962" x1="-25962" fill="none"/><line y2="-24018" y1="-24587" x2="-24974" x1="-23992" fill="none"/><line y2="-24587" y1="-24018" x2="-25962" x1="-24974" fill="none"/><line y2="-24477" y1="-24061" x2="-22365" x1="-23085" fill="none"/><polygon stroke-width="1" stroke="none" points=" -29663 -31191 -29732 -32237 -29593 -32240"/><polygon stroke-width="1" points=" -29663 -31191 -29732 -32237 -29593 -32240" fill="none"/><polygon stroke-width="1" stroke="none" points=" -25881 -28912 -25812 -27863 -25950 -27863"/><polygon stroke-width="1" points=" -25881 -28912 -25812 -27863 -25950 -27863" fill="none"/><polygon stroke-width="1" stroke="none" points=" -24896 -30619 -24211 -31093 -24142 -30974"/><polygon stroke-width="1" points=" -24896 -30619 -24211 -31093 -24142 -30974" fill="none"/><polygon stroke-width="1" stroke="none" points=" -25962 -25722 -26522 -25968 -26453 -26086"/><polygon stroke-width="1" points=" -25962 -25722 -26522 -25968 -26453 -26086" fill="none"/><polygon stroke-width="1" stroke="none" points=" -24974 -24018 -24905 -23189 -25043 -23189"/><polygon stroke-width="1" points=" -24974 -24018 -24905 -23189 -25043 -23189" fill="none"/><line y2="-30974" y1="-31093" x2="-27926" x1="-27996" fill="none"/><line y2="-30881" y1="-30969" x2="-28123" x1="-28175" fill="none"/><line y2="-30789" y1="-30846" x2="-28320" x1="-28353" fill="none"/><line y2="-30696" y1="-30722" x2="-28517" x1="-28532" fill="none"/><line y2="-27120" y1="-27120" x2="-24905" x1="-25043" fill="none"/><line y2="-26903" y1="-26903" x2="-24923" x1="-25025" fill="none"/><line y2="-26687" y1="-26687" x2="-24941" x1="-25007" fill="none"/><line y2="-26470" y1="-26470" x2="-24959" x1="-24989" fill="none"/><line y2="-32014" y1="-32014" x2="-25812" x1="-25950" fill="none"/><line y2="-31797" y1="-31797" x2="-25830" x1="-25932" fill="none"/><line y2="-31581" y1="-31581" x2="-25848" x1="-25914" fill="none"/><line y2="-31364" y1="-31364" x2="-25866" x1="-25896" fill="none"/><line y2="-29004" y1="-29125" x2="-24208" x1="-24142" fill="none"/><line y2="-29128" y1="-29218" x2="-24387" x1="-24338" fill="none"/><line y2="-29252" y1="-29310" x2="-24566" x1="-24534" fill="none"/><line y2="-29376" y1="-29403" x2="-24745" x1="-24731" fill="none"/><line y2="-31445" y1="-31445" x2="-26797" x1="-26936" fill="none"/><line y2="-31228" y1="-31228" x2="-26815" x1="-26918" fill="none"/><line y2="-31012" y1="-31012" x2="-26833" x1="-26899" fill="none"/><line y2="-30795" y1="-30795" x2="-26851" x1="-26881" fill="none"/><line y2="-24000" y1="-24122" x2="-23116" x1="-23050" fill="none"/><line y2="-24121" y1="-24218" x2="-23297" x1="-23244" fill="none"/><line y2="-24242" y1="-24314" x2="-23477" x1="-23439" fill="none"/><line y2="-24363" y1="-24410" x2="-23658" x1="-23633" fill="none"/><line y2="-24484" y1="-24506" x2="-23839" x1="-23827" fill="none"/><line y2="-24341" y1="-24223" x2="-26525" x1="-26453" fill="none"/><line y2="-24429" y1="-24353" x2="-26325" x1="-26278" fill="none"/><line y2="-24516" y1="-24482" x2="-26124" x1="-26104" fill="none"/><text y="-30963" xml:space="preserve" x="-27924" stroke="none" font-size="433.3333" font-family="sans-serif">O</text><text y="-27672" xml:space="preserve" x="-31780" stroke="none" font-size="433.3333" font-family="sans-serif">O</text><text y="-32055" xml:space="preserve" x="-26034" stroke="none" font-size="433.3333" font-family="sans-serif">OH</text><text y="-27161" xml:space="preserve" x="-25127" stroke="none" font-size="433.3333" font-family="sans-serif">O</text><text y="-30963" xml:space="preserve" x="-24139" stroke="none" font-size="433.3333" font-family="sans-serif">OH</text><text y="-28779" xml:space="preserve" x="-24139" stroke="none" font-size="433.3333" font-family="sans-serif">OH</text><text y="-26069" xml:space="preserve" x="-27022" stroke="none" font-size="433.3333" font-family="sans-serif">OH</text><text y="-24408" xml:space="preserve" x="-22331" stroke="none" font-size="433.3333" font-family="sans-serif">OH</text><text y="-23882" xml:space="preserve" x="-27022" stroke="none" font-size="433.3333" font-family="sans-serif">OH</text><text y="-22790" xml:space="preserve" x="-25127" stroke="none" font-size="433.3333" font-family="sans-serif">OH</text><text y="-29293" xml:space="preserve" x="-28831" stroke="none" font-size="433.3333" font-family="sans-serif">O</text><text y="-29293" xml:space="preserve" x="-32762" stroke="none" font-size="433.3333" font-family="sans-serif">O</text><text y="-29302" xml:space="preserve" x="-27016" stroke="none" font-size="433.3333" font-family="sans-serif">O</text><text y="-25543" xml:space="preserve" x="-24145" stroke="none" font-size="433.3333" font-family="sans-serif">O</text><text y="-31486" xml:space="preserve" x="-27016" stroke="none" font-size="433.3333" font-family="sans-serif">H</text><text y="-30708" xml:space="preserve" x="-29816" stroke="none" font-style="italic" font-size="313.3333" font-family="sans-serif">R</text><text y="-30295" xml:space="preserve" x="-29082" stroke="none" font-style="italic" font-size="313.3333" font-family="sans-serif">S</text><text y="-30295" xml:space="preserve" x="-26771" stroke="none" font-style="italic" font-size="313.3333" font-family="sans-serif">S</text><text y="-30706" xml:space="preserve" x="-26034" stroke="none" font-style="italic" font-size="313.3333" font-family="sans-serif">R</text><text y="-29036" xml:space="preserve" x="-26034" stroke="none" font-style="italic" font-size="313.3333" font-family="sans-serif">R</text><text y="-30295" xml:space="preserve" x="-25298" stroke="none" font-style="italic" font-size="313.3333" font-family="sans-serif">S</text><text y="-29446" xml:space="preserve" x="-25298" stroke="none" font-style="italic" font-size="313.3333" font-family="sans-serif">S</text><text y="-25812" xml:space="preserve" x="-25127" stroke="none" font-style="italic" font-size="313.3333" font-family="sans-serif">R</text><text y="-25402" xml:space="preserve" x="-25867" stroke="none" font-style="italic" font-size="313.3333" font-family="sans-serif">R</text><text y="-24552" xml:space="preserve" x="-24393" stroke="none" font-style="italic" font-size="313.3333" font-family="sans-serif">R</text><text y="-24552" xml:space="preserve" x="-25867" stroke="none" font-style="italic" font-size="313.3333" font-family="sans-serif">S</text><text y="-24142" xml:space="preserve" x="-25127" stroke="none" font-style="italic" font-size="313.3333" font-family="sans-serif">S</text></g></g></svg>