<svg width="213.84" viewBox="0 0 7128 6128" text-rendering="auto" stroke-width="1" stroke-opacity="1" stroke-miterlimit="10" stroke-linejoin="miter" stroke-linecap="square" stroke-dashoffset="0" stroke-dasharray="none" stroke="black" shape-rendering="auto" image-rendering="auto" height="183.84" font-weight="normal" font-style="normal" font-size="12" font-family="'Dialog'" fill-opacity="1" fill="black" color-rendering="auto" color-interpolation="auto" xmlns="http://www.w3.org/2000/svg"><g><g stroke="white" fill="white"><rect y="0" x="0" width="7128" stroke="none" height="6128"/></g><g transform="translate(32866,32758)" text-rendering="geometricPrecision" stroke-width="44" stroke-linejoin="round" stroke-linecap="round"><line y2="-29146" y1="-30064" x2="-29732" x1="-29732" fill="none"/><line y2="-28576" y1="-29146" x2="-30714" x1="-29732" fill="none"/><line y2="-30391" y1="-30850" x2="-29920" x1="-30714" fill="none"/><line y2="-29146" y1="-28576" x2="-31702" x1="-30714" fill="none"/><line y2="-30850" y1="-30281" x2="-30714" x1="-31702" fill="none"/><line y2="-30281" y1="-29146" x2="-31702" x1="-31702" fill="none"/><line y2="-29146" y1="-28730" x2="-27918" x1="-28637" fill="none"/><line y2="-32202" y1="-31899" x2="-31243" x1="-30714" fill="none"/><line y2="-29146" y1="-28576" x2="-27918" x1="-26936" fill="none"/><line y2="-29221" y1="-28793" x2="-27710" x1="-26973" fill="none"/><line y2="-30281" y1="-29146" x2="-27918" x1="-27918" fill="none"/><line y2="-28576" y1="-29146" x2="-26936" x1="-25948" fill="none"/><line y2="-30850" y1="-30281" x2="-26936" x1="-27918" fill="none"/><line y2="-30633" y1="-30206" x2="-26973" x1="-27710" fill="none"/><line y2="-29146" y1="-30281" x2="-25948" x1="-25948" fill="none"/><line y2="-29287" y1="-30139" x2="-26118" x1="-26118" fill="none"/><line y2="-30281" y1="-30850" x2="-25948" x1="-26936" fill="none"/><line y2="-27747" y1="-28576" x2="-26936" x1="-26936" fill="none"/><line y2="-27172" y1="-27482" x2="-26182" x1="-26710" fill="none"/><line y2="-27051" y1="-27360" x2="-26251" x1="-26782" fill="none"/><line y2="-27051" y1="-27360" x2="-27617" x1="-27089" fill="none"/><line y2="-27172" y1="-27482" x2="-27690" x1="-27158" fill="none"/><polygon stroke-width="1" stroke="none" points=" -29732 -29146 -28978 -28790 -29047 -28669"/><polygon stroke-width="1" points=" -29732 -29146 -28978 -28790 -29047 -28669" fill="none"/><polygon stroke-width="1" stroke="none" points=" -30714 -30850 -30784 -31899 -30648 -31899"/><polygon stroke-width="1" points=" -30714 -30850 -30784 -31899 -30648 -31899" fill="none"/><polygon stroke-width="1" stroke="none" points=" -31702 -29146 -32193 -28782 -32266 -28900"/><polygon stroke-width="1" points=" -31702 -29146 -32193 -28782 -32266 -28900" fill="none"/><polygon stroke-width="1" stroke="none" points=" -31702 -30281 -32263 -30526 -32193 -30645"/><polygon stroke-width="1" points=" -31702 -30281 -32263 -30526 -32193 -30645" fill="none"/><line y2="-27747" y1="-27747" x2="-30784" x1="-30648" fill="none"/><line y2="-27964" y1="-27964" x2="-30766" x1="-30665" fill="none"/><line y2="-28180" y1="-28180" x2="-30747" x1="-30682" fill="none"/><line y2="-28397" y1="-28397" x2="-30729" x1="-30700" fill="none"/><text y="-28441" xml:space="preserve" x="-28978" stroke="none" font-size="433.3333" font-family="sans-serif">S</text><text y="-27349" xml:space="preserve" x="-30867" stroke="none" font-size="433.3333" font-family="sans-serif">OH</text><text y="-32242" xml:space="preserve" x="-31774" stroke="none" font-size="433.3333" font-family="sans-serif">OH</text><text y="-28441" xml:space="preserve" x="-32762" stroke="none" font-size="433.3333" font-family="sans-serif">OH</text><text y="-27349" xml:space="preserve" x="-27086" stroke="none" font-size="433.3333" font-family="sans-serif">N</text><text y="-26826" xml:space="preserve" x="-26179" stroke="none" font-size="433.3333" font-family="sans-serif">O</text><text y="-26826" xml:space="preserve" x="-27993" stroke="none" font-size="433.3333" font-family="sans-serif">O</text><text y="-30628" xml:space="preserve" x="-32762" stroke="none" font-size="433.3333" font-family="sans-serif">OH</text><text y="-30102" xml:space="preserve" x="-29885" stroke="none" font-size="433.3333" font-family="sans-serif">O</text><text y="-29108" xml:space="preserve" x="-30134" stroke="none" font-style="italic" font-size="313.3333" font-family="sans-serif">S</text><text y="-28701" xml:space="preserve" x="-30867" stroke="none" font-style="italic" font-size="313.3333" font-family="sans-serif">R</text><text y="-30370" xml:space="preserve" x="-30867" stroke="none" font-style="italic" font-size="313.3333" font-family="sans-serif">R</text><text y="-29108" xml:space="preserve" x="-31607" stroke="none" font-style="italic" font-size="313.3333" font-family="sans-serif">S</text><text y="-29960" xml:space="preserve" x="-31607" stroke="none" font-style="italic" font-size="313.3333" font-family="sans-serif">R</text></g></g></svg>