<svg width="235.56" viewBox="0 0 7852 5760" text-rendering="auto" stroke-width="1" stroke-opacity="1" stroke-miterlimit="10" stroke-linejoin="miter" stroke-linecap="square" stroke-dashoffset="0" stroke-dasharray="none" stroke="black" shape-rendering="auto" image-rendering="auto" height="172.8" font-weight="normal" font-style="normal" font-size="12" font-family="'Dialog'" fill-opacity="1" fill="black" color-rendering="auto" color-interpolation="auto" xmlns="http://www.w3.org/2000/svg"><g><g stroke="white" fill="white"><rect y="0" x="0" width="7852" stroke="none" height="5760"/></g><g transform="translate(32866,32866)" text-rendering="geometricPrecision" stroke-width="44" stroke-linejoin="round" stroke-linecap="round"><line y2="-28917" y1="-29484" x2="-28903" x1="-29885" fill="none"/><line y2="-28839" y1="-29267" x2="-29111" x1="-29848" fill="none"/><line y2="-27779" y1="-28917" x2="-28903" x1="-28903" fill="none"/><line y2="-29484" y1="-28917" x2="-29885" x1="-30873" fill="none"/><line y2="-27210" y1="-27779" x2="-29885" x1="-28903" fill="none"/><line y2="-27427" y1="-27854" x2="-29848" x1="-29111" fill="none"/><line y2="-28917" y1="-27779" x2="-30873" x1="-30873" fill="none"/><line y2="-28773" y1="-27921" x2="-30703" x1="-30703" fill="none"/><line y2="-27779" y1="-27210" x2="-30873" x1="-29885" fill="none"/><line y2="-29440" y1="-28917" x2="-27996" x1="-28903" fill="none"/><line y2="-30532" y1="-29484" x2="-29885" x1="-29885" fill="none"/><line y2="-28917" y1="-29440" x2="-27089" x1="-27996" fill="none"/><line y2="-30269" y1="-29440" x2="-28065" x1="-28065" fill="none"/><line y2="-30269" y1="-29440" x2="-27926" x1="-27926" fill="none"/><line y2="-31055" y1="-30532" x2="-30792" x1="-29885" fill="none"/><line y2="-31009" y1="-30593" x2="-29203" x1="-29920" fill="none"/><line y2="-30888" y1="-30472" x2="-29131" x1="-29850" fill="none"/><line y2="-28917" y1="-27779" x2="-27089" x1="-27089" fill="none"/><line y2="-28773" y1="-27921" x2="-26918" x1="-26918" fill="none"/><line y2="-29484" y1="-28917" x2="-26101" x1="-27089" fill="none"/><line y2="-27779" y1="-27210" x2="-27089" x1="-26101" fill="none"/><line y2="-28917" y1="-29484" x2="-25118" x1="-26101" fill="none"/><line y2="-28839" y1="-29267" x2="-25326" x1="-26063" fill="none"/><line y2="-27210" y1="-27779" x2="-26101" x1="-25118" fill="none"/><line y2="-27427" y1="-27854" x2="-26063" x1="-25326" fill="none"/><line y2="-27779" y1="-28917" x2="-25118" x1="-25118" fill="none"/><line y2="-31055" y1="-32193" x2="-30792" x1="-30792" fill="none"/><line y2="-31200" y1="-32052" x2="-30963" x1="-30963" fill="none"/><line y2="-30489" y1="-31055" x2="-31777" x1="-30792" fill="none"/><line y2="-32193" y1="-32762" x2="-30792" x1="-31777" fill="none"/><line y2="-31055" y1="-30489" x2="-32762" x1="-31777" fill="none"/><line y2="-31133" y1="-30706" x2="-32554" x1="-31815" fill="none"/><line y2="-32762" y1="-32193" x2="-31777" x1="-32762" fill="none"/><line y2="-32543" y1="-32118" x2="-31815" x1="-32554" fill="none"/><line y2="-32193" y1="-31055" x2="-32762" x1="-32762" fill="none"/><text y="-30310" xml:space="preserve" x="-28149" stroke="none" font-size="433.3333" font-family="sans-serif">O</text><text y="-30876" xml:space="preserve" x="-29131" stroke="none" font-size="433.3333" font-family="sans-serif">O</text></g></g></svg>