<svg width="233.28" viewBox="0 0 7776 6809" text-rendering="auto" stroke-width="1" stroke-opacity="1" stroke-miterlimit="10" stroke-linejoin="miter" stroke-linecap="square" stroke-dashoffset="0" stroke-dasharray="none" stroke="black" shape-rendering="auto" image-rendering="auto" height="204.27" font-weight="normal" font-style="normal" font-size="12" font-family="'Dialog'" fill-opacity="1" fill="black" color-rendering="auto" color-interpolation="auto" xmlns="http://www.w3.org/2000/svg"><g><g stroke="white" fill="white"><rect y="0" x="0" width="7776" stroke="none" height="6809"/></g><g transform="translate(32866,32866)" text-rendering="geometricPrecision" stroke-width="44" stroke-linejoin="round" stroke-linecap="round"><line y2="-27869" y1="-28285" x2="-28071" x1="-28790" fill="none"/><line y2="-27869" y1="-28285" x2="-29885" x1="-29166" fill="none"/><line y2="-29440" y1="-28611" x2="-28978" x1="-28978" fill="none"/><line y2="-27869" y1="-26730" x2="-28071" x1="-28071" fill="none"/><line y2="-27727" y1="-26872" x2="-27900" x1="-27900" fill="none"/><line y2="-28438" y1="-27869" x2="-27083" x1="-28071" fill="none"/><line y2="-26730" y1="-26161" x2="-28071" x1="-27083" fill="none"/><line y2="-27869" y1="-28438" x2="-26101" x1="-27083" fill="none"/><line y2="-27794" y1="-28218" x2="-26309" x1="-27045" fill="none"/><line y2="-26161" y1="-26730" x2="-27083" x1="-26101" fill="none"/><line y2="-26381" y1="-26808" x2="-27045" x1="-26309" fill="none"/><line y2="-26730" y1="-27869" x2="-26101" x1="-26101" fill="none"/><line y2="-26208" y1="-26730" x2="-25194" x1="-26101" fill="none"/><line y2="-26730" y1="-27869" x2="-29885" x1="-29885" fill="none"/><line y2="-26872" y1="-27727" x2="-30056" x1="-30056" fill="none"/><line y2="-27869" y1="-28438" x2="-29885" x1="-30873" fill="none"/><line y2="-26161" y1="-26730" x2="-30873" x1="-29885" fill="none"/><line y2="-28438" y1="-27869" x2="-30873" x1="-31855" fill="none"/><line y2="-28218" y1="-27794" x2="-30911" x1="-31647" fill="none"/><line y2="-26730" y1="-26161" x2="-31855" x1="-30873" fill="none"/><line y2="-26808" y1="-26381" x2="-31647" x1="-30911" fill="none"/><line y2="-27869" y1="-26730" x2="-31855" x1="-31855" fill="none"/><line y2="-26208" y1="-26730" x2="-32762" x1="-31855" fill="none"/><line y2="-30009" y1="-29440" x2="-29966" x1="-28978" fill="none"/><line y2="-30084" y1="-29660" x2="-29755" x1="-29016" fill="none"/><line y2="-29440" y1="-30009" x2="-28978" x1="-27996" fill="none"/><line y2="-31145" y1="-30009" x2="-29966" x1="-29966" fill="none"/><line y2="-30009" y1="-31145" x2="-27996" x1="-27996" fill="none"/><line y2="-30151" y1="-31003" x2="-28166" x1="-28166" fill="none"/><line y2="-31714" y1="-31145" x2="-28978" x1="-29966" fill="none"/><line y2="-31497" y1="-31070" x2="-29016" x1="-29755" fill="none"/><line y2="-31145" y1="-31714" x2="-27996" x1="-28978" fill="none"/><line y2="-32762" y1="-31714" x2="-28978" x1="-28978" fill="none"/><text y="-28212" xml:space="preserve" x="-29131" stroke="none" font-size="433.3333" font-family="sans-serif">N</text></g></g></svg>