<svg width="201.39" viewBox="0 0 6713 9943" text-rendering="auto" stroke-width="1" stroke-opacity="1" stroke-miterlimit="10" stroke-linejoin="miter" stroke-linecap="square" stroke-dashoffset="0" stroke-dasharray="none" stroke="black" shape-rendering="auto" image-rendering="auto" height="298.29" font-weight="normal" font-style="normal" font-size="12" font-family="'Dialog'" fill-opacity="1" fill="black" color-rendering="auto" color-interpolation="auto" xmlns="http://www.w3.org/2000/svg"><g><g stroke="white" fill="white"><rect y="0" x="0" width="6713" stroke="none" height="9943"/></g><g transform="translate(32866,32866)" text-rendering="geometricPrecision" stroke-width="44" stroke-linejoin="round" stroke-linecap="round"><line y2="-27040" y1="-25852" x2="-30186" x1="-29203" fill="none"/><line y2="-25852" y1="-27040" x2="-29203" x1="-28221" fill="none"/><line y2="-24746" y1="-25852" x2="-28221" x1="-29203" fill="none"/><line y2="-25852" y1="-24746" x2="-29203" x1="-30186" fill="none"/><line y2="-28186" y1="-27040" x2="-30186" x1="-30186" fill="none"/><line y2="-26465" y1="-27040" x2="-31168" x1="-30186" fill="none"/><line y2="-26684" y1="-27115" x2="-31130" x1="-30394" fill="none"/><line y2="-28186" y1="-27040" x2="-28221" x1="-28221" fill="none"/><line y2="-27040" y1="-26465" x2="-28221" x1="-27239" fill="none"/><line y2="-27115" y1="-26684" x2="-28013" x1="-27276" fill="none"/><line y2="-23599" y1="-24746" x2="-28221" x1="-28221" fill="none"/><line y2="-25321" y1="-24746" x2="-27239" x1="-28221" fill="none"/><line y2="-25101" y1="-24671" x2="-27276" x1="-28013" fill="none"/><line y2="-23599" y1="-24746" x2="-30186" x1="-30186" fill="none"/><line y2="-24746" y1="-25321" x2="-30186" x1="-31168" fill="none"/><line y2="-24671" y1="-25101" x2="-30394" x1="-31130" fill="none"/><line y2="-28186" y1="-28186" x2="-28221" x1="-30186" fill="none"/><line y2="-28186" y1="-28758" x2="-30186" x1="-31168" fill="none"/><line y2="-28111" y1="-28539" x2="-30394" x1="-31130" fill="none"/><line y2="-27040" y1="-26465" x2="-32153" x1="-31168" fill="none"/><line y2="-28758" y1="-28186" x2="-27239" x1="-28221" fill="none"/><line y2="-28539" y1="-28111" x2="-27276" x1="-28013" fill="none"/><line y2="-26465" y1="-27040" x2="-27239" x1="-26257" fill="none"/><line y2="-23599" y1="-23599" x2="-30186" x1="-28221" fill="none"/><line y2="-23599" y1="-23027" x2="-28221" x1="-27239" fill="none"/><line y2="-23674" y1="-23246" x2="-28013" x1="-27276" fill="none"/><line y2="-24746" y1="-25321" x2="-26257" x1="-27239" fill="none"/><line y2="-23027" y1="-23599" x2="-31168" x1="-30186" fill="none"/><line y2="-23246" y1="-23674" x2="-31130" x1="-30394" fill="none"/><line y2="-25321" y1="-24746" x2="-31168" x1="-32153" fill="none"/><line y2="-28758" y1="-28186" x2="-31168" x1="-32153" fill="none"/><line y2="-28186" y1="-27040" x2="-32153" x1="-32153" fill="none"/><line y2="-28042" y1="-27181" x2="-31982" x1="-31982" fill="none"/><line y2="-28186" y1="-28758" x2="-26257" x1="-27239" fill="none"/><line y2="-27040" y1="-28186" x2="-26257" x1="-26257" fill="none"/><line y2="-27181" y1="-28042" x2="-26427" x1="-26427" fill="none"/><line y2="-23027" y1="-23599" x2="-27239" x1="-26257" fill="none"/><line y2="-23599" y1="-24746" x2="-26257" x1="-26257" fill="none"/><line y2="-23743" y1="-24604" x2="-26427" x1="-26427" fill="none"/><line y2="-23599" y1="-23027" x2="-32153" x1="-31168" fill="none"/><line y2="-24746" y1="-23599" x2="-32153" x1="-32153" fill="none"/><line y2="-24604" y1="-23743" x2="-31982" x1="-31982" fill="none"/><line y2="-29588" y1="-28758" x2="-31168" x1="-31168" fill="none"/><line y2="-30417" y1="-29952" x2="-31959" x1="-31356" fill="none"/><line y2="-29946" y1="-30425" x2="-30980" x1="-30333" fill="none"/><line y2="-31720" y1="-30784" x2="-31746" x1="-32072" fill="none"/><line y2="-30784" y1="-31720" x2="-30212" x1="-30500" fill="none"/><line y2="-31720" y1="-31720" x2="-30500" x1="-31746" fill="none"/><line y2="-32760" y1="-31720" x2="-31618" x1="-31746" fill="none"/><line y2="-31974" y1="-31720" x2="-32762" x1="-31746" fill="none"/><line y2="-32762" y1="-31720" x2="-30610" x1="-30500" fill="none"/><line y2="-31939" y1="-31720" x2="-29475" x1="-30500" fill="none"/><text y="-29628" xml:space="preserve" x="-31321" stroke="none" font-size="433.3333" font-family="sans-serif">B</text><text y="-30385" xml:space="preserve" x="-32300" stroke="none" font-size="433.3333" font-family="sans-serif">O</text><text y="-30385" xml:space="preserve" x="-30295" stroke="none" font-size="433.3333" font-family="sans-serif">O</text></g></g></svg>