<svg width="286.11" viewBox="0 0 9537 5676" text-rendering="auto" stroke-width="1" stroke-opacity="1" stroke-miterlimit="10" stroke-linejoin="miter" stroke-linecap="square" stroke-dashoffset="0" stroke-dasharray="none" stroke="black" shape-rendering="auto" image-rendering="auto" height="170.28" font-weight="normal" font-style="normal" font-size="12" font-family="'Dialog'" fill-opacity="1" fill="black" color-rendering="auto" color-interpolation="auto" xmlns="http://www.w3.org/2000/svg"><g><g stroke="white" fill="white"><rect y="0" x="0" width="9537" stroke="none" height="5676"/></g><g transform="translate(32866,32758)" text-rendering="geometricPrecision" stroke-width="44" stroke-linejoin="round" stroke-linecap="round"><line y2="-30850" y1="-31376" x2="-27840" x1="-28747" fill="none"/><line y2="-30850" y1="-31376" x2="-29654" x1="-28747" fill="none"/><line y2="-32202" y1="-31376" x2="-28816" x1="-28816" fill="none"/><line y2="-32202" y1="-31376" x2="-28678" x1="-28678" fill="none"/><line y2="-30850" y1="-29715" x2="-27840" x1="-27840" fill="none"/><line y2="-30708" y1="-29856" x2="-27669" x1="-27669" fill="none"/><line y2="-31419" y1="-30850" x2="-26855" x1="-27840" fill="none"/><line y2="-29715" y1="-29146" x2="-27840" x1="-26855" fill="none"/><line y2="-30850" y1="-31419" x2="-25870" x1="-26855" fill="none"/><line y2="-30775" y1="-31202" x2="-26078" x1="-26817" fill="none"/><line y2="-29146" y1="-29715" x2="-26855" x1="-25870" fill="none"/><line y2="-29362" y1="-29790" x2="-26817" x1="-26078" fill="none"/><line y2="-29715" y1="-30850" x2="-25870" x1="-25870" fill="none"/><line y2="-28316" y1="-29146" x2="-26855" x1="-26855" fill="none"/><line y2="-27742" y1="-27990" x2="-27473" x1="-27042" fill="none"/><line y2="-29299" y1="-29715" x2="-25150" x1="-25870" fill="none"/><line y2="-29605" y1="-29299" x2="-24243" x1="-24775" fill="none"/><line y2="-29715" y1="-30850" x2="-29654" x1="-29654" fill="none"/><line y2="-29856" y1="-30708" x2="-29824" x1="-29824" fill="none"/><line y2="-30850" y1="-31419" x2="-29654" x1="-30639" fill="none"/><line y2="-29146" y1="-29715" x2="-30639" x1="-29654" fill="none"/><line y2="-31419" y1="-30850" x2="-30639" x1="-31624" fill="none"/><line y2="-31202" y1="-30775" x2="-30677" x1="-31416" fill="none"/><line y2="-29715" y1="-29146" x2="-31624" x1="-30639" fill="none"/><line y2="-29790" y1="-29362" x2="-31416" x1="-30677" fill="none"/><line y2="-30850" y1="-29715" x2="-31624" x1="-31624" fill="none"/><line y2="-29385" y1="-29715" x2="-32190" x1="-31624" fill="none"/><text y="-32242" xml:space="preserve" x="-28900" stroke="none" font-size="433.3333" font-family="sans-serif">O</text><text y="-27918" xml:space="preserve" x="-27005" stroke="none" font-size="433.3333" font-family="sans-serif">O</text><text y="-27343" xml:space="preserve" x="-28004" stroke="none" font-size="433.3333" font-family="sans-serif">CH</text><text y="-27253" xml:space="preserve" x="-27427" stroke="none" font-size="313.3333" font-family="sans-serif">3</text><text y="-29010" xml:space="preserve" x="-25116" stroke="none" font-size="433.3333" font-family="sans-serif">O</text><text y="-29536" xml:space="preserve" x="-24208" stroke="none" font-size="433.3333" font-family="sans-serif">CH</text><text y="-29446" xml:space="preserve" x="-23631" stroke="none" font-size="313.3333" font-family="sans-serif">3</text><text y="-29010" xml:space="preserve" x="-32762" stroke="none" font-size="433.3333" font-family="sans-serif">Cl</text></g></g></svg>