<svg width="229.35" viewBox="0 0 7645 5233" text-rendering="auto" stroke-width="1" stroke-opacity="1" stroke-miterlimit="10" stroke-linejoin="miter" stroke-linecap="square" stroke-dashoffset="0" stroke-dasharray="none" stroke="black" shape-rendering="auto" image-rendering="auto" height="156.99" font-weight="normal" font-style="normal" font-size="12" font-family="'Dialog'" fill-opacity="1" fill="black" color-rendering="auto" color-interpolation="auto" xmlns="http://www.w3.org/2000/svg"><g><g stroke="white" fill="white"><rect y="0" x="0" width="7645" stroke="none" height="5233"/></g><g transform="translate(32866,32758)" text-rendering="geometricPrecision" stroke-width="44" stroke-linejoin="round" stroke-linecap="round"><line y2="-29900" y1="-30469" x2="-29732" x1="-30717" fill="none"/><line y2="-29822" y1="-30249" x2="-29940" x1="-30680" fill="none"/><line y2="-28761" y1="-29900" x2="-29732" x1="-29732" fill="none"/><line y2="-30469" y1="-29900" x2="-30717" x1="-31702" fill="none"/><line y2="-28192" y1="-28761" x2="-30717" x1="-29732" fill="none"/><line y2="-28412" y1="-28836" x2="-30680" x1="-29940" fill="none"/><line y2="-29900" y1="-28761" x2="-31702" x1="-31702" fill="none"/><line y2="-29755" y1="-28903" x2="-31532" x1="-31532" fill="none"/><line y2="-28761" y1="-28192" x2="-31702" x1="-30717" fill="none"/><line y2="-30422" y1="-29900" x2="-28825" x1="-29732" fill="none"/><line y2="-31295" y1="-30469" x2="-30717" x1="-30717" fill="none"/><line y2="-28458" y1="-28761" x2="-32231" x1="-31702" fill="none"/><line y2="-30422" y1="-29853" x2="-28825" x1="-27843" fill="none"/><line y2="-30498" y1="-30073" x2="-28617" x1="-27880" fill="none"/><line y2="-31561" y1="-30422" x2="-28825" x1="-28825" fill="none"/><line y2="-29853" y1="-30422" x2="-27843" x1="-26855" fill="none"/><line y2="-32130" y1="-31561" x2="-27843" x1="-28825" fill="none"/><line y2="-31910" y1="-31483" x2="-27880" x1="-28617" fill="none"/><line y2="-30422" y1="-31561" x2="-26855" x1="-26855" fill="none"/><line y2="-30564" y1="-31419" x2="-27025" x1="-27025" fill="none"/><line y2="-31561" y1="-32130" x2="-26855" x1="-27843" fill="none"/><line y2="-29027" y1="-29853" x2="-27843" x1="-27843" fill="none"/><line y2="-31977" y1="-31561" x2="-26135" x1="-26855" fill="none"/><line y2="-31873" y1="-31624" x2="-31335" x1="-30905" fill="none"/><line y2="-32240" y1="-31769" x2="-30379" x1="-30651" fill="none"/><line y2="-32167" y1="-31699" x2="-30258" x1="-30529" fill="none"/><line y2="-31587" y1="-31587" x2="-29856" x1="-30529" fill="none"/><line y2="-31445" y1="-31445" x2="-29856" x1="-30529" fill="none"/><line y2="-28392" y1="-28698" x2="-27123" x1="-27655" fill="none"/><line y2="-28082" y1="-28553" x2="-28178" x1="-27909" fill="none"/><line y2="-28155" y1="-28623" x2="-28299" x1="-28030" fill="none"/><line y2="-28735" y1="-28735" x2="-28701" x1="-28030" fill="none"/><line y2="-28877" y1="-28877" x2="-28701" x1="-28030" fill="none"/><text y="-31335" xml:space="preserve" x="-30867" stroke="none" font-size="433.3333" font-family="sans-serif">S</text><text y="-32242" xml:space="preserve" x="-30344" stroke="none" font-size="433.3333" font-family="sans-serif">O</text><text y="-31335" xml:space="preserve" x="-29822" stroke="none" font-size="433.3333" font-family="sans-serif">O</text><text y="-31913" xml:space="preserve" x="-31867" stroke="none" font-size="433.3333" font-family="sans-serif">OH</text><text y="-28628" xml:space="preserve" x="-27996" stroke="none" font-size="433.3333" font-family="sans-serif">S</text><text y="-27721" xml:space="preserve" x="-28519" stroke="none" font-size="433.3333" font-family="sans-serif">O</text><text y="-28628" xml:space="preserve" x="-29042" stroke="none" font-size="433.3333" font-family="sans-serif">O</text><text y="-28103" xml:space="preserve" x="-27089" stroke="none" font-size="433.3333" font-family="sans-serif">OH</text><text y="-28059" xml:space="preserve" x="-32762" stroke="none" font-size="433.3333" font-family="sans-serif">NH</text><text y="-27970" xml:space="preserve" x="-32185" stroke="none" font-size="313.3333" font-family="sans-serif">2</text><text y="-31904" xml:space="preserve" x="-26101" stroke="none" font-size="433.3333" font-family="sans-serif">NH</text><text y="-31815" xml:space="preserve" x="-25523" stroke="none" font-size="313.3333" font-family="sans-serif">2</text></g></g></svg>