<svg width="366.81" viewBox="0 0 12227 4447" text-rendering="auto" stroke-width="1" stroke-opacity="1" stroke-miterlimit="10" stroke-linejoin="miter" stroke-linecap="square" stroke-dashoffset="0" stroke-dasharray="none" stroke="black" shape-rendering="auto" image-rendering="auto" height="133.41" font-weight="normal" font-style="normal" font-size="12" font-family="'Dialog'" fill-opacity="1" fill="black" color-rendering="auto" color-interpolation="auto" xmlns="http://www.w3.org/2000/svg"><g><g stroke="white" fill="white"><rect y="0" x="0" width="12227" stroke="none" height="4447"/></g><g transform="translate(32866,32758)" text-rendering="geometricPrecision" stroke-width="44" stroke-linejoin="round" stroke-linecap="round"><line y2="-30119" y1="-30688" x2="-26808" x1="-27794" fill="none"/><line y2="-30044" y1="-30472" x2="-27016" x1="-27756" fill="none"/><line y2="-28984" y1="-30119" x2="-26808" x1="-26808" fill="none"/><line y2="-30688" y1="-30119" x2="-27794" x1="-28779" fill="none"/><line y2="-28415" y1="-28984" x2="-27794" x1="-26808" fill="none"/><line y2="-28631" y1="-29059" x2="-27756" x1="-27016" fill="none"/><line y2="-30119" y1="-28984" x2="-28779" x1="-28779" fill="none"/><line y2="-29978" y1="-29125" x2="-28611" x1="-28611" fill="none"/><line y2="-28984" y1="-28415" x2="-28779" x1="-27794" fill="none"/><line y2="-30645" y1="-30119" x2="-25901" x1="-26808" fill="none"/><line y2="-31737" y1="-30688" x2="-27794" x1="-27794" fill="none"/><line y2="-30229" y1="-30645" x2="-25182" x1="-25901" fill="none"/><line y2="-30645" y1="-30229" x2="-24087" x1="-24806" fill="none"/><line y2="-30119" y1="-30645" x2="-23180" x1="-24087" fill="none"/><line y2="-30535" y1="-30119" x2="-22461" x1="-23180" fill="none"/><line y2="-30229" y1="-30535" x2="-21554" x1="-22085" fill="none"/><line y2="-31471" y1="-30645" x2="-25974" x1="-25974" fill="none"/><line y2="-31471" y1="-30645" x2="-25832" x1="-25832" fill="none"/><line y2="-32153" y1="-31737" x2="-28513" x1="-27794" fill="none"/><line y2="-31737" y1="-32153" x2="-29608" x1="-28888" fill="none"/><line y2="-32260" y1="-31737" x2="-30515" x1="-29608" fill="none"/><line y2="-31844" y1="-32260" x2="-31234" x1="-30515" fill="none"/><line y2="-32092" y1="-31844" x2="-32040" x1="-31610" fill="none"/><line y2="-32214" y1="-31798" x2="-27109" x1="-27828" fill="none"/><line y2="-32092" y1="-31676" x2="-27040" x1="-27759" fill="none"/><text y="-29940" xml:space="preserve" x="-25147" stroke="none" font-size="433.3333" font-family="sans-serif">O</text><text y="-31512" xml:space="preserve" x="-26054" stroke="none" font-size="433.3333" font-family="sans-serif">O</text><text y="-30466" xml:space="preserve" x="-22426" stroke="none" font-size="433.3333" font-family="sans-serif">O</text><text y="-29940" xml:space="preserve" x="-21519" stroke="none" font-size="433.3333" font-family="sans-serif">CH</text><text y="-29850" xml:space="preserve" x="-20941" stroke="none" font-size="313.3333" font-family="sans-serif">3</text><text y="-32081" xml:space="preserve" x="-28854" stroke="none" font-size="433.3333" font-family="sans-serif">O</text><text y="-32081" xml:space="preserve" x="-27037" stroke="none" font-size="433.3333" font-family="sans-serif">O</text><text y="-31558" xml:space="preserve" x="-31575" stroke="none" font-size="433.3333" font-family="sans-serif">O</text><text y="-32242" xml:space="preserve" x="-32762" stroke="none" font-size="433.3333" font-family="sans-serif">CH</text><text y="-32153" xml:space="preserve" x="-32185" stroke="none" font-size="313.3333" font-family="sans-serif">3</text></g></g></svg>