<svg width="267.36" viewBox="0 0 8912 6716" text-rendering="auto" stroke-width="1" stroke-opacity="1" stroke-miterlimit="10" stroke-linejoin="miter" stroke-linecap="square" stroke-dashoffset="0" stroke-dasharray="none" stroke="black" shape-rendering="auto" image-rendering="auto" height="201.48" font-weight="normal" font-style="normal" font-size="12" font-family="'Dialog'" fill-opacity="1" fill="black" color-rendering="auto" color-interpolation="auto" xmlns="http://www.w3.org/2000/svg"><g><g stroke="white" fill="white"><rect y="0" x="0" width="8912" stroke="none" height="6716"/></g><g transform="translate(32866,32758)" text-rendering="geometricPrecision" stroke-width="44" stroke-linejoin="round" stroke-linecap="round"><line y2="-28097" y1="-29235" x2="-28819" x1="-28819" fill="none"/><line y2="-29804" y1="-29235" x2="-27831" x1="-28819" fill="none"/><line y2="-29585" y1="-29157" x2="-27872" x1="-28611" fill="none"/><line y2="-29235" y1="-29804" x2="-28819" x1="-29804" fill="none"/><line y2="-27528" y1="-28097" x2="-29804" x1="-28819" fill="none"/><line y2="-28097" y1="-27528" x2="-28819" x1="-27831" fill="none"/><line y2="-28175" y1="-27747" x2="-28611" x1="-27872" fill="none"/><line y2="-29235" y1="-29804" x2="-26849" x1="-27831" fill="none"/><line y2="-29804" y1="-29235" x2="-29804" x1="-30789" fill="none"/><line y2="-28097" y1="-27528" x2="-30789" x1="-29804" fill="none"/><line y2="-27528" y1="-28097" x2="-27831" x1="-26849" fill="none"/><line y2="-28097" y1="-29235" x2="-26849" x1="-26849" fill="none"/><line y2="-28238" y1="-29091" x2="-27019" x1="-27019" fill="none"/><line y2="-28097" y1="-29235" x2="-30789" x1="-30789" fill="none"/><line y2="-29235" y1="-29804" x2="-30789" x1="-31774" fill="none"/><line y2="-29157" y1="-29585" x2="-30997" x1="-31737" fill="none"/><line y2="-27528" y1="-28097" x2="-31774" x1="-30789" fill="none"/><line y2="-27747" y1="-28172" x2="-31737" x1="-30997" fill="none"/><line y2="-29804" y1="-29235" x2="-31774" x1="-32762" fill="none"/><line y2="-28097" y1="-27528" x2="-32762" x1="-31774" fill="none"/><line y2="-29235" y1="-28097" x2="-32762" x1="-32762" fill="none"/><line y2="-29091" y1="-28238" x2="-32592" x1="-32592" fill="none"/><line y2="-30630" y1="-29804" x2="-27831" x1="-27831" fill="none"/><line y2="-31376" y1="-31070" x2="-26924" x1="-27453" fill="none"/><line y2="-26699" y1="-27528" x2="-31774" x1="-31774" fill="none"/><line y2="-30630" y1="-29804" x2="-29874" x1="-29874" fill="none"/><line y2="-30630" y1="-29804" x2="-29735" x1="-29735" fill="none"/><line y2="-26699" y1="-27528" x2="-29735" x1="-29735" fill="none"/><line y2="-26699" y1="-27528" x2="-29874" x1="-29874" fill="none"/><line y2="-30836" y1="-31376" x2="-26028" x1="-26924" fill="none"/><line y2="-32202" y1="-31376" x2="-26996" x1="-26996" fill="none"/><line y2="-32202" y1="-31376" x2="-26855" x1="-26855" fill="none"/><line y2="-31405" y1="-30836" x2="-25043" x1="-26028" fill="none"/><line y2="-31185" y1="-30758" x2="-25081" x1="-25820" fill="none"/><line y2="-30836" y1="-29697" x2="-26028" x1="-26028" fill="none"/><line y2="-30836" y1="-31405" x2="-24058" x1="-25043" fill="none"/><line y2="-29697" y1="-29128" x2="-26028" x1="-25043" fill="none"/><line y2="-29772" y1="-29348" x2="-25820" x1="-25081" fill="none"/><line y2="-29697" y1="-30836" x2="-24058" x1="-24058" fill="none"/><line y2="-29839" y1="-30691" x2="-24229" x1="-24229" fill="none"/><line y2="-29128" y1="-29697" x2="-25043" x1="-24058" fill="none"/><text y="-30671" xml:space="preserve" x="-27984" stroke="none" font-size="433.3333" font-family="sans-serif">NH</text><text y="-32242" xml:space="preserve" x="-27077" stroke="none" font-size="433.3333" font-family="sans-serif">O</text><text y="-30671" xml:space="preserve" x="-29954" stroke="none" font-size="433.3333" font-family="sans-serif">O</text><text y="-26303" xml:space="preserve" x="-29954" stroke="none" font-size="433.3333" font-family="sans-serif">O</text><text y="-26303" xml:space="preserve" x="-31925" stroke="none" font-size="433.3333" font-family="sans-serif">NH</text><text y="-26213" xml:space="preserve" x="-31347" stroke="none" font-size="313.3333" font-family="sans-serif">2</text></g></g></svg>