<svg width="322.2" viewBox="0 0 10740 8200" text-rendering="auto" stroke-width="1" stroke-opacity="1" stroke-miterlimit="10" stroke-linejoin="miter" stroke-linecap="square" stroke-dashoffset="0" stroke-dasharray="none" stroke="black" shape-rendering="auto" image-rendering="auto" height="246.0" font-weight="normal" font-style="normal" font-size="12" font-family="'Dialog'" fill-opacity="1" fill="black" color-rendering="auto" color-interpolation="auto" xmlns="http://www.w3.org/2000/svg"><g><g stroke="white" fill="white"><rect y="0" x="0" width="10740" stroke="none" height="8200"/></g><g transform="translate(32866,32758)" text-rendering="geometricPrecision" stroke-width="44" stroke-linejoin="round" stroke-linecap="round"><line y2="-27938" y1="-28461" x2="-26517" x1="-27424" fill="none"/><line y2="-27643" y1="-28461" x2="-28825" x1="-27424" fill="none"/><line y2="-28987" y1="-28461" x2="-28334" x1="-27424" fill="none"/><line y2="-31514" y1="-28461" x2="-27424" x1="-27424" fill="none"/><line y2="-27938" y1="-26800" x2="-26517" x1="-26517" fill="none"/><line y2="-27796" y1="-26941" x2="-26349" x1="-26349" fill="none"/><line y2="-28507" y1="-27938" x2="-25532" x1="-26517" fill="none"/><line y2="-26800" y1="-26231" x2="-26517" x1="-25532" fill="none"/><line y2="-27938" y1="-28507" x2="-24546" x1="-25532" fill="none"/><line y2="-27863" y1="-28288" x2="-24754" x1="-25494" fill="none"/><line y2="-26231" y1="-26800" x2="-25532" x1="-24546" fill="none"/><line y2="-26450" y1="-26878" x2="-25494" x1="-24754" fill="none"/><line y2="-26800" y1="-27938" x2="-24546" x1="-24546" fill="none"/><line y2="-26277" y1="-26800" x2="-23639" x1="-24546" fill="none"/><line y2="-26505" y1="-27643" x2="-28825" x1="-28825" fill="none"/><line y2="-26647" y1="-27499" x2="-28995" x1="-28995" fill="none"/><line y2="-27643" y1="-28210" x2="-28825" x1="-29813" fill="none"/><line y2="-25936" y1="-26505" x2="-29813" x1="-28825" fill="none"/><line y2="-28210" y1="-27643" x2="-29813" x1="-30795" fill="none"/><line y2="-27993" y1="-27565" x2="-29850" x1="-30587" fill="none"/><line y2="-26505" y1="-25936" x2="-30795" x1="-29813" fill="none"/><line y2="-26580" y1="-26153" x2="-30587" x1="-29850" fill="none"/><line y2="-27643" y1="-26505" x2="-30795" x1="-30795" fill="none"/><line y2="-25982" y1="-26505" x2="-31702" x1="-30795" fill="none"/><line y2="-28571" y1="-28987" x2="-29050" x1="-28334" fill="none"/><line y2="-29674" y1="-28987" x2="-28730" x1="-28334" fill="none"/><line y2="-29674" y1="-28987" x2="-27935" x1="-28334" fill="none"/><line y2="-31930" y1="-31514" x2="-26707" x1="-27424" fill="none"/><line y2="-32202" y1="-31514" x2="-27822" x1="-27424" fill="none"/><line y2="-31514" y1="-31514" x2="-28285" x1="-27424" fill="none"/><line y2="-26693" y1="-26277" x2="-22920" x1="-23639" fill="none"/><line y2="-25448" y1="-26277" x2="-23570" x1="-23570" fill="none"/><line y2="-25448" y1="-26277" x2="-23712" x1="-23712" fill="none"/><line y2="-26286" y1="-25982" x2="-32231" x1="-31702" fill="none"/><line y2="-25153" y1="-25982" x2="-31633" x1="-31633" fill="none"/><line y2="-25153" y1="-25982" x2="-31772" x1="-31772" fill="none"/><text y="-28282" xml:space="preserve" x="-29391" stroke="none" font-size="433.3333" font-family="sans-serif">F</text><text y="-29715" xml:space="preserve" x="-29010" stroke="none" font-size="433.3333" font-family="sans-serif">F</text><text y="-29715" xml:space="preserve" x="-27961" stroke="none" font-size="433.3333" font-family="sans-serif">F</text><text y="-31861" xml:space="preserve" x="-26670" stroke="none" font-size="433.3333" font-family="sans-serif">F</text><text y="-32242" xml:space="preserve" x="-28100" stroke="none" font-size="433.3333" font-family="sans-serif">F</text><text y="-31335" xml:space="preserve" x="-28626" stroke="none" font-size="433.3333" font-family="sans-serif">F</text><text y="-26621" xml:space="preserve" x="-22885" stroke="none" font-size="433.3333" font-family="sans-serif">OH</text><text y="-25049" xml:space="preserve" x="-23792" stroke="none" font-size="433.3333" font-family="sans-serif">O</text><text y="-26326" xml:space="preserve" x="-32762" stroke="none" font-size="433.3333" font-family="sans-serif">OH</text><text y="-24754" xml:space="preserve" x="-31855" stroke="none" font-size="433.3333" font-family="sans-serif">O</text></g></g></svg>