<svg width="265.71" viewBox="0 0 8857 7430" text-rendering="auto" stroke-width="1" stroke-opacity="1" stroke-miterlimit="10" stroke-linejoin="miter" stroke-linecap="square" stroke-dashoffset="0" stroke-dasharray="none" stroke="black" shape-rendering="auto" image-rendering="auto" height="222.9" font-weight="normal" font-style="normal" font-size="12" font-family="'Dialog'" fill-opacity="1" fill="black" color-rendering="auto" color-interpolation="auto" xmlns="http://www.w3.org/2000/svg"><g><g stroke="white" fill="white"><rect y="0" x="0" width="8857" stroke="none" height="7430"/></g><g transform="translate(32866,32866)" text-rendering="geometricPrecision" stroke-width="44" stroke-linejoin="round" stroke-linecap="round"><line y2="-27245" y1="-27571" x2="-26083" x1="-26650" fill="none"/><line y2="-27245" y1="-27574" x2="-27898" x1="-27331" fill="none"/><line y2="-29244" y1="-27964" x2="-29544" x1="-27331" fill="none"/><line y2="-28597" y1="-27987" x2="-26990" x1="-26990" fill="none"/><line y2="-27245" y1="-26106" x2="-26083" x1="-26083" fill="none"/><line y2="-27103" y1="-26251" x2="-25913" x1="-25913" fill="none"/><line y2="-27814" y1="-27245" x2="-25095" x1="-26083" fill="none"/><line y2="-26106" y1="-25540" x2="-26083" x1="-25095" fill="none"/><line y2="-27245" y1="-27814" x2="-24113" x1="-25095" fill="none"/><line y2="-27170" y1="-27597" x2="-24321" x1="-25058" fill="none"/><line y2="-25540" y1="-26106" x2="-25095" x1="-24113" fill="none"/><line y2="-25757" y1="-26184" x2="-25058" x1="-24321" fill="none"/><line y2="-26106" y1="-27245" x2="-24113" x1="-24113" fill="none"/><line y2="-27245" y1="-27814" x2="-27898" x1="-28880" fill="none"/><line y2="-27170" y1="-27597" x2="-28106" x1="-28842" fill="none"/><line y2="-26106" y1="-27245" x2="-27898" x1="-27898" fill="none"/><line y2="-27814" y1="-27245" x2="-28880" x1="-29868" fill="none"/><line y2="-25540" y1="-26106" x2="-28880" x1="-27898" fill="none"/><line y2="-25757" y1="-26184" x2="-28842" x1="-28106" fill="none"/><line y2="-27245" y1="-26106" x2="-29868" x1="-29868" fill="none"/><line y2="-27103" y1="-26251" x2="-29697" x1="-29697" fill="none"/><line y2="-26106" y1="-25540" x2="-29868" x1="-28880" fill="none"/><line y2="-28917" y1="-29244" x2="-30792" x1="-30226" fill="none"/><line y2="-30489" y1="-29660" x2="-29885" x1="-29885" fill="none"/><line y2="-29882" y1="-29637" x2="-30654" x1="-30226" fill="none"/><line y2="-28917" y1="-29484" x2="-30792" x1="-31777" fill="none"/><line y2="-28839" y1="-29267" x2="-31000" x1="-31740" fill="none"/><line y2="-27779" y1="-28917" x2="-30792" x1="-30792" fill="none"/><line y2="-29484" y1="-28917" x2="-31777" x1="-32762" fill="none"/><line y2="-27210" y1="-27779" x2="-31777" x1="-30792" fill="none"/><line y2="-27430" y1="-27857" x2="-31740" x1="-31000" fill="none"/><line y2="-28917" y1="-27779" x2="-32762" x1="-32762" fill="none"/><line y2="-28773" y1="-27921" x2="-32592" x1="-32592" fill="none"/><line y2="-27779" y1="-27210" x2="-32762" x1="-31777" fill="none"/><line y2="-31055" y1="-30489" x2="-30873" x1="-29885" fill="none"/><line y2="-31133" y1="-30706" x2="-30665" x1="-29926" fill="none"/><line y2="-30489" y1="-31055" x2="-29885" x1="-28903" fill="none"/><line y2="-32193" y1="-31055" x2="-30873" x1="-30873" fill="none"/><line y2="-31055" y1="-32193" x2="-28903" x1="-28903" fill="none"/><line y2="-31200" y1="-32052" x2="-29073" x1="-29073" fill="none"/><line y2="-32762" y1="-32193" x2="-29885" x1="-30873" fill="none"/><line y2="-32543" y1="-32118" x2="-29926" x1="-30665" fill="none"/><line y2="-32193" y1="-32762" x2="-28903" x1="-29885" fill="none"/><text y="-27588" xml:space="preserve" x="-27222" stroke="none" font-size="433.3333" font-family="sans-serif">Si</text><text y="-29261" xml:space="preserve" x="-30116" stroke="none" font-size="433.3333" font-family="sans-serif">Si</text><text y="-28637" xml:space="preserve" x="-27144" stroke="none" font-size="433.3333" font-family="sans-serif">CH</text><text y="-28548" xml:space="preserve" x="-26566" stroke="none" font-size="313.3333" font-family="sans-serif">3</text><text y="-30032" xml:space="preserve" x="-31379" stroke="none" font-size="433.3333" font-family="sans-serif">CH</text><text y="-29943" xml:space="preserve" x="-30801" stroke="none" font-size="313.3333" font-family="sans-serif">3</text></g></g></svg>