<svg width="287.73" viewBox="0 0 9591 9070" text-rendering="auto" stroke-width="1" stroke-opacity="1" stroke-miterlimit="10" stroke-linejoin="miter" stroke-linecap="square" stroke-dashoffset="0" stroke-dasharray="none" stroke="black" shape-rendering="auto" image-rendering="auto" height="272.1" font-weight="normal" font-style="normal" font-size="12" font-family="'Dialog'" fill-opacity="1" fill="black" color-rendering="auto" color-interpolation="auto" xmlns="http://www.w3.org/2000/svg"><g><g stroke="white" fill="white"><rect y="0" x="0" width="9591" stroke="none" height="9070"/></g><g transform="translate(32866,32758)" text-rendering="geometricPrecision" stroke-width="44" stroke-linejoin="round" stroke-linecap="round"><line y2="-26502" y1="-25367" x2="-30792" x1="-30792" fill="none"/><line y2="-25367" y1="-25367" x2="-30792" x1="-28822" fill="none"/><line y2="-24798" y1="-25367" x2="-31777" x1="-30792" fill="none"/><line y2="-26502" y1="-27071" x2="-30792" x1="-31777" fill="none"/><line y2="-27071" y1="-26502" x2="-29804" x1="-30792" fill="none"/><line y2="-25367" y1="-26502" x2="-28822" x1="-28822" fill="none"/><line y2="-25367" y1="-24798" x2="-32762" x1="-31777" fill="none"/><line y2="-27071" y1="-26502" x2="-31777" x1="-32762" fill="none"/><line y2="-26852" y1="-26427" x2="-31815" x1="-32554" fill="none"/><line y2="-26502" y1="-27071" x2="-28822" x1="-29804" fill="none"/><line y2="-26502" y1="-25367" x2="-32762" x1="-32762" fill="none"/><line y2="-27594" y1="-27071" x2="-32684" x1="-31777" fill="none"/><line y2="-24841" y1="-25367" x2="-27915" x1="-28822" fill="none"/><line y2="-29146" y1="-27594" x2="-32682" x1="-32684" fill="none"/><line y2="-28952" y1="-27788" x2="-32543" x1="-32543" fill="none"/><line y2="-25367" y1="-24841" x2="-27008" x1="-27915" fill="none"/><line y2="-24841" y1="-25367" x2="-26101" x1="-27008" fill="none"/><line y2="-25367" y1="-24841" x2="-25194" x1="-26101" fill="none"/><line y2="-24841" y1="-25367" x2="-24286" x1="-25194" fill="none"/><line y2="-29668" y1="-29146" x2="-31774" x1="-32682" fill="none"/><line y2="-25367" y1="-24841" x2="-23379" x1="-24286" fill="none"/><line y2="-23795" y1="-24841" x2="-24286" x1="-24286" fill="none"/><line y2="-29668" y1="-29099" x2="-31774" x1="-30792" fill="none"/><line y2="-29744" y1="-29319" x2="-31566" x1="-30830" fill="none"/><line y2="-30807" y1="-29668" x2="-31774" x1="-31774" fill="none"/><line y2="-29099" y1="-29668" x2="-30792" x1="-29807" fill="none"/><line y2="-31376" y1="-30807" x2="-30792" x1="-31774" fill="none"/><line y2="-29668" y1="-30807" x2="-29807" x1="-29807" fill="none"/><line y2="-30807" y1="-31376" x2="-29807" x1="-30792" fill="none"/><line y2="-28054" y1="-29099" x2="-30792" x1="-30792" fill="none"/><polygon stroke-width="1" stroke="none" points=" -30792 -26502 -30862 -27331 -30723 -27331"/><polygon stroke-width="1" points=" -30792 -26502 -30862 -27331 -30723 -27331" fill="none"/><polygon stroke-width="1" stroke="none" points=" -28822 -25367 -28966 -24555 -29099 -24590"/><polygon stroke-width="1" points=" -28822 -25367 -28966 -24555 -29099 -24590" fill="none"/><polygon stroke-width="1" stroke="none" points=" -27915 -24841 -27846 -23795 -27984 -23792"/><polygon stroke-width="1" points=" -27915 -24841 -27846 -23795 -27984 -23792" fill="none"/><polygon stroke-width="1" stroke="none" points=" -30792 -31376 -30862 -32202 -30723 -32202"/><polygon stroke-width="1" points=" -30792 -31376 -30862 -32202 -30723 -32202" fill="none"/><line y2="-24318" y1="-24318" x2="-30862" x1="-30723" fill="none"/><line y2="-24535" y1="-24535" x2="-30848" x1="-30737" fill="none"/><line y2="-24751" y1="-24751" x2="-30833" x1="-30752" fill="none"/><line y2="-24968" y1="-24968" x2="-30819" x1="-30766" fill="none"/><line y2="-25185" y1="-25185" x2="-30804" x1="-30780" fill="none"/><text y="-32242" xml:space="preserve" x="-30945" stroke="none" font-size="433.3333" font-family="sans-serif">OH</text><text y="-27372" xml:space="preserve" x="-30945" stroke="none" font-size="433.3333" font-family="sans-serif">H</text><text y="-24174" xml:space="preserve" x="-29244" stroke="none" font-size="433.3333" font-family="sans-serif">H</text><text y="-28192" xml:space="preserve" x="-32401" stroke="none" font-style="italic" font-size="313.3333" font-family="sans-serif">Z</text><text y="-24965" xml:space="preserve" x="-28065" stroke="none" font-style="italic" font-size="313.3333" font-family="sans-serif">R</text><text y="-25329" xml:space="preserve" x="-31194" stroke="none" font-style="italic" font-size="313.3333" font-family="sans-serif">R</text><text y="-26179" xml:space="preserve" x="-30697" stroke="none" font-style="italic" font-size="313.3333" font-family="sans-serif">R</text><text y="-25329" xml:space="preserve" x="-28727" stroke="none" font-style="italic" font-size="313.3333" font-family="sans-serif">R</text><text y="-30893" xml:space="preserve" x="-30945" stroke="none" font-style="italic" font-size="313.3333" font-family="sans-serif">S</text></g></g></svg>