<svg width="267.99" viewBox="0 0 8933 5036" text-rendering="auto" stroke-width="1" stroke-opacity="1" stroke-miterlimit="10" stroke-linejoin="miter" stroke-linecap="square" stroke-dashoffset="0" stroke-dasharray="none" stroke="black" shape-rendering="auto" image-rendering="auto" height="151.08" font-weight="normal" font-style="normal" font-size="12" font-family="'Dialog'" fill-opacity="1" fill="black" color-rendering="auto" color-interpolation="auto" xmlns="http://www.w3.org/2000/svg"><g><g stroke="white" fill="white"><rect y="0" x="0" width="8933" stroke="none" height="5036"/></g><g transform="translate(32866,32758)" text-rendering="geometricPrecision" stroke-width="44" stroke-linejoin="round" stroke-linecap="round"><line y2="-30850" y1="-31419" x2="-29654" x1="-30636" fill="none"/><line y2="-30775" y1="-31202" x2="-29862" x1="-30599" fill="none"/><line y2="-29715" y1="-30850" x2="-29654" x1="-29654" fill="none"/><line y2="-31419" y1="-30850" x2="-30636" x1="-31624" fill="none"/><line y2="-29146" y1="-29715" x2="-30636" x1="-29654" fill="none"/><line y2="-29362" y1="-29790" x2="-30599" x1="-29862" fill="none"/><line y2="-30850" y1="-29715" x2="-31624" x1="-31624" fill="none"/><line y2="-30708" y1="-29856" x2="-31454" x1="-31454" fill="none"/><line y2="-29715" y1="-29146" x2="-31624" x1="-30636" fill="none"/><line y2="-31376" y1="-30850" x2="-28747" x1="-29654" fill="none"/><line y2="-29408" y1="-29715" x2="-32153" x1="-31624" fill="none"/><line y2="-31176" y1="-30850" x2="-32190" x1="-31624" fill="none"/><line y2="-28316" y1="-29146" x2="-30636" x1="-30636" fill="none"/><line y2="-30850" y1="-31376" x2="-27840" x1="-28747" fill="none"/><line y2="-31266" y1="-30850" x2="-27120" x1="-27840" fill="none"/><line y2="-30850" y1="-31156" x2="-26026" x1="-26551" fill="none"/><line y2="-32202" y1="-31376" x2="-28747" x1="-28747" fill="none"/><line y2="-31376" y1="-30850" x2="-25118" x1="-26026" fill="none"/><line y2="-29804" y1="-30850" x2="-26026" x1="-26026" fill="none"/><line y2="-30434" y1="-30850" x2="-25306" x1="-26026" fill="none"/><line y2="-30960" y1="-31376" x2="-24399" x1="-25118" fill="none"/><line y2="-32063" y1="-31376" x2="-24720" x1="-25118" fill="none"/><line y2="-32063" y1="-31376" x2="-25514" x1="-25118" fill="none"/><line y2="-29388" y1="-29804" x2="-25306" x1="-26026" fill="none"/><line y2="-29117" y1="-29804" x2="-26421" x1="-26026" fill="none"/><line y2="-29804" y1="-29804" x2="-26884" x1="-26026" fill="none"/><text y="-32242" xml:space="preserve" x="-28900" stroke="none" font-size="433.3333" font-family="sans-serif">OH</text><text y="-31197" xml:space="preserve" x="-27086" stroke="none" font-size="433.3333" font-family="sans-serif">NH</text><text y="-31197" xml:space="preserve" x="-32762" stroke="none" font-size="433.3333" font-family="sans-serif">Cl</text><text y="-27918" xml:space="preserve" x="-30867" stroke="none" font-size="433.3333" font-family="sans-serif">Cl</text><text y="-29010" xml:space="preserve" x="-32684" stroke="none" font-size="433.3333" font-family="sans-serif">NH</text><text y="-28920" xml:space="preserve" x="-32107" stroke="none" font-size="313.3333" font-family="sans-serif">2</text><text y="-30148" xml:space="preserve" x="-25269" stroke="none" font-size="433.3333" font-family="sans-serif">D</text><text y="-30671" xml:space="preserve" x="-24362" stroke="none" font-size="433.3333" font-family="sans-serif">D</text><text y="-32104" xml:space="preserve" x="-24746" stroke="none" font-size="433.3333" font-family="sans-serif">D</text><text y="-32104" xml:space="preserve" x="-25794" stroke="none" font-size="433.3333" font-family="sans-serif">D</text><text y="-29099" xml:space="preserve" x="-25269" stroke="none" font-size="433.3333" font-family="sans-serif">D</text><text y="-28718" xml:space="preserve" x="-26702" stroke="none" font-size="433.3333" font-family="sans-serif">D</text><text y="-29625" xml:space="preserve" x="-27224" stroke="none" font-size="433.3333" font-family="sans-serif">D</text></g></g></svg>