<svg width="151.56" viewBox="0 0 5052 5080" text-rendering="auto" stroke-width="1" stroke-opacity="1" stroke-miterlimit="10" stroke-linejoin="miter" stroke-linecap="square" stroke-dashoffset="0" stroke-dasharray="none" stroke="black" shape-rendering="auto" image-rendering="auto" height="152.4" font-weight="normal" font-style="normal" font-size="12" font-family="'Dialog'" fill-opacity="1" fill="black" color-rendering="auto" color-interpolation="auto" xmlns="http://www.w3.org/2000/svg"><g><g stroke="white" fill="white"><rect y="0" x="0" width="5052" stroke="none" height="5080"/></g><g transform="translate(32866,32758)" text-rendering="geometricPrecision" stroke-width="44" stroke-linejoin="round" stroke-linecap="round"><line y2="-31376" y1="-30807" x2="-29807" x1="-30795" fill="none"/><line y2="-30807" y1="-29668" x2="-30795" x1="-30795" fill="none"/><line y2="-30665" y1="-29810" x2="-30625" x1="-30625" fill="none"/><line y2="-30914" y1="-31376" x2="-29013" x1="-29807" fill="none"/><line y2="-29668" y1="-29099" x2="-30795" x1="-29807" fill="none"/><line y2="-29668" y1="-30587" x2="-28825" x1="-28825" fill="none"/><line y2="-29099" y1="-29668" x2="-29807" x1="-28825" fill="none"/><line y2="-29319" y1="-29744" x2="-29770" x1="-29033" fill="none"/><line y2="-31330" y1="-30807" x2="-31702" x1="-30795" fill="none"/><line y2="-29146" y1="-29668" x2="-27918" x1="-28825" fill="none"/><line y2="-28273" y1="-29099" x2="-29807" x1="-29807" fill="none"/><line y2="-32202" y1="-31376" x2="-29879" x1="-29879" fill="none"/><line y2="-32202" y1="-31376" x2="-29738" x1="-29738" fill="none"/><line y2="-31026" y1="-31330" x2="-32231" x1="-31702" fill="none"/><line y2="-32159" y1="-31330" x2="-31772" x1="-31772" fill="none"/><line y2="-32159" y1="-31330" x2="-31633" x1="-31633" fill="none"/><text y="-30628" xml:space="preserve" x="-32762" stroke="none" font-size="433.3333" font-family="sans-serif">OH</text><text y="-32199" xml:space="preserve" x="-31855" stroke="none" font-size="433.3333" font-family="sans-serif">O</text><text y="-32242" xml:space="preserve" x="-29960" stroke="none" font-size="433.3333" font-family="sans-serif">O</text><text y="-27874" xml:space="preserve" x="-30038" stroke="none" font-size="433.3333" font-family="sans-serif">Cl</text><text y="-30628" xml:space="preserve" x="-28978" stroke="none" font-size="433.3333" font-family="sans-serif">NH</text></g></g></svg>