<svg width="208.32" viewBox="0 0 6944 7993" text-rendering="auto" stroke-width="1" stroke-opacity="1" stroke-miterlimit="10" stroke-linejoin="miter" stroke-linecap="square" stroke-dashoffset="0" stroke-dasharray="none" stroke="black" shape-rendering="auto" image-rendering="auto" height="239.79" font-weight="normal" font-style="normal" font-size="12" font-family="'Dialog'" fill-opacity="1" fill="black" color-rendering="auto" color-interpolation="auto" xmlns="http://www.w3.org/2000/svg"><g><g stroke="white" fill="white"><rect y="0" x="0" width="6944" stroke="none" height="7993"/></g><g transform="translate(32866,32866)" text-rendering="geometricPrecision" stroke-width="44" stroke-linejoin="round" stroke-linecap="round"><line y2="-29694" y1="-29085" x2="-28903" x1="-28903" fill="none"/><line y2="-30440" y1="-30024" x2="-27996" x1="-28715" fill="none"/><line y2="-28406" y1="-28669" x2="-28106" x1="-28562" fill="none"/><line y2="-27250" y1="-28080" x2="-27918" x1="-27918" fill="none"/><line y2="-28406" y1="-28672" x2="-29697" x1="-29241" fill="none"/><line y2="-28822" y1="-28406" x2="-30792" x1="-30073" fill="none"/><line y2="-29330" y1="-29062" x2="-29706" x1="-29241" fill="none"/><line y2="-30489" y1="-29660" x2="-29894" x1="-29894" fill="none"/><line y2="-31575" y1="-30440" x2="-27996" x1="-27996" fill="none"/><line y2="-31434" y1="-30581" x2="-27825" x1="-27825" fill="none"/><line y2="-30440" y1="-29871" x2="-27996" x1="-27008" fill="none"/><line y2="-32144" y1="-31575" x2="-27008" x1="-27996" fill="none"/><line y2="-29871" y1="-30440" x2="-27008" x1="-26026" fill="none"/><line y2="-30087" y1="-30515" x2="-26970" x1="-26234" fill="none"/><line y2="-31575" y1="-32144" x2="-26026" x1="-27008" fill="none"/><line y2="-31500" y1="-31928" x2="-26234" x1="-26970" fill="none"/><line y2="-30440" y1="-31575" x2="-26026" x1="-26026" fill="none"/><line y2="-26681" y1="-27250" x2="-26933" x1="-27918" fill="none"/><line y2="-26603" y1="-27031" x2="-27141" x1="-27880" fill="none"/><line y2="-27250" y1="-26681" x2="-27918" x1="-28903" fill="none"/><line y2="-25543" y1="-26681" x2="-26936" x1="-26933" fill="none"/><line y2="-26681" y1="-25543" x2="-28903" x1="-28903" fill="none"/><line y2="-26540" y1="-25688" x2="-28732" x1="-28732" fill="none"/><line y2="-24977" y1="-25543" x2="-27918" x1="-26936" fill="none"/><line y2="-25194" y1="-25621" x2="-27880" x1="-27144" fill="none"/><line y2="-25543" y1="-24977" x2="-28903" x1="-27918" fill="none"/><line y2="-28822" y1="-29960" x2="-30792" x1="-30792" fill="none"/><line y2="-28966" y1="-29819" x2="-30963" x1="-30963" fill="none"/><line y2="-28253" y1="-28822" x2="-31777" x1="-30792" fill="none"/><line y2="-29960" y1="-30529" x2="-30792" x1="-31777" fill="none"/><line y2="-28822" y1="-28253" x2="-32762" x1="-31777" fill="none"/><line y2="-28900" y1="-28472" x2="-32554" x1="-31815" fill="none"/><line y2="-30529" y1="-29960" x2="-31777" x1="-32762" fill="none"/><line y2="-30310" y1="-29882" x2="-31815" x1="-32554" fill="none"/><line y2="-29960" y1="-28822" x2="-32762" x1="-32762" fill="none"/><line y2="-30489" y1="-31055" x2="-29894" x1="-28912" fill="none"/><line y2="-30706" y1="-31133" x2="-29856" x1="-29120" fill="none"/><line y2="-31055" y1="-30489" x2="-30879" x1="-29894" fill="none"/><line y2="-31055" y1="-32193" x2="-28912" x1="-28909" fill="none"/><line y2="-32193" y1="-31055" x2="-30879" x1="-30879" fill="none"/><line y2="-32049" y1="-31200" x2="-30708" x1="-30708" fill="none"/><line y2="-32193" y1="-32762" x2="-28909" x1="-29894" fill="none"/><line y2="-32118" y1="-32543" x2="-29117" x1="-29856" fill="none"/><line y2="-32762" y1="-32193" x2="-29894" x1="-30879" fill="none"/><text y="-28689" xml:space="preserve" x="-29134" stroke="none" font-size="433.3333" font-family="sans-serif">Si</text><text y="-29735" xml:space="preserve" x="-29056" stroke="none" font-size="433.3333" font-family="sans-serif">O</text><text y="-28120" xml:space="preserve" x="-28071" stroke="none" font-size="433.3333" font-family="sans-serif">O</text><text y="-28120" xml:space="preserve" x="-30038" stroke="none" font-size="433.3333" font-family="sans-serif">O</text><text y="-29261" xml:space="preserve" x="-30047" stroke="none" font-size="433.3333" font-family="sans-serif">O</text></g></g></svg>