<svg width="129.39" viewBox="0 0 4313 4361" text-rendering="auto" stroke-width="1" stroke-opacity="1" stroke-miterlimit="10" stroke-linejoin="miter" stroke-linecap="square" stroke-dashoffset="0" stroke-dasharray="none" stroke="black" shape-rendering="auto" image-rendering="auto" height="130.83" font-weight="normal" font-style="normal" font-size="12" font-family="'Dialog'" fill-opacity="1" fill="black" color-rendering="auto" color-interpolation="auto" xmlns="http://www.w3.org/2000/svg"><g><g stroke="white" fill="white"><rect y="0" x="0" width="4313" stroke="none" height="4361"/></g><g transform="translate(32866,32758)" text-rendering="geometricPrecision" stroke-width="44" stroke-linejoin="round" stroke-linecap="round"><line y2="-29076" y1="-30220" x2="-30622" x1="-30622" fill="none"/><line y2="-29218" y1="-30079" x2="-30792" x1="-30792" fill="none"/><line y2="-30220" y1="-30795" x2="-30622" x1="-31604" fill="none"/><line y2="-30795" y1="-30220" x2="-29640" x1="-30622" fill="none"/><line y2="-28501" y1="-29076" x2="-31604" x1="-30622" fill="none"/><line y2="-29076" y1="-28501" x2="-30622" x1="-29640" fill="none"/><line y2="-30795" y1="-30220" x2="-31604" x1="-32586" fill="none"/><line y2="-30576" y1="-30145" x2="-31642" x1="-32378" fill="none"/><line y2="-30220" y1="-30795" x2="-28657" x1="-29640" fill="none"/><line y2="-30145" y1="-30576" x2="-28865" x1="-29602" fill="none"/><line y2="-29076" y1="-28501" x2="-32586" x1="-31604" fill="none"/><line y2="-29151" y1="-28721" x2="-32378" x1="-31642" fill="none"/><line y2="-28501" y1="-29076" x2="-29640" x1="-28657" fill="none"/><line y2="-28721" y1="-29151" x2="-29602" x1="-28865" fill="none"/><line y2="-30220" y1="-29076" x2="-32586" x1="-32586" fill="none"/><line y2="-29076" y1="-30220" x2="-28657" x1="-28657" fill="none"/><line y2="-31841" y1="-30795" x2="-31604" x1="-31604" fill="none"/><line y2="-32092" y1="-31841" x2="-32040" x1="-31604" fill="none"/><text y="-32242" xml:space="preserve" x="-32762" stroke="none" font-size="433.3333" font-family="sans-serif">NH</text><text y="-32153" xml:space="preserve" x="-32185" stroke="none" font-size="313.3333" font-family="sans-serif">2</text></g></g></svg>