<svg width="251.49" viewBox="0 0 8383 4629" text-rendering="auto" stroke-width="1" stroke-opacity="1" stroke-miterlimit="10" stroke-linejoin="miter" stroke-linecap="square" stroke-dashoffset="0" stroke-dasharray="none" stroke="black" shape-rendering="auto" image-rendering="auto" height="138.87" font-weight="normal" font-style="normal" font-size="12" font-family="'Dialog'" fill-opacity="1" fill="black" color-rendering="auto" color-interpolation="auto" xmlns="http://www.w3.org/2000/svg"><g><g stroke="white" fill="white"><rect y="0" x="0" width="8383" stroke="none" height="4629"/></g><g transform="translate(32866,32758)" text-rendering="geometricPrecision" stroke-width="44" stroke-linejoin="round" stroke-linecap="round"><line y2="-29278" y1="-29804" x2="-29122" x1="-30030" fill="none"/><line y2="-29804" y1="-29278" x2="-28215" x1="-29122" fill="none"/><line y2="-29388" y1="-29804" x2="-27496" x1="-28215" fill="none"/><line y2="-29804" y1="-29388" x2="-26401" x1="-27120" fill="none"/><line y2="-29278" y1="-29804" x2="-30937" x1="-30030" fill="none"/><line y2="-30630" y1="-29804" x2="-30030" x1="-30030" fill="none"/><line y2="-31376" y1="-30960" x2="-30937" x1="-30217" fill="none"/><line y2="-29278" y1="-29804" x2="-25494" x1="-26401" fill="none"/><line y2="-30630" y1="-29804" x2="-26470" x1="-26470" fill="none"/><line y2="-30630" y1="-29804" x2="-26332" x1="-26332" fill="none"/><line y2="-30867" y1="-31376" x2="-31855" x1="-30937" fill="none"/><line y2="-32202" y1="-31376" x2="-31009" x1="-31009" fill="none"/><line y2="-32202" y1="-31376" x2="-30867" x1="-30867" fill="none"/><line y2="-29804" y1="-29278" x2="-24587" x1="-25494" fill="none"/><line y2="-28233" y1="-29278" x2="-25494" x1="-25494" fill="none"/><line y2="-28233" y1="-29278" x2="-25633" x1="-25633" fill="none"/><line y2="-31390" y1="-30867" x2="-32762" x1="-31855" fill="none"/><line y2="-29819" y1="-30867" x2="-31855" x1="-31855" fill="none"/><line y2="-29819" y1="-30867" x2="-31994" x1="-31994" fill="none"/><text y="-30671" xml:space="preserve" x="-30183" stroke="none" font-size="433.3333" font-family="sans-serif">O</text><text y="-32242" xml:space="preserve" x="-31090" stroke="none" font-size="433.3333" font-family="sans-serif">O</text><text y="-29099" xml:space="preserve" x="-27461" stroke="none" font-size="433.3333" font-family="sans-serif">O</text><text y="-30671" xml:space="preserve" x="-26554" stroke="none" font-size="433.3333" font-family="sans-serif">O</text></g></g></svg>