<svg width="377.94" viewBox="0 0 12598 6484" text-rendering="auto" stroke-width="1" stroke-opacity="1" stroke-miterlimit="10" stroke-linejoin="miter" stroke-linecap="square" stroke-dashoffset="0" stroke-dasharray="none" stroke="black" shape-rendering="auto" image-rendering="auto" height="194.52" font-weight="normal" font-style="normal" font-size="12" font-family="'Dialog'" fill-opacity="1" fill="black" color-rendering="auto" color-interpolation="auto" xmlns="http://www.w3.org/2000/svg"><g><g stroke="white" fill="white"><rect y="0" x="0" width="12598" stroke="none" height="6484"/></g><g transform="translate(32866,32758)" text-rendering="geometricPrecision" stroke-width="44" stroke-linejoin="round" stroke-linecap="round"><line y2="-29313" y1="-28756" x2="-27964" x1="-28718" fill="none"/><line y2="-28756" y1="-27692" x2="-28718" x1="-28392" fill="none"/><line y2="-28756" y1="-29307" x2="-26878" x1="-27588" fill="none"/><line y2="-27692" y1="-27692" x2="-28392" x1="-27245" fill="none"/><line y2="-27692" y1="-28756" x2="-27245" x1="-26878" fill="none"/><line y2="-28862" y1="-29278" x2="-25251" x1="-25971" fill="none"/><line y2="-29172" y1="-28862" x2="-24344" x1="-24876" fill="none"/><line y2="-28862" y1="-29172" x2="-23437" x1="-23969" fill="none"/><line y2="-29278" y1="-28862" x2="-22342" x1="-23062" fill="none"/><line y2="-30108" y1="-29498" x2="-24156" x1="-24156" fill="none"/><line y2="-30850" y1="-30434" x2="-25064" x1="-24344" fill="none"/><line y2="-28680" y1="-29172" x2="-30662" x1="-29816" fill="none"/><line y2="-29498" y1="-30477" x2="-29625" x1="-29625" fill="none"/><line y2="-29059" y1="-28680" x2="-31321" x1="-30662" fill="none"/><line y2="-30477" y1="-31078" x2="-29625" x1="-30662" fill="none"/><line y2="-30405" y1="-30856" x2="-29842" x1="-30619" fill="none"/><line y2="-30477" y1="-29498" x2="-31705" x1="-31705" fill="none"/><line y2="-31078" y1="-30477" x2="-30662" x1="-31705" fill="none"/><line y2="-27851" y1="-28680" x2="-30593" x1="-30593" fill="none"/><line y2="-27851" y1="-28680" x2="-30732" x1="-30732" fill="none"/><line y2="-30833" y1="-30417" x2="-32459" x1="-31740" fill="none"/><line y2="-30954" y1="-30538" x2="-32387" x1="-31670" fill="none"/><line y2="-30417" y1="-29278" x2="-22342" x1="-22342" fill="none"/><line y2="-30275" y1="-29423" x2="-22172" x1="-22172" fill="none"/><line y2="-29278" y1="-28709" x2="-22342" x1="-21354" fill="none"/><line y2="-30986" y1="-30417" x2="-21354" x1="-22342" fill="none"/><line y2="-28709" y1="-29278" x2="-21354" x1="-20372" fill="none"/><line y2="-28929" y1="-29356" x2="-21317" x1="-20580" fill="none"/><line y2="-30417" y1="-30986" x2="-20372" x1="-21354" fill="none"/><line y2="-30342" y1="-30766" x2="-20580" x1="-21317" fill="none"/><line y2="-29278" y1="-30417" x2="-20372" x1="-20372" fill="none"/><line y2="-30327" y1="-30850" x2="-25971" x1="-25064" fill="none"/><line y2="-32315" y1="-31899" x2="-25783" x1="-25064" fill="none"/><line y2="-31899" y1="-32315" x2="-26881" x1="-26158" fill="none"/><line y2="-32375" y1="-31959" x2="-24379" x1="-25098" fill="none"/><line y2="-32254" y1="-31858" x2="-24310" x1="-24994" fill="none"/><line y2="-32422" y1="-31899" x2="-27788" x1="-26881" fill="none"/><line y2="-30850" y1="-31899" x2="-26881" x1="-26881" fill="none"/><polygon stroke-width="1" stroke="none" points=" -28392 -27692 -28236 -26878 -28374 -26860"/><polygon stroke-width="1" points=" -28392 -27692 -28236 -26878 -28374 -26860" fill="none"/><polygon stroke-width="1" stroke="none" points=" -27245 -27692 -26742 -27094 -26855 -27011"/><polygon stroke-width="1" points=" -27245 -27692 -26742 -27094 -26855 -27011" fill="none"/><polygon stroke-width="1" stroke="none" points=" -25064 -30850 -25133 -31899 -24994 -31899"/><polygon stroke-width="1" points=" -25064 -30850 -25133 -31899 -24994 -31899" fill="none"/><line y2="-29218" y1="-29339" x2="-25936" x1="-26002" fill="none"/><line y2="-29123" y1="-29219" x2="-26131" x1="-26183" fill="none"/><line y2="-29027" y1="-29098" x2="-26325" x1="-26364" fill="none"/><line y2="-28932" y1="-28978" x2="-26520" x1="-26545" fill="none"/><line y2="-28836" y1="-28857" x2="-26715" x1="-26726" fill="none"/><line y2="-29229" y1="-29111" x2="-29403" x1="-29472" fill="none"/><line y2="-29106" y1="-29018" x2="-29224" x1="-29275" fill="none"/><line y2="-28982" y1="-28926" x2="-29045" x1="-29078" fill="none"/><line y2="-28859" y1="-28833" x2="-28867" x1="-28882" fill="none"/><line y2="-27542" y1="-27406" x2="-29432" x1="-29400" fill="none"/><line y2="-27573" y1="-27465" x2="-29217" x1="-29191" fill="none"/><line y2="-27604" y1="-27524" x2="-29002" x1="-28983" fill="none"/><line y2="-27635" y1="-27584" x2="-28786" x1="-28774" fill="none"/><line y2="-27666" y1="-27643" x2="-28571" x1="-28566" fill="none"/><line y2="-29842" y1="-29741" x2="-23521" x1="-23463" fill="none"/><line y2="-29699" y1="-29633" x2="-23687" x1="-23650" fill="none"/><line y2="-29555" y1="-29525" x2="-23854" x1="-23837" fill="none"/><line y2="-29547" y1="-29648" x2="-23350" x1="-23408" fill="none"/><line y2="-29475" y1="-29540" x2="-23557" x1="-23595" fill="none"/><line y2="-29403" y1="-29433" x2="-23765" x1="-23782" fill="none"/><text y="-26470" xml:space="preserve" x="-28435" stroke="none" font-size="433.3333" font-family="sans-serif">F</text><text y="-27453" xml:space="preserve" x="-30815" stroke="none" font-size="433.3333" font-family="sans-serif">O</text><text y="-28576" xml:space="preserve" x="-25214" stroke="none" font-size="433.3333" font-family="sans-serif">O</text><text y="-29099" xml:space="preserve" x="-24307" stroke="none" font-size="433.3333" font-family="sans-serif">P</text><text y="-28576" xml:space="preserve" x="-23400" stroke="none" font-size="433.3333" font-family="sans-serif">O</text><text y="-30148" xml:space="preserve" x="-24307" stroke="none" font-size="433.3333" font-family="sans-serif">NH</text><text y="-29625" xml:space="preserve" x="-23400" stroke="none" font-size="433.3333" font-family="sans-serif">O</text><text y="-32242" xml:space="preserve" x="-26124" stroke="none" font-size="433.3333" font-family="sans-serif">O</text><text y="-32242" xml:space="preserve" x="-24310" stroke="none" font-size="433.3333" font-family="sans-serif">O</text><text y="-26655" xml:space="preserve" x="-26797" stroke="none" font-size="433.3333" font-family="sans-serif">OH</text><text y="-30821" xml:space="preserve" x="-32762" stroke="none" font-size="433.3333" font-family="sans-serif">O</text><text y="-29273" xml:space="preserve" x="-27929" stroke="none" font-size="433.3333" font-family="sans-serif">O</text><text y="-29099" xml:space="preserve" x="-29778" stroke="none" font-size="433.3333" font-family="sans-serif">N</text><text y="-29099" xml:space="preserve" x="-31855" stroke="none" font-size="433.3333" font-family="sans-serif">NH</text><text y="-28686" xml:space="preserve" x="-24419" stroke="none" font-style="italic" font-size="313.3333" font-family="sans-serif">S</text><text y="-30370" xml:space="preserve" x="-25217" stroke="none" font-style="italic" font-size="313.3333" font-family="sans-serif">S</text><text y="-28501" xml:space="preserve" x="-28594" stroke="none" font-style="italic" font-size="313.3333" font-family="sans-serif">R</text><text y="-27799" xml:space="preserve" x="-28311" stroke="none" font-style="italic" font-size="313.3333" font-family="sans-serif">R</text><text y="-28478" xml:space="preserve" x="-27300" stroke="none" font-style="italic" font-size="313.3333" font-family="sans-serif">R</text><text y="-27799" xml:space="preserve" x="-27629" stroke="none" font-style="italic" font-size="313.3333" font-family="sans-serif">R</text></g></g></svg>