<svg width="225.72" viewBox="0 0 7524 3191" text-rendering="auto" stroke-width="1" stroke-opacity="1" stroke-miterlimit="10" stroke-linejoin="miter" stroke-linecap="square" stroke-dashoffset="0" stroke-dasharray="none" stroke="black" shape-rendering="auto" image-rendering="auto" height="95.73" font-weight="normal" font-style="normal" font-size="12" font-family="'Dialog'" fill-opacity="1" fill="black" color-rendering="auto" color-interpolation="auto" xmlns="http://www.w3.org/2000/svg"><g><g stroke="white" fill="white"><rect y="0" x="0" width="7524" stroke="none" height="3191"/></g><g transform="translate(32866,32758)" text-rendering="geometricPrecision" stroke-width="44" stroke-linejoin="round" stroke-linecap="round"><line y2="-30512" y1="-31448" x2="-31159" x1="-30836" fill="none"/><line y2="-31812" y1="-32277" x2="-30948" x1="-31549" fill="none"/><line y2="-30512" y1="-30512" x2="-32216" x1="-31159" fill="none"/><line y2="-30680" y1="-30680" x2="-32084" x1="-31292" fill="none"/><line y2="-32283" y1="-31668" x2="-31928" x1="-32762" fill="none"/><line y2="-32069" y1="-31607" x2="-31930" x1="-32557" fill="none"/><line y2="-31668" y1="-30729" x2="-32762" x1="-32474" fill="none"/><line y2="-32190" y1="-31774" x2="-29853" x1="-30573" fill="none"/><line y2="-31668" y1="-32190" x2="-28946" x1="-29853" fill="none"/><line y2="-31668" y1="-30529" x2="-28946" x1="-28946" fill="none"/><line y2="-31523" y1="-30671" x2="-28776" x1="-28776" fill="none"/><line y2="-32237" y1="-31668" x2="-27958" x1="-28946" fill="none"/><line y2="-30529" y1="-29960" x2="-28946" x1="-27958" fill="none"/><line y2="-31668" y1="-32237" x2="-26976" x1="-27958" fill="none"/><line y2="-31590" y1="-32017" x2="-27184" x1="-27921" fill="none"/><line y2="-29960" y1="-30529" x2="-27958" x1="-26976" fill="none"/><line y2="-30180" y1="-30604" x2="-27921" x1="-27184" fill="none"/><line y2="-30529" y1="-31668" x2="-26976" x1="-26976" fill="none"/><line y2="-30113" y1="-30529" x2="-26257" x1="-26976" fill="none"/><text y="-29827" xml:space="preserve" x="-26222" stroke="none" font-size="433.3333" font-family="sans-serif">NH</text><text y="-29738" xml:space="preserve" x="-25644" stroke="none" font-size="313.3333" font-family="sans-serif">2</text><text y="-31488" xml:space="preserve" x="-30914" stroke="none" font-size="433.3333" font-family="sans-serif">N</text><text y="-32242" xml:space="preserve" x="-31890" stroke="none" font-size="433.3333" font-family="sans-serif">N</text><text y="-30333" xml:space="preserve" x="-32557" stroke="none" font-size="433.3333" font-family="sans-serif">N</text></g></g></svg>