<svg width="563.16" viewBox="0 0 18772 2283" text-rendering="auto" stroke-width="1" stroke-opacity="1" stroke-miterlimit="10" stroke-linejoin="miter" stroke-linecap="square" stroke-dashoffset="0" stroke-dasharray="none" stroke="black" shape-rendering="auto" image-rendering="auto" height="68.49" font-weight="normal" font-style="normal" font-size="12" font-family="'Dialog'" fill-opacity="1" fill="black" color-rendering="auto" color-interpolation="auto" xmlns="http://www.w3.org/2000/svg"><g><g stroke="white" fill="white"><rect y="0" x="0" width="18772" stroke="none" height="2283"/></g><g transform="translate(32866,32758)" text-rendering="geometricPrecision" stroke-width="44" stroke-linejoin="round" stroke-linecap="round"><line y2="-31899" y1="-31899" x2="-29900" x1="-30948" fill="none"/><line y2="-32037" y1="-32037" x2="-30032" x1="-30818" fill="none"/><line y2="-32422" y1="-31899" x2="-31855" x1="-30948" fill="none"/><line y2="-31899" y1="-32422" x2="-32762" x1="-31855" fill="none"/><line y2="-32422" y1="-31899" x2="-28992" x1="-29900" fill="none"/><line y2="-31899" y1="-32422" x2="-28085" x1="-28992" fill="none"/><line y2="-31899" y1="-31899" x2="-27040" x1="-28085" fill="none"/><line y2="-32037" y1="-32037" x2="-27170" x1="-27955" fill="none"/><line y2="-32422" y1="-31899" x2="-26132" x1="-27040" fill="none"/><line y2="-31899" y1="-32422" x2="-25225" x1="-26132" fill="none"/><line y2="-31899" y1="-31899" x2="-24177" x1="-25225" fill="none"/><line y2="-32037" y1="-32037" x2="-24307" x1="-25092" fill="none"/><line y2="-32422" y1="-31899" x2="-23270" x1="-24177" fill="none"/><line y2="-31899" y1="-32422" x2="-22362" x1="-23270" fill="none"/><line y2="-32422" y1="-31899" x2="-21455" x1="-22362" fill="none"/><line y2="-31899" y1="-32422" x2="-20548" x1="-21455" fill="none"/><line y2="-32422" y1="-31899" x2="-19641" x1="-20548" fill="none"/><line y2="-31899" y1="-32422" x2="-18734" x1="-19641" fill="none"/><line y2="-32422" y1="-31899" x2="-17827" x1="-18734" fill="none"/><line y2="-31899" y1="-32422" x2="-16920" x1="-17827" fill="none"/><line y2="-32315" y1="-31899" x2="-16200" x1="-16920" fill="none"/><line y2="-31899" y1="-32315" x2="-15106" x1="-15825" fill="none"/><line y2="-32422" y1="-31899" x2="-14198" x1="-15106" fill="none"/><line y2="-31070" y1="-31899" x2="-16848" x1="-16848" fill="none"/><line y2="-31070" y1="-31899" x2="-16989" x1="-16989" fill="none"/><text y="-32242" xml:space="preserve" x="-16163" stroke="none" font-size="433.3333" font-family="sans-serif">O</text><text y="-30671" xml:space="preserve" x="-17070" stroke="none" font-size="433.3333" font-family="sans-serif">O</text><text y="-32115" xml:space="preserve" x="-24853" stroke="none" font-style="italic" font-size="313.3333" font-family="sans-serif">Z</text><text y="-32115" xml:space="preserve" x="-27716" stroke="none" font-style="italic" font-size="313.3333" font-family="sans-serif">Z</text><text y="-32185" xml:space="preserve" x="-30576" stroke="none" font-style="italic" font-size="313.3333" font-family="sans-serif">Z</text></g></g></svg>