<svg width="142.62" viewBox="0 0 4754 2801" text-rendering="auto" stroke-width="1" stroke-opacity="1" stroke-miterlimit="10" stroke-linejoin="miter" stroke-linecap="square" stroke-dashoffset="0" stroke-dasharray="none" stroke="black" shape-rendering="auto" image-rendering="auto" height="84.03" font-weight="normal" font-style="normal" font-size="12" font-family="'Dialog'" fill-opacity="1" fill="black" color-rendering="auto" color-interpolation="auto" xmlns="http://www.w3.org/2000/svg"><g><g stroke="white" fill="white"><rect y="0" x="0" width="4754" stroke="none" height="2801"/></g><g transform="translate(32866,32866)" text-rendering="geometricPrecision" stroke-width="44" stroke-linejoin="round" stroke-linecap="round"><line y2="-30966" y1="-30365" x2="-31702" x1="-30662" fill="none"/><line y2="-30365" y1="-30966" x2="-30662" x1="-29625" fill="none"/><line y2="-30590" y1="-31038" x2="-30619" x1="-29842" fill="none"/><line y2="-31942" y1="-30966" x2="-31702" x1="-31702" fill="none"/><line y2="-30966" y1="-31942" x2="-29625" x1="-29625" fill="none"/><line y2="-32762" y1="-32381" x2="-30662" x1="-31321" fill="none"/><line y2="-32271" y1="-32762" x2="-29813" x1="-30662" fill="none"/><line y2="-32188" y1="-32554" x2="-30006" x1="-30642" fill="none"/><line y2="-30550" y1="-30966" x2="-28906" x1="-29625" fill="none"/><line y2="-30489" y1="-30902" x2="-32387" x1="-31668" fill="none"/><line y2="-30610" y1="-31026" x2="-32456" x1="-31737" fill="none"/><text y="-30261" xml:space="preserve" x="-32762" stroke="none" font-size="433.3333" font-family="sans-serif">O</text><text y="-30261" xml:space="preserve" x="-28871" stroke="none" font-size="433.3333" font-family="sans-serif">OH</text><text y="-31982" xml:space="preserve" x="-31855" stroke="none" font-size="433.3333" font-family="sans-serif">NH</text><text y="-31982" xml:space="preserve" x="-29778" stroke="none" font-size="433.3333" font-family="sans-serif">N</text></g></g></svg>