<svg width="235.38" viewBox="0 0 7846 7608" text-rendering="auto" stroke-width="1" stroke-opacity="1" stroke-miterlimit="10" stroke-linejoin="miter" stroke-linecap="square" stroke-dashoffset="0" stroke-dasharray="none" stroke="black" shape-rendering="auto" image-rendering="auto" height="228.24" font-weight="normal" font-style="normal" font-size="12" font-family="'Dialog'" fill-opacity="1" fill="black" color-rendering="auto" color-interpolation="auto" xmlns="http://www.w3.org/2000/svg"><g><g stroke="white" fill="white"><rect y="0" x="0" width="7846" stroke="none" height="7608"/></g><g transform="translate(32866,32758)" text-rendering="geometricPrecision" stroke-width="44" stroke-linejoin="round" stroke-linecap="round"><line y2="-26973" y1="-27545" x2="-27089" x1="-28071" fill="none"/><line y2="-25826" y1="-26973" x2="-27089" x1="-27089" fill="none"/><line y2="-25971" y1="-26829" x2="-27259" x1="-27259" fill="none"/><line y2="-27545" y1="-26973" x2="-26106" x1="-27089" fill="none"/><line y2="-27545" y1="-26973" x2="-28071" x1="-29053" fill="none"/><line y2="-27326" y1="-26898" x2="-28108" x1="-28845" fill="none"/><line y2="-25254" y1="-25826" x2="-28071" x1="-27089" fill="none"/><line y2="-25826" y1="-25254" x2="-27089" x1="-26106" fill="none"/><line y2="-26973" y1="-27545" x2="-25124" x1="-26106" fill="none"/><line y2="-26898" y1="-27326" x2="-25332" x1="-26069" fill="none"/><line y2="-26973" y1="-25826" x2="-29053" x1="-29053" fill="none"/><line y2="-25826" y1="-25254" x2="-29053" x1="-28071" fill="none"/><line y2="-25901" y1="-25471" x2="-28845" x1="-28108" fill="none"/><line y2="-25254" y1="-25826" x2="-26106" x1="-25124" fill="none"/><line y2="-25471" y1="-25901" x2="-26069" x1="-25332" fill="none"/><line y2="-25826" y1="-26973" x2="-25124" x1="-25124" fill="none"/><line y2="-28374" y1="-27545" x2="-28071" x1="-28071" fill="none"/><line y2="-29117" y1="-28701" x2="-28978" x1="-28259" fill="none"/><line y2="-30165" y1="-29117" x2="-28978" x1="-28978" fill="none"/><line y2="-30688" y1="-30165" x2="-29885" x1="-28978" fill="none"/><line y2="-30165" y1="-30688" x2="-30792" x1="-29885" fill="none"/><line y2="-30165" y1="-30734" x2="-30792" x1="-31777" fill="none"/><line y2="-30090" y1="-30515" x2="-31000" x1="-31740" fill="none"/><line y2="-29027" y1="-30165" x2="-30792" x1="-30792" fill="none"/><line y2="-30734" y1="-30165" x2="-31777" x1="-32762" fill="none"/><line y2="-28458" y1="-29027" x2="-31777" x1="-30792" fill="none"/><line y2="-28678" y1="-29105" x2="-31740" x1="-31000" fill="none"/><line y2="-30165" y1="-29027" x2="-32762" x1="-32762" fill="none"/><line y2="-30024" y1="-29169" x2="-32592" x1="-32592" fill="none"/><line y2="-29027" y1="-28458" x2="-32762" x1="-31777" fill="none"/><line y2="-32092" y1="-31844" x2="-30503" x1="-30073" fill="none"/><line y2="-32153" y1="-31844" x2="-29166" x1="-29697" fill="none"/><polygon stroke-width="1" stroke="none" points=" -29885 -30688 -29954 -31517 -29816 -31517"/><polygon stroke-width="1" points=" -29885 -30688 -29954 -31517 -29816 -31517" fill="none"/><text y="-28415" xml:space="preserve" x="-28224" stroke-width="1" stroke="none" font-size="433.3333" font-family="sans-serif">O</text><text y="-31558" xml:space="preserve" x="-30038" stroke-width="1" stroke="none" font-size="433.3333" font-family="sans-serif">N</text><text y="-32242" xml:space="preserve" x="-31226" stroke-width="1" stroke="none" font-size="433.3333" font-family="sans-serif">CH</text><text y="-32153" xml:space="preserve" x="-30648" stroke-width="1" stroke="none" font-size="313.3333" font-family="sans-serif">3</text><text y="-32081" xml:space="preserve" x="-29131" stroke-width="1" stroke="none" font-size="433.3333" font-family="sans-serif">CH</text><text y="-31991" xml:space="preserve" x="-28553" stroke-width="1" stroke="none" font-size="313.3333" font-family="sans-serif">3</text></g><g transform="translate(32866,32758)" text-rendering="geometricPrecision" stroke-linejoin="round" stroke-linecap="round" font-style="italic" font-size="313.3333" font-family="sans-serif"><text y="-30206" xml:space="preserve" x="-30038" stroke="none">S</text></g></g></svg>