<svg width="156.78" viewBox="0 0 5226 3407" text-rendering="auto" stroke-width="1" stroke-opacity="1" stroke-miterlimit="10" stroke-linejoin="miter" stroke-linecap="square" stroke-dashoffset="0" stroke-dasharray="none" stroke="black" shape-rendering="auto" image-rendering="auto" height="102.21" font-weight="normal" font-style="normal" font-size="12" font-family="'Dialog'" fill-opacity="1" fill="black" color-rendering="auto" color-interpolation="auto" xmlns="http://www.w3.org/2000/svg"><g><g stroke="white" fill="white"><rect y="0" x="0" width="5226" stroke="none" height="3407"/></g><g transform="translate(32866,32758)" text-rendering="geometricPrecision" stroke-width="44" stroke-linejoin="round" stroke-linecap="round"><line y2="-30495" y1="-31659" x2="-29091" x1="-28686" fill="none"/><line y2="-31659" y1="-32277" x2="-28686" x1="-29486" fill="none"/><line y2="-30495" y1="-30495" x2="-30160" x1="-29091" fill="none"/><line y2="-32283" y1="-31800" x2="-29862" x1="-30518" fill="none"/><line y2="-31442" y1="-30714" x2="-30636" x1="-30414" fill="none"/><line y2="-31200" y1="-31659" x2="-27744" x1="-28686" fill="none"/><line y2="-32549" y1="-31659" x2="-28132" x1="-28686" fill="none"/><line y2="-29455" y1="-30495" x2="-29218" x1="-29091" fill="none"/><line y2="-30240" y1="-30495" x2="-28074" x1="-29091" fill="none"/><line y2="-32075" y1="-31769" x2="-31425" x1="-30893" fill="none"/><line y2="-31826" y1="-32075" x2="-32231" x1="-31800" fill="none"/><text y="-32006" xml:space="preserve" x="-31766" stroke="none" font-size="433.3333" font-family="sans-serif">O</text><text y="-31431" xml:space="preserve" x="-32762" stroke="none" font-size="433.3333" font-family="sans-serif">CH</text><text y="-31341" xml:space="preserve" x="-32185" stroke="none" font-size="313.3333" font-family="sans-serif">3</text><text y="-32242" xml:space="preserve" x="-29824" stroke="none" font-size="433.3333" font-family="sans-serif">O</text><text y="-30316" xml:space="preserve" x="-30498" stroke="none" font-size="433.3333" font-family="sans-serif">O</text><text y="-31480" xml:space="preserve" x="-30859" stroke="none" font-size="433.3333" font-family="sans-serif">B</text></g></g></svg>