<svg width="335.88" viewBox="0 0 11196 5722" text-rendering="auto" stroke-width="1" stroke-opacity="1" stroke-miterlimit="10" stroke-linejoin="miter" stroke-linecap="square" stroke-dashoffset="0" stroke-dasharray="none" stroke="black" shape-rendering="auto" image-rendering="auto" height="171.66" font-weight="normal" font-style="normal" font-size="12" font-family="'Dialog'" fill-opacity="1" fill="black" color-rendering="auto" color-interpolation="auto" xmlns="http://www.w3.org/2000/svg"><g><g stroke="white" fill="white"><rect y="0" x="0" width="11196" stroke="none" height="5722"/></g><g transform="translate(32866,32758)" text-rendering="geometricPrecision" stroke-width="44" stroke-linejoin="round" stroke-linecap="round"><line y2="-30807" y1="-29668" x2="-26182" x1="-26182" fill="none"/><line y2="-30665" y1="-29810" x2="-26011" x1="-26011" fill="none"/><line y2="-31376" y1="-30807" x2="-25196" x1="-26182" fill="none"/><line y2="-29668" y1="-29099" x2="-26182" x1="-25196" fill="none"/><line y2="-30914" y1="-31376" x2="-24399" x1="-25196" fill="none"/><line y2="-29099" y1="-29668" x2="-25196" x1="-24211" fill="none"/><line y2="-29319" y1="-29744" x2="-25159" x1="-24419" fill="none"/><line y2="-29668" y1="-30587" x2="-24211" x1="-24211" fill="none"/><line y2="-31330" y1="-30807" x2="-27089" x1="-26182" fill="none"/><line y2="-28273" y1="-29099" x2="-25196" x1="-25196" fill="none"/><line y2="-27695" y1="-27944" x2="-25812" x1="-25384" fill="none"/><line y2="-29252" y1="-29668" x2="-23492" x1="-24211" fill="none"/><line y2="-29562" y1="-29252" x2="-22585" x1="-23116" fill="none"/><line y2="-29365" y1="-29668" x2="-26710" x1="-26182" fill="none"/><line y2="-32202" y1="-31376" x2="-25266" x1="-25266" fill="none"/><line y2="-32202" y1="-31376" x2="-25124" x1="-25124" fill="none"/><line y2="-30807" y1="-31330" x2="-27996" x1="-27089" fill="none"/><line y2="-32159" y1="-31330" x2="-27158" x1="-27158" fill="none"/><line y2="-32159" y1="-31330" x2="-27019" x1="-27019" fill="none"/><line y2="-31330" y1="-30807" x2="-28903" x1="-27996" fill="none"/><line y2="-30807" y1="-31330" x2="-29810" x1="-28903" fill="none"/><line y2="-31330" y1="-30807" x2="-30717" x1="-29810" fill="none"/><line y2="-30807" y1="-31330" x2="-31624" x1="-30717" fill="none"/><line y2="-31133" y1="-30807" x2="-32190" x1="-31624" fill="none"/><polygon stroke-width="1" stroke="none" points=" -27996 -30807 -27926 -29758 -28065 -29758"/><polygon stroke-width="1" points=" -27996 -30807 -27926 -29758 -28065 -29758" fill="none"/><line y2="-29758" y1="-29758" x2="-29879" x1="-29741" fill="none"/><line y2="-29975" y1="-29975" x2="-29865" x1="-29755" fill="none"/><line y2="-30191" y1="-30191" x2="-29850" x1="-29770" fill="none"/><line y2="-30408" y1="-30408" x2="-29836" x1="-29784" fill="none"/><line y2="-30625" y1="-30625" x2="-29822" x1="-29798" fill="none"/><line y2="-32159" y1="-32159" x2="-30648" x1="-30786" fill="none"/><line y2="-31942" y1="-31942" x2="-30666" x1="-30768" fill="none"/><line y2="-31726" y1="-31726" x2="-30684" x1="-30750" fill="none"/><line y2="-31509" y1="-31509" x2="-30702" x1="-30732" fill="none"/><text y="-32199" xml:space="preserve" x="-27242" stroke="none" font-size="433.3333" font-family="sans-serif">O</text><text y="-32199" xml:space="preserve" x="-30948" stroke="none" font-size="433.3333" font-family="sans-serif">Cl</text><text y="-31150" xml:space="preserve" x="-32762" stroke="none" font-size="433.3333" font-family="sans-serif">Cl</text><text y="-28966" xml:space="preserve" x="-27242" stroke="none" font-size="433.3333" font-family="sans-serif">OH</text><text y="-32242" xml:space="preserve" x="-25347" stroke="none" font-size="433.3333" font-family="sans-serif">O</text><text y="-27874" xml:space="preserve" x="-25347" stroke="none" font-size="433.3333" font-family="sans-serif">O</text><text y="-27297" xml:space="preserve" x="-26346" stroke="none" font-size="433.3333" font-family="sans-serif">CH</text><text y="-27207" xml:space="preserve" x="-25768" stroke="none" font-size="313.3333" font-family="sans-serif">3</text><text y="-28966" xml:space="preserve" x="-23457" stroke="none" font-size="433.3333" font-family="sans-serif">O</text><text y="-29489" xml:space="preserve" x="-22550" stroke="none" font-size="433.3333" font-family="sans-serif">CH</text><text y="-29400" xml:space="preserve" x="-21972" stroke="none" font-size="313.3333" font-family="sans-serif">3</text><text y="-30628" xml:space="preserve" x="-24364" stroke="none" font-size="433.3333" font-family="sans-serif">NH</text><text y="-30928" xml:space="preserve" x="-28149" stroke="none" font-style="italic" font-size="313.3333" font-family="sans-serif">S</text><text y="-30928" xml:space="preserve" x="-29963" stroke="none" font-style="italic" font-size="313.3333" font-family="sans-serif">S</text><text y="-30847" xml:space="preserve" x="-30870" stroke="none" font-style="italic" font-size="313.3333" font-family="sans-serif">R</text></g></g></svg>