<svg width="259.86" viewBox="0 0 8662 5221" text-rendering="auto" stroke-width="1" stroke-opacity="1" stroke-miterlimit="10" stroke-linejoin="miter" stroke-linecap="square" stroke-dashoffset="0" stroke-dasharray="none" stroke="black" shape-rendering="auto" image-rendering="auto" height="156.63" font-weight="normal" font-style="normal" font-size="12" font-family="'Dialog'" fill-opacity="1" fill="black" color-rendering="auto" color-interpolation="auto" xmlns="http://www.w3.org/2000/svg"><g><g stroke="white" fill="white"><rect y="0" x="0" width="8662" stroke="none" height="5221"/></g><g transform="translate(32866,32758)" text-rendering="geometricPrecision" stroke-width="44" stroke-linejoin="round" stroke-linecap="round"><line y2="-30096" y1="-30665" x2="-28825" x1="-29810" fill="none"/><line y2="-30021" y1="-30448" x2="-29033" x1="-29772" fill="none"/><line y2="-28961" y1="-30096" x2="-28825" x1="-28825" fill="none"/><line y2="-30665" y1="-30096" x2="-29810" x1="-30795" fill="none"/><line y2="-28392" y1="-28961" x2="-29810" x1="-28825" fill="none"/><line y2="-28608" y1="-29036" x2="-29772" x1="-29033" fill="none"/><line y2="-30096" y1="-28961" x2="-30795" x1="-30795" fill="none"/><line y2="-29954" y1="-29102" x2="-30625" x1="-30625" fill="none"/><line y2="-28961" y1="-28392" x2="-30795" x1="-29810" fill="none"/><line y2="-30622" y1="-30096" x2="-27918" x1="-28825" fill="none"/><line y2="-28435" y1="-28961" x2="-31702" x1="-30795" fill="none"/><line y2="-30512" y1="-30096" x2="-31514" x1="-30795" fill="none"/><line y2="-31821" y1="-30622" x2="-27918" x1="-27918" fill="none"/><line y2="-30622" y1="-30128" x2="-27918" x1="-27066" fill="none"/><line y2="-30706" y1="-30339" x2="-27727" x1="-27086" fill="none"/><line y2="-32315" y1="-31821" x2="-27066" x1="-27918" fill="none"/><line y2="-32104" y1="-31737" x2="-27086" x1="-27727" fill="none"/><line y2="-30128" y1="-30512" x2="-26690" x1="-26026" fill="none"/><line y2="-31821" y1="-32315" x2="-25838" x1="-26690" fill="none"/><line y2="-30841" y1="-31821" x2="-25838" x1="-25838" fill="none"/><line y2="-30963" y1="-31699" x2="-26008" x1="-26008" fill="none"/><line y2="-32237" y1="-31821" x2="-25118" x1="-25838" fill="none"/><line y2="-28019" y1="-28435" x2="-32422" x1="-31702" fill="none"/><line y2="-27941" y1="-28357" x2="-32378" x1="-31659" fill="none"/><line y2="-28097" y1="-28513" x2="-32468" x1="-31748" fill="none"/><text y="-30443" xml:space="preserve" x="-31855" stroke="none" font-size="433.3333" font-family="sans-serif">F</text><text y="-27733" xml:space="preserve" x="-32762" stroke="none" font-size="433.3333" font-family="sans-serif">N</text><text y="-32167" xml:space="preserve" x="-25084" stroke="none" font-size="433.3333" font-family="sans-serif">NH</text><text y="-32078" xml:space="preserve" x="-24506" stroke="none" font-size="313.3333" font-family="sans-serif">2</text><text y="-29842" xml:space="preserve" x="-27028" stroke="none" font-size="433.3333" font-family="sans-serif">N</text><text y="-32242" xml:space="preserve" x="-27028" stroke="none" font-size="433.3333" font-family="sans-serif">N</text><text y="-30443" xml:space="preserve" x="-25991" stroke="none" font-size="433.3333" font-family="sans-serif">N</text></g></g></svg>