<svg width="143.61" viewBox="0 0 4787 2714" text-rendering="auto" stroke-width="1" stroke-opacity="1" stroke-miterlimit="10" stroke-linejoin="miter" stroke-linecap="square" stroke-dashoffset="0" stroke-dasharray="none" stroke="black" shape-rendering="auto" image-rendering="auto" height="81.42" font-weight="normal" font-style="normal" font-size="12" font-family="'Dialog'" fill-opacity="1" fill="black" color-rendering="auto" color-interpolation="auto" xmlns="http://www.w3.org/2000/svg"><g><g stroke="white" fill="white"><rect y="0" x="0" width="4787" stroke="none" height="2714"/></g><g transform="translate(32866,32758)" text-rendering="geometricPrecision" stroke-width="44" stroke-linejoin="round" stroke-linecap="round"><line y2="-31855" y1="-30717" x2="-30642" x1="-30642" fill="none"/><line y2="-30717" y1="-30717" x2="-30642" x1="-28857" fill="none"/><line y2="-30148" y1="-30717" x2="-31624" x1="-30642" fill="none"/><line y2="-30365" y1="-30792" x2="-31587" x1="-30850" fill="none"/><line y2="-32315" y1="-31855" x2="-29842" x1="-30642" fill="none"/><line y2="-31855" y1="-32315" x2="-30642" x1="-31436" fill="none"/><line y2="-31766" y1="-32110" x2="-30824" x1="-31422" fill="none"/><line y2="-30937" y1="-31855" x2="-28669" x1="-28669" fill="none"/><line y2="-30607" y1="-30148" x2="-32424" x1="-31624" fill="none"/><line y2="-31855" y1="-32315" x2="-28669" x1="-29466" fill="none"/><line y2="-31766" y1="-32110" x2="-28854" x1="-29452" fill="none"/><line y2="-32315" y1="-31855" x2="-31812" x1="-32612" fill="none"/><line y2="-31855" y1="-30937" x2="-32612" x1="-32612" fill="none"/><line y2="-31740" y1="-31049" x2="-32442" x1="-32442" fill="none"/><text y="-30538" xml:space="preserve" x="-28822" stroke="none" font-size="433.3333" font-family="sans-serif">NH</text><text y="-32242" xml:space="preserve" x="-29804" stroke="none" font-size="433.3333" font-family="sans-serif">N</text><text y="-32242" xml:space="preserve" x="-31777" stroke="none" font-size="433.3333" font-family="sans-serif">N</text><text y="-30538" xml:space="preserve" x="-32762" stroke="none" font-size="433.3333" font-family="sans-serif">N</text></g></g></svg>