<svg width="284.88" viewBox="0 0 9496 6388" text-rendering="auto" stroke-width="1" stroke-opacity="1" stroke-miterlimit="10" stroke-linejoin="miter" stroke-linecap="square" stroke-dashoffset="0" stroke-dasharray="none" stroke="black" shape-rendering="auto" image-rendering="auto" height="191.64" font-weight="normal" font-style="normal" font-size="12" font-family="'Dialog'" fill-opacity="1" fill="black" color-rendering="auto" color-interpolation="auto" xmlns="http://www.w3.org/2000/svg"><g><g stroke="white" fill="white"><rect y="0" x="0" width="9496" stroke="none" height="6388"/></g><g transform="translate(32866,32758)" text-rendering="geometricPrecision" stroke-width="44" stroke-linejoin="round" stroke-linecap="round"><line y2="-29330" y1="-28175" x2="-30246" x1="-29891" fill="none"/><line y2="-28175" y1="-28175" x2="-29891" x1="-28646" fill="none"/><line y2="-28345" y1="-28345" x2="-29735" x1="-28802" fill="none"/><line y2="-29949" y1="-29330" x2="-29411" x1="-30246" fill="none"/><line y2="-29732" y1="-29270" x2="-29414" x1="-30041" fill="none"/><line y2="-28175" y1="-29111" x2="-28646" x1="-28319" fill="none"/><line y2="-29475" y1="-29943" x2="-28432" x1="-29036" fill="none"/><line y2="-29853" y1="-29437" x2="-27337" x1="-28056" fill="none"/><line y2="-29853" y1="-29330" x2="-31153" x1="-30246" fill="none"/><line y2="-27759" y1="-28175" x2="-30610" x1="-29891" fill="none"/><line y2="-27536" y1="-28175" x2="-28198" x1="-28646" fill="none"/><line y2="-30992" y1="-29853" x2="-27337" x1="-27337" fill="none"/><line y2="-30850" y1="-29998" x2="-27167" x1="-27167" fill="none"/><line y2="-29853" y1="-29284" x2="-27337" x1="-26349" fill="none"/><line y2="-31561" y1="-30992" x2="-26349" x1="-27337" fill="none"/><line y2="-29284" y1="-29853" x2="-26349" x1="-25367" fill="none"/><line y2="-29504" y1="-29931" x2="-26312" x1="-25575" fill="none"/><line y2="-30992" y1="-31561" x2="-25367" x1="-26349" fill="none"/><line y2="-30916" y1="-31344" x2="-25575" x1="-26312" fill="none"/><line y2="-29853" y1="-30992" x2="-25367" x1="-25367" fill="none"/><line y2="-31514" y1="-30992" x2="-24460" x1="-25367" fill="none"/><line y2="-31318" y1="-30992" x2="-27903" x1="-27337" fill="none"/><line y2="-28458" y1="-29284" x2="-26349" x1="-26349" fill="none"/><line y2="-30269" y1="-29853" x2="-31873" x1="-31153" fill="none"/><line y2="-30191" y1="-29775" x2="-31916" x1="-31197" fill="none"/><line y2="-30347" y1="-29931" x2="-31826" x1="-31107" fill="none"/><line y2="-28175" y1="-27759" x2="-31705" x1="-30986" fill="none"/><line y2="-26930" y1="-27398" x2="-31133" x1="-30862" fill="none"/><line y2="-26999" y1="-27467" x2="-31254" x1="-30983" fill="none"/><line y2="-26999" y1="-27467" x2="-30339" x1="-30610" fill="none"/><line y2="-26930" y1="-27398" x2="-30460" x1="-30732" fill="none"/><line y2="-31098" y1="-31514" x2="-23740" x1="-24460" fill="none"/><line y2="-32202" y1="-31514" x2="-24061" x1="-24460" fill="none"/><line y2="-32202" y1="-31514" x2="-24858" x1="-24460" fill="none"/><line y2="-27759" y1="-28175" x2="-32424" x1="-31705" fill="none"/><line y2="-28862" y1="-28175" x2="-32101" x1="-31705" fill="none"/><line y2="-28862" y1="-28175" x2="-31306" x1="-31705" fill="none"/><text y="-27473" xml:space="preserve" x="-30948" stroke="none" font-size="433.3333" font-family="sans-serif">S</text><text y="-26566" xml:space="preserve" x="-31474" stroke="none" font-size="433.3333" font-family="sans-serif">O</text><text y="-26566" xml:space="preserve" x="-30425" stroke="none" font-size="433.3333" font-family="sans-serif">O</text><text y="-27473" xml:space="preserve" x="-32762" stroke="none" font-size="433.3333" font-family="sans-serif">F</text><text y="-28903" xml:space="preserve" x="-32381" stroke="none" font-size="433.3333" font-family="sans-serif">F</text><text y="-28903" xml:space="preserve" x="-31332" stroke="none" font-size="433.3333" font-family="sans-serif">F</text><text y="-30200" xml:space="preserve" x="-32211" stroke="none" font-size="433.3333" font-family="sans-serif">N</text><text y="-27138" xml:space="preserve" x="-28195" stroke="none" font-size="433.3333" font-family="sans-serif">NH</text><text y="-27048" xml:space="preserve" x="-27617" stroke="none" font-size="313.3333" font-family="sans-serif">2</text><text y="-31335" xml:space="preserve" x="-28475" stroke="none" font-size="433.3333" font-family="sans-serif">Cl</text><text y="-28059" xml:space="preserve" x="-26583" stroke="none" font-size="433.3333" font-family="sans-serif">Cl</text><text y="-30812" xml:space="preserve" x="-23706" stroke="none" font-size="433.3333" font-family="sans-serif">F</text><text y="-32242" xml:space="preserve" x="-24087" stroke="none" font-size="433.3333" font-family="sans-serif">F</text><text y="-32242" xml:space="preserve" x="-25136" stroke="none" font-size="433.3333" font-family="sans-serif">F</text><text y="-29908" xml:space="preserve" x="-29377" stroke="none" font-size="433.3333" font-family="sans-serif">N</text><text y="-29151" xml:space="preserve" x="-28397" stroke="none" font-size="433.3333" font-family="sans-serif">N</text></g></g></svg>