<svg width="419.01" viewBox="0 0 13967 7763" text-rendering="auto" stroke-width="1" stroke-opacity="1" stroke-miterlimit="10" stroke-linejoin="miter" stroke-linecap="square" stroke-dashoffset="0" stroke-dasharray="none" stroke="black" shape-rendering="auto" image-rendering="auto" height="232.89" font-weight="normal" font-style="normal" font-size="12" font-family="'Dialog'" fill-opacity="1" fill="black" color-rendering="auto" color-interpolation="auto" xmlns="http://www.w3.org/2000/svg"><g><g stroke="white" fill="white"><rect y="0" x="0" width="13967" stroke="none" height="7763"/></g><g transform="translate(32866,32758)" text-rendering="geometricPrecision" stroke-width="44" stroke-linejoin="round" stroke-linecap="round"><line y2="-27016" y1="-27016" x2="-26352" x1="-24460" fill="none"/><line y2="-28218" y1="-27236" x2="-24272" x1="-24272" fill="none"/><line y2="-26910" y1="-26418" x2="-24084" x1="-23232" fill="none"/><line y2="-28218" y1="-27016" x2="-26352" x1="-26352" fill="none"/><line y2="-28819" y1="-28218" x2="-25312" x1="-24272" fill="none"/><line y2="-26418" y1="-27016" x2="-23232" x1="-22192" fill="none"/><line y2="-28819" y1="-28218" x2="-25312" x1="-26352" fill="none"/><line y2="-29801" y1="-28819" x2="-25312" x1="-25312" fill="none"/><line y2="-27016" y1="-27999" x2="-22192" x1="-22192" fill="none"/><line y2="-30622" y1="-30128" x2="-26352" x1="-25500" fill="none"/><line y2="-28438" y1="-28819" x2="-21811" x1="-21152" fill="none"/><line y2="-31824" y1="-30622" x2="-26352" x1="-26352" fill="none"/><line y2="-30128" y1="-30622" x2="-27201" x1="-26352" fill="none"/><line y2="-30339" y1="-30706" x2="-27181" x1="-26543" fill="none"/><line y2="-28819" y1="-29801" x2="-21152" x1="-21152" fill="none"/><line y2="-31824" y1="-32315" x2="-26352" x1="-27201" fill="none"/><line y2="-31737" y1="-32107" x2="-26543" x1="-27181" fill="none"/><line y2="-32422" y1="-31824" x2="-25312" x1="-26352" fill="none"/><line y2="-30622" y1="-30128" x2="-28435" x1="-27580" fill="none"/><line y2="-30128" y1="-30622" x2="-20964" x1="-20109" fill="none"/><line y2="-32315" y1="-31824" x2="-27580" x1="-28435" fill="none"/><line y2="-31824" y1="-32422" x2="-24272" x1="-25312" fill="none"/><line y2="-31824" y1="-30622" x2="-28435" x1="-28435" fill="none"/><line y2="-30021" y1="-30622" x2="-29472" x1="-28435" fill="none"/><line y2="-30243" y1="-30691" x2="-29429" x1="-28649" fill="none"/><line y2="-31824" y1="-30622" x2="-20109" x1="-20109" fill="none"/><line y2="-31824" y1="-32422" x2="-28435" x1="-29472" fill="none"/><line y2="-31751" y1="-32199" x2="-28649" x1="-29429" fill="none"/><line y2="-32422" y1="-31824" x2="-23232" x1="-24272" fill="none"/><line y2="-30622" y1="-30021" x2="-30515" x1="-29472" fill="none"/><line y2="-31824" y1="-32422" x2="-20109" x1="-21152" fill="none"/><line y2="-32422" y1="-31824" x2="-29472" x1="-30515" fill="none"/><line y2="-31824" y1="-32422" x2="-22192" x1="-23232" fill="none"/><line y2="-31824" y1="-30622" x2="-30515" x1="-30515" fill="none"/><line y2="-31673" y1="-30772" x2="-30344" x1="-30344" fill="none"/><line y2="-32422" y1="-31824" x2="-21152" x1="-22192" fill="none"/><line y2="-30206" y1="-30622" x2="-31234" x1="-30515" fill="none"/><line y2="-30454" y1="-30206" x2="-32040" x1="-31610" fill="none"/><line y2="-25589" y1="-26418" x2="-23163" x1="-23163" fill="none"/><line y2="-25589" y1="-26418" x2="-23304" x1="-23304" fill="none"/><line y2="-28464" y1="-28880" x2="-20398" x1="-21117" fill="none"/><line y2="-28342" y1="-28758" x2="-20467" x1="-21187" fill="none"/><line y2="-27016" y1="-26494" x2="-20378" x1="-21285" fill="none"/><line y2="-25586" y1="-26494" x2="-20759" x1="-21285" fill="none"/><line y2="-25586" y1="-26494" x2="-21808" x1="-21285" fill="none"/><line y2="-26910" y1="-26494" x2="-27978" x1="-27259" fill="none"/><line y2="-26661" y1="-26910" x2="-28784" x1="-28354" fill="none"/><line y2="-25664" y1="-26453" x2="-27190" x1="-27190" fill="none"/><line y2="-25664" y1="-26494" x2="-27328" x1="-27328" fill="none"/><polygon stroke-width="1" stroke="none" points=" -19107 -31280 -20109 -30622 -19034 -31162"/><polygon stroke-width="1" points=" -19107 -31280 -20109 -30622 -19034 -31162" fill="none"/><polygon stroke-width="1" stroke="none" points=" -22192 -27016 -21250 -26554 -21317 -26433"/><polygon stroke-width="1" points=" -22192 -27016 -21250 -26554 -21317 -26433" fill="none"/><line y2="-31223" y1="-31220" x2="-19003" x1="-19138" fill="none"/><line y2="-31331" y1="-31329" x2="-19203" x1="-19313" fill="none"/><line y2="-31440" y1="-31438" x2="-19402" x1="-19488" fill="none"/><line y2="-31548" y1="-31547" x2="-19602" x1="-19664" fill="none"/><line y2="-31657" y1="-31656" x2="-19801" x1="-19839" fill="none"/><line y2="-31765" y1="-31765" x2="-20001" x1="-20014" fill="none"/><line y2="-26551" y1="-26433" x2="-27294" x1="-27224" fill="none"/><line y2="-26647" y1="-26554" x2="-27099" x1="-27044" fill="none"/><line y2="-26743" y1="-26674" x2="-26904" x1="-26863" fill="none"/><line y2="-26840" y1="-26795" x2="-26709" x1="-26683" fill="none"/><line y2="-26936" y1="-26915" x2="-26515" x1="-26503" fill="none"/><line y2="-27990" y1="-27990" x2="-25378" x1="-25243" fill="none"/><line y2="-28207" y1="-28207" x2="-25361" x1="-25261" fill="none"/><line y2="-28423" y1="-28423" x2="-25344" x1="-25279" fill="none"/><line y2="-28640" y1="-28640" x2="-25326" x1="-25297" fill="none"/><text y="-26837" xml:space="preserve" x="-28319" stroke="none" font-size="433.3333" font-family="sans-serif">O</text><text y="-25266" xml:space="preserve" x="-27412" stroke="none" font-size="433.3333" font-family="sans-serif">O</text><text y="-26262" xml:space="preserve" x="-29316" stroke="none" font-size="433.3333" font-family="sans-serif">CH</text><text y="-26173" xml:space="preserve" x="-28738" stroke="none" font-size="313.3333" font-family="sans-serif">3</text><text y="-25191" xml:space="preserve" x="-23385" stroke="none" font-size="433.3333" font-family="sans-serif">O</text><text y="-28117" xml:space="preserve" x="-20398" stroke="none" font-size="433.3333" font-family="sans-serif">O</text><text y="-29917" xml:space="preserve" x="-31575" stroke="none" font-size="433.3333" font-family="sans-serif">O</text><text y="-30604" xml:space="preserve" x="-32762" stroke="none" font-size="433.3333" font-family="sans-serif">CH</text><text y="-30515" xml:space="preserve" x="-32185" stroke="none" font-size="313.3333" font-family="sans-serif">3</text><text y="-26837" xml:space="preserve" x="-24425" stroke="none" font-size="433.3333" font-family="sans-serif">N</text><text y="-29842" xml:space="preserve" x="-25462" stroke="none" font-size="433.3333" font-family="sans-serif">O</text><text y="-28039" xml:space="preserve" x="-22342" stroke="none" font-size="433.3333" font-family="sans-serif">NH</text><text y="-29842" xml:space="preserve" x="-27542" stroke="none" font-size="433.3333" font-family="sans-serif">N</text><text y="-29842" xml:space="preserve" x="-21305" stroke="none" font-size="433.3333" font-family="sans-serif">O</text><text y="-32242" xml:space="preserve" x="-27542" stroke="none" font-size="433.3333" font-family="sans-serif">N</text><text y="-27591" xml:space="preserve" x="-25462" stroke="none" font-size="433.3333" font-family="sans-serif">H</text><text y="-27112" xml:space="preserve" x="-26262" stroke="none" font-style="italic" font-size="313.3333" font-family="sans-serif">S</text><text y="-28784" xml:space="preserve" x="-25214" stroke="none" font-style="italic" font-size="313.3333" font-family="sans-serif">R</text><text y="-26982" xml:space="preserve" x="-22591" stroke="none" font-style="italic" font-size="313.3333" font-family="sans-serif">S</text><text y="-30584" xml:space="preserve" x="-20511" stroke="none" font-style="italic" font-size="313.3333" font-family="sans-serif">R</text><text y="-31500" xml:space="preserve" x="-20511" stroke="none" font-style="italic" font-size="313.3333" font-family="sans-serif">R</text></g></g></svg>