<svg width="386.7" viewBox="0 0 12890 7431" text-rendering="auto" stroke-width="1" stroke-opacity="1" stroke-miterlimit="10" stroke-linejoin="miter" stroke-linecap="square" stroke-dashoffset="0" stroke-dasharray="none" stroke="black" shape-rendering="auto" image-rendering="auto" height="222.93" font-weight="normal" font-style="normal" font-size="12" font-family="'Dialog'" fill-opacity="1" fill="black" color-rendering="auto" color-interpolation="auto" xmlns="http://www.w3.org/2000/svg"><g><g stroke="white" fill="white"><rect y="0" x="0" width="12890" stroke="none" height="7431"/></g><g transform="translate(32866,32758)" text-rendering="geometricPrecision" stroke-width="44" stroke-linejoin="round" stroke-linecap="round"><line y2="-29042" y1="-29042" x2="-25095" x1="-23027" fill="none"/><line y2="-29212" y1="-29212" x2="-24838" x1="-23287" fill="none"/><line y2="-29042" y1="-30235" x2="-23027" x1="-23027" fill="none"/><line y2="-30015" y1="-29042" x2="-25095" x1="-25095" fill="none"/><line y2="-28553" y1="-29042" x2="-25939" x1="-25095" fill="none"/><line y2="-30235" y1="-30723" x2="-23027" x1="-23870" fill="none"/><line y2="-30148" y1="-30515" x2="-23218" x1="-23850" fill="none"/><line y2="-30723" y1="-30344" x2="-24249" x1="-24908" fill="none"/><line y2="-30344" y1="-30833" x2="-25283" x1="-26127" fill="none"/><line y2="-29042" y1="-28553" x2="-27164" x1="-26314" fill="none"/><line y2="-29128" y1="-28761" x2="-26973" x1="-26338" fill="none"/><line y2="-30833" y1="-30235" x2="-26127" x1="-27164" fill="none"/><line y2="-30610" y1="-30162" x2="-26173" x1="-26950" fill="none"/><line y2="-30235" y1="-29042" x2="-27164" x1="-27164" fill="none"/><line y2="-27993" y1="-29042" x2="-23027" x1="-23027" fill="none"/><line y2="-30758" y1="-30235" x2="-28071" x1="-27164" fill="none"/><line y2="-27421" y1="-27993" x2="-22045" x1="-23027" fill="none"/><line y2="-27993" y1="-27421" x2="-23027" x1="-24012" fill="none"/><line y2="-27776" y1="-27346" x2="-23064" x1="-23801" fill="none"/><line y2="-26274" y1="-27421" x2="-22045" x1="-22045" fill="none"/><line y2="-26418" y1="-27276" x2="-22215" x1="-22215" fill="none"/><line y2="-27993" y1="-27421" x2="-21062" x1="-22045" fill="none"/><line y2="-27421" y1="-26274" x2="-24012" x1="-24012" fill="none"/><line y2="-25812" y1="-26274" x2="-22839" x1="-22045" fill="none"/><line y2="-26274" y1="-25702" x2="-22045" x1="-21062" fill="none"/><line y2="-27421" y1="-27993" x2="-20080" x1="-21062" fill="none"/><line y2="-27346" y1="-27776" x2="-20288" x1="-21028" fill="none"/><line y2="-26274" y1="-25812" x2="-24012" x1="-23218" fill="none"/><line y2="-26364" y1="-26017" x2="-23824" x1="-23229" fill="none"/><line y2="-25702" y1="-26274" x2="-21062" x1="-20080" fill="none"/><line y2="-25922" y1="-26349" x2="-21028" x1="-20288" fill="none"/><line y2="-26274" y1="-27421" x2="-20080" x1="-20080" fill="none"/><line y2="-30758" y1="-31896" x2="-28071" x1="-28071" fill="none"/><line y2="-30902" y1="-31754" x2="-28241" x1="-28241" fill="none"/><line y2="-30191" y1="-30758" x2="-29053" x1="-28071" fill="none"/><line y2="-31896" y1="-32465" x2="-28071" x1="-29053" fill="none"/><line y2="-30758" y1="-30191" x2="-30041" x1="-29053" fill="none"/><line y2="-30836" y1="-30408" x2="-29833" x1="-29094" fill="none"/><line y2="-32465" y1="-31896" x2="-29053" x1="-30041" fill="none"/><line y2="-32245" y1="-31821" x2="-29094" x1="-29833" fill="none"/><line y2="-31896" y1="-30758" x2="-30041" x1="-30041" fill="none"/><line y2="-32312" y1="-31896" x2="-30760" x1="-30041" fill="none"/><line y2="-31896" y1="-32312" x2="-31855" x1="-31136" fill="none"/><line y2="-32422" y1="-31896" x2="-32762" x1="-31855" fill="none"/><line y2="-30847" y1="-31896" x2="-31855" x1="-31855" fill="none"/><text y="-32242" xml:space="preserve" x="-31101" stroke="none" font-size="433.3333" font-family="sans-serif">O</text><text y="-30056" xml:space="preserve" x="-25248" stroke="none" font-size="433.3333" font-family="sans-serif">N</text><text y="-28267" xml:space="preserve" x="-26280" stroke="none" font-size="433.3333" font-family="sans-serif">N</text><text y="-30654" xml:space="preserve" x="-24211" stroke="none" font-size="433.3333" font-family="sans-serif">N</text><text y="-25523" xml:space="preserve" x="-23180" stroke="none" font-size="433.3333" font-family="sans-serif">N</text></g></g></svg>