<svg width="187.95" viewBox="0 0 6265 16394" text-rendering="auto" stroke-width="1" stroke-opacity="1" stroke-miterlimit="10" stroke-linejoin="miter" stroke-linecap="square" stroke-dashoffset="0" stroke-dasharray="none" stroke="black" shape-rendering="auto" image-rendering="auto" height="491.82" font-weight="normal" font-style="normal" font-size="12" font-family="'Dialog'" fill-opacity="1" fill="black" color-rendering="auto" color-interpolation="auto" xmlns="http://www.w3.org/2000/svg"><g><g stroke="white" fill="white"><rect y="0" x="0" width="6265" stroke="none" height="16394"/></g><g transform="translate(32866,32866)" text-rendering="geometricPrecision" stroke-width="44" stroke-linejoin="round" stroke-linecap="round"><line y2="-25474" y1="-24942" x2="-30157" x1="-31064" fill="none"/><line y2="-24867" y1="-25471" x2="-28441" x1="-29478" fill="none"/><line y2="-28894" y1="-25890" x2="-31298" x1="-29920" fill="none"/><line y2="-31540" y1="-29148" x2="-32511" x1="-31413" fill="none"/><line y2="-25890" y1="-29536" x2="-29677" x1="-27311" fill="none"/><line y2="-28943" y1="-25890" x2="-28394" x1="-29723" fill="none"/><line y2="-31540" y1="-29200" x2="-27265" x1="-28285" fill="none"/><line y2="-29536" y1="-25890" x2="-32462" x1="-29969" fill="none"/><line y2="-24468" y1="-23865" x2="-31194" x1="-30157" fill="none"/><line y2="-23943" y1="-24471" x2="-29348" x1="-28441" fill="none"/><line y2="-31540" y1="-29975" x2="-32612" x1="-32612" fill="none"/><line y2="-31052" y1="-30171" x2="-32442" x1="-32442" fill="none"/><line y2="-32762" y1="-31977" x2="-30890" x1="-32234" fill="none"/><line y2="-29975" y1="-31540" x2="-27170" x1="-27170" fill="none"/><line y2="-30171" y1="-31018" x2="-27340" x1="-27340" fill="none"/><line y2="-28750" y1="-29645" x2="-28888" x1="-27357" fill="none"/><line y2="-31870" y1="-32762" x2="-27357" x1="-28888" fill="none"/><line y2="-28750" y1="-29536" x2="-30890" x1="-32234" fill="none"/><line y2="-23446" y1="-19803" x2="-29969" x1="-32459" fill="none"/><line y2="-20392" y1="-23446" x2="-28394" x1="-29723" fill="none"/><line y2="-17798" y1="-20138" x2="-27265" x1="-28285" fill="none"/><line y2="-19803" y1="-23446" x2="-27311" x1="-29677" fill="none"/><line y2="-17798" y1="-23446" x2="-32511" x1="-29920" fill="none"/><line y2="-32762" y1="-32762" x2="-28888" x1="-30890" fill="none"/><line y2="-28750" y1="-28750" x2="-30890" x1="-28888" fill="none"/><line y2="-19364" y1="-17798" x2="-32612" x1="-32612" fill="none"/><line y2="-19167" y1="-18283" x2="-32442" x1="-32442" fill="none"/><line y2="-20245" y1="-19803" x2="-31477" x1="-32234" fill="none"/><line y2="-20586" y1="-20386" x2="-30890" x1="-31234" fill="none"/><line y2="-17798" y1="-19364" x2="-27170" x1="-27170" fill="none"/><line y2="-18318" y1="-19167" x2="-27340" x1="-27340" fill="none"/><line y2="-16576" y1="-17469" x2="-28888" x1="-27357" fill="none"/><line y2="-20586" y1="-19693" x2="-28888" x1="-27357" fill="none"/><line y2="-17359" y1="-16576" x2="-32234" x1="-30890" fill="none"/><line y2="-20586" y1="-20586" x2="-28888" x1="-30890" fill="none"/><line y2="-16576" y1="-16576" x2="-30890" x1="-28888" fill="none"/><text y="-25491" xml:space="preserve" x="-30122" stroke="none" font-size="433.3333" font-family="sans-serif">Rh</text><text y="-24489" xml:space="preserve" x="-31769" stroke="none" font-size="433.3333" font-family="sans-serif">Cl</text><text y="-24489" xml:space="preserve" x="-28331" stroke="none" font-size="433.3333" font-family="sans-serif">Cl</text><text y="-31581" xml:space="preserve" x="-32762" stroke="none" font-size="433.3333" font-family="sans-serif">CH</text><text y="-29576" xml:space="preserve" x="-27323" stroke="none" font-size="433.3333" font-family="sans-serif">CH</text><text y="-31581" xml:space="preserve" x="-27323" stroke="none" font-size="433.3333" font-family="sans-serif">CH</text><text y="-29576" xml:space="preserve" x="-32762" stroke="none" font-size="433.3333" font-family="sans-serif">CH</text><text y="-23486" xml:space="preserve" x="-30122" stroke="none" font-size="433.3333" font-family="sans-serif">Rh</text><text y="-19404" xml:space="preserve" x="-32762" stroke="none" font-size="433.3333" font-family="sans-serif">CH</text><text y="-17399" xml:space="preserve" x="-27323" stroke="none" font-size="433.3333" font-family="sans-serif">CH</text><text y="-19404" xml:space="preserve" x="-27323" stroke="none" font-size="433.3333" font-family="sans-serif">CH</text><text y="-17399" xml:space="preserve" x="-32762" stroke="none" font-size="433.3333" font-family="sans-serif">CH</text><text y="-25546" xml:space="preserve" x="-29495" stroke="none" font-size="313.3333" font-family="sans-serif">+</text><text y="-24544" xml:space="preserve" x="-31214" stroke="none" font-size="313.3333" font-family="sans-serif">-</text><text y="-24544" xml:space="preserve" x="-27776" stroke="none" font-size="313.3333" font-family="sans-serif">-</text><text y="-23544" xml:space="preserve" x="-29495" stroke="none" font-size="313.3333" font-family="sans-serif">+</text></g></g></svg>