<svg width="251.16" viewBox="0 0 8372 5534" text-rendering="auto" stroke-width="1" stroke-opacity="1" stroke-miterlimit="10" stroke-linejoin="miter" stroke-linecap="square" stroke-dashoffset="0" stroke-dasharray="none" stroke="black" shape-rendering="auto" image-rendering="auto" height="166.02" font-weight="normal" font-style="normal" font-size="12" font-family="'Dialog'" fill-opacity="1" fill="black" color-rendering="auto" color-interpolation="auto" xmlns="http://www.w3.org/2000/svg"><g><g stroke="white" fill="white"><rect y="0" x="0" width="8372" stroke="none" height="5534"/></g><g transform="translate(32866,32758)" text-rendering="geometricPrecision" stroke-width="44" stroke-linejoin="round" stroke-linecap="round"><line y2="-31376" y1="-30850" x2="-28227" x1="-29134" fill="none"/><line y2="-30850" y1="-31376" x2="-27320" x1="-28227" fill="none"/><line y2="-31376" y1="-30850" x2="-30041" x1="-29134" fill="none"/><line y2="-30024" y1="-30850" x2="-29134" x1="-29134" fill="none"/><line y2="-29400" y1="-29700" x2="-29862" x1="-29322" fill="none"/><line y2="-31266" y1="-30850" x2="-26600" x1="-27320" fill="none"/><line y2="-30850" y1="-31266" x2="-25506" x1="-26225" fill="none"/><line y2="-31376" y1="-30850" x2="-24598" x1="-25506" fill="none"/><line y2="-30024" y1="-30850" x2="-27250" x1="-27250" fill="none"/><line y2="-30024" y1="-30850" x2="-27389" x1="-27389" fill="none"/><line y2="-30960" y1="-31376" x2="-30760" x1="-30041" fill="none"/><line y2="-31376" y1="-30960" x2="-31855" x1="-31136" fill="none"/><line y2="-30850" y1="-31376" x2="-32762" x1="-31855" fill="none"/><line y2="-32202" y1="-31376" x2="-30110" x1="-30110" fill="none"/><line y2="-32202" y1="-31376" x2="-29972" x1="-29972" fill="none"/><line y2="-29712" y1="-29403" x2="-30769" x1="-30238" fill="none"/><line y2="-29209" y1="-29715" x2="-32060" x1="-31145" fill="none"/><line y2="-28467" y1="-29076" x2="-30050" x1="-30050" fill="none"/><line y2="-27883" y1="-28143" x2="-30708" x1="-30238" fill="none"/><line y2="-28831" y1="-29131" x2="-30743" x1="-30203" fill="none"/><line y2="-28952" y1="-29252" x2="-30812" x1="-30272" fill="none"/><text y="-29625" xml:space="preserve" x="-29287" stroke="none" font-size="433.3333" font-family="sans-serif">S</text><text y="-29117" xml:space="preserve" x="-30203" stroke="none" font-size="433.3333" font-family="sans-serif">P</text><text y="-30671" xml:space="preserve" x="-31101" stroke="none" font-size="433.3333" font-family="sans-serif">O</text><text y="-32242" xml:space="preserve" x="-30194" stroke="none" font-size="433.3333" font-family="sans-serif">O</text><text y="-29640" xml:space="preserve" x="-31110" stroke="none" font-size="433.3333" font-family="sans-serif">O</text><text y="-28068" xml:space="preserve" x="-30203" stroke="none" font-size="433.3333" font-family="sans-serif">O</text><text y="-28608" xml:space="preserve" x="-31119" stroke="none" font-size="433.3333" font-family="sans-serif">S</text><text y="-31197" xml:space="preserve" x="-26566" stroke="none" font-size="433.3333" font-family="sans-serif">O</text><text y="-29625" xml:space="preserve" x="-27473" stroke="none" font-size="433.3333" font-family="sans-serif">O</text><text y="-28810" xml:space="preserve" x="-32609" stroke="none" font-size="433.3333" font-family="sans-serif">CH</text><text y="-28721" xml:space="preserve" x="-32032" stroke="none" font-size="313.3333" font-family="sans-serif">3</text><text y="-27484" xml:space="preserve" x="-31254" stroke="none" font-size="433.3333" font-family="sans-serif">CH</text><text y="-27395" xml:space="preserve" x="-30677" stroke="none" font-size="313.3333" font-family="sans-serif">3</text></g></g></svg>