<svg width="178.86" viewBox="0 0 5962 4009" text-rendering="auto" stroke-width="1" stroke-opacity="1" stroke-miterlimit="10" stroke-linejoin="miter" stroke-linecap="square" stroke-dashoffset="0" stroke-dasharray="none" stroke="black" shape-rendering="auto" image-rendering="auto" height="120.27" font-weight="normal" font-style="normal" font-size="12" font-family="'Dialog'" fill-opacity="1" fill="black" color-rendering="auto" color-interpolation="auto" xmlns="http://www.w3.org/2000/svg"><g><g stroke="white" fill="white"><rect y="0" x="0" width="5962" stroke="none" height="4009"/></g><g transform="translate(32866,32866)" text-rendering="geometricPrecision" stroke-width="44" stroke-linejoin="round" stroke-linecap="round"><line y2="-30668" y1="-31191" x2="-28978" x1="-29885" fill="none"/><line y2="-30668" y1="-31191" x2="-30792" x1="-29885" fill="none"/><line y2="-32240" y1="-31191" x2="-29885" x1="-29885" fill="none"/><line y2="-32107" y1="-31321" x2="-29746" x1="-29746" fill="none"/><line y2="-32762" y1="-32240" x2="-28978" x1="-29885" fill="none"/><line y2="-32346" y1="-32762" x2="-28259" x1="-28978" fill="none"/><line y2="-32280" y1="-32589" x2="-28418" x1="-28958" fill="none"/><line y2="-30668" y1="-29530" x2="-28978" x1="-28978" fill="none"/><line y2="-30524" y1="-29671" x2="-28808" x1="-28808" fill="none"/><line y2="-31234" y1="-30668" x2="-27990" x1="-28978" fill="none"/><line y2="-29530" y1="-28961" x2="-28978" x1="-27990" fill="none"/><line y2="-30668" y1="-31234" x2="-27008" x1="-27990" fill="none"/><line y2="-30590" y1="-31018" x2="-27216" x1="-27952" fill="none"/><line y2="-28961" y1="-29530" x2="-27990" x1="-27008" fill="none"/><line y2="-29177" y1="-29605" x2="-27952" x1="-27216" fill="none"/><line y2="-29530" y1="-30668" x2="-27008" x1="-27008" fill="none"/><line y2="-30668" y1="-31234" x2="-30792" x1="-31774" fill="none"/><line y2="-30590" y1="-31018" x2="-31000" x1="-31737" fill="none"/><line y2="-29530" y1="-30668" x2="-30792" x1="-30792" fill="none"/><line y2="-31234" y1="-30668" x2="-31774" x1="-32762" fill="none"/><line y2="-28961" y1="-29530" x2="-31774" x1="-30792" fill="none"/><line y2="-29177" y1="-29605" x2="-31737" x1="-31000" fill="none"/><line y2="-30668" y1="-29530" x2="-32762" x1="-32762" fill="none"/><line y2="-30524" y1="-29671" x2="-32592" x1="-32592" fill="none"/><line y2="-29530" y1="-28961" x2="-32762" x1="-31774" fill="none"/><text y="-32060" xml:space="preserve" x="-28224" stroke="none" font-size="433.3333" font-family="sans-serif">O</text></g></g></svg>