<svg width="267.87" viewBox="0 0 8929 5562" text-rendering="auto" stroke-width="1" stroke-opacity="1" stroke-miterlimit="10" stroke-linejoin="miter" stroke-linecap="square" stroke-dashoffset="0" stroke-dasharray="none" stroke="black" shape-rendering="auto" image-rendering="auto" height="166.86" font-weight="normal" font-style="normal" font-size="12" font-family="'Dialog'" fill-opacity="1" fill="black" color-rendering="auto" color-interpolation="auto" xmlns="http://www.w3.org/2000/svg"><g><g stroke="white" fill="white"><rect y="0" x="0" width="8929" stroke="none" height="5562"/></g><g transform="translate(32866,32758)" text-rendering="geometricPrecision" stroke-width="44" stroke-linejoin="round" stroke-linecap="round"><line y2="-30281" y1="-30850" x2="-28732" x1="-29718" fill="none"/><line y2="-30206" y1="-30633" x2="-28940" x1="-29680" fill="none"/><line y2="-29143" y1="-30281" x2="-28732" x1="-28732" fill="none"/><line y2="-30850" y1="-30281" x2="-29718" x1="-30703" fill="none"/><line y2="-28576" y1="-29143" x2="-29718" x1="-28732" fill="none"/><line y2="-28793" y1="-29221" x2="-29680" x1="-28940" fill="none"/><line y2="-30281" y1="-29143" x2="-30703" x1="-30703" fill="none"/><line y2="-30139" y1="-29287" x2="-30535" x1="-30535" fill="none"/><line y2="-29143" y1="-28576" x2="-30703" x1="-29718" fill="none"/><line y2="-30697" y1="-30281" x2="-28016" x1="-28732" fill="none"/><line y2="-30281" y1="-30697" x2="-26918" x1="-27638" fill="none"/><line y2="-30804" y1="-30281" x2="-26011" x1="-26918" fill="none"/><line y2="-31899" y1="-30850" x2="-29718" x1="-29718" fill="none"/><line y2="-32315" y1="-31899" x2="-30437" x1="-29718" fill="none"/><line y2="-32141" y1="-31829" x2="-30417" x1="-29876" fill="none"/><line y2="-28730" y1="-29143" x2="-31422" x1="-30703" fill="none"/><line y2="-31942" y1="-30804" x2="-26011" x1="-26011" fill="none"/><line y2="-31800" y1="-30948" x2="-25844" x1="-25844" fill="none"/><line y2="-30804" y1="-30238" x2="-26011" x1="-25026" fill="none"/><line y2="-32511" y1="-31942" x2="-25026" x1="-26011" fill="none"/><line y2="-30238" y1="-30804" x2="-25026" x1="-24041" fill="none"/><line y2="-30454" y1="-30882" x2="-24988" x1="-24249" fill="none"/><line y2="-31942" y1="-32511" x2="-24041" x1="-25026" fill="none"/><line y2="-31867" y1="-32294" x2="-24249" x1="-24988" fill="none"/><line y2="-30804" y1="-31942" x2="-24041" x1="-24041" fill="none"/><line y2="-28975" y1="-28730" x2="-32228" x1="-31800" fill="none"/><line y2="-27791" y1="-28400" x2="-31613" x1="-31613" fill="none"/><text y="-30625" xml:space="preserve" x="-27978" stroke="none" font-size="433.3333" font-family="sans-serif">O</text><text y="-32242" xml:space="preserve" x="-30778" stroke="none" font-size="433.3333" font-family="sans-serif">O</text><text y="-28441" xml:space="preserve" x="-31763" stroke="none" font-size="433.3333" font-family="sans-serif">B</text><text y="-29016" xml:space="preserve" x="-32762" stroke="none" font-size="433.3333" font-family="sans-serif">OH</text><text y="-27392" xml:space="preserve" x="-31763" stroke="none" font-size="433.3333" font-family="sans-serif">OH</text></g></g></svg>