<svg width="161.7" viewBox="0 0 5390 6406" text-rendering="auto" stroke-width="1" stroke-opacity="1" stroke-miterlimit="10" stroke-linejoin="miter" stroke-linecap="square" stroke-dashoffset="0" stroke-dasharray="none" stroke="black" shape-rendering="auto" image-rendering="auto" height="192.18" font-weight="normal" font-style="normal" font-size="12" font-family="'Dialog'" fill-opacity="1" fill="black" color-rendering="auto" color-interpolation="auto" xmlns="http://www.w3.org/2000/svg"><g><g stroke="white" fill="white"><rect y="0" x="0" width="5390" stroke="none" height="6406"/></g><g transform="translate(32866,32758)" text-rendering="geometricPrecision" stroke-width="44" stroke-linejoin="round" stroke-linecap="round"><line y2="-29108" y1="-29657" x2="-29960" x1="-30674" fill="none"/><line y2="-29666" y1="-29108" x2="-31049" x1="-31803" fill="none"/><line y2="-28042" y1="-29108" x2="-30330" x1="-29960" fill="none"/><line y2="-29108" y1="-28262" x2="-31803" x1="-31543" fill="none"/><line y2="-28042" y1="-28042" x2="-31289" x1="-30330" fill="none"/><line y2="-27519" y1="-28042" x2="-29423" x1="-30330" fill="none"/><line y2="-30850" y1="-30024" x2="-30862" x1="-30862" fill="none"/><line y2="-28680" y1="-29108" x2="-32762" x1="-31803" fill="none"/><line y2="-30015" y1="-29108" x2="-32329" x1="-31803" fill="none"/><line y2="-27519" y1="-26456" x2="-29423" x1="-29094" fill="none"/><line y2="-27435" y1="-26638" x2="-29218" x1="-28972" fill="none"/><line y2="-28077" y1="-27519" x2="-28669" x1="-29423" fill="none"/><line y2="-26456" y1="-26456" x2="-29094" x1="-27950" fill="none"/><line y2="-27519" y1="-28071" x2="-27580" x1="-28293" fill="none"/><line y2="-26456" y1="-27519" x2="-27950" x1="-27580" fill="none"/><line y2="-26644" y1="-27441" x2="-28065" x1="-27788" fill="none"/><line y2="-31376" y1="-30850" x2="-29954" x1="-30862" fill="none"/><line y2="-31205" y1="-30789" x2="-31616" x1="-30896" fill="none"/><line y2="-31327" y1="-30911" x2="-31546" x1="-30827" fill="none"/><line y2="-31046" y1="-31376" x2="-29385" x1="-29954" fill="none"/><line y2="-32202" y1="-31376" x2="-29954" x1="-29954" fill="none"/><text y="-31197" xml:space="preserve" x="-31922" stroke="none" font-size="433.3333" font-family="sans-serif">O</text><text y="-30671" xml:space="preserve" x="-29278" stroke="none" font-size="433.3333" font-family="sans-serif">Cl</text><text y="-32242" xml:space="preserve" x="-30186" stroke="none" font-size="433.3333" font-family="sans-serif">Cl</text><text y="-29625" xml:space="preserve" x="-31015" stroke="none" font-size="433.3333" font-family="sans-serif">N</text><text y="-27863" xml:space="preserve" x="-31627" stroke="none" font-size="433.3333" font-family="sans-serif">O</text><text y="-28036" xml:space="preserve" x="-28631" stroke="none" font-size="433.3333" font-family="sans-serif">O</text></g></g></svg>