<svg width="225.0" viewBox="0 0 7500 4503" text-rendering="auto" stroke-width="1" stroke-opacity="1" stroke-miterlimit="10" stroke-linejoin="miter" stroke-linecap="square" stroke-dashoffset="0" stroke-dasharray="none" stroke="black" shape-rendering="auto" image-rendering="auto" height="135.09" font-weight="normal" font-style="normal" font-size="12" font-family="'Dialog'" fill-opacity="1" fill="black" color-rendering="auto" color-interpolation="auto" xmlns="http://www.w3.org/2000/svg"><g><g stroke="white" fill="white"><rect y="0" x="0" width="7500" stroke="none" height="4503"/></g><g transform="translate(32866,32704)" text-rendering="geometricPrecision" stroke-width="44" stroke-linejoin="round" stroke-linecap="round"><line y2="-31682" y1="-30307" x2="-28420" x1="-28420" fill="none"/><line y2="-29622" y1="-30307" x2="-29605" x1="-28420" fill="none"/><line y2="-30307" y1="-30307" x2="-28420" x1="-26231" fill="none"/><line y2="-31682" y1="-32260" x2="-28420" x1="-29417" fill="none"/><line y2="-32260" y1="-31682" x2="-27415" x1="-28420" fill="none"/><line y2="-30307" y1="-29622" x2="-30795" x1="-29605" fill="none"/><line y2="-30526" y1="-31462" x2="-26040" x1="-26040" fill="none"/><line y2="-32260" y1="-31682" x2="-29793" x1="-30795" fill="none"/><line y2="-31878" y1="-32202" x2="-26381" x1="-26944" fill="none"/><line y2="-31682" y1="-30307" x2="-30795" x1="-30795" fill="none"/><line y2="-31902" y1="-32205" x2="-32231" x1="-31702" fill="none"/><polygon stroke-width="1" stroke="none" points=" -30795 -31682 -31737 -32144 -31668 -32263"/><polygon stroke-width="1" points=" -30795 -31682 -31737 -32144 -31668 -32263" fill="none"/><polygon stroke-width="1" stroke="none" points=" -29605 -29622 -29536 -28796 -29674 -28793"/><polygon stroke-width="1" points=" -29605 -29622 -29536 -28796 -29674 -28793" fill="none"/><polygon stroke-width="1" stroke="none" points=" -28420 -30307 -28351 -29481 -28490 -29478"/><polygon stroke-width="1" points=" -28420 -30307 -28351 -29481 -28490 -29478" fill="none"/><line y2="-30064" y1="-29943" x2="-31358" x1="-31286" fill="none"/><line y2="-30151" y1="-30073" x2="-31157" x1="-31111" fill="none"/><line y2="-30237" y1="-30202" x2="-30957" x1="-30936" fill="none"/><text y="-28397" xml:space="preserve" x="-29758" stroke="none" font-size="433.3333" font-family="sans-serif">OH</text><text y="-29605" xml:space="preserve" x="-31855" stroke="none" font-size="433.3333" font-family="sans-serif">OH</text><text y="-31503" xml:space="preserve" x="-32762" stroke="none" font-size="433.3333" font-family="sans-serif">OH</text><text y="-30128" xml:space="preserve" x="-26193" stroke="none" font-size="433.3333" font-family="sans-serif">OH</text><text y="-32188" xml:space="preserve" x="-29758" stroke="none" font-size="433.3333" font-family="sans-serif">O</text><text y="-32188" xml:space="preserve" x="-27380" stroke="none" font-size="433.3333" font-family="sans-serif">S</text><text y="-31503" xml:space="preserve" x="-26346" stroke="none" font-size="433.3333" font-family="sans-serif">Au</text><text y="-29082" xml:space="preserve" x="-28571" stroke="none" font-size="433.3333" font-family="sans-serif">H</text><text y="-32242" xml:space="preserve" x="-27057" stroke="none" font-size="313.3333" font-family="sans-serif">-</text><text y="-31558" xml:space="preserve" x="-25719" stroke="none" font-size="313.3333" font-family="sans-serif">+</text><text y="-30272" xml:space="preserve" x="-28822" stroke="none" font-style="italic" font-size="313.3333" font-family="sans-serif">R</text><text y="-29746" xml:space="preserve" x="-29758" stroke="none" font-style="italic" font-size="313.3333" font-family="sans-serif">S</text><text y="-30272" xml:space="preserve" x="-30700" stroke="none" font-style="italic" font-size="313.3333" font-family="sans-serif">S</text><text y="-31358" xml:space="preserve" x="-30700" stroke="none" font-style="italic" font-size="313.3333" font-family="sans-serif">R</text></g></g></svg>