<svg width="235.59" viewBox="0 0 7853 4357" text-rendering="auto" stroke-width="1" stroke-opacity="1" stroke-miterlimit="10" stroke-linejoin="miter" stroke-linecap="square" stroke-dashoffset="0" stroke-dasharray="none" stroke="black" shape-rendering="auto" image-rendering="auto" height="130.71" font-weight="normal" font-style="normal" font-size="12" font-family="'Dialog'" fill-opacity="1" fill="black" color-rendering="auto" color-interpolation="auto" xmlns="http://www.w3.org/2000/svg"><g><g stroke="white" fill="white"><rect y="0" x="0" width="7853" stroke="none" height="4357"/></g><g transform="translate(32866,32758)" text-rendering="geometricPrecision" stroke-width="44" stroke-linejoin="round" stroke-linecap="round"><line y2="-31439" y1="-30214" x2="-28418" x1="-28418" fill="none"/><line y2="-29602" y1="-30214" x2="-29466" x1="-28418" fill="none"/><line y2="-29827" y1="-30287" x2="-29420" x1="-28634" fill="none"/><line y2="-30214" y1="-29715" x2="-28418" x1="-27557" fill="none"/><line y2="-31439" y1="-32049" x2="-28418" x1="-29466" fill="none"/><line y2="-31367" y1="-31826" x2="-28634" x1="-29420" fill="none"/><line y2="-31939" y1="-31439" x2="-27557" x1="-28418" fill="none"/><line y2="-30214" y1="-29602" x2="-30515" x1="-29466" fill="none"/><line y2="-29712" y1="-30105" x2="-27181" x1="-26508" fill="none"/><line y2="-32049" y1="-31439" x2="-29466" x1="-30515" fill="none"/><line y2="-31439" y1="-31829" x2="-26320" x1="-26993" fill="none"/><line y2="-31439" y1="-30214" x2="-30515" x1="-30515" fill="none"/><line y2="-31286" y1="-30368" x2="-30344" x1="-30344" fill="none"/><line y2="-30434" y1="-31439" x2="-26320" x1="-26320" fill="none"/><line y2="-29798" y1="-30214" x2="-31234" x1="-30515" fill="none"/><line y2="-31289" y1="-31439" x2="-25477" x1="-26320" fill="none"/><line y2="-32202" y1="-31439" x2="-26043" x1="-26320" fill="none"/><line y2="-31766" y1="-31439" x2="-31081" x1="-30515" fill="none"/><line y2="-28949" y1="-29339" x2="-27825" x1="-27499" fill="none"/><line y2="-29039" y1="-29429" x2="-27932" x1="-27606" fill="none"/><line y2="-29039" y1="-29429" x2="-26803" x1="-27129" fill="none"/><line y2="-28949" y1="-29339" x2="-26910" x1="-27239" fill="none"/><line y2="-30047" y1="-29798" x2="-32040" x1="-31610" fill="none"/><line y2="-28969" y1="-29437" x2="-31757" x1="-31486" fill="none"/><line y2="-29039" y1="-29507" x2="-31878" x1="-31607" fill="none"/><line y2="-29039" y1="-29507" x2="-30963" x1="-31234" fill="none"/><line y2="-28969" y1="-29437" x2="-31084" x1="-31356" fill="none"/><text y="-28597" xml:space="preserve" x="-28215" stroke="none" font-size="433.3333" font-family="sans-serif">O</text><text y="-28597" xml:space="preserve" x="-26826" stroke="none" font-size="433.3333" font-family="sans-serif">O</text><text y="-29512" xml:space="preserve" x="-31572" stroke="none" font-size="433.3333" font-family="sans-serif">S</text><text y="-30197" xml:space="preserve" x="-32762" stroke="none" font-size="433.3333" font-family="sans-serif">NH</text><text y="-30108" xml:space="preserve" x="-32185" stroke="none" font-size="313.3333" font-family="sans-serif">2</text><text y="-28605" xml:space="preserve" x="-32098" stroke="none" font-size="433.3333" font-family="sans-serif">O</text><text y="-28605" xml:space="preserve" x="-31049" stroke="none" font-size="433.3333" font-family="sans-serif">O</text><text y="-31783" xml:space="preserve" x="-31653" stroke="none" font-size="433.3333" font-family="sans-serif">Cl</text><text y="-29423" xml:space="preserve" x="-27522" stroke="none" font-size="433.3333" font-family="sans-serif">S</text><text y="-31870" xml:space="preserve" x="-27522" stroke="none" font-size="433.3333" font-family="sans-serif">NH</text><text y="-30035" xml:space="preserve" x="-26473" stroke="none" font-size="433.3333" font-family="sans-serif">NH</text><text y="-31078" xml:space="preserve" x="-25442" stroke="none" font-size="433.3333" font-family="sans-serif">D</text><text y="-32242" xml:space="preserve" x="-26115" stroke="none" font-size="433.3333" font-family="sans-serif">D</text></g></g></svg>