<svg width="208.86" viewBox="0 0 6962 4090" text-rendering="auto" stroke-width="1" stroke-opacity="1" stroke-miterlimit="10" stroke-linejoin="miter" stroke-linecap="square" stroke-dashoffset="0" stroke-dasharray="none" stroke="black" shape-rendering="auto" image-rendering="auto" height="122.7" font-weight="normal" font-style="normal" font-size="12" font-family="'Dialog'" fill-opacity="1" fill="black" color-rendering="auto" color-interpolation="auto" xmlns="http://www.w3.org/2000/svg"><g><g stroke="white" fill="white"><rect y="0" x="0" width="6962" stroke="none" height="4090"/></g><g transform="translate(32866,32866)" text-rendering="geometricPrecision" stroke-width="44" stroke-linejoin="round" stroke-linecap="round"><line y2="-30584" y1="-31153" x2="-30792" x1="-31774" fill="none"/><line y2="-30509" y1="-30937" x2="-31000" x1="-31737" fill="none"/><line y2="-29446" y1="-30584" x2="-30792" x1="-30792" fill="none"/><line y2="-31153" y1="-30584" x2="-31774" x1="-32762" fill="none"/><line y2="-28880" y1="-29446" x2="-31774" x1="-30792" fill="none"/><line y2="-29096" y1="-29524" x2="-31737" x1="-31000" fill="none"/><line y2="-30584" y1="-29446" x2="-32762" x1="-32762" fill="none"/><line y2="-30443" y1="-29590" x2="-32592" x1="-32592" fill="none"/><line y2="-29446" y1="-28880" x2="-32762" x1="-31774" fill="none"/><line y2="-31000" y1="-30584" x2="-30073" x1="-30792" fill="none"/><line y2="-30642" y1="-30888" x2="-29073" x1="-29504" fill="none"/><line y2="-31055" y1="-30752" x2="-27978" x1="-28507" fill="none"/><line y2="-32193" y1="-31055" x2="-27978" x1="-27978" fill="none"/><line y2="-32052" y1="-31200" x2="-27808" x1="-27808" fill="none"/><line y2="-31055" y1="-30489" x2="-27978" x1="-26993" fill="none"/><line y2="-32762" y1="-32193" x2="-26993" x1="-27978" fill="none"/><line y2="-30489" y1="-31055" x2="-26993" x1="-26008" fill="none"/><line y2="-30706" y1="-31133" x2="-26956" x1="-26216" fill="none"/><line y2="-32193" y1="-32762" x2="-26008" x1="-26993" fill="none"/><line y2="-32118" y1="-32546" x2="-26216" x1="-26956" fill="none"/><line y2="-31055" y1="-32193" x2="-26008" x1="-26008" fill="none"/><text y="-30928" xml:space="preserve" x="-30035" stroke="none" font-size="433.3333" font-family="sans-serif">NH</text><text y="-30353" xml:space="preserve" x="-29039" stroke="none" font-size="433.3333" font-family="sans-serif">NH</text></g></g></svg>