<svg width="181.38" viewBox="0 0 6046 3653" text-rendering="auto" stroke-width="1" stroke-opacity="1" stroke-miterlimit="10" stroke-linejoin="miter" stroke-linecap="square" stroke-dashoffset="0" stroke-dasharray="none" stroke="black" shape-rendering="auto" image-rendering="auto" height="109.59" font-weight="normal" font-style="normal" font-size="12" font-family="'Dialog'" fill-opacity="1" fill="black" color-rendering="auto" color-interpolation="auto" xmlns="http://www.w3.org/2000/svg"><g><g stroke="white" fill="white"><rect y="0" x="0" width="6046" stroke="none" height="3653"/></g><g transform="translate(32866,32758)" text-rendering="geometricPrecision" stroke-width="44" stroke-linejoin="round" stroke-linecap="round"><line y2="-31439" y1="-31439" x2="-32762" x1="-31618" fill="none"/><line y2="-31439" y1="-32202" x2="-31618" x1="-32063" fill="none"/><line y2="-32202" y1="-31439" x2="-32318" x1="-32762" fill="none"/><line y2="-30916" y1="-31439" x2="-30708" x1="-31618" fill="none"/><line y2="-31332" y1="-30916" x2="-29992" x1="-30708" fill="none"/><line y2="-30916" y1="-31332" x2="-28894" x1="-29614" fill="none"/><line y2="-30916" y1="-29778" x2="-28894" x1="-28894" fill="none"/><line y2="-30775" y1="-29923" x2="-28727" x1="-28727" fill="none"/><line y2="-31486" y1="-30916" x2="-27909" x1="-28894" fill="none"/><line y2="-29778" y1="-29209" x2="-28894" x1="-27909" fill="none"/><line y2="-30916" y1="-31486" x2="-26924" x1="-27909" fill="none"/><line y2="-30841" y1="-31266" x2="-27132" x1="-27872" fill="none"/><line y2="-29209" y1="-29778" x2="-27909" x1="-26924" fill="none"/><line y2="-29429" y1="-29856" x2="-27872" x1="-27132" fill="none"/><line y2="-29778" y1="-30916" x2="-26924" x1="-26924" fill="none"/><text y="-31260" xml:space="preserve" x="-29954" stroke="none" font-size="433.3333" font-family="sans-serif">O</text><text y="-32242" xml:space="preserve" x="-32344" stroke="none" font-size="433.3333" font-family="sans-serif">O</text></g></g></svg>