<svg width="292.05" viewBox="0 0 9735 5541" text-rendering="auto" stroke-width="1" stroke-opacity="1" stroke-miterlimit="10" stroke-linejoin="miter" stroke-linecap="square" stroke-dashoffset="0" stroke-dasharray="none" stroke="black" shape-rendering="auto" image-rendering="auto" height="166.23" font-weight="normal" font-style="normal" font-size="12" font-family="'Dialog'" fill-opacity="1" fill="black" color-rendering="auto" color-interpolation="auto" xmlns="http://www.w3.org/2000/svg"><g><g stroke="white" fill="white"><rect y="0" x="0" width="9735" stroke="none" height="5541"/></g><g transform="translate(32866,32866)" text-rendering="geometricPrecision" stroke-width="44" stroke-linejoin="round" stroke-linecap="round"><line y2="-30469" y1="-30934" x2="-29816" x1="-29021" fill="none"/><line y2="-31263" y1="-32190" x2="-28834" x1="-28834" fill="none"/><line y2="-31044" y1="-30469" x2="-30798" x1="-29816" fill="none"/><line y2="-32190" y1="-32762" x2="-28834" x1="-29816" fill="none"/><line y2="-32190" y1="-31044" x2="-30798" x1="-30798" fill="none"/><line y2="-30469" y1="-31044" x2="-31780" x1="-30798" fill="none"/><line y2="-30688" y1="-31119" x2="-31743" x1="-31006" fill="none"/><line y2="-32762" y1="-32190" x2="-29816" x1="-30798" fill="none"/><line y2="-32190" y1="-32762" x2="-30798" x1="-31780" fill="none"/><line y2="-32115" y1="-32543" x2="-31006" x1="-31743" fill="none"/><line y2="-31044" y1="-30469" x2="-32762" x1="-31780" fill="none"/><line y2="-32762" y1="-32190" x2="-31780" x1="-32762" fill="none"/><line y2="-32190" y1="-31044" x2="-32762" x1="-32762" fill="none"/><line y2="-32046" y1="-31185" x2="-32592" x1="-32592" fill="none"/><line y2="-30518" y1="-30934" x2="-27926" x1="-28646" fill="none"/><line y2="-30518" y1="-29382" x2="-27926" x1="-27926" fill="none"/><line y2="-30376" y1="-29524" x2="-27756" x1="-27756" fill="none"/><line y2="-31087" y1="-30518" x2="-26938" x1="-27926" fill="none"/><line y2="-29382" y1="-28813" x2="-27926" x1="-26938" fill="none"/><line y2="-30518" y1="-31087" x2="-25956" x1="-26938" fill="none"/><line y2="-30443" y1="-30870" x2="-26164" x1="-26901" fill="none"/><line y2="-28813" y1="-29382" x2="-26938" x1="-25956" fill="none"/><line y2="-29030" y1="-29458" x2="-26901" x1="-26164" fill="none"/><line y2="-29382" y1="-30518" x2="-25956" x1="-25956" fill="none"/><line y2="-28966" y1="-29382" x2="-25237" x1="-25956" fill="none"/><line y2="-27984" y1="-28813" x2="-26938" x1="-26938" fill="none"/><line y2="-29382" y1="-28966" x2="-24142" x1="-24861" fill="none"/><line y2="-28857" y1="-29382" x2="-23235" x1="-24142" fill="none"/><line y2="-28204" y1="-28675" x2="-24590" x1="-24861" fill="none"/><line y2="-28134" y1="-28602" x2="-24714" x1="-24983" fill="none"/><line y2="-28134" y1="-28602" x2="-25384" x1="-25116" fill="none"/><line y2="-28204" y1="-28675" x2="-25506" x1="-25237" fill="none"/><text y="-27586" xml:space="preserve" x="-27092" stroke="none" font-size="433.3333" font-family="sans-serif">NH</text><text y="-27496" xml:space="preserve" x="-26514" stroke="none" font-size="313.3333" font-family="sans-serif">2</text><text y="-28678" xml:space="preserve" x="-25202" stroke="none" font-size="433.3333" font-family="sans-serif">S</text><text y="-27770" xml:space="preserve" x="-24676" stroke="none" font-size="433.3333" font-family="sans-serif">O</text><text y="-27770" xml:space="preserve" x="-25725" stroke="none" font-size="433.3333" font-family="sans-serif">O</text><text y="-30864" xml:space="preserve" x="-28987" stroke="none" font-size="433.3333" font-family="sans-serif">N</text></g></g></svg>