<svg width="205.98" viewBox="0 0 6866 4587" text-rendering="auto" stroke-width="1" stroke-opacity="1" stroke-miterlimit="10" stroke-linejoin="miter" stroke-linecap="square" stroke-dashoffset="0" stroke-dasharray="none" stroke="black" shape-rendering="auto" image-rendering="auto" height="137.61" font-weight="normal" font-style="normal" font-size="12" font-family="'Dialog'" fill-opacity="1" fill="black" color-rendering="auto" color-interpolation="auto" xmlns="http://www.w3.org/2000/svg"><g><g stroke="white" fill="white"><rect y="0" x="0" width="6866" stroke="none" height="4587"/></g><g transform="translate(32866,32866)" text-rendering="geometricPrecision" stroke-width="44" stroke-linejoin="round" stroke-linecap="round"><line y2="-29446" y1="-29998" x2="-30801" x1="-31514" fill="none"/><line y2="-30004" y1="-29446" x2="-31890" x1="-32644" fill="none"/><line y2="-28383" y1="-29446" x2="-31171" x1="-30801" fill="none"/><line y2="-29446" y1="-28383" x2="-32644" x1="-32318" fill="none"/><line y2="-28383" y1="-28383" x2="-32318" x1="-31171" fill="none"/><line y2="-31191" y1="-30362" x2="-31702" x1="-31702" fill="none"/><line y2="-31714" y1="-31191" x2="-30795" x1="-31702" fill="none"/><line y2="-31546" y1="-31130" x2="-32456" x1="-31737" fill="none"/><line y2="-31668" y1="-31252" x2="-32387" x1="-31668" fill="none"/><line y2="-31298" y1="-31714" x2="-30076" x1="-30795" fill="none"/><line y2="-31714" y1="-31298" x2="-28981" x1="-29700" fill="none"/><line y2="-31191" y1="-31714" x2="-28074" x1="-28981" fill="none"/><line y2="-31191" y1="-30053" x2="-28074" x1="-28074" fill="none"/><line y2="-31049" y1="-30197" x2="-27903" x1="-27903" fill="none"/><line y2="-31760" y1="-31191" x2="-27086" x1="-28074" fill="none"/><line y2="-30053" y1="-29484" x2="-28074" x1="-27086" fill="none"/><line y2="-31191" y1="-31760" x2="-26104" x1="-27086" fill="none"/><line y2="-31116" y1="-31540" x2="-26312" x1="-27048" fill="none"/><line y2="-29484" y1="-30053" x2="-27086" x1="-26104" fill="none"/><line y2="-29703" y1="-30131" x2="-27048" x1="-26312" fill="none"/><line y2="-30053" y1="-31191" x2="-26104" x1="-26104" fill="none"/><line y2="-32762" y1="-32762" x2="-30726" x1="-30864" fill="none"/><line y2="-32545" y1="-32545" x2="-30740" x1="-30850" fill="none"/><line y2="-32329" y1="-32329" x2="-30755" x1="-30835" fill="none"/><line y2="-32112" y1="-32112" x2="-30769" x1="-30821" fill="none"/><line y2="-31895" y1="-31895" x2="-30783" x1="-30807" fill="none"/><text y="-31535" xml:space="preserve" x="-32762" stroke="none" font-size="433.3333" font-family="sans-serif">O</text><text y="-31012" xml:space="preserve" x="-30041" stroke="none" font-size="433.3333" font-family="sans-serif">O</text><text y="-29963" xml:space="preserve" x="-31855" stroke="none" font-size="433.3333" font-family="sans-serif">N</text><text y="-31234" xml:space="preserve" x="-30948" stroke="none" font-style="italic" font-size="313.3333" font-family="sans-serif">S</text></g></g></svg>