<svg width="361.62" viewBox="0 0 12054 8524" text-rendering="auto" stroke-width="1" stroke-opacity="1" stroke-miterlimit="10" stroke-linejoin="miter" stroke-linecap="square" stroke-dashoffset="0" stroke-dasharray="none" stroke="black" shape-rendering="auto" image-rendering="auto" height="255.72" font-weight="normal" font-style="normal" font-size="12" font-family="'Dialog'" fill-opacity="1" fill="black" color-rendering="auto" color-interpolation="auto" xmlns="http://www.w3.org/2000/svg"><g><g stroke="white" fill="white"><rect y="0" x="0" width="12054" stroke="none" height="8524"/></g><g transform="translate(32866,32866)" text-rendering="geometricPrecision" stroke-width="44" stroke-linejoin="round" stroke-linecap="round"><line y2="-26150" y1="-27294" x2="-25199" x1="-25199" fill="none"/><line y2="-26291" y1="-27152" x2="-25370" x1="-25370" fill="none"/><line y2="-27294" y1="-27869" x2="-25199" x1="-26182" fill="none"/><line y2="-27869" y1="-27294" x2="-24217" x1="-25199" fill="none"/><line y2="-26150" y1="-25575" x2="-25199" x1="-24217" fill="none"/><line y2="-25575" y1="-26150" x2="-26182" x1="-25199" fill="none"/><line y2="-27869" y1="-27294" x2="-26182" x1="-27164" fill="none"/><line y2="-27649" y1="-27219" x2="-26216" x1="-26956" fill="none"/><line y2="-27294" y1="-27869" x2="-23232" x1="-24217" fill="none"/><line y2="-27219" y1="-27649" x2="-23443" x1="-24180" fill="none"/><line y2="-25575" y1="-26150" x2="-24217" x1="-23232" fill="none"/><line y2="-25794" y1="-26225" x2="-24180" x1="-23443" fill="none"/><line y2="-26150" y1="-25575" x2="-27164" x1="-26182" fill="none"/><line y2="-26225" y1="-25794" x2="-26956" x1="-26216" fill="none"/><line y2="-27294" y1="-26150" x2="-27164" x1="-27164" fill="none"/><line y2="-26150" y1="-27294" x2="-23232" x1="-23232" fill="none"/><line y2="-28698" y1="-27869" x2="-26182" x1="-26182" fill="none"/><line y2="-29270" y1="-28964" x2="-26936" x1="-26404" fill="none"/><line y2="-29391" y1="-29085" x2="-26866" x1="-26335" fill="none"/><line y2="-30489" y1="-29660" x2="-27089" x1="-27089" fill="none"/><line y2="-25734" y1="-26150" x2="-22516" x1="-23232" fill="none"/><line y2="-27545" y1="-27294" x2="-27597" x1="-27164" fill="none"/><line y2="-28698" y1="-27869" x2="-24217" x1="-24217" fill="none"/><line y2="-31055" y1="-30489" x2="-28071" x1="-27089" fill="none"/><line y2="-31133" y1="-30706" x2="-27863" x1="-27126" fill="none"/><line y2="-30489" y1="-31055" x2="-27089" x1="-26101" fill="none"/><line y2="-32193" y1="-31055" x2="-28071" x1="-28071" fill="none"/><line y2="-31055" y1="-32193" x2="-26101" x1="-26101" fill="none"/><line y2="-31200" y1="-32052" x2="-26271" x1="-26271" fill="none"/><line y2="-32762" y1="-32193" x2="-27089" x1="-28071" fill="none"/><line y2="-32546" y1="-32118" x2="-27126" x1="-27863" fill="none"/><line y2="-32193" y1="-32762" x2="-26101" x1="-27089" fill="none"/><line y2="-30642" y1="-31055" x2="-28790" x1="-28071" fill="none"/><line y2="-26040" y1="-25734" x2="-21608" x1="-22137" fill="none"/><line y2="-24971" y1="-25439" x2="-21868" x1="-22140" fill="none"/><line y2="-24902" y1="-25370" x2="-21990" x1="-22261" fill="none"/><line y2="-24902" y1="-25370" x2="-22663" x1="-22391" fill="none"/><line y2="-24971" y1="-25439" x2="-22784" x1="-22513" fill="none"/><line y2="-30948" y1="-30642" x2="-29697" x1="-29166" fill="none"/><line y2="-29810" y1="-30278" x2="-29313" x1="-29044" fill="none"/><line y2="-29879" y1="-30347" x2="-29437" x1="-29166" fill="none"/><line y2="-29879" y1="-30347" x2="-28522" x1="-28790" fill="none"/><line y2="-29810" y1="-30278" x2="-28643" x1="-28912" fill="none"/><line y2="-30532" y1="-30948" x2="-30792" x1="-30073" fill="none"/><line y2="-32104" y1="-31275" x2="-29885" x1="-29885" fill="none"/><line y2="-32630" y1="-32104" x2="-30792" x1="-29885" fill="none"/><line y2="-30532" y1="-31101" x2="-30792" x1="-31777" fill="none"/><line y2="-30457" y1="-30885" x2="-31000" x1="-31740" fill="none"/><line y2="-29394" y1="-30532" x2="-30792" x1="-30792" fill="none"/><line y2="-31101" y1="-30532" x2="-31777" x1="-32762" fill="none"/><line y2="-28828" y1="-29394" x2="-31777" x1="-30792" fill="none"/><line y2="-29044" y1="-29472" x2="-31740" x1="-31000" fill="none"/><line y2="-30532" y1="-29394" x2="-32762" x1="-32762" fill="none"/><line y2="-30391" y1="-29538" x2="-32592" x1="-32592" fill="none"/><line y2="-29394" y1="-28828" x2="-32762" x1="-31777" fill="none"/><text y="-28738" xml:space="preserve" x="-26332" stroke="none" font-size="433.3333" font-family="sans-serif">N</text><text y="-29261" xml:space="preserve" x="-27239" stroke="none" font-size="433.3333" font-family="sans-serif">N</text><text y="-28738" xml:space="preserve" x="-24367" stroke="none" font-size="433.3333" font-family="sans-serif">OH</text><text y="-27695" xml:space="preserve" x="-28319" stroke="none" font-size="433.3333" font-family="sans-serif">NH</text><text y="-27606" xml:space="preserve" x="-27742" stroke="none" font-size="313.3333" font-family="sans-serif">2</text><text y="-25445" xml:space="preserve" x="-22478" stroke="none" font-size="433.3333" font-family="sans-serif">S</text><text y="-24538" xml:space="preserve" x="-21955" stroke="none" font-size="433.3333" font-family="sans-serif">O</text><text y="-24538" xml:space="preserve" x="-23001" stroke="none" font-size="433.3333" font-family="sans-serif">O</text><text y="-25971" xml:space="preserve" x="-21571" stroke="none" font-size="433.3333" font-family="sans-serif">OH</text><text y="-30353" xml:space="preserve" x="-29131" stroke="none" font-size="433.3333" font-family="sans-serif">S</text><text y="-30876" xml:space="preserve" x="-30038" stroke="none" font-size="433.3333" font-family="sans-serif">N</text><text y="-29446" xml:space="preserve" x="-29654" stroke="none" font-size="433.3333" font-family="sans-serif">O</text><text y="-29446" xml:space="preserve" x="-28605" stroke="none" font-size="433.3333" font-family="sans-serif">O</text></g></g></svg>