<svg width="783.27" viewBox="0 0 26109 9976" text-rendering="auto" stroke-width="1" stroke-opacity="1" stroke-miterlimit="10" stroke-linejoin="miter" stroke-linecap="square" stroke-dashoffset="0" stroke-dasharray="none" stroke="black" shape-rendering="auto" image-rendering="auto" height="299.28" font-weight="normal" font-style="normal" font-size="12" font-family="'Dialog'" fill-opacity="1" fill="black" color-rendering="auto" color-interpolation="auto" xmlns="http://www.w3.org/2000/svg"><g><g stroke="white" fill="white"><rect y="0" x="0" width="26109" stroke="none" height="9976"/></g><g transform="translate(32866,32758)" text-rendering="geometricPrecision" stroke-width="44" stroke-linejoin="round" stroke-linecap="round"><line y2="-27528" y1="-26392" x2="-23142" x1="-23142" fill="none"/><line y2="-27386" y1="-26534" x2="-22972" x1="-22972" fill="none"/><line y2="-26392" y1="-25823" x2="-23142" x1="-22157" fill="none"/><line y2="-28097" y1="-27528" x2="-22157" x1="-23142" fill="none"/><line y2="-25823" y1="-26392" x2="-22157" x1="-21172" fill="none"/><line y2="-26040" y1="-26468" x2="-22120" x1="-21380" fill="none"/><line y2="-27528" y1="-28097" x2="-21172" x1="-22157" fill="none"/><line y2="-27453" y1="-27880" x2="-21380" x1="-22120" fill="none"/><line y2="-26392" y1="-27528" x2="-21172" x1="-21172" fill="none"/><line y2="-27944" y1="-27528" x2="-20453" x1="-21172" fill="none"/><line y2="-27698" y1="-28004" x2="-19511" x1="-20043" fill="none"/><line y2="-27577" y1="-27883" x2="-19580" x1="-20112" fill="none"/><line y2="-28054" y1="-27638" x2="-18451" x1="-19170" fill="none"/><line y2="-25867" y1="-26392" x2="-24050" x1="-23142" fill="none"/><line y2="-29189" y1="-28054" x2="-18451" x1="-18451" fill="none"/><line y2="-29047" y1="-28195" x2="-18280" x1="-18280" fill="none"/><line y2="-28054" y1="-27484" x2="-18451" x1="-17463" fill="none"/><line y2="-29758" y1="-29189" x2="-17463" x1="-18451" fill="none"/><line y2="-27484" y1="-28054" x2="-17463" x1="-16481" fill="none"/><line y2="-27701" y1="-28129" x2="-17425" x1="-16689" fill="none"/><line y2="-29189" y1="-29758" x2="-16481" x1="-17463" fill="none"/><line y2="-29114" y1="-29541" x2="-16689" x1="-17425" fill="none"/><line y2="-28054" y1="-29189" x2="-16481" x1="-16481" fill="none"/><line y2="-29715" y1="-29189" x2="-15574" x1="-16481" fill="none"/><line y2="-25867" y1="-24728" x2="-26020" x1="-26020" fill="none"/><line y2="-25725" y1="-24873" x2="-25849" x1="-25849" fill="none"/><line y2="-24728" y1="-24162" x2="-26020" x1="-25035" fill="none"/><line y2="-26436" y1="-25867" x2="-25035" x1="-26020" fill="none"/><line y2="-24162" y1="-24728" x2="-25035" x1="-24050" fill="none"/><line y2="-24379" y1="-24806" x2="-24997" x1="-24258" fill="none"/><line y2="-25867" y1="-26436" x2="-24050" x1="-25035" fill="none"/><line y2="-25792" y1="-26219" x2="-24258" x1="-24997" fill="none"/><line y2="-24728" y1="-25867" x2="-24050" x1="-24050" fill="none"/><line y2="-24206" y1="-24728" x2="-26927" x1="-26020" fill="none"/><line y2="-30850" y1="-29715" x2="-15574" x1="-15574" fill="none"/><line y2="-30708" y1="-29856" x2="-15403" x1="-15403" fill="none"/><line y2="-29715" y1="-29146" x2="-15574" x1="-14586" fill="none"/><line y2="-31419" y1="-30850" x2="-14586" x1="-15574" fill="none"/><line y2="-29146" y1="-29715" x2="-14586" x1="-13603" fill="none"/><line y2="-29362" y1="-29790" x2="-14548" x1="-13811" fill="none"/><line y2="-30850" y1="-31419" x2="-13603" x1="-14586" fill="none"/><line y2="-30775" y1="-31202" x2="-13811" x1="-14548" fill="none"/><line y2="-29715" y1="-30850" x2="-13603" x1="-13603" fill="none"/><line y2="-31376" y1="-30850" x2="-12696" x1="-13603" fill="none"/><line y2="-24512" y1="-24206" x2="-27456" x1="-26927" fill="none"/><line y2="-25777" y1="-24948" x2="-27834" x1="-27834" fill="none"/><line y2="-23376" y1="-24206" x2="-26858" x1="-26858" fill="none"/><line y2="-23376" y1="-24206" x2="-26996" x1="-26996" fill="none"/><line y2="-30960" y1="-31376" x2="-11977" x1="-12696" fill="none"/><line y2="-29801" y1="-30630" x2="-11789" x1="-11789" fill="none"/><line y2="-32202" y1="-31376" x2="-12766" x1="-12766" fill="none"/><line y2="-32202" y1="-31376" x2="-12627" x1="-12627" fill="none"/><line y2="-26346" y1="-27484" x2="-28822" x1="-28822" fill="none"/><line y2="-26346" y1="-25777" x2="-28822" x1="-27834" fill="none"/><line y2="-26424" y1="-25997" x2="-28614" x1="-27872" fill="none"/><line y2="-25777" y1="-26346" x2="-29804" x1="-28822" fill="none"/><line y2="-27484" y1="-28054" x2="-28822" x1="-29807" fill="none"/><line y2="-28054" y1="-27484" x2="-27834" x1="-28822" fill="none"/><line y2="-27834" y1="-27406" x2="-27874" x1="-28614" fill="none"/><line y2="-25777" y1="-26346" x2="-27834" x1="-26852" fill="none"/><line y2="-26346" y1="-25777" x2="-30792" x1="-29804" fill="none"/><line y2="-28054" y1="-27484" x2="-29807" x1="-30792" fill="none"/><line y2="-27484" y1="-28054" x2="-26852" x1="-27834" fill="none"/><line y2="-26346" y1="-27484" x2="-26852" x1="-26852" fill="none"/><line y2="-26491" y1="-27343" x2="-27019" x1="-27019" fill="none"/><line y2="-26346" y1="-27484" x2="-30792" x1="-30792" fill="none"/><line y2="-25777" y1="-26346" x2="-31774" x1="-30792" fill="none"/><line y2="-25997" y1="-26424" x2="-31737" x1="-31000" fill="none"/><line y2="-27484" y1="-28054" x2="-30792" x1="-31777" fill="none"/><line y2="-27406" y1="-27834" x2="-31000" x1="-31740" fill="none"/><line y2="-26346" y1="-25777" x2="-32762" x1="-31774" fill="none"/><line y2="-28054" y1="-27484" x2="-31777" x1="-32762" fill="none"/><line y2="-27484" y1="-26346" x2="-32762" x1="-32762" fill="none"/><line y2="-27343" y1="-26491" x2="-32592" x1="-32592" fill="none"/><line y2="-24951" y1="-25777" x2="-29735" x1="-29735" fill="none"/><line y2="-24951" y1="-25777" x2="-29874" x1="-29874" fill="none"/><line y2="-28880" y1="-28054" x2="-29876" x1="-29876" fill="none"/><line y2="-28880" y1="-28054" x2="-29735" x1="-29735" fill="none"/><line y2="-29232" y1="-29801" x2="-10801" x1="-11789" fill="none"/><line y2="-29157" y1="-29585" x2="-11012" x1="-11752" fill="none"/><line y2="-29801" y1="-29232" x2="-11789" x1="-12774" fill="none"/><line y2="-29232" y1="-28097" x2="-10801" x1="-10801" fill="none"/><line y2="-29801" y1="-29232" x2="-9819" x1="-10801" fill="none"/><line y2="-29232" y1="-28097" x2="-12774" x1="-12774" fill="none"/><line y2="-29091" y1="-28238" x2="-12604" x1="-12604" fill="none"/><line y2="-28097" y1="-27528" x2="-10801" x1="-9819" fill="none"/><line y2="-27528" y1="-28097" x2="-11789" x1="-10801" fill="none"/><line y2="-27747" y1="-28172" x2="-11752" x1="-11012" fill="none"/><line y2="-29232" y1="-29801" x2="-8831" x1="-9819" fill="none"/><line y2="-28097" y1="-27528" x2="-12774" x1="-11789" fill="none"/><line y2="-27528" y1="-28097" x2="-9819" x1="-8831" fill="none"/><line y2="-29232" y1="-28097" x2="-8831" x1="-8831" fill="none"/><line y2="-29801" y1="-29232" x2="-7849" x1="-8831" fill="none"/><line y2="-29585" y1="-29157" x2="-7886" x1="-8623" fill="none"/><line y2="-28097" y1="-27528" x2="-8831" x1="-7849" fill="none"/><line y2="-28172" y1="-27747" x2="-8623" x1="-7886" fill="none"/><line y2="-29232" y1="-29801" x2="-6861" x1="-7849" fill="none"/><line y2="-27528" y1="-28097" x2="-7849" x1="-6861" fill="none"/><line y2="-28097" y1="-29232" x2="-6861" x1="-6861" fill="none"/><line y2="-28238" y1="-29091" x2="-7031" x1="-7031" fill="none"/><line y2="-30630" y1="-29801" x2="-9888" x1="-9888" fill="none"/><line y2="-30630" y1="-29801" x2="-9750" x1="-9750" fill="none"/><line y2="-26699" y1="-27528" x2="-9747" x1="-9747" fill="none"/><line y2="-26699" y1="-27528" x2="-9888" x1="-9888" fill="none"/><text y="-24549" xml:space="preserve" x="-27987" stroke="none" font-size="433.3333" font-family="sans-serif">NH</text><text y="-22978" xml:space="preserve" x="-27080" stroke="none" font-size="433.3333" font-family="sans-serif">O</text><text y="-24552" xml:space="preserve" x="-29957" stroke="none" font-size="433.3333" font-family="sans-serif">O</text><text y="-28920" xml:space="preserve" x="-29957" stroke="none" font-size="433.3333" font-family="sans-serif">O</text><text y="-27874" xml:space="preserve" x="-20418" stroke="none" font-size="433.3333" font-family="sans-serif">N</text><text y="-27349" xml:space="preserve" x="-19511" stroke="none" font-size="433.3333" font-family="sans-serif">N</text><text y="-30671" xml:space="preserve" x="-11942" stroke="none" font-size="433.3333" font-family="sans-serif">NH</text><text y="-32242" xml:space="preserve" x="-12849" stroke="none" font-size="433.3333" font-family="sans-serif">O</text><text y="-30671" xml:space="preserve" x="-9972" stroke="none" font-size="433.3333" font-family="sans-serif">O</text><text y="-26303" xml:space="preserve" x="-9969" stroke="none" font-size="433.3333" font-family="sans-serif">O</text></g></g></svg>