<svg width="170.34" viewBox="0 0 5678 4404" text-rendering="auto" stroke-width="1" stroke-opacity="1" stroke-miterlimit="10" stroke-linejoin="miter" stroke-linecap="square" stroke-dashoffset="0" stroke-dasharray="none" stroke="black" shape-rendering="auto" image-rendering="auto" height="132.12" font-weight="normal" font-style="normal" font-size="12" font-family="'Dialog'" fill-opacity="1" fill="black" color-rendering="auto" color-interpolation="auto" xmlns="http://www.w3.org/2000/svg"><g><g stroke="white" fill="white"><rect y="0" x="0" width="5678" stroke="none" height="4404"/></g><g transform="translate(32866,32758)" text-rendering="geometricPrecision" stroke-width="44" stroke-linejoin="round" stroke-linecap="round"><line y2="-30850" y1="-31419" x2="-29608" x1="-30593" fill="none"/><line y2="-29715" y1="-30850" x2="-29608" x1="-29608" fill="none"/><line y2="-31419" y1="-30850" x2="-30593" x1="-31578" fill="none"/><line y2="-29146" y1="-29715" x2="-30593" x1="-29608" fill="none"/><line y2="-30850" y1="-29715" x2="-31578" x1="-31578" fill="none"/><line y2="-29715" y1="-29146" x2="-31578" x1="-30593" fill="none"/><line y2="-31376" y1="-30850" x2="-28701" x1="-29608" fill="none"/><line y2="-29862" y1="-29715" x2="-32422" x1="-31578" fill="none"/><line y2="-28949" y1="-29715" x2="-31858" x1="-31578" fill="none"/><line y2="-30960" y1="-31376" x2="-27981" x1="-28701" fill="none"/><line y2="-32202" y1="-31376" x2="-28770" x1="-28770" fill="none"/><line y2="-32202" y1="-31376" x2="-28631" x1="-28631" fill="none"/><text y="-30671" xml:space="preserve" x="-27947" stroke="none" font-size="433.3333" font-family="sans-serif">OH</text><text y="-32242" xml:space="preserve" x="-28854" stroke="none" font-size="433.3333" font-family="sans-serif">O</text><text y="-29718" xml:space="preserve" x="-32762" stroke="none" font-size="433.3333" font-family="sans-serif">F</text><text y="-28550" xml:space="preserve" x="-32089" stroke="none" font-size="433.3333" font-family="sans-serif">F</text></g></g></svg>