<svg width="170.91" viewBox="0 0 5697 4557" text-rendering="auto" stroke-width="1" stroke-opacity="1" stroke-miterlimit="10" stroke-linejoin="miter" stroke-linecap="square" stroke-dashoffset="0" stroke-dasharray="none" stroke="black" shape-rendering="auto" image-rendering="auto" height="136.71" font-weight="normal" font-style="normal" font-size="12" font-family="'Dialog'" fill-opacity="1" fill="black" color-rendering="auto" color-interpolation="auto" xmlns="http://www.w3.org/2000/svg"><g><g stroke="white" fill="white"><rect y="0" x="0" width="5697" stroke="none" height="4557"/></g><g transform="translate(32866,32758)" text-rendering="geometricPrecision" stroke-width="44" stroke-linejoin="round" stroke-linecap="round"><line y2="-29146" y1="-30281" x2="-29732" x1="-29732" fill="none"/><line y2="-30281" y1="-30850" x2="-29732" x1="-30714" fill="none"/><line y2="-30206" y1="-30633" x2="-29940" x1="-30677" fill="none"/><line y2="-30850" y1="-30281" x2="-28744" x1="-29732" fill="none"/><line y2="-28683" y1="-29146" x2="-30526" x1="-29732" fill="none"/><line y2="-28888" y1="-29235" x2="-30512" x1="-29917" fill="none"/><line y2="-29146" y1="-29146" x2="-29732" x1="-27950" fill="none"/><line y2="-30850" y1="-30281" x2="-30714" x1="-31702" fill="none"/><line y2="-30281" y1="-30850" x2="-27762" x1="-28744" fill="none"/><line y2="-30206" y1="-30633" x2="-27967" x1="-28706" fill="none"/><line y2="-29146" y1="-28683" x2="-31702" x1="-30902" fill="none"/><line y2="-29365" y1="-30281" x2="-27762" x1="-27762" fill="none"/><line y2="-30281" y1="-29146" x2="-31702" x1="-31702" fill="none"/><line y2="-30139" y1="-29287" x2="-31532" x1="-31532" fill="none"/><line y2="-31899" y1="-30850" x2="-30714" x1="-30714" fill="none"/><line y2="-30697" y1="-30281" x2="-32422" x1="-31702" fill="none"/><line y2="-32202" y1="-31899" x2="-31243" x1="-30714" fill="none"/><line y2="-32375" y1="-31959" x2="-30030" x1="-30749" fill="none"/><line y2="-32254" y1="-31838" x2="-29960" x1="-30680" fill="none"/><text y="-32242" xml:space="preserve" x="-31774" stroke="none" font-size="433.3333" font-family="sans-serif">OH</text><text y="-32242" xml:space="preserve" x="-29960" stroke="none" font-size="433.3333" font-family="sans-serif">O</text><text y="-30628" xml:space="preserve" x="-32762" stroke="none" font-size="433.3333" font-family="sans-serif">F</text><text y="-28397" xml:space="preserve" x="-30867" stroke="none" font-size="433.3333" font-family="sans-serif">N</text><text y="-28966" xml:space="preserve" x="-27912" stroke="none" font-size="433.3333" font-family="sans-serif">NH</text></g></g></svg>