<svg width="294.39" viewBox="0 0 9813 8920" text-rendering="auto" stroke-width="1" stroke-opacity="1" stroke-miterlimit="10" stroke-linejoin="miter" stroke-linecap="square" stroke-dashoffset="0" stroke-dasharray="none" stroke="black" shape-rendering="auto" image-rendering="auto" height="267.6" font-weight="normal" font-style="normal" font-size="12" font-family="'Dialog'" fill-opacity="1" fill="black" color-rendering="auto" color-interpolation="auto" xmlns="http://www.w3.org/2000/svg"><g><g stroke="white" fill="white"><rect y="0" x="0" width="9813" stroke="none" height="8920"/></g><g transform="translate(32866,32866)" text-rendering="geometricPrecision" stroke-width="44" stroke-linejoin="round" stroke-linecap="round"><line y2="-25768" y1="-26340" x2="-25121" x1="-26104" fill="none"/><line y2="-24622" y1="-25768" x2="-25121" x1="-25121" fill="none"/><line y2="-24766" y1="-25624" x2="-25292" x1="-25292" fill="none"/><line y2="-26340" y1="-25768" x2="-24139" x1="-25121" fill="none"/><line y2="-26340" y1="-25768" x2="-26104" x1="-27086" fill="none"/><line y2="-26124" y1="-25693" x2="-26141" x1="-26878" fill="none"/><line y2="-24050" y1="-24622" x2="-26104" x1="-25121" fill="none"/><line y2="-24622" y1="-24050" x2="-25121" x1="-24139" fill="none"/><line y2="-25768" y1="-26340" x2="-23157" x1="-24139" fill="none"/><line y2="-25693" y1="-26124" x2="-23365" x1="-24102" fill="none"/><line y2="-25768" y1="-24622" x2="-27086" x1="-27086" fill="none"/><line y2="-24622" y1="-24050" x2="-27086" x1="-26104" fill="none"/><line y2="-24697" y1="-24266" x2="-26878" x1="-26141" fill="none"/><line y2="-24050" y1="-24622" x2="-24139" x1="-23157" fill="none"/><line y2="-24266" y1="-24697" x2="-24102" x1="-23365" fill="none"/><line y2="-24622" y1="-25768" x2="-23157" x1="-23157" fill="none"/><line y2="-27389" y1="-26340" x2="-26104" x1="-26104" fill="none"/><line y2="-27805" y1="-27389" x2="-26823" x1="-26104" fill="none"/><line y2="-28961" y1="-28132" x2="-27011" x1="-27011" fill="none"/><line y2="-29484" y1="-28961" x2="-27918" x1="-27011" fill="none"/><line y2="-30532" y1="-29484" x2="-27918" x1="-27918" fill="none"/><line y2="-31055" y1="-30532" x2="-28825" x1="-27918" fill="none"/><line y2="-27557" y1="-27805" x2="-27629" x1="-27198" fill="none"/><line y2="-30489" y1="-31055" x2="-29813" x1="-28825" fill="none"/><line y2="-30706" y1="-31133" x2="-29775" x1="-29033" fill="none"/><line y2="-31055" y1="-32193" x2="-28825" x1="-28825" fill="none"/><line y2="-31055" y1="-30489" x2="-30795" x1="-29813" fill="none"/><line y2="-32193" y1="-32762" x2="-28825" x1="-29813" fill="none"/><line y2="-32118" y1="-32543" x2="-29033" x1="-29775" fill="none"/><line y2="-32193" y1="-31055" x2="-30795" x1="-30795" fill="none"/><line y2="-32052" y1="-31200" x2="-30625" x1="-30625" fill="none"/><line y2="-32762" y1="-32193" x2="-29813" x1="-30795" fill="none"/><line y2="-30532" y1="-31055" x2="-31702" x1="-30795" fill="none"/><line y2="-30948" y1="-30532" x2="-32422" x1="-31702" fill="none"/><line y2="-29845" y1="-30532" x2="-32101" x1="-31702" fill="none"/><line y2="-29845" y1="-30532" x2="-31306" x1="-31702" fill="none"/><line y2="-27854" y1="-27973" x2="-25162" x1="-25231" fill="none"/><line y2="-27758" y1="-27852" x2="-25357" x1="-25411" fill="none"/><line y2="-27662" y1="-27732" x2="-25551" x1="-25592" fill="none"/><line y2="-27566" y1="-27611" x2="-25746" x1="-25772" fill="none"/><line y2="-27470" y1="-27490" x2="-25941" x1="-25953" fill="none"/><text y="-27733" xml:space="preserve" x="-27164" stroke="none" font-size="433.3333" font-family="sans-serif">N</text><text y="-27158" xml:space="preserve" x="-28160" stroke="none" font-size="433.3333" font-family="sans-serif">OH</text><text y="-30876" xml:space="preserve" x="-32762" stroke="none" font-size="433.3333" font-family="sans-serif">F</text><text y="-29446" xml:space="preserve" x="-32378" stroke="none" font-size="433.3333" font-family="sans-serif">F</text><text y="-29446" xml:space="preserve" x="-31332" stroke="none" font-size="433.3333" font-family="sans-serif">F</text><text y="-27066" xml:space="preserve" x="-26505" stroke="none" font-style="italic" font-size="313.3333" font-family="sans-serif">R</text></g></g></svg>