<svg width="494.43" viewBox="0 0 16481 7378" text-rendering="auto" stroke-width="1" stroke-opacity="1" stroke-miterlimit="10" stroke-linejoin="miter" stroke-linecap="square" stroke-dashoffset="0" stroke-dasharray="none" stroke="black" shape-rendering="auto" image-rendering="auto" height="221.34" font-weight="normal" font-style="normal" font-size="12" font-family="'Dialog'" fill-opacity="1" fill="black" color-rendering="auto" color-interpolation="auto" xmlns="http://www.w3.org/2000/svg"><g><g stroke="white" fill="white"><rect y="0" x="0" width="16481" stroke="none" height="7378"/></g><g transform="translate(32866,32866)" text-rendering="geometricPrecision" stroke-width="44" stroke-linejoin="round" stroke-linecap="round"><line y2="-30622" y1="-30622" x2="-29845" x1="-30795" fill="none"/><line y2="-29484" y1="-30402" x2="-29657" x1="-29657" fill="none"/><line y2="-30622" y1="-29484" x2="-30795" x1="-30795" fill="none"/><line y2="-29484" y1="-29484" x2="-30795" x1="-29657" fill="none"/><line y2="-31145" y1="-30732" x2="-28750" x1="-29469" fill="none"/><line y2="-30622" y1="-31145" x2="-27843" x1="-28750" fill="none"/><line y2="-28961" y1="-29484" x2="-31702" x1="-30795" fill="none"/><line y2="-29484" y1="-30622" x2="-25872" x1="-25872" fill="none"/><line y2="-29628" y1="-30480" x2="-26043" x1="-26043" fill="none"/><line y2="-28917" y1="-29484" x2="-26858" x1="-25872" fill="none"/><line y2="-30622" y1="-31191" x2="-25872" x1="-26858" fill="none"/><line y2="-29484" y1="-28917" x2="-27843" x1="-26858" fill="none"/><line y2="-29562" y1="-29134" x2="-27635" x1="-26895" fill="none"/><line y2="-31191" y1="-30622" x2="-26858" x1="-27843" fill="none"/><line y2="-30971" y1="-30544" x2="-26895" x1="-27635" fill="none"/><line y2="-30622" y1="-29484" x2="-27843" x1="-27843" fill="none"/><line y2="-28961" y1="-29484" x2="-24965" x1="-25872" fill="none"/><line y2="-32240" y1="-31191" x2="-26858" x1="-26858" fill="none"/><line y2="-32762" y1="-32240" x2="-27765" x1="-26858" fill="none"/><line y2="-29264" y1="-28961" x2="-32231" x1="-31702" fill="none"/><line y2="-28132" y1="-28961" x2="-31633" x1="-31633" fill="none"/><line y2="-28132" y1="-28961" x2="-31772" x1="-31772" fill="none"/><line y2="-29437" y1="-29021" x2="-24281" x1="-25000" fill="none"/><line y2="-29316" y1="-28900" x2="-24211" x1="-24931" fill="none"/><line y2="-27912" y1="-28961" x2="-24965" x1="-24965" fill="none"/><line y2="-29070" y1="-29377" x2="-23339" x1="-23870" fill="none"/><line y2="-29484" y1="-29070" x2="-22244" x1="-22963" fill="none"/><line y2="-28961" y1="-29484" x2="-21337" x1="-22244" fill="none"/><line y2="-27822" y1="-28961" x2="-19367" x1="-19367" fill="none"/><line y2="-27967" y1="-28819" x2="-19537" x1="-19537" fill="none"/><line y2="-27256" y1="-27822" x2="-20352" x1="-19367" fill="none"/><line y2="-28961" y1="-29530" x2="-19367" x1="-20352" fill="none"/><line y2="-27822" y1="-27256" x2="-21337" x1="-20352" fill="none"/><line y2="-27900" y1="-27473" x2="-21129" x1="-20389" fill="none"/><line y2="-29530" y1="-28961" x2="-20352" x1="-21337" fill="none"/><line y2="-29310" y1="-28883" x2="-20389" x1="-21129" fill="none"/><line y2="-28961" y1="-27822" x2="-21337" x1="-21337" fill="none"/><line y2="-27300" y1="-27822" x2="-18460" x1="-19367" fill="none"/><line y2="-29484" y1="-28961" x2="-18460" x1="-19367" fill="none"/><line y2="-27300" y1="-26161" x2="-18460" x1="-18460" fill="none"/><line y2="-27869" y1="-27300" x2="-17477" x1="-18460" fill="none"/><line y2="-26161" y1="-25592" x2="-18460" x1="-17477" fill="none"/><line y2="-27300" y1="-27869" x2="-16489" x1="-17477" fill="none"/><line y2="-25592" y1="-26161" x2="-17477" x1="-16489" fill="none"/><line y2="-26161" y1="-27300" x2="-16489" x1="-16489" fill="none"/><line y2="-29070" y1="-29484" x2="-17740" x1="-18460" fill="none"/><line y2="-30171" y1="-29484" x2="-18061" x1="-18460" fill="none"/><line y2="-30171" y1="-29484" x2="-18858" x1="-18460" fill="none"/><text y="-28782" xml:space="preserve" x="-17706" stroke="none" font-size="433.3333" font-family="sans-serif">F</text><text y="-30212" xml:space="preserve" x="-18087" stroke="none" font-size="433.3333" font-family="sans-serif">F</text><text y="-30212" xml:space="preserve" x="-19136" stroke="none" font-size="433.3333" font-family="sans-serif">F</text><text y="-28782" xml:space="preserve" x="-23304" stroke="none" font-size="433.3333" font-family="sans-serif">O</text><text y="-29304" xml:space="preserve" x="-24211" stroke="none" font-size="433.3333" font-family="sans-serif">N</text><text y="-29304" xml:space="preserve" x="-32762" stroke="none" font-size="433.3333" font-family="sans-serif">OH</text><text y="-27733" xml:space="preserve" x="-31855" stroke="none" font-size="433.3333" font-family="sans-serif">O</text><text y="-30443" xml:space="preserve" x="-29810" stroke="none" font-size="433.3333" font-family="sans-serif">N</text><text y="-28602" xml:space="preserve" x="-24535" stroke="none" font-style="italic" font-size="313.3333" font-family="sans-serif">E</text></g></g></svg>