<svg width="164.7" viewBox="0 0 5490 2229" text-rendering="auto" stroke-width="1" stroke-opacity="1" stroke-miterlimit="10" stroke-linejoin="miter" stroke-linecap="square" stroke-dashoffset="0" stroke-dasharray="none" stroke="black" shape-rendering="auto" image-rendering="auto" height="66.87" font-weight="normal" font-style="normal" font-size="12" font-family="'Dialog'" fill-opacity="1" fill="black" color-rendering="auto" color-interpolation="auto" xmlns="http://www.w3.org/2000/svg"><g><g stroke="white" fill="white"><rect y="0" x="0" width="5490" stroke="none" height="2229"/></g><g transform="translate(32866,32758)" text-rendering="geometricPrecision" stroke-width="44" stroke-linejoin="round" stroke-linecap="round"><line y2="-31610" y1="-30795" x2="-30336" x1="-29524" fill="none"/><line y2="-32234" y1="-31610" x2="-29712" x1="-30336" fill="none"/><line y2="-31610" y1="-32583" x2="-30336" x1="-30905" fill="none"/><line y2="-30633" y1="-31610" x2="-30905" x1="-30336" fill="none"/><line y2="-30795" y1="-31610" x2="-29524" x1="-28712" fill="none"/><line y2="-31610" y1="-32202" x2="-28712" x1="-29304" fill="none"/><line y2="-32583" y1="-32583" x2="-30905" x1="-32040" fill="none"/><line y2="-30633" y1="-30633" x2="-32040" x1="-30905" fill="none"/><line y2="-32583" y1="-31829" x2="-32040" x1="-32482" fill="none"/><line y2="-31390" y1="-30633" x2="-32482" x1="-32040" fill="none"/><line y2="-31679" y1="-31679" x2="-27851" x1="-28712" fill="none"/><line y2="-31540" y1="-31540" x2="-27851" x1="-28712" fill="none"/><text y="-31431" xml:space="preserve" x="-27817" stroke="none" font-size="433.3333" font-family="sans-serif">O</text><text y="-32242" xml:space="preserve" x="-29674" stroke="none" font-size="433.3333" font-family="sans-serif">NH</text><text y="-31431" xml:space="preserve" x="-32762" stroke="none" font-size="433.3333" font-family="sans-serif">NH</text></g></g></svg>