<svg width="354.27" viewBox="0 0 11809 12261" text-rendering="auto" stroke-width="1" stroke-opacity="1" stroke-miterlimit="10" stroke-linejoin="miter" stroke-linecap="square" stroke-dashoffset="0" stroke-dasharray="none" stroke="black" shape-rendering="auto" image-rendering="auto" height="367.83" font-weight="normal" font-style="normal" font-size="12" font-family="'Dialog'" fill-opacity="1" fill="black" color-rendering="auto" color-interpolation="auto" xmlns="http://www.w3.org/2000/svg"><g><g stroke="white" fill="white"><rect y="0" x="0" width="11809" stroke="none" height="12261"/></g><g transform="translate(32866,32758)" text-rendering="geometricPrecision" stroke-width="44" stroke-linejoin="round" stroke-linecap="round"><line y2="-23148" y1="-22579" x2="-27921" x1="-28906" fill="none"/><line y2="-22579" y1="-21441" x2="-28906" x1="-28906" fill="none"/><line y2="-22438" y1="-21582" x2="-28735" x1="-28735" fill="none"/><line y2="-22579" y1="-23148" x2="-26936" x1="-27921" fill="none"/><line y2="-22501" y1="-22929" x2="-27144" x1="-27883" fill="none"/><line y2="-21441" y1="-20982" x2="-28906" x1="-28108" fill="none"/><line y2="-21441" y1="-22579" x2="-26936" x1="-26936" fill="none"/><line y2="-23148" y1="-22579" x2="-25948" x1="-26936" fill="none"/><line y2="-20982" y1="-21441" x2="-27730" x1="-26936" fill="none"/><line y2="-21184" y1="-21530" x2="-27718" x1="-27120" fill="none"/><line y2="-21441" y1="-21441" x2="-26936" x1="-25153" fill="none"/><line y2="-22579" y1="-23148" x2="-24965" x1="-25948" fill="none"/><line y2="-22501" y1="-22929" x2="-25173" x1="-25910" fill="none"/><line y2="-21660" y1="-22579" x2="-24965" x1="-24965" fill="none"/><line y2="-22992" y1="-22579" x2="-29625" x1="-28906" fill="none"/><line y2="-24151" y1="-23322" x2="-29813" x1="-29813" fill="none"/><line y2="-24717" y1="-25855" x2="-28831" x1="-28828" fill="none"/><line y2="-24858" y1="-25714" x2="-28998" x1="-28998" fill="none"/><line y2="-25855" y1="-26424" x2="-28828" x1="-29813" fill="none"/><line y2="-24151" y1="-24717" x2="-29813" x1="-28831" fill="none"/><line y2="-26424" y1="-25855" x2="-29813" x1="-30798" fill="none"/><line y2="-26205" y1="-25777" x2="-29850" x1="-30590" fill="none"/><line y2="-24717" y1="-24151" x2="-30798" x1="-29813" fill="none"/><line y2="-24795" y1="-24367" x2="-30590" x1="-29850" fill="none"/><line y2="-25855" y1="-24717" x2="-30798" x1="-30798" fill="none"/><line y2="-26271" y1="-25855" x2="-28108" x1="-28828" fill="none"/><line y2="-24194" y1="-24717" x2="-31705" x1="-30798" fill="none"/><line y2="-26378" y1="-27297" x2="-25950" x1="-25950" fill="none"/><line y2="-27626" y1="-28085" x2="-26138" x1="-26936" fill="none"/><line y2="-25812" y1="-26378" x2="-26936" x1="-25950" fill="none"/><line y2="-28085" y1="-27516" x2="-26936" x1="-27921" fill="none"/><line y2="-26271" y1="-25812" x2="-27733" x1="-26936" fill="none"/><line y2="-27516" y1="-26598" x2="-27921" x1="-27921" fill="none"/><line y2="-28042" y1="-27626" x2="-25043" x1="-25763" fill="none"/><line y2="-27502" y1="-28042" x2="-24145" x1="-25043" fill="none"/><line y2="-24497" y1="-24194" x2="-32231" x1="-31705" fill="none"/><line y2="-23365" y1="-24194" x2="-31633" x1="-31633" fill="none"/><line y2="-23365" y1="-24194" x2="-31774" x1="-31774" fill="none"/><line y2="-28054" y1="-27502" x2="-23151" x1="-24145" fill="none"/><line y2="-27834" y1="-27421" x2="-23192" x1="-23940" fill="none"/><line y2="-27464" y1="-28054" x2="-22175" x1="-23151" fill="none"/><line y2="-27502" y1="-26361" x2="-24145" x1="-24165" fill="none"/><line y2="-26329" y1="-27464" x2="-22195" x1="-22175" fill="none"/><line y2="-26361" y1="-25780" x2="-24165" x1="-23192" fill="none"/><line y2="-25780" y1="-26329" x2="-23192" x1="-22195" fill="none"/><line y2="-29099" y1="-28054" x2="-23151" x1="-23151" fill="none"/><line y2="-25338" y1="-26329" x2="-21857" x1="-22195" fill="none"/><line y2="-26494" y1="-26329" x2="-21161" x1="-22195" fill="none"/><line y2="-29668" y1="-29099" x2="-24136" x1="-23151" fill="none"/><line y2="-29744" y1="-29319" x2="-23928" x1="-23189" fill="none"/><line y2="-29099" y1="-29668" x2="-23151" x1="-22166" fill="none"/><line y2="-30807" y1="-29668" x2="-24136" x1="-24136" fill="none"/><line y2="-29668" y1="-30807" x2="-22166" x1="-22166" fill="none"/><line y2="-29813" y1="-30665" x2="-22336" x1="-22336" fill="none"/><line y2="-31376" y1="-30807" x2="-23151" x1="-24136" fill="none"/><line y2="-31156" y1="-30729" x2="-23189" x1="-23928" fill="none"/><line y2="-30807" y1="-31376" x2="-22166" x1="-23151" fill="none"/><line y2="-32202" y1="-31376" x2="-23151" x1="-23151" fill="none"/><text y="-32242" xml:space="preserve" x="-23382" stroke="none" font-size="433.3333" font-family="sans-serif">Cl</text><text y="-22923" xml:space="preserve" x="-29966" stroke="none" font-size="433.3333" font-family="sans-serif">O</text><text y="-24538" xml:space="preserve" x="-32762" stroke="none" font-size="433.3333" font-family="sans-serif">OH</text><text y="-22966" xml:space="preserve" x="-31855" stroke="none" font-size="433.3333" font-family="sans-serif">O</text><text y="-27337" xml:space="preserve" x="-26104" stroke="none" font-size="433.3333" font-family="sans-serif">N</text><text y="-26199" xml:space="preserve" x="-28074" stroke="none" font-size="433.3333" font-family="sans-serif">N</text><text y="-20693" xml:space="preserve" x="-28071" stroke="none" font-size="433.3333" font-family="sans-serif">N</text><text y="-21262" xml:space="preserve" x="-25118" stroke="none" font-size="433.3333" font-family="sans-serif">NH</text></g></g></svg>