<svg width="105.6" viewBox="0 0 3520 2953" text-rendering="auto" stroke-width="1" stroke-opacity="1" stroke-miterlimit="10" stroke-linejoin="miter" stroke-linecap="square" stroke-dashoffset="0" stroke-dasharray="none" stroke="black" shape-rendering="auto" image-rendering="auto" height="88.59" font-weight="normal" font-style="normal" font-size="12" font-family="'Dialog'" fill-opacity="1" fill="black" color-rendering="auto" color-interpolation="auto" xmlns="http://www.w3.org/2000/svg"><g><g stroke="white" fill="white"><rect y="0" x="0" width="3520" stroke="none" height="2953"/></g><g transform="translate(32866,32758)" text-rendering="geometricPrecision" stroke-width="44" stroke-linejoin="round" stroke-linecap="round"><line y2="-31841" y1="-30706" x2="-31604" x1="-31604" fill="none"/><line y2="-32410" y1="-31841" x2="-30619" x1="-31604" fill="none"/><line y2="-30706" y1="-30136" x2="-31604" x1="-30619" fill="none"/><line y2="-31951" y1="-32410" x2="-29822" x1="-30619" fill="none"/><line y2="-30136" y1="-30706" x2="-30619" x1="-29634" fill="none"/><line y2="-30706" y1="-31624" x2="-29634" x1="-29634" fill="none"/><polygon stroke-width="1" stroke="none" points=" -31604 -31841 -32072 -32034 -32003 -32153"/><polygon stroke-width="1" points=" -31604 -31841 -32072 -32034 -32003 -32153" fill="none"/><line y2="-30460" y1="-30342" x2="-32167" x1="-32095" fill="none"/><line y2="-30548" y1="-30472" x2="-31967" x1="-31920" fill="none"/><line y2="-30635" y1="-30601" x2="-31766" x1="-31746" fill="none"/><text y="-32242" xml:space="preserve" x="-32762" stroke="none" font-size="433.3333" font-family="sans-serif">NH</text><text y="-32153" xml:space="preserve" x="-32185" stroke="none" font-size="313.3333" font-family="sans-serif">2</text><text y="-30001" xml:space="preserve" x="-32664" stroke="none" font-size="433.3333" font-family="sans-serif">OH</text><text y="-31662" xml:space="preserve" x="-29787" stroke="none" font-size="433.3333" font-family="sans-serif">O</text><text y="-31520" xml:space="preserve" x="-31509" stroke="none" font-style="italic" font-size="313.3333" font-family="sans-serif">S</text><text y="-30671" xml:space="preserve" x="-31509" stroke="none" font-style="italic" font-size="313.3333" font-family="sans-serif">S</text></g></g></svg>