<svg width="434.52" viewBox="0 0 14484 5890" text-rendering="auto" stroke-width="1" stroke-opacity="1" stroke-miterlimit="10" stroke-linejoin="miter" stroke-linecap="square" stroke-dashoffset="0" stroke-dasharray="none" stroke="black" shape-rendering="auto" image-rendering="auto" height="176.7" font-weight="normal" font-style="normal" font-size="12" font-family="'Dialog'" fill-opacity="1" fill="black" color-rendering="auto" color-interpolation="auto" xmlns="http://www.w3.org/2000/svg"><g><g stroke="white" fill="white"><rect y="0" x="0" width="14484" stroke="none" height="5890"/></g><g transform="translate(32866,32866)" text-rendering="geometricPrecision" stroke-width="44" stroke-linejoin="round" stroke-linecap="round"><line y2="-29706" y1="-30122" x2="-27837" x1="-28556" fill="none"/><line y2="-30232" y1="-29706" x2="-26930" x1="-27837" fill="none"/><line y2="-29706" y1="-30232" x2="-26023" x1="-26930" fill="none"/><line y2="-30232" y1="-29706" x2="-25116" x1="-26023" fill="none"/><line y2="-29706" y1="-30232" x2="-24208" x1="-25116" fill="none"/><line y2="-30232" y1="-29706" x2="-23301" x1="-24208" fill="none"/><line y2="-29816" y1="-30232" x2="-22582" x1="-23301" fill="none"/><line y2="-29706" y1="-30122" x2="-29651" x1="-28932" fill="none"/><line y2="-31278" y1="-30451" x2="-28744" x1="-28744" fill="none"/><line y2="-31694" y1="-31278" x2="-28025" x1="-28744" fill="none"/><line y2="-31523" y1="-31211" x2="-28045" x1="-28585" fill="none"/><line y2="-30232" y1="-29816" x2="-21487" x1="-22206" fill="none"/><line y2="-28660" y1="-29486" x2="-22394" x1="-22394" fill="none"/><line y2="-28244" y1="-28660" x2="-21675" x1="-22394" fill="none"/><line y2="-28175" y1="-28487" x2="-21834" x1="-22374" fill="none"/><line y2="-28507" y1="-29706" x2="-29651" x1="-29651" fill="none"/><line y2="-29706" y1="-30307" x2="-29651" x1="-30694" fill="none"/><line y2="-27906" y1="-28507" x2="-30694" x1="-29651" fill="none"/><line y2="-30307" y1="-29706" x2="-30694" x1="-31731" fill="none"/><line y2="-28288" y1="-27906" x2="-31353" x1="-30694" fill="none"/><line y2="-29706" y1="-28727" x2="-31731" x1="-31731" fill="none"/><line y2="-27080" y1="-27906" x2="-30047" x1="-30694" fill="none"/><line y2="-27115" y1="-27906" x2="-31382" x1="-30694" fill="none"/><line y2="-30691" y1="-29706" x2="-32089" x1="-31731" fill="none"/><line y2="-29524" y1="-29706" x2="-32762" x1="-31731" fill="none"/><line y2="-31367" y1="-30232" x2="-21487" x1="-21487" fill="none"/><line y2="-30232" y1="-29663" x2="-21487" x1="-20499" fill="none"/><line y2="-31936" y1="-31367" x2="-20499" x1="-21487" fill="none"/><line y2="-29663" y1="-30232" x2="-20499" x1="-19517" fill="none"/><line y2="-31477" y1="-31936" x2="-19705" x1="-20499" fill="none"/><line y2="-30232" y1="-31148" x2="-19517" x1="-19517" fill="none"/><line y2="-32762" y1="-31936" x2="-21143" x1="-20499" fill="none"/><line y2="-32728" y1="-31936" x2="-19812" x1="-20499" fill="none"/><line y2="-29247" y1="-30232" x2="-19159" x1="-19517" fill="none"/><line y2="-30414" y1="-30232" x2="-18486" x1="-19517" fill="none"/><text y="-30053" xml:space="preserve" x="-28897" stroke="none" font-size="433.3333" font-family="sans-serif">N</text><text y="-31624" xml:space="preserve" x="-27990" stroke="none" font-size="433.3333" font-family="sans-serif">O</text><text y="-29527" xml:space="preserve" x="-22547" stroke="none" font-size="433.3333" font-family="sans-serif">N</text><text y="-27955" xml:space="preserve" x="-21640" stroke="none" font-size="433.3333" font-family="sans-serif">O</text><text y="-28328" xml:space="preserve" x="-31884" stroke="none" font-size="433.3333" font-family="sans-serif">NH</text><text y="-31188" xml:space="preserve" x="-19670" stroke="none" font-size="433.3333" font-family="sans-serif">NH</text></g></g></svg>