<svg width="220.77" viewBox="0 0 7359 3500" text-rendering="auto" stroke-width="1" stroke-opacity="1" stroke-miterlimit="10" stroke-linejoin="miter" stroke-linecap="square" stroke-dashoffset="0" stroke-dasharray="none" stroke="black" shape-rendering="auto" image-rendering="auto" height="105.0" font-weight="normal" font-style="normal" font-size="12" font-family="'Dialog'" fill-opacity="1" fill="black" color-rendering="auto" color-interpolation="auto" xmlns="http://www.w3.org/2000/svg"><g><g stroke="white" fill="white"><rect y="0" x="0" width="7359" stroke="none" height="3500"/></g><g transform="translate(32866,32758)" text-rendering="geometricPrecision" stroke-width="44" stroke-linejoin="round" stroke-linecap="round"><line y2="-30249" y1="-31174" x2="-27404" x1="-28088" fill="none"/><line y2="-29362" y1="-30249" x2="-28088" x1="-27404" fill="none"/><line y2="-30249" y1="-29443" x2="-27404" x1="-26600" fill="none"/><line y2="-31052" y1="-30249" x2="-26600" x1="-27404" fill="none"/><line y2="-31174" y1="-30908" x2="-28088" x1="-28946" fill="none"/><line y2="-29726" y1="-29362" x2="-29134" x1="-28088" fill="none"/><line y2="-29443" y1="-30061" x2="-26600" x1="-25982" fill="none"/><line y2="-30437" y1="-31052" x2="-25982" x1="-26600" fill="none"/><line y2="-30630" y1="-29726" x2="-29134" x1="-29134" fill="none"/><line y2="-31376" y1="-30960" x2="-30041" x1="-29322" fill="none"/><line y2="-30960" y1="-31376" x2="-30760" x1="-30041" fill="none"/><line y2="-31376" y1="-30960" x2="-31855" x1="-31136" fill="none"/><line y2="-32202" y1="-31376" x2="-30110" x1="-30110" fill="none"/><line y2="-32202" y1="-31376" x2="-29972" x1="-29972" fill="none"/><line y2="-30850" y1="-31376" x2="-32762" x1="-31855" fill="none"/><line y2="-32283" y1="-31376" x2="-32378" x1="-31855" fill="none"/><line y2="-32283" y1="-31376" x2="-31330" x1="-31855" fill="none"/><text y="-30671" xml:space="preserve" x="-31098" stroke="none" font-size="433.3333" font-family="sans-serif">O</text><text y="-32242" xml:space="preserve" x="-30191" stroke="none" font-size="433.3333" font-family="sans-serif">O</text><text y="-30671" xml:space="preserve" x="-29284" stroke="none" font-size="433.3333" font-family="sans-serif">N</text><text y="-30070" xml:space="preserve" x="-25948" stroke="none" font-size="433.3333" font-family="sans-serif">O</text></g></g></svg>