<svg width="260.43" viewBox="0 0 8681 3535" text-rendering="auto" stroke-width="1" stroke-opacity="1" stroke-miterlimit="10" stroke-linejoin="miter" stroke-linecap="square" stroke-dashoffset="0" stroke-dasharray="none" stroke="black" shape-rendering="auto" image-rendering="auto" height="106.05" font-weight="normal" font-style="normal" font-size="12" font-family="'Dialog'" fill-opacity="1" fill="black" color-rendering="auto" color-interpolation="auto" xmlns="http://www.w3.org/2000/svg"><g><g stroke="white" fill="white"><rect y="0" x="0" width="8681" stroke="none" height="3535"/></g><g transform="translate(32866,32866)" text-rendering="geometricPrecision" stroke-width="44" stroke-linejoin="round" stroke-linecap="round"><line y2="-29663" y1="-30232" x2="-29807" x1="-28825" fill="none"/><line y2="-30232" y1="-29663" x2="-30795" x1="-29807" fill="none"/><line y2="-30232" y1="-31148" x2="-28825" x1="-28825" fill="none"/><line y2="-31148" y1="-30232" x2="-30795" x1="-30795" fill="none"/><line y2="-31477" y1="-31936" x2="-29013" x1="-29807" fill="none"/><line y2="-31936" y1="-31477" x2="-29807" x1="-30607" fill="none"/><line y2="-30232" y1="-29706" x2="-27011" x1="-27918" fill="none"/><line y2="-30012" y1="-29706" x2="-32231" x1="-31702" fill="none"/><line y2="-32762" y1="-31936" x2="-30454" x1="-29807" fill="none"/><line y2="-32728" y1="-31936" x2="-29120" x1="-29807" fill="none"/><line y2="-29816" y1="-30232" x2="-26291" x1="-27011" fill="none"/><line y2="-30232" y1="-29816" x2="-25196" x1="-25916" fill="none"/><line y2="-31058" y1="-30232" x2="-27080" x1="-27080" fill="none"/><line y2="-31058" y1="-30232" x2="-26941" x1="-26941" fill="none"/><line y2="-29706" y1="-30232" x2="-24289" x1="-25196" fill="none"/><line y2="-31139" y1="-30232" x2="-24674" x1="-25196" fill="none"/><line y2="-31139" y1="-30232" x2="-25719" x1="-25196" fill="none"/><polygon stroke-width="1" stroke="none" points=" -28825 -30232 -27883 -29767 -27950 -29645"/><polygon stroke-width="1" points=" -28825 -30232 -27883 -29767 -27950 -29645" fill="none"/><polygon stroke-width="1" stroke="none" points=" -30795 -30232 -31668 -29648 -31737 -29767"/><polygon stroke-width="1" points=" -30795 -30232 -31668 -29648 -31737 -29767" fill="none"/><text y="-29527" xml:space="preserve" x="-26257" stroke-width="1" stroke="none" font-size="433.3333" font-family="sans-serif">O</text><text y="-31098" xml:space="preserve" x="-27164" stroke-width="1" stroke="none" font-size="433.3333" font-family="sans-serif">O</text><text y="-30053" xml:space="preserve" x="-32762" stroke-width="1" stroke="none" font-size="433.3333" font-family="sans-serif">OH</text><text y="-31188" xml:space="preserve" x="-28978" stroke-width="1" stroke="none" font-size="433.3333" font-family="sans-serif">O</text><text y="-31188" xml:space="preserve" x="-30948" stroke-width="1" stroke="none" font-size="433.3333" font-family="sans-serif">O</text></g><g transform="translate(32866,32866)" text-rendering="geometricPrecision" stroke-linejoin="round" stroke-linecap="round" font-style="italic" font-size="313.3333" font-family="sans-serif"><text y="-30194" xml:space="preserve" x="-29226" stroke="none">R</text><text y="-30194" xml:space="preserve" x="-30700" stroke="none">S</text></g></g></svg>