<svg width="224.85" viewBox="0 0 7495 3031" text-rendering="auto" stroke-width="1" stroke-opacity="1" stroke-miterlimit="10" stroke-linejoin="miter" stroke-linecap="square" stroke-dashoffset="0" stroke-dasharray="none" stroke="black" shape-rendering="auto" image-rendering="auto" height="90.93" font-weight="normal" font-style="normal" font-size="12" font-family="'Dialog'" fill-opacity="1" fill="black" color-rendering="auto" color-interpolation="auto" xmlns="http://www.w3.org/2000/svg"><g><g stroke="white" fill="white"><rect y="0" x="0" width="7495" stroke="none" height="3031"/></g><g transform="translate(32866,32758)" text-rendering="geometricPrecision" stroke-width="44" stroke-linejoin="round" stroke-linecap="round"><line y2="-31824" y1="-30628" x2="-29550" x1="-29550" fill="none"/><line y2="-30628" y1="-30628" x2="-29550" x1="-27476" fill="none"/><line y2="-30798" y1="-30798" x2="-29290" x1="-27733" fill="none"/><line y2="-30030" y1="-30628" x2="-30584" x1="-29550" fill="none"/><line y2="-32315" y1="-31824" x2="-28698" x1="-29550" fill="none"/><line y2="-32104" y1="-31737" x2="-28718" x1="-29359" fill="none"/><line y2="-31824" y1="-32422" x2="-29550" x1="-30584" fill="none"/><line y2="-30628" y1="-31604" x2="-27476" x1="-27476" fill="none"/><line y2="-30628" y1="-30030" x2="-31624" x1="-30584" fill="none"/><line y2="-30700" y1="-30252" x2="-31410" x1="-30630" fill="none"/><line y2="-31930" y1="-32315" x2="-27664" x1="-28322" fill="none"/><line y2="-32422" y1="-31824" x2="-30584" x1="-31624" fill="none"/><line y2="-32199" y1="-31751" x2="-30630" x1="-31410" fill="none"/><line y2="-31824" y1="-30628" x2="-31624" x1="-31624" fill="none"/><line y2="-30102" y1="-30628" x2="-26569" x1="-27476" fill="none"/><line y2="-30518" y1="-30102" x2="-25849" x1="-26569" fill="none"/><line y2="-30347" y1="-30035" x2="-25867" x1="-26407" fill="none"/><line y2="-32240" y1="-31930" x2="-26756" x1="-27285" fill="none"/><line y2="-30301" y1="-30628" x2="-32190" x1="-31624" fill="none"/><text y="-30448" xml:space="preserve" x="-25812" stroke="none" font-size="433.3333" font-family="sans-serif">O</text><text y="-32167" xml:space="preserve" x="-26719" stroke="none" font-size="433.3333" font-family="sans-serif">CH</text><text y="-32078" xml:space="preserve" x="-26141" stroke="none" font-size="313.3333" font-family="sans-serif">3</text><text y="-29923" xml:space="preserve" x="-32762" stroke="none" font-size="433.3333" font-family="sans-serif">Br</text><text y="-32242" xml:space="preserve" x="-28663" stroke="none" font-size="433.3333" font-family="sans-serif">N</text><text y="-31644" xml:space="preserve" x="-27626" stroke="none" font-size="433.3333" font-family="sans-serif">N</text></g></g></svg>