<svg width="440.52" viewBox="0 0 14684 8007" text-rendering="auto" stroke-width="1" stroke-opacity="1" stroke-miterlimit="10" stroke-linejoin="miter" stroke-linecap="square" stroke-dashoffset="0" stroke-dasharray="none" stroke="black" shape-rendering="auto" image-rendering="auto" height="240.21" font-weight="normal" font-style="normal" font-size="12" font-family="'Dialog'" fill-opacity="1" fill="black" color-rendering="auto" color-interpolation="auto" xmlns="http://www.w3.org/2000/svg"><g><g stroke="white" fill="white"><rect y="0" x="0" width="14684" stroke="none" height="8007"/></g><g transform="translate(32866,32758)" text-rendering="geometricPrecision" stroke-width="44" stroke-linejoin="round" stroke-linecap="round"><line y2="-30226" y1="-30795" x2="-23885" x1="-24870" fill="none"/><line y2="-30151" y1="-30576" x2="-24093" x1="-24832" fill="none"/><line y2="-29088" y1="-30226" x2="-23885" x1="-23885" fill="none"/><line y2="-30795" y1="-30226" x2="-24870" x1="-25855" fill="none"/><line y2="-28519" y1="-29088" x2="-24870" x1="-23885" fill="none"/><line y2="-28738" y1="-29166" x2="-24832" x1="-24093" fill="none"/><line y2="-30226" y1="-29088" x2="-25855" x1="-25855" fill="none"/><line y2="-30084" y1="-29232" x2="-25688" x1="-25688" fill="none"/><line y2="-29088" y1="-28519" x2="-25855" x1="-24870" fill="none"/><line y2="-30642" y1="-30226" x2="-23168" x1="-23885" fill="none"/><line y2="-30226" y1="-30529" x2="-22071" x1="-22599" fill="none"/><line y2="-28672" y1="-29088" x2="-26574" x1="-25855" fill="none"/><line y2="-30642" y1="-30226" x2="-26574" x1="-25855" fill="none"/><line y2="-30394" y1="-30642" x2="-27380" x1="-26953" fill="none"/><line y2="-30795" y1="-30226" x2="-21086" x1="-22071" fill="none"/><line y2="-30226" y1="-29307" x2="-22071" x1="-22071" fill="none"/><line y2="-30110" y1="-29423" x2="-21903" x1="-21903" fill="none"/><line y2="-30333" y1="-30795" x2="-20291" x1="-21086" fill="none"/><line y2="-30243" y1="-30590" x2="-20473" x1="-21071" fill="none"/><line y2="-28981" y1="-28519" x2="-21883" x1="-21086" fill="none"/><line y2="-29088" y1="-30006" x2="-20100" x1="-20100" fill="none"/><line y2="-28519" y1="-29088" x2="-21086" x1="-20100" fill="none"/><line y2="-28738" y1="-29166" x2="-21048" x1="-20308" fill="none"/><line y2="-27692" y1="-28519" x2="-21086" x1="-21086" fill="none"/><line y2="-26947" y1="-27363" x2="-21993" x1="-21273" fill="none"/><line y2="-28565" y1="-29088" x2="-19193" x1="-20100" fill="none"/><line y2="-29088" y1="-28565" x2="-18286" x1="-19193" fill="none"/><line y2="-31841" y1="-30795" x2="-21086" x1="-21086" fill="none"/><line y2="-28672" y1="-29134" x2="-26953" x1="-27747" fill="none"/><line y2="-27427" y1="-28345" x2="-26765" x1="-26765" fill="none"/><line y2="-29134" y1="-28565" x2="-27747" x1="-28735" fill="none"/><line y2="-26858" y1="-27427" x2="-27747" x1="-26765" fill="none"/><line y2="-28565" y1="-27427" x2="-28735" x1="-28735" fill="none"/><line y2="-27427" y1="-26858" x2="-28735" x1="-27747" fill="none"/><line y2="-27011" y1="-27427" x2="-29452" x1="-28735" fill="none"/><line y2="-25812" y1="-26947" x2="-21993" x1="-21993" fill="none"/><line y2="-26947" y1="-27516" x2="-21993" x1="-22978" fill="none"/><line y2="-25243" y1="-25812" x2="-22978" x1="-21993" fill="none"/><line y2="-27516" y1="-26947" x2="-22978" x1="-23963" fill="none"/><line y2="-25702" y1="-25243" x2="-23775" x1="-22978" fill="none"/><line y2="-26947" y1="-26031" x2="-23963" x1="-23963" fill="none"/><line y2="-32092" y1="-31841" x2="-21519" x1="-21086" fill="none"/><line y2="-32318" y1="-31904" x2="-20401" x1="-21120" fill="none"/><line y2="-32196" y1="-31780" x2="-20332" x1="-21051" fill="none"/><line y2="-27011" y1="-27473" x2="-29830" x1="-30625" fill="none"/><line y2="-25766" y1="-26684" x2="-29642" x1="-29642" fill="none"/><line y2="-27473" y1="-26904" x2="-30625" x1="-31613" fill="none"/><line y2="-25196" y1="-25766" x2="-30625" x1="-29642" fill="none"/><line y2="-26904" y1="-25985" x2="-31613" x1="-31613" fill="none"/><line y2="-25659" y1="-25196" x2="-31422" x1="-30625" fill="none"/><line y2="-25410" y1="-25659" x2="-32228" x1="-31800" fill="none"/><text y="-30570" xml:space="preserve" x="-23131" stroke="none" font-size="433.3333" font-family="sans-serif">NH</text><text y="-32242" xml:space="preserve" x="-22241" stroke="none" font-size="433.3333" font-family="sans-serif">NH</text><text y="-32153" xml:space="preserve" x="-21663" stroke="none" font-size="313.3333" font-family="sans-serif">2</text><text y="-32188" xml:space="preserve" x="-20329" stroke="none" font-size="433.3333" font-family="sans-serif">O</text><text y="-27294" xml:space="preserve" x="-21239" stroke="none" font-size="433.3333" font-family="sans-serif">NH</text><text y="-30570" xml:space="preserve" x="-26915" stroke="none" font-size="433.3333" font-family="sans-serif">O</text><text y="-29995" xml:space="preserve" x="-27915" stroke="none" font-size="433.3333" font-family="sans-serif">CH</text><text y="-29905" xml:space="preserve" x="-27337" stroke="none" font-size="313.3333" font-family="sans-serif">3</text><text y="-25012" xml:space="preserve" x="-32762" stroke="none" font-size="433.3333" font-family="sans-serif">CH</text><text y="-24922" xml:space="preserve" x="-32185" stroke="none" font-size="313.3333" font-family="sans-serif">3</text><text y="-28909" xml:space="preserve" x="-22224" stroke="none" font-size="433.3333" font-family="sans-serif">N</text><text y="-30047" xml:space="preserve" x="-20254" stroke="none" font-size="433.3333" font-family="sans-serif">N</text><text y="-25633" xml:space="preserve" x="-24116" stroke="none" font-size="433.3333" font-family="sans-serif">O</text><text y="-28386" xml:space="preserve" x="-26915" stroke="none" font-size="433.3333" font-family="sans-serif">N</text><text y="-26725" xml:space="preserve" x="-29793" stroke="none" font-size="433.3333" font-family="sans-serif">N</text><text y="-25586" xml:space="preserve" x="-31763" stroke="none" font-size="433.3333" font-family="sans-serif">N</text></g></g></svg>