<svg width="187.17" viewBox="0 0 6239 4346" text-rendering="auto" stroke-width="1" stroke-opacity="1" stroke-miterlimit="10" stroke-linejoin="miter" stroke-linecap="square" stroke-dashoffset="0" stroke-dasharray="none" stroke="black" shape-rendering="auto" image-rendering="auto" height="130.38" font-weight="normal" font-style="normal" font-size="12" font-family="'Dialog'" fill-opacity="1" fill="black" color-rendering="auto" color-interpolation="auto" xmlns="http://www.w3.org/2000/svg"><g><g stroke="white" fill="white"><rect y="0" x="0" width="6239" stroke="none" height="4346"/></g><g transform="translate(32866,32758)" text-rendering="geometricPrecision" stroke-width="44" stroke-linejoin="round" stroke-linecap="round"><line y2="-29229" y1="-30659" x2="-29377" x1="-29377" fill="none"/><line y2="-30659" y1="-31376" x2="-29377" x1="-30613" fill="none"/><line y2="-30602" y1="-31139" x2="-29619" x1="-30544" fill="none"/><line y2="-31266" y1="-30659" x2="-28325" x1="-29377" fill="none"/><line y2="-28516" y1="-29229" x2="-30613" x1="-29377" fill="none"/><line y2="-28753" y1="-29287" x2="-30544" x1="-29619" fill="none"/><line y2="-29229" y1="-29229" x2="-29377" x1="-26898" fill="none"/><line y2="-31376" y1="-30659" x2="-30613" x1="-31855" fill="none"/><line y2="-30769" y1="-31156" x2="-27089" x1="-27756" fill="none"/><line y2="-29229" y1="-28516" x2="-31855" x1="-30613" fill="none"/><line y2="-29229" y1="-30440" x2="-26898" x1="-26898" fill="none"/><line y2="-29382" y1="-30290" x2="-27068" x1="-27068" fill="none"/><line y2="-30659" y1="-29229" x2="-31855" x1="-31855" fill="none"/><line y2="-30480" y1="-29408" x2="-31685" x1="-31685" fill="none"/><line y2="-31185" y1="-30659" x2="-32762" x1="-31855" fill="none"/><line y2="-32202" y1="-31376" x2="-30613" x1="-30613" fill="none"/><text y="-32242" xml:space="preserve" x="-30844" stroke="none" font-size="433.3333" font-family="sans-serif">Br</text><text y="-31197" xml:space="preserve" x="-28288" stroke="none" font-size="433.3333" font-family="sans-serif">NH</text><text y="-30480" xml:space="preserve" x="-27051" stroke="none" font-size="433.3333" font-family="sans-serif">N</text></g></g></svg>