<svg width="791.34" viewBox="0 0 26378 6955" text-rendering="auto" stroke-width="1" stroke-opacity="1" stroke-miterlimit="10" stroke-linejoin="miter" stroke-linecap="square" stroke-dashoffset="0" stroke-dasharray="none" stroke="black" shape-rendering="auto" image-rendering="auto" height="208.65" font-weight="normal" font-style="normal" font-size="12" font-family="'Dialog'" fill-opacity="1" fill="black" color-rendering="auto" color-interpolation="auto" xmlns="http://www.w3.org/2000/svg"><g><g stroke="white" fill="white"><rect y="0" x="0" width="26378" stroke="none" height="6955"/></g><g transform="translate(32866,32758)" text-rendering="geometricPrecision" stroke-width="44" stroke-linejoin="round" stroke-linecap="round"><line y2="-29738" y1="-29276" x2="-18575" x1="-19370" fill="none"/><line y2="-28129" y1="-29276" x2="-19370" x1="-19370" fill="none"/><line y2="-29276" y1="-29848" x2="-19370" x1="-20352" fill="none"/><line y2="-29200" y1="-29628" x2="-19578" x1="-20314" fill="none"/><line y2="-29276" y1="-29738" x2="-17402" x1="-18197" fill="none"/><line y2="-27557" y1="-28129" x2="-20352" x1="-19370" fill="none"/><line y2="-27773" y1="-28204" x2="-20314" x1="-19578" fill="none"/><line y2="-28129" y1="-27557" x2="-19370" x1="-18387" fill="none"/><line y2="-29848" y1="-29276" x2="-20352" x1="-21334" fill="none"/><line y2="-28129" y1="-29276" x2="-17402" x1="-17402" fill="none"/><line y2="-28129" y1="-27557" x2="-21334" x1="-20352" fill="none"/><line y2="-27557" y1="-28129" x2="-18387" x1="-17402" fill="none"/><line y2="-29276" y1="-28129" x2="-21334" x1="-21334" fill="none"/><line y2="-29131" y1="-28273" x2="-21164" x1="-21164" fill="none"/><line y2="-29692" y1="-29276" x2="-22053" x1="-21334" fill="none"/><line y2="-29276" y1="-29692" x2="-23148" x1="-22429" fill="none"/><line y2="-29798" y1="-29276" x2="-24055" x1="-23148" fill="none"/><line y2="-29276" y1="-29798" x2="-24962" x1="-24055" fill="none"/><line y2="-29798" y1="-29276" x2="-25870" x1="-24962" fill="none"/><line y2="-29382" y1="-29798" x2="-26589" x1="-25870" fill="none"/><line y2="-31899" y1="-30067" x2="-18387" x1="-18387" fill="none"/><line y2="-32315" y1="-31899" x2="-17668" x1="-18387" fill="none"/><line y2="-31899" y1="-32315" x2="-16573" x1="-17292" fill="none"/><line y2="-29752" y1="-29336" x2="-16720" x1="-17440" fill="none"/><line y2="-29628" y1="-29215" x2="-16648" x1="-17368" fill="none"/><line y2="-29382" y1="-29845" x2="-26964" x1="-27759" fill="none"/><line y2="-28137" y1="-29056" x2="-26777" x1="-26777" fill="none"/><line y2="-29845" y1="-29276" x2="-27759" x1="-28747" fill="none"/><line y2="-27568" y1="-28137" x2="-27759" x1="-26777" fill="none"/><line y2="-29276" y1="-28357" x2="-28747" x1="-28747" fill="none"/><line y2="-28030" y1="-27568" x2="-28559" x1="-27759" fill="none"/><line y2="-27614" y1="-28030" x2="-29654" x1="-28935" fill="none"/><line y2="-32422" y1="-31899" x2="-15663" x1="-16573" fill="none"/><line y2="-31899" y1="-32422" x2="-14756" x1="-15663" fill="none"/><line y2="-32422" y1="-31899" x2="-13849" x1="-14756" fill="none"/><line y2="-31899" y1="-32422" x2="-12942" x1="-13849" fill="none"/><line y2="-32422" y1="-31899" x2="-12035" x1="-12942" fill="none"/><line y2="-31899" y1="-32422" x2="-11128" x1="-12035" fill="none"/><line y2="-32422" y1="-31899" x2="-10220" x1="-11128" fill="none"/><line y2="-31899" y1="-32422" x2="-9313" x1="-10220" fill="none"/><line y2="-32422" y1="-31899" x2="-8406" x1="-9313" fill="none"/><line y2="-31899" y1="-32422" x2="-7499" x1="-8406" fill="none"/><line y2="-32422" y1="-31899" x2="-6592" x1="-7499" fill="none"/><line y2="-31070" y1="-31899" x2="-16504" x1="-16504" fill="none"/><line y2="-31070" y1="-31899" x2="-16642" x1="-16642" fill="none"/><line y2="-27614" y1="-28184" x2="-29654" x1="-30636" fill="none"/><line y2="-27536" y1="-27964" x2="-29862" x1="-30599" fill="none"/><line y2="-26476" y1="-27614" x2="-29654" x1="-29654" fill="none"/><line y2="-28184" y1="-27614" x2="-30636" x1="-31624" fill="none"/><line y2="-25907" y1="-26476" x2="-30636" x1="-29654" fill="none"/><line y2="-26124" y1="-26551" x2="-30599" x1="-29862" fill="none"/><line y2="-27614" y1="-26476" x2="-31624" x1="-31624" fill="none"/><line y2="-27470" y1="-26618" x2="-31454" x1="-31454" fill="none"/><line y2="-26476" y1="-25907" x2="-31624" x1="-30636" fill="none"/><line y2="-29010" y1="-28184" x2="-30636" x1="-30636" fill="none"/><line y2="-27941" y1="-27614" x2="-32190" x1="-31624" fill="none"/><text y="-32242" xml:space="preserve" x="-17633" stroke="none" font-size="433.3333" font-family="sans-serif">O</text><text y="-30671" xml:space="preserve" x="-16723" stroke="none" font-size="433.3333" font-family="sans-serif">O</text><text y="-29619" xml:space="preserve" x="-16648" stroke="none" font-size="433.3333" font-family="sans-serif">O</text><text y="-29619" xml:space="preserve" x="-22391" stroke="none" font-size="433.3333" font-family="sans-serif">O</text><text y="-29050" xml:space="preserve" x="-30867" stroke="none" font-size="433.3333" font-family="sans-serif">Cl</text><text y="-27958" xml:space="preserve" x="-32762" stroke="none" font-size="433.3333" font-family="sans-serif">Cl</text><text y="-29668" xml:space="preserve" x="-18538" stroke="none" font-size="433.3333" font-family="sans-serif">N</text><text y="-29096" xml:space="preserve" x="-26930" stroke="none" font-size="433.3333" font-family="sans-serif">N</text><text y="-27958" xml:space="preserve" x="-28900" stroke="none" font-size="433.3333" font-family="sans-serif">N</text></g></g></svg>