<svg width="378.99" viewBox="0 0 12633 7042" text-rendering="auto" stroke-width="1" stroke-opacity="1" stroke-miterlimit="10" stroke-linejoin="miter" stroke-linecap="square" stroke-dashoffset="0" stroke-dasharray="none" stroke="black" shape-rendering="auto" image-rendering="auto" height="211.26" font-weight="normal" font-style="normal" font-size="12" font-family="'Dialog'" fill-opacity="1" fill="black" color-rendering="auto" color-interpolation="auto" xmlns="http://www.w3.org/2000/svg"><g><g stroke="white" fill="white"><rect y="0" x="0" width="12633" stroke="none" height="7042"/></g><g transform="translate(32866,32758)" text-rendering="geometricPrecision" stroke-width="44" stroke-linejoin="round" stroke-linecap="round"><line y2="-26265" y1="-26528" x2="-25376" x1="-25829" fill="none"/><line y2="-26528" y1="-26265" x2="-24544" x1="-25000" fill="none"/><line y2="-26202" y1="-26531" x2="-27080" x1="-26511" fill="none"/><line y2="-26725" y1="-26202" x2="-27987" x1="-27080" fill="none"/><line y2="-26202" y1="-26725" x2="-28894" x1="-27987" fill="none"/><line y2="-26618" y1="-26202" x2="-29614" x1="-28894" fill="none"/><line y2="-26202" y1="-26618" x2="-30708" x1="-29989" fill="none"/><line y2="-26725" y1="-26202" x2="-31616" x1="-30708" fill="none"/><line y2="-27170" y1="-26921" x2="-26941" x1="-26511" fill="none"/><line y2="-27554" y1="-26944" x2="-26173" x1="-26173" fill="none"/><line y2="-27773" y1="-26944" x2="-24203" x1="-24203" fill="none"/><line y2="-28296" y1="-27773" x2="-23296" x1="-24203" fill="none"/><line y2="-29345" y1="-28296" x2="-23296" x1="-23296" fill="none"/><line y2="-29761" y1="-29345" x2="-22576" x1="-23296" fill="none"/><line y2="-30916" y1="-30087" x2="-22388" x1="-22388" fill="none"/><line y2="-31439" y1="-30916" x2="-21481" x1="-22388" fill="none"/><line y2="-26265" y1="-26528" x2="-23408" x1="-23862" fill="none"/><line y2="-27184" y1="-26921" x2="-23408" x1="-23862" fill="none"/><line y2="-26725" y1="-26725" x2="-32762" x1="-31616" fill="none"/><line y2="-26725" y1="-27490" x2="-31616" x1="-32060" fill="none"/><line y2="-27490" y1="-26725" x2="-32315" x1="-32762" fill="none"/><line y2="-31439" y1="-31439" x2="-21481" x1="-20337" fill="none"/><line y2="-32202" y1="-31439" x2="-21036" x1="-21481" fill="none"/><line y2="-31439" y1="-32202" x2="-20337" x1="-20782" fill="none"/><text y="-26546" xml:space="preserve" x="-26404" stroke="none" font-size="433.3333" font-family="sans-serif">Si</text><text y="-25979" xml:space="preserve" x="-25341" stroke="none" font-size="433.3333" font-family="sans-serif">O</text><text y="-27320" xml:space="preserve" x="-27664" stroke="none" font-size="433.3333" font-family="sans-serif">CH</text><text y="-27230" xml:space="preserve" x="-27086" stroke="none" font-size="313.3333" font-family="sans-serif">3</text><text y="-27594" xml:space="preserve" x="-26323" stroke="none" font-size="433.3333" font-family="sans-serif">CH</text><text y="-27505" xml:space="preserve" x="-25745" stroke="none" font-size="313.3333" font-family="sans-serif">3</text><text y="-26546" xml:space="preserve" x="-24437" stroke="none" font-size="433.3333" font-family="sans-serif">Si</text><text y="-25976" xml:space="preserve" x="-23371" stroke="none" font-size="433.3333" font-family="sans-serif">CH</text><text y="-25887" xml:space="preserve" x="-22793" stroke="none" font-size="313.3333" font-family="sans-serif">3</text><text y="-27115" xml:space="preserve" x="-23371" stroke="none" font-size="433.3333" font-family="sans-serif">CH</text><text y="-27025" xml:space="preserve" x="-22793" stroke="none" font-size="313.3333" font-family="sans-serif">3</text><text y="-26546" xml:space="preserve" x="-29952" stroke="none" font-size="433.3333" font-family="sans-serif">O</text><text y="-29689" xml:space="preserve" x="-22542" stroke="none" font-size="433.3333" font-family="sans-serif">O</text><text y="-27531" xml:space="preserve" x="-32341" stroke="none" font-size="433.3333" font-family="sans-serif">O</text><text y="-32242" xml:space="preserve" x="-21062" stroke="none" font-size="433.3333" font-family="sans-serif">O</text></g></g></svg>