<svg width="715.05" viewBox="0 0 23835 5113" text-rendering="auto" stroke-width="1" stroke-opacity="1" stroke-miterlimit="10" stroke-linejoin="miter" stroke-linecap="square" stroke-dashoffset="0" stroke-dasharray="none" stroke="black" shape-rendering="auto" image-rendering="auto" height="153.39" font-weight="normal" font-style="normal" font-size="12" font-family="'Dialog'" fill-opacity="1" fill="black" color-rendering="auto" color-interpolation="auto" xmlns="http://www.w3.org/2000/svg"><g><g stroke="white" fill="white"><rect y="0" x="0" width="23835" stroke="none" height="5113"/></g><g transform="translate(32866,32866)" text-rendering="geometricPrecision" stroke-width="44" stroke-linejoin="round" stroke-linecap="round"><line y2="-30047" y1="-30570" x2="-24298" x1="-25205" fill="none"/><line y2="-29992" y1="-30385" x2="-24483" x1="-25162" fill="none"/><line y2="-30047" y1="-30570" x2="-26112" x1="-25205" fill="none"/><line y2="-30570" y1="-30047" x2="-23391" x1="-24298" fill="none"/><line y2="-30570" y1="-30047" x2="-27019" x1="-26112" fill="none"/><line y2="-30385" y1="-29992" x2="-26976" x1="-26297" fill="none"/><line y2="-30047" y1="-30570" x2="-22484" x1="-23391" fill="none"/><line y2="-29992" y1="-30385" x2="-22669" x1="-23348" fill="none"/><line y2="-31618" y1="-30570" x2="-23391" x1="-23391" fill="none"/><line y2="-30047" y1="-30570" x2="-27926" x1="-27019" fill="none"/><line y2="-31618" y1="-30570" x2="-27019" x1="-27019" fill="none"/><line y2="-30570" y1="-30047" x2="-21577" x1="-22484" fill="none"/><line y2="-30570" y1="-30047" x2="-28834" x1="-27926" fill="none"/><line y2="-30385" y1="-29992" x2="-28790" x1="-28111" fill="none"/><line y2="-30047" y1="-30570" x2="-20670" x1="-21577" fill="none"/><line y2="-29992" y1="-30385" x2="-20854" x1="-21533" fill="none"/><line y2="-30047" y1="-30570" x2="-29741" x1="-28834" fill="none"/><line y2="-30570" y1="-30047" x2="-19762" x1="-20670" fill="none"/><line y2="-28903" y1="-30047" x2="-29741" x1="-29741" fill="none"/><line y2="-30047" y1="-30619" x2="-29741" x1="-30723" fill="none"/><line y2="-28331" y1="-28903" x2="-30723" x1="-29741" fill="none"/><line y2="-30619" y1="-30047" x2="-30723" x1="-31702" fill="none"/><line y2="-28903" y1="-28331" x2="-31702" x1="-30723" fill="none"/><line y2="-30047" y1="-28903" x2="-31702" x1="-31702" fill="none"/><line y2="-31422" y1="-30619" x2="-30050" x1="-30723" fill="none"/><line y2="-31422" y1="-30619" x2="-31396" x1="-30723" fill="none"/><line y2="-27857" y1="-28903" x2="-29741" x1="-29741" fill="none"/><line y2="-30047" y1="-30570" x2="-18855" x1="-19762" fill="none"/><line y2="-29992" y1="-30385" x2="-19040" x1="-19719" fill="none"/><line y2="-30570" y1="-30047" x2="-17948" x1="-18855" fill="none"/><line y2="-28998" y1="-30047" x2="-18855" x1="-18855" fill="none"/><line y2="-30047" y1="-30570" x2="-17041" x1="-17948" fill="none"/><line y2="-29992" y1="-30385" x2="-17226" x1="-17905" fill="none"/><line y2="-30570" y1="-30047" x2="-16134" x1="-17041" fill="none"/><line y2="-30047" y1="-30570" x2="-15227" x1="-16134" fill="none"/><line y2="-29992" y1="-30385" x2="-15412" x1="-16091" fill="none"/><line y2="-30570" y1="-30047" x2="-14320" x1="-15227" fill="none"/><line y2="-28998" y1="-30047" x2="-15227" x1="-15227" fill="none"/><line y2="-30047" y1="-30570" x2="-13413" x1="-14320" fill="none"/><line y2="-29992" y1="-30385" x2="-13595" x1="-14276" fill="none"/><line y2="-30570" y1="-30047" x2="-12506" x1="-13413" fill="none"/><line y2="-31714" y1="-30570" x2="-12506" x1="-12506" fill="none"/><line y2="-30570" y1="-29998" x2="-12506" x1="-11523" fill="none"/><line y2="-32286" y1="-31714" x2="-11523" x1="-12506" fill="none"/><line y2="-29998" y1="-30570" x2="-11523" x1="-10544" fill="none"/><line y2="-31714" y1="-32286" x2="-10544" x1="-11523" fill="none"/><line y2="-30570" y1="-31714" x2="-10544" x1="-10544" fill="none"/><line y2="-29198" y1="-29998" x2="-12199" x1="-11523" fill="none"/><line y2="-29198" y1="-29998" x2="-10850" x1="-11523" fill="none"/><line y2="-32762" y1="-31714" x2="-12506" x1="-12506" fill="none"/><polygon stroke-width="1" stroke="none" points=" -31702 -28903 -32196 -28539 -32266 -28657"/><polygon stroke-width="1" points=" -31702 -28903 -32196 -28539 -32266 -28657" fill="none"/><polygon stroke-width="1" stroke="none" points=" -10544 -31714 -9859 -32190 -9790 -32069"/><polygon stroke-width="1" points=" -10544 -31714 -9859 -32190 -9790 -32069" fill="none"/><line y2="-29518" y1="-29637" x2="-28975" x1="-28909" fill="none"/><line y2="-29642" y1="-29733" x2="-29154" x1="-29104" fill="none"/><line y2="-29765" y1="-29829" x2="-29333" x1="-29298" fill="none"/><line y2="-29889" y1="-29925" x2="-29512" x1="-29493" fill="none"/><line y2="-30013" y1="-30020" x2="-29691" x1="-29687" fill="none"/><line y2="-29302" y1="-29420" x2="-28906" x1="-28978" fill="none"/><line y2="-29208" y1="-29298" x2="-29102" x1="-29158" fill="none"/><line y2="-29114" y1="-29177" x2="-29299" x1="-29337" fill="none"/><line y2="-29020" y1="-29055" x2="-29495" x1="-29517" fill="none"/><line y2="-28927" y1="-28933" x2="-29692" x1="-29696" fill="none"/><line y2="-31098" y1="-30980" x2="-13271" x1="-13338" fill="none"/><line y2="-30974" y1="-30884" x2="-13092" x1="-13143" fill="none"/><line y2="-30851" y1="-30788" x2="-12913" x1="-12949" fill="none"/><line y2="-30727" y1="-30692" x2="-12734" x1="-12754" fill="none"/><line y2="-30604" y1="-30596" x2="-12555" x1="-12559" fill="none"/><line y2="-31318" y1="-31197" x2="-13338" x1="-13271" fill="none"/><line y2="-31411" y1="-31319" x2="-13142" x1="-13091" fill="none"/><line y2="-31505" y1="-31441" x2="-12946" x1="-12911" fill="none"/><line y2="-31598" y1="-31562" x2="-12750" x1="-12730" fill="none"/><line y2="-31691" y1="-31684" x2="-12554" x1="-12550" fill="none"/><text y="-28201" xml:space="preserve" x="-32762" stroke="none" font-size="433.3333" font-family="sans-serif">OH</text><text y="-32060" xml:space="preserve" x="-9790" stroke="none" font-size="433.3333" font-family="sans-serif">OH</text><text y="-29290" xml:space="preserve" x="-28906" stroke="none" font-size="433.3333" font-family="sans-serif">O</text><text y="-30971" xml:space="preserve" x="-13644" stroke="none" font-size="433.3333" font-family="sans-serif">O</text><text y="-30518" xml:space="preserve" x="-28311" stroke="none" font-style="italic" font-size="313.3333" font-family="sans-serif">E</text><text y="-30518" xml:space="preserve" x="-26496" stroke="none" font-style="italic" font-size="313.3333" font-family="sans-serif">E</text><text y="-30521" xml:space="preserve" x="-24688" stroke="none" font-style="italic" font-size="313.3333" font-family="sans-serif">E</text><text y="-30521" xml:space="preserve" x="-22874" stroke="none" font-style="italic" font-size="313.3333" font-family="sans-serif">E</text><text y="-30521" xml:space="preserve" x="-21060" stroke="none" font-style="italic" font-size="313.3333" font-family="sans-serif">E</text><text y="-29680" xml:space="preserve" x="-19710" stroke="none" font-style="italic" font-size="313.3333" font-family="sans-serif">E</text><text y="-30521" xml:space="preserve" x="-17431" stroke="none" font-style="italic" font-size="313.3333" font-family="sans-serif">E</text><text y="-29680" xml:space="preserve" x="-16082" stroke="none" font-style="italic" font-size="313.3333" font-family="sans-serif">E</text><text y="-30394" xml:space="preserve" x="-13574" stroke="none" font-style="italic" font-size="313.3333" font-family="sans-serif">E</text><text y="-30171" xml:space="preserve" x="-29894" stroke="none" font-style="italic" font-size="313.3333" font-family="sans-serif">S</text><text y="-28868" xml:space="preserve" x="-30142" stroke="none" font-style="italic" font-size="313.3333" font-family="sans-serif">R</text><text y="-28868" xml:space="preserve" x="-31607" stroke="none" font-style="italic" font-size="313.3333" font-family="sans-serif">S</text><text y="-30535" xml:space="preserve" x="-12410" stroke="none" font-style="italic" font-size="313.3333" font-family="sans-serif">S</text><text y="-31390" xml:space="preserve" x="-12410" stroke="none" font-style="italic" font-size="313.3333" font-family="sans-serif">R</text><text y="-31390" xml:space="preserve" x="-10946" stroke="none" font-style="italic" font-size="313.3333" font-family="sans-serif">S</text></g></g></svg>