<svg width="311.64" viewBox="0 0 10388 7519" text-rendering="auto" stroke-width="1" stroke-opacity="1" stroke-miterlimit="10" stroke-linejoin="miter" stroke-linecap="square" stroke-dashoffset="0" stroke-dasharray="none" stroke="black" shape-rendering="auto" image-rendering="auto" height="225.57" font-weight="normal" font-style="normal" font-size="12" font-family="'Dialog'" fill-opacity="1" fill="black" color-rendering="auto" color-interpolation="auto" xmlns="http://www.w3.org/2000/svg"><g><g stroke="white" fill="white"><rect y="0" x="0" width="10388" stroke="none" height="7519"/></g><g transform="translate(32866,32866)" text-rendering="geometricPrecision" stroke-width="44" stroke-linejoin="round" stroke-linecap="round"><line y2="-30223" y1="-29021" x2="-29174" x1="-29174" fill="none"/><line y2="-30070" y1="-29172" x2="-29004" x1="-29004" fill="none"/><line y2="-30711" y1="-30223" x2="-28334" x1="-29174" fill="none"/><line y2="-30223" y1="-30711" x2="-29174" x1="-30015" fill="none"/><line y2="-29021" y1="-27909" x2="-29174" x1="-28744" fill="none"/><line y2="-29021" y1="-29021" x2="-31231" x1="-29174" fill="none"/><line y2="-30223" y1="-30711" x2="-27118" x1="-27958" fill="none"/><line y2="-32023" y1="-31041" x2="-28146" x1="-28146" fill="none"/><line y2="-30711" y1="-30223" x2="-30394" x1="-31231" fill="none"/><line y2="-27909" y1="-27909" x2="-28744" x1="-27733" fill="none"/><line y2="-28080" y1="-28080" x2="-28620" x1="-27860" fill="none"/><line y2="-30223" y1="-29021" x2="-31231" x1="-31231" fill="none"/><line y2="-30070" y1="-29172" x2="-31061" x1="-31061" fill="none"/><line y2="-29021" y1="-30223" x2="-27118" x1="-27118" fill="none"/><line y2="-30223" y1="-30711" x2="-27118" x1="-26277" fill="none"/><line y2="-30431" y1="-30798" x2="-27097" x1="-26468" fill="none"/><line y2="-32023" y1="-32023" x2="-26277" x1="-28146" fill="none"/><line y2="-31852" y1="-31852" x2="-26511" x1="-27912" fill="none"/><line y2="-28129" y1="-29021" x2="-27461" x1="-27118" fill="none"/><line y2="-31041" y1="-31803" x2="-26089" x1="-26089" fill="none"/><line y2="-27383" y1="-27909" x2="-29651" x1="-28744" fill="none"/><line y2="-29021" y1="-28498" x2="-25303" x1="-26210" fill="none"/><line y2="-28282" y1="-29021" x2="-31971" x1="-31231" fill="none"/><line y2="-32762" y1="-32023" x2="-28886" x1="-28146" fill="none"/><line y2="-30746" y1="-30223" x2="-32138" x1="-31231" fill="none"/><line y2="-26248" y1="-27383" x2="-29651" x1="-29651" fill="none"/><line y2="-26390" y1="-27242" x2="-29822" x1="-29822" fill="none"/><line y2="-27383" y1="-27952" x2="-29651" x1="-30636" fill="none"/><line y2="-25679" y1="-26248" x2="-30636" x1="-29651" fill="none"/><line y2="-27952" y1="-27383" x2="-30636" x1="-31621" fill="none"/><line y2="-27736" y1="-27308" x2="-30674" x1="-31413" fill="none"/><line y2="-26248" y1="-25679" x2="-31621" x1="-30636" fill="none"/><line y2="-26323" y1="-25898" x2="-31413" x1="-30674" fill="none"/><line y2="-27383" y1="-26248" x2="-31621" x1="-31621" fill="none"/><line y2="-25922" y1="-26248" x2="-32188" x1="-31621" fill="none"/><line y2="-28605" y1="-29021" x2="-24584" x1="-25303" fill="none"/><line y2="-29021" y1="-28605" x2="-23489" x1="-24208" fill="none"/><line y2="-29850" y1="-29021" x2="-25373" x1="-25373" fill="none"/><line y2="-29850" y1="-29021" x2="-25234" x1="-25234" fill="none"/><line y2="-28498" y1="-29021" x2="-22582" x1="-23489" fill="none"/><line y2="-29928" y1="-29021" x2="-22966" x1="-23489" fill="none"/><line y2="-29928" y1="-29021" x2="-24012" x1="-23489" fill="none"/><line y2="-28438" y1="-28559" x2="-26245" x1="-26176" fill="none"/><line y2="-28559" y1="-28655" x2="-26426" x1="-26371" fill="none"/><line y2="-28679" y1="-28750" x2="-26606" x1="-26566" fill="none"/><line y2="-28800" y1="-28846" x2="-26787" x1="-26761" fill="none"/><line y2="-28921" y1="-28941" x2="-26968" x1="-26956" fill="none"/><text y="-28319" xml:space="preserve" x="-24549" stroke="none" font-size="433.3333" font-family="sans-serif">O</text><text y="-29891" xml:space="preserve" x="-25456" stroke="none" font-size="433.3333" font-family="sans-serif">O</text><text y="-25543" xml:space="preserve" x="-32762" stroke="none" font-size="433.3333" font-family="sans-serif">Cl</text><text y="-30642" xml:space="preserve" x="-28296" stroke="none" font-size="433.3333" font-family="sans-serif">N</text><text y="-30642" xml:space="preserve" x="-30356" stroke="none" font-size="433.3333" font-family="sans-serif">S</text><text y="-27730" xml:space="preserve" x="-27698" stroke="none" font-size="433.3333" font-family="sans-serif">N</text><text y="-30642" xml:space="preserve" x="-26239" stroke="none" font-size="433.3333" font-family="sans-serif">N</text><text y="-31844" xml:space="preserve" x="-26239" stroke="none" font-size="433.3333" font-family="sans-serif">N</text><text y="-28891" xml:space="preserve" x="-27554" stroke="none" font-style="italic" font-size="313.3333" font-family="sans-serif">S</text></g></g></svg>