<svg width="182.34" viewBox="0 0 6078 3190" text-rendering="auto" stroke-width="1" stroke-opacity="1" stroke-miterlimit="10" stroke-linejoin="miter" stroke-linecap="square" stroke-dashoffset="0" stroke-dasharray="none" stroke="black" shape-rendering="auto" image-rendering="auto" height="95.7" font-weight="normal" font-style="normal" font-size="12" font-family="'Dialog'" fill-opacity="1" fill="black" color-rendering="auto" color-interpolation="auto" xmlns="http://www.w3.org/2000/svg"><g><g stroke="white" fill="white"><rect y="0" x="0" width="6078" stroke="none" height="3190"/></g><g transform="translate(32866,32758)" text-rendering="geometricPrecision" stroke-width="44" stroke-linejoin="round" stroke-linecap="round"><line y2="-29943" y1="-30359" x2="-28900" x1="-29619" fill="none"/><line y2="-30469" y1="-29943" x2="-27993" x1="-28900" fill="none"/><line y2="-30139" y1="-30469" x2="-27427" x1="-27993" fill="none"/><line y2="-29943" y1="-30359" x2="-30714" x1="-29995" fill="none"/><line y2="-30469" y1="-29943" x2="-31621" x1="-30714" fill="none"/><line y2="-30139" y1="-30469" x2="-32188" x1="-31621" fill="none"/><line y2="-31295" y1="-30688" x2="-29807" x1="-29807" fill="none"/><line y2="-31887" y1="-31624" x2="-29163" x1="-29619" fill="none"/><line y2="-32202" y1="-31734" x2="-30206" x1="-29934" fill="none"/><line y2="-31445" y1="-31445" x2="-30668" x1="-29995" fill="none"/><line y2="-31587" y1="-31587" x2="-30668" x1="-29995" fill="none"/><text y="-30290" xml:space="preserve" x="-29960" stroke="none" font-size="433.3333" font-family="sans-serif">N</text><text y="-31335" xml:space="preserve" x="-29960" stroke="none" font-size="433.3333" font-family="sans-serif">P</text><text y="-31904" xml:space="preserve" x="-29056" stroke="none" font-size="433.3333" font-family="sans-serif">Cl</text><text y="-32242" xml:space="preserve" x="-30564" stroke="none" font-size="433.3333" font-family="sans-serif">Cl</text><text y="-31335" xml:space="preserve" x="-31009" stroke="none" font-size="433.3333" font-family="sans-serif">O</text><text y="-29764" xml:space="preserve" x="-27317" stroke="none" font-size="433.3333" font-family="sans-serif">Cl</text><text y="-29764" xml:space="preserve" x="-32762" stroke="none" font-size="433.3333" font-family="sans-serif">Cl</text></g></g></svg>