<svg width="232.65" viewBox="0 0 7755 11712" text-rendering="auto" stroke-width="1" stroke-opacity="1" stroke-miterlimit="10" stroke-linejoin="miter" stroke-linecap="square" stroke-dashoffset="0" stroke-dasharray="none" stroke="black" shape-rendering="auto" image-rendering="auto" height="351.36" font-weight="normal" font-style="normal" font-size="12" font-family="'Dialog'" fill-opacity="1" fill="black" color-rendering="auto" color-interpolation="auto" xmlns="http://www.w3.org/2000/svg"><g><g stroke="white" fill="white"><rect y="0" x="0" width="7755" stroke="none" height="11712"/></g><g transform="translate(32866,32758)" text-rendering="geometricPrecision" stroke-width="44" stroke-linejoin="round" stroke-linecap="round"><line y2="-27118" y1="-30587" x2="-29920" x1="-27672" fill="none"/><line y2="-29666" y1="-27118" x2="-29192" x1="-29995" fill="none"/><line y2="-29746" y1="-27118" x2="-30064" x1="-30064" fill="none"/><line y2="-32202" y1="-30194" x2="-30064" x1="-30064" fill="none"/><line y2="-30587" y1="-27118" x2="-32413" x1="-30203" fill="none"/><line y2="-29666" y1="-27118" x2="-30896" x1="-30131" fill="none"/><line y2="-26678" y1="-23258" x2="-30209" x1="-32465" fill="none"/><line y2="-23258" y1="-26678" x2="-27724" x1="-29923" fill="none"/><line y2="-24180" y1="-26678" x2="-29247" x1="-29998" fill="none"/><line y2="-24180" y1="-26678" x2="-30951" x1="-30134" fill="none"/><line y2="-24102" y1="-26678" x2="-30093" x1="-30067" fill="none"/><line y2="-21640" y1="-23654" x2="-30116" x1="-30096" fill="none"/><line y2="-30105" y1="-30697" x2="-28744" x1="-27718" fill="none"/><line y2="-30928" y1="-32202" x2="-27718" x1="-29720" fill="none"/><line y2="-29885" y1="-29885" x2="-30472" x1="-29310" fill="none"/><line y2="-30056" y1="-30056" x2="-30324" x1="-29455" fill="none"/><line y2="-32300" y1="-31026" x2="-30252" x1="-32214" fill="none"/><line y2="-32000" y1="-31044" x2="-30405" x1="-31876" fill="none"/><line y2="-29995" y1="-30587" x2="-31150" x1="-32173" fill="none"/><line y2="-23853" y1="-23313" x2="-31211" x1="-32136" fill="none"/><line y2="-22819" y1="-21542" x2="-32271" x1="-30307" fill="none"/><line y2="-23743" y1="-23148" x2="-28802" x1="-27773" fill="none"/><line y2="-21640" y1="-22920" x2="-29775" x1="-27773" fill="none"/><line y2="-21944" y1="-22903" x2="-29616" x1="-28114" fill="none"/><line y2="-23960" y1="-23960" x2="-29368" x1="-30529" fill="none"/><line y2="-23792" y1="-23792" x2="-29512" x1="-30385" fill="none"/><line y2="-31330" y1="-30916" x2="-26624" x1="-27343" fill="none"/><line y2="-30916" y1="-31330" x2="-25904" x1="-26624" fill="none"/><line y2="-32159" y1="-31330" x2="-26693" x1="-26693" fill="none"/><line y2="-32159" y1="-31330" x2="-26554" x1="-26554" fill="none"/><text y="-30628" xml:space="preserve" x="-25870" stroke="none" font-size="433.3333" font-family="sans-serif">OH</text><text y="-32199" xml:space="preserve" x="-26777" stroke="none" font-size="433.3333" font-family="sans-serif">O</text><text y="-26719" xml:space="preserve" x="-30368" stroke="none" font-size="433.3333" font-family="sans-serif">Fe</text><text y="-30628" xml:space="preserve" x="-27684" stroke="none" font-size="433.3333" font-family="sans-serif">C</text><text y="-29706" xml:space="preserve" x="-29273" stroke="none" font-size="433.3333" font-family="sans-serif">CH</text><text y="-32242" xml:space="preserve" x="-30214" stroke="none" font-size="433.3333" font-family="sans-serif">CH</text><text y="-30628" xml:space="preserve" x="-32705" stroke="none" font-size="433.3333" font-family="sans-serif">CH</text><text y="-29706" xml:space="preserve" x="-31116" stroke="none" font-size="433.3333" font-family="sans-serif">CH</text><text y="-22859" xml:space="preserve" x="-32762" stroke="none" font-size="433.3333" font-family="sans-serif">CH</text><text y="-22859" xml:space="preserve" x="-27739" stroke="none" font-size="433.3333" font-family="sans-serif">CH</text><text y="-23781" xml:space="preserve" x="-29333" stroke="none" font-size="433.3333" font-family="sans-serif">CH</text><text y="-23781" xml:space="preserve" x="-31174" stroke="none" font-size="433.3333" font-family="sans-serif">CH</text><text y="-21242" xml:space="preserve" x="-30272" stroke="none" font-size="433.3333" font-family="sans-serif">CH</text><text y="-26774" xml:space="preserve" x="-29741" stroke="none" font-size="313.3333" font-family="sans-serif">2+</text><text y="-31012" xml:space="preserve" x="-27684" stroke="none" font-size="313.3333" font-family="sans-serif">-</text><text y="-22914" xml:space="preserve" x="-32136" stroke="none" font-size="313.3333" font-family="sans-serif">-</text></g></g></svg>