<svg width="378.3" viewBox="0 0 12610 7210" text-rendering="auto" stroke-width="1" stroke-opacity="1" stroke-miterlimit="10" stroke-linejoin="miter" stroke-linecap="square" stroke-dashoffset="0" stroke-dasharray="none" stroke="black" shape-rendering="auto" image-rendering="auto" height="216.3" font-weight="normal" font-style="normal" font-size="12" font-family="'Dialog'" fill-opacity="1" fill="black" color-rendering="auto" color-interpolation="auto" xmlns="http://www.w3.org/2000/svg"><g><g stroke="white" fill="white"><rect y="0" x="0" width="12610" stroke="none" height="7210"/></g><g transform="translate(32866,32866)" text-rendering="geometricPrecision" stroke-width="44" stroke-linejoin="round" stroke-linecap="round"><line y2="-29382" y1="-28891" x2="-27415" x1="-26569" fill="none"/><line y2="-28891" y1="-27684" x2="-26569" x1="-26569" fill="none"/><line y2="-28738" y1="-27834" x2="-26398" x1="-26398" fill="none"/><line y2="-29495" y1="-28891" x2="-25534" x1="-26569" fill="none"/><line y2="-29382" y1="-28891" x2="-27791" x1="-28634" fill="none"/><line y2="-30526" y1="-29712" x2="-28207" x1="-27730" fill="none"/><line y2="-27684" y1="-27684" x2="-28634" x1="-26569" fill="none"/><line y2="-27684" y1="-27080" x2="-26569" x1="-25534" fill="none"/><line y2="-29001" y1="-29495" x2="-24688" x1="-25534" fill="none"/><line y2="-29495" y1="-30700" x2="-25534" x1="-25534" fill="none"/><line y2="-27684" y1="-28891" x2="-28634" x1="-28634" fill="none"/><line y2="-28891" y1="-29495" x2="-28634" x1="-29671" fill="none"/><line y2="-28819" y1="-29273" x2="-28851" x1="-29628" fill="none"/><line y2="-31514" y1="-30526" x2="-28207" x1="-28207" fill="none"/><line y2="-27080" y1="-27684" x2="-29671" x1="-28634" fill="none"/><line y2="-27302" y1="-27753" x2="-29628" x1="-28851" fill="none"/><line y2="-27080" y1="-27684" x2="-25534" x1="-24500" fill="none"/><line y2="-27684" y1="-28672" x2="-24500" x1="-24500" fill="none"/><line y2="-29495" y1="-28998" x2="-23466" x1="-24312" fill="none"/><line y2="-30700" y1="-31734" x2="-25534" x1="-26095" fill="none"/><line y2="-29495" y1="-28891" x2="-29671" x1="-30706" fill="none"/><line y2="-32225" y1="-31844" x2="-27360" x1="-28019" fill="none"/><line y2="-27684" y1="-27080" x2="-30706" x1="-29671" fill="none"/><line y2="-27684" y1="-27080" x2="-24500" x1="-23466" fill="none"/><line y2="-28891" y1="-29495" x2="-22429" x1="-23466" fill="none"/><line y2="-31734" y1="-32231" x2="-26095" x1="-26985" fill="none"/><line y2="-28891" y1="-27684" x2="-30706" x1="-30706" fill="none"/><line y2="-28738" y1="-27834" x2="-30535" x1="-30535" fill="none"/><line y2="-27080" y1="-27574" x2="-23466" x1="-22620" fill="none"/><line y2="-27903" y1="-28891" x2="-22429" x1="-22429" fill="none"/><line y2="-29495" y1="-28891" x2="-21395" x1="-22429" fill="none"/><line y2="-27684" y1="-27684" x2="-22241" x1="-20360" fill="none"/><line y2="-28891" y1="-29495" x2="-20360" x1="-21395" fill="none"/><line y2="-27684" y1="-28891" x2="-20360" x1="-20360" fill="none"/><line y2="-30526" y1="-30004" x2="-30021" x1="-29114" fill="none"/><line y2="-30342" y1="-29949" x2="-29978" x1="-29296" fill="none"/><line y2="-32762" y1="-31734" x2="-25896" x1="-26095" fill="none"/><line y2="-31899" y1="-31734" x2="-25061" x1="-26095" fill="none"/><line y2="-29304" y1="-28891" x2="-31422" x1="-30706" fill="none"/><line y2="-29059" y1="-29304" x2="-32228" x1="-31800" fill="none"/><line y2="-30321" y1="-29495" x2="-23535" x1="-23535" fill="none"/><line y2="-30321" y1="-29495" x2="-23394" x1="-23394" fill="none"/><line y2="-26251" y1="-27080" x2="-23394" x1="-23394" fill="none"/><line y2="-26251" y1="-27080" x2="-23535" x1="-23535" fill="none"/><line y2="-30004" y1="-30526" x2="-30928" x1="-30021" fill="none"/><line y2="-31575" y1="-30526" x2="-30021" x1="-30021" fill="none"/><polygon stroke-width="1" stroke="none" points=" -28207 -30526 -29076 -29943 -29148 -30061"/><polygon stroke-width="1" points=" -28207 -30526 -29076 -29943 -29148 -30061" fill="none"/><polygon stroke-width="1" stroke="none" points=" -25534 -27080 -25465 -26251 -25604 -26251"/><polygon stroke-width="1" points=" -25534 -27080 -25465 -26251 -25604 -26251" fill="none"/><polygon stroke-width="1" stroke="none" points=" -24500 -27684 -24431 -26855 -24570 -26855"/><polygon stroke-width="1" points=" -24500 -27684 -24431 -26855 -24570 -26855" fill="none"/><polygon stroke-width="1" stroke="none" points=" -25534 -29495 -25465 -28666 -25604 -28663"/><polygon stroke-width="1" points=" -25534 -29495 -25465 -28666 -25604 -28663" fill="none"/><polygon stroke-width="1" stroke="none" points=" -22429 -28891 -22498 -29718 -22362 -29718"/><polygon stroke-width="1" points=" -22429 -28891 -22498 -29718 -22362 -29718" fill="none"/><text y="-25852" xml:space="preserve" x="-25688" stroke-width="1" stroke="none" font-size="433.3333" font-family="sans-serif">OH</text><text y="-26456" xml:space="preserve" x="-24653" stroke-width="1" stroke="none" font-size="433.3333" font-family="sans-serif">OH</text><text y="-30362" xml:space="preserve" x="-23616" stroke-width="1" stroke="none" font-size="433.3333" font-family="sans-serif">O</text><text y="-29235" xml:space="preserve" x="-31763" stroke-width="1" stroke="none" font-size="433.3333" font-family="sans-serif">O</text><text y="-28660" xml:space="preserve" x="-32762" stroke-width="1" stroke="none" font-size="433.3333" font-family="sans-serif">CH</text><text y="-28571" xml:space="preserve" x="-32185" stroke-width="1" stroke="none" font-size="313.3333" font-family="sans-serif">3</text><text y="-25852" xml:space="preserve" x="-23616" stroke-width="1" stroke="none" font-size="433.3333" font-family="sans-serif">O</text><text y="-29316" xml:space="preserve" x="-27756" stroke-width="1" stroke="none" font-size="433.3333" font-family="sans-serif">N</text><text y="-28712" xml:space="preserve" x="-24653" stroke-width="1" stroke="none" font-size="433.3333" font-family="sans-serif">N</text><text y="-31555" xml:space="preserve" x="-28357" stroke-width="1" stroke="none" font-size="433.3333" font-family="sans-serif">O</text><text y="-32156" xml:space="preserve" x="-27326" stroke-width="1" stroke="none" font-size="433.3333" font-family="sans-serif">O</text><text y="-27505" xml:space="preserve" x="-22582" stroke-width="1" stroke="none" font-size="433.3333" font-family="sans-serif">N</text><text y="-28267" xml:space="preserve" x="-25688" stroke-width="1" stroke="none" font-size="433.3333" font-family="sans-serif">H</text><text y="-29758" xml:space="preserve" x="-22582" stroke-width="1" stroke="none" font-size="433.3333" font-family="sans-serif">H</text></g><g transform="translate(32866,32866)" text-rendering="geometricPrecision" stroke-linejoin="round" stroke-linecap="round" font-style="italic" font-size="313.3333" font-family="sans-serif"><text y="-29458" xml:space="preserve" x="-25936" stroke="none">S</text><text y="-30422" xml:space="preserve" x="-28082" stroke="none">R</text><text y="-27204" xml:space="preserve" x="-25688" stroke="none">S</text><text y="-27649" xml:space="preserve" x="-24902" stroke="none">R</text><text y="-28568" xml:space="preserve" x="-22334" stroke="none">S</text></g></g></svg>