<svg width="183.03" viewBox="0 0 6101 5198" text-rendering="auto" stroke-width="1" stroke-opacity="1" stroke-miterlimit="10" stroke-linejoin="miter" stroke-linecap="square" stroke-dashoffset="0" stroke-dasharray="none" stroke="black" shape-rendering="auto" image-rendering="auto" height="155.94" font-weight="normal" font-style="normal" font-size="12" font-family="'Dialog'" fill-opacity="1" fill="black" color-rendering="auto" color-interpolation="auto" xmlns="http://www.w3.org/2000/svg"><g><g stroke="white" fill="white"><rect y="0" x="0" width="6101" stroke="none" height="5198"/></g><g transform="translate(32866,32758)" text-rendering="geometricPrecision" stroke-width="44" stroke-linejoin="round" stroke-linecap="round"><line y2="-31278" y1="-30703" x2="-29816" x1="-28834" fill="none"/><line y2="-29556" y1="-30703" x2="-28834" x1="-28834" fill="none"/><line y2="-31278" y1="-30703" x2="-27851" x1="-28834" fill="none"/><line y2="-31058" y1="-30628" x2="-27886" x1="-28623" fill="none"/><line y2="-31278" y1="-30703" x2="-29816" x1="-30798" fill="none"/><line y2="-32202" y1="-31278" x2="-29816" x1="-29816" fill="none"/><line y2="-32086" y1="-31393" x2="-29645" x1="-29645" fill="none"/><line y2="-28984" y1="-29556" x2="-29816" x1="-28834" fill="none"/><line y2="-29556" y1="-28984" x2="-28834" x1="-27851" fill="none"/><line y2="-29631" y1="-29203" x2="-28623" x1="-27886" fill="none"/><line y2="-31278" y1="-32202" x2="-27851" x1="-27851" fill="none"/><line y2="-30703" y1="-31278" x2="-26869" x1="-27851" fill="none"/><line y2="-29556" y1="-30703" x2="-30798" x1="-30798" fill="none"/><line y2="-30703" y1="-31278" x2="-30798" x1="-31780" fill="none"/><line y2="-30628" y1="-31058" x2="-31006" x1="-31743" fill="none"/><line y2="-32422" y1="-32422" x2="-28039" x1="-29628" fill="none"/><line y2="-29556" y1="-28984" x2="-30798" x1="-29816" fill="none"/><line y2="-28984" y1="-29556" x2="-27851" x1="-26869" fill="none"/><line y2="-29556" y1="-30703" x2="-26869" x1="-26869" fill="none"/><line y2="-29700" y1="-30561" x2="-27037" x1="-27037" fill="none"/><line y2="-28984" y1="-29556" x2="-31780" x1="-30798" fill="none"/><line y2="-29203" y1="-29631" x2="-31743" x1="-31006" fill="none"/><line y2="-31278" y1="-30703" x2="-31780" x1="-32762" fill="none"/><line y2="-29556" y1="-28984" x2="-32762" x1="-31780" fill="none"/><line y2="-30703" y1="-29556" x2="-32762" x1="-32762" fill="none"/><line y2="-30561" y1="-29700" x2="-32592" x1="-32592" fill="none"/><line y2="-28155" y1="-28984" x2="-29746" x1="-29746" fill="none"/><line y2="-28155" y1="-28984" x2="-29885" x1="-29885" fill="none"/><text y="-27756" xml:space="preserve" x="-29969" stroke="none" font-size="433.3333" font-family="sans-serif">O</text><text y="-32242" xml:space="preserve" x="-29969" stroke="none" font-size="433.3333" font-family="sans-serif">N</text><text y="-32242" xml:space="preserve" x="-28002" stroke="none" font-size="433.3333" font-family="sans-serif">NH</text></g></g></svg>