<svg width="169.71" viewBox="0 0 5657 4828" text-rendering="auto" stroke-width="1" stroke-opacity="1" stroke-miterlimit="10" stroke-linejoin="miter" stroke-linecap="square" stroke-dashoffset="0" stroke-dasharray="none" stroke="black" shape-rendering="auto" image-rendering="auto" height="144.84" font-weight="normal" font-style="normal" font-size="12" font-family="'Dialog'" fill-opacity="1" fill="black" color-rendering="auto" color-interpolation="auto" xmlns="http://www.w3.org/2000/svg"><g><g stroke="white" fill="white"><rect y="0" x="0" width="5657" stroke="none" height="4828"/></g><g transform="translate(32866,32758)" text-rendering="geometricPrecision" stroke-width="44" stroke-linejoin="round" stroke-linecap="round"><line y2="-29876" y1="-30992" x2="-29593" x1="-29206" fill="none"/><line y2="-30070" y1="-30908" x2="-29706" x1="-29417" fill="none"/><line y2="-30992" y1="-31500" x2="-29206" x1="-29868" fill="none"/><line y2="-29876" y1="-29876" x2="-30795" x1="-29593" fill="none"/><line y2="-31581" y1="-31130" x2="-30339" x1="-30951" fill="none"/><line y2="-30772" y1="-29876" x2="-31072" x1="-30795" fill="none"/><line y2="-30711" y1="-30038" x2="-30873" x1="-30668" fill="none"/><line y2="-31514" y1="-30992" x2="-28299" x1="-29206" fill="none"/><line y2="-29351" y1="-29876" x2="-31702" x1="-30795" fill="none"/><line y2="-31098" y1="-31514" x2="-27580" x1="-28299" fill="none"/><line y2="-32202" y1="-31514" x2="-27903" x1="-28299" fill="none"/><line y2="-32202" y1="-31514" x2="-28698" x1="-28299" fill="none"/><line y2="-29657" y1="-29351" x2="-32231" x1="-31702" fill="none"/><line y2="-28524" y1="-29351" x2="-31633" x1="-31633" fill="none"/><line y2="-28524" y1="-29351" x2="-31772" x1="-31772" fill="none"/><text y="-30812" xml:space="preserve" x="-27545" stroke="none" font-size="433.3333" font-family="sans-serif">F</text><text y="-32242" xml:space="preserve" x="-27929" stroke="none" font-size="433.3333" font-family="sans-serif">F</text><text y="-32242" xml:space="preserve" x="-28975" stroke="none" font-size="433.3333" font-family="sans-serif">F</text><text y="-29697" xml:space="preserve" x="-32762" stroke="none" font-size="433.3333" font-family="sans-serif">OH</text><text y="-28126" xml:space="preserve" x="-31855" stroke="none" font-size="433.3333" font-family="sans-serif">O</text><text y="-31540" xml:space="preserve" x="-30304" stroke="none" font-size="433.3333" font-family="sans-serif">NH</text><text y="-30812" xml:space="preserve" x="-31292" stroke="none" font-size="433.3333" font-family="sans-serif">N</text></g></g></svg>