<svg width="333.6" viewBox="0 0 11120 3716" text-rendering="auto" stroke-width="1" stroke-opacity="1" stroke-miterlimit="10" stroke-linejoin="miter" stroke-linecap="square" stroke-dashoffset="0" stroke-dasharray="none" stroke="black" shape-rendering="auto" image-rendering="auto" height="111.48" font-weight="normal" font-style="normal" font-size="12" font-family="'Dialog'" fill-opacity="1" fill="black" color-rendering="auto" color-interpolation="auto" xmlns="http://www.w3.org/2000/svg"><g><g stroke="white" fill="white"><rect y="0" x="0" width="11120" stroke="none" height="3716"/></g><g transform="translate(32866,32758)" text-rendering="geometricPrecision" stroke-width="44" stroke-linejoin="round" stroke-linecap="round"><line y2="-30960" y1="-31376" x2="-27352" x1="-28071" fill="none"/><line y2="-30960" y1="-31376" x2="-28790" x1="-28071" fill="none"/><line y2="-31376" y1="-30960" x2="-29885" x1="-29166" fill="none"/><line y2="-30850" y1="-31376" x2="-30792" x1="-29885" fill="none"/><line y2="-32202" y1="-31376" x2="-28140" x1="-28140" fill="none"/><line y2="-32202" y1="-31376" x2="-28002" x1="-28002" fill="none"/><line y2="-31419" y1="-30960" x2="-26182" x1="-26976" fill="none"/><line y2="-30630" y1="-29715" x2="-27164" x1="-27164" fill="none"/><line y2="-30850" y1="-31419" x2="-25194" x1="-26182" fill="none"/><line y2="-29715" y1="-29146" x2="-27164" x1="-26182" fill="none"/><line y2="-29934" y1="-30850" x2="-25194" x1="-25194" fill="none"/><line y2="-29146" y1="-29605" x2="-26182" x1="-25381" fill="none"/><line y2="-31376" y1="-30850" x2="-24286" x1="-25194" fill="none"/><line y2="-30850" y1="-31419" x2="-30792" x1="-31777" fill="none"/><line y2="-30775" y1="-31202" x2="-31000" x1="-31740" fill="none"/><line y2="-29715" y1="-30850" x2="-30792" x1="-30792" fill="none"/><line y2="-31419" y1="-30850" x2="-31777" x1="-32762" fill="none"/><line y2="-29146" y1="-29715" x2="-31777" x1="-30792" fill="none"/><line y2="-29362" y1="-29790" x2="-31740" x1="-31000" fill="none"/><line y2="-30850" y1="-29715" x2="-32762" x1="-32762" fill="none"/><line y2="-30708" y1="-29856" x2="-32592" x1="-32592" fill="none"/><line y2="-29715" y1="-29146" x2="-32762" x1="-31777" fill="none"/><line y2="-30960" y1="-31376" x2="-23567" x1="-24286" fill="none"/><line y2="-31266" y1="-30960" x2="-22660" x1="-23192" fill="none"/><line y2="-32202" y1="-31376" x2="-24356" x1="-24356" fill="none"/><line y2="-32202" y1="-31376" x2="-24217" x1="-24217" fill="none"/><text y="-30671" xml:space="preserve" x="-29131" stroke="none" font-size="433.3333" font-family="sans-serif">O</text><text y="-32242" xml:space="preserve" x="-28224" stroke="none" font-size="433.3333" font-family="sans-serif">O</text><text y="-30671" xml:space="preserve" x="-23532" stroke="none" font-size="433.3333" font-family="sans-serif">O</text><text y="-32242" xml:space="preserve" x="-24440" stroke="none" font-size="433.3333" font-family="sans-serif">O</text><text y="-31197" xml:space="preserve" x="-22625" stroke="none" font-size="433.3333" font-family="sans-serif">CH</text><text y="-31107" xml:space="preserve" x="-22048" stroke="none" font-size="313.3333" font-family="sans-serif">3</text><text y="-30671" xml:space="preserve" x="-27317" stroke="none" font-size="433.3333" font-family="sans-serif">N</text><text y="-29536" xml:space="preserve" x="-25347" stroke="none" font-size="433.3333" font-family="sans-serif">NH</text></g></g></svg>