<svg width="283.95" viewBox="0 0 9465 4670" text-rendering="auto" stroke-width="1" stroke-opacity="1" stroke-miterlimit="10" stroke-linejoin="miter" stroke-linecap="square" stroke-dashoffset="0" stroke-dasharray="none" stroke="black" shape-rendering="auto" image-rendering="auto" height="140.1" font-weight="normal" font-style="normal" font-size="12" font-family="'Dialog'" fill-opacity="1" fill="black" color-rendering="auto" color-interpolation="auto" xmlns="http://www.w3.org/2000/svg"><g><g stroke="white" fill="white"><rect y="0" x="0" width="9465" stroke="none" height="4670"/></g><g transform="translate(32866,32758)" text-rendering="geometricPrecision" stroke-width="44" stroke-linejoin="round" stroke-linecap="round"><line y2="-29900" y1="-30469" x2="-29885" x1="-30867" fill="none"/><line y2="-29822" y1="-30249" x2="-30090" x1="-30830" fill="none"/><line y2="-28761" y1="-29900" x2="-29885" x1="-29885" fill="none"/><line y2="-30359" y1="-29900" x2="-29085" x1="-29885" fill="none"/><line y2="-30469" y1="-29900" x2="-30867" x1="-31855" fill="none"/><line y2="-28761" y1="-28761" x2="-29885" x1="-28100" fill="none"/><line y2="-28192" y1="-28761" x2="-30867" x1="-29885" fill="none"/><line y2="-28412" y1="-28836" x2="-30830" x1="-30090" fill="none"/><line y2="-29900" y1="-30359" x2="-27912" x1="-28706" fill="none"/><line y2="-29900" y1="-28761" x2="-31855" x1="-31855" fill="none"/><line y2="-29755" y1="-28903" x2="-31685" x1="-31685" fill="none"/><line y2="-28981" y1="-29900" x2="-27912" x1="-27912" fill="none"/><line y2="-29096" y1="-29784" x2="-28082" x1="-28082" fill="none"/><line y2="-28761" y1="-28192" x2="-31855" x1="-30867" fill="none"/><line y2="-30422" y1="-29900" x2="-27005" x1="-27912" fill="none"/><line y2="-30422" y1="-29900" x2="-32762" x1="-31855" fill="none"/><line y2="-31295" y1="-30469" x2="-30867" x1="-30867" fill="none"/><line y2="-31561" y1="-30422" x2="-27005" x1="-27005" fill="none"/><line y2="-31419" y1="-30564" x2="-26834" x1="-26834" fill="none"/><line y2="-30422" y1="-29853" x2="-27005" x1="-26020" fill="none"/><line y2="-32130" y1="-31561" x2="-26020" x1="-27005" fill="none"/><line y2="-29853" y1="-30422" x2="-26020" x1="-25035" fill="none"/><line y2="-30073" y1="-30498" x2="-25982" x1="-25243" fill="none"/><line y2="-31561" y1="-32130" x2="-25035" x1="-26020" fill="none"/><line y2="-31483" y1="-31910" x2="-25243" x1="-25982" fill="none"/><line y2="-30422" y1="-31561" x2="-25035" x1="-25035" fill="none"/><line y2="-31977" y1="-31561" x2="-24315" x1="-25035" fill="none"/><line y2="-31873" y1="-31624" x2="-31486" x1="-31055" fill="none"/><line y2="-32240" y1="-31769" x2="-30532" x1="-30801" fill="none"/><line y2="-32167" y1="-31699" x2="-30408" x1="-30680" fill="none"/><line y2="-31587" y1="-31587" x2="-30006" x1="-30680" fill="none"/><line y2="-31445" y1="-31445" x2="-30006" x1="-30680" fill="none"/><text y="-31335" xml:space="preserve" x="-31020" stroke="none" font-size="433.3333" font-family="sans-serif">S</text><text y="-32242" xml:space="preserve" x="-30495" stroke="none" font-size="433.3333" font-family="sans-serif">O</text><text y="-31335" xml:space="preserve" x="-29972" stroke="none" font-size="433.3333" font-family="sans-serif">O</text><text y="-31913" xml:space="preserve" x="-32017" stroke="none" font-size="433.3333" font-family="sans-serif">OH</text><text y="-31904" xml:space="preserve" x="-24281" stroke="none" font-size="433.3333" font-family="sans-serif">NH</text><text y="-31815" xml:space="preserve" x="-23703" stroke="none" font-size="313.3333" font-family="sans-serif">2</text><text y="-30290" xml:space="preserve" x="-29047" stroke="none" font-size="433.3333" font-family="sans-serif">S</text><text y="-28582" xml:space="preserve" x="-28065" stroke="none" font-size="433.3333" font-family="sans-serif">N</text></g></g></svg>