<svg width="423.78" viewBox="0 0 14126 4560" text-rendering="auto" stroke-width="1" stroke-opacity="1" stroke-miterlimit="10" stroke-linejoin="miter" stroke-linecap="square" stroke-dashoffset="0" stroke-dasharray="none" stroke="black" shape-rendering="auto" image-rendering="auto" height="136.8" font-weight="normal" font-style="normal" font-size="12" font-family="'Dialog'" fill-opacity="1" fill="black" color-rendering="auto" color-interpolation="auto" xmlns="http://www.w3.org/2000/svg"><g><g stroke="white" fill="white"><rect y="0" x="0" width="14126" stroke="none" height="4560"/></g><g transform="translate(32866,32758)" text-rendering="geometricPrecision" stroke-width="44" stroke-linejoin="round" stroke-linecap="round"><line y2="-30235" y1="-30758" x2="-25350" x1="-26257" fill="none"/><line y2="-30180" y1="-30573" x2="-25532" x1="-26213" fill="none"/><line y2="-30235" y1="-30758" x2="-27164" x1="-26257" fill="none"/><line y2="-31806" y1="-30758" x2="-26257" x1="-26257" fill="none"/><line y2="-32332" y1="-31806" x2="-25350" x1="-26257" fill="none"/><line y2="-30758" y1="-30235" x2="-24442" x1="-25350" fill="none"/><line y2="-29186" y1="-30235" x2="-25350" x1="-25350" fill="none"/><line y2="-28663" y1="-29186" x2="-24442" x1="-25350" fill="none"/><line y2="-29096" y1="-30235" x2="-27164" x1="-27164" fill="none"/><line y2="-29241" y1="-30093" x2="-27334" x1="-27334" fill="none"/><line y2="-30235" y1="-30804" x2="-27164" x1="-28146" fill="none"/><line y2="-28530" y1="-29096" x2="-28146" x1="-27164" fill="none"/><line y2="-30804" y1="-30235" x2="-28146" x1="-29134" fill="none"/><line y2="-30584" y1="-30157" x2="-28186" x1="-28926" fill="none"/><line y2="-29096" y1="-28530" x2="-29134" x1="-28146" fill="none"/><line y2="-29174" y1="-28747" x2="-28926" x1="-28186" fill="none"/><line y2="-30235" y1="-29096" x2="-29134" x1="-29134" fill="none"/><line y2="-28683" y1="-29096" x2="-29853" x1="-29134" fill="none"/><line y2="-29096" y1="-28683" x2="-30948" x1="-30229" fill="none"/><line y2="-31896" y1="-30758" x2="-24442" x1="-24442" fill="none"/><line y2="-31754" y1="-30902" x2="-24272" x1="-24272" fill="none"/><line y2="-30758" y1="-30191" x2="-24442" x1="-23454" fill="none"/><line y2="-32465" y1="-31896" x2="-23454" x1="-24442" fill="none"/><line y2="-30191" y1="-30758" x2="-23454" x1="-22472" fill="none"/><line y2="-30408" y1="-30836" x2="-23417" x1="-22680" fill="none"/><line y2="-31896" y1="-32465" x2="-22472" x1="-23454" fill="none"/><line y2="-31821" y1="-32248" x2="-22680" x1="-23417" fill="none"/><line y2="-30758" y1="-31896" x2="-22472" x1="-22472" fill="none"/><line y2="-32312" y1="-31896" x2="-21753" x1="-22472" fill="none"/><line y2="-31896" y1="-32312" x2="-20658" x1="-21377" fill="none"/><line y2="-28574" y1="-29096" x2="-31855" x1="-30948" fill="none"/><line y2="-29096" y1="-28574" x2="-32762" x1="-31855" fill="none"/><line y2="-29926" y1="-29096" x2="-31018" x1="-31018" fill="none"/><line y2="-29926" y1="-29096" x2="-30879" x1="-30879" fill="none"/><line y2="-32422" y1="-31896" x2="-19751" x1="-20658" fill="none"/><line y2="-31896" y1="-32422" x2="-18844" x1="-19751" fill="none"/><line y2="-31067" y1="-31896" x2="-20589" x1="-20589" fill="none"/><line y2="-31067" y1="-31896" x2="-20727" x1="-20727" fill="none"/><text y="-28394" xml:space="preserve" x="-30194" stroke="none" font-size="433.3333" font-family="sans-serif">O</text><text y="-29966" xml:space="preserve" x="-31101" stroke="none" font-size="433.3333" font-family="sans-serif">O</text><text y="-32242" xml:space="preserve" x="-21718" stroke="none" font-size="433.3333" font-family="sans-serif">O</text><text y="-30668" xml:space="preserve" x="-20808" stroke="none" font-size="433.3333" font-family="sans-serif">O</text><text y="-30708" xml:space="preserve" x="-25740" stroke="none" font-style="italic" font-size="313.3333" font-family="sans-serif">E</text></g></g></svg>