<svg width="228.6" viewBox="0 0 7620 3763" text-rendering="auto" stroke-width="1" stroke-opacity="1" stroke-miterlimit="10" stroke-linejoin="miter" stroke-linecap="square" stroke-dashoffset="0" stroke-dasharray="none" stroke="black" shape-rendering="auto" image-rendering="auto" height="112.89" font-weight="normal" font-style="normal" font-size="12" font-family="'Dialog'" fill-opacity="1" fill="black" color-rendering="auto" color-interpolation="auto" xmlns="http://www.w3.org/2000/svg"><g><g stroke="white" fill="white"><rect y="0" x="0" width="7620" stroke="none" height="3763"/></g><g transform="translate(32866,32758)" text-rendering="geometricPrecision" stroke-width="44" stroke-linejoin="round" stroke-linecap="round"><line y2="-30807" y1="-31376" x2="-29885" x1="-30867" fill="none"/><line y2="-30729" y1="-31156" x2="-30093" x1="-30830" fill="none"/><line y2="-29668" y1="-30807" x2="-29885" x1="-29885" fill="none"/><line y2="-31376" y1="-30807" x2="-30867" x1="-31855" fill="none"/><line y2="-29099" y1="-29668" x2="-30867" x1="-29885" fill="none"/><line y2="-29319" y1="-29744" x2="-30830" x1="-30093" fill="none"/><line y2="-30807" y1="-29668" x2="-31855" x1="-31855" fill="none"/><line y2="-30665" y1="-29810" x2="-31685" x1="-31685" fill="none"/><line y2="-29668" y1="-29099" x2="-31855" x1="-30867" fill="none"/><line y2="-31330" y1="-30807" x2="-28978" x1="-29885" fill="none"/><line y2="-30807" y1="-31330" x2="-28071" x1="-28978" fill="none"/><line y2="-31330" y1="-30807" x2="-27164" x1="-28071" fill="none"/><line y2="-30807" y1="-31330" x2="-26257" x1="-27164" fill="none"/><line y2="-31330" y1="-30807" x2="-25350" x1="-26257" fill="none"/><line y2="-29146" y1="-29668" x2="-32762" x1="-31855" fill="none"/><line y2="-32202" y1="-31376" x2="-30867" x1="-30867" fill="none"/><text y="-32242" xml:space="preserve" x="-31020" stroke="none" font-size="433.3333" font-family="sans-serif">OH</text></g></g></svg>