<svg width="299.91" viewBox="0 0 9997 8084" text-rendering="auto" stroke-width="1" stroke-opacity="1" stroke-miterlimit="10" stroke-linejoin="miter" stroke-linecap="square" stroke-dashoffset="0" stroke-dasharray="none" stroke="black" shape-rendering="auto" image-rendering="auto" height="242.52" font-weight="normal" font-style="normal" font-size="12" font-family="'Dialog'" fill-opacity="1" fill="black" color-rendering="auto" color-interpolation="auto" xmlns="http://www.w3.org/2000/svg"><g><g stroke="white" fill="white"><rect y="0" x="0" width="9997" stroke="none" height="8084"/></g><g transform="translate(32866,32758)" text-rendering="geometricPrecision" stroke-width="44" stroke-linejoin="round" stroke-linecap="round"><line y2="-26482" y1="-27692" x2="-30691" x1="-30691" fill="none"/><line y2="-28296" y1="-27692" x2="-29654" x1="-30691" fill="none"/><line y2="-27692" y1="-28296" x2="-30691" x1="-31725" fill="none"/><line y2="-27620" y1="-28074" x2="-30905" x1="-31682" fill="none"/><line y2="-26482" y1="-25988" x2="-30691" x1="-29842" fill="none"/><line y2="-25878" y1="-26482" x2="-31725" x1="-30691" fill="none"/><line y2="-26101" y1="-26554" x2="-31682" x1="-30905" fill="none"/><line y2="-27692" y1="-28296" x2="-28620" x1="-29654" fill="none"/><line y2="-27620" y1="-28074" x2="-28836" x1="-29611" fill="none"/><line y2="-28296" y1="-27692" x2="-31725" x1="-32762" fill="none"/><line y2="-25988" y1="-26372" x2="-29466" x1="-28808" fill="none"/><line y2="-26482" y1="-25878" x2="-32762" x1="-31725" fill="none"/><line y2="-26702" y1="-27692" x2="-28620" x1="-28620" fill="none"/><line y2="-27692" y1="-26482" x2="-32762" x1="-32762" fill="none"/><line y2="-27539" y1="-26635" x2="-32592" x1="-32592" fill="none"/><line y2="-28215" y1="-27692" x2="-27713" x1="-28620" fill="none"/><line y2="-26066" y1="-26375" x2="-27900" x1="-28432" fill="none"/><line y2="-29122" y1="-28296" x2="-29654" x1="-29654" fill="none"/><line y2="-25225" y1="-25615" x2="-30113" x1="-29787" fill="none"/><line y2="-25315" y1="-25705" x2="-30220" x1="-29894" fill="none"/><line y2="-25315" y1="-25705" x2="-29091" x1="-29417" fill="none"/><line y2="-25225" y1="-25615" x2="-29198" x1="-29524" fill="none"/><line y2="-29044" y1="-28215" x2="-27713" x1="-27713" fill="none"/><line y2="-29787" y1="-29484" x2="-26806" x1="-27331" fill="none"/><line y2="-27860" y1="-28276" x2="-26959" x1="-27678" fill="none"/><line y2="-27739" y1="-28155" x2="-27028" x1="-27747" fill="none"/><line y2="-30630" y1="-29787" x2="-26514" x1="-26806" fill="none"/><line y2="-29787" y1="-29235" x2="-26806" x1="-26092" fill="none"/><line y2="-29853" y1="-29440" x2="-26612" x1="-26078" fill="none"/><line y2="-30850" y1="-30850" x2="-25292" x1="-26248" fill="none"/><line y2="-29229" y1="-29787" x2="-25716" x1="-24962" fill="none"/><line y2="-29787" y1="-30850" x2="-24962" x1="-25292" fill="none"/><line y2="-29871" y1="-30668" x2="-25168" x1="-25413" fill="none"/><line y2="-31376" y1="-30850" x2="-24385" x1="-25292" fill="none"/><line y2="-30960" y1="-31376" x2="-23665" x1="-24385" fill="none"/><line y2="-32202" y1="-31376" x2="-24454" x1="-24454" fill="none"/><line y2="-32202" y1="-31376" x2="-24312" x1="-24312" fill="none"/><text y="-29163" xml:space="preserve" x="-29807" stroke="none" font-size="433.3333" font-family="sans-serif">OH</text><text y="-24870" xml:space="preserve" x="-30503" stroke="none" font-size="433.3333" font-family="sans-serif">O</text><text y="-24870" xml:space="preserve" x="-29111" stroke="none" font-size="433.3333" font-family="sans-serif">O</text><text y="-29085" xml:space="preserve" x="-27866" stroke="none" font-size="433.3333" font-family="sans-serif">NH</text><text y="-27513" xml:space="preserve" x="-26959" stroke="none" font-size="433.3333" font-family="sans-serif">O</text><text y="-25780" xml:space="preserve" x="-27866" stroke="none" font-size="433.3333" font-family="sans-serif">CH</text><text y="-25690" xml:space="preserve" x="-27288" stroke="none" font-size="313.3333" font-family="sans-serif">3</text><text y="-30671" xml:space="preserve" x="-23628" stroke="none" font-size="433.3333" font-family="sans-serif">OH</text><text y="-32242" xml:space="preserve" x="-24535" stroke="none" font-size="433.3333" font-family="sans-serif">O</text><text y="-25699" xml:space="preserve" x="-29807" stroke="none" font-size="433.3333" font-family="sans-serif">S</text><text y="-26303" xml:space="preserve" x="-28773" stroke="none" font-size="433.3333" font-family="sans-serif">N</text><text y="-30671" xml:space="preserve" x="-26589" stroke="none" font-size="433.3333" font-family="sans-serif">S</text><text y="-28912" xml:space="preserve" x="-26057" stroke="none" font-size="433.3333" font-family="sans-serif">N</text></g></g></svg>