<svg width="159.45" viewBox="0 0 5315 4574" text-rendering="auto" stroke-width="1" stroke-opacity="1" stroke-miterlimit="10" stroke-linejoin="miter" stroke-linecap="square" stroke-dashoffset="0" stroke-dasharray="none" stroke="black" shape-rendering="auto" image-rendering="auto" height="137.22" font-weight="normal" font-style="normal" font-size="12" font-family="'Dialog'" fill-opacity="1" fill="black" color-rendering="auto" color-interpolation="auto" xmlns="http://www.w3.org/2000/svg"><g><g stroke="white" fill="white"><rect y="0" x="0" width="5315" stroke="none" height="4574"/></g><g transform="translate(32866,32758)" text-rendering="geometricPrecision" stroke-width="44" stroke-linejoin="round" stroke-linecap="round"><line y2="-31850" y1="-30703" x2="-30720" x1="-30720" fill="none"/><line y2="-31705" y1="-30847" x2="-30552" x1="-30552" fill="none"/><line y2="-30131" y1="-30703" x2="-31705" x1="-30720" fill="none"/><line y2="-30703" y1="-30131" x2="-30720" x1="-29738" fill="none"/><line y2="-32312" y1="-31850" x2="-29926" x1="-30720" fill="none"/><line y2="-31850" y1="-32422" x2="-30720" x1="-31705" fill="none"/><line y2="-30703" y1="-30131" x2="-32687" x1="-31705" fill="none"/><line y2="-30778" y1="-30347" x2="-32476" x1="-31740" fill="none"/><line y2="-30131" y1="-30703" x2="-29738" x1="-28756" fill="none"/><line y2="-30347" y1="-30778" x2="-29703" x1="-28966" fill="none"/><line y2="-31850" y1="-32312" x2="-28756" x1="-29550" fill="none"/><line y2="-31760" y1="-32107" x2="-28940" x1="-29538" fill="none"/><line y2="-32422" y1="-31850" x2="-31705" x1="-32687" fill="none"/><line y2="-32205" y1="-31774" x2="-31740" x1="-32476" fill="none"/><line y2="-31850" y1="-30703" x2="-32687" x1="-32687" fill="none"/><line y2="-30703" y1="-31850" x2="-28756" x1="-28756" fill="none"/><line y2="-29302" y1="-30131" x2="-31705" x1="-31705" fill="none"/><line y2="-32176" y1="-31850" x2="-28189" x1="-28756" fill="none"/><line y2="-28605" y1="-28912" x2="-32387" x1="-31858" fill="none"/><line y2="-28727" y1="-29036" x2="-32459" x1="-31928" fill="none"/><line y2="-28727" y1="-29036" x2="-30951" x1="-31480" fill="none"/><line y2="-28605" y1="-28912" x2="-31020" x1="-31552" fill="none"/><text y="-28903" xml:space="preserve" x="-31855" stroke="none" font-size="433.3333" font-family="sans-serif">N</text><text y="-28380" xml:space="preserve" x="-32762" stroke="none" font-size="433.3333" font-family="sans-serif">O</text><text y="-28380" xml:space="preserve" x="-30948" stroke="none" font-size="433.3333" font-family="sans-serif">O</text><text y="-32193" xml:space="preserve" x="-28080" stroke="none" font-size="433.3333" font-family="sans-serif">Cl</text><text y="-32242" xml:space="preserve" x="-29891" stroke="none" font-size="433.3333" font-family="sans-serif">N</text></g></g></svg>