<svg width="104.76" viewBox="0 0 3492 3147" text-rendering="auto" stroke-width="1" stroke-opacity="1" stroke-miterlimit="10" stroke-linejoin="miter" stroke-linecap="square" stroke-dashoffset="0" stroke-dasharray="none" stroke="black" shape-rendering="auto" image-rendering="auto" height="94.41" font-weight="normal" font-style="normal" font-size="12" font-family="'Dialog'" fill-opacity="1" fill="black" color-rendering="auto" color-interpolation="auto" xmlns="http://www.w3.org/2000/svg"><g><g stroke="white" fill="white"><rect y="0" x="0" width="3492" stroke="none" height="3147"/></g><g transform="translate(32866,32758)" text-rendering="geometricPrecision" stroke-width="44" stroke-linejoin="round" stroke-linecap="round"><line y2="-31841" y1="-30697" x2="-31607" x1="-31607" fill="none"/><line y2="-30697" y1="-30697" x2="-31335" x1="-31607" fill="none"/><line y2="-30697" y1="-30697" x2="-30460" x1="-31055" fill="none"/><line y2="-30697" y1="-29715" x2="-31607" x1="-32179" fill="none"/><line y2="-32416" y1="-31841" x2="-30622" x1="-31607" fill="none"/><line y2="-31269" y1="-30697" x2="-29478" x1="-30460" fill="none"/><line y2="-29715" y1="-30287" x2="-32179" x1="-31197" fill="none"/><line y2="-31434" y1="-32416" x2="-31197" x1="-30622" fill="none"/><line y2="-32211" y1="-32416" x2="-29680" x1="-30622" fill="none"/><line y2="-31269" y1="-32211" x2="-29478" x1="-29680" fill="none"/><line y2="-30287" y1="-31269" x2="-30050" x1="-29478" fill="none"/><line y2="-31434" y1="-30287" x2="-31197" x1="-31197" fill="none"/><line y2="-30287" y1="-30287" x2="-31197" x1="-30050" fill="none"/><line y2="-32092" y1="-31841" x2="-32040" x1="-31607" fill="none"/><text y="-32242" xml:space="preserve" x="-32762" stroke="none" font-size="433.3333" font-family="sans-serif">NH</text><text y="-32153" xml:space="preserve" x="-32185" stroke="none" font-size="313.3333" font-family="sans-serif">2</text></g></g></svg>