<svg width="193.05" viewBox="0 0 6435 3105" text-rendering="auto" stroke-width="1" stroke-opacity="1" stroke-miterlimit="10" stroke-linejoin="miter" stroke-linecap="square" stroke-dashoffset="0" stroke-dasharray="none" stroke="black" shape-rendering="auto" image-rendering="auto" height="93.15" font-weight="normal" font-style="normal" font-size="12" font-family="'Dialog'" fill-opacity="1" fill="black" color-rendering="auto" color-interpolation="auto" xmlns="http://www.w3.org/2000/svg"><g><g stroke="white" fill="white"><rect y="0" x="0" width="6435" stroke="none" height="3105"/></g><g transform="translate(32866,32758)" text-rendering="geometricPrecision" stroke-width="44" stroke-linejoin="round" stroke-linecap="round"><line y2="-30662" y1="-30662" x2="-32433" x1="-31286" fill="none"/><line y2="-30662" y1="-31725" x2="-31286" x1="-30919" fill="none"/><line y2="-30853" y1="-31650" x2="-31402" x1="-31127" fill="none"/><line y2="-31725" y1="-30662" x2="-32762" x1="-32433" fill="none"/><line y2="-31644" y1="-30847" x2="-32557" x1="-32312" fill="none"/><line y2="-31725" y1="-32277" x2="-30919" x1="-31630" fill="none"/><line y2="-32283" y1="-31725" x2="-32008" x1="-32762" fill="none"/><line y2="-30662" y1="-30662" x2="-30240" x1="-31286" fill="none"/><line y2="-30662" y1="-30662" x2="-29192" x1="-30240" fill="none"/><line y2="-30752" y1="-30752" x2="-29192" x1="-30240" fill="none"/><line y2="-30573" y1="-30573" x2="-29192" x1="-30240" fill="none"/><line y2="-30662" y1="-30662" x2="-28484" x1="-29192" fill="none"/><line y2="-30203" y1="-30466" x2="-27349" x1="-27802" fill="none"/><line y2="-31994" y1="-30882" x2="-28146" x1="-28143" fill="none"/><line y2="-31124" y1="-30859" x2="-27349" x1="-27802" fill="none"/><text y="-30483" xml:space="preserve" x="-28374" stroke="none" font-size="433.3333" font-family="sans-serif">Si</text><text y="-29914" xml:space="preserve" x="-27311" stroke="none" font-size="433.3333" font-family="sans-serif">CH</text><text y="-29824" xml:space="preserve" x="-26733" stroke="none" font-size="313.3333" font-family="sans-serif">3</text><text y="-32034" xml:space="preserve" x="-28296" stroke="none" font-size="433.3333" font-family="sans-serif">CH</text><text y="-31945" xml:space="preserve" x="-27718" stroke="none" font-size="313.3333" font-family="sans-serif">3</text><text y="-31052" xml:space="preserve" x="-27311" stroke="none" font-size="433.3333" font-family="sans-serif">CH</text><text y="-30963" xml:space="preserve" x="-26733" stroke="none" font-size="313.3333" font-family="sans-serif">3</text><text y="-32242" xml:space="preserve" x="-31971" stroke="none" font-size="433.3333" font-family="sans-serif">S</text></g></g></svg>