<svg width="210.33" viewBox="0 0 7011 5921" text-rendering="auto" stroke-width="1" stroke-opacity="1" stroke-miterlimit="10" stroke-linejoin="miter" stroke-linecap="square" stroke-dashoffset="0" stroke-dasharray="none" stroke="black" shape-rendering="auto" image-rendering="auto" height="177.63" font-weight="normal" font-style="normal" font-size="12" font-family="'Dialog'" fill-opacity="1" fill="black" color-rendering="auto" color-interpolation="auto" xmlns="http://www.w3.org/2000/svg"><g><g stroke="white" fill="white"><rect y="0" x="0" width="7011" stroke="none" height="5921"/></g><g transform="translate(32866,32758)" text-rendering="geometricPrecision" stroke-width="44" stroke-linejoin="round" stroke-linecap="round"><line y2="-28660" y1="-29235" x2="-27924" x1="-28906" fill="none"/><line y2="-27516" y1="-28660" x2="-27924" x1="-27924" fill="none"/><line y2="-27658" y1="-28519" x2="-28094" x1="-28094" fill="none"/><line y2="-29235" y1="-28660" x2="-26941" x1="-27924" fill="none"/><line y2="-29235" y1="-28660" x2="-28906" x1="-29888" fill="none"/><line y2="-29016" y1="-28585" x2="-28943" x1="-29680" fill="none"/><line y2="-26941" y1="-27516" x2="-28906" x1="-27924" fill="none"/><line y2="-27516" y1="-26941" x2="-27924" x1="-26941" fill="none"/><line y2="-28660" y1="-29235" x2="-25959" x1="-26941" fill="none"/><line y2="-28585" y1="-29016" x2="-26167" x1="-26904" fill="none"/><line y2="-28660" y1="-27516" x2="-29888" x1="-29888" fill="none"/><line y2="-27516" y1="-26941" x2="-29888" x1="-28906" fill="none"/><line y2="-27591" y1="-27161" x2="-29680" x1="-28943" fill="none"/><line y2="-26941" y1="-27516" x2="-26941" x1="-25959" fill="none"/><line y2="-27161" y1="-27591" x2="-26904" x1="-26167" fill="none"/><line y2="-27516" y1="-28660" x2="-25959" x1="-25959" fill="none"/><line y2="-30064" y1="-29235" x2="-28906" x1="-28906" fill="none"/><line y2="-30807" y1="-30391" x2="-29813" x1="-29094" fill="none"/><line y2="-30281" y1="-30807" x2="-30720" x1="-29813" fill="none"/><line y2="-31636" y1="-30807" x2="-29882" x1="-29882" fill="none"/><line y2="-31636" y1="-30807" x2="-29744" x1="-29744" fill="none"/><line y2="-30281" y1="-30850" x2="-30720" x1="-31705" fill="none"/><line y2="-30206" y1="-30633" x2="-30928" x1="-31668" fill="none"/><line y2="-29146" y1="-30281" x2="-30720" x1="-30720" fill="none"/><line y2="-30850" y1="-30281" x2="-31705" x1="-32690" fill="none"/><line y2="-28576" y1="-29146" x2="-31705" x1="-30720" fill="none"/><line y2="-28793" y1="-29221" x2="-31668" x1="-30928" fill="none"/><line y2="-30281" y1="-29146" x2="-32690" x1="-32690" fill="none"/><line y2="-30139" y1="-29287" x2="-32520" x1="-32520" fill="none"/><line y2="-29146" y1="-28576" x2="-32690" x1="-31705" fill="none"/><line y2="-31899" y1="-30850" x2="-31705" x1="-31705" fill="none"/><line y2="-32202" y1="-31899" x2="-32231" x1="-31705" fill="none"/><line y2="-32375" y1="-31959" x2="-31020" x1="-31740" fill="none"/><line y2="-32254" y1="-31838" x2="-30951" x1="-31670" fill="none"/><text y="-30102" xml:space="preserve" x="-29059" stroke="none" font-size="433.3333" font-family="sans-serif">NH</text><text y="-31676" xml:space="preserve" x="-29966" stroke="none" font-size="433.3333" font-family="sans-serif">O</text><text y="-32242" xml:space="preserve" x="-32762" stroke="none" font-size="433.3333" font-family="sans-serif">OH</text><text y="-32242" xml:space="preserve" x="-30948" stroke="none" font-size="433.3333" font-family="sans-serif">O</text></g></g></svg>