<svg width="251.04" viewBox="0 0 8368 7177" text-rendering="auto" stroke-width="1" stroke-opacity="1" stroke-miterlimit="10" stroke-linejoin="miter" stroke-linecap="square" stroke-dashoffset="0" stroke-dasharray="none" stroke="black" shape-rendering="auto" image-rendering="auto" height="215.31" font-weight="normal" font-style="normal" font-size="12" font-family="'Dialog'" fill-opacity="1" fill="black" color-rendering="auto" color-interpolation="auto" xmlns="http://www.w3.org/2000/svg"><g><g stroke="white" fill="white"><rect y="0" x="0" width="8368" stroke="none" height="7177"/></g><g transform="translate(32866,32758)" text-rendering="geometricPrecision" stroke-width="44" stroke-linejoin="round" stroke-linecap="round"><line y2="-28819" y1="-29278" x2="-27109" x1="-27903" fill="none"/><line y2="-29278" y1="-28709" x2="-27903" x1="-28891" fill="none"/><line y2="-27574" y1="-28490" x2="-26921" x1="-26921" fill="none"/><line y2="-28709" y1="-27574" x2="-28891" x1="-28891" fill="none"/><line y2="-27005" y1="-27574" x2="-27903" x1="-26921" fill="none"/><line y2="-27574" y1="-27005" x2="-28891" x1="-27903" fill="none"/><line y2="-27464" y1="-27048" x2="-25295" x1="-26014" fill="none"/><line y2="-30743" y1="-30434" x2="-28623" x1="-28091" fill="none"/><line y2="-30495" y1="-30743" x2="-29429" x1="-28998" fill="none"/><line y2="-30798" y1="-30382" x2="-30717" x1="-29998" fill="none"/><line y2="-30275" y1="-30798" x2="-31624" x1="-30717" fill="none"/><line y2="-30602" y1="-30275" x2="-32190" x1="-31624" fill="none"/><line y2="-31679" y1="-31070" x2="-28810" x1="-28810" fill="none"/><line y2="-32422" y1="-32008" x2="-29718" x1="-28998" fill="none"/><line y2="-31899" y1="-32422" x2="-30625" x1="-29718" fill="none"/><line y2="-32225" y1="-31899" x2="-31191" x1="-30625" fill="none"/><line y2="-31205" y1="-30899" x2="-29564" x1="-29033" fill="none"/><line y2="-31327" y1="-31020" x2="-29495" x1="-28964" fill="none"/><polygon stroke-width="1" stroke="none" points=" -28891 -28709 -29452 -28955 -29382 -29073"/><polygon stroke-width="1" points=" -28891 -28709 -29452 -28955 -29382 -29073" fill="none"/><polygon stroke-width="1" stroke="none" points=" -27903 -27005 -27834 -26176 -27973 -26176"/><polygon stroke-width="1" points=" -27903 -27005 -27834 -26176 -27973 -26176" fill="none"/><line y2="-26988" y1="-27109" x2="-26046" x1="-25979" fill="none"/><line y2="-27109" y1="-27205" x2="-26227" x1="-26173" fill="none"/><line y2="-27230" y1="-27301" x2="-26407" x1="-26368" fill="none"/><line y2="-27351" y1="-27397" x2="-26588" x1="-26562" fill="none"/><line y2="-27472" y1="-27493" x2="-26769" x1="-26757" fill="none"/><line y2="-30108" y1="-30108" x2="-27834" x1="-27973" fill="none"/><line y2="-29891" y1="-29891" x2="-27852" x1="-27955" fill="none"/><line y2="-29675" y1="-29675" x2="-27870" x1="-27936" fill="none"/><line y2="-29458" y1="-29458" x2="-27888" x1="-27918" fill="none"/><line y2="-27328" y1="-27210" x2="-29452" x1="-29382" fill="none"/><line y2="-27416" y1="-27340" x2="-29252" x1="-29207" fill="none"/><line y2="-27503" y1="-27469" x2="-29052" x1="-29032" fill="none"/><text y="-30148" xml:space="preserve" x="-28056" stroke="none" font-size="433.3333" font-family="sans-serif">O</text><text y="-30671" xml:space="preserve" x="-28964" stroke="none" font-size="433.3333" font-family="sans-serif">P</text><text y="-30096" xml:space="preserve" x="-29960" stroke="none" font-size="433.3333" font-family="sans-serif">NH</text><text y="-31720" xml:space="preserve" x="-28964" stroke="none" font-size="433.3333" font-family="sans-serif">NH</text><text y="-31197" xml:space="preserve" x="-29871" stroke="none" font-size="433.3333" font-family="sans-serif">O</text><text y="-30619" xml:space="preserve" x="-32762" stroke="none" font-size="433.3333" font-family="sans-serif">Cl</text><text y="-32242" xml:space="preserve" x="-31763" stroke="none" font-size="433.3333" font-family="sans-serif">Cl</text><text y="-29056" xml:space="preserve" x="-29952" stroke="none" font-size="433.3333" font-family="sans-serif">OH</text><text y="-27395" xml:space="preserve" x="-25257" stroke="none" font-size="433.3333" font-family="sans-serif">OH</text><text y="-26869" xml:space="preserve" x="-29952" stroke="none" font-size="433.3333" font-family="sans-serif">OH</text><text y="-25777" xml:space="preserve" x="-28056" stroke="none" font-size="433.3333" font-family="sans-serif">OH</text><text y="-28530" xml:space="preserve" x="-27074" stroke="none" font-size="433.3333" font-family="sans-serif">O</text><text y="-28799" xml:space="preserve" x="-28056" stroke="none" font-style="italic" font-size="313.3333" font-family="sans-serif">S</text><text y="-28389" xml:space="preserve" x="-28793" stroke="none" font-style="italic" font-size="313.3333" font-family="sans-serif">R</text><text y="-27539" xml:space="preserve" x="-27323" stroke="none" font-style="italic" font-size="313.3333" font-family="sans-serif">R</text><text y="-27539" xml:space="preserve" x="-28793" stroke="none" font-style="italic" font-size="313.3333" font-family="sans-serif">S</text><text y="-27129" xml:space="preserve" x="-28056" stroke="none" font-style="italic" font-size="313.3333" font-family="sans-serif">S</text></g></g></svg>