<svg width="288.42" viewBox="0 0 9614 8746" text-rendering="auto" stroke-width="1" stroke-opacity="1" stroke-miterlimit="10" stroke-linejoin="miter" stroke-linecap="square" stroke-dashoffset="0" stroke-dasharray="none" stroke="black" shape-rendering="auto" image-rendering="auto" height="262.38" font-weight="normal" font-style="normal" font-size="12" font-family="'Dialog'" fill-opacity="1" fill="black" color-rendering="auto" color-interpolation="auto" xmlns="http://www.w3.org/2000/svg"><g><g stroke="white" fill="white"><rect y="0" x="0" width="9614" stroke="none" height="8746"/></g><g transform="translate(32866,32758)" text-rendering="geometricPrecision" stroke-width="44" stroke-linejoin="round" stroke-linecap="round"><line y2="-27484" y1="-28054" x2="-26101" x1="-27083" fill="none"/><line y2="-27406" y1="-27834" x2="-26309" x1="-27045" fill="none"/><line y2="-28054" y1="-27484" x2="-27083" x1="-28071" fill="none"/><line y2="-26346" y1="-27484" x2="-26101" x1="-26101" fill="none"/><line y2="-28285" y1="-27484" x2="-25295" x1="-26101" fill="none"/><line y2="-27484" y1="-26346" x2="-28071" x1="-28071" fill="none"/><line y2="-27340" y1="-26488" x2="-27900" x1="-27900" fill="none"/><line y2="-25887" y1="-26346" x2="-26895" x1="-26101" fill="none"/><line y2="-26089" y1="-26436" x2="-26881" x1="-26286" fill="none"/><line y2="-26346" y1="-25540" x2="-26101" x1="-25295" fill="none"/><line y2="-28285" y1="-28285" x2="-24156" x1="-25295" fill="none"/><line y2="-26346" y1="-25887" x2="-28071" x1="-27274" fill="none"/><line y2="-25540" y1="-25540" x2="-25295" x1="-24156" fill="none"/><line y2="-27484" y1="-28285" x2="-23356" x1="-24156" fill="none"/><line y2="-25540" y1="-26346" x2="-24156" x1="-23356" fill="none"/><line y2="-26346" y1="-27484" x2="-23356" x1="-23356" fill="none"/><line y2="-29099" y1="-28054" x2="-27083" x1="-27083" fill="none"/><line y2="-25930" y1="-26346" x2="-28790" x1="-28071" fill="none"/><line y2="-29668" y1="-29099" x2="-28071" x1="-27083" fill="none"/><line y2="-29746" y1="-29319" x2="-27863" x1="-27123" fill="none"/><line y2="-29099" y1="-29668" x2="-27083" x1="-26101" fill="none"/><line y2="-30807" y1="-29668" x2="-28071" x1="-28071" fill="none"/><line y2="-29668" y1="-30807" x2="-26101" x1="-26101" fill="none"/><line y2="-29810" y1="-30665" x2="-26271" x1="-26271" fill="none"/><line y2="-31376" y1="-30807" x2="-27083" x1="-28071" fill="none"/><line y2="-31156" y1="-30729" x2="-27123" x1="-27863" fill="none"/><line y2="-30807" y1="-31376" x2="-26101" x1="-27083" fill="none"/><line y2="-32202" y1="-31376" x2="-27083" x1="-27083" fill="none"/><line y2="-25930" y1="-26392" x2="-29166" x1="-29960" fill="none"/><line y2="-24685" y1="-25604" x2="-28978" x1="-28978" fill="none"/><line y2="-26392" y1="-25823" x2="-29960" x1="-30948" fill="none"/><line y2="-24116" y1="-24685" x2="-29960" x1="-28978" fill="none"/><line y2="-25823" y1="-24905" x2="-30948" x1="-30948" fill="none"/><line y2="-24575" y1="-24116" x2="-30760" x1="-29960" fill="none"/><line y2="-24162" y1="-24575" x2="-31855" x1="-31136" fill="none"/><line y2="-24685" y1="-24162" x2="-32762" x1="-31855" fill="none"/><text y="-32242" xml:space="preserve" x="-27236" stroke="none" font-size="433.3333" font-family="sans-serif">F</text><text y="-25598" xml:space="preserve" x="-27236" stroke="none" font-size="433.3333" font-family="sans-serif">N</text><text y="-25644" xml:space="preserve" x="-29131" stroke="none" font-size="433.3333" font-family="sans-serif">N</text><text y="-24506" xml:space="preserve" x="-31101" stroke="none" font-size="433.3333" font-family="sans-serif">N</text></g></g></svg>