<svg width="327.69" viewBox="0 0 10923 4560" text-rendering="auto" stroke-width="1" stroke-opacity="1" stroke-miterlimit="10" stroke-linejoin="miter" stroke-linecap="square" stroke-dashoffset="0" stroke-dasharray="none" stroke="black" shape-rendering="auto" image-rendering="auto" height="136.8" font-weight="normal" font-style="normal" font-size="12" font-family="'Dialog'" fill-opacity="1" fill="black" color-rendering="auto" color-interpolation="auto" xmlns="http://www.w3.org/2000/svg"><g><g stroke="white" fill="white"><rect y="0" x="0" width="10923" stroke="none" height="4560"/></g><g transform="translate(32866,32758)" text-rendering="geometricPrecision" stroke-width="44" stroke-linejoin="round" stroke-linecap="round"><line y2="-30344" y1="-30758" x2="-28028" x1="-28747" fill="none"/><line y2="-30651" y1="-30344" x2="-27120" x1="-27652" fill="none"/><line y2="-30235" y1="-30651" x2="-26026" x1="-26745" fill="none"/><line y2="-30235" y1="-30758" x2="-29654" x1="-28747" fill="none"/><line y2="-31587" y1="-30758" x2="-28816" x1="-28816" fill="none"/><line y2="-31587" y1="-30758" x2="-28678" x1="-28678" fill="none"/><line y2="-30758" y1="-30235" x2="-25118" x1="-26026" fill="none"/><line y2="-29406" y1="-30235" x2="-25956" x1="-25956" fill="none"/><line y2="-29406" y1="-30235" x2="-26095" x1="-26095" fill="none"/><line y2="-30235" y1="-30804" x2="-29654" x1="-30639" fill="none"/><line y2="-30160" y1="-30587" x2="-29862" x1="-30602" fill="none"/><line y2="-29096" y1="-30235" x2="-29654" x1="-29654" fill="none"/><line y2="-30804" y1="-30235" x2="-30639" x1="-31624" fill="none"/><line y2="-28530" y1="-29096" x2="-30639" x1="-29654" fill="none"/><line y2="-28747" y1="-29174" x2="-30602" x1="-29862" fill="none"/><line y2="-30235" y1="-29096" x2="-31624" x1="-31624" fill="none"/><line y2="-30093" y1="-29241" x2="-31454" x1="-31454" fill="none"/><line y2="-29096" y1="-28530" x2="-31624" x1="-30639" fill="none"/><line y2="-31633" y1="-30804" x2="-30639" x1="-30639" fill="none"/><line y2="-28770" y1="-29096" x2="-32190" x1="-31624" fill="none"/><line y2="-30758" y1="-30191" x2="-25118" x1="-24136" fill="none"/><line y2="-30836" y1="-30408" x2="-24910" x1="-24174" fill="none"/><line y2="-31896" y1="-30758" x2="-25118" x1="-25118" fill="none"/><line y2="-30191" y1="-30758" x2="-24136" x1="-23148" fill="none"/><line y2="-32465" y1="-31896" x2="-24136" x1="-25118" fill="none"/><line y2="-32248" y1="-31821" x2="-24174" x1="-24910" fill="none"/><line y2="-30758" y1="-31896" x2="-23148" x1="-23148" fill="none"/><line y2="-30902" y1="-31754" x2="-23319" x1="-23319" fill="none"/><line y2="-31896" y1="-32465" x2="-23148" x1="-24136" fill="none"/><line y2="-29362" y1="-30191" x2="-24136" x1="-24136" fill="none"/><line y2="-32225" y1="-31896" x2="-22582" x1="-23148" fill="none"/><text y="-30056" xml:space="preserve" x="-27993" stroke="none" font-size="433.3333" font-family="sans-serif">O</text><text y="-31627" xml:space="preserve" x="-28900" stroke="none" font-size="433.3333" font-family="sans-serif">O</text><text y="-30578" xml:space="preserve" x="-27086" stroke="none" font-size="433.3333" font-family="sans-serif">O</text><text y="-29007" xml:space="preserve" x="-26179" stroke="none" font-size="433.3333" font-family="sans-serif">O</text><text y="-31673" xml:space="preserve" x="-30870" stroke="none" font-size="433.3333" font-family="sans-serif">Cl</text><text y="-28394" xml:space="preserve" x="-32762" stroke="none" font-size="433.3333" font-family="sans-serif">Cl</text><text y="-28964" xml:space="preserve" x="-24367" stroke="none" font-size="433.3333" font-family="sans-serif">Cl</text><text y="-32242" xml:space="preserve" x="-22472" stroke="none" font-size="433.3333" font-family="sans-serif">Cl</text></g></g></svg>