<svg width="330.09" viewBox="0 0 11003 5036" text-rendering="auto" stroke-width="1" stroke-opacity="1" stroke-miterlimit="10" stroke-linejoin="miter" stroke-linecap="square" stroke-dashoffset="0" stroke-dasharray="none" stroke="black" shape-rendering="auto" image-rendering="auto" height="151.08" font-weight="normal" font-style="normal" font-size="12" font-family="'Dialog'" fill-opacity="1" fill="black" color-rendering="auto" color-interpolation="auto" xmlns="http://www.w3.org/2000/svg"><g><g stroke="white" fill="white"><rect y="0" x="0" width="11003" stroke="none" height="5036"/></g><g transform="translate(32866,32758)" text-rendering="geometricPrecision" stroke-width="44" stroke-linejoin="round" stroke-linecap="round"><line y2="-29146" y1="-29668" x2="-26257" x1="-27164" fill="none"/><line y2="-29091" y1="-29484" x2="-26439" x1="-27120" fill="none"/><line y2="-29146" y1="-29668" x2="-28071" x1="-27164" fill="none"/><line y2="-30717" y1="-29668" x2="-27164" x1="-27164" fill="none"/><line y2="-29668" y1="-29146" x2="-25350" x1="-26257" fill="none"/><line y2="-29449" y1="-29146" x2="-28597" x1="-28071" fill="none"/><line y2="-29146" y1="-29562" x2="-29885" x1="-29166" fill="none"/><line y2="-29668" y1="-29146" x2="-30792" x1="-29885" fill="none"/><line y2="-28316" y1="-29146" x2="-28002" x1="-28002" fill="none"/><line y2="-28316" y1="-29146" x2="-28140" x1="-28140" fill="none"/><line y2="-30717" y1="-30717" x2="-26303" x1="-27164" fill="none"/><line y2="-30807" y1="-30807" x2="-26303" x1="-27164" fill="none"/><line y2="-30628" y1="-30628" x2="-26303" x1="-27161" fill="none"/><line y2="-30807" y1="-29668" x2="-25350" x1="-25350" fill="none"/><line y2="-30665" y1="-29810" x2="-25179" x1="-25179" fill="none"/><line y2="-29668" y1="-29099" x2="-25350" x1="-24362" fill="none"/><line y2="-31376" y1="-30807" x2="-24362" x1="-25350" fill="none"/><line y2="-29099" y1="-29668" x2="-24362" x1="-23379" fill="none"/><line y2="-29319" y1="-29744" x2="-24324" x1="-23587" fill="none"/><line y2="-30807" y1="-31376" x2="-23379" x1="-24362" fill="none"/><line y2="-30729" y1="-31156" x2="-23587" x1="-24324" fill="none"/><line y2="-29668" y1="-30807" x2="-23379" x1="-23379" fill="none"/><line y2="-32202" y1="-31376" x2="-24362" x1="-24362" fill="none"/><line y2="-31223" y1="-30807" x2="-22660" x1="-23379" fill="none"/><line y2="-29668" y1="-30807" x2="-30792" x1="-30792" fill="none"/><line y2="-29810" y1="-30665" x2="-30963" x1="-30963" fill="none"/><line y2="-29099" y1="-29668" x2="-31774" x1="-30792" fill="none"/><line y2="-30807" y1="-31376" x2="-30792" x1="-31774" fill="none"/><line y2="-29668" y1="-29099" x2="-32762" x1="-31774" fill="none"/><line y2="-29746" y1="-29319" x2="-32554" x1="-31815" fill="none"/><line y2="-31376" y1="-30807" x2="-31774" x1="-32762" fill="none"/><line y2="-31156" y1="-30729" x2="-31815" x1="-32554" fill="none"/><line y2="-30807" y1="-29668" x2="-32762" x1="-32762" fill="none"/><text y="-29489" xml:space="preserve" x="-29131" stroke="none" font-size="433.3333" font-family="sans-serif">NH</text><text y="-27918" xml:space="preserve" x="-28224" stroke="none" font-size="433.3333" font-family="sans-serif">O</text><text y="-30538" xml:space="preserve" x="-26268" stroke="none" font-size="433.3333" font-family="sans-serif">N</text><text y="-32242" xml:space="preserve" x="-24515" stroke="none" font-size="433.3333" font-family="sans-serif">OH</text><text y="-31150" xml:space="preserve" x="-22622" stroke="none" font-size="433.3333" font-family="sans-serif">OH</text><text y="-29616" xml:space="preserve" x="-26647" stroke="none" font-style="italic" font-size="313.3333" font-family="sans-serif">E</text></g></g></svg>