<svg width="198.96" viewBox="0 0 6632 7813" text-rendering="auto" stroke-width="1" stroke-opacity="1" stroke-miterlimit="10" stroke-linejoin="miter" stroke-linecap="square" stroke-dashoffset="0" stroke-dasharray="none" stroke="black" shape-rendering="auto" image-rendering="auto" height="234.39" font-weight="normal" font-style="normal" font-size="12" font-family="'Dialog'" fill-opacity="1" fill="black" color-rendering="auto" color-interpolation="auto" xmlns="http://www.w3.org/2000/svg"><g><g stroke="white" fill="white"><rect y="0" x="0" width="6632" stroke="none" height="7813"/></g><g transform="translate(32866,32758)" text-rendering="geometricPrecision" stroke-width="44" stroke-linejoin="round" stroke-linecap="round"><line y2="-28709" y1="-29278" x2="-29059" x1="-30041" fill="none"/><line y2="-28634" y1="-29062" x2="-29267" x1="-30004" fill="none"/><line y2="-29278" y1="-28709" x2="-30041" x1="-31029" fill="none"/><line y2="-27574" y1="-28709" x2="-29059" x1="-29059" fill="none"/><line y2="-28709" y1="-27574" x2="-31029" x1="-31029" fill="none"/><line y2="-28568" y1="-27716" x2="-30859" x1="-30859" fill="none"/><line y2="-27005" y1="-27574" x2="-30041" x1="-29059" fill="none"/><line y2="-27222" y1="-27649" x2="-30004" x1="-29267" fill="none"/><line y2="-27574" y1="-27005" x2="-31029" x1="-30041" fill="none"/><line y2="-29235" y1="-28709" x2="-28152" x1="-29059" fill="none"/><line y2="-25956" y1="-27005" x2="-30041" x1="-30041" fill="none"/><line y2="-30108" y1="-29278" x2="-30041" x1="-30041" fill="none"/><line y2="-30850" y1="-30434" x2="-30948" x1="-30229" fill="none"/><line y2="-28709" y1="-29235" x2="-27245" x1="-28152" fill="none"/><line y2="-29235" y1="-28709" x2="-26338" x1="-27245" fill="none"/><line y2="-30142" y1="-29235" x2="-27626" x1="-28152" fill="none"/><line y2="-30142" y1="-29235" x2="-28675" x1="-28152" fill="none"/><line y2="-25433" y1="-25956" x2="-30948" x1="-30041" fill="none"/><line y2="-25956" y1="-25433" x2="-31855" x1="-30948" fill="none"/><line y2="-25049" y1="-25956" x2="-29518" x1="-30041" fill="none"/><line y2="-25956" y1="-25956" x2="-28995" x1="-30041" fill="none"/><line y2="-30327" y1="-30850" x2="-31855" x1="-30948" fill="none"/><line y2="-30850" y1="-30327" x2="-32762" x1="-31855" fill="none"/><line y2="-31899" y1="-30850" x2="-30948" x1="-30948" fill="none"/><line y2="-32202" y1="-31899" x2="-31477" x1="-30948" fill="none"/><line y2="-32375" y1="-31959" x2="-30264" x1="-30983" fill="none"/><line y2="-32254" y1="-31838" x2="-30194" x1="-30914" fill="none"/><text y="-30148" xml:space="preserve" x="-30194" stroke="none" font-size="433.3333" font-family="sans-serif">O</text><text y="-32242" xml:space="preserve" x="-32008" stroke="none" font-size="433.3333" font-family="sans-serif">OH</text><text y="-32242" xml:space="preserve" x="-30194" stroke="none" font-size="433.3333" font-family="sans-serif">O</text></g></g></svg>