<svg width="219.03" viewBox="0 0 7301 5136" text-rendering="auto" stroke-width="1" stroke-opacity="1" stroke-miterlimit="10" stroke-linejoin="miter" stroke-linecap="square" stroke-dashoffset="0" stroke-dasharray="none" stroke="black" shape-rendering="auto" image-rendering="auto" height="154.08" font-weight="normal" font-style="normal" font-size="12" font-family="'Dialog'" fill-opacity="1" fill="black" color-rendering="auto" color-interpolation="auto" xmlns="http://www.w3.org/2000/svg"><g><g stroke="white" fill="white"><rect y="0" x="0" width="7301" stroke="none" height="5136"/></g><g transform="translate(32866,32866)" text-rendering="geometricPrecision" stroke-width="44" stroke-linejoin="round" stroke-linecap="round"><line y2="-29553" y1="-30128" x2="-29030" x1="-30012" fill="none"/><line y2="-30128" y1="-29553" x2="-30012" x1="-30994" fill="none"/><line y2="-29908" y1="-29478" x2="-30050" x1="-30786" fill="none"/><line y2="-28406" y1="-29553" x2="-29030" x1="-29030" fill="none"/><line y2="-28550" y1="-29411" x2="-29200" x1="-29200" fill="none"/><line y2="-30128" y1="-29553" x2="-28048" x1="-29030" fill="none"/><line y2="-29553" y1="-28406" x2="-30994" x1="-30994" fill="none"/><line y2="-27834" y1="-28406" x2="-30012" x1="-29030" fill="none"/><line y2="-28406" y1="-27834" x2="-29030" x1="-28048" fill="none"/><line y2="-29553" y1="-30128" x2="-27066" x1="-28048" fill="none"/><line y2="-29478" y1="-29908" x2="-27274" x1="-28010" fill="none"/><line y2="-28406" y1="-27834" x2="-30994" x1="-30012" fill="none"/><line y2="-28484" y1="-28054" x2="-30786" x1="-30050" fill="none"/><line y2="-27834" y1="-28406" x2="-28048" x1="-27066" fill="none"/><line y2="-28054" y1="-28484" x2="-28010" x1="-27274" fill="none"/><line y2="-28406" y1="-29553" x2="-27066" x1="-27066" fill="none"/><line y2="-31174" y1="-30128" x2="-30012" x1="-30012" fill="none"/><line y2="-29859" y1="-29553" x2="-31523" x1="-30994" fill="none"/><line y2="-31699" y1="-31174" x2="-30919" x1="-30012" fill="none"/><line y2="-31699" y1="-31174" x2="-29105" x1="-30012" fill="none"/><line y2="-31174" y1="-31699" x2="-28198" x1="-29105" fill="none"/><line y2="-31590" y1="-31174" x2="-27479" x1="-28198" fill="none"/><line y2="-31231" y1="-31480" x2="-26482" x1="-26912" fill="none"/><line y2="-31699" y1="-32762" x2="-30919" x1="-31249" fill="none"/><line y2="-31783" y1="-32578" x2="-31124" x1="-31370" fill="none"/><line y2="-31142" y1="-31699" x2="-31673" x1="-30919" fill="none"/><line y2="-32762" y1="-32762" x2="-31249" x1="-32393" fill="none"/><line y2="-31699" y1="-31148" x2="-32762" x1="-32049" fill="none"/><line y2="-32762" y1="-31699" x2="-32393" x1="-32762" fill="none"/><line y2="-32575" y1="-31777" x2="-32277" x1="-32554" fill="none"/><text y="-31520" xml:space="preserve" x="-27444" stroke="none" font-size="433.3333" font-family="sans-serif">NH</text><text y="-30942" xml:space="preserve" x="-26444" stroke="none" font-size="433.3333" font-family="sans-serif">CH</text><text y="-30853" xml:space="preserve" x="-25867" stroke="none" font-size="313.3333" font-family="sans-serif">3</text><text y="-29900" xml:space="preserve" x="-32055" stroke="none" font-size="433.3333" font-family="sans-serif">OH</text><text y="-30824" xml:space="preserve" x="-32014" stroke="none" font-size="433.3333" font-family="sans-serif">S</text></g></g></svg>