<svg width="275.91" viewBox="0 0 9197 12210" text-rendering="auto" stroke-width="1" stroke-opacity="1" stroke-miterlimit="10" stroke-linejoin="miter" stroke-linecap="square" stroke-dashoffset="0" stroke-dasharray="none" stroke="black" shape-rendering="auto" image-rendering="auto" height="366.3" font-weight="normal" font-style="normal" font-size="12" font-family="'Dialog'" fill-opacity="1" fill="black" color-rendering="auto" color-interpolation="auto" xmlns="http://www.w3.org/2000/svg"><g><g stroke="white" fill="white"><rect y="0" x="0" width="9197" stroke="none" height="12210"/></g><g transform="translate(32866,32758)" text-rendering="geometricPrecision" stroke-width="44" stroke-linejoin="round" stroke-linecap="round"><line y2="-25823" y1="-24624" x2="-26017" x1="-26017" fill="none"/><line y2="-24026" y1="-24624" x2="-27051" x1="-26017" fill="none"/><line y2="-24249" y1="-24697" x2="-27008" x1="-26231" fill="none"/><line y2="-24624" y1="-24624" x2="-26017" x1="-23943" fill="none"/><line y2="-26314" y1="-25823" x2="-25165" x1="-26017" fill="none"/><line y2="-25823" y1="-26421" x2="-26017" x1="-27051" fill="none"/><line y2="-25751" y1="-26199" x2="-26231" x1="-27008" fill="none"/><line y2="-24624" y1="-24026" x2="-28091" x1="-27051" fill="none"/><line y2="-24624" y1="-25604" x2="-23943" x1="-23943" fill="none"/><line y2="-24763" y1="-25480" x2="-24110" x1="-24110" fill="none"/><line y2="-25930" y1="-26312" x2="-24130" x1="-24789" fill="none"/><line y2="-26421" y1="-25823" x2="-27051" x1="-28091" fill="none"/><line y2="-25823" y1="-24624" x2="-28091" x1="-28091" fill="none"/><line y2="-25673" y1="-24775" x2="-27921" x1="-27921" fill="none"/><line y2="-26346" y1="-25823" x2="-28998" x1="-28091" fill="none"/><line y2="-22978" y1="-24026" x2="-27051" x1="-27051" fill="none"/><line y2="-27470" y1="-26641" x2="-24977" x1="-24977" fill="none"/><line y2="-26346" y1="-27484" x2="-28998" x1="-28998" fill="none"/><line y2="-25777" y1="-26346" x2="-29983" x1="-28998" fill="none"/><line y2="-25997" y1="-26424" x2="-29946" x1="-29206" fill="none"/><line y2="-27484" y1="-28054" x2="-28998" x1="-29983" fill="none"/><line y2="-27406" y1="-27834" x2="-29206" x1="-29946" fill="none"/><line y2="-26346" y1="-25777" x2="-30968" x1="-29983" fill="none"/><line y2="-28054" y1="-27591" x2="-29983" x1="-30781" fill="none"/><line y2="-27265" y1="-26346" x2="-30968" x1="-30968" fill="none"/><line y2="-27149" y1="-26462" x2="-30798" x1="-30798" fill="none"/><line y2="-28880" y1="-28054" x2="-29983" x1="-29983" fill="none"/><line y2="-22674" y1="-22978" x2="-27580" x1="-27051" fill="none"/><line y2="-22978" y1="-22565" x2="-28865" x1="-28146" fill="none"/><line y2="-22455" y1="-22978" x2="-29772" x1="-28865" fill="none"/><line y2="-22625" y1="-23038" x2="-26297" x1="-27016" fill="none"/><line y2="-22501" y1="-22917" x2="-26366" x1="-27086" fill="none"/><line y2="-27993" y1="-27470" x2="-25884" x1="-24977" fill="none"/><line y2="-27993" y1="-27470" x2="-24070" x1="-24977" fill="none"/><line y2="-29668" y1="-29209" x2="-30971" x1="-30174" fill="none"/><line y2="-29209" y1="-29668" x2="-29796" x1="-29001" fill="none"/><line y2="-30807" y1="-29668" x2="-30971" x1="-30971" fill="none"/><line y2="-29668" y1="-30807" x2="-29001" x1="-29001" fill="none"/><line y2="-31266" y1="-30807" x2="-30174" x1="-30971" fill="none"/><line y2="-30807" y1="-31266" x2="-29001" x1="-29796" fill="none"/><line y2="-32202" y1="-31595" x2="-29983" x1="-29983" fill="none"/><line y2="-21253" y1="-22455" x2="-29772" x1="-29772" fill="none"/><line y2="-21403" y1="-22305" x2="-29943" x1="-29943" fill="none"/><line y2="-22455" y1="-23056" x2="-29772" x1="-30815" fill="none"/><line y2="-20652" y1="-21253" x2="-30815" x1="-29772" fill="none"/><line y2="-23056" y1="-22674" x2="-30815" x1="-31474" fill="none"/><line y2="-21253" y1="-20652" x2="-31855" x1="-30815" fill="none"/><line y2="-21325" y1="-20875" x2="-31639" x1="-30862" fill="none"/><line y2="-22235" y1="-21253" x2="-31855" x1="-31855" fill="none"/><line y2="-20730" y1="-21253" x2="-28865" x1="-29772" fill="none"/><line y2="-21253" y1="-20730" x2="-27958" x1="-28865" fill="none"/><line y2="-20730" y1="-21253" x2="-27051" x1="-27958" fill="none"/><line y2="-20730" y1="-21253" x2="-32762" x1="-31855" fill="none"/><line y2="-23885" y1="-23056" x2="-30885" x1="-30885" fill="none"/><line y2="-23885" y1="-23056" x2="-30746" x1="-30746" fill="none"/><text y="-22276" xml:space="preserve" x="-28111" stroke="none" font-size="433.3333" font-family="sans-serif">NH</text><text y="-22276" xml:space="preserve" x="-26297" stroke="none" font-size="433.3333" font-family="sans-serif">O</text><text y="-23925" xml:space="preserve" x="-30968" stroke="none" font-size="433.3333" font-family="sans-serif">O</text><text y="-32242" xml:space="preserve" x="-30136" stroke="none" font-size="433.3333" font-family="sans-serif">CH</text><text y="-32153" xml:space="preserve" x="-29559" stroke="none" font-size="313.3333" font-family="sans-serif">3</text><text y="-26242" xml:space="preserve" x="-25130" stroke="none" font-size="433.3333" font-family="sans-serif">N</text><text y="-25644" xml:space="preserve" x="-24093" stroke="none" font-size="433.3333" font-family="sans-serif">N</text><text y="-27305" xml:space="preserve" x="-31122" stroke="none" font-size="433.3333" font-family="sans-serif">N</text><text y="-22276" xml:space="preserve" x="-32006" stroke="none" font-size="433.3333" font-family="sans-serif">NH</text><text y="-28920" xml:space="preserve" x="-30136" stroke="none" font-size="433.3333" font-family="sans-serif">N</text><text y="-31197" xml:space="preserve" x="-30136" stroke="none" font-size="433.3333" font-family="sans-serif">N</text></g></g></svg>