<svg width="323.7" viewBox="0 0 10790 4393" text-rendering="auto" stroke-width="1" stroke-opacity="1" stroke-miterlimit="10" stroke-linejoin="miter" stroke-linecap="square" stroke-dashoffset="0" stroke-dasharray="none" stroke="black" shape-rendering="auto" image-rendering="auto" height="131.79" font-weight="normal" font-style="normal" font-size="12" font-family="'Dialog'" fill-opacity="1" fill="black" color-rendering="auto" color-interpolation="auto" xmlns="http://www.w3.org/2000/svg"><g><g stroke="white" fill="white"><rect y="0" x="0" width="10790" stroke="none" height="4393"/></g><g transform="translate(32866,32866)" text-rendering="geometricPrecision" stroke-width="44" stroke-linejoin="round" stroke-linecap="round"><line y2="-30518" y1="-31044" x2="-26109" x1="-27016" fill="none"/><line y2="-30737" y1="-31044" x2="-27545" x1="-27016" fill="none"/><line y2="-31044" y1="-30628" x2="-28831" x1="-28111" fill="none"/><line y2="-31873" y1="-31044" x2="-27086" x1="-27086" fill="none"/><line y2="-31873" y1="-31044" x2="-26947" x1="-26947" fill="none"/><line y2="-29374" y1="-30518" x2="-24145" x1="-24145" fill="none"/><line y2="-29515" y1="-30376" x2="-24315" x1="-24315" fill="none"/><line y2="-30518" y1="-31093" x2="-24145" x1="-25127" fill="none"/><line y2="-31093" y1="-30518" x2="-23163" x1="-24145" fill="none"/><line y2="-28799" y1="-29374" x2="-25127" x1="-24145" fill="none"/><line y2="-29374" y1="-28799" x2="-24145" x1="-23163" fill="none"/><line y2="-31093" y1="-30518" x2="-25127" x1="-26109" fill="none"/><line y2="-30873" y1="-30443" x2="-25165" x1="-25901" fill="none"/><line y2="-30518" y1="-31093" x2="-22180" x1="-23163" fill="none"/><line y2="-30443" y1="-30873" x2="-22388" x1="-23125" fill="none"/><line y2="-29374" y1="-28799" x2="-26109" x1="-25127" fill="none"/><line y2="-29449" y1="-29018" x2="-25901" x1="-25165" fill="none"/><line y2="-28799" y1="-29374" x2="-23163" x1="-22180" fill="none"/><line y2="-29018" y1="-29449" x2="-23125" x1="-22388" fill="none"/><line y2="-30518" y1="-29374" x2="-26109" x1="-26109" fill="none"/><line y2="-29374" y1="-30518" x2="-22180" x1="-22180" fill="none"/><line y2="-29068" y1="-29374" x2="-26638" x1="-26109" fill="none"/><line y2="-30469" y1="-31044" x2="-29813" x1="-28831" fill="none"/><line y2="-30688" y1="-31119" x2="-29778" x1="-29039" fill="none"/><line y2="-31044" y1="-32190" x2="-28831" x1="-28831" fill="none"/><line y2="-31044" y1="-30469" x2="-30795" x1="-29813" fill="none"/><line y2="-32190" y1="-32762" x2="-28831" x1="-29813" fill="none"/><line y2="-32115" y1="-32543" x2="-29039" x1="-29778" fill="none"/><line y2="-32190" y1="-31044" x2="-30795" x1="-30795" fill="none"/><line y2="-32046" y1="-31185" x2="-30625" x1="-30625" fill="none"/><line y2="-30469" y1="-31044" x2="-31777" x1="-30795" fill="none"/><line y2="-32762" y1="-32190" x2="-29813" x1="-30795" fill="none"/><line y2="-32190" y1="-32762" x2="-30795" x1="-31777" fill="none"/><line y2="-31044" y1="-30469" x2="-32762" x1="-31777" fill="none"/><line y2="-31119" y1="-30688" x2="-32552" x1="-31815" fill="none"/><line y2="-32762" y1="-32190" x2="-31777" x1="-32762" fill="none"/><line y2="-32543" y1="-32115" x2="-31815" x1="-32552" fill="none"/><line y2="-32190" y1="-31044" x2="-32762" x1="-32762" fill="none"/><text y="-30339" xml:space="preserve" x="-28077" stroke="none" font-size="433.3333" font-family="sans-serif">NH</text><text y="-31913" xml:space="preserve" x="-27170" stroke="none" font-size="433.3333" font-family="sans-serif">O</text><text y="-28669" xml:space="preserve" x="-27170" stroke="none" font-size="433.3333" font-family="sans-serif">OH</text></g></g></svg>