<svg width="408.66" viewBox="0 0 13622 6654" text-rendering="auto" stroke-width="1" stroke-opacity="1" stroke-miterlimit="10" stroke-linejoin="miter" stroke-linecap="square" stroke-dashoffset="0" stroke-dasharray="none" stroke="black" shape-rendering="auto" image-rendering="auto" height="199.62" font-weight="normal" font-style="normal" font-size="12" font-family="'Dialog'" fill-opacity="1" fill="black" color-rendering="auto" color-interpolation="auto" xmlns="http://www.w3.org/2000/svg"><g><g stroke="white" fill="white"><rect y="0" x="0" width="13622" stroke="none" height="6654"/></g><g transform="translate(32866,32758)" text-rendering="geometricPrecision" stroke-width="44" stroke-linejoin="round" stroke-linecap="round"><line y2="-30235" y1="-30804" x2="-25026" x1="-26008" fill="none"/><line y2="-29096" y1="-30235" x2="-25026" x1="-25026" fill="none"/><line y2="-30804" y1="-30235" x2="-26008" x1="-26996" fill="none"/><line y2="-28530" y1="-29096" x2="-26008" x1="-25026" fill="none"/><line y2="-30235" y1="-29096" x2="-26996" x1="-26996" fill="none"/><line y2="-29096" y1="-28530" x2="-26996" x1="-26008" fill="none"/><line y2="-27929" y1="-29096" x2="-28978" x1="-26996" fill="none"/><line y2="-31896" y1="-30758" x2="-24119" x1="-24119" fill="none"/><line y2="-31754" y1="-30902" x2="-23948" x1="-23948" fill="none"/><line y2="-30758" y1="-30191" x2="-24119" x1="-23131" fill="none"/><line y2="-32465" y1="-31896" x2="-23131" x1="-24119" fill="none"/><line y2="-30191" y1="-30758" x2="-23131" x1="-22149" fill="none"/><line y2="-30408" y1="-30836" x2="-23093" x1="-22357" fill="none"/><line y2="-31896" y1="-32465" x2="-22149" x1="-23131" fill="none"/><line y2="-31821" y1="-32248" x2="-22357" x1="-23093" fill="none"/><line y2="-30758" y1="-31896" x2="-22149" x1="-22149" fill="none"/><line y2="-32312" y1="-31896" x2="-21429" x1="-22149" fill="none"/><line y2="-31896" y1="-32312" x2="-20334" x1="-21054" fill="none"/><line y2="-26791" y1="-27929" x2="-28978" x1="-28978" fill="none"/><line y2="-27929" y1="-28496" x2="-28978" x1="-29963" fill="none"/><line y2="-26222" y1="-26791" x2="-29963" x1="-28978" fill="none"/><line y2="-28496" y1="-27929" x2="-29963" x1="-30948" fill="none"/><line y2="-26791" y1="-26222" x2="-30948" x1="-29963" fill="none"/><line y2="-27929" y1="-26791" x2="-30948" x1="-30948" fill="none"/><line y2="-26791" y1="-26268" x2="-32762" x1="-31855" fill="none"/><line y2="-32312" y1="-31896" x2="-19615" x1="-20334" fill="none"/><line y2="-31208" y1="-31896" x2="-19936" x1="-20334" fill="none"/><line y2="-31208" y1="-31896" x2="-20733" x1="-20334" fill="none"/><line y2="-30700" y1="-30818" x2="-24084" x1="-24154" fill="none"/><line y2="-30604" y1="-30697" x2="-24279" x1="-24334" fill="none"/><line y2="-30508" y1="-30577" x2="-24474" x1="-24515" fill="none"/><line y2="-30411" y1="-30456" x2="-24669" x1="-24695" fill="none"/><line y2="-30315" y1="-30336" x2="-24863" x1="-24875" fill="none"/><line y2="-28267" y1="-28270" x2="-27066" x1="-26927" fill="none"/><line y2="-28484" y1="-28486" x2="-27048" x1="-26945" fill="none"/><line y2="-28701" y1="-28703" x2="-27029" x1="-26963" fill="none"/><line y2="-28918" y1="-28919" x2="-27011" x1="-26981" fill="none"/><line y2="-26326" y1="-26208" x2="-31890" x1="-31821" fill="none"/><line y2="-26422" y1="-26329" x2="-31695" x1="-31640" fill="none"/><line y2="-26518" y1="-26449" x2="-31500" x1="-31460" fill="none"/><line y2="-26614" y1="-26570" x2="-31306" x1="-31279" fill="none"/><line y2="-26711" y1="-26690" x2="-31111" x1="-31099" fill="none"/><line y2="-27453" y1="-27571" x2="-28293" x1="-28224" fill="none"/><line y2="-27577" y1="-27664" x2="-28471" x1="-28420" fill="none"/><line y2="-27701" y1="-27758" x2="-28650" x1="-28617" fill="none"/><line y2="-27825" y1="-27851" x2="-28828" x1="-28813" fill="none"/><text y="-32242" xml:space="preserve" x="-21395" stroke="none" font-size="433.3333" font-family="sans-serif">O</text><text y="-32242" xml:space="preserve" x="-19580" stroke="none" font-size="433.3333" font-family="sans-serif">F</text><text y="-30810" xml:space="preserve" x="-19962" stroke="none" font-size="433.3333" font-family="sans-serif">F</text><text y="-30810" xml:space="preserve" x="-21010" stroke="none" font-size="433.3333" font-family="sans-serif">F</text><text y="-27872" xml:space="preserve" x="-27149" stroke="none" font-size="433.3333" font-family="sans-serif">H</text><text y="-27224" xml:space="preserve" x="-28224" stroke="none" font-size="433.3333" font-family="sans-serif">H</text></g></g></svg>