<svg width="251.04" viewBox="0 0 8368 4051" text-rendering="auto" stroke-width="1" stroke-opacity="1" stroke-miterlimit="10" stroke-linejoin="miter" stroke-linecap="square" stroke-dashoffset="0" stroke-dasharray="none" stroke="black" shape-rendering="auto" image-rendering="auto" height="121.53" font-weight="normal" font-style="normal" font-size="12" font-family="'Dialog'" fill-opacity="1" fill="black" color-rendering="auto" color-interpolation="auto" xmlns="http://www.w3.org/2000/svg"><g><g stroke="white" fill="white"><rect y="0" x="0" width="8368" stroke="none" height="4051"/></g><g transform="translate(32866,32758)" text-rendering="geometricPrecision" stroke-width="44" stroke-linejoin="round" stroke-linecap="round"><line y2="-31850" y1="-30703" x2="-28548" x1="-28548" fill="none"/><line y2="-31705" y1="-30847" x2="-28377" x1="-28377" fill="none"/><line y2="-30703" y1="-30131" x2="-28548" x1="-27565" fill="none"/><line y2="-30131" y1="-30703" x2="-29530" x1="-28548" fill="none"/><line y2="-32312" y1="-31850" x2="-27753" x1="-28548" fill="none"/><line y2="-31850" y1="-32422" x2="-28548" x1="-29530" fill="none"/><line y2="-30131" y1="-30703" x2="-27565" x1="-26583" fill="none"/><line y2="-30347" y1="-30778" x2="-27531" x1="-26791" fill="none"/><line y2="-30703" y1="-30131" x2="-30515" x1="-29530" fill="none"/><line y2="-30778" y1="-30347" x2="-30304" x1="-29567" fill="none"/><line y2="-31850" y1="-32312" x2="-26583" x1="-27378" fill="none"/><line y2="-31760" y1="-32107" x2="-26768" x1="-27366" fill="none"/><line y2="-32422" y1="-31850" x2="-29530" x1="-30515" fill="none"/><line y2="-32205" y1="-31774" x2="-29567" x1="-30304" fill="none"/><line y2="-30703" y1="-31850" x2="-26583" x1="-26583" fill="none"/><line y2="-31850" y1="-30703" x2="-30515" x1="-30515" fill="none"/><line y2="-30180" y1="-30703" x2="-25676" x1="-26583" fill="none"/><line y2="-30287" y1="-30703" x2="-31231" x1="-30515" fill="none"/><line y2="-30535" y1="-30287" x2="-32037" x1="-31610" fill="none"/><line y2="-29302" y1="-30131" x2="-27565" x1="-27565" fill="none"/><line y2="-29764" y1="-30180" x2="-24957" x1="-25676" fill="none"/><line y2="-29842" y1="-30258" x2="-24913" x1="-25633" fill="none"/><line y2="-29686" y1="-30102" x2="-25003" x1="-25722" fill="none"/><text y="-28903" xml:space="preserve" x="-27796" stroke="none" font-size="433.3333" font-family="sans-serif">Cl</text><text y="-29475" xml:space="preserve" x="-24922" stroke="none" font-size="433.3333" font-family="sans-serif">N</text><text y="-30001" xml:space="preserve" x="-31572" stroke="none" font-size="433.3333" font-family="sans-serif">O</text><text y="-30685" xml:space="preserve" x="-32762" stroke="none" font-size="433.3333" font-family="sans-serif">CH</text><text y="-30596" xml:space="preserve" x="-32185" stroke="none" font-size="313.3333" font-family="sans-serif">3</text><text y="-32242" xml:space="preserve" x="-27718" stroke="none" font-size="433.3333" font-family="sans-serif">N</text></g></g></svg>