<svg width="446.07" viewBox="0 0 14869 5378" text-rendering="auto" stroke-width="1" stroke-opacity="1" stroke-miterlimit="10" stroke-linejoin="miter" stroke-linecap="square" stroke-dashoffset="0" stroke-dasharray="none" stroke="black" shape-rendering="auto" image-rendering="auto" height="161.34" font-weight="normal" font-style="normal" font-size="12" font-family="'Dialog'" fill-opacity="1" fill="black" color-rendering="auto" color-interpolation="auto" xmlns="http://www.w3.org/2000/svg"><g><g stroke="white" fill="white"><rect y="0" x="0" width="14869" stroke="none" height="5378"/></g><g transform="translate(32866,32758)" text-rendering="geometricPrecision" stroke-width="44" stroke-linejoin="round" stroke-linecap="round"><line y2="-29637" y1="-30850" x2="-25589" x1="-25589" fill="none"/><line y2="-29790" y1="-30700" x2="-25760" x1="-25760" fill="none"/><line y2="-30850" y1="-31240" x2="-25589" x1="-26260" fill="none"/><line y2="-29637" y1="-29637" x2="-27695" x1="-25589" fill="none"/><line y2="-31350" y1="-30850" x2="-26826" x1="-27695" fill="none"/><line y2="-30850" y1="-29637" x2="-27695" x1="-27695" fill="none"/><line y2="-29030" y1="-29637" x2="-28744" x1="-27695" fill="none"/><line y2="-29252" y1="-29706" x2="-28698" x1="-27912" fill="none"/><line y2="-30850" y1="-31457" x2="-27695" x1="-28744" fill="none"/><line y2="-30781" y1="-31234" x2="-27912" x1="-28698" fill="none"/><line y2="-29637" y1="-29030" x2="-29798" x1="-28744" fill="none"/><line y2="-31457" y1="-30850" x2="-28744" x1="-29798" fill="none"/><line y2="-30850" y1="-29637" x2="-29798" x1="-29798" fill="none"/><line y2="-30700" y1="-29790" x2="-29628" x1="-29628" fill="none"/><line y2="-31376" y1="-30850" x2="-24682" x1="-25589" fill="none"/><line y2="-29333" y1="-29637" x2="-30327" x1="-29798" fill="none"/><line y2="-29527" y1="-29221" x2="-31425" x1="-30893" fill="none"/><line y2="-30960" y1="-31376" x2="-23963" x1="-24682" fill="none"/><line y2="-32202" y1="-31376" x2="-24752" x1="-24752" fill="none"/><line y2="-32202" y1="-31376" x2="-24613" x1="-24613" fill="none"/><line y2="-29281" y1="-29527" x2="-32231" x1="-31803" fill="none"/><line y2="-30290" y1="-29822" x2="-32072" x1="-31800" fill="none"/><line y2="-30359" y1="-29891" x2="-31951" x1="-31679" fill="none"/><line y2="-30359" y1="-29891" x2="-31278" x1="-31549" fill="none"/><line y2="-30290" y1="-29822" x2="-31156" x1="-31428" fill="none"/><line y2="-29146" y1="-29605" x2="-22787" x1="-21993" fill="none"/><line y2="-29934" y1="-30850" x2="-21805" x1="-21805" fill="none"/><line y2="-29715" y1="-29146" x2="-23775" x1="-22787" fill="none"/><line y2="-30850" y1="-31419" x2="-21805" x1="-22787" fill="none"/><line y2="-30630" y1="-29715" x2="-23775" x1="-23775" fill="none"/><line y2="-31419" y1="-30960" x2="-22787" x1="-23587" fill="none"/><line y2="-29189" y1="-29605" x2="-20898" x1="-21617" fill="none"/><line y2="-29758" y1="-29189" x2="-19916" x1="-20898" fill="none"/><line y2="-29541" y1="-29114" x2="-19953" x1="-20690" fill="none"/><line y2="-29189" y1="-28273" x2="-20898" x1="-20898" fill="none"/><line y2="-29189" y1="-29758" x2="-18928" x1="-19916" fill="none"/><line y2="-27944" y1="-27484" x2="-20710" x1="-19916" fill="none"/><line y2="-28033" y1="-27687" x2="-20525" x1="-19930" fill="none"/><line y2="-28054" y1="-29189" x2="-18928" x1="-18928" fill="none"/><line y2="-28195" y1="-29047" x2="-19098" x1="-19098" fill="none"/><line y2="-27484" y1="-28054" x2="-19916" x1="-18928" fill="none"/><line y2="-30587" y1="-29758" x2="-19916" x1="-19916" fill="none"/><line y2="-31330" y1="-31026" x2="-19008" x1="-19534" fill="none"/><line y2="-30807" y1="-31330" x2="-18101" x1="-19008" fill="none"/><line y2="-32378" y1="-31330" x2="-19008" x1="-19008" fill="none"/><text y="-30628" xml:space="preserve" x="-20066" stroke="none" font-size="433.3333" font-family="sans-serif">NH</text><text y="-32242" xml:space="preserve" x="-24835" stroke="none" font-size="433.3333" font-family="sans-serif">O</text><text y="-28935" xml:space="preserve" x="-30859" stroke="none" font-size="433.3333" font-family="sans-serif">NH</text><text y="-29458" xml:space="preserve" x="-31766" stroke="none" font-size="433.3333" font-family="sans-serif">S</text><text y="-28883" xml:space="preserve" x="-32762" stroke="none" font-size="433.3333" font-family="sans-serif">CH</text><text y="-28793" xml:space="preserve" x="-32185" stroke="none" font-size="313.3333" font-family="sans-serif">3</text><text y="-30365" xml:space="preserve" x="-32289" stroke="none" font-size="433.3333" font-family="sans-serif">O</text><text y="-30365" xml:space="preserve" x="-31243" stroke="none" font-size="433.3333" font-family="sans-serif">O</text><text y="-27874" xml:space="preserve" x="-21051" stroke="none" font-size="433.3333" font-family="sans-serif">N</text><text y="-29536" xml:space="preserve" x="-21958" stroke="none" font-size="433.3333" font-family="sans-serif">N</text><text y="-30671" xml:space="preserve" x="-23928" stroke="none" font-size="433.3333" font-family="sans-serif">N</text><text y="-31278" xml:space="preserve" x="-26791" stroke="none" font-size="433.3333" font-family="sans-serif">NH</text></g></g></svg>