<svg width="153.84" viewBox="0 0 5128 5706" text-rendering="auto" stroke-width="1" stroke-opacity="1" stroke-miterlimit="10" stroke-linejoin="miter" stroke-linecap="square" stroke-dashoffset="0" stroke-dasharray="none" stroke="black" shape-rendering="auto" image-rendering="auto" height="171.18" font-weight="normal" font-style="normal" font-size="12" font-family="'Dialog'" fill-opacity="1" fill="black" color-rendering="auto" color-interpolation="auto" xmlns="http://www.w3.org/2000/svg"><g><g stroke="white" fill="white"><rect y="0" x="0" width="5128" stroke="none" height="5706"/></g><g transform="translate(32866,32758)" text-rendering="geometricPrecision" stroke-width="44" stroke-linejoin="round" stroke-linecap="round"><line y2="-28493" y1="-29042" x2="-30922" x1="-31633" fill="none"/><line y2="-29047" y1="-28493" x2="-32008" x1="-32762" fill="none"/><line y2="-27646" y1="-28493" x2="-31214" x1="-30922" fill="none"/><line y2="-28493" y1="-27427" x2="-32762" x1="-32436" fill="none"/><line y2="-27427" y1="-27427" x2="-32436" x1="-31477" fill="none"/><line y2="-28966" y1="-28553" x2="-30238" x1="-30957" fill="none"/><line y2="-28845" y1="-28429" x2="-30168" x1="-30888" fill="none"/><line y2="-30235" y1="-29406" x2="-31821" x1="-31821" fill="none"/><line y2="-30758" y1="-30235" x2="-30914" x1="-31821" fill="none"/><line y2="-28600" y1="-28906" x2="-29296" x1="-29827" fill="none"/><line y2="-31896" y1="-30758" x2="-30914" x1="-30914" fill="none"/><line y2="-30758" y1="-30191" x2="-30914" x1="-29928" fill="none"/><line y2="-30836" y1="-30408" x2="-30706" x1="-29966" fill="none"/><line y2="-32465" y1="-31896" x2="-29928" x1="-30914" fill="none"/><line y2="-32245" y1="-31821" x2="-29966" x1="-30706" fill="none"/><line y2="-30191" y1="-30651" x2="-29928" x1="-29131" fill="none"/><line y2="-31896" y1="-32465" x2="-28943" x1="-29928" fill="none"/><line y2="-30977" y1="-31896" x2="-28943" x1="-28943" fill="none"/><line y2="-31093" y1="-31780" x2="-29114" x1="-29114" fill="none"/><line y2="-32225" y1="-31896" x2="-28377" x1="-28943" fill="none"/><line y2="-27664" y1="-28273" x2="-29036" x1="-29036" fill="none"/><line y2="-27664" y1="-28273" x2="-29177" x1="-29177" fill="none"/><line y2="-28966" y1="-28660" x2="-28423" x1="-28955" fill="none"/><line y2="-28845" y1="-28539" x2="-28354" x1="-28883" fill="none"/><text y="-28836" xml:space="preserve" x="-30165" stroke="none" font-size="433.3333" font-family="sans-serif">N</text><text y="-28314" xml:space="preserve" x="-29258" stroke="none" font-size="433.3333" font-family="sans-serif">N</text><text y="-27265" xml:space="preserve" x="-29258" stroke="none" font-size="433.3333" font-family="sans-serif">O</text><text y="-28836" xml:space="preserve" x="-28351" stroke="none" font-size="433.3333" font-family="sans-serif">O</text><text y="-32242" xml:space="preserve" x="-28267" stroke="none" font-size="433.3333" font-family="sans-serif">Cl</text><text y="-29007" xml:space="preserve" x="-31974" stroke="none" font-size="433.3333" font-family="sans-serif">N</text><text y="-27248" xml:space="preserve" x="-31442" stroke="none" font-size="433.3333" font-family="sans-serif">NH</text><text y="-30578" xml:space="preserve" x="-29096" stroke="none" font-size="433.3333" font-family="sans-serif">N</text><text y="-28134" xml:space="preserve" x="-30492" stroke="none" font-style="italic" font-size="313.3333" font-family="sans-serif">E</text></g></g></svg>