<svg width="403.41" viewBox="0 0 13447 10241" text-rendering="auto" stroke-width="1" stroke-opacity="1" stroke-miterlimit="10" stroke-linejoin="miter" stroke-linecap="square" stroke-dashoffset="0" stroke-dasharray="none" stroke="black" shape-rendering="auto" image-rendering="auto" height="307.23" font-weight="normal" font-style="normal" font-size="12" font-family="'Dialog'" fill-opacity="1" fill="black" color-rendering="auto" color-interpolation="auto" xmlns="http://www.w3.org/2000/svg"><g><g stroke="white" fill="white"><rect y="0" x="0" width="13447" stroke="none" height="10241"/></g><g transform="translate(32866,32866)" text-rendering="geometricPrecision" stroke-width="44" stroke-linejoin="round" stroke-linecap="round"><line y2="-26676" y1="-27245" x2="-26104" x1="-27086" fill="none"/><line y2="-25540" y1="-26676" x2="-26104" x1="-26104" fill="none"/><line y2="-27245" y1="-26676" x2="-27086" x1="-28074" fill="none"/><line y2="-24971" y1="-25540" x2="-27086" x1="-26104" fill="none"/><line y2="-26676" y1="-25540" x2="-28074" x1="-28074" fill="none"/><line y2="-25540" y1="-24971" x2="-28074" x1="-27086" fill="none"/><line y2="-26676" y1="-26982" x2="-24289" x1="-24818" fill="none"/><line y2="-28816" y1="-28400" x2="-27993" x1="-27274" fill="none"/><line y2="-27201" y1="-26676" x2="-23382" x1="-24289" fill="none"/><line y2="-25849" y1="-26676" x2="-24220" x1="-24220" fill="none"/><line y2="-25849" y1="-26676" x2="-24359" x1="-24359" fill="none"/><line y2="-28293" y1="-28816" x2="-28900" x1="-27993" fill="none"/><line y2="-29645" y1="-28816" x2="-28065" x1="-28065" fill="none"/><line y2="-29645" y1="-28816" x2="-27924" x1="-27924" fill="none"/><line y2="-27201" y1="-26632" x2="-23382" x1="-22400" fill="none"/><line y2="-27276" y1="-26849" x2="-23174" x1="-22438" fill="none"/><line y2="-26632" y1="-27201" x2="-22400" x1="-21412" fill="none"/><line y2="-28337" y1="-27201" x2="-23382" x1="-23382" fill="none"/><line y2="-27201" y1="-28337" x2="-21412" x1="-21412" fill="none"/><line y2="-27343" y1="-28195" x2="-21582" x1="-21582" fill="none"/><line y2="-28906" y1="-28337" x2="-22400" x1="-23382" fill="none"/><line y2="-28689" y1="-28262" x2="-22438" x1="-23174" fill="none"/><line y2="-28337" y1="-28906" x2="-21412" x1="-22400" fill="none"/><line y2="-25179" y1="-26632" x2="-22400" x1="-22400" fill="none"/><line y2="-28293" y1="-28862" x2="-28900" x1="-29885" fill="none"/><line y2="-28215" y1="-28643" x2="-29108" x1="-29848" fill="none"/><line y2="-27155" y1="-28293" x2="-28900" x1="-28900" fill="none"/><line y2="-28862" y1="-28293" x2="-29885" x1="-30870" fill="none"/><line y2="-26586" y1="-27155" x2="-29885" x1="-28900" fill="none"/><line y2="-26806" y1="-27230" x2="-29848" x1="-29108" fill="none"/><line y2="-28293" y1="-27155" x2="-30870" x1="-30870" fill="none"/><line y2="-28152" y1="-27297" x2="-30703" x1="-30703" fill="none"/><line y2="-27155" y1="-26586" x2="-30870" x1="-29885" fill="none"/><line y2="-30313" y1="-28862" x2="-29885" x1="-29885" fill="none"/><line y2="-24437" y1="-24853" x2="-21493" x1="-22209" fill="none"/><line y2="-24437" y1="-24853" x2="-23307" x1="-22588" fill="none"/><line y2="-31055" y1="-30642" x2="-30792" x1="-30073" fill="none"/><line y2="-31055" y1="-30642" x2="-28978" x1="-29697" fill="none"/><line y2="-24437" y1="-23298" x2="-21493" x1="-21493" fill="none"/><line y2="-24295" y1="-23443" x2="-21322" x1="-21322" fill="none"/><line y2="-25006" y1="-24437" x2="-20505" x1="-21493" fill="none"/><line y2="-23298" y1="-22729" x2="-21493" x1="-20505" fill="none"/><line y2="-24437" y1="-25006" x2="-19523" x1="-20505" fill="none"/><line y2="-24362" y1="-24786" x2="-19728" x1="-20467" fill="none"/><line y2="-22729" y1="-23298" x2="-20505" x1="-19523" fill="none"/><line y2="-22949" y1="-23376" x2="-20467" x1="-19728" fill="none"/><line y2="-23298" y1="-24437" x2="-19523" x1="-19523" fill="none"/><line y2="-24437" y1="-25006" x2="-23307" x1="-24289" fill="none"/><line y2="-24362" y1="-24786" x2="-23512" x1="-24252" fill="none"/><line y2="-23298" y1="-24437" x2="-23307" x1="-23307" fill="none"/><line y2="-25006" y1="-24437" x2="-24289" x1="-25277" fill="none"/><line y2="-22729" y1="-23298" x2="-24289" x1="-23307" fill="none"/><line y2="-22949" y1="-23376" x2="-24252" x1="-23512" fill="none"/><line y2="-24437" y1="-23298" x2="-25277" x1="-25277" fill="none"/><line y2="-24295" y1="-23443" x2="-25107" x1="-25107" fill="none"/><line y2="-23298" y1="-22729" x2="-25277" x1="-24289" fill="none"/><line y2="-31055" y1="-32193" x2="-30792" x1="-30792" fill="none"/><line y2="-31200" y1="-32052" x2="-30963" x1="-30963" fill="none"/><line y2="-30489" y1="-31055" x2="-31774" x1="-30792" fill="none"/><line y2="-32193" y1="-32762" x2="-30792" x1="-31774" fill="none"/><line y2="-31055" y1="-30489" x2="-32762" x1="-31774" fill="none"/><line y2="-31133" y1="-30706" x2="-32554" x1="-31815" fill="none"/><line y2="-32762" y1="-32193" x2="-31774" x1="-32762" fill="none"/><line y2="-32543" y1="-32118" x2="-31815" x1="-32554" fill="none"/><line y2="-32193" y1="-31055" x2="-32762" x1="-32762" fill="none"/><line y2="-32193" y1="-31055" x2="-28978" x1="-28978" fill="none"/><line y2="-32052" y1="-31200" x2="-28808" x1="-28808" fill="none"/><line y2="-31055" y1="-30489" x2="-28978" x1="-27990" fill="none"/><line y2="-32762" y1="-32193" x2="-27990" x1="-28978" fill="none"/><line y2="-30489" y1="-31055" x2="-27990" x1="-27005" fill="none"/><line y2="-30706" y1="-31133" x2="-27952" x1="-27213" fill="none"/><line y2="-32193" y1="-32762" x2="-27005" x1="-27990" fill="none"/><line y2="-32118" y1="-32543" x2="-27213" x1="-27952" fill="none"/><line y2="-31055" y1="-32193" x2="-27005" x1="-27005" fill="none"/><polygon stroke-width="1" stroke="none" points=" -27086 -27245 -27155 -28074 -27019 -28074"/><polygon stroke-width="1" points=" -27086 -27245 -27155 -28074 -27019 -28074" fill="none"/><line y2="-27031" y1="-27152" x2="-25350" x1="-25419" fill="none"/><line y2="-26938" y1="-27028" x2="-25547" x1="-25598" fill="none"/><line y2="-26846" y1="-26904" x2="-25743" x1="-25776" fill="none"/><line y2="-26753" y1="-26780" x2="-25940" x1="-25955" fill="none"/><text y="-24780" xml:space="preserve" x="-22550" stroke="none" font-size="433.3333" font-family="sans-serif">P</text><text y="-27022" xml:space="preserve" x="-25350" stroke="none" font-size="433.3333" font-family="sans-serif">NH</text><text y="-25451" xml:space="preserve" x="-24442" stroke="none" font-size="433.3333" font-family="sans-serif">O</text><text y="-28114" xml:space="preserve" x="-27239" stroke="none" font-size="433.3333" font-family="sans-serif">NH</text><text y="-29686" xml:space="preserve" x="-28146" stroke="none" font-size="433.3333" font-family="sans-serif">O</text><text y="-30353" xml:space="preserve" x="-30038" stroke="none" font-size="433.3333" font-family="sans-serif">P</text><text y="-26355" xml:space="preserve" x="-26505" stroke="none" font-style="italic" font-size="313.3333" font-family="sans-serif">R</text><text y="-26762" xml:space="preserve" x="-27239" stroke="none" font-style="italic" font-size="313.3333" font-family="sans-serif">R</text></g></g></svg>