<svg width="233.28" viewBox="0 0 7776 1758" text-rendering="auto" stroke-width="1" stroke-opacity="1" stroke-miterlimit="10" stroke-linejoin="miter" stroke-linecap="square" stroke-dashoffset="0" stroke-dasharray="none" stroke="black" shape-rendering="auto" image-rendering="auto" height="52.74" font-weight="normal" font-style="normal" font-size="12" font-family="'Dialog'" fill-opacity="1" fill="black" color-rendering="auto" color-interpolation="auto" xmlns="http://www.w3.org/2000/svg"><g><g stroke="white" fill="white"><rect y="0" x="0" width="7776" stroke="none" height="1758"/></g><g transform="translate(32866,32649)" text-rendering="geometricPrecision" stroke-width="44" stroke-linejoin="round" stroke-linecap="round"><line y2="-32312" y1="-32312" x2="-26242" x1="-27103" fill="none"/><line y2="-32401" y1="-32401" x2="-26242" x1="-27103" fill="none"/><line y2="-32222" y1="-32222" x2="-26242" x1="-27103" fill="none"/><line y2="-32312" y1="-32312" x2="-28016" x1="-27479" fill="none"/><line y2="-32312" y1="-32312" x2="-25194" x1="-26242" fill="none"/><line y2="-32312" y1="-32312" x2="-30480" x1="-29342" fill="none"/><line y2="-31483" y1="-32092" x2="-28357" x1="-28357" fill="none"/><line y2="-31835" y1="-32115" x2="-29183" x1="-28695" fill="none"/><line y2="-32312" y1="-32312" x2="-31714" x1="-30856" fill="none"/><line y2="-32222" y1="-32222" x2="-31714" x1="-30856" fill="none"/><line y2="-32401" y1="-32401" x2="-31714" x1="-30856" fill="none"/><line y2="-32312" y1="-32312" x2="-32762" x1="-31714" fill="none"/><text y="-32133" xml:space="preserve" x="-28588" stroke="none" font-size="433.3333" font-family="sans-serif">Pt</text><text y="-32133" xml:space="preserve" x="-27441" stroke="none" font-size="433.3333" font-family="sans-serif">N</text><text y="-32133" xml:space="preserve" x="-30818" stroke="none" font-size="433.3333" font-family="sans-serif">N</text><text y="-31087" xml:space="preserve" x="-28588" stroke="none" font-size="433.3333" font-family="sans-serif">Cl</text><text y="-31457" xml:space="preserve" x="-29758" stroke="none" font-size="433.3333" font-family="sans-serif">Cl</text><text y="-32242" xml:space="preserve" x="-29304" stroke="none" font-size="313.3333" font-family="sans-serif">2+</text><text y="-31142" xml:space="preserve" x="-28033" stroke="none" font-size="313.3333" font-family="sans-serif">-</text><text y="-31514" xml:space="preserve" x="-30151" stroke="none" font-size="313.3333" font-family="sans-serif">-</text></g></g></svg>