<svg width="262.77" viewBox="0 0 8759 4280" text-rendering="auto" stroke-width="1" stroke-opacity="1" stroke-miterlimit="10" stroke-linejoin="miter" stroke-linecap="square" stroke-dashoffset="0" stroke-dasharray="none" stroke="black" shape-rendering="auto" image-rendering="auto" height="128.4" font-weight="normal" font-style="normal" font-size="12" font-family="'Dialog'" fill-opacity="1" fill="black" color-rendering="auto" color-interpolation="auto" xmlns="http://www.w3.org/2000/svg"><g><g stroke="white" fill="white"><rect y="0" x="0" width="8759" stroke="none" height="4280"/></g><g transform="translate(32866,32866)" text-rendering="geometricPrecision" stroke-width="44" stroke-linejoin="round" stroke-linecap="round"><line y2="-32193" y1="-31055" x2="-27089" x1="-27089" fill="none"/><line y2="-31055" y1="-30489" x2="-27089" x1="-26101" fill="none"/><line y2="-32762" y1="-32193" x2="-26101" x1="-27089" fill="none"/><line y2="-30489" y1="-31055" x2="-26101" x1="-25118" fill="none"/><line y2="-32193" y1="-32762" x2="-25118" x1="-26101" fill="none"/><line y2="-31055" y1="-32193" x2="-25118" x1="-25118" fill="none"/><line y2="-32719" y1="-32193" x2="-24211" x1="-25118" fill="none"/><line y2="-30752" y1="-31055" x2="-27614" x1="-27089" fill="none"/><line y2="-31055" y1="-30642" x2="-28903" x1="-28184" fill="none"/><line y2="-30642" y1="-31055" x2="-29622" x1="-28903" fill="none"/><line y2="-31884" y1="-31055" x2="-28972" x1="-28972" fill="none"/><line y2="-31884" y1="-31055" x2="-28834" x1="-28834" fill="none"/><line y2="-31055" y1="-30642" x2="-30717" x1="-29998" fill="none"/><line y2="-30532" y1="-31055" x2="-31624" x1="-30717" fill="none"/><line y2="-30859" y1="-30532" x2="-32190" x1="-31624" fill="none"/><line y2="-29703" y1="-30313" x2="-29810" x1="-29810" fill="none"/><line y2="-29007" y1="-29316" x2="-30495" x1="-29963" fill="none"/><line y2="-29131" y1="-29437" x2="-30564" x1="-30032" fill="none"/><text y="-30353" xml:space="preserve" x="-28149" stroke="none" font-size="433.3333" font-family="sans-serif">NH</text><text y="-30353" xml:space="preserve" x="-29963" stroke="none" font-size="433.3333" font-family="sans-serif">N</text><text y="-31925" xml:space="preserve" x="-29056" stroke="none" font-size="433.3333" font-family="sans-serif">O</text><text y="-29304" xml:space="preserve" x="-29963" stroke="none" font-size="433.3333" font-family="sans-serif">N</text><text y="-28782" xml:space="preserve" x="-30870" stroke="none" font-size="433.3333" font-family="sans-serif">O</text><text y="-30876" xml:space="preserve" x="-32762" stroke="none" font-size="433.3333" font-family="sans-serif">Cl</text></g></g></svg>