<svg width="412.44" viewBox="0 0 13748 4144" text-rendering="auto" stroke-width="1" stroke-opacity="1" stroke-miterlimit="10" stroke-linejoin="miter" stroke-linecap="square" stroke-dashoffset="0" stroke-dasharray="none" stroke="black" shape-rendering="auto" image-rendering="auto" height="124.32" font-weight="normal" font-style="normal" font-size="12" font-family="'Dialog'" fill-opacity="1" fill="black" color-rendering="auto" color-interpolation="auto" xmlns="http://www.w3.org/2000/svg"><g><g stroke="white" fill="white"><rect y="0" x="0" width="13748" stroke="none" height="4144"/></g><g transform="translate(32866,32758)" text-rendering="geometricPrecision" stroke-width="44" stroke-linejoin="round" stroke-linecap="round"><line y2="-30561" y1="-29588" x2="-24038" x1="-24038" fill="none"/><line y2="-29588" y1="-29588" x2="-24038" x1="-22160" fill="none"/><line y2="-29755" y1="-29755" x2="-23804" x1="-22394" fill="none"/><line y2="-29099" y1="-29588" x2="-24882" x1="-24038" fill="none"/><line y2="-31266" y1="-30888" x2="-23192" x1="-23850" fill="none"/><line y2="-30888" y1="-31376" x2="-24226" x1="-25069" fill="none"/><line y2="-29807" y1="-30781" x2="-21972" x1="-21972" fill="none"/><line y2="-29588" y1="-29099" x2="-26104" x1="-25257" fill="none"/><line y2="-29674" y1="-29307" x2="-25913" x1="-25277" fill="none"/><line y2="-30781" y1="-31266" x2="-21972" x1="-22816" fill="none"/><line y2="-30694" y1="-31058" x2="-22163" x1="-22793" fill="none"/><line y2="-31376" y1="-30888" x2="-25069" x1="-25916" fill="none"/><line y2="-31165" y1="-30801" x2="-25090" x1="-25725" fill="none"/><line y2="-30561" y1="-29588" x2="-26104" x1="-26104" fill="none"/><line y2="-31304" y1="-30781" x2="-21065" x1="-21972" fill="none"/><line y2="-29281" y1="-29588" x2="-26632" x1="-26104" fill="none"/><line y2="-29588" y1="-29172" x2="-27918" x1="-27198" fill="none"/><line y2="-29062" y1="-29588" x2="-28825" x1="-27918" fill="none"/><line y2="-29588" y1="-29062" x2="-29732" x1="-28825" fill="none"/><line y2="-32202" y1="-31376" x2="-25069" x1="-25069" fill="none"/><line y2="-32367" y1="-31304" x2="-20696" x1="-21065" fill="none"/><line y2="-32179" y1="-31382" x2="-20580" x1="-20857" fill="none"/><line y2="-31304" y1="-30752" x2="-21065" x1="-20352" fill="none"/><line y2="-32367" y1="-32367" x2="-19552" x1="-20696" fill="none"/><line y2="-30746" y1="-31304" x2="-19976" x1="-19222" fill="none"/><line y2="-31304" y1="-32367" x2="-19222" x1="-19552" fill="none"/><line y2="-31387" y1="-32185" x2="-19427" x1="-19673" fill="none"/><line y2="-29588" y1="-30723" x2="-29732" x1="-29732" fill="none"/><line y2="-29729" y1="-30581" x2="-29902" x1="-29902" fill="none"/><line y2="-29018" y1="-29588" x2="-30717" x1="-29732" fill="none"/><line y2="-30723" y1="-31292" x2="-29732" x1="-30717" fill="none"/><line y2="-29588" y1="-29018" x2="-31702" x1="-30717" fill="none"/><line y2="-29663" y1="-29235" x2="-31494" x1="-30755" fill="none"/><line y2="-31292" y1="-30723" x2="-30717" x1="-31702" fill="none"/><line y2="-31075" y1="-30648" x2="-30755" x1="-31494" fill="none"/><line y2="-30723" y1="-29588" x2="-31702" x1="-31702" fill="none"/><line y2="-31029" y1="-30723" x2="-32231" x1="-31702" fill="none"/><text y="-32242" xml:space="preserve" x="-25222" stroke="none" font-size="433.3333" font-family="sans-serif">NH</text><text y="-32153" xml:space="preserve" x="-24645" stroke="none" font-size="313.3333" font-family="sans-serif">2</text><text y="-28883" xml:space="preserve" x="-27164" stroke="none" font-size="433.3333" font-family="sans-serif">NH</text><text y="-31070" xml:space="preserve" x="-32762" stroke="none" font-size="433.3333" font-family="sans-serif">OH</text><text y="-30602" xml:space="preserve" x="-24191" stroke="none" font-size="433.3333" font-family="sans-serif">N</text><text y="-29408" xml:space="preserve" x="-22126" stroke="none" font-size="433.3333" font-family="sans-serif">N</text><text y="-28810" xml:space="preserve" x="-25222" stroke="none" font-size="433.3333" font-family="sans-serif">N</text><text y="-31197" xml:space="preserve" x="-23154" stroke="none" font-size="433.3333" font-family="sans-serif">N</text><text y="-30602" xml:space="preserve" x="-26257" stroke="none" font-size="433.3333" font-family="sans-serif">N</text><text y="-30428" xml:space="preserve" x="-20317" stroke="none" font-size="433.3333" font-family="sans-serif">O</text></g></g></svg>