<svg width="197.49" viewBox="0 0 6583 4129" text-rendering="auto" stroke-width="1" stroke-opacity="1" stroke-miterlimit="10" stroke-linejoin="miter" stroke-linecap="square" stroke-dashoffset="0" stroke-dasharray="none" stroke="black" shape-rendering="auto" image-rendering="auto" height="123.87" font-weight="normal" font-style="normal" font-size="12" font-family="'Dialog'" fill-opacity="1" fill="black" color-rendering="auto" color-interpolation="auto" xmlns="http://www.w3.org/2000/svg"><g><g stroke="white" fill="white"><rect y="0" x="0" width="6583" stroke="none" height="4129"/></g><g transform="translate(32866,32758)" text-rendering="geometricPrecision" stroke-width="44" stroke-linejoin="round" stroke-linecap="round"><line y2="-30576" y1="-30576" x2="-30697" x1="-29495" fill="none"/><line y2="-30746" y1="-30746" x2="-30547" x1="-29645" fill="none"/><line y2="-30576" y1="-31694" x2="-29495" x1="-29108" fill="none"/><line y2="-31474" y1="-30576" x2="-30974" x1="-30697" fill="none"/><line y2="-31694" y1="-32277" x2="-29108" x1="-29865" fill="none"/><line y2="-31633" y1="-32069" x2="-29307" x1="-29874" fill="none"/><line y2="-32283" y1="-31832" x2="-30240" x1="-30853" fill="none"/><line y2="-32216" y1="-31694" x2="-28201" x1="-29108" fill="none"/><line y2="-31694" y1="-32216" x2="-27294" x1="-28201" fill="none"/><line y2="-32216" y1="-31694" x2="-26387" x1="-27294" fill="none"/><line y2="-30053" y1="-30576" x2="-31604" x1="-30697" fill="none"/><line y2="-31919" y1="-31754" x2="-31737" x1="-31228" fill="none"/><line y2="-30160" y1="-30576" x2="-28776" x1="-29495" fill="none"/><line y2="-30304" y1="-30053" x2="-32040" x1="-31604" fill="none"/><line y2="-29224" y1="-30053" x2="-31535" x1="-31535" fill="none"/><line y2="-29224" y1="-30053" x2="-31673" x1="-31673" fill="none"/><line y2="-29224" y1="-29833" x2="-28519" x1="-28519" fill="none"/><line y2="-29224" y1="-29833" x2="-28657" x1="-28657" fill="none"/><line y2="-30529" y1="-30220" x2="-27903" x1="-28435" fill="none"/><line y2="-30408" y1="-30099" x2="-27834" x1="-28366" fill="none"/><text y="-29874" xml:space="preserve" x="-28741" stroke="none" font-size="433.3333" font-family="sans-serif">N</text><text y="-28825" xml:space="preserve" x="-28741" stroke="none" font-size="433.3333" font-family="sans-serif">O</text><text y="-30396" xml:space="preserve" x="-27834" stroke="none" font-size="433.3333" font-family="sans-serif">O</text><text y="-30454" xml:space="preserve" x="-32762" stroke="none" font-size="433.3333" font-family="sans-serif">NH</text><text y="-30365" xml:space="preserve" x="-32185" stroke="none" font-size="313.3333" font-family="sans-serif">2</text><text y="-28825" xml:space="preserve" x="-31757" stroke="none" font-size="433.3333" font-family="sans-serif">O</text><text y="-32000" xml:space="preserve" x="-32687" stroke="none" font-size="433.3333" font-family="sans-serif">CH</text><text y="-31910" xml:space="preserve" x="-32110" stroke="none" font-size="313.3333" font-family="sans-serif">3</text><text y="-31514" xml:space="preserve" x="-31194" stroke="none" font-size="433.3333" font-family="sans-serif">N</text><text y="-32242" xml:space="preserve" x="-30206" stroke="none" font-size="433.3333" font-family="sans-serif">N</text></g></g></svg>