<svg width="245.52" viewBox="0 0 8184 3407" text-rendering="auto" stroke-width="1" stroke-opacity="1" stroke-miterlimit="10" stroke-linejoin="miter" stroke-linecap="square" stroke-dashoffset="0" stroke-dasharray="none" stroke="black" shape-rendering="auto" image-rendering="auto" height="102.21" font-weight="normal" font-style="normal" font-size="12" font-family="'Dialog'" fill-opacity="1" fill="black" color-rendering="auto" color-interpolation="auto" xmlns="http://www.w3.org/2000/svg"><g><g stroke="white" fill="white"><rect y="0" x="0" width="8184" stroke="none" height="3407"/></g><g transform="translate(32866,32758)" text-rendering="geometricPrecision" stroke-width="44" stroke-linejoin="round" stroke-linecap="round"><line y2="-30850" y1="-30047" x2="-30024" x1="-29221" fill="none"/><line y2="-31656" y1="-30850" x2="-29221" x1="-30024" fill="none"/><line y2="-30850" y1="-31555" x2="-30024" x1="-30547" fill="none"/><line y2="-29966" y1="-30850" x2="-30708" x1="-30024" fill="none"/><line y2="-30047" y1="-30662" x2="-29221" x1="-28602" fill="none"/><line y2="-31038" y1="-31656" x2="-28602" x1="-29221" fill="none"/><line y2="-31717" y1="-31454" x2="-30896" x1="-31754" fill="none"/><line y2="-30327" y1="-29966" x2="-31754" x1="-30708" fill="none"/><line y2="-31454" y1="-30327" x2="-31754" x1="-31754" fill="none"/><line y2="-31376" y1="-30960" x2="-27508" x1="-28227" fill="none"/><line y2="-29801" y1="-30269" x2="-32381" x1="-31714" fill="none"/><line y2="-29917" y1="-30385" x2="-32462" x1="-31792" fill="none"/><line y2="-30960" y1="-31376" x2="-26788" x1="-27508" fill="none"/><line y2="-31376" y1="-30960" x2="-25693" x1="-26413" fill="none"/><line y2="-32202" y1="-31376" x2="-27577" x1="-27577" fill="none"/><line y2="-32202" y1="-31376" x2="-27438" x1="-27438" fill="none"/><line y2="-30850" y1="-31376" x2="-24786" x1="-25693" fill="none"/><line y2="-32283" y1="-31376" x2="-25170" x1="-25693" fill="none"/><line y2="-32283" y1="-31376" x2="-26216" x1="-25693" fill="none"/><text y="-30671" xml:space="preserve" x="-26754" stroke="none" font-size="433.3333" font-family="sans-serif">O</text><text y="-32242" xml:space="preserve" x="-27661" stroke="none" font-size="433.3333" font-family="sans-serif">O</text><text y="-29547" xml:space="preserve" x="-32762" stroke="none" font-size="433.3333" font-family="sans-serif">O</text><text y="-31595" xml:space="preserve" x="-30859" stroke="none" font-size="433.3333" font-family="sans-serif">O</text><text y="-30671" xml:space="preserve" x="-28568" stroke="none" font-size="433.3333" font-family="sans-serif">N</text></g></g></svg>