<svg width="474.3" viewBox="0 0 15810 14458" text-rendering="auto" stroke-width="1" stroke-opacity="1" stroke-miterlimit="10" stroke-linejoin="miter" stroke-linecap="square" stroke-dashoffset="0" stroke-dasharray="none" stroke="black" shape-rendering="auto" image-rendering="auto" height="433.74" font-weight="normal" font-style="normal" font-size="12" font-family="'Dialog'" fill-opacity="1" fill="black" color-rendering="auto" color-interpolation="auto" xmlns="http://www.w3.org/2000/svg"><g><g stroke="white" fill="white"><rect y="0" x="0" width="15810" stroke="none" height="14458"/></g><g transform="translate(32866,32758)" text-rendering="geometricPrecision" stroke-width="44" stroke-linejoin="round" stroke-linecap="round"><line y2="-30703" y1="-30131" x2="-19127" x1="-18142" fill="none"/><line y2="-30131" y1="-30703" x2="-18142" x1="-17160" fill="none"/><line y2="-30347" y1="-30778" x2="-18107" x1="-17370" fill="none"/><line y2="-31850" y1="-30703" x2="-19127" x1="-19127" fill="none"/><line y2="-31705" y1="-30847" x2="-18956" x1="-18956" fill="none"/><line y2="-30131" y1="-30703" x2="-20109" x1="-19127" fill="none"/><line y2="-30703" y1="-31850" x2="-17160" x1="-17160" fill="none"/><line y2="-31850" y1="-32422" x2="-19127" x1="-20109" fill="none"/><line y2="-32312" y1="-31850" x2="-18332" x1="-19127" fill="none"/><line y2="-30703" y1="-30131" x2="-21091" x1="-20109" fill="none"/><line y2="-30778" y1="-30347" x2="-20880" x1="-20144" fill="none"/><line y2="-31850" y1="-32312" x2="-17160" x1="-17954" fill="none"/><line y2="-31760" y1="-32107" x2="-17347" x1="-17942" fill="none"/><line y2="-32422" y1="-31850" x2="-20109" x1="-21091" fill="none"/><line y2="-32205" y1="-31774" x2="-20144" x1="-20880" fill="none"/><line y2="-31850" y1="-30703" x2="-21091" x1="-21091" fill="none"/><line y2="-28571" y1="-30131" x2="-20369" x1="-18142" fill="none"/><line y2="-30278" y1="-30703" x2="-21799" x1="-21091" fill="none"/><line y2="-30541" y1="-30272" x2="-22640" x1="-22175" fill="none"/><line y2="-28912" y1="-28571" x2="-21138" x1="-20369" fill="none"/><line y2="-28472" y1="-28888" x2="-22232" x1="-21513" fill="none"/><line y2="-28103" y1="-28571" x2="-20329" x1="-20369" fill="none"/><line y2="-28475" y1="-27447" x2="-24633" x1="-24032" fill="none"/><line y2="-29284" y1="-28475" x2="-24159" x1="-24633" fill="none"/><line y2="-29096" y1="-28490" x2="-24073" x1="-24428" fill="none"/><line y2="-27447" y1="-27447" x2="-22833" x1="-24032" fill="none"/><line y2="-27276" y1="-27276" x2="-22984" x1="-23882" fill="none"/><line y2="-27447" y1="-26418" x2="-24032" x1="-24633" fill="none"/><line y2="-29501" y1="-29501" x2="-23021" x1="-23844" fill="none"/><line y2="-27447" y1="-28472" x2="-22833" x1="-22232" fill="none"/><line y2="-26418" y1="-27447" x2="-22232" x1="-22833" fill="none"/><line y2="-26418" y1="-25390" x2="-24633" x1="-24032" fill="none"/><line y2="-26375" y1="-25604" x2="-24411" x1="-23963" fill="none"/><line y2="-28472" y1="-29284" x2="-22232" x1="-22703" fill="none"/><line y2="-28490" y1="-29096" x2="-22440" x1="-22793" fill="none"/><line y2="-25390" y1="-26418" x2="-22833" x1="-22232" fill="none"/><line y2="-25604" y1="-26375" x2="-22906" x1="-22455" fill="none"/><line y2="-25390" y1="-25390" x2="-24032" x1="-22833" fill="none"/><line y2="-28475" y1="-28475" x2="-25494" x1="-24633" fill="none"/><line y2="-27950" y1="-28366" x2="-26589" x1="-25870" fill="none"/><line y2="-28458" y1="-27950" x2="-27505" x1="-26589" fill="none"/><line y2="-25898" y1="-27950" x2="-26589" x1="-26589" fill="none"/><line y2="-29033" y1="-28458" x2="-28487" x1="-27505" fill="none"/><line y2="-28458" y1="-29033" x2="-27505" x1="-26522" fill="none"/><line y2="-28678" y1="-29108" x2="-27467" x1="-26730" fill="none"/><line y2="-30180" y1="-29033" x2="-28487" x1="-28487" fill="none"/><line y2="-30035" y1="-29174" x2="-28316" x1="-28316" fill="none"/><line y2="-28458" y1="-29033" x2="-29469" x1="-28487" fill="none"/><line y2="-29033" y1="-30180" x2="-26522" x1="-26522" fill="none"/><line y2="-30180" y1="-30752" x2="-28487" x1="-29469" fill="none"/><line y2="-30642" y1="-30180" x2="-27692" x1="-28487" fill="none"/><line y2="-29033" y1="-28458" x2="-30451" x1="-29469" fill="none"/><line y2="-29108" y1="-28678" x2="-30243" x1="-29507" fill="none"/><line y2="-30180" y1="-30642" x2="-26522" x1="-27317" fill="none"/><line y2="-30090" y1="-30437" x2="-26707" x1="-27302" fill="none"/><line y2="-30752" y1="-30180" x2="-29469" x1="-30451" fill="none"/><line y2="-30532" y1="-30102" x2="-29507" x1="-30243" fill="none"/><line y2="-30180" y1="-29033" x2="-30451" x1="-30451" fill="none"/><line y2="-28617" y1="-29033" x2="-31171" x1="-30451" fill="none"/><line y2="-28874" y1="-28614" x2="-32017" x1="-31546" fill="none"/><line y2="-25898" y1="-26421" x2="-26589" x1="-27482" fill="none"/><line y2="-24636" y1="-25898" x2="-26589" x1="-26589" fill="none"/><line y2="-26421" y1="-25898" x2="-27857" x1="-28753" fill="none"/><line y2="-24003" y1="-24636" x2="-27669" x1="-26589" fill="none"/><line y2="-25898" y1="-24636" x2="-28753" x1="-28753" fill="none"/><line y2="-25584" y1="-24908" x2="-28033" x1="-27219" fill="none"/><line y2="-24636" y1="-24003" x2="-28753" x1="-27669" fill="none"/><line y2="-24650" y1="-24110" x2="-30558" x1="-29660" fill="none"/><line y2="-21372" y1="-20849" x2="-25526" x1="-26421" fill="none"/><line y2="-20849" y1="-19586" x2="-26421" x1="-26421" fill="none"/><line y2="-20849" y1="-21372" x2="-24255" x1="-25150" fill="none"/><line y2="-19586" y1="-18951" x2="-26421" x1="-25338" fill="none"/><line y2="-19586" y1="-20849" x2="-24255" x1="-24255" fill="none"/><line y2="-19855" y1="-20534" x2="-25792" x1="-24977" fill="none"/><line y2="-18951" y1="-19586" x2="-25338" x1="-24255" fill="none"/><line y2="-19586" y1="-19060" x2="-22440" x1="-23348" fill="none"/><polygon stroke-width="1" stroke="none" points=" -20369 -28571 -20987 -28036 -21068 -28149"/><polygon stroke-width="1" points=" -20369 -28571 -20987 -28036 -21068 -28149" fill="none"/><polygon stroke-width="1" stroke="none" points=" -28753 -24636 -29625 -24050 -29694 -24171"/><polygon stroke-width="1" points=" -28753 -24636 -29625 -24050 -29694 -24171" fill="none"/><polygon stroke-width="1" stroke="none" points=" -26589 -25898 -25893 -26364 -25826 -26242"/><polygon stroke-width="1" points=" -26589 -25898 -25893 -26364 -25826 -26242" fill="none"/><polygon stroke-width="1" stroke="none" points=" -25254 -21262 -24910 -20560 -25040 -20508"/><polygon stroke-width="1" points=" -25254 -21262 -24910 -20560 -25040 -20508" fill="none"/><polygon stroke-width="1" stroke="none" points=" -25338 -18951 -25852 -19826 -25728 -19887"/><polygon stroke-width="1" points=" -25338 -18951 -25852 -19826 -25728 -19887" fill="none"/><polygon stroke-width="1" stroke="none" points=" -26421 -20849 -26563 -21669 -26427 -21681"/><polygon stroke-width="1" points=" -26421 -20849 -26563 -21669 -26427 -21681" fill="none"/><line y2="-27476" y1="-27594" x2="-25901" x1="-25832" fill="none"/><line y2="-27599" y1="-27687" x2="-26080" x1="-26029" fill="none"/><line y2="-27723" y1="-27779" x2="-26259" x1="-26226" fill="none"/><line y2="-27846" y1="-27872" x2="-26438" x1="-26423" fill="none"/><line y2="-25607" y1="-25558" x2="-28097" x1="-27967" fill="none"/><line y2="-25803" y1="-25767" x2="-28002" x1="-27908" fill="none"/><line y2="-25998" y1="-25976" x2="-27906" x1="-27848" fill="none"/><line y2="-26194" y1="-26186" x2="-27811" x1="-27789" fill="none"/><line y2="-24873" y1="-24939" x2="-27158" x1="-27279" fill="none"/><line y2="-24686" y1="-24738" x2="-27268" x1="-27363" fill="none"/><line y2="-24499" y1="-24537" x2="-27377" x1="-27446" fill="none"/><line y2="-24313" y1="-24336" x2="-27487" x1="-27530" fill="none"/><line y2="-24126" y1="-24135" x2="-27597" x1="-27614" fill="none"/><line y2="-19000" y1="-19121" x2="-23382" x1="-23313" fill="none"/><line y2="-19121" y1="-19217" x2="-23562" x1="-23508" fill="none"/><line y2="-19242" y1="-19313" x2="-23743" x1="-23702" fill="none"/><line y2="-19363" y1="-19409" x2="-23923" x1="-23897" fill="none"/><line y2="-19484" y1="-19505" x2="-24103" x1="-24092" fill="none"/><line y2="-21325" y1="-21204" x2="-27106" x1="-27175" fill="none"/><line y2="-21201" y1="-21111" x2="-26927" x1="-26978" fill="none"/><line y2="-21077" y1="-21019" x2="-26749" x1="-26782" fill="none"/><line y2="-20953" y1="-20926" x2="-26570" x1="-26585" fill="none"/><text y="-28296" xml:space="preserve" x="-25832" stroke="none" font-size="433.3333" font-family="sans-serif">O</text><text y="-28328" xml:space="preserve" x="-31512" stroke="none" font-size="433.3333" font-family="sans-serif">O</text><text y="-29024" xml:space="preserve" x="-32762" stroke="none" font-size="433.3333" font-family="sans-serif">CH</text><text y="-28935" xml:space="preserve" x="-32185" stroke="none" font-size="313.3333" font-family="sans-serif">3</text><text y="-28819" xml:space="preserve" x="-21478" stroke="none" font-size="433.3333" font-family="sans-serif">O</text><text y="-29986" xml:space="preserve" x="-22140" stroke="none" font-size="433.3333" font-family="sans-serif">O</text><text y="-30691" xml:space="preserve" x="-23362" stroke="none" font-size="433.3333" font-family="sans-serif">CH</text><text y="-30602" xml:space="preserve" x="-22784" stroke="none" font-size="313.3333" font-family="sans-serif">3</text><text y="-26352" xml:space="preserve" x="-27822" stroke="none" font-size="433.3333" font-family="sans-serif">N</text><text y="-30573" xml:space="preserve" x="-27658" stroke="none" font-size="433.3333" font-family="sans-serif">N</text><text y="-29322" xml:space="preserve" x="-24185" stroke="none" font-size="433.3333" font-family="sans-serif">N</text><text y="-29322" xml:space="preserve" x="-22984" stroke="none" font-size="433.3333" font-family="sans-serif">N</text><text y="-32242" xml:space="preserve" x="-18295" stroke="none" font-size="433.3333" font-family="sans-serif">N</text><text y="-27248" xml:space="preserve" x="-25832" stroke="none" font-size="433.3333" font-family="sans-serif">H</text><text y="-26228" xml:space="preserve" x="-25823" stroke="none" font-size="433.3333" font-family="sans-serif">H</text><text y="-27776" xml:space="preserve" x="-21369" stroke="none" font-size="433.3333" font-family="sans-serif">H</text><text y="-27704" xml:space="preserve" x="-20612" stroke="none" font-size="433.3333" font-family="sans-serif">@1</text><text y="-28074" xml:space="preserve" x="-26739" stroke="none" font-style="italic" font-size="313.3333" font-family="sans-serif">R</text><text y="-28695" xml:space="preserve" x="-20528" stroke="none" font-style="italic" font-size="313.3333" font-family="sans-serif">R</text><text y="-25578" xml:space="preserve" x="-26988" stroke="none" font-style="italic" font-size="313.3333" font-family="sans-serif">S</text><text y="-26762" xml:space="preserve" x="-27710" stroke="none" font-style="italic" font-size="313.3333" font-family="sans-serif">S</text><text y="-23524" xml:space="preserve" x="-27822" stroke="none" font-style="italic" font-size="313.3333" font-family="sans-serif">S</text><text y="-24601" xml:space="preserve" x="-28657" stroke="none" font-style="italic" font-size="313.3333" font-family="sans-serif">R</text><text y="-21302" xml:space="preserve" x="-25491" stroke="none" font-size="433.3333" font-family="sans-serif">N</text><text y="-21195" xml:space="preserve" x="-27482" stroke="none" font-size="433.3333" font-family="sans-serif">H</text><text y="-21715" xml:space="preserve" x="-26817" stroke="none" font-size="433.3333" font-family="sans-serif">@1</text><text y="-20528" xml:space="preserve" x="-26326" stroke="none" font-style="italic" font-size="313.3333" font-family="sans-serif">S</text><text y="-21715" xml:space="preserve" x="-25381" stroke="none" font-style="italic" font-size="313.3333" font-family="sans-serif">S</text><text y="-18471" xml:space="preserve" x="-25491" stroke="none" font-style="italic" font-size="313.3333" font-family="sans-serif">S</text><text y="-19549" xml:space="preserve" x="-24656" stroke="none" font-style="italic" font-size="313.3333" font-family="sans-serif">R</text></g></g></svg>