<svg width="251.16" viewBox="0 0 8372 2302" text-rendering="auto" stroke-width="1" stroke-opacity="1" stroke-miterlimit="10" stroke-linejoin="miter" stroke-linecap="square" stroke-dashoffset="0" stroke-dasharray="none" stroke="black" shape-rendering="auto" image-rendering="auto" height="69.06" font-weight="normal" font-style="normal" font-size="12" font-family="'Dialog'" fill-opacity="1" fill="black" color-rendering="auto" color-interpolation="auto" xmlns="http://www.w3.org/2000/svg"><g><g stroke="white" fill="white"><rect y="0" x="0" width="8372" stroke="none" height="2302"/></g><g transform="translate(32866,32866)" text-rendering="geometricPrecision" stroke-width="44" stroke-linejoin="round" stroke-linecap="round"><line y2="-30668" y1="-31191" x2="-27320" x1="-28227" fill="none"/><line y2="-30668" y1="-31191" x2="-29134" x1="-28227" fill="none"/><line y2="-32020" y1="-31191" x2="-28227" x1="-28227" fill="none"/><line y2="-32762" y1="-32346" x2="-27320" x1="-28039" fill="none"/><line y2="-32240" y1="-32762" x2="-26413" x1="-27320" fill="none"/><line y2="-32762" y1="-32240" x2="-25506" x1="-26413" fill="none"/><line y2="-32240" y1="-32762" x2="-24598" x1="-25506" fill="none"/><line y2="-31607" y1="-31191" x2="-28946" x1="-28227" fill="none"/><line y2="-31191" y1="-31607" x2="-30041" x1="-29322" fill="none"/><line y2="-31714" y1="-31191" x2="-30948" x1="-30041" fill="none"/><line y2="-31191" y1="-31714" x2="-31855" x1="-30948" fill="none"/><line y2="-31714" y1="-31191" x2="-32762" x1="-31855" fill="none"/><text y="-32060" xml:space="preserve" x="-28380" stroke="none" font-size="433.3333" font-family="sans-serif">O</text><text y="-31535" xml:space="preserve" x="-29287" stroke="none" font-size="433.3333" font-family="sans-serif">O</text></g></g></svg>