<svg width="378.96" viewBox="0 0 12632 5080" text-rendering="auto" stroke-width="1" stroke-opacity="1" stroke-miterlimit="10" stroke-linejoin="miter" stroke-linecap="square" stroke-dashoffset="0" stroke-dasharray="none" stroke="black" shape-rendering="auto" image-rendering="auto" height="152.4" font-weight="normal" font-style="normal" font-size="12" font-family="'Dialog'" fill-opacity="1" fill="black" color-rendering="auto" color-interpolation="auto" xmlns="http://www.w3.org/2000/svg"><g><g stroke="white" fill="white"><rect y="0" x="0" width="12632" stroke="none" height="5080"/></g><g transform="translate(32866,32758)" text-rendering="geometricPrecision" stroke-width="44" stroke-linejoin="round" stroke-linecap="round"><line y2="-29668" y1="-30807" x2="-27915" x1="-27915" fill="none"/><line y2="-30807" y1="-31376" x2="-27915" x1="-28897" fill="none"/><line y2="-31376" y1="-30807" x2="-26927" x1="-27915" fill="none"/><line y2="-31156" y1="-30729" x2="-26964" x1="-27704" fill="none"/><line y2="-29099" y1="-29668" x2="-28897" x1="-27915" fill="none"/><line y2="-29668" y1="-29099" x2="-27915" x1="-26927" fill="none"/><line y2="-29746" y1="-29319" x2="-27704" x1="-26964" fill="none"/><line y2="-31376" y1="-30807" x2="-28897" x1="-29885" fill="none"/><line y2="-30807" y1="-31376" x2="-25942" x1="-26927" fill="none"/><line y2="-29668" y1="-29099" x2="-29885" x1="-28897" fill="none"/><line y2="-29099" y1="-29668" x2="-26927" x1="-25942" fill="none"/><line y2="-29668" y1="-30807" x2="-29885" x1="-29885" fill="none"/><line y2="-30807" y1="-31376" x2="-29885" x1="-30867" fill="none"/><line y2="-30729" y1="-31156" x2="-30093" x1="-30830" fill="none"/><line y2="-29668" y1="-30807" x2="-25942" x1="-25942" fill="none"/><line y2="-29810" y1="-30665" x2="-26112" x1="-26112" fill="none"/><line y2="-29099" y1="-29668" x2="-30867" x1="-29885" fill="none"/><line y2="-29319" y1="-29744" x2="-30830" x1="-30093" fill="none"/><line y2="-31376" y1="-30807" x2="-30867" x1="-31855" fill="none"/><line y2="-29668" y1="-29099" x2="-31855" x1="-30867" fill="none"/><line y2="-30807" y1="-29668" x2="-31855" x1="-31855" fill="none"/><line y2="-30665" y1="-29810" x2="-31685" x1="-31685" fill="none"/><line y2="-31223" y1="-30807" x2="-25222" x1="-25942" fill="none"/><line y2="-30807" y1="-31223" x2="-24128" x1="-24847" fill="none"/><line y2="-31330" y1="-30807" x2="-32762" x1="-31855" fill="none"/><line y2="-28273" y1="-29099" x2="-26927" x1="-26927" fill="none"/><line y2="-28273" y1="-29099" x2="-30867" x1="-30867" fill="none"/><line y2="-32202" y1="-31376" x2="-28966" x1="-28966" fill="none"/><line y2="-32202" y1="-31376" x2="-28828" x1="-28828" fill="none"/><line y2="-28273" y1="-29099" x2="-28828" x1="-28828" fill="none"/><line y2="-28273" y1="-29099" x2="-28966" x1="-28966" fill="none"/><line y2="-30807" y1="-29744" x2="-24128" x1="-23801" fill="none"/><line y2="-31364" y1="-30807" x2="-23374" x1="-24128" fill="none"/><line y2="-29744" y1="-29744" x2="-23801" x1="-22654" fill="none"/><line y2="-30807" y1="-31356" x2="-22287" x1="-22998" fill="none"/><line y2="-29744" y1="-30807" x2="-22654" x1="-22287" fill="none"/><line y2="-29218" y1="-29744" x2="-21747" x1="-22654" fill="none"/><line y2="-29634" y1="-29218" x2="-21028" x1="-21747" fill="none"/><line y2="-28914" y1="-29744" x2="-22654" x1="-22654" fill="none"/><line y2="-29114" y1="-29744" x2="-24258" x1="-23801" fill="none"/><text y="-32242" xml:space="preserve" x="-29050" stroke="none" font-size="433.3333" font-family="sans-serif">O</text><text y="-27874" xml:space="preserve" x="-29050" stroke="none" font-size="433.3333" font-family="sans-serif">O</text><text y="-27874" xml:space="preserve" x="-27077" stroke="none" font-size="433.3333" font-family="sans-serif">OH</text><text y="-31150" xml:space="preserve" x="-25188" stroke="none" font-size="433.3333" font-family="sans-serif">O</text><text y="-27874" xml:space="preserve" x="-31020" stroke="none" font-size="433.3333" font-family="sans-serif">OH</text><text y="-28715" xml:space="preserve" x="-24570" stroke="none" font-size="433.3333" font-family="sans-serif">OH</text><text y="-29564" xml:space="preserve" x="-20993" stroke="none" font-size="433.3333" font-family="sans-serif">OH</text><text y="-28516" xml:space="preserve" x="-22807" stroke="none" font-size="433.3333" font-family="sans-serif">OH</text><text y="-31324" xml:space="preserve" x="-23339" stroke="none" font-size="433.3333" font-family="sans-serif">O</text></g></g></svg>