<svg width="292.41" viewBox="0 0 9747 9039" text-rendering="auto" stroke-width="1" stroke-opacity="1" stroke-miterlimit="10" stroke-linejoin="miter" stroke-linecap="square" stroke-dashoffset="0" stroke-dasharray="none" stroke="black" shape-rendering="auto" image-rendering="auto" height="271.17" font-weight="normal" font-style="normal" font-size="12" font-family="'Dialog'" fill-opacity="1" fill="black" color-rendering="auto" color-interpolation="auto" xmlns="http://www.w3.org/2000/svg"><g><g stroke="white" fill="white"><rect y="0" x="0" width="9747" stroke="none" height="9039"/></g><g transform="translate(32866,32866)" text-rendering="geometricPrecision" stroke-width="44" stroke-linejoin="round" stroke-linecap="round"><line y2="-28917" y1="-29484" x2="-27008" x1="-27990" fill="none"/><line y2="-28839" y1="-29267" x2="-27216" x1="-27952" fill="none"/><line y2="-27779" y1="-28917" x2="-27008" x1="-27008" fill="none"/><line y2="-29484" y1="-28917" x2="-27990" x1="-28978" fill="none"/><line y2="-27210" y1="-27779" x2="-27990" x1="-27008" fill="none"/><line y2="-27427" y1="-27854" x2="-27952" x1="-27216" fill="none"/><line y2="-28917" y1="-27779" x2="-28978" x1="-28978" fill="none"/><line y2="-28773" y1="-27921" x2="-28808" x1="-28808" fill="none"/><line y2="-27779" y1="-27210" x2="-28978" x1="-27990" fill="none"/><line y2="-29330" y1="-28917" x2="-26288" x1="-27008" fill="none"/><line y2="-27363" y1="-27779" x2="-29697" x1="-28978" fill="none"/><line y2="-28917" y1="-29330" x2="-25194" x1="-25913" fill="none"/><line y2="-30489" y1="-29660" x2="-26101" x1="-26101" fill="none"/><line y2="-27779" y1="-27363" x2="-30792" x1="-30073" fill="none"/><line y2="-26208" y1="-27037" x2="-29885" x1="-29885" fill="none"/><line y2="-28917" y1="-27779" x2="-25194" x1="-25194" fill="none"/><line y2="-28773" y1="-27921" x2="-25023" x1="-25023" fill="none"/><line y2="-29484" y1="-28917" x2="-24206" x1="-25194" fill="none"/><line y2="-27779" y1="-27210" x2="-25194" x1="-24206" fill="none"/><line y2="-28917" y1="-29484" x2="-23223" x1="-24206" fill="none"/><line y2="-28839" y1="-29267" x2="-23431" x1="-24168" fill="none"/><line y2="-27210" y1="-27779" x2="-24206" x1="-23223" fill="none"/><line y2="-27427" y1="-27854" x2="-24168" x1="-23431" fill="none"/><line y2="-27779" y1="-28917" x2="-23223" x1="-23223" fill="none"/><line y2="-31055" y1="-30489" x2="-27089" x1="-26101" fill="none"/><line y2="-31133" y1="-30706" x2="-26878" x1="-26138" fill="none"/><line y2="-30489" y1="-31055" x2="-26101" x1="-25118" fill="none"/><line y2="-32193" y1="-31055" x2="-27089" x1="-27089" fill="none"/><line y2="-31055" y1="-32193" x2="-25118" x1="-25118" fill="none"/><line y2="-31200" y1="-32052" x2="-25289" x1="-25289" fill="none"/><line y2="-32762" y1="-32193" x2="-26101" x1="-27089" fill="none"/><line y2="-32543" y1="-32118" x2="-26138" x1="-26878" fill="none"/><line y2="-32193" y1="-32762" x2="-25118" x1="-26101" fill="none"/><line y2="-27779" y1="-28917" x2="-30792" x1="-30792" fill="none"/><line y2="-27921" y1="-28773" x2="-30963" x1="-30963" fill="none"/><line y2="-27210" y1="-27779" x2="-31774" x1="-30792" fill="none"/><line y2="-28917" y1="-29484" x2="-30792" x1="-31774" fill="none"/><line y2="-27779" y1="-27210" x2="-32762" x1="-31774" fill="none"/><line y2="-27857" y1="-27430" x2="-32554" x1="-31815" fill="none"/><line y2="-29484" y1="-28917" x2="-31774" x1="-32762" fill="none"/><line y2="-29267" y1="-28839" x2="-31815" x1="-32554" fill="none"/><line y2="-28917" y1="-27779" x2="-32762" x1="-32762" fill="none"/><line y2="-26208" y1="-25638" x2="-29885" x1="-30873" fill="none"/><line y2="-25988" y1="-25560" x2="-29923" x1="-30662" fill="none"/><line y2="-25638" y1="-26208" x2="-28903" x1="-29885" fill="none"/><line y2="-25638" y1="-24500" x2="-30873" x1="-30873" fill="none"/><line y2="-24500" y1="-25638" x2="-28903" x1="-28903" fill="none"/><line y2="-24645" y1="-25497" x2="-29073" x1="-29073" fill="none"/><line y2="-24500" y1="-23931" x2="-30873" x1="-29885" fill="none"/><line y2="-24578" y1="-24151" x2="-30662" x1="-29923" fill="none"/><line y2="-23931" y1="-24500" x2="-29885" x1="-28903" fill="none"/><text y="-29261" xml:space="preserve" x="-26254" stroke="none" font-size="433.3333" font-family="sans-serif">N</text><text y="-27077" xml:space="preserve" x="-30038" stroke="none" font-size="433.3333" font-family="sans-serif">N</text></g></g></svg>