<svg width="219.57" viewBox="0 0 7319 5144" text-rendering="auto" stroke-width="1" stroke-opacity="1" stroke-miterlimit="10" stroke-linejoin="miter" stroke-linecap="square" stroke-dashoffset="0" stroke-dasharray="none" stroke="black" shape-rendering="auto" image-rendering="auto" height="154.32" font-weight="normal" font-style="normal" font-size="12" font-family="'Dialog'" fill-opacity="1" fill="black" color-rendering="auto" color-interpolation="auto" xmlns="http://www.w3.org/2000/svg"><g><g stroke="white" fill="white"><rect y="0" x="0" width="7319" stroke="none" height="5144"/></g><g transform="translate(32866,32758)" text-rendering="geometricPrecision" stroke-width="44" stroke-linejoin="round" stroke-linecap="round"><line y2="-29668" y1="-30807" x2="-27788" x1="-27788" fill="none"/><line y2="-29810" y1="-30665" x2="-27958" x1="-27958" fill="none"/><line y2="-30807" y1="-31376" x2="-27788" x1="-28773" fill="none"/><line y2="-31266" y1="-30807" x2="-26990" x1="-27788" fill="none"/><line y2="-29209" y1="-29668" x2="-28585" x1="-27788" fill="none"/><line y2="-29668" y1="-29668" x2="-27788" x1="-26005" fill="none"/><line y2="-31376" y1="-30914" x2="-28773" x1="-29570" fill="none"/><line y2="-30807" y1="-31266" x2="-25818" x1="-26612" fill="none"/><line y2="-29668" y1="-29209" x2="-29758" x1="-28961" fill="none"/><line y2="-29888" y1="-30807" x2="-25818" x1="-25818" fill="none"/><line y2="-30004" y1="-30691" x2="-25988" x1="-25988" fill="none"/><line y2="-30587" y1="-29668" x2="-29758" x1="-29758" fill="none"/><line y2="-31330" y1="-30914" x2="-30668" x1="-29949" fill="none"/><line y2="-31330" y1="-31330" x2="-31714" x1="-30668" fill="none"/><line y2="-32202" y1="-31595" x2="-26803" x1="-26803" fill="none"/><line y2="-28273" y1="-28880" x2="-28773" x1="-28773" fill="none"/><line y2="-32202" y1="-31376" x2="-28842" x1="-28842" fill="none"/><line y2="-32202" y1="-31376" x2="-28704" x1="-28704" fill="none"/><line y2="-29192" y1="-29608" x2="-30443" x1="-29723" fill="none"/><line y2="-29313" y1="-29729" x2="-30512" x1="-29796" fill="none"/><line y2="-31330" y1="-31330" x2="-32762" x1="-31714" fill="none"/><line y2="-31240" y1="-31240" x2="-32762" x1="-31714" fill="none"/><line y2="-31419" y1="-31419" x2="-32762" x1="-31714" fill="none"/><text y="-32242" xml:space="preserve" x="-28926" stroke="none" font-size="433.3333" font-family="sans-serif">O</text><text y="-32242" xml:space="preserve" x="-26953" stroke="none" font-size="433.3333" font-family="sans-serif">CH</text><text y="-32153" xml:space="preserve" x="-26375" stroke="none" font-size="313.3333" font-family="sans-serif">3</text><text y="-27874" xml:space="preserve" x="-28926" stroke="none" font-size="433.3333" font-family="sans-serif">CH</text><text y="-27785" xml:space="preserve" x="-28348" stroke="none" font-size="313.3333" font-family="sans-serif">3</text><text y="-28966" xml:space="preserve" x="-30818" stroke="none" font-size="433.3333" font-family="sans-serif">O</text><text y="-31197" xml:space="preserve" x="-26953" stroke="none" font-size="433.3333" font-family="sans-serif">N</text><text y="-28920" xml:space="preserve" x="-28926" stroke="none" font-size="433.3333" font-family="sans-serif">N</text><text y="-29489" xml:space="preserve" x="-25971" stroke="none" font-size="433.3333" font-family="sans-serif">N</text><text y="-30628" xml:space="preserve" x="-29911" stroke="none" font-size="433.3333" font-family="sans-serif">N</text></g></g></svg>