<svg width="272.88" viewBox="0 0 9096 5950" text-rendering="auto" stroke-width="1" stroke-opacity="1" stroke-miterlimit="10" stroke-linejoin="miter" stroke-linecap="square" stroke-dashoffset="0" stroke-dasharray="none" stroke="black" shape-rendering="auto" image-rendering="auto" height="178.5" font-weight="normal" font-style="normal" font-size="12" font-family="'Dialog'" fill-opacity="1" fill="black" color-rendering="auto" color-interpolation="auto" xmlns="http://www.w3.org/2000/svg"><g><g stroke="white" fill="white"><rect y="0" x="0" width="9096" stroke="none" height="5950"/></g><g transform="translate(32866,32758)" text-rendering="geometricPrecision" stroke-width="44" stroke-linejoin="round" stroke-linecap="round"><line y2="-29186" y1="-28620" x2="-25026" x1="-26011" fill="none"/><line y2="-28969" y1="-28542" x2="-25064" x1="-25803" fill="none"/><line y2="-28727" y1="-29186" x2="-24232" x1="-25026" fill="none"/><line y2="-28620" y1="-27482" x2="-26011" x1="-26011" fill="none"/><line y2="-27482" y1="-28400" x2="-24041" x1="-24041" fill="none"/><line y2="-27597" y1="-28285" x2="-24211" x1="-24211" fill="none"/><line y2="-27482" y1="-26912" x2="-26011" x1="-25026" fill="none"/><line y2="-27560" y1="-27132" x2="-25803" x1="-25064" fill="none"/><line y2="-26912" y1="-27482" x2="-25026" x1="-24041" fill="none"/><line y2="-28923" y1="-28620" x2="-26540" x1="-26011" fill="none"/><line y2="-28727" y1="-29033" x2="-27638" x1="-27109" fill="none"/><line y2="-30015" y1="-29186" x2="-25026" x1="-25026" fill="none"/><line y2="-30758" y1="-30344" x2="-25933" x1="-25214" fill="none"/><line y2="-29143" y1="-28727" x2="-28732" x1="-28016" fill="none"/><line y2="-27895" y1="-28366" x2="-28163" x1="-27892" fill="none"/><line y2="-27967" y1="-28435" x2="-28285" x1="-28013" fill="none"/><line y2="-27967" y1="-28435" x2="-27369" x1="-27640" fill="none"/><line y2="-27895" y1="-28366" x2="-27490" x1="-27762" fill="none"/><line y2="-30758" y1="-31896" x2="-25933" x1="-25933" fill="none"/><line y2="-30902" y1="-31754" x2="-26104" x1="-26104" fill="none"/><line y2="-30191" y1="-30758" x2="-26915" x1="-25933" fill="none"/><line y2="-31896" y1="-32465" x2="-25933" x1="-26915" fill="none"/><line y2="-30758" y1="-30191" x2="-27903" x1="-26915" fill="none"/><line y2="-30836" y1="-30408" x2="-27695" x1="-26956" fill="none"/><line y2="-32465" y1="-31896" x2="-26915" x1="-27903" fill="none"/><line y2="-32245" y1="-31821" x2="-26956" x1="-27695" fill="none"/><line y2="-31896" y1="-30758" x2="-27903" x1="-27903" fill="none"/><line y2="-32202" y1="-31896" x2="-28429" x1="-27903" fill="none"/><line y2="-29143" y1="-30281" x2="-28732" x1="-28732" fill="none"/><line y2="-29284" y1="-30136" x2="-28903" x1="-28903" fill="none"/><line y2="-28574" y1="-29143" x2="-29718" x1="-28732" fill="none"/><line y2="-30281" y1="-30847" x2="-28732" x1="-29718" fill="none"/><line y2="-29143" y1="-28574" x2="-30703" x1="-29718" fill="none"/><line y2="-29221" y1="-28793" x2="-30495" x1="-29755" fill="none"/><line y2="-30847" y1="-30281" x2="-29718" x1="-30703" fill="none"/><line y2="-30630" y1="-30203" x2="-29755" x1="-30495" fill="none"/><line y2="-30281" y1="-29143" x2="-30703" x1="-30703" fill="none"/><line y2="-30694" y1="-30281" x2="-31422" x1="-30703" fill="none"/><line y2="-30448" y1="-30694" x2="-32228" x1="-31800" fill="none"/><text y="-30056" xml:space="preserve" x="-25176" stroke="none" font-size="433.3333" font-family="sans-serif">NH</text><text y="-28964" xml:space="preserve" x="-27071" stroke="none" font-size="433.3333" font-family="sans-serif">NH</text><text y="-28441" xml:space="preserve" x="-27978" stroke="none" font-size="433.3333" font-family="sans-serif">S</text><text y="-27534" xml:space="preserve" x="-28504" stroke="none" font-size="433.3333" font-family="sans-serif">O</text><text y="-27534" xml:space="preserve" x="-27456" stroke="none" font-size="433.3333" font-family="sans-serif">O</text><text y="-32242" xml:space="preserve" x="-28964" stroke="none" font-size="433.3333" font-family="sans-serif">OH</text><text y="-30625" xml:space="preserve" x="-31763" stroke="none" font-size="433.3333" font-family="sans-serif">O</text><text y="-30050" xml:space="preserve" x="-32762" stroke="none" font-size="433.3333" font-family="sans-serif">CH</text><text y="-29960" xml:space="preserve" x="-32185" stroke="none" font-size="313.3333" font-family="sans-serif">3</text><text y="-28441" xml:space="preserve" x="-24194" stroke="none" font-size="433.3333" font-family="sans-serif">N</text></g></g></svg>