<svg width="254.58" viewBox="0 0 8486 4993" text-rendering="auto" stroke-width="1" stroke-opacity="1" stroke-miterlimit="10" stroke-linejoin="miter" stroke-linecap="square" stroke-dashoffset="0" stroke-dasharray="none" stroke="black" shape-rendering="auto" image-rendering="auto" height="149.79" font-weight="normal" font-style="normal" font-size="12" font-family="'Dialog'" fill-opacity="1" fill="black" color-rendering="auto" color-interpolation="auto" xmlns="http://www.w3.org/2000/svg"><g><g stroke="white" fill="white"><rect y="0" x="0" width="8486" stroke="none" height="4993"/></g><g transform="translate(32866,32758)" text-rendering="geometricPrecision" stroke-width="44" stroke-linejoin="round" stroke-linecap="round"><line y2="-30847" y1="-31416" x2="-27828" x1="-28810" fill="none"/><line y2="-30772" y1="-31200" x2="-28036" x1="-28773" fill="none"/><line y2="-29712" y1="-30847" x2="-27828" x1="-27828" fill="none"/><line y2="-31416" y1="-30847" x2="-28810" x1="-29798" fill="none"/><line y2="-29143" y1="-29712" x2="-28810" x1="-27828" fill="none"/><line y2="-29359" y1="-29787" x2="-28773" x1="-28036" fill="none"/><line y2="-30847" y1="-29712" x2="-29798" x1="-29798" fill="none"/><line y2="-30706" y1="-29853" x2="-29628" x1="-29628" fill="none"/><line y2="-29712" y1="-29143" x2="-29798" x1="-28810" fill="none"/><line y2="-31373" y1="-30847" x2="-26921" x1="-27828" fill="none"/><line y2="-29186" y1="-29712" x2="-30706" x1="-29798" fill="none"/><line y2="-32465" y1="-31416" x2="-28810" x1="-28810" fill="none"/><line y2="-30957" y1="-31373" x2="-26202" x1="-26921" fill="none"/><line y2="-31263" y1="-30957" x2="-25295" x1="-25826" fill="none"/><line y2="-32202" y1="-31373" x2="-26990" x1="-26990" fill="none"/><line y2="-32202" y1="-31373" x2="-26852" x1="-26852" fill="none"/><line y2="-29602" y1="-29186" x2="-31425" x1="-30706" fill="none"/><line y2="-29354" y1="-29602" x2="-32231" x1="-31800" fill="none"/><line y2="-28360" y1="-29186" x2="-30636" x1="-30636" fill="none"/><line y2="-28360" y1="-29186" x2="-30775" x1="-30775" fill="none"/><text y="-30668" xml:space="preserve" x="-26167" stroke="none" font-size="433.3333" font-family="sans-serif">O</text><text y="-32242" xml:space="preserve" x="-27074" stroke="none" font-size="433.3333" font-family="sans-serif">O</text><text y="-31194" xml:space="preserve" x="-25260" stroke="none" font-size="433.3333" font-family="sans-serif">CH</text><text y="-31104" xml:space="preserve" x="-24682" stroke="none" font-size="313.3333" font-family="sans-serif">3</text><text y="-29533" xml:space="preserve" x="-31766" stroke="none" font-size="433.3333" font-family="sans-serif">O</text><text y="-27961" xml:space="preserve" x="-30859" stroke="none" font-size="433.3333" font-family="sans-serif">O</text><text y="-28955" xml:space="preserve" x="-32762" stroke="none" font-size="433.3333" font-family="sans-serif">CH</text><text y="-28865" xml:space="preserve" x="-32185" stroke="none" font-size="313.3333" font-family="sans-serif">3</text></g></g></svg>