<svg width="328.89" viewBox="0 0 10963 10183" text-rendering="auto" stroke-width="1" stroke-opacity="1" stroke-miterlimit="10" stroke-linejoin="miter" stroke-linecap="square" stroke-dashoffset="0" stroke-dasharray="none" stroke="black" shape-rendering="auto" image-rendering="auto" height="305.49" font-weight="normal" font-style="normal" font-size="12" font-family="'Dialog'" fill-opacity="1" fill="black" color-rendering="auto" color-interpolation="auto" xmlns="http://www.w3.org/2000/svg"><g><g stroke="white" fill="white"><rect y="0" x="0" width="10963" stroke="none" height="10183"/></g><g transform="translate(32866,32866)" text-rendering="geometricPrecision" stroke-width="44" stroke-linejoin="round" stroke-linecap="round"><line y2="-29954" y1="-29495" x2="-29651" x1="-30451" fill="none"/><line y2="-29495" y1="-29954" x2="-28857" x1="-29651" fill="none"/><line y2="-29406" y1="-29749" x2="-29042" x1="-29637" fill="none"/><line y2="-28250" y1="-29166" x2="-30639" x1="-30639" fill="none"/><line y2="-29495" y1="-29954" x2="-30827" x1="-31624" fill="none"/><line y2="-28250" y1="-29166" x2="-28669" x1="-28669" fill="none"/><line y2="-28250" y1="-28250" x2="-30639" x1="-28669" fill="none"/><line y2="-28420" y1="-28420" x2="-30394" x1="-28914" fill="none"/><line y2="-27681" y1="-28250" x2="-31624" x1="-30639" fill="none"/><line y2="-29954" y1="-29385" x2="-31624" x1="-32609" fill="none"/><line y2="-29738" y1="-29310" x2="-31662" x1="-32401" fill="none"/><line y2="-28140" y1="-27681" x2="-32422" x1="-31624" fill="none"/><line y2="-28230" y1="-27886" x2="-32237" x1="-31639" fill="none"/><line y2="-29385" y1="-28470" x2="-32609" x1="-32609" fill="none"/><line y2="-27724" y1="-28250" x2="-27762" x1="-28669" fill="none"/><line y2="-26852" y1="-27681" x2="-31624" x1="-31624" fill="none"/><line y2="-27724" y1="-26589" x2="-27762" x1="-27762" fill="none"/><line y2="-27583" y1="-26730" x2="-27591" x1="-27591" fill="none"/><line y2="-28293" y1="-27724" x2="-26774" x1="-27762" fill="none"/><line y2="-26589" y1="-26020" x2="-27762" x1="-26774" fill="none"/><line y2="-27724" y1="-28293" x2="-25792" x1="-26774" fill="none"/><line y2="-27649" y1="-28077" x2="-26000" x1="-26736" fill="none"/><line y2="-26020" y1="-26589" x2="-26774" x1="-25792" fill="none"/><line y2="-26236" y1="-26664" x2="-26736" x1="-26000" fill="none"/><line y2="-26589" y1="-27724" x2="-25792" x1="-25792" fill="none"/><line y2="-26063" y1="-26589" x2="-24884" x1="-25792" fill="none"/><line y2="-31003" y1="-31561" x2="-29651" x1="-28897" fill="none"/><line y2="-31699" y1="-31003" x2="-30552" x1="-29651" fill="none"/><line y2="-31919" y1="-32762" x2="-28776" x1="-29039" fill="none"/><line y2="-32762" y1="-31699" x2="-30183" x1="-30552" fill="none"/><line y2="-32762" y1="-32762" x2="-29039" x1="-30183" fill="none"/><line y2="-31174" y1="-31590" x2="-27802" x1="-28522" fill="none"/><line y2="-25234" y1="-26063" x2="-24884" x1="-24884" fill="none"/><line y2="-24492" y1="-24798" x2="-23977" x1="-24503" fill="none"/><line y2="-26540" y1="-26124" x2="-24200" x1="-24919" fill="none"/><line y2="-26418" y1="-26002" x2="-24130" x1="-24850" fill="none"/><line y2="-31174" y1="-31174" x2="-26754" x1="-27802" fill="none"/><line y2="-30347" y1="-31174" x2="-27733" x1="-27733" fill="none"/><line y2="-30347" y1="-31174" x2="-27872" x1="-27872" fill="none"/><line y2="-25061" y1="-24492" x2="-22992" x1="-23977" fill="none"/><line y2="-24844" y1="-24416" x2="-23030" x1="-23769" fill="none"/><line y2="-24492" y1="-23573" x2="-23977" x1="-23977" fill="none"/><line y2="-24492" y1="-25061" x2="-22007" x1="-22992" fill="none"/><line y2="-23246" y1="-22787" x2="-23790" x1="-22992" fill="none"/><line y2="-23336" y1="-22989" x2="-23605" x1="-23007" fill="none"/><line y2="-23353" y1="-24492" x2="-22007" x1="-22007" fill="none"/><line y2="-23498" y1="-24350" x2="-22178" x1="-22178" fill="none"/><line y2="-22787" y1="-23353" x2="-22992" x1="-22007" fill="none"/><line y2="-31174" y1="-31174" x2="-25708" x1="-26754" fill="none"/><line y2="-31263" y1="-31263" x2="-25708" x1="-26754" fill="none"/><line y2="-31084" y1="-31084" x2="-25708" x1="-26754" fill="none"/><line y2="-31174" y1="-31174" x2="-24659" x1="-25708" fill="none"/><line y2="-29954" y1="-29954" x2="-29720" x1="-29582" fill="none"/><line y2="-30171" y1="-30171" x2="-29706" x1="-29596" fill="none"/><line y2="-30387" y1="-30387" x2="-29691" x1="-29611" fill="none"/><line y2="-30604" y1="-30604" x2="-29677" x1="-29625" fill="none"/><line y2="-30821" y1="-30821" x2="-29663" x1="-29639" fill="none"/><text y="-29949" xml:space="preserve" x="-27955" stroke="none" font-size="433.3333" font-family="sans-serif">O</text><text y="-26453" xml:space="preserve" x="-31774" stroke="none" font-size="433.3333" font-family="sans-serif">NH</text><text y="-26364" xml:space="preserve" x="-31197" stroke="none" font-size="313.3333" font-family="sans-serif">2</text><text y="-24838" xml:space="preserve" x="-25038" stroke="none" font-size="433.3333" font-family="sans-serif">NH</text><text y="-26410" xml:space="preserve" x="-24130" stroke="none" font-size="433.3333" font-family="sans-serif">O</text><text y="-29206" xml:space="preserve" x="-30792" stroke="none" font-size="433.3333" font-family="sans-serif">N</text><text y="-29206" xml:space="preserve" x="-28822" stroke="none" font-size="433.3333" font-family="sans-serif">N</text><text y="-28071" xml:space="preserve" x="-32762" stroke="none" font-size="433.3333" font-family="sans-serif">N</text><text y="-31520" xml:space="preserve" x="-28862" stroke="none" font-size="433.3333" font-family="sans-serif">N</text><text y="-23174" xml:space="preserve" x="-24130" stroke="none" font-size="433.3333" font-family="sans-serif">N</text><text y="-31124" xml:space="preserve" x="-29804" stroke="none" font-style="italic" font-size="313.3333" font-family="sans-serif">S</text></g></g></svg>