<svg width="337.68" viewBox="0 0 11256 5446" text-rendering="auto" stroke-width="1" stroke-opacity="1" stroke-miterlimit="10" stroke-linejoin="miter" stroke-linecap="square" stroke-dashoffset="0" stroke-dasharray="none" stroke="black" shape-rendering="auto" image-rendering="auto" height="163.38" font-weight="normal" font-style="normal" font-size="12" font-family="'Dialog'" fill-opacity="1" fill="black" color-rendering="auto" color-interpolation="auto" xmlns="http://www.w3.org/2000/svg"><g><g stroke="white" fill="white"><rect y="0" x="0" width="11256" stroke="none" height="5446"/></g><g transform="translate(32866,32758)" text-rendering="geometricPrecision" stroke-width="44" stroke-linejoin="round" stroke-linecap="round"><line y2="-29339" y1="-30235" x2="-29515" x1="-29206" fill="none"/><line y2="-30235" y1="-30818" x2="-29206" x1="-29960" fill="none"/><line y2="-30174" y1="-30610" x2="-29406" x1="-29972" fill="none"/><line y2="-29120" y1="-29120" x2="-30795" x1="-29781" fill="none"/><line y2="-30824" y1="-30373" x2="-30339" x1="-30951" fill="none"/><line y2="-30015" y1="-29120" x2="-31072" x1="-30795" fill="none"/><line y2="-29954" y1="-29281" x2="-30873" x1="-30665" fill="none"/><line y2="-30651" y1="-30235" x2="-28487" x1="-29206" fill="none"/><line y2="-30235" y1="-30651" x2="-27392" x1="-28111" fill="none"/><line y2="-30758" y1="-30235" x2="-26485" x1="-27392" fill="none"/><line y2="-28597" y1="-29120" x2="-31702" x1="-30795" fill="none"/><line y2="-30344" y1="-30758" x2="-25766" x1="-26485" fill="none"/><line y2="-31587" y1="-30758" x2="-26554" x1="-26554" fill="none"/><line y2="-31587" y1="-30758" x2="-26416" x1="-26416" fill="none"/><line y2="-29010" y1="-28597" x2="-32422" x1="-31702" fill="none"/><line y2="-27906" y1="-28597" x2="-32098" x1="-31702" fill="none"/><line y2="-27906" y1="-28597" x2="-31304" x1="-31702" fill="none"/><line y2="-30758" y1="-30344" x2="-24671" x1="-25390" fill="none"/><line y2="-29186" y1="-30015" x2="-25578" x1="-25578" fill="none"/><line y2="-31896" y1="-30758" x2="-24671" x1="-24671" fill="none"/><line y2="-31754" y1="-30902" x2="-24500" x1="-24500" fill="none"/><line y2="-30758" y1="-30191" x2="-24671" x1="-23683" fill="none"/><line y2="-32465" y1="-31896" x2="-23683" x1="-24671" fill="none"/><line y2="-30191" y1="-30758" x2="-23683" x1="-22700" fill="none"/><line y2="-30408" y1="-30836" x2="-23645" x1="-22908" fill="none"/><line y2="-31896" y1="-32465" x2="-22700" x1="-23683" fill="none"/><line y2="-31821" y1="-32248" x2="-22908" x1="-23645" fill="none"/><line y2="-30758" y1="-31896" x2="-22700" x1="-22700" fill="none"/><line y2="-32312" y1="-31896" x2="-21981" x1="-22700" fill="none"/><line y2="-28663" y1="-29186" x2="-24671" x1="-25578" fill="none"/><line y2="-28663" y1="-29186" x2="-26485" x1="-25578" fill="none"/><text y="-30056" xml:space="preserve" x="-25731" stroke="none" font-size="433.3333" font-family="sans-serif">N</text><text y="-31627" xml:space="preserve" x="-26638" stroke="none" font-size="433.3333" font-family="sans-serif">O</text><text y="-30578" xml:space="preserve" x="-28452" stroke="none" font-size="433.3333" font-family="sans-serif">O</text><text y="-32242" xml:space="preserve" x="-21946" stroke="none" font-size="433.3333" font-family="sans-serif">F</text><text y="-28940" xml:space="preserve" x="-32762" stroke="none" font-size="433.3333" font-family="sans-serif">F</text><text y="-27508" xml:space="preserve" x="-32378" stroke="none" font-size="433.3333" font-family="sans-serif">F</text><text y="-27508" xml:space="preserve" x="-31330" stroke="none" font-size="433.3333" font-family="sans-serif">F</text><text y="-28940" xml:space="preserve" x="-29744" stroke="none" font-size="433.3333" font-family="sans-serif">S</text><text y="-30784" xml:space="preserve" x="-30301" stroke="none" font-size="433.3333" font-family="sans-serif">N</text><text y="-30056" xml:space="preserve" x="-31292" stroke="none" font-size="433.3333" font-family="sans-serif">N</text></g></g></svg>