<svg width="510.6" viewBox="0 0 17020 4324" text-rendering="auto" stroke-width="1" stroke-opacity="1" stroke-miterlimit="10" stroke-linejoin="miter" stroke-linecap="square" stroke-dashoffset="0" stroke-dasharray="none" stroke="black" shape-rendering="auto" image-rendering="auto" height="129.72" font-weight="normal" font-style="normal" font-size="12" font-family="'Dialog'" fill-opacity="1" fill="black" color-rendering="auto" color-interpolation="auto" xmlns="http://www.w3.org/2000/svg"><g><g stroke="white" fill="white"><rect y="0" x="0" width="17020" stroke="none" height="4324"/></g><g transform="translate(32866,32866)" text-rendering="geometricPrecision" stroke-width="44" stroke-linejoin="round" stroke-linecap="round"><line y2="-30532" y1="-29385" x2="-29657" x1="-29657" fill="none"/><line y2="-30391" y1="-29530" x2="-29486" x1="-29486" fill="none"/><line y2="-29385" y1="-28813" x2="-29657" x1="-28675" fill="none"/><line y2="-28813" y1="-29385" x2="-30639" x1="-29657" fill="none"/><line y2="-30994" y1="-30532" x2="-28862" x1="-29657" fill="none"/><line y2="-30532" y1="-31107" x2="-29657" x1="-30639" fill="none"/><line y2="-28813" y1="-29385" x2="-28675" x1="-27692" fill="none"/><line y2="-29033" y1="-29460" x2="-28640" x1="-27900" fill="none"/><line y2="-29385" y1="-28813" x2="-31624" x1="-30639" fill="none"/><line y2="-29460" y1="-29033" x2="-31413" x1="-30677" fill="none"/><line y2="-30532" y1="-30994" x2="-27692" x1="-28487" fill="none"/><line y2="-30443" y1="-30789" x2="-27877" x1="-28475" fill="none"/><line y2="-31107" y1="-30532" x2="-30639" x1="-31624" fill="none"/><line y2="-30888" y1="-30457" x2="-30677" x1="-31413" fill="none"/><line y2="-29385" y1="-30532" x2="-27692" x1="-27692" fill="none"/><line y2="-30532" y1="-29385" x2="-31624" x1="-31624" fill="none"/><line y2="-31055" y1="-30532" x2="-26785" x1="-27692" fill="none"/><line y2="-30859" y1="-30532" x2="-32188" x1="-31624" fill="none"/><line y2="-30532" y1="-31055" x2="-25878" x1="-26785" fill="none"/><line y2="-30477" y1="-30870" x2="-26063" x1="-26742" fill="none"/><line y2="-31055" y1="-30532" x2="-24971" x1="-25878" fill="none"/><line y2="-31055" y1="-30489" x2="-24971" x1="-23989" fill="none"/><line y2="-31133" y1="-30706" x2="-24763" x1="-24026" fill="none"/><line y2="-32193" y1="-31055" x2="-24971" x1="-24971" fill="none"/><line y2="-30489" y1="-31055" x2="-23989" x1="-23001" fill="none"/><line y2="-32762" y1="-32193" x2="-23989" x1="-24971" fill="none"/><line y2="-32546" y1="-32118" x2="-24026" x1="-24763" fill="none"/><line y2="-31055" y1="-32193" x2="-23001" x1="-23001" fill="none"/><line y2="-31200" y1="-32052" x2="-23171" x1="-23171" fill="none"/><line y2="-32193" y1="-32762" x2="-23001" x1="-23989" fill="none"/><line y2="-30532" y1="-31055" x2="-22094" x1="-23001" fill="none"/><line y2="-31055" y1="-30532" x2="-21187" x1="-22094" fill="none"/><line y2="-30532" y1="-31055" x2="-20280" x1="-21187" fill="none"/><line y2="-31055" y1="-30532" x2="-19372" x1="-20280" fill="none"/><line y2="-31055" y1="-30489" x2="-19372" x1="-18390" fill="none"/><line y2="-31133" y1="-30706" x2="-19164" x1="-18428" fill="none"/><line y2="-32193" y1="-31055" x2="-19372" x1="-19372" fill="none"/><line y2="-30489" y1="-31055" x2="-18390" x1="-17402" fill="none"/><line y2="-32762" y1="-32193" x2="-18390" x1="-19372" fill="none"/><line y2="-32546" y1="-32118" x2="-18428" x1="-19164" fill="none"/><line y2="-31055" y1="-32193" x2="-17402" x1="-17402" fill="none"/><line y2="-31200" y1="-32052" x2="-17573" x1="-17573" fill="none"/><line y2="-32193" y1="-32762" x2="-17402" x1="-18390" fill="none"/><line y2="-29440" y1="-30489" x2="-18390" x1="-18390" fill="none"/><line y2="-29024" y1="-29440" x2="-17671" x1="-18390" fill="none"/><line y2="-29330" y1="-29024" x2="-16764" x1="-17295" fill="none"/><line y2="-28964" y1="-29380" x2="-19075" x1="-18356" fill="none"/><line y2="-29085" y1="-29501" x2="-19144" x1="-18425" fill="none"/><line y2="-29703" y1="-29703" x2="-22163" x1="-22024" fill="none"/><line y2="-29920" y1="-29920" x2="-22145" x1="-22042" fill="none"/><line y2="-30136" y1="-30136" x2="-22127" x1="-22061" fill="none"/><line y2="-30353" y1="-30353" x2="-22109" x1="-22079" fill="none"/><text y="-30876" xml:space="preserve" x="-32762" stroke="none" font-size="433.3333" font-family="sans-serif">Cl</text><text y="-29304" xml:space="preserve" x="-22247" stroke="none" font-size="433.3333" font-family="sans-serif">OH</text><text y="-28738" xml:space="preserve" x="-17633" stroke="none" font-size="433.3333" font-family="sans-serif">O</text><text y="-28738" xml:space="preserve" x="-19448" stroke="none" font-size="433.3333" font-family="sans-serif">O</text><text y="-29261" xml:space="preserve" x="-16726" stroke="none" font-size="433.3333" font-family="sans-serif">CH</text><text y="-29172" xml:space="preserve" x="-16148" stroke="none" font-size="313.3333" font-family="sans-serif">3</text><text y="-30928" xml:space="preserve" x="-28828" stroke="none" font-size="433.3333" font-family="sans-serif">N</text><text y="-30656" xml:space="preserve" x="-22247" stroke="none" font-style="italic" font-size="313.3333" font-family="sans-serif">S</text></g></g></svg>