<svg width="360.9" viewBox="0 0 12030 2714" text-rendering="auto" stroke-width="1" stroke-opacity="1" stroke-miterlimit="10" stroke-linejoin="miter" stroke-linecap="square" stroke-dashoffset="0" stroke-dasharray="none" stroke="black" shape-rendering="auto" image-rendering="auto" height="81.42" font-weight="normal" font-style="normal" font-size="12" font-family="'Dialog'" fill-opacity="1" fill="black" color-rendering="auto" color-interpolation="auto" xmlns="http://www.w3.org/2000/svg"><g><g stroke="white" fill="white"><rect y="0" x="0" width="12030" stroke="none" height="2714"/></g><g transform="translate(32866,32758)" text-rendering="geometricPrecision" stroke-width="44" stroke-linejoin="round" stroke-linecap="round"><line y2="-31855" y1="-30717" x2="-27164" x1="-27164" fill="none"/><line y2="-30717" y1="-30717" x2="-27164" x1="-25378" fill="none"/><line y2="-30148" y1="-30717" x2="-28146" x1="-27164" fill="none"/><line y2="-30365" y1="-30792" x2="-28108" x1="-27372" fill="none"/><line y2="-32315" y1="-31855" x2="-26364" x1="-27164" fill="none"/><line y2="-31855" y1="-32422" x2="-27164" x1="-28146" fill="none"/><line y2="-31777" y1="-32205" x2="-27372" x1="-28108" fill="none"/><line y2="-30937" y1="-31855" x2="-25191" x1="-25191" fill="none"/><line y2="-30717" y1="-30148" x2="-29134" x1="-28146" fill="none"/><line y2="-31855" y1="-32315" x2="-25191" x1="-25988" fill="none"/><line y2="-31766" y1="-32110" x2="-25376" x1="-25974" fill="none"/><line y2="-32422" y1="-31855" x2="-28146" x1="-29134" fill="none"/><line y2="-31855" y1="-30717" x2="-29134" x1="-29134" fill="none"/><line y2="-31711" y1="-30859" x2="-28964" x1="-28964" fill="none"/><line y2="-32378" y1="-31855" x2="-30041" x1="-29134" fill="none"/><line y2="-31855" y1="-32378" x2="-30948" x1="-30041" fill="none"/><line y2="-32378" y1="-31855" x2="-31855" x1="-30948" fill="none"/><line y2="-31855" y1="-32378" x2="-32762" x1="-31855" fill="none"/><line y2="-32268" y1="-31855" x2="-24471" x1="-25191" fill="none"/><line y2="-31855" y1="-32159" x2="-23376" x1="-23905" fill="none"/><line y2="-32268" y1="-31855" x2="-22657" x1="-23376" fill="none"/><line y2="-31962" y1="-32268" x2="-21750" x1="-22282" fill="none"/><line y2="-31026" y1="-31855" x2="-23307" x1="-23307" fill="none"/><line y2="-31026" y1="-31855" x2="-23446" x1="-23446" fill="none"/><text y="-32199" xml:space="preserve" x="-24437" stroke="none" font-size="433.3333" font-family="sans-serif">NH</text><text y="-32199" xml:space="preserve" x="-22622" stroke="none" font-size="433.3333" font-family="sans-serif">O</text><text y="-30628" xml:space="preserve" x="-23530" stroke="none" font-size="433.3333" font-family="sans-serif">O</text><text y="-31676" xml:space="preserve" x="-21715" stroke="none" font-size="433.3333" font-family="sans-serif">CH</text><text y="-31587" xml:space="preserve" x="-21138" stroke="none" font-size="313.3333" font-family="sans-serif">3</text><text y="-30538" xml:space="preserve" x="-25344" stroke="none" font-size="433.3333" font-family="sans-serif">NH</text><text y="-32242" xml:space="preserve" x="-26326" stroke="none" font-size="433.3333" font-family="sans-serif">N</text></g></g></svg>