<svg width="235.56" viewBox="0 0 7852 5372" text-rendering="auto" stroke-width="1" stroke-opacity="1" stroke-miterlimit="10" stroke-linejoin="miter" stroke-linecap="square" stroke-dashoffset="0" stroke-dasharray="none" stroke="black" shape-rendering="auto" image-rendering="auto" height="161.16" font-weight="normal" font-style="normal" font-size="12" font-family="'Dialog'" fill-opacity="1" fill="black" color-rendering="auto" color-interpolation="auto" xmlns="http://www.w3.org/2000/svg"><g><g stroke="white" fill="white"><rect y="0" x="0" width="7852" stroke="none" height="5372"/></g><g transform="translate(32866,32866)" text-rendering="geometricPrecision" stroke-width="44" stroke-linejoin="round" stroke-linecap="round"><line y2="-29484" y1="-30622" x2="-29059" x1="-29059" fill="none"/><line y2="-30622" y1="-31191" x2="-29059" x1="-30041" fill="none"/><line y2="-30547" y1="-30974" x2="-29267" x1="-30004" fill="none"/><line y2="-31081" y1="-30622" x2="-28259" x1="-29059" fill="none"/><line y2="-29484" y1="-28917" x2="-29059" x1="-28071" fill="none"/><line y2="-28917" y1="-29484" x2="-30041" x1="-29059" fill="none"/><line y2="-29134" y1="-29562" x2="-30004" x1="-29267" fill="none"/><line y2="-31191" y1="-30622" x2="-30041" x1="-31029" fill="none"/><line y2="-30622" y1="-31081" x2="-27089" x1="-27883" fill="none"/><line y2="-28917" y1="-29484" x2="-28071" x1="-27089" fill="none"/><line y2="-29484" y1="-28917" x2="-31029" x1="-30041" fill="none"/><line y2="-30622" y1="-29484" x2="-31029" x1="-31029" fill="none"/><line y2="-30480" y1="-29628" x2="-30859" x1="-30859" fill="none"/><line y2="-29484" y1="-30622" x2="-27089" x1="-27089" fill="none"/><line y2="-31191" y1="-30622" x2="-26101" x1="-27089" fill="none"/><line y2="-30971" y1="-30544" x2="-26138" x1="-26881" fill="none"/><line y2="-29484" y1="-28917" x2="-27089" x1="-26101" fill="none"/><line y2="-29562" y1="-29134" x2="-26881" x1="-26138" fill="none"/><line y2="-30622" y1="-31191" x2="-25118" x1="-26101" fill="none"/><line y2="-28917" y1="-29484" x2="-26101" x1="-25118" fill="none"/><line y2="-29484" y1="-30622" x2="-25118" x1="-25118" fill="none"/><line y2="-29628" y1="-30480" x2="-25289" x1="-25289" fill="none"/><line y2="-32020" y1="-31191" x2="-30041" x1="-30041" fill="none"/><line y2="-32762" y1="-32346" x2="-30948" x1="-30229" fill="none"/><line y2="-32240" y1="-32762" x2="-31855" x1="-30948" fill="none"/><line y2="-32762" y1="-32240" x2="-32762" x1="-31855" fill="none"/><line y2="-28088" y1="-28917" x2="-30041" x1="-30041" fill="none"/><line y2="-28088" y1="-28917" x2="-28002" x1="-28002" fill="none"/><line y2="-28088" y1="-28917" x2="-28143" x1="-28143" fill="none"/><text y="-32060" xml:space="preserve" x="-30194" stroke="none" font-size="433.3333" font-family="sans-serif">O</text><text y="-27690" xml:space="preserve" x="-28224" stroke="none" font-size="433.3333" font-family="sans-serif">O</text><text y="-27690" xml:space="preserve" x="-30272" stroke="none" font-size="433.3333" font-family="sans-serif">Cl</text><text y="-31012" xml:space="preserve" x="-28224" stroke="none" font-size="433.3333" font-family="sans-serif">S</text></g></g></svg>