<svg width="196.35" viewBox="0 0 6545 2871" text-rendering="auto" stroke-width="1" stroke-opacity="1" stroke-miterlimit="10" stroke-linejoin="miter" stroke-linecap="square" stroke-dashoffset="0" stroke-dasharray="none" stroke="black" shape-rendering="auto" image-rendering="auto" height="86.13" font-weight="normal" font-style="normal" font-size="12" font-family="'Dialog'" fill-opacity="1" fill="black" color-rendering="auto" color-interpolation="auto" xmlns="http://www.w3.org/2000/svg"><g><g stroke="white" fill="white"><rect y="0" x="0" width="6545" stroke="none" height="2871"/></g><g transform="translate(32866,32758)" text-rendering="geometricPrecision" stroke-width="44" stroke-linejoin="round" stroke-linecap="round"><line y2="-31376" y1="-31376" x2="-28224" x1="-28626" fill="none"/><line y2="-31376" y1="-31376" x2="-30659" x1="-29952" fill="none"/><line y2="-32202" y1="-31595" x2="-29611" x1="-29611" fill="none"/><line y2="-30547" y1="-31156" x2="-29611" x1="-29611" fill="none"/><line y2="-32202" y1="-31595" x2="-28106" x1="-28106" fill="none"/><line y2="-32202" y1="-31595" x2="-27964" x1="-27964" fill="none"/><line y2="-31445" y1="-31445" x2="-26800" x1="-27508" fill="none"/><line y2="-31304" y1="-31304" x2="-26800" x1="-27508" fill="none"/><line y2="-32202" y1="-31595" x2="-31257" x1="-31257" fill="none"/><line y2="-32202" y1="-31595" x2="-31116" x1="-31116" fill="none"/><line y2="-31304" y1="-31304" x2="-32422" x1="-31376" fill="none"/><line y2="-31445" y1="-31445" x2="-32422" x1="-31376" fill="none"/><text y="-31197" xml:space="preserve" x="-29842" stroke="none" font-size="433.3333" font-family="sans-serif">Pt</text><text y="-31197" xml:space="preserve" x="-28186" stroke="none" font-size="433.3333" font-family="sans-serif">N</text><text y="-31197" xml:space="preserve" x="-31338" stroke="none" font-size="433.3333" font-family="sans-serif">N</text><text y="-32242" xml:space="preserve" x="-29764" stroke="none" font-size="433.3333" font-family="sans-serif">NH</text><text y="-32153" xml:space="preserve" x="-29186" stroke="none" font-size="313.3333" font-family="sans-serif">3</text><text y="-30148" xml:space="preserve" x="-29764" stroke="none" font-size="433.3333" font-family="sans-serif">NH</text><text y="-30058" xml:space="preserve" x="-29186" stroke="none" font-size="313.3333" font-family="sans-serif">3</text><text y="-32242" xml:space="preserve" x="-28186" stroke="none" font-size="433.3333" font-family="sans-serif">O</text><text y="-31197" xml:space="preserve" x="-26762" stroke="none" font-size="433.3333" font-family="sans-serif">O</text><text y="-32242" xml:space="preserve" x="-31338" stroke="none" font-size="433.3333" font-family="sans-serif">O</text><text y="-31197" xml:space="preserve" x="-32762" stroke="none" font-size="433.3333" font-family="sans-serif">O</text><text y="-31306" xml:space="preserve" x="-29270" stroke="none" font-size="313.3333" font-family="sans-serif">2+</text><text y="-31306" xml:space="preserve" x="-27846" stroke="none" font-size="313.3333" font-family="sans-serif">-</text><text y="-31306" xml:space="preserve" x="-31000" stroke="none" font-size="313.3333" font-family="sans-serif">-</text></g></g></svg>