<svg width="143.82" viewBox="0 0 4794 8347" text-rendering="auto" stroke-width="1" stroke-opacity="1" stroke-miterlimit="10" stroke-linejoin="miter" stroke-linecap="square" stroke-dashoffset="0" stroke-dasharray="none" stroke="black" shape-rendering="auto" image-rendering="auto" height="250.41" font-weight="normal" font-style="normal" font-size="12" font-family="'Dialog'" fill-opacity="1" fill="black" color-rendering="auto" color-interpolation="auto" xmlns="http://www.w3.org/2000/svg"><g><g stroke="white" fill="white"><rect y="0" x="0" width="4794" stroke="none" height="8347"/></g><g transform="translate(32866,32758)" text-rendering="geometricPrecision" stroke-width="44" stroke-linejoin="round" stroke-linecap="round"><line y2="-28158" y1="-28758" x2="-30440" x1="-31477" fill="none"/><line y2="-26956" y1="-28158" x2="-30440" x1="-30440" fill="none"/><line y2="-28649" y1="-28158" x2="-29585" x1="-30440" fill="none"/><line y2="-28438" y1="-28071" x2="-29608" x1="-30249" fill="none"/><line y2="-28758" y1="-28158" x2="-31477" x1="-32517" fill="none"/><line y2="-28533" y1="-28085" x2="-31523" x1="-32303" fill="none"/><line y2="-26358" y1="-26956" x2="-31477" x1="-30440" fill="none"/><line y2="-26956" y1="-26956" x2="-30440" x1="-28550" fill="none"/><line y2="-27126" y1="-27126" x2="-30203" x1="-28784" fill="none"/><line y2="-28264" y1="-28649" x2="-28550" x1="-29209" fill="none"/><line y2="-28158" y1="-26956" x2="-32517" x1="-32517" fill="none"/><line y2="-26956" y1="-26358" x2="-32517" x1="-31477" fill="none"/><line y2="-27031" y1="-26580" x2="-32303" x1="-31523" fill="none"/><line y2="-27175" y1="-27938" x2="-28360" x1="-28360" fill="none"/><line y2="-29585" y1="-28758" x2="-31477" x1="-31477" fill="none"/><line y2="-25529" y1="-26358" x2="-31477" x1="-31477" fill="none"/><line y2="-30500" y1="-29949" x2="-32378" x1="-31665" fill="none"/><line y2="-29943" y1="-30500" x2="-31289" x1="-30535" fill="none"/><line y2="-31564" y1="-30500" x2="-32008" x1="-32378" fill="none"/><line y2="-30500" y1="-31564" x2="-30535" x1="-30864" fill="none"/><line y2="-31564" y1="-31564" x2="-30864" x1="-32008" fill="none"/><line y2="-24832" y1="-25139" x2="-32162" x1="-31630" fill="none"/><line y2="-24954" y1="-25263" x2="-32231" x1="-31699" fill="none"/><line y2="-24954" y1="-25263" x2="-30723" x1="-31254" fill="none"/><line y2="-24832" y1="-25139" x2="-30792" x1="-31324" fill="none"/><line y2="-32242" y1="-32162" x2="-32398" x1="-32514" fill="none"/><line y2="-32054" y1="-31996" x2="-32290" x1="-32373" fill="none"/><line y2="-31865" y1="-31830" x2="-32181" x1="-32233" fill="none"/><line y2="-31677" y1="-31663" x2="-32073" x1="-32092" fill="none"/><text y="-25130" xml:space="preserve" x="-31630" stroke="none" font-size="433.3333" font-family="sans-serif">N</text><text y="-24607" xml:space="preserve" x="-32537" stroke="none" font-size="433.3333" font-family="sans-serif">O</text><text y="-24607" xml:space="preserve" x="-30723" stroke="none" font-size="433.3333" font-family="sans-serif">O</text><text y="-32242" xml:space="preserve" x="-32762" stroke="none" font-size="433.3333" font-family="sans-serif">NH</text><text y="-32153" xml:space="preserve" x="-32185" stroke="none" font-size="313.3333" font-family="sans-serif">2</text><text y="-28579" xml:space="preserve" x="-29550" stroke="none" font-size="433.3333" font-family="sans-serif">N</text><text y="-26777" xml:space="preserve" x="-28513" stroke="none" font-size="433.3333" font-family="sans-serif">N</text><text y="-27978" xml:space="preserve" x="-28513" stroke="none" font-size="433.3333" font-family="sans-serif">O</text><text y="-29625" xml:space="preserve" x="-31630" stroke="none" font-size="433.3333" font-family="sans-serif">N</text><text y="-31098" xml:space="preserve" x="-31928" stroke="none" font-style="italic" font-size="313.3333" font-family="sans-serif">R</text></g></g></svg>