<svg width="311.1" viewBox="0 0 10370 7843" text-rendering="auto" stroke-width="1" stroke-opacity="1" stroke-miterlimit="10" stroke-linejoin="miter" stroke-linecap="square" stroke-dashoffset="0" stroke-dasharray="none" stroke="black" shape-rendering="auto" image-rendering="auto" height="235.29" font-weight="normal" font-style="normal" font-size="12" font-family="'Dialog'" fill-opacity="1" fill="black" color-rendering="auto" color-interpolation="auto" xmlns="http://www.w3.org/2000/svg"><g><g stroke="white" fill="white"><rect y="0" x="0" width="10370" stroke="none" height="7843"/></g><g transform="translate(32866,32866)" text-rendering="geometricPrecision" stroke-width="44" stroke-linejoin="round" stroke-linecap="round"><line y2="-28987" y1="-28415" x2="-28764" x1="-27782" fill="none"/><line y2="-28877" y1="-28415" x2="-26990" x1="-27782" fill="none"/><line y2="-27271" y1="-28415" x2="-27782" x1="-27782" fill="none"/><line y2="-28987" y1="-28415" x2="-28764" x1="-29744" fill="none"/><line y2="-30131" y1="-28987" x2="-28764" x1="-28764" fill="none"/><line y2="-29206" y1="-30131" x2="-26803" x1="-26803" fill="none"/><line y2="-28415" y1="-28877" x2="-25820" x1="-26615" fill="none"/><line y2="-26699" y1="-27271" x2="-28764" x1="-27782" fill="none"/><line y2="-27271" y1="-26208" x2="-27782" x1="-27375" fill="none"/><line y2="-27271" y1="-28415" x2="-29744" x1="-29744" fill="none"/><line y2="-28415" y1="-28987" x2="-29744" x1="-30723" fill="none"/><line y2="-30131" y1="-30131" x2="-26803" x1="-28764" fill="none"/><line y2="-27271" y1="-28415" x2="-25820" x1="-25820" fill="none"/><line y2="-27271" y1="-26699" x2="-29744" x1="-28764" fill="none"/><line y2="-26208" y1="-26208" x2="-27375" x1="-26231" fill="none"/><line y2="-27271" y1="-27271" x2="-31517" x1="-29744" fill="none"/><line y2="-28987" y1="-28415" x2="-30723" x1="-31705" fill="none"/><line y2="-26208" y1="-27271" x2="-26231" x1="-25820" fill="none"/><line y2="-28415" y1="-27490" x2="-31705" x1="-31705" fill="none"/><line y2="-30810" y1="-30131" x2="-25624" x1="-26803" fill="none"/><line y2="-25127" y1="-25650" x2="-27857" x1="-28764" fill="none"/><line y2="-28767" y1="-28354" x2="-32459" x1="-31740" fill="none"/><line y2="-28891" y1="-28475" x2="-32390" x1="-31670" fill="none"/><line y2="-31873" y1="-30810" x2="-25254" x1="-25624" fill="none"/><line y2="-30810" y1="-30261" x2="-25624" x1="-24910" fill="none"/><line y2="-31873" y1="-31873" x2="-24110" x1="-25254" fill="none"/><line y2="-30252" y1="-30810" x2="-24535" x1="-23781" fill="none"/><line y2="-30810" y1="-31873" x2="-23781" x1="-24110" fill="none"/><line y2="-30613" y1="-30876" x2="-22952" x1="-23761" fill="none"/><line y2="-30480" y1="-30743" x2="-22995" x1="-23804" fill="none"/><polygon stroke-width="1" stroke="none" points=" -28764 -26699 -28695 -25650 -28831 -25650"/><polygon stroke-width="1" points=" -28764 -26699 -28695 -25650 -28831 -25650" fill="none"/><polygon stroke-width="1" stroke="none" points=" -30723 -28987 -30792 -30032 -30654 -30032"/><polygon stroke-width="1" points=" -30723 -28987 -30792 -30032 -30654 -30032" fill="none"/><polygon stroke-width="1" stroke="none" points=" -27782 -28415 -27851 -29241 -27713 -29241"/><polygon stroke-width="1" points=" -27782 -28415 -27851 -29241 -27713 -29241" fill="none"/><polygon stroke-width="1" stroke="none" points=" -28764 -28987 -28695 -28158 -28831 -28158"/><polygon stroke-width="1" points=" -28764 -28987 -28695 -28158 -28831 -28158" fill="none"/><polygon stroke-width="1" stroke="none" points=" -27782 -27271 -27713 -26130 -27851 -26130"/><polygon stroke-width="1" points=" -27782 -27271 -27713 -26130 -27851 -26130" fill="none"/><polygon stroke-width="1" stroke="none" points=" -25624 -30810 -26283 -31272 -26193 -31379"/><polygon stroke-width="1" points=" -25624 -30810 -26283 -31272 -26193 -31379" fill="none"/><line y2="-29241" y1="-29241" x2="-29674" x1="-29813" fill="none"/><line y2="-29024" y1="-29024" x2="-29692" x1="-29795" fill="none"/><line y2="-28808" y1="-28808" x2="-29711" x1="-29777" fill="none"/><line y2="-28591" y1="-28591" x2="-29729" x1="-29759" fill="none"/><line y2="-30940" y1="-30905" x2="-26947" x1="-27080" fill="none"/><line y2="-30726" y1="-30700" x2="-26909" x1="-27007" fill="none"/><line y2="-30512" y1="-30495" x2="-26871" x1="-26933" fill="none"/><line y2="-30298" y1="-30291" x2="-26833" x1="-26860" fill="none"/><line y2="-26442" y1="-26442" x2="-29813" x1="-29674" fill="none"/><line y2="-26659" y1="-26659" x2="-29795" x1="-29692" fill="none"/><line y2="-26875" y1="-26875" x2="-29777" x1="-29711" fill="none"/><line y2="-27092" y1="-27092" x2="-29759" x1="-29729" fill="none"/><line y2="-32682" y1="-32762" x2="-23437" x1="-23547" fill="none"/><line y2="-32515" y1="-32579" x2="-23576" x1="-23663" fill="none"/><line y2="-32348" y1="-32395" x2="-23715" x1="-23779" fill="none"/><line y2="-32181" y1="-32212" x2="-23854" x1="-23895" fill="none"/><line y2="-32014" y1="-32028" x2="-23992" x1="-24012" fill="none"/><text y="-28758" xml:space="preserve" x="-32762" stroke="none" font-size="433.3333" font-family="sans-serif">O</text><text y="-30307" xml:space="preserve" x="-22937" stroke="none" font-size="433.3333" font-family="sans-serif">O</text><text y="-28808" xml:space="preserve" x="-26953" stroke="none" font-size="433.3333" font-family="sans-serif">N</text><text y="-27092" xml:space="preserve" x="-31855" stroke="none" font-size="433.3333" font-family="sans-serif">O</text><text y="-29934" xml:space="preserve" x="-24876" stroke="none" font-size="433.3333" font-family="sans-serif">O</text><text y="-29281" xml:space="preserve" x="-27935" stroke="none" font-size="433.3333" font-family="sans-serif">H</text><text y="-27759" xml:space="preserve" x="-28914" stroke="none" font-size="433.3333" font-family="sans-serif">H</text><text y="-25731" xml:space="preserve" x="-27935" stroke="none" font-size="433.3333" font-family="sans-serif">H</text><text y="-29281" xml:space="preserve" x="-29894" stroke="none" font-size="433.3333" font-family="sans-serif">H</text><text y="-30963" xml:space="preserve" x="-27224" stroke="none" font-size="433.3333" font-family="sans-serif">H</text><text y="-26043" xml:space="preserve" x="-29894" stroke="none" font-size="433.3333" font-family="sans-serif">H</text><text y="-31304" xml:space="preserve" x="-26577" stroke="none" font-size="433.3333" font-family="sans-serif">H</text><text y="-28091" xml:space="preserve" x="-27687" stroke="none" font-style="italic" font-size="313.3333" font-family="sans-serif">R</text><text y="-28949" xml:space="preserve" x="-28666" stroke="none" font-style="italic" font-size="313.3333" font-family="sans-serif">S</text><text y="-27141" xml:space="preserve" x="-27652" stroke="none" font-style="italic" font-size="313.3333" font-family="sans-serif">R</text><text y="-28091" xml:space="preserve" x="-29645" stroke="none" font-style="italic" font-size="313.3333" font-family="sans-serif">R</text><text y="-29807" xml:space="preserve" x="-26707" stroke="none" font-style="italic" font-size="313.3333" font-family="sans-serif">S</text><text y="-26820" xml:space="preserve" x="-28914" stroke="none" font-style="italic" font-size="313.3333" font-family="sans-serif">R</text><text y="-27233" xml:space="preserve" x="-29645" stroke="none" font-style="italic" font-size="313.3333" font-family="sans-serif">R</text><text y="-28504" xml:space="preserve" x="-30876" stroke="none" font-style="italic" font-size="313.3333" font-family="sans-serif">S</text><text y="-30327" xml:space="preserve" x="-25783" stroke="none" font-style="italic" font-size="313.3333" font-family="sans-serif">S</text><text y="-31408" xml:space="preserve" x="-24494" stroke="none" font-style="italic" font-size="313.3333" font-family="sans-serif">S</text></g></g></svg>