<svg width="260.52" viewBox="0 0 8684 5562" text-rendering="auto" stroke-width="1" stroke-opacity="1" stroke-miterlimit="10" stroke-linejoin="miter" stroke-linecap="square" stroke-dashoffset="0" stroke-dasharray="none" stroke="black" shape-rendering="auto" image-rendering="auto" height="166.86" font-weight="normal" font-style="normal" font-size="12" font-family="'Dialog'" fill-opacity="1" fill="black" color-rendering="auto" color-interpolation="auto" xmlns="http://www.w3.org/2000/svg"><g><g stroke="white" fill="white"><rect y="0" x="0" width="8684" stroke="none" height="5562"/></g><g transform="translate(32866,32758)" text-rendering="geometricPrecision" stroke-width="44" stroke-linejoin="round" stroke-linecap="round"><line y2="-30281" y1="-30850" x2="-28978" x1="-29960" fill="none"/><line y2="-30206" y1="-30633" x2="-29186" x1="-29923" fill="none"/><line y2="-29143" y1="-30281" x2="-28978" x1="-28978" fill="none"/><line y2="-30850" y1="-30281" x2="-29960" x1="-30948" fill="none"/><line y2="-28576" y1="-29143" x2="-29960" x1="-28978" fill="none"/><line y2="-28793" y1="-29221" x2="-29923" x1="-29186" fill="none"/><line y2="-30281" y1="-29143" x2="-30948" x1="-30948" fill="none"/><line y2="-30139" y1="-29287" x2="-30778" x1="-30778" fill="none"/><line y2="-29143" y1="-28576" x2="-30948" x1="-29960" fill="none"/><line y2="-30697" y1="-30281" x2="-28259" x1="-28978" fill="none"/><line y2="-30281" y1="-30697" x2="-27164" x1="-27883" fill="none"/><line y2="-30804" y1="-30281" x2="-26257" x1="-27164" fill="none"/><line y2="-28620" y1="-29143" x2="-31855" x1="-30948" fill="none"/><line y2="-31679" y1="-30850" x2="-29960" x1="-29960" fill="none"/><line y2="-31942" y1="-30804" x2="-26257" x1="-26257" fill="none"/><line y2="-31800" y1="-30948" x2="-26086" x1="-26086" fill="none"/><line y2="-30804" y1="-30238" x2="-26257" x1="-25269" fill="none"/><line y2="-32511" y1="-31942" x2="-25269" x1="-26257" fill="none"/><line y2="-30238" y1="-30804" x2="-25269" x1="-24286" fill="none"/><line y2="-30454" y1="-30882" x2="-25231" x1="-24494" fill="none"/><line y2="-31942" y1="-32511" x2="-24286" x1="-25269" fill="none"/><line y2="-31867" y1="-32294" x2="-24494" x1="-25231" fill="none"/><line y2="-30804" y1="-31942" x2="-24286" x1="-24286" fill="none"/><line y2="-29143" y1="-28620" x2="-32762" x1="-31855" fill="none"/><line y2="-27791" y1="-28620" x2="-31786" x1="-31786" fill="none"/><line y2="-27791" y1="-28620" x2="-31925" x1="-31925" fill="none"/><line y2="-32251" y1="-31945" x2="-30714" x1="-30183" fill="none"/><line y2="-32375" y1="-32066" x2="-30645" x1="-30113" fill="none"/><line y2="-32375" y1="-32066" x2="-29276" x1="-29807" fill="none"/><line y2="-32251" y1="-31945" x2="-29206" x1="-29738" fill="none"/><text y="-30625" xml:space="preserve" x="-28224" stroke="none" font-size="433.3333" font-family="sans-serif">O</text><text y="-31720" xml:space="preserve" x="-30113" stroke="none" font-size="433.3333" font-family="sans-serif">N</text><text y="-32242" xml:space="preserve" x="-31020" stroke="none" font-size="433.3333" font-family="sans-serif">O</text><text y="-32242" xml:space="preserve" x="-29206" stroke="none" font-size="433.3333" font-family="sans-serif">O</text><text y="-27392" xml:space="preserve" x="-32008" stroke="none" font-size="433.3333" font-family="sans-serif">O</text></g></g></svg>