<svg width="250.86" viewBox="0 0 8362 3763" text-rendering="auto" stroke-width="1" stroke-opacity="1" stroke-miterlimit="10" stroke-linejoin="miter" stroke-linecap="square" stroke-dashoffset="0" stroke-dasharray="none" stroke="black" shape-rendering="auto" image-rendering="auto" height="112.89" font-weight="normal" font-style="normal" font-size="12" font-family="'Dialog'" fill-opacity="1" fill="black" color-rendering="auto" color-interpolation="auto" xmlns="http://www.w3.org/2000/svg"><g><g stroke="white" fill="white"><rect y="0" x="0" width="8362" stroke="none" height="3763"/></g><g transform="translate(32866,32758)" text-rendering="geometricPrecision" stroke-width="44" stroke-linejoin="round" stroke-linecap="round"><line y2="-29668" y1="-29668" x2="-29654" x1="-27681" fill="none"/><line y2="-30807" y1="-29668" x2="-27681" x1="-27681" fill="none"/><line y2="-29668" y1="-29099" x2="-27681" x1="-26696" fill="none"/><line y2="-29746" y1="-29319" x2="-27473" x1="-26733" fill="none"/><line y2="-30807" y1="-29668" x2="-29654" x1="-29654" fill="none"/><line y2="-29099" y1="-29668" x2="-30636" x1="-29654" fill="none"/><line y2="-29319" y1="-29744" x2="-30599" x1="-29862" fill="none"/><line y2="-30807" y1="-31376" x2="-27681" x1="-28666" fill="none"/><line y2="-31376" y1="-30807" x2="-26696" x1="-27681" fill="none"/><line y2="-31156" y1="-30729" x2="-26733" x1="-27473" fill="none"/><line y2="-29099" y1="-29668" x2="-26696" x1="-25711" fill="none"/><line y2="-31376" y1="-30807" x2="-28666" x1="-29654" fill="none"/><line y2="-30807" y1="-31376" x2="-29654" x1="-30636" fill="none"/><line y2="-30729" y1="-31156" x2="-29862" x1="-30599" fill="none"/><line y2="-29668" y1="-29099" x2="-31624" x1="-30636" fill="none"/><line y2="-30807" y1="-31376" x2="-25711" x1="-26696" fill="none"/><line y2="-29668" y1="-30807" x2="-25711" x1="-25711" fill="none"/><line y2="-29810" y1="-30665" x2="-25881" x1="-25881" fill="none"/><line y2="-31376" y1="-30807" x2="-30636" x1="-31624" fill="none"/><line y2="-30807" y1="-29668" x2="-31624" x1="-31624" fill="none"/><line y2="-30665" y1="-29810" x2="-31454" x1="-31454" fill="none"/><line y2="-31133" y1="-30807" x2="-25144" x1="-25711" fill="none"/><line y2="-31133" y1="-30807" x2="-32190" x1="-31624" fill="none"/><line y2="-32202" y1="-31376" x2="-28735" x1="-28735" fill="none"/><line y2="-32202" y1="-31376" x2="-28597" x1="-28597" fill="none"/><text y="-32242" xml:space="preserve" x="-28816" stroke="none" font-size="433.3333" font-family="sans-serif">O</text><text y="-31150" xml:space="preserve" x="-25035" stroke="none" font-size="433.3333" font-family="sans-serif">Br</text><text y="-31150" xml:space="preserve" x="-32762" stroke="none" font-size="433.3333" font-family="sans-serif">Br</text></g></g></svg>