<svg width="213.18" viewBox="0 0 7106 3653" text-rendering="auto" stroke-width="1" stroke-opacity="1" stroke-miterlimit="10" stroke-linejoin="miter" stroke-linecap="square" stroke-dashoffset="0" stroke-dasharray="none" stroke="black" shape-rendering="auto" image-rendering="auto" height="109.59" font-weight="normal" font-style="normal" font-size="12" font-family="'Dialog'" fill-opacity="1" fill="black" color-rendering="auto" color-interpolation="auto" xmlns="http://www.w3.org/2000/svg"><g><g stroke="white" fill="white"><rect y="0" x="0" width="7106" stroke="none" height="3653"/></g><g transform="translate(32866,32758)" text-rendering="geometricPrecision" stroke-width="44" stroke-linejoin="round" stroke-linecap="round"><line y2="-31439" y1="-31439" x2="-29885" x1="-28741" fill="none"/><line y2="-31439" y1="-32202" x2="-28741" x1="-29186" fill="none"/><line y2="-32202" y1="-31439" x2="-29440" x1="-29885" fill="none"/><line y2="-30916" y1="-29778" x2="-27834" x1="-27834" fill="none"/><line y2="-30775" y1="-29923" x2="-27664" x1="-27664" fill="none"/><line y2="-31486" y1="-30916" x2="-26846" x1="-27834" fill="none"/><line y2="-29778" y1="-29209" x2="-27834" x1="-26846" fill="none"/><line y2="-30916" y1="-31486" x2="-25864" x1="-26846" fill="none"/><line y2="-30841" y1="-31266" x2="-26072" x1="-26808" fill="none"/><line y2="-29209" y1="-29778" x2="-26846" x1="-25864" fill="none"/><line y2="-29429" y1="-29856" x2="-26808" x1="-26072" fill="none"/><line y2="-29778" y1="-30916" x2="-25864" x1="-25864" fill="none"/><line y2="-30916" y1="-31486" x2="-30792" x1="-31777" fill="none"/><line y2="-30841" y1="-31266" x2="-31000" x1="-31740" fill="none"/><line y2="-29778" y1="-30916" x2="-30792" x1="-30792" fill="none"/><line y2="-31486" y1="-30916" x2="-31777" x1="-32762" fill="none"/><line y2="-29209" y1="-29778" x2="-31777" x1="-30792" fill="none"/><line y2="-29429" y1="-29856" x2="-31740" x1="-31000" fill="none"/><line y2="-30916" y1="-29778" x2="-32762" x1="-32762" fill="none"/><line y2="-30775" y1="-29923" x2="-32595" x1="-32595" fill="none"/><line y2="-29778" y1="-29209" x2="-32762" x1="-31777" fill="none"/><polygon stroke-width="1" stroke="none" points=" -28741 -31439 -27799 -30977 -27866 -30856"/><polygon stroke-width="1" points=" -28741 -31439 -27799 -30977 -27866 -30856" fill="none"/><line y2="-30974" y1="-30856" x2="-30830" x1="-30758" fill="none"/><line y2="-31070" y1="-30976" x2="-30635" x1="-30578" fill="none"/><line y2="-31166" y1="-31097" x2="-30440" x1="-30397" fill="none"/><line y2="-31262" y1="-31217" x2="-30245" x1="-30217" fill="none"/><line y2="-31358" y1="-31338" x2="-30049" x1="-30037" fill="none"/><text y="-32242" xml:space="preserve" x="-29466" stroke="none" font-size="433.3333" font-family="sans-serif">O</text><text y="-30986" xml:space="preserve" x="-28966" stroke="none" font-style="italic" font-size="313.3333" font-family="sans-serif">S</text><text y="-31535" xml:space="preserve" x="-30281" stroke="none" font-style="italic" font-size="313.3333" font-family="sans-serif">S</text></g></g></svg>