<svg width="144.21" viewBox="0 0 4807 5207" text-rendering="auto" stroke-width="1" stroke-opacity="1" stroke-miterlimit="10" stroke-linejoin="miter" stroke-linecap="square" stroke-dashoffset="0" stroke-dasharray="none" stroke="black" shape-rendering="auto" image-rendering="auto" height="156.21" font-weight="normal" font-style="normal" font-size="12" font-family="'Dialog'" fill-opacity="1" fill="black" color-rendering="auto" color-interpolation="auto" xmlns="http://www.w3.org/2000/svg"><g><g stroke="white" fill="white"><rect y="0" x="0" width="4807" stroke="none" height="5207"/></g><g transform="translate(32866,32758)" text-rendering="geometricPrecision" stroke-width="44" stroke-linejoin="round" stroke-linecap="round"><line y2="-29576" y1="-30775" x2="-30706" x1="-30706" fill="none"/><line y2="-31376" y1="-30775" x2="-29677" x1="-30706" fill="none"/><line y2="-30775" y1="-31376" x2="-30706" x1="-31734" fill="none"/><line y2="-30703" y1="-31153" x2="-30919" x1="-31691" fill="none"/><line y2="-29576" y1="-28975" x2="-30706" x1="-29677" fill="none"/><line y2="-28975" y1="-29576" x2="-31734" x1="-30706" fill="none"/><line y2="-29198" y1="-29645" x2="-31691" x1="-30919" fill="none"/><line y2="-30885" y1="-31376" x2="-28836" x1="-29677" fill="none"/><line y2="-31376" y1="-30775" x2="-31734" x1="-32762" fill="none"/><line y2="-28975" y1="-29463" x2="-29677" x1="-28836" fill="none"/><line y2="-29576" y1="-28975" x2="-32762" x1="-31734" fill="none"/><line y2="-29796" y1="-30555" x2="-28649" x1="-28649" fill="none"/><line y2="-30775" y1="-29576" x2="-32762" x1="-32762" fill="none"/><line y2="-30625" y1="-29726" x2="-32592" x1="-32592" fill="none"/><line y2="-32202" y1="-31376" x2="-29746" x1="-29746" fill="none"/><line y2="-32202" y1="-31376" x2="-29608" x1="-29608" fill="none"/><line y2="-28146" y1="-28975" x2="-29608" x1="-29608" fill="none"/><line y2="-28146" y1="-28975" x2="-29746" x1="-29746" fill="none"/><text y="-32242" xml:space="preserve" x="-29827" stroke="none" font-size="433.3333" font-family="sans-serif">O</text><text y="-27747" xml:space="preserve" x="-29827" stroke="none" font-size="433.3333" font-family="sans-serif">O</text><text y="-30596" xml:space="preserve" x="-28802" stroke="none" font-size="433.3333" font-family="sans-serif">NH</text><text y="-29397" xml:space="preserve" x="-28802" stroke="none" font-size="433.3333" font-family="sans-serif">NH</text></g></g></svg>