<svg width="157.74" viewBox="0 0 5258 4450" text-rendering="auto" stroke-width="1" stroke-opacity="1" stroke-miterlimit="10" stroke-linejoin="miter" stroke-linecap="square" stroke-dashoffset="0" stroke-dasharray="none" stroke="black" shape-rendering="auto" image-rendering="auto" height="133.5" font-weight="normal" font-style="normal" font-size="12" font-family="'Dialog'" fill-opacity="1" fill="black" color-rendering="auto" color-interpolation="auto" xmlns="http://www.w3.org/2000/svg"><g><g stroke="white" fill="white"><rect y="0" x="0" width="5258" stroke="none" height="4450"/></g><g transform="translate(32866,32758)" text-rendering="geometricPrecision" stroke-width="44" stroke-linejoin="round" stroke-linecap="round"><line y2="-31439" y1="-30301" x2="-30792" x1="-30792" fill="none"/><line y2="-30301" y1="-30301" x2="-30792" x1="-29010" fill="none"/><line y2="-29732" y1="-30301" x2="-31777" x1="-30792" fill="none"/><line y2="-29949" y1="-30376" x2="-31740" x1="-31000" fill="none"/><line y2="-31899" y1="-31439" x2="-29995" x1="-30792" fill="none"/><line y2="-31439" y1="-32008" x2="-30792" x1="-31777" fill="none"/><line y2="-31361" y1="-31789" x2="-31000" x1="-31740" fill="none"/><line y2="-30521" y1="-31439" x2="-28822" x1="-28822" fill="none"/><line y2="-30301" y1="-29732" x2="-32762" x1="-31777" fill="none"/><line y2="-31439" y1="-31899" x2="-28822" x1="-29616" fill="none"/><line y2="-32008" y1="-31439" x2="-31777" x1="-32762" fill="none"/><line y2="-31439" y1="-30301" x2="-32762" x1="-32762" fill="none"/><line y2="-31295" y1="-30443" x2="-32595" x1="-32595" fill="none"/><line y2="-31289" y1="-31439" x2="-27978" x1="-28822" fill="none"/><line y2="-32202" y1="-31439" x2="-28545" x1="-28822" fill="none"/><line y2="-28903" y1="-29732" x2="-31777" x1="-31777" fill="none"/><text y="-28504" xml:space="preserve" x="-32008" stroke="none" font-size="433.3333" font-family="sans-serif">Br</text><text y="-31078" xml:space="preserve" x="-27944" stroke="none" font-size="433.3333" font-family="sans-serif">F</text><text y="-32242" xml:space="preserve" x="-28617" stroke="none" font-size="433.3333" font-family="sans-serif">F</text><text y="-30122" xml:space="preserve" x="-28975" stroke="none" font-size="433.3333" font-family="sans-serif">O</text><text y="-31829" xml:space="preserve" x="-29957" stroke="none" font-size="433.3333" font-family="sans-serif">O</text></g></g></svg>