<svg width="1092.9" viewBox="0 0 36430 4857" text-rendering="auto" stroke-width="1" stroke-opacity="1" stroke-miterlimit="10" stroke-linejoin="miter" stroke-linecap="square" stroke-dashoffset="0" stroke-dasharray="none" stroke="black" shape-rendering="auto" image-rendering="auto" height="145.71" font-weight="normal" font-style="normal" font-size="12" font-family="'Dialog'" fill-opacity="1" fill="black" color-rendering="auto" color-interpolation="auto" xmlns="http://www.w3.org/2000/svg"><g><g stroke="white" fill="white"><rect y="0" x="0" width="36430" stroke="none" height="4857"/></g><g transform="translate(32866,32758)" text-rendering="geometricPrecision" stroke-width="44" stroke-linejoin="round" stroke-linecap="round"><line y2="-29325" y1="-29848" x2="-11474" x1="-12381" fill="none"/><line y2="-29848" y1="-29325" x2="-10567" x1="-11474" fill="none"/><line y2="-29325" y1="-29848" x2="-9660" x1="-10567" fill="none"/><line y2="-29848" y1="-29325" x2="-8753" x1="-9660" fill="none"/><line y2="-29325" y1="-29848" x2="-7846" x1="-8753" fill="none"/><line y2="-29848" y1="-29325" x2="-6939" x1="-7846" fill="none"/><line y2="-29325" y1="-29848" x2="-6032" x1="-6939" fill="none"/><line y2="-29848" y1="-29325" x2="-5124" x1="-6032" fill="none"/><line y2="-29432" y1="-29848" x2="-13101" x1="-12381" fill="none"/><line y2="-29848" y1="-29432" x2="-14198" x1="-13479" fill="none"/><line y2="-30677" y1="-29848" x2="-12454" x1="-12454" fill="none"/><line y2="-30677" y1="-29848" x2="-12312" x1="-12312" fill="none"/><line y2="-29848" y1="-29848" x2="-4079" x1="-5124" fill="none"/><line y2="-29709" y1="-29709" x2="-4209" x1="-4994" fill="none"/><line y2="-29325" y1="-29848" x2="-15106" x1="-14198" fill="none"/><line y2="-29741" y1="-29325" x2="-15825" x1="-15106" fill="none"/><line y2="-29325" y1="-29741" x2="-16920" x1="-16200" fill="none"/><line y2="-31899" y1="-29848" x2="-14196" x1="-14198" fill="none"/><line y2="-32315" y1="-31899" x2="-14915" x1="-14196" fill="none"/><line y2="-31899" y1="-32315" x2="-16010" x1="-15290" fill="none"/><line y2="-29325" y1="-29848" x2="-3172" x1="-4079" fill="none"/><line y2="-29848" y1="-29325" x2="-2262" x1="-3172" fill="none"/><line y2="-29848" y1="-29325" x2="-17827" x1="-16920" fill="none"/><line y2="-29325" y1="-29848" x2="-18734" x1="-17827" fill="none"/><line y2="-29848" y1="-29325" x2="-19641" x1="-18734" fill="none"/><line y2="-29325" y1="-29848" x2="-20548" x1="-19641" fill="none"/><line y2="-29848" y1="-29325" x2="-21455" x1="-20548" fill="none"/><line y2="-29325" y1="-29848" x2="-22362" x1="-21455" fill="none"/><line y2="-29848" y1="-29325" x2="-23270" x1="-22362" fill="none"/><line y2="-29325" y1="-29848" x2="-24177" x1="-23270" fill="none"/><line y2="-28496" y1="-29325" x2="-16848" x1="-16848" fill="none"/><line y2="-28496" y1="-29325" x2="-16989" x1="-16989" fill="none"/><line y2="-32422" y1="-31899" x2="-16920" x1="-16010" fill="none"/><line y2="-31899" y1="-32422" x2="-17827" x1="-16920" fill="none"/><line y2="-32422" y1="-31899" x2="-18734" x1="-17827" fill="none"/><line y2="-31899" y1="-32422" x2="-19641" x1="-18734" fill="none"/><line y2="-32422" y1="-31899" x2="-20548" x1="-19641" fill="none"/><line y2="-31899" y1="-32422" x2="-21455" x1="-20548" fill="none"/><line y2="-32422" y1="-31899" x2="-22362" x1="-21455" fill="none"/><line y2="-31899" y1="-32422" x2="-23270" x1="-22362" fill="none"/><line y2="-31070" y1="-31899" x2="-15940" x1="-15940" fill="none"/><line y2="-31070" y1="-31899" x2="-16079" x1="-16079" fill="none"/><line y2="-29848" y1="-29848" x2="-1216" x1="-2262" fill="none"/><line y2="-29709" y1="-29709" x2="-1346" x1="-2132" fill="none"/><line y2="-29325" y1="-29325" x2="-25225" x1="-24177" fill="none"/><line y2="-29463" y1="-29463" x2="-25092" x1="-24307" fill="none"/><line y2="-31899" y1="-31899" x2="-24318" x1="-23270" fill="none"/><line y2="-32037" y1="-32037" x2="-24185" x1="-23400" fill="none"/><line y2="-29325" y1="-29848" x2="-309" x1="-1216" fill="none"/><line y2="-29848" y1="-29325" x2="598" x1="-309" fill="none"/><line y2="-29848" y1="-29325" x2="-26132" x1="-25225" fill="none"/><line y2="-29325" y1="-29848" x2="-27040" x1="-26132" fill="none"/><line y2="-32422" y1="-31899" x2="-25225" x1="-24318" fill="none"/><line y2="-31899" y1="-32422" x2="-26132" x1="-25225" fill="none"/><line y2="-29848" y1="-29848" x2="1646" x1="598" fill="none"/><line y2="-29709" y1="-29709" x2="1516" x1="730" fill="none"/><line y2="-29325" y1="-29325" x2="-28085" x1="-27040" fill="none"/><line y2="-29463" y1="-29463" x2="-27955" x1="-27170" fill="none"/><line y2="-31899" y1="-31899" x2="-27178" x1="-26132" fill="none"/><line y2="-32037" y1="-32037" x2="-27048" x1="-26262" fill="none"/><line y2="-29325" y1="-29848" x2="2553" x1="1646" fill="none"/><line y2="-29848" y1="-29325" x2="3460" x1="2553" fill="none"/><line y2="-29848" y1="-29325" x2="-28992" x1="-28085" fill="none"/><line y2="-29325" y1="-29848" x2="-29900" x1="-28992" fill="none"/><line y2="-32422" y1="-31899" x2="-28085" x1="-27178" fill="none"/><line y2="-31899" y1="-32422" x2="-28992" x1="-28085" fill="none"/><line y2="-29325" y1="-29325" x2="-30948" x1="-29900" fill="none"/><line y2="-29463" y1="-29463" x2="-30818" x1="-30032" fill="none"/><line y2="-31899" y1="-31899" x2="-30041" x1="-28992" fill="none"/><line y2="-32037" y1="-32037" x2="-29911" x1="-29125" fill="none"/><line y2="-29848" y1="-29325" x2="-31855" x1="-30948" fill="none"/><line y2="-29325" y1="-29848" x2="-32762" x1="-31855" fill="none"/><line y2="-32422" y1="-31899" x2="-30948" x1="-30041" fill="none"/><line y2="-31899" y1="-32422" x2="-31855" x1="-30948" fill="none"/><text y="-29146" xml:space="preserve" x="-13442" stroke="none" font-size="433.3333" font-family="sans-serif">O</text><text y="-29668" xml:space="preserve" x="-16163" stroke="none" font-size="433.3333" font-family="sans-serif">O</text><text y="-32242" xml:space="preserve" x="-15256" stroke="none" font-size="433.3333" font-family="sans-serif">O</text><text y="-30717" xml:space="preserve" x="-12534" stroke="none" font-size="433.3333" font-family="sans-serif">O</text><text y="-28097" xml:space="preserve" x="-17070" stroke="none" font-size="433.3333" font-family="sans-serif">O</text><text y="-30671" xml:space="preserve" x="-16163" stroke="none" font-size="433.3333" font-family="sans-serif">O</text><text y="-29203" xml:space="preserve" x="-4755" stroke="none" font-style="italic" font-size="313.3333" font-family="sans-serif">Z</text><text y="-29611" xml:space="preserve" x="-24853" stroke="none" font-style="italic" font-size="313.3333" font-family="sans-serif">Z</text><text y="-32185" xml:space="preserve" x="-23946" stroke="none" font-style="italic" font-size="313.3333" font-family="sans-serif">Z</text><text y="-29203" xml:space="preserve" x="-1892" stroke="none" font-style="italic" font-size="313.3333" font-family="sans-serif">Z</text><text y="-29611" xml:space="preserve" x="-27716" stroke="none" font-style="italic" font-size="313.3333" font-family="sans-serif">Z</text><text y="-32185" xml:space="preserve" x="-26808" stroke="none" font-style="italic" font-size="313.3333" font-family="sans-serif">Z</text><text y="-29203" xml:space="preserve" x="970" stroke="none" font-style="italic" font-size="313.3333" font-family="sans-serif">Z</text><text y="-29611" xml:space="preserve" x="-30576" stroke="none" font-style="italic" font-size="313.3333" font-family="sans-serif">Z</text><text y="-32185" xml:space="preserve" x="-29668" stroke="none" font-style="italic" font-size="313.3333" font-family="sans-serif">Z</text></g></g></svg>