<svg width="241.71" viewBox="0 0 8057 3307" text-rendering="auto" stroke-width="1" stroke-opacity="1" stroke-miterlimit="10" stroke-linejoin="miter" stroke-linecap="square" stroke-dashoffset="0" stroke-dasharray="none" stroke="black" shape-rendering="auto" image-rendering="auto" height="99.21" font-weight="normal" font-style="normal" font-size="12" font-family="'Dialog'" fill-opacity="1" fill="black" color-rendering="auto" color-interpolation="auto" xmlns="http://www.w3.org/2000/svg"><g><g stroke="white" fill="white"><rect y="0" x="0" width="8057" stroke="none" height="3307"/></g><g transform="translate(32866,32866)" text-rendering="geometricPrecision" stroke-width="44" stroke-linejoin="round" stroke-linecap="round"><line y2="-30232" y1="-31367" x2="-29732" x1="-29732" fill="none"/><line y2="-31936" y1="-31367" x2="-28744" x1="-29732" fill="none"/><line y2="-31367" y1="-31936" x2="-29732" x1="-30717" fill="none"/><line y2="-31292" y1="-31720" x2="-29940" x1="-30680" fill="none"/><line y2="-30232" y1="-30232" x2="-29732" x1="-27762" fill="none"/><line y2="-29663" y1="-30232" x2="-30717" x1="-29732" fill="none"/><line y2="-29879" y1="-30307" x2="-30680" x1="-29940" fill="none"/><line y2="-31367" y1="-31936" x2="-27762" x1="-28744" fill="none"/><line y2="-31936" y1="-31367" x2="-30717" x1="-31702" fill="none"/><line y2="-31367" y1="-30232" x2="-27762" x1="-27762" fill="none"/><line y2="-30232" y1="-29663" x2="-27762" x1="-26774" fill="none"/><line y2="-30307" y1="-29879" x2="-27554" x1="-26814" fill="none"/><line y2="-30232" y1="-29663" x2="-31702" x1="-30717" fill="none"/><line y2="-31936" y1="-31367" x2="-26774" x1="-27762" fill="none"/><line y2="-31720" y1="-31292" x2="-26814" x1="-27554" fill="none"/><line y2="-31367" y1="-30232" x2="-31702" x1="-31702" fill="none"/><line y2="-31226" y1="-30373" x2="-31532" x1="-31532" fill="none"/><line y2="-29663" y1="-30232" x2="-26774" x1="-25792" fill="none"/><line y2="-31367" y1="-31936" x2="-25792" x1="-26774" fill="none"/><line y2="-30232" y1="-31367" x2="-25792" x1="-25792" fill="none"/><line y2="-30373" y1="-31226" x2="-25962" x1="-25962" fill="none"/><line y2="-32762" y1="-31936" x2="-29391" x1="-28744" fill="none"/><line y2="-32728" y1="-31936" x2="-28056" x1="-28744" fill="none"/><line y2="-31783" y1="-31367" x2="-32422" x1="-31702" fill="none"/><line y2="-31783" y1="-31367" x2="-25072" x1="-25792" fill="none"/><text y="-31714" xml:space="preserve" x="-32762" stroke="none" font-size="433.3333" font-family="sans-serif">I</text><text y="-31714" xml:space="preserve" x="-25038" stroke="none" font-size="433.3333" font-family="sans-serif">I</text></g></g></svg>