<svg width="286.65" viewBox="0 0 9555 8544" text-rendering="auto" stroke-width="1" stroke-opacity="1" stroke-miterlimit="10" stroke-linejoin="miter" stroke-linecap="square" stroke-dashoffset="0" stroke-dasharray="none" stroke="black" shape-rendering="auto" image-rendering="auto" height="256.32" font-weight="normal" font-style="normal" font-size="12" font-family="'Dialog'" fill-opacity="1" fill="black" color-rendering="auto" color-interpolation="auto" xmlns="http://www.w3.org/2000/svg"><g><g stroke="white" fill="white"><rect y="0" x="0" width="9555" stroke="none" height="8544"/></g><g transform="translate(32866,32758)" text-rendering="geometricPrecision" stroke-width="44" stroke-linejoin="round" stroke-linecap="round"><line y2="-26840" y1="-27412" x2="-27773" x1="-28756" fill="none"/><line y2="-27412" y1="-26840" x2="-28756" x1="-29738" fill="none"/><line y2="-28559" y1="-27412" x2="-28756" x1="-28756" fill="none"/><line y2="-26840" y1="-27412" x2="-27773" x1="-26788" fill="none"/><line y2="-25693" y1="-26840" x2="-27773" x1="-27773" fill="none"/><line y2="-25693" y1="-26840" x2="-29738" x1="-29738" fill="none"/><line y2="-26840" y1="-27412" x2="-29738" x1="-30720" fill="none"/><line y2="-29131" y1="-28559" x2="-27773" x1="-28756" fill="none"/><line y2="-28559" y1="-27412" x2="-26788" x1="-26788" fill="none"/><line y2="-27412" y1="-26840" x2="-26788" x1="-25806" fill="none"/><line y2="-25118" y1="-25693" x2="-28756" x1="-27773" fill="none"/><line y2="-25693" y1="-25118" x2="-29738" x1="-28756" fill="none"/><line y2="-25118" y1="-25693" x2="-30720" x1="-29738" fill="none"/><line y2="-27412" y1="-26840" x2="-30720" x1="-31702" fill="none"/><line y2="-28559" y1="-29131" x2="-26788" x1="-27773" fill="none"/><line y2="-28484" y1="-28912" x2="-26999" x1="-27736" fill="none"/><line y2="-29131" y1="-28559" x2="-25806" x1="-26788" fill="none"/><line y2="-26840" y1="-27412" x2="-25806" x1="-24824" fill="none"/><line y2="-25693" y1="-25118" x2="-31702" x1="-30720" fill="none"/><line y2="-26840" y1="-25693" x2="-31702" x1="-31702" fill="none"/><line y2="-28559" y1="-29131" x2="-24824" x1="-25806" fill="none"/><line y2="-30278" y1="-29131" x2="-25806" x1="-25806" fill="none"/><line y2="-27412" y1="-28559" x2="-24824" x1="-24824" fill="none"/><line y2="-28559" y1="-29131" x2="-24824" x1="-23842" fill="none"/><line y2="-30850" y1="-30278" x2="-24824" x1="-25806" fill="none"/><line y2="-29131" y1="-30278" x2="-23842" x1="-23842" fill="none"/><line y2="-30278" y1="-30850" x2="-23842" x1="-24824" fill="none"/><line y2="-31899" y1="-30850" x2="-24824" x1="-24824" fill="none"/><line y2="-24318" y1="-25118" x2="-31393" x1="-30720" fill="none"/><line y2="-24318" y1="-25118" x2="-30047" x1="-30720" fill="none"/><line y2="-28912" y1="-28498" x2="-29510" x1="-28790" fill="none"/><line y2="-29036" y1="-28620" x2="-29437" x1="-28721" fill="none"/><line y2="-32315" y1="-31899" x2="-24104" x1="-24824" fill="none"/><line y2="-32254" y1="-31838" x2="-25578" x1="-24858" fill="none"/><line y2="-32375" y1="-31959" x2="-25508" x1="-24789" fill="none"/><polygon stroke-width="1" stroke="none" points=" -27773 -26840 -27840 -27886 -27704 -27886"/><polygon stroke-width="1" points=" -27773 -26840 -27840 -27886 -27704 -27886" fill="none"/><polygon stroke-width="1" stroke="none" points=" -29738 -26840 -29807 -27886 -29668 -27886"/><polygon stroke-width="1" points=" -29738 -26840 -29807 -27886 -29668 -27886" fill="none"/><polygon stroke-width="1" stroke="none" points=" -24824 -28559 -24893 -29605 -24754 -29605"/><polygon stroke-width="1" points=" -24824 -28559 -24893 -29605 -24754 -29605" fill="none"/><polygon stroke-width="1" stroke="none" points=" -31702 -25693 -32193 -25329 -32266 -25448"/><polygon stroke-width="1" points=" -31702 -25693 -32193 -25329 -32266 -25448" fill="none"/><line y2="-31315" y1="-31434" x2="-23882" x1="-23951" fill="none"/><line y2="-31219" y1="-31313" x2="-24077" x1="-24131" fill="none"/><line y2="-31123" y1="-31193" x2="-24271" x1="-24312" fill="none"/><line y2="-31027" y1="-31072" x2="-24466" x1="-24492" fill="none"/><line y2="-30931" y1="-30951" x2="-24661" x1="-24673" fill="none"/><line y2="-26364" y1="-26364" x2="-26858" x1="-26722" fill="none"/><line y2="-26581" y1="-26581" x2="-26844" x1="-26736" fill="none"/><line y2="-26797" y1="-26797" x2="-26829" x1="-26749" fill="none"/><line y2="-27014" y1="-27014" x2="-26815" x1="-26763" fill="none"/><line y2="-27231" y1="-27231" x2="-26800" x1="-26777" fill="none"/><line y2="-26583" y1="-26583" x2="-28822" x1="-28686" fill="none"/><line y2="-26800" y1="-26800" x2="-28805" x1="-28704" fill="none"/><line y2="-27016" y1="-27016" x2="-28788" x1="-28723" fill="none"/><line y2="-27233" y1="-27233" x2="-28770" x1="-28741" fill="none"/><line y2="-28302" y1="-28302" x2="-25875" x1="-25740" fill="none"/><line y2="-28519" y1="-28519" x2="-25857" x1="-25757" fill="none"/><line y2="-28735" y1="-28735" x2="-25839" x1="-25774" fill="none"/><line y2="-28952" y1="-28952" x2="-25821" x1="-25792" fill="none"/><line y2="-24864" y1="-24864" x2="-29807" x1="-29668" fill="none"/><line y2="-25081" y1="-25081" x2="-29789" x1="-29686" fill="none"/><line y2="-25297" y1="-25297" x2="-29771" x1="-29705" fill="none"/><line y2="-25514" y1="-25514" x2="-29753" x1="-29723" fill="none"/><text y="-28903" xml:space="preserve" x="-29813" stroke="none" font-size="433.3333" font-family="sans-serif">O</text><text y="-24988" xml:space="preserve" x="-32762" stroke="none" font-size="433.3333" font-family="sans-serif">OH</text><text y="-32242" xml:space="preserve" x="-24070" stroke="none" font-size="433.3333" font-family="sans-serif">OH</text><text y="-32242" xml:space="preserve" x="-25884" stroke="none" font-size="433.3333" font-family="sans-serif">O</text><text y="-26184" xml:space="preserve" x="-28906" stroke="none" font-size="433.3333" font-family="sans-serif">H</text><text y="-27903" xml:space="preserve" x="-25959" stroke="none" font-size="433.3333" font-family="sans-serif">H</text><text y="-24466" xml:space="preserve" x="-29888" stroke="none" font-size="433.3333" font-family="sans-serif">H</text><text y="-27378" xml:space="preserve" x="-29154" stroke="none" font-style="italic" font-size="313.3333" font-family="sans-serif">R</text><text y="-26517" xml:space="preserve" x="-27675" stroke="none" font-style="italic" font-size="313.3333" font-family="sans-serif">R</text><text y="-26517" xml:space="preserve" x="-29640" stroke="none" font-style="italic" font-size="313.3333" font-family="sans-serif">S</text><text y="-27378" xml:space="preserve" x="-27190" stroke="none" font-style="italic" font-size="313.3333" font-family="sans-serif">S</text><text y="-25659" xml:space="preserve" x="-30136" stroke="none" font-style="italic" font-size="313.3333" font-family="sans-serif">R</text><text y="-29096" xml:space="preserve" x="-26208" stroke="none" font-style="italic" font-size="313.3333" font-family="sans-serif">S</text><text y="-25659" xml:space="preserve" x="-31607" stroke="none" font-style="italic" font-size="313.3333" font-family="sans-serif">S</text><text y="-28236" xml:space="preserve" x="-24728" stroke="none" font-style="italic" font-size="313.3333" font-family="sans-serif">S</text><text y="-30370" xml:space="preserve" x="-24977" stroke="none" font-style="italic" font-size="313.3333" font-family="sans-serif">S</text></g></g></svg>