<svg width="472.98" viewBox="0 0 15766 6697" text-rendering="auto" stroke-width="1" stroke-opacity="1" stroke-miterlimit="10" stroke-linejoin="miter" stroke-linecap="square" stroke-dashoffset="0" stroke-dasharray="none" stroke="black" shape-rendering="auto" image-rendering="auto" height="200.91" font-weight="normal" font-style="normal" font-size="12" font-family="'Dialog'" fill-opacity="1" fill="black" color-rendering="auto" color-interpolation="auto" xmlns="http://www.w3.org/2000/svg"><g><g stroke="white" fill="white"><rect y="0" x="0" width="15766" stroke="none" height="6697"/></g><g transform="translate(32866,32758)" text-rendering="geometricPrecision" stroke-width="44" stroke-linejoin="round" stroke-linecap="round"><line y2="-29146" y1="-29715" x2="-25118" x1="-26104" fill="none"/><line y2="-28007" y1="-29146" x2="-25118" x1="-25118" fill="none"/><line y2="-29715" y1="-29146" x2="-26104" x1="-27089" fill="none"/><line y2="-27438" y1="-28007" x2="-26104" x1="-25118" fill="none"/><line y2="-29146" y1="-28007" x2="-27089" x1="-27089" fill="none"/><line y2="-28007" y1="-27438" x2="-27089" x1="-26104" fill="none"/><line y2="-29146" y1="-29562" x2="-23304" x1="-24024" fill="none"/><line y2="-31286" y1="-30870" x2="-27011" x1="-26291" fill="none"/><line y2="-27484" y1="-28007" x2="-27996" x1="-27089" fill="none"/><line y2="-29668" y1="-29146" x2="-22397" x1="-23304" fill="none"/><line y2="-28316" y1="-29146" x2="-23235" x1="-23235" fill="none"/><line y2="-28316" y1="-29146" x2="-23376" x1="-23376" fill="none"/><line y2="-30760" y1="-31286" x2="-27918" x1="-27011" fill="none"/><line y2="-32112" y1="-31286" x2="-27080" x1="-27080" fill="none"/><line y2="-32112" y1="-31286" x2="-26941" x1="-26941" fill="none"/><line y2="-27788" y1="-27484" x2="-28524" x1="-27996" fill="none"/><line y2="-26655" y1="-27484" x2="-27926" x1="-27926" fill="none"/><line y2="-26655" y1="-27484" x2="-28068" x1="-28068" fill="none"/><line y2="-29146" y1="-29668" x2="-21490" x1="-22397" fill="none"/><line y2="-29091" y1="-29484" x2="-21675" x1="-22354" fill="none"/><line y2="-31286" y1="-30760" x2="-28825" x1="-27918" fill="none"/><line y2="-31098" y1="-30706" x2="-28782" x1="-28100" fill="none"/><line y2="-29668" y1="-29146" x2="-20583" x1="-21490" fill="none"/><line y2="-30760" y1="-31286" x2="-29732" x1="-28825" fill="none"/><line y2="-30807" y1="-29668" x2="-20583" x1="-20583" fill="none"/><line y2="-30665" y1="-29810" x2="-20412" x1="-20412" fill="none"/><line y2="-29668" y1="-29099" x2="-20583" x1="-19598" fill="none"/><line y2="-31376" y1="-30807" x2="-19598" x1="-20583" fill="none"/><line y2="-29099" y1="-29668" x2="-19598" x1="-18613" fill="none"/><line y2="-29319" y1="-29744" x2="-19560" x1="-18821" fill="none"/><line y2="-30807" y1="-31376" x2="-18613" x1="-19598" fill="none"/><line y2="-30729" y1="-31156" x2="-18821" x1="-19560" fill="none"/><line y2="-29668" y1="-30807" x2="-18613" x1="-18613" fill="none"/><line y2="-32202" y1="-31376" x2="-19598" x1="-19598" fill="none"/><line y2="-31223" y1="-30807" x2="-17893" x1="-18613" fill="none"/><line y2="-29625" y1="-30760" x2="-29732" x1="-29732" fill="none"/><line y2="-29767" y1="-30619" x2="-29902" x1="-29902" fill="none"/><line y2="-30760" y1="-31330" x2="-29732" x1="-30720" fill="none"/><line y2="-29056" y1="-29625" x2="-30720" x1="-29732" fill="none"/><line y2="-31330" y1="-30760" x2="-30720" x1="-31702" fill="none"/><line y2="-31113" y1="-30685" x2="-30758" x1="-31494" fill="none"/><line y2="-29625" y1="-29056" x2="-31702" x1="-30720" fill="none"/><line y2="-29700" y1="-29273" x2="-31494" x1="-30758" fill="none"/><line y2="-30760" y1="-29625" x2="-31702" x1="-31702" fill="none"/><line y2="-28227" y1="-29056" x2="-30720" x1="-30720" fill="none"/><line y2="-29319" y1="-29625" x2="-32228" x1="-31702" fill="none"/><polygon stroke-width="1" stroke="none" points=" -26104 -29715 -26173 -30541 -26034 -30541"/><polygon stroke-width="1" points=" -26104 -29715 -26173 -30541 -26034 -30541" fill="none"/><line y2="-29501" y1="-29619" x2="-24364" x1="-24434" fill="none"/><line y2="-29408" y1="-29495" x2="-24561" x1="-24613" fill="none"/><line y2="-29316" y1="-29372" x2="-24758" x1="-24791" fill="none"/><line y2="-29223" y1="-29248" x2="-24955" x1="-24970" fill="none"/><line y2="-27178" y1="-27178" x2="-27158" x1="-27022" fill="none"/><line y2="-27395" y1="-27395" x2="-27140" x1="-27040" fill="none"/><line y2="-27611" y1="-27611" x2="-27122" x1="-27057" fill="none"/><line y2="-27828" y1="-27828" x2="-27104" x1="-27075" fill="none"/><line y2="-27531" y1="-27652" x2="-24434" x1="-24367" fill="none"/><line y2="-27655" y1="-27745" x2="-24613" x1="-24563" fill="none"/><line y2="-27780" y1="-27838" x2="-24791" x1="-24760" fill="none"/><line y2="-27904" y1="-27930" x2="-24970" x1="-24956" fill="none"/><text y="-29489" xml:space="preserve" x="-24364" stroke="none" font-size="433.3333" font-family="sans-serif">O</text><text y="-27918" xml:space="preserve" x="-23457" stroke="none" font-size="433.3333" font-family="sans-serif">O</text><text y="-30581" xml:space="preserve" x="-26254" stroke="none" font-size="433.3333" font-family="sans-serif">O</text><text y="-32153" xml:space="preserve" x="-27164" stroke="none" font-size="433.3333" font-family="sans-serif">O</text><text y="-27305" xml:space="preserve" x="-24364" stroke="none" font-size="433.3333" font-family="sans-serif">OH</text><text y="-27828" xml:space="preserve" x="-29056" stroke="none" font-size="433.3333" font-family="sans-serif">OH</text><text y="-26257" xml:space="preserve" x="-28149" stroke="none" font-size="433.3333" font-family="sans-serif">O</text><text y="-26780" xml:space="preserve" x="-27242" stroke="none" font-size="433.3333" font-family="sans-serif">OH</text><text y="-32242" xml:space="preserve" x="-19748" stroke="none" font-size="433.3333" font-family="sans-serif">OH</text><text y="-27828" xml:space="preserve" x="-30870" stroke="none" font-size="433.3333" font-family="sans-serif">OH</text><text y="-31150" xml:space="preserve" x="-17859" stroke="none" font-size="433.3333" font-family="sans-serif">OH</text><text y="-28920" xml:space="preserve" x="-32762" stroke="none" font-size="433.3333" font-family="sans-serif">OH</text><text y="-28822" xml:space="preserve" x="-25520" stroke="none" font-style="italic" font-size="313.3333" font-family="sans-serif">R</text><text y="-29232" xml:space="preserve" x="-26254" stroke="none" font-style="italic" font-size="313.3333" font-family="sans-serif">R</text><text y="-27973" xml:space="preserve" x="-25520" stroke="none" font-style="italic" font-size="313.3333" font-family="sans-serif">R</text><text y="-27973" xml:space="preserve" x="-27490" stroke="none" font-style="italic" font-size="313.3333" font-family="sans-serif">S</text></g></g></svg>