<svg width="165.0" viewBox="0 0 5500 1779" text-rendering="auto" stroke-width="1" stroke-opacity="1" stroke-miterlimit="10" stroke-linejoin="miter" stroke-linecap="square" stroke-dashoffset="0" stroke-dasharray="none" stroke="black" shape-rendering="auto" image-rendering="auto" height="53.37" font-weight="normal" font-style="normal" font-size="12" font-family="'Dialog'" fill-opacity="1" fill="black" color-rendering="auto" color-interpolation="auto" xmlns="http://www.w3.org/2000/svg"><g><g stroke="white" fill="white"><rect y="0" x="0" width="5500" stroke="none" height="1779"/></g><g transform="translate(32866,32866)" text-rendering="geometricPrecision" stroke-width="44" stroke-linejoin="round" stroke-linecap="round"><line y2="-31191" y1="-31714" x2="-29284" x1="-30194" fill="none"/><line y2="-31714" y1="-31191" x2="-28377" x1="-29284" fill="none"/><line y2="-31191" y1="-31714" x2="-31101" x1="-30194" fill="none"/><line y2="-32762" y1="-31714" x2="-30194" x1="-30194" fill="none"/><line y2="-31714" y1="-31714" x2="-30711" x1="-30194" fill="none"/><line y2="-31191" y1="-31714" x2="-27470" x1="-28377" fill="none"/><line y2="-32621" y1="-31714" x2="-27854" x1="-28377" fill="none"/><line y2="-32621" y1="-31714" x2="-28903" x1="-28377" fill="none"/><line y2="-31714" y1="-31714" x2="-32101" x1="-31428" fill="none"/><line y2="-31624" y1="-31624" x2="-32101" x1="-31428" fill="none"/><line y2="-31803" y1="-31803" x2="-32101" x1="-31428" fill="none"/><text y="-31535" xml:space="preserve" x="-31393" stroke="none" font-size="433.3333" font-family="sans-serif">N</text><text y="-31535" xml:space="preserve" x="-32442" stroke="none" font-size="433.3333" font-family="sans-serif">C</text><text y="-31644" xml:space="preserve" x="-31052" stroke="none" font-size="313.3333" font-family="sans-serif">+</text><text y="-31590" xml:space="preserve" x="-32762" stroke="none" font-size="313.3333" font-family="sans-serif">-</text></g></g></svg>