<svg width="206.07" viewBox="0 0 6869 5516" text-rendering="auto" stroke-width="1" stroke-opacity="1" stroke-miterlimit="10" stroke-linejoin="miter" stroke-linecap="square" stroke-dashoffset="0" stroke-dasharray="none" stroke="black" shape-rendering="auto" image-rendering="auto" height="165.48" font-weight="normal" font-style="normal" font-size="12" font-family="'Dialog'" fill-opacity="1" fill="black" color-rendering="auto" color-interpolation="auto" xmlns="http://www.w3.org/2000/svg"><g><g stroke="white" fill="white"><rect y="0" x="0" width="6869" stroke="none" height="5516"/></g><g transform="translate(32866,32758)" text-rendering="geometricPrecision" stroke-width="44" stroke-linejoin="round" stroke-linecap="round"><line y2="-30807" y1="-29668" x2="-30792" x1="-30792" fill="none"/><line y2="-29668" y1="-29668" x2="-30792" x1="-28822" fill="none"/><line y2="-29099" y1="-29668" x2="-31777" x1="-30792" fill="none"/><line y2="-30807" y1="-31376" x2="-30792" x1="-31777" fill="none"/><line y2="-31376" y1="-30807" x2="-29804" x1="-30792" fill="none"/><line y2="-29668" y1="-30807" x2="-28822" x1="-28822" fill="none"/><line y2="-29668" y1="-29099" x2="-32762" x1="-31777" fill="none"/><line y2="-31376" y1="-30807" x2="-31777" x1="-32762" fill="none"/><line y2="-30807" y1="-31376" x2="-28822" x1="-29804" fill="none"/><line y2="-30807" y1="-29668" x2="-32762" x1="-32762" fill="none"/><line y2="-29668" y1="-29146" x2="-27008" x1="-27915" fill="none"/><line y2="-29484" y1="-29091" x2="-27051" x1="-27730" fill="none"/><line y2="-29146" y1="-29668" x2="-26101" x1="-27008" fill="none"/><line y2="-30717" y1="-29668" x2="-27008" x1="-27008" fill="none"/><polygon stroke-width="1" stroke="none" points=" -30792 -30807 -30862 -31852 -30723 -31855"/><polygon stroke-width="1" points=" -30792 -30807 -30862 -31852 -30723 -31855" fill="none"/><polygon stroke-width="1" stroke="none" points=" -31777 -29099 -32214 -28472 -32318 -28562"/><polygon stroke-width="1" points=" -31777 -29099 -32214 -28472 -32318 -28562" fill="none"/><polygon stroke-width="1" stroke="none" points=" -31777 -31376 -31844 -32202 -31708 -32202"/><polygon stroke-width="1" points=" -31777 -31376 -31844 -32202 -31708 -32202" fill="none"/><line y2="-29085" y1="-29206" x2="-27947" x1="-27880" fill="none"/><line y2="-29206" y1="-29302" x2="-28128" x1="-28075" fill="none"/><line y2="-29326" y1="-29397" x2="-28309" x1="-28269" fill="none"/><line y2="-29447" y1="-29493" x2="-28490" x1="-28464" fill="none"/><line y2="-29567" y1="-29588" x2="-28671" x1="-28659" fill="none"/><line y2="-28253" y1="-28342" x2="-31153" x1="-31049" fill="none"/><line y2="-28428" y1="-28498" x2="-31282" x1="-31199" fill="none"/><line y2="-28603" y1="-28655" x2="-31411" x1="-31350" fill="none"/><line y2="-28777" y1="-28811" x2="-31540" x1="-31500" fill="none"/><line y2="-28952" y1="-28968" x2="-31669" x1="-31651" fill="none"/><line y2="-27837" y1="-27837" x2="-30862" x1="-30723" fill="none"/><line y2="-28054" y1="-28054" x2="-30854" x1="-30731" fill="none"/><line y2="-28270" y1="-28270" x2="-30845" x1="-30739" fill="none"/><line y2="-28487" y1="-28487" x2="-30837" x1="-30747" fill="none"/><line y2="-28704" y1="-28704" x2="-30829" x1="-30756" fill="none"/><line y2="-28920" y1="-28920" x2="-30821" x1="-30764" fill="none"/><line y2="-29137" y1="-29137" x2="-30812" x1="-30772" fill="none"/><line y2="-29354" y1="-29354" x2="-30804" x1="-30780" fill="none"/><line y2="-29570" y1="-29570" x2="-30796" x1="-30788" fill="none"/><text y="-28120" xml:space="preserve" x="-32601" stroke="none" font-size="433.3333" font-family="sans-serif">OH</text><text y="-32242" xml:space="preserve" x="-31928" stroke="none" font-size="433.3333" font-family="sans-serif">OH</text><text y="-27438" xml:space="preserve" x="-30945" stroke="none" font-size="433.3333" font-family="sans-serif">H</text><text y="-29634" xml:space="preserve" x="-31194" stroke="none" font-style="italic" font-size="313.3333" font-family="sans-serif">R</text><text y="-30483" xml:space="preserve" x="-30697" stroke="none" font-style="italic" font-size="313.3333" font-family="sans-serif">R</text><text y="-29767" xml:space="preserve" x="-29218" stroke="none" font-style="italic" font-size="313.3333" font-family="sans-serif">R</text><text y="-29224" xml:space="preserve" x="-31928" stroke="none" font-style="italic" font-size="313.3333" font-family="sans-serif">S</text><text y="-30893" xml:space="preserve" x="-31928" stroke="none" font-style="italic" font-size="313.3333" font-family="sans-serif">R</text></g></g></svg>