<svg width="507.81" viewBox="0 0 16927 8907" text-rendering="auto" stroke-width="1" stroke-opacity="1" stroke-miterlimit="10" stroke-linejoin="miter" stroke-linecap="square" stroke-dashoffset="0" stroke-dasharray="none" stroke="black" shape-rendering="auto" image-rendering="auto" height="267.21" font-weight="normal" font-style="normal" font-size="12" font-family="'Dialog'" fill-opacity="1" fill="black" color-rendering="auto" color-interpolation="auto" xmlns="http://www.w3.org/2000/svg"><g><g stroke="white" fill="white"><rect y="0" x="0" width="16927" stroke="none" height="8907"/></g><g transform="translate(32866,32866)" text-rendering="geometricPrecision" stroke-width="44" stroke-linejoin="round" stroke-linecap="round"><line y2="-25971" y1="-27614" x2="-22264" x1="-22264" fill="none"/><line y2="-25150" y1="-25971" x2="-23691" x1="-22264" fill="none"/><line y2="-27614" y1="-28438" x2="-22264" x1="-23691" fill="none"/><line y2="-25971" y1="-25150" x2="-25116" x1="-23691" fill="none"/><line y2="-28438" y1="-27614" x2="-23691" x1="-25116" fill="none"/><line y2="-25150" y1="-25971" x2="-26537" x1="-25116" fill="none"/><line y2="-27614" y1="-28438" x2="-25116" x1="-26537" fill="none"/><line y2="-25864" y1="-25150" x2="-27773" x1="-26537" fill="none"/><line y2="-28438" y1="-27724" x2="-26537" x1="-27773" fill="none"/><line y2="-24945" y1="-25820" x2="-29244" x1="-28149" fill="none"/><line y2="-27765" y1="-28637" x2="-28149" x1="-29244" fill="none"/><line y2="-25315" y1="-24945" x2="-30847" x1="-29244" fill="none"/><line y2="-28637" y1="-28273" x2="-29244" x1="-30847" fill="none"/><line y2="-26794" y1="-25315" x2="-31564" x1="-30847" fill="none"/><line y2="-28273" y1="-26794" x2="-30847" x1="-31564" fill="none"/><line y2="-30009" y1="-29593" x2="-22784" x1="-23504" fill="none"/><line y2="-25971" y1="-25555" x2="-20450" x1="-21169" fill="none"/><line y2="-24925" y1="-25751" x2="-27961" x1="-27961" fill="none"/><line y2="-24399" y1="-24925" x2="-28868" x1="-27961" fill="none"/><line y2="-24925" y1="-24399" x2="-29775" x1="-28868" fill="none"/><line y2="-30209" y1="-29686" x2="-30151" x1="-29244" fill="none"/><line y2="-29264" y1="-28438" x2="-26606" x1="-26606" fill="none"/><line y2="-29264" y1="-28438" x2="-26468" x1="-26468" fill="none"/><line y2="-30009" y1="-29440" x2="-22784" x1="-21802" fill="none"/><line y2="-30928" y1="-30009" x2="-22784" x1="-22784" fill="none"/><line y2="-29440" y1="-30009" x2="-21802" x1="-20814" fill="none"/><line y2="-31714" y1="-31254" x2="-21802" x1="-22596" fill="none"/><line y2="-30009" y1="-31145" x2="-20814" x1="-20814" fill="none"/><line y2="-31145" y1="-31714" x2="-20814" x1="-21802" fill="none"/><line y2="-29582" y1="-30009" x2="-20106" x1="-20814" fill="none"/><line y2="-29885" y1="-29576" x2="-19196" x1="-19728" fill="none"/><line y2="-25971" y1="-25402" x2="-20450" x1="-19465" fill="none"/><line y2="-26889" y1="-25971" x2="-20450" x1="-20450" fill="none"/><line y2="-25402" y1="-25971" x2="-19465" x1="-18480" fill="none"/><line y2="-27678" y1="-27216" x2="-19465" x1="-20262" fill="none"/><line y2="-25971" y1="-27109" x2="-18480" x1="-18480" fill="none"/><line y2="-27109" y1="-27678" x2="-18480" x1="-19465" fill="none"/><line y2="-25864" y1="-25555" x2="-16853" x1="-17385" fill="none"/><line y2="-24619" y1="-25228" x2="-17573" x1="-17573" fill="none"/><polygon stroke-width="1" stroke="none" points=" -23691 -28438 -23761 -29264 -23625 -29264"/><polygon stroke-width="1" points=" -23691 -28438 -23761 -29264 -23625 -29264" fill="none"/><polygon stroke-width="1" stroke="none" points=" -22264 -25971 -21510 -25615 -21577 -25494"/><polygon stroke-width="1" points=" -22264 -25971 -21510 -25615 -21577 -25494" fill="none"/><polygon stroke-width="1" stroke="none" points=" -29244 -28637 -29313 -29683 -29177 -29686"/><polygon stroke-width="1" points=" -29244 -28637 -29313 -29683 -29177 -29686" fill="none"/><polygon stroke-width="1" stroke="none" points=" -23691 -25150 -24327 -24315 -24431 -24402"/><polygon stroke-width="1" points=" -23691 -25150 -24327 -24315 -24431 -24402" fill="none"/><polygon stroke-width="1" stroke="none" points=" -30847 -28273 -30916 -29319 -30778 -29322"/><polygon stroke-width="1" points=" -30847 -28273 -30916 -29319 -30778 -29322" fill="none"/><polygon stroke-width="1" stroke="none" points=" -25116 -27614 -25046 -26693 -25185 -26693"/><polygon stroke-width="1" points=" -25116 -27614 -25046 -26693 -25185 -26693" fill="none"/><polygon stroke-width="1" stroke="none" points=" -26537 -25150 -26468 -24102 -26606 -24102"/><polygon stroke-width="1" points=" -26537 -25150 -26468 -24102 -26606 -24102" fill="none"/><polygon stroke-width="1" stroke="none" points=" -31564 -26794 -32118 -26725 -32118 -26860"/><polygon stroke-width="1" points=" -31564 -26794 -32118 -26725 -32118 -26860" fill="none"/><polygon stroke-width="1" stroke="none" points=" -20814 -30009 -20745 -28961 -20883 -28961"/><polygon stroke-width="1" points=" -20814 -30009 -20745 -28961 -20883 -28961" fill="none"/><polygon stroke-width="1" stroke="none" points=" -21802 -31714 -21871 -32762 -21733 -32762"/><polygon stroke-width="1" points=" -21802 -31714 -21871 -32762 -21733 -32762" fill="none"/><polygon stroke-width="1" stroke="none" points=" -22784 -30009 -22715 -29180 -22854 -29180"/><polygon stroke-width="1" points=" -22784 -30009 -22715 -29180 -22854 -29180" fill="none"/><polygon stroke-width="1" stroke="none" points=" -19465 -25402 -19398 -24575 -19534 -24572"/><polygon stroke-width="1" points=" -19465 -25402 -19398 -24575 -19534 -24572" fill="none"/><polygon stroke-width="1" stroke="none" points=" -20450 -25971 -21204 -26326 -21135 -26447"/><polygon stroke-width="1" points=" -20450 -25971 -21204 -26326 -21135 -26447" fill="none"/><line y2="-28080" y1="-28198" x2="-21322" x1="-21392" fill="none"/><line y2="-27984" y1="-28077" x2="-21517" x1="-21572" fill="none"/><line y2="-27887" y1="-27957" x2="-21712" x1="-21753" fill="none"/><line y2="-27791" y1="-27836" x2="-21906" x1="-21933" fill="none"/><line y2="-27695" y1="-27715" x2="-22101" x1="-22113" fill="none"/><line y2="-24529" y1="-24445" x2="-31546" x1="-31436" fill="none"/><line y2="-24691" y1="-24625" x2="-31402" x1="-31314" fill="none"/><line y2="-24854" y1="-24804" x2="-31257" x1="-31193" fill="none"/><line y2="-25016" y1="-24984" x2="-31113" x1="-31071" fill="none"/><line y2="-25178" y1="-25164" x2="-30968" x1="-30949" fill="none"/><line y2="-24520" y1="-24613" x2="-23255" x1="-23151" fill="none"/><line y2="-24699" y1="-24766" x2="-23379" x1="-23305" fill="none"/><line y2="-24879" y1="-24919" x2="-23503" x1="-23459" fill="none"/><line y2="-25058" y1="-25072" x2="-23628" x1="-23612" fill="none"/><line y2="-28461" y1="-28328" x2="-31361" x1="-31390" fill="none"/><line y2="-28386" y1="-28306" x2="-31156" x1="-31173" fill="none"/><line y2="-28311" y1="-28284" x2="-30950" x1="-30956" fill="none"/><line y2="-31503" y1="-31621" x2="-20060" x1="-20129" fill="none"/><line y2="-31410" y1="-31497" x2="-20256" x1="-20307" fill="none"/><line y2="-31316" y1="-31373" x2="-20453" x1="-20486" fill="none"/><line y2="-31223" y1="-31249" x2="-20649" x1="-20664" fill="none"/><line y2="-28727" y1="-28724" x2="-19398" x1="-19534" fill="none"/><line y2="-28510" y1="-28508" x2="-19412" x1="-19520" fill="none"/><line y2="-28293" y1="-28291" x2="-19426" x1="-19505" fill="none"/><line y2="-28076" y1="-28075" x2="-19440" x1="-19491" fill="none"/><line y2="-27859" y1="-27859" x2="-19453" x1="-19477" fill="none"/><line y2="-25494" y1="-25615" x2="-17792" x1="-17726" fill="none"/><line y2="-25618" y1="-25708" x2="-17971" x1="-17922" fill="none"/><line y2="-25742" y1="-25800" x2="-18150" x1="-18118" fill="none"/><line y2="-25866" y1="-25893" x2="-18329" x1="-18315" fill="none"/><text y="-25269" xml:space="preserve" x="-21510" stroke="none" font-size="433.3333" font-family="sans-serif">O</text><text y="-24168" xml:space="preserve" x="-23171" stroke="none" font-size="433.3333" font-family="sans-serif">OH</text><text y="-29304" xml:space="preserve" x="-23844" stroke="none" font-size="433.3333" font-family="sans-serif">O</text><text y="-24177" xml:space="preserve" x="-19618" stroke="none" font-size="433.3333" font-family="sans-serif">OH</text><text y="-29304" xml:space="preserve" x="-26690" stroke="none" font-size="433.3333" font-family="sans-serif">O</text><text y="-25269" xml:space="preserve" x="-17726" stroke="none" font-size="433.3333" font-family="sans-serif">N</text><text y="-25792" xml:space="preserve" x="-16819" stroke="none" font-size="433.3333" font-family="sans-serif">CH</text><text y="-25702" xml:space="preserve" x="-16241" stroke="none" font-size="313.3333" font-family="sans-serif">3</text><text y="-24220" xml:space="preserve" x="-17726" stroke="none" font-size="433.3333" font-family="sans-serif">CH</text><text y="-24130" xml:space="preserve" x="-17148" stroke="none" font-size="313.3333" font-family="sans-serif">3</text><text y="-29290" xml:space="preserve" x="-20069" stroke="none" font-size="433.3333" font-family="sans-serif">O</text><text y="-29813" xml:space="preserve" x="-19162" stroke="none" font-size="433.3333" font-family="sans-serif">CH</text><text y="-29723" xml:space="preserve" x="-18584" stroke="none" font-size="313.3333" font-family="sans-serif">3</text><text y="-31491" xml:space="preserve" x="-20060" stroke="none" font-size="433.3333" font-family="sans-serif">OH</text><text y="-28331" xml:space="preserve" x="-32020" stroke="none" font-size="433.3333" font-family="sans-serif">OH</text><text y="-26615" xml:space="preserve" x="-32762" stroke="none" font-size="433.3333" font-family="sans-serif">OH</text><text y="-25792" xml:space="preserve" x="-28114" stroke="none" font-size="433.3333" font-family="sans-serif">N</text><text y="-27435" xml:space="preserve" x="-28114" stroke="none" font-size="433.3333" font-family="sans-serif">O</text><text y="-26930" xml:space="preserve" x="-20603" stroke="none" font-size="433.3333" font-family="sans-serif">O</text><text y="-30966" xml:space="preserve" x="-22937" stroke="none" font-size="433.3333" font-family="sans-serif">O</text><text y="-28782" xml:space="preserve" x="-22937" stroke="none" font-size="433.3333" font-family="sans-serif">H</text><text y="-26317" xml:space="preserve" x="-21510" stroke="none" font-size="433.3333" font-family="sans-serif">H</text><text y="-25936" xml:space="preserve" x="-22666" stroke="none" font-style="italic" font-size="313.3333" font-family="sans-serif">R</text><text y="-27291" xml:space="preserve" x="-22666" stroke="none" font-style="italic" font-size="313.3333" font-family="sans-serif">S</text><text y="-25274" xml:space="preserve" x="-23844" stroke="none" font-style="italic" font-size="313.3333" font-family="sans-serif">R</text><text y="-27955" xml:space="preserve" x="-23844" stroke="none" font-style="italic" font-size="313.3333" font-family="sans-serif">S</text><text y="-27739" xml:space="preserve" x="-25266" stroke="none" font-style="italic" font-size="313.3333" font-family="sans-serif">R</text><text y="-25274" xml:space="preserve" x="-26690" stroke="none" font-style="italic" font-size="313.3333" font-family="sans-serif">R</text><text y="-28175" xml:space="preserve" x="-29446" stroke="none" font-style="italic" font-size="313.3333" font-family="sans-serif">R</text><text y="-25422" xml:space="preserve" x="-30766" stroke="none" font-style="italic" font-size="313.3333" font-family="sans-serif">S</text><text y="-27814" xml:space="preserve" x="-30760" stroke="none" font-style="italic" font-size="313.3333" font-family="sans-serif">S</text><text y="-26615" xml:space="preserve" x="-31442" stroke="none" font-style="italic" font-size="313.3333" font-family="sans-serif">R</text><text y="-25936" xml:space="preserve" x="-20355" stroke="none" font-style="italic" font-size="313.3333" font-family="sans-serif">S</text><text y="-25526" xml:space="preserve" x="-19618" stroke="none" font-style="italic" font-size="313.3333" font-family="sans-serif">R</text><text y="-25936" xml:space="preserve" x="-18881" stroke="none" font-style="italic" font-size="313.3333" font-family="sans-serif">S</text><text y="-27196" xml:space="preserve" x="-19618" stroke="none" font-style="italic" font-size="313.3333" font-family="sans-serif">R</text><text y="-29972" xml:space="preserve" x="-22689" stroke="none" font-style="italic" font-size="313.3333" font-family="sans-serif">R</text><text y="-29972" xml:space="preserve" x="-20719" stroke="none" font-style="italic" font-size="313.3333" font-family="sans-serif">R</text><text y="-31234" xml:space="preserve" x="-21952" stroke="none" font-style="italic" font-size="313.3333" font-family="sans-serif">S</text><text y="-30824" xml:space="preserve" x="-21216" stroke="none" font-style="italic" font-size="313.3333" font-family="sans-serif">S</text></g></g></svg>