<svg width="345.33" viewBox="0 0 11511 5464" text-rendering="auto" stroke-width="1" stroke-opacity="1" stroke-miterlimit="10" stroke-linejoin="miter" stroke-linecap="square" stroke-dashoffset="0" stroke-dasharray="none" stroke="black" shape-rendering="auto" image-rendering="auto" height="163.92" font-weight="normal" font-style="normal" font-size="12" font-family="'Dialog'" fill-opacity="1" fill="black" color-rendering="auto" color-interpolation="auto" xmlns="http://www.w3.org/2000/svg"><g><g stroke="white" fill="white"><rect y="0" x="0" width="11511" stroke="none" height="5464"/></g><g transform="translate(32866,32758)" text-rendering="geometricPrecision" stroke-width="44" stroke-linejoin="round" stroke-linecap="round"><line y2="-29374" y1="-29943" x2="-24523" x1="-25506" fill="none"/><line y2="-29943" y1="-29374" x2="-25506" x1="-26494" fill="none"/><line y2="-29726" y1="-29299" x2="-25546" x1="-26286" fill="none"/><line y2="-28238" y1="-29374" x2="-24523" x1="-24523" fill="none"/><line y2="-28380" y1="-29232" x2="-24694" x1="-24694" fill="none"/><line y2="-29943" y1="-29374" x2="-23535" x1="-24523" fill="none"/><line y2="-28238" y1="-29374" x2="-26494" x1="-26494" fill="none"/><line y2="-29374" y1="-29943" x2="-26494" x1="-27476" fill="none"/><line y2="-27669" y1="-28238" x2="-25506" x1="-24523" fill="none"/><line y2="-28238" y1="-27776" x2="-24523" x1="-23723" fill="none"/><line y2="-29374" y1="-29943" x2="-22553" x1="-23535" fill="none"/><line y2="-29299" y1="-29726" x2="-22761" x1="-23498" fill="none"/><line y2="-28238" y1="-27669" x2="-26494" x1="-25506" fill="none"/><line y2="-28314" y1="-27889" x2="-26286" x1="-25546" fill="none"/><line y2="-28238" y1="-28238" x2="-28276" x1="-26494" fill="none"/><line y2="-29943" y1="-29374" x2="-27476" x1="-28464" fill="none"/><line y2="-29726" y1="-29299" x2="-27516" x1="-28256" fill="none"/><line y2="-27776" y1="-28238" x2="-23348" x1="-22553" fill="none"/><line y2="-28238" y1="-29374" x2="-22553" x1="-22553" fill="none"/><line y2="-29374" y1="-28458" x2="-28464" x1="-28464" fill="none"/><line y2="-30772" y1="-29943" x2="-25506" x1="-25506" fill="none"/><line y2="-31514" y1="-31098" x2="-26413" x1="-25693" fill="none"/><line y2="-30992" y1="-31514" x2="-27320" x1="-26413" fill="none"/><line y2="-27883" y1="-28299" x2="-21799" x1="-22518" fill="none"/><line y2="-27762" y1="-28178" x2="-21868" x1="-22588" fill="none"/><line y2="-31514" y1="-30992" x2="-28227" x1="-27320" fill="none"/><line y2="-31330" y1="-30937" x2="-28184" x1="-27505" fill="none"/><line y2="-30992" y1="-31514" x2="-29134" x1="-28227" fill="none"/><line y2="-31514" y1="-30992" x2="-30041" x1="-29134" fill="none"/><line y2="-30992" y1="-31514" x2="-30948" x1="-30041" fill="none"/><line y2="-32563" y1="-31514" x2="-28227" x1="-28227" fill="none"/><line y2="-31514" y1="-30992" x2="-31855" x1="-30948" fill="none"/><line y2="-30162" y1="-30992" x2="-30948" x1="-30948" fill="none"/><line y2="-30992" y1="-31514" x2="-32762" x1="-31855" fill="none"/><line y2="-32422" y1="-31514" x2="-32381" x1="-31855" fill="none"/><line y2="-32202" y1="-31514" x2="-31460" x1="-31855" fill="none"/><text y="-30812" xml:space="preserve" x="-25659" stroke="none" font-size="433.3333" font-family="sans-serif">O</text><text y="-29764" xml:space="preserve" x="-31101" stroke="none" font-size="433.3333" font-family="sans-serif">OH</text><text y="-32242" xml:space="preserve" x="-31486" stroke="none" font-size="433.3333" font-family="sans-serif">OH</text><text y="-27534" xml:space="preserve" x="-21796" stroke="none" font-size="433.3333" font-family="sans-serif">O</text><text y="-27490" xml:space="preserve" x="-23688" stroke="none" font-size="433.3333" font-family="sans-serif">O</text><text y="-28059" xml:space="preserve" x="-28617" stroke="none" font-size="433.3333" font-family="sans-serif">O</text><text y="-31460" xml:space="preserve" x="-27704" stroke="none" font-style="italic" font-size="313.3333" font-family="sans-serif">E</text></g></g></svg>