<svg width="346.38" viewBox="0 0 11546 8822" text-rendering="auto" stroke-width="1" stroke-opacity="1" stroke-miterlimit="10" stroke-linejoin="miter" stroke-linecap="square" stroke-dashoffset="0" stroke-dasharray="none" stroke="black" shape-rendering="auto" image-rendering="auto" height="264.66" font-weight="normal" font-style="normal" font-size="12" font-family="'Dialog'" fill-opacity="1" fill="black" color-rendering="auto" color-interpolation="auto" xmlns="http://www.w3.org/2000/svg"><g><g stroke="white" fill="white"><rect y="0" x="0" width="11546" stroke="none" height="8822"/></g><g transform="translate(32866,32758)" text-rendering="geometricPrecision" stroke-width="44" stroke-linejoin="round" stroke-linecap="round"><line y2="-27820" y1="-29016" x2="-24442" x1="-24442" fill="none"/><line y2="-29616" y1="-29016" x2="-25477" x1="-24442" fill="none"/><line y2="-29016" y1="-29616" x2="-24442" x1="-23408" fill="none"/><line y2="-29241" y1="-29689" x2="-24396" x1="-23622" fill="none"/><line y2="-27222" y1="-27820" x2="-25477" x1="-24442" fill="none"/><line y2="-27222" y1="-27820" x2="-23408" x1="-24442" fill="none"/><line y2="-27149" y1="-27597" x2="-23622" x1="-24396" fill="none"/><line y2="-30593" y1="-29616" x2="-25477" x1="-25477" fill="none"/><line y2="-30472" y1="-29738" x2="-25306" x1="-25306" fill="none"/><line y2="-29616" y1="-29016" x2="-25477" x1="-26517" fill="none"/><line y2="-29616" y1="-31191" x2="-23408" x1="-24315" fill="none"/><line y2="-27222" y1="-26023" x2="-25477" x1="-25477" fill="none"/><line y2="-27071" y1="-26173" x2="-25306" x1="-25306" fill="none"/><line y2="-26242" y1="-27222" x2="-23408" x1="-23408" fill="none"/><line y2="-31304" y1="-30919" x2="-24630" x1="-25289" fill="none"/><line y2="-29016" y1="-29507" x2="-26517" x1="-27363" fill="none"/><line y2="-25532" y1="-26023" x2="-26329" x1="-25477" fill="none"/><line y2="-26023" y1="-25425" x2="-25477" x1="-24442" fill="none"/><line y2="-25425" y1="-25913" x2="-24442" x1="-23596" fill="none"/><line y2="-25633" y1="-26000" x2="-24422" x1="-23787" fill="none"/><line y2="-29507" y1="-29016" x2="-27739" x1="-28591" fill="none"/><line y2="-25425" y1="-25425" x2="-28591" x1="-26704" fill="none"/><line y2="-29016" y1="-27222" x2="-28591" x1="-29625" fill="none"/><line y2="-26023" y1="-25425" x2="-29625" x1="-28591" fill="none"/><line y2="-26023" y1="-27222" x2="-29625" x1="-29625" fill="none"/><line y2="-27222" y1="-27820" x2="-29625" x1="-30662" fill="none"/><line y2="-27149" y1="-27597" x2="-29842" x1="-30616" fill="none"/><line y2="-25425" y1="-26023" x2="-30662" x1="-29625" fill="none"/><line y2="-25647" y1="-26095" x2="-30616" x1="-29842" fill="none"/><line y2="-27820" y1="-27222" x2="-30662" x1="-31702" fill="none"/><line y2="-26023" y1="-25425" x2="-31702" x1="-30662" fill="none"/><line y2="-27222" y1="-26023" x2="-31702" x1="-31702" fill="none"/><line y2="-27071" y1="-26173" x2="-31532" x1="-31532" fill="none"/><line y2="-29091" y1="-29616" x2="-22501" x1="-23408" fill="none"/><line y2="-32202" y1="-31630" x2="-24229" x1="-24382" fill="none"/><line y2="-30443" y1="-29833" x2="-27551" x1="-27551" fill="none"/><line y2="-24596" y1="-25425" x2="-24442" x1="-24442" fill="none"/><line y2="-25607" y1="-26023" x2="-32422" x1="-31702" fill="none"/><line y2="-29527" y1="-28969" x2="-29180" x1="-28640" fill="none"/><line y2="-29625" y1="-29065" x2="-29079" x1="-28542" fill="none"/><line y2="-28675" y1="-29091" x2="-21782" x1="-22501" fill="none"/><line y2="-28753" y1="-29169" x2="-21736" x1="-22455" fill="none"/><line y2="-28597" y1="-29013" x2="-21825" x1="-22544" fill="none"/><line y2="-24428" y1="-24396" x2="-28929" x1="-28796" fill="none"/><line y2="-24634" y1="-24609" x2="-28859" x1="-28754" fill="none"/><line y2="-24840" y1="-24821" x2="-28789" x1="-28711" fill="none"/><line y2="-25046" y1="-25034" x2="-28720" x1="-28669" fill="none"/><line y2="-25252" y1="-25246" x2="-28650" x1="-28627" fill="none"/><text y="-28389" xml:space="preserve" x="-21744" stroke="none" font-size="433.3333" font-family="sans-serif">N</text><text y="-32242" xml:space="preserve" x="-24324" stroke="none" font-size="433.3333" font-family="sans-serif">CH</text><text y="-32153" xml:space="preserve" x="-23746" stroke="none" font-size="313.3333" font-family="sans-serif">3</text><text y="-30483" xml:space="preserve" x="-27704" stroke="none" font-size="433.3333" font-family="sans-serif">CH</text><text y="-30394" xml:space="preserve" x="-27126" stroke="none" font-size="313.3333" font-family="sans-serif">3</text><text y="-24197" xml:space="preserve" x="-24596" stroke="none" font-size="433.3333" font-family="sans-serif">NH</text><text y="-24107" xml:space="preserve" x="-24018" stroke="none" font-size="313.3333" font-family="sans-serif">2</text><text y="-29590" xml:space="preserve" x="-29472" stroke="none" font-size="433.3333" font-family="sans-serif">O</text><text y="-25321" xml:space="preserve" x="-32762" stroke="none" font-size="433.3333" font-family="sans-serif">F</text><text y="-30633" xml:space="preserve" x="-25630" stroke="none" font-size="433.3333" font-family="sans-serif">N</text><text y="-31231" xml:space="preserve" x="-24596" stroke="none" font-size="433.3333" font-family="sans-serif">N</text><text y="-25844" xml:space="preserve" x="-23558" stroke="none" font-size="433.3333" font-family="sans-serif">N</text><text y="-29437" xml:space="preserve" x="-27704" stroke="none" font-size="433.3333" font-family="sans-serif">N</text><text y="-25246" xml:space="preserve" x="-26670" stroke="none" font-size="433.3333" font-family="sans-serif">O</text><text y="-25523" xml:space="preserve" x="-28669" stroke="none" font-style="italic" font-size="313.3333" font-family="sans-serif">R</text></g></g></svg>