<svg width="326.7" viewBox="0 0 10890 2891" text-rendering="auto" stroke-width="1" stroke-opacity="1" stroke-miterlimit="10" stroke-linejoin="miter" stroke-linecap="square" stroke-dashoffset="0" stroke-dasharray="none" stroke="black" shape-rendering="auto" image-rendering="auto" height="86.73" font-weight="normal" font-style="normal" font-size="12" font-family="'Dialog'" fill-opacity="1" fill="black" color-rendering="auto" color-interpolation="auto" xmlns="http://www.w3.org/2000/svg"><g><g stroke="white" fill="white"><rect y="0" x="0" width="10890" stroke="none" height="2891"/></g><g transform="translate(32866,32866)" text-rendering="geometricPrecision" stroke-width="44" stroke-linejoin="round" stroke-linecap="round"><line y2="-32315" y1="-31332" x2="-27022" x1="-27597" fill="none"/><line y2="-31332" y1="-32315" x2="-27597" x1="-28169" fill="none"/><line y2="-30350" y1="-31332" x2="-28169" x1="-27597" fill="none"/><line y2="-31332" y1="-30350" x2="-27597" x1="-27022" fill="none"/><line y2="-32315" y1="-32315" x2="-26066" x1="-27022" fill="none"/><line y2="-32315" y1="-32315" x2="-28169" x1="-29128" fill="none"/><line y2="-30350" y1="-30350" x2="-29128" x1="-28169" fill="none"/><line y2="-30350" y1="-30350" x2="-27022" x1="-26066" fill="none"/><line y2="-31332" y1="-32095" x2="-25303" x1="-25748" fill="none"/><line y2="-32095" y1="-31332" x2="-29443" x1="-29888" fill="none"/><line y2="-31332" y1="-30570" x2="-29888" x1="-29443" fill="none"/><line y2="-30570" y1="-31332" x2="-25748" x1="-25303" fill="none"/><line y2="-31855" y1="-31332" x2="-24396" x1="-25303" fill="none"/><line y2="-31855" y1="-31332" x2="-30795" x1="-29888" fill="none"/><line y2="-31332" y1="-31855" x2="-23489" x1="-24396" fill="none"/><line y2="-31746" y1="-31332" x2="-22770" x1="-23489" fill="none"/><line y2="-32762" y1="-31855" x2="-23873" x1="-24396" fill="none"/><line y2="-32762" y1="-31855" x2="-24919" x1="-24396" fill="none"/><line y2="-31332" y1="-31855" x2="-31702" x1="-30795" fill="none"/><line y2="-31636" y1="-31332" x2="-32231" x1="-31702" fill="none"/><line y2="-32762" y1="-31855" x2="-31321" x1="-30795" fill="none"/><line y2="-32762" y1="-31855" x2="-30272" x1="-30795" fill="none"/><text y="-31676" xml:space="preserve" x="-22735" stroke="none" font-size="433.3333" font-family="sans-serif">OH</text><text y="-31676" xml:space="preserve" x="-32762" stroke="none" font-size="433.3333" font-family="sans-serif">OH</text><text y="-32136" xml:space="preserve" x="-26028" stroke="none" font-size="433.3333" font-family="sans-serif">O</text><text y="-32136" xml:space="preserve" x="-29469" stroke="none" font-size="433.3333" font-family="sans-serif">O</text><text y="-30171" xml:space="preserve" x="-29469" stroke="none" font-size="433.3333" font-family="sans-serif">O</text><text y="-30171" xml:space="preserve" x="-26028" stroke="none" font-size="433.3333" font-family="sans-serif">O</text></g></g></svg>