<svg width="145.92" viewBox="0 0 4864 7088" text-rendering="auto" stroke-width="1" stroke-opacity="1" stroke-miterlimit="10" stroke-linejoin="miter" stroke-linecap="square" stroke-dashoffset="0" stroke-dasharray="none" stroke="black" shape-rendering="auto" image-rendering="auto" height="212.64" font-weight="normal" font-style="normal" font-size="12" font-family="'Dialog'" fill-opacity="1" fill="black" color-rendering="auto" color-interpolation="auto" xmlns="http://www.w3.org/2000/svg"><g><g stroke="white" fill="white"><rect y="0" x="0" width="4864" stroke="none" height="7088"/></g><g transform="translate(32866,32866)" text-rendering="geometricPrecision" stroke-width="44" stroke-linejoin="round" stroke-linecap="round"><line y2="-28790" y1="-29339" x2="-30084" x1="-30795" fill="none"/><line y2="-29345" y1="-28790" x2="-31174" x1="-31928" fill="none"/><line y2="-27724" y1="-28790" x2="-30451" x1="-30084" fill="none"/><line y2="-28790" y1="-27724" x2="-31928" x1="-31598" fill="none"/><line y2="-27724" y1="-27724" x2="-31598" x1="-30451" fill="none"/><line y2="-30532" y1="-29703" x2="-30986" x1="-30986" fill="none"/><line y2="-31055" y1="-30532" x2="-30076" x1="-30986" fill="none"/><line y2="-26678" y1="-27724" x2="-30451" x1="-30451" fill="none"/><line y2="-27577" y1="-27724" x2="-29608" x1="-30451" fill="none"/><line y2="-32193" y1="-31055" x2="-30076" x1="-30076" fill="none"/><line y2="-32052" y1="-31200" x2="-29908" x1="-29908" fill="none"/><line y2="-31055" y1="-30489" x2="-30076" x1="-29091" fill="none"/><line y2="-32762" y1="-32193" x2="-29091" x1="-30076" fill="none"/><line y2="-30489" y1="-31055" x2="-29091" x1="-28106" fill="none"/><line y2="-30706" y1="-31133" x2="-29053" x1="-28314" fill="none"/><line y2="-32193" y1="-32762" x2="-28106" x1="-29091" fill="none"/><line y2="-32118" y1="-32546" x2="-28314" x1="-29053" fill="none"/><line y2="-31055" y1="-32193" x2="-28106" x1="-28106" fill="none"/><line y2="-26262" y1="-26678" x2="-31171" x1="-30451" fill="none"/><line y2="-26520" y1="-26257" x2="-32017" x1="-31549" fill="none"/><line y2="-26323" y1="-26739" x2="-29697" x1="-30417" fill="none"/><line y2="-26202" y1="-26615" x2="-29770" x1="-30486" fill="none"/><text y="-25974" xml:space="preserve" x="-31512" stroke="none" font-size="433.3333" font-family="sans-serif">O</text><text y="-25974" xml:space="preserve" x="-29697" stroke="none" font-size="433.3333" font-family="sans-serif">O</text><text y="-26670" xml:space="preserve" x="-32762" stroke="none" font-size="433.3333" font-family="sans-serif">CH</text><text y="-26580" xml:space="preserve" x="-32185" stroke="none" font-size="313.3333" font-family="sans-serif">3</text><text y="-27363" xml:space="preserve" x="-29573" stroke="none" font-size="433.3333" font-family="sans-serif">NH</text><text y="-27274" xml:space="preserve" x="-28995" stroke="none" font-size="313.3333" font-family="sans-serif">2</text><text y="-29304" xml:space="preserve" x="-31136" stroke="none" font-size="433.3333" font-family="sans-serif">N</text></g></g></svg>