<svg width="241.71" viewBox="0 0 8057 3616" text-rendering="auto" stroke-width="1" stroke-opacity="1" stroke-miterlimit="10" stroke-linejoin="miter" stroke-linecap="square" stroke-dashoffset="0" stroke-dasharray="none" stroke="black" shape-rendering="auto" image-rendering="auto" height="108.48" font-weight="normal" font-style="normal" font-size="12" font-family="'Dialog'" fill-opacity="1" fill="black" color-rendering="auto" color-interpolation="auto" xmlns="http://www.w3.org/2000/svg"><g><g stroke="white" fill="white"><rect y="0" x="0" width="8057" stroke="none" height="3616"/></g><g transform="translate(32866,32866)" text-rendering="geometricPrecision" stroke-width="44" stroke-linejoin="round" stroke-linecap="round"><line y2="-32193" y1="-31055" x2="-27791" x1="-27791" fill="none"/><line y2="-32052" y1="-31200" x2="-27623" x1="-27623" fill="none"/><line y2="-31055" y1="-30489" x2="-27791" x1="-26806" fill="none"/><line y2="-32762" y1="-32193" x2="-26806" x1="-27791" fill="none"/><line y2="-30489" y1="-31055" x2="-26806" x1="-25820" fill="none"/><line y2="-30706" y1="-31133" x2="-26768" x1="-26028" fill="none"/><line y2="-32193" y1="-32762" x2="-25820" x1="-26806" fill="none"/><line y2="-32118" y1="-32546" x2="-26028" x1="-26768" fill="none"/><line y2="-31055" y1="-32193" x2="-25820" x1="-25820" fill="none"/><line y2="-32719" y1="-32193" x2="-24913" x1="-25820" fill="none"/><line y2="-30642" y1="-31055" x2="-28510" x1="-27791" fill="none"/><line y2="-30948" y1="-30642" x2="-29417" x1="-28888" fill="none"/><line y2="-30532" y1="-30948" x2="-30512" x1="-29796" fill="none"/><line y2="-30532" y1="-30532" x2="-31561" x1="-30512" fill="none"/><line y2="-29810" y1="-30278" x2="-29036" x1="-28764" fill="none"/><line y2="-29879" y1="-30347" x2="-29157" x1="-28886" fill="none"/><line y2="-29879" y1="-30347" x2="-28241" x1="-28513" fill="none"/><line y2="-29810" y1="-30278" x2="-28363" x1="-28634" fill="none"/><line y2="-30532" y1="-30532" x2="-32422" x1="-31561" fill="none"/><line y2="-30443" y1="-30443" x2="-32422" x1="-31561" fill="none"/><line y2="-30622" y1="-30622" x2="-32422" x1="-31561" fill="none"/><text y="-30353" xml:space="preserve" x="-28851" stroke="none" font-size="433.3333" font-family="sans-serif">S</text><text y="-30876" xml:space="preserve" x="-29758" stroke="none" font-size="433.3333" font-family="sans-serif">O</text><text y="-29446" xml:space="preserve" x="-29374" stroke="none" font-size="433.3333" font-family="sans-serif">O</text><text y="-29446" xml:space="preserve" x="-28328" stroke="none" font-size="433.3333" font-family="sans-serif">O</text><text y="-30353" xml:space="preserve" x="-32762" stroke="none" font-size="433.3333" font-family="sans-serif">N</text></g></g></svg>