<svg width="302.7" viewBox="0 0 10090 4614" text-rendering="auto" stroke-width="1" stroke-opacity="1" stroke-miterlimit="10" stroke-linejoin="miter" stroke-linecap="square" stroke-dashoffset="0" stroke-dasharray="none" stroke="black" shape-rendering="auto" image-rendering="auto" height="138.42" font-weight="normal" font-style="normal" font-size="12" font-family="'Dialog'" fill-opacity="1" fill="black" color-rendering="auto" color-interpolation="auto" xmlns="http://www.w3.org/2000/svg"><g><g stroke="white" fill="white"><rect y="0" x="0" width="10090" stroke="none" height="4614"/></g><g transform="translate(32866,32758)" text-rendering="geometricPrecision" stroke-width="44" stroke-linejoin="round" stroke-linecap="round"><line y2="-29042" y1="-30015" x2="-29637" x1="-29637" fill="none"/><line y2="-30344" y1="-30830" x2="-29827" x1="-30668" fill="none"/><line y2="-30723" y1="-30344" x2="-28790" x1="-29449" fill="none"/><line y2="-29042" y1="-29042" x2="-29637" x1="-27759" fill="none"/><line y2="-29212" y1="-29212" x2="-29403" x1="-27993" fill="none"/><line y2="-28446" y1="-29042" x2="-30668" x1="-29637" fill="none"/><line y2="-30830" y1="-30344" x2="-30668" x1="-31514" fill="none"/><line y2="-30622" y1="-30258" x2="-30688" x1="-31324" fill="none"/><line y2="-30235" y1="-30723" x2="-27571" x1="-28415" fill="none"/><line y2="-30148" y1="-30515" x2="-27762" x1="-28394" fill="none"/><line y2="-29261" y1="-30235" x2="-27571" x1="-27571" fill="none"/><line y2="-29042" y1="-28446" x2="-31702" x1="-30668" fill="none"/><line y2="-29117" y1="-28669" x2="-31488" x1="-30711" fill="none"/><line y2="-30015" y1="-29042" x2="-31702" x1="-31702" fill="none"/><line y2="-30651" y1="-30235" x2="-26852" x1="-27571" fill="none"/><line y2="-31659" y1="-30830" x2="-30668" x1="-30668" fill="none"/><line y2="-32401" y1="-31985" x2="-31575" x1="-30856" fill="none"/><line y2="-31878" y1="-32401" x2="-32482" x1="-31575" fill="none"/><line y2="-28626" y1="-29042" x2="-32422" x1="-31702" fill="none"/><line y2="-30344" y1="-30651" x2="-25945" x1="-26476" fill="none"/><line y2="-30758" y1="-30454" x2="-24850" x1="-25376" fill="none"/><line y2="-31483" y1="-31015" x2="-26329" x1="-26598" fill="none"/><line y2="-31410" y1="-30942" x2="-26208" x1="-26476" fill="none"/><line y2="-31410" y1="-30942" x2="-27120" x1="-26852" fill="none"/><line y2="-31483" y1="-31015" x2="-26999" x1="-26730" fill="none"/><line y2="-31896" y1="-30758" x2="-24850" x1="-24850" fill="none"/><line y2="-31754" y1="-30902" x2="-24679" x1="-24679" fill="none"/><line y2="-30758" y1="-30191" x2="-24850" x1="-23862" fill="none"/><line y2="-32465" y1="-31896" x2="-23862" x1="-24850" fill="none"/><line y2="-30191" y1="-30758" x2="-23862" x1="-22880" fill="none"/><line y2="-30408" y1="-30836" x2="-23824" x1="-23088" fill="none"/><line y2="-31896" y1="-32465" x2="-22880" x1="-23862" fill="none"/><line y2="-31821" y1="-32248" x2="-23088" x1="-23824" fill="none"/><line y2="-30758" y1="-31896" x2="-22880" x1="-22880" fill="none"/><line y2="-32222" y1="-31896" x2="-25416" x1="-24850" fill="none"/><line y2="-29362" y1="-30191" x2="-23862" x1="-23862" fill="none"/><text y="-31699" xml:space="preserve" x="-30821" stroke="none" font-size="433.3333" font-family="sans-serif">O</text><text y="-30578" xml:space="preserve" x="-26817" stroke="none" font-size="433.3333" font-family="sans-serif">S</text><text y="-30056" xml:space="preserve" x="-25910" stroke="none" font-size="433.3333" font-family="sans-serif">NH</text><text y="-31486" xml:space="preserve" x="-26291" stroke="none" font-size="433.3333" font-family="sans-serif">O</text><text y="-31486" xml:space="preserve" x="-27340" stroke="none" font-size="433.3333" font-family="sans-serif">O</text><text y="-28340" xml:space="preserve" x="-32762" stroke="none" font-size="433.3333" font-family="sans-serif">F</text><text y="-32242" xml:space="preserve" x="-25988" stroke="none" font-size="433.3333" font-family="sans-serif">Cl</text><text y="-28964" xml:space="preserve" x="-24093" stroke="none" font-size="433.3333" font-family="sans-serif">Cl</text><text y="-30056" xml:space="preserve" x="-29790" stroke="none" font-size="433.3333" font-family="sans-serif">N</text><text y="-30651" xml:space="preserve" x="-28756" stroke="none" font-size="433.3333" font-family="sans-serif">N</text><text y="-28862" xml:space="preserve" x="-27724" stroke="none" font-size="433.3333" font-family="sans-serif">N</text><text y="-30056" xml:space="preserve" x="-31855" stroke="none" font-size="433.3333" font-family="sans-serif">N</text></g></g></svg>