<svg width="265.77" viewBox="0 0 8859 6204" text-rendering="auto" stroke-width="1" stroke-opacity="1" stroke-miterlimit="10" stroke-linejoin="miter" stroke-linecap="square" stroke-dashoffset="0" stroke-dasharray="none" stroke="black" shape-rendering="auto" image-rendering="auto" height="186.12" font-weight="normal" font-style="normal" font-size="12" font-family="'Dialog'" fill-opacity="1" fill="black" color-rendering="auto" color-interpolation="auto" xmlns="http://www.w3.org/2000/svg"><g><g stroke="white" fill="white"><rect y="0" x="0" width="8859" stroke="none" height="6204"/></g><g transform="translate(32866,32866)" text-rendering="geometricPrecision" stroke-width="44" stroke-linejoin="round" stroke-linecap="round"><line y2="-27779" y1="-28917" x2="-27008" x1="-27008" fill="none"/><line y2="-29484" y1="-28917" x2="-26020" x1="-27008" fill="none"/><line y2="-28917" y1="-29484" x2="-27008" x1="-27993" fill="none"/><line y2="-28839" y1="-29267" x2="-27216" x1="-27955" fill="none"/><line y2="-27210" y1="-27779" x2="-27993" x1="-27008" fill="none"/><line y2="-27427" y1="-27854" x2="-27955" x1="-27216" fill="none"/><line y2="-27779" y1="-27779" x2="-27008" x1="-25038" fill="none"/><line y2="-29024" y1="-29484" x2="-25225" x1="-26020" fill="none"/><line y2="-29484" y1="-28917" x2="-27993" x1="-28978" fill="none"/><line y2="-27779" y1="-27210" x2="-28978" x1="-27993" fill="none"/><line y2="-27779" y1="-28698" x2="-25038" x1="-25038" fill="none"/><line y2="-28917" y1="-27779" x2="-28978" x1="-28978" fill="none"/><line y2="-28773" y1="-27921" x2="-28808" x1="-28808" fill="none"/><line y2="-29221" y1="-28917" x2="-29507" x1="-28978" fill="none"/><line y2="-30489" y1="-29660" x2="-29885" x1="-29885" fill="none"/><line y2="-27473" y1="-27779" x2="-29507" x1="-28978" fill="none"/><line y2="-27779" y1="-27363" x2="-30792" x1="-30073" fill="none"/><line y2="-30313" y1="-29484" x2="-26089" x1="-26089" fill="none"/><line y2="-30313" y1="-29484" x2="-25950" x1="-25950" fill="none"/><line y2="-27276" y1="-27828" x2="-24437" x1="-24988" fill="none"/><line y2="-27178" y1="-27730" x2="-24535" x1="-25087" fill="none"/><line y2="-30489" y1="-31055" x2="-29885" x1="-28900" fill="none"/><line y2="-30706" y1="-31133" x2="-29848" x1="-29108" fill="none"/><line y2="-31055" y1="-30489" x2="-30870" x1="-29885" fill="none"/><line y2="-31055" y1="-32193" x2="-28900" x1="-28900" fill="none"/><line y2="-32193" y1="-31055" x2="-30870" x1="-30870" fill="none"/><line y2="-32049" y1="-31200" x2="-30700" x1="-30700" fill="none"/><line y2="-32193" y1="-32762" x2="-28900" x1="-29885" fill="none"/><line y2="-32118" y1="-32543" x2="-29108" x1="-29845" fill="none"/><line y2="-32762" y1="-32193" x2="-29885" x1="-30870" fill="none"/><line y2="-27779" y1="-28917" x2="-30792" x1="-30792" fill="none"/><line y2="-27921" y1="-28773" x2="-30963" x1="-30963" fill="none"/><line y2="-27210" y1="-27779" x2="-31777" x1="-30792" fill="none"/><line y2="-28917" y1="-29484" x2="-30792" x1="-31777" fill="none"/><line y2="-27779" y1="-27210" x2="-32762" x1="-31777" fill="none"/><line y2="-27857" y1="-27430" x2="-32554" x1="-31815" fill="none"/><line y2="-29484" y1="-28917" x2="-31777" x1="-32762" fill="none"/><line y2="-29267" y1="-28839" x2="-31815" x1="-32554" fill="none"/><line y2="-28917" y1="-27779" x2="-32762" x1="-32762" fill="none"/><text y="-30353" xml:space="preserve" x="-26173" stroke="none" font-size="433.3333" font-family="sans-serif">O</text><text y="-26858" xml:space="preserve" x="-24448" stroke="none" font-size="433.3333" font-family="sans-serif">O</text><text y="-29261" xml:space="preserve" x="-30038" stroke="none" font-size="433.3333" font-family="sans-serif">NH</text><text y="-27077" xml:space="preserve" x="-30038" stroke="none" font-size="433.3333" font-family="sans-serif">NH</text><text y="-28738" xml:space="preserve" x="-25191" stroke="none" font-size="433.3333" font-family="sans-serif">NH</text></g></g></svg>