<svg width="298.35" viewBox="0 0 9945 8240" text-rendering="auto" stroke-width="1" stroke-opacity="1" stroke-miterlimit="10" stroke-linejoin="miter" stroke-linecap="square" stroke-dashoffset="0" stroke-dasharray="none" stroke="black" shape-rendering="auto" image-rendering="auto" height="247.2" font-weight="normal" font-style="normal" font-size="12" font-family="'Dialog'" fill-opacity="1" fill="black" color-rendering="auto" color-interpolation="auto" xmlns="http://www.w3.org/2000/svg"><g><g stroke="white" fill="white"><rect y="0" x="0" width="9945" stroke="none" height="8240"/></g><g transform="translate(32866,32758)" text-rendering="geometricPrecision" stroke-width="44" stroke-linejoin="round" stroke-linecap="round"><line y2="-29668" y1="-29209" x2="-28056" x1="-27259" fill="none"/><line y2="-29209" y1="-29668" x2="-26881" x1="-26086" fill="none"/><line y2="-30807" y1="-29668" x2="-28056" x1="-28056" fill="none"/><line y2="-29099" y1="-29668" x2="-29042" x1="-28056" fill="none"/><line y2="-29319" y1="-29744" x2="-29004" x1="-28264" fill="none"/><line y2="-30807" y1="-29668" x2="-26086" x1="-26086" fill="none"/><line y2="-29668" y1="-29209" x2="-26086" x1="-25286" fill="none"/><line y2="-29758" y1="-29414" x2="-25901" x1="-25303" fill="none"/><line y2="-31266" y1="-30807" x2="-27259" x1="-28056" fill="none"/><line y2="-30807" y1="-31376" x2="-28056" x1="-29042" fill="none"/><line y2="-30729" y1="-31156" x2="-28264" x1="-29004" fill="none"/><line y2="-29668" y1="-29099" x2="-30027" x1="-29042" fill="none"/><line y2="-30807" y1="-31266" x2="-26086" x1="-26881" fill="none"/><line y2="-30717" y1="-31061" x2="-26271" x1="-26869" fill="none"/><line y2="-31376" y1="-30807" x2="-25098" x1="-26086" fill="none"/><line y2="-29209" y1="-29668" x2="-24910" x1="-24116" fill="none"/><line y2="-31376" y1="-30807" x2="-29042" x1="-30027" fill="none"/><line y2="-30807" y1="-29668" x2="-30027" x1="-30027" fill="none"/><line y2="-30665" y1="-29810" x2="-29859" x1="-29859" fill="none"/><line y2="-30914" y1="-31376" x2="-24304" x1="-25098" fill="none"/><line y2="-29668" y1="-30587" x2="-24116" x1="-24116" fill="none"/><line y2="-28054" y1="-28880" x2="-27071" x1="-27071" fill="none"/><line y2="-27513" y1="-28054" x2="-27967" x1="-27071" fill="none"/><line y2="-29146" y1="-29668" x2="-30937" x1="-30027" fill="none"/><line y2="-31330" y1="-30807" x2="-30937" x1="-30027" fill="none"/><line y2="-32202" y1="-31376" x2="-25168" x1="-25168" fill="none"/><line y2="-32202" y1="-31376" x2="-25029" x1="-25029" fill="none"/><line y2="-29313" y1="-29729" x2="-23362" x1="-24081" fill="none"/><line y2="-29192" y1="-29608" x2="-23431" x1="-24151" fill="none"/><line y2="-26465" y1="-27513" x2="-27967" x1="-27967" fill="none"/><line y2="-25942" y1="-26465" x2="-28874" x1="-27967" fill="none"/><line y2="-26465" y1="-25942" x2="-29781" x1="-28874" fill="none"/><line y2="-26049" y1="-26465" x2="-30500" x1="-29781" fill="none"/><line y2="-26358" y1="-26049" x2="-31408" x1="-30876" fill="none"/><line y2="-26075" y1="-26352" x2="-32245" x1="-31783" fill="none"/><line y2="-27155" y1="-26684" x2="-31994" x1="-31722" fill="none"/><line y2="-27190" y1="-26719" x2="-31260" x1="-31532" fill="none"/><line y2="-27120" y1="-26650" x2="-31139" x1="-31410" fill="none"/><polygon stroke-width="1" stroke="none" points=" -27967 -27513 -28530 -27759 -28461 -27877"/><polygon stroke-width="1" points=" -27967 -27513 -28530 -27759 -28461 -27877" fill="none"/><line y2="-25991" y1="-26109" x2="-27282" x1="-27213" fill="none"/><line y2="-26115" y1="-26202" x2="-27461" x1="-27410" fill="none"/><line y2="-26238" y1="-26295" x2="-27639" x1="-27606" fill="none"/><line y2="-26362" y1="-26388" x2="-27818" x1="-27803" fill="none"/><line y2="-25113" y1="-25113" x2="-28943" x1="-28805" fill="none"/><line y2="-25330" y1="-25330" x2="-28925" x1="-28823" fill="none"/><line y2="-25546" y1="-25546" x2="-28907" x1="-28841" fill="none"/><line y2="-25763" y1="-25763" x2="-28889" x1="-28859" fill="none"/><text y="-27857" xml:space="preserve" x="-29027" stroke="none" font-size="433.3333" font-family="sans-serif">OH</text><text y="-25763" xml:space="preserve" x="-27213" stroke="none" font-size="433.3333" font-family="sans-serif">OH</text><text y="-24714" xml:space="preserve" x="-29027" stroke="none" font-size="433.3333" font-family="sans-serif">OH</text><text y="-25763" xml:space="preserve" x="-30841" stroke="none" font-size="433.3333" font-family="sans-serif">O</text><text y="-26286" xml:space="preserve" x="-31748" stroke="none" font-size="433.3333" font-family="sans-serif">P</text><text y="-27196" xml:space="preserve" x="-31226" stroke="none" font-size="433.3333" font-family="sans-serif">O</text><text y="-25676" xml:space="preserve" x="-32762" stroke="none" font-size="433.3333" font-family="sans-serif">OH</text><text y="-27196" xml:space="preserve" x="-32271" stroke="none" font-size="433.3333" font-family="sans-serif">OH</text><text y="-32242" xml:space="preserve" x="-25251" stroke="none" font-size="433.3333" font-family="sans-serif">O</text><text y="-28966" xml:space="preserve" x="-23362" stroke="none" font-size="433.3333" font-family="sans-serif">O</text><text y="-28920" xml:space="preserve" x="-27222" stroke="none" font-size="433.3333" font-family="sans-serif">N</text><text y="-28920" xml:space="preserve" x="-25251" stroke="none" font-size="433.3333" font-family="sans-serif">N</text><text y="-31197" xml:space="preserve" x="-27222" stroke="none" font-size="433.3333" font-family="sans-serif">N</text><text y="-30628" xml:space="preserve" x="-24269" stroke="none" font-size="433.3333" font-family="sans-serif">NH</text><text y="-27190" xml:space="preserve" x="-27872" stroke="none" font-style="italic" font-size="313.3333" font-family="sans-serif">S</text><text y="-26430" xml:space="preserve" x="-28368" stroke="none" font-style="italic" font-size="313.3333" font-family="sans-serif">S</text><text y="-26066" xml:space="preserve" x="-29027" stroke="none" font-style="italic" font-size="313.3333" font-family="sans-serif">R</text></g></g></svg>