<svg width="244.29" viewBox="0 0 8143 8940" text-rendering="auto" stroke-width="1" stroke-opacity="1" stroke-miterlimit="10" stroke-linejoin="miter" stroke-linecap="square" stroke-dashoffset="0" stroke-dasharray="none" stroke="black" shape-rendering="auto" image-rendering="auto" height="268.2" font-weight="normal" font-style="normal" font-size="12" font-family="'Dialog'" fill-opacity="1" fill="black" color-rendering="auto" color-interpolation="auto" xmlns="http://www.w3.org/2000/svg"><g><g stroke="white" fill="white"><rect y="0" x="0" width="8143" stroke="none" height="8940"/></g><g transform="translate(32866,32758)" text-rendering="geometricPrecision" stroke-width="44" stroke-linejoin="round" stroke-linecap="round"><line y2="-28784" y1="-29544" x2="-28285" x1="-26979" fill="none"/><line y2="-28706" y1="-29544" x2="-29096" x1="-30532" fill="none"/><line y2="-28290" y1="-26436" x2="-28756" x1="-28756" fill="none"/><line y2="-27473" y1="-28311" x2="-26979" x1="-28415" fill="none"/><line y2="-27473" y1="-28311" x2="-30532" x1="-29096" fill="none"/><line y2="-30581" y1="-28730" x2="-28756" x1="-28756" fill="none"/><line y2="-30801" y1="-29874" x2="-26791" x1="-26791" fill="none"/><line y2="-29544" y1="-29082" x2="-26603" x1="-25809" fill="none"/><line y2="-29634" y1="-29287" x2="-26418" x1="-25820" fill="none"/><line y2="-29082" y1="-29547" x2="-31705" x1="-30908" fill="none"/><line y2="-29874" y1="-30801" x2="-30720" x1="-30720" fill="none"/><line y2="-29989" y1="-30685" x2="-30890" x1="-30890" fill="none"/><line y2="-25644" y1="-26106" x2="-27773" x1="-28568" fill="none"/><line y2="-26106" y1="-25644" x2="-28943" x1="-29738" fill="none"/><line y2="-25901" y1="-25555" x2="-28958" x1="-29553" fill="none"/><line y2="-26216" y1="-27144" x2="-26791" x1="-26791" fill="none"/><line y2="-27935" y1="-27473" x2="-31705" x1="-30908" fill="none"/><line y2="-31376" y1="-30911" x2="-27773" x1="-28568" fill="none"/><line y2="-30801" y1="-31376" x2="-26791" x1="-27773" fill="none"/><line y2="-31376" y1="-30801" x2="-25809" x1="-26791" fill="none"/><line y2="-31156" y1="-30726" x2="-25846" x1="-26583" fill="none"/><line y2="-29082" y1="-29654" x2="-25809" x1="-24827" fill="none"/><line y2="-29082" y1="-27935" x2="-31705" x1="-31705" fill="none"/><line y2="-29654" y1="-29082" x2="-32687" x1="-31705" fill="none"/><line y2="-29732" y1="-29302" x2="-32476" x1="-31740" fill="none"/><line y2="-30801" y1="-31376" x2="-30720" x1="-31705" fill="none"/><line y2="-25644" y1="-26216" x2="-27773" x1="-26791" fill="none"/><line y2="-24497" y1="-25644" x2="-27773" x1="-27773" fill="none"/><line y2="-24639" y1="-25500" x2="-27944" x1="-27944" fill="none"/><line y2="-25644" y1="-24497" x2="-29738" x1="-29738" fill="none"/><line y2="-30801" y1="-31376" x2="-24827" x1="-25809" fill="none"/><line y2="-29654" y1="-30801" x2="-24827" x1="-24827" fill="none"/><line y2="-29798" y1="-30659" x2="-24997" x1="-24997" fill="none"/><line y2="-30801" y1="-29654" x2="-32687" x1="-32687" fill="none"/><line y2="-31376" y1="-30801" x2="-31705" x1="-32687" fill="none"/><line y2="-31156" y1="-30726" x2="-31740" x1="-32476" fill="none"/><line y2="-23922" y1="-24497" x2="-28756" x1="-27773" fill="none"/><line y2="-24497" y1="-23922" x2="-29738" x1="-28756" fill="none"/><line y2="-24572" y1="-24142" x2="-29530" x1="-28793" fill="none"/><line y2="-25861" y1="-26277" x2="-26037" x1="-26756" fill="none"/><line y2="-25740" y1="-26156" x2="-26106" x1="-26826" fill="none"/><line y2="-27458" y1="-27874" x2="-32387" x1="-31668" fill="none"/><line y2="-27583" y1="-27996" x2="-32459" x1="-31740" fill="none"/><line y2="-32202" y1="-31376" x2="-27843" x1="-27843" fill="none"/><line y2="-32202" y1="-31376" x2="-27704" x1="-27704" fill="none"/><text y="-25514" xml:space="preserve" x="-26037" stroke="none" font-size="433.3333" font-family="sans-serif">O</text><text y="-27233" xml:space="preserve" x="-32762" stroke="none" font-size="433.3333" font-family="sans-serif">O</text><text y="-32242" xml:space="preserve" x="-27926" stroke="none" font-size="433.3333" font-family="sans-serif">O</text><text y="-28331" xml:space="preserve" x="-28987" stroke="none" font-size="433.3333" font-family="sans-serif">Cr</text><text y="-29475" xml:space="preserve" x="-26944" stroke="none" font-size="433.3333" font-family="sans-serif">N</text><text y="-29475" xml:space="preserve" x="-30873" stroke="none" font-size="433.3333" font-family="sans-serif">N</text><text y="-26037" xml:space="preserve" x="-28909" stroke="none" font-size="433.3333" font-family="sans-serif">N</text><text y="-27184" xml:space="preserve" x="-26944" stroke="none" font-size="433.3333" font-family="sans-serif">O</text><text y="-27184" xml:space="preserve" x="-30873" stroke="none" font-size="433.3333" font-family="sans-serif">O</text><text y="-30622" xml:space="preserve" x="-28909" stroke="none" font-size="433.3333" font-family="sans-serif">O</text><text y="-28386" xml:space="preserve" x="-28432" stroke="none" font-size="313.3333" font-family="sans-serif">3+</text><text y="-27239" xml:space="preserve" x="-26621" stroke="none" font-size="313.3333" font-family="sans-serif">-</text><text y="-27568" xml:space="preserve" x="-30873" stroke="none" font-size="313.3333" font-family="sans-serif">-</text><text y="-30677" xml:space="preserve" x="-29229" stroke="none" font-size="313.3333" font-family="sans-serif">-</text></g></g></svg>