<svg width="214.47" viewBox="0 0 7149 4199" text-rendering="auto" stroke-width="1" stroke-opacity="1" stroke-miterlimit="10" stroke-linejoin="miter" stroke-linecap="square" stroke-dashoffset="0" stroke-dasharray="none" stroke="black" shape-rendering="auto" image-rendering="auto" height="125.97" font-weight="normal" font-style="normal" font-size="12" font-family="'Dialog'" fill-opacity="1" fill="black" color-rendering="auto" color-interpolation="auto" xmlns="http://www.w3.org/2000/svg"><g><g stroke="white" fill="white"><rect y="0" x="0" width="7149" stroke="none" height="4199"/></g><g transform="translate(32866,32758)" text-rendering="geometricPrecision" stroke-width="44" stroke-linejoin="round" stroke-linecap="round"><line y2="-30327" y1="-30850" x2="-28990" x1="-29897" fill="none"/><line y2="-30850" y1="-30327" x2="-28082" x1="-28990" fill="none"/><line y2="-30850" y1="-30850" x2="-27037" x1="-28082" fill="none"/><line y2="-30313" y1="-30850" x2="-30795" x1="-29897" fill="none"/><line y2="-29264" y1="-30313" x2="-30795" x1="-30795" fill="none"/><line y2="-28741" y1="-29264" x2="-31702" x1="-30795" fill="none"/><line y2="-31899" y1="-30850" x2="-29897" x1="-29897" fill="none"/><line y2="-32422" y1="-31899" x2="-28990" x1="-29897" fill="none"/><line y2="-32422" y1="-32422" x2="-27944" x1="-28990" fill="none"/><line y2="-31266" y1="-30850" x2="-30616" x1="-29897" fill="none"/><line y2="-30850" y1="-30850" x2="-26176" x1="-27037" fill="none"/><line y2="-30940" y1="-30940" x2="-26176" x1="-27037" fill="none"/><line y2="-30760" y1="-30760" x2="-26176" x1="-27037" fill="none"/><line y2="-29154" y1="-28741" x2="-32422" x1="-31702" fill="none"/><line y2="-29079" y1="-28663" x2="-32468" x1="-31748" fill="none"/><line y2="-29232" y1="-28819" x2="-32378" x1="-31659" fill="none"/><line y2="-32422" y1="-32422" x2="-27083" x1="-27944" fill="none"/><line y2="-32511" y1="-32511" x2="-27083" x1="-27944" fill="none"/><line y2="-32332" y1="-32332" x2="-27083" x1="-27944" fill="none"/><line y2="-32202" y1="-31595" x2="-30876" x1="-30876" fill="none"/><line y2="-32202" y1="-31595" x2="-30734" x1="-30734" fill="none"/><line y2="-30899" y1="-31205" x2="-31488" x1="-30957" fill="none"/><line y2="-31020" y1="-31327" x2="-31558" x1="-31029" fill="none"/><text y="-31197" xml:space="preserve" x="-30957" stroke="none" font-size="433.3333" font-family="sans-serif">N</text><text y="-32242" xml:space="preserve" x="-30957" stroke="none" font-size="433.3333" font-family="sans-serif">O</text><text y="-30671" xml:space="preserve" x="-31864" stroke="none" font-size="433.3333" font-family="sans-serif">O</text><text y="-30671" xml:space="preserve" x="-26141" stroke="none" font-size="433.3333" font-family="sans-serif">N</text><text y="-29085" xml:space="preserve" x="-32762" stroke="none" font-size="433.3333" font-family="sans-serif">N</text><text y="-32242" xml:space="preserve" x="-27048" stroke="none" font-size="433.3333" font-family="sans-serif">N</text></g></g></svg>