<svg width="346.35" viewBox="0 0 11545 4629" text-rendering="auto" stroke-width="1" stroke-opacity="1" stroke-miterlimit="10" stroke-linejoin="miter" stroke-linecap="square" stroke-dashoffset="0" stroke-dasharray="none" stroke="black" shape-rendering="auto" image-rendering="auto" height="138.87" font-weight="normal" font-style="normal" font-size="12" font-family="'Dialog'" fill-opacity="1" fill="black" color-rendering="auto" color-interpolation="auto" xmlns="http://www.w3.org/2000/svg"><g><g stroke="white" fill="white"><rect y="0" x="0" width="11545" stroke="none" height="4629"/></g><g transform="translate(32866,32758)" text-rendering="geometricPrecision" stroke-width="44" stroke-linejoin="round" stroke-linecap="round"><line y2="-29027" y1="-30001" x2="-29637" x1="-29637" fill="none"/><line y2="-30330" y1="-30815" x2="-29824" x1="-30668" fill="none"/><line y2="-30708" y1="-30330" x2="-28787" x1="-29449" fill="none"/><line y2="-29027" y1="-29027" x2="-29637" x1="-27759" fill="none"/><line y2="-29198" y1="-29198" x2="-29403" x1="-27993" fill="none"/><line y2="-28432" y1="-29027" x2="-30668" x1="-29637" fill="none"/><line y2="-30815" y1="-30330" x2="-30668" x1="-31514" fill="none"/><line y2="-30607" y1="-30243" x2="-30688" x1="-31324" fill="none"/><line y2="-30220" y1="-30708" x2="-27571" x1="-28412" fill="none"/><line y2="-30134" y1="-30500" x2="-27762" x1="-28392" fill="none"/><line y2="-29247" y1="-30220" x2="-27571" x1="-27571" fill="none"/><line y2="-29027" y1="-28432" x2="-31702" x1="-30668" fill="none"/><line y2="-29102" y1="-28654" x2="-31488" x1="-30711" fill="none"/><line y2="-30001" y1="-29027" x2="-31702" x1="-31702" fill="none"/><line y2="-30636" y1="-30220" x2="-26852" x1="-27571" fill="none"/><line y2="-31644" y1="-30815" x2="-30668" x1="-30668" fill="none"/><line y2="-32387" y1="-31971" x2="-31575" x1="-30856" fill="none"/><line y2="-31864" y1="-32387" x2="-32482" x1="-31575" fill="none"/><line y2="-28611" y1="-29027" x2="-32422" x1="-31702" fill="none"/><line y2="-30330" y1="-30636" x2="-25945" x1="-26473" fill="none"/><line y2="-30746" y1="-30440" x2="-24850" x1="-25376" fill="none"/><line y2="-31468" y1="-31000" x2="-26326" x1="-26598" fill="none"/><line y2="-31396" y1="-30928" x2="-26205" x1="-26476" fill="none"/><line y2="-31396" y1="-30928" x2="-27120" x1="-26849" fill="none"/><line y2="-31468" y1="-31000" x2="-26999" x1="-26728" fill="none"/><line y2="-30746" y1="-30177" x2="-24850" x1="-23865" fill="none"/><line y2="-30821" y1="-30396" x2="-24642" x1="-23902" fill="none"/><line y2="-31884" y1="-30746" x2="-24847" x1="-24850" fill="none"/><line y2="-30177" y1="-30746" x2="-23865" x1="-22877" fill="none"/><line y2="-32450" y1="-31884" x2="-23865" x1="-24847" fill="none"/><line y2="-32231" y1="-31806" x2="-23902" x1="-24642" fill="none"/><line y2="-30746" y1="-31881" x2="-22877" x1="-22880" fill="none"/><line y2="-30888" y1="-31740" x2="-23047" x1="-23050" fill="none"/><line y2="-31881" y1="-32450" x2="-22880" x1="-23865" fill="none"/><line y2="-29128" y1="-30177" x2="-23865" x1="-23865" fill="none"/><line y2="-32216" y1="-31884" x2="-25404" x1="-24847" fill="none"/><line y2="-28712" y1="-29128" x2="-23145" x1="-23865" fill="none"/><line y2="-29021" y1="-28712" x2="-22238" x1="-22770" fill="none"/><line y2="-28652" y1="-29068" x2="-24549" x1="-23830" fill="none"/><line y2="-28773" y1="-29189" x2="-24619" x1="-23899" fill="none"/><text y="-31685" xml:space="preserve" x="-30821" stroke="none" font-size="433.3333" font-family="sans-serif">O</text><text y="-30564" xml:space="preserve" x="-26814" stroke="none" font-size="433.3333" font-family="sans-serif">S</text><text y="-30041" xml:space="preserve" x="-25907" stroke="none" font-size="433.3333" font-family="sans-serif">NH</text><text y="-31471" xml:space="preserve" x="-26291" stroke="none" font-size="433.3333" font-family="sans-serif">O</text><text y="-31471" xml:space="preserve" x="-27340" stroke="none" font-size="433.3333" font-family="sans-serif">O</text><text y="-28325" xml:space="preserve" x="-32762" stroke="none" font-size="433.3333" font-family="sans-serif">F</text><text y="-28426" xml:space="preserve" x="-23108" stroke="none" font-size="433.3333" font-family="sans-serif">O</text><text y="-28426" xml:space="preserve" x="-24925" stroke="none" font-size="433.3333" font-family="sans-serif">O</text><text y="-28949" xml:space="preserve" x="-22201" stroke="none" font-size="433.3333" font-family="sans-serif">CH</text><text y="-28860" xml:space="preserve" x="-21623" stroke="none" font-size="313.3333" font-family="sans-serif">3</text><text y="-32242" xml:space="preserve" x="-25976" stroke="none" font-size="433.3333" font-family="sans-serif">Cl</text><text y="-30041" xml:space="preserve" x="-29790" stroke="none" font-size="433.3333" font-family="sans-serif">N</text><text y="-30636" xml:space="preserve" x="-28753" stroke="none" font-size="433.3333" font-family="sans-serif">N</text><text y="-28848" xml:space="preserve" x="-27721" stroke="none" font-size="433.3333" font-family="sans-serif">N</text><text y="-30041" xml:space="preserve" x="-31855" stroke="none" font-size="433.3333" font-family="sans-serif">N</text></g></g></svg>