<svg width="197.46" viewBox="0 0 6582 2481" text-rendering="auto" stroke-width="1" stroke-opacity="1" stroke-miterlimit="10" stroke-linejoin="miter" stroke-linecap="square" stroke-dashoffset="0" stroke-dasharray="none" stroke="black" shape-rendering="auto" image-rendering="auto" height="74.43" font-weight="normal" font-style="normal" font-size="12" font-family="'Dialog'" fill-opacity="1" fill="black" color-rendering="auto" color-interpolation="auto" xmlns="http://www.w3.org/2000/svg"><g><g stroke="white" fill="white"><rect y="0" x="0" width="6582" stroke="none" height="2481"/></g><g transform="translate(32866,32866)" text-rendering="geometricPrecision" stroke-width="44" stroke-linejoin="round" stroke-linecap="round"><line y2="-32193" y1="-32762" x2="-28825" x1="-29810" fill="none"/><line y2="-32118" y1="-32546" x2="-29033" x1="-29772" fill="none"/><line y2="-32762" y1="-32193" x2="-29810" x1="-30795" fill="none"/><line y2="-31055" y1="-32193" x2="-28825" x1="-28825" fill="none"/><line y2="-32193" y1="-31055" x2="-30795" x1="-30795" fill="none"/><line y2="-32052" y1="-31200" x2="-30628" x1="-30628" fill="none"/><line y2="-30489" y1="-31055" x2="-29810" x1="-28825" fill="none"/><line y2="-30706" y1="-31133" x2="-29772" x1="-29033" fill="none"/><line y2="-31055" y1="-30489" x2="-30795" x1="-29810" fill="none"/><line y2="-32719" y1="-32193" x2="-27918" x1="-28825" fill="none"/><line y2="-32303" y1="-32719" x2="-27198" x1="-27918" fill="none"/><line y2="-32719" y1="-32193" x2="-31702" x1="-30795" fill="none"/><line y2="-32413" y1="-32719" x2="-32231" x1="-31702" fill="none"/><text y="-32014" xml:space="preserve" x="-27164" stroke="none" font-size="433.3333" font-family="sans-serif">NH</text><text y="-31925" xml:space="preserve" x="-26586" stroke="none" font-size="313.3333" font-family="sans-serif">2</text><text y="-32014" xml:space="preserve" x="-32762" stroke="none" font-size="433.3333" font-family="sans-serif">NH</text><text y="-31925" xml:space="preserve" x="-32185" stroke="none" font-size="313.3333" font-family="sans-serif">2</text></g></g></svg>