<svg width="241.71" viewBox="0 0 8057 4009" text-rendering="auto" stroke-width="1" stroke-opacity="1" stroke-miterlimit="10" stroke-linejoin="miter" stroke-linecap="square" stroke-dashoffset="0" stroke-dasharray="none" stroke="black" shape-rendering="auto" image-rendering="auto" height="120.27" font-weight="normal" font-style="normal" font-size="12" font-family="'Dialog'" fill-opacity="1" fill="black" color-rendering="auto" color-interpolation="auto" xmlns="http://www.w3.org/2000/svg"><g><g stroke="white" fill="white"><rect y="0" x="0" width="8057" stroke="none" height="4009"/></g><g transform="translate(32866,32866)" text-rendering="geometricPrecision" stroke-width="44" stroke-linejoin="round" stroke-linecap="round"><line y2="-31234" y1="-30668" x2="-26806" x1="-27791" fill="none"/><line y2="-31018" y1="-30590" x2="-26843" x1="-27583" fill="none"/><line y2="-30668" y1="-29530" x2="-27791" x1="-27791" fill="none"/><line y2="-30668" y1="-31234" x2="-25820" x1="-26806" fill="none"/><line y2="-29530" y1="-28961" x2="-27791" x1="-26806" fill="none"/><line y2="-29608" y1="-29180" x2="-27583" x1="-26843" fill="none"/><line y2="-29530" y1="-30668" x2="-25820" x1="-25820" fill="none"/><line y2="-29671" y1="-30524" x2="-25991" x1="-25991" fill="none"/><line y2="-28961" y1="-29530" x2="-26806" x1="-25820" fill="none"/><line y2="-31191" y1="-30668" x2="-24913" x1="-25820" fill="none"/><line y2="-31081" y1="-30668" x2="-28510" x1="-27791" fill="none"/><line y2="-30668" y1="-31081" x2="-29605" x1="-28888" fill="none"/><line y2="-31191" y1="-30668" x2="-30512" x1="-29605" fill="none"/><line y2="-31191" y1="-31191" x2="-31561" x1="-30512" fill="none"/><line y2="-32240" y1="-31410" x2="-28698" x1="-28698" fill="none"/><line y2="-32762" y1="-32240" x2="-29605" x1="-28698" fill="none"/><line y2="-31191" y1="-31191" x2="-32422" x1="-31561" fill="none"/><line y2="-31101" y1="-31101" x2="-32422" x1="-31561" fill="none"/><line y2="-31280" y1="-31280" x2="-32422" x1="-31561" fill="none"/><text y="-31012" xml:space="preserve" x="-28851" stroke="none" font-size="433.3333" font-family="sans-serif">N</text><text y="-31012" xml:space="preserve" x="-32762" stroke="none" font-size="433.3333" font-family="sans-serif">N</text></g></g></svg>