<svg width="261.03" viewBox="0 0 8701 4718" text-rendering="auto" stroke-width="1" stroke-opacity="1" stroke-miterlimit="10" stroke-linejoin="miter" stroke-linecap="square" stroke-dashoffset="0" stroke-dasharray="none" stroke="black" shape-rendering="auto" image-rendering="auto" height="141.54" font-weight="normal" font-style="normal" font-size="12" font-family="'Dialog'" fill-opacity="1" fill="black" color-rendering="auto" color-interpolation="auto" xmlns="http://www.w3.org/2000/svg"><g><g stroke="white" fill="white"><rect y="0" x="0" width="8701" stroke="none" height="4718"/></g><g transform="translate(32866,32758)" text-rendering="geometricPrecision" stroke-width="44" stroke-linejoin="round" stroke-linecap="round"><line y2="-28938" y1="-30084" x2="-26234" x1="-26234" fill="none"/><line y2="-29082" y1="-29943" x2="-26404" x1="-26404" fill="none"/><line y2="-30084" y1="-30659" x2="-26234" x1="-27216" fill="none"/><line y2="-30550" y1="-30084" x2="-25439" x1="-26234" fill="none"/><line y2="-28366" y1="-28938" x2="-27216" x1="-26234" fill="none"/><line y2="-28938" y1="-28366" x2="-26234" x1="-25251" fill="none"/><line y2="-30659" y1="-30084" x2="-27216" x1="-28198" fill="none"/><line y2="-30440" y1="-30009" x2="-27253" x1="-27990" fill="none"/><line y2="-30084" y1="-30550" x2="-24269" x1="-25064" fill="none"/><line y2="-29998" y1="-30344" x2="-24454" x1="-25049" fill="none"/><line y2="-28938" y1="-28366" x2="-28198" x1="-27216" fill="none"/><line y2="-29016" y1="-28585" x2="-27990" x1="-27253" fill="none"/><line y2="-28366" y1="-28938" x2="-25251" x1="-24269" fill="none"/><line y2="-28585" y1="-29016" x2="-25214" x1="-24477" fill="none"/><line y2="-30084" y1="-28938" x2="-28198" x1="-28198" fill="none"/><line y2="-28938" y1="-30084" x2="-24269" x1="-24269" fill="none"/><line y2="-28634" y1="-28938" x2="-28727" x1="-28198" fill="none"/><line y2="-28938" y1="-28524" x2="-30012" x1="-29293" fill="none"/><line y2="-29767" y1="-28938" x2="-30012" x1="-30012" fill="none"/><line y2="-30402" y1="-30096" x2="-30732" x1="-30200" fill="none"/><line y2="-28464" y1="-28877" x2="-30697" x1="-29978" fill="none"/><line y2="-28585" y1="-29001" x2="-30766" x1="-30047" fill="none"/><line y2="-29816" y1="-30370" x2="-31864" x1="-31107" fill="none"/><line y2="-30729" y1="-31575" x2="-30989" x1="-31249" fill="none"/><line y2="-30512" y1="-29816" x2="-32762" x1="-31864" fill="none"/><line y2="-31575" y1="-31575" x2="-31249" x1="-32396" fill="none"/><line y2="-31575" y1="-30512" x2="-32396" x1="-32762" fill="none"/><line y2="-28987" y1="-29816" x2="-31792" x1="-31792" fill="none"/><line y2="-28987" y1="-29816" x2="-31933" x1="-31933" fill="none"/><line y2="-32245" y1="-31616" x2="-30847" x1="-31304" fill="none"/><line y2="-32162" y1="-31535" x2="-30734" x1="-31191" fill="none"/><text y="-28236" xml:space="preserve" x="-29258" stroke="none" font-size="433.3333" font-family="sans-serif">NH</text><text y="-29807" xml:space="preserve" x="-30165" stroke="none" font-size="433.3333" font-family="sans-serif">O</text><text y="-28236" xml:space="preserve" x="-31072" stroke="none" font-size="433.3333" font-family="sans-serif">O</text><text y="-28588" xml:space="preserve" x="-32014" stroke="none" font-size="433.3333" font-family="sans-serif">O</text><text y="-32242" xml:space="preserve" x="-30784" stroke="none" font-size="433.3333" font-family="sans-serif">O</text><text y="-30480" xml:space="preserve" x="-25404" stroke="none" font-size="433.3333" font-family="sans-serif">N</text><text y="-30333" xml:space="preserve" x="-31072" stroke="none" font-size="433.3333" font-family="sans-serif">N</text></g></g></svg>