<svg width="217.68" viewBox="0 0 7256 6998" text-rendering="auto" stroke-width="1" stroke-opacity="1" stroke-miterlimit="10" stroke-linejoin="miter" stroke-linecap="square" stroke-dashoffset="0" stroke-dasharray="none" stroke="black" shape-rendering="auto" image-rendering="auto" height="209.94" font-weight="normal" font-style="normal" font-size="12" font-family="'Dialog'" fill-opacity="1" fill="black" color-rendering="auto" color-interpolation="auto" xmlns="http://www.w3.org/2000/svg"><g><g stroke="white" fill="white"><rect y="0" x="0" width="7256" stroke="none" height="6998"/></g><g transform="translate(32866,32758)" text-rendering="geometricPrecision" stroke-width="44" stroke-linejoin="round" stroke-linecap="round"><line y2="-28816" y1="-27834" x2="-31055" x1="-30486" fill="none"/><line y2="-27834" y1="-27834" x2="-29351" x1="-30486" fill="none"/><line y2="-26846" y1="-27834" x2="-31055" x1="-30486" fill="none"/><line y2="-27054" y1="-27794" x2="-31133" x1="-30706" fill="none"/><line y2="-29804" y1="-28816" x2="-30486" x1="-31055" fill="none"/><line y2="-28816" y1="-28816" x2="-31055" x1="-32193" fill="none"/><line y2="-28646" y1="-28646" x2="-31200" x1="-32052" fill="none"/><line y2="-27834" y1="-28816" x2="-29351" x1="-28782" fill="none"/><line y2="-26846" y1="-27834" x2="-28782" x1="-29351" fill="none"/><line y2="-26884" y1="-27623" x2="-29001" x1="-29426" fill="none"/><line y2="-26846" y1="-25864" x2="-31055" x1="-30486" fill="none"/><line y2="-26846" y1="-26846" x2="-32193" x1="-31055" fill="none"/><line y2="-29804" y1="-29804" x2="-29538" x1="-30486" fill="none"/><line y2="-28816" y1="-27834" x2="-32193" x1="-32762" fill="none"/><line y2="-28816" y1="-29585" x2="-28782" x1="-29224" fill="none"/><line y2="-25864" y1="-26846" x2="-29351" x1="-28782" fill="none"/><line y2="-25864" y1="-25864" x2="-30486" x1="-29351" fill="none"/><line y2="-26034" y1="-26034" x2="-30344" x1="-29492" fill="none"/><line y2="-27834" y1="-26846" x2="-32762" x1="-32193" fill="none"/><line y2="-27794" y1="-27054" x2="-32543" x1="-32115" fill="none"/><line y2="-30217" y1="-29911" x2="-28631" x1="-29163" fill="none"/><line y2="-31156" y1="-30547" x2="-28444" x1="-28444" fill="none"/><line y2="-30457" y1="-29770" x2="-30945" x1="-30550" fill="none"/><line y2="-30526" y1="-29839" x2="-30824" x1="-30425" fill="none"/><line y2="-28886" y1="-28886" x2="-27921" x1="-28782" fill="none"/><line y2="-28747" y1="-28747" x2="-27921" x1="-28782" fill="none"/><line y2="-31800" y1="-31488" x2="-29154" x1="-28631" fill="none"/><line y2="-31405" y1="-31809" x2="-30258" x1="-29530" fill="none"/><line y2="-31930" y1="-31405" x2="-31165" x1="-30258" fill="none"/><line y2="-31777" y1="-31480" x2="-27716" x1="-28256" fill="none"/><line y2="-31358" y1="-31774" x2="-26621" x1="-27340" fill="none"/><line y2="-31881" y1="-31358" x2="-25714" x1="-26621" fill="none"/><line y2="-32202" y1="-31595" x2="-28513" x1="-28513" fill="none"/><line y2="-32202" y1="-31595" x2="-28374" x1="-28374" fill="none"/><text y="-30532" xml:space="preserve" x="-31165" stroke="none" font-size="433.3333" font-family="sans-serif">O</text><text y="-28637" xml:space="preserve" x="-27886" stroke="none" font-size="433.3333" font-family="sans-serif">O</text><text y="-30148" xml:space="preserve" x="-28597" stroke="none" font-size="433.3333" font-family="sans-serif">O</text><text y="-31197" xml:space="preserve" x="-28597" stroke="none" font-size="433.3333" font-family="sans-serif">P</text><text y="-31734" xml:space="preserve" x="-29495" stroke="none" font-size="433.3333" font-family="sans-serif">O</text><text y="-31702" xml:space="preserve" x="-27681" stroke="none" font-size="433.3333" font-family="sans-serif">O</text><text y="-32242" xml:space="preserve" x="-28597" stroke="none" font-size="433.3333" font-family="sans-serif">O</text><text y="-29625" xml:space="preserve" x="-29501" stroke="none" font-size="433.3333" font-family="sans-serif">N</text></g></g></svg>