<svg width="596.97" viewBox="0 0 19899 3190" text-rendering="auto" stroke-width="1" stroke-opacity="1" stroke-miterlimit="10" stroke-linejoin="miter" stroke-linecap="square" stroke-dashoffset="0" stroke-dasharray="none" stroke="black" shape-rendering="auto" image-rendering="auto" height="95.7" font-weight="normal" font-style="normal" font-size="12" font-family="'Dialog'" fill-opacity="1" fill="black" color-rendering="auto" color-interpolation="auto" xmlns="http://www.w3.org/2000/svg"><g><g stroke="white" fill="white"><rect y="0" x="0" width="19899" stroke="none" height="3190"/></g><g transform="translate(32866,32758)" text-rendering="geometricPrecision" stroke-width="44" stroke-linejoin="round" stroke-linecap="round"><line y2="-31376" y1="-31376" x2="-24318" x1="-25367" fill="none"/><line y2="-31237" y1="-31237" x2="-24448" x1="-25234" fill="none"/><line y2="-30850" y1="-31376" x2="-26274" x1="-25367" fill="none"/><line y2="-31376" y1="-30850" x2="-27181" x1="-26274" fill="none"/><line y2="-30850" y1="-31376" x2="-23411" x1="-24318" fill="none"/><line y2="-31376" y1="-30850" x2="-22504" x1="-23411" fill="none"/><line y2="-31376" y1="-31376" x2="-28227" x1="-27181" fill="none"/><line y2="-31237" y1="-31237" x2="-28097" x1="-27311" fill="none"/><line y2="-31376" y1="-31376" x2="-21455" x1="-22504" fill="none"/><line y2="-31237" y1="-31237" x2="-21585" x1="-22374" fill="none"/><line y2="-30850" y1="-31376" x2="-29134" x1="-28227" fill="none"/><line y2="-31376" y1="-30850" x2="-30041" x1="-29134" fill="none"/><line y2="-30850" y1="-31376" x2="-30948" x1="-30041" fill="none"/><line y2="-31376" y1="-30850" x2="-31855" x1="-30948" fill="none"/><line y2="-30850" y1="-31376" x2="-32762" x1="-31855" fill="none"/><line y2="-30850" y1="-31376" x2="-20548" x1="-21455" fill="none"/><line y2="-31376" y1="-30850" x2="-19641" x1="-20548" fill="none"/><line y2="-31376" y1="-31376" x2="-18592" x1="-19641" fill="none"/><line y2="-31237" y1="-31237" x2="-18725" x1="-19511" fill="none"/><line y2="-30850" y1="-31376" x2="-17685" x1="-18592" fill="none"/><line y2="-31376" y1="-30850" x2="-16778" x1="-17685" fill="none"/><line y2="-30850" y1="-31376" x2="-15871" x1="-16778" fill="none"/><line y2="-31376" y1="-30850" x2="-14964" x1="-15871" fill="none"/><line y2="-30850" y1="-31376" x2="-14057" x1="-14964" fill="none"/><line y2="-32202" y1="-31376" x2="-15033" x1="-15033" fill="none"/><line y2="-32202" y1="-31376" x2="-14895" x1="-14895" fill="none"/><line y2="-31266" y1="-30850" x2="-13338" x1="-14057" fill="none"/><line y2="-30162" y1="-30850" x2="-13661" x1="-14057" fill="none"/><line y2="-30162" y1="-30850" x2="-14456" x1="-14057" fill="none"/><text y="-32242" xml:space="preserve" x="-15117" stroke="none" font-size="433.3333" font-family="sans-serif">O</text><text y="-31197" xml:space="preserve" x="-13303" stroke="none" font-size="433.3333" font-family="sans-serif">F</text><text y="-29764" xml:space="preserve" x="-13687" stroke="none" font-size="433.3333" font-family="sans-serif">F</text><text y="-29764" xml:space="preserve" x="-14733" stroke="none" font-size="433.3333" font-family="sans-serif">F</text><text y="-30729" xml:space="preserve" x="-19268" stroke="none" font-style="italic" font-size="313.3333" font-family="sans-serif">Z</text><text y="-30729" xml:space="preserve" x="-22131" stroke="none" font-style="italic" font-size="313.3333" font-family="sans-serif">Z</text><text y="-30729" xml:space="preserve" x="-24994" stroke="none" font-style="italic" font-size="313.3333" font-family="sans-serif">Z</text><text y="-30729" xml:space="preserve" x="-27854" stroke="none" font-style="italic" font-size="313.3333" font-family="sans-serif">Z</text></g></g></svg>