<svg width="483.3" viewBox="0 0 16110 4762" text-rendering="auto" stroke-width="1" stroke-opacity="1" stroke-miterlimit="10" stroke-linejoin="miter" stroke-linecap="square" stroke-dashoffset="0" stroke-dasharray="none" stroke="black" shape-rendering="auto" image-rendering="auto" height="142.86" font-weight="normal" font-style="normal" font-size="12" font-family="'Dialog'" fill-opacity="1" fill="black" color-rendering="auto" color-interpolation="auto" xmlns="http://www.w3.org/2000/svg"><g><g stroke="white" fill="white"><rect y="0" x="0" width="16110" stroke="none" height="4762"/></g><g transform="translate(32866,32758)" text-rendering="geometricPrecision" stroke-width="44" stroke-linejoin="round" stroke-linecap="round"><line y2="-31081" y1="-29943" x2="-26413" x1="-26413" fill="none"/><line y2="-30940" y1="-30087" x2="-26242" x1="-26242" fill="none"/><line y2="-29943" y1="-29374" x2="-26413" x1="-25425" fill="none"/><line y2="-31650" y1="-31081" x2="-25425" x1="-26413" fill="none"/><line y2="-29374" y1="-29943" x2="-25425" x1="-24442" fill="none"/><line y2="-29593" y1="-30021" x2="-25387" x1="-24650" fill="none"/><line y2="-31081" y1="-31650" x2="-24442" x1="-25425" fill="none"/><line y2="-31006" y1="-31434" x2="-24650" x1="-25387" fill="none"/><line y2="-29943" y1="-31081" x2="-24442" x1="-24442" fill="none"/><line y2="-31497" y1="-31081" x2="-23723" x1="-24442" fill="none"/><line y2="-31081" y1="-31497" x2="-22628" x1="-23348" fill="none"/><line y2="-31604" y1="-31081" x2="-21721" x1="-22628" fill="none"/><line y2="-31081" y1="-31604" x2="-20814" x1="-21721" fill="none"/><line y2="-31604" y1="-31081" x2="-19907" x1="-20814" fill="none"/><line y2="-31081" y1="-31604" x2="-19000" x1="-19907" fill="none"/><line y2="-29420" y1="-29943" x2="-27320" x1="-26413" fill="none"/><line y2="-29943" y1="-29420" x2="-28227" x1="-27320" fill="none"/><line y2="-31081" y1="-29943" x2="-19000" x1="-19000" fill="none"/><line y2="-31650" y1="-31081" x2="-18012" x1="-19000" fill="none"/><line y2="-31431" y1="-31003" x2="-18049" x1="-18789" fill="none"/><line y2="-29943" y1="-29374" x2="-19000" x1="-18012" fill="none"/><line y2="-30021" y1="-29593" x2="-18789" x1="-18049" fill="none"/><line y2="-31081" y1="-31650" x2="-17030" x1="-18012" fill="none"/><line y2="-29374" y1="-29836" x2="-18012" x1="-17217" fill="none"/><line y2="-30162" y1="-31081" x2="-17030" x1="-17030" fill="none"/><line y2="-30278" y1="-30966" x2="-17200" x1="-17200" fill="none"/><line y2="-29420" y1="-29943" x2="-29134" x1="-28227" fill="none"/><line y2="-31408" y1="-31098" x2="-28946" x1="-28415" fill="none"/><line y2="-29723" y1="-29420" x2="-29663" x1="-29134" fill="none"/><line y2="-28591" y1="-29420" x2="-29065" x1="-29065" fill="none"/><line y2="-28591" y1="-29420" x2="-29203" x1="-29203" fill="none"/><line y2="-30992" y1="-31408" x2="-30041" x1="-29322" fill="none"/><line y2="-31514" y1="-30992" x2="-30948" x1="-30041" fill="none"/><line y2="-30992" y1="-31514" x2="-31855" x1="-30948" fill="none"/><line y2="-31514" y1="-30992" x2="-32762" x1="-31855" fill="none"/><line y2="-32167" y1="-31699" x2="-29590" x1="-29322" fill="none"/><line y2="-32240" y1="-31769" x2="-29469" x1="-29200" fill="none"/><line y2="-32240" y1="-31769" x2="-28799" x1="-29068" fill="none"/><line y2="-32167" y1="-31699" x2="-28678" x1="-28946" fill="none"/><polygon stroke-width="1" stroke="none" points=" -28227 -29943 -28296 -30772 -28158 -30772"/><polygon stroke-width="1" points=" -28227 -29943 -28296 -30772 -28158 -30772" fill="none"/><text y="-30812" xml:space="preserve" x="-28380" stroke-width="1" stroke="none" font-size="433.3333" font-family="sans-serif">NH</text><text y="-31335" xml:space="preserve" x="-29287" stroke-width="1" stroke="none" font-size="433.3333" font-family="sans-serif">S</text><text y="-29764" xml:space="preserve" x="-30194" stroke-width="1" stroke="none" font-size="433.3333" font-family="sans-serif">OH</text><text y="-28192" xml:space="preserve" x="-29287" stroke-width="1" stroke="none" font-size="433.3333" font-family="sans-serif">O</text><text y="-32242" xml:space="preserve" x="-29810" stroke-width="1" stroke="none" font-size="433.3333" font-family="sans-serif">O</text><text y="-32242" xml:space="preserve" x="-28761" stroke-width="1" stroke="none" font-size="433.3333" font-family="sans-serif">O</text><text y="-31425" xml:space="preserve" x="-23688" stroke-width="1" stroke="none" font-size="433.3333" font-family="sans-serif">O</text><text y="-29764" xml:space="preserve" x="-17180" stroke-width="1" stroke="none" font-size="433.3333" font-family="sans-serif">N</text></g><g transform="translate(32866,32758)" text-rendering="geometricPrecision" stroke-linejoin="round" stroke-linecap="round" font-style="italic" font-size="313.3333" font-family="sans-serif"><text y="-29463" xml:space="preserve" x="-28380" stroke="none">S</text></g></g></svg>