<svg width="236.61" viewBox="0 0 7887 6083" text-rendering="auto" stroke-width="1" stroke-opacity="1" stroke-miterlimit="10" stroke-linejoin="miter" stroke-linecap="square" stroke-dashoffset="0" stroke-dasharray="none" stroke="black" shape-rendering="auto" image-rendering="auto" height="182.49" font-weight="normal" font-style="normal" font-size="12" font-family="'Dialog'" fill-opacity="1" fill="black" color-rendering="auto" color-interpolation="auto" xmlns="http://www.w3.org/2000/svg"><g><g stroke="white" fill="white"><rect y="0" x="0" width="7887" stroke="none" height="6083"/></g><g transform="translate(32866,32758)" text-rendering="geometricPrecision" stroke-width="44" stroke-linejoin="round" stroke-linecap="round"><line y2="-29079" y1="-30015" x2="-31162" x1="-30838" fill="none"/><line y2="-30379" y1="-30847" x2="-30951" x1="-31552" fill="none"/><line y2="-29079" y1="-29079" x2="-32219" x1="-31162" fill="none"/><line y2="-29250" y1="-29250" x2="-32086" x1="-31295" fill="none"/><line y2="-30853" y1="-30235" x2="-31928" x1="-32762" fill="none"/><line y2="-30639" y1="-30174" x2="-31930" x1="-32557" fill="none"/><line y2="-30235" y1="-29299" x2="-32762" x1="-32474" fill="none"/><line y2="-30758" y1="-30344" x2="-29853" x1="-30573" fill="none"/><line y2="-30235" y1="-30758" x2="-28946" x1="-29853" fill="none"/><line y2="-30758" y1="-30235" x2="-28039" x1="-28946" fill="none"/><line y2="-29186" y1="-30235" x2="-28946" x1="-28946" fill="none"/><line y2="-28860" y1="-29186" x2="-28380" x1="-28946" fill="none"/><line y2="-29819" y1="-30235" x2="-28227" x1="-28946" fill="none"/><line y2="-31896" y1="-30758" x2="-28039" x1="-28039" fill="none"/><line y2="-31754" y1="-30902" x2="-27869" x1="-27869" fill="none"/><line y2="-30758" y1="-30191" x2="-28039" x1="-27054" fill="none"/><line y2="-32465" y1="-31896" x2="-27054" x1="-28039" fill="none"/><line y2="-30191" y1="-30758" x2="-27054" x1="-26069" fill="none"/><line y2="-30408" y1="-30836" x2="-27016" x1="-26277" fill="none"/><line y2="-31896" y1="-32465" x2="-26069" x1="-27054" fill="none"/><line y2="-31821" y1="-32248" x2="-26277" x1="-27016" fill="none"/><line y2="-30758" y1="-31896" x2="-26069" x1="-26069" fill="none"/><line y2="-32312" y1="-31896" x2="-25350" x1="-26069" fill="none"/><line y2="-29122" y1="-28860" x2="-27245" x1="-27698" fill="none"/><line y2="-27334" y1="-28444" x2="-28039" x1="-28039" fill="none"/><line y2="-28204" y1="-28467" x2="-27245" x1="-27698" fill="none"/><text y="-29533" xml:space="preserve" x="-28192" stroke="none" font-size="433.3333" font-family="sans-serif">OH</text><text y="-28484" xml:space="preserve" x="-28270" stroke="none" font-size="433.3333" font-family="sans-serif">Si</text><text y="-29053" xml:space="preserve" x="-27207" stroke="none" font-size="433.3333" font-family="sans-serif">CH</text><text y="-28964" xml:space="preserve" x="-26629" stroke="none" font-size="313.3333" font-family="sans-serif">3</text><text y="-26936" xml:space="preserve" x="-28192" stroke="none" font-size="433.3333" font-family="sans-serif">CH</text><text y="-26846" xml:space="preserve" x="-27614" stroke="none" font-size="313.3333" font-family="sans-serif">3</text><text y="-27915" xml:space="preserve" x="-27207" stroke="none" font-size="433.3333" font-family="sans-serif">CH</text><text y="-27825" xml:space="preserve" x="-26629" stroke="none" font-size="313.3333" font-family="sans-serif">3</text><text y="-32242" xml:space="preserve" x="-25315" stroke="none" font-size="433.3333" font-family="sans-serif">F</text><text y="-30056" xml:space="preserve" x="-30914" stroke="none" font-size="433.3333" font-family="sans-serif">N</text><text y="-30812" xml:space="preserve" x="-31893" stroke="none" font-size="433.3333" font-family="sans-serif">N</text><text y="-28900" xml:space="preserve" x="-32560" stroke="none" font-size="433.3333" font-family="sans-serif">N</text></g></g></svg>