<svg width="369.36" viewBox="0 0 12312 5419" text-rendering="auto" stroke-width="1" stroke-opacity="1" stroke-miterlimit="10" stroke-linejoin="miter" stroke-linecap="square" stroke-dashoffset="0" stroke-dasharray="none" stroke="black" shape-rendering="auto" image-rendering="auto" height="162.57" font-weight="normal" font-style="normal" font-size="12" font-family="'Dialog'" fill-opacity="1" fill="black" color-rendering="auto" color-interpolation="auto" xmlns="http://www.w3.org/2000/svg"><g><g stroke="white" fill="white"><rect y="0" x="0" width="12312" stroke="none" height="5419"/></g><g transform="translate(32866,32771)" text-rendering="geometricPrecision" stroke-width="44" stroke-linejoin="round" stroke-linecap="round"><line y2="-30437" y1="-31006" x2="-23535" x1="-24518" fill="none"/><line y2="-30362" y1="-30789" x2="-23743" x1="-24480" fill="none"/><line y2="-29299" y1="-30437" x2="-23535" x1="-23535" fill="none"/><line y2="-31006" y1="-30437" x2="-24518" x1="-25506" fill="none"/><line y2="-28732" y1="-29299" x2="-24518" x1="-23535" fill="none"/><line y2="-28949" y1="-29377" x2="-24480" x1="-23743" fill="none"/><line y2="-30437" y1="-29299" x2="-25506" x1="-25506" fill="none"/><line y2="-30295" y1="-29443" x2="-25335" x1="-25335" fill="none"/><line y2="-29299" y1="-28732" x2="-25506" x1="-24518" fill="none"/><line y2="-30960" y1="-30437" x2="-22628" x1="-23535" fill="none"/><line y2="-28776" y1="-29299" x2="-26413" x1="-25506" fill="none"/><line y2="-29299" y1="-28776" x2="-27320" x1="-26413" fill="none"/><line y2="-32098" y1="-30960" x2="-22628" x1="-22628" fill="none"/><line y2="-31956" y1="-31104" x2="-22458" x1="-22458" fill="none"/><line y2="-30960" y1="-30394" x2="-22628" x1="-21640" fill="none"/><line y2="-32667" y1="-32098" x2="-21640" x1="-22628" fill="none"/><line y2="-30394" y1="-30960" x2="-21640" x1="-20658" fill="none"/><line y2="-30610" y1="-31038" x2="-21603" x1="-20866" fill="none"/><line y2="-32098" y1="-32667" x2="-20658" x1="-21640" fill="none"/><line y2="-32023" y1="-32450" x2="-20866" x1="-21603" fill="none"/><line y2="-30960" y1="-32098" x2="-20658" x1="-20658" fill="none"/><line y2="-28776" y1="-29299" x2="-28227" x1="-27320" fill="none"/><line y2="-31373" y1="-30957" x2="-28227" x1="-27508" fill="none"/><line y2="-29299" y1="-28776" x2="-29134" x1="-28227" fill="none"/><line y2="-29114" y1="-28721" x2="-29091" x1="-28412" fill="none"/><line y2="-30957" y1="-31373" x2="-28946" x1="-28227" fill="none"/><line y2="-31373" y1="-30957" x2="-30041" x1="-29322" fill="none"/><line y2="-32202" y1="-31373" x2="-28296" x1="-28296" fill="none"/><line y2="-32202" y1="-31373" x2="-28158" x1="-28158" fill="none"/><line y2="-28776" y1="-29299" x2="-30041" x1="-29134" fill="none"/><line y2="-30347" y1="-29299" x2="-29134" x1="-29134" fill="none"/><line y2="-30850" y1="-31373" x2="-30948" x1="-30041" fill="none"/><line y2="-32280" y1="-31373" x2="-30567" x1="-30041" fill="none"/><line y2="-32280" y1="-31373" x2="-29518" x1="-30041" fill="none"/><line y2="-29192" y1="-28776" x2="-30760" x1="-30041" fill="none"/><line y2="-28776" y1="-29192" x2="-31855" x1="-31136" fill="none"/><line y2="-29299" y1="-28776" x2="-32762" x1="-31855" fill="none"/><line y2="-27947" y1="-28776" x2="-29972" x1="-29972" fill="none"/><line y2="-27947" y1="-28776" x2="-30110" x1="-30110" fill="none"/><line y2="-30630" y1="-30628" x2="-27250" x1="-27389" fill="none"/><line y2="-30413" y1="-30411" x2="-27261" x1="-27378" fill="none"/><line y2="-30196" y1="-30195" x2="-27273" x1="-27367" fill="none"/><line y2="-29980" y1="-29978" x2="-27284" x1="-27355" fill="none"/><line y2="-29763" y1="-29762" x2="-27296" x1="-27344" fill="none"/><line y2="-29546" y1="-29545" x2="-27307" x1="-27333" fill="none"/><line y2="-29329" y1="-29329" x2="-27318" x1="-27322" fill="none"/><text y="-30671" xml:space="preserve" x="-27473" stroke="none" font-size="433.3333" font-family="sans-serif">NH</text><text y="-30671" xml:space="preserve" x="-29287" stroke="none" font-size="433.3333" font-family="sans-serif">O</text><text y="-32242" xml:space="preserve" x="-28380" stroke="none" font-size="433.3333" font-family="sans-serif">O</text><text y="-29120" xml:space="preserve" x="-31101" stroke="none" font-size="433.3333" font-family="sans-serif">O</text><text y="-27548" xml:space="preserve" x="-30194" stroke="none" font-size="433.3333" font-family="sans-serif">O</text><text y="-28819" xml:space="preserve" x="-27473" stroke="none" font-style="italic" font-size="313.3333" font-family="sans-serif">R</text></g></g></svg>