<svg width="371.61" viewBox="0 0 12387 7332" text-rendering="auto" stroke-width="1" stroke-opacity="1" stroke-miterlimit="10" stroke-linejoin="miter" stroke-linecap="square" stroke-dashoffset="0" stroke-dasharray="none" stroke="black" shape-rendering="auto" image-rendering="auto" height="219.96" font-weight="normal" font-style="normal" font-size="12" font-family="'Dialog'" fill-opacity="1" fill="black" color-rendering="auto" color-interpolation="auto" xmlns="http://www.w3.org/2000/svg"><g><g stroke="white" fill="white"><rect y="0" x="0" width="12387" stroke="none" height="7332"/></g><g transform="translate(32866,32866)" text-rendering="geometricPrecision" stroke-width="44" stroke-linejoin="round" stroke-linecap="round"><line y2="-27912" y1="-27346" x2="-23535" x1="-24523" fill="none"/><line y2="-27346" y1="-27912" x2="-22553" x1="-23535" fill="none"/><line y2="-26208" y1="-27346" x2="-24523" x1="-24523" fill="none"/><line y2="-27346" y1="-27912" x2="-24523" x1="-25506" fill="none"/><line y2="-27268" y1="-27695" x2="-24731" x1="-25468" fill="none"/><line y2="-26208" y1="-27346" x2="-22553" x1="-22553" fill="none"/><line y2="-27912" y1="-27346" x2="-21565" x1="-22553" fill="none"/><line y2="-27695" y1="-27268" x2="-21603" x1="-22342" fill="none"/><line y2="-26208" y1="-26208" x2="-24523" x1="-22553" fill="none"/><line y2="-25638" y1="-26208" x2="-25506" x1="-24523" fill="none"/><line y2="-25855" y1="-26283" x2="-25468" x1="-24731" fill="none"/><line y2="-27912" y1="-27346" x2="-25506" x1="-26494" fill="none"/><line y2="-26208" y1="-25638" x2="-22553" x1="-21565" fill="none"/><line y2="-26283" y1="-25858" x2="-22342" x1="-21603" fill="none"/><line y2="-27346" y1="-27912" x2="-20583" x1="-21565" fill="none"/><line y2="-26208" y1="-25638" x2="-26494" x1="-25506" fill="none"/><line y2="-27346" y1="-26208" x2="-26494" x1="-26494" fill="none"/><line y2="-27201" y1="-26349" x2="-26323" x1="-26323" fill="none"/><line y2="-25638" y1="-26208" x2="-21565" x1="-20583" fill="none"/><line y2="-26208" y1="-27346" x2="-20583" x1="-20583" fill="none"/><line y2="-26349" y1="-27201" x2="-20753" x1="-20753" fill="none"/><line y2="-28961" y1="-27912" x2="-23535" x1="-23535" fill="none"/><line y2="-29377" y1="-28961" x2="-24255" x1="-23535" fill="none"/><line y2="-30532" y1="-29703" x2="-24442" x1="-24442" fill="none"/><line y2="-30838" y1="-30532" x2="-24971" x1="-24442" fill="none"/><line y2="-30532" y1="-30948" x2="-26257" x1="-25537" fill="none"/><line y2="-31009" y1="-30593" x2="-23758" x1="-24477" fill="none"/><line y2="-30888" y1="-30472" x2="-23688" x1="-24408" fill="none"/><line y2="-31055" y1="-30532" x2="-27164" x1="-26257" fill="none"/><line y2="-30532" y1="-31055" x2="-28071" x1="-27164" fill="none"/><line y2="-30948" y1="-30532" x2="-28790" x1="-28071" fill="none"/><line y2="-30532" y1="-30948" x2="-29885" x1="-29166" fill="none"/><line y2="-31055" y1="-30532" x2="-30792" x1="-29885" fill="none"/><line y2="-29703" y1="-30532" x2="-28002" x1="-28002" fill="none"/><line y2="-29703" y1="-30532" x2="-28140" x1="-28140" fill="none"/><line y2="-29180" y1="-29484" x2="-26785" x1="-26257" fill="none"/><line y2="-29131" y1="-29524" x2="-25503" x1="-26187" fill="none"/><line y2="-29007" y1="-29423" x2="-25572" x1="-26291" fill="none"/><line y2="-31055" y1="-32193" x2="-30792" x1="-30792" fill="none"/><line y2="-31200" y1="-32052" x2="-30963" x1="-30963" fill="none"/><line y2="-30489" y1="-31055" x2="-31777" x1="-30792" fill="none"/><line y2="-32193" y1="-32762" x2="-30792" x1="-31777" fill="none"/><line y2="-31055" y1="-30489" x2="-32762" x1="-31777" fill="none"/><line y2="-31133" y1="-30706" x2="-32554" x1="-31815" fill="none"/><line y2="-32762" y1="-32193" x2="-31777" x1="-32762" fill="none"/><line y2="-32543" y1="-32118" x2="-31815" x1="-32554" fill="none"/><line y2="-32193" y1="-31055" x2="-32762" x1="-32762" fill="none"/><polygon stroke-width="1" stroke="none" points=" -26257 -30532 -26187 -29484 -26326 -29484"/><polygon stroke-width="1" points=" -26257 -30532 -26187 -29484 -26326 -29484" fill="none"/><text y="-29304" xml:space="preserve" x="-24596" stroke-width="1" stroke="none" font-size="433.3333" font-family="sans-serif">O</text><text y="-30876" xml:space="preserve" x="-25503" stroke-width="1" stroke="none" font-size="433.3333" font-family="sans-serif">NH</text><text y="-30876" xml:space="preserve" x="-23688" stroke-width="1" stroke="none" font-size="433.3333" font-family="sans-serif">O</text><text y="-28782" xml:space="preserve" x="-27317" stroke-width="1" stroke="none" font-size="433.3333" font-family="sans-serif">OH</text><text y="-28782" xml:space="preserve" x="-25503" stroke-width="1" stroke="none" font-size="433.3333" font-family="sans-serif">O</text><text y="-30876" xml:space="preserve" x="-29131" stroke-width="1" stroke="none" font-size="433.3333" font-family="sans-serif">O</text><text y="-29304" xml:space="preserve" x="-28224" stroke-width="1" stroke="none" font-size="433.3333" font-family="sans-serif">O</text></g><g transform="translate(32866,32866)" text-rendering="geometricPrecision" stroke-linejoin="round" stroke-linecap="round" font-style="italic" font-size="313.3333" font-family="sans-serif"><text y="-30656" xml:space="preserve" x="-26410" stroke="none">R</text></g></g></svg>