<svg width="371.82" viewBox="0 0 12394 4560" text-rendering="auto" stroke-width="1" stroke-opacity="1" stroke-miterlimit="10" stroke-linejoin="miter" stroke-linecap="square" stroke-dashoffset="0" stroke-dasharray="none" stroke="black" shape-rendering="auto" image-rendering="auto" height="136.8" font-weight="normal" font-style="normal" font-size="12" font-family="'Dialog'" fill-opacity="1" fill="black" color-rendering="auto" color-interpolation="auto" xmlns="http://www.w3.org/2000/svg"><g><g stroke="white" fill="white"><rect y="0" x="0" width="12394" stroke="none" height="4560"/></g><g transform="translate(32866,32758)" text-rendering="geometricPrecision" stroke-width="44" stroke-linejoin="round" stroke-linecap="round"><line y2="-30235" y1="-29096" x2="-28227" x1="-28227" fill="none"/><line y2="-30093" y1="-29241" x2="-28056" x1="-28056" fill="none"/><line y2="-29096" y1="-28530" x2="-28227" x1="-27239" fill="none"/><line y2="-30804" y1="-30235" x2="-27239" x1="-28227" fill="none"/><line y2="-28530" y1="-29096" x2="-27239" x1="-26257" fill="none"/><line y2="-28747" y1="-29174" x2="-27201" x1="-26465" fill="none"/><line y2="-30235" y1="-30804" x2="-26257" x1="-27239" fill="none"/><line y2="-30160" y1="-30587" x2="-26465" x1="-27201" fill="none"/><line y2="-29096" y1="-30235" x2="-26257" x1="-26257" fill="none"/><line y2="-30651" y1="-30235" x2="-25537" x1="-26257" fill="none"/><line y2="-30235" y1="-30541" x2="-24442" x1="-24968" fill="none"/><line y2="-30758" y1="-30235" x2="-23535" x1="-24442" fill="none"/><line y2="-28793" y1="-29096" x2="-28753" x1="-28227" fill="none"/><line y2="-29096" y1="-28683" x2="-30041" x1="-29322" fill="none"/><line y2="-30486" y1="-30235" x2="-28660" x1="-28227" fill="none"/><line y2="-31896" y1="-30758" x2="-23535" x1="-23535" fill="none"/><line y2="-31754" y1="-30902" x2="-23365" x1="-23365" fill="none"/><line y2="-30758" y1="-30191" x2="-23535" x1="-22547" fill="none"/><line y2="-32465" y1="-31896" x2="-22547" x1="-23535" fill="none"/><line y2="-30191" y1="-30758" x2="-22547" x1="-21565" fill="none"/><line y2="-30408" y1="-30836" x2="-22510" x1="-21773" fill="none"/><line y2="-31896" y1="-32465" x2="-21565" x1="-22547" fill="none"/><line y2="-31821" y1="-32248" x2="-21773" x1="-22510" fill="none"/><line y2="-30758" y1="-31896" x2="-21565" x1="-21565" fill="none"/><line y2="-32312" y1="-31896" x2="-20846" x1="-21565" fill="none"/><line y2="-28683" y1="-29096" x2="-30760" x1="-30041" fill="none"/><line y2="-29096" y1="-28683" x2="-31855" x1="-31136" fill="none"/><line y2="-28574" y1="-29096" x2="-32762" x1="-31855" fill="none"/><line y2="-29926" y1="-29096" x2="-30110" x1="-30110" fill="none"/><line y2="-29926" y1="-29096" x2="-29972" x1="-29972" fill="none"/><text y="-28394" xml:space="preserve" x="-29284" stroke="none" font-size="433.3333" font-family="sans-serif">NH</text><text y="-28394" xml:space="preserve" x="-31101" stroke="none" font-size="433.3333" font-family="sans-serif">O</text><text y="-29966" xml:space="preserve" x="-30194" stroke="none" font-size="433.3333" font-family="sans-serif">O</text><text y="-30636" xml:space="preserve" x="-29382" stroke="none" font-size="433.3333" font-family="sans-serif">NH</text><text y="-30547" xml:space="preserve" x="-28805" stroke="none" font-size="313.3333" font-family="sans-serif">2</text><text y="-30578" xml:space="preserve" x="-25500" stroke="none" font-size="433.3333" font-family="sans-serif">NH</text><text y="-32242" xml:space="preserve" x="-20808" stroke="none" font-size="433.3333" font-family="sans-serif">F</text></g></g></svg>