<svg width="191.85" viewBox="0 0 6395 4900" text-rendering="auto" stroke-width="1" stroke-opacity="1" stroke-miterlimit="10" stroke-linejoin="miter" stroke-linecap="square" stroke-dashoffset="0" stroke-dasharray="none" stroke="black" shape-rendering="auto" image-rendering="auto" height="147.0" font-weight="normal" font-style="normal" font-size="12" font-family="'Dialog'" fill-opacity="1" fill="black" color-rendering="auto" color-interpolation="auto" xmlns="http://www.w3.org/2000/svg"><g><g stroke="white" fill="white"><rect y="0" x="0" width="6395" stroke="none" height="4900"/></g><g transform="translate(32866,32758)" text-rendering="geometricPrecision" stroke-width="44" stroke-linejoin="round" stroke-linecap="round"><line y2="-31376" y1="-30850" x2="-29798" x1="-28891" fill="none"/><line y2="-30850" y1="-31376" x2="-30706" x1="-29798" fill="none"/><line y2="-31266" y1="-30850" x2="-31425" x1="-30706" fill="none"/><line y2="-31018" y1="-31266" x2="-32231" x1="-31800" fill="none"/><line y2="-31376" y1="-30850" x2="-27984" x1="-28891" fill="none"/><line y2="-29278" y1="-29585" x2="-27984" x1="-28513" fill="none"/><line y2="-30960" y1="-31376" x2="-27265" x1="-27984" fill="none"/><line y2="-32202" y1="-31376" x2="-28054" x1="-28054" fill="none"/><line y2="-32202" y1="-31376" x2="-27915" x1="-27915" fill="none"/><line y2="-29804" y1="-29278" x2="-27077" x1="-27984" fill="none"/><line y2="-28452" y1="-29278" x2="-27915" x1="-27915" fill="none"/><line y2="-28452" y1="-29278" x2="-28054" x1="-28054" fill="none"/><line y2="-30021" y1="-30024" x2="-28961" x1="-28822" fill="none"/><line y2="-30238" y1="-30240" x2="-28943" x1="-28840" fill="none"/><line y2="-30455" y1="-30457" x2="-28924" x1="-28858" fill="none"/><line y2="-30672" y1="-30673" x2="-28906" x1="-28876" fill="none"/><text y="-29625" xml:space="preserve" x="-29044" stroke="none" font-size="433.3333" font-family="sans-serif">NH</text><text y="-30671" xml:space="preserve" x="-27230" stroke="none" font-size="433.3333" font-family="sans-serif">OH</text><text y="-32242" xml:space="preserve" x="-28137" stroke="none" font-size="433.3333" font-family="sans-serif">O</text><text y="-28054" xml:space="preserve" x="-28137" stroke="none" font-size="433.3333" font-family="sans-serif">O</text><text y="-31197" xml:space="preserve" x="-31766" stroke="none" font-size="433.3333" font-family="sans-serif">S</text><text y="-30619" xml:space="preserve" x="-32762" stroke="none" font-size="433.3333" font-family="sans-serif">CH</text><text y="-30529" xml:space="preserve" x="-32185" stroke="none" font-size="313.3333" font-family="sans-serif">3</text><text y="-30974" xml:space="preserve" x="-29044" stroke="none" font-style="italic" font-size="313.3333" font-family="sans-serif">R</text></g></g></svg>