<svg width="99.18" viewBox="0 0 3306 4797" text-rendering="auto" stroke-width="1" stroke-opacity="1" stroke-miterlimit="10" stroke-linejoin="miter" stroke-linecap="square" stroke-dashoffset="0" stroke-dasharray="none" stroke="black" shape-rendering="auto" image-rendering="auto" height="143.91" font-weight="normal" font-style="normal" font-size="12" font-family="'Dialog'" fill-opacity="1" fill="black" color-rendering="auto" color-interpolation="auto" xmlns="http://www.w3.org/2000/svg"><g><g stroke="white" fill="white"><rect y="0" x="0" width="3306" stroke="none" height="4797"/></g><g transform="translate(32866,32758)" text-rendering="geometricPrecision" stroke-width="44" stroke-linejoin="round" stroke-linecap="round"><line y2="-29128" y1="-29680" x2="-30370" x1="-31084" fill="none"/><line y2="-29686" y1="-29128" x2="-31460" x1="-32214" fill="none"/><line y2="-28065" y1="-29128" x2="-30740" x1="-30370" fill="none"/><line y2="-29128" y1="-28065" x2="-32214" x1="-31884" fill="none"/><line y2="-28065" y1="-28065" x2="-31884" x1="-30740" fill="none"/><line y2="-30654" y1="-30044" x2="-31272" x1="-31272" fill="none"/><line y2="-31332" y1="-31070" x2="-30474" x1="-30931" fill="none"/><line y2="-31318" y1="-31070" x2="-32040" x1="-31610" fill="none"/><line y2="-32202" y1="-31093" x2="-31272" x1="-31272" fill="none"/><text y="-30694" xml:space="preserve" x="-31503" stroke="none" font-size="433.3333" font-family="sans-serif">Si</text><text y="-31263" xml:space="preserve" x="-30440" stroke="none" font-size="433.3333" font-family="sans-serif">CH</text><text y="-31174" xml:space="preserve" x="-29862" stroke="none" font-size="313.3333" font-family="sans-serif">3</text><text y="-31468" xml:space="preserve" x="-32762" stroke="none" font-size="433.3333" font-family="sans-serif">CH</text><text y="-31379" xml:space="preserve" x="-32185" stroke="none" font-size="313.3333" font-family="sans-serif">3</text><text y="-32242" xml:space="preserve" x="-31422" stroke="none" font-size="433.3333" font-family="sans-serif">CH</text><text y="-32153" xml:space="preserve" x="-30844" stroke="none" font-size="313.3333" font-family="sans-serif">3</text><text y="-29645" xml:space="preserve" x="-31422" stroke="none" font-size="433.3333" font-family="sans-serif">N</text></g></g></svg>