<svg width="260.55" viewBox="0 0 8685 5643" text-rendering="auto" stroke-width="1" stroke-opacity="1" stroke-miterlimit="10" stroke-linejoin="miter" stroke-linecap="square" stroke-dashoffset="0" stroke-dasharray="none" stroke="black" shape-rendering="auto" image-rendering="auto" height="169.29" font-weight="normal" font-style="normal" font-size="12" font-family="'Dialog'" fill-opacity="1" fill="black" color-rendering="auto" color-interpolation="auto" xmlns="http://www.w3.org/2000/svg"><g><g stroke="white" fill="white"><rect y="0" x="0" width="8685" stroke="none" height="5643"/></g><g transform="translate(32866,32758)" text-rendering="geometricPrecision" stroke-width="44" stroke-linejoin="round" stroke-linecap="round"><line y2="-29146" y1="-30064" x2="-29735" x1="-29735" fill="none"/><line y2="-28576" y1="-29146" x2="-30717" x1="-29735" fill="none"/><line y2="-30391" y1="-30850" x2="-29923" x1="-30717" fill="none"/><line y2="-29146" y1="-28576" x2="-31705" x1="-30717" fill="none"/><line y2="-30850" y1="-30281" x2="-30717" x1="-31705" fill="none"/><line y2="-30281" y1="-29146" x2="-31705" x1="-31705" fill="none"/><line y2="-29146" y1="-28730" x2="-27921" x1="-28640" fill="none"/><line y2="-32202" y1="-31899" x2="-31246" x1="-30717" fill="none"/><line y2="-30359" y1="-29146" x2="-27921" x1="-27921" fill="none"/><line y2="-30209" y1="-29296" x2="-27750" x1="-27750" fill="none"/><line y2="-29146" y1="-28539" x2="-27921" x1="-26866" fill="none"/><line y2="-30859" y1="-30359" x2="-27054" x1="-27921" fill="none"/><line y2="-28539" y1="-29036" x2="-26866" x1="-26002" fill="none"/><line y2="-30359" y1="-30749" x2="-25815" x1="-26485" fill="none"/><line y2="-29365" y1="-30359" x2="-25815" x1="-25815" fill="none"/><line y2="-29489" y1="-30235" x2="-25985" x1="-25985" fill="none"/><line y2="-30610" y1="-30359" x2="-28354" x1="-27921" fill="none"/><line y2="-30775" y1="-30359" x2="-25095" x1="-25815" fill="none"/><line y2="-27710" y1="-28539" x2="-26797" x1="-26797" fill="none"/><line y2="-27710" y1="-28539" x2="-26936" x1="-26936" fill="none"/><polygon stroke-width="1" stroke="none" points=" -29735 -29146 -28981 -28790 -29047 -28669"/><polygon stroke-width="1" points=" -29735 -29146 -28981 -28790 -29047 -28669" fill="none"/><polygon stroke-width="1" stroke="none" points=" -30717 -30850 -30786 -31899 -30648 -31899"/><polygon stroke-width="1" points=" -30717 -30850 -30786 -31899 -30648 -31899" fill="none"/><polygon stroke-width="1" stroke="none" points=" -31705 -29146 -32196 -28782 -32266 -28900"/><polygon stroke-width="1" points=" -31705 -29146 -32196 -28782 -32266 -28900" fill="none"/><line y2="-27747" y1="-27747" x2="-30786" x1="-30648" fill="none"/><line y2="-27964" y1="-27964" x2="-30768" x1="-30666" fill="none"/><line y2="-28180" y1="-28180" x2="-30750" x1="-30684" fill="none"/><line y2="-28397" y1="-28397" x2="-30732" x1="-30702" fill="none"/><line y2="-30645" y1="-30526" x2="-32196" x1="-32266" fill="none"/><line y2="-30515" y1="-30439" x2="-32021" x1="-32066" fill="none"/><line y2="-30385" y1="-30351" x2="-31846" x1="-31866" fill="none"/><text y="-28441" xml:space="preserve" x="-28978" stroke="none" font-size="433.3333" font-family="sans-serif">O</text><text y="-30760" xml:space="preserve" x="-29076" stroke="none" font-size="433.3333" font-family="sans-serif">NH</text><text y="-30671" xml:space="preserve" x="-28498" stroke="none" font-size="313.3333" font-family="sans-serif">2</text><text y="-27311" xml:space="preserve" x="-27016" stroke="none" font-size="433.3333" font-family="sans-serif">O</text><text y="-27349" xml:space="preserve" x="-30870" stroke="none" font-size="433.3333" font-family="sans-serif">OH</text><text y="-30706" xml:space="preserve" x="-25061" stroke="none" font-size="433.3333" font-family="sans-serif">NH</text><text y="-30616" xml:space="preserve" x="-24483" stroke="none" font-size="313.3333" font-family="sans-serif">2</text><text y="-32242" xml:space="preserve" x="-31777" stroke="none" font-size="433.3333" font-family="sans-serif">OH</text><text y="-28441" xml:space="preserve" x="-32762" stroke="none" font-size="433.3333" font-family="sans-serif">OH</text><text y="-30628" xml:space="preserve" x="-32762" stroke="none" font-size="433.3333" font-family="sans-serif">OH</text><text y="-30789" xml:space="preserve" x="-27016" stroke="none" font-size="433.3333" font-family="sans-serif">NH</text><text y="-28966" xml:space="preserve" x="-25968" stroke="none" font-size="433.3333" font-family="sans-serif">N</text><text y="-30102" xml:space="preserve" x="-29885" stroke="none" font-size="433.3333" font-family="sans-serif">O</text><text y="-29108" xml:space="preserve" x="-30134" stroke="none" font-style="italic" font-size="313.3333" font-family="sans-serif">S</text><text y="-28701" xml:space="preserve" x="-30870" stroke="none" font-style="italic" font-size="313.3333" font-family="sans-serif">R</text><text y="-30370" xml:space="preserve" x="-30870" stroke="none" font-style="italic" font-size="313.3333" font-family="sans-serif">R</text><text y="-29108" xml:space="preserve" x="-31607" stroke="none" font-style="italic" font-size="313.3333" font-family="sans-serif">S</text><text y="-29960" xml:space="preserve" x="-31607" stroke="none" font-style="italic" font-size="313.3333" font-family="sans-serif">S</text></g></g></svg>