<svg width="332.22" viewBox="0 0 11074 3872" text-rendering="auto" stroke-width="1" stroke-opacity="1" stroke-miterlimit="10" stroke-linejoin="miter" stroke-linecap="square" stroke-dashoffset="0" stroke-dasharray="none" stroke="black" shape-rendering="auto" image-rendering="auto" height="116.16" font-weight="normal" font-style="normal" font-size="12" font-family="'Dialog'" fill-opacity="1" fill="black" color-rendering="auto" color-interpolation="auto" xmlns="http://www.w3.org/2000/svg"><g><g stroke="white" fill="white"><rect y="0" x="0" width="11074" stroke="none" height="3872"/></g><g transform="translate(32866,32758)" text-rendering="geometricPrecision" stroke-width="44" stroke-linejoin="round" stroke-linecap="round"><line y2="-30758" y1="-31896" x2="-25231" x1="-25231" fill="none"/><line y2="-31896" y1="-32465" x2="-25231" x1="-26216" fill="none"/><line y2="-31821" y1="-32248" x2="-25439" x1="-26179" fill="none"/><line y2="-32465" y1="-31896" x2="-24246" x1="-25231" fill="none"/><line y2="-30191" y1="-30758" x2="-26216" x1="-25231" fill="none"/><line y2="-30408" y1="-30836" x2="-26179" x1="-25439" fill="none"/><line y2="-30758" y1="-30758" x2="-25231" x1="-23449" fill="none"/><line y2="-32465" y1="-31896" x2="-26216" x1="-27201" fill="none"/><line y2="-31896" y1="-32465" x2="-23261" x1="-24246" fill="none"/><line y2="-31821" y1="-32248" x2="-23469" x1="-24206" fill="none"/><line y2="-30758" y1="-30191" x2="-27201" x1="-26216" fill="none"/><line y2="-30977" y1="-31896" x2="-23261" x1="-23261" fill="none"/><line y2="-31896" y1="-30758" x2="-27201" x1="-27201" fill="none"/><line y2="-31754" y1="-30902" x2="-27034" x1="-27034" fill="none"/><line y2="-32202" y1="-31896" x2="-27730" x1="-27201" fill="none"/><line y2="-31896" y1="-32312" x2="-29016" x1="-28299" fill="none"/><line y2="-30206" y1="-30570" x2="-22709" x1="-23073" fill="none"/><line y2="-31067" y1="-31896" x2="-29016" x1="-29016" fill="none"/><line y2="-30324" y1="-30740" x2="-29926" x1="-29206" fill="none"/><line y2="-32251" y1="-31835" x2="-29772" x1="-29053" fill="none"/><line y2="-32372" y1="-31956" x2="-29700" x1="-28981" fill="none"/><line y2="-29481" y1="-30324" x2="-30217" x1="-29926" fill="none"/><line y2="-30324" y1="-31020" x2="-29926" x1="-30824" fill="none"/><line y2="-30278" y1="-30798" x2="-30142" x1="-30815" fill="none"/><line y2="-29261" y1="-29261" x2="-31252" x1="-30480" fill="none"/><line y2="-31020" y1="-30324" x2="-30824" x1="-31766" fill="none"/><line y2="-30324" y1="-29481" x2="-31766" x1="-31506" fill="none"/><line y2="-30269" y1="-29637" x2="-31572" x1="-31376" fill="none"/><line y2="-30648" y1="-30324" x2="-32762" x1="-31766" fill="none"/><text y="-29839" xml:space="preserve" x="-22672" stroke="none" font-size="433.3333" font-family="sans-serif">CH</text><text y="-29749" xml:space="preserve" x="-22094" stroke="none" font-size="313.3333" font-family="sans-serif">3</text><text y="-32242" xml:space="preserve" x="-28262" stroke="none" font-size="433.3333" font-family="sans-serif">NH</text><text y="-30668" xml:space="preserve" x="-29169" stroke="none" font-size="433.3333" font-family="sans-serif">NH</text><text y="-32242" xml:space="preserve" x="-30076" stroke="none" font-size="433.3333" font-family="sans-serif">O</text><text y="-30578" xml:space="preserve" x="-23414" stroke="none" font-size="433.3333" font-family="sans-serif">N</text><text y="-29082" xml:space="preserve" x="-30446" stroke="none" font-size="433.3333" font-family="sans-serif">S</text><text y="-29082" xml:space="preserve" x="-31590" stroke="none" font-size="433.3333" font-family="sans-serif">N</text></g></g></svg>