<svg width="308.13" viewBox="0 0 10271 5768" text-rendering="auto" stroke-width="1" stroke-opacity="1" stroke-miterlimit="10" stroke-linejoin="miter" stroke-linecap="square" stroke-dashoffset="0" stroke-dasharray="none" stroke="black" shape-rendering="auto" image-rendering="auto" height="173.04" font-weight="normal" font-style="normal" font-size="12" font-family="'Dialog'" fill-opacity="1" fill="black" color-rendering="auto" color-interpolation="auto" xmlns="http://www.w3.org/2000/svg"><g><g stroke="white" fill="white"><rect y="0" x="0" width="10271" stroke="none" height="5768"/></g><g transform="translate(32866,32866)" text-rendering="geometricPrecision" stroke-width="44" stroke-linejoin="round" stroke-linecap="round"><line y2="-28522" y1="-29663" x2="-27782" x1="-27782" fill="none"/><line y2="-29663" y1="-29663" x2="-25820" x1="-27782" fill="none"/><line y2="-30807" y1="-29663" x2="-27782" x1="-27782" fill="none"/><line y2="-28522" y1="-28522" x2="-29741" x1="-27782" fill="none"/><line y2="-28522" y1="-28059" x2="-27782" x1="-26990" fill="none"/><line y2="-29091" y1="-28522" x2="-26803" x1="-27782" fill="none"/><line y2="-28522" y1="-29663" x2="-25820" x1="-25820" fill="none"/><line y2="-29663" y1="-30807" x2="-25820" x1="-25820" fill="none"/><line y2="-30235" y1="-29663" x2="-24841" x1="-25820" fill="none"/><line y2="-31379" y1="-30807" x2="-26803" x1="-27782" fill="none"/><line y2="-30235" y1="-29663" x2="-28761" x1="-29741" fill="none"/><line y2="-29663" y1="-28522" x2="-29741" x1="-29741" fill="none"/><line y2="-28522" y1="-28522" x2="-31702" x1="-29741" fill="none"/><line y2="-28059" y1="-28522" x2="-26615" x1="-25820" fill="none"/><line y2="-29524" y1="-29091" x2="-26817" x1="-26803" fill="none"/><line y2="-30056" y1="-29804" x2="-26834" x1="-26826" fill="none"/><line y2="-28522" y1="-28522" x2="-25820" x1="-24050" fill="none"/><line y2="-30807" y1="-31379" x2="-25820" x1="-26803" fill="none"/><line y2="-29663" y1="-30235" x2="-23862" x1="-24841" fill="none"/><line y2="-29663" y1="-30125" x2="-29741" x1="-30535" fill="none"/><line y2="-29663" y1="-28522" x2="-31702" x1="-31702" fill="none"/><line y2="-28738" y1="-29663" x2="-23862" x1="-23862" fill="none"/><line y2="-30125" y1="-29663" x2="-30911" x1="-31702" fill="none"/><line y2="-29163" y1="-29163" x2="-25962" x1="-26803" fill="none"/><line y2="-29024" y1="-29021" x2="-25962" x1="-26803" fill="none"/><line y2="-29169" y1="-29163" x2="-24000" x1="-25682" fill="none"/><line y2="-29027" y1="-29024" x2="-24000" x1="-25682" fill="none"/><line y2="-29169" y1="-29169" x2="-23073" x1="-23720" fill="none"/><line y2="-29030" y1="-29027" x2="-23073" x1="-23720" fill="none"/><line y2="-30139" y1="-29723" x2="-23177" x1="-23896" fill="none"/><line y2="-30018" y1="-29602" x2="-23108" x1="-23827" fill="none"/><line y2="-30018" y1="-29602" x2="-32456" x1="-31737" fill="none"/><line y2="-30139" y1="-29723" x2="-32387" x1="-31668" fill="none"/><line y2="-31223" y1="-30807" x2="-28501" x1="-27782" fill="none"/><line y2="-31714" y1="-31714" x2="-24249" x1="-25298" fill="none"/><line y2="-32762" y1="-31714" x2="-25298" x1="-25298" fill="none"/><line y2="-32240" y1="-31714" x2="-26205" x1="-25298" fill="none"/><polygon stroke-width="1" stroke="none" points=" -28796 -30174 -27782 -29663 -28727 -30295"/><polygon stroke-width="1" points=" -28796 -30174 -27782 -29663 -28727 -30295" fill="none"/><polygon stroke-width="1" stroke="none" points=" -25820 -30807 -25355 -31748 -25237 -31679"/><polygon stroke-width="1" points=" -25820 -30807 -25355 -31748 -25237 -31679" fill="none"/><polygon stroke-width="1" stroke="none" points=" -24841 -30235 -24910 -31064 -24772 -31064"/><polygon stroke-width="1" points=" -24841 -30235 -24910 -31064 -24772 -31064" fill="none"/><line y2="-30321" y1="-30443" x2="-27063" x1="-26996" fill="none"/><line y2="-30443" y1="-30534" x2="-27243" x1="-27193" fill="none"/><line y2="-30565" y1="-30626" x2="-27424" x1="-27390" fill="none"/><line y2="-30687" y1="-30717" x2="-27604" x1="-27587" fill="none"/><line y2="-27828" y1="-27730" x2="-32491" x1="-32393" fill="none"/><line y2="-27971" y1="-27894" x2="-32328" x1="-32250" fill="none"/><line y2="-28115" y1="-28057" x2="-32165" x1="-32107" fill="none"/><line y2="-28258" y1="-28221" x2="-32002" x1="-31965" fill="none"/><line y2="-28402" y1="-28385" x2="-31839" x1="-31822" fill="none"/><line y2="-27690" y1="-27692" x2="-29810" x1="-29674" fill="none"/><line y2="-27907" y1="-27908" x2="-29792" x1="-29691" fill="none"/><line y2="-28124" y1="-28125" x2="-29774" x1="-29709" fill="none"/><line y2="-28341" y1="-28341" x2="-29756" x1="-29726" fill="none"/><line y2="-27690" y1="-27692" x2="-25890" x1="-25751" fill="none"/><line y2="-27907" y1="-27908" x2="-25872" x1="-25769" fill="none"/><line y2="-28124" y1="-28125" x2="-25853" x1="-25787" fill="none"/><line y2="-28341" y1="-28341" x2="-25835" x1="-25805" fill="none"/><line y2="-30492" y1="-30492" x2="-29674" x1="-29810" fill="none"/><line y2="-30275" y1="-30275" x2="-29692" x1="-29792" fill="none"/><line y2="-30059" y1="-30059" x2="-29709" x1="-29774" fill="none"/><line y2="-29842" y1="-29842" x2="-29727" x1="-29756" fill="none"/><text y="-27294" xml:space="preserve" x="-29894" stroke="none" font-size="433.3333" font-family="sans-serif">OH</text><text y="-28920" xml:space="preserve" x="-23036" stroke="none" font-size="433.3333" font-family="sans-serif">O</text><text y="-31104" xml:space="preserve" x="-24991" stroke="none" font-size="433.3333" font-family="sans-serif">OH</text><text y="-30009" xml:space="preserve" x="-23105" stroke="none" font-size="433.3333" font-family="sans-serif">O</text><text y="-30009" xml:space="preserve" x="-32762" stroke="none" font-size="433.3333" font-family="sans-serif">O</text><text y="-27770" xml:space="preserve" x="-26953" stroke="none" font-size="433.3333" font-family="sans-serif">O</text><text y="-30096" xml:space="preserve" x="-26993" stroke="none" font-size="433.3333" font-family="sans-serif">O</text><text y="-28342" xml:space="preserve" x="-24012" stroke="none" font-size="433.3333" font-family="sans-serif">O</text><text y="-30056" xml:space="preserve" x="-30876" stroke="none" font-size="433.3333" font-family="sans-serif">O</text><text y="-31153" xml:space="preserve" x="-28842" stroke="none" font-size="433.3333" font-family="sans-serif">H</text><text y="-27294" xml:space="preserve" x="-25974" stroke="none" font-size="433.3333" font-family="sans-serif">H</text><text y="-30532" xml:space="preserve" x="-29894" stroke="none" font-size="433.3333" font-family="sans-serif">H</text><text y="-29209" xml:space="preserve" x="-27690" stroke="none" font-style="italic" font-size="313.3333" font-family="sans-serif">S</text><text y="-28065" xml:space="preserve" x="-28007" stroke="none" font-style="italic" font-size="313.3333" font-family="sans-serif">R</text><text y="-29342" xml:space="preserve" x="-25725" stroke="none" font-style="italic" font-size="313.3333" font-family="sans-serif">S</text><text y="-30483" xml:space="preserve" x="-28184" stroke="none" font-style="italic" font-size="313.3333" font-family="sans-serif">R</text><text y="-28617" xml:space="preserve" x="-30136" stroke="none" font-style="italic" font-size="313.3333" font-family="sans-serif">R</text><text y="-28484" xml:space="preserve" x="-26222" stroke="none" font-style="italic" font-size="313.3333" font-family="sans-serif">R</text><text y="-30483" xml:space="preserve" x="-26222" stroke="none" font-style="italic" font-size="313.3333" font-family="sans-serif">S</text><text y="-29752" xml:space="preserve" x="-24991" stroke="none" font-style="italic" font-size="313.3333" font-family="sans-serif">R</text><text y="-29342" xml:space="preserve" x="-29645" stroke="none" font-style="italic" font-size="313.3333" font-family="sans-serif">S</text><text y="-28617" xml:space="preserve" x="-31610" stroke="none" font-style="italic" font-size="313.3333" font-family="sans-serif">S</text></g></g></svg>