<svg width="225.54" viewBox="0 0 7518 7154" text-rendering="auto" stroke-width="1" stroke-opacity="1" stroke-miterlimit="10" stroke-linejoin="miter" stroke-linecap="square" stroke-dashoffset="0" stroke-dasharray="none" stroke="black" shape-rendering="auto" image-rendering="auto" height="214.62" font-weight="normal" font-style="normal" font-size="12" font-family="'Dialog'" fill-opacity="1" fill="black" color-rendering="auto" color-interpolation="auto" xmlns="http://www.w3.org/2000/svg"><g><g stroke="white" fill="white"><rect y="0" x="0" width="7518" stroke="none" height="7154"/></g><g transform="translate(32866,32758)" text-rendering="geometricPrecision" stroke-width="44" stroke-linejoin="round" stroke-linecap="round"><line y2="-30108" y1="-28296" x2="-29625" x1="-28620" fill="none"/><line y2="-28296" y1="-29943" x2="-28374" x1="-27453" fill="none"/><line y2="-28704" y1="-28293" x2="-29478" x1="-28836" fill="none"/><line y2="-28077" y1="-28077" x2="-30168" x1="-28836" fill="none"/><line y2="-30220" y1="-30261" x2="-28181" x1="-28770" fill="none"/><line y2="-29044" y1="-30108" x2="-29677" x1="-29735" fill="none"/><line y2="-30108" y1="-28406" x2="-29871" x1="-30818" fill="none"/><line y2="-27135" y1="-27877" x2="-26872" x1="-28158" fill="none"/><line y2="-29016" y1="-28348" x2="-26872" x1="-28025" fill="none"/><line y2="-26199" y1="-27857" x2="-28498" x1="-28498" fill="none"/><line y2="-31266" y1="-30524" x2="-31373" x1="-30087" fill="none"/><line y2="-29388" y1="-30131" x2="-31373" x1="-30087" fill="none"/><line y2="-32202" y1="-30547" x2="-29746" x1="-29746" fill="none"/><line y2="-30639" y1="-30330" x2="-26647" x1="-27178" fill="none"/><line y2="-30515" y1="-30209" x2="-26577" x1="-27109" fill="none"/><line y2="-28184" y1="-28562" x2="-30093" x1="-29790" fill="none"/><line y2="-28184" y1="-28649" x2="-30275" x1="-29897" fill="none"/><line y2="-27568" y1="-27967" x2="-30593" x1="-30269" fill="none"/><line y2="-27658" y1="-27967" x2="-30703" x1="-30448" fill="none"/><line y2="-27600" y1="-27906" x2="-31685" x1="-31153" fill="none"/><line y2="-27721" y1="-28028" x2="-31754" x1="-31223" fill="none"/><line y2="-27028" y1="-27028" x2="-25823" x1="-26496" fill="none"/><line y2="-27118" y1="-27118" x2="-25823" x1="-26496" fill="none"/><line y2="-26938" y1="-26938" x2="-25823" x1="-26496" fill="none"/><line y2="-29122" y1="-29122" x2="-25823" x1="-26496" fill="none"/><line y2="-29212" y1="-29212" x2="-25823" x1="-26496" fill="none"/><line y2="-29033" y1="-29033" x2="-25823" x1="-26496" fill="none"/><line y2="-25979" y1="-25979" x2="-27638" x1="-28311" fill="none"/><line y2="-26069" y1="-26069" x2="-27638" x1="-28311" fill="none"/><line y2="-25890" y1="-25890" x2="-27638" x1="-28311" fill="none"/><line y2="-31376" y1="-31376" x2="-32422" x1="-31751" fill="none"/><line y2="-31286" y1="-31286" x2="-32422" x1="-31751" fill="none"/><line y2="-31465" y1="-31465" x2="-32422" x1="-31751" fill="none"/><line y2="-29278" y1="-29278" x2="-32422" x1="-31751" fill="none"/><line y2="-29189" y1="-29189" x2="-32422" x1="-31751" fill="none"/><line y2="-29368" y1="-29368" x2="-32422" x1="-31751" fill="none"/><line y2="-32422" y1="-32422" x2="-30607" x1="-29937" fill="none"/><line y2="-32332" y1="-32332" x2="-30607" x1="-29937" fill="none"/><line y2="-32511" y1="-32511" x2="-30607" x1="-29937" fill="none"/><text y="-26849" xml:space="preserve" x="-26837" stroke="none" font-size="433.3333" font-family="sans-serif">C</text><text y="-26849" xml:space="preserve" x="-25789" stroke="none" font-size="433.3333" font-family="sans-serif">O</text><text y="-28943" xml:space="preserve" x="-26837" stroke="none" font-size="433.3333" font-family="sans-serif">C</text><text y="-28943" xml:space="preserve" x="-25789" stroke="none" font-size="433.3333" font-family="sans-serif">O</text><text y="-25800" xml:space="preserve" x="-28652" stroke="none" font-size="433.3333" font-family="sans-serif">C</text><text y="-25800" xml:space="preserve" x="-27603" stroke="none" font-size="433.3333" font-family="sans-serif">O</text><text y="-31197" xml:space="preserve" x="-31714" stroke="none" font-size="433.3333" font-family="sans-serif">C</text><text y="-31197" xml:space="preserve" x="-32762" stroke="none" font-size="433.3333" font-family="sans-serif">O</text><text y="-29099" xml:space="preserve" x="-31714" stroke="none" font-size="433.3333" font-family="sans-serif">C</text><text y="-29099" xml:space="preserve" x="-32762" stroke="none" font-size="433.3333" font-family="sans-serif">O</text><text y="-32242" xml:space="preserve" x="-29900" stroke="none" font-size="433.3333" font-family="sans-serif">C</text><text y="-32242" xml:space="preserve" x="-30948" stroke="none" font-size="433.3333" font-family="sans-serif">O</text><text y="-30506" xml:space="preserve" x="-26574" stroke="none" font-size="433.3333" font-family="sans-serif">O</text><text y="-27213" xml:space="preserve" x="-30977" stroke="none" font-size="433.3333" font-family="sans-serif">O</text><text y="-27372" xml:space="preserve" x="-32060" stroke="none" font-size="433.3333" font-family="sans-serif">O</text><text y="-27898" xml:space="preserve" x="-28802" stroke="none" font-size="433.3333" font-family="sans-serif">Fe</text><text y="-30148" xml:space="preserve" x="-30053" stroke="none" font-size="433.3333" font-family="sans-serif">Fe</text><text y="-29983" xml:space="preserve" x="-27482" stroke="none" font-size="433.3333" font-family="sans-serif">C</text><text y="-28646" xml:space="preserve" x="-29819" stroke="none" font-size="433.3333" font-family="sans-serif">C</text><text y="-27898" xml:space="preserve" x="-31153" stroke="none" font-size="433.3333" font-family="sans-serif">C</text><text y="-27952" xml:space="preserve" x="-28175" stroke="none" font-size="313.3333" font-family="sans-serif">3+</text><text y="-30229" xml:space="preserve" x="-29414" stroke="none" font-size="313.3333" font-family="sans-serif">3+</text><text y="-30148" xml:space="preserve" x="-28146" stroke="none" font-size="313.3333" font-family="sans-serif">2-</text><text y="-28701" xml:space="preserve" x="-30446" stroke="none" font-size="313.3333" font-family="sans-serif">2-</text><text y="-28007" xml:space="preserve" x="-30812" stroke="none" font-size="313.3333" font-family="sans-serif">2-</text></g></g></svg>