<svg width="242.91" viewBox="0 0 8097 7981" text-rendering="auto" stroke-width="1" stroke-opacity="1" stroke-miterlimit="10" stroke-linejoin="miter" stroke-linecap="square" stroke-dashoffset="0" stroke-dasharray="none" stroke="black" shape-rendering="auto" image-rendering="auto" height="239.43" font-weight="normal" font-style="normal" font-size="12" font-family="'Dialog'" fill-opacity="1" fill="black" color-rendering="auto" color-interpolation="auto" xmlns="http://www.w3.org/2000/svg"><g><g stroke="white" fill="white"><rect y="0" x="0" width="8097" stroke="none" height="7981"/></g><g transform="translate(32866,32866)" text-rendering="geometricPrecision" stroke-width="44" stroke-linejoin="round" stroke-linecap="round"><line y2="-27172" y1="-27724" x2="-30480" x1="-31191" fill="none"/><line y2="-27730" y1="-27172" x2="-31566" x1="-32320" fill="none"/><line y2="-26109" y1="-27172" x2="-30847" x1="-30480" fill="none"/><line y2="-27172" y1="-26109" x2="-32320" x1="-31994" fill="none"/><line y2="-26109" y1="-26109" x2="-31994" x1="-30847" fill="none"/><line y2="-28917" y1="-28088" x2="-31379" x1="-31379" fill="none"/><line y2="-29440" y1="-28917" x2="-30472" x1="-31379" fill="none"/><line y2="-29024" y1="-29440" x2="-29752" x1="-30472" fill="none"/><line y2="-29440" y1="-29024" x2="-28657" x1="-29377" fill="none"/><line y2="-28088" y1="-28698" x2="-29564" x1="-29564" fill="none"/><line y2="-31055" y1="-30489" x2="-31460" x1="-30472" fill="none"/><line y2="-31133" y1="-30706" x2="-31249" x1="-30509" fill="none"/><line y2="-30489" y1="-31055" x2="-30472" x1="-29489" fill="none"/><line y2="-32193" y1="-31055" x2="-31460" x1="-31460" fill="none"/><line y2="-31055" y1="-32193" x2="-29489" x1="-29489" fill="none"/><line y2="-31200" y1="-32052" x2="-29660" x1="-29660" fill="none"/><line y2="-32762" y1="-32193" x2="-30472" x1="-31460" fill="none"/><line y2="-32543" y1="-32118" x2="-30509" x1="-31249" fill="none"/><line y2="-32193" y1="-32762" x2="-29489" x1="-30472" fill="none"/><line y2="-28917" y1="-29440" x2="-27750" x1="-28657" fill="none"/><line y2="-30269" y1="-29440" x2="-28727" x1="-28727" fill="none"/><line y2="-30269" y1="-29440" x2="-28588" x1="-28588" fill="none"/><line y2="-29440" y1="-28917" x2="-26843" x1="-27750" fill="none"/><line y2="-27869" y1="-28917" x2="-27750" x1="-27750" fill="none"/><line y2="-30578" y1="-29440" x2="-26843" x1="-26843" fill="none"/><line y2="-30434" y1="-29582" x2="-26673" x1="-26673" fill="none"/><line y2="-29440" y1="-28871" x2="-26843" x1="-25855" fill="none"/><line y2="-31145" y1="-30578" x2="-25855" x1="-26843" fill="none"/><line y2="-28871" y1="-29440" x2="-25855" x1="-24873" fill="none"/><line y2="-29088" y1="-29515" x2="-25818" x1="-25081" fill="none"/><line y2="-30578" y1="-31145" x2="-24873" x1="-25855" fill="none"/><line y2="-30500" y1="-30928" x2="-25081" x1="-25818" fill="none"/><line y2="-29440" y1="-30578" x2="-24873" x1="-24873" fill="none"/><line y2="-27869" y1="-27300" x2="-27750" x1="-28738" fill="none"/><line y2="-27649" y1="-27222" x2="-27788" x1="-28527" fill="none"/><line y2="-27300" y1="-27869" x2="-26768" x1="-27750" fill="none"/><line y2="-27300" y1="-26161" x2="-28738" x1="-28738" fill="none"/><line y2="-26161" y1="-27300" x2="-26768" x1="-26768" fill="none"/><line y2="-26306" y1="-27158" x2="-26936" x1="-26936" fill="none"/><line y2="-26161" y1="-25592" x2="-28738" x1="-27750" fill="none"/><line y2="-26239" y1="-25812" x2="-28527" x1="-27788" fill="none"/><line y2="-25592" y1="-26161" x2="-27750" x1="-26768" fill="none"/><line y2="-25520" y1="-25439" x2="-32505" x1="-32393" fill="none"/><line y2="-25684" y1="-25626" x2="-32362" x1="-32282" fill="none"/><line y2="-25849" y1="-25813" x2="-32220" x1="-32170" fill="none"/><line y2="-26013" y1="-26000" x2="-32077" x1="-32059" fill="none"/><line y2="-30489" y1="-30486" x2="-30402" x1="-30541" fill="none"/><line y2="-30272" y1="-30270" x2="-30416" x1="-30527" fill="none"/><line y2="-30055" y1="-30053" x2="-30431" x1="-30512" fill="none"/><line y2="-29838" y1="-29837" x2="-30445" x1="-30498" fill="none"/><line y2="-29621" y1="-29621" x2="-30460" x1="-30484" fill="none"/><text y="-28738" xml:space="preserve" x="-29718" stroke="none" font-size="433.3333" font-family="sans-serif">N</text><text y="-30310" xml:space="preserve" x="-28810" stroke="none" font-size="433.3333" font-family="sans-serif">O</text><text y="-27690" xml:space="preserve" x="-29718" stroke="none" font-size="433.3333" font-family="sans-serif">CH</text><text y="-27600" xml:space="preserve" x="-29140" stroke="none" font-size="313.3333" font-family="sans-serif">3</text><text y="-25081" xml:space="preserve" x="-32762" stroke="none" font-size="433.3333" font-family="sans-serif">OH</text><text y="-27690" xml:space="preserve" x="-31532" stroke="none" font-size="433.3333" font-family="sans-serif">N</text><text y="-28958" xml:space="preserve" x="-30625" stroke="none" font-style="italic" font-size="313.3333" font-family="sans-serif">S</text><text y="-26216" xml:space="preserve" x="-31913" stroke="none" font-style="italic" font-size="313.3333" font-family="sans-serif">S</text></g></g></svg>