<svg width="257.94" viewBox="0 0 8598 3948" text-rendering="auto" stroke-width="1" stroke-opacity="1" stroke-miterlimit="10" stroke-linejoin="miter" stroke-linecap="square" stroke-dashoffset="0" stroke-dasharray="none" stroke="black" shape-rendering="auto" image-rendering="auto" height="118.44" font-weight="normal" font-style="normal" font-size="12" font-family="'Dialog'" fill-opacity="1" fill="black" color-rendering="auto" color-interpolation="auto" xmlns="http://www.w3.org/2000/svg"><g><g stroke="white" fill="white"><rect y="0" x="0" width="8598" stroke="none" height="3948"/></g><g transform="translate(32866,32758)" text-rendering="geometricPrecision" stroke-width="44" stroke-linejoin="round" stroke-linecap="round"><line y2="-30327" y1="-30743" x2="-29608" x1="-30327" fill="none"/><line y2="-30850" y1="-30327" x2="-28701" x1="-29608" fill="none"/><line y2="-30327" y1="-30850" x2="-27794" x1="-28701" fill="none"/><line y2="-30654" y1="-30327" x2="-27227" x1="-27794" fill="none"/><line y2="-30781" y1="-30781" x2="-31376" x1="-30703" fill="none"/><line y2="-30919" y1="-30919" x2="-31376" x1="-30703" fill="none"/><line y2="-30781" y1="-30781" x2="-32422" x1="-31751" fill="none"/><line y2="-30919" y1="-30919" x2="-32422" x1="-31751" fill="none"/><line y2="-30402" y1="-30662" x2="-26075" x1="-26546" fill="none"/><line y2="-29469" y1="-30079" x2="-25887" x1="-25887" fill="none"/><line y2="-31679" y1="-31070" x2="-26886" x1="-26886" fill="none"/><line y2="-32315" y1="-32008" x2="-26167" x1="-26699" fill="none"/><line y2="-31312" y1="-31049" x2="-26089" x1="-26546" fill="none"/><line y2="-31003" y1="-31312" x2="-25182" x1="-25714" fill="none"/><text y="-30671" xml:space="preserve" x="-27118" stroke="none" font-size="433.3333" font-family="sans-serif">Si</text><text y="-30119" xml:space="preserve" x="-26040" stroke="none" font-size="433.3333" font-family="sans-serif">O</text><text y="-31720" xml:space="preserve" x="-27040" stroke="none" font-size="433.3333" font-family="sans-serif">O</text><text y="-31240" xml:space="preserve" x="-26054" stroke="none" font-size="433.3333" font-family="sans-serif">O</text><text y="-29070" xml:space="preserve" x="-26040" stroke="none" font-size="433.3333" font-family="sans-serif">CH</text><text y="-28981" xml:space="preserve" x="-25462" stroke="none" font-size="313.3333" font-family="sans-serif">3</text><text y="-32242" xml:space="preserve" x="-26132" stroke="none" font-size="433.3333" font-family="sans-serif">CH</text><text y="-32153" xml:space="preserve" x="-25555" stroke="none" font-size="313.3333" font-family="sans-serif">3</text><text y="-30717" xml:space="preserve" x="-25147" stroke="none" font-size="433.3333" font-family="sans-serif">CH</text><text y="-30628" xml:space="preserve" x="-24570" stroke="none" font-size="313.3333" font-family="sans-serif">3</text><text y="-30671" xml:space="preserve" x="-30668" stroke="none" font-size="433.3333" font-family="sans-serif">N</text><text y="-30671" xml:space="preserve" x="-31717" stroke="none" font-size="433.3333" font-family="sans-serif">C</text><text y="-30671" xml:space="preserve" x="-32762" stroke="none" font-size="433.3333" font-family="sans-serif">O</text></g></g></svg>