<svg width="225.42" viewBox="0 0 7514 3109" text-rendering="auto" stroke-width="1" stroke-opacity="1" stroke-miterlimit="10" stroke-linejoin="miter" stroke-linecap="square" stroke-dashoffset="0" stroke-dasharray="none" stroke="black" shape-rendering="auto" image-rendering="auto" height="93.27" font-weight="normal" font-style="normal" font-size="12" font-family="'Dialog'" fill-opacity="1" fill="black" color-rendering="auto" color-interpolation="auto" xmlns="http://www.w3.org/2000/svg"><g><g stroke="white" fill="white"><rect y="0" x="0" width="7514" stroke="none" height="3109"/></g><g transform="translate(32866,32758)" text-rendering="geometricPrecision" stroke-width="44" stroke-linejoin="round" stroke-linecap="round"><line y2="-30841" y1="-31824" x2="-29547" x1="-29547" fill="none"/><line y2="-32315" y1="-31824" x2="-28692" x1="-29547" fill="none"/><line y2="-32104" y1="-31737" x2="-28712" x1="-29354" fill="none"/><line y2="-31824" y1="-32422" x2="-29547" x1="-30584" fill="none"/><line y2="-30622" y1="-30622" x2="-29356" x1="-27464" fill="none"/><line y2="-30131" y1="-30515" x2="-30396" x1="-29735" fill="none"/><line y2="-31824" y1="-32315" x2="-27464" x1="-28316" fill="none"/><line y2="-32422" y1="-31824" x2="-30584" x1="-31624" fill="none"/><line y2="-32199" y1="-31751" x2="-30628" x1="-31410" fill="none"/><line y2="-30622" y1="-31824" x2="-27464" x1="-27464" fill="none"/><line y2="-30772" y1="-31673" x2="-27635" x1="-27635" fill="none"/><line y2="-30622" y1="-30131" x2="-31624" x1="-30772" fill="none"/><line y2="-30708" y1="-30342" x2="-31434" x1="-30792" fill="none"/><line y2="-31824" y1="-30622" x2="-31624" x1="-31624" fill="none"/><line y2="-32346" y1="-31824" x2="-26557" x1="-27464" fill="none"/><line y2="-32020" y1="-32346" x2="-25991" x1="-26557" fill="none"/><line y2="-30295" y1="-30622" x2="-32190" x1="-31624" fill="none"/><text y="-31644" xml:space="preserve" x="-25881" stroke="none" font-size="433.3333" font-family="sans-serif">Cl</text><text y="-29920" xml:space="preserve" x="-32762" stroke="none" font-size="433.3333" font-family="sans-serif">Cl</text><text y="-30443" xml:space="preserve" x="-29697" stroke="none" font-size="433.3333" font-family="sans-serif">N</text><text y="-32242" xml:space="preserve" x="-28654" stroke="none" font-size="433.3333" font-family="sans-serif">N</text><text y="-29845" xml:space="preserve" x="-30737" stroke="none" font-size="433.3333" font-family="sans-serif">N</text></g></g></svg>