<svg width="164.79" viewBox="0 0 5493 3933" text-rendering="auto" stroke-width="1" stroke-opacity="1" stroke-miterlimit="10" stroke-linejoin="miter" stroke-linecap="square" stroke-dashoffset="0" stroke-dasharray="none" stroke="black" shape-rendering="auto" image-rendering="auto" height="117.99" font-weight="normal" font-style="normal" font-size="12" font-family="'Dialog'" fill-opacity="1" fill="black" color-rendering="auto" color-interpolation="auto" xmlns="http://www.w3.org/2000/svg"><g><g stroke="white" fill="white"><rect y="0" x="0" width="5493" stroke="none" height="3933"/></g><g transform="translate(32866,32758)" text-rendering="geometricPrecision" stroke-width="44" stroke-linejoin="round" stroke-linecap="round"><line y2="-29541" y1="-30763" x2="-30665" x1="-30665" fill="none"/><line y2="-30763" y1="-31376" x2="-30665" x1="-31714" fill="none"/><line y2="-30694" y1="-31150" x2="-30882" x1="-31668" fill="none"/><line y2="-31266" y1="-30763" x2="-29807" x1="-30665" fill="none"/><line y2="-29541" y1="-28929" x2="-30665" x1="-29616" fill="none"/><line y2="-28929" y1="-29541" x2="-31714" x1="-30665" fill="none"/><line y2="-29151" y1="-29611" x2="-31668" x1="-30882" fill="none"/><line y2="-31376" y1="-30763" x2="-31714" x1="-32762" fill="none"/><line y2="-30763" y1="-31156" x2="-28568" x1="-29241" fill="none"/><line y2="-28929" y1="-29541" x2="-29616" x1="-28568" fill="none"/><line y2="-29151" y1="-29611" x2="-29573" x1="-28784" fill="none"/><line y2="-29541" y1="-28929" x2="-32762" x1="-31714" fill="none"/><line y2="-30763" y1="-29541" x2="-32762" x1="-32762" fill="none"/><line y2="-30610" y1="-29694" x2="-32592" x1="-32592" fill="none"/><line y2="-29541" y1="-30763" x2="-28568" x1="-28568" fill="none"/><line y2="-32202" y1="-31376" x2="-31714" x1="-31714" fill="none"/><line y2="-31240" y1="-30824" x2="-27886" x1="-28602" fill="none"/><line y2="-31119" y1="-30703" x2="-27814" x1="-28533" fill="none"/><text y="-32242" xml:space="preserve" x="-31867" stroke="none" font-size="433.3333" font-family="sans-serif">OH</text><text y="-31110" xml:space="preserve" x="-27814" stroke="none" font-size="433.3333" font-family="sans-serif">O</text><text y="-31197" xml:space="preserve" x="-29770" stroke="none" font-size="433.3333" font-family="sans-serif">NH</text></g></g></svg>