<svg width="614.1" viewBox="0 0 20470 9022" text-rendering="auto" stroke-width="1" stroke-opacity="1" stroke-miterlimit="10" stroke-linejoin="miter" stroke-linecap="square" stroke-dashoffset="0" stroke-dasharray="none" stroke="black" shape-rendering="auto" image-rendering="auto" height="270.66" font-weight="normal" font-style="normal" font-size="12" font-family="'Dialog'" fill-opacity="1" fill="black" color-rendering="auto" color-interpolation="auto" xmlns="http://www.w3.org/2000/svg"><g><g stroke="white" fill="white"><rect y="0" x="0" width="20470" stroke="none" height="9022"/></g><g transform="translate(32866,32866)" text-rendering="geometricPrecision" stroke-width="44" stroke-linejoin="round" stroke-linecap="round"><line y2="-30015" y1="-28917" x2="-21990" x1="-22631" fill="none"/><line y2="-28917" y1="-30015" x2="-22631" x1="-23272" fill="none"/><line y2="-27820" y1="-28917" x2="-23272" x1="-22631" fill="none"/><line y2="-28917" y1="-27820" x2="-22631" x1="-21990" fill="none"/><line y2="-30015" y1="-30015" x2="-20898" x1="-21990" fill="none"/><line y2="-30015" y1="-30015" x2="-23272" x1="-24364" fill="none"/><line y2="-27820" y1="-27820" x2="-24364" x1="-23272" fill="none"/><line y2="-27820" y1="-27820" x2="-21990" x1="-20898" fill="none"/><line y2="-29137" y1="-29796" x2="-20196" x1="-20580" fill="none"/><line y2="-29796" y1="-29137" x2="-24682" x1="-25066" fill="none"/><line y2="-28698" y1="-28036" x2="-25066" x1="-24682" fill="none"/><line y2="-28036" y1="-28698" x2="-20580" x1="-20196" fill="none"/><line y2="-29330" y1="-29024" x2="-19349" x1="-19881" fill="none"/><line y2="-28917" y1="-29330" x2="-18254" x1="-18974" fill="none"/><line y2="-29330" y1="-29024" x2="-25913" x1="-25381" fill="none"/><line y2="-28917" y1="-29330" x2="-27008" x1="-26288" fill="none"/><line y2="-29484" y1="-28917" x2="-17272" x1="-18254" fill="none"/><line y2="-29267" y1="-28839" x2="-17310" x1="-18046" fill="none"/><line y2="-28917" y1="-27779" x2="-18254" x1="-18254" fill="none"/><line y2="-28917" y1="-29484" x2="-16284" x1="-17272" fill="none"/><line y2="-27779" y1="-27210" x2="-18254" x1="-17272" fill="none"/><line y2="-27854" y1="-27427" x2="-18046" x1="-17310" fill="none"/><line y2="-27779" y1="-28917" x2="-16284" x1="-16284" fill="none"/><line y2="-27921" y1="-28773" x2="-16455" x1="-16455" fill="none"/><line y2="-27210" y1="-27779" x2="-17272" x1="-16284" fill="none"/><line y2="-30532" y1="-29484" x2="-17272" x1="-17272" fill="none"/><line y2="-27256" y1="-27779" x2="-15377" x1="-16284" fill="none"/><line y2="-27779" y1="-28917" x2="-27008" x1="-27008" fill="none"/><line y2="-27921" y1="-28773" x2="-27178" x1="-27178" fill="none"/><line y2="-28917" y1="-29484" x2="-27008" x1="-27996" fill="none"/><line y2="-27210" y1="-27779" x2="-27996" x1="-27008" fill="none"/><line y2="-29484" y1="-28917" x2="-27996" x1="-28978" fill="none"/><line y2="-29267" y1="-28839" x2="-28033" x1="-28770" fill="none"/><line y2="-27779" y1="-27210" x2="-28978" x1="-27996" fill="none"/><line y2="-27854" y1="-27427" x2="-28770" x1="-28033" fill="none"/><line y2="-28917" y1="-27779" x2="-28978" x1="-28978" fill="none"/><line y2="-27271" y1="-27779" x2="-26092" x1="-27008" fill="none"/><line y2="-27256" y1="-27779" x2="-29885" x1="-28978" fill="none"/><line y2="-31055" y1="-30532" x2="-16365" x1="-17272" fill="none"/><line y2="-31439" y1="-30532" x2="-17795" x1="-17272" fill="none"/><line y2="-30532" y1="-30532" x2="-18318" x1="-17272" fill="none"/><line y2="-27779" y1="-27256" x2="-14470" x1="-15377" fill="none"/><line y2="-26346" y1="-27256" x2="-14854" x1="-15377" fill="none"/><line y2="-26346" y1="-27256" x2="-15900" x1="-15377" fill="none"/><line y2="-26225" y1="-27271" x2="-26092" x1="-26092" fill="none"/><line y2="-27271" y1="-27271" x2="-25043" x1="-26092" fill="none"/><line y2="-28181" y1="-27271" x2="-25569" x1="-26092" fill="none"/><line y2="-27779" y1="-27256" x2="-30792" x1="-29885" fill="none"/><line y2="-26346" y1="-27256" x2="-30408" x1="-29885" fill="none"/><line y2="-26346" y1="-27256" x2="-29362" x1="-29885" fill="none"/><line y2="-32193" y1="-31055" x2="-16365" x1="-16365" fill="none"/><line y2="-32052" y1="-31200" x2="-16195" x1="-16195" fill="none"/><line y2="-31055" y1="-30489" x2="-16365" x1="-15377" fill="none"/><line y2="-32762" y1="-32193" x2="-15377" x1="-16365" fill="none"/><line y2="-30489" y1="-31055" x2="-15377" x1="-14395" fill="none"/><line y2="-30706" y1="-31133" x2="-15340" x1="-14603" fill="none"/><line y2="-32193" y1="-32762" x2="-14395" x1="-15377" fill="none"/><line y2="-32118" y1="-32546" x2="-14603" x1="-15340" fill="none"/><line y2="-31055" y1="-32193" x2="-14395" x1="-14395" fill="none"/><line y2="-28917" y1="-27779" x2="-14470" x1="-14470" fill="none"/><line y2="-28773" y1="-27921" x2="-14300" x1="-14300" fill="none"/><line y2="-27779" y1="-27210" x2="-14470" x1="-13482" fill="none"/><line y2="-29484" y1="-28917" x2="-13482" x1="-14470" fill="none"/><line y2="-27210" y1="-27779" x2="-13482" x1="-12500" fill="none"/><line y2="-27427" y1="-27854" x2="-13444" x1="-12708" fill="none"/><line y2="-28917" y1="-29484" x2="-12500" x1="-13482" fill="none"/><line y2="-28839" y1="-29267" x2="-12708" x1="-13444" fill="none"/><line y2="-27779" y1="-28917" x2="-12500" x1="-12500" fill="none"/><line y2="-25656" y1="-26225" x2="-25107" x1="-26092" fill="none"/><line y2="-25578" y1="-26005" x2="-25315" x1="-26054" fill="none"/><line y2="-26225" y1="-25656" x2="-26092" x1="-27077" fill="none"/><line y2="-24518" y1="-25656" x2="-25107" x1="-25107" fill="none"/><line y2="-25656" y1="-24518" x2="-27077" x1="-27077" fill="none"/><line y2="-25511" y1="-24659" x2="-26907" x1="-26907" fill="none"/><line y2="-23948" y1="-24518" x2="-26092" x1="-25107" fill="none"/><line y2="-24168" y1="-24596" x2="-26054" x1="-25315" fill="none"/><line y2="-24518" y1="-23948" x2="-27077" x1="-26092" fill="none"/><line y2="-27779" y1="-28917" x2="-30792" x1="-30792" fill="none"/><line y2="-27921" y1="-28773" x2="-30963" x1="-30963" fill="none"/><line y2="-27210" y1="-27779" x2="-31774" x1="-30792" fill="none"/><line y2="-28917" y1="-29484" x2="-30792" x1="-31774" fill="none"/><line y2="-27779" y1="-27210" x2="-32762" x1="-31774" fill="none"/><line y2="-27857" y1="-27430" x2="-32554" x1="-31815" fill="none"/><line y2="-29484" y1="-28917" x2="-31774" x1="-32762" fill="none"/><line y2="-29267" y1="-28839" x2="-31815" x1="-32554" fill="none"/><line y2="-28917" y1="-27779" x2="-32762" x1="-32762" fill="none"/><text y="-29261" xml:space="preserve" x="-19315" stroke="none" font-size="433.3333" font-family="sans-serif">O</text><text y="-29261" xml:space="preserve" x="-26254" stroke="none" font-size="433.3333" font-family="sans-serif">O</text><text y="-29836" xml:space="preserve" x="-20860" stroke="none" font-size="433.3333" font-family="sans-serif">O</text><text y="-29836" xml:space="preserve" x="-24705" stroke="none" font-size="433.3333" font-family="sans-serif">O</text><text y="-27640" xml:space="preserve" x="-24705" stroke="none" font-size="433.3333" font-family="sans-serif">O</text><text y="-27640" xml:space="preserve" x="-20860" stroke="none" font-size="433.3333" font-family="sans-serif">O</text><text y="-28738" xml:space="preserve" x="-20222" stroke="none" font-size="433.3333" font-family="sans-serif">P</text><text y="-28738" xml:space="preserve" x="-25347" stroke="none" font-size="433.3333" font-family="sans-serif">P</text></g></g></svg>