<svg width="126.72" viewBox="0 0 4224 5605" text-rendering="auto" stroke-width="1" stroke-opacity="1" stroke-miterlimit="10" stroke-linejoin="miter" stroke-linecap="square" stroke-dashoffset="0" stroke-dasharray="none" stroke="black" shape-rendering="auto" image-rendering="auto" height="168.15" font-weight="normal" font-style="normal" font-size="12" font-family="'Dialog'" fill-opacity="1" fill="black" color-rendering="auto" color-interpolation="auto" xmlns="http://www.w3.org/2000/svg"><g><g stroke="white" fill="white"><rect y="0" x="0" width="4224" stroke="none" height="5605"/></g><g transform="translate(32866,32758)" text-rendering="geometricPrecision" stroke-width="44" stroke-linejoin="round" stroke-linecap="round"><line y2="-29099" y1="-29668" x2="-31624" x1="-30642" fill="none"/><line y2="-29668" y1="-30587" x2="-30642" x1="-30642" fill="none"/><line y2="-29784" y1="-30472" x2="-30812" x1="-30812" fill="none"/><line y2="-29668" y1="-29099" x2="-32612" x1="-31624" fill="none"/><line y2="-29746" y1="-29319" x2="-32401" x1="-31662" fill="none"/><line y2="-30914" y1="-31376" x2="-30830" x1="-31624" fill="none"/><line y2="-30587" y1="-29668" x2="-32612" x1="-32612" fill="none"/><line y2="-31376" y1="-30914" x2="-31624" x1="-32424" fill="none"/><line y2="-31171" y1="-30824" x2="-31639" x1="-32237" fill="none"/><line y2="-29146" y1="-29668" x2="-29735" x1="-30642" fill="none"/><line y2="-28054" y1="-29099" x2="-31624" x1="-31624" fill="none"/><line y2="-32202" y1="-31376" x2="-31624" x1="-31624" fill="none"/><line y2="-29562" y1="-29146" x2="-29016" x1="-29735" fill="none"/><line y2="-28458" y1="-29146" x2="-29336" x1="-29735" fill="none"/><line y2="-28458" y1="-29146" x2="-30131" x1="-29735" fill="none"/><line y2="-27724" y1="-28054" x2="-32190" x1="-31624" fill="none"/><line y2="-27698" y1="-28114" x2="-30870" x1="-31590" fill="none"/><line y2="-27577" y1="-27990" x2="-30940" x1="-31659" fill="none"/><text y="-29489" xml:space="preserve" x="-28978" stroke="none" font-size="433.3333" font-family="sans-serif">F</text><text y="-28059" xml:space="preserve" x="-29362" stroke="none" font-size="433.3333" font-family="sans-serif">F</text><text y="-28059" xml:space="preserve" x="-30411" stroke="none" font-size="433.3333" font-family="sans-serif">F</text><text y="-27349" xml:space="preserve" x="-32762" stroke="none" font-size="433.3333" font-family="sans-serif">Cl</text><text y="-27349" xml:space="preserve" x="-30870" stroke="none" font-size="433.3333" font-family="sans-serif">O</text><text y="-32242" xml:space="preserve" x="-31855" stroke="none" font-size="433.3333" font-family="sans-serif">Cl</text><text y="-30628" xml:space="preserve" x="-30792" stroke="none" font-size="433.3333" font-family="sans-serif">N</text><text y="-30628" xml:space="preserve" x="-32762" stroke="none" font-size="433.3333" font-family="sans-serif">N</text></g></g></svg>