<svg width="408.48" viewBox="0 0 13616 5767" text-rendering="auto" stroke-width="1" stroke-opacity="1" stroke-miterlimit="10" stroke-linejoin="miter" stroke-linecap="square" stroke-dashoffset="0" stroke-dasharray="none" stroke="black" shape-rendering="auto" image-rendering="auto" height="173.01" font-weight="normal" font-style="normal" font-size="12" font-family="'Dialog'" fill-opacity="1" fill="black" color-rendering="auto" color-interpolation="auto" xmlns="http://www.w3.org/2000/svg"><g><g stroke="white" fill="white"><rect y="0" x="0" width="13616" stroke="none" height="5767"/></g><g transform="translate(32866,32758)" text-rendering="geometricPrecision" stroke-width="44" stroke-linejoin="round" stroke-linecap="round"><line y2="-30599" y1="-31815" x2="-29498" x1="-29498" fill="none"/><line y2="-30752" y1="-31662" x2="-29668" x1="-29668" fill="none"/><line y2="-30599" y1="-30599" x2="-29498" x1="-27389" fill="none"/><line y2="-29989" y1="-30599" x2="-30550" x1="-29498" fill="none"/><line y2="-32315" y1="-31815" x2="-28628" x1="-29498" fill="none"/><line y2="-31815" y1="-32202" x2="-29498" x1="-30168" fill="none"/><line y2="-30599" y1="-31815" x2="-27389" x1="-27389" fill="none"/><line y2="-30752" y1="-31662" x2="-27560" x1="-27560" fill="none"/><line y2="-30489" y1="-29989" x2="-31416" x1="-30550" fill="none"/><line y2="-31815" y1="-32202" x2="-27389" x1="-28062" fill="none"/><line y2="-32315" y1="-31815" x2="-30737" x1="-31604" fill="none"/><line y2="-31815" y1="-30818" x2="-31604" x1="-31604" fill="none"/><line y2="-31691" y1="-30942" x2="-31434" x1="-31434" fill="none"/><line y2="-30076" y1="-30599" x2="-26482" x1="-27389" fill="none"/><line y2="-30599" y1="-30076" x2="-25575" x1="-26482" fill="none"/><line y2="-30076" y1="-30599" x2="-24668" x1="-25575" fill="none"/><line y2="-32066" y1="-31815" x2="-32037" x1="-31604" fill="none"/><line y2="-29163" y1="-29989" x2="-30477" x1="-30477" fill="none"/><line y2="-29163" y1="-29989" x2="-30619" x1="-30619" fill="none"/><line y2="-30076" y1="-28938" x2="-24668" x1="-24668" fill="none"/><line y2="-29931" y1="-29079" x2="-24497" x1="-24497" fill="none"/><line y2="-30642" y1="-30076" x2="-23680" x1="-24668" fill="none"/><line y2="-28938" y1="-28368" x2="-24668" x1="-23680" fill="none"/><line y2="-30076" y1="-30642" x2="-22698" x1="-23680" fill="none"/><line y2="-29998" y1="-30425" x2="-22906" x1="-23642" fill="none"/><line y2="-28368" y1="-28938" x2="-23680" x1="-22698" fill="none"/><line y2="-28585" y1="-29013" x2="-23642" x1="-22906" fill="none"/><line y2="-28938" y1="-30076" x2="-22698" x1="-22698" fill="none"/><line y2="-28412" y1="-28938" x2="-21790" x1="-22698" fill="none"/><line y2="-28828" y1="-28412" x2="-21071" x1="-21790" fill="none"/><line y2="-28522" y1="-28828" x2="-20164" x1="-20696" fill="none"/><line y2="-27586" y1="-28412" x2="-21721" x1="-21721" fill="none"/><line y2="-27586" y1="-28412" x2="-21860" x1="-21860" fill="none"/><text y="-28764" xml:space="preserve" x="-30700" stroke="none" font-size="433.3333" font-family="sans-serif">O</text><text y="-32216" xml:space="preserve" x="-32762" stroke="none" font-size="433.3333" font-family="sans-serif">NH</text><text y="-32127" xml:space="preserve" x="-32185" stroke="none" font-size="313.3333" font-family="sans-serif">2</text><text y="-28758" xml:space="preserve" x="-21036" stroke="none" font-size="433.3333" font-family="sans-serif">O</text><text y="-27187" xml:space="preserve" x="-21944" stroke="none" font-size="433.3333" font-family="sans-serif">O</text><text y="-28233" xml:space="preserve" x="-20129" stroke="none" font-size="433.3333" font-family="sans-serif">CH</text><text y="-28143" xml:space="preserve" x="-19552" stroke="none" font-size="313.3333" font-family="sans-serif">3</text><text y="-32242" xml:space="preserve" x="-28594" stroke="none" font-size="433.3333" font-family="sans-serif">NH</text><text y="-32242" xml:space="preserve" x="-30700" stroke="none" font-size="433.3333" font-family="sans-serif">NH</text><text y="-30420" xml:space="preserve" x="-31757" stroke="none" font-size="433.3333" font-family="sans-serif">N</text></g></g></svg>