<svg width="177.33" viewBox="0 0 5911 2766" text-rendering="auto" stroke-width="1" stroke-opacity="1" stroke-miterlimit="10" stroke-linejoin="miter" stroke-linecap="square" stroke-dashoffset="0" stroke-dasharray="none" stroke="black" shape-rendering="auto" image-rendering="auto" height="82.98" font-weight="normal" font-style="normal" font-size="12" font-family="'Dialog'" fill-opacity="1" fill="black" color-rendering="auto" color-interpolation="auto" xmlns="http://www.w3.org/2000/svg"><g><g stroke="white" fill="white"><rect y="0" x="0" width="5911" stroke="none" height="2766"/></g><g transform="translate(32866,32758)" text-rendering="geometricPrecision" stroke-width="44" stroke-linejoin="round" stroke-linecap="round"><line y2="-31896" y1="-30697" x2="-29625" x1="-29625" fill="none"/><line y2="-30096" y1="-30697" x2="-30662" x1="-29625" fill="none"/><line y2="-30318" y1="-30769" x2="-30619" x1="-29839" fill="none"/><line y2="-30697" y1="-30697" x2="-29625" x1="-27733" fill="none"/><line y2="-31896" y1="-32497" x2="-29625" x1="-30662" fill="none"/><line y2="-31826" y1="-32274" x2="-29839" x1="-30619" fill="none"/><line y2="-32497" y1="-31896" x2="-28582" x1="-29625" fill="none"/><line y2="-30697" y1="-30096" x2="-31702" x1="-30662" fill="none"/><line y2="-30916" y1="-31676" x2="-27545" x1="-27545" fill="none"/><line y2="-32497" y1="-31896" x2="-30662" x1="-31702" fill="none"/><line y2="-32006" y1="-32497" x2="-27733" x1="-28582" fill="none"/><line y2="-31922" y1="-32289" x2="-27924" x1="-28562" fill="none"/><line y2="-31896" y1="-30697" x2="-31702" x1="-31702" fill="none"/><line y2="-31746" y1="-30847" x2="-31532" x1="-31532" fill="none"/><line y2="-32202" y1="-31896" x2="-32231" x1="-31702" fill="none"/><text y="-32242" xml:space="preserve" x="-32762" stroke="none" font-size="433.3333" font-family="sans-serif">OH</text><text y="-30518" xml:space="preserve" x="-27698" stroke="none" font-size="433.3333" font-family="sans-serif">NH</text><text y="-31717" xml:space="preserve" x="-27698" stroke="none" font-size="433.3333" font-family="sans-serif">N</text></g></g></svg>