<svg width="237.96" viewBox="0 0 7932 4051" text-rendering="auto" stroke-width="1" stroke-opacity="1" stroke-miterlimit="10" stroke-linejoin="miter" stroke-linecap="square" stroke-dashoffset="0" stroke-dasharray="none" stroke="black" shape-rendering="auto" image-rendering="auto" height="121.53" font-weight="normal" font-style="normal" font-size="12" font-family="'Dialog'" fill-opacity="1" fill="black" color-rendering="auto" color-interpolation="auto" xmlns="http://www.w3.org/2000/svg"><g><g stroke="white" fill="white"><rect y="0" x="0" width="7932" stroke="none" height="4051"/></g><g transform="translate(32866,32758)" text-rendering="geometricPrecision" stroke-width="44" stroke-linejoin="round" stroke-linecap="round"><line y2="-31850" y1="-30703" x2="-27170" x1="-27170" fill="none"/><line y2="-31705" y1="-30847" x2="-26999" x1="-26999" fill="none"/><line y2="-30131" y1="-30703" x2="-28152" x1="-27170" fill="none"/><line y2="-30703" y1="-30131" x2="-27170" x1="-26187" fill="none"/><line y2="-31850" y1="-32422" x2="-27170" x1="-28152" fill="none"/><line y2="-32312" y1="-31850" x2="-26375" x1="-27170" fill="none"/><line y2="-30703" y1="-30131" x2="-29134" x1="-28152" fill="none"/><line y2="-30778" y1="-30347" x2="-28926" x1="-28189" fill="none"/><line y2="-30131" y1="-30593" x2="-26187" x1="-25393" fill="none"/><line y2="-30336" y1="-30682" x2="-26173" x1="-25578" fill="none"/><line y2="-32422" y1="-31850" x2="-28152" x1="-29134" fill="none"/><line y2="-32205" y1="-31774" x2="-28189" x1="-28926" fill="none"/><line y2="-31850" y1="-32312" x2="-25205" x1="-26000" fill="none"/><line y2="-31760" y1="-32107" x2="-25390" x1="-25985" fill="none"/><line y2="-31850" y1="-30703" x2="-29134" x1="-29134" fill="none"/><line y2="-30922" y1="-31850" x2="-25205" x1="-25205" fill="none"/><line y2="-30180" y1="-30703" x2="-30041" x1="-29134" fill="none"/><line y2="-29302" y1="-30131" x2="-26187" x1="-26187" fill="none"/><line y2="-30596" y1="-30180" x2="-30760" x1="-30041" fill="none"/><line y2="-30180" y1="-30596" x2="-31855" x1="-31136" fill="none"/><line y2="-30703" y1="-30180" x2="-32762" x1="-31855" fill="none"/><line y2="-29351" y1="-30180" x2="-29972" x1="-29972" fill="none"/><line y2="-29351" y1="-30180" x2="-30110" x1="-30110" fill="none"/><text y="-28903" xml:space="preserve" x="-26418" stroke="none" font-size="433.3333" font-family="sans-serif">Cl</text><text y="-30524" xml:space="preserve" x="-31101" stroke="none" font-size="433.3333" font-family="sans-serif">O</text><text y="-28952" xml:space="preserve" x="-30194" stroke="none" font-size="433.3333" font-family="sans-serif">O</text><text y="-32242" xml:space="preserve" x="-26340" stroke="none" font-size="433.3333" font-family="sans-serif">N</text><text y="-30524" xml:space="preserve" x="-25358" stroke="none" font-size="433.3333" font-family="sans-serif">N</text></g></g></svg>