<svg width="176.43" viewBox="0 0 5881 4900" text-rendering="auto" stroke-width="1" stroke-opacity="1" stroke-miterlimit="10" stroke-linejoin="miter" stroke-linecap="square" stroke-dashoffset="0" stroke-dasharray="none" stroke="black" shape-rendering="auto" image-rendering="auto" height="147.0" font-weight="normal" font-style="normal" font-size="12" font-family="'Dialog'" fill-opacity="1" fill="black" color-rendering="auto" color-interpolation="auto" xmlns="http://www.w3.org/2000/svg"><g><g stroke="white" fill="white"><rect y="0" x="0" width="5881" stroke="none" height="4900"/></g><g transform="translate(32866,32758)" text-rendering="geometricPrecision" stroke-width="44" stroke-linejoin="round" stroke-linecap="round"><line y2="-28143" y1="-29278" x2="-31624" x1="-31624" fill="none"/><line y2="-29278" y1="-29278" x2="-31624" x1="-32762" fill="none"/><line y2="-28143" y1="-28143" x2="-32762" x1="-31624" fill="none"/><line y2="-29278" y1="-28143" x2="-32762" x1="-32762" fill="none"/><line y2="-29804" y1="-29278" x2="-30717" x1="-31624" fill="none"/><line y2="-29278" y1="-29804" x2="-29810" x1="-30717" fill="none"/><line y2="-31376" y1="-31070" x2="-29810" x1="-30339" fill="none"/><line y2="-29694" y1="-29278" x2="-29091" x1="-29810" fill="none"/><line y2="-28452" y1="-29278" x2="-29741" x1="-29741" fill="none"/><line y2="-28452" y1="-29278" x2="-29879" x1="-29879" fill="none"/><line y2="-30960" y1="-31376" x2="-29091" x1="-29810" fill="none"/><line y2="-31376" y1="-30960" x2="-27996" x1="-28715" fill="none"/><line y2="-32202" y1="-31376" x2="-29879" x1="-29879" fill="none"/><line y2="-32202" y1="-31376" x2="-29741" x1="-29741" fill="none"/><line y2="-30850" y1="-31376" x2="-27089" x1="-27996" fill="none"/><line y2="-32283" y1="-31376" x2="-27473" x1="-27996" fill="none"/><line y2="-32283" y1="-31376" x2="-28519" x1="-27996" fill="none"/><line y2="-30630" y1="-30630" x2="-30648" x1="-30786" fill="none"/><line y2="-30413" y1="-30413" x2="-30666" x1="-30768" fill="none"/><line y2="-30197" y1="-30197" x2="-30684" x1="-30750" fill="none"/><line y2="-29980" y1="-29980" x2="-30702" x1="-30732" fill="none"/><text y="-30671" xml:space="preserve" x="-30870" stroke="none" font-size="433.3333" font-family="sans-serif">NH</text><text y="-29625" xml:space="preserve" x="-29056" stroke="none" font-size="433.3333" font-family="sans-serif">OH</text><text y="-28054" xml:space="preserve" x="-29963" stroke="none" font-size="433.3333" font-family="sans-serif">O</text><text y="-30671" xml:space="preserve" x="-29056" stroke="none" font-size="433.3333" font-family="sans-serif">O</text><text y="-32242" xml:space="preserve" x="-29963" stroke="none" font-size="433.3333" font-family="sans-serif">O</text><text y="-29322" xml:space="preserve" x="-30870" stroke="none" font-style="italic" font-size="313.3333" font-family="sans-serif">S</text></g></g></svg>