<svg width="334.59" viewBox="0 0 11153 6651" text-rendering="auto" stroke-width="1" stroke-opacity="1" stroke-miterlimit="10" stroke-linejoin="miter" stroke-linecap="square" stroke-dashoffset="0" stroke-dasharray="none" stroke="black" shape-rendering="auto" image-rendering="auto" height="199.53" font-weight="normal" font-style="normal" font-size="12" font-family="'Dialog'" fill-opacity="1" fill="black" color-rendering="auto" color-interpolation="auto" xmlns="http://www.w3.org/2000/svg"><g><g stroke="white" fill="white"><rect y="0" x="0" width="11153" stroke="none" height="6651"/></g><g transform="translate(32866,32758)" text-rendering="geometricPrecision" stroke-width="44" stroke-linejoin="round" stroke-linecap="round"><line y2="-30850" y1="-29715" x2="-30798" x1="-30798" fill="none"/><line y2="-31419" y1="-30850" x2="-29810" x1="-30798" fill="none"/><line y2="-31202" y1="-30775" x2="-29848" x1="-30587" fill="none"/><line y2="-29715" y1="-29146" x2="-30798" x1="-29810" fill="none"/><line y2="-29790" y1="-29362" x2="-30587" x1="-29848" fill="none"/><line y2="-30960" y1="-31419" x2="-29016" x1="-29810" fill="none"/><line y2="-29146" y1="-29715" x2="-29810" x1="-28828" fill="none"/><line y2="-29715" y1="-30630" x2="-28828" x1="-28828" fill="none"/><line y2="-29827" y1="-30518" x2="-28998" x1="-28998" fill="none"/><line y2="-29299" y1="-29715" x2="-28108" x1="-28828" fill="none"/><line y2="-29605" y1="-29299" x2="-27201" x1="-27730" fill="none"/><line y2="-29189" y1="-29605" x2="-26106" x1="-26823" fill="none"/><line y2="-31376" y1="-30850" x2="-31705" x1="-30798" fill="none"/><line y2="-29758" y1="-29189" x2="-25121" x1="-26106" fill="none"/><line y2="-29541" y1="-29114" x2="-25159" x1="-25898" fill="none"/><line y2="-29189" y1="-28273" x2="-26106" x1="-26106" fill="none"/><line y2="-29189" y1="-29758" x2="-24136" x1="-25121" fill="none"/><line y2="-27944" y1="-27484" x2="-25916" x1="-25121" fill="none"/><line y2="-28033" y1="-27687" x2="-25734" x1="-25136" fill="none"/><line y2="-28054" y1="-29189" x2="-24136" x1="-24136" fill="none"/><line y2="-28195" y1="-29047" x2="-24304" x1="-24304" fill="none"/><line y2="-27484" y1="-28054" x2="-25121" x1="-24136" fill="none"/><line y2="-27528" y1="-28054" x2="-23229" x1="-24136" fill="none"/><line y2="-31070" y1="-31376" x2="-32231" x1="-31705" fill="none"/><line y2="-32202" y1="-31376" x2="-31774" x1="-31774" fill="none"/><line y2="-32202" y1="-31376" x2="-31633" x1="-31633" fill="none"/><line y2="-27944" y1="-27528" x2="-22510" x1="-23229" fill="none"/><line y2="-26699" y1="-27528" x2="-23157" x1="-23157" fill="none"/><line y2="-26699" y1="-27528" x2="-23298" x1="-23298" fill="none"/><text y="-30671" xml:space="preserve" x="-32762" stroke="none" font-size="433.3333" font-family="sans-serif">OH</text><text y="-32242" xml:space="preserve" x="-31855" stroke="none" font-size="433.3333" font-family="sans-serif">O</text><text y="-29010" xml:space="preserve" x="-28071" stroke="none" font-size="433.3333" font-family="sans-serif">S</text><text y="-29536" xml:space="preserve" x="-27164" stroke="none" font-size="433.3333" font-family="sans-serif">S</text><text y="-27874" xml:space="preserve" x="-22472" stroke="none" font-size="433.3333" font-family="sans-serif">OH</text><text y="-26303" xml:space="preserve" x="-23379" stroke="none" font-size="433.3333" font-family="sans-serif">O</text><text y="-30671" xml:space="preserve" x="-28978" stroke="none" font-size="433.3333" font-family="sans-serif">N</text><text y="-27874" xml:space="preserve" x="-26257" stroke="none" font-size="433.3333" font-family="sans-serif">N</text></g></g></svg>