<svg width="316.74" viewBox="0 0 10558 5260" text-rendering="auto" stroke-width="1" stroke-opacity="1" stroke-miterlimit="10" stroke-linejoin="miter" stroke-linecap="square" stroke-dashoffset="0" stroke-dasharray="none" stroke="black" shape-rendering="auto" image-rendering="auto" height="157.8" font-weight="normal" font-style="normal" font-size="12" font-family="'Dialog'" fill-opacity="1" fill="black" color-rendering="auto" color-interpolation="auto" xmlns="http://www.w3.org/2000/svg"><g><g stroke="white" fill="white"><rect y="0" x="0" width="10558" stroke="none" height="5260"/></g><g transform="translate(32866,32866)" text-rendering="geometricPrecision" stroke-width="44" stroke-linejoin="round" stroke-linecap="round"><line y2="-30232" y1="-30232" x2="-25792" x1="-27765" fill="none"/><line y2="-30232" y1="-30232" x2="-29735" x1="-27765" fill="none"/><line y2="-30232" y1="-31367" x2="-27765" x1="-27765" fill="none"/><line y2="-30232" y1="-29094" x2="-27765" x1="-27765" fill="none"/><line y2="-29094" y1="-30232" x2="-25792" x1="-25792" fill="none"/><line y2="-30798" y1="-30232" x2="-24809" x1="-25792" fill="none"/><line y2="-30581" y1="-30154" x2="-24847" x1="-25586" fill="none"/><line y2="-31367" y1="-30232" x2="-29735" x1="-29735" fill="none"/><line y2="-29663" y1="-30232" x2="-30717" x1="-29735" fill="none"/><line y2="-29879" y1="-30307" x2="-30680" x1="-29943" fill="none"/><line y2="-31367" y1="-31936" x2="-27765" x1="-28747" fill="none"/><line y2="-29094" y1="-28524" x2="-27765" x1="-26777" fill="none"/><line y2="-28524" y1="-29094" x2="-26777" x1="-25792" fill="none"/><line y2="-29094" y1="-28524" x2="-25792" x1="-24809" fill="none"/><line y2="-29169" y1="-28741" x2="-25586" x1="-24847" fill="none"/><line y2="-30232" y1="-30798" x2="-23821" x1="-24809" fill="none"/><line y2="-31936" y1="-31367" x2="-28747" x1="-29735" fill="none"/><line y2="-31367" y1="-31936" x2="-29735" x1="-30717" fill="none"/><line y2="-31292" y1="-31720" x2="-29943" x1="-30680" fill="none"/><line y2="-30232" y1="-29663" x2="-31705" x1="-30717" fill="none"/><line y2="-28524" y1="-29094" x2="-24809" x1="-23821" fill="none"/><line y2="-29094" y1="-30232" x2="-23821" x1="-23821" fill="none"/><line y2="-29235" y1="-30087" x2="-23992" x1="-23992" fill="none"/><line y2="-31936" y1="-31367" x2="-30717" x1="-31705" fill="none"/><line y2="-31367" y1="-30232" x2="-31705" x1="-31705" fill="none"/><line y2="-31226" y1="-30373" x2="-31535" x1="-31535" fill="none"/><line y2="-32762" y1="-31936" x2="-29391" x1="-28747" fill="none"/><line y2="-32728" y1="-31936" x2="-28059" x1="-28747" fill="none"/><line y2="-27710" y1="-28524" x2="-26118" x1="-26777" fill="none"/><line y2="-27721" y1="-28524" x2="-27450" x1="-26777" fill="none"/><line y2="-30645" y1="-30232" x2="-23102" x1="-23821" fill="none"/><line y2="-29926" y1="-30232" x2="-32231" x1="-31705" fill="none"/><text y="-30576" xml:space="preserve" x="-23067" stroke="none" font-size="433.3333" font-family="sans-serif">OH</text><text y="-29527" xml:space="preserve" x="-32762" stroke="none" font-size="433.3333" font-family="sans-serif">OH</text></g></g></svg>