<svg width="283.05" viewBox="0 0 9435 2481" text-rendering="auto" stroke-width="1" stroke-opacity="1" stroke-miterlimit="10" stroke-linejoin="miter" stroke-linecap="square" stroke-dashoffset="0" stroke-dasharray="none" stroke="black" shape-rendering="auto" image-rendering="auto" height="74.43" font-weight="normal" font-style="normal" font-size="12" font-family="'Dialog'" fill-opacity="1" fill="black" color-rendering="auto" color-interpolation="auto" xmlns="http://www.w3.org/2000/svg"><g><g stroke="white" fill="white"><rect y="0" x="0" width="9435" stroke="none" height="2481"/></g><g transform="translate(32866,32866)" text-rendering="geometricPrecision" stroke-width="44" stroke-linejoin="round" stroke-linecap="round"><line y2="-32193" y1="-32762" x2="-27164" x1="-28146" fill="none"/><line y2="-32118" y1="-32546" x2="-27372" x1="-28108" fill="none"/><line y2="-31055" y1="-32193" x2="-27164" x1="-27164" fill="none"/><line y2="-32762" y1="-32193" x2="-28146" x1="-29134" fill="none"/><line y2="-30489" y1="-31055" x2="-28146" x1="-27164" fill="none"/><line y2="-30706" y1="-31133" x2="-28108" x1="-27372" fill="none"/><line y2="-32193" y1="-31055" x2="-29134" x1="-29134" fill="none"/><line y2="-32052" y1="-31200" x2="-28964" x1="-28964" fill="none"/><line y2="-31055" y1="-30489" x2="-29134" x1="-28146" fill="none"/><line y2="-32719" y1="-32193" x2="-26257" x1="-27164" fill="none"/><line y2="-32193" y1="-32719" x2="-25350" x1="-26257" fill="none"/><line y2="-32719" y1="-32193" x2="-24442" x1="-25350" fill="none"/><line y2="-32193" y1="-32719" x2="-23535" x1="-24442" fill="none"/><line y2="-30532" y1="-31055" x2="-30041" x1="-29134" fill="none"/><line y2="-31055" y1="-30532" x2="-30948" x1="-30041" fill="none"/><line y2="-30532" y1="-31055" x2="-31855" x1="-30948" fill="none"/><line y2="-31055" y1="-30532" x2="-32762" x1="-31855" fill="none"/></g></g></svg>