<svg width="164.01" viewBox="0 0 5467 4889" text-rendering="auto" stroke-width="1" stroke-opacity="1" stroke-miterlimit="10" stroke-linejoin="miter" stroke-linecap="square" stroke-dashoffset="0" stroke-dasharray="none" stroke="black" shape-rendering="auto" image-rendering="auto" height="146.67" font-weight="normal" font-style="normal" font-size="12" font-family="'Dialog'" fill-opacity="1" fill="black" color-rendering="auto" color-interpolation="auto" xmlns="http://www.w3.org/2000/svg"><g><g stroke="white" fill="white"><rect y="0" x="0" width="5467" stroke="none" height="4889"/></g><g transform="translate(32866,32758)" text-rendering="geometricPrecision" stroke-width="44" stroke-linejoin="round" stroke-linecap="round"><line y2="-30154" y1="-30706" x2="-30480" x1="-31191" fill="none"/><line y2="-30711" y1="-30154" x2="-31569" x1="-32323" fill="none"/><line y2="-29091" y1="-30154" x2="-30847" x1="-30480" fill="none"/><line y2="-30154" y1="-29091" x2="-32323" x1="-31994" fill="none"/><line y2="-29091" y1="-29091" x2="-31994" x1="-30847" fill="none"/><line y2="-31899" y1="-31070" x2="-31379" x1="-31379" fill="none"/><line y2="-28568" y1="-29091" x2="-29940" x1="-30847" fill="none"/><line y2="-28513" y1="-28906" x2="-30125" x1="-30804" fill="none"/><line y2="-28984" y1="-28568" x2="-29221" x1="-29940" fill="none"/><line y2="-28420" y1="-29050" x2="-32396" x1="-31939" fill="none"/><line y2="-28504" y1="-29131" x2="-32508" x1="-32052" fill="none"/><line y2="-32315" y1="-31899" x2="-30659" x1="-31379" fill="none"/><line y2="-31899" y1="-32315" x2="-29564" x1="-30284" fill="none"/><line y2="-32254" y1="-31838" x2="-32133" x1="-31416" fill="none"/><line y2="-32375" y1="-31959" x2="-32063" x1="-31344" fill="none"/><line y2="-28675" y1="-28984" x2="-28314" x1="-28845" fill="none"/><line y2="-29920" y1="-29310" x2="-29033" x1="-29033" fill="none"/><line y2="-32422" y1="-31899" x2="-28657" x1="-29564" fill="none"/><line y2="-30992" y1="-31899" x2="-29042" x1="-29564" fill="none"/><line y2="-30992" y1="-31899" x2="-30090" x1="-29564" fill="none"/><text y="-32242" xml:space="preserve" x="-30625" stroke="none" font-size="433.3333" font-family="sans-serif">O</text><text y="-32242" xml:space="preserve" x="-32439" stroke="none" font-size="433.3333" font-family="sans-serif">O</text><text y="-28912" xml:space="preserve" x="-29186" stroke="none" font-size="433.3333" font-family="sans-serif">N</text><text y="-28389" xml:space="preserve" x="-28279" stroke="none" font-size="433.3333" font-family="sans-serif">CH</text><text y="-28299" xml:space="preserve" x="-27701" stroke="none" font-size="313.3333" font-family="sans-serif">3</text><text y="-29960" xml:space="preserve" x="-29186" stroke="none" font-size="433.3333" font-family="sans-serif">CH</text><text y="-29871" xml:space="preserve" x="-28608" stroke="none" font-size="313.3333" font-family="sans-serif">3</text><text y="-28065" xml:space="preserve" x="-32762" stroke="none" font-size="433.3333" font-family="sans-serif">O</text><text y="-30671" xml:space="preserve" x="-31532" stroke="none" font-size="433.3333" font-family="sans-serif">N</text></g></g></svg>