<svg width="297.51" viewBox="0 0 9917 7576" text-rendering="auto" stroke-width="1" stroke-opacity="1" stroke-miterlimit="10" stroke-linejoin="miter" stroke-linecap="square" stroke-dashoffset="0" stroke-dasharray="none" stroke="black" shape-rendering="auto" image-rendering="auto" height="227.28" font-weight="normal" font-style="normal" font-size="12" font-family="'Dialog'" fill-opacity="1" fill="black" color-rendering="auto" color-interpolation="auto" xmlns="http://www.w3.org/2000/svg"><g><g stroke="white" fill="white"><rect y="0" x="0" width="9917" stroke="none" height="7576"/></g><g transform="translate(32866,32758)" text-rendering="geometricPrecision" stroke-width="44" stroke-linejoin="round" stroke-linecap="round"><line y2="-27562" y1="-26993" x2="-26005" x1="-26993" fill="none"/><line y2="-26993" y1="-27562" x2="-25023" x1="-26005" fill="none"/><line y2="-25855" y1="-26993" x2="-26993" x1="-26993" fill="none"/><line y2="-26993" y1="-27562" x2="-26993" x1="-27978" fill="none"/><line y2="-26915" y1="-27343" x2="-27201" x1="-27941" fill="none"/><line y2="-25855" y1="-26993" x2="-25023" x1="-25023" fill="none"/><line y2="-27562" y1="-26993" x2="-24035" x1="-25023" fill="none"/><line y2="-27343" y1="-26915" x2="-24076" x1="-24815" fill="none"/><line y2="-25855" y1="-25855" x2="-26993" x1="-25023" fill="none"/><line y2="-25286" y1="-25855" x2="-27978" x1="-26993" fill="none"/><line y2="-25506" y1="-25930" x2="-27941" x1="-27201" fill="none"/><line y2="-27562" y1="-26993" x2="-27978" x1="-28964" fill="none"/><line y2="-25855" y1="-25286" x2="-25023" x1="-24035" fill="none"/><line y2="-25933" y1="-25506" x2="-24815" x1="-24076" fill="none"/><line y2="-26993" y1="-27562" x2="-23053" x1="-24035" fill="none"/><line y2="-25855" y1="-25286" x2="-28964" x1="-27978" fill="none"/><line y2="-26993" y1="-25855" x2="-28964" x1="-28964" fill="none"/><line y2="-26852" y1="-25997" x2="-28793" x1="-28793" fill="none"/><line y2="-25286" y1="-25855" x2="-24035" x1="-23053" fill="none"/><line y2="-25855" y1="-26993" x2="-23053" x1="-23053" fill="none"/><line y2="-25997" y1="-26852" x2="-23223" x1="-23223" fill="none"/><line y2="-28608" y1="-27562" x2="-26005" x1="-26005" fill="none"/><line y2="-29024" y1="-28608" x2="-26725" x1="-26005" fill="none"/><line y2="-30180" y1="-29354" x2="-26912" x1="-26912" fill="none"/><line y2="-30486" y1="-30180" x2="-27441" x1="-26912" fill="none"/><line y2="-30180" y1="-30596" x2="-28727" x1="-28010" fill="none"/><line y2="-30706" y1="-30180" x2="-29634" x1="-28727" fill="none"/><line y2="-30656" y1="-30243" x2="-26231" x1="-26947" fill="none"/><line y2="-30535" y1="-30119" x2="-26158" x1="-26878" fill="none"/><line y2="-30706" y1="-31841" x2="-29634" x1="-29634" fill="none"/><line y2="-30847" y1="-31699" x2="-29804" x1="-29804" fill="none"/><line y2="-30136" y1="-30706" x2="-30619" x1="-29634" fill="none"/><line y2="-31841" y1="-32410" x2="-29634" x1="-30619" fill="none"/><line y2="-30706" y1="-30136" x2="-31604" x1="-30619" fill="none"/><line y2="-30781" y1="-30356" x2="-31396" x1="-30656" fill="none"/><line y2="-32410" y1="-31841" x2="-30619" x1="-31604" fill="none"/><line y2="-32193" y1="-31766" x2="-30656" x1="-31396" fill="none"/><line y2="-31841" y1="-30706" x2="-31604" x1="-31604" fill="none"/><line y2="-32092" y1="-31841" x2="-32040" x1="-31604" fill="none"/><text y="-28955" xml:space="preserve" x="-27066" stroke="none" font-size="433.3333" font-family="sans-serif">O</text><text y="-30526" xml:space="preserve" x="-27973" stroke="none" font-size="433.3333" font-family="sans-serif">NH</text><text y="-30526" xml:space="preserve" x="-26158" stroke="none" font-size="433.3333" font-family="sans-serif">O</text><text y="-32242" xml:space="preserve" x="-32762" stroke="none" font-size="433.3333" font-family="sans-serif">NH</text><text y="-32153" xml:space="preserve" x="-32185" stroke="none" font-size="313.3333" font-family="sans-serif">2</text></g></g></svg>