<svg width="480.6" viewBox="0 0 16020 9516" text-rendering="auto" stroke-width="1" stroke-opacity="1" stroke-miterlimit="10" stroke-linejoin="miter" stroke-linecap="square" stroke-dashoffset="0" stroke-dasharray="none" stroke="black" shape-rendering="auto" image-rendering="auto" height="285.48" font-weight="normal" font-style="normal" font-size="12" font-family="'Dialog'" fill-opacity="1" fill="black" color-rendering="auto" color-interpolation="auto" xmlns="http://www.w3.org/2000/svg"><g><g stroke="white" fill="white"><rect y="0" x="0" width="16020" stroke="none" height="9516"/></g><g transform="translate(32866,32866)" text-rendering="geometricPrecision" stroke-width="44" stroke-linejoin="round" stroke-linecap="round"><line y2="-28198" y1="-29354" x2="-27236" x1="-27236" fill="none"/><line y2="-27404" y1="-27782" x2="-28236" x1="-27577" fill="none"/><line y2="-30370" y1="-29683" x2="-28614" x1="-27427" fill="none"/><line y2="-29848" y1="-30370" x2="-26762" x1="-25855" fill="none"/><line y2="-30061" y1="-30454" x2="-26733" x1="-26054" fill="none"/><line y2="-27978" y1="-27291" x2="-30001" x1="-28802" fill="none"/><line y2="-30370" y1="-29573" x2="-28614" x1="-30001" fill="none"/><line y2="-31965" y1="-30370" x2="-28614" x1="-28614" fill="none"/><line y2="-31766" y1="-30570" x2="-28444" x1="-28444" fill="none"/><line y2="-30370" y1="-31965" x2="-25855" x1="-25855" fill="none"/><line y2="-29573" y1="-27978" x2="-30001" x1="-30001" fill="none"/><line y2="-27184" y1="-27978" x2="-31379" x1="-30001" fill="none"/><line y2="-27430" y1="-28028" x2="-31292" x1="-30258" fill="none"/><line y2="-29573" y1="-30370" x2="-30001" x1="-31379" fill="none"/><line y2="-29524" y1="-30122" x2="-30258" x1="-31292" fill="none"/><line y2="-32762" y1="-31965" x2="-27236" x1="-28614" fill="none"/><line y2="-31965" y1="-32762" x2="-25855" x1="-27236" fill="none"/><line y2="-31916" y1="-32514" x2="-26112" x1="-27149" fill="none"/><line y2="-27978" y1="-27184" x2="-32762" x1="-31379" fill="none"/><line y2="-30370" y1="-29573" x2="-31379" x1="-32762" fill="none"/><line y2="-29573" y1="-27978" x2="-32762" x1="-32762" fill="none"/><line y2="-29374" y1="-28178" x2="-32595" x1="-32595" fill="none"/><line y2="-27508" y1="-27782" x2="-26418" x1="-26895" fill="none"/><line y2="-26496" y1="-26964" x2="-29013" x1="-28741" fill="none"/><line y2="-27152" y1="-27759" x2="-27236" x1="-27236" fill="none"/><line y2="-25038" y1="-26713" x2="-28770" x1="-27415" fill="none"/><line y2="-30807" y1="-27531" x2="-21363" x1="-26043" fill="none"/><line y2="-25728" y1="-27178" x2="-26231" x1="-26231" fill="none"/><line y2="-26875" y1="-27291" x2="-25324" x1="-26043" fill="none"/><line y2="-24945" y1="-24853" x2="-29666" x1="-29137" fill="none"/><line y2="-23992" y1="-24590" x2="-29007" x1="-28914" fill="none"/><line y2="-24015" y1="-24610" x2="-29146" x1="-29050" fill="none"/><line y2="-24367" y1="-24723" x2="-28276" x1="-28715" fill="none"/><line y2="-24258" y1="-24613" x2="-28366" x1="-28805" fill="none"/><line y2="-30807" y1="-30238" x2="-21363" x1="-20381" fill="none"/><line y2="-30885" y1="-30457" x2="-21155" x1="-20418" fill="none"/><line y2="-31945" y1="-30807" x2="-21363" x1="-21363" fill="none"/><line y2="-30238" y1="-30807" x2="-20381" x1="-19393" fill="none"/><line y2="-32514" y1="-31945" x2="-20381" x1="-21363" fill="none"/><line y2="-32297" y1="-31870" x2="-20418" x1="-21155" fill="none"/><line y2="-30807" y1="-31945" x2="-19393" x1="-19393" fill="none"/><line y2="-30951" y1="-31803" x2="-19563" x1="-19563" fill="none"/><line y2="-31945" y1="-32514" x2="-19393" x1="-20381" fill="none"/><line y2="-29192" y1="-30238" x2="-20381" x1="-20381" fill="none"/><line y2="-25728" y1="-25159" x2="-26231" x1="-27219" fill="none"/><line y2="-25159" y1="-25728" x2="-25248" x1="-26231" fill="none"/><line y2="-25159" y1="-24021" x2="-27219" x1="-27219" fill="none"/><line y2="-24021" y1="-25159" x2="-25248" x1="-25248" fill="none"/><line y2="-24021" y1="-23454" x2="-27219" x1="-26231" fill="none"/><line y2="-23454" y1="-24021" x2="-26231" x1="-25248" fill="none"/><line y2="-26875" y1="-25737" x2="-25324" x1="-25324" fill="none"/><line y2="-27444" y1="-26875" x2="-24338" x1="-25324" fill="none"/><line y2="-25737" y1="-25170" x2="-25324" x1="-24338" fill="none"/><line y2="-26875" y1="-27444" x2="-23353" x1="-24338" fill="none"/><line y2="-25170" y1="-25737" x2="-24338" x1="-23353" fill="none"/><line y2="-25737" y1="-26875" x2="-23353" x1="-23353" fill="none"/><line y2="-29192" y1="-28623" x2="-20381" x1="-21366" fill="none"/><line y2="-28972" y1="-28545" x2="-20418" x1="-21158" fill="none"/><line y2="-28623" y1="-29192" x2="-19396" x1="-20381" fill="none"/><line y2="-28623" y1="-27484" x2="-21366" x1="-21366" fill="none"/><line y2="-27484" y1="-28623" x2="-19396" x1="-19396" fill="none"/><line y2="-27629" y1="-28481" x2="-19566" x1="-19566" fill="none"/><line y2="-27484" y1="-26918" x2="-21366" x1="-20381" fill="none"/><line y2="-27562" y1="-27135" x2="-21158" x1="-20418" fill="none"/><line y2="-26918" y1="-27484" x2="-20381" x1="-19396" fill="none"/><line y2="-29039" y1="-28623" x2="-22088" x1="-21366" fill="none"/><line y2="-28756" y1="-29033" x2="-22923" x1="-22464" fill="none"/><line y2="-29039" y1="-28623" x2="-18676" x1="-19396" fill="none"/><line y2="-28741" y1="-29042" x2="-17760" x1="-18301" fill="none"/><text y="-27219" xml:space="preserve" x="-26384" stroke="none" font-size="433.3333" font-family="sans-serif">P</text><text y="-26754" xml:space="preserve" x="-27389" stroke="none" font-size="433.3333" font-family="sans-serif">O</text><text y="-24639" xml:space="preserve" x="-29099" stroke="none" font-size="433.3333" font-family="sans-serif">S</text><text y="-24908" xml:space="preserve" x="-30613" stroke="none" font-size="433.3333" font-family="sans-serif">CH</text><text y="-24818" xml:space="preserve" x="-30035" stroke="none" font-size="313.3333" font-family="sans-serif">3</text><text y="-23605" xml:space="preserve" x="-29264" stroke="none" font-size="433.3333" font-family="sans-serif">O</text><text y="-23980" xml:space="preserve" x="-28285" stroke="none" font-size="433.3333" font-family="sans-serif">O</text><text y="-26098" xml:space="preserve" x="-29290" stroke="none" font-size="433.3333" font-family="sans-serif">CH</text><text y="-26008" xml:space="preserve" x="-28712" stroke="none" font-size="313.3333" font-family="sans-serif">3</text><text y="-28966" xml:space="preserve" x="-22426" stroke="none" font-size="433.3333" font-family="sans-serif">O</text><text y="-28357" xml:space="preserve" x="-23443" stroke="none" font-size="433.3333" font-family="sans-serif">CH</text><text y="-28267" xml:space="preserve" x="-22865" stroke="none" font-size="313.3333" font-family="sans-serif">3</text><text y="-28966" xml:space="preserve" x="-18642" stroke="none" font-size="433.3333" font-family="sans-serif">O</text><text y="-28458" xml:space="preserve" x="-17726" stroke="none" font-size="433.3333" font-family="sans-serif">CH</text><text y="-28368" xml:space="preserve" x="-17148" stroke="none" font-size="313.3333" font-family="sans-serif">3</text><text y="-27799" xml:space="preserve" x="-27542" stroke="none" font-size="433.3333" font-family="sans-serif">Pd</text><text y="-29394" xml:space="preserve" x="-27389" stroke="none" font-size="433.3333" font-family="sans-serif">C</text><text y="-27005" xml:space="preserve" x="-28767" stroke="none" font-size="433.3333" font-family="sans-serif">NH</text><text y="-26808" xml:space="preserve" x="-27068" stroke="none" font-size="313.3333" font-family="sans-serif">-</text><text y="-27854" xml:space="preserve" x="-26915" stroke="none" font-size="313.3333" font-family="sans-serif">2+</text><text y="-29449" xml:space="preserve" x="-27068" stroke="none" font-size="313.3333" font-family="sans-serif">-</text></g></g></svg>