<svg width="385.47" viewBox="0 0 12849 7028" text-rendering="auto" stroke-width="1" stroke-opacity="1" stroke-miterlimit="10" stroke-linejoin="miter" stroke-linecap="square" stroke-dashoffset="0" stroke-dasharray="none" stroke="black" shape-rendering="auto" image-rendering="auto" height="210.84" font-weight="normal" font-style="normal" font-size="12" font-family="'Dialog'" fill-opacity="1" fill="black" color-rendering="auto" color-interpolation="auto" xmlns="http://www.w3.org/2000/svg"><g><g stroke="white" fill="white"><rect y="0" x="0" width="12849" stroke="none" height="7028"/></g><g transform="translate(32866,32866)" text-rendering="geometricPrecision" stroke-width="44" stroke-linejoin="round" stroke-linecap="round"><line y2="-29975" y1="-29374" x2="-24954" x1="-25994" fill="none"/><line y2="-29481" y1="-29975" x2="-24096" x1="-24954" fill="none"/><line y2="-30954" y1="-29975" x2="-24954" x1="-24954" fill="none"/><line y2="-30833" y1="-30096" x2="-24786" x1="-24786" fill="none"/><line y2="-29374" y1="-28172" x2="-25994" x1="-25994" fill="none"/><line y2="-29224" y1="-28322" x2="-25823" x1="-25823" fill="none"/><line y2="-29374" y1="-29975" x2="-25994" x1="-27031" fill="none"/><line y2="-29481" y1="-29865" x2="-23720" x1="-23059" fill="none"/><line y2="-28172" y1="-29154" x2="-23908" x1="-23908" fill="none"/><line y2="-31174" y1="-31174" x2="-22871" x1="-24766" fill="none"/><line y2="-28172" y1="-28172" x2="-27883" x1="-25994" fill="none"/><line y2="-28172" y1="-27681" x2="-25994" x1="-25139" fill="none"/><line y2="-29975" y1="-29481" x2="-27031" x1="-27883" fill="none"/><line y2="-29764" y1="-29397" x2="-27054" x1="-27690" fill="none"/><line y2="-30194" y1="-31174" x2="-22871" x1="-22871" fill="none"/><line y2="-30316" y1="-31035" x2="-23041" x1="-23041" fill="none"/><line y2="-27681" y1="-28172" x2="-24763" x1="-23908" fill="none"/><line y2="-27892" y1="-28259" x2="-24740" x1="-24102" fill="none"/><line y2="-29154" y1="-28392" x2="-28071" x1="-28071" fill="none"/><line y2="-31699" y1="-31174" x2="-21964" x1="-22871" fill="none"/><line y2="-27649" y1="-28065" x2="-28978" x1="-28259" fill="none"/><line y2="-28172" y1="-27649" x2="-29885" x1="-28978" fill="none"/><line y2="-27649" y1="-28172" x2="-30792" x1="-29885" fill="none"/><line y2="-27756" y1="-28172" x2="-23189" x1="-23908" fill="none"/><line y2="-32762" y1="-31699" x2="-21597" x1="-21964" fill="none"/><line y2="-32575" y1="-31777" x2="-21481" x1="-21756" fill="none"/><line y2="-31699" y1="-31148" x2="-21964" x1="-21253" fill="none"/><line y2="-32762" y1="-32762" x2="-20450" x1="-21597" fill="none"/><line y2="-31142" y1="-31699" x2="-20875" x1="-20121" fill="none"/><line y2="-31699" y1="-32762" x2="-20121" x1="-20450" fill="none"/><line y2="-31783" y1="-32578" x2="-20326" x1="-20571" fill="none"/><line y2="-27649" y1="-28218" x2="-30792" x1="-31774" fill="none"/><line y2="-27574" y1="-27999" x2="-31000" x1="-31737" fill="none"/><line y2="-26511" y1="-27649" x2="-30792" x1="-30792" fill="none"/><line y2="-28218" y1="-27649" x2="-31774" x1="-32762" fill="none"/><line y2="-25942" y1="-26511" x2="-31774" x1="-30792" fill="none"/><line y2="-26161" y1="-26589" x2="-31737" x1="-31000" fill="none"/><line y2="-27649" y1="-26511" x2="-32762" x1="-32762" fill="none"/><line y2="-27508" y1="-26655" x2="-32592" x1="-32592" fill="none"/><line y2="-26511" y1="-25942" x2="-32762" x1="-31774" fill="none"/><text y="-27470" xml:space="preserve" x="-23154" stroke="none" font-size="433.3333" font-family="sans-serif">NH</text><text y="-27380" xml:space="preserve" x="-22576" stroke="none" font-size="313.3333" font-family="sans-serif">2</text><text y="-29195" xml:space="preserve" x="-24061" stroke="none" font-size="433.3333" font-family="sans-serif">N</text><text y="-30994" xml:space="preserve" x="-25107" stroke="none" font-size="433.3333" font-family="sans-serif">N</text><text y="-29796" xml:space="preserve" x="-23024" stroke="none" font-size="433.3333" font-family="sans-serif">N</text><text y="-27993" xml:space="preserve" x="-28224" stroke="none" font-size="433.3333" font-family="sans-serif">N</text><text y="-27395" xml:space="preserve" x="-25104" stroke="none" font-size="433.3333" font-family="sans-serif">N</text><text y="-29195" xml:space="preserve" x="-28224" stroke="none" font-size="433.3333" font-family="sans-serif">N</text><text y="-30824" xml:space="preserve" x="-21216" stroke="none" font-size="433.3333" font-family="sans-serif">O</text></g></g></svg>