<svg width="302.85" viewBox="0 0 10095 3716" text-rendering="auto" stroke-width="1" stroke-opacity="1" stroke-miterlimit="10" stroke-linejoin="miter" stroke-linecap="square" stroke-dashoffset="0" stroke-dasharray="none" stroke="black" shape-rendering="auto" image-rendering="auto" height="111.48" font-weight="normal" font-style="normal" font-size="12" font-family="'Dialog'" fill-opacity="1" fill="black" color-rendering="auto" color-interpolation="auto" xmlns="http://www.w3.org/2000/svg"><g><g stroke="white" fill="white"><rect y="0" x="0" width="10095" stroke="none" height="3716"/></g><g transform="translate(32866,32758)" text-rendering="geometricPrecision" stroke-width="44" stroke-linejoin="round" stroke-linecap="round"><line y2="-30960" y1="-31376" x2="-27352" x1="-28071" fill="none"/><line y2="-30960" y1="-31376" x2="-28790" x1="-28071" fill="none"/><line y2="-31376" y1="-30960" x2="-29885" x1="-29166" fill="none"/><line y2="-30850" y1="-31376" x2="-30792" x1="-29885" fill="none"/><line y2="-32202" y1="-31376" x2="-28140" x1="-28140" fill="none"/><line y2="-32202" y1="-31376" x2="-27999" x1="-27999" fill="none"/><line y2="-31419" y1="-30960" x2="-26179" x1="-26976" fill="none"/><line y2="-30630" y1="-29715" x2="-27164" x1="-27164" fill="none"/><line y2="-30850" y1="-31419" x2="-25194" x1="-26179" fill="none"/><line y2="-29715" y1="-29146" x2="-27164" x1="-26179" fill="none"/><line y2="-29715" y1="-30850" x2="-25194" x1="-25194" fill="none"/><line y2="-29146" y1="-29715" x2="-26179" x1="-25194" fill="none"/><line y2="-30850" y1="-31419" x2="-30792" x1="-31774" fill="none"/><line y2="-30775" y1="-31202" x2="-31000" x1="-31737" fill="none"/><line y2="-29715" y1="-30850" x2="-30792" x1="-30792" fill="none"/><line y2="-31419" y1="-30850" x2="-31774" x1="-32762" fill="none"/><line y2="-29146" y1="-29715" x2="-31774" x1="-30792" fill="none"/><line y2="-29362" y1="-29790" x2="-31737" x1="-31000" fill="none"/><line y2="-30850" y1="-29715" x2="-32762" x1="-32762" fill="none"/><line y2="-30708" y1="-29856" x2="-32592" x1="-32592" fill="none"/><line y2="-29715" y1="-29146" x2="-32762" x1="-31774" fill="none"/><line y2="-30960" y1="-31376" x2="-23567" x1="-24286" fill="none"/><line y2="-32202" y1="-31416" x2="-24356" x1="-24356" fill="none"/><line y2="-32202" y1="-31376" x2="-24214" x1="-24214" fill="none"/><line y2="-31315" y1="-31434" x2="-24249" x1="-24318" fill="none"/><line y2="-31219" y1="-31314" x2="-24444" x1="-24499" fill="none"/><line y2="-31123" y1="-31193" x2="-24639" x1="-24679" fill="none"/><line y2="-31027" y1="-31073" x2="-24834" x1="-24860" fill="none"/><line y2="-30931" y1="-30952" x2="-25028" x1="-25041" fill="none"/><text y="-30671" xml:space="preserve" x="-29128" stroke="none" font-size="433.3333" font-family="sans-serif">O</text><text y="-32242" xml:space="preserve" x="-28221" stroke="none" font-size="433.3333" font-family="sans-serif">O</text><text y="-30671" xml:space="preserve" x="-23530" stroke="none" font-size="433.3333" font-family="sans-serif">OH</text><text y="-32242" xml:space="preserve" x="-24437" stroke="none" font-size="433.3333" font-family="sans-serif">O</text><text y="-30671" xml:space="preserve" x="-27314" stroke="none" font-size="433.3333" font-family="sans-serif">N</text><text y="-30529" xml:space="preserve" x="-25592" stroke="none" font-style="italic" font-size="313.3333" font-family="sans-serif">R</text></g></g></svg>