<svg width="362.46" viewBox="0 0 12082 5241" text-rendering="auto" stroke-width="1" stroke-opacity="1" stroke-miterlimit="10" stroke-linejoin="miter" stroke-linecap="square" stroke-dashoffset="0" stroke-dasharray="none" stroke="black" shape-rendering="auto" image-rendering="auto" height="157.23" font-weight="normal" font-style="normal" font-size="12" font-family="'Dialog'" fill-opacity="1" fill="black" color-rendering="auto" color-interpolation="auto" xmlns="http://www.w3.org/2000/svg"><g><g stroke="white" fill="white"><rect y="0" x="0" width="12082" stroke="none" height="5241"/></g><g transform="translate(32866,32758)" text-rendering="geometricPrecision" stroke-width="44" stroke-linejoin="round" stroke-linecap="round"><line y2="-28940" y1="-29463" x2="-27320" x1="-28227" fill="none"/><line y2="-29463" y1="-28940" x2="-26413" x1="-27320" fill="none"/><line y2="-28940" y1="-29463" x2="-29134" x1="-28227" fill="none"/><line y2="-29356" y1="-28940" x2="-29853" x1="-29134" fill="none"/><line y2="-28940" y1="-29356" x2="-30948" x1="-30229" fill="none"/><line y2="-30292" y1="-29463" x2="-28227" x1="-28227" fill="none"/><line y2="-28940" y1="-29463" x2="-25506" x1="-26413" fill="none"/><line y2="-30154" y1="-29463" x2="-26014" x1="-26413" fill="none"/><line y2="-30154" y1="-29463" x2="-26808" x1="-26413" fill="none"/><line y2="-29463" y1="-28940" x2="-31855" x1="-30948" fill="none"/><line y2="-28111" y1="-28940" x2="-30879" x1="-30879" fill="none"/><line y2="-28111" y1="-28940" x2="-31018" x1="-31018" fill="none"/><line y2="-29463" y1="-28940" x2="-24598" x1="-25506" fill="none"/><line y2="-28253" y1="-28940" x2="-25107" x1="-25506" fill="none"/><line y2="-28253" y1="-28940" x2="-25901" x1="-25506" fill="none"/><line y2="-28940" y1="-29463" x2="-32762" x1="-31855" fill="none"/><line y2="-30512" y1="-29463" x2="-31855" x1="-31855" fill="none"/><line y2="-30512" y1="-29463" x2="-31717" x1="-31717" fill="none"/><line y2="-28940" y1="-29463" x2="-23691" x1="-24598" fill="none"/><line y2="-30154" y1="-29463" x2="-24200" x1="-24598" fill="none"/><line y2="-30154" y1="-29463" x2="-24994" x1="-24598" fill="none"/><line y2="-29463" y1="-28940" x2="-22784" x1="-23691" fill="none"/><line y2="-28253" y1="-28940" x2="-23293" x1="-23691" fill="none"/><line y2="-28253" y1="-28940" x2="-24087" x1="-23691" fill="none"/><line y2="-28940" y1="-29463" x2="-21877" x1="-22784" fill="none"/><line y2="-31514" y1="-29463" x2="-22784" x1="-22784" fill="none"/><line y2="-29879" y1="-29463" x2="-22065" x1="-22784" fill="none"/><line y2="-29356" y1="-28940" x2="-21158" x1="-21877" fill="none"/><line y2="-28253" y1="-28940" x2="-21478" x1="-21877" fill="none"/><line y2="-28253" y1="-28940" x2="-22273" x1="-21877" fill="none"/><line y2="-31930" y1="-31514" x2="-22065" x1="-22784" fill="none"/><line y2="-32202" y1="-31514" x2="-23180" x1="-22784" fill="none"/><line y2="-31514" y1="-31514" x2="-23642" x1="-22784" fill="none"/><text y="-27854" xml:space="preserve" x="-23319" stroke="none" font-size="433.3333" font-family="sans-serif">F</text><text y="-27854" xml:space="preserve" x="-24367" stroke="none" font-size="433.3333" font-family="sans-serif">F</text><text y="-29810" xml:space="preserve" x="-22027" stroke="none" font-size="433.3333" font-family="sans-serif">F</text><text y="-30191" xml:space="preserve" x="-24226" stroke="none" font-size="433.3333" font-family="sans-serif">F</text><text y="-30191" xml:space="preserve" x="-25274" stroke="none" font-size="433.3333" font-family="sans-serif">F</text><text y="-29284" xml:space="preserve" x="-21120" stroke="none" font-size="433.3333" font-family="sans-serif">F</text><text y="-27854" xml:space="preserve" x="-21504" stroke="none" font-size="433.3333" font-family="sans-serif">F</text><text y="-27854" xml:space="preserve" x="-22553" stroke="none" font-size="433.3333" font-family="sans-serif">F</text><text y="-31861" xml:space="preserve" x="-22027" stroke="none" font-size="433.3333" font-family="sans-serif">F</text><text y="-32242" xml:space="preserve" x="-23460" stroke="none" font-size="433.3333" font-family="sans-serif">F</text><text y="-31335" xml:space="preserve" x="-23983" stroke="none" font-size="433.3333" font-family="sans-serif">F</text><text y="-27854" xml:space="preserve" x="-25133" stroke="none" font-size="433.3333" font-family="sans-serif">F</text><text y="-27854" xml:space="preserve" x="-26182" stroke="none" font-size="433.3333" font-family="sans-serif">F</text><text y="-30191" xml:space="preserve" x="-26040" stroke="none" font-size="433.3333" font-family="sans-serif">F</text><text y="-30191" xml:space="preserve" x="-27089" stroke="none" font-size="433.3333" font-family="sans-serif">F</text><text y="-30333" xml:space="preserve" x="-28380" stroke="none" font-size="433.3333" font-family="sans-serif">OH</text><text y="-29284" xml:space="preserve" x="-30194" stroke="none" font-size="433.3333" font-family="sans-serif">O</text><text y="-27713" xml:space="preserve" x="-31101" stroke="none" font-size="433.3333" font-family="sans-serif">O</text></g></g></svg>