<svg width="362.22" viewBox="0 0 12074 10060" text-rendering="auto" stroke-width="1" stroke-opacity="1" stroke-miterlimit="10" stroke-linejoin="miter" stroke-linecap="square" stroke-dashoffset="0" stroke-dasharray="none" stroke="black" shape-rendering="auto" image-rendering="auto" height="301.8" font-weight="normal" font-style="normal" font-size="12" font-family="'Dialog'" fill-opacity="1" fill="black" color-rendering="auto" color-interpolation="auto" xmlns="http://www.w3.org/2000/svg"><g><g stroke="white" fill="white"><rect y="0" x="0" width="12074" stroke="none" height="10060"/></g><g transform="translate(32866,32758)" text-rendering="geometricPrecision" stroke-width="44" stroke-linejoin="round" stroke-linecap="round"><line y2="-29781" y1="-29781" x2="-29536" x1="-27461" fill="none"/><line y2="-29781" y1="-30758" x2="-27461" x1="-27461" fill="none"/><line y2="-30977" y1="-29781" x2="-29536" x1="-29536" fill="none"/><line y2="-29180" y1="-29781" x2="-30570" x1="-29536" fill="none"/><line y2="-29403" y1="-29850" x2="-30526" x1="-29752" fill="none"/><line y2="-31087" y1="-31468" x2="-27652" x1="-28308" fill="none"/><line y2="-31468" y1="-30977" x2="-28686" x1="-29536" fill="none"/><line y2="-30977" y1="-31575" x2="-29536" x1="-30570" fill="none"/><line y2="-30905" y1="-31353" x2="-29752" x1="-30526" fill="none"/><line y2="-29781" y1="-29180" x2="-31610" x1="-30570" fill="none"/><line y2="-31575" y1="-30977" x2="-30570" x1="-31610" fill="none"/><line y2="-30977" y1="-29781" x2="-31610" x1="-31610" fill="none"/><line y2="-30827" y1="-29928" x2="-31439" x1="-31439" fill="none"/><line y2="-28955" y1="-29781" x2="-26011" x1="-27461" fill="none"/><line y2="-28732" y1="-29781" x2="-27461" x1="-27461" fill="none"/><line y2="-32162" y1="-31751" x2="-29042" x1="-28724" fill="none"/><line y2="-32245" y1="-31838" x2="-28932" x1="-28614" fill="none"/><line y2="-32214" y1="-31838" x2="-28033" x1="-28363" fill="none"/><line y2="-32124" y1="-31746" x2="-27929" x1="-28256" fill="none"/><line y2="-28955" y1="-27817" x2="-26011" x1="-26011" fill="none"/><line y2="-28810" y1="-27958" x2="-25841" x1="-25841" fill="none"/><line y2="-29524" y1="-28955" x2="-25026" x1="-26011" fill="none"/><line y2="-27817" y1="-27248" x2="-26011" x1="-25026" fill="none"/><line y2="-28955" y1="-29524" x2="-24041" x1="-25026" fill="none"/><line y2="-28877" y1="-29304" x2="-24249" x1="-24988" fill="none"/><line y2="-27248" y1="-27817" x2="-25026" x1="-24041" fill="none"/><line y2="-27467" y1="-27895" x2="-24988" x1="-24249" fill="none"/><line y2="-27817" y1="-28955" x2="-24041" x1="-24041" fill="none"/><line y2="-26199" y1="-27248" x2="-25026" x1="-25026" fill="none"/><line y2="-25786" y1="-26199" x2="-24307" x1="-25026" fill="none"/><line y2="-29478" y1="-28955" x2="-23134" x1="-24041" fill="none"/><line y2="-27401" y1="-27817" x2="-23322" x1="-24041" fill="none"/><line y2="-28732" y1="-28163" x2="-27461" x1="-28446" fill="none"/><line y2="-28516" y1="-28088" x2="-27499" x1="-28238" fill="none"/><line y2="-28163" y1="-28732" x2="-26476" x1="-27461" fill="none"/><line y2="-28163" y1="-27025" x2="-28446" x1="-28446" fill="none"/><line y2="-27025" y1="-28163" x2="-26476" x1="-26476" fill="none"/><line y2="-27170" y1="-28022" x2="-26647" x1="-26647" fill="none"/><line y2="-27025" y1="-26456" x2="-28446" x1="-27461" fill="none"/><line y2="-27103" y1="-26676" x2="-28238" x1="-27499" fill="none"/><line y2="-26456" y1="-27025" x2="-27461" x1="-26476" fill="none"/><line y2="-26182" y1="-27025" x2="-29888" x1="-28446" fill="none"/><line y2="-26598" y1="-26182" x2="-30607" x1="-29888" fill="none"/><line y2="-26502" y1="-27025" x2="-25569" x1="-26476" fill="none"/><line y2="-25630" y1="-26456" x2="-27461" x1="-27461" fill="none"/><line y2="-26199" y1="-25786" x2="-23212" x1="-23931" fill="none"/><line y2="-25676" y1="-26199" x2="-22305" x1="-23212" fill="none"/><line y2="-24627" y1="-25456" x2="-24119" x1="-24119" fill="none"/><line y2="-24122" y1="-24627" x2="-25038" x1="-24119" fill="none"/><line y2="-26167" y1="-26592" x2="-31694" x1="-30983" fill="none"/><line y2="-25118" y1="-26167" x2="-31694" x1="-31694" fill="none"/><line y2="-27753" y1="-26924" x2="-30795" x1="-30795" fill="none"/><line y2="-28276" y1="-27753" x2="-31702" x1="-30795" fill="none"/><line y2="-26092" y1="-25676" x2="-21585" x1="-22305" fill="none"/><line y2="-24847" y1="-25676" x2="-22235" x1="-22235" fill="none"/><line y2="-24847" y1="-25676" x2="-22374" x1="-22374" fill="none"/><line y2="-24425" y1="-24122" x2="-25563" x1="-25038" fill="none"/><line y2="-23293" y1="-24122" x2="-24965" x1="-24965" fill="none"/><line y2="-23293" y1="-24122" x2="-25107" x1="-25107" fill="none"/><line y2="-24815" y1="-25118" x2="-32219" x1="-31694" fill="none"/><line y2="-24763" y1="-25179" x2="-30937" x1="-31656" fill="none"/><line y2="-24642" y1="-25058" x2="-31006" x1="-31728" fill="none"/><line y2="-27973" y1="-28276" x2="-32231" x1="-31702" fill="none"/><line y2="-29105" y1="-28276" x2="-31772" x1="-31772" fill="none"/><line y2="-29105" y1="-28276" x2="-31633" x1="-31633" fill="none"/><text y="-32242" xml:space="preserve" x="-29310" stroke="none" font-size="433.3333" font-family="sans-serif">O</text><text y="-32205" xml:space="preserve" x="-27947" stroke="none" font-size="433.3333" font-family="sans-serif">O</text><text y="-25497" xml:space="preserve" x="-24272" stroke="none" font-size="433.3333" font-family="sans-serif">N</text><text y="-26020" xml:space="preserve" x="-21551" stroke="none" font-size="433.3333" font-family="sans-serif">OH</text><text y="-24448" xml:space="preserve" x="-22458" stroke="none" font-size="433.3333" font-family="sans-serif">O</text><text y="-24466" xml:space="preserve" x="-26098" stroke="none" font-size="433.3333" font-family="sans-serif">OH</text><text y="-22894" xml:space="preserve" x="-25188" stroke="none" font-size="433.3333" font-family="sans-serif">O</text><text y="-26525" xml:space="preserve" x="-30948" stroke="none" font-size="433.3333" font-family="sans-serif">N</text><text y="-24416" xml:space="preserve" x="-32751" stroke="none" font-size="433.3333" font-family="sans-serif">OH</text><text y="-24416" xml:space="preserve" x="-30937" stroke="none" font-size="433.3333" font-family="sans-serif">O</text><text y="-27574" xml:space="preserve" x="-32762" stroke="none" font-size="433.3333" font-family="sans-serif">OH</text><text y="-29146" xml:space="preserve" x="-31855" stroke="none" font-size="433.3333" font-family="sans-serif">O</text><text y="-27115" xml:space="preserve" x="-23284" stroke="none" font-size="433.3333" font-family="sans-serif">OH</text><text y="-25231" xml:space="preserve" x="-27614" stroke="none" font-size="433.3333" font-family="sans-serif">OH</text><text y="-30798" xml:space="preserve" x="-27614" stroke="none" font-size="433.3333" font-family="sans-serif">O</text><text y="-31396" xml:space="preserve" x="-28649" stroke="none" font-size="433.3333" font-family="sans-serif">S</text></g></g></svg>