<svg width="387.21" viewBox="0 0 12907 4124" text-rendering="auto" stroke-width="1" stroke-opacity="1" stroke-miterlimit="10" stroke-linejoin="miter" stroke-linecap="square" stroke-dashoffset="0" stroke-dasharray="none" stroke="black" shape-rendering="auto" image-rendering="auto" height="123.72" font-weight="normal" font-style="normal" font-size="12" font-family="'Dialog'" fill-opacity="1" fill="black" color-rendering="auto" color-interpolation="auto" xmlns="http://www.w3.org/2000/svg"><g><g stroke="white" fill="white"><rect y="0" x="0" width="12907" stroke="none" height="4124"/></g><g transform="translate(32866,32866)" text-rendering="geometricPrecision" stroke-width="44" stroke-linejoin="round" stroke-linecap="round"><line y2="-32762" y1="-32240" x2="-30041" x1="-30948" fill="none"/><line y2="-32240" y1="-32762" x2="-29134" x1="-30041" fill="none"/><line y2="-32762" y1="-32240" x2="-28227" x1="-29134" fill="none"/><line y2="-32240" y1="-32762" x2="-27320" x1="-28227" fill="none"/><line y2="-32762" y1="-32240" x2="-31855" x1="-30948" fill="none"/><line y2="-32240" y1="-32762" x2="-32762" x1="-31855" fill="none"/><line y2="-30688" y1="-32240" x2="-30948" x1="-30948" fill="none"/><line y2="-30275" y1="-30688" x2="-30229" x1="-30948" fill="none"/><line y2="-30688" y1="-30275" x2="-29134" x1="-29853" fill="none"/><line y2="-30275" y1="-30688" x2="-28415" x1="-29134" fill="none"/><line y2="-30581" y1="-30275" x2="-27508" x1="-28039" fill="none"/><line y2="-30165" y1="-30581" x2="-26413" x1="-27132" fill="none"/><line y2="-31517" y1="-30688" x2="-29203" x1="-29203" fill="none"/><line y2="-31517" y1="-30688" x2="-29065" x1="-29065" fill="none"/><line y2="-30581" y1="-30165" x2="-25693" x1="-26413" fill="none"/><line y2="-30165" y1="-30581" x2="-24598" x1="-25318" fill="none"/><line y2="-30688" y1="-30165" x2="-23691" x1="-24598" fill="none"/><line y2="-29336" y1="-30165" x2="-26343" x1="-26343" fill="none"/><line y2="-29336" y1="-30165" x2="-26482" x1="-26482" fill="none"/><line y2="-30165" y1="-30688" x2="-22784" x1="-23691" fill="none"/><line y2="-30688" y1="-30165" x2="-21877" x1="-22784" fill="none"/><line y2="-30165" y1="-30688" x2="-20970" x1="-21877" fill="none"/><line y2="-30688" y1="-30165" x2="-20063" x1="-20970" fill="none"/><line y2="-31737" y1="-30688" x2="-23691" x1="-23691" fill="none"/><line y2="-32260" y1="-31737" x2="-22784" x1="-23691" fill="none"/><text y="-29986" xml:space="preserve" x="-30194" stroke="none" font-size="433.3333" font-family="sans-serif">O</text><text y="-29986" xml:space="preserve" x="-28380" stroke="none" font-size="433.3333" font-family="sans-serif">O</text><text y="-31558" xml:space="preserve" x="-29287" stroke="none" font-size="433.3333" font-family="sans-serif">O</text><text y="-30509" xml:space="preserve" x="-27473" stroke="none" font-size="433.3333" font-family="sans-serif">O</text><text y="-30509" xml:space="preserve" x="-25659" stroke="none" font-size="433.3333" font-family="sans-serif">O</text><text y="-28938" xml:space="preserve" x="-26566" stroke="none" font-size="433.3333" font-family="sans-serif">O</text></g></g></svg>