<svg width="254.28" viewBox="0 0 8476 4630" text-rendering="auto" stroke-width="1" stroke-opacity="1" stroke-miterlimit="10" stroke-linejoin="miter" stroke-linecap="square" stroke-dashoffset="0" stroke-dasharray="none" stroke="black" shape-rendering="auto" image-rendering="auto" height="138.9" font-weight="normal" font-style="normal" font-size="12" font-family="'Dialog'" fill-opacity="1" fill="black" color-rendering="auto" color-interpolation="auto" xmlns="http://www.w3.org/2000/svg"><g><g stroke="white" fill="white"><rect y="0" x="0" width="8476" stroke="none" height="4630"/></g><g transform="translate(32866,32866)" text-rendering="geometricPrecision" stroke-width="44" stroke-linejoin="round" stroke-linecap="round"><line y2="-29469" y1="-30532" x2="-27742" x1="-27372" fill="none"/><line y2="-30532" y1="-31084" x2="-27372" x1="-28085" fill="none"/><line y2="-29469" y1="-29469" x2="-28701" x1="-27742" fill="none"/><line y2="-31090" y1="-30532" x2="-28461" x1="-29215" fill="none"/><line y2="-30882" y1="-30466" x2="-28455" x1="-29021" fill="none"/><line y2="-30532" y1="-29689" x2="-29215" x1="-28955" fill="none"/><line y2="-31055" y1="-30532" x2="-26465" x1="-27372" fill="none"/><line y2="-29111" y1="-29359" x2="-29507" x1="-29076" fill="none"/><line y2="-29417" y1="-29001" x2="-30792" x1="-30073" fill="none"/><line y2="-30948" y1="-30532" x2="-29934" x1="-29215" fill="none"/><line y2="-31922" y1="-31275" x2="-30122" x1="-30122" fill="none"/><line y2="-28871" y1="-29510" x2="-27236" x1="-27684" fill="none"/><line y2="-28790" y1="-29429" x2="-27352" x1="-27799" fill="none"/><line y2="-32193" y1="-31055" x2="-26465" x1="-26465" fill="none"/><line y2="-32052" y1="-31200" x2="-26294" x1="-26294" fill="none"/><line y2="-31055" y1="-30489" x2="-26465" x1="-25480" fill="none"/><line y2="-32762" y1="-32193" x2="-25480" x1="-26465" fill="none"/><line y2="-30489" y1="-31055" x2="-25480" x1="-24494" fill="none"/><line y2="-30706" y1="-31133" x2="-25442" x1="-24702" fill="none"/><line y2="-32193" y1="-32762" x2="-24494" x1="-25480" fill="none"/><line y2="-32118" y1="-32546" x2="-24702" x1="-25442" fill="none"/><line y2="-31055" y1="-32193" x2="-24494" x1="-24494" fill="none"/><line y2="-29417" y1="-30555" x2="-30792" x1="-30792" fill="none"/><line y2="-29559" y1="-30411" x2="-30963" x1="-30963" fill="none"/><line y2="-28848" y1="-29417" x2="-31774" x1="-30792" fill="none"/><line y2="-30555" y1="-31122" x2="-30792" x1="-31774" fill="none"/><line y2="-29417" y1="-28848" x2="-32762" x1="-31774" fill="none"/><line y2="-29495" y1="-29068" x2="-32554" x1="-31815" fill="none"/><line y2="-31122" y1="-30555" x2="-31774" x1="-32762" fill="none"/><line y2="-30905" y1="-30477" x2="-31815" x1="-32554" fill="none"/><line y2="-30555" y1="-29417" x2="-32762" x1="-32762" fill="none"/><line y2="-29804" y1="-29911" x2="-26615" x1="-26525" fill="none"/><line y2="-29955" y1="-30039" x2="-26772" x1="-26700" fill="none"/><line y2="-30105" y1="-30168" x2="-26928" x1="-26875" fill="none"/><line y2="-30256" y1="-30296" x2="-27085" x1="-27050" fill="none"/><line y2="-30406" y1="-30425" x2="-27241" x1="-27225" fill="none"/><text y="-28432" xml:space="preserve" x="-27294" stroke="none" font-size="433.3333" font-family="sans-serif">O</text><text y="-28715" xml:space="preserve" x="-30038" stroke="none" font-size="433.3333" font-family="sans-serif">NH</text><text y="-30876" xml:space="preserve" x="-30275" stroke="none" font-size="433.3333" font-family="sans-serif">S</text><text y="-31962" xml:space="preserve" x="-30275" stroke="none" font-size="433.3333" font-family="sans-serif">CH</text><text y="-31873" xml:space="preserve" x="-29697" stroke="none" font-size="313.3333" font-family="sans-serif">3</text><text y="-31049" xml:space="preserve" x="-28426" stroke="none" font-size="433.3333" font-family="sans-serif">N</text><text y="-29290" xml:space="preserve" x="-29039" stroke="none" font-size="433.3333" font-family="sans-serif">N</text><text y="-30656" xml:space="preserve" x="-27525" stroke="none" font-style="italic" font-size="313.3333" font-family="sans-serif">S</text></g></g></svg>