<svg width="435.42" viewBox="0 0 14514 7180" text-rendering="auto" stroke-width="1" stroke-opacity="1" stroke-miterlimit="10" stroke-linejoin="miter" stroke-linecap="square" stroke-dashoffset="0" stroke-dasharray="none" stroke="black" shape-rendering="auto" image-rendering="auto" height="215.4" font-weight="normal" font-style="normal" font-size="12" font-family="'Dialog'" fill-opacity="1" fill="black" color-rendering="auto" color-interpolation="auto" xmlns="http://www.w3.org/2000/svg"><g><g stroke="white" fill="white"><rect y="0" x="0" width="14514" stroke="none" height="7180"/></g><g transform="translate(32866,32758)" text-rendering="geometricPrecision" stroke-width="44" stroke-linejoin="round" stroke-linecap="round"><line y2="-28663" y1="-29232" x2="-23226" x1="-24208" fill="none"/><line y2="-28588" y1="-29016" x2="-23434" x1="-24171" fill="none"/><line y2="-27525" y1="-28663" x2="-23226" x1="-23226" fill="none"/><line y2="-29232" y1="-28663" x2="-24208" x1="-25196" fill="none"/><line y2="-26959" y1="-27525" x2="-24208" x1="-23226" fill="none"/><line y2="-27175" y1="-27603" x2="-24171" x1="-23434" fill="none"/><line y2="-28663" y1="-27525" x2="-25196" x1="-25196" fill="none"/><line y2="-28522" y1="-27669" x2="-25026" x1="-25026" fill="none"/><line y2="-27525" y1="-26959" x2="-25196" x1="-24208" fill="none"/><line y2="-29186" y1="-28663" x2="-22319" x1="-23226" fill="none"/><line y2="-27002" y1="-27525" x2="-26104" x1="-25196" fill="none"/><line y2="-27305" y1="-27002" x2="-26632" x1="-26104" fill="none"/><line y2="-27002" y1="-27418" x2="-27918" x1="-27198" fill="none"/><line y2="-30015" y1="-29186" x2="-22319" x1="-22319" fill="none"/><line y2="-30758" y1="-30454" x2="-21412" x1="-21941" fill="none"/><line y2="-28834" y1="-29247" x2="-21565" x1="-22284" fill="none"/><line y2="-28709" y1="-29125" x2="-21634" x1="-22354" fill="none"/><line y2="-27525" y1="-27002" x2="-28825" x1="-27918" fill="none"/><line y2="-26173" y1="-27002" x2="-27848" x1="-27848" fill="none"/><line y2="-26173" y1="-27002" x2="-27987" x1="-27987" fill="none"/><line y2="-30758" y1="-30191" x2="-21412" x1="-20430" fill="none"/><line y2="-30836" y1="-30408" x2="-21204" x1="-20467" fill="none"/><line y2="-31896" y1="-30758" x2="-21412" x1="-21412" fill="none"/><line y2="-30191" y1="-30758" x2="-20430" x1="-19442" fill="none"/><line y2="-32465" y1="-31896" x2="-20430" x1="-21412" fill="none"/><line y2="-32248" y1="-31821" x2="-20467" x1="-21204" fill="none"/><line y2="-30758" y1="-31896" x2="-19442" x1="-19442" fill="none"/><line y2="-30902" y1="-31754" x2="-19612" x1="-19612" fill="none"/><line y2="-31896" y1="-32465" x2="-19442" x1="-20430" fill="none"/><line y2="-29362" y1="-30191" x2="-20430" x1="-20430" fill="none"/><line y2="-32312" y1="-31896" x2="-18722" x1="-19442" fill="none"/><line y2="-27002" y1="-27525" x2="-29732" x1="-28825" fill="none"/><line y2="-26947" y1="-27340" x2="-29550" x1="-28868" fill="none"/><line y2="-27525" y1="-27002" x2="-30639" x1="-29732" fill="none"/><line y2="-27525" y1="-28663" x2="-30639" x1="-30639" fill="none"/><line y2="-26959" y1="-27525" x2="-31627" x1="-30639" fill="none"/><line y2="-27175" y1="-27603" x2="-31590" x1="-30847" fill="none"/><line y2="-28663" y1="-29232" x2="-30639" x1="-31627" fill="none"/><line y2="-28585" y1="-29013" x2="-30847" x1="-31590" fill="none"/><line y2="-27418" y1="-26959" x2="-32422" x1="-31627" fill="none"/><line y2="-29232" y1="-28663" x2="-31627" x1="-32609" fill="none"/><line y2="-28663" y1="-27744" x2="-32609" x1="-32609" fill="none"/><line y2="-28548" y1="-27860" x2="-32439" x1="-32439" fill="none"/><text y="-30056" xml:space="preserve" x="-22472" stroke="none" font-size="433.3333" font-family="sans-serif">NH</text><text y="-28484" xml:space="preserve" x="-21565" stroke="none" font-size="433.3333" font-family="sans-serif">O</text><text y="-27346" xml:space="preserve" x="-27164" stroke="none" font-size="433.3333" font-family="sans-serif">NH</text><text y="-25774" xml:space="preserve" x="-28071" stroke="none" font-size="433.3333" font-family="sans-serif">O</text><text y="-28964" xml:space="preserve" x="-20580" stroke="none" font-size="433.3333" font-family="sans-serif">NH</text><text y="-28874" xml:space="preserve" x="-20002" stroke="none" font-size="313.3333" font-family="sans-serif">2</text><text y="-32242" xml:space="preserve" x="-18688" stroke="none" font-size="433.3333" font-family="sans-serif">F</text><text y="-27346" xml:space="preserve" x="-32762" stroke="none" font-size="433.3333" font-family="sans-serif">N</text><text y="-27470" xml:space="preserve" x="-29663" stroke="none" font-style="italic" font-size="313.3333" font-family="sans-serif">E</text></g></g></svg>