<svg width="323.7" viewBox="0 0 10790 7545" text-rendering="auto" stroke-width="1" stroke-opacity="1" stroke-miterlimit="10" stroke-linejoin="miter" stroke-linecap="square" stroke-dashoffset="0" stroke-dasharray="none" stroke="black" shape-rendering="auto" image-rendering="auto" height="226.35" font-weight="normal" font-style="normal" font-size="12" font-family="'Dialog'" fill-opacity="1" fill="black" color-rendering="auto" color-interpolation="auto" xmlns="http://www.w3.org/2000/svg"><g><g stroke="white" fill="white"><rect y="0" x="0" width="10790" stroke="none" height="7545"/></g><g transform="translate(32866,32866)" text-rendering="geometricPrecision" stroke-width="44" stroke-linejoin="round" stroke-linecap="round"><line y2="-27947" y1="-28522" x2="-26109" x1="-27092" fill="none"/><line y2="-28522" y1="-27947" x2="-27092" x1="-28074" fill="none"/><line y2="-29668" y1="-28522" x2="-27092" x1="-27092" fill="none"/><line y2="-27947" y1="-28522" x2="-26109" x1="-25127" fill="none"/><line y2="-26803" y1="-27947" x2="-26109" x1="-26109" fill="none"/><line y2="-26803" y1="-27947" x2="-28074" x1="-28074" fill="none"/><line y2="-27947" y1="-28522" x2="-28074" x1="-29056" fill="none"/><line y2="-30240" y1="-29668" x2="-26109" x1="-27092" fill="none"/><line y2="-29668" y1="-28522" x2="-25127" x1="-25127" fill="none"/><line y2="-28522" y1="-27947" x2="-25127" x1="-24145" fill="none"/><line y2="-26228" y1="-26803" x2="-27092" x1="-26109" fill="none"/><line y2="-26803" y1="-26228" x2="-28074" x1="-27092" fill="none"/><line y2="-26228" y1="-26803" x2="-29056" x1="-28074" fill="none"/><line y2="-28522" y1="-27947" x2="-29056" x1="-30041" fill="none"/><line y2="-29668" y1="-30240" x2="-25127" x1="-26109" fill="none"/><line y2="-29593" y1="-30021" x2="-25335" x1="-26072" fill="none"/><line y2="-30240" y1="-29668" x2="-24145" x1="-25127" fill="none"/><line y2="-27947" y1="-28522" x2="-24145" x1="-23163" fill="none"/><line y2="-26803" y1="-26228" x2="-30041" x1="-29056" fill="none"/><line y2="-27947" y1="-26803" x2="-30041" x1="-30041" fill="none"/><line y2="-29668" y1="-30240" x2="-23163" x1="-24145" fill="none"/><line y2="-31387" y1="-30240" x2="-24145" x1="-24145" fill="none"/><line y2="-28522" y1="-29668" x2="-23163" x1="-23163" fill="none"/><line y2="-29668" y1="-30240" x2="-23163" x1="-22180" fill="none"/><line y2="-31959" y1="-31387" x2="-23163" x1="-24145" fill="none"/><line y2="-30240" y1="-31387" x2="-22180" x1="-22180" fill="none"/><line y2="-31387" y1="-31959" x2="-22180" x1="-23163" fill="none"/><line y2="-25425" y1="-26228" x2="-29729" x1="-29056" fill="none"/><line y2="-25425" y1="-26228" x2="-28383" x1="-29056" fill="none"/><line y2="-32762" y1="-31959" x2="-22490" x1="-23163" fill="none"/><line y2="-32762" y1="-31959" x2="-23836" x1="-23163" fill="none"/><line y2="-26803" y1="-26387" x2="-31855" x1="-31136" fill="none"/><line y2="-26277" y1="-26803" x2="-32762" x1="-31855" fill="none"/><line y2="-27629" y1="-26803" x2="-31925" x1="-31925" fill="none"/><line y2="-27629" y1="-26803" x2="-31786" x1="-31786" fill="none"/><polygon stroke-width="1" stroke="none" points=" -26109 -27947 -26179 -28995 -26040 -28995"/><polygon stroke-width="1" points=" -26109 -27947 -26179 -28995 -26040 -28995" fill="none"/><polygon stroke-width="1" stroke="none" points=" -28074 -27947 -28143 -28995 -28004 -28995"/><polygon stroke-width="1" points=" -28074 -27947 -28143 -28995 -28004 -28995" fill="none"/><polygon stroke-width="1" stroke="none" points=" -23163 -29668 -23232 -30714 -23093 -30714"/><polygon stroke-width="1" points=" -23163 -29668 -23232 -30714 -23093 -30714" fill="none"/><polygon stroke-width="1" stroke="none" points=" -30041 -26803 -30723 -26326 -30795 -26444"/><polygon stroke-width="1" points=" -30041 -26803 -30723 -26326 -30795 -26444" fill="none"/><polygon stroke-width="1" stroke="none" points=" -24145 -30240 -24076 -29411 -24214 -29411"/><polygon stroke-width="1" points=" -24145 -30240 -24076 -29411 -24214 -29411" fill="none"/><line y2="-27473" y1="-27473" x2="-25196" x1="-25058" fill="none"/><line y2="-27690" y1="-27690" x2="-25182" x1="-25072" fill="none"/><line y2="-27906" y1="-27906" x2="-25167" x1="-25087" fill="none"/><line y2="-28123" y1="-28123" x2="-25153" x1="-25101" fill="none"/><line y2="-28340" y1="-28340" x2="-25139" x1="-25115" fill="none"/><line y2="-27692" y1="-27692" x2="-27161" x1="-27022" fill="none"/><line y2="-27909" y1="-27909" x2="-27143" x1="-27040" fill="none"/><line y2="-28125" y1="-28125" x2="-27125" x1="-27059" fill="none"/><line y2="-28342" y1="-28342" x2="-27107" x1="-27077" fill="none"/><line y2="-25974" y1="-25974" x2="-28143" x1="-28004" fill="none"/><line y2="-26191" y1="-26191" x2="-28125" x1="-28022" fill="none"/><line y2="-26407" y1="-26407" x2="-28107" x1="-28041" fill="none"/><line y2="-26624" y1="-26624" x2="-28089" x1="-28059" fill="none"/><text y="-26098" xml:space="preserve" x="-31098" stroke="none" font-size="433.3333" font-family="sans-serif">O</text><text y="-27669" xml:space="preserve" x="-32006" stroke="none" font-size="433.3333" font-family="sans-serif">O</text><text y="-27294" xml:space="preserve" x="-27245" stroke="none" font-size="433.3333" font-family="sans-serif">H</text><text y="-29013" xml:space="preserve" x="-24298" stroke="none" font-size="433.3333" font-family="sans-serif">H</text><text y="-25575" xml:space="preserve" x="-28227" stroke="none" font-size="433.3333" font-family="sans-serif">H</text><text y="-28484" xml:space="preserve" x="-27493" stroke="none" font-style="italic" font-size="313.3333" font-family="sans-serif">R</text><text y="-27626" xml:space="preserve" x="-26014" stroke="none" font-style="italic" font-size="313.3333" font-family="sans-serif">R</text><text y="-27626" xml:space="preserve" x="-27978" stroke="none" font-style="italic" font-size="313.3333" font-family="sans-serif">R</text><text y="-28484" xml:space="preserve" x="-25529" stroke="none" font-style="italic" font-size="313.3333" font-family="sans-serif">S</text><text y="-26768" xml:space="preserve" x="-28475" stroke="none" font-style="italic" font-size="313.3333" font-family="sans-serif">R</text><text y="-30206" xml:space="preserve" x="-24546" stroke="none" font-style="italic" font-size="313.3333" font-family="sans-serif">R</text><text y="-26768" xml:space="preserve" x="-29943" stroke="none" font-style="italic" font-size="313.3333" font-family="sans-serif">S</text><text y="-29345" xml:space="preserve" x="-23067" stroke="none" font-style="italic" font-size="313.3333" font-family="sans-serif">R</text></g></g></svg>