<svg width="273.24" viewBox="0 0 9108 7768" text-rendering="auto" stroke-width="1" stroke-opacity="1" stroke-miterlimit="10" stroke-linejoin="miter" stroke-linecap="square" stroke-dashoffset="0" stroke-dasharray="none" stroke="black" shape-rendering="auto" image-rendering="auto" height="233.04" font-weight="normal" font-style="normal" font-size="12" font-family="'Dialog'" fill-opacity="1" fill="black" color-rendering="auto" color-interpolation="auto" xmlns="http://www.w3.org/2000/svg"><g><g stroke="white" fill="white"><rect y="0" x="0" width="9108" stroke="none" height="7768"/></g><g transform="translate(32866,32866)" text-rendering="geometricPrecision" stroke-width="44" stroke-linejoin="round" stroke-linecap="round"><line y2="-29472" y1="-28334" x2="-26797" x1="-26771" fill="none"/><line y2="-27753" y1="-28334" x2="-27747" x1="-26771" fill="none"/><line y2="-28334" y1="-27779" x2="-26771" x1="-25768" fill="none"/><line y2="-30053" y1="-29472" x2="-25818" x1="-26797" fill="none"/><line y2="-29472" y1="-30030" x2="-26797" x1="-27799" fill="none"/><line y2="-28311" y1="-27753" x2="-28750" x1="-27747" fill="none"/><line y2="-26618" y1="-27753" x2="-27744" x1="-27747" fill="none"/><line y2="-27779" y1="-28360" x2="-25768" x1="-24792" fill="none"/><line y2="-29498" y1="-30053" x2="-24815" x1="-25818" fill="none"/><line y2="-31191" y1="-30053" x2="-25844" x1="-25818" fill="none"/><line y2="-30030" y1="-29446" x2="-27799" x1="-28776" fill="none"/><line y2="-29446" y1="-28311" x2="-28776" x1="-28750" fill="none"/><line y2="-28311" y1="-27721" x2="-28750" x1="-29732" fill="none"/><line y2="-26031" y1="-26618" x2="-28730" x1="-27744" fill="none"/><line y2="-28360" y1="-29498" x2="-24792" x1="-24815" fill="none"/><line y2="-29498" y1="-31217" x2="-24815" x1="-23862" fill="none"/><line y2="-31772" y1="-31191" x2="-24864" x1="-25844" fill="none"/><line y2="-26583" y1="-27721" x2="-29723" x1="-29732" fill="none"/><line y2="-27721" y1="-28290" x2="-29732" x1="-30729" fill="none"/><line y2="-26583" y1="-26031" x2="-29723" x1="-28730" fill="none"/><line y2="-31217" y1="-31772" x2="-23862" x1="-24864" fill="none"/><line y2="-26014" y1="-26583" x2="-30708" x1="-29723" fill="none"/><line y2="-28290" y1="-27721" x2="-30729" x1="-31714" fill="none"/><line y2="-26583" y1="-26014" x2="-31702" x1="-30708" fill="none"/><line y2="-27721" y1="-26583" x2="-31714" x1="-31702" fill="none"/><line y2="-25202" y1="-26014" x2="-30050" x1="-30708" fill="none"/><line y2="-25214" y1="-26014" x2="-31382" x1="-30708" fill="none"/><line y2="-26106" y1="-26522" x2="-32387" x1="-31668" fill="none"/><line y2="-26231" y1="-26644" x2="-32456" x1="-31737" fill="none"/><line y2="-31191" y1="-31714" x2="-27658" x1="-26751" fill="none"/><line y2="-32762" y1="-31714" x2="-26751" x1="-26751" fill="none"/><line y2="-32762" y1="-31717" x2="-26612" x1="-26612" fill="none"/><polygon stroke-width="1" stroke="none" points=" -27747 -27753 -27817 -28802 -27681 -28802"/><polygon stroke-width="1" points=" -27747 -27753 -27817 -28802 -27681 -28802" fill="none"/><polygon stroke-width="1" stroke="none" points=" -24815 -29498 -24884 -30544 -24746 -30547"/><polygon stroke-width="1" points=" -24815 -29498 -24884 -30544 -24746 -30547" fill="none"/><polygon stroke-width="1" stroke="none" points=" -29732 -27721 -29801 -28767 -29663 -28770"/><polygon stroke-width="1" points=" -29732 -27721 -29801 -28767 -29663 -28770" fill="none"/><polygon stroke-width="1" stroke="none" points=" -26797 -29472 -26866 -30301 -26728 -30301"/><polygon stroke-width="1" points=" -26797 -29472 -26866 -30301 -26728 -30301" fill="none"/><line y2="-31774" y1="-31656" x2="-26716" x1="-26785" fill="none"/><line y2="-31653" y1="-31560" x2="-26536" x1="-26590" fill="none"/><line y2="-31533" y1="-31464" x2="-26355" x1="-26396" fill="none"/><line y2="-31412" y1="-31367" x2="-26175" x1="-26201" fill="none"/><line y2="-31291" y1="-31271" x2="-25994" x1="-26006" fill="none"/><line y2="-27285" y1="-27288" x2="-26840" x1="-26702" fill="none"/><line y2="-27502" y1="-27504" x2="-26826" x1="-26716" fill="none"/><line y2="-27719" y1="-27721" x2="-26811" x1="-26731" fill="none"/><line y2="-27936" y1="-27937" x2="-26797" x1="-26745" fill="none"/><line y2="-28153" y1="-28153" x2="-26783" x1="-26759" fill="none"/><line y2="-27482" y1="-27482" x2="-28819" x1="-28683" fill="none"/><line y2="-27699" y1="-27699" x2="-28801" x1="-28701" fill="none"/><line y2="-27915" y1="-27915" x2="-28783" x1="-28718" fill="none"/><line y2="-28132" y1="-28132" x2="-28765" x1="-28736" fill="none"/><line y2="-29224" y1="-29226" x2="-25887" x1="-25748" fill="none"/><line y2="-29441" y1="-29442" x2="-25869" x1="-25766" fill="none"/><line y2="-29658" y1="-29659" x2="-25851" x1="-25785" fill="none"/><line y2="-29875" y1="-29875" x2="-25833" x1="-25803" fill="none"/><line y2="-25754" y1="-25754" x2="-29793" x1="-29654" fill="none"/><line y2="-25971" y1="-25971" x2="-29775" x1="-29672" fill="none"/><line y2="-26187" y1="-26187" x2="-29756" x1="-29690" fill="none"/><line y2="-26404" y1="-26404" x2="-29738" x1="-29708" fill="none"/><text y="-25881" xml:space="preserve" x="-32762" stroke="none" font-size="433.3333" font-family="sans-serif">O</text><text y="-30342" xml:space="preserve" x="-26947" stroke="none" font-size="433.3333" font-family="sans-serif">H</text><text y="-27083" xml:space="preserve" x="-28903" stroke="none" font-size="433.3333" font-family="sans-serif">H</text><text y="-28828" xml:space="preserve" x="-25971" stroke="none" font-size="433.3333" font-family="sans-serif">H</text><text y="-25355" xml:space="preserve" x="-29876" stroke="none" font-size="433.3333" font-family="sans-serif">H</text><text y="-28276" xml:space="preserve" x="-27184" stroke="none" font-style="italic" font-size="313.3333" font-family="sans-serif">R</text><text y="-29148" xml:space="preserve" x="-26699" stroke="none" font-style="italic" font-size="313.3333" font-family="sans-serif">R</text><text y="-27453" xml:space="preserve" x="-27640" stroke="none" font-style="italic" font-size="313.3333" font-family="sans-serif">R</text><text y="-30018" xml:space="preserve" x="-26219" stroke="none" font-style="italic" font-size="313.3333" font-family="sans-serif">R</text><text y="-28273" xml:space="preserve" x="-28654" stroke="none" font-style="italic" font-size="313.3333" font-family="sans-serif">R</text><text y="-29270" xml:space="preserve" x="-24685" stroke="none" font-style="italic" font-size="313.3333" font-family="sans-serif">R</text><text y="-30867" xml:space="preserve" x="-25748" stroke="none" font-style="italic" font-size="313.3333" font-family="sans-serif">R</text><text y="-27398" xml:space="preserve" x="-29637" stroke="none" font-style="italic" font-size="313.3333" font-family="sans-serif">R</text><text y="-26548" xml:space="preserve" x="-29628" stroke="none" font-style="italic" font-size="313.3333" font-family="sans-serif">R</text></g></g></svg>