<svg width="297.33" viewBox="0 0 9911 7700" text-rendering="auto" stroke-width="1" stroke-opacity="1" stroke-miterlimit="10" stroke-linejoin="miter" stroke-linecap="square" stroke-dashoffset="0" stroke-dasharray="none" stroke="black" shape-rendering="auto" image-rendering="auto" height="231.0" font-weight="normal" font-style="normal" font-size="12" font-family="'Dialog'" fill-opacity="1" fill="black" color-rendering="auto" color-interpolation="auto" xmlns="http://www.w3.org/2000/svg"><g><g stroke="white" fill="white"><rect y="0" x="0" width="9911" stroke="none" height="7700"/></g><g transform="translate(32866,32758)" text-rendering="geometricPrecision" stroke-width="44" stroke-linejoin="round" stroke-linecap="round"><line y2="-28143" y1="-27224" x2="-29810" x1="-29810" fill="none"/><line y2="-27005" y1="-27005" x2="-29622" x1="-27860" fill="none"/><line y2="-27005" y1="-27005" x2="-30948" x1="-29998" fill="none"/><line y2="-28143" y1="-28143" x2="-29810" x1="-30948" fill="none"/><line y2="-28712" y1="-28143" x2="-28836" x1="-29810" fill="none"/><line y2="-27005" y1="-28143" x2="-27860" x1="-27860" fill="none"/><line y2="-27146" y1="-28002" x2="-28030" x1="-28030" fill="none"/><line y2="-28143" y1="-27005" x2="-30948" x1="-30948" fill="none"/><line y2="-28143" y1="-28712" x2="-27860" x1="-28836" fill="none"/><line y2="-28556" y1="-28143" x2="-27141" x1="-27860" fill="none"/><line y2="-29715" y1="-28886" x2="-26953" x1="-26953" fill="none"/><line y2="-28666" y1="-28143" x2="-31855" x1="-30948" fill="none"/><line y2="-26482" y1="-27005" x2="-26953" x1="-27860" fill="none"/><line y2="-26404" y1="-26956" x2="-31451" x1="-30899" fill="none"/><line y2="-26502" y1="-27054" x2="-31549" x1="-30997" fill="none"/><line y2="-30850" y1="-29715" x2="-26953" x1="-26953" fill="none"/><line y2="-29715" y1="-29715" x2="-26953" x1="-25818" fill="none"/><line y2="-30850" y1="-30850" x2="-26005" x1="-26953" fill="none"/><line y2="-29715" y1="-30630" x2="-25818" x1="-25818" fill="none"/><line y2="-31358" y1="-30954" x2="-24899" x1="-25627" fill="none"/><line y2="-28143" y1="-28666" x2="-32762" x1="-31855" fill="none"/><line y2="-26898" y1="-26482" x2="-26234" x1="-26953" fill="none"/><line y2="-25653" y1="-26482" x2="-26884" x1="-26884" fill="none"/><line y2="-25653" y1="-26482" x2="-27022" x1="-27022" fill="none"/><line y2="-31358" y1="-30801" x2="-24899" x1="-24145" fill="none"/><line y2="-31425" y1="-31009" x2="-24705" x1="-24139" fill="none"/><line y2="-32202" y1="-31358" x2="-24639" x1="-24899" fill="none"/><line y2="-30807" y1="-31358" x2="-23769" x1="-23059" fill="none"/><line y2="-32422" y1="-32422" x2="-23426" x1="-24385" fill="none"/><line y2="-31358" y1="-32422" x2="-23059" x1="-23426" fill="none"/><polygon stroke-width="1" stroke="none" points=" -28836 -28712 -28903 -29758 -28767 -29758"/><polygon stroke-width="1" points=" -28836 -28712 -28903 -29758 -28767 -29758" fill="none"/><polygon stroke-width="1" stroke="none" points=" -30948 -28143 -30801 -28952 -30668 -28917"/><polygon stroke-width="1" points=" -30948 -28143 -30801 -28952 -30668 -28917" fill="none"/><polygon stroke-width="1" stroke="none" points=" -31855 -28666 -31922 -29495 -31786 -29495"/><polygon stroke-width="1" points=" -31855 -28666 -31922 -29495 -31786 -29495" fill="none"/><line y2="-28972" y1="-28969" x2="-29741" x1="-29879" fill="none"/><line y2="-28755" y1="-28753" x2="-29759" x1="-29861" fill="none"/><line y2="-28538" y1="-28536" x2="-29777" x1="-29843" fill="none"/><line y2="-28321" y1="-28320" x2="-29795" x1="-29825" fill="none"/><text y="-26826" xml:space="preserve" x="-26199" stroke="none" font-size="433.3333" font-family="sans-serif">OH</text><text y="-25254" xml:space="preserve" x="-27106" stroke="none" font-size="433.3333" font-family="sans-serif">O</text><text y="-26086" xml:space="preserve" x="-31841" stroke="none" font-size="433.3333" font-family="sans-serif">O</text><text y="-29536" xml:space="preserve" x="-32006" stroke="none" font-size="433.3333" font-family="sans-serif">OH</text><text y="-28487" xml:space="preserve" x="-27106" stroke="none" font-size="433.3333" font-family="sans-serif">S</text><text y="-26826" xml:space="preserve" x="-29963" stroke="none" font-size="433.3333" font-family="sans-serif">N</text><text y="-30671" xml:space="preserve" x="-25968" stroke="none" font-size="433.3333" font-family="sans-serif">N</text><text y="-30483" xml:space="preserve" x="-24110" stroke="none" font-size="433.3333" font-family="sans-serif">N</text><text y="-32242" xml:space="preserve" x="-24726" stroke="none" font-size="433.3333" font-family="sans-serif">S</text><text y="-29013" xml:space="preserve" x="-29963" stroke="none" font-size="433.3333" font-family="sans-serif">H</text><text y="-28975" xml:space="preserve" x="-30827" stroke="none" font-size="433.3333" font-family="sans-serif">H</text><text y="-28184" xml:space="preserve" x="-32006" stroke="none" font-style="italic" font-size="313.3333" font-family="sans-serif">R</text><text y="-27820" xml:space="preserve" x="-29712" stroke="none" font-style="italic" font-size="313.3333" font-family="sans-serif">S</text><text y="-27820" xml:space="preserve" x="-31347" stroke="none" font-style="italic" font-size="313.3333" font-family="sans-serif">S</text><text y="-28230" xml:space="preserve" x="-28987" stroke="none" font-style="italic" font-size="313.3333" font-family="sans-serif">R</text></g></g></svg>