<svg width="257.19" viewBox="0 0 8573 5965" text-rendering="auto" stroke-width="1" stroke-opacity="1" stroke-miterlimit="10" stroke-linejoin="miter" stroke-linecap="square" stroke-dashoffset="0" stroke-dasharray="none" stroke="black" shape-rendering="auto" image-rendering="auto" height="178.95" font-weight="normal" font-style="normal" font-size="12" font-family="'Dialog'" fill-opacity="1" fill="black" color-rendering="auto" color-interpolation="auto" xmlns="http://www.w3.org/2000/svg"><g><g stroke="white" fill="white"><rect y="0" x="0" width="8573" stroke="none" height="5965"/></g><g transform="translate(32866,32758)" text-rendering="geometricPrecision" stroke-width="44" stroke-linejoin="round" stroke-linecap="round"><line y2="-29417" y1="-30567" x2="-29267" x1="-28825" fill="none"/><line y2="-31803" y1="-30567" x2="-28825" x1="-28825" fill="none"/><line y2="-31647" y1="-30720" x2="-28654" x1="-28654" fill="none"/><line y2="-30567" y1="-29949" x2="-28825" x1="-27765" fill="none"/><line y2="-29417" y1="-29417" x2="-30318" x1="-29267" fill="none"/><line y2="-29588" y1="-29588" x2="-30186" x1="-29400" fill="none"/><line y2="-32422" y1="-31803" x2="-27765" x1="-28825" fill="none"/><line y2="-31803" y1="-32422" x2="-28825" x1="-29888" fill="none"/><line y2="-29949" y1="-30567" x2="-27765" x1="-26704" fill="none"/><line y2="-30171" y1="-30636" x2="-27718" x1="-26924" fill="none"/><line y2="-30347" y1="-29637" x2="-30864" x1="-30590" fill="none"/><line y2="-31803" y1="-32422" x2="-26704" x1="-27765" fill="none"/><line y2="-31734" y1="-32199" x2="-26924" x1="-27718" fill="none"/><line y2="-32422" y1="-31803" x2="-29888" x1="-30948" fill="none"/><line y2="-31803" y1="-30567" x2="-26704" x1="-26704" fill="none"/><line y2="-30567" y1="-30567" x2="-26704" x1="-24769" fill="none"/><line y2="-31803" y1="-30786" x2="-30948" x1="-30948" fill="none"/><line y2="-32312" y1="-31803" x2="-25832" x1="-26704" fill="none"/><line y2="-30786" y1="-31803" x2="-24581" x1="-24581" fill="none"/><line y2="-31803" y1="-32312" x2="-24581" x1="-25456" fill="none"/><line y2="-28894" y1="-29417" x2="-28360" x1="-29267" fill="none"/><line y2="-30041" y1="-30457" x2="-31855" x1="-31136" fill="none"/><line y2="-28894" y1="-27756" x2="-28360" x1="-28360" fill="none"/><line y2="-28750" y1="-27898" x2="-28192" x1="-28192" fill="none"/><line y2="-29463" y1="-28894" x2="-27375" x1="-28360" fill="none"/><line y2="-27756" y1="-27187" x2="-28360" x1="-27375" fill="none"/><line y2="-28894" y1="-29463" x2="-26390" x1="-27375" fill="none"/><line y2="-28816" y1="-29244" x2="-26598" x1="-27337" fill="none"/><line y2="-27187" y1="-27756" x2="-27375" x1="-26390" fill="none"/><line y2="-27404" y1="-27831" x2="-27337" x1="-26598" fill="none"/><line y2="-27756" y1="-28894" x2="-26390" x1="-26390" fill="none"/><line y2="-27340" y1="-27756" x2="-25673" x1="-26390" fill="none"/><line y2="-30567" y1="-30041" x2="-32762" x1="-31855" fill="none"/><line y2="-29215" y1="-30041" x2="-31786" x1="-31786" fill="none"/><line y2="-29215" y1="-30041" x2="-31925" x1="-31925" fill="none"/><line y2="-32387" y1="-32266" x2="-31821" x1="-31890" fill="none"/><line y2="-32266" y1="-32170" x2="-31640" x1="-31695" fill="none"/><line y2="-32145" y1="-32074" x2="-31460" x1="-31500" fill="none"/><line y2="-32025" y1="-31979" x2="-31279" x1="-31306" fill="none"/><line y2="-31904" y1="-31883" x2="-31099" x1="-31111" fill="none"/><text y="-28816" xml:space="preserve" x="-32006" stroke="none" font-size="433.3333" font-family="sans-serif">O</text><text y="-27054" xml:space="preserve" x="-25636" stroke="none" font-size="433.3333" font-family="sans-serif">NH</text><text y="-26964" xml:space="preserve" x="-25058" stroke="none" font-size="313.3333" font-family="sans-serif">2</text><text y="-29238" xml:space="preserve" x="-30659" stroke="none" font-size="433.3333" font-family="sans-serif">N</text><text y="-30388" xml:space="preserve" x="-31098" stroke="none" font-size="433.3333" font-family="sans-serif">N</text><text y="-30388" xml:space="preserve" x="-24734" stroke="none" font-size="433.3333" font-family="sans-serif">O</text><text y="-32242" xml:space="preserve" x="-25794" stroke="none" font-size="433.3333" font-family="sans-serif">O</text><text y="-31480" xml:space="preserve" x="-30853" stroke="none" font-style="italic" font-size="313.3333" font-family="sans-serif">R</text></g></g></svg>