<svg width="191.16" viewBox="0 0 6372 6906" text-rendering="auto" stroke-width="1" stroke-opacity="1" stroke-miterlimit="10" stroke-linejoin="miter" stroke-linecap="square" stroke-dashoffset="0" stroke-dasharray="none" stroke="black" shape-rendering="auto" image-rendering="auto" height="207.18" font-weight="normal" font-style="normal" font-size="12" font-family="'Dialog'" fill-opacity="1" fill="black" color-rendering="auto" color-interpolation="auto" xmlns="http://www.w3.org/2000/svg"><g><g stroke="white" fill="white"><rect y="0" x="0" width="6372" stroke="none" height="6906"/></g><g transform="translate(32866,32758)" text-rendering="geometricPrecision" stroke-width="44" stroke-linejoin="round" stroke-linecap="round"><line y2="-27574" y1="-28709" x2="-29813" x1="-29813" fill="none"/><line y2="-28709" y1="-29278" x2="-29813" x1="-30795" fill="none"/><line y2="-29278" y1="-28709" x2="-28825" x1="-29813" fill="none"/><line y2="-29062" y1="-28634" x2="-28862" x1="-29605" fill="none"/><line y2="-27574" y1="-27574" x2="-29813" x1="-27840" fill="none"/><line y2="-27005" y1="-27574" x2="-30795" x1="-29813" fill="none"/><line y2="-29278" y1="-28709" x2="-30795" x1="-31783" fill="none"/><line y2="-28709" y1="-29278" x2="-27840" x1="-28825" fill="none"/><line y2="-27574" y1="-28709" x2="-27840" x1="-27840" fill="none"/><line y2="-27574" y1="-27005" x2="-31783" x1="-30795" fill="none"/><line y2="-28709" y1="-27574" x2="-31783" x1="-31783" fill="none"/><line y2="-30327" y1="-29278" x2="-28825" x1="-28825" fill="none"/><line y2="-30850" y1="-30327" x2="-31702" x1="-30795" fill="none"/><line y2="-30665" y1="-30272" x2="-31659" x1="-30980" fill="none"/><line y2="-31899" y1="-30850" x2="-31702" x1="-31702" fill="none"/><line y2="-30327" y1="-30850" x2="-32609" x1="-31702" fill="none"/><line y2="-32202" y1="-31899" x2="-32231" x1="-31702" fill="none"/><line y2="-32375" y1="-31959" x2="-31018" x1="-31737" fill="none"/><line y2="-32254" y1="-31838" x2="-30948" x1="-31668" fill="none"/><polygon stroke-width="1" stroke="none" points=" -30795 -29278 -30864 -30327 -30726 -30327"/><polygon stroke-width="1" points=" -30795 -29278 -30864 -30327 -30726 -30327" fill="none"/><polygon stroke-width="1" stroke="none" points=" -27840 -27574 -27239 -27068 -27337 -26970"/><polygon stroke-width="1" points=" -27840 -27574 -27239 -27068 -27337 -26970" fill="none"/><polygon stroke-width="1" stroke="none" points=" -29813 -27574 -29744 -26745 -29882 -26745"/><polygon stroke-width="1" points=" -29813 -27574 -29744 -26745 -29882 -26745" fill="none"/><line y2="-25956" y1="-25956" x2="-30864" x1="-30726" fill="none"/><line y2="-26173" y1="-26173" x2="-30850" x1="-30740" fill="none"/><line y2="-26389" y1="-26389" x2="-30835" x1="-30755" fill="none"/><line y2="-26606" y1="-26606" x2="-30821" x1="-30769" fill="none"/><line y2="-26823" y1="-26823" x2="-30807" x1="-30783" fill="none"/><text y="-32242" xml:space="preserve" x="-32762" stroke="none" font-size="433.3333" font-family="sans-serif">OH</text><text y="-32242" xml:space="preserve" x="-30948" stroke="none" font-size="433.3333" font-family="sans-serif">O</text><text y="-26652" xml:space="preserve" x="-27253" stroke="none" font-size="433.3333" font-family="sans-serif">OH</text><text y="-26346" xml:space="preserve" x="-29963" stroke="none" font-size="433.3333" font-family="sans-serif">H</text><text y="-29960" xml:space="preserve" x="-31659" stroke="none" font-style="italic" font-size="313.3333" font-family="sans-serif">E</text><text y="-27539" xml:space="preserve" x="-30214" stroke="none" font-style="italic" font-size="313.3333" font-family="sans-serif">R</text><text y="-28799" xml:space="preserve" x="-30948" stroke="none" font-style="italic" font-size="313.3333" font-family="sans-serif">S</text><text y="-27669" xml:space="preserve" x="-28238" stroke="none" font-style="italic" font-size="313.3333" font-family="sans-serif">R</text><text y="-27129" xml:space="preserve" x="-30948" stroke="none" font-style="italic" font-size="313.3333" font-family="sans-serif">R</text></g></g></svg>