<svg width="183.45" viewBox="0 0 6115 2994" text-rendering="auto" stroke-width="1" stroke-opacity="1" stroke-miterlimit="10" stroke-linejoin="miter" stroke-linecap="square" stroke-dashoffset="0" stroke-dasharray="none" stroke="black" shape-rendering="auto" image-rendering="auto" height="89.82" font-weight="normal" font-style="normal" font-size="12" font-family="'Dialog'" fill-opacity="1" fill="black" color-rendering="auto" color-interpolation="auto" xmlns="http://www.w3.org/2000/svg"><g><g stroke="white" fill="white"><rect y="0" x="0" width="6115" stroke="none" height="2994"/></g><g transform="translate(32866,32758)" text-rendering="geometricPrecision" stroke-width="44" stroke-linejoin="round" stroke-linecap="round"><line y2="-31997" y1="-30850" x2="-28984" x1="-28984" fill="none"/><line y2="-30850" y1="-30850" x2="-28712" x1="-28984" fill="none"/><line y2="-30850" y1="-30850" x2="-27837" x1="-28435" fill="none"/><line y2="-30850" y1="-29868" x2="-28984" x1="-29556" fill="none"/><line y2="-32569" y1="-31997" x2="-28002" x1="-28984" fill="none"/><line y2="-31422" y1="-30850" x2="-26855" x1="-27837" fill="none"/><line y2="-29868" y1="-30440" x2="-29556" x1="-28574" fill="none"/><line y2="-31587" y1="-32569" x2="-28574" x1="-28002" fill="none"/><line y2="-32364" y1="-32569" x2="-27057" x1="-28002" fill="none"/><line y2="-31422" y1="-32364" x2="-26855" x1="-27057" fill="none"/><line y2="-30440" y1="-31422" x2="-27427" x1="-26855" fill="none"/><line y2="-31587" y1="-30440" x2="-28574" x1="-28574" fill="none"/><line y2="-30440" y1="-30440" x2="-28574" x1="-27427" fill="none"/><line y2="-31373" y1="-30850" x2="-29891" x1="-28984" fill="none"/><line y2="-30850" y1="-31373" x2="-30798" x1="-29891" fill="none"/><line y2="-31373" y1="-30850" x2="-31705" x1="-30798" fill="none"/><line y2="-31070" y1="-31373" x2="-32231" x1="-31705" fill="none"/><line y2="-32202" y1="-31373" x2="-31774" x1="-31774" fill="none"/><line y2="-32202" y1="-31373" x2="-31636" x1="-31636" fill="none"/><text y="-30671" xml:space="preserve" x="-32762" stroke="none" font-size="433.3333" font-family="sans-serif">OH</text><text y="-32242" xml:space="preserve" x="-31855" stroke="none" font-size="433.3333" font-family="sans-serif">O</text></g></g></svg>