<svg width="129.36" viewBox="0 0 4312 4447" text-rendering="auto" stroke-width="1" stroke-opacity="1" stroke-miterlimit="10" stroke-linejoin="miter" stroke-linecap="square" stroke-dashoffset="0" stroke-dasharray="none" stroke="black" shape-rendering="auto" image-rendering="auto" height="133.41" font-weight="normal" font-style="normal" font-size="12" font-family="'Dialog'" fill-opacity="1" fill="black" color-rendering="auto" color-interpolation="auto" xmlns="http://www.w3.org/2000/svg"><g><g stroke="white" fill="white"><rect y="0" x="0" width="4312" stroke="none" height="4447"/></g><g transform="translate(32866,32758)" text-rendering="geometricPrecision" stroke-width="44" stroke-linejoin="round" stroke-linecap="round"><line y2="-30688" y1="-30119" x2="-29807" x1="-30795" fill="none"/><line y2="-30472" y1="-30044" x2="-29848" x1="-30587" fill="none"/><line y2="-30229" y1="-30688" x2="-29013" x1="-29807" fill="none"/><line y2="-30119" y1="-28984" x2="-30795" x1="-30795" fill="none"/><line y2="-28984" y1="-29900" x2="-28825" x1="-28825" fill="none"/><line y2="-29096" y1="-29787" x2="-28995" x1="-28995" fill="none"/><line y2="-28984" y1="-28415" x2="-30795" x1="-29807" fill="none"/><line y2="-29059" y1="-28631" x2="-30587" x1="-29848" fill="none"/><line y2="-28415" y1="-28984" x2="-29807" x1="-28825" fill="none"/><line y2="-30645" y1="-30119" x2="-31702" x1="-30795" fill="none"/><line y2="-31517" y1="-30688" x2="-29807" x1="-29807" fill="none"/><line y2="-32092" y1="-31844" x2="-30425" x1="-29998" fill="none"/><line y2="-30339" y1="-30645" x2="-32231" x1="-31702" fill="none"/><line y2="-31471" y1="-30645" x2="-31772" x1="-31772" fill="none"/><line y2="-31471" y1="-30645" x2="-31633" x1="-31633" fill="none"/><text y="-31558" xml:space="preserve" x="-29960" stroke="none" font-size="433.3333" font-family="sans-serif">O</text><text y="-32242" xml:space="preserve" x="-31150" stroke="none" font-size="433.3333" font-family="sans-serif">CH</text><text y="-32153" xml:space="preserve" x="-30573" stroke="none" font-size="313.3333" font-family="sans-serif">3</text><text y="-29940" xml:space="preserve" x="-32762" stroke="none" font-size="433.3333" font-family="sans-serif">OH</text><text y="-31512" xml:space="preserve" x="-31855" stroke="none" font-size="433.3333" font-family="sans-serif">O</text><text y="-29940" xml:space="preserve" x="-28978" stroke="none" font-size="433.3333" font-family="sans-serif">N</text></g></g></svg>