<svg width="196.08" viewBox="0 0 6536 4204" text-rendering="auto" stroke-width="1" stroke-opacity="1" stroke-miterlimit="10" stroke-linejoin="miter" stroke-linecap="square" stroke-dashoffset="0" stroke-dasharray="none" stroke="black" shape-rendering="auto" image-rendering="auto" height="126.12" font-weight="normal" font-style="normal" font-size="12" font-family="'Dialog'" fill-opacity="1" fill="black" color-rendering="auto" color-interpolation="auto" xmlns="http://www.w3.org/2000/svg"><g><g stroke="white" fill="white"><rect y="0" x="0" width="6536" stroke="none" height="4204"/></g><g transform="translate(32866,32758)" text-rendering="geometricPrecision" stroke-width="44" stroke-linejoin="round" stroke-linecap="round"><line y2="-31812" y1="-30587" x2="-28698" x1="-28698" fill="none"/><line y2="-29975" y1="-30587" x2="-29746" x1="-28698" fill="none"/><line y2="-30200" y1="-30659" x2="-29700" x1="-28914" fill="none"/><line y2="-30587" y1="-29975" x2="-28698" x1="-27649" fill="none"/><line y2="-31812" y1="-32422" x2="-28698" x1="-29746" fill="none"/><line y2="-31740" y1="-32199" x2="-28914" x1="-29700" fill="none"/><line y2="-32312" y1="-31812" x2="-27837" x1="-28698" fill="none"/><line y2="-30587" y1="-29975" x2="-30795" x1="-29746" fill="none"/><line y2="-29975" y1="-30477" x2="-27649" x1="-26788" fill="none"/><line y2="-32422" y1="-31812" x2="-29746" x1="-30795" fill="none"/><line y2="-31812" y1="-32202" x2="-26600" x1="-27274" fill="none"/><line y2="-31812" y1="-30587" x2="-30795" x1="-30795" fill="none"/><line y2="-31659" y1="-30740" x2="-30625" x1="-30625" fill="none"/><line y2="-30807" y1="-31812" x2="-26600" x1="-26600" fill="none"/><line y2="-30934" y1="-31685" x2="-26771" x1="-26771" fill="none"/><line y2="-30064" y1="-30587" x2="-31702" x1="-30795" fill="none"/><line y2="-29148" y1="-29975" x2="-27580" x1="-27580" fill="none"/><line y2="-29148" y1="-29975" x2="-27718" x1="-27718" fill="none"/><line y2="-30480" y1="-30064" x2="-32422" x1="-31702" fill="none"/><line y2="-29377" y1="-30064" x2="-32098" x1="-31702" fill="none"/><line y2="-29377" y1="-30064" x2="-31304" x1="-31702" fill="none"/><text y="-28750" xml:space="preserve" x="-27802" stroke="none" font-size="433.3333" font-family="sans-serif">O</text><text y="-30408" xml:space="preserve" x="-32762" stroke="none" font-size="433.3333" font-family="sans-serif">F</text><text y="-28978" xml:space="preserve" x="-32378" stroke="none" font-size="433.3333" font-family="sans-serif">F</text><text y="-28978" xml:space="preserve" x="-31330" stroke="none" font-size="433.3333" font-family="sans-serif">F</text><text y="-32242" xml:space="preserve" x="-27802" stroke="none" font-size="433.3333" font-family="sans-serif">NH</text><text y="-30408" xml:space="preserve" x="-26754" stroke="none" font-size="433.3333" font-family="sans-serif">N</text></g></g></svg>