<svg width="187.08" viewBox="0 0 6236 3763" text-rendering="auto" stroke-width="1" stroke-opacity="1" stroke-miterlimit="10" stroke-linejoin="miter" stroke-linecap="square" stroke-dashoffset="0" stroke-dasharray="none" stroke="black" shape-rendering="auto" image-rendering="auto" height="112.89" font-weight="normal" font-style="normal" font-size="12" font-family="'Dialog'" fill-opacity="1" fill="black" color-rendering="auto" color-interpolation="auto" xmlns="http://www.w3.org/2000/svg"><g><g stroke="white" fill="white"><rect y="0" x="0" width="6236" stroke="none" height="3763"/></g><g transform="translate(32866,32758)" text-rendering="geometricPrecision" stroke-width="44" stroke-linejoin="round" stroke-linecap="round"><line y2="-30807" y1="-31376" x2="-28735" x1="-29718" fill="none"/><line y2="-30729" y1="-31156" x2="-28940" x1="-29680" fill="none"/><line y2="-29668" y1="-30807" x2="-28735" x1="-28735" fill="none"/><line y2="-31376" y1="-30807" x2="-29718" x1="-30706" fill="none"/><line y2="-29099" y1="-29668" x2="-29718" x1="-28735" fill="none"/><line y2="-29319" y1="-29744" x2="-29680" x1="-28940" fill="none"/><line y2="-30807" y1="-29668" x2="-30706" x1="-30706" fill="none"/><line y2="-30665" y1="-29810" x2="-30535" x1="-30535" fill="none"/><line y2="-29668" y1="-29099" x2="-30706" x1="-29718" fill="none"/><line y2="-31223" y1="-30807" x2="-28016" x1="-28735" fill="none"/><line y2="-31223" y1="-30807" x2="-31422" x1="-30706" fill="none"/><line y2="-30974" y1="-31223" x2="-32228" x1="-31800" fill="none"/><line y2="-32202" y1="-31376" x2="-29718" x1="-29718" fill="none"/><line y2="-32159" y1="-31549" x2="-27898" x1="-27898" fill="none"/><line y2="-32159" y1="-31549" x2="-27756" x1="-27756" fill="none"/><line y2="-30974" y1="-31283" x2="-27071" x1="-27603" fill="none"/><line y2="-30853" y1="-31162" x2="-27144" x1="-27672" fill="none"/><text y="-31150" xml:space="preserve" x="-27978" stroke="none" font-size="433.3333" font-family="sans-serif">N</text><text y="-32199" xml:space="preserve" x="-27978" stroke="none" font-size="433.3333" font-family="sans-serif">O</text><text y="-30628" xml:space="preserve" x="-27071" stroke="none" font-size="433.3333" font-family="sans-serif">O</text><text y="-32242" xml:space="preserve" x="-29871" stroke="none" font-size="433.3333" font-family="sans-serif">NH</text><text y="-32153" xml:space="preserve" x="-29293" stroke="none" font-size="313.3333" font-family="sans-serif">2</text><text y="-31150" xml:space="preserve" x="-31763" stroke="none" font-size="433.3333" font-family="sans-serif">O</text><text y="-30576" xml:space="preserve" x="-32762" stroke="none" font-size="433.3333" font-family="sans-serif">CH</text><text y="-30486" xml:space="preserve" x="-32185" stroke="none" font-size="313.3333" font-family="sans-serif">3</text></g></g></svg>