<svg width="194.61" viewBox="0 0 6487 3300" text-rendering="auto" stroke-width="1" stroke-opacity="1" stroke-miterlimit="10" stroke-linejoin="miter" stroke-linecap="square" stroke-dashoffset="0" stroke-dasharray="none" stroke="black" shape-rendering="auto" image-rendering="auto" height="99.0" font-weight="normal" font-style="normal" font-size="12" font-family="'Dialog'" fill-opacity="1" fill="black" color-rendering="auto" color-interpolation="auto" xmlns="http://www.w3.org/2000/svg"><g><g stroke="white" fill="white"><rect y="0" x="0" width="6487" stroke="none" height="3300"/></g><g transform="translate(32866,32758)" text-rendering="geometricPrecision" stroke-width="44" stroke-linejoin="round" stroke-linecap="round"><line y2="-30165" y1="-31376" x2="-30538" x1="-30538" fill="none"/><line y2="-31980" y1="-31376" x2="-29501" x1="-30538" fill="none"/><line y2="-31757" y1="-31304" x2="-29544" x1="-30321" fill="none"/><line y2="-31376" y1="-31980" x2="-30538" x1="-31575" fill="none"/><line y2="-30165" y1="-29562" x2="-30538" x1="-29501" fill="none"/><line y2="-30238" y1="-29784" x2="-30321" x1="-29544" fill="none"/><line y2="-29562" y1="-30165" x2="-31575" x1="-30538" fill="none"/><line y2="-31376" y1="-31980" x2="-28467" x1="-29501" fill="none"/><line y2="-31980" y1="-31376" x2="-31575" x1="-32609" fill="none"/><line y2="-29562" y1="-30165" x2="-29501" x1="-28467" fill="none"/><line y2="-29946" y1="-29562" x2="-32234" x1="-31575" fill="none"/><line y2="-30165" y1="-31376" x2="-28467" x1="-28467" fill="none"/><line y2="-30318" y1="-31223" x2="-28637" x1="-28637" fill="none"/><line y2="-31376" y1="-30385" x2="-32609" x1="-32609" fill="none"/><line y2="-31899" y1="-31376" x2="-27560" x1="-28467" fill="none"/><line y2="-32315" y1="-31899" x2="-26840" x1="-27560" fill="none"/><line y2="-32393" y1="-31977" x2="-26884" x1="-27603" fill="none"/><line y2="-32237" y1="-31821" x2="-26794" x1="-27513" fill="none"/><text y="-32242" xml:space="preserve" x="-26803" stroke="none" font-size="433.3333" font-family="sans-serif">N</text><text y="-29986" xml:space="preserve" x="-32762" stroke="none" font-size="433.3333" font-family="sans-serif">NH</text></g></g></svg>