<svg width="213.0" viewBox="0 0 7100 4142" text-rendering="auto" stroke-width="1" stroke-opacity="1" stroke-miterlimit="10" stroke-linejoin="miter" stroke-linecap="square" stroke-dashoffset="0" stroke-dasharray="none" stroke="black" shape-rendering="auto" image-rendering="auto" height="124.26" font-weight="normal" font-style="normal" font-size="12" font-family="'Dialog'" fill-opacity="1" fill="black" color-rendering="auto" color-interpolation="auto" xmlns="http://www.w3.org/2000/svg"><g><g stroke="white" fill="white"><rect y="0" x="0" width="7100" stroke="none" height="4142"/></g><g transform="translate(32866,32866)" text-rendering="geometricPrecision" stroke-width="44" stroke-linejoin="round" stroke-linecap="round"><line y2="-30532" y1="-31101" x2="-28747" x1="-29729" fill="none"/><line y2="-30457" y1="-30885" x2="-28955" x1="-29692" fill="none"/><line y2="-29394" y1="-30532" x2="-28747" x1="-28747" fill="none"/><line y2="-31101" y1="-30532" x2="-29729" x1="-30717" fill="none"/><line y2="-28828" y1="-29394" x2="-29729" x1="-28747" fill="none"/><line y2="-29044" y1="-29472" x2="-29692" x1="-28955" fill="none"/><line y2="-30532" y1="-29394" x2="-30717" x1="-30717" fill="none"/><line y2="-30391" y1="-29538" x2="-30547" x1="-30547" fill="none"/><line y2="-29394" y1="-28828" x2="-30717" x1="-29729" fill="none"/><line y2="-31055" y1="-30532" x2="-27840" x1="-28747" fill="none"/><line y2="-28871" y1="-29394" x2="-31624" x1="-30717" fill="none"/><line y2="-29198" y1="-28871" x2="-32190" x1="-31624" fill="none"/><line y2="-32193" y1="-31055" x2="-27840" x1="-27840" fill="none"/><line y2="-32052" y1="-31200" x2="-27669" x1="-27669" fill="none"/><line y2="-31055" y1="-30489" x2="-27840" x1="-26852" fill="none"/><line y2="-32762" y1="-32193" x2="-26852" x1="-27840" fill="none"/><line y2="-30489" y1="-31055" x2="-26852" x1="-25870" fill="none"/><line y2="-30706" y1="-31133" x2="-26814" x1="-26078" fill="none"/><line y2="-32193" y1="-32762" x2="-25870" x1="-26852" fill="none"/><line y2="-32118" y1="-32546" x2="-26078" x1="-26814" fill="none"/><line y2="-31055" y1="-32193" x2="-25870" x1="-25870" fill="none"/><text y="-29215" xml:space="preserve" x="-32762" stroke="none" font-size="433.3333" font-family="sans-serif">Cl</text></g></g></svg>