<svg width="369.36" viewBox="0 0 12312 6969" text-rendering="auto" stroke-width="1" stroke-opacity="1" stroke-miterlimit="10" stroke-linejoin="miter" stroke-linecap="square" stroke-dashoffset="0" stroke-dasharray="none" stroke="black" shape-rendering="auto" image-rendering="auto" height="209.07" font-weight="normal" font-style="normal" font-size="12" font-family="'Dialog'" fill-opacity="1" fill="black" color-rendering="auto" color-interpolation="auto" xmlns="http://www.w3.org/2000/svg"><g><g stroke="white" fill="white"><rect y="0" x="0" width="12312" stroke="none" height="6969"/></g><g transform="translate(32866,32758)" text-rendering="geometricPrecision" stroke-width="44" stroke-linejoin="round" stroke-linecap="round"><line y2="-27707" y1="-28013" x2="-24630" x1="-25162" fill="none"/><line y2="-27597" y1="-28013" x2="-26257" x1="-25537" fill="none"/><line y2="-28120" y1="-27597" x2="-27164" x1="-26257" fill="none"/><line y2="-27707" y1="-28120" x2="-27883" x1="-27164" fill="none"/><line y2="-28013" y1="-27707" x2="-28790" x1="-28259" fill="none"/><line y2="-29169" y1="-28340" x2="-25350" x1="-25350" fill="none"/><line y2="-29692" y1="-29169" x2="-24442" x1="-25350" fill="none"/><line y2="-30772" y1="-29692" x2="-24442" x1="-24442" fill="none"/><line y2="-31408" y1="-31098" x2="-25162" x1="-24633" fill="none"/><line y2="-28120" y1="-27707" x2="-23535" x1="-24255" fill="none"/><line y2="-26944" y1="-27412" x2="-23986" x1="-24255" fill="none"/><line y2="-26875" y1="-27343" x2="-24107" x1="-24376" fill="none"/><line y2="-26875" y1="-27343" x2="-24778" x1="-24509" fill="none"/><line y2="-26944" y1="-27412" x2="-24902" x1="-24630" fill="none"/><line y2="-27597" y1="-28013" x2="-29885" x1="-29166" fill="none"/><line y2="-28773" y1="-28305" x2="-29437" x1="-29166" fill="none"/><line y2="-28845" y1="-28374" x2="-29316" x1="-29044" fill="none"/><line y2="-28845" y1="-28374" x2="-28643" x1="-28914" fill="none"/><line y2="-28773" y1="-28305" x2="-28522" x1="-28790" fill="none"/><line y2="-31006" y1="-31410" x2="-26265" x1="-25537" fill="none"/><line y2="-32167" y1="-31699" x2="-25809" x1="-25537" fill="none"/><line y2="-32240" y1="-31769" x2="-25685" x1="-25416" fill="none"/><line y2="-32240" y1="-31769" x2="-25014" x1="-25286" fill="none"/><line y2="-32167" y1="-31699" x2="-24893" x1="-25162" fill="none"/><line y2="-29258" y1="-28120" x2="-23535" x1="-23535" fill="none"/><line y2="-29117" y1="-28264" x2="-23365" x1="-23365" fill="none"/><line y2="-28120" y1="-27554" x2="-23535" x1="-22547" fill="none"/><line y2="-29827" y1="-29258" x2="-22547" x1="-23535" fill="none"/><line y2="-27554" y1="-28120" x2="-22547" x1="-21565" fill="none"/><line y2="-27770" y1="-28198" x2="-22510" x1="-21773" fill="none"/><line y2="-29258" y1="-29827" x2="-21565" x1="-22547" fill="none"/><line y2="-29183" y1="-29611" x2="-21773" x1="-22510" fill="none"/><line y2="-28120" y1="-29258" x2="-21565" x1="-21565" fill="none"/><line y2="-29781" y1="-29258" x2="-20658" x1="-21565" fill="none"/><line y2="-26459" y1="-27597" x2="-29885" x1="-29885" fill="none"/><line y2="-26603" y1="-27456" x2="-30056" x1="-30056" fill="none"/><line y2="-27597" y1="-28166" x2="-29885" x1="-30870" fill="none"/><line y2="-25893" y1="-26459" x2="-30870" x1="-29885" fill="none"/><line y2="-28166" y1="-27597" x2="-30870" x1="-31855" fill="none"/><line y2="-27947" y1="-27519" x2="-30908" x1="-31647" fill="none"/><line y2="-26459" y1="-25893" x2="-31855" x1="-30870" fill="none"/><line y2="-26537" y1="-26109" x2="-31647" x1="-30908" fill="none"/><line y2="-27597" y1="-26459" x2="-31855" x1="-31855" fill="none"/><line y2="-25936" y1="-26459" x2="-32762" x1="-31855" fill="none"/><line y2="-29871" y1="-31006" x2="-26265" x1="-26265" fill="none"/><line y2="-30012" y1="-30864" x2="-26436" x1="-26436" fill="none"/><line y2="-31006" y1="-31575" x2="-26265" x1="-27253" fill="none"/><line y2="-29302" y1="-29871" x2="-27253" x1="-26265" fill="none"/><line y2="-31575" y1="-31006" x2="-27253" x1="-28236" fill="none"/><line y2="-31358" y1="-30931" x2="-27291" x1="-28028" fill="none"/><line y2="-29871" y1="-29302" x2="-28236" x1="-27253" fill="none"/><line y2="-29946" y1="-29518" x2="-28028" x1="-27291" fill="none"/><line y2="-31006" y1="-29871" x2="-28236" x1="-28236" fill="none"/><line y2="-29359" y1="-29871" x2="-29151" x1="-28236" fill="none"/><text y="-27418" xml:space="preserve" x="-24596" stroke="none" font-size="433.3333" font-family="sans-serif">S</text><text y="-27941" xml:space="preserve" x="-25503" stroke="none" font-size="433.3333" font-family="sans-serif">N</text><text y="-26511" xml:space="preserve" x="-24070" stroke="none" font-size="433.3333" font-family="sans-serif">O</text><text y="-26511" xml:space="preserve" x="-25118" stroke="none" font-size="433.3333" font-family="sans-serif">O</text><text y="-27418" xml:space="preserve" x="-28224" stroke="none" font-size="433.3333" font-family="sans-serif">O</text><text y="-30812" xml:space="preserve" x="-24596" stroke="none" font-size="433.3333" font-family="sans-serif">O</text><text y="-27941" xml:space="preserve" x="-29131" stroke="none" font-size="433.3333" font-family="sans-serif">S</text><text y="-31335" xml:space="preserve" x="-25503" stroke="none" font-size="433.3333" font-family="sans-serif">S</text><text y="-28848" xml:space="preserve" x="-29654" stroke="none" font-size="433.3333" font-family="sans-serif">O</text><text y="-28848" xml:space="preserve" x="-28608" stroke="none" font-size="433.3333" font-family="sans-serif">O</text><text y="-32242" xml:space="preserve" x="-26026" stroke="none" font-size="433.3333" font-family="sans-serif">O</text><text y="-32242" xml:space="preserve" x="-24980" stroke="none" font-size="433.3333" font-family="sans-serif">O</text></g></g></svg>