<svg width="175.05" viewBox="0 0 5835 2841" text-rendering="auto" stroke-width="1" stroke-opacity="1" stroke-miterlimit="10" stroke-linejoin="miter" stroke-linecap="square" stroke-dashoffset="0" stroke-dasharray="none" stroke="black" shape-rendering="auto" image-rendering="auto" height="85.23" font-weight="normal" font-style="normal" font-size="12" font-family="'Dialog'" fill-opacity="1" fill="black" color-rendering="auto" color-interpolation="auto" xmlns="http://www.w3.org/2000/svg"><g><g stroke="white" fill="white"><rect y="0" x="0" width="5835" stroke="none" height="2841"/></g><g transform="translate(32866,32758)" text-rendering="geometricPrecision" stroke-width="44" stroke-linejoin="round" stroke-linecap="round"><line y2="-30662" y1="-31725" x2="-31286" x1="-30919" fill="none"/><line y2="-30853" y1="-31650" x2="-31402" x1="-31127" fill="none"/><line y2="-31725" y1="-32277" x2="-30919" x1="-31633" fill="none"/><line y2="-30662" y1="-30662" x2="-32433" x1="-31286" fill="none"/><line y2="-32283" y1="-31725" x2="-32008" x1="-32762" fill="none"/><line y2="-31725" y1="-30662" x2="-32762" x1="-32433" fill="none"/><line y2="-31644" y1="-30847" x2="-32557" x1="-32312" fill="none"/><line y2="-32141" y1="-31725" x2="-30200" x1="-30919" fill="none"/><line y2="-31725" y1="-32141" x2="-29105" x1="-29824" fill="none"/><line y2="-31725" y1="-30590" x2="-29105" x1="-29105" fill="none"/><line y2="-31584" y1="-30732" x2="-28935" x1="-28935" fill="none"/><line y2="-32294" y1="-31725" x2="-28117" x1="-29105" fill="none"/><line y2="-30590" y1="-30021" x2="-29105" x1="-28117" fill="none"/><line y2="-31725" y1="-32294" x2="-27135" x1="-28117" fill="none"/><line y2="-31650" y1="-32078" x2="-27343" x1="-28080" fill="none"/><line y2="-30021" y1="-30590" x2="-28117" x1="-27135" fill="none"/><line y2="-30238" y1="-30665" x2="-28080" x1="-27343" fill="none"/><line y2="-30590" y1="-31725" x2="-27135" x1="-27135" fill="none"/><text y="-32072" xml:space="preserve" x="-30165" stroke="none" font-size="433.3333" font-family="sans-serif">S</text><text y="-32242" xml:space="preserve" x="-31971" stroke="none" font-size="433.3333" font-family="sans-serif">S</text></g></g></svg>