<svg width="232.17" viewBox="0 0 7739 2283" text-rendering="auto" stroke-width="1" stroke-opacity="1" stroke-miterlimit="10" stroke-linejoin="miter" stroke-linecap="square" stroke-dashoffset="0" stroke-dasharray="none" stroke="black" shape-rendering="auto" image-rendering="auto" height="68.49" font-weight="normal" font-style="normal" font-size="12" font-family="'Dialog'" fill-opacity="1" fill="black" color-rendering="auto" color-interpolation="auto" xmlns="http://www.w3.org/2000/svg"><g><g stroke="white" fill="white"><rect y="0" x="0" width="7739" stroke="none" height="2283"/></g><g transform="translate(32866,32758)" text-rendering="geometricPrecision" stroke-width="44" stroke-linejoin="round" stroke-linecap="round"><line y2="-31899" y1="-32595" x2="-29767" x1="-30668" fill="none"/><line y2="-30836" y1="-31899" x2="-30134" x1="-29767" fill="none"/><line y2="-32595" y1="-31899" x2="-30668" x1="-31610" fill="none"/><line y2="-30836" y1="-30836" x2="-31280" x1="-30134" fill="none"/><line y2="-31899" y1="-30836" x2="-31610" x1="-31280" fill="none"/><line y2="-31899" y1="-32205" x2="-27952" x1="-28481" fill="none"/><line y2="-32315" y1="-31899" x2="-27233" x1="-27952" fill="none"/><line y2="-31899" y1="-32315" x2="-26138" x1="-26858" fill="none"/><line y2="-31070" y1="-31899" x2="-27883" x1="-27883" fill="none"/><line y2="-31070" y1="-31899" x2="-28022" x1="-28022" fill="none"/><line y2="-32422" y1="-31899" x2="-25231" x1="-26138" fill="none"/><line y2="-30992" y1="-31899" x2="-25615" x1="-26138" fill="none"/><line y2="-30992" y1="-31899" x2="-26661" x1="-26138" fill="none"/><polygon stroke-width="1" stroke="none" points=" -29767 -31899 -29082 -32372 -29013 -32254"/><polygon stroke-width="1" points=" -29767 -31899 -29082 -32372 -29013 -32254" fill="none"/><polygon stroke-width="1" stroke="none" points=" -31610 -31899 -32138 -31997 -32095 -32130"/><polygon stroke-width="1" points=" -31610 -31899 -32138 -31997 -32095 -32130" fill="none"/><text y="-32242" xml:space="preserve" x="-29013" stroke-width="1" stroke="none" font-size="433.3333" font-family="sans-serif">NH</text><text y="-32242" xml:space="preserve" x="-27198" stroke-width="1" stroke="none" font-size="433.3333" font-family="sans-serif">O</text><text y="-30671" xml:space="preserve" x="-28106" stroke-width="1" stroke="none" font-size="433.3333" font-family="sans-serif">O</text><text y="-32046" xml:space="preserve" x="-32762" stroke-width="1" stroke="none" font-size="433.3333" font-family="sans-serif">OH</text></g><g transform="translate(32866,32758)" text-rendering="geometricPrecision" stroke-linejoin="round" stroke-linecap="round" font-style="italic" font-size="313.3333" font-family="sans-serif"><text y="-31621" xml:space="preserve" x="-30188" stroke="none">S</text><text y="-31647" xml:space="preserve" x="-31483" stroke="none">R</text></g></g></svg>