<svg width="199.47" viewBox="0 0 6649 3274" text-rendering="auto" stroke-width="1" stroke-opacity="1" stroke-miterlimit="10" stroke-linejoin="miter" stroke-linecap="square" stroke-dashoffset="0" stroke-dasharray="none" stroke="black" shape-rendering="auto" image-rendering="auto" height="98.22" font-weight="normal" font-style="normal" font-size="12" font-family="'Dialog'" fill-opacity="1" fill="black" color-rendering="auto" color-interpolation="auto" xmlns="http://www.w3.org/2000/svg"><g><g stroke="white" fill="white"><rect y="0" x="0" width="6649" stroke="none" height="3274"/></g><g transform="translate(32866,32758)" text-rendering="geometricPrecision" stroke-width="44" stroke-linejoin="round" stroke-linecap="round"><line y2="-30602" y1="-31815" x2="-29518" x1="-29518" fill="none"/><line y2="-32315" y1="-31815" x2="-28652" x1="-29518" fill="none"/><line y2="-31815" y1="-32422" x2="-29518" x1="-30570" fill="none"/><line y2="-31746" y1="-32199" x2="-29735" x1="-30524" fill="none"/><line y2="-30602" y1="-30602" x2="-29518" x1="-27412" fill="none"/><line y2="-29992" y1="-30602" x2="-30570" x1="-29518" fill="none"/><line y2="-30217" y1="-30671" x2="-30524" x1="-29735" fill="none"/><line y2="-31815" y1="-32202" x2="-27412" x1="-28082" fill="none"/><line y2="-32422" y1="-31815" x2="-30570" x1="-31624" fill="none"/><line y2="-30602" y1="-31815" x2="-27412" x1="-27412" fill="none"/><line y2="-30602" y1="-29992" x2="-31624" x1="-30570" fill="none"/><line y2="-31815" y1="-30602" x2="-31624" x1="-31624" fill="none"/><line y2="-31662" y1="-30752" x2="-31454" x1="-31454" fill="none"/><line y2="-32141" y1="-31815" x2="-32190" x1="-31624" fill="none"/><line y2="-30272" y1="-30602" x2="-32190" x1="-31624" fill="none"/><line y2="-30096" y1="-30651" x2="-26811" x1="-27363" fill="none"/><line y2="-29998" y1="-30550" x2="-26910" x1="-27461" fill="none"/><line y2="-32292" y1="-31876" x2="-26728" x1="-27447" fill="none"/><line y2="-32170" y1="-31754" x2="-26658" x1="-27378" fill="none"/><text y="-29680" xml:space="preserve" x="-26826" stroke="none" font-size="433.3333" font-family="sans-serif">O</text><text y="-32162" xml:space="preserve" x="-26658" stroke="none" font-size="433.3333" font-family="sans-serif">O</text><text y="-32162" xml:space="preserve" x="-32762" stroke="none" font-size="433.3333" font-family="sans-serif">Cl</text><text y="-29897" xml:space="preserve" x="-32762" stroke="none" font-size="433.3333" font-family="sans-serif">Cl</text><text y="-32242" xml:space="preserve" x="-28617" stroke="none" font-size="433.3333" font-family="sans-serif">NH</text></g></g></svg>