<svg width="260.43" viewBox="0 0 8681 4947" text-rendering="auto" stroke-width="1" stroke-opacity="1" stroke-miterlimit="10" stroke-linejoin="miter" stroke-linecap="square" stroke-dashoffset="0" stroke-dasharray="none" stroke="black" shape-rendering="auto" image-rendering="auto" height="148.41" font-weight="normal" font-style="normal" font-size="12" font-family="'Dialog'" fill-opacity="1" fill="black" color-rendering="auto" color-interpolation="auto" xmlns="http://www.w3.org/2000/svg"><g><g stroke="white" fill="white"><rect y="0" x="0" width="8681" stroke="none" height="4947"/></g><g transform="translate(32866,32758)" text-rendering="geometricPrecision" stroke-width="44" stroke-linejoin="round" stroke-linecap="round"><line y2="-30807" y1="-31376" x2="-29732" x1="-30714" fill="none"/><line y2="-30729" y1="-31156" x2="-29940" x1="-30677" fill="none"/><line y2="-29668" y1="-30807" x2="-29732" x1="-29732" fill="none"/><line y2="-31376" y1="-30807" x2="-30714" x1="-31702" fill="none"/><line y2="-29099" y1="-29668" x2="-30714" x1="-29732" fill="none"/><line y2="-29319" y1="-29744" x2="-30677" x1="-29940" fill="none"/><line y2="-30807" y1="-29668" x2="-31702" x1="-31702" fill="none"/><line y2="-30665" y1="-29810" x2="-31532" x1="-31532" fill="none"/><line y2="-29668" y1="-29099" x2="-31702" x1="-30714" fill="none"/><line y2="-31330" y1="-30807" x2="-28825" x1="-29732" fill="none"/><line y2="-30807" y1="-31330" x2="-27918" x1="-28825" fill="none"/><line y2="-32202" y1="-31376" x2="-30714" x1="-30714" fill="none"/><line y2="-29252" y1="-29668" x2="-32422" x1="-31702" fill="none"/><line y2="-31330" y1="-30807" x2="-27011" x1="-27918" fill="none"/><line y2="-29235" y1="-29538" x2="-27011" x1="-27539" fill="none"/><line y2="-30914" y1="-31330" x2="-26291" x1="-27011" fill="none"/><line y2="-32159" y1="-31330" x2="-27080" x1="-27080" fill="none"/><line y2="-32159" y1="-31330" x2="-26941" x1="-26941" fill="none"/><line y2="-29651" y1="-29235" x2="-26291" x1="-27011" fill="none"/><line y2="-29235" y1="-29651" x2="-25196" x1="-25916" fill="none"/><line y2="-28406" y1="-29235" x2="-26941" x1="-26941" fill="none"/><line y2="-28406" y1="-29235" x2="-27080" x1="-27080" fill="none"/><line y2="-29758" y1="-29235" x2="-24289" x1="-25196" fill="none"/><line y2="-28328" y1="-29235" x2="-24674" x1="-25196" fill="none"/><line y2="-28328" y1="-29235" x2="-25719" x1="-25196" fill="none"/><line y2="-29978" y1="-29978" x2="-27987" x1="-27848" fill="none"/><line y2="-30195" y1="-30195" x2="-27969" x1="-27866" fill="none"/><line y2="-30411" y1="-30411" x2="-27951" x1="-27885" fill="none"/><line y2="-30628" y1="-30628" x2="-27933" x1="-27903" fill="none"/><text y="-29579" xml:space="preserve" x="-28071" stroke="none" font-size="433.3333" font-family="sans-serif">NH</text><text y="-30628" xml:space="preserve" x="-26257" stroke="none" font-size="433.3333" font-family="sans-serif">OH</text><text y="-32199" xml:space="preserve" x="-27164" stroke="none" font-size="433.3333" font-family="sans-serif">O</text><text y="-29579" xml:space="preserve" x="-26257" stroke="none" font-size="433.3333" font-family="sans-serif">O</text><text y="-28007" xml:space="preserve" x="-27164" stroke="none" font-size="433.3333" font-family="sans-serif">O</text><text y="-32242" xml:space="preserve" x="-30867" stroke="none" font-size="433.3333" font-family="sans-serif">F</text><text y="-28966" xml:space="preserve" x="-32762" stroke="none" font-size="433.3333" font-family="sans-serif">F</text><text y="-30928" xml:space="preserve" x="-28071" stroke="none" font-style="italic" font-size="313.3333" font-family="sans-serif">R</text></g></g></svg>