<svg width="202.44" viewBox="0 0 6748 9682" text-rendering="auto" stroke-width="1" stroke-opacity="1" stroke-miterlimit="10" stroke-linejoin="miter" stroke-linecap="square" stroke-dashoffset="0" stroke-dasharray="none" stroke="black" shape-rendering="auto" image-rendering="auto" height="290.46" font-weight="normal" font-style="normal" font-size="12" font-family="'Dialog'" fill-opacity="1" fill="black" color-rendering="auto" color-interpolation="auto" xmlns="http://www.w3.org/2000/svg"><g><g stroke="white" fill="white"><rect y="0" x="0" width="6748" stroke="none" height="9682"/></g><g transform="translate(32866,32758)" text-rendering="geometricPrecision" stroke-width="44" stroke-linejoin="round" stroke-linecap="round"><line y2="-25737" y1="-24896" x2="-29819" x1="-30142" fill="none"/><line y2="-25956" y1="-25956" x2="-28591" x1="-29544" fill="none"/><line y2="-23752" y1="-24896" x2="-30142" x1="-30142" fill="none"/><line y2="-24896" y1="-25468" x2="-30142" x1="-31122" fill="none"/><line y2="-24821" y1="-25248" x2="-30350" x1="-31087" fill="none"/><line y2="-24896" y1="-25956" x2="-28181" x1="-28591" fill="none"/><line y2="-23752" y1="-23180" x2="-30142" x1="-29163" fill="none"/><line y2="-23180" y1="-23752" x2="-31122" x1="-30142" fill="none"/><line y2="-23397" y1="-23827" x2="-31087" x1="-30350" fill="none"/><line y2="-25468" y1="-24896" x2="-31122" x1="-32104" fill="none"/><line y2="-23972" y1="-24896" x2="-28181" x1="-28181" fill="none"/><line y2="-25468" y1="-24896" x2="-27201" x1="-28181" fill="none"/><line y2="-25248" y1="-24821" x2="-27239" x1="-27973" fill="none"/><line y2="-23180" y1="-23642" x2="-29163" x1="-28368" fill="none"/><line y2="-23752" y1="-23180" x2="-32104" x1="-31122" fill="none"/><line y2="-24896" y1="-23752" x2="-32104" x1="-32104" fill="none"/><line y2="-24752" y1="-23894" x2="-31933" x1="-31933" fill="none"/><line y2="-23752" y1="-23752" x2="-27993" x1="-26222" fill="none"/><line y2="-24896" y1="-25468" x2="-26222" x1="-27201" fill="none"/><line y2="-23752" y1="-24896" x2="-26222" x1="-26222" fill="none"/><line y2="-23894" y1="-24752" x2="-26392" x1="-26392" fill="none"/><line y2="-26479" y1="-26066" x2="-30639" x1="-29923" fill="none"/><line y2="-27528" y1="-26479" x2="-30639" x1="-30639" fill="none"/><line y2="-26002" y1="-26418" x2="-31324" x1="-30604" fill="none"/><line y2="-26124" y1="-26540" x2="-31393" x1="-30674" fill="none"/><line y2="-28097" y1="-27528" x2="-31624" x1="-30639" fill="none"/><line y2="-28172" y1="-27747" x2="-31416" x1="-30677" fill="none"/><line y2="-27528" y1="-28094" x2="-30639" x1="-29657" fill="none"/><line y2="-29232" y1="-28097" x2="-31624" x1="-31624" fill="none"/><line y2="-28094" y1="-29232" x2="-29657" x1="-29654" fill="none"/><line y2="-28236" y1="-29091" x2="-29827" x1="-29824" fill="none"/><line y2="-29801" y1="-29232" x2="-30639" x1="-31624" fill="none"/><line y2="-29585" y1="-29157" x2="-30677" x1="-31416" fill="none"/><line y2="-29232" y1="-29801" x2="-29654" x1="-30639" fill="none"/><line y2="-30630" y1="-29801" x2="-30639" x1="-30639" fill="none"/><line y2="-31373" y1="-31070" x2="-29732" x1="-30258" fill="none"/><line y2="-27770" y1="-28097" x2="-32190" x1="-31624" fill="none"/><line y2="-30833" y1="-31373" x2="-28834" x1="-29732" fill="none"/><line y2="-32202" y1="-31373" x2="-29801" x1="-29801" fill="none"/><line y2="-32202" y1="-31373" x2="-29663" x1="-29663" fill="none"/><line y2="-31402" y1="-30833" x2="-27851" x1="-28834" fill="none"/><line y2="-31185" y1="-30758" x2="-27889" x1="-28626" fill="none"/><line y2="-30833" y1="-29697" x2="-28834" x1="-28834" fill="none"/><line y2="-30833" y1="-31402" x2="-26863" x1="-27851" fill="none"/><line y2="-29697" y1="-29128" x2="-28834" x1="-27851" fill="none"/><line y2="-29772" y1="-29345" x2="-28626" x1="-27889" fill="none"/><line y2="-29697" y1="-30833" x2="-26863" x1="-26863" fill="none"/><line y2="-29839" y1="-30691" x2="-27034" x1="-27034" fill="none"/><line y2="-29128" y1="-29697" x2="-27851" x1="-26863" fill="none"/><line y2="-32450" y1="-31402" x2="-27851" x1="-27851" fill="none"/><line y2="-28299" y1="-29128" x2="-27851" x1="-27851" fill="none"/><text y="-25777" xml:space="preserve" x="-31699" stroke="none" font-size="433.3333" font-family="sans-serif">O</text><text y="-27392" xml:space="preserve" x="-32762" stroke="none" font-size="433.3333" font-family="sans-serif">Cl</text><text y="-30671" xml:space="preserve" x="-30792" stroke="none" font-size="433.3333" font-family="sans-serif">NH</text><text y="-32242" xml:space="preserve" x="-29885" stroke="none" font-size="433.3333" font-family="sans-serif">O</text><text y="-27900" xml:space="preserve" x="-28004" stroke="none" font-size="433.3333" font-family="sans-serif">F</text><text y="-25777" xml:space="preserve" x="-29885" stroke="none" font-size="433.3333" font-family="sans-serif">N</text><text y="-23573" xml:space="preserve" x="-28334" stroke="none" font-size="433.3333" font-family="sans-serif">N</text></g></g></svg>