<svg width="283.05" viewBox="0 0 9435 5260" text-rendering="auto" stroke-width="1" stroke-opacity="1" stroke-miterlimit="10" stroke-linejoin="miter" stroke-linecap="square" stroke-dashoffset="0" stroke-dasharray="none" stroke="black" shape-rendering="auto" image-rendering="auto" height="157.8" font-weight="normal" font-style="normal" font-size="12" font-family="'Dialog'" fill-opacity="1" fill="black" color-rendering="auto" color-interpolation="auto" xmlns="http://www.w3.org/2000/svg"><g><g stroke="white" fill="white"><rect y="0" x="0" width="9435" stroke="none" height="5260"/></g><g transform="translate(32866,32866)" text-rendering="geometricPrecision" stroke-width="44" stroke-linejoin="round" stroke-linecap="round"><line y2="-28773" y1="-29325" x2="-27164" x1="-27874" fill="none"/><line y2="-27710" y1="-28773" x2="-27531" x1="-27164" fill="none"/><line y2="-29330" y1="-28773" x2="-28250" x1="-29004" fill="none"/><line y2="-27710" y1="-27710" x2="-28678" x1="-27531" fill="none"/><line y2="-28773" y1="-27710" x2="-29004" x1="-28678" fill="none"/><line y2="-30518" y1="-29689" x2="-28062" x1="-28062" fill="none"/><line y2="-30934" y1="-30518" x2="-28782" x1="-28062" fill="none"/><line y2="-30532" y1="-30937" x2="-29885" x1="-29157" fill="none"/><line y2="-31055" y1="-30532" x2="-30792" x1="-29885" fill="none"/><line y2="-30994" y1="-30578" x2="-27378" x1="-28097" fill="none"/><line y2="-30873" y1="-30457" x2="-27308" x1="-28028" fill="none"/><line y2="-28883" y1="-29299" x2="-25537" x1="-26257" fill="none"/><line y2="-29299" y1="-28883" x2="-24442" x1="-25162" fill="none"/><line y2="-30125" y1="-29339" x2="-26326" x1="-26326" fill="none"/><line y2="-30125" y1="-29299" x2="-26187" x1="-26187" fill="none"/><line y2="-31055" y1="-32193" x2="-30792" x1="-30792" fill="none"/><line y2="-31200" y1="-32052" x2="-30963" x1="-30963" fill="none"/><line y2="-30489" y1="-31055" x2="-31780" x1="-30792" fill="none"/><line y2="-32193" y1="-32762" x2="-30792" x1="-31780" fill="none"/><line y2="-31055" y1="-30489" x2="-32762" x1="-31780" fill="none"/><line y2="-31133" y1="-30706" x2="-32557" x1="-31818" fill="none"/><line y2="-32762" y1="-32193" x2="-31780" x1="-32762" fill="none"/><line y2="-32546" y1="-32118" x2="-31818" x1="-32557" fill="none"/><line y2="-32193" y1="-31055" x2="-32762" x1="-32762" fill="none"/><line y2="-28773" y1="-29299" x2="-23535" x1="-24442" fill="none"/><line y2="-30206" y1="-29299" x2="-23917" x1="-24442" fill="none"/><line y2="-30206" y1="-29299" x2="-24965" x1="-24442" fill="none"/><line y2="-29238" y1="-29356" x2="-26222" x1="-26288" fill="none"/><line y2="-29142" y1="-29236" x2="-26417" x1="-26469" fill="none"/><line y2="-29046" y1="-29115" x2="-26611" x1="-26650" fill="none"/><line y2="-28950" y1="-28995" x2="-26806" x1="-26831" fill="none"/><line y2="-28854" y1="-28874" x2="-27000" x1="-27012" fill="none"/><text y="-28594" xml:space="preserve" x="-25500" stroke="none" font-size="433.3333" font-family="sans-serif">O</text><text y="-30165" xml:space="preserve" x="-26407" stroke="none" font-size="433.3333" font-family="sans-serif">O</text><text y="-30862" xml:space="preserve" x="-29122" stroke="none" font-size="433.3333" font-family="sans-serif">O</text><text y="-30862" xml:space="preserve" x="-27308" stroke="none" font-size="433.3333" font-family="sans-serif">O</text><text y="-29290" xml:space="preserve" x="-28215" stroke="none" font-size="433.3333" font-family="sans-serif">N</text><text y="-28496" xml:space="preserve" x="-27583" stroke="none" font-style="italic" font-size="313.3333" font-family="sans-serif">S</text></g></g></svg>