<svg width="272.34" viewBox="0 0 9078 9407" text-rendering="auto" stroke-width="1" stroke-opacity="1" stroke-miterlimit="10" stroke-linejoin="miter" stroke-linecap="square" stroke-dashoffset="0" stroke-dasharray="none" stroke="black" shape-rendering="auto" image-rendering="auto" height="282.21" font-weight="normal" font-style="normal" font-size="12" font-family="'Dialog'" fill-opacity="1" fill="black" color-rendering="auto" color-interpolation="auto" xmlns="http://www.w3.org/2000/svg"><g><g stroke="white" fill="white"><rect y="0" x="0" width="9078" stroke="none" height="9407"/></g><g transform="translate(32866,32758)" text-rendering="geometricPrecision" stroke-width="44" stroke-linejoin="round" stroke-linecap="round"><line y2="-26416" y1="-26999" x2="-29206" x1="-29963" fill="none"/><line y2="-25298" y1="-26416" x2="-29593" x1="-29206" fill="none"/><line y2="-25494" y1="-26329" x2="-29706" x1="-29417" fill="none"/><line y2="-27005" y1="-26554" x2="-30339" x1="-30951" fill="none"/><line y2="-25298" y1="-25298" x2="-30795" x1="-29593" fill="none"/><line y2="-26196" y1="-25298" x2="-31072" x1="-30795" fill="none"/><line y2="-26132" y1="-25459" x2="-30873" x1="-30668" fill="none"/><line y2="-26938" y1="-26416" x2="-28299" x1="-29206" fill="none"/><line y2="-28192" y1="-27363" x2="-30151" x1="-30151" fill="none"/><line y2="-24775" y1="-25298" x2="-31702" x1="-30795" fill="none"/><line y2="-28077" y1="-26938" x2="-28299" x1="-28299" fill="none"/><line y2="-27932" y1="-27080" x2="-28129" x1="-28129" fill="none"/><line y2="-26938" y1="-26369" x2="-28299" x1="-27314" fill="none"/><line y2="-28643" y1="-28077" x2="-27314" x1="-28299" fill="none"/><line y2="-26369" y1="-26938" x2="-27314" x1="-26329" fill="none"/><line y2="-26586" y1="-27014" x2="-27276" x1="-26537" fill="none"/><line y2="-28077" y1="-28643" x2="-26329" x1="-27314" fill="none"/><line y2="-27999" y1="-28426" x2="-26537" x1="-27276" fill="none"/><line y2="-26938" y1="-28077" x2="-26329" x1="-26329" fill="none"/><line y2="-28490" y1="-28077" x2="-25610" x1="-26329" fill="none"/><line y2="-28184" y1="-28490" x2="-24702" x1="-25234" fill="none"/><line y2="-29472" y1="-28643" x2="-27314" x1="-27314" fill="none"/><line y2="-28761" y1="-28192" x2="-31139" x1="-30151" fill="none"/><line y2="-28839" y1="-28412" x2="-30931" x1="-30191" fill="none"/><line y2="-28192" y1="-28761" x2="-30151" x1="-29169" fill="none"/><line y2="-29900" y1="-28761" x2="-31139" x1="-31139" fill="none"/><line y2="-28761" y1="-29900" x2="-29169" x1="-29169" fill="none"/><line y2="-28903" y1="-29755" x2="-29339" x1="-29339" fill="none"/><line y2="-30469" y1="-29900" x2="-30151" x1="-31139" fill="none"/><line y2="-30249" y1="-29822" x2="-30191" x1="-30931" fill="none"/><line y2="-29900" y1="-30469" x2="-29169" x1="-30151" fill="none"/><line y2="-31295" y1="-30469" x2="-30151" x1="-30151" fill="none"/><line y2="-25191" y1="-24775" x2="-32422" x1="-31702" fill="none"/><line y2="-23946" y1="-24775" x2="-31702" x1="-31702" fill="none"/><line y2="-31873" y1="-31624" x2="-30769" x1="-30339" fill="none"/><line y2="-32240" y1="-31769" x2="-29816" x1="-30087" fill="none"/><line y2="-32167" y1="-31699" x2="-29694" x1="-29966" fill="none"/><line y2="-31587" y1="-31587" x2="-29293" x1="-29963" fill="none"/><line y2="-31445" y1="-31445" x2="-29293" x1="-29963" fill="none"/><text y="-25118" xml:space="preserve" x="-32762" stroke="none" font-size="433.3333" font-family="sans-serif">F</text><text y="-23547" xml:space="preserve" x="-31855" stroke="none" font-size="433.3333" font-family="sans-serif">F</text><text y="-29512" xml:space="preserve" x="-27464" stroke="none" font-size="433.3333" font-family="sans-serif">F</text><text y="-28420" xml:space="preserve" x="-25575" stroke="none" font-size="433.3333" font-family="sans-serif">O</text><text y="-27898" xml:space="preserve" x="-24668" stroke="none" font-size="433.3333" font-family="sans-serif">CH</text><text y="-27808" xml:space="preserve" x="-24090" stroke="none" font-size="313.3333" font-family="sans-serif">3</text><text y="-31335" xml:space="preserve" x="-30304" stroke="none" font-size="433.3333" font-family="sans-serif">S</text><text y="-32023" xml:space="preserve" x="-31491" stroke="none" font-size="433.3333" font-family="sans-serif">NH</text><text y="-31933" xml:space="preserve" x="-30914" stroke="none" font-size="313.3333" font-family="sans-serif">2</text><text y="-32242" xml:space="preserve" x="-29781" stroke="none" font-size="433.3333" font-family="sans-serif">O</text><text y="-31335" xml:space="preserve" x="-29255" stroke="none" font-size="433.3333" font-family="sans-serif">O</text><text y="-26967" xml:space="preserve" x="-30304" stroke="none" font-size="433.3333" font-family="sans-serif">N</text><text y="-26236" xml:space="preserve" x="-31292" stroke="none" font-size="433.3333" font-family="sans-serif">N</text></g></g></svg>