<svg width="314.94" viewBox="0 0 10498 4380" text-rendering="auto" stroke-width="1" stroke-opacity="1" stroke-miterlimit="10" stroke-linejoin="miter" stroke-linecap="square" stroke-dashoffset="0" stroke-dasharray="none" stroke="black" shape-rendering="auto" image-rendering="auto" height="131.4" font-weight="normal" font-style="normal" font-size="12" font-family="'Dialog'" fill-opacity="1" fill="black" color-rendering="auto" color-interpolation="auto" xmlns="http://www.w3.org/2000/svg"><g><g stroke="white" fill="white"><rect y="0" x="0" width="10498" stroke="none" height="4380"/></g><g transform="translate(32866,32758)" text-rendering="geometricPrecision" stroke-width="44" stroke-linejoin="round" stroke-linecap="round"><line y2="-30324" y1="-30847" x2="-28071" x1="-27164" fill="none"/><line y2="-30434" y1="-30847" x2="-26444" x1="-27164" fill="none"/><line y2="-30847" y1="-30434" x2="-25350" x1="-26069" fill="none"/><line y2="-30740" y1="-30324" x2="-28790" x1="-28071" fill="none"/><line y2="-30324" y1="-30740" x2="-29885" x1="-29166" fill="none"/><line y2="-30324" y1="-30847" x2="-24442" x1="-25350" fill="none"/><line y2="-31676" y1="-30847" x2="-25419" x1="-25419" fill="none"/><line y2="-31676" y1="-30847" x2="-25280" x1="-25280" fill="none"/><line y2="-32312" y1="-31896" x2="-26444" x1="-27164" fill="none"/><line y2="-32251" y1="-31855" x2="-27918" x1="-27233" fill="none"/><line y2="-32372" y1="-31956" x2="-27848" x1="-27129" fill="none"/><line y2="-30847" y1="-30324" x2="-30792" x1="-29885" fill="none"/><line y2="-29495" y1="-30324" x2="-29816" x1="-29816" fill="none"/><line y2="-29495" y1="-30324" x2="-29954" x1="-29954" fill="none"/><line y2="-28972" y1="-29276" x2="-28600" x1="-28071" fill="none"/><line y2="-28923" y1="-29316" x2="-27317" x1="-28002" fill="none"/><line y2="-28799" y1="-29215" x2="-27386" x1="-28106" fill="none"/><line y2="-30324" y1="-29186" x2="-24442" x1="-24442" fill="none"/><line y2="-30183" y1="-29330" x2="-24272" x1="-24272" fill="none"/><line y2="-30893" y1="-30324" x2="-23454" x1="-24442" fill="none"/><line y2="-29186" y1="-28620" x2="-24442" x1="-23454" fill="none"/><line y2="-30324" y1="-30893" x2="-22472" x1="-23454" fill="none"/><line y2="-30249" y1="-30677" x2="-22680" x1="-23417" fill="none"/><line y2="-28620" y1="-29186" x2="-23454" x1="-22472" fill="none"/><line y2="-28836" y1="-29264" x2="-23417" x1="-22680" fill="none"/><line y2="-29186" y1="-30324" x2="-22472" x1="-22472" fill="none"/><line y2="-30847" y1="-31985" x2="-30792" x1="-30792" fill="none"/><line y2="-30992" y1="-31844" x2="-30963" x1="-30963" fill="none"/><line y2="-30281" y1="-30847" x2="-31777" x1="-30792" fill="none"/><line y2="-31985" y1="-32554" x2="-30792" x1="-31777" fill="none"/><line y2="-30847" y1="-30281" x2="-32762" x1="-31777" fill="none"/><line y2="-30925" y1="-30498" x2="-32554" x1="-31815" fill="none"/><line y2="-32554" y1="-31985" x2="-31777" x1="-32762" fill="none"/><line y2="-32335" y1="-31910" x2="-31815" x1="-32554" fill="none"/><line y2="-31985" y1="-30847" x2="-32762" x1="-32762" fill="none"/><polygon stroke-width="1" stroke="none" points=" -27164 -30847 -27233 -31896 -27094 -31896"/><polygon stroke-width="1" points=" -27164 -30847 -27233 -31896 -27094 -31896" fill="none"/><polygon stroke-width="1" stroke="none" points=" -28071 -30324 -28002 -29276 -28140 -29276"/><polygon stroke-width="1" points=" -28071 -30324 -28002 -29276 -28140 -29276" fill="none"/><text y="-30145" xml:space="preserve" x="-26410" stroke-width="1" stroke="none" font-size="433.3333" font-family="sans-serif">O</text><text y="-30668" xml:space="preserve" x="-29131" stroke-width="1" stroke="none" font-size="433.3333" font-family="sans-serif">O</text><text y="-32242" xml:space="preserve" x="-26410" stroke-width="1" stroke="none" font-size="433.3333" font-family="sans-serif">OH</text><text y="-32242" xml:space="preserve" x="-28224" stroke-width="1" stroke="none" font-size="433.3333" font-family="sans-serif">O</text><text y="-28574" xml:space="preserve" x="-29131" stroke-width="1" stroke="none" font-size="433.3333" font-family="sans-serif">OH</text><text y="-28574" xml:space="preserve" x="-27317" stroke-width="1" stroke="none" font-size="433.3333" font-family="sans-serif">O</text><text y="-31717" xml:space="preserve" x="-25503" stroke-width="1" stroke="none" font-size="433.3333" font-family="sans-serif">O</text><text y="-29096" xml:space="preserve" x="-30038" stroke-width="1" stroke="none" font-size="433.3333" font-family="sans-serif">O</text></g><g transform="translate(32866,32758)" text-rendering="geometricPrecision" stroke-linejoin="round" stroke-linecap="round" font-style="italic" font-size="313.3333" font-family="sans-serif"><text y="-30368" xml:space="preserve" x="-27317" stroke="none">S</text><text y="-30448" xml:space="preserve" x="-28224" stroke="none">S</text></g></g></svg>