<svg width="282.66" viewBox="0 0 9422 6869" text-rendering="auto" stroke-width="1" stroke-opacity="1" stroke-miterlimit="10" stroke-linejoin="miter" stroke-linecap="square" stroke-dashoffset="0" stroke-dasharray="none" stroke="black" shape-rendering="auto" image-rendering="auto" height="206.07" font-weight="normal" font-style="normal" font-size="12" font-family="'Dialog'" fill-opacity="1" fill="black" color-rendering="auto" color-interpolation="auto" xmlns="http://www.w3.org/2000/svg"><g><g stroke="white" fill="white"><rect y="0" x="0" width="9422" stroke="none" height="6869"/></g><g transform="translate(32866,32866)" text-rendering="geometricPrecision" stroke-width="44" stroke-linejoin="round" stroke-linecap="round"><line y2="-27690" y1="-27690" x2="-30691" x1="-28617" fill="none"/><line y2="-27690" y1="-28666" x2="-28617" x1="-28617" fill="none"/><line y2="-27828" y1="-28545" x2="-28784" x1="-28784" fill="none"/><line y2="-28886" y1="-27690" x2="-30691" x1="-30691" fill="none"/><line y2="-27089" y1="-27690" x2="-31725" x1="-30691" fill="none"/><line y2="-27311" y1="-27762" x2="-31679" x1="-30905" fill="none"/><line y2="-28995" y1="-29377" x2="-28805" x1="-29463" fill="none"/><line y2="-29377" y1="-28886" x2="-29839" x1="-30691" fill="none"/><line y2="-28886" y1="-29484" x2="-30691" x1="-31725" fill="none"/><line y2="-28816" y1="-29264" x2="-30905" x1="-31679" fill="none"/><line y2="-27690" y1="-27089" x2="-32762" x1="-31725" fill="none"/><line y2="-29484" y1="-28886" x2="-31725" x1="-32762" fill="none"/><line y2="-28886" y1="-27690" x2="-32762" x1="-32762" fill="none"/><line y2="-28738" y1="-27840" x2="-32595" x1="-32595" fill="none"/><line y2="-27167" y1="-27690" x2="-27710" x1="-28617" fill="none"/><line y2="-30532" y1="-29703" x2="-29651" x1="-29651" fill="none"/><line y2="-31055" y1="-30532" x2="-30558" x1="-29651" fill="none"/><line y2="-27721" y1="-27167" x2="-26956" x1="-27710" fill="none"/><line y2="-27167" y1="-26101" x2="-27710" x1="-27380" fill="none"/><line y2="-27083" y1="-26286" x2="-27505" x1="-27259" fill="none"/><line y2="-27167" y1="-27716" x2="-25867" x1="-26577" fill="none"/><line y2="-26101" y1="-26101" x2="-27380" x1="-26234" fill="none"/><line y2="-26101" y1="-27167" x2="-26234" x1="-25867" fill="none"/><line y2="-26291" y1="-27089" x2="-26349" x1="-26072" fill="none"/><line y2="-27690" y1="-27167" x2="-24960" x1="-25867" fill="none"/><line y2="-27274" y1="-27690" x2="-24240" x1="-24960" fill="none"/><line y2="-31055" y1="-32193" x2="-30558" x1="-30558" fill="none"/><line y2="-31200" y1="-32052" x2="-30729" x1="-30729" fill="none"/><line y2="-30489" y1="-31055" x2="-31540" x1="-30558" fill="none"/><line y2="-32193" y1="-32762" x2="-30558" x1="-31540" fill="none"/><line y2="-31055" y1="-30489" x2="-32528" x1="-31540" fill="none"/><line y2="-31133" y1="-30706" x2="-32318" x1="-31578" fill="none"/><line y2="-32762" y1="-32193" x2="-31540" x1="-32528" fill="none"/><line y2="-32543" y1="-32118" x2="-31578" x1="-32318" fill="none"/><line y2="-32193" y1="-31055" x2="-32528" x1="-32528" fill="none"/><text y="-26988" xml:space="preserve" x="-24203" stroke="none" font-size="433.3333" font-family="sans-serif">OH</text><text y="-28706" xml:space="preserve" x="-28767" stroke="none" font-size="433.3333" font-family="sans-serif">N</text><text y="-29304" xml:space="preserve" x="-29801" stroke="none" font-size="433.3333" font-family="sans-serif">N</text><text y="-27681" xml:space="preserve" x="-26918" stroke="none" font-size="433.3333" font-family="sans-serif">O</text></g></g></svg>