<svg width="269.88" viewBox="0 0 8996 5865" text-rendering="auto" stroke-width="1" stroke-opacity="1" stroke-miterlimit="10" stroke-linejoin="miter" stroke-linecap="square" stroke-dashoffset="0" stroke-dasharray="none" stroke="black" shape-rendering="auto" image-rendering="auto" height="175.95" font-weight="normal" font-style="normal" font-size="12" font-family="'Dialog'" fill-opacity="1" fill="black" color-rendering="auto" color-interpolation="auto" xmlns="http://www.w3.org/2000/svg"><g><g stroke="white" fill="white"><rect y="0" x="0" width="8996" stroke="none" height="5865"/></g><g transform="translate(32866,32758)" text-rendering="geometricPrecision" stroke-width="44" stroke-linejoin="round" stroke-linecap="round"><line y2="-28007" y1="-29146" x2="-28822" x1="-28822" fill="none"/><line y2="-29146" y1="-29715" x2="-28822" x1="-29804" fill="none"/><line y2="-28007" y1="-28007" x2="-30792" x1="-28822" fill="none"/><line y2="-29715" y1="-29146" x2="-29804" x1="-30792" fill="none"/><line y2="-29146" y1="-28007" x2="-30792" x1="-30792" fill="none"/><line y2="-27438" y1="-28007" x2="-31777" x1="-30792" fill="none"/><line y2="-27658" y1="-28082" x2="-31740" x1="-31000" fill="none"/><line y2="-29146" y1="-29715" x2="-30792" x1="-31777" fill="none"/><line y2="-29068" y1="-29495" x2="-31000" x1="-31740" fill="none"/><line y2="-28007" y1="-27438" x2="-32762" x1="-31777" fill="none"/><line y2="-29715" y1="-29146" x2="-31777" x1="-32762" fill="none"/><line y2="-29146" y1="-28007" x2="-32762" x1="-32762" fill="none"/><line y2="-29001" y1="-28149" x2="-32592" x1="-32592" fill="none"/><line y2="-29729" y1="-29206" x2="-27950" x1="-28857" fill="none"/><line y2="-29608" y1="-29085" x2="-27880" x1="-28787" fill="none"/><line y2="-27505" y1="-28056" x2="-28221" x1="-28773" fill="none"/><line y2="-27406" y1="-27958" x2="-28319" x1="-28871" fill="none"/><line y2="-30541" y1="-29715" x2="-29874" x1="-29874" fill="none"/><line y2="-30541" y1="-29715" x2="-29735" x1="-29735" fill="none"/><line y2="-29668" y1="-29668" x2="-27915" x1="-25945" fill="none"/><line y2="-30807" y1="-29668" x2="-27915" x1="-27915" fill="none"/><line y2="-30807" y1="-29668" x2="-25945" x1="-25945" fill="none"/><line y2="-29668" y1="-29099" x2="-25945" x1="-24960" fill="none"/><line y2="-29744" y1="-29319" x2="-25737" x1="-24997" fill="none"/><line y2="-31376" y1="-30807" x2="-26930" x1="-27915" fill="none"/><line y2="-30807" y1="-31376" x2="-25945" x1="-26930" fill="none"/><line y2="-31376" y1="-30807" x2="-24960" x1="-25945" fill="none"/><line y2="-31156" y1="-30729" x2="-24997" x1="-25737" fill="none"/><line y2="-29099" y1="-29668" x2="-24960" x1="-23974" fill="none"/><line y2="-30807" y1="-31376" x2="-23974" x1="-24960" fill="none"/><line y2="-29668" y1="-30807" x2="-23974" x1="-23974" fill="none"/><line y2="-29810" y1="-30665" x2="-24142" x1="-24142" fill="none"/><line y2="-32202" y1="-31376" x2="-27002" x1="-27002" fill="none"/><line y2="-32202" y1="-31376" x2="-26860" x1="-26860" fill="none"/><text y="-27089" xml:space="preserve" x="-28233" stroke="none" font-size="433.3333" font-family="sans-serif">O</text><text y="-30581" xml:space="preserve" x="-29957" stroke="none" font-size="433.3333" font-family="sans-serif">O</text><text y="-32242" xml:space="preserve" x="-27083" stroke="none" font-size="433.3333" font-family="sans-serif">O</text></g></g></svg>