<svg width="322.68" viewBox="0 0 10756 6887" text-rendering="auto" stroke-width="1" stroke-opacity="1" stroke-miterlimit="10" stroke-linejoin="miter" stroke-linecap="square" stroke-dashoffset="0" stroke-dasharray="none" stroke="black" shape-rendering="auto" image-rendering="auto" height="206.61" font-weight="normal" font-style="normal" font-size="12" font-family="'Dialog'" fill-opacity="1" fill="black" color-rendering="auto" color-interpolation="auto" xmlns="http://www.w3.org/2000/svg"><g><g stroke="white" fill="white"><rect y="0" x="0" width="10756" stroke="none" height="6887"/></g><g transform="translate(32866,32866)" text-rendering="geometricPrecision" stroke-width="44" stroke-linejoin="round" stroke-linecap="round"><line y2="-29697" y1="-30220" x2="-28438" x1="-29345" fill="none"/><line y2="-29697" y1="-30220" x2="-30252" x1="-29345" fill="none"/><line y2="-31055" y1="-30220" x2="-30792" x1="-29345" fill="none"/><line y2="-31049" y1="-30220" x2="-29345" x1="-29345" fill="none"/><line y2="-31685" y1="-31376" x2="-28626" x1="-29157" fill="none"/><line y2="-30113" y1="-29697" x2="-27718" x1="-28438" fill="none"/><line y2="-29697" y1="-30113" x2="-26624" x1="-27343" fill="none"/><line y2="-29697" y1="-30266" x2="-30252" x1="-31234" fill="none"/><line y2="-29622" y1="-30047" x2="-30460" x1="-31197" fill="none"/><line y2="-28559" y1="-29697" x2="-30252" x1="-30252" fill="none"/><line y2="-30266" y1="-29697" x2="-31234" x1="-32222" fill="none"/><line y2="-27990" y1="-28559" x2="-31234" x1="-30252" fill="none"/><line y2="-28210" y1="-28637" x2="-31197" x1="-30460" fill="none"/><line y2="-29697" y1="-28559" x2="-32222" x1="-32222" fill="none"/><line y2="-29556" y1="-28701" x2="-32052" x1="-32052" fill="none"/><line y2="-28559" y1="-27990" x2="-32222" x1="-31234" fill="none"/><line y2="-31055" y1="-32193" x2="-30792" x1="-30792" fill="none"/><line y2="-31200" y1="-32052" x2="-30963" x1="-30963" fill="none"/><line y2="-30489" y1="-31055" x2="-31774" x1="-30792" fill="none"/><line y2="-32193" y1="-32762" x2="-30792" x1="-31774" fill="none"/><line y2="-31055" y1="-30489" x2="-32762" x1="-31774" fill="none"/><line y2="-31133" y1="-30706" x2="-32554" x1="-31812" fill="none"/><line y2="-32762" y1="-32193" x2="-31774" x1="-32762" fill="none"/><line y2="-32543" y1="-32118" x2="-31812" x1="-32554" fill="none"/><line y2="-32193" y1="-31055" x2="-32762" x1="-32762" fill="none"/><line y2="-30157" y1="-29697" x2="-25826" x1="-26624" fill="none"/><line y2="-29697" y1="-28779" x2="-26624" x1="-26624" fill="none"/><line y2="-29582" y1="-28894" x2="-26453" x1="-26453" fill="none"/><line y2="-29697" y1="-30157" x2="-24653" x1="-25451" fill="none"/><line y2="-29608" y1="-29952" x2="-24838" x1="-25436" fill="none"/><line y2="-28452" y1="-27990" x2="-26436" x1="-25638" fill="none"/><line y2="-28559" y1="-29697" x2="-24653" x1="-24653" fill="none"/><line y2="-27990" y1="-28559" x2="-25638" x1="-24653" fill="none"/><line y2="-28210" y1="-28637" x2="-25601" x1="-24861" fill="none"/><line y2="-30113" y1="-29697" x2="-23934" x1="-24653" fill="none"/><line y2="-29804" y1="-30113" x2="-23027" x1="-23558" fill="none"/><line y2="-27164" y1="-27990" x2="-25638" x1="-25638" fill="none"/><line y2="-26528" y1="-26834" x2="-24919" x1="-25451" fill="none"/><line y2="-28233" y1="-28649" x2="-27718" x1="-28438" fill="none"/><line y2="-28172" y1="-28588" x2="-29122" x1="-28403" fill="none"/><line y2="-28293" y1="-28689" x2="-29192" x1="-28507" fill="none"/><line y2="-28649" y1="-28649" x2="-28507" x1="-28368" fill="none"/><line y2="-28866" y1="-28866" x2="-28493" x1="-28382" fill="none"/><line y2="-29082" y1="-29082" x2="-28478" x1="-28397" fill="none"/><line y2="-29299" y1="-29299" x2="-28464" x1="-28411" fill="none"/><line y2="-29516" y1="-29516" x2="-28450" x1="-28426" fill="none"/><text y="-31090" xml:space="preserve" x="-29495" stroke="none" font-size="433.3333" font-family="sans-serif">O</text><text y="-30041" xml:space="preserve" x="-27681" stroke="none" font-size="433.3333" font-family="sans-serif">O</text><text y="-31613" xml:space="preserve" x="-28588" stroke="none" font-size="433.3333" font-family="sans-serif">CH</text><text y="-31523" xml:space="preserve" x="-28010" stroke="none" font-size="313.3333" font-family="sans-serif">3</text><text y="-27947" xml:space="preserve" x="-27681" stroke="none" font-size="433.3333" font-family="sans-serif">OH</text><text y="-27947" xml:space="preserve" x="-29495" stroke="none" font-size="433.3333" font-family="sans-serif">O</text><text y="-30041" xml:space="preserve" x="-23896" stroke="none" font-size="433.3333" font-family="sans-serif">O</text><text y="-29518" xml:space="preserve" x="-22989" stroke="none" font-size="433.3333" font-family="sans-serif">CH</text><text y="-29429" xml:space="preserve" x="-22412" stroke="none" font-size="313.3333" font-family="sans-serif">3</text><text y="-26765" xml:space="preserve" x="-25792" stroke="none" font-size="433.3333" font-family="sans-serif">O</text><text y="-26239" xml:space="preserve" x="-24884" stroke="none" font-size="433.3333" font-family="sans-serif">CH</text><text y="-26150" xml:space="preserve" x="-24307" stroke="none" font-size="313.3333" font-family="sans-serif">3</text><text y="-30087" xml:space="preserve" x="-25792" stroke="none" font-size="433.3333" font-family="sans-serif">N</text><text y="-28380" xml:space="preserve" x="-26774" stroke="none" font-size="433.3333" font-family="sans-serif">N</text><text y="-29822" xml:space="preserve" x="-28588" stroke="none" font-style="italic" font-size="313.3333" font-family="sans-serif">S</text></g></g></svg>