<svg width="406.62" viewBox="0 0 13554 7768" text-rendering="auto" stroke-width="1" stroke-opacity="1" stroke-miterlimit="10" stroke-linejoin="miter" stroke-linecap="square" stroke-dashoffset="0" stroke-dasharray="none" stroke="black" shape-rendering="auto" image-rendering="auto" height="233.04" font-weight="normal" font-style="normal" font-size="12" font-family="'Dialog'" fill-opacity="1" fill="black" color-rendering="auto" color-interpolation="auto" xmlns="http://www.w3.org/2000/svg"><g><g stroke="white" fill="white"><rect y="0" x="0" width="13554" stroke="none" height="7768"/></g><g transform="translate(32866,32866)" text-rendering="geometricPrecision" stroke-width="44" stroke-linejoin="round" stroke-linecap="round"><line y2="-29498" y1="-30053" x2="-23154" x1="-24156" fill="none"/><line y2="-30053" y1="-29472" x2="-24156" x1="-25136" fill="none"/><line y2="-31191" y1="-30053" x2="-24182" x1="-24156" fill="none"/><line y2="-28360" y1="-29498" x2="-23128" x1="-23154" fill="none"/><line y2="-29498" y1="-31217" x2="-23154" x1="-22201" fill="none"/><line y2="-28334" y1="-29472" x2="-25110" x1="-25136" fill="none"/><line y2="-29472" y1="-30030" x2="-25136" x1="-26135" fill="none"/><line y2="-31772" y1="-31191" x2="-23203" x1="-24182" fill="none"/><line y2="-27779" y1="-28360" x2="-24107" x1="-23128" fill="none"/><line y2="-31217" y1="-31772" x2="-22201" x1="-23203" fill="none"/><line y2="-28334" y1="-27779" x2="-25110" x1="-24107" fill="none"/><line y2="-27753" y1="-28334" x2="-26086" x1="-25110" fill="none"/><line y2="-30030" y1="-29446" x2="-26135" x1="-27115" fill="none"/><line y2="-28311" y1="-27753" x2="-27089" x1="-26086" fill="none"/><line y2="-26618" y1="-27753" x2="-26083" x1="-26086" fill="none"/><line y2="-29446" y1="-28311" x2="-27115" x1="-27089" fill="none"/><line y2="-28311" y1="-27721" x2="-27089" x1="-28071" fill="none"/><line y2="-26031" y1="-26618" x2="-27068" x1="-26083" fill="none"/><line y2="-26583" y1="-27721" x2="-28062" x1="-28071" fill="none"/><line y2="-27721" y1="-28290" x2="-28071" x1="-29065" fill="none"/><line y2="-26583" y1="-26031" x2="-28062" x1="-27068" fill="none"/><line y2="-26014" y1="-26583" x2="-29047" x1="-28062" fill="none"/><line y2="-28290" y1="-27721" x2="-29065" x1="-30053" fill="none"/><line y2="-26583" y1="-26014" x2="-30041" x1="-29047" fill="none"/><line y2="-27721" y1="-26583" x2="-30053" x1="-30041" fill="none"/><line y2="-29660" y1="-29244" x2="-21418" x1="-22137" fill="none"/><line y2="-29244" y1="-29660" x2="-20323" x1="-21042" fill="none"/><line y2="-25202" y1="-26014" x2="-28386" x1="-29047" fill="none"/><line y2="-25214" y1="-26014" x2="-29720" x1="-29047" fill="none"/><line y2="-26583" y1="-26167" x2="-31855" x1="-31136" fill="none"/><line y2="-31191" y1="-31714" x2="-25997" x1="-25090" fill="none"/><line y2="-32762" y1="-31714" x2="-25090" x1="-25090" fill="none"/><line y2="-32762" y1="-31717" x2="-24951" x1="-24951" fill="none"/><line y2="-29770" y1="-29244" x2="-19416" x1="-20323" fill="none"/><line y2="-28418" y1="-29244" x2="-20254" x1="-20254" fill="none"/><line y2="-28418" y1="-29244" x2="-20392" x1="-20392" fill="none"/><line y2="-26060" y1="-26583" x2="-32762" x1="-31855" fill="none"/><line y2="-27412" y1="-26583" x2="-31925" x1="-31925" fill="none"/><line y2="-27412" y1="-26583" x2="-31786" x1="-31786" fill="none"/><polygon stroke-width="1" stroke="none" points=" -23154 -29498 -22123 -29313 -22154 -29177"/><polygon stroke-width="1" points=" -23154 -29498 -22123 -29313 -22154 -29177" fill="none"/><polygon stroke-width="1" stroke="none" points=" -26086 -27753 -26156 -28802 -26020 -28802"/><polygon stroke-width="1" points=" -26086 -27753 -26156 -28802 -26020 -28802" fill="none"/><polygon stroke-width="1" stroke="none" points=" -28071 -27721 -28140 -28767 -28002 -28770"/><polygon stroke-width="1" points=" -28071 -27721 -28140 -28767 -28002 -28770" fill="none"/><polygon stroke-width="1" stroke="none" points=" -30041 -26583 -30726 -26109 -30795 -26228"/><polygon stroke-width="1" points=" -30041 -26583 -30726 -26109 -30795 -26228" fill="none"/><polygon stroke-width="1" stroke="none" points=" -25136 -29472 -25202 -30301 -25066 -30301"/><polygon stroke-width="1" points=" -25136 -29472 -25202 -30301 -25066 -30301" fill="none"/><line y2="-31774" y1="-31656" x2="-25055" x1="-25124" fill="none"/><line y2="-31653" y1="-31560" x2="-24874" x1="-24929" fill="none"/><line y2="-31533" y1="-31464" x2="-24694" x1="-24734" fill="none"/><line y2="-31412" y1="-31368" x2="-24513" x1="-24540" fill="none"/><line y2="-31292" y1="-31271" x2="-24333" x1="-24345" fill="none"/><line y2="-27285" y1="-27288" x2="-25179" x1="-25040" fill="none"/><line y2="-27502" y1="-27504" x2="-25165" x1="-25054" fill="none"/><line y2="-27719" y1="-27721" x2="-25150" x1="-25069" fill="none"/><line y2="-27936" y1="-27937" x2="-25136" x1="-25083" fill="none"/><line y2="-28153" y1="-28153" x2="-25122" x1="-25098" fill="none"/><line y2="-27482" y1="-27482" x2="-27158" x1="-27019" fill="none"/><line y2="-27699" y1="-27699" x2="-27140" x1="-27037" fill="none"/><line y2="-27915" y1="-27915" x2="-27122" x1="-27056" fill="none"/><line y2="-28132" y1="-28132" x2="-27104" x1="-27074" fill="none"/><line y2="-29224" y1="-29226" x2="-24226" x1="-24087" fill="none"/><line y2="-29441" y1="-29442" x2="-24208" x1="-24105" fill="none"/><line y2="-29658" y1="-29659" x2="-24189" x1="-24123" fill="none"/><line y2="-29875" y1="-29875" x2="-24171" x1="-24141" fill="none"/><line y2="-25754" y1="-25754" x2="-28132" x1="-27993" fill="none"/><line y2="-25971" y1="-25971" x2="-28114" x1="-28011" fill="none"/><line y2="-26187" y1="-26187" x2="-28095" x1="-28029" fill="none"/><line y2="-26404" y1="-26404" x2="-28077" x1="-28047" fill="none"/><text y="-29590" xml:space="preserve" x="-21383" stroke="none" font-size="433.3333" font-family="sans-serif">O</text><text y="-28019" xml:space="preserve" x="-20476" stroke="none" font-size="433.3333" font-family="sans-serif">O</text><text y="-25881" xml:space="preserve" x="-31101" stroke="none" font-size="433.3333" font-family="sans-serif">O</text><text y="-27453" xml:space="preserve" x="-32008" stroke="none" font-size="433.3333" font-family="sans-serif">O</text><text y="-30342" xml:space="preserve" x="-25286" stroke="none" font-size="433.3333" font-family="sans-serif">H</text><text y="-27083" xml:space="preserve" x="-27242" stroke="none" font-size="433.3333" font-family="sans-serif">H</text><text y="-28828" xml:space="preserve" x="-24310" stroke="none" font-size="433.3333" font-family="sans-serif">H</text><text y="-25355" xml:space="preserve" x="-28215" stroke="none" font-size="433.3333" font-family="sans-serif">H</text><text y="-30018" xml:space="preserve" x="-24558" stroke="none" font-style="italic" font-size="313.3333" font-family="sans-serif">R</text><text y="-29056" xml:space="preserve" x="-23561" stroke="none" font-style="italic" font-size="313.3333" font-family="sans-serif">S</text><text y="-29030" xml:space="preserve" x="-25540" stroke="none" font-style="italic" font-size="313.3333" font-family="sans-serif">R</text><text y="-30867" xml:space="preserve" x="-24084" stroke="none" font-style="italic" font-size="313.3333" font-family="sans-serif">R</text><text y="-28420" xml:space="preserve" x="-25006" stroke="none" font-style="italic" font-size="313.3333" font-family="sans-serif">R</text><text y="-27453" xml:space="preserve" x="-25979" stroke="none" font-style="italic" font-size="313.3333" font-family="sans-serif">R</text><text y="-28276" xml:space="preserve" x="-26993" stroke="none" font-style="italic" font-size="313.3333" font-family="sans-serif">R</text><text y="-27398" xml:space="preserve" x="-27976" stroke="none" font-style="italic" font-size="313.3333" font-family="sans-serif">R</text><text y="-26548" xml:space="preserve" x="-27964" stroke="none" font-style="italic" font-size="313.3333" font-family="sans-serif">R</text><text y="-26548" xml:space="preserve" x="-29946" stroke="none" font-style="italic" font-size="313.3333" font-family="sans-serif">S</text></g></g></svg>