<svg width="300.33" viewBox="0 0 10011 4106" text-rendering="auto" stroke-width="1" stroke-opacity="1" stroke-miterlimit="10" stroke-linejoin="miter" stroke-linecap="square" stroke-dashoffset="0" stroke-dasharray="none" stroke="black" shape-rendering="auto" image-rendering="auto" height="123.18" font-weight="normal" font-style="normal" font-size="12" font-family="'Dialog'" fill-opacity="1" fill="black" color-rendering="auto" color-interpolation="auto" xmlns="http://www.w3.org/2000/svg"><g><g stroke="white" fill="white"><rect y="0" x="0" width="10011" stroke="none" height="4106"/></g><g transform="translate(32866,32758)" text-rendering="geometricPrecision" stroke-width="44" stroke-linejoin="round" stroke-linecap="round"><line y2="-31815" y1="-30602" x2="-28409" x1="-28409" fill="none"/><line y2="-30602" y1="-30602" x2="-28409" x1="-26303" fill="none"/><line y2="-29992" y1="-30602" x2="-29460" x1="-28409" fill="none"/><line y2="-30217" y1="-30671" x2="-29414" x1="-28626" fill="none"/><line y2="-32315" y1="-31815" x2="-27542" x1="-28409" fill="none"/><line y2="-31815" y1="-32422" x2="-28409" x1="-29460" fill="none"/><line y2="-31746" y1="-32199" x2="-28626" x1="-29414" fill="none"/><line y2="-30602" y1="-31815" x2="-26303" x1="-26303" fill="none"/><line y2="-30752" y1="-31662" x2="-26473" x1="-26473" fill="none"/><line y2="-30602" y1="-29992" x2="-30515" x1="-29460" fill="none"/><line y2="-31815" y1="-32202" x2="-26303" x1="-26973" fill="none"/><line y2="-32422" y1="-31815" x2="-29460" x1="-30515" fill="none"/><line y2="-31815" y1="-30602" x2="-30515" x1="-30515" fill="none"/><line y2="-31662" y1="-30752" x2="-30344" x1="-30344" fill="none"/><line y2="-30076" y1="-30602" x2="-25396" x1="-26303" fill="none"/><line y2="-30186" y1="-30602" x2="-31234" x1="-30515" fill="none"/><line y2="-30434" y1="-30186" x2="-32040" x1="-31610" fill="none"/><line y2="-30492" y1="-30076" x2="-24676" x1="-25396" fill="none"/><line y2="-30186" y1="-30492" x2="-23769" x1="-24301" fill="none"/><line y2="-29247" y1="-30076" x2="-25326" x1="-25326" fill="none"/><line y2="-29247" y1="-30076" x2="-25465" x1="-25465" fill="none"/><text y="-30422" xml:space="preserve" x="-24642" stroke="none" font-size="433.3333" font-family="sans-serif">O</text><text y="-28848" xml:space="preserve" x="-25549" stroke="none" font-size="433.3333" font-family="sans-serif">O</text><text y="-29897" xml:space="preserve" x="-23735" stroke="none" font-size="433.3333" font-family="sans-serif">CH</text><text y="-29807" xml:space="preserve" x="-23157" stroke="none" font-size="313.3333" font-family="sans-serif">3</text><text y="-29897" xml:space="preserve" x="-31572" stroke="none" font-size="433.3333" font-family="sans-serif">O</text><text y="-30584" xml:space="preserve" x="-32762" stroke="none" font-size="433.3333" font-family="sans-serif">CH</text><text y="-30495" xml:space="preserve" x="-32185" stroke="none" font-size="313.3333" font-family="sans-serif">3</text><text y="-32242" xml:space="preserve" x="-27505" stroke="none" font-size="433.3333" font-family="sans-serif">NH</text></g></g></svg>