<svg width="469.02" viewBox="0 0 15634 11325" text-rendering="auto" stroke-width="1" stroke-opacity="1" stroke-miterlimit="10" stroke-linejoin="miter" stroke-linecap="square" stroke-dashoffset="0" stroke-dasharray="none" stroke="black" shape-rendering="auto" image-rendering="auto" height="339.75" font-weight="normal" font-style="normal" font-size="12" font-family="'Dialog'" fill-opacity="1" fill="black" color-rendering="auto" color-interpolation="auto" xmlns="http://www.w3.org/2000/svg"><g><g stroke="white" fill="white"><rect y="0" x="0" width="15634" stroke="none" height="11325"/></g><g transform="translate(32866,32758)" text-rendering="geometricPrecision" stroke-width="44" stroke-linejoin="round" stroke-linecap="round"><line y2="-28210" y1="-27640" x2="-20464" x1="-19491" fill="none"/><line y2="-28210" y1="-27640" x2="-18514" x1="-19491" fill="none"/><line y2="-27640" y1="-26655" x2="-19491" x1="-18922" fill="none"/><line y2="-26782" y1="-28210" x2="-21510" x1="-20464" fill="none"/><line y2="-29345" y1="-28210" x2="-20464" x1="-20464" fill="none"/><line y2="-27447" y1="-28210" x2="-18067" x1="-18514" fill="none"/><line y2="-28210" y1="-29345" x2="-18514" x1="-18514" fill="none"/><line y2="-26655" y1="-27118" x2="-18922" x1="-18127" fill="none"/><line y2="-27389" y1="-26782" x2="-22738" x1="-21510" fill="none"/><line y2="-29345" y1="-30327" x2="-20464" x1="-21034" fill="none"/><line y2="-29914" y1="-29345" x2="-19491" x1="-20464" fill="none"/><line y2="-29345" y1="-29914" x2="-18514" x1="-19491" fill="none"/><line y2="-28366" y1="-27389" x2="-22169" x1="-22738" fill="none"/><line y2="-27389" y1="-27389" x2="-23873" x1="-22738" fill="none"/><line y2="-30327" y1="-30327" x2="-21034" x1="-22172" fill="none"/><line y2="-29339" y1="-28366" x2="-22738" x1="-22169" fill="none"/><line y2="-28366" y1="-27389" x2="-24442" x1="-23873" fill="none"/><line y2="-30327" y1="-29339" x2="-22172" x1="-22738" fill="none"/><line y2="-29339" y1="-29339" x2="-22738" x1="-23873" fill="none"/><line y2="-29169" y1="-29169" x2="-22880" x1="-23732" fill="none"/><line y2="-29339" y1="-28366" x2="-23873" x1="-24442" fill="none"/><line y2="-28366" y1="-28782" x2="-26257" x1="-25537" fill="none"/><line y2="-27678" y1="-28366" x2="-21377" x1="-22169" fill="none"/><line y2="-29024" y1="-28366" x2="-21354" x1="-22169" fill="none"/><line y2="-30255" y1="-29339" x2="-24382" x1="-23873" fill="none"/><line y2="-25211" y1="-25627" x2="-22417" x1="-21698" fill="none"/><line y2="-22856" y1="-23270" x2="-21458" x1="-20739" fill="none"/><line y2="-31899" y1="-31070" x2="-23076" x1="-23076" fill="none"/><line y2="-31049" y1="-30362" x2="-20698" x1="-21094" fill="none"/><line y2="-30980" y1="-30292" x2="-20574" x1="-20973" fill="none"/><line y2="-28888" y1="-28366" x2="-27164" x1="-26257" fill="none"/><line y2="-27536" y1="-28366" x2="-26187" x1="-26187" fill="none"/><line y2="-27536" y1="-28366" x2="-26326" x1="-26326" fill="none"/><line y2="-25737" y1="-25211" x2="-23324" x1="-22417" fill="none"/><line y2="-24382" y1="-25211" x2="-22348" x1="-22348" fill="none"/><line y2="-24382" y1="-25211" x2="-22490" x1="-22490" fill="none"/><line y2="-23379" y1="-22856" x2="-22365" x1="-21458" fill="none"/><line y2="-22027" y1="-22856" x2="-21389" x1="-21389" fill="none"/><line y2="-22027" y1="-22856" x2="-21528" x1="-21528" fill="none"/><line y2="-32422" y1="-31899" x2="-23986" x1="-23076" fill="none"/><line y2="-32375" y1="-31959" x2="-22391" x1="-23114" fill="none"/><line y2="-32254" y1="-31838" x2="-22322" x1="-23041" fill="none"/><line y2="-28366" y1="-28888" x2="-28071" x1="-27164" fill="none"/><line y2="-25211" y1="-25737" x2="-24232" x1="-23324" fill="none"/><line y2="-25156" y1="-25549" x2="-24050" x1="-23371" fill="none"/><line y2="-26782" y1="-25737" x2="-23324" x1="-23324" fill="none"/><line y2="-28669" y1="-28366" x2="-28600" x1="-28071" fill="none"/><line y2="-28366" y1="-28782" x2="-29885" x1="-29166" fill="none"/><line y2="-25737" y1="-25211" x2="-25139" x1="-24232" fill="none"/><line y2="-28888" y1="-28366" x2="-30792" x1="-29885" fill="none"/><line y2="-27536" y1="-28366" x2="-29816" x1="-29816" fill="none"/><line y2="-27536" y1="-28366" x2="-29957" x1="-29957" fill="none"/><line y2="-27317" y1="-26748" x2="-28071" x1="-29059" fill="none"/><line y2="-27097" y1="-26673" x2="-28111" x1="-28851" fill="none"/><line y2="-26748" y1="-27317" x2="-27089" x1="-28071" fill="none"/><line y2="-26748" y1="-25612" x2="-29059" x1="-29059" fill="none"/><line y2="-25612" y1="-26748" x2="-27089" x1="-27089" fill="none"/><line y2="-25754" y1="-26606" x2="-27259" x1="-27259" fill="none"/><line y2="-25612" y1="-25043" x2="-29059" x1="-28071" fill="none"/><line y2="-25688" y1="-25260" x2="-28851" x1="-28111" fill="none"/><line y2="-25043" y1="-25612" x2="-28071" x1="-27089" fill="none"/><line y2="-28888" y1="-30027" x2="-30792" x1="-30792" fill="none"/><line y2="-29030" y1="-29885" x2="-30963" x1="-30963" fill="none"/><line y2="-28319" y1="-28888" x2="-31777" x1="-30792" fill="none"/><line y2="-30027" y1="-30596" x2="-30792" x1="-31777" fill="none"/><line y2="-28888" y1="-28319" x2="-32762" x1="-31777" fill="none"/><line y2="-28966" y1="-28539" x2="-32554" x1="-31815" fill="none"/><line y2="-30596" y1="-30027" x2="-31777" x1="-32762" fill="none"/><line y2="-30376" y1="-29949" x2="-31815" x1="-32554" fill="none"/><line y2="-30027" y1="-28888" x2="-32762" x1="-32762" fill="none"/><polygon stroke-width="1" stroke="none" points=" -20464 -29345 -20534 -30394 -20395 -30394"/><polygon stroke-width="1" points=" -20464 -29345 -20534 -30394 -20395 -30394" fill="none"/><polygon stroke-width="1" stroke="none" points=" -22172 -30327 -22923 -30682 -22854 -30801"/><polygon stroke-width="1" points=" -22172 -30327 -22923 -30682 -22854 -30801" fill="none"/><polygon stroke-width="1" stroke="none" points=" -22738 -27389 -22669 -26563 -22807 -26560"/><polygon stroke-width="1" points=" -22738 -27389 -22669 -26563 -22807 -26560" fill="none"/><polygon stroke-width="1" stroke="none" points=" -19491 -29914 -19557 -30740 -19422 -30743"/><polygon stroke-width="1" points=" -19491 -29914 -19557 -30740 -19422 -30743" fill="none"/><polygon stroke-width="1" stroke="none" points=" -27164 -28888 -27233 -29718 -27094 -29718"/><polygon stroke-width="1" points=" -27164 -28888 -27233 -29718 -27094 -29718" fill="none"/><line y2="-28839" y1="-28721" x2="-25127" x1="-25196" fill="none"/><line y2="-28716" y1="-28628" x2="-24948" x1="-24999" fill="none"/><line y2="-28592" y1="-28536" x2="-24769" x1="-24802" fill="none"/><line y2="-28469" y1="-28443" x2="-24591" x1="-24606" fill="none"/><line y2="-25953" y1="-25956" x2="-21580" x1="-21441" fill="none"/><line y2="-26170" y1="-26172" x2="-21562" x1="-21459" fill="none"/><line y2="-26387" y1="-26389" x2="-21543" x1="-21477" fill="none"/><line y2="-26604" y1="-26605" x2="-21525" x1="-21495" fill="none"/><line y2="-23616" y1="-23582" x2="-20563" x1="-20430" fill="none"/><line y2="-23825" y1="-23793" x2="-20507" x1="-20381" fill="none"/><line y2="-24035" y1="-24004" x2="-20451" x1="-20332" fill="none"/><line y2="-24244" y1="-24215" x2="-20396" x1="-20283" fill="none"/><line y2="-24453" y1="-24427" x2="-20340" x1="-20235" fill="none"/><line y2="-24663" y1="-24638" x2="-20284" x1="-20186" fill="none"/><line y2="-24872" y1="-24849" x2="-20228" x1="-20137" fill="none"/><line y2="-25082" y1="-25060" x2="-20173" x1="-20088" fill="none"/><line y2="-25291" y1="-25271" x2="-20117" x1="-20039" fill="none"/><line y2="-25500" y1="-25482" x2="-20061" x1="-19990" fill="none"/><line y2="-25710" y1="-25693" x2="-20005" x1="-19941" fill="none"/><line y2="-25919" y1="-25905" x2="-19949" x1="-19893" fill="none"/><line y2="-26128" y1="-26116" x2="-19894" x1="-19844" fill="none"/><line y2="-26338" y1="-26327" x2="-19838" x1="-19795" fill="none"/><line y2="-26547" y1="-26538" x2="-19782" x1="-19746" fill="none"/><line y2="-26757" y1="-26749" x2="-19726" x1="-19697" fill="none"/><line y2="-26966" y1="-26960" x2="-19671" x1="-19648" fill="none"/><line y2="-27175" y1="-27171" x2="-19615" x1="-19599" fill="none"/><line y2="-27385" y1="-27383" x2="-19559" x1="-19551" fill="none"/><line y2="-27594" y1="-27594" x2="-19503" x1="-19502" fill="none"/><line y2="-27378" y1="-27380" x2="-20534" x1="-20395" fill="none"/><line y2="-27595" y1="-27596" x2="-20516" x1="-20413" fill="none"/><line y2="-27812" y1="-27813" x2="-20497" x1="-20431" fill="none"/><line y2="-28029" y1="-28029" x2="-20479" x1="-20449" fill="none"/><line y2="-28363" y1="-28496" x2="-17674" x1="-17708" fill="none"/><line y2="-28324" y1="-28423" x2="-17888" x1="-17913" fill="none"/><line y2="-28285" y1="-28350" x2="-18101" x1="-18118" fill="none"/><line y2="-28246" y1="-28278" x2="-18315" x1="-18323" fill="none"/><line y2="-27317" y1="-27317" x2="-28140" x1="-28002" fill="none"/><line y2="-27534" y1="-27534" x2="-28126" x1="-28016" fill="none"/><line y2="-27750" y1="-27750" x2="-28111" x1="-28031" fill="none"/><line y2="-27967" y1="-27967" x2="-28097" x1="-28045" fill="none"/><line y2="-28184" y1="-28184" x2="-28083" x1="-28059" fill="none"/><text y="-23200" xml:space="preserve" x="-20704" stroke="none" font-size="433.3333" font-family="sans-serif">O</text><text y="-21629" xml:space="preserve" x="-21611" stroke="none" font-size="433.3333" font-family="sans-serif">O</text><text y="-25558" xml:space="preserve" x="-21663" stroke="none" font-size="433.3333" font-family="sans-serif">O</text><text y="-23986" xml:space="preserve" x="-22570" stroke="none" font-size="433.3333" font-family="sans-serif">O</text><text y="-26164" xml:space="preserve" x="-22888" stroke="none" font-size="433.3333" font-family="sans-serif">OH</text><text y="-31055" xml:space="preserve" x="-20661" stroke="none" font-size="433.3333" font-family="sans-serif">O</text><text y="-30784" xml:space="preserve" x="-19641" stroke="none" font-size="433.3333" font-family="sans-serif">OH</text><text y="-30671" xml:space="preserve" x="-23229" stroke="none" font-size="433.3333" font-family="sans-serif">O</text><text y="-32242" xml:space="preserve" x="-22322" stroke="none" font-size="433.3333" font-family="sans-serif">O</text><text y="-28709" xml:space="preserve" x="-25503" stroke="none" font-size="433.3333" font-family="sans-serif">O</text><text y="-27138" xml:space="preserve" x="-26410" stroke="none" font-size="433.3333" font-family="sans-serif">O</text><text y="-29758" xml:space="preserve" x="-27317" stroke="none" font-size="433.3333" font-family="sans-serif">OH</text><text y="-28709" xml:space="preserve" x="-29131" stroke="none" font-size="433.3333" font-family="sans-serif">NH</text><text y="-27138" xml:space="preserve" x="-30038" stroke="none" font-size="433.3333" font-family="sans-serif">O</text><text y="-27048" xml:space="preserve" x="-18090" stroke="none" font-size="433.3333" font-family="sans-serif">O</text><text y="-26982" xml:space="preserve" x="-20618" stroke="none" font-size="433.3333" font-family="sans-serif">H</text><text y="-28299" xml:space="preserve" x="-17654" stroke="none" font-size="433.3333" font-family="sans-serif">H</text><text y="-25679" xml:space="preserve" x="-24162" stroke="none" font-style="italic" font-size="313.3333" font-family="sans-serif">E</text><text y="-28406" xml:space="preserve" x="-27317" stroke="none" font-style="italic" font-size="313.3333" font-family="sans-serif">R</text><text y="-28487" xml:space="preserve" x="-28224" stroke="none" font-style="italic" font-size="313.3333" font-family="sans-serif">S</text><text y="-27762" xml:space="preserve" x="-19641" stroke="none" font-style="italic" font-size="313.3333" font-family="sans-serif">S</text><text y="-28103" xml:space="preserve" x="-20895" stroke="none" font-style="italic" font-size="313.3333" font-family="sans-serif">R</text><text y="-28172" xml:space="preserve" x="-18916" stroke="none" font-style="italic" font-size="313.3333" font-family="sans-serif">R</text><text y="-26881" xml:space="preserve" x="-21736" stroke="none" font-style="italic" font-size="313.3333" font-family="sans-serif">S</text><text y="-29091" xml:space="preserve" x="-20895" stroke="none" font-style="italic" font-size="313.3333" font-family="sans-serif">S</text><text y="-27461" xml:space="preserve" x="-23033" stroke="none" font-style="italic" font-size="313.3333" font-family="sans-serif">S</text><text y="-29432" xml:space="preserve" x="-19641" stroke="none" font-style="italic" font-size="313.3333" font-family="sans-serif">S</text><text y="-29900" xml:space="preserve" x="-22180" stroke="none" font-style="italic" font-size="313.3333" font-family="sans-serif">R</text><text y="-28186" xml:space="preserve" x="-24324" stroke="none" font-style="italic" font-size="313.3333" font-family="sans-serif">S</text></g></g></svg>