<svg width="256.65" viewBox="0 0 8555 2714" text-rendering="auto" stroke-width="1" stroke-opacity="1" stroke-miterlimit="10" stroke-linejoin="miter" stroke-linecap="square" stroke-dashoffset="0" stroke-dasharray="none" stroke="black" shape-rendering="auto" image-rendering="auto" height="81.42" font-weight="normal" font-style="normal" font-size="12" font-family="'Dialog'" fill-opacity="1" fill="black" color-rendering="auto" color-interpolation="auto" xmlns="http://www.w3.org/2000/svg"><g><g stroke="white" fill="white"><rect y="0" x="0" width="8555" stroke="none" height="2714"/></g><g transform="translate(32866,32758)" text-rendering="geometricPrecision" stroke-width="44" stroke-linejoin="round" stroke-linecap="round"><line y2="-31855" y1="-30717" x2="-27918" x1="-27918" fill="none"/><line y2="-30717" y1="-30717" x2="-27918" x1="-26135" fill="none"/><line y2="-30148" y1="-30717" x2="-28900" x1="-27918" fill="none"/><line y2="-30365" y1="-30792" x2="-28862" x1="-28126" fill="none"/><line y2="-31855" y1="-32422" x2="-27918" x1="-28900" fill="none"/><line y2="-31777" y1="-32205" x2="-28126" x1="-28862" fill="none"/><line y2="-32315" y1="-31855" x2="-27118" x1="-27918" fill="none"/><line y2="-30937" y1="-31855" x2="-25945" x1="-25945" fill="none"/><line y2="-31049" y1="-31740" x2="-26115" x1="-26115" fill="none"/><line y2="-30717" y1="-30148" x2="-29888" x1="-28900" fill="none"/><line y2="-32422" y1="-31855" x2="-28900" x1="-29888" fill="none"/><line y2="-31855" y1="-32315" x2="-25945" x1="-26742" fill="none"/><line y2="-31855" y1="-30717" x2="-29888" x1="-29888" fill="none"/><line y2="-31711" y1="-30859" x2="-29718" x1="-29718" fill="none"/><line y2="-32268" y1="-31855" x2="-30607" x1="-29888" fill="none"/><line y2="-31855" y1="-32268" x2="-31702" x1="-30983" fill="none"/><line y2="-32268" y1="-31855" x2="-25225" x1="-25945" fill="none"/><line y2="-32268" y1="-31855" x2="-32422" x1="-31702" fill="none"/><line y2="-31165" y1="-31855" x2="-32098" x1="-31702" fill="none"/><line y2="-31165" y1="-31855" x2="-31304" x1="-31702" fill="none"/><text y="-32199" xml:space="preserve" x="-25191" stroke="none" font-size="433.3333" font-family="sans-serif">NH</text><text y="-32110" xml:space="preserve" x="-24613" stroke="none" font-size="313.3333" font-family="sans-serif">2</text><text y="-32199" xml:space="preserve" x="-30945" stroke="none" font-size="433.3333" font-family="sans-serif">O</text><text y="-32199" xml:space="preserve" x="-32762" stroke="none" font-size="433.3333" font-family="sans-serif">F</text><text y="-30766" xml:space="preserve" x="-32378" stroke="none" font-size="433.3333" font-family="sans-serif">F</text><text y="-30766" xml:space="preserve" x="-31330" stroke="none" font-size="433.3333" font-family="sans-serif">F</text><text y="-30538" xml:space="preserve" x="-26098" stroke="none" font-size="433.3333" font-family="sans-serif">N</text><text y="-32242" xml:space="preserve" x="-27080" stroke="none" font-size="433.3333" font-family="sans-serif">S</text></g></g></svg>