<svg width="401.4" viewBox="0 0 13380 13222" text-rendering="auto" stroke-width="1" stroke-opacity="1" stroke-miterlimit="10" stroke-linejoin="miter" stroke-linecap="square" stroke-dashoffset="0" stroke-dasharray="none" stroke="black" shape-rendering="auto" image-rendering="auto" height="396.66" font-weight="normal" font-style="normal" font-size="12" font-family="'Dialog'" fill-opacity="1" fill="black" color-rendering="auto" color-interpolation="auto" xmlns="http://www.w3.org/2000/svg"><g><g stroke="white" fill="white"><rect y="0" x="0" width="13380" stroke="none" height="13222"/></g><g transform="translate(32866,32757)" text-rendering="geometricPrecision" stroke-width="44" stroke-linejoin="round" stroke-linecap="round"><line y2="-26499" y1="-30125" x2="-26115" x1="-24798" fill="none"/><line y2="-26404" y1="-27687" x2="-26534" x1="-30070" fill="none"/><line y2="-22524" y1="-26060" x2="-24460" x1="-26092" fill="none"/><line y2="-27932" y1="-26554" x2="-22680" x1="-25610" fill="none"/><line y2="-26115" y1="-24867" x2="-25745" x1="-22322" fill="none"/><line y2="-26060" y1="-22435" x2="-26274" x1="-27594" fill="none"/><line y2="-24564" y1="-26127" x2="-30015" x1="-26534" fill="none"/><line y2="-29850" y1="-26499" x2="-27874" x1="-26297" fill="none"/><line y2="-30564" y1="-31925" x2="-24786" x1="-25205" fill="none"/><line y2="-30682" y1="-31705" x2="-25000" x1="-25315" fill="none"/><line y2="-27750" y1="-27707" x2="-30446" x1="-31904" fill="none"/><line y2="-27574" y1="-27542" x2="-30622" x1="-31717" fill="none"/><line y2="-20716" y1="-22085" x2="-24544" x1="-24385" fill="none"/><line y2="-20906" y1="-21935" x2="-24694" x1="-24575" fill="none"/><line y2="-27687" y1="-27984" x2="-20730" x1="-22305" fill="none"/><line y2="-27557" y1="-27779" x2="-20958" x1="-22140" fill="none"/><line y2="-24858" y1="-25266" x2="-21944" x1="-20655" fill="none"/><line y2="-25072" y1="-25376" x2="-21834" x1="-20869" fill="none"/><line y2="-21996" y1="-20493" x2="-27646" x1="-27450" fill="none"/><line y2="-21831" y1="-20704" x2="-27453" x1="-27305" fill="none"/><line y2="-24795" y1="-24512" x2="-31954" x1="-30391" fill="none"/><line y2="-24928" y1="-24714" x2="-31728" x1="-30555" fill="none"/><line y2="-31555" y1="-30290" x2="-27840" x1="-27955" fill="none"/><line y2="-31382" y1="-30431" x2="-27687" x1="-27773" fill="none"/><line y2="-31925" y1="-32188" x2="-25205" x1="-25936" fill="none"/><line y2="-27707" y1="-26424" x2="-31904" x1="-32505" fill="none"/><line y2="-20184" y1="-20716" x2="-25404" x1="-24544" fill="none"/><line y2="-26609" y1="-27687" x2="-20329" x1="-20730" fill="none"/><line y2="-25266" y1="-26170" x2="-20655" x1="-20326" fill="none"/><line y2="-20493" y1="-19979" x2="-27450" x1="-26037" fill="none"/><line y2="-25985" y1="-24795" x2="-32508" x1="-31954" fill="none"/><line y2="-32260" y1="-31555" x2="-26618" x1="-27840" fill="none"/><line y2="-32653" y1="-31925" x2="-24451" x1="-25205" fill="none"/><line y2="-28594" y1="-27707" x2="-32459" x1="-31904" fill="none"/><line y2="-20147" y1="-20716" x2="-23665" x1="-24544" fill="none"/><line y2="-28490" y1="-27687" x2="-20057" x1="-20730" fill="none"/><line y2="-24497" y1="-25266" x2="-19942" x1="-20655" fill="none"/><line y2="-19835" y1="-20493" x2="-28262" x1="-27450" fill="none"/><line y2="-23969" y1="-24795" x2="-32598" x1="-31954" fill="none"/><line y2="-32124" y1="-31555" x2="-28718" x1="-27840" fill="none"/><text y="-26101" xml:space="preserve" x="-26424" stroke="none" font-size="433.3333" font-family="sans-serif">Hf</text><text y="-30165" xml:space="preserve" x="-24873" stroke="none" font-size="433.3333" font-family="sans-serif">O</text><text y="-27577" xml:space="preserve" x="-30411" stroke="none" font-size="433.3333" font-family="sans-serif">O</text><text y="-22126" xml:space="preserve" x="-24512" stroke="none" font-size="433.3333" font-family="sans-serif">O</text><text y="-27843" xml:space="preserve" x="-22646" stroke="none" font-size="433.3333" font-family="sans-serif">O</text><text y="-24622" xml:space="preserve" x="-22284" stroke="none" font-size="433.3333" font-family="sans-serif">O</text><text y="-22036" xml:space="preserve" x="-27828" stroke="none" font-size="433.3333" font-family="sans-serif">O</text><text y="-24301" xml:space="preserve" x="-30356" stroke="none" font-size="433.3333" font-family="sans-serif">O</text><text y="-29891" xml:space="preserve" x="-28129" stroke="none" font-size="433.3333" font-family="sans-serif">O</text><text y="-32188" xml:space="preserve" x="-26580" stroke="none" font-size="433.3333" font-family="sans-serif">CH</text><text y="-26026" xml:space="preserve" x="-32762" stroke="none" font-size="433.3333" font-family="sans-serif">CH</text><text y="-19731" xml:space="preserve" x="-26000" stroke="none" font-size="433.3333" font-family="sans-serif">CH</text><text y="-26210" xml:space="preserve" x="-20398" stroke="none" font-size="433.3333" font-family="sans-serif">CH</text><text y="-26156" xml:space="preserve" x="-25870" stroke="none" font-size="313.3333" font-family="sans-serif">4+</text><text y="-32242" xml:space="preserve" x="-25953" stroke="none" font-size="313.3333" font-family="sans-serif">-</text><text y="-26080" xml:space="preserve" x="-32136" stroke="none" font-size="313.3333" font-family="sans-serif">-</text><text y="-19786" xml:space="preserve" x="-25373" stroke="none" font-size="313.3333" font-family="sans-serif">-</text><text y="-26265" xml:space="preserve" x="-19771" stroke="none" font-size="313.3333" font-family="sans-serif">-</text></g></g></svg>