<svg width="210.66" viewBox="0 0 7022 3988" text-rendering="auto" stroke-width="1" stroke-opacity="1" stroke-miterlimit="10" stroke-linejoin="miter" stroke-linecap="square" stroke-dashoffset="0" stroke-dasharray="none" stroke="black" shape-rendering="auto" image-rendering="auto" height="119.64" font-weight="normal" font-style="normal" font-size="12" font-family="'Dialog'" fill-opacity="1" fill="black" color-rendering="auto" color-interpolation="auto" xmlns="http://www.w3.org/2000/svg"><g><g stroke="white" fill="white"><rect y="0" x="0" width="7022" stroke="none" height="3988"/></g><g transform="translate(32866,32758)" text-rendering="geometricPrecision" stroke-width="44" stroke-linejoin="round" stroke-linecap="round"><line y2="-30807" y1="-31376" x2="-29732" x1="-30714" fill="none"/><line y2="-30729" y1="-31156" x2="-29940" x1="-30677" fill="none"/><line y2="-29668" y1="-30807" x2="-29732" x1="-29732" fill="none"/><line y2="-31376" y1="-30807" x2="-30714" x1="-31702" fill="none"/><line y2="-29099" y1="-29668" x2="-30714" x1="-29732" fill="none"/><line y2="-29319" y1="-29744" x2="-30677" x1="-29940" fill="none"/><line y2="-30807" y1="-29668" x2="-31702" x1="-31702" fill="none"/><line y2="-30665" y1="-29810" x2="-31532" x1="-31532" fill="none"/><line y2="-29668" y1="-29099" x2="-31702" x1="-30714" fill="none"/><line y2="-31223" y1="-30807" x2="-29013" x1="-29732" fill="none"/><line y2="-30807" y1="-31223" x2="-27918" x1="-28637" fill="none"/><line y2="-32202" y1="-31376" x2="-30714" x1="-30714" fill="none"/><line y2="-29252" y1="-29668" x2="-32422" x1="-31702" fill="none"/><line y2="-31376" y1="-30807" x2="-26936" x1="-27918" fill="none"/><line y2="-31156" y1="-30729" x2="-26973" x1="-27710" fill="none"/><line y2="-30807" y1="-29888" x2="-27918" x1="-27918" fill="none"/><line y2="-30807" y1="-31376" x2="-25948" x1="-26936" fill="none"/><line y2="-29562" y1="-29099" x2="-27730" x1="-26936" fill="none"/><line y2="-29651" y1="-29304" x2="-27545" x1="-26950" fill="none"/><line y2="-29668" y1="-30807" x2="-25948" x1="-25948" fill="none"/><line y2="-29810" y1="-30665" x2="-26118" x1="-26118" fill="none"/><line y2="-29099" y1="-29668" x2="-26936" x1="-25948" fill="none"/><line y2="-32202" y1="-31376" x2="-26936" x1="-26936" fill="none"/><text y="-31150" xml:space="preserve" x="-28978" stroke="none" font-size="433.3333" font-family="sans-serif">O</text><text y="-32242" xml:space="preserve" x="-30867" stroke="none" font-size="433.3333" font-family="sans-serif">F</text><text y="-32242" xml:space="preserve" x="-27086" stroke="none" font-size="433.3333" font-family="sans-serif">NH</text><text y="-32153" xml:space="preserve" x="-26508" stroke="none" font-size="313.3333" font-family="sans-serif">2</text><text y="-28966" xml:space="preserve" x="-32762" stroke="none" font-size="433.3333" font-family="sans-serif">F</text><text y="-29489" xml:space="preserve" x="-28071" stroke="none" font-size="433.3333" font-family="sans-serif">N</text></g></g></svg>