<svg width="237.9" viewBox="0 0 7930 5559" text-rendering="auto" stroke-width="1" stroke-opacity="1" stroke-miterlimit="10" stroke-linejoin="miter" stroke-linecap="square" stroke-dashoffset="0" stroke-dasharray="none" stroke="black" shape-rendering="auto" image-rendering="auto" height="166.77" font-weight="normal" font-style="normal" font-size="12" font-family="'Dialog'" fill-opacity="1" fill="black" color-rendering="auto" color-interpolation="auto" xmlns="http://www.w3.org/2000/svg"><g><g stroke="white" fill="white"><rect y="0" x="0" width="7930" stroke="none" height="5559"/></g><g transform="translate(32866,32758)" text-rendering="geometricPrecision" stroke-width="44" stroke-linejoin="round" stroke-linecap="round"><line y2="-30281" y1="-30850" x2="-28825" x1="-29810" fill="none"/><line y2="-30206" y1="-30633" x2="-29033" x1="-29770" fill="none"/><line y2="-29146" y1="-30281" x2="-28825" x1="-28825" fill="none"/><line y2="-30850" y1="-30281" x2="-29810" x1="-30795" fill="none"/><line y2="-28576" y1="-29146" x2="-29810" x1="-28825" fill="none"/><line y2="-28793" y1="-29221" x2="-29770" x1="-29033" fill="none"/><line y2="-30281" y1="-29146" x2="-30795" x1="-30795" fill="none"/><line y2="-30139" y1="-29287" x2="-30625" x1="-30625" fill="none"/><line y2="-29146" y1="-28576" x2="-30795" x1="-29810" fill="none"/><line y2="-30697" y1="-30281" x2="-28106" x1="-28825" fill="none"/><line y2="-30281" y1="-30697" x2="-27011" x1="-27730" fill="none"/><line y2="-31899" y1="-30850" x2="-29810" x1="-29810" fill="none"/><line y2="-32315" y1="-31899" x2="-30526" x1="-29810" fill="none"/><line y2="-32141" y1="-31829" x2="-30509" x1="-29969" fill="none"/><line y2="-28730" y1="-29146" x2="-31514" x1="-30795" fill="none"/><line y2="-30281" y1="-29146" x2="-27011" x1="-27011" fill="none"/><line y2="-30850" y1="-30281" x2="-26023" x1="-27011" fill="none"/><line y2="-29146" y1="-28576" x2="-27011" x1="-26023" fill="none"/><line y2="-30281" y1="-30850" x2="-25040" x1="-26023" fill="none"/><line y2="-28576" y1="-29146" x2="-26023" x1="-25040" fill="none"/><line y2="-29146" y1="-30281" x2="-25040" x1="-25040" fill="none"/><line y2="-27794" y1="-28400" x2="-31633" x1="-31633" fill="none"/><line y2="-27794" y1="-28400" x2="-31772" x1="-31772" fill="none"/><line y2="-28975" y1="-28669" x2="-32456" x1="-31925" fill="none"/><line y2="-29096" y1="-28790" x2="-32387" x1="-31855" fill="none"/><text y="-30628" xml:space="preserve" x="-28071" stroke="none" font-size="433.3333" font-family="sans-serif">S</text><text y="-32242" xml:space="preserve" x="-30867" stroke="none" font-size="433.3333" font-family="sans-serif">O</text><text y="-28441" xml:space="preserve" x="-31855" stroke="none" font-size="433.3333" font-family="sans-serif">N</text><text y="-27395" xml:space="preserve" x="-31855" stroke="none" font-size="433.3333" font-family="sans-serif">O</text><text y="-28966" xml:space="preserve" x="-32762" stroke="none" font-size="433.3333" font-family="sans-serif">O</text></g></g></svg>