<svg width="185.82" viewBox="0 0 6194 4895" text-rendering="auto" stroke-width="1" stroke-opacity="1" stroke-miterlimit="10" stroke-linejoin="miter" stroke-linecap="square" stroke-dashoffset="0" stroke-dasharray="none" stroke="black" shape-rendering="auto" image-rendering="auto" height="146.85" font-weight="normal" font-style="normal" font-size="12" font-family="'Dialog'" fill-opacity="1" fill="black" color-rendering="auto" color-interpolation="auto" xmlns="http://www.w3.org/2000/svg"><g><g stroke="white" fill="white"><rect y="0" x="0" width="6194" stroke="none" height="4895"/></g><g transform="translate(32866,32758)" text-rendering="geometricPrecision" stroke-width="44" stroke-linejoin="round" stroke-linecap="round"><line y2="-30992" y1="-29853" x2="-30639" x1="-30639" fill="none"/><line y2="-30850" y1="-29998" x2="-30469" x1="-30469" fill="none"/><line y2="-29853" y1="-29284" x2="-30639" x1="-29654" fill="none"/><line y2="-31561" y1="-30992" x2="-29654" x1="-30639" fill="none"/><line y2="-29284" y1="-29853" x2="-29654" x1="-28669" fill="none"/><line y2="-29504" y1="-29931" x2="-29616" x1="-28877" fill="none"/><line y2="-30992" y1="-31561" x2="-28669" x1="-29654" fill="none"/><line y2="-30916" y1="-31344" x2="-28877" x1="-29616" fill="none"/><line y2="-29853" y1="-30992" x2="-28669" x1="-28669" fill="none"/><line y2="-31514" y1="-30992" x2="-27762" x1="-28669" fill="none"/><line y2="-29437" y1="-29853" x2="-31358" x1="-30639" fill="none"/><line y2="-31318" y1="-30992" x2="-31205" x1="-30639" fill="none"/><line y2="-28458" y1="-29284" x2="-29654" x1="-29654" fill="none"/><line y2="-31098" y1="-31514" x2="-27042" x1="-27762" fill="none"/><line y2="-32202" y1="-31514" x2="-27366" x1="-27762" fill="none"/><line y2="-32202" y1="-31514" x2="-28160" x1="-27762" fill="none"/><line y2="-29703" y1="-29437" x2="-32190" x1="-31734" fill="none"/><line y2="-28608" y1="-29076" x2="-31884" x1="-31613" fill="none"/><line y2="-28678" y1="-29146" x2="-32006" x1="-31734" fill="none"/><line y2="-28678" y1="-29146" x2="-31090" x1="-31361" fill="none"/><line y2="-28608" y1="-29076" x2="-31211" x1="-31483" fill="none"/><text y="-29151" xml:space="preserve" x="-31699" stroke="none" font-size="433.3333" font-family="sans-serif">S</text><text y="-29720" xml:space="preserve" x="-32762" stroke="none" font-size="433.3333" font-family="sans-serif">Cl</text><text y="-28244" xml:space="preserve" x="-32222" stroke="none" font-size="433.3333" font-family="sans-serif">O</text><text y="-28244" xml:space="preserve" x="-31176" stroke="none" font-size="433.3333" font-family="sans-serif">O</text><text y="-31335" xml:space="preserve" x="-31777" stroke="none" font-size="433.3333" font-family="sans-serif">Cl</text><text y="-28059" xml:space="preserve" x="-29885" stroke="none" font-size="433.3333" font-family="sans-serif">Cl</text><text y="-30812" xml:space="preserve" x="-27008" stroke="none" font-size="433.3333" font-family="sans-serif">F</text><text y="-32242" xml:space="preserve" x="-27392" stroke="none" font-size="433.3333" font-family="sans-serif">F</text><text y="-32242" xml:space="preserve" x="-28438" stroke="none" font-size="433.3333" font-family="sans-serif">F</text></g></g></svg>