<svg width="270.84" viewBox="0 0 9028 4808" text-rendering="auto" stroke-width="1" stroke-opacity="1" stroke-miterlimit="10" stroke-linejoin="miter" stroke-linecap="square" stroke-dashoffset="0" stroke-dasharray="none" stroke="black" shape-rendering="auto" image-rendering="auto" height="144.24" font-weight="normal" font-style="normal" font-size="12" font-family="'Dialog'" fill-opacity="1" fill="black" color-rendering="auto" color-interpolation="auto" xmlns="http://www.w3.org/2000/svg"><g><g stroke="white" fill="white"><rect y="0" x="0" width="9028" stroke="none" height="4808"/></g><g transform="translate(32866,32758)" text-rendering="geometricPrecision" stroke-width="44" stroke-linejoin="round" stroke-linecap="round"><line y2="-29758" y1="-30327" x2="-29735" x1="-30717" fill="none"/><line y2="-29683" y1="-30110" x2="-29943" x1="-30680" fill="none"/><line y2="-28620" y1="-29758" x2="-29735" x1="-29735" fill="none"/><line y2="-30327" y1="-29758" x2="-30717" x1="-31705" fill="none"/><line y2="-28054" y1="-28620" x2="-30717" x1="-29735" fill="none"/><line y2="-28270" y1="-28698" x2="-30680" x1="-29943" fill="none"/><line y2="-29758" y1="-28620" x2="-31705" x1="-31705" fill="none"/><line y2="-29616" y1="-28764" x2="-31535" x1="-31535" fill="none"/><line y2="-28620" y1="-28054" x2="-31705" x1="-30717" fill="none"/><line y2="-30174" y1="-29758" x2="-29016" x1="-29735" fill="none"/><line y2="-29758" y1="-30174" x2="-27921" x1="-28637" fill="none"/><line y2="-30281" y1="-29758" x2="-27011" x1="-27921" fill="none"/><line y2="-31376" y1="-30327" x2="-30717" x1="-30717" fill="none"/><line y2="-30174" y1="-29758" x2="-32424" x1="-31705" fill="none"/><line y2="-31419" y1="-30281" x2="-27011" x1="-27011" fill="none"/><line y2="-31278" y1="-30425" x2="-26843" x1="-26843" fill="none"/><line y2="-30281" y1="-29715" x2="-27011" x1="-26026" fill="none"/><line y2="-31988" y1="-31419" x2="-26026" x1="-27011" fill="none"/><line y2="-29715" y1="-30281" x2="-26026" x1="-25040" fill="none"/><line y2="-29931" y1="-30359" x2="-25988" x1="-25248" fill="none"/><line y2="-31419" y1="-31988" x2="-25040" x1="-26026" fill="none"/><line y2="-31344" y1="-31772" x2="-25248" x1="-25988" fill="none"/><line y2="-30281" y1="-31419" x2="-25040" x1="-25040" fill="none"/><line y2="-31748" y1="-31419" x2="-24474" x1="-25040" fill="none"/><line y2="-32202" y1="-31376" x2="-30717" x1="-30717" fill="none"/><line y2="-32202" y1="-31376" x2="-30807" x1="-30807" fill="none"/><line y2="-32202" y1="-31376" x2="-30628" x1="-30628" fill="none"/><text y="-30102" xml:space="preserve" x="-28978" stroke="none" font-size="433.3333" font-family="sans-serif">O</text><text y="-32242" xml:space="preserve" x="-30870" stroke="none" font-size="433.3333" font-family="sans-serif">N</text><text y="-30102" xml:space="preserve" x="-32762" stroke="none" font-size="433.3333" font-family="sans-serif">F</text><text y="-31766" xml:space="preserve" x="-24367" stroke="none" font-size="433.3333" font-family="sans-serif">Cl</text></g></g></svg>