<svg width="260.22" viewBox="0 0 8674 4090" text-rendering="auto" stroke-width="1" stroke-opacity="1" stroke-miterlimit="10" stroke-linejoin="miter" stroke-linecap="square" stroke-dashoffset="0" stroke-dasharray="none" stroke="black" shape-rendering="auto" image-rendering="auto" height="122.7" font-weight="normal" font-style="normal" font-size="12" font-family="'Dialog'" fill-opacity="1" fill="black" color-rendering="auto" color-interpolation="auto" xmlns="http://www.w3.org/2000/svg"><g><g stroke="white" fill="white"><rect y="0" x="0" width="8674" stroke="none" height="4090"/></g><g transform="translate(32866,32858)" text-rendering="geometricPrecision" stroke-width="44" stroke-linejoin="round" stroke-linecap="round"><line y2="-30573" y1="-31691" x2="-29570" x1="-29183" fill="none"/><line y2="-31691" y1="-32274" x2="-29183" x1="-29940" fill="none"/><line y2="-31630" y1="-32069" x2="-29382" x1="-29949" fill="none"/><line y2="-30573" y1="-30573" x2="-30772" x1="-29570" fill="none"/><line y2="-30743" y1="-30743" x2="-30622" x1="-29720" fill="none"/><line y2="-32283" y1="-31829" x2="-30318" x1="-30928" fill="none"/><line y2="-31471" y1="-30573" x2="-31049" x1="-30772" fill="none"/><line y2="-31691" y1="-31691" x2="-28137" x1="-29183" fill="none"/><line y2="-30050" y1="-30573" x2="-31679" x1="-30772" fill="none"/><line y2="-31916" y1="-31751" x2="-31812" x1="-31304" fill="none"/><line y2="-31691" y1="-31139" x2="-28137" x1="-27424" fill="none"/><line y2="-32754" y1="-31691" x2="-27768" x1="-28137" fill="none"/><line y2="-32566" y1="-31769" x2="-27652" x1="-27929" fill="none"/><line y2="-31133" y1="-31691" x2="-27048" x1="-26294" fill="none"/><line y2="-32754" y1="-32754" x2="-26621" x1="-27768" fill="none"/><line y2="-31691" y1="-32754" x2="-26294" x1="-26621" fill="none"/><line y2="-31774" y1="-32569" x2="-26499" x1="-26745" fill="none"/><line y2="-31165" y1="-31691" x2="-25387" x1="-26294" fill="none"/><line y2="-31581" y1="-31165" x2="-24668" x1="-25387" fill="none"/><line y2="-31410" y1="-31098" x2="-24688" x1="-25228" fill="none"/><line y2="-30466" y1="-30050" x2="-32398" x1="-31679" fill="none"/><line y2="-29362" y1="-30050" x2="-32078" x1="-31679" fill="none"/><line y2="-29362" y1="-30050" x2="-31283" x1="-31679" fill="none"/><text y="-30394" xml:space="preserve" x="-32739" stroke="none" font-size="433.3333" font-family="sans-serif">F</text><text y="-28964" xml:space="preserve" x="-32355" stroke="none" font-size="433.3333" font-family="sans-serif">F</text><text y="-28964" xml:space="preserve" x="-31309" stroke="none" font-size="433.3333" font-family="sans-serif">F</text><text y="-31997" xml:space="preserve" x="-32762" stroke="none" font-size="433.3333" font-family="sans-serif">CH</text><text y="-31907" xml:space="preserve" x="-32185" stroke="none" font-size="313.3333" font-family="sans-serif">3</text><text y="-31512" xml:space="preserve" x="-24633" stroke="none" font-size="433.3333" font-family="sans-serif">O</text><text y="-32242" xml:space="preserve" x="-30281" stroke="none" font-size="433.3333" font-family="sans-serif">N</text><text y="-31512" xml:space="preserve" x="-31269" stroke="none" font-size="433.3333" font-family="sans-serif">N</text><text y="-30815" xml:space="preserve" x="-27389" stroke="none" font-size="433.3333" font-family="sans-serif">S</text></g></g></svg>