<svg width="286.26" viewBox="0 0 9542 3990" text-rendering="auto" stroke-width="1" stroke-opacity="1" stroke-miterlimit="10" stroke-linejoin="miter" stroke-linecap="square" stroke-dashoffset="0" stroke-dasharray="none" stroke="black" shape-rendering="auto" image-rendering="auto" height="119.7" font-weight="normal" font-style="normal" font-size="12" font-family="'Dialog'" fill-opacity="1" fill="black" color-rendering="auto" color-interpolation="auto" xmlns="http://www.w3.org/2000/svg"><g><g stroke="white" fill="white"><rect y="0" x="0" width="9542" stroke="none" height="3990"/></g><g transform="translate(32866,32758)" text-rendering="geometricPrecision" stroke-width="44" stroke-linejoin="round" stroke-linecap="round"><line y2="-30235" y1="-30786" x2="-27291" x1="-28002" fill="none"/><line y2="-30168" y1="-30581" x2="-27484" x1="-28019" fill="none"/><line y2="-29391" y1="-30235" x2="-27583" x1="-27291" fill="none"/><line y2="-30792" y1="-30235" x2="-28380" x1="-29134" fill="none"/><line y2="-29172" y1="-29172" x2="-28805" x1="-27846" fill="none"/><line y2="-30235" y1="-29172" x2="-29134" x1="-28805" fill="none"/><line y2="-30151" y1="-29354" x2="-28929" x1="-28683" fill="none"/><line y2="-30758" y1="-30235" x2="-26384" x1="-27291" fill="none"/><line y2="-30758" y1="-30235" x2="-30041" x1="-29134" fill="none"/><line y2="-30758" y1="-30191" x2="-26384" x1="-25402" fill="none"/><line y2="-30836" y1="-30408" x2="-26176" x1="-25439" fill="none"/><line y2="-31896" y1="-30758" x2="-26384" x1="-26384" fill="none"/><line y2="-30191" y1="-30758" x2="-25402" x1="-24414" fill="none"/><line y2="-32465" y1="-31896" x2="-25402" x1="-26384" fill="none"/><line y2="-32248" y1="-31821" x2="-25439" x1="-26176" fill="none"/><line y2="-30758" y1="-31896" x2="-24414" x1="-24414" fill="none"/><line y2="-30902" y1="-31754" x2="-24584" x1="-24584" fill="none"/><line y2="-31896" y1="-32465" x2="-24414" x1="-25402" fill="none"/><line y2="-29362" y1="-30191" x2="-25402" x1="-25402" fill="none"/><line y2="-32312" y1="-31896" x2="-23694" x1="-24414" fill="none"/><line y2="-30344" y1="-30758" x2="-30760" x1="-30041" fill="none"/><line y2="-30758" y1="-30344" x2="-31855" x1="-31136" fill="none"/><line y2="-30235" y1="-30758" x2="-32762" x1="-31855" fill="none"/><line y2="-31587" y1="-30758" x2="-30110" x1="-30110" fill="none"/><line y2="-31587" y1="-30758" x2="-29969" x1="-29969" fill="none"/><text y="-28964" xml:space="preserve" x="-25552" stroke="none" font-size="433.3333" font-family="sans-serif">F</text><text y="-30056" xml:space="preserve" x="-31098" stroke="none" font-size="433.3333" font-family="sans-serif">O</text><text y="-31627" xml:space="preserve" x="-30191" stroke="none" font-size="433.3333" font-family="sans-serif">O</text><text y="-32242" xml:space="preserve" x="-23660" stroke="none" font-size="433.3333" font-family="sans-serif">F</text><text y="-30752" xml:space="preserve" x="-28342" stroke="none" font-size="433.3333" font-family="sans-serif">N</text><text y="-28992" xml:space="preserve" x="-27811" stroke="none" font-size="433.3333" font-family="sans-serif">S</text></g></g></svg>