<svg width="272.49" viewBox="0 0 9083 5727" text-rendering="auto" stroke-width="1" stroke-opacity="1" stroke-miterlimit="10" stroke-linejoin="miter" stroke-linecap="square" stroke-dashoffset="0" stroke-dasharray="none" stroke="black" shape-rendering="auto" image-rendering="auto" height="171.81" font-weight="normal" font-style="normal" font-size="12" font-family="'Dialog'" fill-opacity="1" fill="black" color-rendering="auto" color-interpolation="auto" xmlns="http://www.w3.org/2000/svg"><g><g stroke="white" fill="white"><rect y="0" x="0" width="9083" stroke="none" height="5727"/></g><g transform="translate(32866,32758)" text-rendering="geometricPrecision" stroke-width="44" stroke-linejoin="round" stroke-linecap="round"><line y2="-30807" y1="-31330" x2="-26843" x1="-27750" fill="none"/><line y2="-30160" y1="-31330" x2="-29732" x1="-27750" fill="none"/><line y2="-32159" y1="-31330" x2="-27750" x1="-27750" fill="none"/><line y2="-30807" y1="-29668" x2="-26843" x1="-26843" fill="none"/><line y2="-30665" y1="-29810" x2="-26673" x1="-26673" fill="none"/><line y2="-31376" y1="-30807" x2="-25855" x1="-26843" fill="none"/><line y2="-29668" y1="-29099" x2="-26843" x1="-25855" fill="none"/><line y2="-30807" y1="-31376" x2="-24873" x1="-25855" fill="none"/><line y2="-30729" y1="-31156" x2="-25081" x1="-25818" fill="none"/><line y2="-29099" y1="-29668" x2="-25855" x1="-24873" fill="none"/><line y2="-29319" y1="-29744" x2="-25818" x1="-25081" fill="none"/><line y2="-29668" y1="-30807" x2="-24873" x1="-24873" fill="none"/><line y2="-29252" y1="-29668" x2="-27562" x1="-26843" fill="none"/><line y2="-32202" y1="-31376" x2="-25855" x1="-25855" fill="none"/><line y2="-28273" y1="-29099" x2="-25855" x1="-25855" fill="none"/><line y2="-31223" y1="-30807" x2="-24154" x1="-24873" fill="none"/><line y2="-29252" y1="-29668" x2="-24154" x1="-24873" fill="none"/><line y2="-29024" y1="-30160" x2="-29732" x1="-29732" fill="none"/><line y2="-29166" y1="-30018" x2="-29902" x1="-29902" fill="none"/><line y2="-30160" y1="-30729" x2="-29732" x1="-30714" fill="none"/><line y2="-28455" y1="-29024" x2="-30714" x1="-29732" fill="none"/><line y2="-30729" y1="-30160" x2="-30714" x1="-31702" fill="none"/><line y2="-30512" y1="-30084" x2="-30755" x1="-31494" fill="none"/><line y2="-29024" y1="-28455" x2="-31702" x1="-30714" fill="none"/><line y2="-29099" y1="-28672" x2="-31494" x1="-30755" fill="none"/><line y2="-30160" y1="-29024" x2="-31702" x1="-31702" fill="none"/><line y2="-28608" y1="-29024" x2="-29013" x1="-29732" fill="none"/><line y2="-31558" y1="-30729" x2="-30714" x1="-30714" fill="none"/><line y2="-27626" y1="-28455" x2="-30714" x1="-30714" fill="none"/><line y2="-30576" y1="-30160" x2="-32422" x1="-31702" fill="none"/><line y2="-28608" y1="-29024" x2="-32422" x1="-31702" fill="none"/><text y="-32199" xml:space="preserve" x="-27903" stroke="none" font-size="433.3333" font-family="sans-serif">OH</text><text y="-28966" xml:space="preserve" x="-27903" stroke="none" font-size="433.3333" font-family="sans-serif">F</text><text y="-32242" xml:space="preserve" x="-26008" stroke="none" font-size="433.3333" font-family="sans-serif">F</text><text y="-27874" xml:space="preserve" x="-26008" stroke="none" font-size="433.3333" font-family="sans-serif">F</text><text y="-31150" xml:space="preserve" x="-24119" stroke="none" font-size="433.3333" font-family="sans-serif">F</text><text y="-28319" xml:space="preserve" x="-28978" stroke="none" font-size="433.3333" font-family="sans-serif">F</text><text y="-31598" xml:space="preserve" x="-30867" stroke="none" font-size="433.3333" font-family="sans-serif">F</text><text y="-28966" xml:space="preserve" x="-24119" stroke="none" font-size="433.3333" font-family="sans-serif">F</text><text y="-27227" xml:space="preserve" x="-30867" stroke="none" font-size="433.3333" font-family="sans-serif">F</text><text y="-30506" xml:space="preserve" x="-32762" stroke="none" font-size="433.3333" font-family="sans-serif">F</text><text y="-28319" xml:space="preserve" x="-32762" stroke="none" font-size="433.3333" font-family="sans-serif">F</text></g></g></svg>