<svg width="307.47" viewBox="0 0 10249 4234" text-rendering="auto" stroke-width="1" stroke-opacity="1" stroke-miterlimit="10" stroke-linejoin="miter" stroke-linecap="square" stroke-dashoffset="0" stroke-dasharray="none" stroke="black" shape-rendering="auto" image-rendering="auto" height="127.02" font-weight="normal" font-style="normal" font-size="12" font-family="'Dialog'" fill-opacity="1" fill="black" color-rendering="auto" color-interpolation="auto" xmlns="http://www.w3.org/2000/svg"><g><g stroke="white" fill="white"><rect y="0" x="0" width="10249" stroke="none" height="4234"/></g><g transform="translate(32866,32866)" text-rendering="geometricPrecision" stroke-width="44" stroke-linejoin="round" stroke-linecap="round"><line y2="-30668" y1="-31191" x2="-27918" x1="-27011" fill="none"/><line y2="-30668" y1="-31191" x2="-26104" x1="-27011" fill="none"/><line y2="-32762" y1="-32240" x2="-26104" x1="-27011" fill="none"/><line y2="-32641" y1="-32118" x2="-26031" x1="-26941" fill="none"/><line y2="-31191" y1="-30668" x2="-28825" x1="-27918" fill="none"/><line y2="-31006" y1="-30613" x2="-28782" x1="-28100" fill="none"/><line y2="-30668" y1="-29530" x2="-26104" x1="-26104" fill="none"/><line y2="-30524" y1="-29671" x2="-25933" x1="-25933" fill="none"/><line y2="-31234" y1="-30668" x2="-25116" x1="-26104" fill="none"/><line y2="-29530" y1="-28961" x2="-26104" x1="-25116" fill="none"/><line y2="-30668" y1="-31234" x2="-24133" x1="-25116" fill="none"/><line y2="-30590" y1="-31018" x2="-24341" x1="-25078" fill="none"/><line y2="-28961" y1="-29530" x2="-25116" x1="-24133" fill="none"/><line y2="-29177" y1="-29605" x2="-25078" x1="-24341" fill="none"/><line y2="-29530" y1="-30668" x2="-24133" x1="-24133" fill="none"/><line y2="-29114" y1="-29530" x2="-23414" x1="-24133" fill="none"/><line y2="-30668" y1="-31191" x2="-29732" x1="-28825" fill="none"/><line y2="-29530" y1="-30668" x2="-29732" x1="-29732" fill="none"/><line y2="-29671" y1="-30524" x2="-29902" x1="-29902" fill="none"/><line y2="-30668" y1="-31234" x2="-29732" x1="-30714" fill="none"/><line y2="-28961" y1="-29530" x2="-30714" x1="-29732" fill="none"/><line y2="-31234" y1="-30668" x2="-30714" x1="-31702" fill="none"/><line y2="-31018" y1="-30590" x2="-30755" x1="-31494" fill="none"/><line y2="-29530" y1="-28961" x2="-31702" x1="-30714" fill="none"/><line y2="-29608" y1="-29180" x2="-31494" x1="-30755" fill="none"/><line y2="-30668" y1="-29530" x2="-31702" x1="-31702" fill="none"/><line y2="-29226" y1="-29530" x2="-32228" x1="-31702" fill="none"/><line y2="-32240" y1="-32237" x2="-26941" x1="-27080" fill="none"/><line y2="-32023" y1="-32021" x2="-26955" x1="-27066" fill="none"/><line y2="-31806" y1="-31804" x2="-26970" x1="-27051" fill="none"/><line y2="-31589" y1="-31588" x2="-26984" x1="-27037" fill="none"/><line y2="-31372" y1="-31372" x2="-26999" x1="-27023" fill="none"/><text y="-28828" xml:space="preserve" x="-23376" stroke="none" font-size="433.3333" font-family="sans-serif">OH</text><text y="-28828" xml:space="preserve" x="-32762" stroke="none" font-size="433.3333" font-family="sans-serif">OH</text><text y="-31136" xml:space="preserve" x="-28299" stroke="none" font-style="italic" font-size="313.3333" font-family="sans-serif">E</text><text y="-30708" xml:space="preserve" x="-27161" stroke="none" font-style="italic" font-size="313.3333" font-family="sans-serif">S</text></g></g></svg>