<svg width="171.48" viewBox="0 0 5716 4970" text-rendering="auto" stroke-width="1" stroke-opacity="1" stroke-miterlimit="10" stroke-linejoin="miter" stroke-linecap="square" stroke-dashoffset="0" stroke-dasharray="none" stroke="black" shape-rendering="auto" image-rendering="auto" height="149.1" font-weight="normal" font-style="normal" font-size="12" font-family="'Dialog'" fill-opacity="1" fill="black" color-rendering="auto" color-interpolation="auto" xmlns="http://www.w3.org/2000/svg"><g><g stroke="white" fill="white"><rect y="0" x="0" width="5716" stroke="none" height="4970"/></g><g transform="translate(32866,32758)" text-rendering="geometricPrecision" stroke-width="44" stroke-linejoin="round" stroke-linecap="round"><line y2="-29735" y1="-30850" x2="-29570" x1="-29183" fill="none"/><line y2="-29735" y1="-29735" x2="-30772" x1="-29570" fill="none"/><line y2="-29905" y1="-29905" x2="-30622" x1="-29720" fill="none"/><line y2="-30850" y1="-31436" x2="-29183" x1="-29940" fill="none"/><line y2="-30789" y1="-31228" x2="-29382" x1="-29949" fill="none"/><line y2="-30630" y1="-29735" x2="-31049" x1="-30772" fill="none"/><line y2="-31442" y1="-30989" x2="-30316" x1="-30928" fill="none"/><line y2="-29209" y1="-29735" x2="-28663" x1="-29570" fill="none"/><line y2="-31376" y1="-30850" x2="-28276" x1="-29183" fill="none"/><line y2="-31075" y1="-30911" x2="-31812" x1="-31304" fill="none"/><line y2="-29625" y1="-29209" x2="-27944" x1="-28663" fill="none"/><line y2="-28383" y1="-29209" x2="-28594" x1="-28594" fill="none"/><line y2="-28383" y1="-29209" x2="-28732" x1="-28732" fill="none"/><line y2="-30960" y1="-31376" x2="-27557" x1="-28276" fill="none"/><line y2="-32202" y1="-31376" x2="-28276" x1="-28276" fill="none"/><text y="-29556" xml:space="preserve" x="-27909" stroke="none" font-size="433.3333" font-family="sans-serif">OH</text><text y="-27984" xml:space="preserve" x="-28816" stroke="none" font-size="433.3333" font-family="sans-serif">O</text><text y="-30671" xml:space="preserve" x="-27522" stroke="none" font-size="433.3333" font-family="sans-serif">F</text><text y="-32242" xml:space="preserve" x="-28429" stroke="none" font-size="433.3333" font-family="sans-serif">F</text><text y="-31156" xml:space="preserve" x="-32762" stroke="none" font-size="433.3333" font-family="sans-serif">CH</text><text y="-31067" xml:space="preserve" x="-32185" stroke="none" font-size="313.3333" font-family="sans-serif">3</text><text y="-31402" xml:space="preserve" x="-30281" stroke="none" font-size="433.3333" font-family="sans-serif">N</text><text y="-30671" xml:space="preserve" x="-31269" stroke="none" font-size="433.3333" font-family="sans-serif">N</text></g></g></svg>