<svg width="619.53" viewBox="0 0 20651 3780" text-rendering="auto" stroke-width="1" stroke-opacity="1" stroke-miterlimit="10" stroke-linejoin="miter" stroke-linecap="square" stroke-dashoffset="0" stroke-dasharray="none" stroke="black" shape-rendering="auto" image-rendering="auto" height="113.4" font-weight="normal" font-style="normal" font-size="12" font-family="'Dialog'" fill-opacity="1" fill="black" color-rendering="auto" color-interpolation="auto" xmlns="http://www.w3.org/2000/svg"><g><g stroke="white" fill="white"><rect y="0" x="0" width="20651" stroke="none" height="3780"/></g><g transform="translate(32866,32758)" text-rendering="geometricPrecision" stroke-width="44" stroke-linejoin="round" stroke-linecap="round"><line y2="-31850" y1="-30703" x2="-15377" x1="-15377" fill="none"/><line y2="-30131" y1="-30703" x2="-16359" x1="-15377" fill="none"/><line y2="-30347" y1="-30778" x2="-16322" x1="-15585" fill="none"/><line y2="-30703" y1="-30131" x2="-15377" x1="-14395" fill="none"/><line y2="-31850" y1="-32422" x2="-15377" x1="-16359" fill="none"/><line y2="-31774" y1="-32205" x2="-15585" x1="-16322" fill="none"/><line y2="-32312" y1="-31850" x2="-14583" x1="-15377" fill="none"/><line y2="-30703" y1="-30131" x2="-17342" x1="-16359" fill="none"/><line y2="-30131" y1="-30703" x2="-14395" x1="-13413" fill="none"/><line y2="-30347" y1="-30778" x2="-14357" x1="-13621" fill="none"/><line y2="-32422" y1="-31850" x2="-16359" x1="-17342" fill="none"/><line y2="-31850" y1="-32312" x2="-13413" x1="-14207" fill="none"/><line y2="-31850" y1="-30703" x2="-17342" x1="-17342" fill="none"/><line y2="-31705" y1="-30847" x2="-17171" x1="-17171" fill="none"/><line y2="-30703" y1="-31850" x2="-13413" x1="-13413" fill="none"/><line y2="-29082" y1="-30131" x2="-14395" x1="-14395" fill="none"/><line y2="-32266" y1="-31850" x2="-18061" x1="-17342" fill="none"/><line y2="-31850" y1="-32266" x2="-19156" x1="-18436" fill="none"/><line y2="-32326" y1="-31910" x2="-12728" x1="-13447" fill="none"/><line y2="-32205" y1="-31789" x2="-12659" x1="-13375" fill="none"/><line y2="-32372" y1="-31850" x2="-20063" x1="-19156" fill="none"/><line y2="-31850" y1="-32372" x2="-20970" x1="-20063" fill="none"/><line y2="-32372" y1="-31850" x2="-21877" x1="-20970" fill="none"/><line y2="-31850" y1="-32372" x2="-22784" x1="-21877" fill="none"/><line y2="-32372" y1="-31850" x2="-23691" x1="-22784" fill="none"/><line y2="-31850" y1="-32372" x2="-24598" x1="-23691" fill="none"/><line y2="-32372" y1="-31850" x2="-25506" x1="-24598" fill="none"/><line y2="-31850" y1="-32372" x2="-26413" x1="-25506" fill="none"/><line y2="-32372" y1="-31850" x2="-27320" x1="-26413" fill="none"/><line y2="-31850" y1="-32372" x2="-28227" x1="-27320" fill="none"/><line y2="-32372" y1="-31850" x2="-29134" x1="-28227" fill="none"/><line y2="-31850" y1="-32372" x2="-30041" x1="-29134" fill="none"/><line y2="-32372" y1="-31850" x2="-30948" x1="-30041" fill="none"/><line y2="-31850" y1="-32372" x2="-31855" x1="-30948" fill="none"/><line y2="-32372" y1="-31850" x2="-32762" x1="-31855" fill="none"/><line y2="-31020" y1="-31850" x2="-19086" x1="-19086" fill="none"/><line y2="-31020" y1="-31850" x2="-19225" x1="-19225" fill="none"/><text y="-32193" xml:space="preserve" x="-18402" stroke="none" font-size="433.3333" font-family="sans-serif">O</text><text y="-30622" xml:space="preserve" x="-19309" stroke="none" font-size="433.3333" font-family="sans-serif">O</text><text y="-32193" xml:space="preserve" x="-12656" stroke="none" font-size="433.3333" font-family="sans-serif">O</text><text y="-32242" xml:space="preserve" x="-14545" stroke="none" font-size="433.3333" font-family="sans-serif">O</text></g></g></svg>