<svg width="268.47" viewBox="0 0 8949 5508" text-rendering="auto" stroke-width="1" stroke-opacity="1" stroke-miterlimit="10" stroke-linejoin="miter" stroke-linecap="square" stroke-dashoffset="0" stroke-dasharray="none" stroke="black" shape-rendering="auto" image-rendering="auto" height="165.24" font-weight="normal" font-style="normal" font-size="12" font-family="'Dialog'" fill-opacity="1" fill="black" color-rendering="auto" color-interpolation="auto" xmlns="http://www.w3.org/2000/svg"><g><g stroke="white" fill="white"><rect y="0" x="0" width="8949" stroke="none" height="5508"/></g><g transform="translate(32866,32866)" text-rendering="geometricPrecision" stroke-width="44" stroke-linejoin="round" stroke-linecap="round"><line y2="-31055" y1="-30489" x2="-26895" x1="-27880" fill="none"/><line y2="-29351" y1="-30489" x2="-27880" x1="-27880" fill="none"/><line y2="-30489" y1="-31055" x2="-27880" x1="-28865" fill="none"/><line y2="-30411" y1="-30838" x2="-28088" x1="-28828" fill="none"/><line y2="-30489" y1="-31055" x2="-25910" x1="-26895" fill="none"/><line y2="-32193" y1="-31055" x2="-26895" x1="-26895" fill="none"/><line y2="-28782" y1="-29351" x2="-28865" x1="-27880" fill="none"/><line y2="-28998" y1="-29426" x2="-28828" x1="-28088" fill="none"/><line y2="-29351" y1="-28782" x2="-27880" x1="-26895" fill="none"/><line y2="-31055" y1="-30489" x2="-28865" x1="-29850" fill="none"/><line y2="-29351" y1="-30489" x2="-25910" x1="-25910" fill="none"/><line y2="-29492" y1="-30344" x2="-26080" x1="-26080" fill="none"/><line y2="-30489" y1="-31055" x2="-25910" x1="-24928" fill="none"/><line y2="-32762" y1="-32193" x2="-25910" x1="-26895" fill="none"/><line y2="-29351" y1="-28782" x2="-29850" x1="-28865" fill="none"/><line y2="-28782" y1="-29351" x2="-26895" x1="-25910" fill="none"/><line y2="-30489" y1="-29351" x2="-29850" x1="-29850" fill="none"/><line y2="-30344" y1="-29492" x2="-29680" x1="-29680" fill="none"/><line y2="-30489" y1="-30948" x2="-29850" x1="-30648" fill="none"/><line y2="-31055" y1="-32193" x2="-24928" x1="-24928" fill="none"/><line y2="-31200" y1="-32052" x2="-25098" x1="-25098" fill="none"/><line y2="-32193" y1="-32762" x2="-24928" x1="-25910" fill="none"/><line y2="-29351" y1="-29351" x2="-31824" x1="-29850" fill="none"/><line y2="-30948" y1="-30489" x2="-31023" x1="-31824" fill="none"/><line y2="-30489" y1="-29351" x2="-31824" x1="-31824" fill="none"/><line y2="-30532" y1="-31055" x2="-24021" x1="-24928" fill="none"/><line y2="-32719" y1="-32193" x2="-24021" x1="-24928" fill="none"/><line y2="-31884" y1="-31055" x2="-28865" x1="-28865" fill="none"/><line y2="-27952" y1="-28782" x2="-28865" x1="-28865" fill="none"/><line y2="-27952" y1="-28782" x2="-26823" x1="-26823" fill="none"/><line y2="-27952" y1="-28782" x2="-26964" x1="-26964" fill="none"/><line y2="-30006" y1="-30009" x2="-26962" x1="-26826" fill="none"/><line y2="-30223" y1="-30225" x2="-26948" x1="-26840" fill="none"/><line y2="-30440" y1="-30442" x2="-26934" x1="-26855" fill="none"/><line y2="-30657" y1="-30658" x2="-26920" x1="-26869" fill="none"/><line y2="-30874" y1="-30874" x2="-26907" x1="-26883" fill="none"/><line y2="-31070" y1="-30951" x2="-32693" x1="-32762" fill="none"/><line y2="-30949" y1="-30855" x2="-32513" x1="-32567" fill="none"/><line y2="-30829" y1="-30759" x2="-32332" x1="-32372" fill="none"/><line y2="-30708" y1="-30663" x2="-32152" x1="-32178" fill="none"/><line y2="-30587" y1="-30567" x2="-31971" x1="-31983" fill="none"/><text y="-31925" xml:space="preserve" x="-29016" stroke="none" font-size="433.3333" font-family="sans-serif">OH</text><text y="-27554" xml:space="preserve" x="-29016" stroke="none" font-size="433.3333" font-family="sans-serif">OH</text><text y="-27554" xml:space="preserve" x="-27045" stroke="none" font-size="433.3333" font-family="sans-serif">O</text><text y="-30876" xml:space="preserve" x="-30989" stroke="none" font-size="433.3333" font-family="sans-serif">O</text><text y="-31020" xml:space="preserve" x="-27294" stroke="none" font-style="italic" font-size="313.3333" font-family="sans-serif">S</text><text y="-30165" xml:space="preserve" x="-31725" stroke="none" font-style="italic" font-size="313.3333" font-family="sans-serif">S</text></g></g></svg>