<svg width="161.94" viewBox="0 0 5398 3977" text-rendering="auto" stroke-width="1" stroke-opacity="1" stroke-miterlimit="10" stroke-linejoin="miter" stroke-linecap="square" stroke-dashoffset="0" stroke-dasharray="none" stroke="black" shape-rendering="auto" image-rendering="auto" height="119.31" font-weight="normal" font-style="normal" font-size="12" font-family="'Dialog'" fill-opacity="1" fill="black" color-rendering="auto" color-interpolation="auto" xmlns="http://www.w3.org/2000/svg"><g><g stroke="white" fill="white"><rect y="0" x="0" width="5398" stroke="none" height="3977"/></g><g transform="translate(32866,32758)" text-rendering="geometricPrecision" stroke-width="44" stroke-linejoin="round" stroke-linecap="round"><line y2="-31376" y1="-30850" x2="-29891" x1="-30798" fill="none"/><line y2="-30850" y1="-31376" x2="-28984" x1="-29891" fill="none"/><line y2="-31376" y1="-30850" x2="-31705" x1="-30798" fill="none"/><line y2="-30024" y1="-30850" x2="-30798" x1="-30798" fill="none"/><line y2="-29440" y1="-29700" x2="-31454" x1="-30986" fill="none"/><line y2="-31266" y1="-30850" x2="-28264" x1="-28984" fill="none"/><line y2="-30024" y1="-30850" x2="-28912" x1="-28912" fill="none"/><line y2="-30024" y1="-30850" x2="-29053" x1="-29053" fill="none"/><line y2="-31070" y1="-31376" x2="-32231" x1="-31705" fill="none"/><line y2="-32202" y1="-31376" x2="-31774" x1="-31774" fill="none"/><line y2="-32202" y1="-31376" x2="-31633" x1="-31633" fill="none"/><text y="-29625" xml:space="preserve" x="-30948" stroke="none" font-size="433.3333" font-family="sans-serif">NH</text><text y="-30671" xml:space="preserve" x="-32762" stroke="none" font-size="433.3333" font-family="sans-serif">OH</text><text y="-32242" xml:space="preserve" x="-31855" stroke="none" font-size="433.3333" font-family="sans-serif">O</text><text y="-29042" xml:space="preserve" x="-32003" stroke="none" font-size="433.3333" font-family="sans-serif">CH</text><text y="-28952" xml:space="preserve" x="-31425" stroke="none" font-size="313.3333" font-family="sans-serif">3</text><text y="-31197" xml:space="preserve" x="-28227" stroke="none" font-size="433.3333" font-family="sans-serif">OH</text><text y="-29625" xml:space="preserve" x="-29134" stroke="none" font-size="433.3333" font-family="sans-serif">O</text></g></g></svg>