<svg width="287.52" viewBox="0 0 9584 4491" text-rendering="auto" stroke-width="1" stroke-opacity="1" stroke-miterlimit="10" stroke-linejoin="miter" stroke-linecap="square" stroke-dashoffset="0" stroke-dasharray="none" stroke="black" shape-rendering="auto" image-rendering="auto" height="134.73" font-weight="normal" font-style="normal" font-size="12" font-family="'Dialog'" fill-opacity="1" fill="black" color-rendering="auto" color-interpolation="auto" xmlns="http://www.w3.org/2000/svg"><g><g stroke="white" fill="white"><rect y="0" x="0" width="9584" stroke="none" height="4491"/></g><g transform="translate(32866,32758)" text-rendering="geometricPrecision" stroke-width="44" stroke-linejoin="round" stroke-linecap="round"><line y2="-30076" y1="-30645" x2="-30792" x1="-31777" fill="none"/><line y2="-30001" y1="-30428" x2="-31000" x1="-31740" fill="none"/><line y2="-28938" y1="-30076" x2="-30792" x1="-30792" fill="none"/><line y2="-30645" y1="-30076" x2="-31777" x1="-32762" fill="none"/><line y2="-28371" y1="-28938" x2="-31777" x1="-30792" fill="none"/><line y2="-28588" y1="-29016" x2="-31740" x1="-31000" fill="none"/><line y2="-30076" y1="-28938" x2="-32762" x1="-32762" fill="none"/><line y2="-29934" y1="-29082" x2="-32592" x1="-32592" fill="none"/><line y2="-28938" y1="-28371" x2="-32762" x1="-31777" fill="none"/><line y2="-30492" y1="-30076" x2="-30073" x1="-30792" fill="none"/><line y2="-30076" y1="-30382" x2="-28978" x1="-29507" fill="none"/><line y2="-30405" y1="-30076" x2="-28412" x1="-28978" fill="none"/><line y2="-30139" y1="-30402" x2="-27276" x1="-27730" fill="none"/><line y2="-31428" y1="-30818" x2="-28071" x1="-28071" fill="none"/><line y2="-32063" y1="-31757" x2="-27352" x1="-27883" fill="none"/><line y2="-32315" y1="-30798" x2="-25104" x1="-27730" fill="none"/><line y2="-32008" y1="-32315" x2="-24197" x1="-24728" fill="none"/><text y="-30422" xml:space="preserve" x="-28302" stroke="none" font-size="433.3333" font-family="sans-serif">Si</text><text y="-31468" xml:space="preserve" x="-28224" stroke="none" font-size="433.3333" font-family="sans-serif">O</text><text y="-32242" xml:space="preserve" x="-25069" stroke="none" font-size="433.3333" font-family="sans-serif">O</text><text y="-29853" xml:space="preserve" x="-27239" stroke="none" font-size="433.3333" font-family="sans-serif">CH</text><text y="-29764" xml:space="preserve" x="-26661" stroke="none" font-size="313.3333" font-family="sans-serif">3</text><text y="-30422" xml:space="preserve" x="-30038" stroke="none" font-size="433.3333" font-family="sans-serif">NH</text><text y="-31994" xml:space="preserve" x="-27317" stroke="none" font-size="433.3333" font-family="sans-serif">CH</text><text y="-31904" xml:space="preserve" x="-26739" stroke="none" font-size="313.3333" font-family="sans-serif">3</text><text y="-31720" xml:space="preserve" x="-24162" stroke="none" font-size="433.3333" font-family="sans-serif">CH</text><text y="-31630" xml:space="preserve" x="-23584" stroke="none" font-size="313.3333" font-family="sans-serif">3</text></g></g></svg>