<svg width="186.54" viewBox="0 0 6218 4009" text-rendering="auto" stroke-width="1" stroke-opacity="1" stroke-miterlimit="10" stroke-linejoin="miter" stroke-linecap="square" stroke-dashoffset="0" stroke-dasharray="none" stroke="black" shape-rendering="auto" image-rendering="auto" height="120.27" font-weight="normal" font-style="normal" font-size="12" font-family="'Dialog'" fill-opacity="1" fill="black" color-rendering="auto" color-interpolation="auto" xmlns="http://www.w3.org/2000/svg"><g><g stroke="white" fill="white"><rect y="0" x="0" width="6218" stroke="none" height="4009"/></g><g transform="translate(32866,32866)" text-rendering="geometricPrecision" stroke-width="44" stroke-linejoin="round" stroke-linecap="round"><line y2="-30009" y1="-31145" x2="-28906" x1="-28906" fill="none"/><line y2="-30151" y1="-31003" x2="-29076" x1="-29076" fill="none"/><line y2="-29440" y1="-30009" x2="-29891" x1="-28906" fill="none"/><line y2="-30009" y1="-30009" x2="-28906" x1="-27123" fill="none"/><line y2="-31145" y1="-31714" x2="-28906" x1="-29891" fill="none"/><line y2="-31714" y1="-31145" x2="-27918" x1="-28906" fill="none"/><line y2="-30009" y1="-29440" x2="-30876" x1="-29891" fill="none"/><line y2="-30229" y1="-31145" x2="-26936" x1="-26936" fill="none"/><line y2="-31714" y1="-31145" x2="-29891" x1="-30876" fill="none"/><line y2="-31145" y1="-31714" x2="-26936" x1="-27918" fill="none"/><line y2="-31070" y1="-31497" x2="-27144" x1="-27880" fill="none"/><line y2="-31145" y1="-30009" x2="-30876" x1="-30876" fill="none"/><line y2="-29484" y1="-30009" x2="-31783" x1="-30876" fill="none"/><line y2="-30009" y1="-29484" x2="-32690" x1="-31783" fill="none"/><line y2="-29888" y1="-29365" x2="-32762" x1="-31855" fill="none"/><line y2="-32762" y1="-31714" x2="-27918" x1="-27918" fill="none"/><line y2="-31145" y1="-31670" x2="-32690" x1="-31783" fill="none"/><line y2="-32719" y1="-31670" x2="-31783" x1="-31783" fill="none"/><line y2="-32719" y1="-31670" x2="-31644" x1="-31644" fill="none"/><polygon stroke-width="1" stroke="none" points=" -30876 -31145 -31818 -31610 -31748 -31728"/><polygon stroke-width="1" points=" -30876 -31145 -31818 -31610 -31748 -31728" fill="none"/><polygon stroke-width="1" stroke="none" points=" -30876 -30009 -30807 -28961 -30945 -28961"/><polygon stroke-width="1" points=" -30876 -30009 -30807 -28961 -30945 -28961" fill="none"/><text y="-29830" xml:space="preserve" x="-27089" stroke-width="1" stroke="none" font-size="433.3333" font-family="sans-serif">O</text></g><g transform="translate(32866,32866)" text-rendering="geometricPrecision" stroke-linejoin="round" stroke-linecap="round" font-style="italic" font-size="313.3333" font-family="sans-serif"><text y="-29975" xml:space="preserve" x="-31278" stroke="none">R</text><text y="-30824" xml:space="preserve" x="-30781" stroke="none">R</text></g></g></svg>