<svg width="284.22" viewBox="0 0 9474 6973" text-rendering="auto" stroke-width="1" stroke-opacity="1" stroke-miterlimit="10" stroke-linejoin="miter" stroke-linecap="square" stroke-dashoffset="0" stroke-dasharray="none" stroke="black" shape-rendering="auto" image-rendering="auto" height="209.19" font-weight="normal" font-style="normal" font-size="12" font-family="'Dialog'" fill-opacity="1" fill="black" color-rendering="auto" color-interpolation="auto" xmlns="http://www.w3.org/2000/svg"><g><g stroke="white" fill="white"><rect y="0" x="0" width="9474" stroke="none" height="6973"/></g><g transform="translate(32866,32758)" text-rendering="geometricPrecision" stroke-width="44" stroke-linejoin="round" stroke-linecap="round"><line y2="-29325" y1="-29325" x2="-25884" x1="-26930" fill="none"/><line y2="-29325" y1="-29325" x2="-28660" x1="-27612" fill="none"/><line y2="-29325" y1="-29325" x2="-30084" x1="-29036" fill="none"/><line y2="-27493" y1="-29105" x2="-27274" x1="-27274" fill="none"/><line y2="-27274" y1="-27274" x2="-26037" x1="-27083" fill="none"/><line y2="-31156" y1="-29544" x2="-27274" x1="-27274" fill="none"/><line y2="-31376" y1="-31376" x2="-26037" x1="-27083" fill="none"/><line y2="-29325" y1="-29325" x2="-31812" x1="-30763" fill="none"/><line y2="-30154" y1="-29544" x2="-30425" x1="-30425" fill="none"/><line y2="-28496" y1="-29105" x2="-30425" x1="-30425" fill="none"/><line y2="-27274" y1="-27274" x2="-24307" x1="-25355" fill="none"/><line y2="-28103" y1="-27493" x2="-25696" x1="-25696" fill="none"/><line y2="-26444" y1="-27054" x2="-25696" x1="-25696" fill="none"/><line y2="-31376" y1="-31376" x2="-24307" x1="-25355" fill="none"/><line y2="-32202" y1="-31595" x2="-25699" x1="-25699" fill="none"/><line y2="-30547" y1="-31156" x2="-25699" x1="-25699" fill="none"/><text y="-29146" xml:space="preserve" x="-29001" stroke="none" font-size="433.3333" font-family="sans-serif">O</text><text y="-29146" xml:space="preserve" x="-27505" stroke="none" font-size="433.3333" font-family="sans-serif">Si</text><text y="-29146" xml:space="preserve" x="-30656" stroke="none" font-size="433.3333" font-family="sans-serif">Si</text><text y="-27094" xml:space="preserve" x="-27424" stroke="none" font-size="433.3333" font-family="sans-serif">O</text><text y="-31197" xml:space="preserve" x="-27424" stroke="none" font-size="433.3333" font-family="sans-serif">O</text><text y="-29146" xml:space="preserve" x="-25846" stroke="none" font-size="433.3333" font-family="sans-serif">CH</text><text y="-29056" xml:space="preserve" x="-25269" stroke="none" font-size="313.3333" font-family="sans-serif">3</text><text y="-29146" xml:space="preserve" x="-32762" stroke="none" font-size="433.3333" font-family="sans-serif">CH</text><text y="-29056" xml:space="preserve" x="-32185" stroke="none" font-size="313.3333" font-family="sans-serif">3</text><text y="-30191" xml:space="preserve" x="-30576" stroke="none" font-size="433.3333" font-family="sans-serif">CH</text><text y="-30102" xml:space="preserve" x="-29998" stroke="none" font-size="313.3333" font-family="sans-serif">3</text><text y="-28097" xml:space="preserve" x="-30576" stroke="none" font-size="433.3333" font-family="sans-serif">CH</text><text y="-28007" xml:space="preserve" x="-29998" stroke="none" font-size="313.3333" font-family="sans-serif">3</text><text y="-27094" xml:space="preserve" x="-25927" stroke="none" font-size="433.3333" font-family="sans-serif">Si</text><text y="-31197" xml:space="preserve" x="-25930" stroke="none" font-size="433.3333" font-family="sans-serif">Si</text><text y="-27094" xml:space="preserve" x="-24272" stroke="none" font-size="433.3333" font-family="sans-serif">CH</text><text y="-27005" xml:space="preserve" x="-23694" stroke="none" font-size="313.3333" font-family="sans-serif">3</text><text y="-28143" xml:space="preserve" x="-25849" stroke="none" font-size="433.3333" font-family="sans-serif">CH</text><text y="-28054" xml:space="preserve" x="-25272" stroke="none" font-size="313.3333" font-family="sans-serif">3</text><text y="-26046" xml:space="preserve" x="-25849" stroke="none" font-size="433.3333" font-family="sans-serif">CH</text><text y="-25956" xml:space="preserve" x="-25272" stroke="none" font-size="313.3333" font-family="sans-serif">3</text><text y="-31197" xml:space="preserve" x="-24272" stroke="none" font-size="433.3333" font-family="sans-serif">CH</text><text y="-31107" xml:space="preserve" x="-23694" stroke="none" font-size="313.3333" font-family="sans-serif">3</text><text y="-32242" xml:space="preserve" x="-25849" stroke="none" font-size="433.3333" font-family="sans-serif">CH</text><text y="-32153" xml:space="preserve" x="-25272" stroke="none" font-size="313.3333" font-family="sans-serif">3</text><text y="-30148" xml:space="preserve" x="-25849" stroke="none" font-size="433.3333" font-family="sans-serif">CH</text><text y="-30058" xml:space="preserve" x="-25272" stroke="none" font-size="313.3333" font-family="sans-serif">3</text></g></g></svg>