<svg width="139.11" viewBox="0 0 4637 6559" text-rendering="auto" stroke-width="1" stroke-opacity="1" stroke-miterlimit="10" stroke-linejoin="miter" stroke-linecap="square" stroke-dashoffset="0" stroke-dasharray="none" stroke="black" shape-rendering="auto" image-rendering="auto" height="196.77" font-weight="normal" font-style="normal" font-size="12" font-family="'Dialog'" fill-opacity="1" fill="black" color-rendering="auto" color-interpolation="auto" xmlns="http://www.w3.org/2000/svg"><g><g stroke="white" fill="white"><rect y="0" x="0" width="4637" stroke="none" height="6559"/></g><g transform="translate(32866,32758)" text-rendering="geometricPrecision" stroke-width="44" stroke-linejoin="round" stroke-linecap="round"><line y2="-28576" y1="-28007" x2="-29804" x1="-30792" fill="none"/><line y2="-28007" y1="-28576" x2="-28822" x1="-29804" fill="none"/><line y2="-29146" y1="-28576" x2="-30792" x1="-29804" fill="none"/><line y2="-28576" y1="-29146" x2="-29804" x1="-28822" fill="none"/><line y2="-26869" y1="-28007" x2="-30792" x1="-30792" fill="none"/><line y2="-28007" y1="-28576" x2="-30792" x1="-31774" fill="none"/><line y2="-27932" y1="-28360" x2="-31000" x1="-31737" fill="none"/><line y2="-27089" y1="-28007" x2="-28822" x1="-28822" fill="none"/><line y2="-30281" y1="-29146" x2="-30792" x1="-30792" fill="none"/><line y2="-29146" y1="-30281" x2="-28822" x1="-28822" fill="none"/><line y2="-26869" y1="-26869" x2="-30792" x1="-29010" fill="none"/><line y2="-26303" y1="-26869" x2="-31774" x1="-30792" fill="none"/><line y2="-26520" y1="-26947" x2="-31737" x1="-31000" fill="none"/><line y2="-28576" y1="-28007" x2="-31774" x1="-32762" fill="none"/><line y2="-30743" y1="-30281" x2="-29992" x1="-30792" fill="none"/><line y2="-30281" y1="-30743" x2="-28822" x1="-29616" fill="none"/><line y2="-26869" y1="-26303" x2="-32762" x1="-31774" fill="none"/><line y2="-28007" y1="-26869" x2="-32762" x1="-32762" fill="none"/><line y2="-27866" y1="-27014" x2="-32592" x1="-32592" fill="none"/><line y2="-31899" y1="-31070" x2="-29804" x1="-29804" fill="none"/><line y2="-32315" y1="-31899" x2="-30524" x1="-29804" fill="none"/><line y2="-31899" y1="-32315" x2="-31618" x1="-30899" fill="none"/><line y2="-32375" y1="-31959" x2="-29120" x1="-29839" fill="none"/><line y2="-32254" y1="-31838" x2="-29050" x1="-29770" fill="none"/><line y2="-32422" y1="-31899" x2="-32526" x1="-31618" fill="none"/><line y2="-30992" y1="-31899" x2="-32141" x1="-31618" fill="none"/><line y2="-30992" y1="-31899" x2="-31096" x1="-31618" fill="none"/><text y="-32242" xml:space="preserve" x="-30864" stroke="none" font-size="433.3333" font-family="sans-serif">O</text><text y="-32242" xml:space="preserve" x="-29050" stroke="none" font-size="433.3333" font-family="sans-serif">O</text><text y="-26690" xml:space="preserve" x="-28972" stroke="none" font-size="433.3333" font-family="sans-serif">NH</text><text y="-30671" xml:space="preserve" x="-29957" stroke="none" font-size="433.3333" font-family="sans-serif">N</text></g></g></svg>