<svg width="348.78" viewBox="0 0 11626 3986" text-rendering="auto" stroke-width="1" stroke-opacity="1" stroke-miterlimit="10" stroke-linejoin="miter" stroke-linecap="square" stroke-dashoffset="0" stroke-dasharray="none" stroke="black" shape-rendering="auto" image-rendering="auto" height="119.58" font-weight="normal" font-style="normal" font-size="12" font-family="'Dialog'" fill-opacity="1" fill="black" color-rendering="auto" color-interpolation="auto" xmlns="http://www.w3.org/2000/svg"><g><g stroke="white" fill="white"><rect y="0" x="0" width="11626" stroke="none" height="3986"/></g><g transform="translate(32866,32758)" text-rendering="geometricPrecision" stroke-width="44" stroke-linejoin="round" stroke-linecap="round"><line y2="-30807" y1="-31330" x2="-28472" x1="-29380" fill="none"/><line y2="-31330" y1="-30807" x2="-27565" x1="-28472" fill="none"/><line y2="-30807" y1="-31330" x2="-26658" x1="-27565" fill="none"/><line y2="-31330" y1="-30807" x2="-25751" x1="-26658" fill="none"/><line y2="-30807" y1="-31330" x2="-24844" x1="-25751" fill="none"/><line y2="-30914" y1="-31330" x2="-30099" x1="-29380" fill="none"/><line y2="-31176" y1="-30914" x2="-30928" x1="-30474" fill="none"/><line y2="-32159" y1="-31330" x2="-29449" x1="-29449" fill="none"/><line y2="-32159" y1="-31330" x2="-29307" x1="-29307" fill="none"/><line y2="-31223" y1="-30807" x2="-24125" x1="-24844" fill="none"/><line y2="-30960" y1="-31223" x2="-23293" x1="-23746" fill="none"/><line y2="-29978" y1="-30807" x2="-24772" x1="-24772" fill="none"/><line y2="-29978" y1="-30807" x2="-24913" x1="-24913" fill="none"/><line y2="-30931" y1="-31179" x2="-32040" x1="-31610" fill="none"/><line y2="-32202" y1="-31595" x2="-31269" x1="-31269" fill="none"/><line y2="-31818" y1="-31572" x2="-32037" x1="-31610" fill="none"/><line y2="-31223" y1="-30960" x2="-22157" x1="-22611" fill="none"/><line y2="-29432" y1="-30544" x2="-22952" x1="-22952" fill="none"/><line y2="-30301" y1="-30564" x2="-22157" x1="-22611" fill="none"/><text y="-31150" xml:space="preserve" x="-24087" stroke="none" font-size="433.3333" font-family="sans-serif">O</text><text y="-30584" xml:space="preserve" x="-23183" stroke="none" font-size="433.3333" font-family="sans-serif">Si</text><text y="-31150" xml:space="preserve" x="-22120" stroke="none" font-size="433.3333" font-family="sans-serif">CH</text><text y="-31061" xml:space="preserve" x="-21542" stroke="none" font-size="313.3333" font-family="sans-serif">3</text><text y="-29033" xml:space="preserve" x="-23105" stroke="none" font-size="433.3333" font-family="sans-serif">CH</text><text y="-28943" xml:space="preserve" x="-22527" stroke="none" font-size="313.3333" font-family="sans-serif">3</text><text y="-30015" xml:space="preserve" x="-22120" stroke="none" font-size="433.3333" font-family="sans-serif">CH</text><text y="-29926" xml:space="preserve" x="-21542" stroke="none" font-size="313.3333" font-family="sans-serif">3</text><text y="-29579" xml:space="preserve" x="-24994" stroke="none" font-size="433.3333" font-family="sans-serif">O</text><text y="-30628" xml:space="preserve" x="-30437" stroke="none" font-size="433.3333" font-family="sans-serif">O</text><text y="-32199" xml:space="preserve" x="-29530" stroke="none" font-size="433.3333" font-family="sans-serif">O</text><text y="-31197" xml:space="preserve" x="-31500" stroke="none" font-size="433.3333" font-family="sans-serif">Si</text><text y="-30532" xml:space="preserve" x="-32572" stroke="none" font-size="433.3333" font-family="sans-serif">CH</text><text y="-30443" xml:space="preserve" x="-31994" stroke="none" font-size="313.3333" font-family="sans-serif">3</text><text y="-32242" xml:space="preserve" x="-31422" stroke="none" font-size="433.3333" font-family="sans-serif">CH</text><text y="-32153" xml:space="preserve" x="-30844" stroke="none" font-size="313.3333" font-family="sans-serif">3</text><text y="-31968" xml:space="preserve" x="-32762" stroke="none" font-size="433.3333" font-family="sans-serif">CH</text><text y="-31878" xml:space="preserve" x="-32185" stroke="none" font-size="313.3333" font-family="sans-serif">3</text></g></g></svg>