<svg width="220.26" viewBox="0 0 7342 6918" text-rendering="auto" stroke-width="1" stroke-opacity="1" stroke-miterlimit="10" stroke-linejoin="miter" stroke-linecap="square" stroke-dashoffset="0" stroke-dasharray="none" stroke="black" shape-rendering="auto" image-rendering="auto" height="207.54" font-weight="normal" font-style="normal" font-size="12" font-family="'Dialog'" fill-opacity="1" fill="black" color-rendering="auto" color-interpolation="auto" xmlns="http://www.w3.org/2000/svg"><g><g stroke="white" fill="white"><rect y="0" x="0" width="7342" stroke="none" height="6918"/></g><g transform="translate(32866,32866)" text-rendering="geometricPrecision" stroke-width="44" stroke-linejoin="round" stroke-linecap="round"><line y2="-29417" y1="-30532" x2="-30945" x1="-30558" fill="none"/><line y2="-29417" y1="-29417" x2="-32147" x1="-30945" fill="none"/><line y2="-29588" y1="-29588" x2="-31997" x1="-31096" fill="none"/><line y2="-30532" y1="-31119" x2="-30558" x1="-31315" fill="none"/><line y2="-30472" y1="-30911" x2="-30758" x1="-31324" fill="none"/><line y2="-30313" y1="-29417" x2="-32422" x1="-32147" fill="none"/><line y2="-31124" y1="-30671" x2="-31691" x1="-32303" fill="none"/><line y2="-28894" y1="-29417" x2="-30038" x1="-30945" fill="none"/><line y2="-31055" y1="-30532" x2="-29651" x1="-30558" fill="none"/><line y2="-28568" y1="-29417" x2="-32762" x1="-32147" fill="none"/><line y2="-28894" y1="-27756" x2="-30038" x1="-30038" fill="none"/><line y2="-28750" y1="-27898" x2="-29868" x1="-29868" fill="none"/><line y2="-29460" y1="-28894" x2="-29050" x1="-30038" fill="none"/><line y2="-27756" y1="-27187" x2="-30038" x1="-29050" fill="none"/><line y2="-28894" y1="-29460" x2="-28068" x1="-29050" fill="none"/><line y2="-28816" y1="-29244" x2="-28273" x1="-29013" fill="none"/><line y2="-27187" y1="-27756" x2="-29050" x1="-28068" fill="none"/><line y2="-27404" y1="-27831" x2="-29013" x1="-28273" fill="none"/><line y2="-27756" y1="-28894" x2="-28068" x1="-28068" fill="none"/><line y2="-27340" y1="-27756" x2="-27349" x1="-28068" fill="none"/><line y2="-32193" y1="-31055" x2="-29651" x1="-29651" fill="none"/><line y2="-32052" y1="-31200" x2="-29481" x1="-29481" fill="none"/><line y2="-31055" y1="-30489" x2="-29651" x1="-28663" fill="none"/><line y2="-32762" y1="-32193" x2="-28663" x1="-29651" fill="none"/><line y2="-30489" y1="-31055" x2="-28663" x1="-27681" fill="none"/><line y2="-30706" y1="-31133" x2="-28626" x1="-27889" fill="none"/><line y2="-32193" y1="-32762" x2="-27681" x1="-28663" fill="none"/><line y2="-32118" y1="-32546" x2="-27889" x1="-28626" fill="none"/><line y2="-31055" y1="-32193" x2="-27681" x1="-27681" fill="none"/><line y2="-27646" y1="-27340" x2="-26442" x1="-26970" fill="none"/><line y2="-26577" y1="-27048" x2="-26702" x1="-26973" fill="none"/><line y2="-26508" y1="-26976" x2="-26823" x1="-27094" fill="none"/><line y2="-26508" y1="-26976" x2="-27496" x1="-27224" fill="none"/><line y2="-26577" y1="-27048" x2="-27617" x1="-27346" fill="none"/><text y="-27051" xml:space="preserve" x="-27311" stroke="none" font-size="433.3333" font-family="sans-serif">S</text><text y="-27577" xml:space="preserve" x="-26404" stroke="none" font-size="433.3333" font-family="sans-serif">NH</text><text y="-27487" xml:space="preserve" x="-25826" stroke="none" font-size="313.3333" font-family="sans-serif">2</text><text y="-26144" xml:space="preserve" x="-26788" stroke="none" font-size="433.3333" font-family="sans-serif">O</text><text y="-26144" xml:space="preserve" x="-27837" stroke="none" font-size="433.3333" font-family="sans-serif">O</text><text y="-31084" xml:space="preserve" x="-31656" stroke="none" font-size="433.3333" font-family="sans-serif">N</text><text y="-30353" xml:space="preserve" x="-32644" stroke="none" font-size="433.3333" font-family="sans-serif">O</text></g></g></svg>