<svg width="178.77" viewBox="0 0 5959 4760" text-rendering="auto" stroke-width="1" stroke-opacity="1" stroke-miterlimit="10" stroke-linejoin="miter" stroke-linecap="square" stroke-dashoffset="0" stroke-dasharray="none" stroke="black" shape-rendering="auto" image-rendering="auto" height="142.8" font-weight="normal" font-style="normal" font-size="12" font-family="'Dialog'" fill-opacity="1" fill="black" color-rendering="auto" color-interpolation="auto" xmlns="http://www.w3.org/2000/svg"><g><g stroke="white" fill="white"><rect y="0" x="0" width="5959" stroke="none" height="4760"/></g><g transform="translate(32866,32866)" text-rendering="geometricPrecision" stroke-width="44" stroke-linejoin="round" stroke-linecap="round"><line y2="-31191" y1="-31760" x2="-28825" x1="-29810" fill="none"/><line y2="-31116" y1="-31540" x2="-29033" x1="-29770" fill="none"/><line y2="-30053" y1="-31191" x2="-28825" x1="-28825" fill="none"/><line y2="-31760" y1="-31191" x2="-29810" x1="-30795" fill="none"/><line y2="-29484" y1="-30053" x2="-29810" x1="-28825" fill="none"/><line y2="-29703" y1="-30131" x2="-29770" x1="-29033" fill="none"/><line y2="-31191" y1="-30053" x2="-30795" x1="-30795" fill="none"/><line y2="-31049" y1="-30197" x2="-30625" x1="-30625" fill="none"/><line y2="-30053" y1="-29484" x2="-30795" x1="-29810" fill="none"/><line y2="-31714" y1="-31191" x2="-27918" x1="-28825" fill="none"/><line y2="-29637" y1="-30053" x2="-31514" x1="-30795" fill="none"/><line y2="-31191" y1="-31714" x2="-27011" x1="-27918" fill="none"/><line y2="-32762" y1="-31714" x2="-27918" x1="-27918" fill="none"/><line y2="-28701" y1="-29310" x2="-31633" x1="-31633" fill="none"/><line y2="-28701" y1="-29310" x2="-31772" x1="-31772" fill="none"/><line y2="-29885" y1="-29576" x2="-32456" x1="-31925" fill="none"/><line y2="-30006" y1="-29700" x2="-32387" x1="-31855" fill="none"/><text y="-29351" xml:space="preserve" x="-31855" stroke="none" font-size="433.3333" font-family="sans-serif">N</text><text y="-28302" xml:space="preserve" x="-31855" stroke="none" font-size="433.3333" font-family="sans-serif">O</text><text y="-29874" xml:space="preserve" x="-32762" stroke="none" font-size="433.3333" font-family="sans-serif">O</text></g></g></svg>