<svg width="246.09" viewBox="0 0 8203 6095" text-rendering="auto" stroke-width="1" stroke-opacity="1" stroke-miterlimit="10" stroke-linejoin="miter" stroke-linecap="square" stroke-dashoffset="0" stroke-dasharray="none" stroke="black" shape-rendering="auto" image-rendering="auto" height="182.85" font-weight="normal" font-style="normal" font-size="12" font-family="'Dialog'" fill-opacity="1" fill="black" color-rendering="auto" color-interpolation="auto" xmlns="http://www.w3.org/2000/svg"><g><g stroke="white" fill="white"><rect y="0" x="0" width="8203" stroke="none" height="6095"/></g><g transform="translate(32866,32866)" text-rendering="geometricPrecision" stroke-width="44" stroke-linejoin="round" stroke-linecap="round"><line y2="-28808" y1="-29333" x2="-27840" x1="-28747" fill="none"/><line y2="-28808" y1="-29333" x2="-29654" x1="-28747" fill="none"/><line y2="-30142" y1="-29333" x2="-30154" x1="-28747" fill="none"/><line y2="-30160" y1="-29333" x2="-28747" x1="-28747" fill="none"/><line y2="-28808" y1="-27672" x2="-27840" x1="-27840" fill="none"/><line y2="-28666" y1="-27814" x2="-27669" x1="-27669" fill="none"/><line y2="-29377" y1="-28808" x2="-26855" x1="-27840" fill="none"/><line y2="-27672" y1="-27103" x2="-27840" x1="-26855" fill="none"/><line y2="-28808" y1="-29377" x2="-25870" x1="-26855" fill="none"/><line y2="-28732" y1="-29160" x2="-26078" x1="-26817" fill="none"/><line y2="-27103" y1="-27672" x2="-26855" x1="-25870" fill="none"/><line y2="-27320" y1="-27747" x2="-26817" x1="-26078" fill="none"/><line y2="-27672" y1="-28808" x2="-25870" x1="-25870" fill="none"/><line y2="-27343" y1="-27672" x2="-25303" x1="-25870" fill="none"/><line y2="-27672" y1="-28808" x2="-29654" x1="-29654" fill="none"/><line y2="-27814" y1="-28666" x2="-29824" x1="-29824" fill="none"/><line y2="-28808" y1="-29377" x2="-29654" x1="-30642" fill="none"/><line y2="-27103" y1="-27672" x2="-30642" x1="-29654" fill="none"/><line y2="-29377" y1="-28808" x2="-30642" x1="-31624" fill="none"/><line y2="-29160" y1="-28732" x2="-30680" x1="-31416" fill="none"/><line y2="-27672" y1="-27103" x2="-31624" x1="-30642" fill="none"/><line y2="-27747" y1="-27320" x2="-31416" x1="-30680" fill="none"/><line y2="-28808" y1="-27672" x2="-31624" x1="-31624" fill="none"/><line y2="-27346" y1="-27672" x2="-32190" x1="-31624" fill="none"/><line y2="-30971" y1="-30142" x2="-30154" x1="-30154" fill="none"/><line y2="-31714" y1="-31298" x2="-31061" x1="-30342" fill="none"/><line y2="-29666" y1="-30082" x2="-30838" x1="-30119" fill="none"/><line y2="-29790" y1="-30203" x2="-30908" x1="-30188" fill="none"/><line y2="-31191" y1="-31714" x2="-31968" x1="-31061" fill="none"/><line y2="-32762" y1="-31714" x2="-31061" x1="-31061" fill="none"/><text y="-30200" xml:space="preserve" x="-28900" stroke="none" font-size="433.3333" font-family="sans-serif">OH</text><text y="-31012" xml:space="preserve" x="-30304" stroke="none" font-size="433.3333" font-family="sans-serif">O</text><text y="-29440" xml:space="preserve" x="-31211" stroke="none" font-size="433.3333" font-family="sans-serif">O</text><text y="-26967" xml:space="preserve" x="-25194" stroke="none" font-size="433.3333" font-family="sans-serif">Br</text><text y="-26967" xml:space="preserve" x="-32762" stroke="none" font-size="433.3333" font-family="sans-serif">Br</text></g></g></svg>