<svg width="256.83" viewBox="0 0 8561 5308" text-rendering="auto" stroke-width="1" stroke-opacity="1" stroke-miterlimit="10" stroke-linejoin="miter" stroke-linecap="square" stroke-dashoffset="0" stroke-dasharray="none" stroke="black" shape-rendering="auto" image-rendering="auto" height="159.24" font-weight="normal" font-style="normal" font-size="12" font-family="'Dialog'" fill-opacity="1" fill="black" color-rendering="auto" color-interpolation="auto" xmlns="http://www.w3.org/2000/svg"><g><g stroke="white" fill="white"><rect y="0" x="0" width="8561" stroke="none" height="5308"/></g><g transform="translate(32866,32758)" text-rendering="geometricPrecision" stroke-width="44" stroke-linejoin="round" stroke-linecap="round"><line y2="-30850" y1="-31376" x2="-28048" x1="-28955" fill="none"/><line y2="-31070" y1="-31376" x2="-29481" x1="-28955" fill="none"/><line y2="-31376" y1="-30960" x2="-30769" x1="-30050" fill="none"/><line y2="-32202" y1="-31376" x2="-29024" x1="-29024" fill="none"/><line y2="-32202" y1="-31376" x2="-28883" x1="-28883" fill="none"/><line y2="-30850" y1="-29694" x2="-28048" x1="-27690" fill="none"/><line y2="-31607" y1="-30850" x2="-27022" x1="-28048" fill="none"/><line y2="-31376" y1="-30810" x2="-27048" x1="-27817" fill="none"/><line y2="-29694" y1="-29694" x2="-27690" x1="-26632" fill="none"/><line y2="-29862" y1="-29862" x2="-27557" x1="-26762" fill="none"/><line y2="-30997" y1="-31607" x2="-26231" x1="-27022" fill="none"/><line y2="-29914" y1="-30630" x2="-26366" x1="-26118" fill="none"/><line y2="-29169" y1="-29694" x2="-28597" x1="-27690" fill="none"/><line y2="-31087" y1="-30905" x2="-25222" x1="-25852" fill="none"/><line y2="-30680" y1="-31376" x2="-31711" x1="-30769" fill="none"/><line y2="-30902" y1="-31425" x2="-31694" x1="-30989" fill="none"/><line y2="-31376" y1="-32439" x2="-30769" x1="-31096" fill="none"/><line y2="-31231" y1="-30680" x2="-32422" x1="-31711" fill="none"/><line y2="-32439" y1="-32439" x2="-31096" x1="-32242" fill="none"/><line y2="-32268" y1="-32268" x2="-31240" x1="-32098" fill="none"/><line y2="-32439" y1="-31595" x2="-32242" x1="-32534" fill="none"/><line y2="-29631" y1="-30680" x2="-31711" x1="-31711" fill="none"/><line y2="-29585" y1="-29169" x2="-29316" x1="-28597" fill="none"/><line y2="-28481" y1="-29169" x2="-28995" x1="-28597" fill="none"/><line y2="-28481" y1="-29169" x2="-28201" x1="-28597" fill="none"/><line y2="-29125" y1="-29631" x2="-30795" x1="-31711" fill="none"/><line y2="-28077" y1="-29125" x2="-30795" x1="-30795" fill="none"/><line y2="-29108" y1="-29631" x2="-32618" x1="-31711" fill="none"/><line y2="-27554" y1="-28077" x2="-29885" x1="-30795" fill="none"/><line y2="-27554" y1="-28077" x2="-31702" x1="-30795" fill="none"/><text y="-30671" xml:space="preserve" x="-30012" stroke="none" font-size="433.3333" font-family="sans-serif">NH</text><text y="-32242" xml:space="preserve" x="-29105" stroke="none" font-size="433.3333" font-family="sans-serif">O</text><text y="-29515" xml:space="preserve" x="-29657" stroke="none" font-size="433.3333" font-family="sans-serif">F</text><text y="-28082" xml:space="preserve" x="-29273" stroke="none" font-size="433.3333" font-family="sans-serif">F</text><text y="-28082" xml:space="preserve" x="-28227" stroke="none" font-size="433.3333" font-family="sans-serif">F</text><text y="-30960" xml:space="preserve" x="-25185" stroke="none" font-size="433.3333" font-family="sans-serif">CH</text><text y="-30870" xml:space="preserve" x="-24607" stroke="none" font-size="313.3333" font-family="sans-serif">3</text><text y="-29515" xml:space="preserve" x="-26595" stroke="none" font-size="433.3333" font-family="sans-serif">N</text><text y="-30671" xml:space="preserve" x="-26193" stroke="none" font-size="433.3333" font-family="sans-serif">N</text><text y="-31197" xml:space="preserve" x="-32762" stroke="none" font-size="433.3333" font-family="sans-serif">S</text></g></g></svg>