<svg width="176.52" viewBox="0 0 5884 4639" text-rendering="auto" stroke-width="1" stroke-opacity="1" stroke-miterlimit="10" stroke-linejoin="miter" stroke-linecap="square" stroke-dashoffset="0" stroke-dasharray="none" stroke="black" shape-rendering="auto" image-rendering="auto" height="139.17" font-weight="normal" font-style="normal" font-size="12" font-family="'Dialog'" fill-opacity="1" fill="black" color-rendering="auto" color-interpolation="auto" xmlns="http://www.w3.org/2000/svg"><g><g stroke="white" fill="white"><rect y="0" x="0" width="5884" stroke="none" height="4639"/></g><g transform="translate(32866,32866)" text-rendering="geometricPrecision" stroke-width="44" stroke-linejoin="round" stroke-linecap="round"><line y2="-30532" y1="-29469" x2="-31806" x1="-31480" fill="none"/><line y2="-31090" y1="-30532" x2="-31052" x1="-31806" fill="none"/><line y2="-29469" y1="-29469" x2="-31480" x1="-30521" fill="none"/><line y2="-30532" y1="-31084" x2="-29963" x1="-30677" fill="none"/><line y2="-29689" y1="-30532" x2="-30255" x1="-29963" fill="none"/><line y2="-29850" y1="-30483" x2="-30382" x1="-30162" fill="none"/><line y2="-31055" y1="-30532" x2="-29056" x1="-29963" fill="none"/><line y2="-30108" y1="-30532" x2="-32762" x1="-31806" fill="none"/><line y2="-31439" y1="-30532" x2="-32329" x1="-31806" fill="none"/><line y2="-28426" y1="-29469" x2="-31370" x1="-31480" fill="none"/><line y2="-29252" y1="-29469" x2="-32502" x1="-31480" fill="none"/><line y2="-32058" y1="-31448" x2="-30864" x1="-30864" fill="none"/><line y2="-28862" y1="-29290" x2="-29822" x1="-30122" fill="none"/><line y2="-28782" y1="-29209" x2="-29937" x1="-30235" fill="none"/><line y2="-32193" y1="-31055" x2="-29056" x1="-29056" fill="none"/><line y2="-32052" y1="-31200" x2="-28886" x1="-28886" fill="none"/><line y2="-31055" y1="-30489" x2="-29056" x1="-28071" fill="none"/><line y2="-32762" y1="-32193" x2="-28071" x1="-29056" fill="none"/><line y2="-30489" y1="-31055" x2="-28071" x1="-27086" fill="none"/><line y2="-30706" y1="-31133" x2="-28033" x1="-27294" fill="none"/><line y2="-32193" y1="-32762" x2="-27086" x1="-28071" fill="none"/><line y2="-32118" y1="-32546" x2="-27294" x1="-28033" fill="none"/><line y2="-31055" y1="-32193" x2="-27086" x1="-27086" fill="none"/><text y="-32098" xml:space="preserve" x="-31018" stroke="none" font-size="433.3333" font-family="sans-serif">O</text><text y="-28423" xml:space="preserve" x="-29879" stroke="none" font-size="433.3333" font-family="sans-serif">O</text><text y="-31049" xml:space="preserve" x="-31018" stroke="none" font-size="433.3333" font-family="sans-serif">N</text><text y="-29290" xml:space="preserve" x="-30483" stroke="none" font-size="433.3333" font-family="sans-serif">N</text></g></g></svg>