<svg width="266.88" viewBox="0 0 8896 6891" text-rendering="auto" stroke-width="1" stroke-opacity="1" stroke-miterlimit="10" stroke-linejoin="miter" stroke-linecap="square" stroke-dashoffset="0" stroke-dasharray="none" stroke="black" shape-rendering="auto" image-rendering="auto" height="206.73" font-weight="normal" font-style="normal" font-size="12" font-family="'Dialog'" fill-opacity="1" fill="black" color-rendering="auto" color-interpolation="auto" xmlns="http://www.w3.org/2000/svg"><g><g stroke="white" fill="white"><rect y="0" x="0" width="8896" stroke="none" height="6891"/></g><g transform="translate(32866,32758)" text-rendering="geometricPrecision" stroke-width="44" stroke-linejoin="round" stroke-linecap="round"><line y2="-28244" y1="-27675" x2="-27213" x1="-28198" fill="none"/><line y2="-27675" y1="-26540" x2="-28198" x1="-28198" fill="none"/><line y2="-27534" y1="-26681" x2="-28030" x1="-28030" fill="none"/><line y2="-27675" y1="-28244" x2="-26228" x1="-27213" fill="none"/><line y2="-27600" y1="-28028" x2="-26436" x1="-27175" fill="none"/><line y2="-26540" y1="-25971" x2="-28198" x1="-27213" fill="none"/><line y2="-26540" y1="-27675" x2="-26228" x1="-26228" fill="none"/><line y2="-28137" y1="-27675" x2="-25430" x1="-26228" fill="none"/><line y2="-25971" y1="-26540" x2="-27213" x1="-26228" fill="none"/><line y2="-26187" y1="-26615" x2="-27175" x1="-26436" fill="none"/><line y2="-26540" y1="-26540" x2="-26228" x1="-24445" fill="none"/><line y2="-27675" y1="-28137" x2="-24258" x1="-25052" fill="none"/><line y2="-26759" y1="-27675" x2="-24258" x1="-24258" fill="none"/><line y2="-28201" y1="-27675" x2="-29105" x1="-28198" fill="none"/><line y2="-27675" y1="-28201" x2="-30015" x1="-29105" fill="none"/><line y2="-26014" y1="-26540" x2="-29105" x1="-28198" fill="none"/><line y2="-28201" y1="-27675" x2="-30922" x1="-30015" fill="none"/><line y2="-26849" y1="-27675" x2="-29943" x1="-29943" fill="none"/><line y2="-26849" y1="-27675" x2="-30084" x1="-30084" fill="none"/><line y2="-28201" y1="-29264" x2="-30922" x1="-31249" fill="none"/><line y2="-28285" y1="-29079" x2="-31124" x1="-31370" fill="none"/><line y2="-27643" y1="-28201" x2="-31676" x1="-30922" fill="none"/><line y2="-29264" y1="-29264" x2="-31249" x1="-32396" fill="none"/><line y2="-28201" y1="-27649" x2="-32762" x1="-32052" fill="none"/><line y2="-29264" y1="-28201" x2="-32396" x1="-32762" fill="none"/><line y2="-29076" y1="-28279" x2="-32280" x1="-32557" fill="none"/><line y2="-29680" y1="-29264" x2="-30529" x1="-31249" fill="none"/><line y2="-30616" y1="-30006" x2="-30342" x1="-30342" fill="none"/><line y2="-31358" y1="-31055" x2="-29434" x1="-29960" fill="none"/><line y2="-29856" y1="-29856" x2="-29481" x1="-30154" fill="none"/><line y2="-29718" y1="-29718" x2="-29481" x1="-30154" fill="none"/><line y2="-29134" y1="-29602" x2="-29882" x1="-30154" fill="none"/><line y2="-29065" y1="-29533" x2="-30004" x1="-30275" fill="none"/><line y2="-31358" y1="-30662" x2="-29434" x1="-28533" fill="none"/><line y2="-31408" y1="-30885" x2="-29218" x1="-28542" fill="none"/><line y2="-32202" y1="-31358" x2="-29143" x1="-29434" fill="none"/><line y2="-30662" y1="-31358" x2="-28533" x1="-27591" fill="none"/><line y2="-32422" y1="-32422" x2="-28108" x1="-28877" fill="none"/><line y2="-31358" y1="-32202" x2="-27591" x1="-27851" fill="none"/><line y2="-31413" y1="-32046" x2="-27788" x1="-27981" fill="none"/><line y2="-31052" y1="-31358" x2="-26589" x1="-27591" fill="none"/><line y2="-29833" y1="-30662" x2="-28533" x1="-28533" fill="none"/><text y="-26450" xml:space="preserve" x="-30165" stroke="none" font-size="433.3333" font-family="sans-serif">O</text><text y="-29608" xml:space="preserve" x="-30495" stroke="none" font-size="433.3333" font-family="sans-serif">S</text><text y="-30656" xml:space="preserve" x="-30495" stroke="none" font-size="433.3333" font-family="sans-serif">NH</text><text y="-29608" xml:space="preserve" x="-29446" stroke="none" font-size="433.3333" font-family="sans-serif">O</text><text y="-28701" xml:space="preserve" x="-29969" stroke="none" font-size="433.3333" font-family="sans-serif">O</text><text y="-29437" xml:space="preserve" x="-28764" stroke="none" font-size="433.3333" font-family="sans-serif">Cl</text><text y="-27326" xml:space="preserve" x="-32014" stroke="none" font-size="433.3333" font-family="sans-serif">S</text><text y="-28065" xml:space="preserve" x="-25393" stroke="none" font-size="433.3333" font-family="sans-serif">O</text><text y="-26361" xml:space="preserve" x="-24411" stroke="none" font-size="433.3333" font-family="sans-serif">O</text><text y="-32242" xml:space="preserve" x="-29218" stroke="none" font-size="433.3333" font-family="sans-serif">O</text><text y="-32242" xml:space="preserve" x="-28071" stroke="none" font-size="433.3333" font-family="sans-serif">N</text></g></g></svg>