<svg width="416.67" viewBox="0 0 13889 3191" text-rendering="auto" stroke-width="1" stroke-opacity="1" stroke-miterlimit="10" stroke-linejoin="miter" stroke-linecap="square" stroke-dashoffset="0" stroke-dasharray="none" stroke="black" shape-rendering="auto" image-rendering="auto" height="95.73" font-weight="normal" font-style="normal" font-size="12" font-family="'Dialog'" fill-opacity="1" fill="black" color-rendering="auto" color-interpolation="auto" xmlns="http://www.w3.org/2000/svg"><g><g stroke="white" fill="white"><rect y="0" x="0" width="13889" stroke="none" height="3191"/></g><g transform="translate(32866,32866)" text-rendering="geometricPrecision" stroke-width="44" stroke-linejoin="round" stroke-linecap="round"><line y2="-30093" y1="-30420" x2="-29059" x1="-29625" fill="none"/><line y2="-30619" y1="-30093" x2="-28152" x1="-29059" fill="none"/><line y2="-30093" y1="-30619" x2="-27245" x1="-28152" fill="none"/><line y2="-30619" y1="-30093" x2="-26338" x1="-27245" fill="none"/><line y2="-30093" y1="-30619" x2="-25430" x1="-26338" fill="none"/><line y2="-30619" y1="-30093" x2="-24523" x1="-25430" fill="none"/><line y2="-30093" y1="-30619" x2="-23616" x1="-24523" fill="none"/><line y2="-30619" y1="-30093" x2="-22709" x1="-23616" fill="none"/><line y2="-30093" y1="-30619" x2="-21802" x1="-22709" fill="none"/><line y2="-30619" y1="-30093" x2="-20895" x1="-21802" fill="none"/><line y2="-30093" y1="-30619" x2="-19988" x1="-20895" fill="none"/><line y2="-30619" y1="-30093" x2="-19081" x1="-19988" fill="none"/><line y2="-30160" y1="-30422" x2="-30760" x1="-30304" fill="none"/><line y2="-30573" y1="-30160" x2="-31855" x1="-31136" fill="none"/><line y2="-30050" y1="-30573" x2="-32762" x1="-31855" fill="none"/><line y2="-31445" y1="-30838" x2="-29966" x1="-29966" fill="none"/><line y2="-32190" y1="-31774" x2="-29059" x1="-29778" fill="none"/><line y2="-31665" y1="-32190" x2="-28152" x1="-29059" fill="none"/><line y2="-31081" y1="-30812" x2="-30769" x1="-30304" fill="none"/><line y2="-32240" y1="-31410" x2="-30957" x1="-30957" fill="none"/><line y2="-32762" y1="-32240" x2="-31867" x1="-30957" fill="none"/><text y="-30440" xml:space="preserve" x="-30197" stroke="none" font-size="433.3333" font-family="sans-serif">Si</text><text y="-29871" xml:space="preserve" x="-31101" stroke="none" font-size="433.3333" font-family="sans-serif">O</text><text y="-31486" xml:space="preserve" x="-30119" stroke="none" font-size="433.3333" font-family="sans-serif">O</text><text y="-31012" xml:space="preserve" x="-31110" stroke="none" font-size="433.3333" font-family="sans-serif">O</text></g></g></svg>