<svg width="184.77" viewBox="0 0 6159 4162" text-rendering="auto" stroke-width="1" stroke-opacity="1" stroke-miterlimit="10" stroke-linejoin="miter" stroke-linecap="square" stroke-dashoffset="0" stroke-dasharray="none" stroke="black" shape-rendering="auto" image-rendering="auto" height="124.86" font-weight="normal" font-style="normal" font-size="12" font-family="'Dialog'" fill-opacity="1" fill="black" color-rendering="auto" color-interpolation="auto" xmlns="http://www.w3.org/2000/svg"><g><g stroke="white" fill="white"><rect y="0" x="0" width="6159" stroke="none" height="4162"/></g><g transform="translate(32866,32866)" text-rendering="geometricPrecision" stroke-width="44" stroke-linejoin="round" stroke-linecap="round"><line y2="-29382" y1="-30529" x2="-28776" x1="-28776" fill="none"/><line y2="-29524" y1="-30385" x2="-28946" x1="-28946" fill="none"/><line y2="-30529" y1="-31101" x2="-28776" x1="-29758" fill="none"/><line y2="-31101" y1="-30529" x2="-27794" x1="-28776" fill="none"/><line y2="-28808" y1="-29382" x2="-29758" x1="-28776" fill="none"/><line y2="-29382" y1="-28808" x2="-28776" x1="-27794" fill="none"/><line y2="-31101" y1="-30529" x2="-29758" x1="-30740" fill="none"/><line y2="-30882" y1="-30454" x2="-29796" x1="-30532" fill="none"/><line y2="-30529" y1="-31101" x2="-26811" x1="-27794" fill="none"/><line y2="-30454" y1="-30882" x2="-27019" x1="-27759" fill="none"/><line y2="-29382" y1="-28808" x2="-30740" x1="-29758" fill="none"/><line y2="-29458" y1="-29027" x2="-30532" x1="-29796" fill="none"/><line y2="-28808" y1="-29382" x2="-27794" x1="-26811" fill="none"/><line y2="-29027" y1="-29458" x2="-27759" x1="-27019" fill="none"/><line y2="-30529" y1="-29382" x2="-30740" x1="-30740" fill="none"/><line y2="-29382" y1="-30529" x2="-26811" x1="-26811" fill="none"/><line y2="-31930" y1="-31101" x2="-29758" x1="-29758" fill="none"/><line y2="-32673" y1="-32257" x2="-30665" x1="-29949" fill="none"/><line y2="-32673" y1="-32673" x2="-31714" x1="-30665" fill="none"/><line y2="-32673" y1="-32673" x2="-32762" x1="-31714" fill="none"/><line y2="-32583" y1="-32583" x2="-32762" x1="-31714" fill="none"/><line y2="-32762" y1="-32762" x2="-32762" x1="-31714" fill="none"/><text y="-31971" xml:space="preserve" x="-29911" stroke="none" font-size="433.3333" font-family="sans-serif">O</text></g></g></svg>