<svg width="287.73" viewBox="0 0 9591 8380" text-rendering="auto" stroke-width="1" stroke-opacity="1" stroke-miterlimit="10" stroke-linejoin="miter" stroke-linecap="square" stroke-dashoffset="0" stroke-dasharray="none" stroke="black" shape-rendering="auto" image-rendering="auto" height="251.4" font-weight="normal" font-style="normal" font-size="12" font-family="'Dialog'" fill-opacity="1" fill="black" color-rendering="auto" color-interpolation="auto" xmlns="http://www.w3.org/2000/svg"><g><g stroke="white" fill="white"><rect y="0" x="0" width="9591" stroke="none" height="8380"/></g><g transform="translate(32866,32866)" text-rendering="geometricPrecision" stroke-width="44" stroke-linejoin="round" stroke-linecap="round"><line y2="-27300" y1="-26161" x2="-27164" x1="-27164" fill="none"/><line y2="-26161" y1="-26161" x2="-27164" x1="-25381" fill="none"/><line y2="-25702" y1="-26161" x2="-27961" x1="-27164" fill="none"/><line y2="-25907" y1="-26251" x2="-27947" x1="-27349" fill="none"/><line y2="-27300" y1="-27869" x2="-27164" x1="-28149" fill="none"/><line y2="-27224" y1="-27652" x2="-27372" x1="-28111" fill="none"/><line y2="-27759" y1="-27300" x2="-26364" x1="-27164" fill="none"/><line y2="-26381" y1="-27300" x2="-25194" x1="-25194" fill="none"/><line y2="-26161" y1="-25702" x2="-29134" x1="-28337" fill="none"/><line y2="-27869" y1="-27409" x2="-28149" x1="-28946" fill="none"/><line y2="-27300" y1="-27759" x2="-25194" x1="-25988" fill="none"/><line y2="-27210" y1="-27557" x2="-25378" x1="-25974" fill="none"/><line y2="-27080" y1="-26161" x2="-29134" x1="-29134" fill="none"/><line y2="-26964" y1="-26277" x2="-28964" x1="-28964" fill="none"/><line y2="-28698" y1="-27869" x2="-28149" x1="-28149" fill="none"/><line y2="-29440" y1="-29024" x2="-29056" x1="-28337" fill="none"/><line y2="-30489" y1="-29440" x2="-29056" x1="-29056" fill="none"/><line y2="-25638" y1="-26054" x2="-24286" x1="-25006" fill="none"/><line y2="-25858" y1="-26161" x2="-29663" x1="-29134" fill="none"/><line y2="-26161" y1="-25745" x2="-30948" x1="-30229" fill="none"/><line y2="-31055" y1="-30489" x2="-30041" x1="-29056" fill="none"/><line y2="-31133" y1="-30706" x2="-29833" x1="-29094" fill="none"/><line y2="-30489" y1="-31055" x2="-29056" x1="-28071" fill="none"/><line y2="-32193" y1="-31055" x2="-30041" x1="-30041" fill="none"/><line y2="-31055" y1="-32193" x2="-28071" x1="-28071" fill="none"/><line y2="-31200" y1="-32052" x2="-28241" x1="-28241" fill="none"/><line y2="-32762" y1="-32193" x2="-29056" x1="-30041" fill="none"/><line y2="-32543" y1="-32118" x2="-29094" x1="-29833" fill="none"/><line y2="-32193" y1="-32762" x2="-28071" x1="-29056" fill="none"/><line y2="-26161" y1="-25638" x2="-23379" x1="-24286" fill="none"/><line y2="-24590" y1="-25638" x2="-24286" x1="-24286" fill="none"/><line y2="-25638" y1="-26161" x2="-31855" x1="-30948" fill="none"/><line y2="-26161" y1="-25638" x2="-32762" x1="-31855" fill="none"/><line y2="-27513" y1="-27210" x2="-31477" x1="-30948" fill="none"/><line y2="-27210" y1="-27210" x2="-30882" x1="-31018" fill="none"/><line y2="-26993" y1="-26993" x2="-30896" x1="-31004" fill="none"/><line y2="-26777" y1="-26777" x2="-30909" x1="-30989" fill="none"/><line y2="-26560" y1="-26560" x2="-30923" x1="-30975" fill="none"/><line y2="-26343" y1="-26343" x2="-30937" x1="-30960" fill="none"/><text y="-28738" xml:space="preserve" x="-28299" stroke="none" font-size="433.3333" font-family="sans-serif">NH</text><text y="-25459" xml:space="preserve" x="-30194" stroke="none" font-size="433.3333" font-family="sans-serif">NH</text><text y="-27554" xml:space="preserve" x="-32008" stroke="none" font-size="433.3333" font-family="sans-serif">OH</text><text y="-25982" xml:space="preserve" x="-25347" stroke="none" font-size="433.3333" font-family="sans-serif">N</text><text y="-25413" xml:space="preserve" x="-28299" stroke="none" font-size="433.3333" font-family="sans-serif">N</text><text y="-27690" xml:space="preserve" x="-26329" stroke="none" font-size="433.3333" font-family="sans-serif">N</text><text y="-27120" xml:space="preserve" x="-29287" stroke="none" font-size="433.3333" font-family="sans-serif">N</text><text y="-25682" xml:space="preserve" x="-31101" stroke="none" font-style="italic" font-size="313.3333" font-family="sans-serif">R</text></g></g></svg>