<svg width="208.32" viewBox="0 0 6944 7378" text-rendering="auto" stroke-width="1" stroke-opacity="1" stroke-miterlimit="10" stroke-linejoin="miter" stroke-linecap="square" stroke-dashoffset="0" stroke-dasharray="none" stroke="black" shape-rendering="auto" image-rendering="auto" height="221.34" font-weight="normal" font-style="normal" font-size="12" font-family="'Dialog'" fill-opacity="1" fill="black" color-rendering="auto" color-interpolation="auto" xmlns="http://www.w3.org/2000/svg"><g><g stroke="white" fill="white"><rect y="0" x="0" width="6944" stroke="none" height="7378"/></g><g transform="translate(32866,32866)" text-rendering="geometricPrecision" stroke-width="44" stroke-linejoin="round" stroke-linecap="round"><line y2="-30313" y1="-29703" x2="-28903" x1="-28903" fill="none"/><line y2="-31055" y1="-30642" x2="-27996" x1="-28715" fill="none"/><line y2="-29024" y1="-29287" x2="-28106" x1="-28562" fill="none"/><line y2="-27869" y1="-28698" x2="-27918" x1="-27918" fill="none"/><line y2="-29024" y1="-29290" x2="-29697" x1="-29241" fill="none"/><line y2="-29440" y1="-29024" x2="-30792" x1="-30073" fill="none"/><line y2="-30006" y1="-29680" x2="-29810" x1="-29241" fill="none"/><line y2="-31055" y1="-30006" x2="-29810" x1="-29810" fill="none"/><line y2="-31055" y1="-30006" x2="-29671" x1="-29671" fill="none"/><line y2="-32193" y1="-31055" x2="-27996" x1="-27996" fill="none"/><line y2="-32052" y1="-31200" x2="-27825" x1="-27825" fill="none"/><line y2="-31055" y1="-30489" x2="-27996" x1="-27008" fill="none"/><line y2="-32762" y1="-32193" x2="-27008" x1="-27996" fill="none"/><line y2="-30489" y1="-31055" x2="-27008" x1="-26026" fill="none"/><line y2="-30706" y1="-31133" x2="-26970" x1="-26234" fill="none"/><line y2="-32193" y1="-32762" x2="-26026" x1="-27008" fill="none"/><line y2="-32118" y1="-32546" x2="-26234" x1="-26970" fill="none"/><line y2="-31055" y1="-32193" x2="-26026" x1="-26026" fill="none"/><line y2="-27300" y1="-27869" x2="-26933" x1="-27918" fill="none"/><line y2="-27222" y1="-27649" x2="-27141" x1="-27880" fill="none"/><line y2="-27869" y1="-27300" x2="-27918" x1="-28903" fill="none"/><line y2="-26161" y1="-27300" x2="-26936" x1="-26933" fill="none"/><line y2="-27300" y1="-26161" x2="-28903" x1="-28903" fill="none"/><line y2="-27155" y1="-26306" x2="-28732" x1="-28732" fill="none"/><line y2="-25592" y1="-26161" x2="-27918" x1="-26936" fill="none"/><line y2="-25812" y1="-26239" x2="-27880" x1="-27144" fill="none"/><line y2="-26161" y1="-25592" x2="-28903" x1="-27918" fill="none"/><line y2="-29440" y1="-30578" x2="-30792" x1="-30792" fill="none"/><line y2="-29585" y1="-30437" x2="-30963" x1="-30963" fill="none"/><line y2="-28871" y1="-29440" x2="-31777" x1="-30792" fill="none"/><line y2="-30578" y1="-31148" x2="-30792" x1="-31777" fill="none"/><line y2="-29440" y1="-28871" x2="-32762" x1="-31777" fill="none"/><line y2="-29518" y1="-29091" x2="-32554" x1="-31815" fill="none"/><line y2="-31148" y1="-30578" x2="-31777" x1="-32762" fill="none"/><line y2="-30928" y1="-30500" x2="-31815" x1="-32554" fill="none"/><line y2="-30578" y1="-29440" x2="-32762" x1="-32762" fill="none"/><text y="-29304" xml:space="preserve" x="-29134" stroke="none" font-size="433.3333" font-family="sans-serif">Si</text><text y="-30353" xml:space="preserve" x="-29056" stroke="none" font-size="433.3333" font-family="sans-serif">O</text><text y="-28738" xml:space="preserve" x="-28071" stroke="none" font-size="433.3333" font-family="sans-serif">O</text><text y="-28738" xml:space="preserve" x="-30038" stroke="none" font-size="433.3333" font-family="sans-serif">O</text></g></g></svg>