<svg width="266.76" viewBox="0 0 8892 8126" text-rendering="auto" stroke-width="1" stroke-opacity="1" stroke-miterlimit="10" stroke-linejoin="miter" stroke-linecap="square" stroke-dashoffset="0" stroke-dasharray="none" stroke="black" shape-rendering="auto" image-rendering="auto" height="243.78" font-weight="normal" font-style="normal" font-size="12" font-family="'Dialog'" fill-opacity="1" fill="black" color-rendering="auto" color-interpolation="auto" xmlns="http://www.w3.org/2000/svg"><g><g stroke="white" fill="white"><rect y="0" x="0" width="8892" stroke="none" height="8126"/></g><g transform="translate(32866,32866)" text-rendering="geometricPrecision" stroke-width="44" stroke-linejoin="round" stroke-linecap="round"><line y2="-27300" y1="-27869" x2="-27785" x1="-28770" fill="none"/><line y2="-27869" y1="-27300" x2="-28770" x1="-29755" fill="none"/><line y2="-26381" y1="-27300" x2="-27785" x1="-27785" fill="none"/><line y2="-26161" y1="-27300" x2="-29755" x1="-29755" fill="none"/><line y2="-27300" y1="-27759" x2="-29755" x1="-30552" fill="none"/><line y2="-26161" y1="-26161" x2="-29755" x1="-27973" fill="none"/><line y2="-26161" y1="-26161" x2="-31538" x1="-29755" fill="none"/><line y2="-27759" y1="-27300" x2="-30928" x1="-31728" fill="none"/><line y2="-27300" y1="-26381" x2="-31728" x1="-31728" fill="none"/><line y2="-27822" y1="-27300" x2="-26878" x1="-27785" fill="none"/><line y2="-29440" y1="-29024" x2="-29677" x1="-28958" fill="none"/><line y2="-30489" y1="-29440" x2="-29677" x1="-29677" fill="none"/><line y2="-27135" y1="-27300" x2="-32762" x1="-31728" fill="none"/><line y2="-28290" y1="-27300" x2="-32069" x1="-31728" fill="none"/><line y2="-27822" y1="-27274" x2="-26878" x1="-26167" fill="none"/><line y2="-28888" y1="-27822" x2="-26511" x1="-26878" fill="none"/><line y2="-27268" y1="-27822" x2="-25792" x1="-25038" fill="none"/><line y2="-28888" y1="-28888" x2="-25552" x1="-26511" fill="none"/><line y2="-27822" y1="-28669" x2="-25038" x1="-25298" fill="none"/><line y2="-28250" y1="-27822" x2="-24078" x1="-25038" fill="none"/><line y2="-26915" y1="-27822" x2="-24512" x1="-25038" fill="none"/><line y2="-31055" y1="-30489" x2="-30662" x1="-29677" fill="none"/><line y2="-31133" y1="-30706" x2="-30454" x1="-29715" fill="none"/><line y2="-30489" y1="-31055" x2="-29677" x1="-28692" fill="none"/><line y2="-32193" y1="-31055" x2="-30662" x1="-30662" fill="none"/><line y2="-31055" y1="-32193" x2="-28692" x1="-28692" fill="none"/><line y2="-31200" y1="-32052" x2="-28862" x1="-28862" fill="none"/><line y2="-32762" y1="-32193" x2="-29677" x1="-30662" fill="none"/><line y2="-32543" y1="-32118" x2="-29715" x1="-30454" fill="none"/><line y2="-32193" y1="-32762" x2="-28692" x1="-29677" fill="none"/><polygon stroke-width="1" stroke="none" points=" -28770 -27869 -28836 -28695 -28701 -28698"/><polygon stroke-width="1" points=" -28770 -27869 -28836 -28695 -28701 -28698" fill="none"/><polygon stroke-width="1" stroke="none" points=" -29755 -27300 -29824 -28126 -29686 -28129"/><polygon stroke-width="1" points=" -29755 -27300 -29824 -28126 -29686 -28129" fill="none"/><polygon stroke-width="1" stroke="none" points=" -29755 -26161 -29686 -25335 -29824 -25332"/><polygon stroke-width="1" points=" -29755 -26161 -29686 -25335 -29824 -25332" fill="none"/><line y2="-26823" y1="-26944" x2="-27100" x1="-27034" fill="none"/><line y2="-26948" y1="-27037" x2="-27279" x1="-27230" fill="none"/><line y2="-27072" y1="-27130" x2="-27458" x1="-27426" fill="none"/><line y2="-27197" y1="-27223" x2="-27636" x1="-27622" fill="none"/><line y2="-28392" y1="-28288" x2="-27447" x1="-27536" fill="none"/><line y2="-28238" y1="-28162" x2="-27293" x1="-27358" fill="none"/><line y2="-28084" y1="-28037" x2="-27140" x1="-27181" fill="none"/><line y2="-27931" y1="-27911" x2="-26986" x1="-27003" fill="none"/><text y="-28738" xml:space="preserve" x="-28920" stroke="none" font-size="433.3333" font-family="sans-serif">O</text><text y="-25982" xml:space="preserve" x="-27938" stroke="none" font-size="433.3333" font-family="sans-serif">O</text><text y="-27690" xml:space="preserve" x="-30890" stroke="none" font-size="433.3333" font-family="sans-serif">O</text><text y="-25982" xml:space="preserve" x="-31878" stroke="none" font-size="433.3333" font-family="sans-serif">O</text><text y="-26947" xml:space="preserve" x="-26130" stroke="none" font-size="433.3333" font-family="sans-serif">O</text><text y="-28709" xml:space="preserve" x="-25517" stroke="none" font-size="433.3333" font-family="sans-serif">O</text><text y="-28169" xml:space="preserve" x="-29908" stroke="none" font-size="433.3333" font-family="sans-serif">H</text><text y="-24936" xml:space="preserve" x="-29908" stroke="none" font-size="433.3333" font-family="sans-serif">H</text><text y="-26598" xml:space="preserve" x="-27031" stroke="none" font-size="433.3333" font-family="sans-serif">H</text><text y="-28316" xml:space="preserve" x="-27834" stroke="none" font-size="433.3333" font-family="sans-serif">H</text><text y="-27386" xml:space="preserve" x="-28920" stroke="none" font-style="italic" font-size="313.3333" font-family="sans-serif">S</text><text y="-27424" xml:space="preserve" x="-27938" stroke="none" font-style="italic" font-size="313.3333" font-family="sans-serif">R</text><text y="-26976" xml:space="preserve" x="-29660" stroke="none" font-style="italic" font-size="313.3333" font-family="sans-serif">R</text><text y="-26260" xml:space="preserve" x="-30151" stroke="none" font-style="italic" font-size="313.3333" font-family="sans-serif">R</text><text y="-27343" xml:space="preserve" x="-27040" stroke="none" font-style="italic" font-size="313.3333" font-family="sans-serif">R</text></g></g></svg>