<svg width="555.78" viewBox="0 0 18526 9479" text-rendering="auto" stroke-width="1" stroke-opacity="1" stroke-miterlimit="10" stroke-linejoin="miter" stroke-linecap="square" stroke-dashoffset="0" stroke-dasharray="none" stroke="black" shape-rendering="auto" image-rendering="auto" height="284.37" font-weight="normal" font-style="normal" font-size="12" font-family="'Dialog'" fill-opacity="1" fill="black" color-rendering="auto" color-interpolation="auto" xmlns="http://www.w3.org/2000/svg"><g><g stroke="white" fill="white"><rect y="0" x="0" width="18526" stroke="none" height="9479"/></g><g transform="translate(32866,32758)" text-rendering="geometricPrecision" stroke-width="44" stroke-linejoin="round" stroke-linecap="round"><line y2="-24700" y1="-25846" x2="-23899" x1="-23899" fill="none"/><line y2="-26421" y1="-25846" x2="-22914" x1="-23899" fill="none"/><line y2="-25846" y1="-26421" x2="-23899" x1="-24882" fill="none"/><line y2="-24700" y1="-24700" x2="-25864" x1="-23899" fill="none"/><line y2="-24700" y1="-24128" x2="-23899" x1="-22914" fill="none"/><line y2="-25846" y1="-26421" x2="-21932" x1="-22914" fill="none"/><line y2="-27565" y1="-26421" x2="-22914" x1="-22914" fill="none"/><line y2="-26421" y1="-25846" x2="-24882" x1="-25864" fill="none"/><line y2="-26202" y1="-25771" x2="-24919" x1="-25656" fill="none"/><line y2="-25846" y1="-24700" x2="-25864" x1="-25864" fill="none"/><line y2="-24128" y1="-24700" x2="-26846" x1="-25864" fill="none"/><line y2="-24128" y1="-24700" x2="-22914" x1="-21932" fill="none"/><line y2="-24700" y1="-25846" x2="-21932" x1="-21932" fill="none"/><line y2="-25846" y1="-26421" x2="-21932" x1="-20950" fill="none"/><line y2="-27565" y1="-27565" x2="-20950" x1="-22914" fill="none"/><line y2="-25846" y1="-26421" x2="-25864" x1="-26846" fill="none"/><line y2="-24700" y1="-24128" x2="-27828" x1="-26846" fill="none"/><line y2="-26421" y1="-27565" x2="-20950" x1="-20950" fill="none"/><line y2="-26421" y1="-27565" x2="-26846" x1="-26846" fill="none"/><line y2="-24237" y1="-24700" x2="-28623" x1="-27828" fill="none"/><line y2="-27565" y1="-28140" x2="-26846" x1="-27828" fill="none"/><line y2="-24700" y1="-24237" x2="-29793" x1="-28998" fill="none"/><line y2="-28140" y1="-27565" x2="-27828" x1="-28810" fill="none"/><line y2="-25846" y1="-24700" x2="-29793" x1="-29793" fill="none"/><line y2="-27565" y1="-26421" x2="-28810" x1="-28810" fill="none"/><line y2="-26421" y1="-25846" x2="-28810" x1="-29793" fill="none"/><line y2="-27565" y1="-27981" x2="-19136" x1="-19855" fill="none"/><line y2="-29712" y1="-29296" x2="-28735" x1="-28016" fill="none"/><line y2="-24700" y1="-24177" x2="-31607" x1="-30700" fill="none"/><line y2="-26895" y1="-26502" x2="-26161" x1="-26846" fill="none"/><line y2="-26774" y1="-26381" x2="-26092" x1="-26777" fill="none"/><line y2="-23873" y1="-24659" x2="-27759" x1="-27759" fill="none"/><line y2="-23873" y1="-24659" x2="-27898" x1="-27898" fill="none"/><line y2="-28134" y1="-27565" x2="-18153" x1="-19136" fill="none"/><line y2="-27565" y1="-26650" x2="-19136" x1="-19136" fill="none"/><line y2="-27565" y1="-28134" x2="-17165" x1="-18153" fill="none"/><line y2="-26320" y1="-25861" x2="-18948" x1="-18153" fill="none"/><line y2="-26430" y1="-27565" x2="-17165" x1="-17165" fill="none"/><line y2="-25861" y1="-26430" x2="-18153" x1="-17165" fill="none"/><line y2="-27565" y1="-27981" x2="-15351" x1="-16070" fill="none"/><line y2="-28091" y1="-27565" x2="-14444" x1="-15351" fill="none"/><line y2="-29599" y1="-29290" x2="-17434" x1="-17966" fill="none"/><line y2="-26320" y1="-26014" x2="-15539" x1="-16070" fill="none"/><line y2="-29712" y1="-30630" x2="-28735" x1="-28735" fill="none"/><line y2="-29143" y1="-29712" x2="-29718" x1="-28735" fill="none"/><line y2="-30957" y1="-31416" x2="-28923" x1="-29718" fill="none"/><line y2="-29712" y1="-29143" x2="-30706" x1="-29718" fill="none"/><line y2="-31416" y1="-30847" x2="-29718" x1="-30706" fill="none"/><line y2="-30847" y1="-29712" x2="-30706" x1="-30706" fill="none"/><line y2="-31015" y1="-31263" x2="-32231" x1="-31800" fill="none"/><line y2="-32202" y1="-31592" x2="-31613" x1="-31613" fill="none"/><polygon stroke-width="1" stroke="none" points=" -29793 -24700 -30665 -24116 -30734 -24234"/><polygon stroke-width="1" points=" -29793 -24700 -30665 -24116 -30734 -24234" fill="none"/><polygon stroke-width="1" stroke="none" points=" -26846 -27565 -25974 -28149 -25904 -28030"/><polygon stroke-width="1" points=" -26846 -27565 -25974 -28149 -25904 -28030" fill="none"/><polygon stroke-width="1" stroke="none" points=" -22914 -26421 -22848 -25592 -22984 -25589"/><polygon stroke-width="1" points=" -22914 -26421 -22848 -25592 -22984 -25589" fill="none"/><polygon stroke-width="1" stroke="none" points=" -25864 -24700 -25794 -23873 -25933 -23870"/><polygon stroke-width="1" points=" -25864 -24700 -25794 -23873 -25933 -23870" fill="none"/><polygon stroke-width="1" stroke="none" points=" -17165 -26430 -16411 -26075 -16481 -25953"/><polygon stroke-width="1" points=" -17165 -26430 -16411 -26075 -16481 -25953" fill="none"/><polygon stroke-width="1" stroke="none" points=" -29718 -31416 -29787 -32465 -29651 -32465"/><polygon stroke-width="1" points=" -29718 -31416 -29787 -32465 -29651 -32465" fill="none"/><line y2="-27921" y1="-28042" x2="-20196" x1="-20265" fill="none"/><line y2="-27828" y1="-27918" x2="-20393" x1="-20444" fill="none"/><line y2="-27735" y1="-27793" x2="-20589" x1="-20622" fill="none"/><line y2="-27643" y1="-27669" x2="-20786" x1="-20801" fill="none"/><line y2="-28966" y1="-28966" x2="-27759" x1="-27898" fill="none"/><line y2="-28749" y1="-28749" x2="-27777" x1="-27880" fill="none"/><line y2="-28533" y1="-28533" x2="-27795" x1="-27861" fill="none"/><line y2="-28316" y1="-28316" x2="-27813" x1="-27843" fill="none"/><line y2="-26676" y1="-26676" x2="-23830" x1="-23969" fill="none"/><line y2="-26459" y1="-26459" x2="-23848" x1="-23951" fill="none"/><line y2="-26243" y1="-26243" x2="-23866" x1="-23932" fill="none"/><line y2="-26026" y1="-26026" x2="-23884" x1="-23914" fill="none"/><line y2="-23870" y1="-23873" x2="-23969" x1="-23830" fill="none"/><line y2="-24087" y1="-24089" x2="-23951" x1="-23848" fill="none"/><line y2="-24304" y1="-24306" x2="-23932" x1="-23866" fill="none"/><line y2="-24521" y1="-24522" x2="-23914" x1="-23884" fill="none"/><line y2="-26676" y1="-26676" x2="-21863" x1="-22001" fill="none"/><line y2="-26459" y1="-26459" x2="-21881" x1="-21983" fill="none"/><line y2="-26243" y1="-26243" x2="-21899" x1="-21965" fill="none"/><line y2="-26026" y1="-26026" x2="-21917" x1="-21947" fill="none"/><line y2="-24812" y1="-24812" x2="-18223" x1="-18084" fill="none"/><line y2="-25029" y1="-25029" x2="-18209" x1="-18098" fill="none"/><line y2="-25245" y1="-25245" x2="-18194" x1="-18113" fill="none"/><line y2="-25462" y1="-25462" x2="-18180" x1="-18127" fill="none"/><line y2="-25679" y1="-25679" x2="-18165" x1="-18141" fill="none"/><line y2="-27921" y1="-28042" x2="-16411" x1="-16481" fill="none"/><line y2="-27828" y1="-27918" x2="-16608" x1="-16659" fill="none"/><line y2="-27735" y1="-27793" x2="-16804" x1="-16838" fill="none"/><line y2="-27643" y1="-27669" x2="-17001" x1="-17016" fill="none"/><line y2="-28964" y1="-28964" x2="-18084" x1="-18223" fill="none"/><line y2="-28747" y1="-28747" x2="-18102" x1="-18205" fill="none"/><line y2="-28531" y1="-28531" x2="-18120" x1="-18186" fill="none"/><line y2="-28314" y1="-28314" x2="-18138" x1="-18168" fill="none"/><line y2="-28394" y1="-28394" x2="-19066" x1="-19205" fill="none"/><line y2="-28177" y1="-28177" x2="-19084" x1="-19187" fill="none"/><line y2="-27961" y1="-27961" x2="-19103" x1="-19169" fill="none"/><line y2="-27744" y1="-27744" x2="-19121" x1="-19151" fill="none"/><line y2="-31324" y1="-31205" x2="-31390" x1="-31460" fill="none"/><line y2="-31200" y1="-31112" x2="-31212" x1="-31264" fill="none"/><line y2="-31075" y1="-31018" x2="-31034" x1="-31067" fill="none"/><line y2="-30951" y1="-30925" x2="-30855" x1="-30871" fill="none"/><line y2="-28883" y1="-28883" x2="-28805" x1="-28666" fill="none"/><line y2="-29100" y1="-29100" x2="-28787" x1="-28684" fill="none"/><line y2="-29316" y1="-29316" x2="-28768" x1="-28702" fill="none"/><line y2="-29533" y1="-29533" x2="-28750" x1="-28720" fill="none"/><text y="-27912" xml:space="preserve" x="-20196" stroke="none" font-size="433.3333" font-family="sans-serif">O</text><text y="-26765" xml:space="preserve" x="-26092" stroke="none" font-size="433.3333" font-family="sans-serif">O</text><text y="-23475" xml:space="preserve" x="-27981" stroke="none" font-size="433.3333" font-family="sans-serif">O</text><text y="-29007" xml:space="preserve" x="-27981" stroke="none" font-size="433.3333" font-family="sans-serif">O</text><text y="-29004" xml:space="preserve" x="-18306" stroke="none" font-size="433.3333" font-family="sans-serif">O</text><text y="-29527" xml:space="preserve" x="-17396" stroke="none" font-size="433.3333" font-family="sans-serif">CH</text><text y="-29437" xml:space="preserve" x="-16819" stroke="none" font-size="313.3333" font-family="sans-serif">3</text><text y="-27912" xml:space="preserve" x="-16411" stroke="none" font-size="433.3333" font-family="sans-serif">O</text><text y="-25725" xml:space="preserve" x="-16411" stroke="none" font-size="433.3333" font-family="sans-serif">O</text><text y="-26251" xml:space="preserve" x="-15504" stroke="none" font-size="433.3333" font-family="sans-serif">CH</text><text y="-26161" xml:space="preserve" x="-14926" stroke="none" font-size="313.3333" font-family="sans-serif">3</text><text y="-31194" xml:space="preserve" x="-31766" stroke="none" font-size="433.3333" font-family="sans-serif">N</text><text y="-30616" xml:space="preserve" x="-32762" stroke="none" font-size="433.3333" font-family="sans-serif">CH</text><text y="-30526" xml:space="preserve" x="-32185" stroke="none" font-size="313.3333" font-family="sans-serif">3</text><text y="-32242" xml:space="preserve" x="-31766" stroke="none" font-size="433.3333" font-family="sans-serif">CH</text><text y="-32153" xml:space="preserve" x="-31188" stroke="none" font-size="313.3333" font-family="sans-serif">3</text><text y="-23948" xml:space="preserve" x="-28964" stroke="none" font-size="433.3333" font-family="sans-serif">O</text><text y="-26251" xml:space="preserve" x="-19289" stroke="none" font-size="433.3333" font-family="sans-serif">O</text><text y="-30668" xml:space="preserve" x="-28888" stroke="none" font-size="433.3333" font-family="sans-serif">O</text><text y="-26716" xml:space="preserve" x="-24050" stroke="none" font-size="433.3333" font-family="sans-serif">H</text><text y="-23475" xml:space="preserve" x="-24050" stroke="none" font-size="433.3333" font-family="sans-serif">H</text><text y="-25194" xml:space="preserve" x="-23067" stroke="none" font-size="433.3333" font-family="sans-serif">H</text><text y="-23475" xml:space="preserve" x="-26017" stroke="none" font-size="433.3333" font-family="sans-serif">H</text><text y="-26716" xml:space="preserve" x="-22085" stroke="none" font-size="433.3333" font-family="sans-serif">H</text><text y="-28435" xml:space="preserve" x="-19289" stroke="none" font-size="433.3333" font-family="sans-serif">H</text><text y="-28484" xml:space="preserve" x="-28888" stroke="none" font-size="433.3333" font-family="sans-serif">H</text><text y="-25526" xml:space="preserve" x="-23801" stroke="none" font-style="italic" font-size="313.3333" font-family="sans-serif">S</text><text y="-24665" xml:space="preserve" x="-23801" stroke="none" font-style="italic" font-size="313.3333" font-family="sans-serif">R</text><text y="-26384" xml:space="preserve" x="-23316" stroke="none" font-style="italic" font-size="313.3333" font-family="sans-serif">R</text><text y="-24665" xml:space="preserve" x="-26262" stroke="none" font-style="italic" font-size="313.3333" font-family="sans-serif">S</text><text y="-25526" xml:space="preserve" x="-21837" stroke="none" font-style="italic" font-size="313.3333" font-family="sans-serif">R</text><text y="-27112" xml:space="preserve" x="-21346" stroke="none" font-style="italic" font-size="313.3333" font-family="sans-serif">R</text><text y="-27245" xml:space="preserve" x="-27248" stroke="none" font-style="italic" font-size="313.3333" font-family="sans-serif">R</text><text y="-27658" xml:space="preserve" x="-27981" stroke="none" font-style="italic" font-size="313.3333" font-family="sans-serif">S</text><text y="-24665" xml:space="preserve" x="-29697" stroke="none" font-style="italic" font-size="313.3333" font-family="sans-serif">S</text><text y="-27245" xml:space="preserve" x="-19040" stroke="none" font-style="italic" font-size="313.3333" font-family="sans-serif">R</text><text y="-27652" xml:space="preserve" x="-18306" stroke="none" font-style="italic" font-size="313.3333" font-family="sans-serif">R</text><text y="-27245" xml:space="preserve" x="-17567" stroke="none" font-style="italic" font-size="313.3333" font-family="sans-serif">R</text><text y="-25985" xml:space="preserve" x="-18306" stroke="none" font-style="italic" font-size="313.3333" font-family="sans-serif">S</text><text y="-26395" xml:space="preserve" x="-17567" stroke="none" font-style="italic" font-size="313.3333" font-family="sans-serif">S</text><text y="-29674" xml:space="preserve" x="-29137" stroke="none" font-style="italic" font-size="313.3333" font-family="sans-serif">R</text><text y="-30937" xml:space="preserve" x="-29871" stroke="none" font-style="italic" font-size="313.3333" font-family="sans-serif">R</text><text y="-30526" xml:space="preserve" x="-30610" stroke="none" font-style="italic" font-size="313.3333" font-family="sans-serif">S</text></g></g></svg>