<svg width="543.39" viewBox="0 0 18113 6909" text-rendering="auto" stroke-width="1" stroke-opacity="1" stroke-miterlimit="10" stroke-linejoin="miter" stroke-linecap="square" stroke-dashoffset="0" stroke-dasharray="none" stroke="black" shape-rendering="auto" image-rendering="auto" height="207.27" font-weight="normal" font-style="normal" font-size="12" font-family="'Dialog'" fill-opacity="1" fill="black" color-rendering="auto" color-interpolation="auto" xmlns="http://www.w3.org/2000/svg"><g><g stroke="white" fill="white"><rect y="0" x="0" width="18113" stroke="none" height="6909"/></g><g transform="translate(32866,32758)" text-rendering="geometricPrecision" stroke-width="44" stroke-linejoin="round" stroke-linecap="round"><line y2="-28230" y1="-27661" x2="-17810" x1="-18798" fill="none"/><line y2="-27661" y1="-28230" x2="-16827" x1="-17810" fill="none"/><line y2="-26522" y1="-27661" x2="-18798" x1="-18798" fill="none"/><line y2="-27661" y1="-28230" x2="-18798" x1="-19783" fill="none"/><line y2="-27586" y1="-28010" x2="-19006" x1="-19745" fill="none"/><line y2="-26522" y1="-27661" x2="-16827" x1="-16827" fill="none"/><line y2="-28230" y1="-27661" x2="-15839" x1="-16827" fill="none"/><line y2="-28010" y1="-27583" x2="-15880" x1="-16619" fill="none"/><line y2="-26522" y1="-26522" x2="-18798" x1="-16827" fill="none"/><line y2="-25953" y1="-26522" x2="-19783" x1="-18798" fill="none"/><line y2="-26173" y1="-26600" x2="-19745" x1="-19006" fill="none"/><line y2="-28230" y1="-27661" x2="-19783" x1="-20768" fill="none"/><line y2="-26522" y1="-25953" x2="-16827" x1="-15839" fill="none"/><line y2="-26600" y1="-26173" x2="-16619" x1="-15880" fill="none"/><line y2="-27661" y1="-28230" x2="-14857" x1="-15839" fill="none"/><line y2="-26522" y1="-25953" x2="-20768" x1="-19783" fill="none"/><line y2="-27661" y1="-26522" x2="-20768" x1="-20768" fill="none"/><line y2="-27519" y1="-26664" x2="-20597" x1="-20597" fill="none"/><line y2="-25953" y1="-26522" x2="-15839" x1="-14857" fill="none"/><line y2="-26522" y1="-27661" x2="-14857" x1="-14857" fill="none"/><line y2="-26664" y1="-27519" x2="-15028" x1="-15028" fill="none"/><line y2="-29276" y1="-28230" x2="-17810" x1="-17810" fill="none"/><line y2="-29692" y1="-29276" x2="-18529" x1="-17810" fill="none"/><line y2="-30847" y1="-30021" x2="-18717" x1="-18717" fill="none"/><line y2="-31153" y1="-30847" x2="-19245" x1="-18717" fill="none"/><line y2="-30847" y1="-31263" x2="-20531" x1="-19814" fill="none"/><line y2="-31324" y1="-30911" x2="-18035" x1="-18751" fill="none"/><line y2="-31202" y1="-30786" x2="-17963" x1="-18682" fill="none"/><line y2="-31373" y1="-30847" x2="-21438" x1="-20531" fill="none"/><line y2="-30847" y1="-31373" x2="-22345" x1="-21438" fill="none"/><line y2="-31373" y1="-30847" x2="-23255" x1="-22345" fill="none"/><line y2="-31067" y1="-31373" x2="-23781" x1="-23255" fill="none"/><line y2="-31373" y1="-30957" x2="-25069" x1="-24350" fill="none"/><line y2="-31067" y1="-31373" x2="-25595" x1="-25069" fill="none"/><line y2="-31263" y1="-30957" x2="-26696" x1="-26164" fill="none"/><line y2="-32202" y1="-31373" x2="-25139" x1="-25139" fill="none"/><line y2="-32202" y1="-31373" x2="-24997" x1="-24997" fill="none"/><line y2="-29495" y1="-29801" x2="-21060" x1="-20531" fill="none"/><line y2="-29446" y1="-29842" x2="-19777" x1="-20462" fill="none"/><line y2="-29325" y1="-29741" x2="-19849" x1="-20568" fill="none"/><line y2="-30847" y1="-31263" x2="-27791" x1="-27071" fill="none"/><line y2="-32026" y1="-31558" x2="-27340" x1="-27068" fill="none"/><line y2="-32095" y1="-31627" x2="-27219" x1="-26947" fill="none"/><line y2="-32095" y1="-31627" x2="-26546" x1="-26817" fill="none"/><line y2="-32026" y1="-31558" x2="-26424" x1="-26696" fill="none"/><line y2="-30847" y1="-31416" x2="-27791" x1="-28776" fill="none"/><line y2="-29712" y1="-30847" x2="-27791" x1="-27791" fill="none"/><line y2="-29853" y1="-30706" x2="-27961" x1="-27961" fill="none"/><line y2="-31416" y1="-30847" x2="-28776" x1="-29761" fill="none"/><line y2="-31200" y1="-30772" x2="-28813" x1="-29553" fill="none"/><line y2="-29143" y1="-29712" x2="-28776" x1="-27791" fill="none"/><line y2="-29712" y1="-30847" x2="-29761" x1="-29761" fill="none"/><line y2="-30847" y1="-30847" x2="-29761" x1="-31731" fill="none"/><line y2="-29712" y1="-29143" x2="-29761" x1="-28776" fill="none"/><line y2="-29787" y1="-29359" x2="-29553" x1="-28813" fill="none"/><line y2="-29250" y1="-29712" x2="-30561" x1="-29761" fill="none"/><line y2="-30847" y1="-29712" x2="-31731" x1="-31731" fill="none"/><line y2="-29712" y1="-29250" x2="-31731" x1="-30937" fill="none"/><line y2="-29894" y1="-29712" x2="-32762" x1="-31731" fill="none"/><line y2="-28727" y1="-29712" x2="-32089" x1="-31731" fill="none"/><line y2="-32465" y1="-31416" x2="-28776" x1="-28776" fill="none"/><line y2="-29186" y1="-29712" x2="-26884" x1="-27791" fill="none"/><line y2="-28094" y1="-29143" x2="-28776" x1="-28776" fill="none"/><polygon stroke-width="1" stroke="none" points=" -20531 -30847 -20464 -29801 -20600 -29798"/><polygon stroke-width="1" points=" -20531 -30847 -20464 -29801 -20600 -29798" fill="none"/><text y="-29622" xml:space="preserve" x="-18870" stroke-width="1" stroke="none" font-size="433.3333" font-family="sans-serif">O</text><text y="-31194" xml:space="preserve" x="-19777" stroke-width="1" stroke="none" font-size="433.3333" font-family="sans-serif">NH</text><text y="-31194" xml:space="preserve" x="-17963" stroke-width="1" stroke="none" font-size="433.3333" font-family="sans-serif">O</text><text y="-29096" xml:space="preserve" x="-21591" stroke-width="1" stroke="none" font-size="433.3333" font-family="sans-serif">OH</text><text y="-29096" xml:space="preserve" x="-19777" stroke-width="1" stroke="none" font-size="433.3333" font-family="sans-serif">O</text><text y="-30668" xml:space="preserve" x="-24312" stroke-width="1" stroke="none" font-size="433.3333" font-family="sans-serif">NH</text><text y="-30668" xml:space="preserve" x="-26127" stroke-width="1" stroke="none" font-size="433.3333" font-family="sans-serif">NH</text><text y="-32242" xml:space="preserve" x="-25220" stroke-width="1" stroke="none" font-size="433.3333" font-family="sans-serif">NH</text><text y="-31194" xml:space="preserve" x="-27034" stroke-width="1" stroke="none" font-size="433.3333" font-family="sans-serif">S</text><text y="-32101" xml:space="preserve" x="-27560" stroke-width="1" stroke="none" font-size="433.3333" font-family="sans-serif">O</text><text y="-32101" xml:space="preserve" x="-26511" stroke-width="1" stroke="none" font-size="433.3333" font-family="sans-serif">O</text><text y="-28964" xml:space="preserve" x="-30899" stroke-width="1" stroke="none" font-size="433.3333" font-family="sans-serif">O</text></g><g transform="translate(32866,32758)" text-rendering="geometricPrecision" stroke-linejoin="round" stroke-linecap="round" font-style="italic" font-size="313.3333" font-family="sans-serif"><text y="-30971" xml:space="preserve" x="-20684" stroke="none">R</text></g></g></svg>