<svg width="222.72" viewBox="0 0 7424 6580" text-rendering="auto" stroke-width="1" stroke-opacity="1" stroke-miterlimit="10" stroke-linejoin="miter" stroke-linecap="square" stroke-dashoffset="0" stroke-dasharray="none" stroke="black" shape-rendering="auto" image-rendering="auto" height="197.4" font-weight="normal" font-style="normal" font-size="12" font-family="'Dialog'" fill-opacity="1" fill="black" color-rendering="auto" color-interpolation="auto" xmlns="http://www.w3.org/2000/svg"><g><g stroke="white" fill="white"><rect y="0" x="0" width="7424" stroke="none" height="6580"/></g><g transform="translate(32866,32866)" text-rendering="geometricPrecision" stroke-width="44" stroke-linejoin="round" stroke-linecap="round"><line y2="-28094" y1="-28420" x2="-27516" x1="-28082" fill="none"/><line y2="-28094" y1="-28423" x2="-29330" x1="-28764" fill="none"/><line y2="-29359" y1="-28816" x2="-29709" x1="-28764" fill="none"/><line y2="-30298" y1="-29689" x2="-29897" x1="-29897" fill="none"/><line y2="-29666" y1="-28839" x2="-28423" x1="-28423" fill="none"/><line y2="-30191" y1="-29666" x2="-29330" x1="-28423" fill="none"/><line y2="-30070" y1="-29547" x2="-29403" x1="-28496" fill="none"/><line y2="-28094" y1="-26959" x2="-27516" x1="-27516" fill="none"/><line y2="-27952" y1="-27100" x2="-27346" x1="-27346" fill="none"/><line y2="-28663" y1="-28094" x2="-26531" x1="-27516" fill="none"/><line y2="-26959" y1="-26390" x2="-27516" x1="-26531" fill="none"/><line y2="-28094" y1="-28663" x2="-25546" x1="-26531" fill="none"/><line y2="-28019" y1="-28446" x2="-25754" x1="-26494" fill="none"/><line y2="-26390" y1="-26959" x2="-26531" x1="-25546" fill="none"/><line y2="-26606" y1="-27034" x2="-26494" x1="-25754" fill="none"/><line y2="-26959" y1="-28094" x2="-25546" x1="-25546" fill="none"/><line y2="-28094" y1="-28663" x2="-29330" x1="-30316" fill="none"/><line y2="-28019" y1="-28446" x2="-29538" x1="-30278" fill="none"/><line y2="-26959" y1="-28094" x2="-29330" x1="-29330" fill="none"/><line y2="-28663" y1="-28094" x2="-30316" x1="-31301" fill="none"/><line y2="-26390" y1="-26959" x2="-30316" x1="-29330" fill="none"/><line y2="-26606" y1="-27034" x2="-30278" x1="-29538" fill="none"/><line y2="-28094" y1="-26959" x2="-31301" x1="-31301" fill="none"/><line y2="-27952" y1="-27100" x2="-31133" x1="-31133" fill="none"/><line y2="-26959" y1="-26390" x2="-31301" x1="-30316" fill="none"/><line y2="-31023" y1="-30706" x2="-28978" x1="-29556" fill="none"/><line y2="-31055" y1="-30720" x2="-30792" x1="-30235" fill="none"/><line y2="-32188" y1="-30734" x2="-29897" x1="-29897" fill="none"/><line y2="-32710" y1="-32188" x2="-30804" x1="-29897" fill="none"/><line y2="-32592" y1="-32066" x2="-30873" x1="-29966" fill="none"/><line y2="-32162" y1="-31023" x2="-28978" x1="-28978" fill="none"/><line y2="-32020" y1="-31168" x2="-28808" x1="-28808" fill="none"/><line y2="-31023" y1="-30454" x2="-28978" x1="-27996" fill="none"/><line y2="-32731" y1="-32162" x2="-27996" x1="-28978" fill="none"/><line y2="-30454" y1="-31023" x2="-27996" x1="-27011" fill="none"/><line y2="-30674" y1="-31101" x2="-27958" x1="-27219" fill="none"/><line y2="-32162" y1="-32731" x2="-27011" x1="-27996" fill="none"/><line y2="-32084" y1="-32511" x2="-27219" x1="-27958" fill="none"/><line y2="-31023" y1="-32162" x2="-27011" x1="-27011" fill="none"/><line y2="-31055" y1="-32193" x2="-30792" x1="-30792" fill="none"/><line y2="-31197" y1="-32052" x2="-30963" x1="-30963" fill="none"/><line y2="-30489" y1="-31055" x2="-31777" x1="-30792" fill="none"/><line y2="-32193" y1="-32762" x2="-30792" x1="-31777" fill="none"/><line y2="-31055" y1="-30489" x2="-32762" x1="-31777" fill="none"/><line y2="-31133" y1="-30706" x2="-32552" x1="-31815" fill="none"/><line y2="-32762" y1="-32193" x2="-31777" x1="-32762" fill="none"/><line y2="-32543" y1="-32118" x2="-31815" x1="-32554" fill="none"/><line y2="-32193" y1="-31055" x2="-32762" x1="-32762" fill="none"/><text y="-28441" xml:space="preserve" x="-28654" stroke="none" font-size="433.3333" font-family="sans-serif">Si</text><text y="-29290" xml:space="preserve" x="-30047" stroke="none" font-size="433.3333" font-family="sans-serif">O</text><text y="-30339" xml:space="preserve" x="-30128" stroke="none" font-size="433.3333" font-family="sans-serif">Si</text></g></g></svg>