<svg width="221.04" viewBox="0 0 7368 3194" text-rendering="auto" stroke-width="1" stroke-opacity="1" stroke-miterlimit="10" stroke-linejoin="miter" stroke-linecap="square" stroke-dashoffset="0" stroke-dasharray="none" stroke="black" shape-rendering="auto" image-rendering="auto" height="95.82" font-weight="normal" font-style="normal" font-size="12" font-family="'Dialog'" fill-opacity="1" fill="black" color-rendering="auto" color-interpolation="auto" xmlns="http://www.w3.org/2000/svg"><g><g stroke="white" fill="white"><rect y="0" x="0" width="7368" stroke="none" height="3194"/></g><g transform="translate(32866,32758)" text-rendering="geometricPrecision" stroke-width="44" stroke-linejoin="round" stroke-linecap="round"><line y2="-31376" y1="-31945" x2="-28825" x1="-29807" fill="none"/><line y2="-31298" y1="-31725" x2="-29033" x1="-29770" fill="none"/><line y2="-30238" y1="-31376" x2="-28825" x1="-28825" fill="none"/><line y2="-31945" y1="-31376" x2="-29807" x1="-30795" fill="none"/><line y2="-29668" y1="-30238" x2="-29807" x1="-28825" fill="none"/><line y2="-29885" y1="-30313" x2="-29770" x1="-29033" fill="none"/><line y2="-31376" y1="-30238" x2="-30795" x1="-30795" fill="none"/><line y2="-31231" y1="-30379" x2="-30625" x1="-30625" fill="none"/><line y2="-30238" y1="-29668" x2="-30795" x1="-29807" fill="none"/><line y2="-31899" y1="-31376" x2="-27918" x1="-28825" fill="none"/><line y2="-31376" y1="-31899" x2="-27011" x1="-27918" fill="none"/><line y2="-31899" y1="-31376" x2="-31702" x1="-30795" fill="none"/><line y2="-31792" y1="-31376" x2="-26291" x1="-27011" fill="none"/><line y2="-30547" y1="-31376" x2="-26941" x1="-26941" fill="none"/><line y2="-30547" y1="-31376" x2="-27080" x1="-27080" fill="none"/><line y2="-32315" y1="-31899" x2="-32422" x1="-31702" fill="none"/><line y2="-32237" y1="-31821" x2="-32465" x1="-31746" fill="none"/><line y2="-32393" y1="-31977" x2="-32375" x1="-31656" fill="none"/><text y="-31720" xml:space="preserve" x="-26257" stroke="none" font-size="433.3333" font-family="sans-serif">OH</text><text y="-30148" xml:space="preserve" x="-27164" stroke="none" font-size="433.3333" font-family="sans-serif">O</text><text y="-32242" xml:space="preserve" x="-32762" stroke="none" font-size="433.3333" font-family="sans-serif">N</text></g></g></svg>