<svg width="205.95" viewBox="0 0 6865 9994" text-rendering="auto" stroke-width="1" stroke-opacity="1" stroke-miterlimit="10" stroke-linejoin="miter" stroke-linecap="square" stroke-dashoffset="0" stroke-dasharray="none" stroke="black" shape-rendering="auto" image-rendering="auto" height="299.82" font-weight="normal" font-style="normal" font-size="12" font-family="'Dialog'" fill-opacity="1" fill="black" color-rendering="auto" color-interpolation="auto" xmlns="http://www.w3.org/2000/svg"><g><g stroke="white" fill="white"><rect y="0" x="0" width="6865" stroke="none" height="9994"/></g><g transform="translate(32866,32758)" text-rendering="geometricPrecision" stroke-width="44" stroke-linejoin="round" stroke-linecap="round"><line y2="-25907" y1="-26482" x2="-28548" x1="-29530" fill="none"/><line y2="-26482" y1="-25907" x2="-29530" x1="-30512" fill="none"/><line y2="-26262" y1="-25832" x2="-29567" x1="-30304" fill="none"/><line y2="-24760" y1="-25907" x2="-28548" x1="-28548" fill="none"/><line y2="-26482" y1="-25907" x2="-27565" x1="-28548" fill="none"/><line y2="-26262" y1="-25832" x2="-27603" x1="-28340" fill="none"/><line y2="-25907" y1="-24980" x2="-30512" x1="-30512" fill="none"/><line y2="-24188" y1="-24760" x2="-29530" x1="-28548" fill="none"/><line y2="-24760" y1="-24188" x2="-28548" x1="-27565" fill="none"/><line y2="-24835" y1="-24408" x2="-28340" x1="-27603" fill="none"/><line y2="-25907" y1="-26482" x2="-26583" x1="-27565" fill="none"/><line y2="-24650" y1="-24188" x2="-30324" x1="-29530" fill="none"/><line y2="-24188" y1="-24650" x2="-27565" x1="-26771" fill="none"/><line y2="-24980" y1="-25907" x2="-26583" x1="-26583" fill="none"/><line y2="-25095" y1="-25792" x2="-26754" x1="-26754" fill="none"/><line y2="-27528" y1="-26482" x2="-29530" x1="-29530" fill="none"/><line y2="-24405" y1="-24653" x2="-31130" x1="-30703" fill="none"/><line y2="-23359" y1="-24188" x2="-29460" x1="-29460" fill="none"/><line y2="-23359" y1="-24188" x2="-29602" x1="-29602" fill="none"/><line y2="-28097" y1="-27528" x2="-30515" x1="-29530" fill="none"/><line y2="-28172" y1="-27747" x2="-30307" x1="-29567" fill="none"/><line y2="-27528" y1="-28097" x2="-29530" x1="-28545" fill="none"/><line y2="-29235" y1="-28097" x2="-30515" x1="-30515" fill="none"/><line y2="-28097" y1="-29235" x2="-28545" x1="-28545" fill="none"/><line y2="-28238" y1="-29091" x2="-28715" x1="-28715" fill="none"/><line y2="-29804" y1="-29235" x2="-29530" x1="-30515" fill="none"/><line y2="-29585" y1="-29157" x2="-29567" x1="-30307" fill="none"/><line y2="-29235" y1="-29804" x2="-28545" x1="-29530" fill="none"/><line y2="-30850" y1="-29804" x2="-29530" x1="-29530" fill="none"/><line y2="-31266" y1="-30850" x2="-28810" x1="-29530" fill="none"/><line y2="-27681" y1="-28097" x2="-31234" x1="-30515" fill="none"/><line y2="-27929" y1="-27681" x2="-32040" x1="-31610" fill="none"/><line y2="-29651" y1="-29235" x2="-27825" x1="-28545" fill="none"/><line y2="-29342" y1="-29651" x2="-26918" x1="-27450" fill="none"/><line y2="-30960" y1="-31266" x2="-27903" x1="-28435" fill="none"/><line y2="-32202" y1="-31595" x2="-28623" x1="-28623" fill="none"/><text y="-27395" xml:space="preserve" x="-31572" stroke="none" font-size="433.3333" font-family="sans-serif">O</text><text y="-28080" xml:space="preserve" x="-32762" stroke="none" font-size="433.3333" font-family="sans-serif">CH</text><text y="-27990" xml:space="preserve" x="-32185" stroke="none" font-size="313.3333" font-family="sans-serif">3</text><text y="-24006" xml:space="preserve" x="-31662" stroke="none" font-size="433.3333" font-family="sans-serif">CH</text><text y="-23917" xml:space="preserve" x="-31084" stroke="none" font-size="313.3333" font-family="sans-serif">3</text><text y="-29579" xml:space="preserve" x="-27788" stroke="none" font-size="433.3333" font-family="sans-serif">O</text><text y="-29056" xml:space="preserve" x="-26881" stroke="none" font-size="433.3333" font-family="sans-serif">CH</text><text y="-28966" xml:space="preserve" x="-26303" stroke="none" font-size="313.3333" font-family="sans-serif">3</text><text y="-22960" xml:space="preserve" x="-29683" stroke="none" font-size="433.3333" font-family="sans-serif">O</text><text y="-31197" xml:space="preserve" x="-28776" stroke="none" font-size="433.3333" font-family="sans-serif">N</text><text y="-30671" xml:space="preserve" x="-27869" stroke="none" font-size="433.3333" font-family="sans-serif">CH</text><text y="-30581" xml:space="preserve" x="-27291" stroke="none" font-size="313.3333" font-family="sans-serif">3</text><text y="-32242" xml:space="preserve" x="-28776" stroke="none" font-size="433.3333" font-family="sans-serif">CH</text><text y="-32153" xml:space="preserve" x="-28198" stroke="none" font-size="313.3333" font-family="sans-serif">3</text><text y="-24581" xml:space="preserve" x="-30665" stroke="none" font-size="433.3333" font-family="sans-serif">N</text><text y="-24581" xml:space="preserve" x="-26736" stroke="none" font-size="433.3333" font-family="sans-serif">N</text></g></g></svg>