<svg width="204.18" viewBox="0 0 6806 3706" text-rendering="auto" stroke-width="1" stroke-opacity="1" stroke-miterlimit="10" stroke-linejoin="miter" stroke-linecap="square" stroke-dashoffset="0" stroke-dasharray="none" stroke="black" shape-rendering="auto" image-rendering="auto" height="111.18" font-weight="normal" font-style="normal" font-size="12" font-family="'Dialog'" fill-opacity="1" fill="black" color-rendering="auto" color-interpolation="auto" xmlns="http://www.w3.org/2000/svg"><g><g stroke="white" fill="white"><rect y="0" x="0" width="6806" stroke="none" height="3706"/></g><g transform="translate(32866,32866)" text-rendering="geometricPrecision" stroke-width="44" stroke-linejoin="round" stroke-linecap="round"><line y2="-32193" y1="-31055" x2="-29042" x1="-29042" fill="none"/><line y2="-32052" y1="-31200" x2="-28871" x1="-28871" fill="none"/><line y2="-31055" y1="-30489" x2="-29042" x1="-28056" fill="none"/><line y2="-32762" y1="-32193" x2="-28056" x1="-29042" fill="none"/><line y2="-30489" y1="-31055" x2="-28056" x1="-27071" fill="none"/><line y2="-30706" y1="-31133" x2="-28019" x1="-27279" fill="none"/><line y2="-32193" y1="-32762" x2="-27071" x1="-28056" fill="none"/><line y2="-32118" y1="-32546" x2="-27279" x1="-28019" fill="none"/><line y2="-31055" y1="-32193" x2="-27071" x1="-27071" fill="none"/><line y2="-32719" y1="-32193" x2="-26164" x1="-27071" fill="none"/><line y2="-30642" y1="-31055" x2="-29761" x1="-29042" fill="none"/><line y2="-30888" y1="-30642" x2="-30567" x1="-30136" fill="none"/><line y2="-30584" y1="-31000" x2="-31855" x1="-31136" fill="none"/><line y2="-29810" y1="-30278" x2="-30287" x1="-30015" fill="none"/><line y2="-29879" y1="-30347" x2="-30408" x1="-30136" fill="none"/><line y2="-29879" y1="-30347" x2="-29492" x1="-29764" fill="none"/><line y2="-29810" y1="-30278" x2="-29614" x1="-29885" fill="none"/><line y2="-31107" y1="-30584" x2="-32762" x1="-31855" fill="none"/><line y2="-29755" y1="-30584" x2="-31786" x1="-31786" fill="none"/><line y2="-29755" y1="-30584" x2="-31925" x1="-31925" fill="none"/><text y="-30353" xml:space="preserve" x="-30102" stroke="none" font-size="433.3333" font-family="sans-serif">S</text><text y="-30928" xml:space="preserve" x="-31098" stroke="none" font-size="433.3333" font-family="sans-serif">NH</text><text y="-29446" xml:space="preserve" x="-30625" stroke="none" font-size="433.3333" font-family="sans-serif">O</text><text y="-29446" xml:space="preserve" x="-29579" stroke="none" font-size="433.3333" font-family="sans-serif">O</text><text y="-29356" xml:space="preserve" x="-32006" stroke="none" font-size="433.3333" font-family="sans-serif">O</text></g></g></svg>