<svg width="284.73" viewBox="0 0 9491 6238" text-rendering="auto" stroke-width="1" stroke-opacity="1" stroke-miterlimit="10" stroke-linejoin="miter" stroke-linecap="square" stroke-dashoffset="0" stroke-dasharray="none" stroke="black" shape-rendering="auto" image-rendering="auto" height="187.14" font-weight="normal" font-style="normal" font-size="12" font-family="'Dialog'" fill-opacity="1" fill="black" color-rendering="auto" color-interpolation="auto" xmlns="http://www.w3.org/2000/svg"><g><g stroke="white" fill="white"><rect y="0" x="0" width="9491" stroke="none" height="6238"/></g><g transform="translate(32866,32758)" text-rendering="geometricPrecision" stroke-width="44" stroke-linejoin="round" stroke-linecap="round"><line y2="-29079" y1="-30015" x2="-29192" x1="-28868" fill="none"/><line y2="-30379" y1="-30847" x2="-28981" x1="-29582" fill="none"/><line y2="-29079" y1="-29079" x2="-30440" x1="-29192" fill="none"/><line y2="-29250" y1="-29250" x2="-30284" x1="-29348" fill="none"/><line y2="-30853" y1="-30235" x2="-29960" x1="-30795" fill="none"/><line y2="-30639" y1="-30174" x2="-29963" x1="-30590" fill="none"/><line y2="-30235" y1="-29079" x2="-30795" x1="-30440" fill="none"/><line y2="-30758" y1="-30344" x2="-27886" x1="-28605" fill="none"/><line y2="-28556" y1="-29079" x2="-28285" x1="-29192" fill="none"/><line y2="-30758" y1="-30235" x2="-31702" x1="-30795" fill="none"/><line y2="-31896" y1="-30758" x2="-27886" x1="-27886" fill="none"/><line y2="-31754" y1="-30902" x2="-27716" x1="-27716" fill="none"/><line y2="-30758" y1="-30191" x2="-27886" x1="-26898" fill="none"/><line y2="-32465" y1="-31896" x2="-26898" x1="-27886" fill="none"/><line y2="-30191" y1="-30758" x2="-26898" x1="-25916" fill="none"/><line y2="-30408" y1="-30836" x2="-26860" x1="-26124" fill="none"/><line y2="-31896" y1="-32465" x2="-25916" x1="-26898" fill="none"/><line y2="-31821" y1="-32248" x2="-26124" x1="-26860" fill="none"/><line y2="-30758" y1="-31896" x2="-25916" x1="-25916" fill="none"/><line y2="-32312" y1="-31896" x2="-25196" x1="-25916" fill="none"/><line y2="-32006" y1="-32312" x2="-24289" x1="-24821" fill="none"/><line y2="-28556" y1="-27418" x2="-28285" x1="-28285" fill="none"/><line y2="-28412" y1="-27560" x2="-28114" x1="-28114" fill="none"/><line y2="-29122" y1="-28556" x2="-27300" x1="-28285" fill="none"/><line y2="-27418" y1="-26849" x2="-28285" x1="-27300" fill="none"/><line y2="-28556" y1="-29122" x2="-26314" x1="-27300" fill="none"/><line y2="-28478" y1="-28906" x2="-26522" x1="-27262" fill="none"/><line y2="-26849" y1="-27418" x2="-27300" x1="-26314" fill="none"/><line y2="-27066" y1="-27493" x2="-27262" x1="-26522" fill="none"/><line y2="-27418" y1="-28556" x2="-26314" x1="-26314" fill="none"/><line y2="-27089" y1="-27418" x2="-25748" x1="-26314" fill="none"/><line y2="-30344" y1="-30758" x2="-32422" x1="-31702" fill="none"/><line y2="-31448" y1="-30758" x2="-32101" x1="-31702" fill="none"/><line y2="-31448" y1="-30758" x2="-31304" x1="-31702" fill="none"/><text y="-30056" xml:space="preserve" x="-32762" stroke="none" font-size="433.3333" font-family="sans-serif">F</text><text y="-31486" xml:space="preserve" x="-32378" stroke="none" font-size="433.3333" font-family="sans-serif">F</text><text y="-31486" xml:space="preserve" x="-31330" stroke="none" font-size="433.3333" font-family="sans-serif">F</text><text y="-32242" xml:space="preserve" x="-25162" stroke="none" font-size="433.3333" font-family="sans-serif">O</text><text y="-31717" xml:space="preserve" x="-24255" stroke="none" font-size="433.3333" font-family="sans-serif">CH</text><text y="-31627" xml:space="preserve" x="-23677" stroke="none" font-size="313.3333" font-family="sans-serif">3</text><text y="-26716" xml:space="preserve" x="-25638" stroke="none" font-size="433.3333" font-family="sans-serif">Cl</text><text y="-30056" xml:space="preserve" x="-28946" stroke="none" font-size="433.3333" font-family="sans-serif">N</text><text y="-30812" xml:space="preserve" x="-29923" stroke="none" font-size="433.3333" font-family="sans-serif">N</text></g></g></svg>