<svg width="193.41" viewBox="0 0 6447 3188" text-rendering="auto" stroke-width="1" stroke-opacity="1" stroke-miterlimit="10" stroke-linejoin="miter" stroke-linecap="square" stroke-dashoffset="0" stroke-dasharray="none" stroke="black" shape-rendering="auto" image-rendering="auto" height="95.64" font-weight="normal" font-style="normal" font-size="12" font-family="'Dialog'" fill-opacity="1" fill="black" color-rendering="auto" color-interpolation="auto" xmlns="http://www.w3.org/2000/svg"><g><g stroke="white" fill="white"><rect y="0" x="0" width="6447" stroke="none" height="3188"/></g><g transform="translate(32866,32866)" text-rendering="geometricPrecision" stroke-width="44" stroke-linejoin="round" stroke-linecap="round"><line y2="-30053" y1="-31191" x2="-31474" x1="-31474" fill="none"/><line y2="-31191" y1="-31191" x2="-31474" x1="-32612" fill="none"/><line y2="-30053" y1="-30053" x2="-32424" x1="-31474" fill="none"/><line y2="-31191" y1="-30272" x2="-32612" x1="-32612" fill="none"/><line y2="-31714" y1="-31191" x2="-30567" x1="-31474" fill="none"/><line y2="-31298" y1="-31714" x2="-29848" x1="-30567" fill="none"/><line y2="-31714" y1="-31298" x2="-28753" x1="-29472" fill="none"/><line y2="-31191" y1="-31714" x2="-27846" x1="-28753" fill="none"/><line y2="-32240" y1="-31191" x2="-31474" x1="-31474" fill="none"/><line y2="-32762" y1="-32240" x2="-30567" x1="-31474" fill="none"/><line y2="-31191" y1="-30053" x2="-27846" x1="-27846" fill="none"/><line y2="-31191" y1="-31191" x2="-26707" x1="-27846" fill="none"/><line y2="-30053" y1="-30053" x2="-27846" x1="-26895" fill="none"/><line y2="-30272" y1="-31191" x2="-26707" x1="-26707" fill="none"/><line y2="-32240" y1="-31191" x2="-27846" x1="-27846" fill="none"/><line y2="-32762" y1="-32240" x2="-28753" x1="-27846" fill="none"/><text y="-31012" xml:space="preserve" x="-29813" stroke="none" font-size="433.3333" font-family="sans-serif">O</text><text y="-29874" xml:space="preserve" x="-32762" stroke="none" font-size="433.3333" font-family="sans-serif">O</text><text y="-29874" xml:space="preserve" x="-26860" stroke="none" font-size="433.3333" font-family="sans-serif">O</text></g></g></svg>