<svg width="401.25" viewBox="0 0 13375 7099" text-rendering="auto" stroke-width="1" stroke-opacity="1" stroke-miterlimit="10" stroke-linejoin="miter" stroke-linecap="square" stroke-dashoffset="0" stroke-dasharray="none" stroke="black" shape-rendering="auto" image-rendering="auto" height="212.97" font-weight="normal" font-style="normal" font-size="12" font-family="'Dialog'" fill-opacity="1" fill="black" color-rendering="auto" color-interpolation="auto" xmlns="http://www.w3.org/2000/svg"><g><g stroke="white" fill="white"><rect y="0" x="0" width="13375" stroke="none" height="7099"/></g><g transform="translate(32866,32758)" text-rendering="geometricPrecision" stroke-width="44" stroke-linejoin="round" stroke-linecap="round"><line y2="-29146" y1="-29715" x2="-25194" x1="-26176" fill="none"/><line y2="-29068" y1="-29495" x2="-25402" x1="-26138" fill="none"/><line y2="-28007" y1="-29146" x2="-25194" x1="-25194" fill="none"/><line y2="-29715" y1="-29146" x2="-26176" x1="-27164" fill="none"/><line y2="-27438" y1="-28007" x2="-26176" x1="-25194" fill="none"/><line y2="-27658" y1="-28082" x2="-26138" x1="-25402" fill="none"/><line y2="-29146" y1="-28007" x2="-27164" x1="-27164" fill="none"/><line y2="-29001" y1="-28149" x2="-26993" x1="-26993" fill="none"/><line y2="-28007" y1="-27438" x2="-27164" x1="-26176" fill="none"/><line y2="-29668" y1="-29146" x2="-24286" x1="-25194" fill="none"/><line y2="-30807" y1="-29668" x2="-24286" x1="-24286" fill="none"/><line y2="-30665" y1="-29810" x2="-24116" x1="-24116" fill="none"/><line y2="-29668" y1="-29099" x2="-24286" x1="-23298" fill="none"/><line y2="-31376" y1="-30807" x2="-23298" x1="-24286" fill="none"/><line y2="-29099" y1="-29668" x2="-23298" x1="-22316" fill="none"/><line y2="-29319" y1="-29744" x2="-23261" x1="-22524" fill="none"/><line y2="-30807" y1="-31376" x2="-22316" x1="-23298" fill="none"/><line y2="-30729" y1="-31156" x2="-22524" x1="-23261" fill="none"/><line y2="-29668" y1="-30807" x2="-22316" x1="-22316" fill="none"/><line y2="-31223" y1="-30807" x2="-21597" x1="-22316" fill="none"/><line y2="-30807" y1="-31223" x2="-20502" x1="-21221" fill="none"/><line y2="-31330" y1="-30807" x2="-19595" x1="-20502" fill="none"/><line y2="-31223" y1="-30807" x2="-25006" x1="-24286" fill="none"/><line y2="-32202" y1="-31376" x2="-23298" x1="-23298" fill="none"/><line y2="-26346" y1="-27484" x2="-28071" x1="-28071" fill="none"/><line y2="-27484" y1="-28054" x2="-28071" x1="-29053" fill="none"/><line y2="-25777" y1="-26346" x2="-29053" x1="-28071" fill="none"/><line y2="-28054" y1="-27484" x2="-29053" x1="-30041" fill="none"/><line y2="-26346" y1="-25777" x2="-30041" x1="-29053" fill="none"/><line y2="-27484" y1="-26346" x2="-30041" x1="-30041" fill="none"/><line y2="-26346" y1="-25823" x2="-31855" x1="-30948" fill="none"/><line y2="-25823" y1="-26346" x2="-32762" x1="-31855" fill="none"/><polygon stroke-width="1" stroke="none" points=" -27198 -28068 -28071 -27484 -27129 -27947"/><polygon stroke-width="1" points=" -27198 -28068 -28071 -27484 -27129 -27947" fill="none"/><line y2="-25881" y1="-25763" x2="-30983" x1="-30914" fill="none"/><line y2="-25977" y1="-25884" x2="-30788" x1="-30733" fill="none"/><line y2="-26073" y1="-26004" x2="-30593" x1="-30553" fill="none"/><line y2="-26169" y1="-26125" x2="-30399" x1="-30372" fill="none"/><line y2="-26266" y1="-26245" x2="-30204" x1="-30192" fill="none"/><text y="-31150" xml:space="preserve" x="-25347" stroke="none" font-size="433.3333" font-family="sans-serif">F</text><text y="-32242" xml:space="preserve" x="-23452" stroke="none" font-size="433.3333" font-family="sans-serif">F</text><text y="-31150" xml:space="preserve" x="-21562" stroke="none" font-size="433.3333" font-family="sans-serif">O</text></g></g></svg>