<svg width="263.43" viewBox="0 0 8781 3057" text-rendering="auto" stroke-width="1" stroke-opacity="1" stroke-miterlimit="10" stroke-linejoin="miter" stroke-linecap="square" stroke-dashoffset="0" stroke-dasharray="none" stroke="black" shape-rendering="auto" image-rendering="auto" height="91.71" font-weight="normal" font-style="normal" font-size="12" font-family="'Dialog'" fill-opacity="1" fill="black" color-rendering="auto" color-interpolation="auto" xmlns="http://www.w3.org/2000/svg"><g><g stroke="white" fill="white"><rect y="0" x="0" width="8781" stroke="none" height="3057"/></g><g transform="translate(32866,32758)" text-rendering="geometricPrecision" stroke-width="44" stroke-linejoin="round" stroke-linecap="round"><line y2="-31815" y1="-30602" x2="-29518" x1="-29518" fill="none"/><line y2="-30602" y1="-30602" x2="-29518" x1="-27412" fill="none"/><line y2="-29992" y1="-30602" x2="-30570" x1="-29518" fill="none"/><line y2="-30217" y1="-30671" x2="-30524" x1="-29735" fill="none"/><line y2="-32315" y1="-31815" x2="-28652" x1="-29518" fill="none"/><line y2="-31815" y1="-32422" x2="-29518" x1="-30570" fill="none"/><line y2="-31746" y1="-32199" x2="-29735" x1="-30524" fill="none"/><line y2="-30602" y1="-31815" x2="-27412" x1="-27412" fill="none"/><line y2="-30752" y1="-31662" x2="-27583" x1="-27583" fill="none"/><line y2="-30602" y1="-29992" x2="-31624" x1="-30570" fill="none"/><line y2="-31815" y1="-32202" x2="-27412" x1="-28082" fill="none"/><line y2="-32422" y1="-31815" x2="-30570" x1="-31624" fill="none"/><line y2="-31815" y1="-30602" x2="-31624" x1="-31624" fill="none"/><line y2="-31662" y1="-30752" x2="-31454" x1="-31454" fill="none"/><line y2="-30076" y1="-30602" x2="-26505" x1="-27412" fill="none"/><line y2="-30602" y1="-30076" x2="-25598" x1="-26505" fill="none"/><line y2="-32141" y1="-31815" x2="-32188" x1="-31624" fill="none"/><line y2="-30186" y1="-30602" x2="-24879" x1="-25598" fill="none"/><line y2="-31428" y1="-30602" x2="-25667" x1="-25667" fill="none"/><line y2="-31428" y1="-30602" x2="-25529" x1="-25529" fill="none"/><text y="-29897" xml:space="preserve" x="-24844" stroke="none" font-size="433.3333" font-family="sans-serif">OH</text><text y="-31468" xml:space="preserve" x="-25751" stroke="none" font-size="433.3333" font-family="sans-serif">O</text><text y="-32162" xml:space="preserve" x="-32762" stroke="none" font-size="433.3333" font-family="sans-serif">Cl</text><text y="-32242" xml:space="preserve" x="-28614" stroke="none" font-size="433.3333" font-family="sans-serif">NH</text></g></g></svg>