<svg width="187.26" viewBox="0 0 6242 3616" text-rendering="auto" stroke-width="1" stroke-opacity="1" stroke-miterlimit="10" stroke-linejoin="miter" stroke-linecap="square" stroke-dashoffset="0" stroke-dasharray="none" stroke="black" shape-rendering="auto" image-rendering="auto" height="108.48" font-weight="normal" font-style="normal" font-size="12" font-family="'Dialog'" fill-opacity="1" fill="black" color-rendering="auto" color-interpolation="auto" xmlns="http://www.w3.org/2000/svg"><g><g stroke="white" fill="white"><rect y="0" x="0" width="6242" stroke="none" height="3616"/></g><g transform="translate(32866,32866)" text-rendering="geometricPrecision" stroke-width="44" stroke-linejoin="round" stroke-linecap="round"><line y2="-32193" y1="-31055" x2="-29605" x1="-29605" fill="none"/><line y2="-32052" y1="-31200" x2="-29437" x1="-29437" fill="none"/><line y2="-31055" y1="-30489" x2="-29605" x1="-28620" fill="none"/><line y2="-32762" y1="-32193" x2="-28620" x1="-29605" fill="none"/><line y2="-30489" y1="-31055" x2="-28620" x1="-27635" fill="none"/><line y2="-30706" y1="-31133" x2="-28582" x1="-27843" fill="none"/><line y2="-32193" y1="-32762" x2="-27635" x1="-28620" fill="none"/><line y2="-32118" y1="-32546" x2="-27843" x1="-28582" fill="none"/><line y2="-31055" y1="-32193" x2="-27635" x1="-27635" fill="none"/><line y2="-32719" y1="-32193" x2="-26728" x1="-27635" fill="none"/><line y2="-30642" y1="-31055" x2="-30324" x1="-29605" fill="none"/><line y2="-30532" y1="-30532" x2="-31373" x1="-30703" fill="none"/><line y2="-29810" y1="-30278" x2="-30850" x1="-30578" fill="none"/><line y2="-29879" y1="-30347" x2="-30971" x1="-30700" fill="none"/><line y2="-29879" y1="-30347" x2="-30056" x1="-30327" fill="none"/><line y2="-29810" y1="-30278" x2="-30177" x1="-30448" fill="none"/><line y2="-30532" y1="-30532" x2="-32422" x1="-31748" fill="none"/><line y2="-30443" y1="-30443" x2="-32422" x1="-31748" fill="none"/><line y2="-30622" y1="-30622" x2="-32422" x1="-31748" fill="none"/><text y="-30353" xml:space="preserve" x="-30665" stroke="none" font-size="433.3333" font-family="sans-serif">S</text><text y="-30353" xml:space="preserve" x="-31714" stroke="none" font-size="433.3333" font-family="sans-serif">C</text><text y="-29446" xml:space="preserve" x="-31191" stroke="none" font-size="433.3333" font-family="sans-serif">O</text><text y="-29446" xml:space="preserve" x="-30142" stroke="none" font-size="433.3333" font-family="sans-serif">O</text><text y="-30353" xml:space="preserve" x="-32762" stroke="none" font-size="433.3333" font-family="sans-serif">N</text></g></g></svg>