<svg width="195.48" viewBox="0 0 6516 3812" text-rendering="auto" stroke-width="1" stroke-opacity="1" stroke-miterlimit="10" stroke-linejoin="miter" stroke-linecap="square" stroke-dashoffset="0" stroke-dasharray="none" stroke="black" shape-rendering="auto" image-rendering="auto" height="114.36" font-weight="normal" font-style="normal" font-size="12" font-family="'Dialog'" fill-opacity="1" fill="black" color-rendering="auto" color-interpolation="auto" xmlns="http://www.w3.org/2000/svg"><g><g stroke="white" fill="white"><rect y="0" x="0" width="6516" stroke="none" height="3812"/></g><g transform="translate(32866,32758)" text-rendering="geometricPrecision" stroke-width="44" stroke-linejoin="round" stroke-linecap="round"><line y2="-29651" y1="-30850" x2="-28718" x1="-28718" fill="none"/><line y2="-30850" y1="-31451" x2="-28718" x1="-29755" fill="none"/><line y2="-31344" y1="-30850" x2="-27863" x1="-28718" fill="none"/><line y2="-31133" y1="-30766" x2="-27886" x1="-28527" fill="none"/><line y2="-29050" y1="-29651" x2="-29755" x1="-28718" fill="none"/><line y2="-29651" y1="-29651" x2="-28718" x1="-26826" fill="none"/><line y2="-29822" y1="-29822" x2="-28481" x1="-27063" fill="none"/><line y2="-31451" y1="-30850" x2="-29755" x1="-30798" fill="none"/><line y2="-31228" y1="-30778" x2="-29801" x1="-30581" fill="none"/><line y2="-30960" y1="-31341" x2="-26826" x1="-27487" fill="none"/><line y2="-29651" y1="-29050" x2="-30798" x1="-29755" fill="none"/><line y2="-29723" y1="-29273" x2="-30581" x1="-29801" fill="none"/><line y2="-29871" y1="-30630" x2="-26638" x1="-26638" fill="none"/><line y2="-30850" y1="-29651" x2="-30798" x1="-30798" fill="none"/><line y2="-31376" y1="-30850" x2="-31705" x1="-30798" fill="none"/><line y2="-31070" y1="-31376" x2="-32231" x1="-31705" fill="none"/><line y2="-32202" y1="-31376" x2="-31774" x1="-31774" fill="none"/><line y2="-32202" y1="-31376" x2="-31633" x1="-31633" fill="none"/><text y="-30671" xml:space="preserve" x="-32762" stroke="none" font-size="433.3333" font-family="sans-serif">OH</text><text y="-32242" xml:space="preserve" x="-31855" stroke="none" font-size="433.3333" font-family="sans-serif">O</text><text y="-31272" xml:space="preserve" x="-27828" stroke="none" font-size="433.3333" font-family="sans-serif">N</text><text y="-29472" xml:space="preserve" x="-26791" stroke="none" font-size="433.3333" font-family="sans-serif">N</text><text y="-30671" xml:space="preserve" x="-26791" stroke="none" font-size="433.3333" font-family="sans-serif">O</text></g></g></svg>