<svg width="543.18" viewBox="0 0 18106 6761" text-rendering="auto" stroke-width="1" stroke-opacity="1" stroke-miterlimit="10" stroke-linejoin="miter" stroke-linecap="square" stroke-dashoffset="0" stroke-dasharray="none" stroke="black" shape-rendering="auto" image-rendering="auto" height="202.83" font-weight="normal" font-style="normal" font-size="12" font-family="'Dialog'" fill-opacity="1" fill="black" color-rendering="auto" color-interpolation="auto" xmlns="http://www.w3.org/2000/svg"><g><g stroke="white" fill="white"><rect y="0" x="0" width="18106" stroke="none" height="6761"/></g><g transform="translate(32866,32758)" text-rendering="geometricPrecision" stroke-width="44" stroke-linejoin="round" stroke-linecap="round"><line y2="-30801" y1="-31370" x2="-24896" x1="-25878" fill="none"/><line y2="-30726" y1="-31153" x2="-25104" x1="-25841" fill="none"/><line y2="-29666" y1="-30801" x2="-24896" x1="-24896" fill="none"/><line y2="-31370" y1="-30801" x2="-25878" x1="-26866" fill="none"/><line y2="-29096" y1="-29666" x2="-25878" x1="-24896" fill="none"/><line y2="-29313" y1="-29741" x2="-25841" x1="-25104" fill="none"/><line y2="-30801" y1="-29666" x2="-26866" x1="-26866" fill="none"/><line y2="-30659" y1="-29807" x2="-26696" x1="-26696" fill="none"/><line y2="-29666" y1="-29096" x2="-26866" x1="-25878" fill="none"/><line y2="-31217" y1="-30801" x2="-24177" x1="-24896" fill="none"/><line y2="-30801" y1="-31217" x2="-23082" x1="-23801" fill="none"/><line y2="-29140" y1="-29666" x2="-27773" x1="-26866" fill="none"/><line y2="-29654" y1="-30801" x2="-21117" x1="-21117" fill="none"/><line y2="-30801" y1="-31376" x2="-21117" x1="-22100" fill="none"/><line y2="-30726" y1="-31156" x2="-21325" x1="-22062" fill="none"/><line y2="-31376" y1="-30801" x2="-20132" x1="-21117" fill="none"/><line y2="-29654" y1="-29192" x2="-21117" x1="-20323" fill="none"/><line y2="-29082" y1="-29654" x2="-22100" x1="-21117" fill="none"/><line y2="-29302" y1="-29732" x2="-22062" x1="-21325" fill="none"/><line y2="-31376" y1="-30801" x2="-22100" x1="-23082" fill="none"/><line y2="-30801" y1="-31376" x2="-19150" x1="-20132" fill="none"/><line y2="-29192" y1="-29654" x2="-19944" x1="-19150" fill="none"/><line y2="-29654" y1="-29082" x2="-23082" x1="-22100" fill="none"/><line y2="-30801" y1="-29654" x2="-23082" x1="-23082" fill="none"/><line y2="-30659" y1="-29798" x2="-22911" x1="-22911" fill="none"/><line y2="-29654" y1="-30801" x2="-19150" x1="-19150" fill="none"/><line y2="-29798" y1="-30659" x2="-19320" x1="-19320" fill="none"/><line y2="-29131" y1="-29654" x2="-18243" x1="-19150" fill="none"/><line y2="-32202" y1="-31376" x2="-22100" x1="-22100" fill="none"/><line y2="-29351" y1="-29654" x2="-23608" x1="-23082" fill="none"/><line y2="-32202" y1="-31376" x2="-20204" x1="-20204" fill="none"/><line y2="-32202" y1="-31376" x2="-20063" x1="-20063" fill="none"/><line y2="-29140" y1="-29602" x2="-27773" x1="-28568" fill="none"/><line y2="-27993" y1="-29140" x2="-27773" x1="-27773" fill="none"/><line y2="-28137" y1="-28998" x2="-27944" x1="-27944" fill="none"/><line y2="-29602" y1="-29140" x2="-28943" x1="-29738" fill="none"/><line y2="-27421" y1="-27993" x2="-28756" x1="-27773" fill="none"/><line y2="-27993" y1="-29140" x2="-29738" x1="-29738" fill="none"/><line y2="-29140" y1="-29715" x2="-29738" x1="-30720" fill="none"/><line y2="-29065" y1="-29495" x2="-29946" x1="-30682" fill="none"/><line y2="-27993" y1="-27421" x2="-29738" x1="-28756" fill="none"/><line y2="-27421" y1="-27993" x2="-30720" x1="-29738" fill="none"/><line y2="-27640" y1="-28068" x2="-30682" x1="-29946" fill="none"/><line y2="-29715" y1="-29140" x2="-30720" x1="-31702" fill="none"/><line y2="-27993" y1="-27421" x2="-31702" x1="-30720" fill="none"/><line y2="-29140" y1="-27993" x2="-31702" x1="-31702" fill="none"/><line y2="-28998" y1="-28137" x2="-31532" x1="-31532" fill="none"/><line y2="-26592" y1="-27421" x2="-30720" x1="-30720" fill="none"/><line y2="-29446" y1="-29140" x2="-32231" x1="-31702" fill="none"/><line y2="-26592" y1="-27421" x2="-28686" x1="-28686" fill="none"/><line y2="-26592" y1="-27421" x2="-28825" x1="-28825" fill="none"/><line y2="-29131" y1="-27993" x2="-18243" x1="-18243" fill="none"/><line y2="-28990" y1="-28137" x2="-18072" x1="-18072" fill="none"/><line y2="-29700" y1="-29131" x2="-17258" x1="-18243" fill="none"/><line y2="-27993" y1="-27427" x2="-18243" x1="-17258" fill="none"/><line y2="-29131" y1="-29700" x2="-16273" x1="-17258" fill="none"/><line y2="-29056" y1="-29484" x2="-16481" x1="-17220" fill="none"/><line y2="-27427" y1="-27993" x2="-17258" x1="-16273" fill="none"/><line y2="-27643" y1="-28071" x2="-17220" x1="-16481" fill="none"/><line y2="-27993" y1="-29131" x2="-16273" x1="-16273" fill="none"/><line y2="-27580" y1="-27993" x2="-15553" x1="-16273" fill="none"/><text y="-32242" xml:space="preserve" x="-22250" stroke="none" font-size="433.3333" font-family="sans-serif">OH</text><text y="-32242" xml:space="preserve" x="-20285" stroke="none" font-size="433.3333" font-family="sans-serif">O</text><text y="-31148" xml:space="preserve" x="-24139" stroke="none" font-size="433.3333" font-family="sans-serif">O</text><text y="-28952" xml:space="preserve" x="-24139" stroke="none" font-size="433.3333" font-family="sans-serif">OH</text><text y="-27291" xml:space="preserve" x="-15519" stroke="none" font-size="433.3333" font-family="sans-serif">OH</text><text y="-26193" xml:space="preserve" x="-28909" stroke="none" font-size="433.3333" font-family="sans-serif">O</text><text y="-26193" xml:space="preserve" x="-30873" stroke="none" font-size="433.3333" font-family="sans-serif">OH</text><text y="-29486" xml:space="preserve" x="-32762" stroke="none" font-size="433.3333" font-family="sans-serif">OH</text><text y="-28903" xml:space="preserve" x="-20285" stroke="none" font-size="433.3333" font-family="sans-serif">O</text><text y="-29536" xml:space="preserve" x="-28909" stroke="none" font-size="433.3333" font-family="sans-serif">O</text></g></g></svg>