<svg width="218.91" viewBox="0 0 7297 4622" text-rendering="auto" stroke-width="1" stroke-opacity="1" stroke-miterlimit="10" stroke-linejoin="miter" stroke-linecap="square" stroke-dashoffset="0" stroke-dasharray="none" stroke="black" shape-rendering="auto" image-rendering="auto" height="138.66" font-weight="normal" font-style="normal" font-size="12" font-family="'Dialog'" fill-opacity="1" fill="black" color-rendering="auto" color-interpolation="auto" xmlns="http://www.w3.org/2000/svg"><g><g stroke="white" fill="white"><rect y="0" x="0" width="7297" stroke="none" height="4622"/></g><g transform="translate(32866,32866)" text-rendering="geometricPrecision" stroke-width="44" stroke-linejoin="round" stroke-linecap="round"><line y2="-29978" y1="-30578" x2="-30691" x1="-29651" fill="none"/><line y2="-30578" y1="-31558" x2="-29651" x1="-29651" fill="none"/><line y2="-30359" y1="-29978" x2="-31353" x1="-30691" fill="none"/><line y2="-31887" y1="-32378" x2="-29839" x1="-30691" fill="none"/><line y2="-31777" y1="-30798" x2="-31731" x1="-31731" fill="none"/><line y2="-32378" y1="-31777" x2="-30691" x1="-31731" fill="none"/><line y2="-30053" y1="-30578" x2="-28744" x1="-29651" fill="none"/><line y2="-32762" y1="-31777" x2="-32089" x1="-31731" fill="none"/><line y2="-31595" y1="-31777" x2="-32762" x1="-31731" fill="none"/><line y2="-30622" y1="-30053" x2="-27756" x1="-28744" fill="none"/><line y2="-30402" y1="-29978" x2="-27796" x1="-28536" fill="none"/><line y2="-30053" y1="-28917" x2="-28744" x1="-28744" fill="none"/><line y2="-30053" y1="-30622" x2="-26774" x1="-27756" fill="none"/><line y2="-28917" y1="-28348" x2="-28744" x1="-27756" fill="none"/><line y2="-28992" y1="-28565" x2="-28536" x1="-27796" fill="none"/><line y2="-28917" y1="-30053" x2="-26774" x1="-26774" fill="none"/><line y2="-29059" y1="-29911" x2="-26944" x1="-26944" fill="none"/><line y2="-28348" y1="-28917" x2="-27756" x1="-26774" fill="none"/><line y2="-30382" y1="-30053" x2="-26205" x1="-26774" fill="none"/><polygon stroke-width="1" stroke="none" points=" -30691 -29978 -30625 -28929 -30760 -28929"/><polygon stroke-width="1" points=" -30691 -29978 -30625 -28929 -30760 -28929" fill="none"/><polygon stroke-width="1" stroke="none" points=" -29651 -30578 -29582 -29749 -29720 -29749"/><polygon stroke-width="1" points=" -29651 -30578 -29582 -29749 -29720 -29749" fill="none"/><text y="-29351" xml:space="preserve" x="-29804" stroke-width="1" stroke="none" font-size="433.3333" font-family="sans-serif">OH</text><text y="-30399" xml:space="preserve" x="-26098" stroke-width="1" stroke="none" font-size="433.3333" font-family="sans-serif">Cl</text><text y="-31598" xml:space="preserve" x="-29804" stroke-width="1" stroke="none" font-size="433.3333" font-family="sans-serif">O</text><text y="-30399" xml:space="preserve" x="-31884" stroke-width="1" stroke="none" font-size="433.3333" font-family="sans-serif">NH</text></g><g transform="translate(32866,32866)" text-rendering="geometricPrecision" stroke-linejoin="round" stroke-linecap="round" font-style="italic" font-size="313.3333" font-family="sans-serif"><text y="-30541" xml:space="preserve" x="-30050" stroke="none">R</text><text y="-30102" xml:space="preserve" x="-30844" stroke="none">R</text></g></g></svg>