<svg width="130.41" viewBox="0 0 4347 3763" text-rendering="auto" stroke-width="1" stroke-opacity="1" stroke-miterlimit="10" stroke-linejoin="miter" stroke-linecap="square" stroke-dashoffset="0" stroke-dasharray="none" stroke="black" shape-rendering="auto" image-rendering="auto" height="112.89" font-weight="normal" font-style="normal" font-size="12" font-family="'Dialog'" fill-opacity="1" fill="black" color-rendering="auto" color-interpolation="auto" xmlns="http://www.w3.org/2000/svg"><g><g stroke="white" fill="white"><rect y="0" x="0" width="4347" stroke="none" height="3763"/></g><g transform="translate(32866,32758)" text-rendering="geometricPrecision" stroke-width="44" stroke-linejoin="round" stroke-linecap="round"><line y2="-30807" y1="-31376" x2="-29530" x1="-30515" fill="none"/><line y2="-30729" y1="-31156" x2="-29738" x1="-30477" fill="none"/><line y2="-31376" y1="-30807" x2="-30515" x1="-31500" fill="none"/><line y2="-29668" y1="-30807" x2="-29530" x1="-29530" fill="none"/><line y2="-30807" y1="-29668" x2="-31500" x1="-31500" fill="none"/><line y2="-30665" y1="-29810" x2="-31332" x1="-31332" fill="none"/><line y2="-29099" y1="-29668" x2="-30515" x1="-29530" fill="none"/><line y2="-29319" y1="-29744" x2="-30477" x1="-29738" fill="none"/><line y2="-29668" y1="-29099" x2="-31500" x1="-30515" fill="none"/><line y2="-31330" y1="-30807" x2="-28623" x1="-29530" fill="none"/><line y2="-31330" y1="-30807" x2="-32407" x1="-31500" fill="none"/><line y2="-32202" y1="-31376" x2="-30515" x1="-30515" fill="none"/><line y2="-32352" y1="-32352" x2="-31373" x1="-30703" fill="none"/><line y2="-32494" y1="-32494" x2="-31373" x1="-30703" fill="none"/><line y2="-32352" y1="-32352" x2="-32422" x1="-31751" fill="none"/><line y2="-32494" y1="-32494" x2="-32422" x1="-31751" fill="none"/><text y="-32242" xml:space="preserve" x="-30665" stroke="none" font-size="433.3333" font-family="sans-serif">N</text><text y="-32242" xml:space="preserve" x="-31714" stroke="none" font-size="433.3333" font-family="sans-serif">C</text><text y="-32242" xml:space="preserve" x="-32762" stroke="none" font-size="433.3333" font-family="sans-serif">S</text></g></g></svg>