<svg width="174.09" viewBox="0 0 5803 8379" text-rendering="auto" stroke-width="1" stroke-opacity="1" stroke-miterlimit="10" stroke-linejoin="miter" stroke-linecap="square" stroke-dashoffset="0" stroke-dasharray="none" stroke="black" shape-rendering="auto" image-rendering="auto" height="251.37" font-weight="normal" font-style="normal" font-size="12" font-family="'Dialog'" fill-opacity="1" fill="black" color-rendering="auto" color-interpolation="auto" xmlns="http://www.w3.org/2000/svg"><g><g stroke="white" fill="white"><rect y="0" x="0" width="5803" stroke="none" height="8379"/></g><g transform="translate(32866,32758)" text-rendering="geometricPrecision" stroke-width="44" stroke-linejoin="round" stroke-linecap="round"><line y2="-26577" y1="-27184" x2="-29443" x1="-30492" fill="none"/><line y2="-26508" y1="-26962" x2="-29660" x1="-30446" fill="none"/><line y2="-25364" y1="-26577" x2="-29443" x1="-29443" fill="none"/><line y2="-27077" y1="-26577" x2="-28574" x1="-29443" fill="none"/><line y2="-27184" y1="-26687" x2="-30492" x1="-31358" fill="none"/><line y2="-24864" y1="-25364" x2="-30304" x1="-29443" fill="none"/><line y2="-25075" y1="-25448" x2="-30281" x1="-29634" fill="none"/><line y2="-25364" y1="-25364" x2="-29443" x1="-27525" fill="none"/><line y2="-26577" y1="-26967" x2="-27334" x1="-28007" fill="none"/><line y2="-26358" y1="-25364" x2="-31546" x1="-31546" fill="none"/><line y2="-26234" y1="-25488" x2="-31376" x1="-31376" fill="none"/><line y2="-25364" y1="-24864" x2="-31546" x1="-30680" fill="none"/><line y2="-25584" y1="-26577" x2="-27334" x1="-27334" fill="none"/><line y2="-25708" y1="-26453" x2="-27505" x1="-27505" fill="none"/><line y2="-28013" y1="-27184" x2="-30492" x1="-30492" fill="none"/><line y2="-28758" y1="-28342" x2="-31399" x1="-30680" fill="none"/><line y2="-29804" y1="-28758" x2="-31399" x1="-31399" fill="none"/><line y2="-25061" y1="-25364" x2="-32072" x1="-31546" fill="none"/><line y2="-30500" y1="-29804" x2="-32297" x1="-31399" fill="none"/><line y2="-30550" y1="-30027" x2="-32081" x1="-31408" fill="none"/><line y2="-29804" y1="-30362" x2="-31399" x1="-30645" fill="none"/><line y2="-31564" y1="-30500" x2="-31930" x1="-32297" fill="none"/><line y2="-30720" y1="-31564" x2="-30524" x1="-30784" fill="none"/><line y2="-31564" y1="-31564" x2="-30784" x1="-31930" fill="none"/><line y2="-31393" y1="-31393" x2="-30928" x1="-31786" fill="none"/><line y2="-32202" y1="-31564" x2="-32378" x1="-31930" fill="none"/><text y="-28054" xml:space="preserve" x="-30645" stroke="none" font-size="433.3333" font-family="sans-serif">O</text><text y="-24662" xml:space="preserve" x="-32606" stroke="none" font-size="433.3333" font-family="sans-serif">NH</text><text y="-24572" xml:space="preserve" x="-32029" stroke="none" font-size="313.3333" font-family="sans-serif">2</text><text y="-32242" xml:space="preserve" x="-32762" stroke="none" font-size="433.3333" font-family="sans-serif">Br</text><text y="-27005" xml:space="preserve" x="-28539" stroke="none" font-size="433.3333" font-family="sans-serif">NH</text><text y="-26398" xml:space="preserve" x="-31696" stroke="none" font-size="433.3333" font-family="sans-serif">N</text><text y="-24575" xml:space="preserve" x="-30645" stroke="none" font-size="433.3333" font-family="sans-serif">N</text><text y="-25185" xml:space="preserve" x="-27487" stroke="none" font-size="433.3333" font-family="sans-serif">N</text><text y="-30321" xml:space="preserve" x="-30610" stroke="none" font-size="433.3333" font-family="sans-serif">S</text></g></g></svg>