<svg width="177.12" viewBox="0 0 5904 3572" text-rendering="auto" stroke-width="1" stroke-opacity="1" stroke-miterlimit="10" stroke-linejoin="miter" stroke-linecap="square" stroke-dashoffset="0" stroke-dasharray="none" stroke="black" shape-rendering="auto" image-rendering="auto" height="107.16" font-weight="normal" font-style="normal" font-size="12" font-family="'Dialog'" fill-opacity="1" fill="black" color-rendering="auto" color-interpolation="auto" xmlns="http://www.w3.org/2000/svg"><g><g stroke="white" fill="white"><rect y="0" x="0" width="5904" stroke="none" height="3572"/></g><g transform="translate(32866,32758)" text-rendering="geometricPrecision" stroke-width="44" stroke-linejoin="round" stroke-linecap="round"><line y2="-31708" y1="-30278" x2="-30284" x1="-30284" fill="none"/><line y2="-30278" y1="-30278" x2="-30284" x1="-27805" fill="none"/><line y2="-29671" y1="-30278" x2="-31332" x1="-30284" fill="none"/><line y2="-29894" y1="-30347" x2="-31289" x1="-30500" fill="none"/><line y2="-31708" y1="-32422" x2="-30284" x1="-31520" fill="none"/><line y2="-31650" y1="-32188" x2="-30524" x1="-31451" fill="none"/><line y2="-32315" y1="-31708" x2="-29232" x1="-30284" fill="none"/><line y2="-30278" y1="-31488" x2="-27805" x1="-27805" fill="none"/><line y2="-30428" y1="-31335" x2="-27976" x1="-27976" fill="none"/><line y2="-30278" y1="-29671" x2="-32762" x1="-31711" fill="none"/><line y2="-32422" y1="-31708" x2="-31520" x1="-32762" fill="none"/><line y2="-31815" y1="-32202" x2="-27993" x1="-28663" fill="none"/><line y2="-31708" y1="-30278" x2="-32762" x1="-32762" fill="none"/><line y2="-31529" y1="-30457" x2="-32592" x1="-32592" fill="none"/><line y2="-29536" y1="-30278" x2="-27066" x1="-27805" fill="none"/><text y="-29382" xml:space="preserve" x="-31673" stroke="none" font-size="433.3333" font-family="sans-serif">N</text><text y="-32242" xml:space="preserve" x="-29195" stroke="none" font-size="433.3333" font-family="sans-serif">NH</text><text y="-31529" xml:space="preserve" x="-27958" stroke="none" font-size="433.3333" font-family="sans-serif">N</text></g></g></svg>