<svg width="362.85" viewBox="0 0 12095 6010" text-rendering="auto" stroke-width="1" stroke-opacity="1" stroke-miterlimit="10" stroke-linejoin="miter" stroke-linecap="square" stroke-dashoffset="0" stroke-dasharray="none" stroke="black" shape-rendering="auto" image-rendering="auto" height="180.3" font-weight="normal" font-style="normal" font-size="12" font-family="'Dialog'" fill-opacity="1" fill="black" color-rendering="auto" color-interpolation="auto" xmlns="http://www.w3.org/2000/svg"><g><g stroke="white" fill="white"><rect y="0" x="0" width="12095" stroke="none" height="6010"/></g><g transform="translate(32866,32758)" text-rendering="geometricPrecision" stroke-width="44" stroke-linejoin="round" stroke-linecap="round"><line y2="-30703" y1="-30131" x2="-25838" x1="-24856" fill="none"/><line y2="-31850" y1="-30703" x2="-25838" x1="-25838" fill="none"/><line y2="-31705" y1="-30847" x2="-25667" x1="-25667" fill="none"/><line y2="-30131" y1="-30703" x2="-26820" x1="-25838" fill="none"/><line y2="-30131" y1="-30593" x2="-24856" x1="-24061" fill="none"/><line y2="-30336" y1="-30682" x2="-24844" x1="-24246" fill="none"/><line y2="-31850" y1="-32422" x2="-25838" x1="-26820" fill="none"/><line y2="-32312" y1="-31850" x2="-25043" x1="-25838" fill="none"/><line y2="-30703" y1="-30131" x2="-27802" x1="-26820" fill="none"/><line y2="-30778" y1="-30347" x2="-27594" x1="-26858" fill="none"/><line y2="-30922" y1="-31850" x2="-23873" x1="-23873" fill="none"/><line y2="-32422" y1="-31850" x2="-26820" x1="-27802" fill="none"/><line y2="-32205" y1="-31774" x2="-26858" x1="-27594" fill="none"/><line y2="-31850" y1="-32312" x2="-23873" x1="-24668" fill="none"/><line y2="-31760" y1="-32107" x2="-24058" x1="-24656" fill="none"/><line y2="-31850" y1="-30703" x2="-27802" x1="-27802" fill="none"/><line y2="-29302" y1="-30131" x2="-24856" x1="-24856" fill="none"/><line y2="-28559" y1="-28862" x2="-23948" x1="-24477" fill="none"/><line y2="-30399" y1="-30703" x2="-28331" x1="-27802" fill="none"/><line y2="-30703" y1="-30287" x2="-29619" x1="-28900" fill="none"/><line y2="-29128" y1="-28559" x2="-22963" x1="-23948" fill="none"/><line y2="-28909" y1="-28481" x2="-23001" x1="-23740" fill="none"/><line y2="-28559" y1="-27421" x2="-23948" x1="-23948" fill="none"/><line y2="-28559" y1="-29128" x2="-21978" x1="-22963" fill="none"/><line y2="-27421" y1="-26852" x2="-23948" x1="-22963" fill="none"/><line y2="-27499" y1="-27071" x2="-23740" x1="-23001" fill="none"/><line y2="-27421" y1="-28559" x2="-21978" x1="-21978" fill="none"/><line y2="-27562" y1="-28415" x2="-22149" x1="-22149" fill="none"/><line y2="-26852" y1="-27421" x2="-22963" x1="-21978" fill="none"/><line y2="-28886" y1="-28559" x2="-21412" x1="-21978" fill="none"/><line y2="-30703" y1="-30703" x2="-30665" x1="-29619" fill="none"/><line y2="-31532" y1="-30703" x2="-29689" x1="-29689" fill="none"/><line y2="-31532" y1="-30703" x2="-29547" x1="-29547" fill="none"/><line y2="-30703" y1="-30703" x2="-31714" x1="-30665" fill="none"/><line y2="-30613" y1="-30613" x2="-31714" x1="-30665" fill="none"/><line y2="-30792" y1="-30792" x2="-31714" x1="-30665" fill="none"/><line y2="-30703" y1="-30703" x2="-32762" x1="-31714" fill="none"/><text y="-28903" xml:space="preserve" x="-25009" stroke="none" font-size="433.3333" font-family="sans-serif">NH</text><text y="-30001" xml:space="preserve" x="-28862" stroke="none" font-size="433.3333" font-family="sans-serif">NH</text><text y="-31572" xml:space="preserve" x="-29770" stroke="none" font-size="433.3333" font-family="sans-serif">O</text><text y="-28903" xml:space="preserve" x="-21302" stroke="none" font-size="433.3333" font-family="sans-serif">Br</text><text y="-30524" xml:space="preserve" x="-24026" stroke="none" font-size="433.3333" font-family="sans-serif">N</text><text y="-32242" xml:space="preserve" x="-25009" stroke="none" font-size="433.3333" font-family="sans-serif">N</text></g></g></svg>