<svg width="201.24" viewBox="0 0 6708 5834" text-rendering="auto" stroke-width="1" stroke-opacity="1" stroke-miterlimit="10" stroke-linejoin="miter" stroke-linecap="square" stroke-dashoffset="0" stroke-dasharray="none" stroke="black" shape-rendering="auto" image-rendering="auto" height="175.02" font-weight="normal" font-style="normal" font-size="12" font-family="'Dialog'" fill-opacity="1" fill="black" color-rendering="auto" color-interpolation="auto" xmlns="http://www.w3.org/2000/svg"><g><g stroke="white" fill="white"><rect y="0" x="0" width="6708" stroke="none" height="5834"/></g><g transform="translate(32866,32758)" text-rendering="geometricPrecision" stroke-width="44" stroke-linejoin="round" stroke-linecap="round"><line y2="-28732" y1="-29302" x2="-28909" x1="-29891" fill="none"/><line y2="-28657" y1="-29085" x2="-29117" x1="-29853" fill="none"/><line y2="-29302" y1="-28732" x2="-29891" x1="-30879" fill="none"/><line y2="-27594" y1="-28732" x2="-28909" x1="-28909" fill="none"/><line y2="-28732" y1="-27594" x2="-30879" x1="-30879" fill="none"/><line y2="-28591" y1="-27739" x2="-30708" x1="-30708" fill="none"/><line y2="-27028" y1="-27594" x2="-29891" x1="-28909" fill="none"/><line y2="-27245" y1="-27672" x2="-29853" x1="-29117" fill="none"/><line y2="-27594" y1="-27028" x2="-30879" x1="-29891" fill="none"/><line y2="-29258" y1="-28732" x2="-28002" x1="-28909" fill="none"/><line y2="-28732" y1="-29258" x2="-27094" x1="-28002" fill="none"/><line y2="-29258" y1="-28732" x2="-31786" x1="-30879" fill="none"/><line y2="-30630" y1="-29302" x2="-29891" x1="-29891" fill="none"/><line y2="-31376" y1="-30960" x2="-30798" x1="-30079" fill="none"/><line y2="-31376" y1="-30960" x2="-28984" x1="-29703" fill="none"/><line y2="-30960" y1="-31376" x2="-28264" x1="-28984" fill="none"/><line y2="-31376" y1="-30960" x2="-27170" x1="-27889" fill="none"/><line y2="-30850" y1="-31376" x2="-26262" x1="-27170" fill="none"/><line y2="-30850" y1="-31376" x2="-31705" x1="-30798" fill="none"/><line y2="-32202" y1="-31376" x2="-30867" x1="-30867" fill="none"/><line y2="-32202" y1="-31376" x2="-30729" x1="-30729" fill="none"/><line y2="-31156" y1="-30850" x2="-32231" x1="-31705" fill="none"/><line y2="-30024" y1="-30850" x2="-31636" x1="-31636" fill="none"/><line y2="-30024" y1="-30850" x2="-31774" x1="-31774" fill="none"/><text y="-30671" xml:space="preserve" x="-30044" stroke="none" font-size="433.3333" font-family="sans-serif">N</text><text y="-32242" xml:space="preserve" x="-30948" stroke="none" font-size="433.3333" font-family="sans-serif">O</text><text y="-30671" xml:space="preserve" x="-28230" stroke="none" font-size="433.3333" font-family="sans-serif">O</text><text y="-31197" xml:space="preserve" x="-32762" stroke="none" font-size="433.3333" font-family="sans-serif">OH</text><text y="-29625" xml:space="preserve" x="-31855" stroke="none" font-size="433.3333" font-family="sans-serif">O</text></g></g></svg>