<svg width="280.17" viewBox="0 0 9339 7906" text-rendering="auto" stroke-width="1" stroke-opacity="1" stroke-miterlimit="10" stroke-linejoin="miter" stroke-linecap="square" stroke-dashoffset="0" stroke-dasharray="none" stroke="black" shape-rendering="auto" image-rendering="auto" height="237.18" font-weight="normal" font-style="normal" font-size="12" font-family="'Dialog'" fill-opacity="1" fill="black" color-rendering="auto" color-interpolation="auto" xmlns="http://www.w3.org/2000/svg"><g><g stroke="white" fill="white"><rect y="0" x="0" width="9339" stroke="none" height="7906"/></g><g transform="translate(32866,32758)" text-rendering="geometricPrecision" stroke-width="44" stroke-linejoin="round" stroke-linecap="round"><line y2="-28620" y1="-29146" x2="-28825" x1="-27918" fill="none"/><line y2="-28620" y1="-29146" x2="-27011" x1="-27918" fill="none"/><line y2="-30607" y1="-30191" x2="-27198" x1="-27918" fill="none"/><line y2="-29146" y1="-28620" x2="-29732" x1="-28825" fill="none"/><line y2="-27794" y1="-28620" x2="-28756" x1="-28756" fill="none"/><line y2="-27794" y1="-28620" x2="-28894" x1="-28894" fill="none"/><line y2="-28620" y1="-27484" x2="-27011" x1="-27011" fill="none"/><line y2="-28478" y1="-27626" x2="-26840" x1="-26840" fill="none"/><line y2="-29189" y1="-28620" x2="-26023" x1="-27011" fill="none"/><line y2="-27484" y1="-26915" x2="-27011" x1="-26023" fill="none"/><line y2="-28620" y1="-29189" x2="-25040" x1="-26023" fill="none"/><line y2="-28545" y1="-28972" x2="-25248" x1="-25985" fill="none"/><line y2="-26915" y1="-27484" x2="-26023" x1="-25040" fill="none"/><line y2="-27132" y1="-27560" x2="-25985" x1="-25248" fill="none"/><line y2="-27484" y1="-28620" x2="-25040" x1="-25040" fill="none"/><line y2="-26086" y1="-26915" x2="-26023" x1="-26023" fill="none"/><line y2="-25511" y1="-25760" x2="-26641" x1="-26210" fill="none"/><line y2="-27068" y1="-27484" x2="-24321" x1="-25040" fill="none"/><line y2="-29146" y1="-30281" x2="-29732" x1="-29732" fill="none"/><line y2="-29287" y1="-30139" x2="-29902" x1="-29902" fill="none"/><line y2="-28576" y1="-29146" x2="-30720" x1="-29732" fill="none"/><line y2="-30281" y1="-30850" x2="-29732" x1="-30720" fill="none"/><line y2="-29146" y1="-28576" x2="-31702" x1="-30720" fill="none"/><line y2="-29221" y1="-28793" x2="-31494" x1="-30758" fill="none"/><line y2="-30850" y1="-30281" x2="-30720" x1="-31702" fill="none"/><line y2="-30633" y1="-30206" x2="-30758" x1="-31494" fill="none"/><line y2="-30281" y1="-29146" x2="-31702" x1="-31702" fill="none"/><line y2="-31679" y1="-30850" x2="-30720" x1="-30720" fill="none"/><line y2="-32315" y1="-32008" x2="-30001" x1="-30529" fill="none"/><line y2="-30587" y1="-30281" x2="-32231" x1="-31702" fill="none"/><polygon stroke-width="1" stroke="none" points=" -27918 -29146 -27987 -30191 -27848 -30191"/><polygon stroke-width="1" points=" -27918 -29146 -27987 -30191 -27848 -30191" fill="none"/><text y="-27395" xml:space="preserve" x="-28978" stroke-width="1" stroke="none" font-size="433.3333" font-family="sans-serif">O</text><text y="-30538" xml:space="preserve" x="-27164" stroke-width="1" stroke="none" font-size="433.3333" font-family="sans-serif">OH</text><text y="-25688" xml:space="preserve" x="-26176" stroke-width="1" stroke="none" font-size="433.3333" font-family="sans-serif">O</text><text y="-25113" xml:space="preserve" x="-27172" stroke-width="1" stroke="none" font-size="433.3333" font-family="sans-serif">CH</text><text y="-25023" xml:space="preserve" x="-26595" stroke-width="1" stroke="none" font-size="313.3333" font-family="sans-serif">3</text><text y="-26780" xml:space="preserve" x="-24286" stroke-width="1" stroke="none" font-size="433.3333" font-family="sans-serif">OH</text><text y="-31720" xml:space="preserve" x="-30870" stroke-width="1" stroke="none" font-size="433.3333" font-family="sans-serif">O</text><text y="-32242" xml:space="preserve" x="-29963" stroke-width="1" stroke="none" font-size="433.3333" font-family="sans-serif">CH</text><text y="-32153" xml:space="preserve" x="-29385" stroke-width="1" stroke="none" font-size="313.3333" font-family="sans-serif">3</text><text y="-30628" xml:space="preserve" x="-32762" stroke-width="1" stroke="none" font-size="433.3333" font-family="sans-serif">OH</text></g><g transform="translate(32866,32758)" text-rendering="geometricPrecision" stroke-linejoin="round" stroke-linecap="round" font-style="italic" font-size="313.3333" font-family="sans-serif"><text y="-28663" xml:space="preserve" x="-28071" stroke="none">R</text></g></g></svg>