<svg width="502.53" viewBox="0 0 16751 8312" text-rendering="auto" stroke-width="1" stroke-opacity="1" stroke-miterlimit="10" stroke-linejoin="miter" stroke-linecap="square" stroke-dashoffset="0" stroke-dasharray="none" stroke="black" shape-rendering="auto" image-rendering="auto" height="249.36" font-weight="normal" font-style="normal" font-size="12" font-family="'Dialog'" fill-opacity="1" fill="black" color-rendering="auto" color-interpolation="auto" xmlns="http://www.w3.org/2000/svg"><g><g stroke="white" fill="white"><rect y="0" x="0" width="16751" stroke="none" height="8312"/></g><g transform="translate(32866,32758)" text-rendering="geometricPrecision" stroke-width="44" stroke-linejoin="round" stroke-linecap="round"><line y2="-27574" y1="-28143" x2="-23229" x1="-24211" fill="none"/><line y2="-26436" y1="-27574" x2="-23229" x1="-23229" fill="none"/><line y2="-28143" y1="-27574" x2="-24211" x1="-25199" fill="none"/><line y2="-25867" y1="-26436" x2="-24211" x1="-23229" fill="none"/><line y2="-27574" y1="-26436" x2="-25199" x1="-25199" fill="none"/><line y2="-26436" y1="-25867" x2="-25199" x1="-24211" fill="none"/><line y2="-27990" y1="-27574" x2="-22510" x1="-23229" fill="none"/><line y2="-29146" y1="-28316" x2="-22322" x1="-22322" fill="none"/><line y2="-27574" y1="-27990" x2="-27014" x1="-26294" fill="none"/><line y2="-29668" y1="-29146" x2="-21415" x1="-22322" fill="none"/><line y2="-29501" y1="-29085" x2="-23076" x1="-22357" fill="none"/><line y2="-29622" y1="-29206" x2="-23007" x1="-22287" fill="none"/><line y2="-28097" y1="-27574" x2="-27921" x1="-27014" fill="none"/><line y2="-26745" y1="-27574" x2="-26941" x1="-26941" fill="none"/><line y2="-26745" y1="-27574" x2="-27083" x1="-27083" fill="none"/><line y2="-27467" y1="-27051" x2="-21603" x1="-22322" fill="none"/><line y2="-26222" y1="-27051" x2="-22250" x1="-22250" fill="none"/><line y2="-26222" y1="-27011" x2="-22391" x1="-22391" fill="none"/><line y2="-29146" y1="-29668" x2="-20508" x1="-21415" fill="none"/><line y2="-29091" y1="-29484" x2="-20690" x1="-21372" fill="none"/><line y2="-27574" y1="-28097" x2="-28828" x1="-27921" fill="none"/><line y2="-27519" y1="-27912" x2="-28643" x1="-27964" fill="none"/><line y2="-29668" y1="-29146" x2="-19601" x1="-20508" fill="none"/><line y2="-28097" y1="-27574" x2="-29735" x1="-28828" fill="none"/><line y2="-30807" y1="-29668" x2="-19601" x1="-19601" fill="none"/><line y2="-30665" y1="-29810" x2="-19430" x1="-19430" fill="none"/><line y2="-29668" y1="-29099" x2="-19601" x1="-18613" fill="none"/><line y2="-31376" y1="-30807" x2="-18613" x1="-19601" fill="none"/><line y2="-29099" y1="-29668" x2="-18613" x1="-17630" fill="none"/><line y2="-29319" y1="-29744" x2="-18575" x1="-17838" fill="none"/><line y2="-30807" y1="-31376" x2="-17630" x1="-18613" fill="none"/><line y2="-30729" y1="-31156" x2="-17838" x1="-18575" fill="none"/><line y2="-29668" y1="-30807" x2="-17630" x1="-17630" fill="none"/><line y2="-32202" y1="-31376" x2="-18613" x1="-18613" fill="none"/><line y2="-31223" y1="-30807" x2="-16911" x1="-17630" fill="none"/><line y2="-28097" y1="-29235" x2="-29735" x1="-29735" fill="none"/><line y2="-28241" y1="-29094" x2="-29905" x1="-29905" fill="none"/><line y2="-27531" y1="-28097" x2="-30720" x1="-29735" fill="none"/><line y2="-29235" y1="-29804" x2="-29735" x1="-30720" fill="none"/><line y2="-28097" y1="-27531" x2="-31705" x1="-30720" fill="none"/><line y2="-28175" y1="-27747" x2="-31497" x1="-30758" fill="none"/><line y2="-29804" y1="-29235" x2="-30720" x1="-31705" fill="none"/><line y2="-29588" y1="-29160" x2="-30758" x1="-31497" fill="none"/><line y2="-29235" y1="-28097" x2="-31705" x1="-31705" fill="none"/><line y2="-30633" y1="-29804" x2="-30720" x1="-30720" fill="none"/><line y2="-29538" y1="-29235" x2="-32231" x1="-31705" fill="none"/><polygon stroke-width="1" stroke="none" points=" -24211 -25867 -24142 -25040 -24281 -25038"/><polygon stroke-width="1" points=" -24211 -25867 -24142 -25040 -24281 -25038" fill="none"/><polygon stroke-width="1" stroke="none" points=" -25199 -26436 -25690 -26072 -25760 -26190"/><polygon stroke-width="1" points=" -25199 -26436 -25690 -26072 -25760 -26190" fill="none"/><line y2="-28048" y1="-27929" x2="-25881" x1="-25950" fill="none"/><line y2="-27924" y1="-27836" x2="-25702" x1="-25753" fill="none"/><line y2="-27800" y1="-27743" x2="-25524" x1="-25557" fill="none"/><line y2="-27676" y1="-27650" x2="-25345" x1="-25360" fill="none"/><line y2="-26990" y1="-27109" x2="-22354" x1="-22287" fill="none"/><line y2="-27111" y1="-27205" x2="-22535" x1="-22482" fill="none"/><line y2="-27231" y1="-27301" x2="-22715" x1="-22676" fill="none"/><line y2="-27352" y1="-27397" x2="-22896" x1="-22871" fill="none"/><line y2="-27472" y1="-27493" x2="-23077" x1="-23065" fill="none"/><text y="-27918" xml:space="preserve" x="-22475" stroke="none" font-size="433.3333" font-family="sans-serif">O</text><text y="-29489" xml:space="preserve" x="-23382" stroke="none" font-size="433.3333" font-family="sans-serif">O</text><text y="-27395" xml:space="preserve" x="-21565" stroke="none" font-size="433.3333" font-family="sans-serif">OH</text><text y="-25823" xml:space="preserve" x="-22472" stroke="none" font-size="433.3333" font-family="sans-serif">O</text><text y="-27918" xml:space="preserve" x="-26257" stroke="none" font-size="433.3333" font-family="sans-serif">O</text><text y="-26346" xml:space="preserve" x="-27164" stroke="none" font-size="433.3333" font-family="sans-serif">O</text><text y="-24642" xml:space="preserve" x="-24364" stroke="none" font-size="433.3333" font-family="sans-serif">OH</text><text y="-25734" xml:space="preserve" x="-26257" stroke="none" font-size="433.3333" font-family="sans-serif">OH</text><text y="-32242" xml:space="preserve" x="-18766" stroke="none" font-size="433.3333" font-family="sans-serif">OH</text><text y="-31150" xml:space="preserve" x="-16874" stroke="none" font-size="433.3333" font-family="sans-serif">OH</text><text y="-30674" xml:space="preserve" x="-30873" stroke="none" font-size="433.3333" font-family="sans-serif">OH</text><text y="-29579" xml:space="preserve" x="-32762" stroke="none" font-size="433.3333" font-family="sans-serif">OH</text><text y="-27695" xml:space="preserve" x="-23379" stroke="none" font-style="italic" font-size="313.3333" font-family="sans-serif">S</text><text y="-27250" xml:space="preserve" x="-25101" stroke="none" font-style="italic" font-size="313.3333" font-family="sans-serif">R</text><text y="-25991" xml:space="preserve" x="-24364" stroke="none" font-style="italic" font-size="313.3333" font-family="sans-serif">R</text><text y="-26401" xml:space="preserve" x="-25101" stroke="none" font-style="italic" font-size="313.3333" font-family="sans-serif">R</text></g></g></svg>