<svg width="423.39" viewBox="0 0 14113 5686" text-rendering="auto" stroke-width="1" stroke-opacity="1" stroke-miterlimit="10" stroke-linejoin="miter" stroke-linecap="square" stroke-dashoffset="0" stroke-dasharray="none" stroke="black" shape-rendering="auto" image-rendering="auto" height="170.58" font-weight="normal" font-style="normal" font-size="12" font-family="'Dialog'" fill-opacity="1" fill="black" color-rendering="auto" color-interpolation="auto" xmlns="http://www.w3.org/2000/svg"><g><g stroke="white" fill="white"><rect y="0" x="0" width="14113" stroke="none" height="5686"/></g><g transform="translate(32866,32758)" text-rendering="geometricPrecision" stroke-width="44" stroke-linejoin="round" stroke-linecap="round"><line y2="-29068" y1="-28510" x2="-27164" x1="-27918" fill="none"/><line y2="-28510" y1="-27447" x2="-27918" x1="-27588" fill="none"/><line y2="-28426" y1="-27632" x2="-27713" x1="-27467" fill="none"/><line y2="-28510" y1="-29062" x2="-26075" x1="-26788" fill="none"/><line y2="-28446" y1="-28860" x2="-26268" x1="-26803" fill="none"/><line y2="-27447" y1="-27447" x2="-27588" x1="-26632" fill="none"/><line y2="-27666" y1="-28510" x2="-26366" x1="-26075" fill="none"/><line y2="-28926" y1="-28510" x2="-25355" x1="-26075" fill="none"/><line y2="-28568" y1="-28816" x2="-24359" x1="-24789" fill="none"/><line y2="-29036" y1="-28510" x2="-28825" x1="-27918" fill="none"/><line y2="-28984" y1="-28568" x2="-23264" x1="-23983" fill="none"/><line y2="-27805" y1="-28273" x2="-23714" x1="-23983" fill="none"/><line y2="-27736" y1="-28204" x2="-23836" x1="-24104" fill="none"/><line y2="-27736" y1="-28204" x2="-24506" x1="-24237" fill="none"/><line y2="-27805" y1="-28273" x2="-24627" x1="-24359" fill="none"/><line y2="-28467" y1="-29036" x2="-29813" x1="-28825" fill="none"/><line y2="-28683" y1="-29111" x2="-29772" x1="-29033" fill="none"/><line y2="-29036" y1="-30171" x2="-28825" x1="-28825" fill="none"/><line y2="-29036" y1="-28467" x2="-30795" x1="-29813" fill="none"/><line y2="-30171" y1="-30740" x2="-28825" x1="-29813" fill="none"/><line y2="-30096" y1="-30524" x2="-29033" x1="-29772" fill="none"/><line y2="-30171" y1="-29036" x2="-30795" x1="-30795" fill="none"/><line y2="-30030" y1="-29177" x2="-30625" x1="-30625" fill="none"/><line y2="-30740" y1="-30171" x2="-29813" x1="-30795" fill="none"/><line y2="-28620" y1="-29036" x2="-31514" x1="-30795" fill="none"/><line y2="-30119" y1="-28984" x2="-23264" x1="-23264" fill="none"/><line y2="-29978" y1="-29125" x2="-23093" x1="-23093" fill="none"/><line y2="-28984" y1="-28415" x2="-23264" x1="-22276" fill="none"/><line y2="-30688" y1="-30119" x2="-22276" x1="-23264" fill="none"/><line y2="-28415" y1="-28984" x2="-22276" x1="-21294" fill="none"/><line y2="-28631" y1="-29059" x2="-22238" x1="-21502" fill="none"/><line y2="-30119" y1="-30688" x2="-21294" x1="-22276" fill="none"/><line y2="-30044" y1="-30472" x2="-21502" x1="-22238" fill="none"/><line y2="-28984" y1="-30119" x2="-21294" x1="-21294" fill="none"/><line y2="-31517" y1="-30688" x2="-22276" x1="-22276" fill="none"/><line y2="-32092" y1="-31844" x2="-22894" x1="-22464" fill="none"/><line y2="-30535" y1="-30119" x2="-20574" x1="-21294" fill="none"/><line y2="-30229" y1="-30535" x2="-19667" x1="-20199" fill="none"/><line y2="-27684" y1="-28290" x2="-31633" x1="-31633" fill="none"/><line y2="-27684" y1="-28290" x2="-31772" x1="-31772" fill="none"/><line y2="-28865" y1="-28559" x2="-32456" x1="-31925" fill="none"/><line y2="-28987" y1="-28680" x2="-32387" x1="-31855" fill="none"/><text y="-28857" xml:space="preserve" x="-25321" stroke="none" font-size="433.3333" font-family="sans-serif">NH</text><text y="-28279" xml:space="preserve" x="-24324" stroke="none" font-size="433.3333" font-family="sans-serif">S</text><text y="-27372" xml:space="preserve" x="-23798" stroke="none" font-size="433.3333" font-family="sans-serif">O</text><text y="-27372" xml:space="preserve" x="-24847" stroke="none" font-size="433.3333" font-family="sans-serif">O</text><text y="-28331" xml:space="preserve" x="-31855" stroke="none" font-size="433.3333" font-family="sans-serif">N</text><text y="-27285" xml:space="preserve" x="-31855" stroke="none" font-size="433.3333" font-family="sans-serif">O</text><text y="-28857" xml:space="preserve" x="-32762" stroke="none" font-size="433.3333" font-family="sans-serif">O</text><text y="-31558" xml:space="preserve" x="-22429" stroke="none" font-size="433.3333" font-family="sans-serif">O</text><text y="-32242" xml:space="preserve" x="-23616" stroke="none" font-size="433.3333" font-family="sans-serif">CH</text><text y="-32153" xml:space="preserve" x="-23038" stroke="none" font-size="313.3333" font-family="sans-serif">3</text><text y="-30466" xml:space="preserve" x="-20540" stroke="none" font-size="433.3333" font-family="sans-serif">O</text><text y="-29940" xml:space="preserve" x="-19632" stroke="none" font-size="433.3333" font-family="sans-serif">CH</text><text y="-29850" xml:space="preserve" x="-19055" stroke="none" font-size="313.3333" font-family="sans-serif">3</text><text y="-29027" xml:space="preserve" x="-27129" stroke="none" font-size="433.3333" font-family="sans-serif">N</text><text y="-27268" xml:space="preserve" x="-26595" stroke="none" font-size="433.3333" font-family="sans-serif">S</text></g></g></svg>