<svg width="166.53" viewBox="0 0 5551 2894" text-rendering="auto" stroke-width="1" stroke-opacity="1" stroke-miterlimit="10" stroke-linejoin="miter" stroke-linecap="square" stroke-dashoffset="0" stroke-dasharray="none" stroke="black" shape-rendering="auto" image-rendering="auto" height="86.82" font-weight="normal" font-style="normal" font-size="12" font-family="'Dialog'" fill-opacity="1" fill="black" color-rendering="auto" color-interpolation="auto" xmlns="http://www.w3.org/2000/svg"><g><g stroke="white" fill="white"><rect y="0" x="0" width="5551" stroke="none" height="2894"/></g><g transform="translate(32866,32758)" text-rendering="geometricPrecision" stroke-width="44" stroke-linejoin="round" stroke-linecap="round"><line y2="-30833" y1="-31896" x2="-31286" x1="-30919" fill="none"/><line y2="-31896" y1="-32592" x2="-30919" x1="-31818" fill="none"/><line y2="-31850" y1="-32370" x2="-31136" x1="-31809" fill="none"/><line y2="-30833" y1="-30833" x2="-32433" x1="-31286" fill="none"/><line y2="-32592" y1="-31896" x2="-31818" x1="-32762" fill="none"/><line y2="-31896" y1="-30833" x2="-32762" x1="-32433" fill="none"/><line y2="-32312" y1="-31896" x2="-30200" x1="-30919" fill="none"/><line y2="-32049" y1="-32312" x2="-29368" x1="-29824" fill="none"/><line y2="-32312" y1="-32049" x2="-28233" x1="-28686" fill="none"/><line y2="-30524" y1="-31633" x2="-29027" x1="-29027" fill="none"/><line y2="-31393" y1="-31656" x2="-28233" x1="-28686" fill="none"/><text y="-32240" xml:space="preserve" x="-30165" stroke="none" font-size="433.3333" font-family="sans-serif">O</text><text y="-31673" xml:space="preserve" x="-29261" stroke="none" font-size="433.3333" font-family="sans-serif">Si</text><text y="-32242" xml:space="preserve" x="-28195" stroke="none" font-size="433.3333" font-family="sans-serif">CH</text><text y="-32153" xml:space="preserve" x="-27617" stroke="none" font-size="313.3333" font-family="sans-serif">3</text><text y="-30125" xml:space="preserve" x="-29180" stroke="none" font-size="433.3333" font-family="sans-serif">CH</text><text y="-30035" xml:space="preserve" x="-28602" stroke="none" font-size="313.3333" font-family="sans-serif">3</text><text y="-31104" xml:space="preserve" x="-28195" stroke="none" font-size="433.3333" font-family="sans-serif">CH</text><text y="-31015" xml:space="preserve" x="-27617" stroke="none" font-size="313.3333" font-family="sans-serif">3</text></g></g></svg>