<svg width="183.45" viewBox="0 0 6115 3716" text-rendering="auto" stroke-width="1" stroke-opacity="1" stroke-miterlimit="10" stroke-linejoin="miter" stroke-linecap="square" stroke-dashoffset="0" stroke-dasharray="none" stroke="black" shape-rendering="auto" image-rendering="auto" height="111.48" font-weight="normal" font-style="normal" font-size="12" font-family="'Dialog'" fill-opacity="1" fill="black" color-rendering="auto" color-interpolation="auto" xmlns="http://www.w3.org/2000/svg"><g><g stroke="white" fill="white"><rect y="0" x="0" width="6115" stroke="none" height="3716"/></g><g transform="translate(32866,32758)" text-rendering="geometricPrecision" stroke-width="44" stroke-linejoin="round" stroke-linecap="round"><line y2="-29715" y1="-30850" x2="-28825" x1="-28825" fill="none"/><line y2="-30850" y1="-31419" x2="-28825" x1="-29810" fill="none"/><line y2="-30775" y1="-31202" x2="-29033" x1="-29772" fill="none"/><line y2="-31312" y1="-30850" x2="-28028" x1="-28825" fill="none"/><line y2="-29715" y1="-29715" x2="-28825" x1="-26855" fill="none"/><line y2="-29146" y1="-29715" x2="-29810" x1="-28825" fill="none"/><line y2="-29362" y1="-29790" x2="-29772" x1="-29033" fill="none"/><line y2="-31419" y1="-30850" x2="-29810" x1="-30795" fill="none"/><line y2="-30850" y1="-31312" x2="-26855" x1="-27649" fill="none"/><line y2="-29715" y1="-30850" x2="-26855" x1="-26855" fill="none"/><line y2="-29856" y1="-30708" x2="-27025" x1="-27025" fill="none"/><line y2="-29715" y1="-29146" x2="-30795" x1="-29810" fill="none"/><line y2="-30850" y1="-29715" x2="-30795" x1="-30795" fill="none"/><line y2="-30708" y1="-29856" x2="-30628" x1="-30628" fill="none"/><line y2="-31266" y1="-30850" x2="-31514" x1="-30795" fill="none"/><line y2="-32006" y1="-31595" x2="-28383" x1="-28065" fill="none"/><line y2="-32089" y1="-31682" x2="-28273" x1="-27955" fill="none"/><line y2="-32060" y1="-31682" x2="-27375" x1="-27704" fill="none"/><line y2="-31968" y1="-31590" x2="-27271" x1="-27597" fill="none"/><line y2="-32202" y1="-31595" x2="-31774" x1="-31774" fill="none"/><line y2="-32202" y1="-31595" x2="-31633" x1="-31633" fill="none"/><line y2="-30899" y1="-31205" x2="-32387" x1="-31855" fill="none"/><line y2="-31020" y1="-31327" x2="-32456" x1="-31928" fill="none"/><text y="-32086" xml:space="preserve" x="-28652" stroke="none" font-size="433.3333" font-family="sans-serif">O</text><text y="-32049" xml:space="preserve" x="-27288" stroke="none" font-size="433.3333" font-family="sans-serif">O</text><text y="-31197" xml:space="preserve" x="-31855" stroke="none" font-size="433.3333" font-family="sans-serif">N</text><text y="-32242" xml:space="preserve" x="-31855" stroke="none" font-size="433.3333" font-family="sans-serif">O</text><text y="-30671" xml:space="preserve" x="-32762" stroke="none" font-size="433.3333" font-family="sans-serif">O</text><text y="-31240" xml:space="preserve" x="-27990" stroke="none" font-size="433.3333" font-family="sans-serif">S</text></g></g></svg>