<svg width="214.47" viewBox="0 0 7149 3988" text-rendering="auto" stroke-width="1" stroke-opacity="1" stroke-miterlimit="10" stroke-linejoin="miter" stroke-linecap="square" stroke-dashoffset="0" stroke-dasharray="none" stroke="black" shape-rendering="auto" image-rendering="auto" height="119.64" font-weight="normal" font-style="normal" font-size="12" font-family="'Dialog'" fill-opacity="1" fill="black" color-rendering="auto" color-interpolation="auto" xmlns="http://www.w3.org/2000/svg"><g><g stroke="white" fill="white"><rect y="0" x="0" width="7149" stroke="none" height="3988"/></g><g transform="translate(32866,32758)" text-rendering="geometricPrecision" stroke-width="44" stroke-linejoin="round" stroke-linecap="round"><line y2="-31330" y1="-31330" x2="-32762" x1="-31616" fill="none"/><line y2="-31330" y1="-32092" x2="-31616" x1="-32060" fill="none"/><line y2="-32092" y1="-31330" x2="-32318" x1="-32762" fill="none"/><line y2="-30807" y1="-31330" x2="-30708" x1="-31616" fill="none"/><line y2="-31223" y1="-30807" x2="-29989" x1="-30708" fill="none"/><line y2="-30807" y1="-31223" x2="-28894" x1="-29614" fill="none"/><line y2="-31376" y1="-30807" x2="-27909" x1="-28894" fill="none"/><line y2="-31156" y1="-30729" x2="-27947" x1="-28686" fill="none"/><line y2="-30807" y1="-29668" x2="-28894" x1="-28894" fill="none"/><line y2="-30807" y1="-31376" x2="-26924" x1="-27909" fill="none"/><line y2="-29668" y1="-29099" x2="-28894" x1="-27909" fill="none"/><line y2="-29744" y1="-29319" x2="-28686" x1="-27947" fill="none"/><line y2="-29668" y1="-30807" x2="-26924" x1="-26924" fill="none"/><line y2="-29810" y1="-30665" x2="-27094" x1="-27094" fill="none"/><line y2="-29099" y1="-29668" x2="-27909" x1="-26924" fill="none"/><line y2="-32202" y1="-31376" x2="-27909" x1="-27909" fill="none"/><line y2="-29342" y1="-29668" x2="-26355" x1="-26924" fill="none"/><text y="-31150" xml:space="preserve" x="-29954" stroke="none" font-size="433.3333" font-family="sans-serif">O</text><text y="-32242" xml:space="preserve" x="-28143" stroke="none" font-size="433.3333" font-family="sans-serif">Br</text><text y="-28966" xml:space="preserve" x="-26248" stroke="none" font-size="433.3333" font-family="sans-serif">Br</text><text y="-32133" xml:space="preserve" x="-32341" stroke="none" font-size="433.3333" font-family="sans-serif">O</text></g></g></svg>