<svg width="481.41" viewBox="0 0 16047 6507" text-rendering="auto" stroke-width="1" stroke-opacity="1" stroke-miterlimit="10" stroke-linejoin="miter" stroke-linecap="square" stroke-dashoffset="0" stroke-dasharray="none" stroke="black" shape-rendering="auto" image-rendering="auto" height="195.21" font-weight="normal" font-style="normal" font-size="12" font-family="'Dialog'" fill-opacity="1" fill="black" color-rendering="auto" color-interpolation="auto" xmlns="http://www.w3.org/2000/svg"><g><g stroke="white" fill="white"><rect y="0" x="0" width="16047" stroke="none" height="6507"/></g><g transform="translate(32866,32758)" text-rendering="geometricPrecision" stroke-width="44" stroke-linejoin="round" stroke-linecap="round"><line y2="-29787" y1="-29787" x2="-24009" x1="-25055" fill="none"/><line y2="-29648" y1="-29648" x2="-24139" x1="-24925" fill="none"/><line y2="-29264" y1="-29787" x2="-25962" x1="-25055" fill="none"/><line y2="-30850" y1="-29787" x2="-23639" x1="-24009" fill="none"/><line y2="-29787" y1="-29235" x2="-24009" x1="-23296" fill="none"/><line y2="-30850" y1="-30850" x2="-22492" x1="-23639" fill="none"/><line y2="-30680" y1="-30680" x2="-22637" x1="-23498" fill="none"/><line y2="-29229" y1="-29787" x2="-22920" x1="-22166" fill="none"/><line y2="-29437" y1="-29853" x2="-22926" x1="-22360" fill="none"/><line y2="-29787" y1="-30850" x2="-22166" x1="-22492" fill="none"/><line y2="-29264" y1="-29787" x2="-21259" x1="-22166" fill="none"/><line y2="-31376" y1="-30850" x2="-24546" x1="-23639" fill="none"/><line y2="-30850" y1="-31376" x2="-25454" x1="-24546" fill="none"/><line y2="-31376" y1="-30850" x2="-26361" x1="-25454" fill="none"/><line y2="-31699" y1="-30850" x2="-21877" x1="-22492" fill="none"/><line y2="-28198" y1="-29264" x2="-26332" x1="-25962" fill="none"/><line y2="-28389" y1="-29186" x2="-26447" x1="-26170" fill="none"/><line y2="-29264" y1="-29741" x2="-25962" x1="-26580" fill="none"/><line y2="-28198" y1="-28198" x2="-27479" x1="-26332" fill="none"/><line y2="-29822" y1="-29264" x2="-27051" x1="-27805" fill="none"/><line y2="-29264" y1="-28198" x2="-27805" x1="-27479" fill="none"/><line y2="-29180" y1="-28383" x2="-27600" x1="-27354" fill="none"/><line y2="-29787" y1="-29264" x2="-28712" x1="-27805" fill="none"/><line y2="-27675" y1="-28198" x2="-25425" x1="-26332" fill="none"/><line y2="-28198" y1="-27675" x2="-24518" x1="-25425" fill="none"/><line y2="-27675" y1="-28198" x2="-23610" x1="-24518" fill="none"/><line y2="-27352" y1="-28198" x2="-28094" x1="-27479" fill="none"/><line y2="-29264" y1="-29264" x2="-20210" x1="-21259" fill="none"/><line y2="-29125" y1="-29125" x2="-20340" x1="-21129" fill="none"/><line y2="-31070" y1="-31376" x2="-26889" x1="-26361" fill="none"/><line y2="-32202" y1="-31376" x2="-26430" x1="-26430" fill="none"/><line y2="-32202" y1="-31376" x2="-26291" x1="-26291" fill="none"/><line y2="-29787" y1="-29787" x2="-29761" x1="-28712" fill="none"/><line y2="-29648" y1="-29648" x2="-29628" x1="-28842" fill="none"/><line y2="-28091" y1="-27675" x2="-22891" x1="-23610" fill="none"/><line y2="-26846" y1="-27675" x2="-23538" x1="-23538" fill="none"/><line y2="-26846" y1="-27675" x2="-23680" x1="-23680" fill="none"/><line y2="-29264" y1="-28198" x2="-20210" x1="-19884" fill="none"/><line y2="-29822" y1="-29264" x2="-19456" x1="-20210" fill="none"/><line y2="-28198" y1="-28198" x2="-19884" x1="-18737" fill="none"/><line y2="-28368" y1="-28368" x2="-19739" x1="-18881" fill="none"/><line y2="-29264" y1="-29741" x2="-18367" x1="-18985" fill="none"/><line y2="-28198" y1="-29264" x2="-18737" x1="-18367" fill="none"/><line y2="-27675" y1="-28198" x2="-17830" x1="-18737" fill="none"/><line y2="-28198" y1="-27675" x2="-16923" x1="-17830" fill="none"/><line y2="-27352" y1="-28198" x2="-20499" x1="-19884" fill="none"/><line y2="-29564" y1="-29330" x2="-17567" x1="-18387" fill="none"/><line y2="-29432" y1="-29195" x2="-17529" x1="-18350" fill="none"/><line y2="-29787" y1="-30850" x2="-29761" x1="-30087" fill="none"/><line y2="-29310" y1="-29787" x2="-30405" x1="-29761" fill="none"/><line y2="-30850" y1="-30850" x2="-30087" x1="-31234" fill="none"/><line y2="-29787" y1="-29235" x2="-31601" x1="-30890" fill="none"/><line y2="-30850" y1="-29787" x2="-31234" x1="-31601" fill="none"/><line y2="-31376" y1="-30850" x2="-29180" x1="-30087" fill="none"/><line y2="-31188" y1="-30795" x2="-29224" x1="-29905" fill="none"/><line y2="-29486" y1="-29720" x2="-32404" x1="-31584" fill="none"/><line y2="-29619" y1="-29853" x2="-32442" x1="-31621" fill="none"/><line y2="-32422" y1="-31376" x2="-29180" x1="-29180" fill="none"/><line y2="-31748" y1="-31668" x2="-31777" x1="-31890" fill="none"/><line y2="-31562" y1="-31499" x2="-31665" x1="-31754" fill="none"/><line y2="-31376" y1="-31329" x2="-31552" x1="-31618" fill="none"/><line y2="-31190" y1="-31160" x2="-31440" x1="-31483" fill="none"/><line y2="-31004" y1="-30991" x2="-31327" x1="-31347" fill="none"/><text y="-28019" xml:space="preserve" x="-22854" stroke="none" font-size="433.3333" font-family="sans-serif">OH</text><text y="-26447" xml:space="preserve" x="-23761" stroke="none" font-size="433.3333" font-family="sans-serif">O</text><text y="-30671" xml:space="preserve" x="-27421" stroke="none" font-size="433.3333" font-family="sans-serif">OH</text><text y="-32242" xml:space="preserve" x="-26514" stroke="none" font-size="433.3333" font-family="sans-serif">O</text><text y="-29319" xml:space="preserve" x="-32762" stroke="none" font-size="433.3333" font-family="sans-serif">O</text><text y="-29374" xml:space="preserve" x="-17512" stroke="none" font-size="433.3333" font-family="sans-serif">O</text><text y="-29781" xml:space="preserve" x="-27016" stroke="none" font-size="433.3333" font-family="sans-serif">NH</text><text y="-28912" xml:space="preserve" x="-23261" stroke="none" font-size="433.3333" font-family="sans-serif">N</text><text y="-28912" xml:space="preserve" x="-30856" stroke="none" font-size="433.3333" font-family="sans-serif">NH</text><text y="-29781" xml:space="preserve" x="-19422" stroke="none" font-size="433.3333" font-family="sans-serif">NH</text><text y="-29143" xml:space="preserve" x="-24685" stroke="none" font-style="italic" font-size="313.3333" font-family="sans-serif">Z</text><text y="-29143" xml:space="preserve" x="-29388" stroke="none" font-style="italic" font-size="313.3333" font-family="sans-serif">Z</text><text y="-29481" xml:space="preserve" x="-20886" stroke="none" font-style="italic" font-size="313.3333" font-family="sans-serif">Z</text><text y="-31321" xml:space="preserve" x="-30009" stroke="none" font-style="italic" font-size="313.3333" font-family="sans-serif">E</text><text y="-30385" xml:space="preserve" x="-31153" stroke="none" font-style="italic" font-size="313.3333" font-family="sans-serif">R</text></g></g></svg>