<svg width="330.21" viewBox="0 0 11007 7356" text-rendering="auto" stroke-width="1" stroke-opacity="1" stroke-miterlimit="10" stroke-linejoin="miter" stroke-linecap="square" stroke-dashoffset="0" stroke-dasharray="none" stroke="black" shape-rendering="auto" image-rendering="auto" height="220.68" font-weight="normal" font-style="normal" font-size="12" font-family="'Dialog'" fill-opacity="1" fill="black" color-rendering="auto" color-interpolation="auto" xmlns="http://www.w3.org/2000/svg"><g><g stroke="white" fill="white"><rect y="0" x="0" width="11007" stroke="none" height="7356"/></g><g transform="translate(32866,32758)" text-rendering="geometricPrecision" stroke-width="44" stroke-linejoin="round" stroke-linecap="round"><line y2="-30255" y1="-30717" x2="-29616" x1="-28819" fill="none"/><line y2="-30717" y1="-30255" x2="-30789" x1="-29992" fill="none"/><line y2="-31855" y1="-30717" x2="-28819" x1="-28819" fill="none"/><line y2="-30717" y1="-30148" x2="-28819" x1="-27834" fill="none"/><line y2="-30792" y1="-30368" x2="-28611" x1="-27872" fill="none"/><line y2="-31855" y1="-30717" x2="-30789" x1="-30789" fill="none"/><line y2="-30148" y1="-30717" x2="-31774" x1="-30789" fill="none"/><line y2="-30365" y1="-30792" x2="-31737" x1="-30997" fill="none"/><line y2="-31855" y1="-32315" x2="-28819" x1="-29616" fill="none"/><line y2="-31766" y1="-32110" x2="-29004" x1="-29602" fill="none"/><line y2="-32422" y1="-31855" x2="-27834" x1="-28819" fill="none"/><line y2="-30148" y1="-30717" x2="-27834" x1="-26849" fill="none"/><line y2="-32315" y1="-31855" x2="-29992" x1="-30789" fill="none"/><line y2="-31855" y1="-32422" x2="-30789" x1="-31774" fill="none"/><line y2="-31777" y1="-32205" x2="-30997" x1="-31737" fill="none"/><line y2="-30717" y1="-30148" x2="-32762" x1="-31774" fill="none"/><line y2="-31855" y1="-32422" x2="-26849" x1="-27834" fill="none"/><line y2="-31777" y1="-32205" x2="-27057" x1="-27796" fill="none"/><line y2="-30717" y1="-31855" x2="-26849" x1="-26849" fill="none"/><line y2="-32422" y1="-31855" x2="-31774" x1="-32762" fill="none"/><line y2="-31855" y1="-30717" x2="-32762" x1="-32762" fill="none"/><line y2="-31711" y1="-30859" x2="-32592" x1="-32592" fill="none"/><line y2="-32268" y1="-31855" x2="-26130" x1="-26849" fill="none"/><line y2="-31855" y1="-32159" x2="-25035" x1="-25563" fill="none"/><line y2="-29099" y1="-29928" x2="-29804" x1="-29804" fill="none"/><line y2="-30373" y1="-30778" x2="-26089" x1="-26814" fill="none"/><line y2="-30252" y1="-30656" x2="-26156" x1="-26884" fill="none"/><line y2="-29163" y1="-29989" x2="-25933" x1="-25933" fill="none"/><line y2="-31855" y1="-30717" x2="-25035" x1="-25035" fill="none"/><line y2="-31711" y1="-30859" x2="-24864" x1="-24864" fill="none"/><line y2="-32422" y1="-31855" x2="-24047" x1="-25035" fill="none"/><line y2="-30717" y1="-30148" x2="-25035" x1="-24047" fill="none"/><line y2="-31855" y1="-32422" x2="-23064" x1="-24047" fill="none"/><line y2="-31777" y1="-32205" x2="-23272" x1="-24009" fill="none"/><line y2="-30148" y1="-30717" x2="-24047" x1="-23064" fill="none"/><line y2="-30365" y1="-30792" x2="-24009" x1="-23272" fill="none"/><line y2="-30717" y1="-31855" x2="-23064" x1="-23064" fill="none"/><line y2="-30388" y1="-30717" x2="-22498" x1="-23064" fill="none"/><line y2="-29099" y1="-28530" x2="-29804" x1="-30789" fill="none"/><line y2="-28883" y1="-28455" x2="-29842" x1="-30581" fill="none"/><line y2="-28530" y1="-29099" x2="-28819" x1="-29804" fill="none"/><line y2="-28530" y1="-27395" x2="-30789" x1="-30789" fill="none"/><line y2="-27395" y1="-28530" x2="-28819" x1="-28819" fill="none"/><line y2="-27536" y1="-28389" x2="-28990" x1="-28990" fill="none"/><line y2="-27395" y1="-26826" x2="-30789" x1="-29804" fill="none"/><line y2="-27470" y1="-27045" x2="-30581" x1="-29842" fill="none"/><line y2="-26826" y1="-27395" x2="-29804" x1="-28819" fill="none"/><line y2="-25997" y1="-26826" x2="-29804" x1="-29804" fill="none"/><line y2="-28637" y1="-29163" x2="-25026" x1="-25933" fill="none"/><line y2="-28637" y1="-29163" x2="-26843" x1="-25933" fill="none"/><text y="-30030" xml:space="preserve" x="-26086" stroke="none" font-size="433.3333" font-family="sans-serif">N</text><text y="-32199" xml:space="preserve" x="-26095" stroke="none" font-size="433.3333" font-family="sans-serif">NH</text><text y="-25598" xml:space="preserve" x="-30035" stroke="none" font-size="433.3333" font-family="sans-serif">Cl</text><text y="-30012" xml:space="preserve" x="-22388" stroke="none" font-size="433.3333" font-family="sans-serif">Cl</text><text y="-29969" xml:space="preserve" x="-29957" stroke="none" font-size="433.3333" font-family="sans-serif">N</text><text y="-32242" xml:space="preserve" x="-29957" stroke="none" font-size="433.3333" font-family="sans-serif">N</text></g></g></svg>