<svg width="477.33" viewBox="0 0 15911 9774" text-rendering="auto" stroke-width="1" stroke-opacity="1" stroke-miterlimit="10" stroke-linejoin="miter" stroke-linecap="square" stroke-dashoffset="0" stroke-dasharray="none" stroke="black" shape-rendering="auto" image-rendering="auto" height="293.22" font-weight="normal" font-style="normal" font-size="12" font-family="'Dialog'" fill-opacity="1" fill="black" color-rendering="auto" color-interpolation="auto" xmlns="http://www.w3.org/2000/svg"><g><g stroke="white" fill="white"><rect y="0" x="0" width="15911" stroke="none" height="9774"/></g><g transform="translate(32866,32758)" text-rendering="geometricPrecision" stroke-width="44" stroke-linejoin="round" stroke-linecap="round"><line y2="-29088" y1="-30235" x2="-27773" x1="-27773" fill="none"/><line y2="-29232" y1="-30093" x2="-27944" x1="-27944" fill="none"/><line y2="-30235" y1="-30697" x2="-27773" x1="-28568" fill="none"/><line y2="-28516" y1="-29088" x2="-28756" x1="-27773" fill="none"/><line y2="-30697" y1="-30235" x2="-28943" x1="-29738" fill="none"/><line y2="-29088" y1="-28516" x2="-29738" x1="-28756" fill="none"/><line y2="-29088" y1="-30235" x2="-29738" x1="-29738" fill="none"/><line y2="-30235" y1="-30810" x2="-29738" x1="-30720" fill="none"/><line y2="-30160" y1="-30590" x2="-29946" x1="-30685" fill="none"/><line y2="-28516" y1="-29088" x2="-30720" x1="-29738" fill="none"/><line y2="-28735" y1="-29163" x2="-30685" x1="-29946" fill="none"/><line y2="-30810" y1="-30235" x2="-30720" x1="-31702" fill="none"/><line y2="-29088" y1="-28516" x2="-31702" x1="-30720" fill="none"/><line y2="-30235" y1="-29088" x2="-31702" x1="-31702" fill="none"/><line y2="-30093" y1="-29232" x2="-31532" x1="-31532" fill="none"/><line y2="-30758" y1="-30235" x2="-26866" x1="-27773" fill="none"/><line y2="-28672" y1="-29088" x2="-27054" x1="-27773" fill="none"/><line y2="-27687" y1="-28516" x2="-30720" x1="-30720" fill="none"/><line y2="-30541" y1="-30235" x2="-32231" x1="-31702" fill="none"/><line y2="-27687" y1="-28516" x2="-28686" x1="-28686" fill="none"/><line y2="-27687" y1="-28516" x2="-28825" x1="-28825" fill="none"/><line y2="-31896" y1="-30758" x2="-26866" x1="-26866" fill="none"/><line y2="-31754" y1="-30902" x2="-26696" x1="-26696" fill="none"/><line y2="-30758" y1="-30191" x2="-26866" x1="-25878" fill="none"/><line y2="-32465" y1="-31896" x2="-25878" x1="-26866" fill="none"/><line y2="-30191" y1="-30758" x2="-25878" x1="-24896" fill="none"/><line y2="-30408" y1="-30836" x2="-25841" x1="-25104" fill="none"/><line y2="-31896" y1="-32465" x2="-24896" x1="-25878" fill="none"/><line y2="-31821" y1="-32248" x2="-25104" x1="-25841" fill="none"/><line y2="-30758" y1="-31896" x2="-24896" x1="-24896" fill="none"/><line y2="-32312" y1="-31896" x2="-24177" x1="-24896" fill="none"/><line y2="-26222" y1="-26681" x2="-26069" x1="-26866" fill="none"/><line y2="-26681" y1="-26115" x2="-26866" x1="-27848" fill="none"/><line y2="-24977" y1="-25893" x2="-25881" x1="-25881" fill="none"/><line y2="-26115" y1="-24974" x2="-27848" x1="-27851" fill="none"/><line y2="-24408" y1="-24977" x2="-26866" x1="-25881" fill="none"/><line y2="-24974" y1="-24408" x2="-27851" x1="-26866" fill="none"/><line y2="-24870" y1="-24454" x2="-24255" x1="-24974" fill="none"/><line y2="-24454" y1="-24870" x2="-23160" x1="-23879" fill="none"/><line y2="-24977" y1="-24454" x2="-22253" x1="-23160" fill="none"/><line y2="-23625" y1="-24454" x2="-23090" x1="-23090" fill="none"/><line y2="-23625" y1="-24454" x2="-23229" x1="-23229" fill="none"/><line y2="-24454" y1="-24977" x2="-21346" x1="-22253" fill="none"/><line y2="-24399" y1="-24792" x2="-21528" x1="-22209" fill="none"/><line y2="-24977" y1="-24454" x2="-20438" x1="-21346" fill="none"/><line y2="-26115" y1="-24977" x2="-20438" x1="-20438" fill="none"/><line y2="-25974" y1="-25118" x2="-20268" x1="-20268" fill="none"/><line y2="-24977" y1="-24408" x2="-20438" x1="-19450" fill="none"/><line y2="-26684" y1="-26115" x2="-19450" x1="-20438" fill="none"/><line y2="-24408" y1="-24977" x2="-19450" x1="-18468" fill="none"/><line y2="-24627" y1="-25052" x2="-19413" x1="-18676" fill="none"/><line y2="-26115" y1="-26684" x2="-18468" x1="-19450" fill="none"/><line y2="-26037" y1="-26465" x2="-18676" x1="-19413" fill="none"/><line y2="-24977" y1="-26115" x2="-18468" x1="-18468" fill="none"/><line y2="-26531" y1="-26115" x2="-17749" x1="-18468" fill="none"/><polygon stroke-width="1" stroke="none" points=" -27848 -26115 -28412 -26358 -28342 -26479"/><polygon stroke-width="1" points=" -27848 -26115 -28412 -26358 -28342 -26479" fill="none"/><polygon stroke-width="1" stroke="none" points=" -26866 -24408 -26797 -23579 -26936 -23579"/><polygon stroke-width="1" points=" -26866 -24408 -26797 -23579 -26936 -23579" fill="none"/><line y2="-28345" y1="-28345" x2="-26797" x1="-26936" fill="none"/><line y2="-28128" y1="-28128" x2="-26806" x1="-26927" fill="none"/><line y2="-27912" y1="-27912" x2="-26815" x1="-26918" fill="none"/><line y2="-27695" y1="-27695" x2="-26824" x1="-26909" fill="none"/><line y2="-27478" y1="-27478" x2="-26833" x1="-26900" fill="none"/><line y2="-27262" y1="-27262" x2="-26842" x1="-26890" fill="none"/><line y2="-27045" y1="-27045" x2="-26851" x1="-26881" fill="none"/><line y2="-26828" y1="-26828" x2="-26860" x1="-26872" fill="none"/><line y2="-24393" y1="-24512" x2="-25009" x1="-24939" fill="none"/><line y2="-24514" y1="-24608" x2="-25189" x1="-25134" fill="none"/><line y2="-24635" y1="-24704" x2="-25370" x1="-25329" fill="none"/><line y2="-24755" y1="-24800" x2="-25550" x1="-25523" fill="none"/><line y2="-24876" y1="-24897" x2="-25730" x1="-25718" fill="none"/><line y2="-24731" y1="-24610" x2="-28412" x1="-28345" fill="none"/><line y2="-24818" y1="-24740" x2="-28212" x1="-28169" fill="none"/><line y2="-24904" y1="-24869" x2="-28013" x1="-27993" fill="none"/><text y="-28386" xml:space="preserve" x="-27019" stroke="none" font-size="433.3333" font-family="sans-serif">O</text><text y="-27288" xml:space="preserve" x="-28909" stroke="none" font-size="433.3333" font-family="sans-serif">O</text><text y="-27288" xml:space="preserve" x="-30873" stroke="none" font-size="433.3333" font-family="sans-serif">OH</text><text y="-26459" xml:space="preserve" x="-28909" stroke="none" font-size="433.3333" font-family="sans-serif">OH</text><text y="-32242" xml:space="preserve" x="-24142" stroke="none" font-size="433.3333" font-family="sans-serif">OH</text><text y="-30578" xml:space="preserve" x="-32762" stroke="none" font-size="433.3333" font-family="sans-serif">OH</text><text y="-24798" xml:space="preserve" x="-24220" stroke="none" font-size="433.3333" font-family="sans-serif">O</text><text y="-23226" xml:space="preserve" x="-23313" stroke="none" font-size="433.3333" font-family="sans-serif">O</text><text y="-24272" xml:space="preserve" x="-28912" stroke="none" font-size="433.3333" font-family="sans-serif">OH</text><text y="-23180" xml:space="preserve" x="-27019" stroke="none" font-size="433.3333" font-family="sans-serif">OH</text><text y="-26459" xml:space="preserve" x="-17714" stroke="none" font-size="433.3333" font-family="sans-serif">OH</text><text y="-30630" xml:space="preserve" x="-28909" stroke="none" font-size="433.3333" font-family="sans-serif">O</text><text y="-25933" xml:space="preserve" x="-26034" stroke="none" font-size="433.3333" font-family="sans-serif">O</text><text y="-24925" xml:space="preserve" x="-21730" stroke="none" font-style="italic" font-size="313.3333" font-family="sans-serif">E</text><text y="-26202" xml:space="preserve" x="-27019" stroke="none" font-style="italic" font-size="313.3333" font-family="sans-serif">S</text><text y="-25792" xml:space="preserve" x="-27753" stroke="none" font-style="italic" font-size="313.3333" font-family="sans-serif">R</text><text y="-24942" xml:space="preserve" x="-26283" stroke="none" font-style="italic" font-size="313.3333" font-family="sans-serif">R</text><text y="-24939" xml:space="preserve" x="-27756" stroke="none" font-style="italic" font-size="313.3333" font-family="sans-serif">S</text><text y="-24529" xml:space="preserve" x="-27019" stroke="none" font-style="italic" font-size="313.3333" font-family="sans-serif">S</text></g></g></svg>