<svg width="507.66" viewBox="0 0 16922 4418" text-rendering="auto" stroke-width="1" stroke-opacity="1" stroke-miterlimit="10" stroke-linejoin="miter" stroke-linecap="square" stroke-dashoffset="0" stroke-dasharray="none" stroke="black" shape-rendering="auto" image-rendering="auto" height="132.54" font-weight="normal" font-style="normal" font-size="12" font-family="'Dialog'" fill-opacity="1" fill="black" color-rendering="auto" color-interpolation="auto" xmlns="http://www.w3.org/2000/svg"><g><g stroke="white" fill="white"><rect y="0" x="0" width="16922" stroke="none" height="4418"/></g><g transform="translate(32866,32758)" text-rendering="geometricPrecision" stroke-width="44" stroke-linejoin="round" stroke-linecap="round"><line y2="-30590" y1="-31812" x2="-19237" x1="-19237" fill="none"/><line y2="-31812" y1="-32422" x2="-19237" x1="-20285" fill="none"/><line y2="-31740" y1="-32199" x2="-19453" x1="-20239" fill="none"/><line y2="-32315" y1="-31812" x2="-18376" x1="-19237" fill="none"/><line y2="-29978" y1="-30590" x2="-20285" x1="-19237" fill="none"/><line y2="-30200" y1="-30659" x2="-20239" x1="-19453" fill="none"/><line y2="-30590" y1="-29978" x2="-19237" x1="-18188" fill="none"/><line y2="-32422" y1="-31812" x2="-20285" x1="-21331" fill="none"/><line y2="-31812" y1="-32202" x2="-17139" x1="-17812" fill="none"/><line y2="-30590" y1="-29978" x2="-21331" x1="-20285" fill="none"/><line y2="-29978" y1="-30590" x2="-18188" x1="-17139" fill="none"/><line y2="-31812" y1="-30590" x2="-21331" x1="-21331" fill="none"/><line y2="-31659" y1="-30743" x2="-21164" x1="-21164" fill="none"/><line y2="-30590" y1="-31812" x2="-17139" x1="-17139" fill="none"/><line y2="-32228" y1="-31812" x2="-22050" x1="-21331" fill="none"/><line y2="-31812" y1="-32228" x2="-23148" x1="-22429" fill="none"/><line y2="-32335" y1="-31812" x2="-24055" x1="-23148" fill="none"/><line y2="-31812" y1="-32335" x2="-24962" x1="-24055" fill="none"/><line y2="-32335" y1="-31812" x2="-25870" x1="-24962" fill="none"/><line y2="-31919" y1="-32335" x2="-26589" x1="-25870" fill="none"/><line y2="-32289" y1="-31873" x2="-16455" x1="-17174" fill="none"/><line y2="-32167" y1="-31751" x2="-16385" x1="-17105" fill="none"/><line y2="-31919" y1="-32381" x2="-26964" x1="-27759" fill="none"/><line y2="-30674" y1="-31592" x2="-26777" x1="-26777" fill="none"/><line y2="-32381" y1="-31812" x2="-27759" x1="-28747" fill="none"/><line y2="-30105" y1="-30674" x2="-27759" x1="-26777" fill="none"/><line y2="-31812" y1="-30893" x2="-28747" x1="-28747" fill="none"/><line y2="-30567" y1="-30105" x2="-28559" x1="-27759" fill="none"/><line y2="-30151" y1="-30567" x2="-29654" x1="-28935" fill="none"/><line y2="-30151" y1="-30720" x2="-29654" x1="-30636" fill="none"/><line y2="-30076" y1="-30500" x2="-29862" x1="-30599" fill="none"/><line y2="-29013" y1="-30151" x2="-29654" x1="-29654" fill="none"/><line y2="-30720" y1="-30151" x2="-30636" x1="-31624" fill="none"/><line y2="-28444" y1="-29013" x2="-30636" x1="-29654" fill="none"/><line y2="-28663" y1="-29091" x2="-30599" x1="-29862" fill="none"/><line y2="-30151" y1="-29013" x2="-31624" x1="-31624" fill="none"/><line y2="-30009" y1="-29154" x2="-31454" x1="-31454" fill="none"/><line y2="-29013" y1="-28444" x2="-31624" x1="-30636" fill="none"/><line y2="-30477" y1="-30151" x2="-32190" x1="-31624" fill="none"/><text y="-32156" xml:space="preserve" x="-22391" stroke="none" font-size="433.3333" font-family="sans-serif">O</text><text y="-32156" xml:space="preserve" x="-16385" stroke="none" font-size="433.3333" font-family="sans-serif">O</text><text y="-30495" xml:space="preserve" x="-32762" stroke="none" font-size="433.3333" font-family="sans-serif">Cl</text><text y="-32242" xml:space="preserve" x="-18341" stroke="none" font-size="433.3333" font-family="sans-serif">NH</text><text y="-31633" xml:space="preserve" x="-26927" stroke="none" font-size="433.3333" font-family="sans-serif">N</text><text y="-30495" xml:space="preserve" x="-28897" stroke="none" font-size="433.3333" font-family="sans-serif">N</text></g></g></svg>