<svg width="237.63" viewBox="0 0 7921 5999" text-rendering="auto" stroke-width="1" stroke-opacity="1" stroke-miterlimit="10" stroke-linejoin="miter" stroke-linecap="square" stroke-dashoffset="0" stroke-dasharray="none" stroke="black" shape-rendering="auto" image-rendering="auto" height="179.97" font-weight="normal" font-style="normal" font-size="12" font-family="'Dialog'" fill-opacity="1" fill="black" color-rendering="auto" color-interpolation="auto" xmlns="http://www.w3.org/2000/svg"><g><g stroke="white" fill="white"><rect y="0" x="0" width="7921" stroke="none" height="5999"/></g><g transform="translate(32866,32866)" text-rendering="geometricPrecision" stroke-width="44" stroke-linejoin="round" stroke-linecap="round"><line y2="-29385" y1="-28813" x2="-30798" x1="-29816" fill="none"/><line y2="-30532" y1="-29385" x2="-30798" x1="-30798" fill="none"/><line y2="-30391" y1="-29530" x2="-30628" x1="-30628" fill="none"/><line y2="-28813" y1="-29385" x2="-31780" x1="-30798" fill="none"/><line y2="-28813" y1="-29385" x2="-29816" x1="-28834" fill="none"/><line y2="-29033" y1="-29460" x2="-29778" x1="-29042" fill="none"/><line y2="-30994" y1="-30532" x2="-30004" x1="-30798" fill="none"/><line y2="-30532" y1="-31107" x2="-30798" x1="-31780" fill="none"/><line y2="-29385" y1="-28813" x2="-32762" x1="-31780" fill="none"/><line y2="-29460" y1="-29033" x2="-32554" x1="-31818" fill="none"/><line y2="-29385" y1="-30532" x2="-28834" x1="-28834" fill="none"/><line y2="-30532" y1="-30994" x2="-28834" x1="-29628" fill="none"/><line y2="-30443" y1="-30789" x2="-29018" x1="-29614" fill="none"/><line y2="-31107" y1="-30532" x2="-31780" x1="-32762" fill="none"/><line y2="-30888" y1="-30457" x2="-31818" x1="-32554" fill="none"/><line y2="-30532" y1="-29385" x2="-32762" x1="-32762" fill="none"/><line y2="-31055" y1="-30532" x2="-27926" x1="-28834" fill="none"/><line y2="-27765" y1="-28813" x2="-29816" x1="-29816" fill="none"/><line y2="-32193" y1="-31055" x2="-27926" x1="-27926" fill="none"/><line y2="-32052" y1="-31200" x2="-27756" x1="-27756" fill="none"/><line y2="-31055" y1="-30489" x2="-27926" x1="-26938" fill="none"/><line y2="-32762" y1="-32193" x2="-26938" x1="-27926" fill="none"/><line y2="-30489" y1="-31055" x2="-26938" x1="-25956" fill="none"/><line y2="-30706" y1="-31133" x2="-26901" x1="-26164" fill="none"/><line y2="-32193" y1="-32762" x2="-25956" x1="-26938" fill="none"/><line y2="-32118" y1="-32546" x2="-26164" x1="-26901" fill="none"/><line y2="-31055" y1="-32193" x2="-25956" x1="-25956" fill="none"/><line y2="-32719" y1="-32193" x2="-25049" x1="-25956" fill="none"/><line y2="-27349" y1="-27765" x2="-29096" x1="-29816" fill="none"/><line y2="-27288" y1="-27704" x2="-30500" x1="-29781" fill="none"/><line y2="-27409" y1="-27825" x2="-30570" x1="-29850" fill="none"/><text y="-27063" xml:space="preserve" x="-29062" stroke="none" font-size="433.3333" font-family="sans-serif">OH</text><text y="-27063" xml:space="preserve" x="-30876" stroke="none" font-size="433.3333" font-family="sans-serif">O</text><text y="-30928" xml:space="preserve" x="-29969" stroke="none" font-size="433.3333" font-family="sans-serif">N</text></g></g></svg>