<svg width="398.91" viewBox="0 0 13297 5860" text-rendering="auto" stroke-width="1" stroke-opacity="1" stroke-miterlimit="10" stroke-linejoin="miter" stroke-linecap="square" stroke-dashoffset="0" stroke-dasharray="none" stroke="black" shape-rendering="auto" image-rendering="auto" height="175.8" font-weight="normal" font-style="normal" font-size="12" font-family="'Dialog'" fill-opacity="1" fill="black" color-rendering="auto" color-interpolation="auto" xmlns="http://www.w3.org/2000/svg"><g><g stroke="white" fill="white"><rect y="0" x="0" width="13297" stroke="none" height="5860"/></g><g transform="translate(32866,32758)" text-rendering="geometricPrecision" stroke-width="44" stroke-linejoin="round" stroke-linecap="round"><line y2="-29276" y1="-28709" x2="-22625" x1="-23613" fill="none"/><line y2="-28709" y1="-29276" x2="-21643" x1="-22625" fill="none"/><line y2="-27571" y1="-28709" x2="-23613" x1="-23613" fill="none"/><line y2="-28709" y1="-29276" x2="-23613" x1="-24598" fill="none"/><line y2="-28631" y1="-29059" x2="-23821" x1="-24561" fill="none"/><line y2="-27571" y1="-28709" x2="-21643" x1="-21643" fill="none"/><line y2="-29276" y1="-28709" x2="-20655" x1="-21643" fill="none"/><line y2="-29059" y1="-28631" x2="-20696" x1="-21435" fill="none"/><line y2="-27571" y1="-27571" x2="-23613" x1="-21643" fill="none"/><line y2="-27002" y1="-27571" x2="-24598" x1="-23613" fill="none"/><line y2="-27219" y1="-27646" x2="-24561" x1="-23821" fill="none"/><line y2="-29276" y1="-28709" x2="-24598" x1="-25584" fill="none"/><line y2="-27571" y1="-27002" x2="-21643" x1="-20655" fill="none"/><line y2="-27649" y1="-27222" x2="-21435" x1="-20696" fill="none"/><line y2="-28709" y1="-29276" x2="-19673" x1="-20655" fill="none"/><line y2="-27571" y1="-27002" x2="-25584" x1="-24598" fill="none"/><line y2="-28709" y1="-27571" x2="-25584" x1="-25584" fill="none"/><line y2="-28565" y1="-27713" x2="-25413" x1="-25413" fill="none"/><line y2="-27002" y1="-27571" x2="-20655" x1="-19673" fill="none"/><line y2="-27571" y1="-28709" x2="-19673" x1="-19673" fill="none"/><line y2="-27713" y1="-28565" x2="-19843" x1="-19843" fill="none"/><line y2="-30324" y1="-29276" x2="-22625" x1="-22625" fill="none"/><line y2="-30740" y1="-30324" x2="-23345" x1="-22625" fill="none"/><line y2="-31896" y1="-31067" x2="-23532" x1="-23532" fill="none"/><line y2="-32202" y1="-31896" x2="-24061" x1="-23532" fill="none"/><line y2="-31896" y1="-32312" x2="-25347" x1="-24627" fill="none"/><line y2="-32372" y1="-31956" x2="-22848" x1="-23567" fill="none"/><line y2="-32251" y1="-31835" x2="-22778" x1="-23498" fill="none"/><line y2="-32422" y1="-31896" x2="-26254" x1="-25347" fill="none"/><line y2="-31896" y1="-32422" x2="-27161" x1="-26254" fill="none"/><line y2="-30758" y1="-31896" x2="-27161" x1="-27161" fill="none"/><line y2="-31896" y1="-32465" x2="-27161" x1="-28149" fill="none"/><line y2="-30191" y1="-30758" x2="-28149" x1="-27161" fill="none"/><line y2="-32465" y1="-31896" x2="-28149" x1="-29131" fill="none"/><line y2="-30651" y1="-30191" x2="-28943" x1="-28149" fill="none"/><line y2="-31896" y1="-30977" x2="-29131" x1="-29131" fill="none"/><line y2="-30235" y1="-30651" x2="-30038" x1="-29319" fill="none"/><line y2="-30544" y1="-30847" x2="-25875" x1="-25347" fill="none"/><line y2="-30495" y1="-30888" x2="-24593" x1="-25277" fill="none"/><line y2="-30373" y1="-30786" x2="-24662" x1="-25381" fill="none"/><line y2="-30651" y1="-30235" x2="-30758" x1="-30038" fill="none"/><line y2="-30235" y1="-30651" x2="-31852" x1="-31136" fill="none"/><line y2="-29406" y1="-30235" x2="-29969" x1="-29969" fill="none"/><line y2="-29406" y1="-30235" x2="-30110" x1="-30110" fill="none"/><line y2="-30758" y1="-30235" x2="-32762" x1="-31852" fill="none"/><line y2="-29328" y1="-30235" x2="-32378" x1="-31852" fill="none"/><line y2="-29328" y1="-30235" x2="-31330" x1="-31852" fill="none"/><line y2="-30847" y1="-30847" x2="-25416" x1="-25277" fill="none"/><line y2="-31064" y1="-31064" x2="-25402" x1="-25291" fill="none"/><line y2="-31280" y1="-31280" x2="-25387" x1="-25306" fill="none"/><line y2="-31497" y1="-31497" x2="-25373" x1="-25320" fill="none"/><line y2="-31714" y1="-31714" x2="-25359" x1="-25335" fill="none"/><text y="-30668" xml:space="preserve" x="-23686" stroke="none" font-size="433.3333" font-family="sans-serif">O</text><text y="-32242" xml:space="preserve" x="-24593" stroke="none" font-size="433.3333" font-family="sans-serif">NH</text><text y="-32242" xml:space="preserve" x="-22778" stroke="none" font-size="433.3333" font-family="sans-serif">O</text><text y="-30145" xml:space="preserve" x="-26407" stroke="none" font-size="433.3333" font-family="sans-serif">OH</text><text y="-30145" xml:space="preserve" x="-24593" stroke="none" font-size="433.3333" font-family="sans-serif">O</text><text y="-30578" xml:space="preserve" x="-31098" stroke="none" font-size="433.3333" font-family="sans-serif">O</text><text y="-29007" xml:space="preserve" x="-30191" stroke="none" font-size="433.3333" font-family="sans-serif">O</text><text y="-30578" xml:space="preserve" x="-29284" stroke="none" font-size="433.3333" font-family="sans-serif">N</text><text y="-32020" xml:space="preserve" x="-25500" stroke="none" font-style="italic" font-size="313.3333" font-family="sans-serif">S</text></g></g></svg>