<svg width="208.08" viewBox="0 0 6936 6909" text-rendering="auto" stroke-width="1" stroke-opacity="1" stroke-miterlimit="10" stroke-linejoin="miter" stroke-linecap="square" stroke-dashoffset="0" stroke-dasharray="none" stroke="black" shape-rendering="auto" image-rendering="auto" height="207.27" font-weight="normal" font-style="normal" font-size="12" font-family="'Dialog'" fill-opacity="1" fill="black" color-rendering="auto" color-interpolation="auto" xmlns="http://www.w3.org/2000/svg"><g><g stroke="white" fill="white"><rect y="0" x="0" width="6936" stroke="none" height="6909"/></g><g transform="translate(32866,32866)" text-rendering="geometricPrecision" stroke-width="44" stroke-linejoin="round" stroke-linecap="round"><line y2="-27903" y1="-29047" x2="-31624" x1="-31624" fill="none"/><line y2="-29619" y1="-29047" x2="-30642" x1="-31624" fill="none"/><line y2="-27903" y1="-27331" x2="-31624" x1="-30642" fill="none"/><line y2="-29047" y1="-29619" x2="-29663" x1="-30642" fill="none"/><line y2="-27331" y1="-27903" x2="-30642" x1="-29663" fill="none"/><line y2="-27903" y1="-29047" x2="-29663" x1="-29663" fill="none"/><line y2="-28048" y1="-28903" x2="-29833" x1="-29833" fill="none"/><line y2="-27380" y1="-27903" x2="-28756" x1="-29663" fill="none"/><line y2="-31191" y1="-30775" x2="-29735" x1="-30454" fill="none"/><line y2="-27794" y1="-27380" x2="-28036" x1="-28756" fill="none"/><line y2="-27380" y1="-27794" x2="-26941" x1="-27658" fill="none"/><line y2="-27903" y1="-27380" x2="-26034" x1="-26941" fill="none"/><line y2="-26551" y1="-27380" x2="-28683" x1="-28683" fill="none"/><line y2="-26551" y1="-27380" x2="-28825" x1="-28825" fill="none"/><line y2="-30668" y1="-31191" x2="-28828" x1="-29735" fill="none"/><line y2="-31191" y1="-30668" x2="-27921" x1="-28828" fill="none"/><line y2="-32240" y1="-31191" x2="-29735" x1="-29735" fill="none"/><line y2="-32762" y1="-32240" x2="-28828" x1="-29735" fill="none"/><line y2="-28649" y1="-28530" x2="-32456" x1="-32387" fill="none"/><line y2="-28743" y1="-28652" x2="-32260" x1="-32207" fill="none"/><line y2="-28837" y1="-28774" x2="-32064" x1="-32027" fill="none"/><line y2="-28930" y1="-28896" x2="-31868" x1="-31848" fill="none"/><line y2="-29024" y1="-29017" x2="-31672" x1="-31668" fill="none"/><line y2="-28432" y1="-28314" x2="-32387" x1="-32456" fill="none"/><line y2="-28308" y1="-28218" x2="-32208" x1="-32261" fill="none"/><line y2="-28184" y1="-28122" x2="-32030" x1="-32067" fill="none"/><line y2="-28061" y1="-28025" x2="-31851" x1="-31872" fill="none"/><line y2="-27937" y1="-27929" x2="-31673" x1="-31677" fill="none"/><line y2="-30448" y1="-30446" x2="-30573" x1="-30711" fill="none"/><line y2="-30231" y1="-30230" x2="-30591" x1="-30693" fill="none"/><line y2="-30014" y1="-30013" x2="-30609" x1="-30675" fill="none"/><line y2="-29797" y1="-29797" x2="-30627" x1="-30657" fill="none"/><text y="-30489" xml:space="preserve" x="-30795" stroke="none" font-size="433.3333" font-family="sans-serif">O</text><text y="-27724" xml:space="preserve" x="-27999" stroke="none" font-size="433.3333" font-family="sans-serif">O</text><text y="-26153" xml:space="preserve" x="-28906" stroke="none" font-size="433.3333" font-family="sans-serif">O</text><text y="-28305" xml:space="preserve" x="-32762" stroke="none" font-size="433.3333" font-family="sans-serif">O</text><text y="-28724" xml:space="preserve" x="-31526" stroke="none" font-style="italic" font-size="313.3333" font-family="sans-serif">S</text><text y="-27869" xml:space="preserve" x="-31526" stroke="none" font-style="italic" font-size="313.3333" font-family="sans-serif">S</text><text y="-29137" xml:space="preserve" x="-30795" stroke="none" font-style="italic" font-size="313.3333" font-family="sans-serif">R</text></g></g></svg>