<svg width="289.98" viewBox="0 0 9666 6949" text-rendering="auto" stroke-width="1" stroke-opacity="1" stroke-miterlimit="10" stroke-linejoin="miter" stroke-linecap="square" stroke-dashoffset="0" stroke-dasharray="none" stroke="black" shape-rendering="auto" image-rendering="auto" height="208.47" font-weight="normal" font-style="normal" font-size="12" font-family="'Dialog'" fill-opacity="1" fill="black" color-rendering="auto" color-interpolation="auto" xmlns="http://www.w3.org/2000/svg"><g><g stroke="white" fill="white"><rect y="0" x="0" width="9666" stroke="none" height="6949"/></g><g transform="translate(32866,32758)" text-rendering="geometricPrecision" stroke-width="44" stroke-linejoin="round" stroke-linecap="round"><line y2="-28186" y1="-27617" x2="-26257" x1="-27245" fill="none"/><line y2="-27617" y1="-28186" x2="-25274" x1="-26257" fill="none"/><line y2="-26482" y1="-27617" x2="-27245" x1="-27245" fill="none"/><line y2="-27617" y1="-28186" x2="-27245" x1="-28230" fill="none"/><line y2="-27542" y1="-27970" x2="-27453" x1="-28192" fill="none"/><line y2="-26482" y1="-27617" x2="-25274" x1="-25274" fill="none"/><line y2="-28186" y1="-27617" x2="-24286" x1="-25274" fill="none"/><line y2="-27967" y1="-27542" x2="-24327" x1="-25066" fill="none"/><line y2="-26482" y1="-26482" x2="-27245" x1="-25274" fill="none"/><line y2="-25913" y1="-26482" x2="-28230" x1="-27245" fill="none"/><line y2="-26130" y1="-26557" x2="-28192" x1="-27453" fill="none"/><line y2="-28186" y1="-27617" x2="-28230" x1="-29215" fill="none"/><line y2="-26482" y1="-25913" x2="-25274" x1="-24286" fill="none"/><line y2="-26557" y1="-26130" x2="-25066" x1="-24327" fill="none"/><line y2="-27617" y1="-28186" x2="-23304" x1="-24286" fill="none"/><line y2="-26482" y1="-25913" x2="-29215" x1="-28230" fill="none"/><line y2="-27617" y1="-26482" x2="-29215" x1="-29215" fill="none"/><line y2="-27476" y1="-26624" x2="-29044" x1="-29044" fill="none"/><line y2="-25913" y1="-26482" x2="-24286" x1="-23304" fill="none"/><line y2="-26482" y1="-27617" x2="-23304" x1="-23304" fill="none"/><line y2="-26624" y1="-27476" x2="-23475" x1="-23475" fill="none"/><line y2="-29235" y1="-28186" x2="-26257" x1="-26257" fill="none"/><line y2="-29651" y1="-29235" x2="-26976" x1="-26257" fill="none"/><line y2="-30807" y1="-29978" x2="-27164" x1="-27164" fill="none"/><line y2="-31110" y1="-30807" x2="-27692" x1="-27164" fill="none"/><line y2="-30807" y1="-31223" x2="-28978" x1="-28259" fill="none"/><line y2="-31283" y1="-30867" x2="-26479" x1="-27198" fill="none"/><line y2="-31162" y1="-30746" x2="-26410" x1="-27129" fill="none"/><line y2="-31330" y1="-30807" x2="-29885" x1="-28978" fill="none"/><line y2="-30807" y1="-31330" x2="-30792" x1="-29885" fill="none"/><line y2="-30807" y1="-31376" x2="-30792" x1="-31777" fill="none"/><line y2="-30729" y1="-31156" x2="-31000" x1="-31740" fill="none"/><line y2="-29668" y1="-30807" x2="-30792" x1="-30792" fill="none"/><line y2="-31376" y1="-30807" x2="-31777" x1="-32762" fill="none"/><line y2="-29099" y1="-29668" x2="-31777" x1="-30792" fill="none"/><line y2="-29319" y1="-29744" x2="-31740" x1="-31000" fill="none"/><line y2="-30807" y1="-29668" x2="-32762" x1="-32762" fill="none"/><line y2="-30665" y1="-29810" x2="-32595" x1="-32595" fill="none"/><line y2="-29668" y1="-29099" x2="-32762" x1="-31777" fill="none"/><line y2="-32202" y1="-31376" x2="-31777" x1="-31777" fill="none"/><line y2="-29455" y1="-29758" x2="-29507" x1="-28978" fill="none"/><line y2="-29403" y1="-29798" x2="-28224" x1="-28909" fill="none"/><line y2="-29281" y1="-29697" x2="-28296" x1="-29013" fill="none"/><line y2="-29758" y1="-29758" x2="-29047" x1="-28912" fill="none"/><line y2="-29975" y1="-29975" x2="-29033" x1="-28926" fill="none"/><line y2="-30191" y1="-30191" x2="-29018" x1="-28939" fill="none"/><line y2="-30408" y1="-30408" x2="-29004" x1="-28953" fill="none"/><line y2="-30625" y1="-30625" x2="-28990" x1="-28967" fill="none"/><text y="-29579" xml:space="preserve" x="-27317" stroke="none" font-size="433.3333" font-family="sans-serif">O</text><text y="-31150" xml:space="preserve" x="-28224" stroke="none" font-size="433.3333" font-family="sans-serif">NH</text><text y="-31150" xml:space="preserve" x="-26410" stroke="none" font-size="433.3333" font-family="sans-serif">O</text><text y="-29056" xml:space="preserve" x="-30038" stroke="none" font-size="433.3333" font-family="sans-serif">OH</text><text y="-29056" xml:space="preserve" x="-28224" stroke="none" font-size="433.3333" font-family="sans-serif">O</text><text y="-32242" xml:space="preserve" x="-31930" stroke="none" font-size="433.3333" font-family="sans-serif">F</text><text y="-30928" xml:space="preserve" x="-29131" stroke="none" font-style="italic" font-size="313.3333" font-family="sans-serif">S</text></g></g></svg>