<svg width="527.49" viewBox="0 0 17583 8148" text-rendering="auto" stroke-width="1" stroke-opacity="1" stroke-miterlimit="10" stroke-linejoin="miter" stroke-linecap="square" stroke-dashoffset="0" stroke-dasharray="none" stroke="black" shape-rendering="auto" image-rendering="auto" height="244.44" font-weight="normal" font-style="normal" font-size="12" font-family="'Dialog'" fill-opacity="1" fill="black" color-rendering="auto" color-interpolation="auto" xmlns="http://www.w3.org/2000/svg"><g><g stroke="white" fill="white"><rect y="0" x="0" width="17583" stroke="none" height="8148"/></g><g transform="translate(32866,32758)" text-rendering="geometricPrecision" stroke-width="44" stroke-linejoin="round" stroke-linecap="round"><line y2="-29088" y1="-30235" x2="-27773" x1="-27773" fill="none"/><line y2="-29232" y1="-30093" x2="-27944" x1="-27944" fill="none"/><line y2="-30235" y1="-30697" x2="-27773" x1="-28568" fill="none"/><line y2="-28516" y1="-29088" x2="-28756" x1="-27773" fill="none"/><line y2="-30697" y1="-30235" x2="-28943" x1="-29738" fill="none"/><line y2="-29088" y1="-28516" x2="-29738" x1="-28756" fill="none"/><line y2="-29088" y1="-30235" x2="-29738" x1="-29738" fill="none"/><line y2="-30235" y1="-30810" x2="-29738" x1="-30720" fill="none"/><line y2="-30160" y1="-30590" x2="-29949" x1="-30685" fill="none"/><line y2="-28516" y1="-29088" x2="-30720" x1="-29738" fill="none"/><line y2="-28735" y1="-29163" x2="-30685" x1="-29949" fill="none"/><line y2="-30810" y1="-30235" x2="-30720" x1="-31705" fill="none"/><line y2="-29088" y1="-28516" x2="-31705" x1="-30720" fill="none"/><line y2="-30235" y1="-29088" x2="-31705" x1="-31705" fill="none"/><line y2="-30093" y1="-29232" x2="-31535" x1="-31535" fill="none"/><line y2="-30758" y1="-30235" x2="-26866" x1="-27773" fill="none"/><line y2="-28368" y1="-29088" x2="-26511" x1="-27773" fill="none"/><line y2="-27687" y1="-28516" x2="-30720" x1="-30720" fill="none"/><line y2="-30541" y1="-30235" x2="-32231" x1="-31705" fill="none"/><line y2="-27687" y1="-28516" x2="-28686" x1="-28686" fill="none"/><line y2="-27687" y1="-28516" x2="-28828" x1="-28828" fill="none"/><line y2="-31896" y1="-30758" x2="-26866" x1="-26866" fill="none"/><line y2="-31754" y1="-30902" x2="-26696" x1="-26696" fill="none"/><line y2="-30758" y1="-30191" x2="-26866" x1="-25881" fill="none"/><line y2="-32465" y1="-31896" x2="-25881" x1="-26866" fill="none"/><line y2="-30191" y1="-30758" x2="-25881" x1="-24896" fill="none"/><line y2="-30408" y1="-30836" x2="-25844" x1="-25104" fill="none"/><line y2="-31896" y1="-32465" x2="-24896" x1="-25881" fill="none"/><line y2="-31821" y1="-32248" x2="-25104" x1="-25844" fill="none"/><line y2="-30758" y1="-31896" x2="-24896" x1="-24896" fill="none"/><line y2="-32312" y1="-31896" x2="-24177" x1="-24896" fill="none"/><line y2="-28787" y1="-28218" x2="-25413" x1="-24431" fill="none"/><line y2="-29703" y1="-28787" x2="-25413" x1="-25413" fill="none"/><line y2="-28218" y1="-28787" x2="-24431" x1="-23443" fill="none"/><line y2="-30492" y1="-30032" x2="-24431" x1="-25225" fill="none"/><line y2="-28787" y1="-29923" x2="-23443" x1="-23443" fill="none"/><line y2="-29923" y1="-30492" x2="-23443" x1="-24431" fill="none"/><line y2="-26647" y1="-27063" x2="-23524" x1="-24243" fill="none"/><line y2="-29923" y1="-30339" x2="-21629" x1="-22348" fill="none"/><line y2="-27170" y1="-26647" x2="-22617" x1="-23524" fill="none"/><line y2="-25818" y1="-26647" x2="-23454" x1="-23454" fill="none"/><line y2="-25818" y1="-26647" x2="-23593" x1="-23593" fill="none"/><line y2="-30448" y1="-29923" x2="-20722" x1="-21629" fill="none"/><line y2="-29096" y1="-29923" x2="-21559" x1="-21559" fill="none"/><line y2="-29096" y1="-29923" x2="-21701" x1="-21701" fill="none"/><line y2="-27170" y1="-27170" x2="-21568" x1="-22617" fill="none"/><line y2="-27031" y1="-27031" x2="-21701" x1="-22487" fill="none"/><line y2="-30448" y1="-30448" x2="-19676" x1="-20722" fill="none"/><line y2="-30310" y1="-30310" x2="-19806" x1="-20592" fill="none"/><line y2="-26647" y1="-27170" x2="-20661" x1="-21568" fill="none"/><line y2="-29923" y1="-30448" x2="-18769" x1="-19676" fill="none"/><line y2="-26647" y1="-25508" x2="-20661" x1="-20661" fill="none"/><line y2="-26505" y1="-25653" x2="-20490" x1="-20490" fill="none"/><line y2="-27216" y1="-26647" x2="-19676" x1="-20661" fill="none"/><line y2="-25508" y1="-24939" x2="-20661" x1="-19676" fill="none"/><line y2="-26647" y1="-27216" x2="-18691" x1="-19676" fill="none"/><line y2="-26572" y1="-26996" x2="-18899" x1="-19638" fill="none"/><line y2="-24939" y1="-25508" x2="-19676" x1="-18691" fill="none"/><line y2="-25159" y1="-25586" x2="-19638" x1="-18899" fill="none"/><line y2="-25508" y1="-26647" x2="-18691" x1="-18691" fill="none"/><line y2="-25092" y1="-25508" x2="-17971" x1="-18691" fill="none"/><line y2="-29923" y1="-28787" x2="-18769" x1="-18769" fill="none"/><line y2="-29781" y1="-28929" x2="-18598" x1="-18598" fill="none"/><line y2="-30492" y1="-29923" x2="-17781" x1="-18769" fill="none"/><line y2="-28787" y1="-28218" x2="-18769" x1="-17781" fill="none"/><line y2="-29923" y1="-30492" x2="-16798" x1="-17781" fill="none"/><line y2="-29848" y1="-30275" x2="-17006" x1="-17743" fill="none"/><line y2="-28218" y1="-28787" x2="-17781" x1="-16798" fill="none"/><line y2="-28435" y1="-28862" x2="-17743" x1="-17006" fill="none"/><line y2="-28787" y1="-29923" x2="-16798" x1="-16798" fill="none"/><line y2="-28371" y1="-28787" x2="-16079" x1="-16798" fill="none"/><polygon stroke-width="1" stroke="none" points=" -24431 -28218 -24362 -27389 -24500 -27389"/><polygon stroke-width="1" points=" -24431 -28218 -24362 -27389 -24500 -27389" fill="none"/><polygon stroke-width="1" stroke="none" points=" -24431 -30492 -24500 -31538 -24362 -31540"/><polygon stroke-width="1" points=" -24431 -30492 -24500 -31538 -24362 -31540" fill="none"/><polygon stroke-width="1" stroke="none" points=" -23443 -28787 -22692 -28432 -22758 -28311"/><polygon stroke-width="1" points=" -23443 -28787 -22692 -28432 -22758 -28311" fill="none"/><line y2="-28429" y1="-28311" x2="-26167" x1="-26098" fill="none"/><line y2="-28522" y1="-28435" x2="-25971" x1="-25920" fill="none"/><line y2="-28616" y1="-28559" x2="-25774" x1="-25741" fill="none"/><line y2="-28709" y1="-28683" x2="-25578" x1="-25563" fill="none"/><line y2="-30278" y1="-30399" x2="-22689" x1="-22758" fill="none"/><line y2="-30185" y1="-30275" x2="-22886" x1="-22937" fill="none"/><line y2="-30093" y1="-30151" x2="-23082" x1="-23115" fill="none"/><line y2="-30000" y1="-30027" x2="-23279" x1="-23294" fill="none"/><text y="-28082" xml:space="preserve" x="-26473" stroke="none" font-size="433.3333" font-family="sans-serif">O</text><text y="-27288" xml:space="preserve" x="-28909" stroke="none" font-size="433.3333" font-family="sans-serif">O</text><text y="-27288" xml:space="preserve" x="-30873" stroke="none" font-size="433.3333" font-family="sans-serif">OH</text><text y="-26990" xml:space="preserve" x="-24584" stroke="none" font-size="433.3333" font-family="sans-serif">O</text><text y="-25419" xml:space="preserve" x="-23677" stroke="none" font-size="433.3333" font-family="sans-serif">O</text><text y="-32242" xml:space="preserve" x="-24142" stroke="none" font-size="433.3333" font-family="sans-serif">OH</text><text y="-30578" xml:space="preserve" x="-32762" stroke="none" font-size="433.3333" font-family="sans-serif">OH</text><text y="-28082" xml:space="preserve" x="-22689" stroke="none" font-size="433.3333" font-family="sans-serif">OH</text><text y="-30269" xml:space="preserve" x="-22689" stroke="none" font-size="433.3333" font-family="sans-serif">O</text><text y="-28698" xml:space="preserve" x="-21782" stroke="none" font-size="433.3333" font-family="sans-serif">O</text><text y="-24806" xml:space="preserve" x="-17937" stroke="none" font-size="433.3333" font-family="sans-serif">OH</text><text y="-28082" xml:space="preserve" x="-16042" stroke="none" font-size="433.3333" font-family="sans-serif">OH</text><text y="-30630" xml:space="preserve" x="-28909" stroke="none" font-size="433.3333" font-family="sans-serif">O</text><text y="-29744" xml:space="preserve" x="-25566" stroke="none" font-size="433.3333" font-family="sans-serif">O</text><text y="-26525" xml:space="preserve" x="-22244" stroke="none" font-style="italic" font-size="313.3333" font-family="sans-serif">Z</text><text y="-29801" xml:space="preserve" x="-20352" stroke="none" font-style="italic" font-size="313.3333" font-family="sans-serif">Z</text><text y="-28753" xml:space="preserve" x="-25318" stroke="none" font-style="italic" font-size="313.3333" font-family="sans-serif">S</text><text y="-28342" xml:space="preserve" x="-24584" stroke="none" font-style="italic" font-size="313.3333" font-family="sans-serif">R</text><text y="-28753" xml:space="preserve" x="-23844" stroke="none" font-style="italic" font-size="313.3333" font-family="sans-serif">R</text><text y="-30009" xml:space="preserve" x="-24584" stroke="none" font-style="italic" font-size="313.3333" font-family="sans-serif">S</text><text y="-29599" xml:space="preserve" x="-23844" stroke="none" font-style="italic" font-size="313.3333" font-family="sans-serif">R</text></g></g></svg>