<svg width="368.97" viewBox="0 0 12299 3057" text-rendering="auto" stroke-width="1" stroke-opacity="1" stroke-miterlimit="10" stroke-linejoin="miter" stroke-linecap="square" stroke-dashoffset="0" stroke-dasharray="none" stroke="black" shape-rendering="auto" image-rendering="auto" height="91.71" font-weight="normal" font-style="normal" font-size="12" font-family="'Dialog'" fill-opacity="1" fill="black" color-rendering="auto" color-interpolation="auto" xmlns="http://www.w3.org/2000/svg"><g><g stroke="white" fill="white"><rect y="0" x="0" width="12299" stroke="none" height="3057"/></g><g transform="translate(32866,32758)" text-rendering="geometricPrecision" stroke-width="44" stroke-linejoin="round" stroke-linecap="round"><line y2="-30602" y1="-31815" x2="-27031" x1="-27031" fill="none"/><line y2="-32315" y1="-31815" x2="-26161" x1="-27031" fill="none"/><line y2="-31815" y1="-32422" x2="-27031" x1="-28080" fill="none"/><line y2="-31746" y1="-32199" x2="-27248" x1="-28033" fill="none"/><line y2="-30602" y1="-30602" x2="-27031" x1="-25113" fill="none"/><line y2="-29995" y1="-30602" x2="-28080" x1="-27031" fill="none"/><line y2="-30217" y1="-30671" x2="-28033" x1="-27248" fill="none"/><line y2="-31815" y1="-32202" x2="-24925" x1="-25595" fill="none"/><line y2="-32422" y1="-31815" x2="-28080" x1="-29134" fill="none"/><line y2="-30821" y1="-31815" x2="-24925" x1="-24925" fill="none"/><line y2="-30945" y1="-31691" x2="-25095" x1="-25095" fill="none"/><line y2="-30602" y1="-29995" x2="-29134" x1="-28080" fill="none"/><line y2="-31815" y1="-30602" x2="-29134" x1="-29134" fill="none"/><line y2="-31662" y1="-30755" x2="-28964" x1="-28964" fill="none"/><line y2="-32231" y1="-31815" x2="-24206" x1="-24925" fill="none"/><line y2="-31815" y1="-32121" x2="-23111" x1="-23636" fill="none"/><line y2="-30186" y1="-30602" x2="-29853" x1="-29134" fill="none"/><line y2="-30602" y1="-30186" x2="-30948" x1="-30229" fill="none"/><line y2="-30076" y1="-30602" x2="-31855" x1="-30948" fill="none"/><line y2="-30602" y1="-30076" x2="-32762" x1="-31855" fill="none"/><line y2="-32231" y1="-31815" x2="-22391" x1="-23111" fill="none"/><line y2="-31925" y1="-32231" x2="-21484" x1="-22016" fill="none"/><line y2="-30986" y1="-31815" x2="-23041" x1="-23041" fill="none"/><line y2="-30986" y1="-31815" x2="-23180" x1="-23180" fill="none"/><text y="-32162" xml:space="preserve" x="-24171" stroke="none" font-size="433.3333" font-family="sans-serif">NH</text><text y="-32162" xml:space="preserve" x="-22354" stroke="none" font-size="433.3333" font-family="sans-serif">O</text><text y="-30587" xml:space="preserve" x="-23261" stroke="none" font-size="433.3333" font-family="sans-serif">O</text><text y="-31636" xml:space="preserve" x="-21447" stroke="none" font-size="433.3333" font-family="sans-serif">CH</text><text y="-31546" xml:space="preserve" x="-20869" stroke="none" font-size="313.3333" font-family="sans-serif">3</text><text y="-29897" xml:space="preserve" x="-30194" stroke="none" font-size="433.3333" font-family="sans-serif">O</text><text y="-32242" xml:space="preserve" x="-26127" stroke="none" font-size="433.3333" font-family="sans-serif">NH</text><text y="-30422" xml:space="preserve" x="-25078" stroke="none" font-size="433.3333" font-family="sans-serif">N</text></g></g></svg>