<svg width="389.61" viewBox="0 0 12987 5750" text-rendering="auto" stroke-width="1" stroke-opacity="1" stroke-miterlimit="10" stroke-linejoin="miter" stroke-linecap="square" stroke-dashoffset="0" stroke-dasharray="none" stroke="black" shape-rendering="auto" image-rendering="auto" height="172.5" font-weight="normal" font-style="normal" font-size="12" font-family="'Dialog'" fill-opacity="1" fill="black" color-rendering="auto" color-interpolation="auto" xmlns="http://www.w3.org/2000/svg"><g><g stroke="white" fill="white"><rect y="0" x="0" width="12987" stroke="none" height="5750"/></g><g transform="translate(32866,32758)" text-rendering="geometricPrecision" stroke-width="44" stroke-linejoin="round" stroke-linecap="round"><line y2="-30096" y1="-30555" x2="-29923" x1="-30717" fill="none"/><line y2="-28848" y1="-29767" x2="-29732" x1="-29732" fill="none"/><line y2="-30555" y1="-30096" x2="-30717" x1="-31514" fill="none"/><line y2="-28282" y1="-28848" x2="-30717" x1="-29732" fill="none"/><line y2="-28498" y1="-28926" x2="-30680" x1="-29940" fill="none"/><line y2="-29767" y1="-28848" x2="-31702" x1="-31702" fill="none"/><line y2="-29654" y1="-28964" x2="-31535" x1="-31535" fill="none"/><line y2="-28848" y1="-28282" x2="-31702" x1="-30717" fill="none"/><line y2="-28545" y1="-28848" x2="-32231" x1="-31702" fill="none"/><line y2="-31384" y1="-30555" x2="-30786" x1="-30786" fill="none"/><line y2="-31384" y1="-30555" x2="-30648" x1="-30648" fill="none"/><line y2="-30512" y1="-29960" x2="-28825" x1="-28114" fill="none"/><line y2="-31575" y1="-30512" x2="-28458" x1="-28825" fill="none"/><line y2="-29954" y1="-30512" x2="-27739" x1="-26985" fill="none"/><line y2="-31575" y1="-31575" x2="-27311" x1="-28458" fill="none"/><line y2="-30512" y1="-31575" x2="-26985" x1="-27311" fill="none"/><line y2="-30402" y1="-29986" x2="-25358" x1="-26078" fill="none"/><line y2="-30096" y1="-30402" x2="-24451" x1="-24983" fill="none"/><line y2="-30402" y1="-30096" x2="-23544" x1="-24076" fill="none"/><line y2="-30108" y1="-30408" x2="-22628" x1="-23166" fill="none"/><line y2="-29299" y1="-29767" x2="-23865" x1="-24136" fill="none"/><line y2="-29264" y1="-29732" x2="-24598" x1="-24327" fill="none"/><line y2="-29333" y1="-29801" x2="-24720" x1="-24448" fill="none"/><line y2="-29174" y1="-29784" x2="-22440" x1="-22440" fill="none"/><line y2="-28542" y1="-28848" x2="-21721" x1="-22253" fill="none"/><line y2="-30004" y1="-30004" x2="-21580" x1="-22253" fill="none"/><line y2="-30726" y1="-30258" x2="-22105" x1="-22374" fill="none"/><line y2="-30656" y1="-30188" x2="-21981" x1="-22253" fill="none"/><line y2="-27603" y1="-28212" x2="-21533" x1="-21533" fill="none"/><line y2="-28432" y1="-28432" x2="-20672" x1="-21346" fill="none"/><line y2="-29148" y1="-28686" x2="-21184" x1="-21461" fill="none"/><line y2="-29076" y1="-28617" x2="-21065" x1="-21340" fill="none"/><polygon stroke-width="1" stroke="none" points=" -29510 -30035 -28825 -30512 -29579 -30154"/><polygon stroke-width="1" points=" -29510 -30035 -28825 -30512 -29579 -30154" fill="none"/><polygon stroke-width="1" stroke="none" points=" -26985 -30512 -26043 -30047 -26109 -29926"/><polygon stroke-width="1" points=" -26985 -30512 -26043 -30047 -26109 -29926" fill="none"/><line y2="-32162" y1="-32242" x2="-26800" x1="-26910" fill="none"/><line y2="-31998" y1="-32056" x2="-26943" x1="-27022" fill="none"/><line y2="-31834" y1="-31869" x2="-27086" x1="-27134" fill="none"/><line y2="-31670" y1="-31683" x2="-27228" x1="-27246" fill="none"/><text y="-31425" xml:space="preserve" x="-30867" stroke="none" font-size="433.3333" font-family="sans-serif">O</text><text y="-30333" xml:space="preserve" x="-25321" stroke="none" font-size="433.3333" font-family="sans-serif">O</text><text y="-29807" xml:space="preserve" x="-24414" stroke="none" font-size="433.3333" font-family="sans-serif">P</text><text y="-30333" xml:space="preserve" x="-23506" stroke="none" font-size="433.3333" font-family="sans-serif">O</text><text y="-28900" xml:space="preserve" x="-24939" stroke="none" font-size="433.3333" font-family="sans-serif">O</text><text y="-28900" xml:space="preserve" x="-23891" stroke="none" font-size="433.3333" font-family="sans-serif">OH</text><text y="-29824" xml:space="preserve" x="-22591" stroke="none" font-size="433.3333" font-family="sans-serif">P</text><text y="-28776" xml:space="preserve" x="-22591" stroke="none" font-size="433.3333" font-family="sans-serif">O</text><text y="-30732" xml:space="preserve" x="-22068" stroke="none" font-size="433.3333" font-family="sans-serif">O</text><text y="-29824" xml:space="preserve" x="-21545" stroke="none" font-size="433.3333" font-family="sans-serif">OH</text><text y="-28253" xml:space="preserve" x="-21684" stroke="none" font-size="433.3333" font-family="sans-serif">P</text><text y="-29154" xml:space="preserve" x="-21146" stroke="none" font-size="433.3333" font-family="sans-serif">O</text><text y="-27204" xml:space="preserve" x="-21684" stroke="none" font-size="433.3333" font-family="sans-serif">OH</text><text y="-28253" xml:space="preserve" x="-20638" stroke="none" font-size="433.3333" font-family="sans-serif">OH</text><text y="-32242" xml:space="preserve" x="-26849" stroke="none" font-size="433.3333" font-family="sans-serif">OH</text><text y="-28146" xml:space="preserve" x="-32762" stroke="none" font-size="433.3333" font-family="sans-serif">NH</text><text y="-28056" xml:space="preserve" x="-32185" stroke="none" font-size="313.3333" font-family="sans-serif">2</text><text y="-29807" xml:space="preserve" x="-29885" stroke="none" font-size="433.3333" font-family="sans-serif">N</text><text y="-29807" xml:space="preserve" x="-31855" stroke="none" font-size="433.3333" font-family="sans-serif">N</text><text y="-29637" xml:space="preserve" x="-28080" stroke="none" font-size="433.3333" font-family="sans-serif">O</text><text y="-30428" xml:space="preserve" x="-28709" stroke="none" font-style="italic" font-size="313.3333" font-family="sans-serif">R</text><text y="-30405" xml:space="preserve" x="-27415" stroke="none" font-style="italic" font-size="313.3333" font-family="sans-serif">R</text><text y="-31110" xml:space="preserve" x="-27695" stroke="none" font-style="italic" font-size="313.3333" font-family="sans-serif">S</text></g></g></svg>