<svg width="300.63" viewBox="0 0 10021 7637" text-rendering="auto" stroke-width="1" stroke-opacity="1" stroke-miterlimit="10" stroke-linejoin="miter" stroke-linecap="square" stroke-dashoffset="0" stroke-dasharray="none" stroke="black" shape-rendering="auto" image-rendering="auto" height="229.11" font-weight="normal" font-style="normal" font-size="12" font-family="'Dialog'" fill-opacity="1" fill="black" color-rendering="auto" color-interpolation="auto" xmlns="http://www.w3.org/2000/svg"><g><g stroke="white" fill="white"><rect y="0" x="0" width="10021" stroke="none" height="7637"/></g><g transform="translate(32866,32758)" text-rendering="geometricPrecision" stroke-width="44" stroke-linejoin="round" stroke-linecap="round"><line y2="-27502" y1="-26933" x2="-25901" x1="-26889" fill="none"/><line y2="-26933" y1="-27502" x2="-24919" x1="-25901" fill="none"/><line y2="-25794" y1="-26933" x2="-26889" x1="-26889" fill="none"/><line y2="-26933" y1="-27502" x2="-26889" x1="-27874" fill="none"/><line y2="-26855" y1="-27282" x2="-27097" x1="-27837" fill="none"/><line y2="-25794" y1="-26933" x2="-24919" x1="-24919" fill="none"/><line y2="-27502" y1="-26933" x2="-23931" x1="-24919" fill="none"/><line y2="-27282" y1="-26855" x2="-23972" x1="-24711" fill="none"/><line y2="-25794" y1="-25794" x2="-26889" x1="-24919" fill="none"/><line y2="-25225" y1="-25794" x2="-27874" x1="-26889" fill="none"/><line y2="-25445" y1="-25870" x2="-27837" x1="-27097" fill="none"/><line y2="-27502" y1="-26933" x2="-27874" x1="-28860" fill="none"/><line y2="-25794" y1="-25225" x2="-24919" x1="-23931" fill="none"/><line y2="-25872" y1="-25445" x2="-24711" x1="-23972" fill="none"/><line y2="-26933" y1="-27502" x2="-22949" x1="-23931" fill="none"/><line y2="-25794" y1="-25225" x2="-28860" x1="-27874" fill="none"/><line y2="-26933" y1="-25794" x2="-28860" x1="-28860" fill="none"/><line y2="-26788" y1="-25936" x2="-28689" x1="-28689" fill="none"/><line y2="-25225" y1="-25794" x2="-23931" x1="-22949" fill="none"/><line y2="-25794" y1="-26933" x2="-22949" x1="-22949" fill="none"/><line y2="-25936" y1="-26788" x2="-23119" x1="-23119" fill="none"/><line y2="-28548" y1="-27502" x2="-25901" x1="-25901" fill="none"/><line y2="-28964" y1="-28548" x2="-26621" x1="-25901" fill="none"/><line y2="-30119" y1="-29293" x2="-26808" x1="-26808" fill="none"/><line y2="-30425" y1="-30119" x2="-27337" x1="-26808" fill="none"/><line y2="-30119" y1="-30535" x2="-28623" x1="-27906" fill="none"/><line y2="-30596" y1="-30180" x2="-26127" x1="-26843" fill="none"/><line y2="-30474" y1="-30058" x2="-26054" x1="-26774" fill="none"/><line y2="-30645" y1="-30119" x2="-29530" x1="-28623" fill="none"/><line y2="-30119" y1="-30645" x2="-30440" x1="-29530" fill="none"/><line y2="-30119" y1="-30688" x2="-30440" x1="-31422" fill="none"/><line y2="-30044" y1="-30472" x2="-30645" x1="-31384" fill="none"/><line y2="-28984" y1="-30119" x2="-30440" x1="-30440" fill="none"/><line y2="-30688" y1="-30119" x2="-31422" x1="-32410" fill="none"/><line y2="-28415" y1="-28984" x2="-31422" x1="-30440" fill="none"/><line y2="-28631" y1="-29059" x2="-31384" x1="-30645" fill="none"/><line y2="-30119" y1="-28984" x2="-32410" x1="-32410" fill="none"/><line y2="-29978" y1="-29125" x2="-32240" x1="-32240" fill="none"/><line y2="-28984" y1="-28415" x2="-32410" x1="-31422" fill="none"/><line y2="-31517" y1="-30688" x2="-31422" x1="-31422" fill="none"/><line y2="-32092" y1="-31844" x2="-32040" x1="-31610" fill="none"/><line y2="-28767" y1="-29073" x2="-29151" x1="-28623" fill="none"/><line y2="-28718" y1="-29114" x2="-27869" x1="-28553" fill="none"/><line y2="-28597" y1="-29013" x2="-27941" x1="-28660" fill="none"/><line y2="-29070" y1="-29073" x2="-28692" x1="-28556" fill="none"/><line y2="-29287" y1="-29289" x2="-28678" x1="-28570" fill="none"/><line y2="-29504" y1="-29506" x2="-28663" x1="-28584" fill="none"/><line y2="-29721" y1="-29722" x2="-28649" x1="-28598" fill="none"/><line y2="-29938" y1="-29938" x2="-28635" x1="-28611" fill="none"/><text y="-28894" xml:space="preserve" x="-26962" stroke="none" font-size="433.3333" font-family="sans-serif">O</text><text y="-30466" xml:space="preserve" x="-27869" stroke="none" font-size="433.3333" font-family="sans-serif">NH</text><text y="-30466" xml:space="preserve" x="-26054" stroke="none" font-size="433.3333" font-family="sans-serif">O</text><text y="-28368" xml:space="preserve" x="-29683" stroke="none" font-size="433.3333" font-family="sans-serif">OH</text><text y="-28368" xml:space="preserve" x="-27869" stroke="none" font-size="433.3333" font-family="sans-serif">O</text><text y="-31558" xml:space="preserve" x="-31575" stroke="none" font-size="433.3333" font-family="sans-serif">O</text><text y="-32242" xml:space="preserve" x="-32762" stroke="none" font-size="433.3333" font-family="sans-serif">CH</text><text y="-32153" xml:space="preserve" x="-32185" stroke="none" font-size="313.3333" font-family="sans-serif">3</text><text y="-30243" xml:space="preserve" x="-28776" stroke="none" font-style="italic" font-size="313.3333" font-family="sans-serif">S</text></g></g></svg>