<svg width="447.45" viewBox="0 0 14915 4851" text-rendering="auto" stroke-width="1" stroke-opacity="1" stroke-miterlimit="10" stroke-linejoin="miter" stroke-linecap="square" stroke-dashoffset="0" stroke-dasharray="none" stroke="black" shape-rendering="auto" image-rendering="auto" height="145.53" font-weight="normal" font-style="normal" font-size="12" font-family="'Dialog'" fill-opacity="1" fill="black" color-rendering="auto" color-interpolation="auto" xmlns="http://www.w3.org/2000/svg"><g><g stroke="white" fill="white"><rect y="0" x="0" width="14915" stroke="none" height="4851"/></g><g transform="translate(32866,32758)" text-rendering="geometricPrecision" stroke-width="44" stroke-linejoin="round" stroke-linecap="round"><line y2="-30301" y1="-30607" x2="-24593" x1="-24064" fill="none"/><line y2="-30607" y1="-30191" x2="-25878" x1="-25159" fill="none"/><line y2="-30082" y1="-30607" x2="-23157" x1="-24064" fill="none"/><line y2="-30607" y1="-30082" x2="-22250" x1="-23157" fill="none"/><line y2="-30082" y1="-30607" x2="-26785" x1="-25878" fill="none"/><line y2="-31434" y1="-30607" x2="-25950" x1="-25950" fill="none"/><line y2="-31434" y1="-30607" x2="-25809" x1="-25809" fill="none"/><line y2="-30607" y1="-30607" x2="-22250" x1="-20152" fill="none"/><line y2="-31818" y1="-30607" x2="-20152" x1="-20152" fill="none"/><line y2="-30607" y1="-30001" x2="-20152" x1="-19104" fill="none"/><line y2="-30677" y1="-30223" x2="-19936" x1="-19150" fill="none"/><line y2="-31818" y1="-30607" x2="-22250" x1="-22250" fill="none"/><line y2="-31665" y1="-30758" x2="-22079" x1="-22079" fill="none"/><line y2="-31818" y1="-32202" x2="-20152" x1="-20823" fill="none"/><line y2="-32422" y1="-31818" x2="-19104" x1="-20152" fill="none"/><line y2="-32199" y1="-31746" x2="-19150" x1="-19936" fill="none"/><line y2="-30001" y1="-30607" x2="-19104" x1="-18055" fill="none"/><line y2="-32315" y1="-31818" x2="-21392" x1="-22250" fill="none"/><line y2="-31818" y1="-32422" x2="-18055" x1="-19104" fill="none"/><line y2="-30607" y1="-31818" x2="-18055" x1="-18055" fill="none"/><line y2="-30758" y1="-31665" x2="-18226" x1="-18226" fill="none"/><line y2="-32069" y1="-31653" x2="-23345" x1="-24064" fill="none"/><line y2="-32008" y1="-31613" x2="-24818" x1="-24136" fill="none"/><line y2="-32130" y1="-31714" x2="-24749" x1="-24029" fill="none"/><line y2="-30607" y1="-30082" x2="-27692" x1="-26785" fill="none"/><line y2="-30082" y1="-30607" x2="-28600" x1="-27692" fill="none"/><line y2="-30082" y1="-30082" x2="-28600" x1="-30682" fill="none"/><line y2="-28883" y1="-30082" x2="-28600" x1="-28600" fill="none"/><line y2="-29033" y1="-29931" x2="-28770" x1="-28770" fill="none"/><line y2="-28883" y1="-30082" x2="-30682" x1="-30682" fill="none"/><line y2="-30082" y1="-30682" x2="-30682" x1="-31720" fill="none"/><line y2="-30009" y1="-30460" x2="-30896" x1="-31676" fill="none"/><line y2="-28501" y1="-28883" x2="-29258" x1="-28600" fill="none"/><line y2="-28883" y1="-28389" x2="-30682" x1="-29827" fill="none"/><line y2="-28282" y1="-28883" x2="-31720" x1="-30682" fill="none"/><line y2="-28504" y1="-28955" x2="-31676" x1="-30896" fill="none"/><line y2="-30682" y1="-30082" x2="-31720" x1="-32762" fill="none"/><line y2="-28883" y1="-28282" x2="-32762" x1="-31720" fill="none"/><line y2="-30082" y1="-28883" x2="-32762" x1="-32762" fill="none"/><line y2="-29931" y1="-29033" x2="-32592" x1="-32592" fill="none"/><polygon stroke-width="1" stroke="none" points=" -26785 -30082 -26719 -29255 -26855 -29252"/><polygon stroke-width="1" points=" -26785 -30082 -26719 -29255 -26855 -29252" fill="none"/><line y2="-31653" y1="-31653" x2="-23995" x1="-24133" fill="none"/><line y2="-31436" y1="-31436" x2="-24009" x1="-24119" fill="none"/><line y2="-31220" y1="-31220" x2="-24024" x1="-24104" fill="none"/><line y2="-31003" y1="-31003" x2="-24038" x1="-24090" fill="none"/><line y2="-30786" y1="-30786" x2="-24052" x1="-24076" fill="none"/><text y="-29902" xml:space="preserve" x="-25124" stroke="none" font-size="433.3333" font-family="sans-serif">NH</text><text y="-32000" xml:space="preserve" x="-23310" stroke="none" font-size="433.3333" font-family="sans-serif">OH</text><text y="-32000" xml:space="preserve" x="-25124" stroke="none" font-size="433.3333" font-family="sans-serif">O</text><text y="-31474" xml:space="preserve" x="-26031" stroke="none" font-size="433.3333" font-family="sans-serif">O</text><text y="-28857" xml:space="preserve" x="-26938" stroke="none" font-size="433.3333" font-family="sans-serif">NH</text><text y="-28767" xml:space="preserve" x="-26361" stroke="none" font-size="313.3333" font-family="sans-serif">2</text><text y="-32242" xml:space="preserve" x="-21357" stroke="none" font-size="433.3333" font-family="sans-serif">NH</text><text y="-28103" xml:space="preserve" x="-29790" stroke="none" font-size="433.3333" font-family="sans-serif">NH</text><text y="-30125" xml:space="preserve" x="-24217" stroke="none" font-style="italic" font-size="313.3333" font-family="sans-serif">S</text><text y="-30206" xml:space="preserve" x="-26938" stroke="none" font-style="italic" font-size="313.3333" font-family="sans-serif">S</text></g></g></svg>