<svg width="240.24" viewBox="0 0 8008 4560" text-rendering="auto" stroke-width="1" stroke-opacity="1" stroke-miterlimit="10" stroke-linejoin="miter" stroke-linecap="square" stroke-dashoffset="0" stroke-dasharray="none" stroke="black" shape-rendering="auto" image-rendering="auto" height="136.8" font-weight="normal" font-style="normal" font-size="12" font-family="'Dialog'" fill-opacity="1" fill="black" color-rendering="auto" color-interpolation="auto" xmlns="http://www.w3.org/2000/svg"><g><g stroke="white" fill="white"><rect y="0" x="0" width="8008" stroke="none" height="4560"/></g><g transform="translate(32866,32758)" text-rendering="geometricPrecision" stroke-width="44" stroke-linejoin="round" stroke-linecap="round"><line y2="-30235" y1="-30758" x2="-26933" x1="-27840" fill="none"/><line y2="-30454" y1="-30758" x2="-28368" x1="-27840" fill="none"/><line y2="-30758" y1="-30344" x2="-29654" x1="-28935" fill="none"/><line y2="-31587" y1="-30758" x2="-27909" x1="-27909" fill="none"/><line y2="-31587" y1="-30758" x2="-27770" x1="-27770" fill="none"/><line y2="-30235" y1="-29096" x2="-26933" x1="-26933" fill="none"/><line y2="-30093" y1="-29241" x2="-26762" x1="-26762" fill="none"/><line y2="-30804" y1="-30235" x2="-25945" x1="-26933" fill="none"/><line y2="-29096" y1="-28530" x2="-26933" x1="-25945" fill="none"/><line y2="-30235" y1="-30804" x2="-24962" x1="-25945" fill="none"/><line y2="-30160" y1="-30587" x2="-25170" x1="-25907" fill="none"/><line y2="-28530" y1="-29096" x2="-25945" x1="-24962" fill="none"/><line y2="-28747" y1="-29174" x2="-25907" x1="-25170" fill="none"/><line y2="-29096" y1="-30235" x2="-24962" x1="-24962" fill="none"/><line y2="-28793" y1="-29096" x2="-27461" x1="-26933" fill="none"/><line y2="-31633" y1="-30804" x2="-25945" x1="-25945" fill="none"/><line y2="-30758" y1="-31896" x2="-29654" x1="-29654" fill="none"/><line y2="-30902" y1="-31754" x2="-29824" x1="-29824" fill="none"/><line y2="-30191" y1="-30758" x2="-30639" x1="-29654" fill="none"/><line y2="-31896" y1="-32465" x2="-29654" x1="-30639" fill="none"/><line y2="-30758" y1="-30191" x2="-31624" x1="-30639" fill="none"/><line y2="-30836" y1="-30408" x2="-31416" x1="-30677" fill="none"/><line y2="-32465" y1="-31896" x2="-30639" x1="-31624" fill="none"/><line y2="-32245" y1="-31821" x2="-30677" x1="-31416" fill="none"/><line y2="-31896" y1="-30758" x2="-31624" x1="-31624" fill="none"/><line y2="-32222" y1="-31896" x2="-32190" x1="-31624" fill="none"/><text y="-30056" xml:space="preserve" x="-28900" stroke="none" font-size="433.3333" font-family="sans-serif">NH</text><text y="-31627" xml:space="preserve" x="-27993" stroke="none" font-size="433.3333" font-family="sans-serif">O</text><text y="-28394" xml:space="preserve" x="-27993" stroke="none" font-size="433.3333" font-family="sans-serif">OH</text><text y="-31673" xml:space="preserve" x="-26098" stroke="none" font-size="433.3333" font-family="sans-serif">OH</text><text y="-32242" xml:space="preserve" x="-32762" stroke="none" font-size="433.3333" font-family="sans-serif">Br</text></g></g></svg>