<svg width="369.36" viewBox="0 0 12312 4242" text-rendering="auto" stroke-width="1" stroke-opacity="1" stroke-miterlimit="10" stroke-linejoin="miter" stroke-linecap="square" stroke-dashoffset="0" stroke-dasharray="none" stroke="black" shape-rendering="auto" image-rendering="auto" height="127.26" font-weight="normal" font-style="normal" font-size="12" font-family="'Dialog'" fill-opacity="1" fill="black" color-rendering="auto" color-interpolation="auto" xmlns="http://www.w3.org/2000/svg"><g><g stroke="white" fill="white"><rect y="0" x="0" width="12312" stroke="none" height="4242"/></g><g transform="translate(32866,32758)" text-rendering="geometricPrecision" stroke-width="44" stroke-linejoin="round" stroke-linecap="round"><line y2="-30434" y1="-30847" x2="-27352" x1="-28071" fill="none"/><line y2="-30847" y1="-30544" x2="-26257" x1="-26782" fill="none"/><line y2="-30434" y1="-30847" x2="-28790" x1="-28071" fill="none"/><line y2="-30847" y1="-30434" x2="-29885" x1="-29166" fill="none"/><line y2="-30324" y1="-30847" x2="-30792" x1="-29885" fill="none"/><line y2="-31676" y1="-30847" x2="-28140" x1="-28140" fill="none"/><line y2="-31676" y1="-30847" x2="-28002" x1="-28002" fill="none"/><line y2="-30324" y1="-30847" x2="-25350" x1="-26257" fill="none"/><line y2="-30740" y1="-30324" x2="-24630" x1="-25350" fill="none"/><line y2="-30324" y1="-30740" x2="-23535" x1="-24255" fill="none"/><line y2="-30847" y1="-30324" x2="-22628" x1="-23535" fill="none"/><line y2="-30324" y1="-30893" x2="-30792" x1="-31774" fill="none"/><line y2="-30249" y1="-30677" x2="-31000" x1="-31737" fill="none"/><line y2="-29186" y1="-30324" x2="-30792" x1="-30792" fill="none"/><line y2="-30893" y1="-30324" x2="-31774" x1="-32762" fill="none"/><line y2="-28620" y1="-29186" x2="-31774" x1="-30792" fill="none"/><line y2="-28836" y1="-29264" x2="-31737" x1="-31000" fill="none"/><line y2="-30324" y1="-29186" x2="-32762" x1="-32762" fill="none"/><line y2="-30183" y1="-29330" x2="-32592" x1="-32592" fill="none"/><line y2="-29186" y1="-28620" x2="-32762" x1="-31774" fill="none"/><line y2="-31985" y1="-30847" x2="-22628" x1="-22628" fill="none"/><line y2="-31844" y1="-30992" x2="-22458" x1="-22458" fill="none"/><line y2="-30847" y1="-30281" x2="-22628" x1="-21640" fill="none"/><line y2="-32554" y1="-31985" x2="-21640" x1="-22628" fill="none"/><line y2="-30281" y1="-30847" x2="-21640" x1="-20658" fill="none"/><line y2="-30498" y1="-30925" x2="-21603" x1="-20866" fill="none"/><line y2="-31985" y1="-32554" x2="-20658" x1="-21640" fill="none"/><line y2="-31910" y1="-32338" x2="-20866" x1="-21603" fill="none"/><line y2="-30847" y1="-31985" x2="-20658" x1="-20658" fill="none"/><line y2="-32312" y1="-31896" x2="-25537" x1="-26257" fill="none"/><line y2="-32251" y1="-31855" x2="-27011" x1="-26326" fill="none"/><line y2="-32372" y1="-31956" x2="-26941" x1="-26222" fill="none"/><line y2="-31896" y1="-31896" x2="-26187" x1="-26326" fill="none"/><line y2="-31679" y1="-31679" x2="-26201" x1="-26312" fill="none"/><line y2="-31463" y1="-31463" x2="-26216" x1="-26297" fill="none"/><line y2="-31246" y1="-31246" x2="-26230" x1="-26283" fill="none"/><line y2="-31029" y1="-31029" x2="-26245" x1="-26269" fill="none"/><text y="-30145" xml:space="preserve" x="-29131" stroke="none" font-size="433.3333" font-family="sans-serif">O</text><text y="-30145" xml:space="preserve" x="-27317" stroke="none" font-size="433.3333" font-family="sans-serif">NH</text><text y="-31717" xml:space="preserve" x="-28224" stroke="none" font-size="433.3333" font-family="sans-serif">O</text><text y="-30668" xml:space="preserve" x="-24596" stroke="none" font-size="433.3333" font-family="sans-serif">O</text><text y="-32242" xml:space="preserve" x="-25503" stroke="none" font-size="433.3333" font-family="sans-serif">OH</text><text y="-32242" xml:space="preserve" x="-27317" stroke="none" font-size="433.3333" font-family="sans-serif">O</text><text y="-30368" xml:space="preserve" x="-26410" stroke="none" font-style="italic" font-size="313.3333" font-family="sans-serif">S</text></g></g></svg>