<svg width="400.32" viewBox="0 0 13344 4560" text-rendering="auto" stroke-width="1" stroke-opacity="1" stroke-miterlimit="10" stroke-linejoin="miter" stroke-linecap="square" stroke-dashoffset="0" stroke-dasharray="none" stroke="black" shape-rendering="auto" image-rendering="auto" height="136.8" font-weight="normal" font-style="normal" font-size="12" font-family="'Dialog'" fill-opacity="1" fill="black" color-rendering="auto" color-interpolation="auto" xmlns="http://www.w3.org/2000/svg"><g><g stroke="white" fill="white"><rect y="0" x="0" width="13344" stroke="none" height="4560"/></g><g transform="translate(32866,32758)" text-rendering="geometricPrecision" stroke-width="44" stroke-linejoin="round" stroke-linecap="round"><line y2="-30235" y1="-29096" x2="-29654" x1="-29654" fill="none"/><line y2="-29096" y1="-29096" x2="-29654" x1="-27681" fill="none"/><line y2="-28530" y1="-29096" x2="-30636" x1="-29654" fill="none"/><line y2="-28747" y1="-29174" x2="-30599" x1="-29862" fill="none"/><line y2="-30694" y1="-30235" x2="-28854" x1="-29654" fill="none"/><line y2="-30235" y1="-30804" x2="-29654" x1="-30636" fill="none"/><line y2="-30160" y1="-30587" x2="-29862" x1="-30599" fill="none"/><line y2="-29096" y1="-30235" x2="-27681" x1="-27681" fill="none"/><line y2="-29241" y1="-30093" x2="-27851" x1="-27851" fill="none"/><line y2="-29096" y1="-28530" x2="-31624" x1="-30636" fill="none"/><line y2="-30235" y1="-30694" x2="-27681" x1="-28478" fill="none"/><line y2="-30804" y1="-30235" x2="-30636" x1="-31624" fill="none"/><line y2="-30235" y1="-29096" x2="-31624" x1="-31624" fill="none"/><line y2="-30093" y1="-29241" x2="-31454" x1="-31454" fill="none"/><line y2="-30651" y1="-30235" x2="-26962" x1="-27681" fill="none"/><line y2="-28357" y1="-29096" x2="-26941" x1="-27681" fill="none"/><line y2="-28770" y1="-29096" x2="-32190" x1="-31624" fill="none"/><line y2="-30344" y1="-30651" x2="-26054" x1="-26586" fill="none"/><line y2="-30758" y1="-30454" x2="-24960" x1="-25488" fill="none"/><line y2="-31483" y1="-31015" x2="-26439" x1="-26710" fill="none"/><line y2="-31410" y1="-30942" x2="-26317" x1="-26586" fill="none"/><line y2="-31410" y1="-30942" x2="-27233" x1="-26962" fill="none"/><line y2="-31483" y1="-31015" x2="-27109" x1="-26840" fill="none"/><line y2="-30758" y1="-30191" x2="-24960" x1="-23977" fill="none"/><line y2="-30836" y1="-30408" x2="-24752" x1="-24015" fill="none"/><line y2="-31896" y1="-30758" x2="-24960" x1="-24960" fill="none"/><line y2="-30191" y1="-30758" x2="-23977" x1="-22989" fill="none"/><line y2="-32465" y1="-31896" x2="-23977" x1="-24960" fill="none"/><line y2="-32248" y1="-31821" x2="-24015" x1="-24752" fill="none"/><line y2="-30758" y1="-31896" x2="-22989" x1="-22989" fill="none"/><line y2="-30902" y1="-31754" x2="-23160" x1="-23160" fill="none"/><line y2="-31896" y1="-32465" x2="-22989" x1="-23977" fill="none"/><line y2="-30344" y1="-30758" x2="-22270" x1="-22989" fill="none"/><line y2="-32312" y1="-31896" x2="-22270" x1="-22989" fill="none"/><line y2="-32006" y1="-32312" x2="-21363" x1="-21894" fill="none"/><line y2="-30015" y1="-29096" x2="-22082" x1="-22082" fill="none"/><line y2="-30804" y1="-30344" x2="-21097" x1="-21894" fill="none"/><line y2="-29096" y1="-28530" x2="-22082" x1="-21097" fill="none"/><line y2="-30235" y1="-30804" x2="-20112" x1="-21097" fill="none"/><line y2="-28530" y1="-28990" x2="-21097" x1="-20300" fill="none"/><line y2="-29316" y1="-30235" x2="-20112" x1="-20112" fill="none"/><text y="-30578" xml:space="preserve" x="-26927" stroke="none" font-size="433.3333" font-family="sans-serif">S</text><text y="-30056" xml:space="preserve" x="-26020" stroke="none" font-size="433.3333" font-family="sans-serif">NH</text><text y="-31486" xml:space="preserve" x="-26404" stroke="none" font-size="433.3333" font-family="sans-serif">O</text><text y="-31486" xml:space="preserve" x="-27450" stroke="none" font-size="433.3333" font-family="sans-serif">O</text><text y="-28394" xml:space="preserve" x="-32762" stroke="none" font-size="433.3333" font-family="sans-serif">Cl</text><text y="-32242" xml:space="preserve" x="-22235" stroke="none" font-size="433.3333" font-family="sans-serif">O</text><text y="-31717" xml:space="preserve" x="-21328" stroke="none" font-size="433.3333" font-family="sans-serif">CH</text><text y="-31627" xml:space="preserve" x="-20750" stroke="none" font-size="313.3333" font-family="sans-serif">3</text><text y="-30625" xml:space="preserve" x="-28816" stroke="none" font-size="433.3333" font-family="sans-serif">S</text><text y="-30056" xml:space="preserve" x="-22235" stroke="none" font-size="433.3333" font-family="sans-serif">N</text><text y="-28917" xml:space="preserve" x="-20265" stroke="none" font-size="433.3333" font-family="sans-serif">NH</text></g></g></svg>