<svg width="178.95" viewBox="0 0 5965 2994" text-rendering="auto" stroke-width="1" stroke-opacity="1" stroke-miterlimit="10" stroke-linejoin="miter" stroke-linecap="square" stroke-dashoffset="0" stroke-dasharray="none" stroke="black" shape-rendering="auto" image-rendering="auto" height="89.82" font-weight="normal" font-style="normal" font-size="12" font-family="'Dialog'" fill-opacity="1" fill="black" color-rendering="auto" color-interpolation="auto" xmlns="http://www.w3.org/2000/svg"><g><g stroke="white" fill="white"><rect y="0" x="0" width="5965" stroke="none" height="2994"/></g><g transform="translate(32866,32758)" text-rendering="geometricPrecision" stroke-width="44" stroke-linejoin="round" stroke-linecap="round"><line y2="-31997" y1="-30850" x2="-29134" x1="-29134" fill="none"/><line y2="-30850" y1="-30850" x2="-28862" x1="-29134" fill="none"/><line y2="-30850" y1="-30850" x2="-27987" x1="-28585" fill="none"/><line y2="-30850" y1="-29868" x2="-29134" x1="-29706" fill="none"/><line y2="-32569" y1="-31997" x2="-28149" x1="-29134" fill="none"/><line y2="-31422" y1="-30850" x2="-27005" x1="-27987" fill="none"/><line y2="-29868" y1="-30440" x2="-29706" x1="-28724" fill="none"/><line y2="-31587" y1="-32569" x2="-28724" x1="-28149" fill="none"/><line y2="-32364" y1="-32569" x2="-27207" x1="-28149" fill="none"/><line y2="-31422" y1="-32364" x2="-27005" x1="-27207" fill="none"/><line y2="-30440" y1="-31422" x2="-27577" x1="-27005" fill="none"/><line y2="-31587" y1="-30440" x2="-28724" x1="-28724" fill="none"/><line y2="-30440" y1="-30440" x2="-28724" x1="-27577" fill="none"/><line y2="-31373" y1="-30850" x2="-30041" x1="-29134" fill="none"/><line y2="-30957" y1="-31373" x2="-30760" x1="-30041" fill="none"/><line y2="-31373" y1="-30957" x2="-31855" x1="-31136" fill="none"/><line y2="-30850" y1="-31373" x2="-32762" x1="-31855" fill="none"/><line y2="-32202" y1="-31373" x2="-30110" x1="-30110" fill="none"/><line y2="-32202" y1="-31373" x2="-29969" x1="-29969" fill="none"/><text y="-30671" xml:space="preserve" x="-31098" stroke="none" font-size="433.3333" font-family="sans-serif">O</text><text y="-32242" xml:space="preserve" x="-30191" stroke="none" font-size="433.3333" font-family="sans-serif">O</text></g></g></svg>