<svg width="300.81" viewBox="0 0 10027 4142" text-rendering="auto" stroke-width="1" stroke-opacity="1" stroke-miterlimit="10" stroke-linejoin="miter" stroke-linecap="square" stroke-dashoffset="0" stroke-dasharray="none" stroke="black" shape-rendering="auto" image-rendering="auto" height="124.26" font-weight="normal" font-style="normal" font-size="12" font-family="'Dialog'" fill-opacity="1" fill="black" color-rendering="auto" color-interpolation="auto" xmlns="http://www.w3.org/2000/svg"><g><g stroke="white" fill="white"><rect y="0" x="0" width="10027" stroke="none" height="4142"/></g><g transform="translate(32866,32866)" text-rendering="geometricPrecision" stroke-width="44" stroke-linejoin="round" stroke-linecap="round"><line y2="-30532" y1="-31101" x2="-27635" x1="-28620" fill="none"/><line y2="-30457" y1="-30885" x2="-27843" x1="-28582" fill="none"/><line y2="-29394" y1="-30532" x2="-27635" x1="-27635" fill="none"/><line y2="-31101" y1="-30532" x2="-28620" x1="-29605" fill="none"/><line y2="-28828" y1="-29394" x2="-28620" x1="-27635" fill="none"/><line y2="-29044" y1="-29472" x2="-28582" x1="-27843" fill="none"/><line y2="-30532" y1="-29394" x2="-29605" x1="-29605" fill="none"/><line y2="-30391" y1="-29538" x2="-29437" x1="-29437" fill="none"/><line y2="-29394" y1="-28828" x2="-29605" x1="-28620" fill="none"/><line y2="-30948" y1="-30532" x2="-26918" x1="-27635" fill="none"/><line y2="-30532" y1="-30948" x2="-25820" x1="-26540" fill="none"/><line y2="-31055" y1="-30532" x2="-24913" x1="-25820" fill="none"/><line y2="-31055" y1="-30532" x2="-30512" x1="-29605" fill="none"/><line y2="-31055" y1="-31055" x2="-31561" x1="-30512" fill="none"/><line y2="-32193" y1="-31055" x2="-24913" x1="-24913" fill="none"/><line y2="-32052" y1="-31200" x2="-24743" x1="-24743" fill="none"/><line y2="-31055" y1="-30489" x2="-24913" x1="-23928" fill="none"/><line y2="-32762" y1="-32193" x2="-23928" x1="-24913" fill="none"/><line y2="-30489" y1="-31055" x2="-23928" x1="-22943" fill="none"/><line y2="-30706" y1="-31133" x2="-23891" x1="-23151" fill="none"/><line y2="-32193" y1="-32762" x2="-22943" x1="-23928" fill="none"/><line y2="-32118" y1="-32546" x2="-23151" x1="-23891" fill="none"/><line y2="-31055" y1="-32193" x2="-22943" x1="-22943" fill="none"/><line y2="-31055" y1="-31055" x2="-32422" x1="-31561" fill="none"/><line y2="-30966" y1="-30966" x2="-32422" x1="-31561" fill="none"/><line y2="-31145" y1="-31145" x2="-32422" x1="-31561" fill="none"/><text y="-30876" xml:space="preserve" x="-26881" stroke="none" font-size="433.3333" font-family="sans-serif">O</text><text y="-30876" xml:space="preserve" x="-32762" stroke="none" font-size="433.3333" font-family="sans-serif">N</text></g></g></svg>