<svg width="244.56" viewBox="0 0 8152 13638" text-rendering="auto" stroke-width="1" stroke-opacity="1" stroke-miterlimit="10" stroke-linejoin="miter" stroke-linecap="square" stroke-dashoffset="0" stroke-dasharray="none" stroke="black" shape-rendering="auto" image-rendering="auto" height="409.14" font-weight="normal" font-style="normal" font-size="12" font-family="'Dialog'" fill-opacity="1" fill="black" color-rendering="auto" color-interpolation="auto" xmlns="http://www.w3.org/2000/svg"><g><g stroke="white" fill="white"><rect y="0" x="0" width="8152" stroke="none" height="13638"/></g><g transform="translate(32866,32866)" text-rendering="geometricPrecision" stroke-width="44" stroke-linejoin="round" stroke-linecap="round"><line y2="-29183" y1="-30321" x2="-28516" x1="-28516" fill="none"/><line y2="-30888" y1="-30321" x2="-27531" x1="-28516" fill="none"/><line y2="-30321" y1="-30888" x2="-28516" x1="-29501" fill="none"/><line y2="-30243" y1="-30671" x2="-28724" x1="-29463" fill="none"/><line y2="-29183" y1="-28351" x2="-28516" x1="-28172" fill="none"/><line y2="-28614" y1="-29183" x2="-29501" x1="-28516" fill="none"/><line y2="-28831" y1="-29258" x2="-29463" x1="-28724" fill="none"/><line y2="-30888" y1="-30321" x2="-27531" x1="-26546" fill="none"/><line y2="-30966" y1="-30538" x2="-27323" x1="-26583" fill="none"/><line y2="-31803" y1="-30888" x2="-27528" x1="-27531" fill="none"/><line y2="-30888" y1="-30321" x2="-29501" x1="-30483" fill="none"/><line y2="-28132" y1="-28132" x2="-27895" x1="-26941" fill="none"/><line y2="-29183" y1="-28614" x2="-30483" x1="-29501" fill="none"/><line y2="-29183" y1="-30321" x2="-26546" x1="-26546" fill="none"/><line y2="-30321" y1="-30778" x2="-26546" x1="-25748" fill="none"/><line y2="-32023" y1="-32023" x2="-25560" x1="-27034" fill="none"/><line y2="-30321" y1="-29183" x2="-30483" x1="-30483" fill="none"/><line y2="-30177" y1="-29325" x2="-30313" x1="-30313" fill="none"/><line y2="-28132" y1="-29183" x2="-26941" x1="-26546" fill="none"/><line y2="-31104" y1="-32023" x2="-25560" x1="-25560" fill="none"/><line y2="-31220" y1="-31881" x2="-25728" x1="-25728" fill="none"/><line y2="-27594" y1="-28019" x2="-28978" x1="-28270" fill="none"/><line y2="-32762" y1="-32023" x2="-24818" x1="-25560" fill="none"/><line y2="-26546" y1="-27594" x2="-28978" x1="-28978" fill="none"/><line y2="-27947" y1="-27534" x2="-29732" x1="-29016" fill="none"/><line y2="-28071" y1="-27655" x2="-29663" x1="-28943" fill="none"/><line y2="-26546" y1="-25976" x2="-28978" x1="-29963" fill="none"/><line y2="-26326" y1="-25901" x2="-29016" x1="-29755" fill="none"/><line y2="-25979" y1="-26546" x2="-27996" x1="-28978" fill="none"/><line y2="-25976" y1="-24841" x2="-29963" x1="-29963" fill="none"/><line y2="-24838" y1="-25979" x2="-27996" x1="-27996" fill="none"/><line y2="-24983" y1="-25835" x2="-28166" x1="-28166" fill="none"/><line y2="-24841" y1="-24272" x2="-29963" x1="-28978" fill="none"/><line y2="-24916" y1="-24489" x2="-29755" x1="-29016" fill="none"/><line y2="-24272" y1="-24838" x2="-28978" x1="-27996" fill="none"/><line y2="-23443" y1="-24272" x2="-28978" x1="-28978" fill="none"/><line y2="-22700" y1="-23114" x2="-29885" x1="-29166" fill="none"/><line y2="-23223" y1="-22700" x2="-30792" x1="-29885" fill="none"/><line y2="-21871" y1="-22700" x2="-29816" x1="-29816" fill="none"/><line y2="-21871" y1="-22700" x2="-29954" x1="-29954" fill="none"/><line y2="-22654" y1="-23223" x2="-31777" x1="-30792" fill="none"/><line y2="-22871" y1="-23298" x2="-31740" x1="-31000" fill="none"/><line y2="-23223" y1="-24362" x2="-30792" x1="-30792" fill="none"/><line y2="-23223" y1="-22654" x2="-32762" x1="-31777" fill="none"/><line y2="-24362" y1="-24928" x2="-30792" x1="-31777" fill="none"/><line y2="-24284" y1="-24711" x2="-31000" x1="-31740" fill="none"/><line y2="-24362" y1="-23223" x2="-32762" x1="-32762" fill="none"/><line y2="-24217" y1="-23365" x2="-32592" x1="-32592" fill="none"/><line y2="-24928" y1="-24362" x2="-31777" x1="-32762" fill="none"/><line y2="-21606" y1="-22654" x2="-31777" x1="-31777" fill="none"/><line y2="-21606" y1="-21036" x2="-31777" x1="-32762" fill="none"/><line y2="-21389" y1="-20961" x2="-31815" x1="-32554" fill="none"/><line y2="-21036" y1="-21606" x2="-30792" x1="-31777" fill="none"/><line y2="-21036" y1="-19901" x2="-32762" x1="-32762" fill="none"/><line y2="-19901" y1="-21036" x2="-30792" x1="-30792" fill="none"/><line y2="-20043" y1="-20895" x2="-30963" x1="-30963" fill="none"/><line y2="-19901" y1="-19332" x2="-32762" x1="-31777" fill="none"/><line y2="-19976" y1="-19552" x2="-32554" x1="-31815" fill="none"/><line y2="-19332" y1="-19901" x2="-31777" x1="-30792" fill="none"/><text y="-27938" xml:space="preserve" x="-30038" stroke="none" font-size="433.3333" font-family="sans-serif">O</text><text y="-23044" xml:space="preserve" x="-29131" stroke="none" font-size="433.3333" font-family="sans-serif">NH</text><text y="-21473" xml:space="preserve" x="-30038" stroke="none" font-size="433.3333" font-family="sans-serif">O</text><text y="-27952" xml:space="preserve" x="-28236" stroke="none" font-size="433.3333" font-family="sans-serif">N</text><text y="-31844" xml:space="preserve" x="-27678" stroke="none" font-size="433.3333" font-family="sans-serif">NH</text><text y="-30706" xml:space="preserve" x="-25711" stroke="none" font-size="433.3333" font-family="sans-serif">N</text></g></g></svg>