<svg width="251.55" viewBox="0 0 8385 5007" text-rendering="auto" stroke-width="1" stroke-opacity="1" stroke-miterlimit="10" stroke-linejoin="miter" stroke-linecap="square" stroke-dashoffset="0" stroke-dasharray="none" stroke="black" shape-rendering="auto" image-rendering="auto" height="150.21" font-weight="normal" font-style="normal" font-size="12" font-family="'Dialog'" fill-opacity="1" fill="black" color-rendering="auto" color-interpolation="auto" xmlns="http://www.w3.org/2000/svg"><g><g stroke="white" fill="white"><rect y="0" x="0" width="8385" stroke="none" height="5007"/></g><g transform="translate(32866,32758)" text-rendering="geometricPrecision" stroke-width="44" stroke-linejoin="round" stroke-linecap="round"><line y2="-29189" y1="-29741" x2="-29460" x1="-30171" fill="none"/><line y2="-28126" y1="-29189" x2="-29827" x1="-29460" fill="none"/><line y2="-28314" y1="-29111" x2="-29943" x1="-29668" fill="none"/><line y2="-29746" y1="-29189" x2="-30550" x1="-31304" fill="none"/><line y2="-29538" y1="-29122" x2="-30541" x1="-31107" fill="none"/><line y2="-28126" y1="-28126" x2="-30786" x1="-29827" fill="none"/><line y2="-29189" y1="-28345" x2="-31304" x1="-31041" fill="none"/><line y2="-29715" y1="-29189" x2="-28553" x1="-29460" fill="none"/><line y2="-29356" y1="-29189" x2="-31812" x1="-31304" fill="none"/><line y2="-30850" y1="-29715" x2="-28553" x1="-28553" fill="none"/><line y2="-30708" y1="-29856" x2="-28383" x1="-28383" fill="none"/><line y2="-29715" y1="-29146" x2="-28553" x1="-27565" fill="none"/><line y2="-31419" y1="-30850" x2="-27565" x1="-28553" fill="none"/><line y2="-29146" y1="-29715" x2="-27565" x1="-26583" fill="none"/><line y2="-29362" y1="-29790" x2="-27528" x1="-26791" fill="none"/><line y2="-30850" y1="-31419" x2="-26583" x1="-27565" fill="none"/><line y2="-30775" y1="-31202" x2="-26791" x1="-27528" fill="none"/><line y2="-29715" y1="-30850" x2="-26583" x1="-26583" fill="none"/><line y2="-31266" y1="-30850" x2="-25864" x1="-26583" fill="none"/><line y2="-32202" y1="-31595" x2="-25745" x1="-25745" fill="none"/><line y2="-32202" y1="-31595" x2="-25607" x1="-25607" fill="none"/><line y2="-31020" y1="-31327" x2="-24922" x1="-25454" fill="none"/><line y2="-30899" y1="-31205" x2="-24991" x1="-25523" fill="none"/><text y="-29434" xml:space="preserve" x="-32762" stroke="none" font-size="433.3333" font-family="sans-serif">NH</text><text y="-29345" xml:space="preserve" x="-32185" stroke="none" font-size="313.3333" font-family="sans-serif">2</text><text y="-31197" xml:space="preserve" x="-25829" stroke="none" font-size="433.3333" font-family="sans-serif">N</text><text y="-32242" xml:space="preserve" x="-25829" stroke="none" font-size="433.3333" font-family="sans-serif">O</text><text y="-30671" xml:space="preserve" x="-24922" stroke="none" font-size="433.3333" font-family="sans-serif">O</text><text y="-29706" xml:space="preserve" x="-30512" stroke="none" font-size="433.3333" font-family="sans-serif">N</text><text y="-27947" xml:space="preserve" x="-31127" stroke="none" font-size="433.3333" font-family="sans-serif">S</text></g></g></svg>