<svg width="445.38" viewBox="0 0 14846 5553" text-rendering="auto" stroke-width="1" stroke-opacity="1" stroke-miterlimit="10" stroke-linejoin="miter" stroke-linecap="square" stroke-dashoffset="0" stroke-dasharray="none" stroke="black" shape-rendering="auto" image-rendering="auto" height="166.59" font-weight="normal" font-style="normal" font-size="12" font-family="'Dialog'" fill-opacity="1" fill="black" color-rendering="auto" color-interpolation="auto" xmlns="http://www.w3.org/2000/svg"><g><g stroke="white" fill="white"><rect y="0" x="0" width="14846" stroke="none" height="5553"/></g><g transform="translate(32866,32758)" text-rendering="geometricPrecision" stroke-width="44" stroke-linejoin="round" stroke-linecap="round"><line y2="-29241" y1="-29767" x2="-21195" x1="-22102" fill="none"/><line y2="-29460" y1="-29767" x2="-22631" x1="-22102" fill="none"/><line y2="-29767" y1="-29351" x2="-23917" x1="-23197" fill="none"/><line y2="-29241" y1="-29767" x2="-24824" x1="-23917" fill="none"/><line y2="-29767" y1="-29241" x2="-25731" x1="-24824" fill="none"/><line y2="-30593" y1="-29767" x2="-22172" x1="-22172" fill="none"/><line y2="-30593" y1="-29767" x2="-22033" x1="-22033" fill="none"/><line y2="-29241" y1="-28106" x2="-21195" x1="-21195" fill="none"/><line y2="-29099" y1="-28247" x2="-21025" x1="-21025" fill="none"/><line y2="-29810" y1="-29241" x2="-20210" x1="-21195" fill="none"/><line y2="-28106" y1="-27536" x2="-21195" x1="-20210" fill="none"/><line y2="-29241" y1="-29810" x2="-19225" x1="-20210" fill="none"/><line y2="-29166" y1="-29593" x2="-19433" x1="-20173" fill="none"/><line y2="-27536" y1="-28106" x2="-20210" x1="-19225" fill="none"/><line y2="-27753" y1="-28181" x2="-20173" x1="-19433" fill="none"/><line y2="-28106" y1="-29241" x2="-19225" x1="-19225" fill="none"/><line y2="-27690" y1="-28106" x2="-21915" x1="-21195" fill="none"/><line y2="-27938" y1="-27690" x2="-22721" x1="-22290" fill="none"/><line y2="-29570" y1="-29241" x2="-18659" x1="-19225" fill="none"/><line y2="-29767" y1="-30902" x2="-25731" x1="-25731" fill="none"/><line y2="-29908" y1="-30760" x2="-25901" x1="-25901" fill="none"/><line y2="-29198" y1="-29767" x2="-26716" x1="-25731" fill="none"/><line y2="-30902" y1="-31471" x2="-25731" x1="-26716" fill="none"/><line y2="-29767" y1="-29198" x2="-27701" x1="-26716" fill="none"/><line y2="-29842" y1="-29414" x2="-27493" x1="-26754" fill="none"/><line y2="-31471" y1="-30902" x2="-26716" x1="-27701" fill="none"/><line y2="-31254" y1="-30827" x2="-26754" x1="-27493" fill="none"/><line y2="-30902" y1="-29767" x2="-27701" x1="-27701" fill="none"/><line y2="-31318" y1="-30902" x2="-28420" x1="-27701" fill="none"/><line y2="-31070" y1="-31318" x2="-29226" x1="-28799" fill="none"/><line y2="-31376" y1="-30960" x2="-30515" x1="-29796" fill="none"/><line y2="-32081" y1="-31613" x2="-29068" x1="-28796" fill="none"/><line y2="-32150" y1="-31682" x2="-28946" x1="-28675" fill="none"/><line y2="-32150" y1="-31682" x2="-28273" x1="-28545" fill="none"/><line y2="-32081" y1="-31613" x2="-28152" x1="-28423" fill="none"/><line y2="-30960" y1="-31376" x2="-31234" x1="-30515" fill="none"/><line y2="-31208" y1="-30960" x2="-32040" x1="-31610" fill="none"/><line y2="-32202" y1="-31376" x2="-30584" x1="-30584" fill="none"/><line y2="-32202" y1="-31376" x2="-30446" x1="-30446" fill="none"/><text y="-29062" xml:space="preserve" x="-23163" stroke="none" font-size="433.3333" font-family="sans-serif">NH</text><text y="-30633" xml:space="preserve" x="-22256" stroke="none" font-size="433.3333" font-family="sans-serif">O</text><text y="-27401" xml:space="preserve" x="-22256" stroke="none" font-size="433.3333" font-family="sans-serif">O</text><text y="-28088" xml:space="preserve" x="-23443" stroke="none" font-size="433.3333" font-family="sans-serif">CH</text><text y="-27999" xml:space="preserve" x="-22865" stroke="none" font-size="313.3333" font-family="sans-serif">3</text><text y="-29588" xml:space="preserve" x="-18549" stroke="none" font-size="433.3333" font-family="sans-serif">Cl</text><text y="-31249" xml:space="preserve" x="-28761" stroke="none" font-size="433.3333" font-family="sans-serif">S</text><text y="-30671" xml:space="preserve" x="-29758" stroke="none" font-size="433.3333" font-family="sans-serif">NH</text><text y="-32156" xml:space="preserve" x="-29284" stroke="none" font-size="433.3333" font-family="sans-serif">O</text><text y="-32156" xml:space="preserve" x="-28238" stroke="none" font-size="433.3333" font-family="sans-serif">O</text><text y="-30671" xml:space="preserve" x="-31575" stroke="none" font-size="433.3333" font-family="sans-serif">O</text><text y="-32242" xml:space="preserve" x="-30665" stroke="none" font-size="433.3333" font-family="sans-serif">O</text><text y="-31358" xml:space="preserve" x="-32762" stroke="none" font-size="433.3333" font-family="sans-serif">CH</text><text y="-31269" xml:space="preserve" x="-32185" stroke="none" font-size="313.3333" font-family="sans-serif">3</text></g></g></svg>