<svg width="700.35" viewBox="0 0 23345 7102" text-rendering="auto" stroke-width="1" stroke-opacity="1" stroke-miterlimit="10" stroke-linejoin="miter" stroke-linecap="square" stroke-dashoffset="0" stroke-dasharray="none" stroke="black" shape-rendering="auto" image-rendering="auto" height="213.06" font-weight="normal" font-style="normal" font-size="12" font-family="'Dialog'" fill-opacity="1" fill="black" color-rendering="auto" color-interpolation="auto" xmlns="http://www.w3.org/2000/svg"><g><g stroke="white" fill="white"><rect y="0" x="0" width="23345" stroke="none" height="7102"/></g><g transform="translate(32866,32758)" text-rendering="geometricPrecision" stroke-width="44" stroke-linejoin="round" stroke-linecap="round"><line y2="-28054" y1="-29189" x2="-25358" x1="-25358" fill="none"/><line y2="-29189" y1="-29758" x2="-25358" x1="-26343" fill="none"/><line y2="-29114" y1="-29541" x2="-25566" x1="-26306" fill="none"/><line y2="-29651" y1="-29189" x2="-24561" x1="-25358" fill="none"/><line y2="-28054" y1="-28054" x2="-25358" x1="-23576" fill="none"/><line y2="-27484" y1="-28054" x2="-26343" x1="-25358" fill="none"/><line y2="-27701" y1="-28129" x2="-26306" x1="-25566" fill="none"/><line y2="-29758" y1="-29189" x2="-26343" x1="-27328" fill="none"/><line y2="-29189" y1="-29651" x2="-23388" x1="-24182" fill="none"/><line y2="-29099" y1="-29446" x2="-23573" x1="-24168" fill="none"/><line y2="-28273" y1="-29189" x2="-23388" x1="-23388" fill="none"/><line y2="-28054" y1="-27484" x2="-27328" x1="-26343" fill="none"/><line y2="-29189" y1="-28054" x2="-27328" x1="-27328" fill="none"/><line y2="-29047" y1="-28195" x2="-27158" x1="-27158" fill="none"/><line y2="-29715" y1="-29189" x2="-28236" x1="-27328" fill="none"/><line y2="-29715" y1="-29189" x2="-22481" x1="-23388" fill="none"/><line y2="-29299" y1="-29715" x2="-21762" x1="-22481" fill="none"/><line y2="-29715" y1="-29408" x2="-20667" x1="-21195" fill="none"/><line y2="-27499" y1="-27863" x2="-22836" x1="-23200" fill="none"/><line y2="-29299" y1="-29715" x2="-28955" x1="-28236" fill="none"/><line y2="-30541" y1="-29715" x2="-28308" x1="-28308" fill="none"/><line y2="-30541" y1="-29715" x2="-28166" x1="-28166" fill="none"/><line y2="-30850" y1="-29715" x2="-20667" x1="-20667" fill="none"/><line y2="-30708" y1="-29856" x2="-20496" x1="-20496" fill="none"/><line y2="-29715" y1="-29146" x2="-20667" x1="-19679" fill="none"/><line y2="-31419" y1="-30850" x2="-19679" x1="-20667" fill="none"/><line y2="-29146" y1="-29715" x2="-19679" x1="-18696" fill="none"/><line y2="-29362" y1="-29790" x2="-19641" x1="-18904" fill="none"/><line y2="-30850" y1="-31419" x2="-18696" x1="-19679" fill="none"/><line y2="-30775" y1="-31202" x2="-18904" x1="-19641" fill="none"/><line y2="-29715" y1="-30850" x2="-18696" x1="-18696" fill="none"/><line y2="-31376" y1="-30850" x2="-17789" x1="-18696" fill="none"/><line y2="-29715" y1="-29299" x2="-30050" x1="-29333" fill="none"/><line y2="-28143" y1="-28969" x2="-29143" x1="-29143" fill="none"/><line y2="-27603" y1="-28143" x2="-30041" x1="-29143" fill="none"/><line y2="-26554" y1="-27603" x2="-30041" x1="-30041" fill="none"/><line y2="-30960" y1="-31376" x2="-17070" x1="-17789" fill="none"/><line y2="-31376" y1="-31070" x2="-15975" x1="-16501" fill="none"/><line y2="-32202" y1="-31376" x2="-17859" x1="-17859" fill="none"/><line y2="-32202" y1="-31376" x2="-17720" x1="-17720" fill="none"/><line y2="-29146" y1="-29715" x2="-31035" x1="-30050" fill="none"/><line y2="-29362" y1="-29790" x2="-30997" x1="-30258" fill="none"/><line y2="-29715" y1="-30630" x2="-30050" x1="-30050" fill="none"/><line y2="-29715" y1="-29146" x2="-32020" x1="-31035" fill="none"/><line y2="-30960" y1="-31419" x2="-30240" x1="-31035" fill="none"/><line y2="-30870" y1="-31214" x2="-30422" x1="-31020" fill="none"/><line y2="-30850" y1="-29715" x2="-32020" x1="-32020" fill="none"/><line y2="-30708" y1="-29856" x2="-31852" x1="-31852" fill="none"/><line y2="-31419" y1="-30850" x2="-31035" x1="-32020" fill="none"/><line y2="-26138" y1="-26554" x2="-30760" x1="-30041" fill="none"/><line y2="-26554" y1="-26138" x2="-31855" x1="-31136" fill="none"/><line y2="-26031" y1="-26554" x2="-32762" x1="-31855" fill="none"/><line y2="-26199" y1="-26615" x2="-29287" x1="-30006" fill="none"/><line y2="-26078" y1="-26494" x2="-29356" x1="-30076" fill="none"/><line y2="-30960" y1="-31376" x2="-15256" x1="-15975" fill="none"/><line y2="-31376" y1="-30960" x2="-14161" x1="-14880" fill="none"/><line y2="-30850" y1="-31376" x2="-13254" x1="-14161" fill="none"/><line y2="-31376" y1="-30850" x2="-12347" x1="-13254" fill="none"/><line y2="-30850" y1="-31376" x2="-11440" x1="-12347" fill="none"/><line y2="-31376" y1="-30850" x2="-10532" x1="-11440" fill="none"/><line y2="-30850" y1="-31376" x2="-9625" x1="-10532" fill="none"/><line y2="-32202" y1="-31376" x2="-16044" x1="-16044" fill="none"/><line y2="-32202" y1="-31376" x2="-15906" x1="-15906" fill="none"/><text y="-27132" xml:space="preserve" x="-22799" stroke="none" font-size="433.3333" font-family="sans-serif">CH</text><text y="-27042" xml:space="preserve" x="-22221" stroke="none" font-size="313.3333" font-family="sans-serif">3</text><text y="-29010" xml:space="preserve" x="-29296" stroke="none" font-size="433.3333" font-family="sans-serif">N</text><text y="-30581" xml:space="preserve" x="-28389" stroke="none" font-size="433.3333" font-family="sans-serif">O</text><text y="-25852" xml:space="preserve" x="-31101" stroke="none" font-size="433.3333" font-family="sans-serif">O</text><text y="-25852" xml:space="preserve" x="-29284" stroke="none" font-size="433.3333" font-family="sans-serif">O</text><text y="-29010" xml:space="preserve" x="-21727" stroke="none" font-size="433.3333" font-family="sans-serif">NH</text><text y="-30671" xml:space="preserve" x="-17035" stroke="none" font-size="433.3333" font-family="sans-serif">NH</text><text y="-32242" xml:space="preserve" x="-17942" stroke="none" font-size="433.3333" font-family="sans-serif">NH</text><text y="-30671" xml:space="preserve" x="-15221" stroke="none" font-size="433.3333" font-family="sans-serif">O</text><text y="-32242" xml:space="preserve" x="-16128" stroke="none" font-size="433.3333" font-family="sans-serif">O</text><text y="-29579" xml:space="preserve" x="-24523" stroke="none" font-size="433.3333" font-family="sans-serif">N</text><text y="-27874" xml:space="preserve" x="-23541" stroke="none" font-size="433.3333" font-family="sans-serif">N</text><text y="-30671" xml:space="preserve" x="-30203" stroke="none" font-size="433.3333" font-family="sans-serif">N</text></g></g></svg>