<svg width="278.37" viewBox="0 0 9279 3329" text-rendering="auto" stroke-width="1" stroke-opacity="1" stroke-miterlimit="10" stroke-linejoin="miter" stroke-linecap="square" stroke-dashoffset="0" stroke-dasharray="none" stroke="black" shape-rendering="auto" image-rendering="auto" height="99.87" font-weight="normal" font-style="normal" font-size="12" font-family="'Dialog'" fill-opacity="1" fill="black" color-rendering="auto" color-interpolation="auto" xmlns="http://www.w3.org/2000/svg"><g><g stroke="white" fill="white"><rect y="0" x="0" width="9279" stroke="none" height="3329"/></g><g transform="translate(32866,32758)" text-rendering="geometricPrecision" stroke-width="44" stroke-linejoin="round" stroke-linecap="round"><line y2="-30850" y1="-31376" x2="-25506" x1="-26413" fill="none"/><line y2="-31376" y1="-30850" x2="-24598" x1="-25506" fill="none"/><line y2="-30960" y1="-31376" x2="-27132" x1="-26413" fill="none"/><line y2="-31376" y1="-30960" x2="-28227" x1="-27508" fill="none"/><line y2="-30850" y1="-31376" x2="-29134" x1="-28227" fill="none"/><line y2="-31266" y1="-30850" x2="-29853" x1="-29134" fill="none"/><line y2="-30850" y1="-31266" x2="-30948" x1="-30229" fill="none"/><line y2="-32202" y1="-31376" x2="-26482" x1="-26482" fill="none"/><line y2="-32202" y1="-31376" x2="-26343" x1="-26343" fill="none"/><line y2="-30850" y1="-31376" x2="-23691" x1="-24598" fill="none"/><line y2="-32202" y1="-31376" x2="-24668" x1="-24668" fill="none"/><line y2="-32202" y1="-31376" x2="-24529" x1="-24529" fill="none"/><line y2="-31376" y1="-30850" x2="-31855" x1="-30948" fill="none"/><line y2="-30024" y1="-30850" x2="-30879" x1="-30879" fill="none"/><line y2="-30024" y1="-30850" x2="-31018" x1="-31018" fill="none"/><line y2="-30850" y1="-31376" x2="-32762" x1="-31855" fill="none"/><line y2="-32422" y1="-31376" x2="-31855" x1="-31855" fill="none"/><line y2="-32422" y1="-31376" x2="-31717" x1="-31717" fill="none"/><text y="-30671" xml:space="preserve" x="-27473" stroke="none" font-size="433.3333" font-family="sans-serif">O</text><text y="-32242" xml:space="preserve" x="-26566" stroke="none" font-size="433.3333" font-family="sans-serif">O</text><text y="-31197" xml:space="preserve" x="-30194" stroke="none" font-size="433.3333" font-family="sans-serif">O</text><text y="-32242" xml:space="preserve" x="-24752" stroke="none" font-size="433.3333" font-family="sans-serif">O</text><text y="-29625" xml:space="preserve" x="-31101" stroke="none" font-size="433.3333" font-family="sans-serif">O</text></g></g></svg>