<svg width="294.57" viewBox="0 0 9819 8044" text-rendering="auto" stroke-width="1" stroke-opacity="1" stroke-miterlimit="10" stroke-linejoin="miter" stroke-linecap="square" stroke-dashoffset="0" stroke-dasharray="none" stroke="black" shape-rendering="auto" image-rendering="auto" height="241.32" font-weight="normal" font-style="normal" font-size="12" font-family="'Dialog'" fill-opacity="1" fill="black" color-rendering="auto" color-interpolation="auto" xmlns="http://www.w3.org/2000/svg"><g><g stroke="white" fill="white"><rect y="0" x="0" width="9819" stroke="none" height="8044"/></g><g transform="translate(32866,32758)" text-rendering="geometricPrecision" stroke-width="44" stroke-linejoin="round" stroke-linecap="round"><line y2="-26392" y1="-27528" x2="-26936" x1="-26936" fill="none"/><line y2="-27528" y1="-28097" x2="-26936" x1="-27918" fill="none"/><line y2="-27453" y1="-27880" x2="-27144" x1="-27880" fill="none"/><line y2="-27990" y1="-27528" x2="-26135" x1="-26936" fill="none"/><line y2="-26392" y1="-26392" x2="-26936" x1="-25153" fill="none"/><line y2="-25930" y1="-26392" x2="-27730" x1="-26936" fill="none"/><line y2="-26135" y1="-26482" x2="-27716" x1="-27120" fill="none"/><line y2="-28097" y1="-27638" x2="-27918" x1="-28718" fill="none"/><line y2="-27528" y1="-27990" x2="-24965" x1="-25760" fill="none"/><line y2="-27438" y1="-27785" x2="-25150" x1="-25745" fill="none"/><line y2="-26609" y1="-27528" x2="-24965" x1="-24965" fill="none"/><line y2="-26392" y1="-25930" x2="-28906" x1="-28108" fill="none"/><line y2="-27308" y1="-26392" x2="-28906" x1="-28906" fill="none"/><line y2="-27196" y1="-26505" x2="-28735" x1="-28735" fill="none"/><line y2="-28926" y1="-28097" x2="-27918" x1="-27918" fill="none"/><line y2="-29668" y1="-29252" x2="-28825" x1="-28108" fill="none"/><line y2="-25867" y1="-26283" x2="-24058" x1="-24778" fill="none"/><line y2="-26086" y1="-26392" x2="-29434" x1="-28906" fill="none"/><line y2="-26392" y1="-25976" x2="-30720" x1="-30001" fill="none"/><line y2="-29668" y1="-30807" x2="-28825" x1="-28825" fill="none"/><line y2="-29810" y1="-30665" x2="-28995" x1="-28995" fill="none"/><line y2="-29099" y1="-29668" x2="-29813" x1="-28825" fill="none"/><line y2="-30807" y1="-31376" x2="-28825" x1="-29813" fill="none"/><line y2="-29668" y1="-29099" x2="-30795" x1="-29813" fill="none"/><line y2="-29744" y1="-29319" x2="-30590" x1="-29850" fill="none"/><line y2="-31376" y1="-30807" x2="-29813" x1="-30795" fill="none"/><line y2="-31156" y1="-30729" x2="-29850" x1="-30590" fill="none"/><line y2="-30807" y1="-29668" x2="-30795" x1="-30795" fill="none"/><line y2="-31330" y1="-30807" x2="-31705" x1="-30795" fill="none"/><line y2="-32202" y1="-31376" x2="-29813" x1="-29813" fill="none"/><line y2="-26392" y1="-25867" x2="-23151" x1="-24058" fill="none"/><line y2="-24818" y1="-25867" x2="-24058" x1="-24058" fill="none"/><line y2="-25867" y1="-26392" x2="-31627" x1="-30720" fill="none"/><line y2="-27744" y1="-27438" x2="-31249" x1="-30720" fill="none"/><line y2="-31026" y1="-31330" x2="-32231" x1="-31705" fill="none"/><line y2="-32159" y1="-31330" x2="-31774" x1="-31774" fill="none"/><line y2="-32159" y1="-31330" x2="-31633" x1="-31633" fill="none"/><line y2="-26392" y1="-25867" x2="-32534" x1="-31627" fill="none"/><line y2="-24818" y1="-25867" x2="-31627" x1="-31627" fill="none"/><line y2="-27438" y1="-27438" x2="-30651" x1="-30789" fill="none"/><line y2="-27221" y1="-27221" x2="-30665" x1="-30775" fill="none"/><line y2="-27005" y1="-27005" x2="-30680" x1="-30760" fill="none"/><line y2="-26788" y1="-26788" x2="-30694" x1="-30746" fill="none"/><line y2="-26571" y1="-26571" x2="-30708" x1="-30732" fill="none"/><text y="-28966" xml:space="preserve" x="-28071" stroke="none" font-size="433.3333" font-family="sans-serif">NH</text><text y="-25688" xml:space="preserve" x="-29966" stroke="none" font-size="433.3333" font-family="sans-serif">NH</text><text y="-27785" xml:space="preserve" x="-31780" stroke="none" font-size="433.3333" font-family="sans-serif">OH</text><text y="-32242" xml:space="preserve" x="-30044" stroke="none" font-size="433.3333" font-family="sans-serif">Cl</text><text y="-30628" xml:space="preserve" x="-32762" stroke="none" font-size="433.3333" font-family="sans-serif">OH</text><text y="-32199" xml:space="preserve" x="-31855" stroke="none" font-size="433.3333" font-family="sans-serif">O</text><text y="-27918" xml:space="preserve" x="-26101" stroke="none" font-size="433.3333" font-family="sans-serif">N</text><text y="-26213" xml:space="preserve" x="-25116" stroke="none" font-size="433.3333" font-family="sans-serif">N</text><text y="-25644" xml:space="preserve" x="-28071" stroke="none" font-size="433.3333" font-family="sans-serif">N</text><text y="-27349" xml:space="preserve" x="-29059" stroke="none" font-size="433.3333" font-family="sans-serif">N</text><text y="-25910" xml:space="preserve" x="-30873" stroke="none" font-style="italic" font-size="313.3333" font-family="sans-serif">R</text></g></g></svg>