<svg width="279.72" viewBox="0 0 9324 3535" text-rendering="auto" stroke-width="1" stroke-opacity="1" stroke-miterlimit="10" stroke-linejoin="miter" stroke-linecap="square" stroke-dashoffset="0" stroke-dasharray="none" stroke="black" shape-rendering="auto" image-rendering="auto" height="106.05" font-weight="normal" font-style="normal" font-size="12" font-family="'Dialog'" fill-opacity="1" fill="black" color-rendering="auto" color-interpolation="auto" xmlns="http://www.w3.org/2000/svg"><g><g stroke="white" fill="white"><rect y="0" x="0" width="9324" stroke="none" height="3535"/></g><g transform="translate(32866,32866)" text-rendering="geometricPrecision" stroke-width="44" stroke-linejoin="round" stroke-linecap="round"><line y2="-31367" y1="-31936" x2="-29732" x1="-30717" fill="none"/><line y2="-30232" y1="-31367" x2="-29732" x1="-29732" fill="none"/><line y2="-31936" y1="-31367" x2="-30717" x1="-31702" fill="none"/><line y2="-29663" y1="-30232" x2="-30717" x1="-29732" fill="none"/><line y2="-29879" y1="-30307" x2="-30680" x1="-29940" fill="none"/><line y2="-31367" y1="-30232" x2="-31702" x1="-31702" fill="none"/><line y2="-30232" y1="-29663" x2="-31702" x1="-30717" fill="none"/><line y2="-31893" y1="-31367" x2="-28825" x1="-29732" fill="none"/><line y2="-32762" y1="-31936" x2="-31361" x1="-30717" fill="none"/><line y2="-32728" y1="-31936" x2="-30027" x1="-30717" fill="none"/><line y2="-29706" y1="-30232" x2="-28825" x1="-29732" fill="none"/><line y2="-29755" y1="-30171" x2="-32387" x1="-31668" fill="none"/><line y2="-29876" y1="-30292" x2="-32456" x1="-31737" fill="none"/><line y2="-31367" y1="-31893" x2="-27918" x1="-28825" fill="none"/><line y2="-31312" y1="-31708" x2="-28103" x1="-28782" fill="none"/><line y2="-31893" y1="-31367" x2="-27011" x1="-27918" fill="none"/><line y2="-31893" y1="-31893" x2="-25962" x1="-27011" fill="none"/><line y2="-31754" y1="-31754" x2="-26095" x1="-26881" fill="none"/><line y2="-32416" y1="-31893" x2="-27918" x1="-27011" fill="none"/><line y2="-31367" y1="-31893" x2="-25055" x1="-25962" fill="none"/><line y2="-31783" y1="-31367" x2="-24336" x1="-25055" fill="none"/><line y2="-30541" y1="-31367" x2="-24986" x1="-24986" fill="none"/><line y2="-30541" y1="-31367" x2="-25127" x1="-25127" fill="none"/><line y2="-30890" y1="-31012" x2="-29047" x1="-28978" fill="none"/><line y2="-31014" y1="-31105" x2="-29226" x1="-29175" fill="none"/><line y2="-31139" y1="-31197" x2="-29404" x1="-29371" fill="none"/><line y2="-31263" y1="-31290" x2="-29583" x1="-29568" fill="none"/><text y="-31714" xml:space="preserve" x="-24301" stroke="none" font-size="433.3333" font-family="sans-serif">OH</text><text y="-30142" xml:space="preserve" x="-25208" stroke="none" font-size="433.3333" font-family="sans-serif">O</text><text y="-30665" xml:space="preserve" x="-28978" stroke="none" font-size="433.3333" font-family="sans-serif">OH</text><text y="-29527" xml:space="preserve" x="-32762" stroke="none" font-size="433.3333" font-family="sans-serif">O</text><text y="-31841" xml:space="preserve" x="-28308" stroke="none" font-style="italic" font-size="313.3333" font-family="sans-serif">E</text><text y="-31246" xml:space="preserve" x="-26638" stroke="none" font-style="italic" font-size="313.3333" font-family="sans-serif">Z</text><text y="-31491" xml:space="preserve" x="-29885" stroke="none" font-style="italic" font-size="313.3333" font-family="sans-serif">S</text></g></g></svg>