<svg width="319.26" viewBox="0 0 10642 5326" text-rendering="auto" stroke-width="1" stroke-opacity="1" stroke-miterlimit="10" stroke-linejoin="miter" stroke-linecap="square" stroke-dashoffset="0" stroke-dasharray="none" stroke="black" shape-rendering="auto" image-rendering="auto" height="159.78" font-weight="normal" font-style="normal" font-size="12" font-family="'Dialog'" fill-opacity="1" fill="black" color-rendering="auto" color-interpolation="auto" xmlns="http://www.w3.org/2000/svg"><g><g stroke="white" fill="white"><rect y="0" x="0" width="10642" stroke="none" height="5326"/></g><g transform="translate(32866,32866)" text-rendering="geometricPrecision" stroke-width="44" stroke-linejoin="round" stroke-linecap="round"><line y2="-31044" y1="-32190" x2="-30798" x1="-30798" fill="none"/><line y2="-31185" y1="-32046" x2="-30968" x1="-30968" fill="none"/><line y2="-32762" y1="-32190" x2="-29816" x1="-30798" fill="none"/><line y2="-32190" y1="-32762" x2="-30798" x1="-31780" fill="none"/><line y2="-31044" y1="-30469" x2="-30798" x1="-29816" fill="none"/><line y2="-30469" y1="-31044" x2="-31780" x1="-30798" fill="none"/><line y2="-32190" y1="-32762" x2="-28834" x1="-29816" fill="none"/><line y2="-32115" y1="-32543" x2="-29042" x1="-29778" fill="none"/><line y2="-32762" y1="-32190" x2="-31780" x1="-32762" fill="none"/><line y2="-32543" y1="-32115" x2="-31818" x1="-32554" fill="none"/><line y2="-30469" y1="-31044" x2="-29816" x1="-28834" fill="none"/><line y2="-30688" y1="-31119" x2="-29778" x1="-29042" fill="none"/><line y2="-31044" y1="-30469" x2="-32762" x1="-31780" fill="none"/><line y2="-31119" y1="-30688" x2="-32554" x1="-31818" fill="none"/><line y2="-31044" y1="-32190" x2="-28834" x1="-28834" fill="none"/><line y2="-32190" y1="-31044" x2="-32762" x1="-32762" fill="none"/><line y2="-30628" y1="-31044" x2="-28114" x1="-28834" fill="none"/><line y2="-31044" y1="-30737" x2="-27019" x1="-27545" fill="none"/><line y2="-30518" y1="-31044" x2="-26112" x1="-27019" fill="none"/><line y2="-31873" y1="-31044" x2="-27089" x1="-27089" fill="none"/><line y2="-31873" y1="-31044" x2="-26950" x1="-26950" fill="none"/><line y2="-31044" y1="-30518" x2="-25205" x1="-26112" fill="none"/><line y2="-30518" y1="-31044" x2="-24298" x1="-25205" fill="none"/><line y2="-28964" y1="-29368" x2="-27028" x1="-26300" fill="none"/><line y2="-30518" y1="-29382" x2="-24298" x1="-24298" fill="none"/><line y2="-30376" y1="-29524" x2="-24128" x1="-24128" fill="none"/><line y2="-31087" y1="-30518" x2="-23310" x1="-24298" fill="none"/><line y2="-29382" y1="-28813" x2="-24298" x1="-23310" fill="none"/><line y2="-30518" y1="-31087" x2="-22328" x1="-23310" fill="none"/><line y2="-30443" y1="-30870" x2="-22536" x1="-23272" fill="none"/><line y2="-28813" y1="-29382" x2="-23310" x1="-22328" fill="none"/><line y2="-29030" y1="-29458" x2="-23272" x1="-22536" fill="none"/><line y2="-29382" y1="-30518" x2="-22328" x1="-22328" fill="none"/><line y2="-29486" y1="-28964" x2="-27938" x1="-27028" fill="none"/><line y2="-29200" y1="-29486" x2="-28458" x1="-27938" fill="none"/><line y2="-28134" y1="-28964" x2="-26959" x1="-26959" fill="none"/><line y2="-28134" y1="-28964" x2="-27097" x1="-27097" fill="none"/><line y2="-29689" y1="-29692" x2="-26182" x1="-26043" fill="none"/><line y2="-29906" y1="-29908" x2="-26164" x1="-26061" fill="none"/><line y2="-30123" y1="-30125" x2="-26145" x1="-26079" fill="none"/><line y2="-30340" y1="-30341" x2="-26127" x1="-26097" fill="none"/><text y="-30339" xml:space="preserve" x="-28077" stroke="none" font-size="433.3333" font-family="sans-serif">NH</text><text y="-31913" xml:space="preserve" x="-27170" stroke="none" font-size="433.3333" font-family="sans-serif">O</text><text y="-29293" xml:space="preserve" x="-26262" stroke="none" font-size="433.3333" font-family="sans-serif">NH</text><text y="-27736" xml:space="preserve" x="-27181" stroke="none" font-size="433.3333" font-family="sans-serif">O</text><text y="-28802" xml:space="preserve" x="-29004" stroke="none" font-size="433.3333" font-family="sans-serif">NH</text><text y="-28712" xml:space="preserve" x="-28426" stroke="none" font-size="313.3333" font-family="sans-serif">2</text><text y="-30642" xml:space="preserve" x="-26262" stroke="none" font-style="italic" font-size="313.3333" font-family="sans-serif">S</text></g></g></svg>