<svg width="271.59" viewBox="0 0 9053 3763" text-rendering="auto" stroke-width="1" stroke-opacity="1" stroke-miterlimit="10" stroke-linejoin="miter" stroke-linecap="square" stroke-dashoffset="0" stroke-dasharray="none" stroke="black" shape-rendering="auto" image-rendering="auto" height="112.89" font-weight="normal" font-style="normal" font-size="12" font-family="'Dialog'" fill-opacity="1" fill="black" color-rendering="auto" color-interpolation="auto" xmlns="http://www.w3.org/2000/svg"><g><g stroke="white" fill="white"><rect y="0" x="0" width="9053" stroke="none" height="3763"/></g><g transform="translate(32866,32758)" text-rendering="geometricPrecision" stroke-width="44" stroke-linejoin="round" stroke-linecap="round"><line y2="-30914" y1="-31330" x2="-27352" x1="-28071" fill="none"/><line y2="-30914" y1="-31330" x2="-28790" x1="-28071" fill="none"/><line y2="-31330" y1="-30914" x2="-29885" x1="-29166" fill="none"/><line y2="-30807" y1="-31330" x2="-30792" x1="-29885" fill="none"/><line y2="-32159" y1="-31330" x2="-28140" x1="-28140" fill="none"/><line y2="-32159" y1="-31330" x2="-28002" x1="-28002" fill="none"/><line y2="-31376" y1="-30914" x2="-26179" x1="-26976" fill="none"/><line y2="-30587" y1="-29668" x2="-27164" x1="-27164" fill="none"/><line y2="-30807" y1="-31376" x2="-25194" x1="-26179" fill="none"/><line y2="-29668" y1="-29099" x2="-27164" x1="-26179" fill="none"/><line y2="-29888" y1="-30807" x2="-25194" x1="-25194" fill="none"/><line y2="-29099" y1="-29562" x2="-26179" x1="-25381" fill="none"/><line y2="-32422" y1="-32422" x2="-25133" x1="-26179" fill="none"/><line y2="-30807" y1="-31376" x2="-30792" x1="-31774" fill="none"/><line y2="-30729" y1="-31156" x2="-31000" x1="-31737" fill="none"/><line y2="-29668" y1="-30807" x2="-30792" x1="-30792" fill="none"/><line y2="-31376" y1="-30807" x2="-31774" x1="-32762" fill="none"/><line y2="-29099" y1="-29668" x2="-31774" x1="-30792" fill="none"/><line y2="-29319" y1="-29744" x2="-31737" x1="-31000" fill="none"/><line y2="-30807" y1="-29668" x2="-32762" x1="-32762" fill="none"/><line y2="-30665" y1="-29810" x2="-32592" x1="-32592" fill="none"/><line y2="-29668" y1="-29099" x2="-32762" x1="-31774" fill="none"/><line y2="-32422" y1="-32422" x2="-24272" x1="-25133" fill="none"/><line y2="-32511" y1="-32511" x2="-24272" x1="-25133" fill="none"/><line y2="-32332" y1="-32332" x2="-24272" x1="-25133" fill="none"/><polygon stroke-width="1" stroke="none" points=" -26179 -31376 -26248 -32422 -26112 -32422"/><polygon stroke-width="1" points=" -26179 -31376 -26248 -32422 -26112 -32422" fill="none"/><text y="-30628" xml:space="preserve" x="-29131" stroke-width="1" stroke="none" font-size="433.3333" font-family="sans-serif">O</text><text y="-32199" xml:space="preserve" x="-28221" stroke-width="1" stroke="none" font-size="433.3333" font-family="sans-serif">O</text><text y="-32242" xml:space="preserve" x="-24237" stroke-width="1" stroke="none" font-size="433.3333" font-family="sans-serif">N</text><text y="-30628" xml:space="preserve" x="-27314" stroke-width="1" stroke="none" font-size="433.3333" font-family="sans-serif">N</text><text y="-29489" xml:space="preserve" x="-25344" stroke-width="1" stroke="none" font-size="433.3333" font-family="sans-serif">NH</text></g><g transform="translate(32866,32758)" text-rendering="geometricPrecision" stroke-linejoin="round" stroke-linecap="round" font-style="italic" font-size="313.3333" font-family="sans-serif"><text y="-30893" xml:space="preserve" x="-26332" stroke="none">S</text></g></g></svg>