<svg width="300.99" viewBox="0 0 10033 9697" text-rendering="auto" stroke-width="1" stroke-opacity="1" stroke-miterlimit="10" stroke-linejoin="miter" stroke-linecap="square" stroke-dashoffset="0" stroke-dasharray="none" stroke="black" shape-rendering="auto" image-rendering="auto" height="290.91" font-weight="normal" font-style="normal" font-size="12" font-family="'Dialog'" fill-opacity="1" fill="black" color-rendering="auto" color-interpolation="auto" xmlns="http://www.w3.org/2000/svg"><g><g stroke="white" fill="white"><rect y="0" x="0" width="10033" stroke="none" height="9697"/></g><g transform="translate(32866,32866)" text-rendering="geometricPrecision" stroke-width="44" stroke-linejoin="round" stroke-linecap="round"><line y2="-29325" y1="-28750" x2="-28831" x1="-27848" fill="none"/><line y2="-28750" y1="-29325" x2="-27848" x1="-26866" fill="none"/><line y2="-28969" y1="-29400" x2="-27811" x1="-27074" fill="none"/><line y2="-30469" y1="-29325" x2="-28831" x1="-28831" fill="none"/><line y2="-28750" y1="-29325" x2="-29813" x1="-28831" fill="none"/><line y2="-28969" y1="-29400" x2="-29778" x1="-29042" fill="none"/><line y2="-30469" y1="-29325" x2="-26866" x1="-26866" fill="none"/><line y2="-29325" y1="-28750" x2="-26866" x1="-25884" fill="none"/><line y2="-30469" y1="-31044" x2="-28831" x1="-29813" fill="none"/><line y2="-30394" y1="-30824" x2="-29042" x1="-29778" fill="none"/><line y2="-30934" y1="-30469" x2="-28036" x1="-28831" fill="none"/><line y2="-29325" y1="-28750" x2="-30798" x1="-29813" fill="none"/><line y2="-30469" y1="-30879" x2="-26866" x1="-27565" fill="none"/><line y2="-30373" y1="-30680" x2="-27040" x1="-27565" fill="none"/><line y2="-31044" y1="-30469" x2="-25884" x1="-26866" fill="none"/><line y2="-28750" y1="-29325" x2="-25884" x1="-24902" fill="none"/><line y2="-28969" y1="-29400" x2="-25846" x1="-25110" fill="none"/><line y2="-30469" y1="-31044" x2="-30798" x1="-29813" fill="none"/><line y2="-31044" y1="-32190" x2="-29813" x1="-29813" fill="none"/><line y2="-30469" y1="-29325" x2="-30798" x1="-30798" fill="none"/><line y2="-30327" y1="-29466" x2="-30628" x1="-30628" fill="none"/><line y2="-28750" y1="-29325" x2="-31780" x1="-30798" fill="none"/><line y2="-30469" y1="-31044" x2="-24902" x1="-25884" fill="none"/><line y2="-30394" y1="-30824" x2="-25110" x1="-25846" fill="none"/><line y2="-32190" y1="-31044" x2="-25884" x1="-25884" fill="none"/><line y2="-30469" y1="-29325" x2="-24902" x1="-24902" fill="none"/><line y2="-29325" y1="-28750" x2="-24902" x1="-23920" fill="none"/><line y2="-30934" y1="-30469" x2="-31592" x1="-30798" fill="none"/><line y2="-32190" y1="-32762" x2="-29813" x1="-30798" fill="none"/><line y2="-29325" y1="-28750" x2="-32762" x1="-31780" fill="none"/><line y2="-30934" y1="-30469" x2="-24107" x1="-24902" fill="none"/><line y2="-32762" y1="-32190" x2="-24902" x1="-25884" fill="none"/><line y2="-28750" y1="-29325" x2="-23920" x1="-22937" fill="none"/><line y2="-32190" y1="-31263" x2="-31780" x1="-31780" fill="none"/><line y2="-30934" y1="-30469" x2="-31968" x1="-32762" fill="none"/><line y2="-32762" y1="-32190" x2="-30798" x1="-31780" fill="none"/><line y2="-30469" y1="-29325" x2="-32762" x1="-32762" fill="none"/><line y2="-31263" y1="-32190" x2="-23920" x1="-23920" fill="none"/><line y2="-30469" y1="-30934" x2="-22937" x1="-23732" fill="none"/><line y2="-32190" y1="-32762" x2="-23920" x1="-24902" fill="none"/><line y2="-29325" y1="-30469" x2="-22937" x1="-22937" fill="none"/><line y2="-27392" y1="-28750" x2="-27848" x1="-27848" fill="none"/><line y2="-26823" y1="-27392" x2="-26866" x1="-27848" fill="none"/><line y2="-26745" y1="-27172" x2="-27074" x1="-27811" fill="none"/><line y2="-27392" y1="-26823" x2="-27848" x1="-28836" fill="none"/><line y2="-25685" y1="-26823" x2="-26866" x1="-26866" fill="none"/><line y2="-26823" y1="-25685" x2="-28836" x1="-28836" fill="none"/><line y2="-26678" y1="-25826" x2="-28666" x1="-28666" fill="none"/><line y2="-25116" y1="-25685" x2="-27848" x1="-26866" fill="none"/><line y2="-25335" y1="-25760" x2="-27811" x1="-27074" fill="none"/><line y2="-25685" y1="-25116" x2="-28836" x1="-27848" fill="none"/><line y2="-27346" y1="-26823" x2="-25959" x1="-26866" fill="none"/><line y2="-24070" y1="-25116" x2="-27848" x1="-27848" fill="none"/><line y2="-26930" y1="-27346" x2="-25240" x1="-25959" fill="none"/><line y2="-28175" y1="-27346" x2="-26028" x1="-26028" fill="none"/><line y2="-28175" y1="-27346" x2="-25887" x1="-25887" fill="none"/><line y2="-23764" y1="-24070" x2="-28377" x1="-27848" fill="none"/><line y2="-23714" y1="-24130" x2="-27094" x1="-27814" fill="none"/><line y2="-23593" y1="-24006" x2="-27164" x1="-27883" fill="none"/><text y="-26644" xml:space="preserve" x="-25202" stroke="none" font-size="433.3333" font-family="sans-serif">O</text><text y="-28215" xml:space="preserve" x="-26109" stroke="none" font-size="433.3333" font-family="sans-serif">O</text><text y="-23365" xml:space="preserve" x="-28909" stroke="none" font-size="433.3333" font-family="sans-serif">OH</text><text y="-23365" xml:space="preserve" x="-27094" stroke="none" font-size="433.3333" font-family="sans-serif">O</text><text y="-30864" xml:space="preserve" x="-28002" stroke="none" font-size="433.3333" font-family="sans-serif">O</text><text y="-30864" xml:space="preserve" x="-31930" stroke="none" font-size="433.3333" font-family="sans-serif">N</text><text y="-30864" xml:space="preserve" x="-24070" stroke="none" font-size="433.3333" font-family="sans-serif">N</text><text y="-26699" xml:space="preserve" x="-24882" stroke="none" font-size="313.3333" font-family="sans-serif">-</text><text y="-30919" xml:space="preserve" x="-27678" stroke="none" font-size="313.3333" font-family="sans-serif">+</text></g></g></svg>