<svg width="210.6" viewBox="0 0 7020 4234" text-rendering="auto" stroke-width="1" stroke-opacity="1" stroke-miterlimit="10" stroke-linejoin="miter" stroke-linecap="square" stroke-dashoffset="0" stroke-dasharray="none" stroke="black" shape-rendering="auto" image-rendering="auto" height="127.02" font-weight="normal" font-style="normal" font-size="12" font-family="'Dialog'" fill-opacity="1" fill="black" color-rendering="auto" color-interpolation="auto" xmlns="http://www.w3.org/2000/svg"><g><g stroke="white" fill="white"><rect y="0" x="0" width="7020" stroke="none" height="4234"/></g><g transform="translate(32866,32866)" text-rendering="geometricPrecision" stroke-width="44" stroke-linejoin="round" stroke-linecap="round"><line y2="-30668" y1="-31234" x2="-29654" x1="-30639" fill="none"/><line y2="-30590" y1="-31018" x2="-29862" x1="-30602" fill="none"/><line y2="-29530" y1="-30668" x2="-29654" x1="-29654" fill="none"/><line y2="-31234" y1="-30668" x2="-30639" x1="-31624" fill="none"/><line y2="-28961" y1="-29530" x2="-30639" x1="-29654" fill="none"/><line y2="-29177" y1="-29605" x2="-30602" x1="-29862" fill="none"/><line y2="-30668" y1="-29530" x2="-31624" x1="-31624" fill="none"/><line y2="-30524" y1="-29671" x2="-31454" x1="-31454" fill="none"/><line y2="-29530" y1="-28961" x2="-31624" x1="-30639" fill="none"/><line y2="-30994" y1="-30668" x2="-29088" x1="-29654" fill="none"/><line y2="-29203" y1="-29530" x2="-32190" x1="-31624" fill="none"/><line y2="-30743" y1="-31003" x2="-27938" x1="-28406" fill="none"/><line y2="-29590" y1="-30420" x2="-27750" x1="-27750" fill="none"/><line y2="-29068" y1="-29590" x2="-26843" x1="-27750" fill="none"/><line y2="-32020" y1="-31410" x2="-28747" x1="-28747" fill="none"/><line y2="-32762" y1="-32346" x2="-27840" x1="-28559" fill="none"/><line y2="-32240" y1="-32762" x2="-26933" x1="-27840" fill="none"/><line y2="-31650" y1="-31387" x2="-27952" x1="-28406" fill="none"/><line y2="-31234" y1="-31650" x2="-26858" x1="-27574" fill="none"/><line y2="-31760" y1="-31234" x2="-25950" x1="-26858" fill="none"/><text y="-31012" xml:space="preserve" x="-28978" stroke="none" font-size="433.3333" font-family="sans-serif">Si</text><text y="-30460" xml:space="preserve" x="-27900" stroke="none" font-size="433.3333" font-family="sans-serif">O</text><text y="-32060" xml:space="preserve" x="-28900" stroke="none" font-size="433.3333" font-family="sans-serif">O</text><text y="-31581" xml:space="preserve" x="-27915" stroke="none" font-size="433.3333" font-family="sans-serif">O</text><text y="-28828" xml:space="preserve" x="-32762" stroke="none" font-size="433.3333" font-family="sans-serif">Cl</text></g></g></svg>