<svg width="239.88" viewBox="0 0 7996 5484" text-rendering="auto" stroke-width="1" stroke-opacity="1" stroke-miterlimit="10" stroke-linejoin="miter" stroke-linecap="square" stroke-dashoffset="0" stroke-dasharray="none" stroke="black" shape-rendering="auto" image-rendering="auto" height="164.52" font-weight="normal" font-style="normal" font-size="12" font-family="'Dialog'" fill-opacity="1" fill="black" color-rendering="auto" color-interpolation="auto" xmlns="http://www.w3.org/2000/svg"><g><g stroke="white" fill="white"><rect y="0" x="0" width="7996" stroke="none" height="5484"/></g><g transform="translate(32866,32758)" text-rendering="geometricPrecision" stroke-width="44" stroke-linejoin="round" stroke-linecap="round"><line y2="-30703" y1="-30131" x2="-29660" x1="-28678" fill="none"/><line y2="-31850" y1="-30703" x2="-29660" x1="-29660" fill="none"/><line y2="-30131" y1="-30703" x2="-30642" x1="-29660" fill="none"/><line y2="-30347" y1="-30778" x2="-30604" x1="-29868" fill="none"/><line y2="-30131" y1="-30593" x2="-28678" x1="-27883" fill="none"/><line y2="-32312" y1="-31850" x2="-28865" x1="-29660" fill="none"/><line y2="-31850" y1="-32422" x2="-29660" x1="-30642" fill="none"/><line y2="-31774" y1="-32205" x2="-29868" x1="-30604" fill="none"/><line y2="-30703" y1="-30131" x2="-31624" x1="-30642" fill="none"/><line y2="-30922" y1="-31850" x2="-27695" x1="-27695" fill="none"/><line y2="-31850" y1="-32312" x2="-27695" x1="-28490" fill="none"/><line y2="-31760" y1="-32107" x2="-27880" x1="-28475" fill="none"/><line y2="-32422" y1="-31850" x2="-30642" x1="-31624" fill="none"/><line y2="-31850" y1="-30703" x2="-31624" x1="-31624" fill="none"/><line y2="-31705" y1="-30847" x2="-31454" x1="-31454" fill="none"/><line y2="-29082" y1="-30131" x2="-28678" x1="-28678" fill="none"/><line y2="-29605" y1="-30131" x2="-27770" x1="-28678" fill="none"/><line y2="-32266" y1="-31850" x2="-26976" x1="-27695" fill="none"/><line y2="-31850" y1="-32153" x2="-25881" x1="-26410" fill="none"/><line y2="-32372" y1="-31850" x2="-24974" x1="-25881" fill="none"/><line y2="-30376" y1="-30703" x2="-32190" x1="-31624" fill="none"/><line y2="-27944" y1="-29082" x2="-28678" x1="-28678" fill="none"/><line y2="-28088" y1="-28940" x2="-28848" x1="-28848" fill="none"/><line y2="-29082" y1="-29651" x2="-28678" x1="-29663" fill="none"/><line y2="-27378" y1="-27944" x2="-29663" x1="-28678" fill="none"/><line y2="-29651" y1="-29082" x2="-29663" x1="-30648" fill="none"/><line y2="-29434" y1="-29007" x2="-29700" x1="-30440" fill="none"/><line y2="-27944" y1="-27378" x2="-30648" x1="-29663" fill="none"/><line y2="-28022" y1="-27594" x2="-30440" x1="-29700" fill="none"/><line y2="-29082" y1="-27944" x2="-30648" x1="-30648" fill="none"/><text y="-30001" xml:space="preserve" x="-32762" stroke="none" font-size="433.3333" font-family="sans-serif">Cl</text><text y="-32193" xml:space="preserve" x="-26941" stroke="none" font-size="433.3333" font-family="sans-serif">NH</text><text y="-30524" xml:space="preserve" x="-27848" stroke="none" font-size="433.3333" font-family="sans-serif">O</text><text y="-32242" xml:space="preserve" x="-28831" stroke="none" font-size="433.3333" font-family="sans-serif">N</text></g></g></svg>