<svg width="299.34" viewBox="0 0 9978 7070" text-rendering="auto" stroke-width="1" stroke-opacity="1" stroke-miterlimit="10" stroke-linejoin="miter" stroke-linecap="square" stroke-dashoffset="0" stroke-dasharray="none" stroke="black" shape-rendering="auto" image-rendering="auto" height="212.1" font-weight="normal" font-style="normal" font-size="12" font-family="'Dialog'" fill-opacity="1" fill="black" color-rendering="auto" color-interpolation="auto" xmlns="http://www.w3.org/2000/svg"><g><g stroke="white" fill="white"><rect y="0" x="0" width="9978" stroke="none" height="7070"/></g><g transform="translate(32866,32758)" text-rendering="geometricPrecision" stroke-width="44" stroke-linejoin="round" stroke-linecap="round"><line y2="-29787" y1="-30850" x2="-30058" x1="-29692" fill="none"/><line y2="-30850" y1="-31402" x2="-29692" x1="-30402" fill="none"/><line y2="-29787" y1="-29787" x2="-31205" x1="-30058" fill="none"/><line y2="-31408" y1="-30850" x2="-30781" x1="-31535" fill="none"/><line y2="-30850" y1="-29787" x2="-31535" x1="-31205" fill="none"/><line y2="-30960" y1="-31376" x2="-28065" x1="-28784" fill="none"/><line y2="-31376" y1="-30960" x2="-26970" x1="-27690" fill="none"/><line y2="-28233" y1="-29062" x2="-29146" x1="-29146" fill="none"/><line y2="-30850" y1="-31376" x2="-26063" x1="-26970" fill="none"/><line y2="-32202" y1="-31376" x2="-27040" x1="-27040" fill="none"/><line y2="-32202" y1="-31376" x2="-26901" x1="-26901" fill="none"/><line y2="-27710" y1="-28233" x2="-28236" x1="-29146" fill="none"/><line y2="-27756" y1="-28172" x2="-29827" x1="-29108" fill="none"/><line y2="-27877" y1="-28293" x2="-29900" x1="-29180" fill="none"/><line y2="-30850" y1="-29715" x2="-26063" x1="-26063" fill="none"/><line y2="-30708" y1="-29856" x2="-25893" x1="-25893" fill="none"/><line y2="-31419" y1="-30850" x2="-25075" x1="-26063" fill="none"/><line y2="-29715" y1="-29146" x2="-26063" x1="-25075" fill="none"/><line y2="-30850" y1="-31419" x2="-24093" x1="-25075" fill="none"/><line y2="-30775" y1="-31202" x2="-24301" x1="-25038" fill="none"/><line y2="-29146" y1="-29715" x2="-25075" x1="-24093" fill="none"/><line y2="-29362" y1="-29790" x2="-25038" x1="-24301" fill="none"/><line y2="-29715" y1="-30850" x2="-24093" x1="-24093" fill="none"/><line y2="-29385" y1="-29715" x2="-23524" x1="-24093" fill="none"/><line y2="-27710" y1="-26572" x2="-28236" x1="-28236" fill="none"/><line y2="-27565" y1="-26713" x2="-28068" x1="-28068" fill="none"/><line y2="-28276" y1="-27710" x2="-27250" x1="-28236" fill="none"/><line y2="-26572" y1="-26002" x2="-28236" x1="-27250" fill="none"/><line y2="-27710" y1="-28276" x2="-26265" x1="-27250" fill="none"/><line y2="-27632" y1="-28059" x2="-26473" x1="-27213" fill="none"/><line y2="-26002" y1="-26572" x2="-27250" x1="-26265" fill="none"/><line y2="-26219" y1="-26647" x2="-27213" x1="-26473" fill="none"/><line y2="-26572" y1="-27710" x2="-26265" x1="-26265" fill="none"/><line y2="-26251" y1="-26572" x2="-25690" x1="-26265" fill="none"/><polygon stroke-width="1" stroke="none" points=" -30058 -29787 -29299 -29443 -29365 -29322"/><polygon stroke-width="1" points=" -30058 -29787 -29299 -29443 -29365 -29322" fill="none"/><polygon stroke-width="1" stroke="none" points=" -31535 -30850 -32211 -30997 -32167 -31130"/><polygon stroke-width="1" points=" -31535 -30850 -32211 -30997 -32167 -31130" fill="none"/><line y2="-31315" y1="-31434" x2="-28750" x1="-28819" fill="none"/><line y2="-31219" y1="-31313" x2="-28945" x1="-28999" fill="none"/><line y2="-31123" y1="-31193" x2="-29139" x1="-29180" fill="none"/><line y2="-31027" y1="-31072" x2="-29334" x1="-29360" fill="none"/><line y2="-30931" y1="-30951" x2="-29529" x1="-29541" fill="none"/><text y="-30671" xml:space="preserve" x="-28030" stroke="none" font-size="433.3333" font-family="sans-serif">O</text><text y="-32242" xml:space="preserve" x="-27123" stroke="none" font-size="433.3333" font-family="sans-serif">O</text><text y="-29102" xml:space="preserve" x="-29296" stroke="none" font-size="433.3333" font-family="sans-serif">O</text><text y="-27531" xml:space="preserve" x="-30203" stroke="none" font-size="433.3333" font-family="sans-serif">O</text><text y="-30997" xml:space="preserve" x="-32762" stroke="none" font-size="433.3333" font-family="sans-serif">Cl</text><text y="-25884" xml:space="preserve" x="-25581" stroke="none" font-size="433.3333" font-family="sans-serif">Cl</text><text y="-29010" xml:space="preserve" x="-23417" stroke="none" font-size="433.3333" font-family="sans-serif">Cl</text><text y="-31367" xml:space="preserve" x="-30743" stroke="none" font-size="433.3333" font-family="sans-serif">O</text><text y="-30576" xml:space="preserve" x="-30113" stroke="none" font-style="italic" font-size="313.3333" font-family="sans-serif">R</text><text y="-29894" xml:space="preserve" x="-30443" stroke="none" font-style="italic" font-size="313.3333" font-family="sans-serif">S</text><text y="-30599" xml:space="preserve" x="-31408" stroke="none" font-style="italic" font-size="313.3333" font-family="sans-serif">R</text></g></g></svg>