<svg width="371.91" viewBox="0 0 12397 7545" text-rendering="auto" stroke-width="1" stroke-opacity="1" stroke-miterlimit="10" stroke-linejoin="miter" stroke-linecap="square" stroke-dashoffset="0" stroke-dasharray="none" stroke="black" shape-rendering="auto" image-rendering="auto" height="226.35" font-weight="normal" font-style="normal" font-size="12" font-family="'Dialog'" fill-opacity="1" fill="black" color-rendering="auto" color-interpolation="auto" xmlns="http://www.w3.org/2000/svg"><g><g stroke="white" fill="white"><rect y="0" x="0" width="12397" stroke="none" height="7545"/></g><g transform="translate(32866,32866)" text-rendering="geometricPrecision" stroke-width="44" stroke-linejoin="round" stroke-linecap="round"><line y2="-30240" y1="-29668" x2="-24899" x1="-23917" fill="none"/><line y2="-28522" y1="-29668" x2="-23917" x1="-23917" fill="none"/><line y2="-29668" y1="-30240" x2="-23917" x1="-22934" fill="none"/><line y2="-30240" y1="-29668" x2="-24899" x1="-25881" fill="none"/><line y2="-31387" y1="-30240" x2="-24899" x1="-24899" fill="none"/><line y2="-27947" y1="-28522" x2="-24899" x1="-23917" fill="none"/><line y2="-30240" y1="-31387" x2="-22934" x1="-22934" fill="none"/><line y2="-28522" y1="-29668" x2="-25881" x1="-25881" fill="none"/><line y2="-29668" y1="-30240" x2="-25881" x1="-26863" fill="none"/><line y2="-31959" y1="-31387" x2="-23917" x1="-24899" fill="none"/><line y2="-28522" y1="-27947" x2="-25881" x1="-24899" fill="none"/><line y2="-31387" y1="-31959" x2="-22934" x1="-23917" fill="none"/><line y2="-27947" y1="-28522" x2="-26863" x1="-25881" fill="none"/><line y2="-30240" y1="-29668" x2="-26863" x1="-27846" fill="none"/><line y2="-28522" y1="-27947" x2="-27846" x1="-26863" fill="none"/><line y2="-26803" y1="-27947" x2="-26863" x1="-26863" fill="none"/><line y2="-29668" y1="-28522" x2="-27846" x1="-27846" fill="none"/><line y2="-29524" y1="-28663" x2="-27678" x1="-27678" fill="none"/><line y2="-28522" y1="-27947" x2="-27846" x1="-28831" fill="none"/><line y2="-26228" y1="-26803" x2="-27846" x1="-26863" fill="none"/><line y2="-26803" y1="-27947" x2="-28831" x1="-28831" fill="none"/><line y2="-27947" y1="-28522" x2="-28831" x1="-29813" fill="none"/><line y2="-26803" y1="-26228" x2="-28831" x1="-27846" fill="none"/><line y2="-26228" y1="-26803" x2="-29813" x1="-28831" fill="none"/><line y2="-28522" y1="-27947" x2="-29813" x1="-30795" fill="none"/><line y2="-28302" y1="-27872" x2="-29848" x1="-30587" fill="none"/><line y2="-26803" y1="-26228" x2="-30795" x1="-29813" fill="none"/><line y2="-27947" y1="-26803" x2="-30795" x1="-30795" fill="none"/><line y2="-28472" y1="-27947" x2="-31702" x1="-30795" fill="none"/><line y2="-32762" y1="-31959" x2="-23244" x1="-23917" fill="none"/><line y2="-32762" y1="-31959" x2="-24590" x1="-23917" fill="none"/><line y2="-25425" y1="-26228" x2="-30486" x1="-29813" fill="none"/><line y2="-25425" y1="-26228" x2="-29140" x1="-29813" fill="none"/><line y2="-31070" y1="-30240" x2="-26936" x1="-26936" fill="none"/><line y2="-31070" y1="-30240" x2="-26794" x1="-26794" fill="none"/><line y2="-26326" y1="-26742" x2="-31480" x1="-30760" fill="none"/><line y2="-26447" y1="-26863" x2="-31549" x1="-30830" fill="none"/><line y2="-29559" y1="-29143" x2="-22290" x1="-23010" fill="none"/><line y2="-29252" y1="-29559" x2="-21383" x1="-21915" fill="none"/><line y2="-28316" y1="-29143" x2="-22940" x1="-22940" fill="none"/><line y2="-28316" y1="-29102" x2="-23079" x1="-23079" fill="none"/><line y2="-28888" y1="-28472" x2="-32422" x1="-31702" fill="none"/><line y2="-28810" y1="-28394" x2="-32465" x1="-31748" fill="none"/><line y2="-28966" y1="-28550" x2="-32375" x1="-31659" fill="none"/><polygon stroke-width="1" stroke="none" points=" -23917 -29668 -22975 -29203 -23044 -29082"/><polygon stroke-width="1" points=" -23917 -29668 -22975 -29203 -23044 -29082" fill="none"/><polygon stroke-width="1" stroke="none" points=" -26863 -27947 -26933 -28995 -26797 -28995"/><polygon stroke-width="1" points=" -26863 -27947 -26933 -28995 -26797 -28995" fill="none"/><polygon stroke-width="1" stroke="none" points=" -28831 -27947 -28897 -28995 -28761 -28995"/><polygon stroke-width="1" points=" -28831 -27947 -28897 -28995 -28761 -28995" fill="none"/><polygon stroke-width="1" stroke="none" points=" -25881 -29668 -25950 -30495 -25812 -30495"/><polygon stroke-width="1" points=" -25881 -29668 -25950 -30495 -25812 -30495" fill="none"/><polygon stroke-width="1" stroke="none" points=" -24899 -30240 -24830 -29411 -24968 -29411"/><polygon stroke-width="1" points=" -24899 -30240 -24830 -29411 -24968 -29411" fill="none"/><line y2="-27473" y1="-27473" x2="-25950" x1="-25812" fill="none"/><line y2="-27690" y1="-27690" x2="-25936" x1="-25826" fill="none"/><line y2="-27906" y1="-27906" x2="-25921" x1="-25841" fill="none"/><line y2="-28123" y1="-28123" x2="-25907" x1="-25855" fill="none"/><line y2="-28340" y1="-28340" x2="-25893" x1="-25869" fill="none"/><line y2="-25974" y1="-25974" x2="-28897" x1="-28761" fill="none"/><line y2="-26191" y1="-26191" x2="-28880" x1="-28779" fill="none"/><line y2="-26407" y1="-26407" x2="-28863" x1="-28798" fill="none"/><line y2="-26624" y1="-26624" x2="-28845" x1="-28816" fill="none"/><text y="-29489" xml:space="preserve" x="-22256" stroke="none" font-size="433.3333" font-family="sans-serif">O</text><text y="-27918" xml:space="preserve" x="-23163" stroke="none" font-size="433.3333" font-family="sans-serif">O</text><text y="-28964" xml:space="preserve" x="-21348" stroke="none" font-size="433.3333" font-family="sans-serif">CH</text><text y="-28874" xml:space="preserve" x="-20771" stroke="none" font-size="313.3333" font-family="sans-serif">3</text><text y="-31110" xml:space="preserve" x="-27016" stroke="none" font-size="433.3333" font-family="sans-serif">O</text><text y="-28816" xml:space="preserve" x="-32762" stroke="none" font-size="433.3333" font-family="sans-serif">N</text><text y="-26098" xml:space="preserve" x="-31855" stroke="none" font-size="433.3333" font-family="sans-serif">O</text><text y="-30535" xml:space="preserve" x="-26034" stroke="none" font-size="433.3333" font-family="sans-serif">H</text><text y="-29013" xml:space="preserve" x="-25052" stroke="none" font-size="433.3333" font-family="sans-serif">H</text><text y="-25575" xml:space="preserve" x="-28981" stroke="none" font-size="433.3333" font-family="sans-serif">H</text><text y="-29345" xml:space="preserve" x="-24318" stroke="none" font-style="italic" font-size="313.3333" font-family="sans-serif">S</text><text y="-30206" xml:space="preserve" x="-24804" stroke="none" font-style="italic" font-size="313.3333" font-family="sans-serif">S</text><text y="-29345" xml:space="preserve" x="-25786" stroke="none" font-style="italic" font-size="313.3333" font-family="sans-serif">R</text><text y="-28487" xml:space="preserve" x="-26283" stroke="none" font-style="italic" font-size="313.3333" font-family="sans-serif">R</text><text y="-27626" xml:space="preserve" x="-26768" stroke="none" font-style="italic" font-size="313.3333" font-family="sans-serif">S</text><text y="-27626" xml:space="preserve" x="-28732" stroke="none" font-style="italic" font-size="313.3333" font-family="sans-serif">S</text><text y="-26768" xml:space="preserve" x="-29229" stroke="none" font-style="italic" font-size="313.3333" font-family="sans-serif">R</text></g></g></svg>