<svg width="198.03" viewBox="0 0 6601 4332" text-rendering="auto" stroke-width="1" stroke-opacity="1" stroke-miterlimit="10" stroke-linejoin="miter" stroke-linecap="square" stroke-dashoffset="0" stroke-dasharray="none" stroke="black" shape-rendering="auto" image-rendering="auto" height="129.96" font-weight="normal" font-style="normal" font-size="12" font-family="'Dialog'" fill-opacity="1" fill="black" color-rendering="auto" color-interpolation="auto" xmlns="http://www.w3.org/2000/svg"><g><g stroke="white" fill="white"><rect y="0" x="0" width="6601" stroke="none" height="4332"/></g><g transform="translate(32866,32758)" text-rendering="geometricPrecision" stroke-width="44" stroke-linejoin="round" stroke-linecap="round"><line y2="-30191" y1="-30758" x2="-30717" x1="-29735" fill="none"/><line y2="-30408" y1="-30836" x2="-30680" x1="-29943" fill="none"/><line y2="-30758" y1="-31676" x2="-29735" x1="-29735" fill="none"/><line y2="-30758" y1="-30191" x2="-31705" x1="-30717" fill="none"/><line y2="-32006" y1="-32465" x2="-29923" x1="-30717" fill="none"/><line y2="-31916" y1="-32260" x2="-30108" x1="-30703" fill="none"/><line y2="-31896" y1="-30758" x2="-31705" x1="-31705" fill="none"/><line y2="-31754" y1="-30902" x2="-31535" x1="-31535" fill="none"/><line y2="-32465" y1="-31896" x2="-30717" x1="-31705" fill="none"/><line y2="-30344" y1="-30758" x2="-29016" x1="-29735" fill="none"/><line y2="-32312" y1="-31896" x2="-32424" x1="-31705" fill="none"/><line y2="-30015" y1="-29096" x2="-28828" x1="-28828" fill="none"/><line y2="-30804" y1="-30344" x2="-27840" x1="-28640" fill="none"/><line y2="-29096" y1="-28530" x2="-28828" x1="-27840" fill="none"/><line y2="-30235" y1="-30804" x2="-26858" x1="-27840" fill="none"/><line y2="-28530" y1="-28990" x2="-27840" x1="-27045" fill="none"/><line y2="-29316" y1="-30235" x2="-26858" x1="-26858" fill="none"/><text y="-32242" xml:space="preserve" x="-32762" stroke="none" font-size="433.3333" font-family="sans-serif">I</text><text y="-31717" xml:space="preserve" x="-29885" stroke="none" font-size="433.3333" font-family="sans-serif">N</text><text y="-30056" xml:space="preserve" x="-28978" stroke="none" font-size="433.3333" font-family="sans-serif">N</text><text y="-28917" xml:space="preserve" x="-27008" stroke="none" font-size="433.3333" font-family="sans-serif">NH</text></g></g></svg>