<svg width="523.47" viewBox="0 0 17449 11150" text-rendering="auto" stroke-width="1" stroke-opacity="1" stroke-miterlimit="10" stroke-linejoin="miter" stroke-linecap="square" stroke-dashoffset="0" stroke-dasharray="none" stroke="black" shape-rendering="auto" image-rendering="auto" height="334.5" font-weight="normal" font-style="normal" font-size="12" font-family="'Dialog'" fill-opacity="1" fill="black" color-rendering="auto" color-interpolation="auto" xmlns="http://www.w3.org/2000/svg"><g><g stroke="white" fill="white"><rect y="0" x="0" width="17449" stroke="none" height="11150"/></g><g transform="translate(32866,32758)" text-rendering="geometricPrecision" stroke-width="44" stroke-linejoin="round" stroke-linecap="round"><line y2="-28210" y1="-27640" x2="-18650" x1="-17677" fill="none"/><line y2="-26782" y1="-28210" x2="-19696" x1="-18650" fill="none"/><line y2="-29345" y1="-28210" x2="-18650" x1="-18650" fill="none"/><line y2="-28210" y1="-27640" x2="-16700" x1="-17677" fill="none"/><line y2="-27640" y1="-26655" x2="-17677" x1="-17108" fill="none"/><line y2="-27389" y1="-26782" x2="-20924" x1="-19696" fill="none"/><line y2="-29345" y1="-30327" x2="-18650" x1="-19219" fill="none"/><line y2="-29914" y1="-29345" x2="-17677" x1="-18650" fill="none"/><line y2="-27447" y1="-28210" x2="-16252" x1="-16700" fill="none"/><line y2="-28210" y1="-29345" x2="-16700" x1="-16700" fill="none"/><line y2="-26655" y1="-27118" x2="-17108" x1="-16313" fill="none"/><line y2="-28366" y1="-27389" x2="-20355" x1="-20924" fill="none"/><line y2="-27389" y1="-27389" x2="-22059" x1="-20924" fill="none"/><line y2="-30327" y1="-30327" x2="-19219" x1="-20358" fill="none"/><line y2="-29345" y1="-29914" x2="-16700" x1="-17677" fill="none"/><line y2="-29339" y1="-28366" x2="-20924" x1="-20355" fill="none"/><line y2="-28366" y1="-27389" x2="-22628" x1="-22059" fill="none"/><line y2="-30327" y1="-29339" x2="-20358" x1="-20924" fill="none"/><line y2="-29339" y1="-29339" x2="-20924" x1="-22059" fill="none"/><line y2="-29169" y1="-29169" x2="-21065" x1="-21918" fill="none"/><line y2="-29339" y1="-28366" x2="-22059" x1="-22628" fill="none"/><line y2="-28366" y1="-28782" x2="-24442" x1="-23723" fill="none"/><line y2="-25035" y1="-25624" x2="-20863" x1="-19884" fill="none"/><line y2="-27678" y1="-28366" x2="-19563" x1="-20355" fill="none"/><line y2="-29024" y1="-28366" x2="-19540" x1="-20355" fill="none"/><line y2="-30255" y1="-29339" x2="-22568" x1="-22059" fill="none"/><line y2="-24477" y1="-24893" x2="-19240" x1="-18520" fill="none"/><line y2="-31899" y1="-31070" x2="-21262" x1="-21262" fill="none"/><line y2="-31049" y1="-30362" x2="-18881" x1="-19280" fill="none"/><line y2="-30980" y1="-30292" x2="-18760" x1="-19159" fill="none"/><line y2="-28888" y1="-28366" x2="-25350" x1="-24442" fill="none"/><line y2="-27536" y1="-28366" x2="-24373" x1="-24373" fill="none"/><line y2="-27536" y1="-28366" x2="-24512" x1="-24512" fill="none"/><line y2="-23986" y1="-25035" x2="-20863" x1="-20863" fill="none"/><line y2="-25390" y1="-24974" x2="-21617" x1="-20898" fill="none"/><line y2="-25511" y1="-25095" x2="-21548" x1="-20828" fill="none"/><line y2="-25003" y1="-24477" x2="-20147" x1="-19240" fill="none"/><line y2="-23651" y1="-24477" x2="-19170" x1="-19170" fill="none"/><line y2="-23651" y1="-24477" x2="-19309" x1="-19309" fill="none"/><line y2="-32422" y1="-31899" x2="-22169" x1="-21262" fill="none"/><line y2="-32375" y1="-31959" x2="-20577" x1="-21299" fill="none"/><line y2="-32254" y1="-31838" x2="-20508" x1="-21227" fill="none"/><line y2="-28366" y1="-28888" x2="-26257" x1="-25350" fill="none"/><line y2="-23986" y1="-23420" x2="-20863" x1="-21848" fill="none"/><line y2="-23769" y1="-23342" x2="-20901" x1="-21640" fill="none"/><line y2="-23420" y1="-23986" x2="-19881" x1="-20863" fill="none"/><line y2="-23420" y1="-22282" x2="-21848" x1="-21848" fill="none"/><line y2="-22282" y1="-23420" x2="-19878" x1="-19881" fill="none"/><line y2="-22423" y1="-23278" x2="-20048" x1="-20048" fill="none"/><line y2="-22282" y1="-21712" x2="-21848" x1="-20863" fill="none"/><line y2="-22357" y1="-21929" x2="-21640" x1="-20901" fill="none"/><line y2="-21712" y1="-22282" x2="-20863" x1="-19878" fill="none"/><line y2="-28669" y1="-28366" x2="-26785" x1="-26257" fill="none"/><line y2="-28366" y1="-28782" x2="-28071" x1="-27352" fill="none"/><line y2="-28888" y1="-28366" x2="-28978" x1="-28071" fill="none"/><line y2="-27536" y1="-28366" x2="-28002" x1="-28002" fill="none"/><line y2="-27536" y1="-28366" x2="-28143" x1="-28143" fill="none"/><line y2="-27317" y1="-26748" x2="-26257" x1="-27245" fill="none"/><line y2="-27097" y1="-26673" x2="-26297" x1="-27037" fill="none"/><line y2="-26748" y1="-27317" x2="-25274" x1="-26257" fill="none"/><line y2="-26748" y1="-25612" x2="-27245" x1="-27245" fill="none"/><line y2="-25612" y1="-26748" x2="-25274" x1="-25274" fill="none"/><line y2="-25754" y1="-26606" x2="-25445" x1="-25445" fill="none"/><line y2="-25612" y1="-25043" x2="-27245" x1="-26257" fill="none"/><line y2="-25688" y1="-25260" x2="-27037" x1="-26297" fill="none"/><line y2="-25043" y1="-25612" x2="-26257" x1="-25274" fill="none"/><line y2="-28366" y1="-28888" x2="-29885" x1="-28978" fill="none"/><line y2="-28311" y1="-28704" x2="-29703" x1="-29024" fill="none"/><line y2="-28888" y1="-28366" x2="-30792" x1="-29885" fill="none"/><line y2="-28888" y1="-30027" x2="-30792" x1="-30792" fill="none"/><line y2="-29030" y1="-29885" x2="-30963" x1="-30963" fill="none"/><line y2="-28319" y1="-28888" x2="-31777" x1="-30792" fill="none"/><line y2="-30027" y1="-30596" x2="-30792" x1="-31777" fill="none"/><line y2="-28888" y1="-28319" x2="-32762" x1="-31777" fill="none"/><line y2="-28966" y1="-28539" x2="-32554" x1="-31815" fill="none"/><line y2="-30596" y1="-30027" x2="-31777" x1="-32762" fill="none"/><line y2="-30376" y1="-29949" x2="-31815" x1="-32554" fill="none"/><line y2="-30027" y1="-28888" x2="-32762" x1="-32762" fill="none"/><polygon stroke-width="1" stroke="none" points=" -18650 -29345 -18720 -30394 -18581 -30394"/><polygon stroke-width="1" points=" -18650 -29345 -18720 -30394 -18581 -30394" fill="none"/><polygon stroke-width="1" stroke="none" points=" -20358 -30327 -21109 -30682 -21039 -30801"/><polygon stroke-width="1" points=" -20358 -30327 -21109 -30682 -21039 -30801" fill="none"/><polygon stroke-width="1" stroke="none" points=" -20924 -27389 -20854 -26563 -20993 -26560"/><polygon stroke-width="1" points=" -20924 -27389 -20854 -26563 -20993 -26560" fill="none"/><polygon stroke-width="1" stroke="none" points=" -17677 -29914 -17743 -30740 -17607 -30743"/><polygon stroke-width="1" points=" -17677 -29914 -17743 -30740 -17607 -30743" fill="none"/><polygon stroke-width="1" stroke="none" points=" -25350 -28888 -25419 -29718 -25280 -29718"/><polygon stroke-width="1" points=" -25350 -28888 -25419 -29718 -25280 -29718" fill="none"/><line y2="-28839" y1="-28721" x2="-23313" x1="-23382" fill="none"/><line y2="-28716" y1="-28628" x2="-23134" x1="-23185" fill="none"/><line y2="-28592" y1="-28536" x2="-22955" x1="-22988" fill="none"/><line y2="-28469" y1="-28443" x2="-22777" x1="-22792" fill="none"/><line y2="-25953" y1="-25956" x2="-19765" x1="-19627" fill="none"/><line y2="-26170" y1="-26172" x2="-19747" x1="-19645" fill="none"/><line y2="-26387" y1="-26389" x2="-19729" x1="-19663" fill="none"/><line y2="-26604" y1="-26605" x2="-19711" x1="-19681" fill="none"/><line y2="-25237" y1="-25205" x2="-18344" x1="-18211" fill="none"/><line y2="-25446" y1="-25417" x2="-18286" x1="-18165" fill="none"/><line y2="-25655" y1="-25628" x2="-18228" x1="-18118" fill="none"/><line y2="-25864" y1="-25840" x2="-18170" x1="-18072" fill="none"/><line y2="-26073" y1="-26052" x2="-18112" x1="-18025" fill="none"/><line y2="-26281" y1="-26263" x2="-18054" x1="-17979" fill="none"/><line y2="-26490" y1="-26475" x2="-17996" x1="-17932" fill="none"/><line y2="-26699" y1="-26687" x2="-17938" x1="-17886" fill="none"/><line y2="-26908" y1="-26898" x2="-17880" x1="-17840" fill="none"/><line y2="-27117" y1="-27110" x2="-17822" x1="-17793" fill="none"/><line y2="-27326" y1="-27322" x2="-17764" x1="-17747" fill="none"/><line y2="-27535" y1="-27533" x2="-17706" x1="-17700" fill="none"/><line y2="-27378" y1="-27380" x2="-18720" x1="-18581" fill="none"/><line y2="-27595" y1="-27596" x2="-18702" x1="-18599" fill="none"/><line y2="-27812" y1="-27813" x2="-18683" x1="-18617" fill="none"/><line y2="-28029" y1="-28029" x2="-18665" x1="-18635" fill="none"/><line y2="-28363" y1="-28496" x2="-15860" x1="-15894" fill="none"/><line y2="-28324" y1="-28423" x2="-16074" x1="-16099" fill="none"/><line y2="-28285" y1="-28350" x2="-16287" x1="-16304" fill="none"/><line y2="-28246" y1="-28278" x2="-16501" x1="-16509" fill="none"/><line y2="-27317" y1="-27317" x2="-26326" x1="-26187" fill="none"/><line y2="-27534" y1="-27534" x2="-26312" x1="-26201" fill="none"/><line y2="-27750" y1="-27750" x2="-26297" x1="-26216" fill="none"/><line y2="-27967" y1="-27967" x2="-26283" x1="-26230" fill="none"/><line y2="-28184" y1="-28184" x2="-26269" x1="-26245" fill="none"/><text y="-24824" xml:space="preserve" x="-18486" stroke="none" font-size="433.3333" font-family="sans-serif">O</text><text y="-23252" xml:space="preserve" x="-19393" stroke="none" font-size="433.3333" font-family="sans-serif">O</text><text y="-25558" xml:space="preserve" x="-19849" stroke="none" font-size="433.3333" font-family="sans-serif">O</text><text y="-25378" xml:space="preserve" x="-21923" stroke="none" font-size="433.3333" font-family="sans-serif">O</text><text y="-26164" xml:space="preserve" x="-21074" stroke="none" font-size="433.3333" font-family="sans-serif">OH</text><text y="-31055" xml:space="preserve" x="-18847" stroke="none" font-size="433.3333" font-family="sans-serif">O</text><text y="-30784" xml:space="preserve" x="-17827" stroke="none" font-size="433.3333" font-family="sans-serif">OH</text><text y="-30671" xml:space="preserve" x="-21415" stroke="none" font-size="433.3333" font-family="sans-serif">O</text><text y="-32242" xml:space="preserve" x="-20508" stroke="none" font-size="433.3333" font-family="sans-serif">O</text><text y="-28709" xml:space="preserve" x="-23688" stroke="none" font-size="433.3333" font-family="sans-serif">O</text><text y="-27138" xml:space="preserve" x="-24596" stroke="none" font-size="433.3333" font-family="sans-serif">O</text><text y="-29758" xml:space="preserve" x="-25503" stroke="none" font-size="433.3333" font-family="sans-serif">OH</text><text y="-28709" xml:space="preserve" x="-27317" stroke="none" font-size="433.3333" font-family="sans-serif">NH</text><text y="-27138" xml:space="preserve" x="-28224" stroke="none" font-size="433.3333" font-family="sans-serif">O</text><text y="-27048" xml:space="preserve" x="-16276" stroke="none" font-size="433.3333" font-family="sans-serif">O</text><text y="-26982" xml:space="preserve" x="-18803" stroke="none" font-size="433.3333" font-family="sans-serif">H</text><text y="-28299" xml:space="preserve" x="-15839" stroke="none" font-size="433.3333" font-family="sans-serif">H</text><text y="-28831" xml:space="preserve" x="-29816" stroke="none" font-style="italic" font-size="313.3333" font-family="sans-serif">E</text><text y="-28406" xml:space="preserve" x="-25503" stroke="none" font-style="italic" font-size="313.3333" font-family="sans-serif">R</text><text y="-28487" xml:space="preserve" x="-26410" stroke="none" font-style="italic" font-size="313.3333" font-family="sans-serif">S</text><text y="-28103" xml:space="preserve" x="-19081" stroke="none" font-style="italic" font-size="313.3333" font-family="sans-serif">R</text><text y="-27762" xml:space="preserve" x="-17827" stroke="none" font-style="italic" font-size="313.3333" font-family="sans-serif">S</text><text y="-26881" xml:space="preserve" x="-19921" stroke="none" font-style="italic" font-size="313.3333" font-family="sans-serif">S</text><text y="-29091" xml:space="preserve" x="-19081" stroke="none" font-style="italic" font-size="313.3333" font-family="sans-serif">S</text><text y="-28172" xml:space="preserve" x="-17102" stroke="none" font-style="italic" font-size="313.3333" font-family="sans-serif">R</text><text y="-27461" xml:space="preserve" x="-21218" stroke="none" font-style="italic" font-size="313.3333" font-family="sans-serif">S</text><text y="-29432" xml:space="preserve" x="-17827" stroke="none" font-style="italic" font-size="313.3333" font-family="sans-serif">S</text><text y="-29900" xml:space="preserve" x="-20366" stroke="none" font-style="italic" font-size="313.3333" font-family="sans-serif">R</text><text y="-28186" xml:space="preserve" x="-22510" stroke="none" font-style="italic" font-size="313.3333" font-family="sans-serif">S</text></g></g></svg>