<svg width="405.06" viewBox="0 0 13502 10237" text-rendering="auto" stroke-width="1" stroke-opacity="1" stroke-miterlimit="10" stroke-linejoin="miter" stroke-linecap="square" stroke-dashoffset="0" stroke-dasharray="none" stroke="black" shape-rendering="auto" image-rendering="auto" height="307.11" font-weight="normal" font-style="normal" font-size="12" font-family="'Dialog'" fill-opacity="1" fill="black" color-rendering="auto" color-interpolation="auto" xmlns="http://www.w3.org/2000/svg"><g><g stroke="white" fill="white"><rect y="0" x="0" width="13502" stroke="none" height="10237"/></g><g transform="translate(32866,32866)" text-rendering="geometricPrecision" stroke-width="44" stroke-linejoin="round" stroke-linecap="round"><line y2="-24922" y1="-27536" x2="-31855" x1="-30362" fill="none"/><line y2="-26664" y1="-27536" x2="-28868" x1="-30362" fill="none"/><line y2="-24922" y1="-24052" x2="-31855" x1="-30362" fill="none"/><line y2="-27536" y1="-26664" x2="-27375" x1="-28868" fill="none"/><line y2="-24052" y1="-24922" x2="-30362" x1="-28868" fill="none"/><line y2="-26774" y1="-27536" x2="-26069" x1="-27375" fill="none"/><line y2="-24922" y1="-24052" x2="-28868" x1="-27375" fill="none"/><line y2="-27536" y1="-26884" x2="-24388" x1="-25506" fill="none"/><line y2="-24052" y1="-24922" x2="-27375" x1="-25881" fill="none"/><line y2="-26664" y1="-27536" x2="-22897" x1="-24388" fill="none"/><line y2="-24922" y1="-24052" x2="-25881" x1="-24388" fill="none"/><line y2="-27161" y1="-26664" x2="-21213" x1="-22897" fill="none"/><line y2="-24052" y1="-24922" x2="-24388" x1="-22897" fill="none"/><line y2="-25731" y1="-27161" x2="-20282" x1="-21213" fill="none"/><line y2="-24922" y1="-24364" x2="-22897" x1="-21276" fill="none"/><line y2="-24364" y1="-25731" x2="-21276" x1="-20282" fill="none"/><line y2="-25003" y1="-25731" x2="-19528" x1="-20282" fill="none"/><line y2="-26390" y1="-25731" x2="-19468" x1="-20282" fill="none"/><line y2="-24399" y1="-24922" x2="-32762" x1="-31855" fill="none"/><line y2="-28363" y1="-27536" x2="-24460" x1="-24460" fill="none"/><line y2="-28363" y1="-27536" x2="-24318" x1="-24318" fill="none"/><line y2="-23602" y1="-24385" x2="-20970" x1="-21210" fill="none"/><line y2="-23558" y1="-24341" x2="-21106" x1="-21346" fill="none"/><line y2="-29108" y1="-28582" x2="-28282" x1="-27375" fill="none"/><line y2="-28920" y1="-28527" x2="-28238" x1="-27560" fill="none"/><line y2="-29108" y1="-28582" x2="-26468" x1="-27375" fill="none"/><line y2="-30154" y1="-29108" x2="-28282" x1="-28282" fill="none"/><line y2="-30154" y1="-30711" x2="-28282" x1="-27528" fill="none"/><line y2="-30850" y1="-30154" x2="-29183" x1="-28282" fill="none"/><line y2="-30899" y1="-30376" x2="-28966" x1="-28290" fill="none"/><line y2="-31070" y1="-31913" x2="-27406" x1="-27669" fill="none"/><line y2="-31124" y1="-31760" x2="-27603" x1="-27799" fill="none"/><line y2="-31694" y1="-30850" x2="-28891" x1="-29183" fill="none"/><line y2="-31913" y1="-31913" x2="-27669" x1="-28626" fill="none"/><line y2="-32762" y1="-31913" x2="-27051" x1="-27669" fill="none"/><polygon stroke-width="1" stroke="none" points=" -31633 -26713 -30362 -27536 -31702 -26834"/><polygon stroke-width="1" points=" -31633 -26713 -30362 -27536 -31702 -26834" fill="none"/><polygon stroke-width="1" stroke="none" points=" -31855 -24922 -31925 -26444 -31786 -26444"/><polygon stroke-width="1" points=" -31855 -24922 -31925 -26444 -31786 -26444" fill="none"/><polygon stroke-width="1" stroke="none" points=" -27375 -27536 -27444 -28582 -27305 -28582"/><polygon stroke-width="1" points=" -27375 -27536 -27444 -28582 -27305 -28582" fill="none"/><polygon stroke-width="1" stroke="none" points=" -22897 -24922 -23056 -25962 -22917 -25974"/><polygon stroke-width="1" points=" -22897 -24922 -23056 -25962 -22917 -25974" fill="none"/><polygon stroke-width="1" stroke="none" points=" -24388 -24052 -24318 -23223 -24457 -23223"/><polygon stroke-width="1" points=" -24388 -24052 -24318 -23223 -24457 -23223" fill="none"/><line y2="-25844" y1="-25844" x2="-25812" x1="-25950" fill="none"/><line y2="-25627" y1="-25627" x2="-25828" x1="-25934" fill="none"/><line y2="-25411" y1="-25411" x2="-25844" x1="-25918" fill="none"/><line y2="-25194" y1="-25194" x2="-25861" x1="-25901" fill="none"/><line y2="-24977" y1="-24977" x2="-25877" x1="-25885" fill="none"/><line y2="-27903" y1="-27950" x2="-20869" x1="-20999" fill="none"/><line y2="-27706" y1="-27740" x2="-20960" x1="-21056" fill="none"/><line y2="-27508" y1="-27530" x2="-21052" x1="-21113" fill="none"/><line y2="-27311" y1="-27321" x2="-21143" x1="-21170" fill="none"/><text y="-28403" xml:space="preserve" x="-24541" stroke="none" font-size="433.3333" font-family="sans-serif">O</text><text y="-22825" xml:space="preserve" x="-24541" stroke="none" font-size="433.3333" font-family="sans-serif">OH</text><text y="-27967" xml:space="preserve" x="-21008" stroke="none" font-size="433.3333" font-family="sans-serif">OH</text><text y="-23183" xml:space="preserve" x="-21123" stroke="none" font-size="433.3333" font-family="sans-serif">O</text><text y="-26485" xml:space="preserve" x="-32008" stroke="none" font-size="433.3333" font-family="sans-serif">O</text><text y="-26485" xml:space="preserve" x="-26034" stroke="none" font-size="433.3333" font-family="sans-serif">NH</text><text y="-30671" xml:space="preserve" x="-27493" stroke="none" font-size="433.3333" font-family="sans-serif">N</text><text y="-31734" xml:space="preserve" x="-28966" stroke="none" font-size="433.3333" font-family="sans-serif">S</text><text y="-29053" xml:space="preserve" x="-27759" stroke="none" font-style="italic" font-size="313.3333" font-family="sans-serif">E</text><text y="-27658" xml:space="preserve" x="-30512" stroke="none" font-style="italic" font-size="313.3333" font-family="sans-serif">S</text><text y="-24442" xml:space="preserve" x="-32008" stroke="none" font-style="italic" font-size="313.3333" font-family="sans-serif">R</text><text y="-27054" xml:space="preserve" x="-27528" stroke="none" font-style="italic" font-size="313.3333" font-family="sans-serif">S</text><text y="-24442" xml:space="preserve" x="-26034" stroke="none" font-style="italic" font-size="313.3333" font-family="sans-serif">S</text><text y="-24177" xml:space="preserve" x="-24541" stroke="none" font-style="italic" font-size="313.3333" font-family="sans-serif">S</text><text y="-26713" xml:space="preserve" x="-21464" stroke="none" font-style="italic" font-size="313.3333" font-family="sans-serif">S</text><text y="-24442" xml:space="preserve" x="-23041" stroke="none" font-style="italic" font-size="313.3333" font-family="sans-serif">R</text></g></g></svg>