<svg width="204.57" viewBox="0 0 6819 3645" text-rendering="auto" stroke-width="1" stroke-opacity="1" stroke-miterlimit="10" stroke-linejoin="miter" stroke-linecap="square" stroke-dashoffset="0" stroke-dasharray="none" stroke="black" shape-rendering="auto" image-rendering="auto" height="109.35" font-weight="normal" font-style="normal" font-size="12" font-family="'Dialog'" fill-opacity="1" fill="black" color-rendering="auto" color-interpolation="auto" xmlns="http://www.w3.org/2000/svg"><g><g stroke="white" fill="white"><rect y="0" x="0" width="6819" stroke="none" height="3645"/></g><g transform="translate(32866,32866)" text-rendering="geometricPrecision" stroke-width="44" stroke-linejoin="round" stroke-linecap="round"><line y2="-31257" y1="-31824" x2="-29735" x1="-30717" fill="none"/><line y2="-31179" y1="-31607" x2="-29943" x1="-30680" fill="none"/><line y2="-30119" y1="-31257" x2="-29735" x1="-29735" fill="none"/><line y2="-31824" y1="-31257" x2="-30717" x1="-31705" fill="none"/><line y2="-29550" y1="-30119" x2="-30717" x1="-29735" fill="none"/><line y2="-29767" y1="-30194" x2="-30680" x1="-29943" fill="none"/><line y2="-31257" y1="-30119" x2="-31705" x1="-31705" fill="none"/><line y2="-31113" y1="-30261" x2="-31535" x1="-31535" fill="none"/><line y2="-30119" y1="-29550" x2="-31705" x1="-30717" fill="none"/><line y2="-31670" y1="-31257" x2="-32424" x1="-31705" fill="none"/><line y2="-29703" y1="-30119" x2="-32424" x1="-31705" fill="none"/><line y2="-31780" y1="-31780" x2="-28828" x1="-27681" fill="none"/><line y2="-32762" y1="-31780" x2="-28253" x1="-28828" fill="none"/><line y2="-31780" y1="-32762" x2="-27681" x1="-28253" fill="none"/><polygon stroke-width="1" stroke="none" points=" -27681 -31780 -26927 -31425 -26993 -31304"/><polygon stroke-width="1" points=" -27681 -31780 -26927 -31425 -26993 -31304" fill="none"/><line y2="-31315" y1="-31197" x2="-29767" x1="-29700" fill="none"/><line y2="-31411" y1="-31318" x2="-29573" x1="-29519" fill="none"/><line y2="-31508" y1="-31438" x2="-29378" x1="-29339" fill="none"/><line y2="-31604" y1="-31559" x2="-29184" x1="-29158" fill="none"/><line y2="-31700" y1="-31680" x2="-28989" x1="-28978" fill="none"/><text y="-31078" xml:space="preserve" x="-26927" stroke="none" font-size="433.3333" font-family="sans-serif">NH</text><text y="-30989" xml:space="preserve" x="-26349" stroke="none" font-size="313.3333" font-family="sans-serif">2</text><text y="-31601" xml:space="preserve" x="-32762" stroke="none" font-size="433.3333" font-family="sans-serif">F</text><text y="-29417" xml:space="preserve" x="-32762" stroke="none" font-size="433.3333" font-family="sans-serif">F</text><text y="-31324" xml:space="preserve" x="-28906" stroke="none" font-style="italic" font-size="313.3333" font-family="sans-serif">S</text><text y="-31324" xml:space="preserve" x="-27906" stroke="none" font-style="italic" font-size="313.3333" font-family="sans-serif">R</text></g></g></svg>