<svg width="200.88" viewBox="0 0 6696 4451" text-rendering="auto" stroke-width="1" stroke-opacity="1" stroke-miterlimit="10" stroke-linejoin="miter" stroke-linecap="square" stroke-dashoffset="0" stroke-dasharray="none" stroke="black" shape-rendering="auto" image-rendering="auto" height="133.53" font-weight="normal" font-style="normal" font-size="12" font-family="'Dialog'" fill-opacity="1" fill="black" color-rendering="auto" color-interpolation="auto" xmlns="http://www.w3.org/2000/svg"><g><g stroke="white" fill="white"><rect y="0" x="0" width="6696" stroke="none" height="4451"/></g><g transform="translate(32866,32866)" text-rendering="geometricPrecision" stroke-width="44" stroke-linejoin="round" stroke-linecap="round"><line y2="-29377" y1="-30313" x2="-29550" x1="-29226" fill="none"/><line y2="-30680" y1="-31145" x2="-29339" x1="-29940" fill="none"/><line y2="-29377" y1="-29377" x2="-30798" x1="-29550" fill="none"/><line y2="-29547" y1="-29547" x2="-30642" x1="-29706" fill="none"/><line y2="-31150" y1="-30532" x2="-30316" x1="-31153" fill="none"/><line y2="-30937" y1="-30472" x2="-30321" x1="-30945" fill="none"/><line y2="-30532" y1="-29377" x2="-31153" x1="-30798" fill="none"/><line y2="-31055" y1="-30642" x2="-28244" x1="-28964" fill="none"/><line y2="-28854" y1="-29377" x2="-31705" x1="-30798" fill="none"/><line y2="-29267" y1="-28854" x2="-32424" x1="-31705" fill="none"/><line y2="-29096" y1="-28784" x2="-32404" x1="-31864" fill="none"/><line y2="-28519" y1="-29377" x2="-28949" x1="-29550" fill="none"/><line y2="-30856" y1="-30532" x2="-32150" x1="-31153" fill="none"/><line y2="-32193" y1="-31055" x2="-28244" x1="-28244" fill="none"/><line y2="-32052" y1="-31200" x2="-28074" x1="-28074" fill="none"/><line y2="-31055" y1="-30489" x2="-28244" x1="-27259" fill="none"/><line y2="-32762" y1="-32193" x2="-27259" x1="-28244" fill="none"/><line y2="-30489" y1="-31055" x2="-27259" x1="-26274" fill="none"/><line y2="-30706" y1="-31133" x2="-27222" x1="-26482" fill="none"/><line y2="-32193" y1="-32762" x2="-26274" x1="-27259" fill="none"/><line y2="-32118" y1="-32546" x2="-26482" x1="-27222" fill="none"/><line y2="-31055" y1="-32193" x2="-26274" x1="-26274" fill="none"/><text y="-29198" xml:space="preserve" x="-32762" stroke="none" font-size="433.3333" font-family="sans-serif">O</text><text y="-30353" xml:space="preserve" x="-29304" stroke="none" font-size="433.3333" font-family="sans-serif">N</text><text y="-31110" xml:space="preserve" x="-30281" stroke="none" font-size="433.3333" font-family="sans-serif">N</text></g></g></svg>