<svg width="157.29" viewBox="0 0 5243 4665" text-rendering="auto" stroke-width="1" stroke-opacity="1" stroke-miterlimit="10" stroke-linejoin="miter" stroke-linecap="square" stroke-dashoffset="0" stroke-dasharray="none" stroke="black" shape-rendering="auto" image-rendering="auto" height="139.95" font-weight="normal" font-style="normal" font-size="12" font-family="'Dialog'" fill-opacity="1" fill="black" color-rendering="auto" color-interpolation="auto" xmlns="http://www.w3.org/2000/svg"><g><g stroke="white" fill="white"><rect y="0" x="0" width="5243" stroke="none" height="4665"/></g><g transform="translate(32866,32866)" text-rendering="geometricPrecision" stroke-width="44" stroke-linejoin="round" stroke-linecap="round"><line y2="-31145" y1="-30009" x2="-30798" x1="-30798" fill="none"/><line y2="-30009" y1="-29440" x2="-30798" x1="-29810" fill="none"/><line y2="-30084" y1="-29660" x2="-30587" x1="-29848" fill="none"/><line y2="-31714" y1="-31145" x2="-29810" x1="-30798" fill="none"/><line y2="-31497" y1="-31070" x2="-29848" x1="-30587" fill="none"/><line y2="-29440" y1="-30009" x2="-29810" x1="-28828" fill="none"/><line y2="-31254" y1="-31714" x2="-29016" x1="-29810" fill="none"/><line y2="-30009" y1="-30928" x2="-28828" x1="-28828" fill="none"/><line y2="-30122" y1="-30812" x2="-28995" x1="-28995" fill="none"/><line y2="-29484" y1="-30009" x2="-31705" x1="-30798" fill="none"/><line y2="-32762" y1="-31714" x2="-29810" x1="-29810" fill="none"/><line y2="-29680" y1="-30009" x2="-28259" x1="-28828" fill="none"/><line y2="-29900" y1="-29484" x2="-32422" x1="-31705" fill="none"/><line y2="-28796" y1="-29484" x2="-32101" x1="-31705" fill="none"/><line y2="-28796" y1="-29484" x2="-31306" x1="-31705" fill="none"/><text y="-29830" xml:space="preserve" x="-32762" stroke="none" font-size="433.3333" font-family="sans-serif">F</text><text y="-28397" xml:space="preserve" x="-32381" stroke="none" font-size="433.3333" font-family="sans-serif">F</text><text y="-28397" xml:space="preserve" x="-31332" stroke="none" font-size="433.3333" font-family="sans-serif">F</text><text y="-29304" xml:space="preserve" x="-28152" stroke="none" font-size="433.3333" font-family="sans-serif">Cl</text><text y="-30966" xml:space="preserve" x="-28978" stroke="none" font-size="433.3333" font-family="sans-serif">N</text></g></g></svg>