<svg width="445.89" viewBox="0 0 14863 6371" text-rendering="auto" stroke-width="1" stroke-opacity="1" stroke-miterlimit="10" stroke-linejoin="miter" stroke-linecap="square" stroke-dashoffset="0" stroke-dasharray="none" stroke="black" shape-rendering="auto" image-rendering="auto" height="191.13" font-weight="normal" font-style="normal" font-size="12" font-family="'Dialog'" fill-opacity="1" fill="black" color-rendering="auto" color-interpolation="auto" xmlns="http://www.w3.org/2000/svg"><g><g stroke="white" fill="white"><rect y="0" x="0" width="14863" stroke="none" height="6371"/></g><g transform="translate(32866,32758)" text-rendering="geometricPrecision" stroke-width="44" stroke-linejoin="round" stroke-linecap="round"><line y2="-29330" y1="-29900" x2="-25870" x1="-26855" fill="none"/><line y2="-29255" y1="-29680" x2="-26078" x1="-26817" fill="none"/><line y2="-28192" y1="-29330" x2="-25870" x1="-25870" fill="none"/><line y2="-29900" y1="-29330" x2="-26855" x1="-27840" fill="none"/><line y2="-27623" y1="-28192" x2="-26855" x1="-25870" fill="none"/><line y2="-27843" y1="-28270" x2="-26817" x1="-26078" fill="none"/><line y2="-29330" y1="-28192" x2="-27840" x1="-27840" fill="none"/><line y2="-29189" y1="-28337" x2="-27669" x1="-27669" fill="none"/><line y2="-28192" y1="-27623" x2="-27840" x1="-26855" fill="none"/><line y2="-29853" y1="-29330" x2="-24962" x1="-25870" fill="none"/><line y2="-27776" y1="-28192" x2="-28559" x1="-27840" fill="none"/><line y2="-30992" y1="-29853" x2="-24962" x1="-24962" fill="none"/><line y2="-30850" y1="-29998" x2="-24792" x1="-24792" fill="none"/><line y2="-29853" y1="-29284" x2="-24962" x1="-23977" fill="none"/><line y2="-31561" y1="-30992" x2="-23977" x1="-24962" fill="none"/><line y2="-29284" y1="-29853" x2="-23977" x1="-22992" fill="none"/><line y2="-29504" y1="-29931" x2="-23940" x1="-23200" fill="none"/><line y2="-30992" y1="-31561" x2="-22992" x1="-23977" fill="none"/><line y2="-30916" y1="-31344" x2="-23200" x1="-23940" fill="none"/><line y2="-29853" y1="-30992" x2="-22992" x1="-22992" fill="none"/><line y2="-31408" y1="-30992" x2="-22273" x1="-22992" fill="none"/><line y2="-28192" y1="-27776" x2="-29654" x1="-28935" fill="none"/><line y2="-26947" y1="-27415" x2="-29082" x1="-28813" fill="none"/><line y2="-27016" y1="-27484" x2="-29206" x1="-28935" fill="none"/><line y2="-27016" y1="-27484" x2="-28290" x1="-28559" fill="none"/><line y2="-26947" y1="-27415" x2="-28412" x1="-28683" fill="none"/><line y2="-30992" y1="-31408" x2="-21178" x1="-21897" fill="none"/><line y2="-32240" y1="-31769" x2="-21750" x1="-22022" fill="none"/><line y2="-32167" y1="-31699" x2="-21629" x1="-21897" fill="none"/><line y2="-32167" y1="-31699" x2="-22544" x1="-22273" fill="none"/><line y2="-32240" y1="-31769" x2="-22420" x1="-22152" fill="none"/><line y2="-28192" y1="-29330" x2="-29654" x1="-29654" fill="none"/><line y2="-28337" y1="-29189" x2="-29824" x1="-29824" fill="none"/><line y2="-27623" y1="-28192" x2="-30639" x1="-29654" fill="none"/><line y2="-29330" y1="-29900" x2="-29654" x1="-30639" fill="none"/><line y2="-28192" y1="-27623" x2="-31624" x1="-30639" fill="none"/><line y2="-28270" y1="-27843" x2="-31416" x1="-30677" fill="none"/><line y2="-29900" y1="-29330" x2="-30639" x1="-31624" fill="none"/><line y2="-29680" y1="-29252" x2="-30677" x1="-31416" fill="none"/><line y2="-29330" y1="-28192" x2="-31624" x1="-31624" fill="none"/><line y2="-29657" y1="-29330" x2="-32190" x1="-31624" fill="none"/><line y2="-30992" y1="-29853" x2="-21178" x1="-21178" fill="none"/><line y2="-30850" y1="-29998" x2="-21008" x1="-21008" fill="none"/><line y2="-31561" y1="-30992" x2="-20190" x1="-21178" fill="none"/><line y2="-29853" y1="-29284" x2="-21178" x1="-20190" fill="none"/><line y2="-30992" y1="-31561" x2="-19208" x1="-20190" fill="none"/><line y2="-30916" y1="-31344" x2="-19416" x1="-20152" fill="none"/><line y2="-29284" y1="-29853" x2="-20190" x1="-19208" fill="none"/><line y2="-29504" y1="-29931" x2="-20152" x1="-19416" fill="none"/><line y2="-29853" y1="-30992" x2="-19208" x1="-19208" fill="none"/><line y2="-29527" y1="-29853" x2="-18642" x1="-19208" fill="none"/><text y="-27490" xml:space="preserve" x="-28900" stroke="none" font-size="433.3333" font-family="sans-serif">S</text><text y="-26583" xml:space="preserve" x="-29423" stroke="none" font-size="433.3333" font-family="sans-serif">O</text><text y="-26583" xml:space="preserve" x="-28377" stroke="none" font-size="433.3333" font-family="sans-serif">O</text><text y="-31335" xml:space="preserve" x="-22238" stroke="none" font-size="433.3333" font-family="sans-serif">S</text><text y="-32242" xml:space="preserve" x="-21712" stroke="none" font-size="433.3333" font-family="sans-serif">O</text><text y="-32242" xml:space="preserve" x="-22761" stroke="none" font-size="433.3333" font-family="sans-serif">O</text><text y="-29674" xml:space="preserve" x="-32762" stroke="none" font-size="433.3333" font-family="sans-serif">Cl</text><text y="-29151" xml:space="preserve" x="-18532" stroke="none" font-size="433.3333" font-family="sans-serif">Cl</text></g></g></svg>