<svg width="97.56" viewBox="0 0 3252 5605" text-rendering="auto" stroke-width="1" stroke-opacity="1" stroke-miterlimit="10" stroke-linejoin="miter" stroke-linecap="square" stroke-dashoffset="0" stroke-dasharray="none" stroke="black" shape-rendering="auto" image-rendering="auto" height="168.15" font-weight="normal" font-style="normal" font-size="12" font-family="'Dialog'" fill-opacity="1" fill="black" color-rendering="auto" color-interpolation="auto" xmlns="http://www.w3.org/2000/svg"><g><g stroke="white" fill="white"><rect y="0" x="0" width="3252" stroke="none" height="5605"/></g><g transform="translate(32866,32758)" text-rendering="geometricPrecision" stroke-width="44" stroke-linejoin="round" stroke-linecap="round"><line y2="-29668" y1="-29099" x2="-31855" x1="-30870" fill="none"/><line y2="-29099" y1="-29668" x2="-30870" x1="-29885" fill="none"/><line y2="-29319" y1="-29744" x2="-30833" x1="-30093" fill="none"/><line y2="-30807" y1="-29668" x2="-31855" x1="-31855" fill="none"/><line y2="-30665" y1="-29810" x2="-31685" x1="-31685" fill="none"/><line y2="-29668" y1="-30587" x2="-29885" x1="-29885" fill="none"/><line y2="-31376" y1="-30807" x2="-30870" x1="-31855" fill="none"/><line y2="-30914" y1="-31376" x2="-30073" x1="-30870" fill="none"/><line y2="-30824" y1="-31171" x2="-30258" x1="-30856" fill="none"/><line y2="-31330" y1="-30807" x2="-32762" x1="-31855" fill="none"/><line y2="-28273" y1="-29099" x2="-30870" x1="-30870" fill="none"/><line y2="-32202" y1="-31376" x2="-30870" x1="-30870" fill="none"/><line y2="-27577" y1="-27883" x2="-31552" x1="-31023" fill="none"/><line y2="-27698" y1="-28004" x2="-31624" x1="-31093" fill="none"/><line y2="-27698" y1="-28004" x2="-30116" x1="-30645" fill="none"/><line y2="-27577" y1="-27883" x2="-30186" x1="-30717" fill="none"/><text y="-27874" xml:space="preserve" x="-31020" stroke="none" font-size="433.3333" font-family="sans-serif">N</text><text y="-27349" xml:space="preserve" x="-31928" stroke="none" font-size="433.3333" font-family="sans-serif">O</text><text y="-27349" xml:space="preserve" x="-30113" stroke="none" font-size="433.3333" font-family="sans-serif">O</text><text y="-32242" xml:space="preserve" x="-31101" stroke="none" font-size="433.3333" font-family="sans-serif">Cl</text><text y="-30628" xml:space="preserve" x="-30038" stroke="none" font-size="433.3333" font-family="sans-serif">N</text></g></g></svg>