<svg width="318.84" viewBox="0 0 10628 13851" text-rendering="auto" stroke-width="1" stroke-opacity="1" stroke-miterlimit="10" stroke-linejoin="miter" stroke-linecap="square" stroke-dashoffset="0" stroke-dasharray="none" stroke="black" shape-rendering="auto" image-rendering="auto" height="415.53" font-weight="normal" font-style="normal" font-size="12" font-family="'Dialog'" fill-opacity="1" fill="black" color-rendering="auto" color-interpolation="auto" xmlns="http://www.w3.org/2000/svg"><g><g stroke="white" fill="white"><rect y="0" x="0" width="10628" stroke="none" height="13851"/></g><g transform="translate(32866,32866)" text-rendering="geometricPrecision" stroke-width="44" stroke-linejoin="round" stroke-linecap="round"><line y2="-28464" y1="-25035" x2="-31985" x1="-29798" fill="none"/><line y2="-27551" y1="-25035" x2="-28796" x1="-29590" fill="none"/><line y2="-27551" y1="-25035" x2="-30483" x1="-29726" fill="none"/><line y2="-21213" y1="-24596" x2="-27346" x1="-29518" fill="none"/><line y2="-24596" y1="-21213" x2="-29804" x1="-32034" fill="none"/><line y2="-22126" y1="-24596" x2="-30538" x1="-29732" fill="none"/><line y2="-22126" y1="-24596" x2="-28851" x1="-29593" fill="none"/><line y2="-22045" y1="-24596" x2="-29689" x1="-29663" fill="none"/><line y2="-19609" y1="-21597" x2="-29715" x1="-29694" fill="none"/><line y2="-28805" y1="-30119" x2="-27340" x1="-29403" fill="none"/><line y2="-27880" y1="-28574" x2="-28539" x1="-27340" fill="none"/><line y2="-28114" y1="-28634" x2="-28475" x1="-27577" fill="none"/><line y2="-30162" y1="-28903" x2="-29848" x1="-31786" fill="none"/><line y2="-28464" y1="-27880" x2="-31746" x1="-30737" fill="none"/><line y2="-28539" y1="-28100" x2="-31535" x1="-30781" fill="none"/><line y2="-27770" y1="-27770" x2="-30362" x1="-28917" fill="none"/><line y2="-21686" y1="-21103" x2="-28406" x1="-27395" fill="none"/><line y2="-19609" y1="-20872" x2="-29371" x1="-27395" fill="none"/><line y2="-21796" y1="-21213" x2="-30798" x1="-31803" fill="none"/><line y2="-20774" y1="-19514" x2="-31844" x1="-29902" fill="none"/><line y2="-20759" y1="-19812" x2="-31506" x1="-30053" fill="none"/><line y2="-21906" y1="-21906" x2="-28972" x1="-30116" fill="none"/><line y2="-21736" y1="-21736" x2="-29117" x1="-29972" fill="none"/><line y2="-28903" y1="-28724" x2="-26127" x1="-26964" fill="none"/><line y2="-31113" y1="-30503" x2="-29660" x1="-29660" fill="none"/><line y2="-29316" y1="-28903" x2="-25407" x1="-26127" fill="none"/><line y2="-31855" y1="-31439" x2="-30567" x1="-29848" fill="none"/><line y2="-31855" y1="-31439" x2="-28753" x1="-29472" fill="none"/><line y2="-28903" y1="-29316" x2="-24312" x1="-25032" fill="none"/><line y2="-30474" y1="-29645" x2="-25220" x1="-25220" fill="none"/><line y2="-31332" y1="-31855" x2="-31474" x1="-30567" fill="none"/><line y2="-32762" y1="-31855" x2="-31090" x1="-30567" fill="none"/><line y2="-32762" y1="-31855" x2="-30044" x1="-30567" fill="none"/><line y2="-31332" y1="-31855" x2="-27846" x1="-28753" fill="none"/><line y2="-32762" y1="-31855" x2="-28230" x1="-28753" fill="none"/><line y2="-32762" y1="-31855" x2="-29276" x1="-28753" fill="none"/><line y2="-28903" y1="-27765" x2="-24312" x1="-24312" fill="none"/><line y2="-28758" y1="-27906" x2="-24142" x1="-24142" fill="none"/><line y2="-29469" y1="-28903" x2="-23327" x1="-24312" fill="none"/><line y2="-27765" y1="-27196" x2="-24312" x1="-23327" fill="none"/><line y2="-28903" y1="-29469" x2="-22342" x1="-23327" fill="none"/><line y2="-28825" y1="-29252" x2="-22550" x1="-23290" fill="none"/><line y2="-27196" y1="-27765" x2="-23327" x1="-22342" fill="none"/><line y2="-27412" y1="-27840" x2="-23290" x1="-22550" fill="none"/><line y2="-27765" y1="-28903" x2="-22342" x1="-22342" fill="none"/><line y2="-31044" y1="-30474" x2="-26208" x1="-25220" fill="none"/><line y2="-31119" y1="-30691" x2="-26000" x1="-25260" fill="none"/><line y2="-30474" y1="-31044" x2="-25220" x1="-24237" fill="none"/><line y2="-32179" y1="-31044" x2="-26208" x1="-26208" fill="none"/><line y2="-31044" y1="-32179" x2="-24237" x1="-24237" fill="none"/><line y2="-31185" y1="-32037" x2="-24408" x1="-24408" fill="none"/><line y2="-32748" y1="-32179" x2="-25220" x1="-26208" fill="none"/><line y2="-32528" y1="-32104" x2="-25260" x1="-26000" fill="none"/><line y2="-32179" y1="-32748" x2="-24237" x1="-25220" fill="none"/><polygon stroke-width="1" stroke="none" points=" -30492 -27990 -30405 -28582 -30272 -28548"/><polygon stroke-width="1" points=" -30492 -27990 -30405 -28582 -30272 -28548" fill="none"/><polygon stroke-width="1" stroke="none" points=" -28787 -27990 -29007 -28548 -28874 -28582"/><polygon stroke-width="1" points=" -28787 -27990 -29007 -28548 -28874 -28582" fill="none"/><polygon stroke-width="1" stroke="none" points=" -26127 -28903 -26057 -27854 -26196 -27854"/><polygon stroke-width="1" points=" -26127 -28903 -26057 -27854 -26196 -27854" fill="none"/><line y2="-25069" y1="-24997" x2="-29576" x1="-29458" fill="none"/><line y2="-25249" y1="-25181" x2="-29455" x1="-29343" fill="none"/><line y2="-25429" y1="-25364" x2="-29334" x1="-29229" fill="none"/><line y2="-25609" y1="-25548" x2="-29213" x1="-29114" fill="none"/><line y2="-25789" y1="-25732" x2="-29092" x1="-28999" fill="none"/><line y2="-25969" y1="-25916" x2="-28971" x1="-28885" fill="none"/><line y2="-26149" y1="-26099" x2="-28850" x1="-28770" fill="none"/><line y2="-26328" y1="-26283" x2="-28729" x1="-28655" fill="none"/><line y2="-26508" y1="-26467" x2="-28608" x1="-28541" fill="none"/><line y2="-26688" y1="-26651" x2="-28488" x1="-28426" fill="none"/><line y2="-26868" y1="-26834" x2="-28367" x1="-28311" fill="none"/><line y2="-27048" y1="-27018" x2="-28246" x1="-28196" fill="none"/><line y2="-27228" y1="-27202" x2="-28125" x1="-28082" fill="none"/><line y2="-27408" y1="-27386" x2="-28004" x1="-27967" fill="none"/><line y2="-27588" y1="-27569" x2="-27883" x1="-27852" fill="none"/><line y2="-27768" y1="-27753" x2="-27762" x1="-27738" fill="none"/><line y2="-27948" y1="-27937" x2="-27641" x1="-27623" fill="none"/><line y2="-28128" y1="-28121" x2="-27520" x1="-27508" fill="none"/><line y2="-28308" y1="-28304" x2="-27399" x1="-27394" fill="none"/><line y2="-25032" y1="-25035" x2="-29729" x1="-29590" fill="none"/><line y2="-25249" y1="-25252" x2="-29726" x1="-29593" fill="none"/><line y2="-25465" y1="-25468" x2="-29723" x1="-29596" fill="none"/><line y2="-25682" y1="-25685" x2="-29720" x1="-29599" fill="none"/><line y2="-25899" y1="-25901" x2="-29717" x1="-29602" fill="none"/><line y2="-26116" y1="-26118" x2="-29714" x1="-29605" fill="none"/><line y2="-26332" y1="-26335" x2="-29711" x1="-29608" fill="none"/><line y2="-26549" y1="-26551" x2="-29708" x1="-29611" fill="none"/><line y2="-26766" y1="-26768" x2="-29705" x1="-29614" fill="none"/><line y2="-26983" y1="-26984" x2="-29702" x1="-29617" fill="none"/><line y2="-27199" y1="-27201" x2="-29699" x1="-29620" fill="none"/><line y2="-27416" y1="-27418" x2="-29696" x1="-29623" fill="none"/><line y2="-27633" y1="-27634" x2="-29693" x1="-29626" fill="none"/><line y2="-27850" y1="-27851" x2="-29690" x1="-29629" fill="none"/><line y2="-28066" y1="-28067" x2="-29687" x1="-29632" fill="none"/><line y2="-28283" y1="-28284" x2="-29684" x1="-29635" fill="none"/><line y2="-28500" y1="-28501" x2="-29681" x1="-29638" fill="none"/><line y2="-28716" y1="-28717" x2="-29678" x1="-29641" fill="none"/><line y2="-28933" y1="-28934" x2="-29676" x1="-29644" fill="none"/><line y2="-29150" y1="-29150" x2="-29673" x1="-29647" fill="none"/><line y2="-29367" y1="-29367" x2="-29670" x1="-29650" fill="none"/><line y2="-29583" y1="-29584" x2="-29667" x1="-29653" fill="none"/><line y2="-29800" y1="-29800" x2="-29664" x1="-29656" fill="none"/><line y2="-30017" y1="-30017" x2="-29661" x1="-29659" fill="none"/><text y="-29247" xml:space="preserve" x="-25373" stroke="none" font-size="433.3333" font-family="sans-serif">P</text><text y="-31153" xml:space="preserve" x="-29813" stroke="none" font-size="433.3333" font-family="sans-serif">P</text><text y="-24636" xml:space="preserve" x="-29963" stroke="none" font-size="433.3333" font-family="sans-serif">Fe</text><text y="-28504" xml:space="preserve" x="-27305" stroke="none" font-size="433.3333" font-family="sans-serif">C</text><text y="-30105" xml:space="preserve" x="-29813" stroke="none" font-size="433.3333" font-family="sans-serif">C</text><text y="-28504" xml:space="preserve" x="-32277" stroke="none" font-size="433.3333" font-family="sans-serif">CH</text><text y="-27591" xml:space="preserve" x="-28880" stroke="none" font-size="433.3333" font-family="sans-serif">C</text><text y="-27591" xml:space="preserve" x="-30703" stroke="none" font-size="433.3333" font-family="sans-serif">C</text><text y="-20814" xml:space="preserve" x="-27357" stroke="none" font-size="433.3333" font-family="sans-serif">CH</text><text y="-20814" xml:space="preserve" x="-32332" stroke="none" font-size="433.3333" font-family="sans-serif">CH</text><text y="-21727" xml:space="preserve" x="-30760" stroke="none" font-size="433.3333" font-family="sans-serif">CH</text><text y="-21727" xml:space="preserve" x="-28938" stroke="none" font-size="433.3333" font-family="sans-serif">CH</text><text y="-19211" xml:space="preserve" x="-29868" stroke="none" font-size="433.3333" font-family="sans-serif">CH</text><text y="-28605" xml:space="preserve" x="-30431" stroke="none" font-size="433.3333" font-family="sans-serif">H</text><text y="-28605" xml:space="preserve" x="-29151" stroke="none" font-size="433.3333" font-family="sans-serif">H</text><text y="-24691" xml:space="preserve" x="-29336" stroke="none" font-size="313.3333" font-family="sans-serif">2+</text><text y="-30160" xml:space="preserve" x="-29489" stroke="none" font-size="313.3333" font-family="sans-serif">-</text><text y="-20869" xml:space="preserve" x="-26730" stroke="none" font-size="313.3333" font-family="sans-serif">-</text><text y="-28992" xml:space="preserve" x="-26378" stroke="none" font-style="italic" font-size="313.3333" font-family="sans-serif">S</text><text y="-28917" xml:space="preserve" x="-27193" stroke="none" font-style="italic" font-size="313.3333" font-family="sans-serif">R</text><text y="-30284" xml:space="preserve" x="-30200" stroke="none" font-style="italic" font-size="313.3333" font-family="sans-serif">S</text><text y="-28634" xml:space="preserve" x="-32762" stroke="none" font-style="italic" font-size="313.3333" font-family="sans-serif">S</text><text y="-27172" xml:space="preserve" x="-28501" stroke="none" font-style="italic" font-size="313.3333" font-family="sans-serif">R</text><text y="-27167" xml:space="preserve" x="-31075" stroke="none" font-style="italic" font-size="313.3333" font-family="sans-serif">S</text></g></g></svg>