<svg width="200.01" viewBox="0 0 6667 7489" text-rendering="auto" stroke-width="1" stroke-opacity="1" stroke-miterlimit="10" stroke-linejoin="miter" stroke-linecap="square" stroke-dashoffset="0" stroke-dasharray="none" stroke="black" shape-rendering="auto" image-rendering="auto" height="224.67" font-weight="normal" font-style="normal" font-size="12" font-family="'Dialog'" fill-opacity="1" fill="black" color-rendering="auto" color-interpolation="auto" xmlns="http://www.w3.org/2000/svg"><g><g stroke="white" fill="white"><rect y="0" x="0" width="6667" stroke="none" height="7489"/></g><g transform="translate(32866,32758)" text-rendering="geometricPrecision" stroke-width="44" stroke-linejoin="round" stroke-linecap="round"><line y2="-30495" y1="-31659" x2="-30994" x1="-30593" fill="none"/><line y2="-30694" y1="-31569" x2="-31107" x1="-30804" fill="none"/><line y2="-30495" y1="-30495" x2="-32063" x1="-30994" fill="none"/><line y2="-31659" y1="-32277" x2="-30593" x1="-31390" fill="none"/><line y2="-31439" y1="-30714" x2="-32543" x1="-32320" fill="none"/><line y2="-32283" y1="-31798" x2="-31766" x1="-32424" fill="none"/><line y2="-32086" y1="-31722" x2="-31746" x1="-32240" fill="none"/><line y2="-29969" y1="-30495" x2="-30087" x1="-30994" fill="none"/><line y2="-31948" y1="-31659" x2="-29585" x1="-30593" fill="none"/><line y2="-29143" y1="-29969" x2="-30087" x1="-30087" fill="none"/><line y2="-28397" y1="-28704" x2="-29180" x1="-29709" fill="none"/><line y2="-30446" y1="-30030" x2="-29406" x1="-30122" fill="none"/><line y2="-30324" y1="-29908" x2="-29333" x1="-30053" fill="none"/><line y2="-28397" y1="-27262" x2="-29180" x1="-29180" fill="none"/><line y2="-28256" y1="-27404" x2="-29010" x1="-29010" fill="none"/><line y2="-28966" y1="-28397" x2="-28195" x1="-29180" fill="none"/><line y2="-27262" y1="-26693" x2="-29180" x1="-28195" fill="none"/><line y2="-28397" y1="-28966" x2="-27210" x1="-28195" fill="none"/><line y2="-28322" y1="-28750" x2="-27418" x1="-28158" fill="none"/><line y2="-26693" y1="-27262" x2="-28195" x1="-27210" fill="none"/><line y2="-26910" y1="-27337" x2="-28158" x1="-27418" fill="none"/><line y2="-27262" y1="-28397" x2="-27210" x1="-27210" fill="none"/><line y2="-26736" y1="-27262" x2="-26303" x1="-27210" fill="none"/><line y2="-25864" y1="-26693" x2="-28195" x1="-28195" fill="none"/><text y="-28744" xml:space="preserve" x="-30240" stroke="none" font-size="433.3333" font-family="sans-serif">NH</text><text y="-30316" xml:space="preserve" x="-29333" stroke="none" font-size="433.3333" font-family="sans-serif">O</text><text y="-25465" xml:space="preserve" x="-28426" stroke="none" font-size="433.3333" font-family="sans-serif">Cl</text><text y="-30316" xml:space="preserve" x="-32404" stroke="none" font-size="433.3333" font-family="sans-serif">S</text><text y="-32242" xml:space="preserve" x="-31731" stroke="none" font-size="433.3333" font-family="sans-serif">N</text><text y="-31480" xml:space="preserve" x="-32762" stroke="none" font-size="433.3333" font-family="sans-serif">N</text></g></g></svg>