<svg width="285.72" viewBox="0 0 9524 5372" text-rendering="auto" stroke-width="1" stroke-opacity="1" stroke-miterlimit="10" stroke-linejoin="miter" stroke-linecap="square" stroke-dashoffset="0" stroke-dasharray="none" stroke="black" shape-rendering="auto" image-rendering="auto" height="161.16" font-weight="normal" font-style="normal" font-size="12" font-family="'Dialog'" fill-opacity="1" fill="black" color-rendering="auto" color-interpolation="auto" xmlns="http://www.w3.org/2000/svg"><g><g stroke="white" fill="white"><rect y="0" x="0" width="9524" stroke="none" height="5372"/></g><g transform="translate(32866,32866)" text-rendering="geometricPrecision" stroke-width="44" stroke-linejoin="round" stroke-linecap="round"><line y2="-30532" y1="-30925" x2="-26323" x1="-26993" fill="none"/><line y2="-29530" y1="-30532" x2="-26323" x1="-26323" fill="none"/><line y2="-31035" y1="-30532" x2="-27560" x1="-28418" fill="none"/><line y2="-28808" y1="-29200" x2="-27181" x1="-26511" fill="none"/><line y2="-29310" y1="-30532" x2="-28418" x1="-28418" fill="none"/><line y2="-30532" y1="-31145" x2="-28418" x1="-29466" fill="none"/><line y2="-30463" y1="-30922" x2="-28634" x1="-29423" fill="none"/><line y2="-29310" y1="-28808" x2="-28418" x1="-27560" fill="none"/><line y2="-28698" y1="-29310" x2="-29466" x1="-28418" fill="none"/><line y2="-28920" y1="-29380" x2="-29423" x1="-28634" fill="none"/><line y2="-31145" y1="-30532" x2="-29466" x1="-30515" fill="none"/><line y2="-29310" y1="-28698" x2="-30515" x1="-29466" fill="none"/><line y2="-30532" y1="-29310" x2="-30515" x1="-30515" fill="none"/><line y2="-30379" y1="-29463" x2="-30344" x1="-30344" fill="none"/><line y2="-31055" y1="-30532" x2="-25416" x1="-26323" fill="none"/><line y2="-28894" y1="-29310" x2="-31234" x1="-30515" fill="none"/><line y2="-30859" y1="-30532" x2="-31081" x1="-30515" fill="none"/><line y2="-28045" y1="-28432" x2="-27828" x1="-27502" fill="none"/><line y2="-28134" y1="-28522" x2="-27935" x1="-27609" fill="none"/><line y2="-28134" y1="-28522" x2="-26806" x1="-27132" fill="none"/><line y2="-28045" y1="-28432" x2="-26912" x1="-27239" fill="none"/><line y2="-31055" y1="-30489" x2="-25416" x1="-24428" fill="none"/><line y2="-32193" y1="-31055" x2="-25416" x1="-25416" fill="none"/><line y2="-31624" y1="-30489" x2="-24029" x1="-24428" fill="none"/><line y2="-30489" y1="-31055" x2="-24428" x1="-23446" fill="none"/><line y2="-32762" y1="-32193" x2="-24428" x1="-25416" fill="none"/><line y2="-32762" y1="-31624" x2="-24428" x1="-24029" fill="none"/><line y2="-31055" y1="-32193" x2="-23446" x1="-23446" fill="none"/><line y2="-31200" y1="-32052" x2="-23613" x1="-23613" fill="none"/><line y2="-32193" y1="-32762" x2="-23446" x1="-24428" fill="none"/><line y2="-29143" y1="-28894" x2="-32040" x1="-31610" fill="none"/><line y2="-28062" y1="-28530" x2="-31760" x1="-31488" fill="none"/><line y2="-28132" y1="-28600" x2="-31881" x1="-31610" fill="none"/><line y2="-28132" y1="-28600" x2="-30966" x1="-31237" fill="none"/><line y2="-28062" y1="-28530" x2="-31087" x1="-31358" fill="none"/><text y="-27690" xml:space="preserve" x="-28218" stroke="none" font-size="433.3333" font-family="sans-serif">O</text><text y="-27690" xml:space="preserve" x="-26826" stroke="none" font-size="433.3333" font-family="sans-serif">O</text><text y="-30876" xml:space="preserve" x="-31653" stroke="none" font-size="433.3333" font-family="sans-serif">Cl</text><text y="-28605" xml:space="preserve" x="-31575" stroke="none" font-size="433.3333" font-family="sans-serif">S</text><text y="-29293" xml:space="preserve" x="-32762" stroke="none" font-size="433.3333" font-family="sans-serif">NH</text><text y="-29203" xml:space="preserve" x="-32185" stroke="none" font-size="313.3333" font-family="sans-serif">2</text><text y="-27698" xml:space="preserve" x="-32098" stroke="none" font-size="433.3333" font-family="sans-serif">O</text><text y="-27698" xml:space="preserve" x="-31052" stroke="none" font-size="433.3333" font-family="sans-serif">O</text><text y="-30966" xml:space="preserve" x="-27522" stroke="none" font-size="433.3333" font-family="sans-serif">NH</text><text y="-29131" xml:space="preserve" x="-26476" stroke="none" font-size="433.3333" font-family="sans-serif">NH</text><text y="-28519" xml:space="preserve" x="-27522" stroke="none" font-size="433.3333" font-family="sans-serif">S</text></g></g></svg>