<svg width="196.53" viewBox="0 0 6551 3069" text-rendering="auto" stroke-width="1" stroke-opacity="1" stroke-miterlimit="10" stroke-linejoin="miter" stroke-linecap="square" stroke-dashoffset="0" stroke-dasharray="none" stroke="black" shape-rendering="auto" image-rendering="auto" height="92.07" font-weight="normal" font-style="normal" font-size="12" font-family="'Dialog'" fill-opacity="1" fill="black" color-rendering="auto" color-interpolation="auto" xmlns="http://www.w3.org/2000/svg"><g><g stroke="white" fill="white"><rect y="0" x="0" width="6551" stroke="none" height="3069"/></g><g transform="translate(32866,32758)" text-rendering="geometricPrecision" stroke-width="44" stroke-linejoin="round" stroke-linecap="round"><line y2="-31812" y1="-30587" x2="-29608" x1="-29608" fill="none"/><line y2="-29975" y1="-30587" x2="-30656" x1="-29608" fill="none"/><line y2="-30200" y1="-30659" x2="-30613" x1="-29824" fill="none"/><line y2="-30587" y1="-29975" x2="-29608" x1="-28559" fill="none"/><line y2="-32315" y1="-31812" x2="-28747" x1="-29608" fill="none"/><line y2="-31812" y1="-32422" x2="-29608" x1="-30656" fill="none"/><line y2="-31740" y1="-32199" x2="-29824" x1="-30613" fill="none"/><line y2="-30587" y1="-29975" x2="-31705" x1="-30656" fill="none"/><line y2="-29975" y1="-30587" x2="-28559" x1="-27510" fill="none"/><line y2="-30200" y1="-30659" x2="-28516" x1="-27727" fill="none"/><line y2="-31812" y1="-32202" x2="-27510" x1="-28184" fill="none"/><line y2="-32422" y1="-31812" x2="-30656" x1="-31705" fill="none"/><line y2="-31812" y1="-30587" x2="-31705" x1="-31705" fill="none"/><line y2="-31659" y1="-30740" x2="-31535" x1="-31535" fill="none"/><line y2="-30587" y1="-31812" x2="-27510" x1="-27510" fill="none"/><line y2="-30171" y1="-30587" x2="-32424" x1="-31705" fill="none"/><line y2="-32289" y1="-31873" x2="-26826" x1="-27545" fill="none"/><line y2="-32164" y1="-31751" x2="-26756" x1="-27476" fill="none"/><text y="-29885" xml:space="preserve" x="-32762" stroke="none" font-size="433.3333" font-family="sans-serif">F</text><text y="-32156" xml:space="preserve" x="-26756" stroke="none" font-size="433.3333" font-family="sans-serif">O</text><text y="-32242" xml:space="preserve" x="-28712" stroke="none" font-size="433.3333" font-family="sans-serif">NH</text></g></g></svg>