<svg width="348.81" viewBox="0 0 11627 5777" text-rendering="auto" stroke-width="1" stroke-opacity="1" stroke-miterlimit="10" stroke-linejoin="miter" stroke-linecap="square" stroke-dashoffset="0" stroke-dasharray="none" stroke="black" shape-rendering="auto" image-rendering="auto" height="173.31" font-weight="normal" font-style="normal" font-size="12" font-family="'Dialog'" fill-opacity="1" fill="black" color-rendering="auto" color-interpolation="auto" xmlns="http://www.w3.org/2000/svg"><g><g stroke="white" fill="white"><rect y="0" x="0" width="11627" stroke="none" height="5777"/></g><g transform="translate(32866,32866)" text-rendering="geometricPrecision" stroke-width="44" stroke-linejoin="round" stroke-linecap="round"><line y2="-28912" y1="-29484" x2="-23307" x1="-24289" fill="none"/><line y2="-27765" y1="-28912" x2="-23307" x1="-23307" fill="none"/><line y2="-27909" y1="-28767" x2="-23478" x1="-23478" fill="none"/><line y2="-29484" y1="-28912" x2="-22325" x1="-23307" fill="none"/><line y2="-29484" y1="-28912" x2="-24289" x1="-25272" fill="none"/><line y2="-29267" y1="-28836" x2="-24327" x1="-25064" fill="none"/><line y2="-27193" y1="-27765" x2="-24289" x1="-23307" fill="none"/><line y2="-27765" y1="-27193" x2="-23307" x1="-22325" fill="none"/><line y2="-28912" y1="-29484" x2="-21343" x1="-22325" fill="none"/><line y2="-28836" y1="-29267" x2="-21551" x1="-22287" fill="none"/><line y2="-28912" y1="-27765" x2="-25272" x1="-25272" fill="none"/><line y2="-27765" y1="-27193" x2="-25272" x1="-24289" fill="none"/><line y2="-27840" y1="-27409" x2="-25064" x1="-24327" fill="none"/><line y2="-27193" y1="-27765" x2="-22325" x1="-21343" fill="none"/><line y2="-27409" y1="-27840" x2="-22287" x1="-21551" fill="none"/><line y2="-27765" y1="-28912" x2="-21343" x1="-21343" fill="none"/><line y2="-30532" y1="-29484" x2="-24289" x1="-24289" fill="none"/><line y2="-30838" y1="-30532" x2="-24818" x1="-24289" fill="none"/><line y2="-30532" y1="-30948" x2="-26104" x1="-25384" fill="none"/><line y2="-31055" y1="-30532" x2="-27011" x1="-26104" fill="none"/><line y2="-30532" y1="-31055" x2="-27918" x1="-27011" fill="none"/><line y2="-31055" y1="-30532" x2="-28825" x1="-27918" fill="none"/><line y2="-30489" y1="-31055" x2="-29813" x1="-28825" fill="none"/><line y2="-30706" y1="-31133" x2="-29775" x1="-29036" fill="none"/><line y2="-31055" y1="-32193" x2="-28825" x1="-28825" fill="none"/><line y2="-31055" y1="-30489" x2="-30795" x1="-29813" fill="none"/><line y2="-32193" y1="-32762" x2="-28825" x1="-29813" fill="none"/><line y2="-32118" y1="-32543" x2="-29036" x1="-29775" fill="none"/><line y2="-32193" y1="-31055" x2="-30795" x1="-30795" fill="none"/><line y2="-32052" y1="-31200" x2="-30625" x1="-30625" fill="none"/><line y2="-32762" y1="-32193" x2="-29813" x1="-30795" fill="none"/><line y2="-30532" y1="-31055" x2="-31702" x1="-30795" fill="none"/><line y2="-30948" y1="-30532" x2="-32422" x1="-31702" fill="none"/><line y2="-29845" y1="-30532" x2="-32101" x1="-31702" fill="none"/><line y2="-29845" y1="-30532" x2="-31306" x1="-31702" fill="none"/><line y2="-30997" y1="-31116" x2="-23348" x1="-23417" fill="none"/><line y2="-30901" y1="-30995" x2="-23543" x1="-23597" fill="none"/><line y2="-30805" y1="-30874" x2="-23737" x1="-23778" fill="none"/><line y2="-30708" y1="-30754" x2="-23932" x1="-23958" fill="none"/><line y2="-30612" y1="-30633" x2="-24127" x1="-24139" fill="none"/><text y="-30876" xml:space="preserve" x="-25350" stroke="none" font-size="433.3333" font-family="sans-serif">NH</text><text y="-30876" xml:space="preserve" x="-32762" stroke="none" font-size="433.3333" font-family="sans-serif">F</text><text y="-29446" xml:space="preserve" x="-32378" stroke="none" font-size="433.3333" font-family="sans-serif">F</text><text y="-29446" xml:space="preserve" x="-31332" stroke="none" font-size="433.3333" font-family="sans-serif">F</text><text y="-30209" xml:space="preserve" x="-24691" stroke="none" font-style="italic" font-size="313.3333" font-family="sans-serif">R</text></g></g></svg>