<svg width="400.44" viewBox="0 0 13348 7115" text-rendering="auto" stroke-width="1" stroke-opacity="1" stroke-miterlimit="10" stroke-linejoin="miter" stroke-linecap="square" stroke-dashoffset="0" stroke-dasharray="none" stroke="black" shape-rendering="auto" image-rendering="auto" height="213.45" font-weight="normal" font-style="normal" font-size="12" font-family="'Dialog'" fill-opacity="1" fill="black" color-rendering="auto" color-interpolation="auto" xmlns="http://www.w3.org/2000/svg"><g><g stroke="white" fill="white"><rect y="0" x="0" width="13348" stroke="none" height="7115"/></g><g transform="translate(32866,32866)" text-rendering="geometricPrecision" stroke-width="44" stroke-linejoin="round" stroke-linecap="round"><line y2="-29484" y1="-29484" x2="-32433" x1="-31286" fill="none"/><line y2="-29484" y1="-30550" x2="-31286" x1="-30919" fill="none"/><line y2="-30550" y1="-29484" x2="-32762" x1="-32433" fill="none"/><line y2="-30550" y1="-31098" x2="-30919" x1="-31630" fill="none"/><line y2="-31107" y1="-30550" x2="-32008" x1="-32762" fill="none"/><line y2="-29484" y1="-29070" x2="-29472" x1="-30191" fill="none"/><line y2="-29070" y1="-29484" x2="-28753" x1="-29472" fill="none"/><line y2="-29484" y1="-29180" x2="-27658" x1="-28186" fill="none"/><line y2="-30313" y1="-29484" x2="-29541" x1="-29541" fill="none"/><line y2="-30313" y1="-29484" x2="-29403" x1="-29403" fill="none"/><line y2="-28961" y1="-29484" x2="-26751" x1="-27658" fill="none"/><line y2="-31055" y1="-30532" x2="-26751" x1="-27658" fill="none"/><line y2="-29484" y1="-28961" x2="-25844" x1="-26751" fill="none"/><line y2="-29070" y1="-29484" x2="-25124" x1="-25844" fill="none"/><line y2="-27510" y1="-27808" x2="-27482" x1="-26938" fill="none"/><line y2="-32193" y1="-31055" x2="-26751" x1="-26751" fill="none"/><line y2="-32052" y1="-31200" x2="-26580" x1="-26580" fill="none"/><line y2="-31055" y1="-30489" x2="-26751" x1="-25766" fill="none"/><line y2="-32762" y1="-32193" x2="-25766" x1="-26751" fill="none"/><line y2="-30489" y1="-31055" x2="-25766" x1="-24780" fill="none"/><line y2="-30706" y1="-31133" x2="-25728" x1="-24988" fill="none"/><line y2="-32193" y1="-32762" x2="-24780" x1="-25766" fill="none"/><line y2="-32118" y1="-32546" x2="-24988" x1="-25728" fill="none"/><line y2="-31055" y1="-32193" x2="-24780" x1="-24780" fill="none"/><line y2="-29377" y1="-29070" x2="-24217" x1="-24749" fill="none"/><line y2="-27412" y1="-28741" x2="-24936" x1="-24936" fill="none"/><line y2="-26904" y1="-27412" x2="-25855" x1="-24936" fill="none"/><line y2="-27782" y1="-27513" x2="-28322" x1="-27857" fill="none"/><line y2="-26725" y1="-27187" x2="-28077" x1="-27799" fill="none"/><line y2="-26742" y1="-27219" x2="-27222" x1="-27484" fill="none"/><line y2="-26676" y1="-27152" x2="-27343" x1="-27609" fill="none"/><line y2="-28961" y1="-29377" x2="-23122" x1="-23842" fill="none"/><line y2="-30209" y1="-29738" x2="-23694" x1="-23963" fill="none"/><line y2="-30136" y1="-29668" x2="-23573" x1="-23842" fill="none"/><line y2="-30136" y1="-29668" x2="-24489" x1="-24217" fill="none"/><line y2="-30209" y1="-29738" x2="-24364" x1="-24096" fill="none"/><line y2="-27427" y1="-26904" x2="-26762" x1="-25855" fill="none"/><line y2="-25855" y1="-26904" x2="-25855" x1="-25855" fill="none"/><line y2="-28961" y1="-27822" x2="-23122" x1="-23122" fill="none"/><line y2="-28819" y1="-27967" x2="-22952" x1="-22952" fill="none"/><line y2="-29530" y1="-28961" x2="-22134" x1="-23122" fill="none"/><line y2="-27822" y1="-27256" x2="-23122" x1="-22134" fill="none"/><line y2="-28961" y1="-29530" x2="-21152" x1="-22134" fill="none"/><line y2="-28886" y1="-29313" x2="-21360" x1="-22097" fill="none"/><line y2="-27256" y1="-27822" x2="-22134" x1="-21152" fill="none"/><line y2="-27473" y1="-27900" x2="-22097" x1="-21360" fill="none"/><line y2="-27822" y1="-28961" x2="-21152" x1="-21152" fill="none"/><line y2="-27409" y1="-27822" x2="-20433" x1="-21152" fill="none"/><polygon stroke-width="1" stroke="none" points=" -31286 -29484 -30535 -29128 -30602 -29007"/><polygon stroke-width="1" points=" -31286 -29484 -30535 -29128 -30602 -29007" fill="none"/><polygon stroke-width="1" stroke="none" points=" -27658 -29484 -27727 -30532 -27588 -30532"/><polygon stroke-width="1" points=" -27658 -29484 -27727 -30532 -27588 -30532" fill="none"/><polygon stroke-width="1" stroke="none" points=" -26751 -28961 -26681 -28132 -26820 -28132"/><polygon stroke-width="1" points=" -26751 -28961 -26681 -28132 -26820 -28132" fill="none"/><text y="-27733" xml:space="preserve" x="-26904" stroke-width="1" stroke="none" font-size="433.3333" font-family="sans-serif">O</text><text y="-28782" xml:space="preserve" x="-28718" stroke-width="1" stroke="none" font-size="433.3333" font-family="sans-serif">NH</text><text y="-28782" xml:space="preserve" x="-25090" stroke-width="1" stroke="none" font-size="433.3333" font-family="sans-serif">N</text><text y="-27227" xml:space="preserve" x="-27820" stroke-width="1" stroke="none" font-size="433.3333" font-family="sans-serif">P</text><text y="-29304" xml:space="preserve" x="-24182" stroke-width="1" stroke="none" font-size="433.3333" font-family="sans-serif">S</text><text y="-26309" xml:space="preserve" x="-27314" stroke-width="1" stroke="none" font-size="433.3333" font-family="sans-serif">O</text><text y="-27822" xml:space="preserve" x="-28854" stroke-width="1" stroke="none" font-size="433.3333" font-family="sans-serif">OH</text><text y="-26326" xml:space="preserve" x="-28363" stroke-width="1" stroke="none" font-size="433.3333" font-family="sans-serif">OH</text><text y="-28782" xml:space="preserve" x="-30532" stroke-width="1" stroke="none" font-size="433.3333" font-family="sans-serif">O</text><text y="-30353" xml:space="preserve" x="-29625" stroke-width="1" stroke="none" font-size="433.3333" font-family="sans-serif">O</text><text y="-30212" xml:space="preserve" x="-23657" stroke-width="1" stroke="none" font-size="433.3333" font-family="sans-serif">O</text><text y="-30212" xml:space="preserve" x="-24705" stroke-width="1" stroke="none" font-size="433.3333" font-family="sans-serif">O</text><text y="-27120" xml:space="preserve" x="-20398" stroke-width="1" stroke="none" font-size="433.3333" font-family="sans-serif">NH</text><text y="-27031" xml:space="preserve" x="-19820" stroke-width="1" stroke="none" font-size="313.3333" font-family="sans-serif">2</text><text y="-31067" xml:space="preserve" x="-31971" stroke-width="1" stroke="none" font-size="433.3333" font-family="sans-serif">O</text></g><g transform="translate(32866,32866)" text-rendering="geometricPrecision" stroke-linejoin="round" stroke-linecap="round" font-style="italic" font-size="313.3333" font-family="sans-serif"><text y="-29085" xml:space="preserve" x="-26904" stroke="none">R</text><text y="-29004" xml:space="preserve" x="-27811" stroke="none">S</text><text y="-29590" xml:space="preserve" x="-31670" stroke="none">S</text></g></g></svg>