<svg width="223.92" viewBox="0 0 7464 3584" text-rendering="auto" stroke-width="1" stroke-opacity="1" stroke-miterlimit="10" stroke-linejoin="miter" stroke-linecap="square" stroke-dashoffset="0" stroke-dasharray="none" stroke="black" shape-rendering="auto" image-rendering="auto" height="107.52" font-weight="normal" font-style="normal" font-size="12" font-family="'Dialog'" fill-opacity="1" fill="black" color-rendering="auto" color-interpolation="auto" xmlns="http://www.w3.org/2000/svg"><g><g stroke="white" fill="white"><rect y="0" x="0" width="7464" stroke="none" height="3584"/></g><g transform="translate(32866,32758)" text-rendering="geometricPrecision" stroke-width="44" stroke-linejoin="round" stroke-linecap="round"><line y2="-29278" y1="-29804" x2="-30948" x1="-31855" fill="none"/><line y2="-29278" y1="-29804" x2="-32762" x1="-31855" fill="none"/><line y2="-30630" y1="-29804" x2="-31855" x1="-31855" fill="none"/><line y2="-31376" y1="-31070" x2="-30948" x1="-31477" fill="none"/><line y2="-30850" y1="-31376" x2="-30041" x1="-30948" fill="none"/><line y2="-31266" y1="-30850" x2="-29322" x1="-30041" fill="none"/><line y2="-30960" y1="-31266" x2="-28415" x1="-28946" fill="none"/><line y2="-32202" y1="-31376" x2="-31018" x1="-31018" fill="none"/><line y2="-32202" y1="-31376" x2="-30879" x1="-30879" fill="none"/><line y2="-31266" y1="-30960" x2="-27508" x1="-28039" fill="none"/><line y2="-30850" y1="-31266" x2="-26413" x1="-27132" fill="none"/><line y2="-31376" y1="-30850" x2="-25506" x1="-26413" fill="none"/><line y2="-30024" y1="-30630" x2="-28227" x1="-28227" fill="none"/><line y2="-29278" y1="-29694" x2="-27320" x1="-28039" fill="none"/><line y2="-29804" y1="-29278" x2="-26413" x1="-27320" fill="none"/><line y2="-30498" y1="-30804" x2="-27473" x1="-28004" fill="none"/><line y2="-30373" y1="-30682" x2="-27542" x1="-28074" fill="none"/><text y="-30671" xml:space="preserve" x="-28380" stroke="none" font-size="433.3333" font-family="sans-serif">P</text><text y="-31197" xml:space="preserve" x="-29287" stroke="none" font-size="433.3333" font-family="sans-serif">S</text><text y="-31197" xml:space="preserve" x="-27473" stroke="none" font-size="433.3333" font-family="sans-serif">O</text><text y="-29625" xml:space="preserve" x="-28380" stroke="none" font-size="433.3333" font-family="sans-serif">O</text><text y="-30148" xml:space="preserve" x="-27473" stroke="none" font-size="433.3333" font-family="sans-serif">S</text><text y="-30671" xml:space="preserve" x="-32008" stroke="none" font-size="433.3333" font-family="sans-serif">NH</text><text y="-32242" xml:space="preserve" x="-31101" stroke="none" font-size="433.3333" font-family="sans-serif">O</text></g></g></svg>