<svg width="261.42" viewBox="0 0 8714 4548" text-rendering="auto" stroke-width="1" stroke-opacity="1" stroke-miterlimit="10" stroke-linejoin="miter" stroke-linecap="square" stroke-dashoffset="0" stroke-dasharray="none" stroke="black" shape-rendering="auto" image-rendering="auto" height="136.44" font-weight="normal" font-style="normal" font-size="12" font-family="'Dialog'" fill-opacity="1" fill="black" color-rendering="auto" color-interpolation="auto" xmlns="http://www.w3.org/2000/svg"><g><g stroke="white" fill="white"><rect y="0" x="0" width="8714" stroke="none" height="4548"/></g><g transform="translate(32866,32758)" text-rendering="geometricPrecision" stroke-width="44" stroke-linejoin="round" stroke-linecap="round"><line y2="-30662" y1="-31725" x2="-30847" x1="-30480" fill="none"/><line y2="-31725" y1="-32202" x2="-30480" x1="-31096" fill="none"/><line y2="-30662" y1="-30662" x2="-31994" x1="-30847" fill="none"/><line y2="-32283" y1="-31725" x2="-31566" x1="-32320" fill="none"/><line y2="-31725" y1="-30662" x2="-32320" x1="-31994" fill="none"/><line y2="-31725" y1="-32251" x2="-28666" x1="-29573" fill="none"/><line y2="-29108" y1="-29937" x2="-29931" x1="-29931" fill="none"/><line y2="-31725" y1="-30590" x2="-28666" x1="-28666" fill="none"/><line y2="-31584" y1="-30732" x2="-28496" x1="-28496" fill="none"/><line y2="-32294" y1="-31725" x2="-27678" x1="-28666" fill="none"/><line y2="-30590" y1="-30021" x2="-28666" x1="-27678" fill="none"/><line y2="-31725" y1="-32294" x2="-26696" x1="-27678" fill="none"/><line y2="-31650" y1="-32078" x2="-26901" x1="-27640" fill="none"/><line y2="-30021" y1="-30590" x2="-27678" x1="-26696" fill="none"/><line y2="-30238" y1="-30665" x2="-27640" x1="-26901" fill="none"/><line y2="-30590" y1="-31725" x2="-26696" x1="-26696" fill="none"/><line y2="-30174" y1="-30590" x2="-25976" x1="-26696" fill="none"/><line y2="-30480" y1="-30174" x2="-25069" x1="-25598" fill="none"/><line y2="-28585" y1="-29108" x2="-29024" x1="-29931" fill="none"/><line y2="-28631" y1="-29047" x2="-30616" x1="-29897" fill="none"/><line y2="-28753" y1="-29169" x2="-30685" x1="-29966" fill="none"/><polygon stroke-width="1" stroke="none" points=" -31994 -30662 -32393 -29995 -32505 -30073"/><polygon stroke-width="1" points=" -31994 -30662 -32393 -29995 -32505 -30073" fill="none"/><line y2="-32190" y1="-32309" x2="-29536" x1="-29605" fill="none"/><line y2="-32094" y1="-32188" x2="-29731" x1="-29786" fill="none"/><line y2="-31998" y1="-32068" x2="-29926" x1="-29966" fill="none"/><line y2="-31902" y1="-31947" x2="-30120" x1="-30147" fill="none"/><line y2="-31806" y1="-31827" x2="-30315" x1="-30327" fill="none"/><line y2="-30200" y1="-30318" x2="-30154" x1="-30087" fill="none"/><line y2="-30320" y1="-30408" x2="-30335" x1="-30285" fill="none"/><line y2="-30441" y1="-30497" x2="-30515" x1="-30483" fill="none"/><line y2="-30561" y1="-30587" x2="-30696" x1="-30682" fill="none"/><text y="-29978" xml:space="preserve" x="-30084" stroke="none" font-size="433.3333" font-family="sans-serif">O</text><text y="-28406" xml:space="preserve" x="-30992" stroke="none" font-size="433.3333" font-family="sans-serif">O</text><text y="-29637" xml:space="preserve" x="-32762" stroke="none" font-size="433.3333" font-family="sans-serif">OH</text><text y="-29885" xml:space="preserve" x="-25939" stroke="none" font-size="433.3333" font-family="sans-serif">O</text><text y="-30411" xml:space="preserve" x="-25032" stroke="none" font-size="433.3333" font-family="sans-serif">CH</text><text y="-30321" xml:space="preserve" x="-24454" stroke="none" font-size="313.3333" font-family="sans-serif">3</text><text y="-32242" xml:space="preserve" x="-31532" stroke="none" font-size="433.3333" font-family="sans-serif">NH</text><text y="-31451" xml:space="preserve" x="-30899" stroke="none" font-style="italic" font-size="313.3333" font-family="sans-serif">R</text><text y="-30769" xml:space="preserve" x="-31231" stroke="none" font-style="italic" font-size="313.3333" font-family="sans-serif">S</text><text y="-30769" xml:space="preserve" x="-31913" stroke="none" font-style="italic" font-size="313.3333" font-family="sans-serif">S</text></g></g></svg>