<svg width="287.19" viewBox="0 0 9573 7580" text-rendering="auto" stroke-width="1" stroke-opacity="1" stroke-miterlimit="10" stroke-linejoin="miter" stroke-linecap="square" stroke-dashoffset="0" stroke-dasharray="none" stroke="black" shape-rendering="auto" image-rendering="auto" height="227.4" font-weight="normal" font-style="normal" font-size="12" font-family="'Dialog'" fill-opacity="1" fill="black" color-rendering="auto" color-interpolation="auto" xmlns="http://www.w3.org/2000/svg"><g><g stroke="white" fill="white"><rect y="0" x="0" width="9573" stroke="none" height="7580"/></g><g transform="translate(32866,32866)" text-rendering="geometricPrecision" stroke-width="44" stroke-linejoin="round" stroke-linecap="round"><line y2="-28984" y1="-28415" x2="-26780" x1="-27765" fill="none"/><line y2="-28415" y1="-27276" x2="-27765" x1="-27765" fill="none"/><line y2="-28273" y1="-27421" x2="-27594" x1="-27594" fill="none"/><line y2="-28415" y1="-28874" x2="-27765" x1="-28562" fill="none"/><line y2="-28415" y1="-28984" x2="-25792" x1="-26780" fill="none"/><line y2="-30122" y1="-28984" x2="-26780" x1="-26780" fill="none"/><line y2="-29978" y1="-29125" x2="-26612" x1="-26612" fill="none"/><line y2="-27276" y1="-27276" x2="-29732" x1="-27765" fill="none"/><line y2="-27276" y1="-26707" x2="-27765" x1="-26780" fill="none"/><line y2="-28874" y1="-28415" x2="-28938" x1="-29732" fill="none"/><line y2="-27496" y1="-28415" x2="-25792" x1="-25792" fill="none"/><line y2="-28415" y1="-28984" x2="-25792" x1="-24809" fill="none"/><line y2="-28634" y1="-29059" x2="-25754" x1="-25014" fill="none"/><line y2="-30688" y1="-30122" x2="-25792" x1="-26780" fill="none"/><line y2="-28415" y1="-27276" x2="-29732" x1="-29732" fill="none"/><line y2="-26707" y1="-27276" x2="-30720" x1="-29732" fill="none"/><line y2="-26927" y1="-27354" x2="-30680" x1="-29940" fill="none"/><line y2="-26707" y1="-27170" x2="-26780" x1="-25979" fill="none"/><line y2="-28415" y1="-28984" x2="-29732" x1="-30720" fill="none"/><line y2="-28337" y1="-28764" x2="-29940" x1="-30680" fill="none"/><line y2="-28984" y1="-30122" x2="-24809" x1="-24809" fill="none"/><line y2="-30122" y1="-30688" x2="-24809" x1="-25792" fill="none"/><line y2="-30044" y1="-30472" x2="-25014" x1="-25754" fill="none"/><line y2="-27276" y1="-26707" x2="-31702" x1="-30720" fill="none"/><line y2="-28984" y1="-28415" x2="-30720" x1="-31702" fill="none"/><line y2="-28415" y1="-27276" x2="-31702" x1="-31702" fill="none"/><line y2="-28273" y1="-27421" x2="-31532" x1="-31532" fill="none"/><line y2="-32240" y1="-30688" x2="-25794" x1="-25792" fill="none"/><line y2="-32762" y1="-32240" x2="-26702" x1="-25794" fill="none"/><line y2="-32240" y1="-32762" x2="-27606" x1="-26702" fill="none"/><line y2="-32185" y1="-32578" x2="-27424" x1="-26742" fill="none"/><line y2="-30535" y1="-30122" x2="-27499" x1="-26780" fill="none"/><line y2="-30287" y1="-30535" x2="-28305" x1="-27877" fill="none"/><line y2="-30535" y1="-30122" x2="-24090" x1="-24809" fill="none"/><line y2="-28718" y1="-28415" x2="-32231" x1="-31702" fill="none"/><line y2="-25881" y1="-26707" x2="-26710" x1="-26710" fill="none"/><line y2="-25881" y1="-26707" x2="-26852" x1="-26852" fill="none"/><line y2="-32762" y1="-32240" x2="-28513" x1="-27606" fill="none"/><line y2="-31191" y1="-32240" x2="-27606" x1="-27606" fill="none"/><text y="-30466" xml:space="preserve" x="-27840" stroke="none" font-size="433.3333" font-family="sans-serif">O</text><text y="-29891" xml:space="preserve" x="-28839" stroke="none" font-size="433.3333" font-family="sans-serif">CH</text><text y="-29801" xml:space="preserve" x="-28262" stroke="none" font-size="313.3333" font-family="sans-serif">3</text><text y="-25482" xml:space="preserve" x="-26933" stroke="none" font-size="433.3333" font-family="sans-serif">O</text><text y="-30466" xml:space="preserve" x="-24052" stroke="none" font-size="433.3333" font-family="sans-serif">OH</text><text y="-28758" xml:space="preserve" x="-32762" stroke="none" font-size="433.3333" font-family="sans-serif">OH</text><text y="-28805" xml:space="preserve" x="-28903" stroke="none" font-size="433.3333" font-family="sans-serif">O</text><text y="-27097" xml:space="preserve" x="-25945" stroke="none" font-size="433.3333" font-family="sans-serif">O</text></g></g></svg>