<svg width="255.84" viewBox="0 0 8528 4765" text-rendering="auto" stroke-width="1" stroke-opacity="1" stroke-miterlimit="10" stroke-linejoin="miter" stroke-linecap="square" stroke-dashoffset="0" stroke-dasharray="none" stroke="black" shape-rendering="auto" image-rendering="auto" height="142.95" font-weight="normal" font-style="normal" font-size="12" font-family="'Dialog'" fill-opacity="1" fill="black" color-rendering="auto" color-interpolation="auto" xmlns="http://www.w3.org/2000/svg"><g><g stroke="white" fill="white"><rect y="0" x="0" width="8528" stroke="none" height="4765"/></g><g transform="translate(32866,32758)" text-rendering="geometricPrecision" stroke-width="44" stroke-linejoin="round" stroke-linecap="round"><line y2="-30807" y1="-29668" x2="-27320" x1="-27320" fill="none"/><line y2="-30665" y1="-29810" x2="-27149" x1="-27149" fill="none"/><line y2="-29668" y1="-29099" x2="-27320" x1="-26332" fill="none"/><line y2="-31376" y1="-30807" x2="-26332" x1="-27320" fill="none"/><line y2="-29099" y1="-29668" x2="-26332" x1="-25350" fill="none"/><line y2="-29319" y1="-29744" x2="-26294" x1="-25558" fill="none"/><line y2="-30807" y1="-31376" x2="-25350" x1="-26332" fill="none"/><line y2="-30729" y1="-31156" x2="-25558" x1="-26294" fill="none"/><line y2="-29668" y1="-30807" x2="-25350" x1="-25350" fill="none"/><line y2="-31330" y1="-30807" x2="-24442" x1="-25350" fill="none"/><line y2="-29365" y1="-29668" x2="-27848" x1="-27320" fill="none"/><line y2="-29668" y1="-29252" x2="-29134" x1="-28415" fill="none"/><line y2="-32202" y1="-31376" x2="-26332" x1="-26332" fill="none"/><line y2="-29146" y1="-29668" x2="-30041" x1="-29134" fill="none"/><line y2="-30498" y1="-29668" x2="-29203" x1="-29203" fill="none"/><line y2="-30498" y1="-29668" x2="-29065" x1="-29065" fill="none"/><line y2="-29668" y1="-29146" x2="-30948" x1="-30041" fill="none"/><line y2="-29146" y1="-29668" x2="-31855" x1="-30948" fill="none"/><line y2="-29668" y1="-29146" x2="-32762" x1="-31855" fill="none"/><line y2="-28097" y1="-29146" x2="-30041" x1="-30041" fill="none"/><text y="-28966" xml:space="preserve" x="-28380" stroke="none" font-size="433.3333" font-family="sans-serif">NH</text><text y="-30538" xml:space="preserve" x="-29287" stroke="none" font-size="433.3333" font-family="sans-serif">O</text><text y="-32242" xml:space="preserve" x="-26566" stroke="none" font-size="433.3333" font-family="sans-serif">Cl</text></g></g></svg>