<svg width="559.41" viewBox="0 0 18647 4352" text-rendering="auto" stroke-width="1" stroke-opacity="1" stroke-miterlimit="10" stroke-linejoin="miter" stroke-linecap="square" stroke-dashoffset="0" stroke-dasharray="none" stroke="black" shape-rendering="auto" image-rendering="auto" height="130.56" font-weight="normal" font-style="normal" font-size="12" font-family="'Dialog'" fill-opacity="1" fill="black" color-rendering="auto" color-interpolation="auto" xmlns="http://www.w3.org/2000/svg"><g><g stroke="white" fill="white"><rect y="0" x="0" width="18647" stroke="none" height="4352"/></g><g transform="translate(32866,32758)" text-rendering="geometricPrecision" stroke-width="44" stroke-linejoin="round" stroke-linecap="round"><line y2="-29830" y1="-30812" x2="-19433" x1="-20005" fill="none"/><line y2="-28848" y1="-29830" x2="-20005" x1="-19433" fill="none"/><line y2="-30812" y1="-30812" x2="-20005" x1="-21152" fill="none"/><line y2="-29258" y1="-30183" x2="-18448" x1="-18448" fill="none"/><line y2="-28848" y1="-28848" x2="-21152" x1="-20005" fill="none"/><line y2="-30812" y1="-29830" x2="-21152" x1="-21724" fill="none"/><line y2="-29830" y1="-28848" x2="-21724" x1="-21152" fill="none"/><line y2="-31338" y1="-30812" x2="-19098" x1="-20005" fill="none"/><line y2="-29830" y1="-30246" x2="-23538" x1="-22819" fill="none"/><line y2="-32202" y1="-31555" x2="-22059" x1="-22059" fill="none"/><line y2="-31338" y1="-31338" x2="-19098" x1="-17951" fill="none"/><line y2="-32101" y1="-31338" x2="-18653" x1="-19098" fill="none"/><line y2="-31338" y1="-32101" x2="-17951" x1="-18396" fill="none"/><line y2="-31338" y1="-30812" x2="-16137" x1="-17044" fill="none"/><line y2="-30812" y1="-31338" x2="-15230" x1="-16137" fill="none"/><line y2="-30758" y1="-31150" x2="-15415" x1="-16094" fill="none"/><line y2="-30353" y1="-29830" x2="-24445" x1="-23538" fill="none"/><line y2="-29001" y1="-29830" x2="-23469" x1="-23469" fill="none"/><line y2="-29001" y1="-29830" x2="-23608" x1="-23608" fill="none"/><line y2="-31338" y1="-30812" x2="-14323" x1="-15230" fill="none"/><line y2="-29767" y1="-30812" x2="-15230" x1="-15230" fill="none"/><line y2="-29830" y1="-30353" x2="-25352" x1="-24445" fill="none"/><line y2="-29775" y1="-30168" x2="-25170" x1="-24489" fill="none"/><line y2="-30353" y1="-29830" x2="-26260" x1="-25352" fill="none"/><line y2="-29830" y1="-30353" x2="-27167" x1="-26260" fill="none"/><line y2="-29775" y1="-30168" x2="-26985" x1="-26306" fill="none"/><line y2="-30353" y1="-29830" x2="-28074" x1="-27167" fill="none"/><line y2="-29830" y1="-30353" x2="-28981" x1="-28074" fill="none"/><line y2="-29775" y1="-30168" x2="-28799" x1="-28120" fill="none"/><line y2="-30353" y1="-29830" x2="-29888" x1="-28981" fill="none"/><line y2="-29830" y1="-30353" x2="-30795" x1="-29888" fill="none"/><line y2="-29775" y1="-30168" x2="-30613" x1="-29934" fill="none"/><line y2="-30353" y1="-29830" x2="-31705" x1="-30795" fill="none"/><line y2="-30050" y1="-30353" x2="-32231" x1="-31705" fill="none"/><line y2="-31182" y1="-30353" x2="-31774" x1="-31774" fill="none"/><line y2="-31182" y1="-30353" x2="-31633" x1="-31633" fill="none"/><polygon stroke-width="1" stroke="none" points=" -18413 -29316 -19433 -29830 -18483 -29198"/><polygon stroke-width="1" points=" -18413 -29316 -19433 -29830 -18483 -29198" fill="none"/><polygon stroke-width="1" stroke="none" points=" -21724 -29830 -22478 -30186 -22409 -30304"/><polygon stroke-width="1" points=" -21724 -29830 -22478 -30186 -22409 -30304" fill="none"/><polygon stroke-width="1" stroke="none" points=" -21152 -30812 -21903 -31168 -21834 -31286"/><polygon stroke-width="1" points=" -21152 -30812 -21903 -31168 -21834 -31286" fill="none"/><polygon stroke-width="1" stroke="none" points=" -20005 -30812 -20282 -31587 -20150 -31624"/><polygon stroke-width="1" points=" -20005 -30812 -20282 -31587 -20150 -31624" fill="none"/><line y2="-30235" y1="-30353" x2="-18601" x1="-18670" fill="none"/><line y2="-30140" y1="-30230" x2="-18796" x1="-18849" fill="none"/><line y2="-30045" y1="-30107" x2="-18992" x1="-19028" fill="none"/><line y2="-29950" y1="-29985" x2="-19187" x1="-19208" fill="none"/><line y2="-29855" y1="-29862" x2="-19383" x1="-19387" fill="none"/><line y2="-30752" y1="-30873" x2="-17079" x1="-17009" fill="none"/><line y2="-30873" y1="-30969" x2="-17259" x1="-17204" fill="none"/><line y2="-30994" y1="-31065" x2="-17439" x1="-17398" fill="none"/><line y2="-31115" y1="-31161" x2="-17620" x1="-17593" fill="none"/><line y2="-31236" y1="-31257" x2="-17800" x1="-17788" fill="none"/><line y2="-32138" y1="-32043" x2="-19777" x1="-19875" fill="none"/><line y2="-31972" y1="-31897" x2="-19636" x1="-19714" fill="none"/><line y2="-31807" y1="-31751" x2="-19496" x1="-19553" fill="none"/><line y2="-31641" y1="-31605" x2="-19355" x1="-19393" fill="none"/><line y2="-31476" y1="-31459" x2="-19215" x1="-19232" fill="none"/><text y="-31156" xml:space="preserve" x="-22209" stroke="none" font-size="433.3333" font-family="sans-serif">O</text><text y="-32242" xml:space="preserve" x="-22209" stroke="none" font-size="433.3333" font-family="sans-serif">CH</text><text y="-32153" xml:space="preserve" x="-21632" stroke="none" font-size="313.3333" font-family="sans-serif">3</text><text y="-30174" xml:space="preserve" x="-22784" stroke="none" font-size="433.3333" font-family="sans-serif">O</text><text y="-28602" xml:space="preserve" x="-23691" stroke="none" font-size="433.3333" font-family="sans-serif">O</text><text y="-29651" xml:space="preserve" x="-32762" stroke="none" font-size="433.3333" font-family="sans-serif">OH</text><text y="-31223" xml:space="preserve" x="-31855" stroke="none" font-size="433.3333" font-family="sans-serif">O</text><text y="-30223" xml:space="preserve" x="-18601" stroke="none" font-size="433.3333" font-family="sans-serif">O</text><text y="-32141" xml:space="preserve" x="-18676" stroke="none" font-size="433.3333" font-family="sans-serif">O</text><text y="-31647" xml:space="preserve" x="-20430" stroke="none" font-size="433.3333" font-family="sans-serif">H</text><text y="-30298" xml:space="preserve" x="-25283" stroke="none" font-style="italic" font-size="313.3333" font-family="sans-serif">E</text><text y="-30298" xml:space="preserve" x="-27097" stroke="none" font-style="italic" font-size="313.3333" font-family="sans-serif">E</text><text y="-30298" xml:space="preserve" x="-28912" stroke="none" font-style="italic" font-size="313.3333" font-family="sans-serif">E</text><text y="-30298" xml:space="preserve" x="-30726" stroke="none" font-style="italic" font-size="313.3333" font-family="sans-serif">E</text><text y="-29651" xml:space="preserve" x="-19855" stroke="none" font-style="italic" font-size="313.3333" font-family="sans-serif">R</text><text y="-30385" xml:space="preserve" x="-20303" stroke="none" font-style="italic" font-size="313.3333" font-family="sans-serif">S</text><text y="-30385" xml:space="preserve" x="-21161" stroke="none" font-style="italic" font-size="313.3333" font-family="sans-serif">S</text><text y="-29651" xml:space="preserve" x="-21606" stroke="none" font-style="italic" font-size="313.3333" font-family="sans-serif">R</text><text y="-30882" xml:space="preserve" x="-19176" stroke="none" font-style="italic" font-size="313.3333" font-family="sans-serif">R</text><text y="-30882" xml:space="preserve" x="-18179" stroke="none" font-style="italic" font-size="313.3333" font-family="sans-serif">R</text></g></g></svg>