<svg width="383.16" viewBox="0 0 12772 7671" text-rendering="auto" stroke-width="1" stroke-opacity="1" stroke-miterlimit="10" stroke-linejoin="miter" stroke-linecap="square" stroke-dashoffset="0" stroke-dasharray="none" stroke="black" shape-rendering="auto" image-rendering="auto" height="230.13" font-weight="normal" font-style="normal" font-size="12" font-family="'Dialog'" fill-opacity="1" fill="black" color-rendering="auto" color-interpolation="auto" xmlns="http://www.w3.org/2000/svg"><g><g stroke="white" fill="white"><rect y="0" x="0" width="12772" stroke="none" height="7671"/></g><g transform="translate(32866,32758)" text-rendering="geometricPrecision" stroke-width="44" stroke-linejoin="round" stroke-linecap="round"><line y2="-30703" y1="-30131" x2="-29738" x1="-28756" fill="none"/><line y2="-31850" y1="-30703" x2="-29738" x1="-29738" fill="none"/><line y2="-31705" y1="-30847" x2="-29567" x1="-29567" fill="none"/><line y2="-30131" y1="-30703" x2="-30720" x1="-29738" fill="none"/><line y2="-30131" y1="-30593" x2="-28756" x1="-27961" fill="none"/><line y2="-30336" y1="-30682" x2="-28741" x1="-28146" fill="none"/><line y2="-32312" y1="-31850" x2="-28943" x1="-29738" fill="none"/><line y2="-31850" y1="-32422" x2="-29738" x1="-30720" fill="none"/><line y2="-30703" y1="-30131" x2="-31702" x1="-30720" fill="none"/><line y2="-30778" y1="-30347" x2="-31494" x1="-30758" fill="none"/><line y2="-30922" y1="-31850" x2="-27773" x1="-27773" fill="none"/><line y2="-31850" y1="-32312" x2="-27773" x1="-28568" fill="none"/><line y2="-31760" y1="-32107" x2="-27958" x1="-28553" fill="none"/><line y2="-32422" y1="-31850" x2="-30720" x1="-31702" fill="none"/><line y2="-32205" y1="-31774" x2="-30758" x1="-31494" fill="none"/><line y2="-31850" y1="-30703" x2="-31702" x1="-31702" fill="none"/><line y2="-29302" y1="-30131" x2="-28756" x1="-28756" fill="none"/><line y2="-28559" y1="-28862" x2="-27848" x1="-28374" fill="none"/><line y2="-30287" y1="-30703" x2="-32422" x1="-31702" fill="none"/><line y2="-28559" y1="-27421" x2="-27848" x1="-27848" fill="none"/><line y2="-28415" y1="-27562" x2="-27678" x1="-27678" fill="none"/><line y2="-29128" y1="-28559" x2="-26860" x1="-27848" fill="none"/><line y2="-27421" y1="-26852" x2="-27848" x1="-26860" fill="none"/><line y2="-28559" y1="-29128" x2="-25878" x1="-26860" fill="none"/><line y2="-28481" y1="-28909" x2="-26086" x1="-26823" fill="none"/><line y2="-26852" y1="-27421" x2="-26860" x1="-25878" fill="none"/><line y2="-27068" y1="-27496" x2="-26823" x1="-26086" fill="none"/><line y2="-27421" y1="-28559" x2="-25878" x1="-25878" fill="none"/><line y2="-27005" y1="-27421" x2="-25159" x1="-25878" fill="none"/><line y2="-27421" y1="-27005" x2="-24064" x1="-24783" fill="none"/><line y2="-26898" y1="-27421" x2="-23157" x1="-24064" fill="none"/><line y2="-26023" y1="-26852" x2="-26860" x1="-26860" fill="none"/><line y2="-27467" y1="-26898" x2="-22169" x1="-23157" fill="none"/><line y2="-27248" y1="-26820" x2="-22206" x1="-22946" fill="none"/><line y2="-26898" y1="-25760" x2="-23157" x1="-23157" fill="none"/><line y2="-26898" y1="-27467" x2="-21187" x1="-22169" fill="none"/><line y2="-25760" y1="-25191" x2="-23157" x1="-22169" fill="none"/><line y2="-25838" y1="-25410" x2="-22946" x1="-22206" fill="none"/><line y2="-25760" y1="-26898" x2="-21187" x1="-21187" fill="none"/><line y2="-25901" y1="-26754" x2="-21357" x1="-21357" fill="none"/><line y2="-25191" y1="-25760" x2="-22169" x1="-21187" fill="none"/><line y2="-27314" y1="-26898" x2="-20467" x1="-21187" fill="none"/><text y="-28903" xml:space="preserve" x="-28909" stroke="none" font-size="433.3333" font-family="sans-serif">NH</text><text y="-30001" xml:space="preserve" x="-32762" stroke="none" font-size="433.3333" font-family="sans-serif">I</text><text y="-25624" xml:space="preserve" x="-27092" stroke="none" font-size="433.3333" font-family="sans-serif">Cl</text><text y="-26719" xml:space="preserve" x="-25121" stroke="none" font-size="433.3333" font-family="sans-serif">O</text><text y="-27242" xml:space="preserve" x="-20430" stroke="none" font-size="433.3333" font-family="sans-serif">F</text><text y="-30524" xml:space="preserve" x="-27924" stroke="none" font-size="433.3333" font-family="sans-serif">N</text><text y="-32242" xml:space="preserve" x="-28909" stroke="none" font-size="433.3333" font-family="sans-serif">N</text></g></g></svg>