<svg width="159.99" viewBox="0 0 5333 5080" text-rendering="auto" stroke-width="1" stroke-opacity="1" stroke-miterlimit="10" stroke-linejoin="miter" stroke-linecap="square" stroke-dashoffset="0" stroke-dasharray="none" stroke="black" shape-rendering="auto" image-rendering="auto" height="152.4" font-weight="normal" font-style="normal" font-size="12" font-family="'Dialog'" fill-opacity="1" fill="black" color-rendering="auto" color-interpolation="auto" xmlns="http://www.w3.org/2000/svg"><g><g stroke="white" fill="white"><rect y="0" x="0" width="5333" stroke="none" height="5080"/></g><g transform="translate(32866,32758)" text-rendering="geometricPrecision" stroke-width="44" stroke-linejoin="round" stroke-linecap="round"><line y2="-29668" y1="-30807" x2="-29530" x1="-29530" fill="none"/><line y2="-29810" y1="-30665" x2="-29700" x1="-29700" fill="none"/><line y2="-30807" y1="-31376" x2="-29530" x1="-30515" fill="none"/><line y2="-29099" y1="-29668" x2="-30515" x1="-29530" fill="none"/><line y2="-31376" y1="-30807" x2="-30515" x1="-31500" fill="none"/><line y2="-31156" y1="-30729" x2="-30552" x1="-31292" fill="none"/><line y2="-29668" y1="-29099" x2="-31500" x1="-30515" fill="none"/><line y2="-29746" y1="-29319" x2="-31292" x1="-30552" fill="none"/><line y2="-30807" y1="-29668" x2="-31500" x1="-31500" fill="none"/><line y2="-31330" y1="-30807" x2="-28623" x1="-29530" fill="none"/><line y2="-28273" y1="-29099" x2="-30515" x1="-30515" fill="none"/><line y2="-32202" y1="-31376" x2="-30515" x1="-30515" fill="none"/><line y2="-30914" y1="-31330" x2="-27903" x1="-28623" fill="none"/><line y2="-32017" y1="-31330" x2="-28227" x1="-28623" fill="none"/><line y2="-32017" y1="-31330" x2="-29021" x1="-28623" fill="none"/><line y2="-27981" y1="-27981" x2="-31373" x1="-30703" fill="none"/><line y2="-28123" y1="-28123" x2="-31373" x1="-30703" fill="none"/><line y2="-27981" y1="-27981" x2="-32422" x1="-31748" fill="none"/><line y2="-28123" y1="-28123" x2="-32422" x1="-31748" fill="none"/><text y="-30628" xml:space="preserve" x="-27869" stroke="none" font-size="433.3333" font-family="sans-serif">F</text><text y="-32058" xml:space="preserve" x="-28250" stroke="none" font-size="433.3333" font-family="sans-serif">F</text><text y="-32058" xml:space="preserve" x="-29299" stroke="none" font-size="433.3333" font-family="sans-serif">F</text><text y="-32242" xml:space="preserve" x="-30746" stroke="none" font-size="433.3333" font-family="sans-serif">Cl</text><text y="-27874" xml:space="preserve" x="-30665" stroke="none" font-size="433.3333" font-family="sans-serif">N</text><text y="-27874" xml:space="preserve" x="-31714" stroke="none" font-size="433.3333" font-family="sans-serif">C</text><text y="-27874" xml:space="preserve" x="-32762" stroke="none" font-size="433.3333" font-family="sans-serif">S</text></g></g></svg>