<svg width="338.49" viewBox="0 0 11283 9382" text-rendering="auto" stroke-width="1" stroke-opacity="1" stroke-miterlimit="10" stroke-linejoin="miter" stroke-linecap="square" stroke-dashoffset="0" stroke-dasharray="none" stroke="black" shape-rendering="auto" image-rendering="auto" height="281.46" font-weight="normal" font-style="normal" font-size="12" font-family="'Dialog'" fill-opacity="1" fill="black" color-rendering="auto" color-interpolation="auto" xmlns="http://www.w3.org/2000/svg"><g><g stroke="white" fill="white"><rect y="0" x="0" width="11283" stroke="none" height="9382"/></g><g transform="translate(32866,32866)" text-rendering="geometricPrecision" stroke-width="44" stroke-linejoin="round" stroke-linecap="round"><line y2="-26626" y1="-26052" x2="-26046" x1="-25064" fill="none"/><line y2="-26626" y1="-26052" x2="-24081" x1="-25064" fill="none"/><line y2="-25913" y1="-26052" x2="-25064" x1="-25064" fill="none"/><line y2="-24908" y1="-25494" x2="-25064" x1="-25064" fill="none"/><line y2="-26626" y1="-26052" x2="-26046" x1="-27028" fill="none"/><line y2="-27198" y1="-26626" x2="-25064" x1="-26046" fill="none"/><line y2="-26626" y1="-27198" x2="-24081" x1="-25064" fill="none"/><line y2="-26052" y1="-26626" x2="-23096" x1="-24081" fill="none"/><line y2="-24908" y1="-24908" x2="-26840" x1="-25064" fill="none"/><line y2="-24908" y1="-24908" x2="-25064" x1="-23287" fill="none"/><line y2="-26052" y1="-25127" x2="-27028" x1="-27028" fill="none"/><line y2="-25127" y1="-26052" x2="-23096" x1="-23096" fill="none"/><line y2="-29377" y1="-28961" x2="-26560" x1="-25841" fill="none"/><line y2="-30532" y1="-29703" x2="-26748" x1="-26748" fill="none"/><line y2="-27534" y1="-27534" x2="-29287" x1="-26756" fill="none"/><line y2="-26577" y1="-26052" x2="-27935" x1="-27028" fill="none"/><line y2="-26468" y1="-26052" x2="-22380" x1="-23096" fill="none"/><line y2="-31055" y1="-30532" x2="-27655" x1="-26748" fill="none"/><line y2="-31009" y1="-30593" x2="-26063" x1="-26782" fill="none"/><line y2="-30888" y1="-30472" x2="-25994" x1="-26713" fill="none"/><line y2="-26768" y1="-27534" x2="-29729" x1="-29287" fill="none"/><line y2="-27534" y1="-28516" x2="-29287" x1="-29853" fill="none"/><line y2="-26548" y1="-26548" x2="-30992" x1="-30044" fill="none"/><line y2="-28516" y1="-28519" x2="-29853" x1="-30994" fill="none"/><line y2="-27534" y1="-26548" x2="-31564" x1="-30992" fill="none"/><line y2="-28519" y1="-27534" x2="-30994" x1="-31564" fill="none"/><line y2="-25945" y1="-25641" x2="-32043" x1="-31514" fill="none"/><line y2="-31055" y1="-32193" x2="-27655" x1="-27655" fill="none"/><line y2="-31200" y1="-32052" x2="-27825" x1="-27825" fill="none"/><line y2="-30489" y1="-31055" x2="-28643" x1="-27655" fill="none"/><line y2="-32193" y1="-32762" x2="-27655" x1="-28643" fill="none"/><line y2="-31055" y1="-30489" x2="-29625" x1="-28643" fill="none"/><line y2="-31133" y1="-30706" x2="-29417" x1="-28680" fill="none"/><line y2="-32762" y1="-32193" x2="-28643" x1="-29625" fill="none"/><line y2="-32546" y1="-32118" x2="-28680" x1="-29417" fill="none"/><line y2="-32193" y1="-31055" x2="-29625" x1="-29625" fill="none"/><polygon stroke-width="1" stroke="none" points=" -27028 -26052 -24052 -25586 -24026 -25451"/><polygon stroke-width="1" points=" -27028 -26052 -24052 -25586 -24026 -25451" fill="none"/><polygon stroke-width="1" stroke="none" points=" -23096 -26052 -24052 -25586 -24026 -25451"/><polygon stroke-width="1" points=" -23096 -26052 -24052 -25586 -24026 -25451" fill="none"/><polygon stroke-width="1" stroke="none" points=" -29853 -28516 -29515 -29238 -29397 -29169"/><polygon stroke-width="1" points=" -29853 -28516 -29515 -29238 -29397 -29169" fill="none"/><polygon stroke-width="1" stroke="none" points=" -31564 -27534 -32118 -27464 -32118 -27603"/><polygon stroke-width="1" points=" -31564 -27534 -32118 -27464 -32118 -27603" fill="none"/><polygon stroke-width="1" stroke="none" points=" -29287 -27534 -28819 -26889 -28938 -26820"/><polygon stroke-width="1" points=" -29287 -27534 -28819 -26889 -28938 -26820" fill="none"/><line y2="-28978" y1="-28943" x2="-25774" x1="-25907" fill="none"/><line y2="-28767" y1="-28735" x2="-25723" x1="-25846" fill="none"/><line y2="-28557" y1="-28527" x2="-25672" x1="-25786" fill="none"/><line y2="-28346" y1="-28319" x2="-25621" x1="-25725" fill="none"/><line y2="-28136" y1="-28111" x2="-25570" x1="-25664" fill="none"/><line y2="-27925" y1="-27903" x2="-25518" x1="-25604" fill="none"/><line y2="-27714" y1="-27695" x2="-25467" x1="-25543" fill="none"/><line y2="-27504" y1="-27486" x2="-25416" x1="-25482" fill="none"/><line y2="-27293" y1="-27278" x2="-25365" x1="-25422" fill="none"/><line y2="-27083" y1="-27070" x2="-25314" x1="-25361" fill="none"/><line y2="-26872" y1="-26862" x2="-25263" x1="-25300" fill="none"/><line y2="-26661" y1="-26654" x2="-25212" x1="-25240" fill="none"/><line y2="-26451" y1="-26446" x2="-25161" x1="-25179" fill="none"/><line y2="-26240" y1="-26238" x2="-25110" x1="-25118" fill="none"/><line y2="-27349" y1="-27279" x2="-26384" x1="-26502" fill="none"/><line y2="-27152" y1="-27101" x2="-26292" x1="-26378" fill="none"/><line y2="-26955" y1="-26923" x2="-26200" x1="-26253" fill="none"/><line y2="-26757" y1="-26745" x2="-26107" x1="-26129" fill="none"/><line y2="-27279" y1="-27349" x2="-23622" x1="-23740" fill="none"/><line y2="-27101" y1="-27152" x2="-23747" x1="-23833" fill="none"/><line y2="-26923" y1="-26955" x2="-23872" x1="-23926" fill="none"/><line y2="-26746" y1="-26758" x2="-23997" x1="-24019" fill="none"/><line y2="-24078" y1="-24078" x2="-25133" x1="-24994" fill="none"/><line y2="-24295" y1="-24295" x2="-25115" x1="-25012" fill="none"/><line y2="-24511" y1="-24511" x2="-25097" x1="-25031" fill="none"/><line y2="-24728" y1="-24728" x2="-25079" x1="-25049" fill="none"/><line y2="-25673" y1="-25604" x2="-31575" x1="-31457" fill="none"/><line y2="-25854" y1="-25799" x2="-31455" x1="-31361" fill="none"/><line y2="-26034" y1="-25994" x2="-31334" x1="-31265" fill="none"/><line y2="-26215" y1="-26189" x2="-31214" x1="-31169" fill="none"/><line y2="-26395" y1="-26383" x2="-31094" x1="-31073" fill="none"/><line y2="-29241" y1="-29172" x2="-31332" x1="-31451" fill="none"/><line y2="-29044" y1="-28994" x2="-31240" x1="-31326" fill="none"/><line y2="-28847" y1="-28816" x2="-31148" x1="-31202" fill="none"/><line y2="-28650" y1="-28638" x2="-31055" x1="-31077" fill="none"/><text y="-29304" xml:space="preserve" x="-26901" stroke="none" font-size="433.3333" font-family="sans-serif">O</text><text y="-30876" xml:space="preserve" x="-25991" stroke="none" font-size="433.3333" font-family="sans-serif">O</text><text y="-27354" xml:space="preserve" x="-26722" stroke="none" font-size="433.3333" font-family="sans-serif">O</text><text y="-26398" xml:space="preserve" x="-22342" stroke="none" font-size="433.3333" font-family="sans-serif">OH</text><text y="-29244" xml:space="preserve" x="-29484" stroke="none" font-size="433.3333" font-family="sans-serif">OH</text><text y="-25985" xml:space="preserve" x="-32575" stroke="none" font-size="433.3333" font-family="sans-serif">OH</text><text y="-29247" xml:space="preserve" x="-31670" stroke="none" font-size="433.3333" font-family="sans-serif">OH</text><text y="-27354" xml:space="preserve" x="-32762" stroke="none" font-size="433.3333" font-family="sans-serif">OH</text><text y="-24728" xml:space="preserve" x="-27181" stroke="none" font-size="433.3333" font-family="sans-serif">O</text><text y="-24728" xml:space="preserve" x="-23249" stroke="none" font-size="433.3333" font-family="sans-serif">O</text><text y="-26369" xml:space="preserve" x="-30009" stroke="none" font-size="433.3333" font-family="sans-serif">O</text><text y="-27354" xml:space="preserve" x="-23709" stroke="none" font-size="433.3333" font-family="sans-serif">H</text><text y="-23680" xml:space="preserve" x="-25214" stroke="none" font-size="433.3333" font-family="sans-serif">H</text><text y="-26456" xml:space="preserve" x="-28900" stroke="none" font-size="433.3333" font-family="sans-serif">H</text><text y="-25731" xml:space="preserve" x="-24965" stroke="none" font-style="italic" font-size="313.3333" font-family="sans-serif">S</text><text y="-26144" xml:space="preserve" x="-26196" stroke="none" font-style="italic" font-size="313.3333" font-family="sans-serif">R</text><text y="-26144" xml:space="preserve" x="-24232" stroke="none" font-style="italic" font-size="313.3333" font-family="sans-serif">R</text><text y="-25003" xml:space="preserve" x="-25459" stroke="none" font-style="italic" font-size="313.3333" font-family="sans-serif">R</text><text y="-25731" xml:space="preserve" x="-27430" stroke="none" font-style="italic" font-size="313.3333" font-family="sans-serif">S</text><text y="-26176" xml:space="preserve" x="-23249" stroke="none" font-style="italic" font-size="313.3333" font-family="sans-serif">R</text><text y="-27603" xml:space="preserve" x="-29296" stroke="none" font-style="italic" font-size="313.3333" font-family="sans-serif">S</text><text y="-28088" xml:space="preserve" x="-30151" stroke="none" font-style="italic" font-size="313.3333" font-family="sans-serif">R</text><text y="-26615" xml:space="preserve" x="-31000" stroke="none" font-style="italic" font-size="313.3333" font-family="sans-serif">R</text><text y="-28091" xml:space="preserve" x="-31003" stroke="none" font-style="italic" font-size="313.3333" font-family="sans-serif">S</text><text y="-27354" xml:space="preserve" x="-31442" stroke="none" font-style="italic" font-size="313.3333" font-family="sans-serif">S</text></g></g></svg>