<svg width="257.19" viewBox="0 0 8573 7656" text-rendering="auto" stroke-width="1" stroke-opacity="1" stroke-miterlimit="10" stroke-linejoin="miter" stroke-linecap="square" stroke-dashoffset="0" stroke-dasharray="none" stroke="black" shape-rendering="auto" image-rendering="auto" height="229.68" font-weight="normal" font-style="normal" font-size="12" font-family="'Dialog'" fill-opacity="1" fill="black" color-rendering="auto" color-interpolation="auto" xmlns="http://www.w3.org/2000/svg"><g><g stroke="white" fill="white"><rect y="0" x="0" width="8573" stroke="none" height="7656"/></g><g transform="translate(32866,32758)" text-rendering="geometricPrecision" stroke-width="44" stroke-linejoin="round" stroke-linecap="round"><line y2="-29654" y1="-28510" x2="-29738" x1="-28756" fill="none"/><line y2="-28510" y1="-29654" x2="-28756" x1="-27773" fill="none"/><line y2="-28510" y1="-27363" x2="-28756" x1="-29738" fill="none"/><line y2="-27583" y1="-28510" x2="-27961" x1="-28756" fill="none"/><line y2="-30801" y1="-29654" x2="-29738" x1="-29738" fill="none"/><line y2="-29082" y1="-29654" x2="-30720" x1="-29738" fill="none"/><line y2="-29302" y1="-29732" x2="-30682" x1="-29946" fill="none"/><line y2="-30801" y1="-29654" x2="-27773" x1="-27773" fill="none"/><line y2="-29654" y1="-29082" x2="-27773" x1="-26791" fill="none"/><line y2="-29732" y1="-29302" x2="-27562" x1="-26826" fill="none"/><line y2="-26216" y1="-27363" x2="-29738" x1="-29738" fill="none"/><line y2="-27363" y1="-27935" x2="-29738" x1="-30720" fill="none"/><line y2="-27288" y1="-27718" x2="-29946" x1="-30682" fill="none"/><line y2="-26216" y1="-27144" x2="-27773" x1="-27773" fill="none"/><line y2="-31266" y1="-30801" x2="-28943" x1="-29738" fill="none"/><line y2="-30801" y1="-31376" x2="-29738" x1="-30720" fill="none"/><line y2="-30726" y1="-31156" x2="-29946" x1="-30682" fill="none"/><line y2="-29654" y1="-29082" x2="-31702" x1="-30720" fill="none"/><line y2="-30801" y1="-31266" x2="-27773" x1="-28568" fill="none"/><line y2="-31376" y1="-30801" x2="-26791" x1="-27773" fill="none"/><line y2="-31156" y1="-30726" x2="-26826" x1="-27562" fill="none"/><line y2="-29082" y1="-29654" x2="-26791" x1="-25809" fill="none"/><line y2="-26216" y1="-26216" x2="-29738" x1="-27773" fill="none"/><line y2="-25644" y1="-26216" x2="-30720" x1="-29738" fill="none"/><line y2="-25861" y1="-26291" x2="-30682" x1="-29946" fill="none"/><line y2="-27935" y1="-27363" x2="-30720" x1="-31702" fill="none"/><line y2="-31376" y1="-30801" x2="-30720" x1="-31702" fill="none"/><line y2="-30801" y1="-29654" x2="-31702" x1="-31702" fill="none"/><line y2="-30659" y1="-29798" x2="-31532" x1="-31532" fill="none"/><line y2="-30801" y1="-31376" x2="-25809" x1="-26791" fill="none"/><line y2="-29654" y1="-30801" x2="-25809" x1="-25809" fill="none"/><line y2="-29798" y1="-30659" x2="-25976" x1="-25976" fill="none"/><line y2="-26216" y1="-25644" x2="-31702" x1="-30720" fill="none"/><line y2="-27363" y1="-26216" x2="-31702" x1="-31702" fill="none"/><line y2="-27219" y1="-26361" x2="-31532" x1="-31532" fill="none"/><line y2="-32202" y1="-31376" x2="-30720" x1="-30720" fill="none"/><line y2="-32202" y1="-31376" x2="-26791" x1="-26791" fill="none"/><line y2="-31107" y1="-30801" x2="-32231" x1="-31702" fill="none"/><line y2="-31217" y1="-30801" x2="-25090" x1="-25809" fill="none"/><line y2="-25714" y1="-26265" x2="-27170" x1="-27724" fill="none"/><line y2="-25615" y1="-26167" x2="-27268" x1="-27822" fill="none"/><text y="-25298" xml:space="preserve" x="-27184" stroke="none" font-size="433.3333" font-family="sans-serif">O</text><text y="-32242" xml:space="preserve" x="-30951" stroke="none" font-size="433.3333" font-family="sans-serif">Cl</text><text y="-32242" xml:space="preserve" x="-27022" stroke="none" font-size="433.3333" font-family="sans-serif">Cl</text><text y="-31148" xml:space="preserve" x="-32762" stroke="none" font-size="433.3333" font-family="sans-serif">OH</text><text y="-31148" xml:space="preserve" x="-25052" stroke="none" font-size="433.3333" font-family="sans-serif">OH</text><text y="-27184" xml:space="preserve" x="-27924" stroke="none" font-size="433.3333" font-family="sans-serif">O</text><text y="-31197" xml:space="preserve" x="-28906" stroke="none" font-size="433.3333" font-family="sans-serif">O</text></g></g></svg>