<svg width="426.21" viewBox="0 0 14207 10734" text-rendering="auto" stroke-width="1" stroke-opacity="1" stroke-miterlimit="10" stroke-linejoin="miter" stroke-linecap="square" stroke-dashoffset="0" stroke-dasharray="none" stroke="black" shape-rendering="auto" image-rendering="auto" height="322.02" font-weight="normal" font-style="normal" font-size="12" font-family="'Dialog'" fill-opacity="1" fill="black" color-rendering="auto" color-interpolation="auto" xmlns="http://www.w3.org/2000/svg"><g><g stroke="white" fill="white"><rect y="0" x="0" width="14207" stroke="none" height="10734"/></g><g transform="translate(32866,32758)" text-rendering="geometricPrecision" stroke-width="44" stroke-linejoin="round" stroke-linecap="round"><line y2="-25789" y1="-25176" x2="-23608" x1="-24659" fill="none"/><line y2="-25176" y1="-25789" x2="-22559" x1="-23608" fill="none"/><line y2="-25176" y1="-23951" x2="-24659" x1="-24659" fill="none"/><line y2="-25023" y1="-24104" x2="-24489" x1="-24489" fill="none"/><line y2="-25176" y1="-25569" x2="-24659" x1="-25332" fill="none"/><line y2="-25789" y1="-25176" x2="-21510" x1="-22559" fill="none"/><line y2="-23951" y1="-23951" x2="-26756" x1="-24659" fill="none"/><line y2="-23951" y1="-23339" x2="-24659" x1="-23608" fill="none"/><line y2="-25679" y1="-25176" x2="-25896" x1="-26756" fill="none"/><line y2="-25176" y1="-25789" x2="-20462" x1="-21510" fill="none"/><line y2="-25176" y1="-23951" x2="-26756" x1="-26756" fill="none"/><line y2="-23339" y1="-23951" x2="-27808" x1="-26756" fill="none"/><line y2="-23564" y1="-24024" x2="-27762" x1="-26973" fill="none"/><line y2="-23339" y1="-23951" x2="-23608" x1="-22559" fill="none"/><line y2="-25176" y1="-25789" x2="-26756" x1="-27808" fill="none"/><line y2="-25107" y1="-25566" x2="-26973" x1="-27762" fill="none"/><line y2="-23951" y1="-25176" x2="-20462" x1="-20462" fill="none"/><line y2="-23951" y1="-23339" x2="-28857" x1="-27808" fill="none"/><line y2="-23951" y1="-23036" x2="-22559" x1="-22206" fill="none"/><line y2="-25789" y1="-25176" x2="-27808" x1="-28857" fill="none"/><line y2="-22816" y1="-23951" x2="-20898" x1="-20462" fill="none"/><line y2="-22816" y1="-22816" x2="-21935" x1="-20898" fill="none"/><line y2="-25176" y1="-23951" x2="-28857" x1="-28857" fill="none"/><line y2="-25023" y1="-24104" x2="-28686" x1="-28686" fill="none"/><line y2="-29131" y1="-25789" x2="-23608" x1="-23608" fill="none"/><line y2="-23264" y1="-23951" x2="-19670" x1="-20462" fill="none"/><line y2="-23790" y1="-23264" x2="-18763" x1="-19670" fill="none"/><line y2="-26618" y1="-25789" x2="-21510" x1="-21510" fill="none"/><line y2="-28559" y1="-29131" x2="-28522" x1="-27539" fill="none"/><line y2="-30278" y1="-29131" x2="-27539" x1="-27539" fill="none"/><line y2="-28559" y1="-29131" x2="-26554" x1="-27539" fill="none"/><line y2="-29131" y1="-28559" x2="-29504" x1="-28522" fill="none"/><line y2="-27632" y1="-28559" x2="-28522" x1="-28522" fill="none"/><line y2="-30278" y1="-30850" x2="-27539" x1="-28522" fill="none"/><line y2="-30740" y1="-30278" x2="-26742" x1="-27539" fill="none"/><line y2="-30278" y1="-29131" x2="-25572" x1="-25572" fill="none"/><line y2="-29131" y1="-28559" x2="-25572" x1="-24590" fill="none"/><line y2="-29206" y1="-28776" x2="-25364" x1="-24627" fill="none"/><line y2="-27412" y1="-28559" x2="-26554" x1="-26554" fill="none"/><line y2="-30278" y1="-29131" x2="-29504" x1="-29504" fill="none"/><line y2="-29131" y1="-28559" x2="-29504" x1="-30486" fill="none"/><line y2="-27412" y1="-27412" x2="-28334" x1="-26554" fill="none"/><line y2="-26840" y1="-27302" x2="-29504" x1="-28709" fill="none"/><line y2="-30850" y1="-30278" x2="-28522" x1="-29504" fill="none"/><line y2="-30278" y1="-30740" x2="-25572" x1="-26366" fill="none"/><line y2="-30850" y1="-30278" x2="-24590" x1="-25572" fill="none"/><line y2="-30633" y1="-30203" x2="-24627" x1="-25364" fill="none"/><line y2="-28559" y1="-29131" x2="-24590" x1="-23608" fill="none"/><line y2="-28559" y1="-27412" x2="-30486" x1="-30486" fill="none"/><line y2="-28415" y1="-27557" x2="-30316" x1="-30316" fill="none"/><line y2="-27412" y1="-26840" x2="-30486" x1="-29504" fill="none"/><line y2="-30278" y1="-30850" x2="-23608" x1="-24590" fill="none"/><line y2="-29131" y1="-30278" x2="-23608" x1="-23608" fill="none"/><line y2="-29276" y1="-30134" x2="-23778" x1="-23778" fill="none"/><line y2="-29131" y1="-29654" x2="-31318" x1="-30411" fill="none"/><line y2="-31899" y1="-30850" x2="-28522" x1="-28522" fill="none"/><line y2="-31679" y1="-31070" x2="-26554" x1="-26554" fill="none"/><line y2="-29954" y1="-30691" x2="-31855" x1="-30599" fill="none"/><line y2="-30694" y1="-30278" x2="-22891" x1="-23608" fill="none"/><line y2="-30385" y1="-30694" x2="-21984" x1="-22513" fill="none"/><line y2="-27120" y1="-27536" x2="-20808" x1="-21528" fill="none"/><line y2="-27427" y1="-27120" x2="-19901" x1="-20433" fill="none"/><line y2="-28363" y1="-27568" x2="-21597" x1="-21597" fill="none"/><line y2="-28363" y1="-27536" x2="-21458" x1="-21458" fill="none"/><line y2="-32315" y1="-31899" x2="-29241" x1="-28522" fill="none"/><line y2="-32066" y1="-32315" x2="-30047" x1="-29616" fill="none"/><line y2="-32375" y1="-31959" x2="-27837" x1="-28556" fill="none"/><line y2="-32254" y1="-31838" x2="-27768" x1="-28487" fill="none"/><line y2="-30477" y1="-29954" x2="-32762" x1="-31855" fill="none"/><line y2="-29125" y1="-29954" x2="-31786" x1="-31786" fill="none"/><line y2="-29125" y1="-29954" x2="-31925" x1="-31925" fill="none"/><polygon stroke-width="1" stroke="none" points=" -21510 -25789 -21577 -24347 -21441 -24321"/><polygon stroke-width="1" points=" -21510 -25789 -21577 -24347 -21441 -24321" fill="none"/><polygon stroke-width="1" stroke="none" points=" -20462 -25176 -19557 -24740 -19624 -24619"/><polygon stroke-width="1" points=" -20462 -25176 -19557 -24740 -19624 -24619" fill="none"/><polygon stroke-width="1" stroke="none" points=" -21577 -24347 -22033 -23036 -21441 -24321"/><polygon stroke-width="1" points=" -21577 -24347 -22033 -23036 -21441 -24321" fill="none"/><polygon stroke-width="1" stroke="none" points=" -19627 -24523 -20462 -23951 -19554 -24402"/><polygon stroke-width="1" points=" -19627 -24523 -20462 -23951 -19554 -24402" fill="none"/><polygon stroke-width="1" stroke="none" points=" -29504 -30278 -30258 -30633 -30188 -30752"/><polygon stroke-width="1" points=" -29504 -30278 -30258 -30633 -30188 -30752" fill="none"/><polygon stroke-width="1" stroke="none" points=" -28522 -30850 -27837 -31327 -27768 -31205"/><polygon stroke-width="1" points=" -28522 -30850 -27837 -31327 -27768 -31205" fill="none"/><polygon stroke-width="1" stroke="none" points=" -27539 -30278 -26785 -29923 -26855 -29801"/><polygon stroke-width="1" points=" -27539 -30278 -26785 -29923 -26855 -29801" fill="none"/><line y2="-27482" y1="-27588" x2="-21481" x1="-21571" fill="none"/><line y2="-27347" y1="-27445" x2="-21651" x1="-21733" fill="none"/><line y2="-27212" y1="-27301" x2="-21820" x1="-21896" fill="none"/><line y2="-27077" y1="-27158" x2="-21990" x1="-22058" fill="none"/><line y2="-26942" y1="-27014" x2="-22159" x1="-22221" fill="none"/><line y2="-26807" y1="-26871" x2="-22329" x1="-22383" fill="none"/><line y2="-26672" y1="-26727" x2="-22499" x1="-22546" fill="none"/><line y2="-26537" y1="-26584" x2="-22668" x1="-22708" fill="none"/><line y2="-26402" y1="-26440" x2="-22838" x1="-22870" fill="none"/><line y2="-26267" y1="-26297" x2="-23007" x1="-23033" fill="none"/><line y2="-26132" y1="-26154" x2="-23177" x1="-23195" fill="none"/><line y2="-25997" y1="-26010" x2="-23347" x1="-23358" fill="none"/><line y2="-25862" y1="-25867" x2="-23516" x1="-23520" fill="none"/><line y2="-29062" y1="-29200" x2="-25572" x1="-25572" fill="none"/><line y2="-29070" y1="-29192" x2="-25789" x1="-25789" fill="none"/><line y2="-29077" y1="-29185" x2="-26005" x1="-26005" fill="none"/><line y2="-29085" y1="-29177" x2="-26222" x1="-26222" fill="none"/><line y2="-29092" y1="-29170" x2="-26439" x1="-26439" fill="none"/><line y2="-29100" y1="-29162" x2="-26655" x1="-26655" fill="none"/><line y2="-29108" y1="-29154" x2="-26872" x1="-26872" fill="none"/><line y2="-29115" y1="-29147" x2="-27089" x1="-27089" fill="none"/><line y2="-29123" y1="-29139" x2="-27305" x1="-27305" fill="none"/><line y2="-29130" y1="-29132" x2="-27522" x1="-27522" fill="none"/><line y2="-29715" y1="-29596" x2="-30376" x1="-30446" fill="none"/><line y2="-29594" y1="-29500" x2="-30196" x1="-30251" fill="none"/><line y2="-29473" y1="-29404" x2="-30015" x1="-30056" fill="none"/><line y2="-29353" y1="-29308" x2="-29835" x1="-29862" fill="none"/><line y2="-29232" y1="-29211" x2="-29655" x1="-29667" fill="none"/><line y2="-28082" y1="-28204" x2="-27837" x1="-27768" fill="none"/><line y2="-28206" y1="-28297" x2="-28016" x1="-27965" fill="none"/><line y2="-28331" y1="-28389" x2="-28194" x1="-28161" fill="none"/><line y2="-28455" y1="-28482" x2="-28373" x1="-28358" fill="none"/><text y="-32242" xml:space="preserve" x="-29582" stroke="none" font-size="433.3333" font-family="sans-serif">O</text><text y="-32242" xml:space="preserve" x="-27768" stroke="none" font-size="433.3333" font-family="sans-serif">O</text><text y="-31668" xml:space="preserve" x="-30578" stroke="none" font-size="433.3333" font-family="sans-serif">CH</text><text y="-31578" xml:space="preserve" x="-30001" stroke="none" font-size="313.3333" font-family="sans-serif">3</text><text y="-31197" xml:space="preserve" x="-27768" stroke="none" font-size="433.3333" font-family="sans-serif">OH</text><text y="-31720" xml:space="preserve" x="-26707" stroke="none" font-size="433.3333" font-family="sans-serif">CH</text><text y="-31630" xml:space="preserve" x="-26130" stroke="none" font-size="313.3333" font-family="sans-serif">3</text><text y="-30622" xml:space="preserve" x="-30564" stroke="none" font-size="433.3333" font-family="sans-serif">O</text><text y="-28727" xml:space="preserve" x="-32008" stroke="none" font-size="433.3333" font-family="sans-serif">O</text><text y="-30622" xml:space="preserve" x="-22854" stroke="none" font-size="433.3333" font-family="sans-serif">O</text><text y="-30099" xml:space="preserve" x="-21946" stroke="none" font-size="433.3333" font-family="sans-serif">CH</text><text y="-30009" xml:space="preserve" x="-21369" stroke="none" font-size="313.3333" font-family="sans-serif">3</text><text y="-26832" xml:space="preserve" x="-20771" stroke="none" font-size="433.3333" font-family="sans-serif">O</text><text y="-28403" xml:space="preserve" x="-21678" stroke="none" font-size="433.3333" font-family="sans-serif">O</text><text y="-27357" xml:space="preserve" x="-19864" stroke="none" font-size="433.3333" font-family="sans-serif">CH</text><text y="-27268" xml:space="preserve" x="-19286" stroke="none" font-size="313.3333" font-family="sans-serif">3</text><text y="-27233" xml:space="preserve" x="-28675" stroke="none" font-size="433.3333" font-family="sans-serif">N</text><text y="-30671" xml:space="preserve" x="-26707" stroke="none" font-size="433.3333" font-family="sans-serif">N</text><text y="-25610" xml:space="preserve" x="-25861" stroke="none" font-size="433.3333" font-family="sans-serif">NH</text><text y="-24393" xml:space="preserve" x="-19554" stroke="none" font-size="433.3333" font-family="sans-serif">O</text><text y="-22637" xml:space="preserve" x="-22276" stroke="none" font-size="433.3333" font-family="sans-serif">N</text><text y="-26658" xml:space="preserve" x="-21663" stroke="none" font-size="433.3333" font-family="sans-serif">H</text><text y="-27854" xml:space="preserve" x="-27768" stroke="none" font-size="433.3333" font-family="sans-serif">H</text><text y="-29576" xml:space="preserve" x="-26782" stroke="none" font-size="433.3333" font-family="sans-serif">H</text><text y="-29096" xml:space="preserve" x="-27941" stroke="none" font-style="italic" font-size="313.3333" font-family="sans-serif">R</text><text y="-28236" xml:space="preserve" x="-28923" stroke="none" font-style="italic" font-size="313.3333" font-family="sans-serif">R</text><text y="-30399" xml:space="preserve" x="-27692" stroke="none" font-style="italic" font-size="313.3333" font-family="sans-serif">R</text><text y="-29096" xml:space="preserve" x="-29408" stroke="none" font-style="italic" font-size="313.3333" font-family="sans-serif">R</text><text y="-30370" xml:space="preserve" x="-28675" stroke="none" font-style="italic" font-size="313.3333" font-family="sans-serif">S</text><text y="-29954" xml:space="preserve" x="-29408" stroke="none" font-style="italic" font-size="313.3333" font-family="sans-serif">R</text><text y="-25306" xml:space="preserve" x="-23761" stroke="none" font-style="italic" font-size="313.3333" font-family="sans-serif">S</text><text y="-25751" xml:space="preserve" x="-21912" stroke="none" font-style="italic" font-size="313.3333" font-family="sans-serif">S</text><text y="-24856" xml:space="preserve" x="-20863" stroke="none" font-style="italic" font-size="313.3333" font-family="sans-serif">R</text><text y="-23824" xml:space="preserve" x="-20895" stroke="none" font-style="italic" font-size="313.3333" font-family="sans-serif">S</text><text y="-22195" xml:space="preserve" x="-22631" stroke="none" font-style="italic" font-size="313.3333" font-family="sans-serif">R</text></g></g></svg>