<svg width="164.37" viewBox="0 0 5479 3771" text-rendering="auto" stroke-width="1" stroke-opacity="1" stroke-miterlimit="10" stroke-linejoin="miter" stroke-linecap="square" stroke-dashoffset="0" stroke-dasharray="none" stroke="black" shape-rendering="auto" image-rendering="auto" height="113.13" font-weight="normal" font-style="normal" font-size="12" font-family="'Dialog'" fill-opacity="1" fill="black" color-rendering="auto" color-interpolation="auto" xmlns="http://www.w3.org/2000/svg"><g><g stroke="white" fill="white"><rect y="0" x="0" width="5479" stroke="none" height="3771"/></g><g transform="translate(32866,32758)" text-rendering="geometricPrecision" stroke-width="44" stroke-linejoin="round" stroke-linecap="round"><line y2="-30154" y1="-30706" x2="-29807" x1="-30521" fill="none"/><line y2="-30711" y1="-30154" x2="-30896" x1="-31650" fill="none"/><line y2="-29091" y1="-30154" x2="-30177" x1="-29807" fill="none"/><line y2="-30154" y1="-29091" x2="-31650" x1="-31321" fill="none"/><line y2="-29091" y1="-29091" x2="-31321" x1="-30177" fill="none"/><line y2="-31899" y1="-31070" x2="-30708" x1="-30708" fill="none"/><line y2="-32422" y1="-31899" x2="-31616" x1="-30708" fill="none"/><line y2="-32104" y1="-32422" x2="-32190" x1="-31616" fill="none"/><line y2="-32375" y1="-31959" x2="-30024" x1="-30743" fill="none"/><line y2="-32254" y1="-31838" x2="-29954" x1="-30674" fill="none"/><line y2="-30264" y1="-30680" x2="-28181" x1="-28900" fill="none"/><line y2="-31509" y1="-30720" x2="-28969" x1="-28969" fill="none"/><line y2="-31509" y1="-30680" x2="-28831" x1="-28831" fill="none"/><line y2="-30619" y1="-30737" x2="-28865" x1="-28935" fill="none"/><line y2="-30523" y1="-30616" x2="-29060" x1="-29115" fill="none"/><line y2="-30427" y1="-30496" x2="-29255" x1="-29296" fill="none"/><line y2="-30330" y1="-30375" x2="-29450" x1="-29476" fill="none"/><line y2="-30234" y1="-30255" x2="-29644" x1="-29656" fill="none"/><text y="-32242" xml:space="preserve" x="-29952" stroke="none" font-size="433.3333" font-family="sans-serif">O</text><text y="-31734" xml:space="preserve" x="-32762" stroke="none" font-size="433.3333" font-family="sans-serif">Cl</text><text y="-29975" xml:space="preserve" x="-28146" stroke="none" font-size="433.3333" font-family="sans-serif">OH</text><text y="-31546" xml:space="preserve" x="-29053" stroke="none" font-size="433.3333" font-family="sans-serif">O</text><text y="-30671" xml:space="preserve" x="-30859" stroke="none" font-size="433.3333" font-family="sans-serif">N</text><text y="-29879" xml:space="preserve" x="-30229" stroke="none" font-style="italic" font-size="313.3333" font-family="sans-serif">S</text></g></g></svg>