<svg width="254.01" viewBox="0 0 8467 6946" text-rendering="auto" stroke-width="1" stroke-opacity="1" stroke-miterlimit="10" stroke-linejoin="miter" stroke-linecap="square" stroke-dashoffset="0" stroke-dasharray="none" stroke="black" shape-rendering="auto" image-rendering="auto" height="208.38" font-weight="normal" font-style="normal" font-size="12" font-family="'Dialog'" fill-opacity="1" fill="black" color-rendering="auto" color-interpolation="auto" xmlns="http://www.w3.org/2000/svg"><g><g stroke="white" fill="white"><rect y="0" x="0" width="8467" stroke="none" height="6946"/></g><g transform="translate(32866,32758)" text-rendering="geometricPrecision" stroke-width="44" stroke-linejoin="round" stroke-linecap="round"><line y2="-28438" y1="-29042" x2="-26572" x1="-27606" fill="none"/><line y2="-29042" y1="-28438" x2="-27606" x1="-28637" fill="none"/><line y2="-30249" y1="-29042" x2="-27606" x1="-27606" fill="none"/><line y2="-30099" y1="-29195" x2="-27435" x1="-27435" fill="none"/><line y2="-27233" y1="-28438" x2="-26572" x1="-26572" fill="none"/><line y2="-28438" y1="-29042" x2="-26572" x1="-25537" fill="none"/><line y2="-28660" y1="-29114" x2="-26528" x1="-25751" fill="none"/><line y2="-27233" y1="-28438" x2="-28637" x1="-28637" fill="none"/><line y2="-28438" y1="-29042" x2="-28637" x1="-29671" fill="none"/><line y2="-28368" y1="-28822" x2="-28854" x1="-29628" fill="none"/><line y2="-30850" y1="-30249" x2="-26572" x1="-27606" fill="none"/><line y2="-26629" y1="-27233" x2="-27606" x1="-26572" fill="none"/><line y2="-27233" y1="-26739" x2="-26572" x1="-25725" fill="none"/><line y2="-29042" y1="-30249" x2="-25537" x1="-25537" fill="none"/><line y2="-28438" y1="-29042" x2="-24503" x1="-25537" fill="none"/><line y2="-27233" y1="-26629" x2="-28637" x1="-27606" fill="none"/><line y2="-26629" y1="-27233" x2="-29671" x1="-28637" fill="none"/><line y2="-26852" y1="-27305" x2="-29628" x1="-28854" fill="none"/><line y2="-29042" y1="-28438" x2="-29671" x1="-30706" fill="none"/><line y2="-30249" y1="-30850" x2="-25537" x1="-26572" fill="none"/><line y2="-30177" y1="-30628" x2="-25751" x1="-26528" fill="none"/><line y2="-26849" y1="-27233" x2="-25162" x1="-24503" fill="none"/><line y2="-27233" y1="-28438" x2="-24503" x1="-24503" fill="none"/><line y2="-27233" y1="-26629" x2="-30706" x1="-29671" fill="none"/><line y2="-28438" y1="-27233" x2="-30706" x1="-30706" fill="none"/><line y2="-28288" y1="-27383" x2="-30535" x1="-30535" fill="none"/><line y2="-31679" y1="-30850" x2="-26572" x1="-26572" fill="none"/><line y2="-32315" y1="-32008" x2="-25852" x1="-26384" fill="none"/><line y2="-28854" y1="-28438" x2="-31425" x1="-30706" fill="none"/><line y2="-28605" y1="-28854" x2="-32231" x1="-31800" fill="none"/><line y2="-30552" y1="-30249" x2="-28132" x1="-27606" fill="none"/><line y2="-26930" y1="-27233" x2="-31231" x1="-30706" fill="none"/><line y2="-26404" y1="-26404" x2="-26641" x1="-26502" fill="none"/><line y2="-26621" y1="-26621" x2="-26623" x1="-26520" fill="none"/><line y2="-26837" y1="-26837" x2="-26605" x1="-26539" fill="none"/><line y2="-27054" y1="-27054" x2="-26587" x1="-26557" fill="none"/><text y="-30593" xml:space="preserve" x="-28663" stroke="none" font-size="433.3333" font-family="sans-serif">OH</text><text y="-31720" xml:space="preserve" x="-26725" stroke="none" font-size="433.3333" font-family="sans-serif">O</text><text y="-32242" xml:space="preserve" x="-25818" stroke="none" font-size="433.3333" font-family="sans-serif">CH</text><text y="-32153" xml:space="preserve" x="-25240" stroke="none" font-size="313.3333" font-family="sans-serif">3</text><text y="-28784" xml:space="preserve" x="-31766" stroke="none" font-size="433.3333" font-family="sans-serif">O</text><text y="-28210" xml:space="preserve" x="-32762" stroke="none" font-size="433.3333" font-family="sans-serif">CH</text><text y="-28120" xml:space="preserve" x="-32185" stroke="none" font-size="313.3333" font-family="sans-serif">3</text><text y="-26531" xml:space="preserve" x="-31766" stroke="none" font-size="433.3333" font-family="sans-serif">OH</text><text y="-26450" xml:space="preserve" x="-25690" stroke="none" font-size="433.3333" font-family="sans-serif">NH</text><text y="-26008" xml:space="preserve" x="-26725" stroke="none" font-size="433.3333" font-family="sans-serif">H</text><text y="-27198" xml:space="preserve" x="-26973" stroke="none" font-style="italic" font-size="313.3333" font-family="sans-serif">S</text></g></g></svg>