<svg width="401.16" viewBox="0 0 13372 3758" text-rendering="auto" stroke-width="1" stroke-opacity="1" stroke-miterlimit="10" stroke-linejoin="miter" stroke-linecap="square" stroke-dashoffset="0" stroke-dasharray="none" stroke="black" shape-rendering="auto" image-rendering="auto" height="112.74" font-weight="normal" font-style="normal" font-size="12" font-family="'Dialog'" fill-opacity="1" fill="black" color-rendering="auto" color-interpolation="auto" xmlns="http://www.w3.org/2000/svg"><g><g stroke="white" fill="white"><rect y="0" x="0" width="13372" stroke="none" height="3758"/></g><g transform="translate(32866,32866)" text-rendering="geometricPrecision" stroke-width="44" stroke-linejoin="round" stroke-linecap="round"><line y2="-30642" y1="-31055" x2="-26291" x1="-27011" fill="none"/><line y2="-31055" y1="-30752" x2="-25196" x1="-25725" fill="none"/><line y2="-30532" y1="-31055" x2="-24289" x1="-25196" fill="none"/><line y2="-30948" y1="-30532" x2="-23570" x1="-24289" fill="none"/><line y2="-30532" y1="-30948" x2="-22475" x1="-23194" fill="none"/><line y2="-30532" y1="-31055" x2="-27918" x1="-27011" fill="none"/><line y2="-31055" y1="-30532" x2="-28825" x1="-27918" fill="none"/><line y2="-32104" y1="-31055" x2="-27011" x1="-27011" fill="none"/><line y2="-31055" y1="-30532" x2="-21568" x1="-22475" fill="none"/><line y2="-29703" y1="-30532" x2="-22406" x1="-22406" fill="none"/><line y2="-29703" y1="-30532" x2="-22544" x1="-22544" fill="none"/><line y2="-30489" y1="-31055" x2="-29813" x1="-28825" fill="none"/><line y2="-30706" y1="-31133" x2="-29775" x1="-29033" fill="none"/><line y2="-31055" y1="-32193" x2="-28825" x1="-28825" fill="none"/><line y2="-31055" y1="-30489" x2="-30795" x1="-29813" fill="none"/><line y2="-32193" y1="-32762" x2="-28825" x1="-29813" fill="none"/><line y2="-32118" y1="-32543" x2="-29033" x1="-29775" fill="none"/><line y2="-32193" y1="-31055" x2="-30795" x1="-30795" fill="none"/><line y2="-32052" y1="-31200" x2="-30625" x1="-30625" fill="none"/><line y2="-32762" y1="-32193" x2="-29813" x1="-30795" fill="none"/><line y2="-30532" y1="-31055" x2="-31702" x1="-30795" fill="none"/><line y2="-32193" y1="-31055" x2="-21568" x1="-21568" fill="none"/><line y2="-32052" y1="-31200" x2="-21398" x1="-21398" fill="none"/><line y2="-31055" y1="-30489" x2="-21568" x1="-20580" fill="none"/><line y2="-32762" y1="-32193" x2="-20580" x1="-21568" fill="none"/><line y2="-30489" y1="-31055" x2="-20580" x1="-19598" fill="none"/><line y2="-30706" y1="-31133" x2="-20542" x1="-19806" fill="none"/><line y2="-32193" y1="-32762" x2="-19598" x1="-20580" fill="none"/><line y2="-32118" y1="-32546" x2="-19806" x1="-20542" fill="none"/><line y2="-31055" y1="-32193" x2="-19598" x1="-19598" fill="none"/><line y2="-30948" y1="-30532" x2="-32422" x1="-31702" fill="none"/><line y2="-29845" y1="-30532" x2="-32101" x1="-31702" fill="none"/><line y2="-29845" y1="-30532" x2="-31306" x1="-31702" fill="none"/><text y="-30353" xml:space="preserve" x="-26257" stroke="none" font-size="433.3333" font-family="sans-serif">NH</text><text y="-30876" xml:space="preserve" x="-23535" stroke="none" font-size="433.3333" font-family="sans-serif">O</text><text y="-29304" xml:space="preserve" x="-22628" stroke="none" font-size="433.3333" font-family="sans-serif">O</text><text y="-30876" xml:space="preserve" x="-32762" stroke="none" font-size="433.3333" font-family="sans-serif">F</text><text y="-29446" xml:space="preserve" x="-32378" stroke="none" font-size="433.3333" font-family="sans-serif">F</text><text y="-29446" xml:space="preserve" x="-31332" stroke="none" font-size="433.3333" font-family="sans-serif">F</text></g></g></svg>