<svg width="222.15" viewBox="0 0 7405 5352" text-rendering="auto" stroke-width="1" stroke-opacity="1" stroke-miterlimit="10" stroke-linejoin="miter" stroke-linecap="square" stroke-dashoffset="0" stroke-dasharray="none" stroke="black" shape-rendering="auto" image-rendering="auto" height="160.56" font-weight="normal" font-style="normal" font-size="12" font-family="'Dialog'" fill-opacity="1" fill="black" color-rendering="auto" color-interpolation="auto" xmlns="http://www.w3.org/2000/svg"><g><g stroke="white" fill="white"><rect y="0" x="0" width="7405" stroke="none" height="5352"/></g><g transform="translate(32866,32758)" text-rendering="geometricPrecision" stroke-width="44" stroke-linejoin="round" stroke-linecap="round"><line y2="-28082" y1="-29229" x2="-30798" x1="-30798" fill="none"/><line y2="-28227" y1="-29088" x2="-30968" x1="-30968" fill="none"/><line y2="-29804" y1="-29229" x2="-29816" x1="-30798" fill="none"/><line y2="-29229" y1="-29804" x2="-30798" x1="-31780" fill="none"/><line y2="-28082" y1="-27510" x2="-30798" x1="-29816" fill="none"/><line y2="-27510" y1="-28082" x2="-31780" x1="-30798" fill="none"/><line y2="-29339" y1="-29804" x2="-29021" x1="-29816" fill="none"/><line y2="-29252" y1="-29599" x2="-29206" x1="-29801" fill="none"/><line y2="-29804" y1="-29229" x2="-31780" x1="-32762" fill="none"/><line y2="-29585" y1="-29154" x2="-31818" x1="-32554" fill="none"/><line y2="-27510" y1="-28082" x2="-29816" x1="-28834" fill="none"/><line y2="-27730" y1="-28158" x2="-29778" x1="-29042" fill="none"/><line y2="-28082" y1="-27510" x2="-32762" x1="-31780" fill="none"/><line y2="-28158" y1="-27730" x2="-32554" x1="-31818" fill="none"/><line y2="-28082" y1="-29010" x2="-28834" x1="-28834" fill="none"/><line y2="-29229" y1="-28082" x2="-32762" x1="-32762" fill="none"/><line y2="-30850" y1="-29804" x2="-29816" x1="-29816" fill="none"/><line y2="-31266" y1="-30850" x2="-29096" x1="-29816" fill="none"/><line y2="-31096" y1="-30784" x2="-29117" x1="-29657" fill="none"/><line y2="-30960" y1="-31266" x2="-28189" x1="-28721" fill="none"/><line y2="-31376" y1="-31070" x2="-27094" x1="-27623" fill="none"/><line y2="-30960" y1="-31376" x2="-26375" x1="-27094" fill="none"/><line y2="-32202" y1="-31376" x2="-27164" x1="-27164" fill="none"/><line y2="-32202" y1="-31376" x2="-27025" x1="-27025" fill="none"/><text y="-31197" xml:space="preserve" x="-29062" stroke="none" font-size="433.3333" font-family="sans-serif">N</text><text y="-30671" xml:space="preserve" x="-28155" stroke="none" font-size="433.3333" font-family="sans-serif">NH</text><text y="-30671" xml:space="preserve" x="-26340" stroke="none" font-size="433.3333" font-family="sans-serif">NH</text><text y="-30581" xml:space="preserve" x="-25763" stroke="none" font-size="313.3333" font-family="sans-serif">2</text><text y="-32242" xml:space="preserve" x="-27248" stroke="none" font-size="433.3333" font-family="sans-serif">S</text><text y="-29050" xml:space="preserve" x="-28987" stroke="none" font-size="433.3333" font-family="sans-serif">N</text></g></g></svg>