<svg width="379.29" viewBox="0 0 12643 2283" text-rendering="auto" stroke-width="1" stroke-opacity="1" stroke-miterlimit="10" stroke-linejoin="miter" stroke-linecap="square" stroke-dashoffset="0" stroke-dasharray="none" stroke="black" shape-rendering="auto" image-rendering="auto" height="68.49" font-weight="normal" font-style="normal" font-size="12" font-family="'Dialog'" fill-opacity="1" fill="black" color-rendering="auto" color-interpolation="auto" xmlns="http://www.w3.org/2000/svg"><g><g stroke="white" fill="white"><rect y="0" x="0" width="12643" stroke="none" height="2283"/></g><g transform="translate(32866,32758)" text-rendering="geometricPrecision" stroke-width="44" stroke-linejoin="round" stroke-linecap="round"><line y2="-30850" y1="-31376" x2="-23691" x1="-24598" fill="none"/><line y2="-30960" y1="-31376" x2="-25318" x1="-24598" fill="none"/><line y2="-31376" y1="-30960" x2="-26413" x1="-25693" fill="none"/><line y2="-30850" y1="-31376" x2="-27320" x1="-26413" fill="none"/><line y2="-31376" y1="-30850" x2="-28227" x1="-27320" fill="none"/><line y2="-30850" y1="-31376" x2="-29134" x1="-28227" fill="none"/><line y2="-31376" y1="-30850" x2="-30041" x1="-29134" fill="none"/><line y2="-30850" y1="-31376" x2="-30948" x1="-30041" fill="none"/><line y2="-31376" y1="-30850" x2="-31855" x1="-30948" fill="none"/><line y2="-30850" y1="-31376" x2="-32762" x1="-31855" fill="none"/><line y2="-32202" y1="-31376" x2="-24668" x1="-24668" fill="none"/><line y2="-32202" y1="-31376" x2="-24529" x1="-24529" fill="none"/><line y2="-30850" y1="-30850" x2="-22643" x1="-23691" fill="none"/><line y2="-30989" y1="-30989" x2="-22773" x1="-23561" fill="none"/><line y2="-31376" y1="-30850" x2="-21736" x1="-22643" fill="none"/><line y2="-30960" y1="-31376" x2="-21016" x1="-21736" fill="none"/><line y2="-32202" y1="-31376" x2="-21805" x1="-21805" fill="none"/><line y2="-32202" y1="-31376" x2="-21666" x1="-21666" fill="none"/><text y="-30671" xml:space="preserve" x="-25659" stroke="none" font-size="433.3333" font-family="sans-serif">O</text><text y="-32242" xml:space="preserve" x="-24752" stroke="none" font-size="433.3333" font-family="sans-serif">O</text><text y="-30671" xml:space="preserve" x="-20982" stroke="none" font-size="433.3333" font-family="sans-serif">OH</text><text y="-32242" xml:space="preserve" x="-21889" stroke="none" font-size="433.3333" font-family="sans-serif">O</text><text y="-31067" xml:space="preserve" x="-23319" stroke="none" font-style="italic" font-size="313.3333" font-family="sans-serif">Z</text></g></g></svg>