<svg width="319.26" viewBox="0 0 10642 3834" text-rendering="auto" stroke-width="1" stroke-opacity="1" stroke-miterlimit="10" stroke-linejoin="miter" stroke-linecap="square" stroke-dashoffset="0" stroke-dasharray="none" stroke="black" shape-rendering="auto" image-rendering="auto" height="115.02" font-weight="normal" font-style="normal" font-size="12" font-family="'Dialog'" fill-opacity="1" fill="black" color-rendering="auto" color-interpolation="auto" xmlns="http://www.w3.org/2000/svg"><g><g stroke="white" fill="white"><rect y="0" x="0" width="10642" stroke="none" height="3834"/></g><g transform="translate(32866,32866)" text-rendering="geometricPrecision" stroke-width="44" stroke-linejoin="round" stroke-linecap="round"><line y2="-31044" y1="-32190" x2="-30798" x1="-30798" fill="none"/><line y2="-31185" y1="-32046" x2="-30968" x1="-30968" fill="none"/><line y2="-32762" y1="-32190" x2="-29816" x1="-30798" fill="none"/><line y2="-32190" y1="-32762" x2="-30798" x1="-31780" fill="none"/><line y2="-31044" y1="-30469" x2="-30798" x1="-29816" fill="none"/><line y2="-30469" y1="-31044" x2="-31780" x1="-30798" fill="none"/><line y2="-32190" y1="-32762" x2="-28834" x1="-29816" fill="none"/><line y2="-32115" y1="-32543" x2="-29042" x1="-29778" fill="none"/><line y2="-32762" y1="-32190" x2="-31780" x1="-32762" fill="none"/><line y2="-32543" y1="-32115" x2="-31818" x1="-32554" fill="none"/><line y2="-30469" y1="-31044" x2="-29816" x1="-28834" fill="none"/><line y2="-30688" y1="-31119" x2="-29778" x1="-29042" fill="none"/><line y2="-31044" y1="-30469" x2="-32762" x1="-31780" fill="none"/><line y2="-31119" y1="-30688" x2="-32554" x1="-31818" fill="none"/><line y2="-31044" y1="-32190" x2="-28834" x1="-28834" fill="none"/><line y2="-32190" y1="-31044" x2="-32762" x1="-32762" fill="none"/><line y2="-30628" y1="-31044" x2="-28114" x1="-28834" fill="none"/><line y2="-31044" y1="-30628" x2="-27019" x1="-27739" fill="none"/><line y2="-30628" y1="-31044" x2="-26300" x1="-27019" fill="none"/><line y2="-31873" y1="-31044" x2="-27089" x1="-27089" fill="none"/><line y2="-31873" y1="-31044" x2="-26950" x1="-26950" fill="none"/><line y2="-31044" y1="-30628" x2="-25205" x1="-25924" fill="none"/><line y2="-29692" y1="-30301" x2="-26112" x1="-26112" fill="none"/><line y2="-31044" y1="-30474" x2="-25205" x1="-24220" fill="none"/><line y2="-31119" y1="-30691" x2="-24997" x1="-24258" fill="none"/><line y2="-32182" y1="-31044" x2="-25205" x1="-25205" fill="none"/><line y2="-30474" y1="-31044" x2="-24220" x1="-23235" fill="none"/><line y2="-32748" y1="-32182" x2="-24220" x1="-25205" fill="none"/><line y2="-32531" y1="-32104" x2="-24258" x1="-24997" fill="none"/><line y2="-31044" y1="-32182" x2="-23235" x1="-23235" fill="none"/><line y2="-31185" y1="-32037" x2="-23405" x1="-23405" fill="none"/><line y2="-32182" y1="-32748" x2="-23235" x1="-24220" fill="none"/><line y2="-30518" y1="-31044" x2="-22328" x1="-23235" fill="none"/><text y="-30339" xml:space="preserve" x="-28077" stroke="none" font-size="433.3333" font-family="sans-serif">O</text><text y="-30339" xml:space="preserve" x="-26262" stroke="none" font-size="433.3333" font-family="sans-serif">N</text><text y="-31913" xml:space="preserve" x="-27170" stroke="none" font-size="433.3333" font-family="sans-serif">S</text><text y="-29293" xml:space="preserve" x="-26262" stroke="none" font-size="433.3333" font-family="sans-serif">CH</text><text y="-29203" xml:space="preserve" x="-25685" stroke="none" font-size="313.3333" font-family="sans-serif">3</text></g></g></svg>