<svg width="577.98" viewBox="0 0 19266 9667" text-rendering="auto" stroke-width="1" stroke-opacity="1" stroke-miterlimit="10" stroke-linejoin="miter" stroke-linecap="square" stroke-dashoffset="0" stroke-dasharray="none" stroke="black" shape-rendering="auto" image-rendering="auto" height="290.01" font-weight="normal" font-style="normal" font-size="12" font-family="'Dialog'" fill-opacity="1" fill="black" color-rendering="auto" color-interpolation="auto" xmlns="http://www.w3.org/2000/svg"><g><g stroke="white" fill="white"><rect y="0" x="0" width="19266" stroke="none" height="9667"/></g><g transform="translate(32866,32758)" text-rendering="geometricPrecision" stroke-width="44" stroke-linejoin="round" stroke-linecap="round"><line y2="-29088" y1="-28516" x2="-21268" x1="-22250" fill="none"/><line y2="-28871" y1="-28441" x2="-21305" x1="-22042" fill="none"/><line y2="-29088" y1="-28516" x2="-23232" x1="-22250" fill="none"/><line y2="-27369" y1="-28516" x2="-22250" x1="-22250" fill="none"/><line y2="-28516" y1="-29088" x2="-20285" x1="-21268" fill="none"/><line y2="-30235" y1="-29088" x2="-21268" x1="-21268" fill="none"/><line y2="-29088" y1="-28516" x2="-23232" x1="-24214" fill="none"/><line y2="-30235" y1="-29088" x2="-23232" x1="-23232" fill="none"/><line y2="-30093" y1="-29232" x2="-23062" x1="-23062" fill="none"/><line y2="-26797" y1="-27369" x2="-23232" x1="-22250" fill="none"/><line y2="-27369" y1="-26797" x2="-22250" x1="-21268" fill="none"/><line y2="-27444" y1="-27014" x2="-22042" x1="-21305" fill="none"/><line y2="-28516" y1="-29088" x2="-20285" x1="-19303" fill="none"/><line y2="-27369" y1="-28516" x2="-20285" x1="-20285" fill="none"/><line y2="-27513" y1="-28371" x2="-20456" x1="-20456" fill="none"/><line y2="-30810" y1="-30235" x2="-20285" x1="-21268" fill="none"/><line y2="-30235" y1="-30810" x2="-21268" x1="-22250" fill="none"/><line y2="-30160" y1="-30590" x2="-21476" x1="-22212" fill="none"/><line y2="-27369" y1="-28516" x2="-24214" x1="-24214" fill="none"/><line y2="-28516" y1="-29088" x2="-24214" x1="-25196" fill="none"/><line y2="-28441" y1="-28871" x2="-24425" x1="-25162" fill="none"/><line y2="-30810" y1="-30235" x2="-22250" x1="-23232" fill="none"/><line y2="-27369" y1="-26797" x2="-24214" x1="-23232" fill="none"/><line y2="-25650" y1="-26797" x2="-23232" x1="-23232" fill="none"/><line y2="-25794" y1="-26652" x2="-23402" x1="-23402" fill="none"/><line y2="-26797" y1="-27369" x2="-21268" x1="-20285" fill="none"/><line y2="-29088" y1="-30015" x2="-19303" x1="-19303" fill="none"/><line y2="-30344" y1="-30810" x2="-19491" x1="-20285" fill="none"/><line y2="-26797" y1="-27369" x2="-25196" x1="-24214" fill="none"/><line y2="-27014" y1="-27444" x2="-25162" x1="-24425" fill="none"/><line y2="-29088" y1="-28516" x2="-25196" x1="-26182" fill="none"/><line y2="-25078" y1="-25650" x2="-24214" x1="-23232" fill="none"/><line y2="-25650" y1="-26797" x2="-25196" x1="-25196" fill="none"/><line y2="-27369" y1="-26797" x2="-26182" x1="-25196" fill="none"/><line y2="-28516" y1="-27369" x2="-26182" x1="-26182" fill="none"/><line y2="-28371" y1="-27513" x2="-26011" x1="-26011" fill="none"/><line y2="-25650" y1="-25078" x2="-25196" x1="-24214" fill="none"/><line y2="-25725" y1="-25295" x2="-24988" x1="-24252" fill="none"/><line y2="-25078" y1="-25650" x2="-26182" x1="-25196" fill="none"/><line y2="-27369" y1="-26797" x2="-26182" x1="-27164" fill="none"/><line y2="-25540" y1="-25078" x2="-26976" x1="-26182" fill="none"/><line y2="-26797" y1="-25870" x2="-27164" x1="-27164" fill="none"/><line y2="-30758" y1="-30344" x2="-18396" x1="-19115" fill="none"/><line y2="-25127" y1="-25540" x2="-28071" x1="-27352" fill="none"/><line y2="-28735" y1="-29148" x2="-18549" x1="-19268" fill="none"/><line y2="-28611" y1="-29027" x2="-18618" x1="-19338" fill="none"/><line y2="-31636" y1="-30810" x2="-20355" x1="-20355" fill="none"/><line y2="-31636" y1="-30810" x2="-20216" x1="-20216" fill="none"/><line y2="-24249" y1="-25078" x2="-26109" x1="-26109" fill="none"/><line y2="-24249" y1="-25078" x2="-26251" x1="-26251" fill="none"/><line y2="-27149" y1="-26736" x2="-27918" x1="-27198" fill="none"/><line y2="-27274" y1="-26858" x2="-27846" x1="-27129" fill="none"/><line y2="-31896" y1="-30758" x2="-18396" x1="-18396" fill="none"/><line y2="-31754" y1="-30902" x2="-18226" x1="-18226" fill="none"/><line y2="-30758" y1="-30191" x2="-18396" x1="-17408" fill="none"/><line y2="-32465" y1="-31896" x2="-17408" x1="-18396" fill="none"/><line y2="-30191" y1="-30758" x2="-17408" x1="-16426" fill="none"/><line y2="-30408" y1="-30836" x2="-17370" x1="-16634" fill="none"/><line y2="-31896" y1="-32465" x2="-16426" x1="-17408" fill="none"/><line y2="-31821" y1="-32248" x2="-16634" x1="-17370" fill="none"/><line y2="-30758" y1="-31896" x2="-16426" x1="-16426" fill="none"/><line y2="-32312" y1="-31896" x2="-15706" x1="-16426" fill="none"/><line y2="-31896" y1="-32312" x2="-14612" x1="-15331" fill="none"/><line y2="-32422" y1="-31896" x2="-13704" x1="-14612" fill="none"/><line y2="-23989" y1="-25127" x2="-28071" x1="-28071" fill="none"/><line y2="-24130" y1="-24983" x2="-28241" x1="-28241" fill="none"/><line y2="-25127" y1="-25693" x2="-28071" x1="-29053" fill="none"/><line y2="-23420" y1="-23989" x2="-29053" x1="-28071" fill="none"/><line y2="-25693" y1="-25127" x2="-29053" x1="-30041" fill="none"/><line y2="-25477" y1="-25049" x2="-29091" x1="-29830" fill="none"/><line y2="-23989" y1="-23420" x2="-30041" x1="-29053" fill="none"/><line y2="-24067" y1="-23639" x2="-29830" x1="-29091" fill="none"/><line y2="-25127" y1="-23989" x2="-30041" x1="-30041" fill="none"/><line y2="-23573" y1="-23989" x2="-30760" x1="-30041" fill="none"/><line y2="-23989" y1="-23573" x2="-31855" x1="-31136" fill="none"/><line y2="-23466" y1="-23989" x2="-32762" x1="-31855" fill="none"/><text y="-28386" xml:space="preserve" x="-18546" stroke="none" font-size="433.3333" font-family="sans-serif">O</text><text y="-31676" xml:space="preserve" x="-20438" stroke="none" font-size="433.3333" font-family="sans-serif">O</text><text y="-23850" xml:space="preserve" x="-26332" stroke="none" font-size="433.3333" font-family="sans-serif">O</text><text y="-27141" xml:space="preserve" x="-28221" stroke="none" font-size="433.3333" font-family="sans-serif">O</text><text y="-32242" xml:space="preserve" x="-15669" stroke="none" font-size="433.3333" font-family="sans-serif">O</text><text y="-23287" xml:space="preserve" x="-31098" stroke="none" font-size="433.3333" font-family="sans-serif">O</text><text y="-30056" xml:space="preserve" x="-19453" stroke="none" font-size="433.3333" font-family="sans-serif">N</text><text y="-25471" xml:space="preserve" x="-27314" stroke="none" font-size="433.3333" font-family="sans-serif">N</text></g></g></svg>