<svg width="128.7" viewBox="0 0 4290 4867" text-rendering="auto" stroke-width="1" stroke-opacity="1" stroke-miterlimit="10" stroke-linejoin="miter" stroke-linecap="square" stroke-dashoffset="0" stroke-dasharray="none" stroke="black" shape-rendering="auto" image-rendering="auto" height="146.01" font-weight="normal" font-style="normal" font-size="12" font-family="'Dialog'" fill-opacity="1" fill="black" color-rendering="auto" color-interpolation="auto" xmlns="http://www.w3.org/2000/svg"><g><g stroke="white" fill="white"><rect y="0" x="0" width="4290" stroke="none" height="4867"/></g><g transform="translate(32866,32866)" text-rendering="geometricPrecision" stroke-width="44" stroke-linejoin="round" stroke-linecap="round"><line y2="-29995" y1="-31142" x2="-30645" x1="-30645" fill="none"/><line y2="-30139" y1="-30997" x2="-30815" x1="-30815" fill="none"/><line y2="-31142" y1="-31714" x2="-30645" x1="-31627" fill="none"/><line y2="-31714" y1="-31142" x2="-29663" x1="-30645" fill="none"/><line y2="-29423" y1="-29995" x2="-31627" x1="-30645" fill="none"/><line y2="-29995" y1="-29423" x2="-30645" x1="-29663" fill="none"/><line y2="-31714" y1="-31142" x2="-31627" x1="-32609" fill="none"/><line y2="-31497" y1="-31067" x2="-31665" x1="-32401" fill="none"/><line y2="-31142" y1="-31714" x2="-28680" x1="-29663" fill="none"/><line y2="-31067" y1="-31497" x2="-28888" x1="-29625" fill="none"/><line y2="-29885" y1="-29423" x2="-32422" x1="-31627" fill="none"/><line y2="-29975" y1="-29628" x2="-32237" x1="-31642" fill="none"/><line y2="-29423" y1="-29995" x2="-29663" x1="-28680" fill="none"/><line y2="-29640" y1="-30070" x2="-29625" x1="-28888" fill="none"/><line y2="-31142" y1="-30214" x2="-32609" x1="-32609" fill="none"/><line y2="-29995" y1="-31142" x2="-28680" x1="-28680" fill="none"/><line y2="-32762" y1="-31714" x2="-31627" x1="-31627" fill="none"/><line y2="-28594" y1="-29423" x2="-31627" x1="-31627" fill="none"/><text y="-28195" xml:space="preserve" x="-31858" stroke="none" font-size="433.3333" font-family="sans-serif">Cl</text><text y="-29816" xml:space="preserve" x="-32762" stroke="none" font-size="433.3333" font-family="sans-serif">N</text></g></g></svg>