<svg width="210.33" viewBox="0 0 7011 8441" text-rendering="auto" stroke-width="1" stroke-opacity="1" stroke-miterlimit="10" stroke-linejoin="miter" stroke-linecap="square" stroke-dashoffset="0" stroke-dasharray="none" stroke="black" shape-rendering="auto" image-rendering="auto" height="253.23" font-weight="normal" font-style="normal" font-size="12" font-family="'Dialog'" fill-opacity="1" fill="black" color-rendering="auto" color-interpolation="auto" xmlns="http://www.w3.org/2000/svg"><g><g stroke="white" fill="white"><rect y="0" x="0" width="7011" stroke="none" height="8441"/></g><g transform="translate(32866,32866)" text-rendering="geometricPrecision" stroke-width="44" stroke-linejoin="round" stroke-linecap="round"><line y2="-26248" y1="-26820" x2="-27924" x1="-28906" fill="none"/><line y2="-25101" y1="-26248" x2="-27924" x1="-27924" fill="none"/><line y2="-25246" y1="-26104" x2="-28094" x1="-28094" fill="none"/><line y2="-26820" y1="-26248" x2="-26941" x1="-27924" fill="none"/><line y2="-26820" y1="-26248" x2="-28906" x1="-29888" fill="none"/><line y2="-26603" y1="-26173" x2="-28943" x1="-29680" fill="none"/><line y2="-24529" y1="-25101" x2="-28906" x1="-27924" fill="none"/><line y2="-25101" y1="-24529" x2="-27924" x1="-26941" fill="none"/><line y2="-26248" y1="-26820" x2="-25959" x1="-26941" fill="none"/><line y2="-26173" y1="-26603" x2="-26167" x1="-26904" fill="none"/><line y2="-26248" y1="-25101" x2="-29888" x1="-29888" fill="none"/><line y2="-25101" y1="-24529" x2="-29888" x1="-28906" fill="none"/><line y2="-25176" y1="-24746" x2="-29680" x1="-28943" fill="none"/><line y2="-24529" y1="-25101" x2="-26941" x1="-25959" fill="none"/><line y2="-24746" y1="-25176" x2="-26904" x1="-26167" fill="none"/><line y2="-25101" y1="-26248" x2="-25959" x1="-25959" fill="none"/><line y2="-27649" y1="-26820" x2="-28906" x1="-28906" fill="none"/><line y2="-28224" y1="-27915" x2="-29660" x1="-29128" fill="none"/><line y2="-28345" y1="-28036" x2="-29590" x1="-29059" fill="none"/><line y2="-29440" y1="-28611" x2="-29813" x1="-29813" fill="none"/><line y2="-26551" y1="-26248" x2="-30417" x1="-29888" fill="none"/><line y2="-30009" y1="-29440" x2="-30795" x1="-29813" fill="none"/><line y2="-30084" y1="-29657" x2="-30587" x1="-29850" fill="none"/><line y2="-29440" y1="-30009" x2="-29813" x1="-28825" fill="none"/><line y2="-31145" y1="-30009" x2="-30795" x1="-30795" fill="none"/><line y2="-30009" y1="-31145" x2="-28825" x1="-28825" fill="none"/><line y2="-30151" y1="-31003" x2="-28995" x1="-28995" fill="none"/><line y2="-31714" y1="-31145" x2="-29813" x1="-30795" fill="none"/><line y2="-31497" y1="-31070" x2="-29850" x1="-30587" fill="none"/><line y2="-31145" y1="-31714" x2="-28825" x1="-29813" fill="none"/><line y2="-32762" y1="-31714" x2="-29813" x1="-29813" fill="none"/><line y2="-29593" y1="-30009" x2="-31514" x1="-30795" fill="none"/><line y2="-28657" y1="-29264" x2="-31633" x1="-31633" fill="none"/><line y2="-28657" y1="-29264" x2="-31774" x1="-31774" fill="none"/><line y2="-29839" y1="-29533" x2="-32456" x1="-31928" fill="none"/><line y2="-29960" y1="-29654" x2="-32387" x1="-31855" fill="none"/><text y="-27690" xml:space="preserve" x="-29059" stroke="none" font-size="433.3333" font-family="sans-serif">N</text><text y="-28212" xml:space="preserve" x="-29966" stroke="none" font-size="433.3333" font-family="sans-serif">N</text><text y="-26592" xml:space="preserve" x="-30948" stroke="none" font-size="433.3333" font-family="sans-serif">OH</text><text y="-29304" xml:space="preserve" x="-31855" stroke="none" font-size="433.3333" font-family="sans-serif">N</text><text y="-28259" xml:space="preserve" x="-31855" stroke="none" font-size="433.3333" font-family="sans-serif">O</text><text y="-29830" xml:space="preserve" x="-32762" stroke="none" font-size="433.3333" font-family="sans-serif">O</text></g></g></svg>