<svg width="255.84" viewBox="0 0 8528 2879" text-rendering="auto" stroke-width="1" stroke-opacity="1" stroke-miterlimit="10" stroke-linejoin="miter" stroke-linecap="square" stroke-dashoffset="0" stroke-dasharray="none" stroke="black" shape-rendering="auto" image-rendering="auto" height="86.37" font-weight="normal" font-style="normal" font-size="12" font-family="'Dialog'" fill-opacity="1" fill="black" color-rendering="auto" color-interpolation="auto" xmlns="http://www.w3.org/2000/svg"><g><g stroke="white" fill="white"><rect y="0" x="0" width="8528" stroke="none" height="2879"/></g><g transform="translate(32866,32866)" text-rendering="geometricPrecision" stroke-width="44" stroke-linejoin="round" stroke-linecap="round"><line y2="-32164" y1="-32164" x2="-26522" x1="-28602" fill="none"/><line y2="-30963" y1="-32164" x2="-28602" x1="-28602" fill="none"/><line y2="-32164" y1="-32762" x2="-28602" x1="-29640" fill="none"/><line y2="-32092" y1="-32540" x2="-28816" x1="-29596" fill="none"/><line y2="-30963" y1="-32164" x2="-26522" x1="-26522" fill="none"/><line y2="-32762" y1="-32164" x2="-25485" x1="-26522" fill="none"/><line y2="-32540" y1="-32092" x2="-25529" x1="-26309" fill="none"/><line y2="-30963" y1="-30472" x2="-28602" x1="-27750" fill="none"/><line y2="-30362" y1="-30963" x2="-29640" x1="-28602" fill="none"/><line y2="-30584" y1="-31035" x2="-29596" x1="-28816" fill="none"/><line y2="-32762" y1="-32164" x2="-29640" x1="-30682" fill="none"/><line y2="-30581" y1="-30963" x2="-27181" x1="-26522" fill="none"/><line y2="-30963" y1="-30362" x2="-26522" x1="-25485" fill="none"/><line y2="-31035" y1="-30584" x2="-26309" x1="-25529" fill="none"/><line y2="-32164" y1="-32762" x2="-24442" x1="-25485" fill="none"/><line y2="-30963" y1="-30362" x2="-30682" x1="-29640" fill="none"/><line y2="-30963" y1="-32164" x2="-30682" x1="-30682" fill="none"/><line y2="-32164" y1="-32762" x2="-30682" x1="-31722" fill="none"/><line y2="-32092" y1="-32540" x2="-30899" x1="-31676" fill="none"/><line y2="-30362" y1="-30963" x2="-25485" x1="-24442" fill="none"/><line y2="-30963" y1="-32164" x2="-24442" x1="-24442" fill="none"/><line y2="-31113" y1="-32014" x2="-24613" x1="-24613" fill="none"/><line y2="-30362" y1="-30963" x2="-31722" x1="-30682" fill="none"/><line y2="-30584" y1="-31035" x2="-31676" x1="-30899" fill="none"/><line y2="-32762" y1="-32164" x2="-31722" x1="-32762" fill="none"/><line y2="-30963" y1="-30362" x2="-32762" x1="-31722" fill="none"/><line y2="-32164" y1="-30963" x2="-32762" x1="-32762" fill="none"/><line y2="-32014" y1="-31113" x2="-32592" x1="-32592" fill="none"/><text y="-30183" xml:space="preserve" x="-27716" stroke="none" font-size="433.3333" font-family="sans-serif">NH</text></g></g></svg>