<svg width="266.37" viewBox="0 0 8879 6218" text-rendering="auto" stroke-width="1" stroke-opacity="1" stroke-miterlimit="10" stroke-linejoin="miter" stroke-linecap="square" stroke-dashoffset="0" stroke-dasharray="none" stroke="black" shape-rendering="auto" image-rendering="auto" height="186.54" font-weight="normal" font-style="normal" font-size="12" font-family="'Dialog'" fill-opacity="1" fill="black" color-rendering="auto" color-interpolation="auto" xmlns="http://www.w3.org/2000/svg"><g><g stroke="white" fill="white"><rect y="0" x="0" width="8879" stroke="none" height="6218"/></g><g transform="translate(32866,32758)" text-rendering="geometricPrecision" stroke-width="44" stroke-linejoin="round" stroke-linecap="round"><line y2="-29264" y1="-29787" x2="-29853" x1="-28946" fill="none"/><line y2="-29385" y1="-29787" x2="-28221" x1="-28946" fill="none"/><line y2="-28233" y1="-29062" x2="-28033" x1="-28033" fill="none"/><line y2="-31358" y1="-30836" x2="-28039" x1="-28946" fill="none"/><line y2="-29680" y1="-29264" x2="-30573" x1="-29853" fill="none"/><line y2="-28435" y1="-29264" x2="-29784" x1="-29784" fill="none"/><line y2="-28435" y1="-29264" x2="-29926" x1="-29926" fill="none"/><line y2="-27756" y1="-28152" x2="-28718" x1="-28033" fill="none"/><line y2="-27877" y1="-28293" x2="-28787" x1="-28068" fill="none"/><line y2="-32422" y1="-31358" x2="-27672" x1="-28039" fill="none"/><line y2="-32234" y1="-31436" x2="-27557" x1="-27834" fill="none"/><line y2="-31358" y1="-30807" x2="-28039" x1="-27328" fill="none"/><line y2="-32422" y1="-32422" x2="-26713" x1="-27672" fill="none"/><line y2="-30882" y1="-31358" x2="-26843" x1="-26199" fill="none"/><line y2="-31358" y1="-32202" x2="-26199" x1="-26459" fill="none"/><line y2="-31413" y1="-32046" x2="-26392" x1="-26589" fill="none"/><line y2="-29091" y1="-29648" x2="-31705" x1="-30951" fill="none"/><line y2="-30006" y1="-30850" x2="-30830" x1="-31090" fill="none"/><line y2="-29787" y1="-29091" x2="-32604" x1="-31705" fill="none"/><line y2="-30850" y1="-30850" x2="-31090" x1="-32237" fill="none"/><line y2="-30850" y1="-29787" x2="-32237" x1="-32604" fill="none"/><line y2="-27710" y1="-26644" x2="-27126" x1="-26797" fill="none"/><line y2="-28264" y1="-27710" x2="-26372" x1="-27126" fill="none"/><line y2="-26644" y1="-26644" x2="-26797" x1="-25650" fill="none"/><line y2="-27710" y1="-28184" x2="-25283" x1="-25898" fill="none"/><line y2="-26644" y1="-27710" x2="-25650" x1="-25283" fill="none"/><line y2="-28010" y1="-27776" x2="-24483" x1="-25303" fill="none"/><line y2="-27877" y1="-27640" x2="-24445" x1="-25263" fill="none"/><line y2="-27739" y1="-28042" x2="-32231" x1="-31705" fill="none"/><line y2="-27690" y1="-28082" x2="-30951" x1="-31633" fill="none"/><line y2="-27568" y1="-27981" x2="-31020" x1="-31740" fill="none"/><polygon stroke-width="1" stroke="none" points=" -28065 -28172 -27126 -27710 -27996 -28290"/><polygon stroke-width="1" points=" -28065 -28172 -27126 -27710 -27996 -28290" fill="none"/><line y2="-30836" y1="-30833" x2="-28880" x1="-29016" fill="none"/><line y2="-30619" y1="-30617" x2="-28894" x1="-29002" fill="none"/><line y2="-30402" y1="-30400" x2="-28907" x1="-28987" fill="none"/><line y2="-30185" y1="-30184" x2="-28921" x1="-28973" fill="none"/><line y2="-29968" y1="-29968" x2="-28935" x1="-28958" fill="none"/><line y2="-28042" y1="-28042" x2="-31772" x1="-31636" fill="none"/><line y2="-28259" y1="-28259" x2="-31758" x1="-31650" fill="none"/><line y2="-28475" y1="-28475" x2="-31744" x1="-31665" fill="none"/><line y2="-28692" y1="-28692" x2="-31730" x1="-31679" fill="none"/><line y2="-28909" y1="-28909" x2="-31717" x1="-31693" fill="none"/><text y="-28036" xml:space="preserve" x="-30006" stroke="none" font-size="433.3333" font-family="sans-serif">O</text><text y="-29102" xml:space="preserve" x="-28184" stroke="none" font-size="433.3333" font-family="sans-serif">NH</text><text y="-27531" xml:space="preserve" x="-29094" stroke="none" font-size="433.3333" font-family="sans-serif">O</text><text y="-27340" xml:space="preserve" x="-32762" stroke="none" font-size="433.3333" font-family="sans-serif">NH</text><text y="-27250" xml:space="preserve" x="-32185" stroke="none" font-size="313.3333" font-family="sans-serif">2</text><text y="-27340" xml:space="preserve" x="-30948" stroke="none" font-size="433.3333" font-family="sans-serif">O</text><text y="-27820" xml:space="preserve" x="-24428" stroke="none" font-size="433.3333" font-family="sans-serif">O</text><text y="-29608" xml:space="preserve" x="-30914" stroke="none" font-size="433.3333" font-family="sans-serif">N</text><text y="-30483" xml:space="preserve" x="-27294" stroke="none" font-size="433.3333" font-family="sans-serif">NH</text><text y="-32242" xml:space="preserve" x="-26678" stroke="none" font-size="433.3333" font-family="sans-serif">N</text><text y="-28224" xml:space="preserve" x="-26335" stroke="none" font-size="433.3333" font-family="sans-serif">NH</text><text y="-29307" xml:space="preserve" x="-29099" stroke="none" font-style="italic" font-size="313.3333" font-family="sans-serif">S</text><text y="-29215" xml:space="preserve" x="-31855" stroke="none" font-style="italic" font-size="313.3333" font-family="sans-serif">S</text><text y="-27456" xml:space="preserve" x="-26999" stroke="none" font-style="italic" font-size="313.3333" font-family="sans-serif">S</text></g></g></svg>