<svg width="949.32" viewBox="0 0 31644 6072" text-rendering="auto" stroke-width="1" stroke-opacity="1" stroke-miterlimit="10" stroke-linejoin="miter" stroke-linecap="square" stroke-dashoffset="0" stroke-dasharray="none" stroke="black" shape-rendering="auto" image-rendering="auto" height="182.16" font-weight="normal" font-style="normal" font-size="12" font-family="'Dialog'" fill-opacity="1" fill="black" color-rendering="auto" color-interpolation="auto" xmlns="http://www.w3.org/2000/svg"><g><g stroke="white" fill="white"><rect y="0" x="0" width="31644" stroke="none" height="6072"/></g><g transform="translate(32866,32866)" text-rendering="geometricPrecision" stroke-width="44" stroke-linejoin="round" stroke-linecap="round"><line y2="-29414" y1="-28839" x2="-8811" x1="-7828" fill="none"/><line y2="-28839" y1="-29414" x2="-7828" x1="-6843" fill="none"/><line y2="-27695" y1="-28839" x2="-7828" x1="-7828" fill="none"/><line y2="-29414" y1="-28839" x2="-8811" x1="-9793" fill="none"/><line y2="-30561" y1="-29414" x2="-8811" x1="-8811" fill="none"/><line y2="-30561" y1="-29414" x2="-6843" x1="-6843" fill="none"/><line y2="-29414" y1="-29414" x2="-6843" x1="-4879" fill="none"/><line y2="-27120" y1="-27695" x2="-8811" x1="-7828" fill="none"/><line y2="-27695" y1="-28839" x2="-9793" x1="-9793" fill="none"/><line y2="-28839" y1="-29414" x2="-9793" x1="-10775" fill="none"/><line y2="-31133" y1="-30561" x2="-7828" x1="-8811" fill="none"/><line y2="-30561" y1="-31133" x2="-6843" x1="-7828" fill="none"/><line y2="-31133" y1="-30561" x2="-5861" x1="-6843" fill="none"/><line y2="-29414" y1="-30561" x2="-4879" x1="-4879" fill="none"/><line y2="-27695" y1="-27120" x2="-9793" x1="-8811" fill="none"/><line y2="-27770" y1="-27340" x2="-9582" x1="-8845" fill="none"/><line y2="-27120" y1="-27695" x2="-10775" x1="-9793" fill="none"/><line y2="-29414" y1="-28839" x2="-10775" x1="-11757" fill="none"/><line y2="-30561" y1="-31133" x2="-4879" x1="-5861" fill="none"/><line y2="-27695" y1="-27120" x2="-11757" x1="-10775" fill="none"/><line y2="-28839" y1="-27695" x2="-11757" x1="-11757" fill="none"/><line y2="-32182" y1="-31133" x2="-5861" x1="-5861" fill="none"/><line y2="-27695" y1="-27279" x2="-13572" x1="-12852" fill="none"/><line y2="-32705" y1="-32182" x2="-4954" x1="-5861" fill="none"/><line y2="-32182" y1="-32705" x2="-4047" x1="-4954" fill="none"/><line y2="-32705" y1="-32182" x2="-3140" x1="-4047" fill="none"/><line y2="-32182" y1="-32705" x2="-2233" x1="-3140" fill="none"/><line y2="-27170" y1="-27695" x2="-14479" x1="-13572" fill="none"/><line y2="-27695" y1="-27170" x2="-15386" x1="-14479" fill="none"/><line y2="-27170" y1="-27695" x2="-16293" x1="-15386" fill="none"/><line y2="-27695" y1="-27170" x2="-17200" x1="-16293" fill="none"/><line y2="-27170" y1="-27695" x2="-18107" x1="-17200" fill="none"/><line y2="-27695" y1="-27170" x2="-19014" x1="-18107" fill="none"/><line y2="-27170" y1="-27695" x2="-19921" x1="-19014" fill="none"/><line y2="-27695" y1="-27170" x2="-20828" x1="-19921" fill="none"/><line y2="-27170" y1="-27695" x2="-21736" x1="-20828" fill="none"/><line y2="-27695" y1="-27170" x2="-22643" x1="-21736" fill="none"/><line y2="-27170" y1="-27695" x2="-23550" x1="-22643" fill="none"/><line y2="-27695" y1="-27170" x2="-24457" x1="-23550" fill="none"/><line y2="-28522" y1="-27695" x2="-13641" x1="-13641" fill="none"/><line y2="-28522" y1="-27695" x2="-13502" x1="-13502" fill="none"/><line y2="-32705" y1="-32182" x2="-1326" x1="-2233" fill="none"/><line y2="-31133" y1="-32182" x2="-2233" x1="-2233" fill="none"/><line y2="-27695" y1="-27695" x2="-25506" x1="-24457" fill="none"/><line y2="-27557" y1="-27557" x2="-25376" x1="-24587" fill="none"/><line y2="-27170" y1="-27695" x2="-26413" x1="-25506" fill="none"/><line y2="-27695" y1="-27170" x2="-27320" x1="-26413" fill="none"/><line y2="-27170" y1="-27695" x2="-28227" x1="-27320" fill="none"/><line y2="-27695" y1="-27170" x2="-29134" x1="-28227" fill="none"/><line y2="-27170" y1="-27695" x2="-30041" x1="-29134" fill="none"/><line y2="-27695" y1="-27170" x2="-30948" x1="-30041" fill="none"/><line y2="-27170" y1="-27695" x2="-31855" x1="-30948" fill="none"/><line y2="-27695" y1="-27170" x2="-32762" x1="-31855" fill="none"/><polygon stroke-width="1" stroke="none" points=" -9793 -28839 -9862 -29888 -9724 -29888"/><polygon stroke-width="1" points=" -9793 -28839 -9862 -29888 -9724 -29888" fill="none"/><polygon stroke-width="1" stroke="none" points=" -6843 -30561 -6913 -31607 -6774 -31607"/><polygon stroke-width="1" points=" -6843 -30561 -6913 -31607 -6774 -31607" fill="none"/><polygon stroke-width="1" stroke="none" points=" -11757 -27695 -12439 -27219 -12511 -27337"/><polygon stroke-width="1" points=" -11757 -27695 -12439 -27219 -12511 -27337" fill="none"/><polygon stroke-width="1" stroke="none" points=" -7828 -28839 -7895 -29668 -7759 -29668"/><polygon stroke-width="1" points=" -7828 -28839 -7895 -29668 -7759 -29668" fill="none"/><line y2="-28585" y1="-28585" x2="-8877" x1="-8741" fill="none"/><line y2="-28802" y1="-28802" x2="-8860" x1="-8759" fill="none"/><line y2="-29018" y1="-29018" x2="-8843" x1="-8778" fill="none"/><line y2="-29235" y1="-29235" x2="-8825" x1="-8796" fill="none"/><line y2="-28585" y1="-28585" x2="-6913" x1="-6774" fill="none"/><line y2="-28802" y1="-28802" x2="-6895" x1="-6792" fill="none"/><line y2="-29018" y1="-29018" x2="-6876" x1="-6810" fill="none"/><line y2="-29235" y1="-29235" x2="-6858" x1="-6828" fill="none"/><line y2="-31488" y1="-31607" x2="-5107" x1="-5176" fill="none"/><line y2="-31395" y1="-31483" x2="-5304" x1="-5355" fill="none"/><line y2="-31303" y1="-31360" x2="-5500" x1="-5533" fill="none"/><line y2="-31210" y1="-31236" x2="-5697" x1="-5712" fill="none"/><line y2="-32762" y1="-32644" x2="-6734" x1="-6803" fill="none"/><line y2="-32642" y1="-32548" x2="-6553" x1="-6608" fill="none"/><line y2="-32522" y1="-32453" x2="-6372" x1="-6413" fill="none"/><line y2="-32402" y1="-32357" x2="-6192" x1="-6218" fill="none"/><line y2="-32282" y1="-32261" x2="-6011" x1="-6023" fill="none"/><text y="-26990" xml:space="preserve" x="-12818" stroke="none" font-size="433.3333" font-family="sans-serif">O</text><text y="-28562" xml:space="preserve" x="-13725" stroke="none" font-size="433.3333" font-family="sans-serif">O</text><text y="-29709" xml:space="preserve" x="-7979" stroke="none" font-size="433.3333" font-family="sans-serif">H</text><text y="-28186" xml:space="preserve" x="-8961" stroke="none" font-size="433.3333" font-family="sans-serif">H</text><text y="-28186" xml:space="preserve" x="-6996" stroke="none" font-size="433.3333" font-family="sans-serif">H</text><text y="-31477" xml:space="preserve" x="-5107" stroke="none" font-size="433.3333" font-family="sans-serif">H</text><text y="-27048" xml:space="preserve" x="-25133" stroke="none" font-style="italic" font-size="313.3333" font-family="sans-serif">Z</text><text y="-31858" xml:space="preserve" x="-5766" stroke="none" font-style="italic" font-size="313.3333" font-family="sans-serif">R</text><text y="-28519" xml:space="preserve" x="-7730" stroke="none" font-style="italic" font-size="313.3333" font-family="sans-serif">S</text><text y="-29377" xml:space="preserve" x="-8712" stroke="none" font-style="italic" font-size="313.3333" font-family="sans-serif">S</text><text y="-29377" xml:space="preserve" x="-7245" stroke="none" font-style="italic" font-size="313.3333" font-family="sans-serif">S</text><text y="-28519" xml:space="preserve" x="-9695" stroke="none" font-style="italic" font-size="313.3333" font-family="sans-serif">R</text><text y="-30238" xml:space="preserve" x="-6748" stroke="none" font-style="italic" font-size="313.3333" font-family="sans-serif">R</text><text y="-30651" xml:space="preserve" x="-6014" stroke="none" font-style="italic" font-size="313.3333" font-family="sans-serif">R</text><text y="-27658" xml:space="preserve" x="-11659" stroke="none" font-style="italic" font-size="313.3333" font-family="sans-serif">S</text></g></g></svg>