<svg width="158.67" viewBox="0 0 5289 7205" text-rendering="auto" stroke-width="1" stroke-opacity="1" stroke-miterlimit="10" stroke-linejoin="miter" stroke-linecap="square" stroke-dashoffset="0" stroke-dasharray="none" stroke="black" shape-rendering="auto" image-rendering="auto" height="216.15" font-weight="normal" font-style="normal" font-size="12" font-family="'Dialog'" fill-opacity="1" fill="black" color-rendering="auto" color-interpolation="auto" xmlns="http://www.w3.org/2000/svg"><g><g stroke="white" fill="white"><rect y="0" x="0" width="5289" stroke="none" height="7205"/></g><g transform="translate(32866,32866)" text-rendering="geometricPrecision" stroke-width="44" stroke-linejoin="round" stroke-linecap="round"><line y2="-28868" y1="-29440" x2="-29645" x1="-30630" fill="none"/><line y2="-27721" y1="-28868" x2="-29645" x1="-29645" fill="none"/><line y2="-29440" y1="-28868" x2="-28663" x1="-29645" fill="none"/><line y2="-29221" y1="-28790" x2="-28701" x1="-29437" fill="none"/><line y2="-29440" y1="-28868" x2="-30630" x1="-31613" fill="none"/><line y2="-27146" y1="-27721" x2="-30630" x1="-29645" fill="none"/><line y2="-27721" y1="-27146" x2="-29645" x1="-28663" fill="none"/><line y2="-27796" y1="-27366" x2="-29437" x1="-28701" fill="none"/><line y2="-28868" y1="-29440" x2="-27681" x1="-28663" fill="none"/><line y2="-28868" y1="-27941" x2="-31613" x1="-31613" fill="none"/><line y2="-27612" y1="-27146" x2="-31425" x1="-30630" fill="none"/><line y2="-27146" y1="-27721" x2="-28663" x1="-27681" fill="none"/><line y2="-27721" y1="-28868" x2="-27681" x1="-27681" fill="none"/><line y2="-27863" y1="-28724" x2="-27851" x1="-27851" fill="none"/><line y2="-30489" y1="-29440" x2="-30630" x1="-30630" fill="none"/><line y2="-27363" y1="-27612" x2="-32231" x1="-31800" fill="none"/><line y2="-26320" y1="-27146" x2="-28663" x1="-28663" fill="none"/><line y2="-31055" y1="-30489" x2="-31616" x1="-30630" fill="none"/><line y2="-31133" y1="-30706" x2="-31408" x1="-30668" fill="none"/><line y2="-30489" y1="-31055" x2="-30630" x1="-29645" fill="none"/><line y2="-32193" y1="-31055" x2="-31616" x1="-31616" fill="none"/><line y2="-31055" y1="-32193" x2="-29645" x1="-29645" fill="none"/><line y2="-31200" y1="-32052" x2="-29816" x1="-29816" fill="none"/><line y2="-32762" y1="-32193" x2="-30630" x1="-31616" fill="none"/><line y2="-32543" y1="-32118" x2="-30668" x1="-31408" fill="none"/><line y2="-32193" y1="-32762" x2="-29645" x1="-30630" fill="none"/><text y="-25922" xml:space="preserve" x="-28816" stroke="none" font-size="433.3333" font-family="sans-serif">NH</text><text y="-25832" xml:space="preserve" x="-28238" stroke="none" font-size="313.3333" font-family="sans-serif">2</text><text y="-26964" xml:space="preserve" x="-32762" stroke="none" font-size="433.3333" font-family="sans-serif">CH</text><text y="-26875" xml:space="preserve" x="-32185" stroke="none" font-size="313.3333" font-family="sans-serif">3</text><text y="-27542" xml:space="preserve" x="-31763" stroke="none" font-size="433.3333" font-family="sans-serif">N</text></g></g></svg>