<svg width="161.61" viewBox="0 0 5387 3680" text-rendering="auto" stroke-width="1" stroke-opacity="1" stroke-miterlimit="10" stroke-linejoin="miter" stroke-linecap="square" stroke-dashoffset="0" stroke-dasharray="none" stroke="black" shape-rendering="auto" image-rendering="auto" height="110.4" font-weight="normal" font-style="normal" font-size="12" font-family="'Dialog'" fill-opacity="1" fill="black" color-rendering="auto" color-interpolation="auto" xmlns="http://www.w3.org/2000/svg"><g><g stroke="white" fill="white"><rect y="0" x="0" width="5387" stroke="none" height="3680"/></g><g transform="translate(32866,32866)" text-rendering="geometricPrecision" stroke-width="44" stroke-linejoin="round" stroke-linecap="round"><line y2="-29290" y1="-30532" x2="-30888" x1="-30460" fill="none"/><line y2="-30532" y1="-31200" x2="-30460" x1="-31321" fill="none"/><line y2="-30480" y1="-30980" x2="-30671" x1="-31318" fill="none"/><line y2="-29290" y1="-29290" x2="-32228" x1="-30888" fill="none"/><line y2="-29460" y1="-29460" x2="-32060" x1="-31055" fill="none"/><line y2="-31205" y1="-30752" x2="-31696" x1="-32312" fill="none"/><line y2="-30313" y1="-29290" x2="-32543" x1="-32228" fill="none"/><line y2="-31055" y1="-30532" x2="-29553" x1="-30460" fill="none"/><line y2="-32193" y1="-31055" x2="-29553" x1="-29553" fill="none"/><line y2="-32052" y1="-31200" x2="-29382" x1="-29382" fill="none"/><line y2="-31055" y1="-30489" x2="-29553" x1="-28565" fill="none"/><line y2="-32762" y1="-32193" x2="-28565" x1="-29553" fill="none"/><line y2="-30489" y1="-31055" x2="-28565" x1="-27583" fill="none"/><line y2="-30706" y1="-31133" x2="-28527" x1="-27791" fill="none"/><line y2="-32193" y1="-32762" x2="-27583" x1="-28565" fill="none"/><line y2="-32118" y1="-32546" x2="-27791" x1="-28527" fill="none"/><line y2="-31055" y1="-32193" x2="-27583" x1="-27583" fill="none"/><text y="-31165" xml:space="preserve" x="-31662" stroke="none" font-size="433.3333" font-family="sans-serif">N</text><text y="-30353" xml:space="preserve" x="-32762" stroke="none" font-size="433.3333" font-family="sans-serif">NH</text></g></g></svg>