<svg width="421.71" viewBox="0 0 14057 1946" text-rendering="auto" stroke-width="1" stroke-opacity="1" stroke-miterlimit="10" stroke-linejoin="miter" stroke-linecap="square" stroke-dashoffset="0" stroke-dasharray="none" stroke="black" shape-rendering="auto" image-rendering="auto" height="58.38" font-weight="normal" font-style="normal" font-size="12" font-family="'Dialog'" fill-opacity="1" fill="black" color-rendering="auto" color-interpolation="auto" xmlns="http://www.w3.org/2000/svg"><g><g stroke="white" fill="white"><rect y="0" x="0" width="14057" stroke="none" height="1946"/></g><g transform="translate(32866,32758)" text-rendering="geometricPrecision" stroke-width="44" stroke-linejoin="round" stroke-linecap="round"><line y2="-31439" y1="-31439" x2="-32762" x1="-31616" fill="none"/><line y2="-31439" y1="-32202" x2="-31616" x1="-32060" fill="none"/><line y2="-32202" y1="-31439" x2="-32318" x1="-32762" fill="none"/><line y2="-30916" y1="-31439" x2="-30708" x1="-31616" fill="none"/><line y2="-31332" y1="-30916" x2="-29989" x1="-30708" fill="none"/><line y2="-30916" y1="-31332" x2="-28894" x1="-29614" fill="none"/><line y2="-31439" y1="-30916" x2="-27987" x1="-28894" fill="none"/><line y2="-30916" y1="-31439" x2="-27080" x1="-27987" fill="none"/><line y2="-31439" y1="-30916" x2="-26173" x1="-27080" fill="none"/><line y2="-30916" y1="-31439" x2="-25266" x1="-26173" fill="none"/><line y2="-31439" y1="-30916" x2="-24359" x1="-25266" fill="none"/><line y2="-30916" y1="-31439" x2="-23452" x1="-24359" fill="none"/><line y2="-31439" y1="-30916" x2="-22544" x1="-23452" fill="none"/><line y2="-30916" y1="-31439" x2="-21637" x1="-22544" fill="none"/><line y2="-31439" y1="-30916" x2="-20727" x1="-21637" fill="none"/><line y2="-30916" y1="-31439" x2="-19820" x1="-20727" fill="none"/><line y2="-31439" y1="-30916" x2="-18913" x1="-19820" fill="none"/><text y="-31260" xml:space="preserve" x="-29952" stroke="none" font-size="433.3333" font-family="sans-serif">O</text><text y="-32242" xml:space="preserve" x="-32341" stroke="none" font-size="433.3333" font-family="sans-serif">O</text></g></g></svg>