<svg width="306.24" viewBox="0 0 10208 3373" text-rendering="auto" stroke-width="1" stroke-opacity="1" stroke-miterlimit="10" stroke-linejoin="miter" stroke-linecap="square" stroke-dashoffset="0" stroke-dasharray="none" stroke="black" shape-rendering="auto" image-rendering="auto" height="101.19" font-weight="normal" font-style="normal" font-size="12" font-family="'Dialog'" fill-opacity="1" fill="black" color-rendering="auto" color-interpolation="auto" xmlns="http://www.w3.org/2000/svg"><g><g stroke="white" fill="white"><rect y="0" x="0" width="10208" stroke="none" height="3373"/></g><g transform="translate(32866,32758)" text-rendering="geometricPrecision" stroke-width="44" stroke-linejoin="round" stroke-linecap="round"><line y2="-30850" y1="-31176" x2="-26106" x1="-26673" fill="none"/><line y2="-31376" y1="-30850" x2="-25199" x1="-26106" fill="none"/><line y2="-30850" y1="-31376" x2="-24292" x1="-25199" fill="none"/><line y2="-31266" y1="-30850" x2="-23573" x1="-24292" fill="none"/><line y2="-30931" y1="-31179" x2="-27782" x1="-27354" fill="none"/><line y2="-32202" y1="-31595" x2="-27014" x1="-27014" fill="none"/><line y2="-31835" y1="-31572" x2="-27808" x1="-27354" fill="none"/><line y2="-31572" y1="-31835" x2="-28640" x1="-28186" fill="none"/><line y2="-31899" y1="-31569" x2="-29888" x1="-29322" fill="none"/><line y2="-31373" y1="-31899" x2="-30795" x1="-29888" fill="none"/><line y2="-31899" y1="-31373" x2="-31702" x1="-30795" fill="none"/><line y2="-31592" y1="-31899" x2="-32231" x1="-31702" fill="none"/><line y2="-30044" y1="-31153" x2="-28981" x1="-28981" fill="none"/><line y2="-30931" y1="-31176" x2="-29749" x1="-29322" fill="none"/><text y="-31197" xml:space="preserve" x="-27245" stroke="none" font-size="433.3333" font-family="sans-serif">Si</text><text y="-31763" xml:space="preserve" x="-28149" stroke="none" font-size="433.3333" font-family="sans-serif">O</text><text y="-30532" xml:space="preserve" x="-28314" stroke="none" font-size="433.3333" font-family="sans-serif">CH</text><text y="-30443" xml:space="preserve" x="-27736" stroke="none" font-size="313.3333" font-family="sans-serif">3</text><text y="-32242" xml:space="preserve" x="-27167" stroke="none" font-size="433.3333" font-family="sans-serif">CH</text><text y="-32153" xml:space="preserve" x="-26589" stroke="none" font-size="313.3333" font-family="sans-serif">3</text><text y="-31194" xml:space="preserve" x="-29212" stroke="none" font-size="433.3333" font-family="sans-serif">Si</text><text y="-29645" xml:space="preserve" x="-29134" stroke="none" font-size="433.3333" font-family="sans-serif">CH</text><text y="-29556" xml:space="preserve" x="-28556" stroke="none" font-size="313.3333" font-family="sans-serif">3</text><text y="-30532" xml:space="preserve" x="-30284" stroke="none" font-size="433.3333" font-family="sans-serif">CH</text><text y="-30443" xml:space="preserve" x="-29706" stroke="none" font-size="313.3333" font-family="sans-serif">3</text><text y="-31197" xml:space="preserve" x="-23538" stroke="none" font-size="433.3333" font-family="sans-serif">NH</text><text y="-31107" xml:space="preserve" x="-22960" stroke="none" font-size="313.3333" font-family="sans-serif">2</text><text y="-31194" xml:space="preserve" x="-32762" stroke="none" font-size="433.3333" font-family="sans-serif">NH</text><text y="-31104" xml:space="preserve" x="-32185" stroke="none" font-size="313.3333" font-family="sans-serif">2</text></g></g></svg>