<svg width="226.59" viewBox="0 0 7553 5036" text-rendering="auto" stroke-width="1" stroke-opacity="1" stroke-miterlimit="10" stroke-linejoin="miter" stroke-linecap="square" stroke-dashoffset="0" stroke-dasharray="none" stroke="black" shape-rendering="auto" image-rendering="auto" height="151.08" font-weight="normal" font-style="normal" font-size="12" font-family="'Dialog'" fill-opacity="1" fill="black" color-rendering="auto" color-interpolation="auto" xmlns="http://www.w3.org/2000/svg"><g><g stroke="white" fill="white"><rect y="0" x="0" width="7553" stroke="none" height="5036"/></g><g transform="translate(32866,32758)" text-rendering="geometricPrecision" stroke-width="44" stroke-linejoin="round" stroke-linecap="round"><line y2="-30850" y1="-30391" x2="-29746" x1="-30544" fill="none"/><line y2="-29146" y1="-30064" x2="-30732" x1="-30732" fill="none"/><line y2="-30281" y1="-30281" x2="-30922" x1="-31870" fill="none"/><line y2="-30281" y1="-30850" x2="-28761" x1="-29746" fill="none"/><line y2="-30206" y1="-30633" x2="-28969" x1="-29709" fill="none"/><line y2="-29146" y1="-29146" x2="-31870" x1="-30732" fill="none"/><line y2="-29146" y1="-28683" x2="-30732" x1="-29934" fill="none"/><line y2="-30281" y1="-29146" x2="-31870" x1="-31870" fill="none"/><line y2="-29146" y1="-30281" x2="-28761" x1="-28761" fill="none"/><line y2="-28683" y1="-29146" x2="-29559" x1="-28761" fill="none"/><line y2="-30807" y1="-30281" x2="-27854" x1="-28761" fill="none"/><line y2="-30391" y1="-30807" x2="-27135" x1="-27854" fill="none"/><line y2="-30697" y1="-30391" x2="-26228" x1="-26759" fill="none"/><line y2="-31899" y1="-30850" x2="-29746" x1="-29746" fill="none"/><line y2="-30786" y1="-30232" x2="-32471" x1="-31919" fill="none"/><line y2="-30885" y1="-30333" x2="-32372" x1="-31821" fill="none"/><line y2="-32202" y1="-31899" x2="-30272" x1="-29746" fill="none"/><line y2="-32375" y1="-31959" x2="-29062" x1="-29781" fill="none"/><line y2="-32254" y1="-31838" x2="-28992" x1="-29712" fill="none"/><polygon stroke-width="1" stroke="none" points=" -30732 -29146 -30665 -28316 -30801 -28316"/><polygon stroke-width="1" points=" -30732 -29146 -30665 -28316 -30801 -28316" fill="none"/><line y2="-28672" y1="-28576" x2="-32442" x1="-32341" fill="none"/><line y2="-28811" y1="-28743" x2="-32274" x1="-32203" fill="none"/><line y2="-28950" y1="-28911" x2="-32106" x1="-32064" fill="none"/><line y2="-29090" y1="-29078" x2="-31938" x1="-31926" fill="none"/><text y="-32242" xml:space="preserve" x="-30807" stroke="none" font-size="433.3333" font-family="sans-serif">OH</text><text y="-32242" xml:space="preserve" x="-28990" stroke="none" font-size="433.3333" font-family="sans-serif">O</text><text y="-30844" xml:space="preserve" x="-32762" stroke="none" font-size="433.3333" font-family="sans-serif">O</text><text y="-30102" xml:space="preserve" x="-27100" stroke="none" font-size="433.3333" font-family="sans-serif">O</text><text y="-30628" xml:space="preserve" x="-26193" stroke="none" font-size="433.3333" font-family="sans-serif">CH</text><text y="-30538" xml:space="preserve" x="-25615" stroke="none" font-size="313.3333" font-family="sans-serif">3</text><text y="-28224" xml:space="preserve" x="-32762" stroke="none" font-size="433.3333" font-family="sans-serif">NH</text><text y="-28134" xml:space="preserve" x="-32185" stroke="none" font-size="313.3333" font-family="sans-serif">2</text><text y="-30102" xml:space="preserve" x="-30885" stroke="none" font-size="433.3333" font-family="sans-serif">N</text><text y="-28397" xml:space="preserve" x="-29900" stroke="none" font-size="433.3333" font-family="sans-serif">S</text><text y="-27918" xml:space="preserve" x="-30885" stroke="none" font-size="433.3333" font-family="sans-serif">H</text><text y="-29111" xml:space="preserve" x="-30636" stroke="none" font-style="italic" font-size="313.3333" font-family="sans-serif">R</text><text y="-29241" xml:space="preserve" x="-31777" stroke="none" font-style="italic" font-size="313.3333" font-family="sans-serif">R</text></g></g></svg>