<svg width="264.84" viewBox="0 0 8828 5435" text-rendering="auto" stroke-width="1" stroke-opacity="1" stroke-miterlimit="10" stroke-linejoin="miter" stroke-linecap="square" stroke-dashoffset="0" stroke-dasharray="none" stroke="black" shape-rendering="auto" image-rendering="auto" height="163.05" font-weight="normal" font-style="normal" font-size="12" font-family="'Dialog'" fill-opacity="1" fill="black" color-rendering="auto" color-interpolation="auto" xmlns="http://www.w3.org/2000/svg"><g><g stroke="white" fill="white"><rect y="0" x="0" width="8828" stroke="none" height="5435"/></g><g transform="translate(32866,32758)" text-rendering="geometricPrecision" stroke-width="44" stroke-linejoin="round" stroke-linecap="round"><line y2="-30801" y1="-29654" x2="-30798" x1="-30798" fill="none"/><line y2="-29654" y1="-29082" x2="-30798" x1="-29816" fill="none"/><line y2="-29082" y1="-29654" x2="-31780" x1="-30798" fill="none"/><line y2="-29302" y1="-29732" x2="-31743" x1="-31006" fill="none"/><line y2="-31266" y1="-30801" x2="-30004" x1="-30798" fill="none"/><line y2="-30801" y1="-31376" x2="-30798" x1="-31780" fill="none"/><line y2="-30726" y1="-31156" x2="-31006" x1="-31743" fill="none"/><line y2="-29082" y1="-29654" x2="-29816" x1="-28834" fill="none"/><line y2="-29302" y1="-29732" x2="-29778" x1="-29042" fill="none"/><line y2="-29654" y1="-29082" x2="-32762" x1="-31780" fill="none"/><line y2="-30801" y1="-31266" x2="-28834" x1="-29628" fill="none"/><line y2="-31376" y1="-30801" x2="-31780" x1="-32762" fill="none"/><line y2="-29654" y1="-30801" x2="-28834" x1="-28834" fill="none"/><line y2="-30801" y1="-29654" x2="-32762" x1="-32762" fill="none"/><line y2="-30659" y1="-29798" x2="-32592" x1="-32592" fill="none"/><line y2="-29131" y1="-29654" x2="-27926" x1="-28834" fill="none"/><line y2="-28033" y1="-29082" x2="-31780" x1="-31780" fill="none"/><line y2="-27510" y1="-28033" x2="-32687" x1="-31780" fill="none"/><line y2="-32202" y1="-31595" x2="-29816" x1="-29816" fill="none"/><line y2="-28253" y1="-29082" x2="-29816" x1="-29816" fill="none"/><line y2="-31278" y1="-30862" x2="-28149" x1="-28868" fill="none"/><line y2="-31156" y1="-30740" x2="-28080" x1="-28799" fill="none"/><line y2="-29547" y1="-29131" x2="-27207" x1="-27926" fill="none"/><line y2="-28302" y1="-29131" x2="-27857" x1="-27857" fill="none"/><line y2="-28302" y1="-29131" x2="-27996" x1="-27996" fill="none"/><line y2="-29131" y1="-29547" x2="-26112" x1="-26832" fill="none"/><line y2="-30703" y1="-29874" x2="-27019" x1="-27019" fill="none"/><line y2="-31228" y1="-30703" x2="-26112" x1="-27019" fill="none"/><line y2="-29131" y1="-27993" x2="-26112" x1="-26112" fill="none"/><line y2="-28990" y1="-28137" x2="-25942" x1="-25942" fill="none"/><line y2="-29700" y1="-29131" x2="-25124" x1="-26112" fill="none"/><line y2="-27993" y1="-27427" x2="-26112" x1="-25124" fill="none"/><line y2="-29131" y1="-29700" x2="-24142" x1="-25124" fill="none"/><line y2="-29056" y1="-29484" x2="-24350" x1="-25087" fill="none"/><line y2="-27427" y1="-27993" x2="-25124" x1="-24142" fill="none"/><line y2="-27643" y1="-28071" x2="-25087" x1="-24350" fill="none"/><line y2="-27993" y1="-29131" x2="-24142" x1="-24142" fill="none"/><text y="-27854" xml:space="preserve" x="-29969" stroke="none" font-size="433.3333" font-family="sans-serif">OH</text><text y="-32242" xml:space="preserve" x="-29969" stroke="none" font-size="433.3333" font-family="sans-serif">CH</text><text y="-32153" xml:space="preserve" x="-29391" stroke="none" font-size="313.3333" font-family="sans-serif">3</text><text y="-29475" xml:space="preserve" x="-27170" stroke="none" font-size="433.3333" font-family="sans-serif">N</text><text y="-27903" xml:space="preserve" x="-28077" stroke="none" font-size="433.3333" font-family="sans-serif">O</text><text y="-31148" xml:space="preserve" x="-28077" stroke="none" font-size="433.3333" font-family="sans-serif">O</text><text y="-31197" xml:space="preserve" x="-29969" stroke="none" font-size="433.3333" font-family="sans-serif">N</text></g></g></svg>