<svg width="169.83" viewBox="0 0 5661 3881" text-rendering="auto" stroke-width="1" stroke-opacity="1" stroke-miterlimit="10" stroke-linejoin="miter" stroke-linecap="square" stroke-dashoffset="0" stroke-dasharray="none" stroke="black" shape-rendering="auto" image-rendering="auto" height="116.43" font-weight="normal" font-style="normal" font-size="12" font-family="'Dialog'" fill-opacity="1" fill="black" color-rendering="auto" color-interpolation="auto" xmlns="http://www.w3.org/2000/svg"><g><g stroke="white" fill="white"><rect y="0" x="0" width="5661" stroke="none" height="3881"/></g><g transform="translate(32866,32758)" text-rendering="geometricPrecision" stroke-width="44" stroke-linejoin="round" stroke-linecap="round"><line y2="-30885" y1="-31376" x2="-30720" x1="-31569" fill="none"/><line y2="-29579" y1="-30558" x2="-30532" x1="-30532" fill="none"/><line y2="-31376" y1="-30778" x2="-31569" x1="-32609" fill="none"/><line y2="-28981" y1="-29579" x2="-31569" x1="-30532" fill="none"/><line y2="-30778" y1="-29798" x2="-32609" x1="-32609" fill="none"/><line y2="-29359" y1="-28981" x2="-32228" x1="-31569" fill="none"/><line y2="-31301" y1="-30885" x2="-29625" x1="-30344" fill="none"/><line y2="-30778" y1="-31301" x2="-28718" x1="-29625" fill="none"/><line y2="-32202" y1="-31376" x2="-31639" x1="-31639" fill="none"/><line y2="-32202" y1="-31376" x2="-31497" x1="-31497" fill="none"/><line y2="-31191" y1="-30778" x2="-27999" x1="-28718" fill="none"/><line y2="-29949" y1="-30778" x2="-28649" x1="-28649" fill="none"/><line y2="-29949" y1="-30778" x2="-28787" x1="-28787" fill="none"/><text y="-31122" xml:space="preserve" x="-27964" stroke="none" font-size="433.3333" font-family="sans-serif">OH</text><text y="-29550" xml:space="preserve" x="-28871" stroke="none" font-size="433.3333" font-family="sans-serif">O</text><text y="-32242" xml:space="preserve" x="-31720" stroke="none" font-size="433.3333" font-family="sans-serif">O</text><text y="-30599" xml:space="preserve" x="-30685" stroke="none" font-size="433.3333" font-family="sans-serif">N</text><text y="-29400" xml:space="preserve" x="-32762" stroke="none" font-size="433.3333" font-family="sans-serif">NH</text></g></g></svg>