<svg width="1002.87" viewBox="0 0 33429 2283" text-rendering="auto" stroke-width="1" stroke-opacity="1" stroke-miterlimit="10" stroke-linejoin="miter" stroke-linecap="square" stroke-dashoffset="0" stroke-dasharray="none" stroke="black" shape-rendering="auto" image-rendering="auto" height="68.49" font-weight="normal" font-style="normal" font-size="12" font-family="'Dialog'" fill-opacity="1" fill="black" color-rendering="auto" color-interpolation="auto" xmlns="http://www.w3.org/2000/svg"><g><g stroke="white" fill="white"><rect y="0" x="0" width="33429" stroke="none" height="2283"/></g><g transform="translate(32866,32758)" text-rendering="geometricPrecision" stroke-width="44" stroke-linejoin="round" stroke-linecap="round"><line y2="-30850" y1="-31376" x2="-14337" x1="-15244" fill="none"/><line y2="-31376" y1="-30850" x2="-13430" x1="-14337" fill="none"/><line y2="-30850" y1="-31376" x2="-12523" x1="-13430" fill="none"/><line y2="-31376" y1="-30850" x2="-11616" x1="-12523" fill="none"/><line y2="-30850" y1="-31376" x2="-10709" x1="-11616" fill="none"/><line y2="-31376" y1="-30850" x2="-9802" x1="-10709" fill="none"/><line y2="-30850" y1="-31376" x2="-8894" x1="-9802" fill="none"/><line y2="-31376" y1="-30850" x2="-7987" x1="-8894" fill="none"/><line y2="-30960" y1="-31376" x2="-15964" x1="-15244" fill="none"/><line y2="-31376" y1="-30960" x2="-17058" x1="-16339" fill="none"/><line y2="-32202" y1="-31376" x2="-15314" x1="-15314" fill="none"/><line y2="-32202" y1="-31376" x2="-15175" x1="-15175" fill="none"/><line y2="-31376" y1="-31376" x2="-6939" x1="-7987" fill="none"/><line y2="-31237" y1="-31237" x2="-7072" x1="-7857" fill="none"/><line y2="-30850" y1="-31376" x2="-17966" x1="-17058" fill="none"/><line y2="-31376" y1="-30850" x2="-18873" x1="-17966" fill="none"/><line y2="-30850" y1="-31376" x2="-19780" x1="-18873" fill="none"/><line y2="-31376" y1="-30850" x2="-20687" x1="-19780" fill="none"/><line y2="-30850" y1="-31376" x2="-21594" x1="-20687" fill="none"/><line y2="-31376" y1="-30850" x2="-22501" x1="-21594" fill="none"/><line y2="-30850" y1="-31376" x2="-23411" x1="-22501" fill="none"/><line y2="-31376" y1="-30850" x2="-24318" x1="-23411" fill="none"/><line y2="-32202" y1="-31376" x2="-17128" x1="-17128" fill="none"/><line y2="-32202" y1="-31376" x2="-16989" x1="-16989" fill="none"/><line y2="-30850" y1="-31376" x2="-6032" x1="-6939" fill="none"/><line y2="-31376" y1="-30850" x2="-5124" x1="-6032" fill="none"/><line y2="-31376" y1="-31376" x2="-25364" x1="-24318" fill="none"/><line y2="-31237" y1="-31237" x2="-25234" x1="-24448" fill="none"/><line y2="-31376" y1="-31376" x2="-4079" x1="-5124" fill="none"/><line y2="-31237" y1="-31237" x2="-4209" x1="-4994" fill="none"/><line y2="-30850" y1="-31376" x2="-26271" x1="-25364" fill="none"/><line y2="-31376" y1="-30850" x2="-27178" x1="-26271" fill="none"/><line y2="-30850" y1="-31376" x2="-3172" x1="-4079" fill="none"/><line y2="-31376" y1="-30850" x2="-2262" x1="-3172" fill="none"/><line y2="-30850" y1="-31376" x2="-1354" x1="-2262" fill="none"/><line y2="-31376" y1="-30850" x2="-447" x1="-1354" fill="none"/><line y2="-30850" y1="-31376" x2="459" x1="-447" fill="none"/><line y2="-31376" y1="-31376" x2="-28227" x1="-27178" fill="none"/><line y2="-31237" y1="-31237" x2="-28097" x1="-27311" fill="none"/><line y2="-30850" y1="-31376" x2="-29134" x1="-28227" fill="none"/><line y2="-31376" y1="-30850" x2="-30041" x1="-29134" fill="none"/><line y2="-30850" y1="-31376" x2="-30948" x1="-30041" fill="none"/><line y2="-31376" y1="-30850" x2="-31855" x1="-30948" fill="none"/><line y2="-30850" y1="-31376" x2="-32762" x1="-31855" fill="none"/><text y="-30671" xml:space="preserve" x="-16304" stroke="none" font-size="433.3333" font-family="sans-serif">O</text><text y="-32242" xml:space="preserve" x="-15397" stroke="none" font-size="433.3333" font-family="sans-serif">O</text><text y="-32242" xml:space="preserve" x="-17212" stroke="none" font-size="433.3333" font-family="sans-serif">O</text><text y="-30729" xml:space="preserve" x="-7615" stroke="none" font-style="italic" font-size="313.3333" font-family="sans-serif">Z</text><text y="-30729" xml:space="preserve" x="-24991" stroke="none" font-style="italic" font-size="313.3333" font-family="sans-serif">Z</text><text y="-30729" xml:space="preserve" x="-4755" stroke="none" font-style="italic" font-size="313.3333" font-family="sans-serif">Z</text><text y="-30729" xml:space="preserve" x="-27854" stroke="none" font-style="italic" font-size="313.3333" font-family="sans-serif">Z</text></g></g></svg>