<svg width="335.91" viewBox="0 0 11197 12326" text-rendering="auto" stroke-width="1" stroke-opacity="1" stroke-miterlimit="10" stroke-linejoin="miter" stroke-linecap="square" stroke-dashoffset="0" stroke-dasharray="none" stroke="black" shape-rendering="auto" image-rendering="auto" height="369.78" font-weight="normal" font-style="normal" font-size="12" font-family="'Dialog'" fill-opacity="1" fill="black" color-rendering="auto" color-interpolation="auto" xmlns="http://www.w3.org/2000/svg"><g><g stroke="white" fill="white"><rect y="0" x="0" width="11197" stroke="none" height="12326"/></g><g transform="translate(32866,32866)" text-rendering="geometricPrecision" stroke-width="44" stroke-linejoin="round" stroke-linecap="round"><line y2="-27733" y1="-27733" x2="-30792" x1="-29007" fill="none"/><line y2="-27952" y1="-28871" x2="-28819" x1="-28819" fill="none"/><line y2="-28871" y1="-27733" x2="-30792" x1="-30792" fill="none"/><line y2="-27167" y1="-27733" x2="-31774" x1="-30792" fill="none"/><line y2="-27383" y1="-27811" x2="-31737" x1="-30997" fill="none"/><line y2="-28871" y1="-29440" x2="-28819" x1="-29804" fill="none"/><line y2="-28796" y1="-29224" x2="-29027" x1="-29767" fill="none"/><line y2="-29440" y1="-28871" x2="-29804" x1="-30792" fill="none"/><line y2="-28871" y1="-29440" x2="-30792" x1="-31774" fill="none"/><line y2="-28796" y1="-29224" x2="-30997" x1="-31737" fill="none"/><line y2="-27733" y1="-27167" x2="-32762" x1="-31774" fill="none"/><line y2="-29440" y1="-28871" x2="-31774" x1="-32762" fill="none"/><line y2="-28871" y1="-27733" x2="-32762" x1="-32762" fill="none"/><line y2="-28730" y1="-27877" x2="-32592" x1="-32592" fill="none"/><line y2="-26944" y1="-27629" x2="-27311" x1="-28498" fill="none"/><line y2="-26820" y1="-27508" x2="-27380" x1="-28568" fill="none"/><line y2="-30489" y1="-29440" x2="-29804" x1="-29804" fill="none"/><line y2="-27626" y1="-26962" x2="-25378" x1="-26528" fill="none"/><line y2="-24809" y1="-26468" x2="-27005" x1="-27005" fill="none"/><line y2="-25835" y1="-26488" x2="-25532" x1="-26664" fill="none"/><line y2="-25835" y1="-26491" x2="-28478" x1="-27346" fill="none"/><line y2="-31055" y1="-30489" x2="-30789" x1="-29804" fill="none"/><line y2="-31133" y1="-30706" x2="-30581" x1="-29842" fill="none"/><line y2="-30489" y1="-31055" x2="-29804" x1="-28819" fill="none"/><line y2="-32193" y1="-31055" x2="-30789" x1="-30789" fill="none"/><line y2="-31055" y1="-32193" x2="-28819" x1="-28819" fill="none"/><line y2="-31200" y1="-32052" x2="-28990" x1="-28990" fill="none"/><line y2="-32762" y1="-32193" x2="-29804" x1="-30789" fill="none"/><line y2="-32543" y1="-32118" x2="-29842" x1="-30581" fill="none"/><line y2="-32193" y1="-32762" x2="-28819" x1="-29804" fill="none"/><line y2="-27210" y1="-27626" x2="-24284" x1="-25003" fill="none"/><line y2="-28782" y1="-27952" x2="-25191" x1="-25191" fill="none"/><line y2="-28571" y1="-27843" x2="-23743" x1="-25003" fill="none"/><line y2="-24067" y1="-24483" x2="-26098" x1="-26817" fill="none"/><line y2="-22920" y1="-24370" x2="-27005" x1="-27005" fill="none"/><line y2="-24067" y1="-24483" x2="-27912" x1="-27193" fill="none"/><line y2="-27210" y1="-26072" x2="-24284" x1="-24284" fill="none"/><line y2="-27779" y1="-27210" x2="-23296" x1="-24284" fill="none"/><line y2="-26072" y1="-25503" x2="-24284" x1="-23296" fill="none"/><line y2="-27210" y1="-27779" x2="-22313" x1="-23296" fill="none"/><line y2="-25503" y1="-26072" x2="-23296" x1="-22313" fill="none"/><line y2="-26072" y1="-27210" x2="-22313" x1="-22313" fill="none"/><line y2="-29351" y1="-28782" x2="-26179" x1="-25191" fill="none"/><line y2="-28782" y1="-29351" x2="-25191" x1="-24208" fill="none"/><line y2="-30489" y1="-29351" x2="-26179" x1="-26179" fill="none"/><line y2="-29351" y1="-30489" x2="-24208" x1="-24208" fill="none"/><line y2="-31055" y1="-30489" x2="-25191" x1="-26179" fill="none"/><line y2="-30489" y1="-31055" x2="-24208" x1="-25191" fill="none"/><line y2="-29706" y1="-28571" x2="-23743" x1="-23743" fill="none"/><line y2="-28571" y1="-28002" x2="-23743" x1="-22758" fill="none"/><line y2="-30275" y1="-29706" x2="-22758" x1="-23743" fill="none"/><line y2="-28002" y1="-28571" x2="-22758" x1="-21773" fill="none"/><line y2="-29706" y1="-30275" x2="-21773" x1="-22758" fill="none"/><line y2="-28571" y1="-29706" x2="-21773" x1="-21773" fill="none"/><line y2="-24067" y1="-22929" x2="-26098" x1="-26098" fill="none"/><line y2="-24636" y1="-24067" x2="-25113" x1="-26098" fill="none"/><line y2="-22929" y1="-22360" x2="-26098" x1="-25113" fill="none"/><line y2="-24067" y1="-24636" x2="-24128" x1="-25113" fill="none"/><line y2="-22360" y1="-22929" x2="-25113" x1="-24128" fill="none"/><line y2="-22929" y1="-24067" x2="-24128" x1="-24128" fill="none"/><line y2="-22920" y1="-22351" x2="-27005" x1="-27993" fill="none"/><line y2="-22351" y1="-22920" x2="-26023" x1="-27005" fill="none"/><line y2="-22351" y1="-21213" x2="-27993" x1="-27993" fill="none"/><line y2="-21213" y1="-22351" x2="-26023" x1="-26023" fill="none"/><line y2="-21213" y1="-20644" x2="-27993" x1="-27005" fill="none"/><line y2="-20644" y1="-21213" x2="-27005" x1="-26023" fill="none"/><line y2="-24067" y1="-24636" x2="-27912" x1="-28897" fill="none"/><line y2="-22929" y1="-24067" x2="-27912" x1="-27912" fill="none"/><line y2="-24636" y1="-24067" x2="-28897" x1="-29882" fill="none"/><line y2="-22360" y1="-22929" x2="-28897" x1="-27912" fill="none"/><line y2="-24067" y1="-22929" x2="-29882" x1="-29882" fill="none"/><line y2="-22929" y1="-22360" x2="-29882" x1="-28897" fill="none"/><text y="-27554" xml:space="preserve" x="-25344" stroke="none" font-size="433.3333" font-family="sans-serif">P</text><text y="-26508" xml:space="preserve" x="-27308" stroke="none" font-size="433.3333" font-family="sans-serif">Ru</text><text y="-24411" xml:space="preserve" x="-27158" stroke="none" font-size="433.3333" font-family="sans-serif">P</text><text y="-25459" xml:space="preserve" x="-25422" stroke="none" font-size="433.3333" font-family="sans-serif">Cl</text><text y="-25459" xml:space="preserve" x="-29050" stroke="none" font-size="433.3333" font-family="sans-serif">Cl</text><text y="-27554" xml:space="preserve" x="-28972" stroke="none" font-size="433.3333" font-family="sans-serif">C</text><text y="-26563" xml:space="preserve" x="-26681" stroke="none" font-size="313.3333" font-family="sans-serif">4+</text><text y="-25514" xml:space="preserve" x="-24867" stroke="none" font-size="313.3333" font-family="sans-serif">-</text><text y="-25514" xml:space="preserve" x="-29446" stroke="none" font-size="313.3333" font-family="sans-serif">-</text><text y="-27609" xml:space="preserve" x="-28649" stroke="none" font-size="313.3333" font-family="sans-serif">2-</text></g></g></svg>