<svg width="260.52" viewBox="0 0 8684 4034" text-rendering="auto" stroke-width="1" stroke-opacity="1" stroke-miterlimit="10" stroke-linejoin="miter" stroke-linecap="square" stroke-dashoffset="0" stroke-dasharray="none" stroke="black" shape-rendering="auto" image-rendering="auto" height="121.02" font-weight="normal" font-style="normal" font-size="12" font-family="'Dialog'" fill-opacity="1" fill="black" color-rendering="auto" color-interpolation="auto" xmlns="http://www.w3.org/2000/svg"><g><g stroke="white" fill="white"><rect y="0" x="0" width="8684" stroke="none" height="4034"/></g><g transform="translate(32866,32758)" text-rendering="geometricPrecision" stroke-width="44" stroke-linejoin="round" stroke-linecap="round"><line y2="-30717" y1="-30717" x2="-30792" x1="-29010" fill="none"/><line y2="-31855" y1="-30717" x2="-30792" x1="-30792" fill="none"/><line y2="-30148" y1="-30717" x2="-31777" x1="-30792" fill="none"/><line y2="-30365" y1="-30792" x2="-31740" x1="-31000" fill="none"/><line y2="-30937" y1="-31855" x2="-28822" x1="-28822" fill="none"/><line y2="-32315" y1="-31855" x2="-29992" x1="-30792" fill="none"/><line y2="-31855" y1="-32422" x2="-30792" x1="-31777" fill="none"/><line y2="-31777" y1="-32205" x2="-31000" x1="-31740" fill="none"/><line y2="-30717" y1="-30148" x2="-32762" x1="-31777" fill="none"/><line y2="-31855" y1="-32315" x2="-28822" x1="-29616" fill="none"/><line y2="-32422" y1="-31855" x2="-31777" x1="-32762" fill="none"/><line y2="-31855" y1="-30717" x2="-32762" x1="-32762" fill="none"/><line y2="-31711" y1="-30859" x2="-32592" x1="-32592" fill="none"/><line y2="-30191" y1="-30607" x2="-27915" x1="-28634" fill="none"/><line y2="-30717" y1="-30191" x2="-27008" x1="-27915" fill="none"/><line y2="-29319" y1="-30148" x2="-31777" x1="-31777" fill="none"/><line y2="-32329" y1="-31916" x2="-28137" x1="-28857" fill="none"/><line y2="-32208" y1="-31792" x2="-28068" x1="-28787" fill="none"/><line y2="-30301" y1="-30717" x2="-26288" x1="-27008" fill="none"/><line y2="-30717" y1="-30301" x2="-25194" x1="-25913" fill="none"/><line y2="-30191" y1="-30717" x2="-24286" x1="-25194" fill="none"/><line y2="-31546" y1="-30717" x2="-27077" x1="-27077" fill="none"/><line y2="-31546" y1="-30717" x2="-26938" x1="-26938" fill="none"/><text y="-30012" xml:space="preserve" x="-26254" stroke="none" font-size="433.3333" font-family="sans-serif">O</text><text y="-31587" xml:space="preserve" x="-27161" stroke="none" font-size="433.3333" font-family="sans-serif">O</text><text y="-28920" xml:space="preserve" x="-32008" stroke="none" font-size="433.3333" font-family="sans-serif">Cl</text><text y="-32199" xml:space="preserve" x="-28068" stroke="none" font-size="433.3333" font-family="sans-serif">O</text><text y="-30538" xml:space="preserve" x="-28975" stroke="none" font-size="433.3333" font-family="sans-serif">N</text><text y="-32242" xml:space="preserve" x="-29957" stroke="none" font-size="433.3333" font-family="sans-serif">S</text></g></g></svg>