<svg width="235.47" viewBox="0 0 7849 6906" text-rendering="auto" stroke-width="1" stroke-opacity="1" stroke-miterlimit="10" stroke-linejoin="miter" stroke-linecap="square" stroke-dashoffset="0" stroke-dasharray="none" stroke="black" shape-rendering="auto" image-rendering="auto" height="207.18" font-weight="normal" font-style="normal" font-size="12" font-family="'Dialog'" fill-opacity="1" fill="black" color-rendering="auto" color-interpolation="auto" xmlns="http://www.w3.org/2000/svg"><g><g stroke="white" fill="white"><rect y="0" x="0" width="7849" stroke="none" height="6906"/></g><g transform="translate(32866,32758)" text-rendering="geometricPrecision" stroke-width="44" stroke-linejoin="round" stroke-linecap="round"><line y2="-28233" y1="-27664" x2="-28074" x1="-29062" fill="none"/><line y2="-27664" y1="-28233" x2="-27092" x1="-28074" fill="none"/><line y2="-26525" y1="-27664" x2="-29062" x1="-29062" fill="none"/><line y2="-27664" y1="-28233" x2="-29062" x1="-30047" fill="none"/><line y2="-27588" y1="-28016" x2="-29270" x1="-30009" fill="none"/><line y2="-26525" y1="-27664" x2="-27092" x1="-27092" fill="none"/><line y2="-28233" y1="-27664" x2="-26104" x1="-27092" fill="none"/><line y2="-28013" y1="-27586" x2="-26144" x1="-26884" fill="none"/><line y2="-26525" y1="-26525" x2="-29062" x1="-27092" fill="none"/><line y2="-25956" y1="-26525" x2="-30047" x1="-29062" fill="none"/><line y2="-26176" y1="-26603" x2="-30009" x1="-29270" fill="none"/><line y2="-28233" y1="-27664" x2="-30047" x1="-31032" fill="none"/><line y2="-26525" y1="-25956" x2="-27092" x1="-26104" fill="none"/><line y2="-26603" y1="-26176" x2="-26884" x1="-26144" fill="none"/><line y2="-27664" y1="-28233" x2="-25121" x1="-26104" fill="none"/><line y2="-26525" y1="-25956" x2="-31032" x1="-30047" fill="none"/><line y2="-27664" y1="-26525" x2="-31032" x1="-31032" fill="none"/><line y2="-27522" y1="-26670" x2="-30862" x1="-30862" fill="none"/><line y2="-25956" y1="-26525" x2="-26104" x1="-25121" fill="none"/><line y2="-26525" y1="-27664" x2="-25121" x1="-25121" fill="none"/><line y2="-26670" y1="-27522" x2="-25292" x1="-25292" fill="none"/><line y2="-29281" y1="-28233" x2="-28074" x1="-28074" fill="none"/><line y2="-29694" y1="-29281" x2="-28793" x1="-28074" fill="none"/><line y2="-30850" y1="-30024" x2="-28981" x1="-28981" fill="none"/><line y2="-31156" y1="-30850" x2="-29510" x1="-28981" fill="none"/><line y2="-30850" y1="-31266" x2="-30795" x1="-30076" fill="none"/><line y2="-31327" y1="-30911" x2="-28296" x1="-29016" fill="none"/><line y2="-31205" y1="-30789" x2="-28227" x1="-28946" fill="none"/><line y2="-31376" y1="-30850" x2="-31702" x1="-30795" fill="none"/><line y2="-29484" y1="-29804" x2="-31330" x1="-30795" fill="none"/><line y2="-31070" y1="-31376" x2="-32231" x1="-31702" fill="none"/><line y2="-32202" y1="-31376" x2="-31772" x1="-31772" fill="none"/><line y2="-32202" y1="-31376" x2="-31633" x1="-31633" fill="none"/><line y2="-29801" y1="-29804" x2="-30864" x1="-30726" fill="none"/><line y2="-30018" y1="-30020" x2="-30850" x1="-30740" fill="none"/><line y2="-30235" y1="-30237" x2="-30835" x1="-30755" fill="none"/><line y2="-30452" y1="-30453" x2="-30821" x1="-30769" fill="none"/><line y2="-30669" y1="-30669" x2="-30807" x1="-30783" fill="none"/><text y="-29625" xml:space="preserve" x="-29134" stroke="none" font-size="433.3333" font-family="sans-serif">O</text><text y="-31197" xml:space="preserve" x="-30041" stroke="none" font-size="433.3333" font-family="sans-serif">NH</text><text y="-31197" xml:space="preserve" x="-28227" stroke="none" font-size="433.3333" font-family="sans-serif">O</text><text y="-30671" xml:space="preserve" x="-32762" stroke="none" font-size="433.3333" font-family="sans-serif">OH</text><text y="-32242" xml:space="preserve" x="-31855" stroke="none" font-size="433.3333" font-family="sans-serif">O</text><text y="-29085" xml:space="preserve" x="-31847" stroke="none" font-size="433.3333" font-family="sans-serif">NH</text><text y="-28995" xml:space="preserve" x="-31269" stroke="none" font-size="313.3333" font-family="sans-serif">2</text><text y="-30974" xml:space="preserve" x="-30948" stroke="none" font-style="italic" font-size="313.3333" font-family="sans-serif">R</text></g></g></svg>