<svg width="258.09" viewBox="0 0 8603 6673" text-rendering="auto" stroke-width="1" stroke-opacity="1" stroke-miterlimit="10" stroke-linejoin="miter" stroke-linecap="square" stroke-dashoffset="0" stroke-dasharray="none" stroke="black" shape-rendering="auto" image-rendering="auto" height="200.19" font-weight="normal" font-style="normal" font-size="12" font-family="'Dialog'" fill-opacity="1" fill="black" color-rendering="auto" color-interpolation="auto" xmlns="http://www.w3.org/2000/svg"><g><g stroke="white" fill="white"><rect y="0" x="0" width="8603" stroke="none" height="6673"/></g><g transform="translate(32866,32866)" text-rendering="geometricPrecision" stroke-width="44" stroke-linejoin="round" stroke-linecap="round"><line y2="-28574" y1="-28004" x2="-27320" x1="-28308" fill="none"/><line y2="-28004" y1="-28574" x2="-26338" x1="-27320" fill="none"/><line y2="-26866" y1="-28004" x2="-28308" x1="-28308" fill="none"/><line y2="-28004" y1="-28574" x2="-28308" x1="-29293" fill="none"/><line y2="-27926" y1="-28354" x2="-28516" x1="-29255" fill="none"/><line y2="-26866" y1="-28004" x2="-26338" x1="-26338" fill="none"/><line y2="-28574" y1="-28004" x2="-25350" x1="-26338" fill="none"/><line y2="-28354" y1="-27926" x2="-25390" x1="-26130" fill="none"/><line y2="-26866" y1="-26866" x2="-28308" x1="-26338" fill="none"/><line y2="-26297" y1="-26866" x2="-29293" x1="-28308" fill="none"/><line y2="-26514" y1="-26941" x2="-29255" x1="-28516" fill="none"/><line y2="-28574" y1="-28004" x2="-29293" x1="-30278" fill="none"/><line y2="-26866" y1="-26297" x2="-26338" x1="-25350" fill="none"/><line y2="-26944" y1="-26517" x2="-26130" x1="-25390" fill="none"/><line y2="-28004" y1="-28574" x2="-24367" x1="-25350" fill="none"/><line y2="-26866" y1="-26297" x2="-30278" x1="-29293" fill="none"/><line y2="-28004" y1="-26866" x2="-30278" x1="-30278" fill="none"/><line y2="-27860" y1="-27008" x2="-30108" x1="-30108" fill="none"/><line y2="-26297" y1="-26866" x2="-25350" x1="-24367" fill="none"/><line y2="-26866" y1="-28004" x2="-24367" x1="-24367" fill="none"/><line y2="-27008" y1="-27860" x2="-24538" x1="-24538" fill="none"/><line y2="-29619" y1="-28574" x2="-27320" x1="-27320" fill="none"/><line y2="-30035" y1="-29619" x2="-28039" x1="-27320" fill="none"/><line y2="-31191" y1="-30362" x2="-28227" x1="-28227" fill="none"/><line y2="-31494" y1="-31191" x2="-28756" x1="-28227" fill="none"/><line y2="-31191" y1="-31607" x2="-30041" x1="-29322" fill="none"/><line y2="-31668" y1="-31252" x2="-27542" x1="-28262" fill="none"/><line y2="-31546" y1="-31130" x2="-27473" x1="-28192" fill="none"/><line y2="-31714" y1="-31191" x2="-30948" x1="-30041" fill="none"/><line y2="-31191" y1="-31714" x2="-31855" x1="-30948" fill="none"/><line y2="-31714" y1="-31191" x2="-32762" x1="-31855" fill="none"/><line y2="-29715" y1="-30142" x2="-29330" x1="-30041" fill="none"/><line y2="-29677" y1="-30082" x2="-30734" x1="-30006" fill="none"/><line y2="-29801" y1="-30186" x2="-30804" x1="-30110" fill="none"/><polygon stroke-width="1" stroke="none" points=" -30948 -31714 -31018 -32762 -30879 -32762"/><polygon stroke-width="1" points=" -30948 -31714 -31018 -32762 -30879 -32762" fill="none"/><line y2="-30142" y1="-30142" x2="-30110" x1="-29972" fill="none"/><line y2="-30359" y1="-30359" x2="-30096" x1="-29986" fill="none"/><line y2="-30575" y1="-30575" x2="-30081" x1="-30001" fill="none"/><line y2="-30792" y1="-30792" x2="-30067" x1="-30015" fill="none"/><line y2="-31009" y1="-31009" x2="-30053" x1="-30029" fill="none"/><text y="-29963" xml:space="preserve" x="-28380" stroke="none" font-size="433.3333" font-family="sans-serif">O</text><text y="-31535" xml:space="preserve" x="-29287" stroke="none" font-size="433.3333" font-family="sans-serif">NH</text><text y="-31535" xml:space="preserve" x="-27473" stroke="none" font-size="433.3333" font-family="sans-serif">O</text><text y="-29423" xml:space="preserve" x="-29296" stroke="none" font-size="433.3333" font-family="sans-serif">OH</text><text y="-29455" xml:space="preserve" x="-31110" stroke="none" font-size="433.3333" font-family="sans-serif">O</text><text y="-31312" xml:space="preserve" x="-30194" stroke="none" font-style="italic" font-size="313.3333" font-family="sans-serif">S</text><text y="-31234" xml:space="preserve" x="-31101" stroke="none" font-style="italic" font-size="313.3333" font-family="sans-serif">R</text></g></g></svg>