<svg width="229.47" viewBox="0 0 7649 4621" text-rendering="auto" stroke-width="1" stroke-opacity="1" stroke-miterlimit="10" stroke-linejoin="miter" stroke-linecap="square" stroke-dashoffset="0" stroke-dasharray="none" stroke="black" shape-rendering="auto" image-rendering="auto" height="138.63" font-weight="normal" font-style="normal" font-size="12" font-family="'Dialog'" fill-opacity="1" fill="black" color-rendering="auto" color-interpolation="auto" xmlns="http://www.w3.org/2000/svg"><g><g stroke="white" fill="white"><rect y="0" x="0" width="7649" stroke="none" height="4621"/></g><g transform="translate(32866,32866)" text-rendering="geometricPrecision" stroke-width="44" stroke-linejoin="round" stroke-linecap="round"><line y2="-30532" y1="-31084" x2="-28198" x1="-28909" fill="none"/><line y2="-30466" y1="-30879" x2="-28392" x1="-28926" fill="none"/><line y2="-29689" y1="-30532" x2="-28490" x1="-28198" fill="none"/><line y2="-31090" y1="-30532" x2="-29287" x1="-30041" fill="none"/><line y2="-29469" y1="-29469" x2="-29712" x1="-28756" fill="none"/><line y2="-30532" y1="-29469" x2="-30041" x1="-29712" fill="none"/><line y2="-31055" y1="-30532" x2="-27291" x1="-28198" fill="none"/><line y2="-31055" y1="-30532" x2="-30948" x1="-30041" fill="none"/><line y2="-30532" y1="-31055" x2="-31855" x1="-30948" fill="none"/><line y2="-28799" y1="-29429" x2="-30113" x1="-29657" fill="none"/><line y2="-28880" y1="-29510" x2="-30226" x1="-29770" fill="none"/><line y2="-32193" y1="-31055" x2="-27291" x1="-27291" fill="none"/><line y2="-32052" y1="-31200" x2="-27120" x1="-27120" fill="none"/><line y2="-31055" y1="-30489" x2="-27291" x1="-26303" fill="none"/><line y2="-32762" y1="-32193" x2="-26303" x1="-27291" fill="none"/><line y2="-30489" y1="-31055" x2="-26303" x1="-25321" fill="none"/><line y2="-30706" y1="-31133" x2="-26265" x1="-25529" fill="none"/><line y2="-32193" y1="-32762" x2="-25321" x1="-26303" fill="none"/><line y2="-32118" y1="-32546" x2="-25529" x1="-26265" fill="none"/><line y2="-31055" y1="-32193" x2="-25321" x1="-25321" fill="none"/><line y2="-31055" y1="-30532" x2="-32762" x1="-31855" fill="none"/><line y2="-29484" y1="-30532" x2="-31855" x1="-31855" fill="none"/><text y="-28441" xml:space="preserve" x="-30480" stroke="none" font-size="433.3333" font-family="sans-serif">O</text><text y="-31049" xml:space="preserve" x="-29250" stroke="none" font-size="433.3333" font-family="sans-serif">N</text><text y="-29290" xml:space="preserve" x="-28718" stroke="none" font-size="433.3333" font-family="sans-serif">O</text></g></g></svg>