<svg width="362.79" viewBox="0 0 12093 5864" text-rendering="auto" stroke-width="1" stroke-opacity="1" stroke-miterlimit="10" stroke-linejoin="miter" stroke-linecap="square" stroke-dashoffset="0" stroke-dasharray="none" stroke="black" shape-rendering="auto" image-rendering="auto" height="175.92" font-weight="normal" font-style="normal" font-size="12" font-family="'Dialog'" fill-opacity="1" fill="black" color-rendering="auto" color-interpolation="auto" xmlns="http://www.w3.org/2000/svg"><g><g stroke="white" fill="white"><rect y="0" x="0" width="12093" stroke="none" height="5864"/></g><g transform="translate(32866,32866)" text-rendering="geometricPrecision" stroke-width="44" stroke-linejoin="round" stroke-linecap="round"><line y2="-30532" y1="-29336" x2="-28744" x1="-28744" fill="none"/><line y2="-31023" y1="-30532" x2="-27895" x1="-28744" fill="none"/><line y2="-30812" y1="-30446" x2="-27915" x1="-28553" fill="none"/><line y2="-29336" y1="-28848" x2="-28744" x1="-27895" fill="none"/><line y2="-29423" y1="-29056" x2="-28553" x1="-27915" fill="none"/><line y2="-30642" y1="-31023" x2="-26858" x1="-27519" fill="none"/><line y2="-28848" y1="-29336" x2="-27519" x1="-26670" fill="none"/><line y2="-29336" y1="-30313" x2="-26670" x1="-26670" fill="none"/><line y2="-29458" y1="-30191" x2="-26840" x1="-26840" fill="none"/><line y2="-28920" y1="-29336" x2="-25950" x1="-26670" fill="none"/><line y2="-29336" y1="-29033" x2="-24856" x1="-25384" fill="none"/><line y2="-31055" y1="-30532" x2="-29651" x1="-28744" fill="none"/><line y2="-29033" y1="-29336" x2="-29273" x1="-28744" fill="none"/><line y2="-28813" y1="-29336" x2="-23948" x1="-24856" fill="none"/><line y2="-30165" y1="-29336" x2="-24928" x1="-24928" fill="none"/><line y2="-30165" y1="-29336" x2="-24786" x1="-24786" fill="none"/><line y2="-30489" y1="-31055" x2="-30639" x1="-29651" fill="none"/><line y2="-30706" y1="-31133" x2="-30602" x1="-29862" fill="none"/><line y2="-31055" y1="-32193" x2="-29651" x1="-29651" fill="none"/><line y2="-31055" y1="-30489" x2="-31621" x1="-30639" fill="none"/><line y2="-32193" y1="-32762" x2="-29651" x1="-30639" fill="none"/><line y2="-32118" y1="-32543" x2="-29862" x1="-30602" fill="none"/><line y2="-32193" y1="-31055" x2="-31621" x1="-31621" fill="none"/><line y2="-32052" y1="-31200" x2="-31451" x1="-31451" fill="none"/><line y2="-32762" y1="-32193" x2="-30639" x1="-31621" fill="none"/><line y2="-29660" y1="-30489" x2="-30639" x1="-30639" fill="none"/><line y2="-30729" y1="-31055" x2="-32188" x1="-31621" fill="none"/><line y2="-29380" y1="-28813" x2="-22963" x1="-23948" fill="none"/><line y2="-29163" y1="-28735" x2="-23001" x1="-23740" fill="none"/><line y2="-28813" y1="-27675" x2="-23948" x1="-23948" fill="none"/><line y2="-28813" y1="-29380" x2="-21978" x1="-22963" fill="none"/><line y2="-27675" y1="-27106" x2="-23948" x1="-22963" fill="none"/><line y2="-27753" y1="-27326" x2="-23740" x1="-23001" fill="none"/><line y2="-27675" y1="-28813" x2="-21978" x1="-21978" fill="none"/><line y2="-27817" y1="-28669" x2="-22149" x1="-22149" fill="none"/><line y2="-27106" y1="-27675" x2="-22963" x1="-21978" fill="none"/><line y2="-30209" y1="-29380" x2="-22963" x1="-22963" fill="none"/><line y2="-29140" y1="-28813" x2="-21412" x1="-21978" fill="none"/><text y="-28634" xml:space="preserve" x="-29804" stroke="none" font-size="433.3333" font-family="sans-serif">NH</text><text y="-28545" xml:space="preserve" x="-29226" stroke="none" font-size="313.3333" font-family="sans-serif">2</text><text y="-29261" xml:space="preserve" x="-30870" stroke="none" font-size="433.3333" font-family="sans-serif">Cl</text><text y="-30353" xml:space="preserve" x="-32762" stroke="none" font-size="433.3333" font-family="sans-serif">Cl</text><text y="-28634" xml:space="preserve" x="-25916" stroke="none" font-size="433.3333" font-family="sans-serif">NH</text><text y="-30206" xml:space="preserve" x="-25009" stroke="none" font-size="433.3333" font-family="sans-serif">O</text><text y="-30249" xml:space="preserve" x="-23194" stroke="none" font-size="433.3333" font-family="sans-serif">Cl</text><text y="-29157" xml:space="preserve" x="-21302" stroke="none" font-size="433.3333" font-family="sans-serif">Cl</text><text y="-30954" xml:space="preserve" x="-27857" stroke="none" font-size="433.3333" font-family="sans-serif">N</text><text y="-28559" xml:space="preserve" x="-27857" stroke="none" font-size="433.3333" font-family="sans-serif">N</text><text y="-30353" xml:space="preserve" x="-26823" stroke="none" font-size="433.3333" font-family="sans-serif">N</text></g></g></svg>