<svg width="134.64" viewBox="0 0 4488 2608" text-rendering="auto" stroke-width="1" stroke-opacity="1" stroke-miterlimit="10" stroke-linejoin="miter" stroke-linecap="square" stroke-dashoffset="0" stroke-dasharray="none" stroke="black" shape-rendering="auto" image-rendering="auto" height="78.24" font-weight="normal" font-style="normal" font-size="12" font-family="'Dialog'" fill-opacity="1" fill="black" color-rendering="auto" color-interpolation="auto" xmlns="http://www.w3.org/2000/svg"><g><g stroke="white" fill="white"><rect y="0" x="0" width="4488" stroke="none" height="2608"/></g><g transform="translate(32866,32866)" text-rendering="geometricPrecision" stroke-width="44" stroke-linejoin="round" stroke-linecap="round"><line y2="-30963" y1="-32162" x2="-30706" x1="-30706" fill="none"/><line y2="-31113" y1="-32011" x2="-30876" x1="-30876" fill="none"/><line y2="-32162" y1="-32762" x2="-30706" x1="-31734" fill="none"/><line y2="-32762" y1="-32162" x2="-29677" x1="-30706" fill="none"/><line y2="-30963" y1="-30362" x2="-30706" x1="-29677" fill="none"/><line y2="-30362" y1="-30963" x2="-31734" x1="-30706" fill="none"/><line y2="-32762" y1="-32162" x2="-31734" x1="-32762" fill="none"/><line y2="-32540" y1="-32092" x2="-31777" x1="-32546" fill="none"/><line y2="-32271" y1="-32762" x2="-28836" x1="-29677" fill="none"/><line y2="-32188" y1="-32554" x2="-29027" x1="-29660" fill="none"/><line y2="-30362" y1="-30853" x2="-29677" x1="-28836" fill="none"/><line y2="-30570" y1="-30940" x2="-29660" x1="-29027" fill="none"/><line y2="-30963" y1="-30362" x2="-32762" x1="-31734" fill="none"/><line y2="-31035" y1="-30584" x2="-32546" x1="-31777" fill="none"/><line y2="-32162" y1="-30963" x2="-32762" x1="-32762" fill="none"/><line y2="-31182" y1="-31942" x2="-28649" x1="-28649" fill="none"/><text y="-31982" xml:space="preserve" x="-28802" stroke="none" font-size="433.3333" font-family="sans-serif">N</text><text y="-30784" xml:space="preserve" x="-28802" stroke="none" font-size="433.3333" font-family="sans-serif">N</text></g></g></svg>