<svg width="480.66" viewBox="0 0 16022 5716" text-rendering="auto" stroke-width="1" stroke-opacity="1" stroke-miterlimit="10" stroke-linejoin="miter" stroke-linecap="square" stroke-dashoffset="0" stroke-dasharray="none" stroke="black" shape-rendering="auto" image-rendering="auto" height="171.48" font-weight="normal" font-style="normal" font-size="12" font-family="'Dialog'" fill-opacity="1" fill="black" color-rendering="auto" color-interpolation="auto" xmlns="http://www.w3.org/2000/svg"><g><g stroke="white" fill="white"><rect y="0" x="0" width="16022" stroke="none" height="5716"/></g><g transform="translate(32866,32758)" text-rendering="geometricPrecision" stroke-width="44" stroke-linejoin="round" stroke-linecap="round"><line y2="-29146" y1="-29668" x2="-28071" x1="-28978" fill="none"/><line y2="-29365" y1="-29668" x2="-29507" x1="-28978" fill="none"/><line y2="-29668" y1="-29252" x2="-30792" x1="-30073" fill="none"/><line y2="-30498" y1="-29668" x2="-29047" x1="-29047" fill="none"/><line y2="-30498" y1="-29668" x2="-28909" x1="-28909" fill="none"/><line y2="-29562" y1="-29146" x2="-27352" x1="-28071" fill="none"/><line y2="-29146" y1="-29449" x2="-26257" x1="-26782" fill="none"/><line y2="-28316" y1="-29146" x2="-28002" x1="-28002" fill="none"/><line y2="-28316" y1="-29146" x2="-28140" x1="-28140" fill="none"/><line y2="-29099" y1="-29668" x2="-31774" x1="-30792" fill="none"/><line y2="-29319" y1="-29744" x2="-31737" x1="-31000" fill="none"/><line y2="-29668" y1="-30807" x2="-30792" x1="-30792" fill="none"/><line y2="-29668" y1="-29099" x2="-32762" x1="-31774" fill="none"/><line y2="-30807" y1="-31376" x2="-30792" x1="-31774" fill="none"/><line y2="-30729" y1="-31156" x2="-31000" x1="-31737" fill="none"/><line y2="-30807" y1="-29668" x2="-32762" x1="-32762" fill="none"/><line y2="-30665" y1="-29810" x2="-32592" x1="-32592" fill="none"/><line y2="-31376" y1="-30807" x2="-31774" x1="-32762" fill="none"/><line y2="-28054" y1="-29099" x2="-31774" x1="-31774" fill="none"/><line y2="-29668" y1="-29146" x2="-25350" x1="-26257" fill="none"/><line y2="-27528" y1="-28054" x2="-32682" x1="-31774" fill="none"/><line y2="-27146" y1="-28054" x2="-31252" x1="-31774" fill="none"/><line y2="-28054" y1="-28054" x2="-30729" x1="-31774" fill="none"/><line y2="-29252" y1="-29668" x2="-24630" x1="-25350" fill="none"/><line y2="-29668" y1="-29365" x2="-23535" x1="-24061" fill="none"/><line y2="-30498" y1="-29668" x2="-25419" x1="-25419" fill="none"/><line y2="-30498" y1="-29668" x2="-25280" x1="-25280" fill="none"/><line y2="-29146" y1="-29668" x2="-22628" x1="-23535" fill="none"/><line y2="-31240" y1="-30717" x2="-22628" x1="-23535" fill="none"/><line y2="-29668" y1="-29146" x2="-21721" x1="-22628" fill="none"/><line y2="-29252" y1="-29668" x2="-21002" x1="-21721" fill="none"/><line y2="-29668" y1="-29252" x2="-19907" x1="-20626" fill="none"/><line y2="-28316" y1="-29146" x2="-22559" x1="-22559" fill="none"/><line y2="-28316" y1="-29146" x2="-22698" x1="-22698" fill="none"/><line y2="-30824" y1="-31240" x2="-21909" x1="-22628" fill="none"/><line y2="-32069" y1="-31240" x2="-22698" x1="-22698" fill="none"/><line y2="-32069" y1="-31240" x2="-22559" x1="-22559" fill="none"/><line y2="-30807" y1="-29668" x2="-19907" x1="-19907" fill="none"/><line y2="-30665" y1="-29810" x2="-19736" x1="-19736" fill="none"/><line y2="-29668" y1="-29099" x2="-19907" x1="-18919" fill="none"/><line y2="-31376" y1="-30807" x2="-18919" x1="-19907" fill="none"/><line y2="-29099" y1="-29668" x2="-18919" x1="-17937" fill="none"/><line y2="-29319" y1="-29744" x2="-18881" x1="-18145" fill="none"/><line y2="-30807" y1="-31376" x2="-17937" x1="-18919" fill="none"/><line y2="-30729" y1="-31156" x2="-18145" x1="-18881" fill="none"/><line y2="-29668" y1="-30807" x2="-17937" x1="-17937" fill="none"/><line y2="-31223" y1="-30807" x2="-20626" x1="-19907" fill="none"/><line y2="-28273" y1="-29099" x2="-18919" x1="-18919" fill="none"/><line y2="-32202" y1="-31376" x2="-18919" x1="-18919" fill="none"/><line y2="-29252" y1="-29668" x2="-17217" x1="-17937" fill="none"/><polygon stroke-width="1" stroke="none" points=" -23535 -29668 -23605 -30717 -23466 -30717"/><polygon stroke-width="1" points=" -23535 -29668 -23605 -30717 -23466 -30717" fill="none"/><line y2="-28097" y1="-28097" x2="-26326" x1="-26187" fill="none"/><line y2="-28314" y1="-28314" x2="-26312" x1="-26201" fill="none"/><line y2="-28530" y1="-28530" x2="-26297" x1="-26216" fill="none"/><line y2="-28747" y1="-28747" x2="-26283" x1="-26230" fill="none"/><line y2="-28964" y1="-28964" x2="-26269" x1="-26245" fill="none"/><text y="-28966" xml:space="preserve" x="-30038" stroke="none" font-size="433.3333" font-family="sans-serif">NH</text><text y="-30538" xml:space="preserve" x="-29131" stroke="none" font-size="433.3333" font-family="sans-serif">O</text><text y="-29489" xml:space="preserve" x="-27317" stroke="none" font-size="433.3333" font-family="sans-serif">NH</text><text y="-27918" xml:space="preserve" x="-28224" stroke="none" font-size="433.3333" font-family="sans-serif">O</text><text y="-28966" xml:space="preserve" x="-24593" stroke="none" font-size="433.3333" font-family="sans-serif">NH</text><text y="-30538" xml:space="preserve" x="-25500" stroke="none" font-size="433.3333" font-family="sans-serif">O</text><text y="-27918" xml:space="preserve" x="-22778" stroke="none" font-size="433.3333" font-family="sans-serif">O</text><text y="-28966" xml:space="preserve" x="-20964" stroke="none" font-size="433.3333" font-family="sans-serif">O</text><text y="-30538" xml:space="preserve" x="-21871" stroke="none" font-size="433.3333" font-family="sans-serif">OH</text><text y="-32110" xml:space="preserve" x="-22778" stroke="none" font-size="433.3333" font-family="sans-serif">O</text><text y="-31150" xml:space="preserve" x="-20964" stroke="none" font-size="433.3333" font-family="sans-serif">F</text><text y="-27874" xml:space="preserve" x="-19072" stroke="none" font-size="433.3333" font-family="sans-serif">F</text><text y="-32242" xml:space="preserve" x="-19072" stroke="none" font-size="433.3333" font-family="sans-serif">F</text><text y="-28966" xml:space="preserve" x="-17180" stroke="none" font-size="433.3333" font-family="sans-serif">F</text><text y="-29270" xml:space="preserve" x="-26410" stroke="none" font-style="italic" font-size="313.3333" font-family="sans-serif">S</text><text y="-29189" xml:space="preserve" x="-23686" stroke="none" font-style="italic" font-size="313.3333" font-family="sans-serif">S</text></g></g></svg>