<svg width="242.28" viewBox="0 0 8076 8074" text-rendering="auto" stroke-width="1" stroke-opacity="1" stroke-miterlimit="10" stroke-linejoin="miter" stroke-linecap="square" stroke-dashoffset="0" stroke-dasharray="none" stroke="black" shape-rendering="auto" image-rendering="auto" height="242.22" font-weight="normal" font-style="normal" font-size="12" font-family="'Dialog'" fill-opacity="1" fill="black" color-rendering="auto" color-interpolation="auto" xmlns="http://www.w3.org/2000/svg"><g><g stroke="white" fill="white"><rect y="0" x="0" width="8076" stroke="none" height="8074"/></g><g transform="translate(32866,32866)" text-rendering="geometricPrecision" stroke-width="44" stroke-linejoin="round" stroke-linecap="round"><line y2="-29536" y1="-30110" x2="-29813" x1="-28831" fill="none"/><line y2="-29755" y1="-30186" x2="-29778" x1="-29042" fill="none"/><line y2="-30110" y1="-29536" x2="-30795" x1="-29813" fill="none"/><line y2="-30110" y1="-31257" x2="-28831" x1="-28831" fill="none"/><line y2="-31257" y1="-30110" x2="-30795" x1="-30795" fill="none"/><line y2="-31113" y1="-30252" x2="-30628" x1="-30628" fill="none"/><line y2="-29536" y1="-30110" x2="-31780" x1="-30795" fill="none"/><line y2="-31257" y1="-31720" x2="-28831" x1="-29625" fill="none"/><line y2="-31168" y1="-31514" x2="-29018" x1="-29614" fill="none"/><line y2="-31720" y1="-31257" x2="-30004" x1="-30795" fill="none"/><line y2="-31257" y1="-31829" x2="-30795" x1="-31780" fill="none"/><line y2="-30110" y1="-29536" x2="-32762" x1="-31780" fill="none"/><line y2="-30186" y1="-29755" x2="-32552" x1="-31815" fill="none"/><line y2="-31829" y1="-31257" x2="-31780" x1="-32762" fill="none"/><line y2="-31610" y1="-31182" x2="-31815" x1="-32552" fill="none"/><line y2="-31257" y1="-30110" x2="-32762" x1="-32762" fill="none"/><line y2="-31780" y1="-31257" x2="-27924" x1="-28831" fill="none"/><line y2="-28490" y1="-29536" x2="-29813" x1="-29813" fill="none"/><line y2="-29585" y1="-30110" x2="-27924" x1="-28831" fill="none"/><line y2="-31780" y1="-31780" x2="-27924" x1="-26780" fill="none"/><line y2="-32762" y1="-31780" x2="-27352" x1="-27924" fill="none"/><line y2="-31780" y1="-32762" x2="-26780" x1="-27352" fill="none"/><line y2="-28490" y1="-27921" x2="-29813" x1="-30801" fill="none"/><line y2="-28270" y1="-27843" x2="-29853" x1="-30593" fill="none"/><line y2="-27921" y1="-28490" x2="-28831" x1="-29813" fill="none"/><line y2="-27921" y1="-26782" x2="-30801" x1="-30801" fill="none"/><line y2="-26782" y1="-27921" x2="-28831" x1="-28831" fill="none"/><line y2="-26924" y1="-27779" x2="-29001" x1="-29001" fill="none"/><line y2="-26782" y1="-26213" x2="-30801" x1="-29813" fill="none"/><line y2="-26860" y1="-26433" x2="-30593" x1="-29853" fill="none"/><line y2="-26213" y1="-26782" x2="-29813" x1="-28831" fill="none"/><line y2="-25387" y1="-26213" x2="-29813" x1="-29813" fill="none"/><line y2="-30110" y1="-29585" x2="-27016" x1="-27924" fill="none"/><line y2="-29926" y1="-29533" x2="-27060" x1="-27742" fill="none"/><line y2="-29585" y1="-30110" x2="-26109" x1="-27016" fill="none"/><line y2="-29585" y1="-29585" x2="-25251" x1="-26109" fill="none"/><line y2="-29674" y1="-29674" x2="-25251" x1="-26109" fill="none"/><line y2="-29495" y1="-29495" x2="-25251" x1="-26109" fill="none"/><text y="-29406" xml:space="preserve" x="-25214" stroke="none" font-size="433.3333" font-family="sans-serif">N</text><text y="-24988" xml:space="preserve" x="-29966" stroke="none" font-size="433.3333" font-family="sans-serif">F</text><text y="-31650" xml:space="preserve" x="-29966" stroke="none" font-size="433.3333" font-family="sans-serif">N</text><text y="-30056" xml:space="preserve" x="-27848" stroke="none" font-style="italic" font-size="313.3333" font-family="sans-serif">E</text></g></g></svg>