<svg width="450.9" viewBox="0 0 15030 6562" text-rendering="auto" stroke-width="1" stroke-opacity="1" stroke-miterlimit="10" stroke-linejoin="miter" stroke-linecap="square" stroke-dashoffset="0" stroke-dasharray="none" stroke="black" shape-rendering="auto" image-rendering="auto" height="196.86" font-weight="normal" font-style="normal" font-size="12" font-family="'Dialog'" fill-opacity="1" fill="black" color-rendering="auto" color-interpolation="auto" xmlns="http://www.w3.org/2000/svg"><g><g stroke="white" fill="white"><rect y="0" x="0" width="15030" stroke="none" height="6562"/></g><g transform="translate(32866,32758)" text-rendering="geometricPrecision" stroke-width="44" stroke-linejoin="round" stroke-linecap="round"><line y2="-29278" y1="-29848" x2="-28825" x1="-29810" fill="none"/><line y2="-29203" y1="-29631" x2="-29033" x1="-29772" fill="none"/><line y2="-28143" y1="-29278" x2="-28825" x1="-28825" fill="none"/><line y2="-29848" y1="-29278" x2="-29810" x1="-30795" fill="none"/><line y2="-27574" y1="-28143" x2="-29810" x1="-28825" fill="none"/><line y2="-27791" y1="-28218" x2="-29772" x1="-29033" fill="none"/><line y2="-29278" y1="-28143" x2="-30795" x1="-30795" fill="none"/><line y2="-29137" y1="-28285" x2="-30625" x1="-30625" fill="none"/><line y2="-28143" y1="-27574" x2="-30795" x1="-29810" fill="none"/><line y2="-29694" y1="-29278" x2="-28106" x1="-28825" fill="none"/><line y2="-29278" y1="-29694" x2="-27011" x1="-27730" fill="none"/><line y2="-27727" y1="-28143" x2="-31514" x1="-30795" fill="none"/><line y2="-29804" y1="-29278" x2="-26104" x1="-27011" fill="none"/><line y2="-28452" y1="-29278" x2="-26941" x1="-26941" fill="none"/><line y2="-28452" y1="-29278" x2="-27080" x1="-27080" fill="none"/><line y2="-26788" y1="-27398" x2="-31633" x1="-31633" fill="none"/><line y2="-26788" y1="-27398" x2="-31772" x1="-31772" fill="none"/><line y2="-27973" y1="-27666" x2="-32456" x1="-31928" fill="none"/><line y2="-28094" y1="-27788" x2="-32387" x1="-31855" fill="none"/><line y2="-29278" y1="-29804" x2="-25196" x1="-26104" fill="none"/><line y2="-29804" y1="-29278" x2="-24289" x1="-25196" fill="none"/><line y2="-29278" y1="-29804" x2="-23382" x1="-24289" fill="none"/><line y2="-29804" y1="-29278" x2="-22475" x1="-23382" fill="none"/><line y2="-29388" y1="-29804" x2="-21756" x1="-22475" fill="none"/><line y2="-29804" y1="-29498" x2="-20661" x1="-21190" fill="none"/><line y2="-31376" y1="-31070" x2="-25196" x1="-25725" fill="none"/><line y2="-29388" y1="-29804" x2="-19942" x1="-20661" fill="none"/><line y2="-29804" y1="-29388" x2="-18847" x1="-19566" fill="none"/><line y2="-30630" y1="-29804" x2="-20730" x1="-20730" fill="none"/><line y2="-30630" y1="-29804" x2="-20592" x1="-20592" fill="none"/><line y2="-30960" y1="-31376" x2="-24477" x1="-25196" fill="none"/><line y2="-31376" y1="-30960" x2="-23382" x1="-24102" fill="none"/><line y2="-32202" y1="-31376" x2="-25266" x1="-25266" fill="none"/><line y2="-32202" y1="-31376" x2="-25127" x1="-25127" fill="none"/><line y2="-29278" y1="-29804" x2="-17940" x1="-18847" fill="none"/><line y2="-30711" y1="-29804" x2="-18324" x1="-18847" fill="none"/><line y2="-30711" y1="-29804" x2="-19370" x1="-18847" fill="none"/><line y2="-30850" y1="-31376" x2="-22475" x1="-23382" fill="none"/><line y2="-32283" y1="-31376" x2="-22859" x1="-23382" fill="none"/><line y2="-32283" y1="-31376" x2="-23905" x1="-23382" fill="none"/><polygon stroke-width="1" stroke="none" points=" -26104 -29804 -26173 -30630 -26034 -30630"/><polygon stroke-width="1" points=" -26104 -29804 -26173 -30630 -26034 -30630" fill="none"/><text y="-29625" xml:space="preserve" x="-28071" stroke-width="1" stroke="none" font-size="433.3333" font-family="sans-serif">O</text><text y="-28054" xml:space="preserve" x="-27164" stroke-width="1" stroke="none" font-size="433.3333" font-family="sans-serif">O</text><text y="-30671" xml:space="preserve" x="-26257" stroke-width="1" stroke="none" font-size="433.3333" font-family="sans-serif">NH</text><text y="-30671" xml:space="preserve" x="-24442" stroke-width="1" stroke="none" font-size="433.3333" font-family="sans-serif">O</text><text y="-32242" xml:space="preserve" x="-25350" stroke-width="1" stroke="none" font-size="433.3333" font-family="sans-serif">O</text><text y="-29099" xml:space="preserve" x="-21721" stroke-width="1" stroke="none" font-size="433.3333" font-family="sans-serif">NH</text><text y="-29099" xml:space="preserve" x="-19907" stroke-width="1" stroke="none" font-size="433.3333" font-family="sans-serif">O</text><text y="-30671" xml:space="preserve" x="-20814" stroke-width="1" stroke="none" font-size="433.3333" font-family="sans-serif">O</text><text y="-27438" xml:space="preserve" x="-31855" stroke-width="1" stroke="none" font-size="433.3333" font-family="sans-serif">N</text><text y="-26392" xml:space="preserve" x="-31855" stroke-width="1" stroke="none" font-size="433.3333" font-family="sans-serif">O</text><text y="-27964" xml:space="preserve" x="-32762" stroke-width="1" stroke="none" font-size="433.3333" font-family="sans-serif">O</text></g><g transform="translate(32866,32758)" text-rendering="geometricPrecision" stroke-linejoin="round" stroke-linecap="round" font-style="italic" font-size="313.3333" font-family="sans-serif"><text y="-29322" xml:space="preserve" x="-26257" stroke="none">S</text></g></g></svg>