<svg width="183.12" viewBox="0 0 6104 3194" text-rendering="auto" stroke-width="1" stroke-opacity="1" stroke-miterlimit="10" stroke-linejoin="miter" stroke-linecap="square" stroke-dashoffset="0" stroke-dasharray="none" stroke="black" shape-rendering="auto" image-rendering="auto" height="95.82" font-weight="normal" font-style="normal" font-size="12" font-family="'Dialog'" fill-opacity="1" fill="black" color-rendering="auto" color-interpolation="auto" xmlns="http://www.w3.org/2000/svg"><g><g stroke="white" fill="white"><rect y="0" x="0" width="6104" stroke="none" height="3194"/></g><g transform="translate(32866,32758)" text-rendering="geometricPrecision" stroke-width="44" stroke-linejoin="round" stroke-linecap="round"><line y2="-31855" y1="-30717" x2="-29885" x1="-29885" fill="none"/><line y2="-30717" y1="-30717" x2="-29885" x1="-27912" fill="none"/><line y2="-30148" y1="-30717" x2="-30867" x1="-29885" fill="none"/><line y2="-30365" y1="-30792" x2="-30830" x1="-30090" fill="none"/><line y2="-32315" y1="-31855" x2="-29085" x1="-29885" fill="none"/><line y2="-31855" y1="-32422" x2="-29885" x1="-30867" fill="none"/><line y2="-31777" y1="-32205" x2="-30090" x1="-30830" fill="none"/><line y2="-30717" y1="-31855" x2="-27912" x1="-27912" fill="none"/><line y2="-30717" y1="-30148" x2="-31855" x1="-30867" fill="none"/><line y2="-31855" y1="-32315" x2="-27912" x1="-28706" fill="none"/><line y2="-31766" y1="-32110" x2="-28097" x1="-28695" fill="none"/><line y2="-32422" y1="-31855" x2="-30867" x1="-31855" fill="none"/><line y2="-31855" y1="-30717" x2="-31855" x1="-31855" fill="none"/><line y2="-31711" y1="-30859" x2="-31685" x1="-31685" fill="none"/><line y2="-29668" y1="-30717" x2="-27912" x1="-27912" fill="none"/><line y2="-30717" y1="-30717" x2="-26866" x1="-27912" fill="none"/><line y2="-32378" y1="-31855" x2="-27005" x1="-27912" fill="none"/><line y2="-30191" y1="-30717" x2="-32762" x1="-31855" fill="none"/><text y="-32242" xml:space="preserve" x="-29047" stroke="none" font-size="433.3333" font-family="sans-serif">N</text></g></g></svg>