<svg width="302.52" viewBox="0 0 10084 5002" text-rendering="auto" stroke-width="1" stroke-opacity="1" stroke-miterlimit="10" stroke-linejoin="miter" stroke-linecap="square" stroke-dashoffset="0" stroke-dasharray="none" stroke="black" shape-rendering="auto" image-rendering="auto" height="150.06" font-weight="normal" font-style="normal" font-size="12" font-family="'Dialog'" fill-opacity="1" fill="black" color-rendering="auto" color-interpolation="auto" xmlns="http://www.w3.org/2000/svg"><g><g stroke="white" fill="white"><rect y="0" x="0" width="10084" stroke="none" height="5002"/></g><g transform="translate(32866,32758)" text-rendering="geometricPrecision" stroke-width="44" stroke-linejoin="round" stroke-linecap="round"><line y2="-30850" y1="-29706" x2="-27170" x1="-27170" fill="none"/><line y2="-29131" y1="-29706" x2="-28152" x1="-27170" fill="none"/><line y2="-29706" y1="-29131" x2="-27170" x1="-26187" fill="none"/><line y2="-29781" y1="-29351" x2="-26959" x1="-26222" fill="none"/><line y2="-31315" y1="-30850" x2="-26375" x1="-27170" fill="none"/><line y2="-31110" y1="-30763" x2="-26387" x1="-26982" fill="none"/><line y2="-30850" y1="-31425" x2="-27170" x1="-28152" fill="none"/><line y2="-29593" y1="-29131" x2="-28946" x1="-28152" fill="none"/><line y2="-29131" y1="-29706" x2="-26187" x1="-25202" fill="none"/><line y2="-30850" y1="-31315" x2="-25202" x1="-25997" fill="none"/><line y2="-31425" y1="-30850" x2="-28152" x1="-29134" fill="none"/><line y2="-30850" y1="-29923" x2="-29134" x1="-29134" fill="none"/><line y2="-29706" y1="-30850" x2="-25202" x1="-25202" fill="none"/><line y2="-29848" y1="-30708" x2="-25373" x1="-25373" fill="none"/><line y2="-29180" y1="-29596" x2="-30041" x1="-29322" fill="none"/><line y2="-31376" y1="-30850" x2="-24295" x1="-25202" fill="none"/><line y2="-29596" y1="-29180" x2="-30760" x1="-30041" fill="none"/><line y2="-29180" y1="-29596" x2="-31855" x1="-31136" fill="none"/><line y2="-28351" y1="-29180" x2="-29972" x1="-29972" fill="none"/><line y2="-28351" y1="-29180" x2="-30110" x1="-30110" fill="none"/><line y2="-30960" y1="-31376" x2="-23579" x1="-24295" fill="none"/><line y2="-32202" y1="-31376" x2="-24367" x1="-24367" fill="none"/><line y2="-32202" y1="-31376" x2="-24226" x1="-24226" fill="none"/><line y2="-29706" y1="-29180" x2="-32762" x1="-31855" fill="none"/><line y2="-28273" y1="-29180" x2="-32378" x1="-31855" fill="none"/><line y2="-28273" y1="-29180" x2="-31330" x1="-31855" fill="none"/><text y="-29527" xml:space="preserve" x="-31101" stroke="none" font-size="433.3333" font-family="sans-serif">O</text><text y="-27952" xml:space="preserve" x="-30191" stroke="none" font-size="433.3333" font-family="sans-serif">O</text><text y="-30671" xml:space="preserve" x="-23541" stroke="none" font-size="433.3333" font-family="sans-serif">OH</text><text y="-32242" xml:space="preserve" x="-24448" stroke="none" font-size="433.3333" font-family="sans-serif">O</text><text y="-31246" xml:space="preserve" x="-26338" stroke="none" font-size="433.3333" font-family="sans-serif">N</text><text y="-29527" xml:space="preserve" x="-29284" stroke="none" font-size="433.3333" font-family="sans-serif">N</text></g></g></svg>