<svg width="493.17" viewBox="0 0 16439 2646" text-rendering="auto" stroke-width="1" stroke-opacity="1" stroke-miterlimit="10" stroke-linejoin="miter" stroke-linecap="square" stroke-dashoffset="0" stroke-dasharray="none" stroke="black" shape-rendering="auto" image-rendering="auto" height="79.38" font-weight="normal" font-style="normal" font-size="12" font-family="'Dialog'" fill-opacity="1" fill="black" color-rendering="auto" color-interpolation="auto" xmlns="http://www.w3.org/2000/svg"><g><g stroke="white" fill="white"><rect y="0" x="0" width="16439" stroke="none" height="2646"/></g><g transform="translate(32866,32866)" text-rendering="geometricPrecision" stroke-width="44" stroke-linejoin="round" stroke-linecap="round"><line y2="-32762" y1="-31295" x2="-21776" x1="-21776" fill="none"/><line y2="-32762" y1="-32762" x2="-21504" x1="-21776" fill="none"/><line y2="-31295" y1="-31295" x2="-21504" x1="-21776" fill="none"/><line y2="-32762" y1="-31295" x2="-18072" x1="-18072" fill="none"/><line y2="-32762" y1="-32762" x2="-18347" x1="-18072" fill="none"/><line y2="-31295" y1="-31295" x2="-18347" x1="-18072" fill="none"/><line y2="-32029" y1="-30890" x2="-24598" x1="-24598" fill="none"/><line y2="-31887" y1="-31035" x2="-24428" x1="-24428" fill="none"/><line y2="-30890" y1="-30324" x2="-24598" x1="-23610" fill="none"/><line y2="-32598" y1="-32029" x2="-23610" x1="-24598" fill="none"/><line y2="-30324" y1="-30890" x2="-23610" x1="-22628" fill="none"/><line y2="-30541" y1="-30968" x2="-23573" x1="-22836" fill="none"/><line y2="-32029" y1="-32598" x2="-22628" x1="-23610" fill="none"/><line y2="-31954" y1="-32381" x2="-22836" x1="-23573" fill="none"/><line y2="-30890" y1="-32029" x2="-22628" x1="-22628" fill="none"/><line y2="-32029" y1="-32029" x2="-20927" x1="-22628" fill="none"/><line y2="-30368" y1="-30890" x2="-25506" x1="-24598" fill="none"/><line y2="-30890" y1="-30368" x2="-26413" x1="-25506" fill="none"/><line y2="-30368" y1="-30890" x2="-27320" x1="-26413" fill="none"/><line y2="-30890" y1="-30368" x2="-28227" x1="-27320" fill="none"/><line y2="-30368" y1="-30890" x2="-29134" x1="-28227" fill="none"/><line y2="-30890" y1="-30368" x2="-30041" x1="-29134" fill="none"/><line y2="-30368" y1="-30890" x2="-30948" x1="-30041" fill="none"/><line y2="-30890" y1="-30368" x2="-31855" x1="-30948" fill="none"/><line y2="-30368" y1="-30890" x2="-32762" x1="-31855" fill="none"/><line y2="-32554" y1="-32138" x2="-19832" x1="-20551" fill="none"/><line y2="-32029" y1="-32554" x2="-18925" x1="-19832" fill="none"/><line y2="-32029" y1="-32029" x2="-17223" x1="-18925" fill="none"/><text y="-31301" xml:space="preserve" x="-17971" stroke="none" font-size="433.3333" font-family="sans-serif">n</text><text y="-31850" xml:space="preserve" x="-20889" stroke="none" font-size="433.3333" font-family="sans-serif">O</text><text y="-31850" xml:space="preserve" x="-17186" stroke="none" font-size="433.3333" font-family="sans-serif">OH</text></g></g></svg>