<svg width="287.52" viewBox="0 0 9584 5263" text-rendering="auto" stroke-width="1" stroke-opacity="1" stroke-miterlimit="10" stroke-linejoin="miter" stroke-linecap="square" stroke-dashoffset="0" stroke-dasharray="none" stroke="black" shape-rendering="auto" image-rendering="auto" height="157.89" font-weight="normal" font-style="normal" font-size="12" font-family="'Dialog'" fill-opacity="1" fill="black" color-rendering="auto" color-interpolation="auto" xmlns="http://www.w3.org/2000/svg"><g><g stroke="white" fill="white"><rect y="0" x="0" width="9584" stroke="none" height="5263"/></g><g transform="translate(32866,32866)" text-rendering="geometricPrecision" stroke-width="44" stroke-linejoin="round" stroke-linecap="round"><line y2="-30255" y1="-29686" x2="-25777" x1="-26765" fill="none"/><line y2="-29686" y1="-28548" x2="-26765" x1="-26765" fill="none"/><line y2="-29544" y1="-28689" x2="-26595" x1="-26595" fill="none"/><line y2="-29686" y1="-30255" x2="-26765" x1="-27747" fill="none"/><line y2="-29686" y1="-30255" x2="-24795" x1="-25777" fill="none"/><line y2="-29611" y1="-30035" x2="-25003" x1="-25740" fill="none"/><line y2="-31171" y1="-30255" x2="-25777" x1="-25777" fill="none"/><line y2="-28088" y1="-28548" x2="-27560" x1="-26765" fill="none"/><line y2="-28548" y1="-27978" x2="-26765" x1="-25777" fill="none"/><line y2="-30255" y1="-29686" x2="-27747" x1="-28735" fill="none"/><line y2="-28548" y1="-29686" x2="-24795" x1="-24795" fill="none"/><line y2="-29686" y1="-30255" x2="-24795" x1="-23813" fill="none"/><line y2="-31959" y1="-31500" x2="-24795" x1="-25589" fill="none"/><line y2="-28548" y1="-28088" x2="-28735" x1="-27938" fill="none"/><line y2="-27978" y1="-28548" x2="-25777" x1="-24795" fill="none"/><line y2="-28198" y1="-28626" x2="-25740" x1="-25003" fill="none"/><line y2="-28548" y1="-29686" x2="-28735" x1="-28735" fill="none"/><line y2="-29686" y1="-30255" x2="-28735" x1="-29720" fill="none"/><line y2="-29611" y1="-30035" x2="-28943" x1="-29683" fill="none"/><line y2="-30255" y1="-31390" x2="-23813" x1="-23813" fill="none"/><line y2="-31390" y1="-31959" x2="-23813" x1="-24795" fill="none"/><line y2="-27978" y1="-28548" x2="-29720" x1="-28735" fill="none"/><line y2="-28198" y1="-28626" x2="-29683" x1="-28943" fill="none"/><line y2="-30255" y1="-29686" x2="-29720" x1="-30706" fill="none"/><line y2="-28548" y1="-27978" x2="-30706" x1="-29720" fill="none"/><line y2="-29686" y1="-28548" x2="-30706" x1="-30706" fill="none"/><line y2="-29544" y1="-28689" x2="-30535" x1="-30535" fill="none"/><line y2="-31301" y1="-30255" x2="-29720" x1="-29720" fill="none"/><line y2="-31826" y1="-31301" x2="-30628" x1="-29720" fill="none"/><line y2="-31301" y1="-31826" x2="-31535" x1="-30628" fill="none"/><line y2="-32762" y1="-31959" x2="-24122" x1="-24795" fill="none"/><line y2="-32762" y1="-31959" x2="-25468" x1="-24795" fill="none"/><line y2="-30102" y1="-29686" x2="-31425" x1="-30706" fill="none"/><line y2="-29853" y1="-30102" x2="-32231" x1="-31803" fill="none"/><line y2="-28132" y1="-28548" x2="-24076" x1="-24795" fill="none"/><line y2="-28244" y1="-28548" x2="-31234" x1="-30706" fill="none"/><line y2="-31081" y1="-30255" x2="-27820" x1="-27820" fill="none"/><line y2="-31081" y1="-30255" x2="-27678" x1="-27678" fill="none"/><line y2="-31826" y1="-31301" x2="-32442" x1="-31535" fill="none"/><line y2="-30394" y1="-31301" x2="-32058" x1="-31535" fill="none"/><line y2="-30613" y1="-31301" x2="-31136" x1="-31535" fill="none"/><text y="-31122" xml:space="preserve" x="-27900" stroke="none" font-size="433.3333" font-family="sans-serif">O</text><text y="-27846" xml:space="preserve" x="-24041" stroke="none" font-size="433.3333" font-family="sans-serif">OH</text><text y="-30214" xml:space="preserve" x="-31162" stroke="none" font-size="433.3333" font-family="sans-serif">OH</text><text y="-30030" xml:space="preserve" x="-31766" stroke="none" font-size="433.3333" font-family="sans-serif">O</text><text y="-29455" xml:space="preserve" x="-32762" stroke="none" font-size="433.3333" font-family="sans-serif">CH</text><text y="-29365" xml:space="preserve" x="-32185" stroke="none" font-size="313.3333" font-family="sans-serif">3</text><text y="-27846" xml:space="preserve" x="-31766" stroke="none" font-size="433.3333" font-family="sans-serif">OH</text><text y="-31211" xml:space="preserve" x="-25930" stroke="none" font-size="433.3333" font-family="sans-serif">O</text><text y="-27799" xml:space="preserve" x="-27900" stroke="none" font-size="433.3333" font-family="sans-serif">O</text></g></g></svg>