<svg width="267.15" viewBox="0 0 8905 3329" text-rendering="auto" stroke-width="1" stroke-opacity="1" stroke-miterlimit="10" stroke-linejoin="miter" stroke-linecap="square" stroke-dashoffset="0" stroke-dasharray="none" stroke="black" shape-rendering="auto" image-rendering="auto" height="99.87" font-weight="normal" font-style="normal" font-size="12" font-family="'Dialog'" fill-opacity="1" fill="black" color-rendering="auto" color-interpolation="auto" xmlns="http://www.w3.org/2000/svg"><g><g stroke="white" fill="white"><rect y="0" x="0" width="8905" stroke="none" height="3329"/></g><g transform="translate(32866,32758)" text-rendering="geometricPrecision" stroke-width="44" stroke-linejoin="round" stroke-linecap="round"><line y2="-31546" y1="-30850" x2="-27282" x1="-28224" fill="none"/><line y2="-30850" y1="-29787" x2="-28224" x1="-27898" fill="none"/><line y2="-30850" y1="-31546" x2="-26384" x1="-27282" fill="none"/><line y2="-29787" y1="-29787" x2="-27898" x1="-26751" fill="none"/><line y2="-29787" y1="-30850" x2="-26751" x1="-26384" fill="none"/><line y2="-30850" y1="-31266" x2="-30038" x1="-29322" fill="none"/><line y2="-30960" y1="-31376" x2="-24757" x1="-25477" fill="none"/><line y2="-32202" y1="-31416" x2="-25546" x1="-25546" fill="none"/><line y2="-32202" y1="-31376" x2="-25407" x1="-25407" fill="none"/><line y2="-31266" y1="-30850" x2="-30758" x1="-30038" fill="none"/><line y2="-30850" y1="-31266" x2="-31855" x1="-31136" fill="none"/><line y2="-30024" y1="-30850" x2="-29969" x1="-29969" fill="none"/><line y2="-30024" y1="-30850" x2="-30110" x1="-30110" fill="none"/><line y2="-31376" y1="-30850" x2="-32762" x1="-31855" fill="none"/><line y2="-29943" y1="-30850" x2="-32378" x1="-31855" fill="none"/><line y2="-29943" y1="-30850" x2="-31330" x1="-31855" fill="none"/><polygon stroke-width="1" stroke="none" points=" -26384 -30850 -25511 -31434 -25442 -31315"/><polygon stroke-width="1" points=" -26384 -30850 -25511 -31434 -25442 -31315" fill="none"/><polygon stroke-width="1" stroke="none" points=" -28224 -30850 -28787 -31096 -28718 -31214"/><polygon stroke-width="1" points=" -28224 -30850 -28787 -31096 -28718 -31214" fill="none"/><text y="-31197" xml:space="preserve" x="-29284" stroke-width="1" stroke="none" font-size="433.3333" font-family="sans-serif">NH</text><text y="-31197" xml:space="preserve" x="-31098" stroke-width="1" stroke="none" font-size="433.3333" font-family="sans-serif">O</text><text y="-29625" xml:space="preserve" x="-30191" stroke-width="1" stroke="none" font-size="433.3333" font-family="sans-serif">O</text><text y="-30671" xml:space="preserve" x="-24720" stroke-width="1" stroke="none" font-size="433.3333" font-family="sans-serif">OH</text><text y="-32242" xml:space="preserve" x="-25627" stroke-width="1" stroke="none" font-size="433.3333" font-family="sans-serif">O</text></g><g transform="translate(32866,32758)" text-rendering="geometricPrecision" stroke-linejoin="round" stroke-linecap="round" font-style="italic" font-size="313.3333" font-family="sans-serif"><text y="-30599" xml:space="preserve" x="-28100" stroke="none">R</text><text y="-30576" xml:space="preserve" x="-26806" stroke="none">S</text></g></g></svg>