<svg width="235.56" viewBox="0 0 7852 5288" text-rendering="auto" stroke-width="1" stroke-opacity="1" stroke-miterlimit="10" stroke-linejoin="miter" stroke-linecap="square" stroke-dashoffset="0" stroke-dasharray="none" stroke="black" shape-rendering="auto" image-rendering="auto" height="158.64" font-weight="normal" font-style="normal" font-size="12" font-family="'Dialog'" fill-opacity="1" fill="black" color-rendering="auto" color-interpolation="auto" xmlns="http://www.w3.org/2000/svg"><g><g stroke="white" fill="white"><rect y="0" x="0" width="7852" stroke="none" height="5288"/></g><g transform="translate(32866,32758)" text-rendering="geometricPrecision" stroke-width="44" stroke-linejoin="round" stroke-linecap="round"><line y2="-29278" y1="-29848" x2="-28825" x1="-29807" fill="none"/><line y2="-29203" y1="-29631" x2="-29033" x1="-29770" fill="none"/><line y2="-28143" y1="-29278" x2="-28825" x1="-28825" fill="none"/><line y2="-29848" y1="-29278" x2="-29807" x1="-30795" fill="none"/><line y2="-27574" y1="-28143" x2="-29807" x1="-28825" fill="none"/><line y2="-27791" y1="-28218" x2="-29770" x1="-29033" fill="none"/><line y2="-29278" y1="-28143" x2="-30795" x1="-30795" fill="none"/><line y2="-29137" y1="-28285" x2="-30625" x1="-30625" fill="none"/><line y2="-28143" y1="-27574" x2="-30795" x1="-29807" fill="none"/><line y2="-30217" y1="-29278" x2="-27198" x1="-28825" fill="none"/><line y2="-29694" y1="-29278" x2="-31514" x1="-30795" fill="none"/><line y2="-29388" y1="-30217" x2="-25384" x1="-26823" fill="none"/><line y2="-32202" y1="-30547" x2="-27011" x1="-27011" fill="none"/><line y2="-31266" y1="-30434" x2="-25384" x1="-26823" fill="none"/><line y2="-31266" y1="-30434" x2="-28637" x1="-27198" fill="none"/><line y2="-28452" y1="-30108" x2="-27011" x1="-27011" fill="none"/><line y2="-30630" y1="-30024" x2="-31772" x1="-31772" fill="none"/><line y2="-30630" y1="-30024" x2="-31633" x1="-31633" fill="none"/><line y2="-29328" y1="-29634" x2="-32387" x1="-31855" fill="none"/><line y2="-29449" y1="-29755" x2="-32456" x1="-31925" fill="none"/><text y="-30148" xml:space="preserve" x="-27164" stroke="none" font-size="433.3333" font-family="sans-serif">S</text><text y="-29099" xml:space="preserve" x="-25350" stroke="none" font-size="433.3333" font-family="sans-serif">F</text><text y="-32242" xml:space="preserve" x="-27164" stroke="none" font-size="433.3333" font-family="sans-serif">F</text><text y="-31197" xml:space="preserve" x="-25350" stroke="none" font-size="433.3333" font-family="sans-serif">F</text><text y="-31197" xml:space="preserve" x="-28978" stroke="none" font-size="433.3333" font-family="sans-serif">F</text><text y="-28054" xml:space="preserve" x="-27164" stroke="none" font-size="433.3333" font-family="sans-serif">F</text><text y="-29625" xml:space="preserve" x="-31855" stroke="none" font-size="433.3333" font-family="sans-serif">N</text><text y="-30671" xml:space="preserve" x="-31855" stroke="none" font-size="433.3333" font-family="sans-serif">O</text><text y="-29099" xml:space="preserve" x="-32762" stroke="none" font-size="433.3333" font-family="sans-serif">O</text></g></g></svg>