<svg width="124.29" viewBox="0 0 4143 5420" text-rendering="auto" stroke-width="1" stroke-opacity="1" stroke-miterlimit="10" stroke-linejoin="miter" stroke-linecap="square" stroke-dashoffset="0" stroke-dasharray="none" stroke="black" shape-rendering="auto" image-rendering="auto" height="162.6" font-weight="normal" font-style="normal" font-size="12" font-family="'Dialog'" fill-opacity="1" fill="black" color-rendering="auto" color-interpolation="auto" xmlns="http://www.w3.org/2000/svg"><g><g stroke="white" fill="white"><rect y="0" x="0" width="4143" stroke="none" height="5420"/></g><g transform="translate(32866,32758)" text-rendering="geometricPrecision" stroke-width="44" stroke-linejoin="round" stroke-linecap="round"><line y2="-29853" y1="-30989" x2="-30720" x1="-30720" fill="none"/><line y2="-29995" y1="-30847" x2="-30890" x1="-30890" fill="none"/><line y2="-30989" y1="-31558" x2="-30720" x1="-31702" fill="none"/><line y2="-29284" y1="-29853" x2="-31702" x1="-30720" fill="none"/><line y2="-31558" y1="-30989" x2="-31702" x1="-32690" fill="none"/><line y2="-31341" y1="-30914" x2="-31743" x1="-32482" fill="none"/><line y2="-29853" y1="-29284" x2="-32690" x1="-31702" fill="none"/><line y2="-29928" y1="-29504" x2="-32482" x1="-31743" fill="none"/><line y2="-30989" y1="-29853" x2="-32690" x1="-32690" fill="none"/><line y2="-31514" y1="-30989" x2="-29813" x1="-30720" fill="none"/><line y2="-28236" y1="-29284" x2="-31702" x1="-31702" fill="none"/><line y2="-32606" y1="-31558" x2="-31702" x1="-31702" fill="none"/><line y2="-31098" y1="-31514" x2="-29094" x1="-29813" fill="none"/><line y2="-32202" y1="-31514" x2="-29414" x1="-29813" fill="none"/><line y2="-32202" y1="-31514" x2="-30212" x1="-29813" fill="none"/><line y2="-27932" y1="-28236" x2="-32231" x1="-31702" fill="none"/><line y2="-27880" y1="-28296" x2="-30948" x1="-31668" fill="none"/><line y2="-27759" y1="-28175" x2="-31020" x1="-31737" fill="none"/><text y="-30810" xml:space="preserve" x="-29059" stroke="none" font-size="433.3333" font-family="sans-serif">F</text><text y="-32242" xml:space="preserve" x="-29440" stroke="none" font-size="433.3333" font-family="sans-serif">F</text><text y="-32242" xml:space="preserve" x="-30489" stroke="none" font-size="433.3333" font-family="sans-serif">F</text><text y="-27534" xml:space="preserve" x="-32762" stroke="none" font-size="433.3333" font-family="sans-serif">OH</text><text y="-27534" xml:space="preserve" x="-30948" stroke="none" font-size="433.3333" font-family="sans-serif">O</text></g></g></svg>