<svg width="221.22" viewBox="0 0 7374 4332" text-rendering="auto" stroke-width="1" stroke-opacity="1" stroke-miterlimit="10" stroke-linejoin="miter" stroke-linecap="square" stroke-dashoffset="0" stroke-dasharray="none" stroke="black" shape-rendering="auto" image-rendering="auto" height="129.96" font-weight="normal" font-style="normal" font-size="12" font-family="'Dialog'" fill-opacity="1" fill="black" color-rendering="auto" color-interpolation="auto" xmlns="http://www.w3.org/2000/svg"><g><g stroke="white" fill="white"><rect y="0" x="0" width="7374" stroke="none" height="4332"/></g><g transform="translate(32866,32758)" text-rendering="geometricPrecision" stroke-width="44" stroke-linejoin="round" stroke-linecap="round"><line y2="-30235" y1="-30804" x2="-29882" x1="-30867" fill="none"/><line y2="-30160" y1="-30587" x2="-30090" x1="-30830" fill="none"/><line y2="-29096" y1="-30235" x2="-29882" x1="-29882" fill="none"/><line y2="-30804" y1="-30235" x2="-30867" x1="-31852" fill="none"/><line y2="-28530" y1="-29096" x2="-30867" x1="-29882" fill="none"/><line y2="-28747" y1="-29174" x2="-30830" x1="-30090" fill="none"/><line y2="-30235" y1="-29096" x2="-31852" x1="-31852" fill="none"/><line y2="-30093" y1="-29241" x2="-31685" x1="-31685" fill="none"/><line y2="-29096" y1="-28530" x2="-31852" x1="-30867" fill="none"/><line y2="-30758" y1="-30235" x2="-28975" x1="-29882" fill="none"/><line y2="-28574" y1="-29096" x2="-32762" x1="-31852" fill="none"/><line y2="-31896" y1="-30758" x2="-28975" x1="-28975" fill="none"/><line y2="-31754" y1="-30902" x2="-28808" x1="-28808" fill="none"/><line y2="-30758" y1="-30191" x2="-28975" x1="-27990" fill="none"/><line y2="-32465" y1="-31896" x2="-27990" x1="-28975" fill="none"/><line y2="-30191" y1="-30758" x2="-27990" x1="-27005" fill="none"/><line y2="-30408" y1="-30836" x2="-27952" x1="-27213" fill="none"/><line y2="-31896" y1="-32465" x2="-27005" x1="-27990" fill="none"/><line y2="-31821" y1="-32248" x2="-27213" x1="-27952" fill="none"/><line y2="-30758" y1="-31896" x2="-27005" x1="-27005" fill="none"/><line y2="-32312" y1="-31896" x2="-26288" x1="-27005" fill="none"/><text y="-32242" xml:space="preserve" x="-26251" stroke="none" font-size="433.3333" font-family="sans-serif">OH</text></g></g></svg>