<svg width="299.67" viewBox="0 0 9989 7792" text-rendering="auto" stroke-width="1" stroke-opacity="1" stroke-miterlimit="10" stroke-linejoin="miter" stroke-linecap="square" stroke-dashoffset="0" stroke-dasharray="none" stroke="black" shape-rendering="auto" image-rendering="auto" height="233.76" font-weight="normal" font-style="normal" font-size="12" font-family="'Dialog'" fill-opacity="1" fill="black" color-rendering="auto" color-interpolation="auto" xmlns="http://www.w3.org/2000/svg"><g><g stroke="white" fill="white"><rect y="0" x="0" width="9989" stroke="none" height="7792"/></g><g transform="translate(32866,32758)" text-rendering="geometricPrecision" stroke-width="44" stroke-linejoin="round" stroke-linecap="round"><line y2="-27048" y1="-27508" x2="-26936" x1="-27730" fill="none"/><line y2="-25910" y1="-27048" x2="-26936" x1="-26936" fill="none"/><line y2="-27614" y1="-27048" x2="-25948" x1="-26936" fill="none"/><line y2="-27398" y1="-26970" x2="-25985" x1="-26728" fill="none"/><line y2="-27508" y1="-27048" x2="-28106" x1="-28906" fill="none"/><line y2="-25448" y1="-25910" x2="-27730" x1="-26936" fill="none"/><line y2="-25910" y1="-25341" x2="-26936" x1="-25948" fill="none"/><line y2="-25985" y1="-25560" x2="-26728" x1="-25985" fill="none"/><line y2="-27048" y1="-27614" x2="-24965" x1="-25948" fill="none"/><line y2="-25910" y1="-27048" x2="-28906" x1="-28906" fill="none"/><line y2="-27048" y1="-27614" x2="-28906" x1="-29888" fill="none"/><line y2="-26970" y1="-27398" x2="-29114" x1="-29850" fill="none"/><line y2="-25910" y1="-25448" x2="-28906" x1="-28106" fill="none"/><line y2="-25341" y1="-25910" x2="-25948" x1="-24965" fill="none"/><line y2="-25910" y1="-27048" x2="-24965" x1="-24965" fill="none"/><line y2="-26052" y1="-26904" x2="-25136" x1="-25136" fill="none"/><line y2="-25341" y1="-25910" x2="-29888" x1="-28906" fill="none"/><line y2="-25558" y1="-25985" x2="-29850" x1="-29114" fill="none"/><line y2="-27614" y1="-27048" x2="-29888" x1="-30876" fill="none"/><line y2="-25910" y1="-25341" x2="-30876" x1="-29888" fill="none"/><line y2="-27048" y1="-25910" x2="-30876" x1="-30876" fill="none"/><line y2="-26904" y1="-26052" x2="-30706" x1="-30706" fill="none"/><line y2="-28663" y1="-27834" x2="-27918" x1="-27918" fill="none"/><line y2="-29186" y1="-28663" x2="-28825" x1="-27918" fill="none"/><line y2="-30235" y1="-29186" x2="-28825" x1="-28825" fill="none"/><line y2="-30651" y1="-30235" x2="-29544" x1="-28825" fill="none"/><line y2="-27571" y1="-27048" x2="-24058" x1="-24965" fill="none"/><line y2="-30191" y1="-30651" x2="-30717" x1="-29923" fill="none"/><line y2="-30977" y1="-31896" x2="-29732" x1="-29732" fill="none"/><line y2="-30758" y1="-30191" x2="-31702" x1="-30717" fill="none"/><line y2="-31896" y1="-32465" x2="-29732" x1="-30717" fill="none"/><line y2="-31896" y1="-30758" x2="-31702" x1="-31702" fill="none"/><line y2="-32465" y1="-31896" x2="-30717" x1="-31702" fill="none"/><line y2="-32202" y1="-31896" x2="-32231" x1="-31702" fill="none"/><line y2="-27987" y1="-27571" x2="-23339" x1="-24058" fill="none"/><line y2="-28065" y1="-27649" x2="-23382" x1="-24102" fill="none"/><line y2="-27909" y1="-27493" x2="-23293" x1="-24012" fill="none"/><text y="-27915" xml:space="preserve" x="-23301" stroke="none" font-size="433.3333" font-family="sans-serif">N</text><text y="-32242" xml:space="preserve" x="-32762" stroke="none" font-size="433.3333" font-family="sans-serif">OH</text><text y="-27435" xml:space="preserve" x="-28071" stroke="none" font-size="433.3333" font-family="sans-serif">N</text><text y="-25162" xml:space="preserve" x="-28071" stroke="none" font-size="433.3333" font-family="sans-serif">S</text><text y="-30578" xml:space="preserve" x="-29885" stroke="none" font-size="433.3333" font-family="sans-serif">N</text></g></g></svg>