<svg width="295.08" viewBox="0 0 9836 3194" text-rendering="auto" stroke-width="1" stroke-opacity="1" stroke-miterlimit="10" stroke-linejoin="miter" stroke-linecap="square" stroke-dashoffset="0" stroke-dasharray="none" stroke="black" shape-rendering="auto" image-rendering="auto" height="95.82" font-weight="normal" font-style="normal" font-size="12" font-family="'Dialog'" fill-opacity="1" fill="black" color-rendering="auto" color-interpolation="auto" xmlns="http://www.w3.org/2000/svg"><g><g stroke="white" fill="white"><rect y="0" x="0" width="9836" stroke="none" height="3194"/></g><g transform="translate(32866,32758)" text-rendering="geometricPrecision" stroke-width="44" stroke-linejoin="round" stroke-linecap="round"><line y2="-31855" y1="-30717" x2="-27828" x1="-27828" fill="none"/><line y2="-30717" y1="-30717" x2="-27828" x1="-25855" fill="none"/><line y2="-30148" y1="-30717" x2="-28810" x1="-27828" fill="none"/><line y2="-30365" y1="-30792" x2="-28773" x1="-28036" fill="none"/><line y2="-32315" y1="-31855" x2="-27028" x1="-27828" fill="none"/><line y2="-31855" y1="-32422" x2="-27828" x1="-28810" fill="none"/><line y2="-31777" y1="-32205" x2="-28036" x1="-28773" fill="none"/><line y2="-30717" y1="-31855" x2="-25855" x1="-25855" fill="none"/><line y2="-30717" y1="-30148" x2="-29798" x1="-28810" fill="none"/><line y2="-31855" y1="-32315" x2="-25855" x1="-26652" fill="none"/><line y2="-32422" y1="-31855" x2="-28810" x1="-29798" fill="none"/><line y2="-31855" y1="-30717" x2="-29798" x1="-29798" fill="none"/><line y2="-31711" y1="-30859" x2="-29628" x1="-29628" fill="none"/><line y2="-29668" y1="-30717" x2="-25855" x1="-25855" fill="none"/><line y2="-30717" y1="-30717" x2="-24809" x1="-25855" fill="none"/><line y2="-30301" y1="-30717" x2="-30518" x1="-29798" fill="none"/><line y2="-30607" y1="-30301" x2="-31425" x1="-30893" fill="none"/><line y2="-32268" y1="-31855" x2="-25136" x1="-25855" fill="none"/><line y2="-31855" y1="-32268" x2="-24041" x1="-24760" fill="none"/><line y2="-32378" y1="-31855" x2="-23134" x1="-24041" fill="none"/><line y2="-30359" y1="-30607" x2="-32231" x1="-31800" fill="none"/><line y2="-31370" y1="-30902" x2="-32069" x1="-31798" fill="none"/><line y2="-31439" y1="-30971" x2="-31948" x1="-31676" fill="none"/><line y2="-31439" y1="-30971" x2="-31275" x1="-31546" fill="none"/><line y2="-31370" y1="-30902" x2="-31153" x1="-31425" fill="none"/><text y="-32199" xml:space="preserve" x="-25101" stroke="none" font-size="433.3333" font-family="sans-serif">O</text><text y="-30012" xml:space="preserve" x="-30856" stroke="none" font-size="433.3333" font-family="sans-serif">O</text><text y="-30538" xml:space="preserve" x="-31763" stroke="none" font-size="433.3333" font-family="sans-serif">S</text><text y="-29960" xml:space="preserve" x="-32762" stroke="none" font-size="433.3333" font-family="sans-serif">CH</text><text y="-29871" xml:space="preserve" x="-32185" stroke="none" font-size="313.3333" font-family="sans-serif">3</text><text y="-31445" xml:space="preserve" x="-32289" stroke="none" font-size="433.3333" font-family="sans-serif">O</text><text y="-31445" xml:space="preserve" x="-31240" stroke="none" font-size="433.3333" font-family="sans-serif">O</text><text y="-32242" xml:space="preserve" x="-26990" stroke="none" font-size="433.3333" font-family="sans-serif">O</text></g></g></svg>