<svg width="235.89" viewBox="0 0 7863 4532" text-rendering="auto" stroke-width="1" stroke-opacity="1" stroke-miterlimit="10" stroke-linejoin="miter" stroke-linecap="square" stroke-dashoffset="0" stroke-dasharray="none" stroke="black" shape-rendering="auto" image-rendering="auto" height="135.96" font-weight="normal" font-style="normal" font-size="12" font-family="'Dialog'" fill-opacity="1" fill="black" color-rendering="auto" color-interpolation="auto" xmlns="http://www.w3.org/2000/svg"><g><g stroke="white" fill="white"><rect y="0" x="0" width="7863" stroke="none" height="4532"/></g><g transform="translate(32866,32866)" text-rendering="geometricPrecision" stroke-width="44" stroke-linejoin="round" stroke-linecap="round"><line y2="-31760" y1="-31191" x2="-27906" x1="-28891" fill="none"/><line y2="-31540" y1="-31113" x2="-27944" x1="-28683" fill="none"/><line y2="-31191" y1="-30053" x2="-28891" x1="-28891" fill="none"/><line y2="-31191" y1="-31760" x2="-26921" x1="-27906" fill="none"/><line y2="-30053" y1="-29484" x2="-28891" x1="-27906" fill="none"/><line y2="-30131" y1="-29703" x2="-28683" x1="-27944" fill="none"/><line y2="-30053" y1="-31191" x2="-26921" x1="-26921" fill="none"/><line y2="-30197" y1="-31049" x2="-27092" x1="-27092" fill="none"/><line y2="-29484" y1="-30053" x2="-27906" x1="-26921" fill="none"/><line y2="-31714" y1="-31191" x2="-26014" x1="-26921" fill="none"/><line y2="-28438" y1="-29484" x2="-27906" x1="-27906" fill="none"/><line y2="-31607" y1="-31191" x2="-29611" x1="-28891" fill="none"/><line y2="-31191" y1="-31607" x2="-30706" x1="-29986" fill="none"/><line y2="-31191" y1="-31714" x2="-25107" x1="-26014" fill="none"/><line y2="-32762" y1="-31714" x2="-26014" x1="-26014" fill="none"/><line y2="-31494" y1="-31191" x2="-31234" x1="-30706" fill="none"/><line y2="-31358" y1="-31607" x2="-32231" x1="-31800" fill="none"/><line y2="-30362" y1="-31191" x2="-30636" x1="-30636" fill="none"/><line y2="-30362" y1="-31191" x2="-30778" x1="-30778" fill="none"/><text y="-31535" xml:space="preserve" x="-29952" stroke="none" font-size="433.3333" font-family="sans-serif">O</text><text y="-31535" xml:space="preserve" x="-31766" stroke="none" font-size="433.3333" font-family="sans-serif">NH</text><text y="-29963" xml:space="preserve" x="-30859" stroke="none" font-size="433.3333" font-family="sans-serif">O</text><text y="-30960" xml:space="preserve" x="-32762" stroke="none" font-size="433.3333" font-family="sans-serif">CH</text><text y="-30870" xml:space="preserve" x="-32185" stroke="none" font-size="313.3333" font-family="sans-serif">3</text></g></g></svg>