<svg width="153.48" viewBox="0 0 5116 4795" text-rendering="auto" stroke-width="1" stroke-opacity="1" stroke-miterlimit="10" stroke-linejoin="miter" stroke-linecap="square" stroke-dashoffset="0" stroke-dasharray="none" stroke="black" shape-rendering="auto" image-rendering="auto" height="143.85" font-weight="normal" font-style="normal" font-size="12" font-family="'Dialog'" fill-opacity="1" fill="black" color-rendering="auto" color-interpolation="auto" xmlns="http://www.w3.org/2000/svg"><g><g stroke="white" fill="white"><rect y="0" x="0" width="5116" stroke="none" height="4795"/></g><g transform="translate(32866,32758)" text-rendering="geometricPrecision" stroke-width="44" stroke-linejoin="round" stroke-linecap="round"><line y2="-29146" y1="-30064" x2="-30732" x1="-30732" fill="none"/><line y2="-30850" y1="-30391" x2="-29744" x1="-30544" fill="none"/><line y2="-30281" y1="-30281" x2="-30919" x1="-31870" fill="none"/><line y2="-29146" y1="-29146" x2="-31870" x1="-30732" fill="none"/><line y2="-29146" y1="-28683" x2="-30732" x1="-29934" fill="none"/><line y2="-30281" y1="-30850" x2="-28761" x1="-29744" fill="none"/><line y2="-30206" y1="-30633" x2="-28969" x1="-29706" fill="none"/><line y2="-30281" y1="-29146" x2="-31870" x1="-31870" fill="none"/><line y2="-28683" y1="-29146" x2="-29556" x1="-28761" fill="none"/><line y2="-29146" y1="-30281" x2="-28761" x1="-28761" fill="none"/><line y2="-31899" y1="-30850" x2="-29744" x1="-29744" fill="none"/><line y2="-30807" y1="-30281" x2="-27854" x1="-28761" fill="none"/><line y2="-28623" y1="-29146" x2="-32390" x1="-31870" fill="none"/><line y2="-30786" y1="-30232" x2="-32471" x1="-31919" fill="none"/><line y2="-30885" y1="-30333" x2="-32372" x1="-31821" fill="none"/><line y2="-32202" y1="-31899" x2="-30272" x1="-29744" fill="none"/><line y2="-32375" y1="-31959" x2="-29062" x1="-29781" fill="none"/><line y2="-32254" y1="-31838" x2="-28990" x1="-29709" fill="none"/><text y="-32242" xml:space="preserve" x="-30804" stroke="none" font-size="433.3333" font-family="sans-serif">OH</text><text y="-32242" xml:space="preserve" x="-28990" stroke="none" font-size="433.3333" font-family="sans-serif">O</text><text y="-30844" xml:space="preserve" x="-32762" stroke="none" font-size="433.3333" font-family="sans-serif">O</text><text y="-28224" xml:space="preserve" x="-32762" stroke="none" font-size="433.3333" font-family="sans-serif">NH</text><text y="-28134" xml:space="preserve" x="-32185" stroke="none" font-size="313.3333" font-family="sans-serif">2</text><text y="-30102" xml:space="preserve" x="-30885" stroke="none" font-size="433.3333" font-family="sans-serif">N</text><text y="-28397" xml:space="preserve" x="-29897" stroke="none" font-size="433.3333" font-family="sans-serif">S</text></g></g></svg>