<svg width="327.66" viewBox="0 0 10922 5670" text-rendering="auto" stroke-width="1" stroke-opacity="1" stroke-miterlimit="10" stroke-linejoin="miter" stroke-linecap="square" stroke-dashoffset="0" stroke-dasharray="none" stroke="black" shape-rendering="auto" image-rendering="auto" height="170.1" font-weight="normal" font-style="normal" font-size="12" font-family="'Dialog'" fill-opacity="1" fill="black" color-rendering="auto" color-interpolation="auto" xmlns="http://www.w3.org/2000/svg"><g><g stroke="white" fill="white"><rect y="0" x="0" width="10922" stroke="none" height="5670"/></g><g transform="translate(32866,32866)" text-rendering="geometricPrecision" stroke-width="44" stroke-linejoin="round" stroke-linecap="round"><line y2="-30532" y1="-29394" x2="-29134" x1="-29134" fill="none"/><line y2="-30391" y1="-29538" x2="-28964" x1="-28964" fill="none"/><line y2="-29394" y1="-28828" x2="-29134" x1="-28146" fill="none"/><line y2="-31101" y1="-30532" x2="-28146" x1="-29134" fill="none"/><line y2="-28828" y1="-29394" x2="-28146" x1="-27164" fill="none"/><line y2="-29044" y1="-29472" x2="-28108" x1="-27372" fill="none"/><line y2="-30532" y1="-31101" x2="-27164" x1="-28146" fill="none"/><line y2="-30457" y1="-30885" x2="-27372" x1="-28108" fill="none"/><line y2="-29394" y1="-30532" x2="-27164" x1="-27164" fill="none"/><line y2="-30948" y1="-30532" x2="-26444" x1="-27164" fill="none"/><line y2="-30703" y1="-31009" x2="-25503" x1="-26034" fill="none"/><line y2="-30581" y1="-30888" x2="-25572" x1="-26104" fill="none"/><line y2="-31055" y1="-30642" x2="-24442" x1="-25162" fill="none"/><line y2="-28981" y1="-29394" x2="-29853" x1="-29134" fill="none"/><line y2="-31055" y1="-30489" x2="-24442" x1="-23457" fill="none"/><line y2="-31133" y1="-30706" x2="-24234" x1="-23495" fill="none"/><line y2="-32193" y1="-31055" x2="-24442" x1="-24442" fill="none"/><line y2="-30489" y1="-31055" x2="-23457" x1="-22472" fill="none"/><line y2="-32762" y1="-32193" x2="-23457" x1="-24442" fill="none"/><line y2="-32546" y1="-32118" x2="-23495" x1="-24234" fill="none"/><line y2="-31055" y1="-32193" x2="-22472" x1="-22472" fill="none"/><line y2="-31200" y1="-32052" x2="-22643" x1="-22643" fill="none"/><line y2="-32193" y1="-32762" x2="-22472" x1="-23457" fill="none"/><line y2="-29440" y1="-30489" x2="-23457" x1="-23457" fill="none"/><line y2="-29394" y1="-28981" x2="-30948" x1="-30229" fill="none"/><line y2="-28871" y1="-29394" x2="-31855" x1="-30948" fill="none"/><line y2="-29394" y1="-28871" x2="-32762" x1="-31855" fill="none"/><line y2="-27822" y1="-28652" x2="-30041" x1="-30041" fill="none"/><line y2="-27300" y1="-27822" x2="-30948" x1="-30041" fill="none"/><line y2="-27822" y1="-27300" x2="-31855" x1="-30948" fill="none"/><line y2="-29024" y1="-29440" x2="-22738" x1="-23457" fill="none"/><line y2="-28964" y1="-29380" x2="-24142" x1="-23423" fill="none"/><line y2="-29085" y1="-29501" x2="-24211" x1="-23492" fill="none"/><text y="-28692" xml:space="preserve" x="-30194" stroke="none" font-size="433.3333" font-family="sans-serif">N</text><text y="-30876" xml:space="preserve" x="-26407" stroke="none" font-size="433.3333" font-family="sans-serif">N</text><text y="-30353" xml:space="preserve" x="-25500" stroke="none" font-size="433.3333" font-family="sans-serif">N</text><text y="-28738" xml:space="preserve" x="-22703" stroke="none" font-size="433.3333" font-family="sans-serif">OH</text><text y="-28738" xml:space="preserve" x="-24518" stroke="none" font-size="433.3333" font-family="sans-serif">O</text></g></g></svg>