<svg width="284.91" viewBox="0 0 9497 5424" text-rendering="auto" stroke-width="1" stroke-opacity="1" stroke-miterlimit="10" stroke-linejoin="miter" stroke-linecap="square" stroke-dashoffset="0" stroke-dasharray="none" stroke="black" shape-rendering="auto" image-rendering="auto" height="162.72" font-weight="normal" font-style="normal" font-size="12" font-family="'Dialog'" fill-opacity="1" fill="black" color-rendering="auto" color-interpolation="auto" xmlns="http://www.w3.org/2000/svg"><g><g stroke="white" fill="white"><rect y="0" x="0" width="9497" stroke="none" height="5424"/></g><g transform="translate(32866,32758)" text-rendering="geometricPrecision" stroke-width="44" stroke-linejoin="round" stroke-linecap="round"><line y2="-29668" y1="-29668" x2="-29813" x1="-28666" fill="none"/><line y2="-29839" y1="-29839" x2="-29668" x1="-28810" fill="none"/><line y2="-30732" y1="-29668" x2="-30142" x1="-29813" fill="none"/><line y2="-29668" y1="-30732" x2="-28666" x1="-28299" fill="none"/><line y2="-31289" y1="-30732" x2="-29388" x1="-30142" fill="none"/><line y2="-30732" y1="-31208" x2="-28299" x1="-28914" fill="none"/><line y2="-29252" y1="-29668" x2="-27947" x1="-28666" fill="none"/><line y2="-29668" y1="-29365" x2="-26852" x1="-27380" fill="none"/><line y2="-29146" y1="-29668" x2="-30720" x1="-29813" fill="none"/><line y2="-30931" y1="-30665" x2="-30971" x1="-30162" fill="none"/><line y2="-31061" y1="-30798" x2="-30928" x1="-30119" fill="none"/><line y2="-31035" y1="-30801" x2="-27499" x1="-28316" fill="none"/><line y2="-30899" y1="-30665" x2="-27461" x1="-28279" fill="none"/><line y2="-30807" y1="-29668" x2="-26852" x1="-26852" fill="none"/><line y2="-30665" y1="-29810" x2="-26681" x1="-26681" fill="none"/><line y2="-29668" y1="-29099" x2="-26852" x1="-25867" fill="none"/><line y2="-31376" y1="-30807" x2="-25867" x1="-26852" fill="none"/><line y2="-29099" y1="-29668" x2="-25867" x1="-24882" fill="none"/><line y2="-29319" y1="-29744" x2="-25829" x1="-25090" fill="none"/><line y2="-30807" y1="-31376" x2="-24882" x1="-25867" fill="none"/><line y2="-30729" y1="-31156" x2="-25090" x1="-25829" fill="none"/><line y2="-29668" y1="-30807" x2="-24882" x1="-24882" fill="none"/><line y2="-32202" y1="-31376" x2="-25867" x1="-25867" fill="none"/><line y2="-31223" y1="-30807" x2="-24162" x1="-24882" fill="none"/><line y2="-29146" y1="-29715" x2="-30720" x1="-31702" fill="none"/><line y2="-29068" y1="-29495" x2="-30928" x1="-31665" fill="none"/><line y2="-28007" y1="-29146" x2="-30720" x1="-30720" fill="none"/><line y2="-29715" y1="-29146" x2="-31702" x1="-32690" fill="none"/><line y2="-27438" y1="-28007" x2="-31702" x1="-30720" fill="none"/><line y2="-27658" y1="-28082" x2="-31665" x1="-30928" fill="none"/><line y2="-29146" y1="-28007" x2="-32690" x1="-32690" fill="none"/><line y2="-29001" y1="-28149" x2="-32520" x1="-32520" fill="none"/><line y2="-28007" y1="-27438" x2="-32690" x1="-31702" fill="none"/><line y2="-31546" y1="-29715" x2="-31702" x1="-31702" fill="none"/><line y2="-32118" y1="-31812" x2="-32456" x1="-31925" fill="none"/><line y2="-32240" y1="-31933" x2="-32387" x1="-31855" fill="none"/><line y2="-32240" y1="-31933" x2="-31018" x1="-31549" fill="none"/><line y2="-32118" y1="-31812" x2="-30948" x1="-31480" fill="none"/><text y="-28966" xml:space="preserve" x="-27912" stroke="none" font-size="433.3333" font-family="sans-serif">NH</text><text y="-30879" xml:space="preserve" x="-31289" stroke="none" font-size="433.3333" font-family="sans-serif">O</text><text y="-31587" xml:space="preserve" x="-31855" stroke="none" font-size="433.3333" font-family="sans-serif">N</text><text y="-32110" xml:space="preserve" x="-32762" stroke="none" font-size="433.3333" font-family="sans-serif">O</text><text y="-32110" xml:space="preserve" x="-30948" stroke="none" font-size="433.3333" font-family="sans-serif">O</text><text y="-30841" xml:space="preserve" x="-27444" stroke="none" font-size="433.3333" font-family="sans-serif">O</text><text y="-32242" xml:space="preserve" x="-26098" stroke="none" font-size="433.3333" font-family="sans-serif">Cl</text><text y="-31150" xml:space="preserve" x="-24128" stroke="none" font-size="433.3333" font-family="sans-serif">OH</text><text y="-31249" xml:space="preserve" x="-29351" stroke="none" font-size="433.3333" font-family="sans-serif">NH</text></g></g></svg>