<svg width="308.73" viewBox="0 0 10291 4730" text-rendering="auto" stroke-width="1" stroke-opacity="1" stroke-miterlimit="10" stroke-linejoin="miter" stroke-linecap="square" stroke-dashoffset="0" stroke-dasharray="none" stroke="black" shape-rendering="auto" image-rendering="auto" height="141.9" font-weight="normal" font-style="normal" font-size="12" font-family="'Dialog'" fill-opacity="1" fill="black" color-rendering="auto" color-interpolation="auto" xmlns="http://www.w3.org/2000/svg"><g><g stroke="white" fill="white"><rect y="0" x="0" width="10291" stroke="none" height="4730"/></g><g transform="translate(32866,32758)" text-rendering="geometricPrecision" stroke-width="44" stroke-linejoin="round" stroke-linecap="round"><line y2="-30281" y1="-29146" x2="-30792" x1="-30792" fill="none"/><line y2="-29146" y1="-29146" x2="-30792" x1="-28819" fill="none"/><line y2="-28576" y1="-29146" x2="-31774" x1="-30792" fill="none"/><line y2="-28793" y1="-29221" x2="-31737" x1="-31000" fill="none"/><line y2="-30850" y1="-30281" x2="-29804" x1="-30792" fill="none"/><line y2="-30281" y1="-30850" x2="-30792" x1="-31774" fill="none"/><line y2="-30206" y1="-30633" x2="-31000" x1="-31737" fill="none"/><line y2="-29146" y1="-30064" x2="-28819" x1="-28819" fill="none"/><line y2="-29146" y1="-28576" x2="-32762" x1="-31774" fill="none"/><line y2="-30391" y1="-30850" x2="-29010" x1="-29804" fill="none"/><line y2="-30850" y1="-30281" x2="-31774" x1="-32762" fill="none"/><line y2="-30281" y1="-29146" x2="-32762" x1="-32762" fill="none"/><line y2="-30139" y1="-29287" x2="-32592" x1="-32592" fill="none"/><line y2="-30807" y1="-30391" x2="-27912" x1="-28631" fill="none"/><line y2="-30281" y1="-30807" x2="-27005" x1="-27912" fill="none"/><line y2="-30697" y1="-30281" x2="-26286" x1="-27005" fill="none"/><line y2="-30281" y1="-30697" x2="-25191" x1="-25910" fill="none"/><line y2="-28643" y1="-29195" x2="-28218" x1="-28770" fill="none"/><line y2="-28542" y1="-29096" x2="-28316" x1="-28868" fill="none"/><line y2="-31679" y1="-30850" x2="-29874" x1="-29874" fill="none"/><line y2="-31679" y1="-30850" x2="-29735" x1="-29735" fill="none"/><line y2="-30850" y1="-30281" x2="-24208" x1="-25191" fill="none"/><line y2="-30633" y1="-30206" x2="-24246" x1="-24983" fill="none"/><line y2="-30281" y1="-29146" x2="-25191" x1="-25191" fill="none"/><line y2="-30281" y1="-30850" x2="-23220" x1="-24208" fill="none"/><line y2="-29146" y1="-28576" x2="-25191" x1="-24208" fill="none"/><line y2="-29221" y1="-28793" x2="-24983" x1="-24246" fill="none"/><line y2="-29146" y1="-30281" x2="-23220" x1="-23220" fill="none"/><line y2="-29287" y1="-30139" x2="-23391" x1="-23391" fill="none"/><line y2="-28576" y1="-29146" x2="-24208" x1="-23220" fill="none"/><line y2="-31679" y1="-30850" x2="-24208" x1="-24208" fill="none"/><line y2="-32315" y1="-32008" x2="-23489" x1="-24021" fill="none"/><text y="-28224" xml:space="preserve" x="-28233" stroke="none" font-size="433.3333" font-family="sans-serif">O</text><text y="-31720" xml:space="preserve" x="-29957" stroke="none" font-size="433.3333" font-family="sans-serif">O</text><text y="-30628" xml:space="preserve" x="-26251" stroke="none" font-size="433.3333" font-family="sans-serif">O</text><text y="-31720" xml:space="preserve" x="-24362" stroke="none" font-size="433.3333" font-family="sans-serif">O</text><text y="-32242" xml:space="preserve" x="-23454" stroke="none" font-size="433.3333" font-family="sans-serif">CH</text><text y="-32153" xml:space="preserve" x="-22877" stroke="none" font-size="313.3333" font-family="sans-serif">3</text><text y="-30102" xml:space="preserve" x="-28972" stroke="none" font-size="433.3333" font-family="sans-serif">N</text></g></g></svg>