<svg width="315.33" viewBox="0 0 10511 6600" text-rendering="auto" stroke-width="1" stroke-opacity="1" stroke-miterlimit="10" stroke-linejoin="miter" stroke-linecap="square" stroke-dashoffset="0" stroke-dasharray="none" stroke="black" shape-rendering="auto" image-rendering="auto" height="198.0" font-weight="normal" font-style="normal" font-size="12" font-family="'Dialog'" fill-opacity="1" fill="black" color-rendering="auto" color-interpolation="auto" xmlns="http://www.w3.org/2000/svg"><g><g stroke="white" fill="white"><rect y="0" x="0" width="10511" stroke="none" height="6600"/></g><g transform="translate(32866,32758)" text-rendering="geometricPrecision" stroke-width="44" stroke-linejoin="round" stroke-linecap="round"><line y2="-30177" y1="-29033" x2="-26817" x1="-26817" fill="none"/><line y2="-28458" y1="-29033" x2="-27799" x1="-26817" fill="none"/><line y2="-29033" y1="-28458" x2="-26817" x1="-25835" fill="none"/><line y2="-30752" y1="-30177" x2="-25835" x1="-26817" fill="none"/><line y2="-30177" y1="-30752" x2="-26817" x1="-27799" fill="none"/><line y2="-29033" y1="-28458" x2="-28782" x1="-27799" fill="none"/><line y2="-27311" y1="-28458" x2="-27799" x1="-27799" fill="none"/><line y2="-28458" y1="-29033" x2="-25835" x1="-24853" fill="none"/><line y2="-30177" y1="-30752" x2="-24853" x1="-25835" fill="none"/><line y2="-31899" y1="-30752" x2="-25835" x1="-25835" fill="none"/><line y2="-30752" y1="-30177" x2="-27799" x1="-28782" fill="none"/><line y2="-30177" y1="-29033" x2="-28782" x1="-28782" fill="none"/><line y2="-30035" y1="-29174" x2="-28611" x1="-28611" fill="none"/><line y2="-29033" y1="-28458" x2="-28782" x1="-29764" fill="none"/><line y2="-26739" y1="-27311" x2="-28782" x1="-27799" fill="none"/><line y2="-29033" y1="-30177" x2="-24853" x1="-24853" fill="none"/><line y2="-30177" y1="-30752" x2="-24853" x1="-23870" fill="none"/><line y2="-32471" y1="-31899" x2="-24853" x1="-25835" fill="none"/><line y2="-27311" y1="-28458" x2="-29764" x1="-29764" fill="none"/><line y2="-28458" y1="-29033" x2="-29764" x1="-30746" fill="none"/><line y2="-27311" y1="-26739" x2="-29764" x1="-28782" fill="none"/><line y2="-30752" y1="-31899" x2="-23870" x1="-23870" fill="none"/><line y2="-31899" y1="-32471" x2="-23870" x1="-24853" fill="none"/><line y2="-26739" y1="-27311" x2="-30746" x1="-29764" fill="none"/><line y2="-29033" y1="-28458" x2="-30746" x1="-31731" fill="none"/><line y2="-27311" y1="-26739" x2="-31731" x1="-30746" fill="none"/><line y2="-28458" y1="-27311" x2="-31731" x1="-31731" fill="none"/><line y2="-29767" y1="-30752" x2="-23512" x1="-23870" fill="none"/><line y2="-30934" y1="-30752" x2="-22839" x1="-23870" fill="none"/><line y2="-29443" y1="-28458" x2="-32089" x1="-31731" fill="none"/><line y2="-28276" y1="-28458" x2="-32762" x1="-31731" fill="none"/><line y2="-32214" y1="-31907" x2="-27080" x1="-27612" fill="none"/><polygon stroke-width="1" stroke="none" points=" -27799 -28458 -27869 -29507 -27730 -29507"/><polygon stroke-width="1" points=" -27799 -28458 -27869 -29507 -27730 -29507" fill="none"/><polygon stroke-width="1" stroke="none" points=" -27799 -30752 -27869 -31578 -27730 -31581"/><polygon stroke-width="1" points=" -27799 -30752 -27869 -31578 -27730 -31581" fill="none"/><polygon stroke-width="1" stroke="none" points=" -26817 -30177 -26886 -31006 -26748 -31006"/><polygon stroke-width="1" points=" -26817 -30177 -26886 -31006 -26748 -31006" fill="none"/><polygon stroke-width="1" stroke="none" points=" -24853 -30177 -24922 -31006 -24783 -31006"/><polygon stroke-width="1" points=" -24853 -30177 -24922 -31006 -24783 -31006" fill="none"/><line y2="-27984" y1="-27984" x2="-26886" x1="-26748" fill="none"/><line y2="-28201" y1="-28201" x2="-26872" x1="-26762" fill="none"/><line y2="-28417" y1="-28417" x2="-26857" x1="-26777" fill="none"/><line y2="-28634" y1="-28634" x2="-26843" x1="-26791" fill="none"/><line y2="-28851" y1="-28851" x2="-26829" x1="-26805" fill="none"/><line y2="-29703" y1="-29703" x2="-25904" x1="-25766" fill="none"/><line y2="-29920" y1="-29920" x2="-25890" x1="-25780" fill="none"/><line y2="-30136" y1="-30136" x2="-25875" x1="-25795" fill="none"/><line y2="-30353" y1="-30353" x2="-25861" x1="-25809" fill="none"/><line y2="-30570" y1="-30570" x2="-25847" x1="-25823" fill="none"/><line y2="-26262" y1="-26265" x2="-29833" x1="-29697" fill="none"/><line y2="-26479" y1="-26481" x2="-29819" x1="-29711" fill="none"/><line y2="-26696" y1="-26698" x2="-29804" x1="-29725" fill="none"/><line y2="-26913" y1="-26914" x2="-29790" x1="-29739" fill="none"/><line y2="-27130" y1="-27130" x2="-29776" x1="-29752" fill="none"/><line y2="-32254" y1="-32372" x2="-23116" x1="-23186" fill="none"/><line y2="-32161" y1="-32248" x2="-23313" x1="-23365" fill="none"/><line y2="-32069" y1="-32125" x2="-23510" x1="-23543" fill="none"/><line y2="-31976" y1="-32001" x2="-23707" x1="-23722" fill="none"/><line y2="-29287" y1="-29287" x2="-29697" x1="-29833" fill="none"/><line y2="-29070" y1="-29070" x2="-29715" x1="-29815" fill="none"/><line y2="-28854" y1="-28854" x2="-29732" x1="-29797" fill="none"/><line y2="-28637" y1="-28637" x2="-29750" x1="-29779" fill="none"/><text y="-31621" xml:space="preserve" x="-27952" stroke="none" font-size="433.3333" font-family="sans-serif">O</text><text y="-32144" xml:space="preserve" x="-27045" stroke="none" font-size="433.3333" font-family="sans-serif">CH</text><text y="-32055" xml:space="preserve" x="-26468" stroke="none" font-size="313.3333" font-family="sans-serif">3</text><text y="-32242" xml:space="preserve" x="-23114" stroke="none" font-size="433.3333" font-family="sans-serif">OH</text><text y="-31046" xml:space="preserve" x="-26970" stroke="none" font-size="433.3333" font-family="sans-serif">H</text><text y="-29328" xml:space="preserve" x="-29917" stroke="none" font-size="433.3333" font-family="sans-serif">H</text><text y="-31046" xml:space="preserve" x="-25006" stroke="none" font-size="433.3333" font-family="sans-serif">H</text><text y="-28995" xml:space="preserve" x="-27219" stroke="none" font-style="italic" font-size="313.3333" font-family="sans-serif">R</text><text y="-29856" xml:space="preserve" x="-26722" stroke="none" font-style="italic" font-size="313.3333" font-family="sans-serif">R</text><text y="-28137" xml:space="preserve" x="-27704" stroke="none" font-style="italic" font-size="313.3333" font-family="sans-serif">S</text><text y="-30714" xml:space="preserve" x="-26236" stroke="none" font-style="italic" font-size="313.3333" font-family="sans-serif">S</text><text y="-30269" xml:space="preserve" x="-27952" stroke="none" font-style="italic" font-size="313.3333" font-family="sans-serif">R</text><text y="-29856" xml:space="preserve" x="-24757" stroke="none" font-style="italic" font-size="313.3333" font-family="sans-serif">R</text><text y="-28137" xml:space="preserve" x="-29668" stroke="none" font-style="italic" font-size="313.3333" font-family="sans-serif">R</text><text y="-27276" xml:space="preserve" x="-30165" stroke="none" font-style="italic" font-size="313.3333" font-family="sans-serif">R</text><text y="-31575" xml:space="preserve" x="-24272" stroke="none" font-style="italic" font-size="313.3333" font-family="sans-serif">S</text></g></g></svg>