<svg width="354.0" viewBox="0 0 11800 7789" text-rendering="auto" stroke-width="1" stroke-opacity="1" stroke-miterlimit="10" stroke-linejoin="miter" stroke-linecap="square" stroke-dashoffset="0" stroke-dasharray="none" stroke="black" shape-rendering="auto" image-rendering="auto" height="233.67" font-weight="normal" font-style="normal" font-size="12" font-family="'Dialog'" fill-opacity="1" fill="black" color-rendering="auto" color-interpolation="auto" xmlns="http://www.w3.org/2000/svg"><g><g stroke="white" fill="white"><rect y="0" x="0" width="11800" stroke="none" height="7789"/></g><g transform="translate(32866,32758)" text-rendering="geometricPrecision" stroke-width="44" stroke-linejoin="round" stroke-linecap="round"><line y2="-26959" y1="-27877" x2="-26936" x1="-26936" fill="none"/><line y2="-27074" y1="-27762" x2="-27106" x1="-27106" fill="none"/><line y2="-26392" y1="-26959" x2="-27918" x1="-26936" fill="none"/><line y2="-28207" y1="-28666" x2="-27123" x1="-27918" fill="none"/><line y2="-26959" y1="-26392" x2="-28906" x1="-27918" fill="none"/><line y2="-27037" y1="-26609" x2="-28698" x1="-27958" fill="none"/><line y2="-28666" y1="-28207" x2="-27918" x1="-28718" fill="none"/><line y2="-28461" y1="-28114" x2="-27935" x1="-28533" fill="none"/><line y2="-27877" y1="-26959" x2="-28906" x1="-28906" fill="none"/><line y2="-26546" y1="-26959" x2="-26216" x1="-26936" fill="none"/><line y2="-26959" y1="-26546" x2="-25121" x1="-25841" fill="none"/><line y2="-29495" y1="-28666" x2="-27918" x1="-27918" fill="none"/><line y2="-30238" y1="-29822" x2="-28825" x1="-28106" fill="none"/><line y2="-26655" y1="-26959" x2="-29434" x1="-28906" fill="none"/><line y2="-25563" y1="-26392" x2="-27918" x1="-27918" fill="none"/><line y2="-28097" y1="-26959" x2="-25121" x1="-25121" fill="none"/><line y2="-27955" y1="-27103" x2="-24951" x1="-24951" fill="none"/><line y2="-26959" y1="-26392" x2="-25121" x1="-24133" fill="none"/><line y2="-28666" y1="-28097" x2="-24133" x1="-25121" fill="none"/><line y2="-26392" y1="-26959" x2="-24133" x1="-23151" fill="none"/><line y2="-26609" y1="-27037" x2="-24096" x1="-23359" fill="none"/><line y2="-28097" y1="-28666" x2="-23151" x1="-24133" fill="none"/><line y2="-28022" y1="-28449" x2="-23359" x1="-24096" fill="none"/><line y2="-26959" y1="-28097" x2="-23151" x1="-23151" fill="none"/><line y2="-28620" y1="-28097" x2="-22244" x1="-23151" fill="none"/><line y2="-28620" y1="-28097" x2="-26028" x1="-25121" fill="none"/><line y2="-25344" y1="-26392" x2="-24133" x1="-24133" fill="none"/><line y2="-30238" y1="-31376" x2="-28825" x1="-28825" fill="none"/><line y2="-30379" y1="-31231" x2="-28995" x1="-28995" fill="none"/><line y2="-29668" y1="-30238" x2="-29813" x1="-28825" fill="none"/><line y2="-31376" y1="-31945" x2="-28825" x1="-29813" fill="none"/><line y2="-30238" y1="-29668" x2="-30795" x1="-29813" fill="none"/><line y2="-30313" y1="-29885" x2="-30590" x1="-29850" fill="none"/><line y2="-31945" y1="-31376" x2="-29813" x1="-30795" fill="none"/><line y2="-31725" y1="-31298" x2="-29850" x1="-30590" fill="none"/><line y2="-31376" y1="-30238" x2="-30795" x1="-30795" fill="none"/><line y2="-31899" y1="-31376" x2="-31702" x1="-30795" fill="none"/><line y2="-29036" y1="-28620" x2="-21525" x1="-22244" fill="none"/><line y2="-29114" y1="-28698" x2="-21568" x1="-22287" fill="none"/><line y2="-28958" y1="-28542" x2="-21478" x1="-22198" fill="none"/><line y2="-32315" y1="-31899" x2="-32422" x1="-31702" fill="none"/><line y2="-32237" y1="-31821" x2="-32468" x1="-31748" fill="none"/><line y2="-32393" y1="-31977" x2="-32378" x1="-31659" fill="none"/><text y="-26257" xml:space="preserve" x="-26182" stroke="none" font-size="433.3333" font-family="sans-serif">O</text><text y="-25165" xml:space="preserve" x="-28149" stroke="none" font-size="433.3333" font-family="sans-serif">Br</text><text y="-29536" xml:space="preserve" x="-28071" stroke="none" font-size="433.3333" font-family="sans-serif">NH</text><text y="-26257" xml:space="preserve" x="-29966" stroke="none" font-size="433.3333" font-family="sans-serif">NH</text><text y="-26167" xml:space="preserve" x="-29388" stroke="none" font-size="313.3333" font-family="sans-serif">2</text><text y="-28966" xml:space="preserve" x="-21490" stroke="none" font-size="433.3333" font-family="sans-serif">N</text><text y="-32242" xml:space="preserve" x="-32762" stroke="none" font-size="433.3333" font-family="sans-serif">N</text><text y="-27918" xml:space="preserve" x="-27089" stroke="none" font-size="433.3333" font-family="sans-serif">N</text><text y="-27918" xml:space="preserve" x="-29059" stroke="none" font-size="433.3333" font-family="sans-serif">N</text></g></g></svg>