<svg width="395.25" viewBox="0 0 13175 6241" text-rendering="auto" stroke-width="1" stroke-opacity="1" stroke-miterlimit="10" stroke-linejoin="miter" stroke-linecap="square" stroke-dashoffset="0" stroke-dasharray="none" stroke="black" shape-rendering="auto" image-rendering="auto" height="187.23" font-weight="normal" font-style="normal" font-size="12" font-family="'Dialog'" fill-opacity="1" fill="black" color-rendering="auto" color-interpolation="auto" xmlns="http://www.w3.org/2000/svg"><g><g stroke="white" fill="white"><rect y="0" x="0" width="13175" stroke="none" height="6241"/></g><g transform="translate(32866,32758)" text-rendering="geometricPrecision" stroke-width="44" stroke-linejoin="round" stroke-linecap="round"><line y2="-29394" y1="-30050" x2="-24821" x1="-23686" fill="none"/><line y2="-31373" y1="-30050" x2="-23686" x1="-23686" fill="none"/><line y2="-31087" y1="-30050" x2="-22885" x1="-23686" fill="none"/><line y2="-29900" y1="-30050" x2="-22579" x1="-23686" fill="none"/><line y2="-30050" y1="-29394" x2="-25956" x1="-24821" fill="none"/><line y2="-29394" y1="-29394" x2="-24821" x1="-21036" fill="none"/><line y2="-31373" y1="-31928" x2="-23686" x1="-24633" fill="none"/><line y2="-31373" y1="-31373" x2="-21036" x1="-23686" fill="none"/><line y2="-30093" y1="-31087" x2="-22481" x1="-22885" fill="none"/><line y2="-31376" y1="-30050" x2="-25956" x1="-25956" fill="none"/><line y2="-29388" y1="-30050" x2="-27092" x1="-25956" fill="none"/><line y2="-29394" y1="-31373" x2="-21036" x1="-21036" fill="none"/><line y2="-31928" y1="-31376" x2="-25009" x1="-25956" fill="none"/><line y2="-31376" y1="-32037" x2="-25956" x1="-27092" fill="none"/><line y2="-30050" y1="-29388" x2="-28227" x1="-27092" fill="none"/><line y2="-32037" y1="-31376" x2="-27092" x1="-28227" fill="none"/><line y2="-31806" y1="-31312" x2="-27149" x1="-27999" fill="none"/><line y2="-31376" y1="-30050" x2="-28227" x1="-28227" fill="none"/><line y2="-28576" y1="-29001" x2="-26664" x1="-25956" fill="none"/><line y2="-27415" y1="-28244" x2="-26855" x1="-26855" fill="none"/><line y2="-28383" y1="-29394" x2="-25092" x1="-24821" fill="none"/><line y2="-31899" y1="-31376" x2="-29134" x1="-28227" fill="none"/><line y2="-30050" y1="-29634" x2="-30041" x1="-29322" fill="none"/><line y2="-26892" y1="-27415" x2="-27762" x1="-26855" fill="none"/><line y2="-27060" y1="-27476" x2="-26098" x1="-26817" fill="none"/><line y2="-26938" y1="-27354" x2="-26167" x1="-26889" fill="none"/><line y2="-29527" y1="-30050" x2="-30948" x1="-30041" fill="none"/><line y2="-30050" y1="-29527" x2="-31855" x1="-30948" fill="none"/><line y2="-30879" y1="-30050" x2="-30110" x1="-30110" fill="none"/><line y2="-30879" y1="-30050" x2="-29972" x1="-29972" fill="none"/><line y2="-29527" y1="-30050" x2="-32762" x1="-31855" fill="none"/><line y2="-31098" y1="-30050" x2="-31855" x1="-31855" fill="none"/><polygon stroke-width="1" stroke="none" points=" -21036 -29394 -20436 -28891 -20534 -28793"/><polygon stroke-width="1" points=" -21036 -29394 -20436 -28891 -20534 -28793" fill="none"/><polygon stroke-width="1" stroke="none" points=" -23686 -31373 -23755 -32199 -23619 -32199"/><polygon stroke-width="1" points=" -23686 -31373 -23755 -32199 -23619 -32199" fill="none"/><line y2="-29001" y1="-29001" x2="-26026" x1="-25887" fill="none"/><line y2="-29218" y1="-29218" x2="-26012" x1="-25901" fill="none"/><line y2="-29434" y1="-29434" x2="-25997" x1="-25916" fill="none"/><line y2="-29651" y1="-29651" x2="-25983" x1="-25930" fill="none"/><line y2="-29868" y1="-29868" x2="-25968" x1="-25944" fill="none"/><line y2="-29694" y1="-29576" x2="-28981" x1="-28912" fill="none"/><line y2="-29787" y1="-29700" x2="-28784" x1="-28733" fill="none"/><line y2="-29880" y1="-29823" x2="-28588" x1="-28555" fill="none"/><line y2="-29973" y1="-29947" x2="-28391" x1="-28376" fill="none"/><line y2="-31876" y1="-31974" x2="-20436" x1="-20534" fill="none"/><line y2="-31736" y1="-31807" x2="-20603" x1="-20673" fill="none"/><line y2="-31597" y1="-31640" x2="-20769" x1="-20813" fill="none"/><line y2="-31457" y1="-31473" x2="-20936" x1="-20952" fill="none"/><line y2="-32202" y1="-32202" x2="-25887" x1="-26026" fill="none"/><line y2="-31985" y1="-31985" x2="-25905" x1="-26008" fill="none"/><line y2="-31769" y1="-31769" x2="-25923" x1="-25989" fill="none"/><line y2="-31552" y1="-31552" x2="-25941" x1="-25971" fill="none"/><text y="-28285" xml:space="preserve" x="-27005" stroke="none" font-size="433.3333" font-family="sans-serif">O</text><text y="-26713" xml:space="preserve" x="-26098" stroke="none" font-size="433.3333" font-family="sans-serif">O</text><text y="-28475" xml:space="preserve" x="-20450" stroke="none" font-size="433.3333" font-family="sans-serif">OH</text><text y="-31933" xml:space="preserve" x="-20450" stroke="none" font-size="433.3333" font-family="sans-serif">OH</text><text y="-29348" xml:space="preserve" x="-29287" stroke="none" font-size="433.3333" font-family="sans-serif">O</text><text y="-30919" xml:space="preserve" x="-30194" stroke="none" font-size="433.3333" font-family="sans-serif">O</text><text y="-29694" xml:space="preserve" x="-22544" stroke="none" font-size="433.3333" font-family="sans-serif">O</text><text y="-31858" xml:space="preserve" x="-24974" stroke="none" font-size="433.3333" font-family="sans-serif">O</text><text y="-32240" xml:space="preserve" x="-23839" stroke="none" font-size="433.3333" font-family="sans-serif">H</text><text y="-32242" xml:space="preserve" x="-26109" stroke="none" font-size="433.3333" font-family="sans-serif">H</text><text y="-29593" xml:space="preserve" x="-23766" stroke="none" font-style="italic" font-size="313.3333" font-family="sans-serif">S</text><text y="-29518" xml:space="preserve" x="-24974" stroke="none" font-style="italic" font-size="313.3333" font-family="sans-serif">S</text><text y="-31049" xml:space="preserve" x="-24087" stroke="none" font-style="italic" font-size="313.3333" font-family="sans-serif">R</text><text y="-30015" xml:space="preserve" x="-26355" stroke="none" font-style="italic" font-size="313.3333" font-family="sans-serif">R</text><text y="-29489" xml:space="preserve" x="-21435" stroke="none" font-style="italic" font-size="313.3333" font-family="sans-serif">S</text><text y="-30916" xml:space="preserve" x="-21435" stroke="none" font-style="italic" font-size="313.3333" font-family="sans-serif">R</text><text y="-31052" xml:space="preserve" x="-25858" stroke="none" font-style="italic" font-size="313.3333" font-family="sans-serif">R</text><text y="-30015" xml:space="preserve" x="-28132" stroke="none" font-style="italic" font-size="313.3333" font-family="sans-serif">S</text></g></g></svg>