<svg width="95.01" viewBox="0 0 3167 8979" text-rendering="auto" stroke-width="1" stroke-opacity="1" stroke-miterlimit="10" stroke-linejoin="miter" stroke-linecap="square" stroke-dashoffset="0" stroke-dasharray="none" stroke="black" shape-rendering="auto" image-rendering="auto" height="269.37" font-weight="normal" font-style="normal" font-size="12" font-family="'Dialog'" fill-opacity="1" fill="black" color-rendering="auto" color-interpolation="auto" xmlns="http://www.w3.org/2000/svg"><g><g stroke="white" fill="white"><rect y="0" x="0" width="3167" stroke="none" height="8979"/></g><g transform="translate(32866,32866)" text-rendering="geometricPrecision" stroke-width="44" stroke-linejoin="round" stroke-linecap="round"><line y2="-32193" y1="-31055" x2="-32199" x1="-32199" fill="none"/><line y2="-31055" y1="-30489" x2="-32199" x1="-31211" fill="none"/><line y2="-31133" y1="-30706" x2="-31991" x1="-31252" fill="none"/><line y2="-32762" y1="-32193" x2="-31211" x1="-32199" fill="none"/><line y2="-32543" y1="-32118" x2="-31252" x1="-31991" fill="none"/><line y2="-30489" y1="-31055" x2="-31211" x1="-30229" fill="none"/><line y2="-32193" y1="-32762" x2="-30229" x1="-31211" fill="none"/><line y2="-31055" y1="-32193" x2="-30229" x1="-30229" fill="none"/><line y2="-31200" y1="-32052" x2="-30399" x1="-30399" fill="none"/><line y2="-28218" y1="-27970" x2="-31650" x1="-32078" fill="none"/><line y2="-27750" y1="-27999" x2="-30460" x1="-30890" fill="none"/><line y2="-24905" y1="-24656" x2="-31800" x1="-32231" fill="none"/><line y2="-24437" y1="-24685" x2="-30613" x1="-31044" fill="none"/><text y="-28149" xml:space="preserve" x="-31613" stroke="none" font-size="433.3333" font-family="sans-serif">CH</text><text y="-28059" xml:space="preserve" x="-31035" stroke="none" font-size="313.3333" font-family="sans-serif">2</text><text y="-27571" xml:space="preserve" x="-32612" stroke="none" font-size="433.3333" font-family="sans-serif">D1</text><text y="-27375" xml:space="preserve" x="-30353" stroke="none" font-size="433.3333" font-family="sans-serif">Cl</text><text y="-24835" xml:space="preserve" x="-31766" stroke="none" font-size="433.3333" font-family="sans-serif">CH</text><text y="-24746" xml:space="preserve" x="-31188" stroke="none" font-size="313.3333" font-family="sans-serif">2</text><text y="-24258" xml:space="preserve" x="-32762" stroke="none" font-size="433.3333" font-family="sans-serif">D1</text><text y="-24148" xml:space="preserve" x="-30578" stroke="none" font-size="433.3333" font-family="sans-serif">CH</text><text y="-24058" xml:space="preserve" x="-30001" stroke="none" font-size="313.3333" font-family="sans-serif">3</text></g></g></svg>