<svg width="235.47" viewBox="0 0 7849 10751" text-rendering="auto" stroke-width="1" stroke-opacity="1" stroke-miterlimit="10" stroke-linejoin="miter" stroke-linecap="square" stroke-dashoffset="0" stroke-dasharray="none" stroke="black" shape-rendering="auto" image-rendering="auto" height="322.53" font-weight="normal" font-style="normal" font-size="12" font-family="'Dialog'" fill-opacity="1" fill="black" color-rendering="auto" color-interpolation="auto" xmlns="http://www.w3.org/2000/svg"><g><g stroke="white" fill="white"><rect y="0" x="0" width="7849" stroke="none" height="10751"/></g><g transform="translate(32866,32758)" text-rendering="geometricPrecision" stroke-width="44" stroke-linejoin="round" stroke-linecap="round"><line y2="-24385" y1="-23818" x2="-28074" x1="-29062" fill="none"/><line y2="-23818" y1="-24385" x2="-27092" x1="-28074" fill="none"/><line y2="-22680" y1="-23818" x2="-29062" x1="-29062" fill="none"/><line y2="-23818" y1="-24385" x2="-29062" x1="-30044" fill="none"/><line y2="-23740" y1="-24168" x2="-29270" x1="-30006" fill="none"/><line y2="-22680" y1="-23818" x2="-27092" x1="-27092" fill="none"/><line y2="-24385" y1="-23818" x2="-26104" x1="-27092" fill="none"/><line y2="-24168" y1="-23740" x2="-26141" x1="-26881" fill="none"/><line y2="-22680" y1="-22680" x2="-29062" x1="-27092" fill="none"/><line y2="-22111" y1="-22680" x2="-30044" x1="-29062" fill="none"/><line y2="-22328" y1="-22755" x2="-30006" x1="-29270" fill="none"/><line y2="-24385" y1="-23818" x2="-30044" x1="-31032" fill="none"/><line y2="-22680" y1="-22111" x2="-27092" x1="-26104" fill="none"/><line y2="-22758" y1="-22331" x2="-26881" x1="-26141" fill="none"/><line y2="-23818" y1="-24385" x2="-25121" x1="-26104" fill="none"/><line y2="-22680" y1="-22111" x2="-31032" x1="-30044" fill="none"/><line y2="-23818" y1="-22680" x2="-31032" x1="-31032" fill="none"/><line y2="-23674" y1="-22822" x2="-30862" x1="-30862" fill="none"/><line y2="-22111" y1="-22680" x2="-26104" x1="-25121" fill="none"/><line y2="-22680" y1="-23818" x2="-25121" x1="-25121" fill="none"/><line y2="-22822" y1="-23674" x2="-25289" x1="-25289" fill="none"/><line y2="-25433" y1="-24385" x2="-28074" x1="-28074" fill="none"/><line y2="-25849" y1="-25433" x2="-28793" x1="-28074" fill="none"/><line y2="-27005" y1="-26176" x2="-28981" x1="-28981" fill="none"/><line y2="-27311" y1="-27005" x2="-29510" x1="-28981" fill="none"/><line y2="-27005" y1="-27421" x2="-30795" x1="-30076" fill="none"/><line y2="-27482" y1="-27066" x2="-28296" x1="-29016" fill="none"/><line y2="-27360" y1="-26944" x2="-28227" x1="-28946" fill="none"/><line y2="-27528" y1="-27005" x2="-31702" x1="-30795" fill="none"/><line y2="-28576" y1="-27528" x2="-31702" x1="-31702" fill="none"/><line y2="-25433" y1="-25956" x2="-31702" x1="-30795" fill="none"/><line y2="-29146" y1="-28576" x2="-32684" x1="-31702" fill="none"/><line y2="-29221" y1="-28796" x2="-32479" x1="-31740" fill="none"/><line y2="-28576" y1="-29143" x2="-31702" x1="-30717" fill="none"/><line y2="-30281" y1="-29146" x2="-32687" x1="-32684" fill="none"/><line y2="-29143" y1="-30281" x2="-30717" x1="-30714" fill="none"/><line y2="-29284" y1="-30139" x2="-30888" x1="-30885" fill="none"/><line y2="-30850" y1="-30281" x2="-31699" x1="-32687" fill="none"/><line y2="-30633" y1="-30206" x2="-31740" x1="-32479" fill="none"/><line y2="-30281" y1="-30850" x2="-30714" x1="-31699" fill="none"/><line y2="-31679" y1="-30850" x2="-31699" x1="-31699" fill="none"/><line y2="-25740" y1="-25433" x2="-32231" x1="-31702" fill="none"/><line y2="-24604" y1="-25433" x2="-31633" x1="-31633" fill="none"/><line y2="-24604" y1="-25433" x2="-31772" x1="-31772" fill="none"/><line y2="-32375" y1="-32069" x2="-31015" x1="-31546" fill="none"/><line y2="-32254" y1="-31945" x2="-30945" x1="-31477" fill="none"/><line y2="-32254" y1="-31945" x2="-32453" x1="-31925" fill="none"/><line y2="-32375" y1="-32069" x2="-32384" x1="-31852" fill="none"/><line y2="-25956" y1="-25956" x2="-30864" x1="-30726" fill="none"/><line y2="-26173" y1="-26173" x2="-30850" x1="-30740" fill="none"/><line y2="-26389" y1="-26389" x2="-30835" x1="-30755" fill="none"/><line y2="-26606" y1="-26606" x2="-30821" x1="-30769" fill="none"/><line y2="-26823" y1="-26823" x2="-30807" x1="-30783" fill="none"/><text y="-25777" xml:space="preserve" x="-29134" stroke="none" font-size="433.3333" font-family="sans-serif">O</text><text y="-27352" xml:space="preserve" x="-30041" stroke="none" font-size="433.3333" font-family="sans-serif">NH</text><text y="-27352" xml:space="preserve" x="-28227" stroke="none" font-size="433.3333" font-family="sans-serif">O</text><text y="-25777" xml:space="preserve" x="-32762" stroke="none" font-size="433.3333" font-family="sans-serif">OH</text><text y="-24206" xml:space="preserve" x="-31855" stroke="none" font-size="433.3333" font-family="sans-serif">O</text><text y="-31720" xml:space="preserve" x="-31852" stroke="none" font-size="433.3333" font-family="sans-serif">N</text><text y="-32242" xml:space="preserve" x="-30945" stroke="none" font-size="433.3333" font-family="sans-serif">O</text><text y="-32242" xml:space="preserve" x="-32760" stroke="none" font-size="433.3333" font-family="sans-serif">O</text><text y="-27129" xml:space="preserve" x="-30948" stroke="none" font-style="italic" font-size="313.3333" font-family="sans-serif">S</text></g></g></svg>