<svg width="451.08" viewBox="0 0 15036 3329" text-rendering="auto" stroke-width="1" stroke-opacity="1" stroke-miterlimit="10" stroke-linejoin="miter" stroke-linecap="square" stroke-dashoffset="0" stroke-dasharray="none" stroke="black" shape-rendering="auto" image-rendering="auto" height="99.87" font-weight="normal" font-style="normal" font-size="12" font-family="'Dialog'" fill-opacity="1" fill="black" color-rendering="auto" color-interpolation="auto" xmlns="http://www.w3.org/2000/svg"><g><g stroke="white" fill="white"><rect y="0" x="0" width="15036" stroke="none" height="3329"/></g><g transform="translate(32866,32758)" text-rendering="geometricPrecision" stroke-width="44" stroke-linejoin="round" stroke-linecap="round"><line y2="-31376" y1="-30850" x2="-26543" x1="-27450" fill="none"/><line y2="-30850" y1="-31376" x2="-25636" x1="-26543" fill="none"/><line y2="-31376" y1="-30850" x2="-24728" x1="-25636" fill="none"/><line y2="-30850" y1="-31376" x2="-23821" x1="-24728" fill="none"/><line y2="-31376" y1="-30850" x2="-22914" x1="-23821" fill="none"/><line y2="-31266" y1="-30850" x2="-28169" x1="-27450" fill="none"/><line y2="-30960" y1="-31266" x2="-29073" x1="-28545" fill="none"/><line y2="-30024" y1="-30850" x2="-27380" x1="-27380" fill="none"/><line y2="-30024" y1="-30850" x2="-27519" x1="-27519" fill="none"/><line y2="-30960" y1="-31376" x2="-22195" x1="-22914" fill="none"/><line y2="-31266" y1="-30960" x2="-21288" x1="-21819" fill="none"/><line y2="-32202" y1="-31376" x2="-22984" x1="-22984" fill="none"/><line y2="-32202" y1="-31376" x2="-22845" x1="-22845" fill="none"/><text y="-30671" xml:space="preserve" x="-22160" stroke="none" font-size="433.3333" font-family="sans-serif">O</text><text y="-32242" xml:space="preserve" x="-23067" stroke="none" font-size="433.3333" font-family="sans-serif">O</text><text y="-31197" xml:space="preserve" x="-21253" stroke="none" font-size="433.3333" font-family="sans-serif">(ISO-C</text><text y="-31107" xml:space="preserve" x="-19520" stroke="none" font-size="313.3333" font-family="sans-serif">10</text><text y="-31197" xml:space="preserve" x="-18942" stroke="none" font-size="433.3333" font-family="sans-serif">H</text><text y="-31107" xml:space="preserve" x="-18653" stroke="none" font-size="313.3333" font-family="sans-serif">21</text><text y="-31197" xml:space="preserve" x="-18075" stroke="none" font-size="433.3333" font-family="sans-serif">)</text><text y="-31197" xml:space="preserve" x="-28510" stroke="none" font-size="433.3333" font-family="sans-serif">O</text><text y="-29625" xml:space="preserve" x="-27603" stroke="none" font-size="433.3333" font-family="sans-serif">O</text><text y="-30671" xml:space="preserve" x="-32762" stroke="none" font-size="433.3333" font-family="sans-serif">(C</text><text y="-30581" xml:space="preserve" x="-32185" stroke="none" font-size="313.3333" font-family="sans-serif">10</text><text y="-30671" xml:space="preserve" x="-31607" stroke="none" font-size="433.3333" font-family="sans-serif">H</text><text y="-30581" xml:space="preserve" x="-31318" stroke="none" font-size="313.3333" font-family="sans-serif">21</text><text y="-30671" xml:space="preserve" x="-30740" stroke="none" font-size="433.3333" font-family="sans-serif">-ISO)</text></g></g></svg>