<svg width="542.16" viewBox="0 0 18072 3329" text-rendering="auto" stroke-width="1" stroke-opacity="1" stroke-miterlimit="10" stroke-linejoin="miter" stroke-linecap="square" stroke-dashoffset="0" stroke-dasharray="none" stroke="black" shape-rendering="auto" image-rendering="auto" height="99.87" font-weight="normal" font-style="normal" font-size="12" font-family="'Dialog'" fill-opacity="1" fill="black" color-rendering="auto" color-interpolation="auto" xmlns="http://www.w3.org/2000/svg"><g><g stroke="white" fill="white"><rect y="0" x="0" width="18072" stroke="none" height="3329"/></g><g transform="translate(32866,32758)" text-rendering="geometricPrecision" stroke-width="44" stroke-linejoin="round" stroke-linecap="round"><line y2="-31376" y1="-30850" x2="-26846" x1="-27753" fill="none"/><line y2="-30850" y1="-31376" x2="-25939" x1="-26846" fill="none"/><line y2="-31376" y1="-30850" x2="-25032" x1="-25939" fill="none"/><line y2="-30850" y1="-31376" x2="-24125" x1="-25032" fill="none"/><line y2="-31376" y1="-30850" x2="-23218" x1="-24125" fill="none"/><line y2="-30850" y1="-31376" x2="-22310" x1="-23218" fill="none"/><line y2="-31376" y1="-30850" x2="-21403" x1="-22310" fill="none"/><line y2="-30850" y1="-31376" x2="-20496" x1="-21403" fill="none"/><line y2="-31376" y1="-30850" x2="-19589" x1="-20496" fill="none"/><line y2="-31266" y1="-30850" x2="-28472" x1="-27753" fill="none"/><line y2="-30960" y1="-31266" x2="-29377" x1="-28848" fill="none"/><line y2="-30024" y1="-30850" x2="-27684" x1="-27684" fill="none"/><line y2="-30024" y1="-30850" x2="-27825" x1="-27825" fill="none"/><line y2="-30960" y1="-31376" x2="-18870" x1="-19589" fill="none"/><line y2="-31266" y1="-30960" x2="-17963" x1="-18494" fill="none"/><line y2="-32202" y1="-31376" x2="-19658" x1="-19658" fill="none"/><line y2="-32202" y1="-31376" x2="-19520" x1="-19520" fill="none"/><text y="-30671" xml:space="preserve" x="-18835" stroke="none" font-size="433.3333" font-family="sans-serif">O</text><text y="-32242" xml:space="preserve" x="-19742" stroke="none" font-size="433.3333" font-family="sans-serif">O</text><text y="-31197" xml:space="preserve" x="-17928" stroke="none" font-size="433.3333" font-family="sans-serif">(ISO-C</text><text y="-31107" xml:space="preserve" x="-16195" stroke="none" font-size="313.3333" font-family="sans-serif">8</text><text y="-31197" xml:space="preserve" x="-15906" stroke="none" font-size="433.3333" font-family="sans-serif">H</text><text y="-31107" xml:space="preserve" x="-15617" stroke="none" font-size="313.3333" font-family="sans-serif">17</text><text y="-31197" xml:space="preserve" x="-15039" stroke="none" font-size="433.3333" font-family="sans-serif">)</text><text y="-31197" xml:space="preserve" x="-28813" stroke="none" font-size="433.3333" font-family="sans-serif">O</text><text y="-29625" xml:space="preserve" x="-27906" stroke="none" font-size="433.3333" font-family="sans-serif">O</text><text y="-30671" xml:space="preserve" x="-32762" stroke="none" font-size="433.3333" font-family="sans-serif">(C</text><text y="-30581" xml:space="preserve" x="-32185" stroke="none" font-size="313.3333" font-family="sans-serif">8</text><text y="-30671" xml:space="preserve" x="-31896" stroke="none" font-size="433.3333" font-family="sans-serif">H</text><text y="-30581" xml:space="preserve" x="-31607" stroke="none" font-size="313.3333" font-family="sans-serif">17</text><text y="-30671" xml:space="preserve" x="-31029" stroke="none" font-size="433.3333" font-family="sans-serif">-ISO)</text></g></g></svg>