<svg width="369.78" viewBox="0 0 12326 11906" text-rendering="auto" stroke-width="1" stroke-opacity="1" stroke-miterlimit="10" stroke-linejoin="miter" stroke-linecap="square" stroke-dashoffset="0" stroke-dasharray="none" stroke="black" shape-rendering="auto" image-rendering="auto" height="357.18" font-weight="normal" font-style="normal" font-size="12" font-family="'Dialog'" fill-opacity="1" fill="black" color-rendering="auto" color-interpolation="auto" xmlns="http://www.w3.org/2000/svg"><g><g stroke="white" fill="white"><rect y="0" x="0" width="12326" stroke="none" height="11906"/></g><g transform="translate(32866,32758)" text-rendering="geometricPrecision" stroke-width="44" stroke-linejoin="round" stroke-linecap="round"><line y2="-30801" y1="-29654" x2="-22325" x1="-22325" fill="none"/><line y2="-29654" y1="-29654" x2="-24289" x1="-22325" fill="none"/><line y2="-30801" y1="-31376" x2="-22325" x1="-23307" fill="none"/><line y2="-30801" y1="-29654" x2="-24289" x1="-24289" fill="none"/><line y2="-29082" y1="-29654" x2="-25272" x1="-24289" fill="none"/><line y2="-31376" y1="-30801" x2="-23307" x1="-24289" fill="none"/><line y2="-30801" y1="-31376" x2="-24289" x1="-25272" fill="none"/><line y2="-29544" y1="-29082" x2="-26066" x1="-25272" fill="none"/><line y2="-31376" y1="-30801" x2="-25272" x1="-26257" fill="none"/><line y2="-31156" y1="-30726" x2="-25309" x1="-26046" fill="none"/><line y2="-30801" y1="-29874" x2="-26257" x1="-26257" fill="none"/><line y2="-27510" y1="-27926" x2="-26179" x1="-25462" fill="none"/><line y2="-28643" y1="-29654" x2="-22053" x1="-22325" fill="none"/><line y2="-28227" y1="-28643" x2="-21334" x1="-22053" fill="none"/><line y2="-26592" y1="-27510" x2="-26179" x1="-26179" fill="none"/><line y2="-27510" y1="-28080" x2="-26179" x1="-27164" fill="none"/><line y2="-25803" y1="-26265" x2="-27164" x1="-26369" fill="none"/><line y2="-28080" y1="-27510" x2="-27164" x1="-28149" fill="none"/><line y2="-26372" y1="-25803" x2="-28149" x1="-27164" fill="none"/><line y2="-27510" y1="-26372" x2="-28149" x1="-28149" fill="none"/><line y2="-24341" y1="-24757" x2="-27883" x1="-27164" fill="none"/><line y2="-23186" y1="-24012" x2="-28071" x1="-28071" fill="none"/><line y2="-22660" y1="-23186" x2="-28978" x1="-28071" fill="none"/><line y2="-22830" y1="-23246" x2="-27317" x1="-28036" fill="none"/><line y2="-22709" y1="-23125" x2="-27386" x1="-28106" fill="none"/><line y2="-23186" y1="-22660" x2="-29885" x1="-28978" fill="none"/><line y2="-23001" y1="-22605" x2="-29842" x1="-29160" fill="none"/><line y2="-22660" y1="-23186" x2="-30792" x1="-29885" fill="none"/><line y2="-22660" y1="-23229" x2="-30792" x1="-31774" fill="none"/><line y2="-22585" y1="-23012" x2="-31000" x1="-31737" fill="none"/><line y2="-21525" y1="-22660" x2="-30792" x1="-30792" fill="none"/><line y2="-23229" y1="-22660" x2="-31774" x1="-32762" fill="none"/><line y2="-20956" y1="-21525" x2="-31774" x1="-30792" fill="none"/><line y2="-21172" y1="-21600" x2="-31737" x1="-31000" fill="none"/><line y2="-22660" y1="-21525" x2="-32762" x1="-32762" fill="none"/><line y2="-22518" y1="-21666" x2="-32592" x1="-32592" fill="none"/><line y2="-21525" y1="-20956" x2="-32762" x1="-31774" fill="none"/><polygon stroke-width="1" stroke="none" points=" -27164 -28080 -27233 -28906 -27094 -28909"/><polygon stroke-width="1" points=" -27164 -28080 -27233 -28906 -27094 -28909" fill="none"/><polygon stroke-width="1" stroke="none" points=" -28149 -26372 -28643 -26008 -28712 -26127"/><polygon stroke-width="1" points=" -28149 -26372 -28643 -26008 -28712 -26127" fill="none"/><polygon stroke-width="1" stroke="none" points=" -26179 -27510 -25428 -27155 -25494 -27034"/><polygon stroke-width="1" points=" -26179 -27510 -25428 -27155 -25494 -27034" fill="none"/><line y2="-30058" y1="-30177" x2="-21496" x1="-21565" fill="none"/><line y2="-29963" y1="-30054" x2="-21691" x1="-21744" fill="none"/><line y2="-29868" y1="-29931" x2="-21887" x1="-21923" fill="none"/><line y2="-29773" y1="-29807" x2="-22082" x1="-22102" fill="none"/><line y2="-29677" y1="-29684" x2="-22277" x1="-22281" fill="none"/><line y2="-30278" y1="-30399" x2="-21565" x1="-21496" fill="none"/><line y2="-30401" y1="-30494" x2="-21744" x1="-21691" fill="none"/><line y2="-30525" y1="-30588" x2="-21923" x1="-21887" fill="none"/><line y2="-30648" y1="-30683" x2="-22102" x1="-22082" fill="none"/><line y2="-30771" y1="-30778" x2="-22281" x1="-22278" fill="none"/><line y2="-28253" y1="-28253" x2="-25341" x1="-25205" fill="none"/><line y2="-28470" y1="-28470" x2="-25323" x1="-25223" fill="none"/><line y2="-28686" y1="-28686" x2="-25305" x1="-25240" fill="none"/><line y2="-28903" y1="-28903" x2="-25287" x1="-25258" fill="none"/><line y2="-32202" y1="-32202" x2="-23238" x1="-23376" fill="none"/><line y2="-31985" y1="-31985" x2="-23256" x1="-23358" fill="none"/><line y2="-31769" y1="-31769" x2="-23274" x1="-23340" fill="none"/><line y2="-31552" y1="-31552" x2="-23292" x1="-23322" fill="none"/><line y2="-28825" y1="-28828" x2="-24359" x1="-24223" fill="none"/><line y2="-29042" y1="-29044" x2="-24341" x1="-24240" fill="none"/><line y2="-29259" y1="-29261" x2="-24322" x1="-24258" fill="none"/><line y2="-29476" y1="-29477" x2="-24304" x1="-24275" fill="none"/><line y2="-31630" y1="-31630" x2="-24223" x1="-24359" fill="none"/><line y2="-31413" y1="-31413" x2="-24240" x1="-24341" fill="none"/><line y2="-31197" y1="-31197" x2="-24257" x1="-24322" fill="none"/><line y2="-30980" y1="-30980" x2="-24275" x1="-24304" fill="none"/><line y2="-24754" y1="-24757" x2="-27233" x1="-27094" fill="none"/><line y2="-24971" y1="-24973" x2="-27219" x1="-27108" fill="none"/><line y2="-25188" y1="-25190" x2="-27204" x1="-27123" fill="none"/><line y2="-25405" y1="-25406" x2="-27190" x1="-27137" fill="none"/><line y2="-25622" y1="-25622" x2="-27176" x1="-27152" fill="none"/><line y2="-27874" y1="-27756" x2="-28643" x1="-28712" fill="none"/><line y2="-27745" y1="-27669" x2="-28468" x1="-28512" fill="none"/><line y2="-27616" y1="-27581" x2="-28292" x1="-28312" fill="none"/><text y="-27941" xml:space="preserve" x="-21299" stroke="none" font-size="433.3333" font-family="sans-serif">OH</text><text y="-32242" xml:space="preserve" x="-23460" stroke="none" font-size="433.3333" font-family="sans-serif">OH</text><text y="-27854" xml:space="preserve" x="-25425" stroke="none" font-size="433.3333" font-family="sans-serif">O</text><text y="-28949" xml:space="preserve" x="-27317" stroke="none" font-size="433.3333" font-family="sans-serif">OH</text><text y="-24052" xml:space="preserve" x="-28224" stroke="none" font-size="433.3333" font-family="sans-serif">O</text><text y="-22481" xml:space="preserve" x="-27317" stroke="none" font-size="433.3333" font-family="sans-serif">O</text><text y="-27854" xml:space="preserve" x="-29209" stroke="none" font-size="433.3333" font-family="sans-serif">OH</text><text y="-25670" xml:space="preserve" x="-29209" stroke="none" font-size="433.3333" font-family="sans-serif">OH</text><text y="-30050" xml:space="preserve" x="-21496" stroke="none" font-size="433.3333" font-family="sans-serif">O</text><text y="-29475" xml:space="preserve" x="-26407" stroke="none" font-size="433.3333" font-family="sans-serif">O</text><text y="-26193" xml:space="preserve" x="-26332" stroke="none" font-size="433.3333" font-family="sans-serif">O</text><text y="-28429" xml:space="preserve" x="-24442" stroke="none" font-size="433.3333" font-family="sans-serif">H</text><text y="-31670" xml:space="preserve" x="-24442" stroke="none" font-size="433.3333" font-family="sans-serif">H</text><text y="-26808" xml:space="preserve" x="-25425" stroke="none" font-size="433.3333" font-family="sans-serif">H</text><text y="-23131" xml:space="preserve" x="-29359" stroke="none" font-style="italic" font-size="313.3333" font-family="sans-serif">E</text><text y="-29192" xml:space="preserve" x="-22709" stroke="none" font-style="italic" font-size="313.3333" font-family="sans-serif">S</text><text y="-30477" xml:space="preserve" x="-22726" stroke="none" font-style="italic" font-size="313.3333" font-family="sans-serif">S</text><text y="-29619" xml:space="preserve" x="-24691" stroke="none" font-style="italic" font-size="313.3333" font-family="sans-serif">S</text><text y="-30893" xml:space="preserve" x="-23460" stroke="none" font-style="italic" font-size="313.3333" font-family="sans-serif">S</text><text y="-30477" xml:space="preserve" x="-24194" stroke="none" font-style="italic" font-size="313.3333" font-family="sans-serif">R</text><text y="-29206" xml:space="preserve" x="-25425" stroke="none" font-style="italic" font-size="313.3333" font-family="sans-serif">S</text><text y="-27635" xml:space="preserve" x="-26332" stroke="none" font-style="italic" font-size="313.3333" font-family="sans-serif">S</text><text y="-27597" xml:space="preserve" x="-27317" stroke="none" font-style="italic" font-size="313.3333" font-family="sans-serif">R</text><text y="-25927" xml:space="preserve" x="-27317" stroke="none" font-style="italic" font-size="313.3333" font-family="sans-serif">R</text><text y="-27187" xml:space="preserve" x="-28054" stroke="none" font-style="italic" font-size="313.3333" font-family="sans-serif">S</text><text y="-26338" xml:space="preserve" x="-28054" stroke="none" font-style="italic" font-size="313.3333" font-family="sans-serif">S</text></g></g></svg>