<svg width="609.24" viewBox="0 0 20308 792" text-rendering="auto" stroke-width="1" stroke-opacity="1" stroke-miterlimit="10" stroke-linejoin="miter" stroke-linecap="square" stroke-dashoffset="0" stroke-dasharray="none" stroke="black" shape-rendering="auto" image-rendering="auto" height="23.76" font-weight="normal" font-style="normal" font-size="12" font-family="'Dialog'" fill-opacity="1" fill="black" color-rendering="auto" color-interpolation="auto" xmlns="http://www.w3.org/2000/svg"><g><g stroke="white" fill="white"><rect y="0" x="0" width="20308" stroke="none" height="792"/></g><g transform="translate(32866,32644)" text-rendering="geometricPrecision" stroke-width="44" stroke-linejoin="round" stroke-linecap="round"><line y2="-31956" y1="-31956" x2="-24457" x1="-25503" fill="none"/><line y2="-32095" y1="-32095" x2="-24587" x1="-25373" fill="none"/><line y2="-32479" y1="-31956" x2="-26410" x1="-25503" fill="none"/><line y2="-31956" y1="-32479" x2="-27317" x1="-26410" fill="none"/><line y2="-32479" y1="-31956" x2="-28224" x1="-27317" fill="none"/><line y2="-31956" y1="-32479" x2="-29131" x1="-28224" fill="none"/><line y2="-32479" y1="-31956" x2="-30038" x1="-29131" fill="none"/><line y2="-31956" y1="-32479" x2="-30945" x1="-30038" fill="none"/><line y2="-32479" y1="-31956" x2="-31855" x1="-30945" fill="none"/><line y2="-31956" y1="-32479" x2="-32762" x1="-31855" fill="none"/><line y2="-32479" y1="-31956" x2="-23550" x1="-24457" fill="none"/><line y2="-31956" y1="-32479" x2="-22643" x1="-23550" fill="none"/><line y2="-32479" y1="-31956" x2="-21736" x1="-22643" fill="none"/><line y2="-31956" y1="-32479" x2="-20826" x1="-21736" fill="none"/><line y2="-32479" y1="-31956" x2="-19918" x1="-20826" fill="none"/><line y2="-31956" y1="-32479" x2="-19011" x1="-19918" fill="none"/><line y2="-32479" y1="-31956" x2="-18104" x1="-19011" fill="none"/><line y2="-31956" y1="-32479" x2="-17197" x1="-18104" fill="none"/><line y2="-32479" y1="-31956" x2="-16290" x1="-17197" fill="none"/><line y2="-31956" y1="-32479" x2="-15383" x1="-16290" fill="none"/><line y2="-32479" y1="-31956" x2="-14476" x1="-15383" fill="none"/><line y2="-31956" y1="-32479" x2="-13569" x1="-14476" fill="none"/><line y2="-32479" y1="-31956" x2="-12662" x1="-13569" fill="none"/><text y="-32242" xml:space="preserve" x="-25133" stroke="none" font-style="italic" font-size="313.3333" font-family="sans-serif">Z</text></g></g></svg>