<svg width="298.11" viewBox="0 0 9937 3049" text-rendering="auto" stroke-width="1" stroke-opacity="1" stroke-miterlimit="10" stroke-linejoin="miter" stroke-linecap="square" stroke-dashoffset="0" stroke-dasharray="none" stroke="black" shape-rendering="auto" image-rendering="auto" height="91.47" font-weight="normal" font-style="normal" font-size="12" font-family="'Dialog'" fill-opacity="1" fill="black" color-rendering="auto" color-interpolation="auto" xmlns="http://www.w3.org/2000/svg"><g><g stroke="white" fill="white"><rect y="0" x="0" width="9937" stroke="none" height="3049"/></g><g transform="translate(32866,32758)" text-rendering="geometricPrecision" stroke-width="44" stroke-linejoin="round" stroke-linecap="round"><line y2="-31514" y1="-30992" x2="-28074" x1="-28981" fill="none"/><line y2="-31514" y1="-30992" x2="-29888" x1="-28981" fill="none"/><line y2="-30304" y1="-30992" x2="-28582" x1="-28981" fill="none"/><line y2="-30304" y1="-30992" x2="-29377" x1="-28981" fill="none"/><line y2="-30992" y1="-31514" x2="-27167" x1="-28074" fill="none"/><line y2="-32202" y1="-31514" x2="-27675" x1="-28074" fill="none"/><line y2="-32202" y1="-31514" x2="-28470" x1="-28074" fill="none"/><line y2="-30992" y1="-31514" x2="-30795" x1="-29888" fill="none"/><line y2="-32202" y1="-31514" x2="-30284" x1="-29888" fill="none"/><line y2="-32202" y1="-31514" x2="-29489" x1="-29888" fill="none"/><line y2="-31514" y1="-30992" x2="-26260" x1="-27167" fill="none"/><line y2="-30992" y1="-31514" x2="-25352" x1="-26260" fill="none"/><line y2="-31408" y1="-30992" x2="-24633" x1="-25352" fill="none"/><line y2="-30304" y1="-30992" x2="-26768" x1="-27167" fill="none"/><line y2="-30304" y1="-30992" x2="-27562" x1="-27167" fill="none"/><line y2="-31514" y1="-30992" x2="-31702" x1="-30795" fill="none"/><line y2="-30304" y1="-30992" x2="-31191" x1="-30795" fill="none"/><line y2="-30304" y1="-30992" x2="-30396" x1="-30795" fill="none"/><line y2="-31098" y1="-31408" x2="-23726" x1="-24258" fill="none"/><line y2="-32240" y1="-31769" x2="-24107" x1="-24379" fill="none"/><line y2="-32167" y1="-31699" x2="-23986" x1="-24258" fill="none"/><line y2="-32167" y1="-31699" x2="-24902" x1="-24630" fill="none"/><line y2="-32240" y1="-31769" x2="-24780" x1="-24509" fill="none"/><line y2="-31098" y1="-31514" x2="-32422" x1="-31702" fill="none"/><line y2="-32202" y1="-31514" x2="-32098" x1="-31702" fill="none"/><line y2="-32202" y1="-31514" x2="-31304" x1="-31702" fill="none"/><text y="-29905" xml:space="preserve" x="-28608" stroke="none" font-size="433.3333" font-family="sans-serif">F</text><text y="-29905" xml:space="preserve" x="-29657" stroke="none" font-size="433.3333" font-family="sans-serif">F</text><text y="-32242" xml:space="preserve" x="-30564" stroke="none" font-size="433.3333" font-family="sans-serif">F</text><text y="-32242" xml:space="preserve" x="-29515" stroke="none" font-size="433.3333" font-family="sans-serif">F</text><text y="-32242" xml:space="preserve" x="-27701" stroke="none" font-size="433.3333" font-family="sans-serif">F</text><text y="-32242" xml:space="preserve" x="-28750" stroke="none" font-size="433.3333" font-family="sans-serif">F</text><text y="-29905" xml:space="preserve" x="-31471" stroke="none" font-size="433.3333" font-family="sans-serif">F</text><text y="-29905" xml:space="preserve" x="-30422" stroke="none" font-size="433.3333" font-family="sans-serif">F</text><text y="-29905" xml:space="preserve" x="-26794" stroke="none" font-size="433.3333" font-family="sans-serif">F</text><text y="-29905" xml:space="preserve" x="-27843" stroke="none" font-size="433.3333" font-family="sans-serif">F</text><text y="-30812" xml:space="preserve" x="-32762" stroke="none" font-size="433.3333" font-family="sans-serif">F</text><text y="-32242" xml:space="preserve" x="-32378" stroke="none" font-size="433.3333" font-family="sans-serif">F</text><text y="-32242" xml:space="preserve" x="-31330" stroke="none" font-size="433.3333" font-family="sans-serif">F</text><text y="-31335" xml:space="preserve" x="-24596" stroke="none" font-size="433.3333" font-family="sans-serif">S</text><text y="-32242" xml:space="preserve" x="-24073" stroke="none" font-size="433.3333" font-family="sans-serif">O</text><text y="-32242" xml:space="preserve" x="-25121" stroke="none" font-size="433.3333" font-family="sans-serif">O</text><text y="-30812" xml:space="preserve" x="-23688" stroke="none" font-size="433.3333" font-family="sans-serif">OH</text></g></g></svg>