<svg width="252.12" viewBox="0 0 8404 4603" text-rendering="auto" stroke-width="1" stroke-opacity="1" stroke-miterlimit="10" stroke-linejoin="miter" stroke-linecap="square" stroke-dashoffset="0" stroke-dasharray="none" stroke="black" shape-rendering="auto" image-rendering="auto" height="138.09" font-weight="normal" font-style="normal" font-size="12" font-family="'Dialog'" fill-opacity="1" fill="black" color-rendering="auto" color-interpolation="auto" xmlns="http://www.w3.org/2000/svg"><g><g stroke="white" fill="white"><rect y="0" x="0" width="8404" stroke="none" height="4603"/></g><g transform="translate(32866,32758)" text-rendering="geometricPrecision" stroke-width="44" stroke-linejoin="round" stroke-linecap="round"><line y2="-30191" y1="-30760" x2="-28545" x1="-29527" fill="none"/><line y2="-30116" y1="-30544" x2="-28753" x1="-29489" fill="none"/><line y2="-29056" y1="-30191" x2="-28545" x1="-28545" fill="none"/><line y2="-30760" y1="-30191" x2="-29527" x1="-30515" fill="none"/><line y2="-28487" y1="-29056" x2="-29527" x1="-28545" fill="none"/><line y2="-28704" y1="-29131" x2="-29489" x1="-28753" fill="none"/><line y2="-30191" y1="-29056" x2="-30515" x1="-30515" fill="none"/><line y2="-30050" y1="-29198" x2="-30344" x1="-30344" fill="none"/><line y2="-29056" y1="-28487" x2="-30515" x1="-29527" fill="none"/><line y2="-30717" y1="-30191" x2="-27638" x1="-28545" fill="none"/><line y2="-28640" y1="-29056" x2="-31234" x1="-30515" fill="none"/><line y2="-28888" y1="-28640" x2="-32040" x1="-31610" fill="none"/><line y2="-31855" y1="-30717" x2="-27638" x1="-27638" fill="none"/><line y2="-30717" y1="-30148" x2="-27638" x1="-26650" fill="none"/><line y2="-30792" y1="-30368" x2="-27427" x1="-26687" fill="none"/><line y2="-32315" y1="-31855" x2="-26837" x1="-27638" fill="none"/><line y2="-32110" y1="-31763" x2="-26852" x1="-27453" fill="none"/><line y2="-30148" y1="-30607" x2="-26650" x1="-25855" fill="none"/><line y2="-31855" y1="-32315" x2="-25667" x1="-26462" fill="none"/><line y2="-30937" y1="-31855" x2="-25667" x1="-25667" fill="none"/><line y2="-31049" y1="-31740" x2="-25838" x1="-25838" fill="none"/><line y2="-32182" y1="-31855" x2="-25098" x1="-25667" fill="none"/><text y="-28351" xml:space="preserve" x="-31572" stroke="none" font-size="433.3333" font-family="sans-serif">O</text><text y="-29039" xml:space="preserve" x="-32762" stroke="none" font-size="433.3333" font-family="sans-serif">CH</text><text y="-28949" xml:space="preserve" x="-32185" stroke="none" font-size="313.3333" font-family="sans-serif">3</text><text y="-32199" xml:space="preserve" x="-24991" stroke="none" font-size="433.3333" font-family="sans-serif">Cl</text><text y="-32242" xml:space="preserve" x="-26803" stroke="none" font-size="433.3333" font-family="sans-serif">N</text><text y="-30538" xml:space="preserve" x="-25818" stroke="none" font-size="433.3333" font-family="sans-serif">N</text></g></g></svg>