<svg width="239.49" viewBox="0 0 7983 4161" text-rendering="auto" stroke-width="1" stroke-opacity="1" stroke-miterlimit="10" stroke-linejoin="miter" stroke-linecap="square" stroke-dashoffset="0" stroke-dasharray="none" stroke="black" shape-rendering="auto" image-rendering="auto" height="124.83" font-weight="normal" font-style="normal" font-size="12" font-family="'Dialog'" fill-opacity="1" fill="black" color-rendering="auto" color-interpolation="auto" xmlns="http://www.w3.org/2000/svg"><g><g stroke="white" fill="white"><rect y="0" x="0" width="7983" stroke="none" height="4161"/></g><g transform="translate(32866,32758)" text-rendering="geometricPrecision" stroke-width="44" stroke-linejoin="round" stroke-linecap="round"><line y2="-29573" y1="-30775" x2="-28602" x1="-28602" fill="none"/><line y2="-30775" y1="-31376" x2="-28602" x1="-29640" fill="none"/><line y2="-31376" y1="-30775" x2="-27557" x1="-28602" fill="none"/><line y2="-31150" y1="-30703" x2="-27603" x1="-28386" fill="none"/><line y2="-29192" y1="-29573" x2="-29258" x1="-28602" fill="none"/><line y2="-29573" y1="-28972" x2="-28602" x1="-27557" fill="none"/><line y2="-29645" y1="-29195" x2="-28386" x1="-27603" fill="none"/><line y2="-31376" y1="-30775" x2="-29640" x1="-30680" fill="none"/><line y2="-30775" y1="-31376" x2="-26520" x1="-27557" fill="none"/><line y2="-29573" y1="-29082" x2="-30680" x1="-29827" fill="none"/><line y2="-28972" y1="-29573" x2="-27557" x1="-26520" fill="none"/><line y2="-29573" y1="-30775" x2="-30680" x1="-30680" fill="none"/><line y2="-30775" y1="-31376" x2="-30680" x1="-31720" fill="none"/><line y2="-30703" y1="-31150" x2="-30896" x1="-31673" fill="none"/><line y2="-29573" y1="-30775" x2="-26520" x1="-26520" fill="none"/><line y2="-29723" y1="-30625" x2="-26687" x1="-26687" fill="none"/><line y2="-28972" y1="-29573" x2="-31720" x1="-30680" fill="none"/><line y2="-29195" y1="-29645" x2="-31673" x1="-30896" fill="none"/><line y2="-31376" y1="-30775" x2="-31720" x1="-32762" fill="none"/><line y2="-29573" y1="-28972" x2="-32762" x1="-31720" fill="none"/><line y2="-30775" y1="-29573" x2="-32762" x1="-32762" fill="none"/><line y2="-30625" y1="-29723" x2="-32592" x1="-32592" fill="none"/><line y2="-31191" y1="-30775" x2="-25800" x1="-26520" fill="none"/><line y2="-32202" y1="-31376" x2="-29709" x1="-29709" fill="none"/><line y2="-32202" y1="-31376" x2="-29567" x1="-29567" fill="none"/><text y="-32242" xml:space="preserve" x="-29790" stroke="none" font-size="433.3333" font-family="sans-serif">O</text><text y="-31119" xml:space="preserve" x="-25763" stroke="none" font-size="433.3333" font-family="sans-serif">NH</text><text y="-31029" xml:space="preserve" x="-25185" stroke="none" font-size="313.3333" font-family="sans-serif">2</text><text y="-28793" xml:space="preserve" x="-29790" stroke="none" font-size="433.3333" font-family="sans-serif">NH</text></g></g></svg>