<svg width="298.17" viewBox="0 0 9939 5605" text-rendering="auto" stroke-width="1" stroke-opacity="1" stroke-miterlimit="10" stroke-linejoin="miter" stroke-linecap="square" stroke-dashoffset="0" stroke-dasharray="none" stroke="black" shape-rendering="auto" image-rendering="auto" height="168.15" font-weight="normal" font-style="normal" font-size="12" font-family="'Dialog'" fill-opacity="1" fill="black" color-rendering="auto" color-interpolation="auto" xmlns="http://www.w3.org/2000/svg"><g><g stroke="white" fill="white"><rect y="0" x="0" width="9939" stroke="none" height="5605"/></g><g transform="translate(32866,32758)" text-rendering="geometricPrecision" stroke-width="44" stroke-linejoin="round" stroke-linecap="round"><line y2="-30807" y1="-31376" x2="-28071" x1="-29053" fill="none"/><line y2="-30729" y1="-31156" x2="-28279" x1="-29016" fill="none"/><line y2="-29668" y1="-30807" x2="-28071" x1="-28071" fill="none"/><line y2="-31376" y1="-30807" x2="-29053" x1="-30041" fill="none"/><line y2="-29099" y1="-29668" x2="-29053" x1="-28071" fill="none"/><line y2="-29319" y1="-29744" x2="-29016" x1="-28279" fill="none"/><line y2="-30807" y1="-29668" x2="-30041" x1="-30041" fill="none"/><line y2="-30665" y1="-29810" x2="-29871" x1="-29871" fill="none"/><line y2="-29668" y1="-29099" x2="-30041" x1="-29053" fill="none"/><line y2="-31330" y1="-30807" x2="-27164" x1="-28071" fill="none"/><line y2="-28054" y1="-29099" x2="-29053" x1="-29053" fill="none"/><line y2="-31110" y1="-30807" x2="-30567" x1="-30041" fill="none"/><line y2="-30807" y1="-31223" x2="-31855" x1="-31136" fill="none"/><line y2="-32202" y1="-31376" x2="-29053" x1="-29053" fill="none"/><line y2="-29252" y1="-29668" x2="-27352" x1="-28071" fill="none"/><line y2="-29252" y1="-29668" x2="-30760" x1="-30041" fill="none"/><line y2="-30914" y1="-31330" x2="-26444" x1="-27164" fill="none"/><line y2="-31330" y1="-31026" x2="-25350" x1="-25875" fill="none"/><line y2="-30807" y1="-31330" x2="-24442" x1="-25350" fill="none"/><line y2="-31223" y1="-30807" x2="-23723" x1="-24442" fill="none"/><line y2="-32159" y1="-31330" x2="-27233" x1="-27233" fill="none"/><line y2="-32159" y1="-31330" x2="-27092" x1="-27092" fill="none"/><line y2="-27747" y1="-28054" x2="-29582" x1="-29053" fill="none"/><line y2="-27698" y1="-28114" x2="-28299" x1="-29018" fill="none"/><line y2="-27577" y1="-27990" x2="-28368" x1="-29088" fill="none"/><line y2="-31330" y1="-30807" x2="-32762" x1="-31855" fill="none"/><line y2="-29978" y1="-30807" x2="-31786" x1="-31786" fill="none"/><line y2="-29978" y1="-30807" x2="-31925" x1="-31925" fill="none"/><text y="-30628" xml:space="preserve" x="-26407" stroke="none" font-size="433.3333" font-family="sans-serif">NH</text><text y="-32199" xml:space="preserve" x="-27314" stroke="none" font-size="433.3333" font-family="sans-serif">O</text><text y="-31150" xml:space="preserve" x="-23686" stroke="none" font-size="433.3333" font-family="sans-serif">OH</text><text y="-32242" xml:space="preserve" x="-29206" stroke="none" font-size="433.3333" font-family="sans-serif">I</text><text y="-28966" xml:space="preserve" x="-27314" stroke="none" font-size="433.3333" font-family="sans-serif">I</text><text y="-31150" xml:space="preserve" x="-31098" stroke="none" font-size="433.3333" font-family="sans-serif">NH</text><text y="-29579" xml:space="preserve" x="-32006" stroke="none" font-size="433.3333" font-family="sans-serif">O</text><text y="-27349" xml:space="preserve" x="-30113" stroke="none" font-size="433.3333" font-family="sans-serif">OH</text><text y="-27349" xml:space="preserve" x="-28299" stroke="none" font-size="433.3333" font-family="sans-serif">O</text><text y="-28966" xml:space="preserve" x="-31098" stroke="none" font-size="433.3333" font-family="sans-serif">I</text></g></g></svg>