<svg width="153.72" viewBox="0 0 5124 2752" text-rendering="auto" stroke-width="1" stroke-opacity="1" stroke-miterlimit="10" stroke-linejoin="miter" stroke-linecap="square" stroke-dashoffset="0" stroke-dasharray="none" stroke="black" shape-rendering="auto" image-rendering="auto" height="82.56" font-weight="normal" font-style="normal" font-size="12" font-family="'Dialog'" fill-opacity="1" fill="black" color-rendering="auto" color-interpolation="auto" xmlns="http://www.w3.org/2000/svg"><g><g stroke="white" fill="white"><rect y="0" x="0" width="5124" stroke="none" height="2752"/></g><g transform="translate(32866,32758)" text-rendering="geometricPrecision" stroke-width="44" stroke-linejoin="round" stroke-linecap="round"><line y2="-31844" y1="-30688" x2="-30758" x1="-30758" fill="none"/><line y2="-30688" y1="-30688" x2="-30758" x1="-28940" fill="none"/><line y2="-30110" y1="-30688" x2="-31760" x1="-30758" fill="none"/><line y2="-30330" y1="-30763" x2="-31720" x1="-30968" fill="none"/><line y2="-32228" y1="-31844" x2="-30093" x1="-30758" fill="none"/><line y2="-31844" y1="-32422" x2="-30758" x1="-31760" fill="none"/><line y2="-31769" y1="-32202" x2="-30968" x1="-31720" fill="none"/><line y2="-30908" y1="-31844" x2="-28753" x1="-28753" fill="none"/><line y2="-31023" y1="-31728" x2="-28923" x1="-28923" fill="none"/><line y2="-30688" y1="-30110" x2="-32762" x1="-31760" fill="none"/><line y2="-31844" y1="-32225" x2="-28753" x1="-29411" fill="none"/><line y2="-32422" y1="-31844" x2="-31760" x1="-32762" fill="none"/><line y2="-31844" y1="-30688" x2="-32762" x1="-32762" fill="none"/><line y2="-31699" y1="-30833" x2="-32592" x1="-32592" fill="none"/><line y2="-32370" y1="-31844" x2="-27846" x1="-28753" fill="none"/><text y="-30509" xml:space="preserve" x="-28906" stroke="none" font-size="433.3333" font-family="sans-serif">N</text><text y="-32242" xml:space="preserve" x="-30056" stroke="none" font-size="433.3333" font-family="sans-serif">Se</text></g></g></svg>