<svg width="229.35" viewBox="0 0 7645 4513" text-rendering="auto" stroke-width="1" stroke-opacity="1" stroke-miterlimit="10" stroke-linejoin="miter" stroke-linecap="square" stroke-dashoffset="0" stroke-dasharray="none" stroke="black" shape-rendering="auto" image-rendering="auto" height="135.39" font-weight="normal" font-style="normal" font-size="12" font-family="'Dialog'" fill-opacity="1" fill="black" color-rendering="auto" color-interpolation="auto" xmlns="http://www.w3.org/2000/svg"><g><g stroke="white" fill="white"><rect y="0" x="0" width="7645" stroke="none" height="4513"/></g><g transform="translate(32866,32758)" text-rendering="geometricPrecision" stroke-width="44" stroke-linejoin="round" stroke-linecap="round"><line y2="-30758" y1="-31896" x2="-30639" x1="-30639" fill="none"/><line y2="-31896" y1="-32465" x2="-30639" x1="-31627" fill="none"/><line y2="-31821" y1="-32245" x2="-30847" x1="-31590" fill="none"/><line y2="-30191" y1="-30758" x2="-31627" x1="-30639" fill="none"/><line y2="-30408" y1="-30836" x2="-31590" x1="-30847" fill="none"/><line y2="-32465" y1="-31896" x2="-31627" x1="-32609" fill="none"/><line y2="-30651" y1="-30191" x2="-32422" x1="-31627" fill="none"/><line y2="-31896" y1="-30977" x2="-32609" x1="-32609" fill="none"/><line y2="-31780" y1="-31093" x2="-32439" x1="-32439" fill="none"/><line y2="-32312" y1="-31896" x2="-29920" x1="-30639" fill="none"/><line y2="-31896" y1="-32312" x2="-28825" x1="-29544" fill="none"/><line y2="-29143" y1="-30191" x2="-31627" x1="-31627" fill="none"/><line y2="-31896" y1="-30758" x2="-28825" x1="-28825" fill="none"/><line y2="-31754" y1="-30902" x2="-28654" x1="-28654" fill="none"/><line y2="-32465" y1="-31896" x2="-27840" x1="-28825" fill="none"/><line y2="-30758" y1="-30191" x2="-28825" x1="-27840" fill="none"/><line y2="-31896" y1="-32465" x2="-26855" x1="-27840" fill="none"/><line y2="-31821" y1="-32248" x2="-27063" x1="-27802" fill="none"/><line y2="-30191" y1="-30758" x2="-27840" x1="-26855" fill="none"/><line y2="-30408" y1="-30836" x2="-27802" x1="-27063" fill="none"/><line y2="-30758" y1="-31896" x2="-26855" x1="-26855" fill="none"/><line y2="-30344" y1="-30758" x2="-26135" x1="-26855" fill="none"/><line y2="-28727" y1="-29143" x2="-30908" x1="-31627" fill="none"/><line y2="-29085" y1="-28839" x2="-29911" x1="-30339" fill="none"/><line y2="-28666" y1="-29082" x2="-32312" x1="-31592" fill="none"/><line y2="-28787" y1="-29203" x2="-32381" x1="-31662" fill="none"/><text y="-32242" xml:space="preserve" x="-29885" stroke="none" font-size="433.3333" font-family="sans-serif">O</text><text y="-28441" xml:space="preserve" x="-30873" stroke="none" font-size="433.3333" font-family="sans-serif">NH</text><text y="-28441" xml:space="preserve" x="-32687" stroke="none" font-size="433.3333" font-family="sans-serif">O</text><text y="-29016" xml:space="preserve" x="-29874" stroke="none" font-size="433.3333" font-family="sans-serif">CH</text><text y="-28926" xml:space="preserve" x="-29296" stroke="none" font-size="313.3333" font-family="sans-serif">3</text><text y="-30056" xml:space="preserve" x="-26101" stroke="none" font-size="433.3333" font-family="sans-serif">NH</text><text y="-29966" xml:space="preserve" x="-25523" stroke="none" font-size="313.3333" font-family="sans-serif">2</text><text y="-30578" xml:space="preserve" x="-32762" stroke="none" font-size="433.3333" font-family="sans-serif">N</text></g></g></svg>