<svg width="122.04" viewBox="0 0 4068 3442" text-rendering="auto" stroke-width="1" stroke-opacity="1" stroke-miterlimit="10" stroke-linejoin="miter" stroke-linecap="square" stroke-dashoffset="0" stroke-dasharray="none" stroke="black" shape-rendering="auto" image-rendering="auto" height="103.26" font-weight="normal" font-style="normal" font-size="12" font-family="'Dialog'" fill-opacity="1" fill="black" color-rendering="auto" color-interpolation="auto" xmlns="http://www.w3.org/2000/svg"><g><g stroke="white" fill="white"><rect y="0" x="0" width="4068" stroke="none" height="3442"/></g><g transform="translate(32866,32758)" text-rendering="geometricPrecision" stroke-width="44" stroke-linejoin="round" stroke-linecap="round"><line y2="-31514" y1="-30992" x2="-29888" x1="-30795" fill="none"/><line y2="-31514" y1="-30992" x2="-31702" x1="-30795" fill="none"/><line y2="-30162" y1="-30992" x2="-30795" x1="-30795" fill="none"/><line y2="-29420" y1="-29836" x2="-29888" x1="-30607" fill="none"/><line y2="-29836" y1="-29420" x2="-29169" x1="-29888" fill="none"/><line y2="-31098" y1="-31514" x2="-29169" x1="-29888" fill="none"/><line y2="-32202" y1="-31514" x2="-29489" x1="-29888" fill="none"/><line y2="-32202" y1="-31514" x2="-30287" x1="-29888" fill="none"/><line y2="-31098" y1="-31514" x2="-32422" x1="-31702" fill="none"/><line y2="-32202" y1="-31514" x2="-32101" x1="-31702" fill="none"/><line y2="-32202" y1="-31514" x2="-31304" x1="-31702" fill="none"/><text y="-29764" xml:space="preserve" x="-30948" stroke="none" font-size="433.3333" font-family="sans-serif">O</text><text y="-30812" xml:space="preserve" x="-29134" stroke="none" font-size="433.3333" font-family="sans-serif">F</text><text y="-32242" xml:space="preserve" x="-29515" stroke="none" font-size="433.3333" font-family="sans-serif">F</text><text y="-32242" xml:space="preserve" x="-30564" stroke="none" font-size="433.3333" font-family="sans-serif">F</text><text y="-30812" xml:space="preserve" x="-32762" stroke="none" font-size="433.3333" font-family="sans-serif">F</text><text y="-32242" xml:space="preserve" x="-32378" stroke="none" font-size="433.3333" font-family="sans-serif">F</text><text y="-32242" xml:space="preserve" x="-31330" stroke="none" font-size="433.3333" font-family="sans-serif">F</text><text y="-29764" xml:space="preserve" x="-29134" stroke="none" font-size="433.3333" font-family="sans-serif">F</text></g></g></svg>