<svg width="185.94" viewBox="0 0 6198 7918" text-rendering="auto" stroke-width="1" stroke-opacity="1" stroke-miterlimit="10" stroke-linejoin="miter" stroke-linecap="square" stroke-dashoffset="0" stroke-dasharray="none" stroke="black" shape-rendering="auto" image-rendering="auto" height="237.54" font-weight="normal" font-style="normal" font-size="12" font-family="'Dialog'" fill-opacity="1" fill="black" color-rendering="auto" color-interpolation="auto" xmlns="http://www.w3.org/2000/svg"><g><g stroke="white" fill="white"><rect y="0" x="0" width="6198" stroke="none" height="7918"/></g><g transform="translate(32866,32866)" text-rendering="geometricPrecision" stroke-width="44" stroke-linejoin="round" stroke-linecap="round"><line y2="-26115" y1="-26667" x2="-29772" x1="-30483" fill="none"/><line y2="-26673" y1="-26115" x2="-30862" x1="-31616" fill="none"/><line y2="-25052" y1="-26115" x2="-30139" x1="-29772" fill="none"/><line y2="-26115" y1="-25052" x2="-31616" x1="-31286" fill="none"/><line y2="-25052" y1="-25052" x2="-31286" x1="-30139" fill="none"/><line y2="-25222" y1="-25222" x2="-31145" x1="-30284" fill="none"/><line y2="-27860" y1="-27031" x2="-30674" x1="-30674" fill="none"/><line y2="-28383" y1="-27860" x2="-29767" x1="-30674" fill="none"/><line y2="-29432" y1="-28383" x2="-29767" x1="-29767" fill="none"/><line y2="-29954" y1="-29432" x2="-28857" x1="-29767" fill="none"/><line y2="-30784" y1="-29954" x2="-28857" x1="-28857" fill="none"/><line y2="-26418" y1="-26182" x2="-28972" x1="-29793" fill="none"/><line y2="-26283" y1="-26049" x2="-28935" x1="-29752" fill="none"/><line y2="-26312" y1="-26049" x2="-32445" x1="-31636" fill="none"/><line y2="-26444" y1="-26182" x2="-32401" x1="-31592" fill="none"/><line y2="-31148" y1="-31699" x2="-28669" x1="-27958" fill="none"/><line y2="-31699" y1="-31142" x2="-29801" x1="-29047" fill="none"/><line y2="-31699" y1="-32762" x2="-27958" x1="-28325" fill="none"/><line y2="-32762" y1="-31699" x2="-29472" x1="-29801" fill="none"/><line y2="-32762" y1="-32762" x2="-28325" x1="-29472" fill="none"/><line y2="-32592" y1="-32592" x2="-28470" x1="-29330" fill="none"/><line y2="-31517" y1="-31766" x2="-27123" x1="-27938" fill="none"/><line y2="-31382" y1="-31630" x2="-27164" x1="-27978" fill="none"/><line y2="-31370" y1="-31633" x2="-30587" x1="-29778" fill="none"/><line y2="-31503" y1="-31766" x2="-30630" x1="-29822" fill="none"/><text y="-26225" xml:space="preserve" x="-28917" stroke="none" font-size="433.3333" font-family="sans-serif">O</text><text y="-26260" xml:space="preserve" x="-32762" stroke="none" font-size="433.3333" font-family="sans-serif">O</text><text y="-31214" xml:space="preserve" x="-27109" stroke="none" font-size="433.3333" font-family="sans-serif">O</text><text y="-31197" xml:space="preserve" x="-30948" stroke="none" font-size="433.3333" font-family="sans-serif">O</text><text y="-26632" xml:space="preserve" x="-30824" stroke="none" font-size="433.3333" font-family="sans-serif">N</text><text y="-30824" xml:space="preserve" x="-29010" stroke="none" font-size="433.3333" font-family="sans-serif">N</text></g></g></svg>