<svg width="224.28" viewBox="0 0 7476 4644" text-rendering="auto" stroke-width="1" stroke-opacity="1" stroke-miterlimit="10" stroke-linejoin="miter" stroke-linecap="square" stroke-dashoffset="0" stroke-dasharray="none" stroke="black" shape-rendering="auto" image-rendering="auto" height="139.32" font-weight="normal" font-style="normal" font-size="12" font-family="'Dialog'" fill-opacity="1" fill="black" color-rendering="auto" color-interpolation="auto" xmlns="http://www.w3.org/2000/svg"><g><g stroke="white" fill="white"><rect y="0" x="0" width="7476" stroke="none" height="4644"/></g><g transform="translate(32866,32758)" text-rendering="geometricPrecision" stroke-width="44" stroke-linejoin="round" stroke-linecap="round"><line y2="-30662" y1="-31725" x2="-30290" x1="-29923" fill="none"/><line y2="-30853" y1="-31650" x2="-30405" x1="-30131" fill="none"/><line y2="-30662" y1="-30662" x2="-31436" x1="-30290" fill="none"/><line y2="-31725" y1="-32277" x2="-29923" x1="-30633" fill="none"/><line y2="-31725" y1="-30662" x2="-31766" x1="-31436" fill="none"/><line y2="-31644" y1="-30847" x2="-31561" x1="-31315" fill="none"/><line y2="-32283" y1="-31725" x2="-31012" x1="-31766" fill="none"/><line y2="-30246" y1="-30662" x2="-29570" x1="-30290" fill="none"/><line y2="-30555" y1="-30246" x2="-28663" x1="-29195" fill="none"/><line y2="-30139" y1="-30555" x2="-27568" x1="-28288" fill="none"/><line y2="-32014" y1="-31725" x2="-28914" x1="-29923" fill="none"/><line y2="-32052" y1="-31725" x2="-32762" x1="-31766" fill="none"/><line y2="-30836" y1="-30139" x2="-26626" x1="-27568" fill="none"/><line y2="-30610" y1="-30090" x2="-26644" x1="-27349" fill="none"/><line y2="-30139" y1="-29076" x2="-27568" x1="-27242" fill="none"/><line y2="-30284" y1="-30836" x2="-25916" x1="-26626" fill="none"/><line y2="-29076" y1="-29076" x2="-27242" x1="-26095" fill="none"/><line y2="-29244" y1="-29244" x2="-27097" x1="-26239" fill="none"/><line y2="-29076" y1="-29920" x2="-26095" x1="-25803" fill="none"/><line y2="-31881" y1="-30836" x2="-26626" x1="-26626" fill="none"/><line y2="-28218" y1="-29076" x2="-25494" x1="-26095" fill="none"/><text y="-29960" xml:space="preserve" x="-29536" stroke="none" font-size="433.3333" font-family="sans-serif">S</text><text y="-30483" xml:space="preserve" x="-28628" stroke="none" font-size="433.3333" font-family="sans-serif">S</text><text y="-32242" xml:space="preserve" x="-30974" stroke="none" font-size="433.3333" font-family="sans-serif">O</text><text y="-29960" xml:space="preserve" x="-25878" stroke="none" font-size="433.3333" font-family="sans-serif">O</text></g></g></svg>