<svg width="253.41" viewBox="0 0 8447 7400" text-rendering="auto" stroke-width="1" stroke-opacity="1" stroke-miterlimit="10" stroke-linejoin="miter" stroke-linecap="square" stroke-dashoffset="0" stroke-dasharray="none" stroke="black" shape-rendering="auto" image-rendering="auto" height="222.0" font-weight="normal" font-style="normal" font-size="12" font-family="'Dialog'" fill-opacity="1" fill="black" color-rendering="auto" color-interpolation="auto" xmlns="http://www.w3.org/2000/svg"><g><g stroke="white" fill="white"><rect y="0" x="0" width="8447" stroke="none" height="7400"/></g><g transform="translate(32866,32866)" text-rendering="geometricPrecision" stroke-width="44" stroke-linejoin="round" stroke-linecap="round"><line y2="-29117" y1="-29642" x2="-29059" x1="-28152" fill="none"/><line y2="-29117" y1="-29642" x2="-27245" x1="-28152" fill="none"/><line y2="-31714" y1="-31191" x2="-27245" x1="-28152" fill="none"/><line y2="-31298" y1="-31714" x2="-26525" x1="-27245" fill="none"/><line y2="-29117" y1="-29686" x2="-29059" x1="-30041" fill="none"/><line y2="-29042" y1="-29469" x2="-29267" x1="-30004" fill="none"/><line y2="-27981" y1="-29117" x2="-29059" x1="-29059" fill="none"/><line y2="-29686" y1="-29117" x2="-30041" x1="-31029" fill="none"/><line y2="-27412" y1="-27981" x2="-30041" x1="-29059" fill="none"/><line y2="-27629" y1="-28056" x2="-30004" x1="-29267" fill="none"/><line y2="-29117" y1="-27981" x2="-31029" x1="-31029" fill="none"/><line y2="-28975" y1="-28123" x2="-30859" x1="-30859" fill="none"/><line y2="-27981" y1="-27412" x2="-31029" x1="-30041" fill="none"/><line y2="-26364" y1="-27412" x2="-30041" x1="-30041" fill="none"/><line y2="-26060" y1="-26364" x2="-30570" x1="-30041" fill="none"/><line y2="-30515" y1="-29686" x2="-30041" x1="-30041" fill="none"/><line y2="-31257" y1="-30841" x2="-30948" x1="-30229" fill="none"/><line y2="-29117" y1="-27981" x2="-27245" x1="-27245" fill="none"/><line y2="-28975" y1="-28123" x2="-27074" x1="-27074" fill="none"/><line y2="-29686" y1="-29117" x2="-26257" x1="-27245" fill="none"/><line y2="-27981" y1="-27412" x2="-27245" x1="-26257" fill="none"/><line y2="-29117" y1="-29686" x2="-25274" x1="-26257" fill="none"/><line y2="-29042" y1="-29469" x2="-25482" x1="-26219" fill="none"/><line y2="-27412" y1="-27981" x2="-26257" x1="-25274" fill="none"/><line y2="-27629" y1="-28056" x2="-26219" x1="-25482" fill="none"/><line y2="-27981" y1="-29117" x2="-25274" x1="-25274" fill="none"/><line y2="-31714" y1="-31298" x2="-25430" x1="-26150" fill="none"/><line y2="-30142" y1="-30971" x2="-26338" x1="-26338" fill="none"/><line y2="-30734" y1="-31257" x2="-31855" x1="-30948" fill="none"/><line y2="-32086" y1="-31257" x2="-31018" x1="-31018" fill="none"/><line y2="-32086" y1="-31257" x2="-30879" x1="-30879" fill="none"/><line y2="-31191" y1="-31714" x2="-24523" x1="-25430" fill="none"/><line y2="-32762" y1="-31714" x2="-25430" x1="-25430" fill="none"/><line y2="-29619" y1="-30142" x2="-25430" x1="-26338" fill="none"/><line y2="-29619" y1="-30142" x2="-27245" x1="-26338" fill="none"/><line y2="-31257" y1="-30734" x2="-32762" x1="-31855" fill="none"/><line y2="-29686" y1="-30734" x2="-31855" x1="-31855" fill="none"/><line y2="-31191" y1="-31191" x2="-28082" x1="-28221" fill="none"/><line y2="-30974" y1="-30974" x2="-28092" x1="-28211" fill="none"/><line y2="-30758" y1="-30758" x2="-28102" x1="-28202" fill="none"/><line y2="-30541" y1="-30541" x2="-28111" x1="-28192" fill="none"/><line y2="-30324" y1="-30324" x2="-28121" x1="-28182" fill="none"/><line y2="-30108" y1="-30108" x2="-28131" x1="-28173" fill="none"/><line y2="-29891" y1="-29891" x2="-28141" x1="-28163" fill="none"/><line y2="-29674" y1="-29674" x2="-28151" x1="-28153" fill="none"/><text y="-31012" xml:space="preserve" x="-26491" stroke="none" font-size="433.3333" font-family="sans-serif">N</text><text y="-30555" xml:space="preserve" x="-30194" stroke="none" font-size="433.3333" font-family="sans-serif">O</text><text y="-32127" xml:space="preserve" x="-31101" stroke="none" font-size="433.3333" font-family="sans-serif">O</text><text y="-25662" xml:space="preserve" x="-31101" stroke="none" font-size="433.3333" font-family="sans-serif">OH</text><text y="-29160" xml:space="preserve" x="-28305" stroke="none" font-style="italic" font-size="313.3333" font-family="sans-serif">R</text></g></g></svg>