<svg width="235.89" viewBox="0 0 7863 5500" text-rendering="auto" stroke-width="1" stroke-opacity="1" stroke-miterlimit="10" stroke-linejoin="miter" stroke-linecap="square" stroke-dashoffset="0" stroke-dasharray="none" stroke="black" shape-rendering="auto" image-rendering="auto" height="165.0" font-weight="normal" font-style="normal" font-size="12" font-family="'Dialog'" fill-opacity="1" fill="black" color-rendering="auto" color-interpolation="auto" xmlns="http://www.w3.org/2000/svg"><g><g stroke="white" fill="white"><rect y="0" x="0" width="7863" stroke="none" height="5500"/></g><g transform="translate(32866,32866)" text-rendering="geometricPrecision" stroke-width="44" stroke-linejoin="round" stroke-linecap="round"><line y2="-28732" y1="-29452" x2="-30125" x1="-29876" fill="none"/><line y2="-29816" y1="-30281" x2="-29986" x1="-30593" fill="none"/><line y2="-28513" y1="-28513" x2="-31448" x1="-30388" fill="none"/><line y2="-30287" y1="-29671" x2="-30968" x1="-31803" fill="none"/><line y2="-29671" y1="-28513" x2="-31803" x1="-31448" fill="none"/><line y2="-30194" y1="-29778" x2="-28891" x1="-29611" fill="none"/><line y2="-27470" y1="-28513" x2="-31338" x1="-31448" fill="none"/><line y2="-28293" y1="-28513" x2="-32474" x1="-31448" fill="none"/><line y2="-29244" y1="-29671" x2="-32762" x1="-31803" fill="none"/><line y2="-30578" y1="-29671" x2="-32329" x1="-31803" fill="none"/><line y2="-30194" y1="-29625" x2="-28891" x1="-27906" fill="none"/><line y2="-31332" y1="-30194" x2="-28891" x1="-28891" fill="none"/><line y2="-31188" y1="-30336" x2="-28721" x1="-28721" fill="none"/><line y2="-29625" y1="-30194" x2="-27906" x1="-26921" fill="none"/><line y2="-31899" y1="-31332" x2="-27906" x1="-28891" fill="none"/><line y2="-30194" y1="-31332" x2="-26921" x1="-26921" fill="none"/><line y2="-31332" y1="-31899" x2="-26921" x1="-27906" fill="none"/><line y2="-31855" y1="-31332" x2="-26014" x1="-26921" fill="none"/><line y2="-31332" y1="-31855" x2="-25107" x1="-26014" fill="none"/><line y2="-32762" y1="-31855" x2="-25491" x1="-26014" fill="none"/><line y2="-32762" y1="-31855" x2="-26537" x1="-26014" fill="none"/><text y="-29492" xml:space="preserve" x="-29952" stroke="none" font-size="433.3333" font-family="sans-serif">B</text><text y="-28334" xml:space="preserve" x="-30353" stroke="none" font-size="433.3333" font-family="sans-serif">O</text><text y="-30249" xml:space="preserve" x="-30931" stroke="none" font-size="433.3333" font-family="sans-serif">O</text></g></g></svg>