<svg width="313.08" viewBox="0 0 10436 9969" text-rendering="auto" stroke-width="1" stroke-opacity="1" stroke-miterlimit="10" stroke-linejoin="miter" stroke-linecap="square" stroke-dashoffset="0" stroke-dasharray="none" stroke="black" shape-rendering="auto" image-rendering="auto" height="299.07" font-weight="normal" font-style="normal" font-size="12" font-family="'Dialog'" fill-opacity="1" fill="black" color-rendering="auto" color-interpolation="auto" xmlns="http://www.w3.org/2000/svg"><g><g stroke="white" fill="white"><rect y="0" x="0" width="10436" stroke="none" height="9969"/></g><g transform="translate(32866,32758)" text-rendering="geometricPrecision" stroke-width="44" stroke-linejoin="round" stroke-linecap="round"><line y2="-30801" y1="-29654" x2="-29738" x1="-29738" fill="none"/><line y2="-30659" y1="-29798" x2="-29570" x1="-29570" fill="none"/><line y2="-29654" y1="-29082" x2="-29738" x1="-28756" fill="none"/><line y2="-29082" y1="-29654" x2="-30723" x1="-29738" fill="none"/><line y2="-31266" y1="-30801" x2="-28943" x1="-29738" fill="none"/><line y2="-30801" y1="-31376" x2="-29738" x1="-30723" fill="none"/><line y2="-29082" y1="-29654" x2="-28756" x1="-27773" fill="none"/><line y2="-29302" y1="-29732" x2="-28721" x1="-27984" fill="none"/><line y2="-29654" y1="-29082" x2="-31705" x1="-30723" fill="none"/><line y2="-29732" y1="-29302" x2="-31494" x1="-30758" fill="none"/><line y2="-30801" y1="-31266" x2="-27773" x1="-28568" fill="none"/><line y2="-30714" y1="-31061" x2="-27958" x1="-28556" fill="none"/><line y2="-31376" y1="-30801" x2="-30723" x1="-31705" fill="none"/><line y2="-31156" y1="-30726" x2="-30758" x1="-31494" fill="none"/><line y2="-29654" y1="-30801" x2="-27773" x1="-27773" fill="none"/><line y2="-30801" y1="-29654" x2="-31705" x1="-31705" fill="none"/><line y2="-28253" y1="-29082" x2="-28756" x1="-28756" fill="none"/><line y2="-27510" y1="-27814" x2="-27848" x1="-28377" fill="none"/><line y2="-31327" y1="-30801" x2="-26866" x1="-27773" fill="none"/><line y2="-32202" y1="-31376" x2="-30723" x1="-30723" fill="none"/><line y2="-29241" y1="-29654" x2="-32424" x1="-31705" fill="none"/><line y2="-26681" y1="-27510" x2="-27848" x1="-27848" fill="none"/><line y2="-25939" y1="-26242" x2="-26941" x1="-27470" fill="none"/><line y2="-27987" y1="-27571" x2="-27167" x1="-27883" fill="none"/><line y2="-27866" y1="-27450" x2="-27094" x1="-27814" fill="none"/><line y2="-25939" y1="-24801" x2="-26941" x1="-26941" fill="none"/><line y2="-25797" y1="-24945" x2="-26771" x1="-26771" fill="none"/><line y2="-26508" y1="-25939" x2="-25956" x1="-26941" fill="none"/><line y2="-24801" y1="-24232" x2="-26941" x1="-25956" fill="none"/><line y2="-25939" y1="-26508" x2="-24971" x1="-25956" fill="none"/><line y2="-25864" y1="-26288" x2="-25179" x1="-25919" fill="none"/><line y2="-24232" y1="-24801" x2="-25956" x1="-24971" fill="none"/><line y2="-24451" y1="-24879" x2="-25919" x1="-25179" fill="none"/><line y2="-24801" y1="-25939" x2="-24971" x1="-24971" fill="none"/><line y2="-24385" y1="-24801" x2="-24252" x1="-24971" fill="none"/><line y2="-24694" y1="-24385" x2="-23345" x1="-23876" fill="none"/><line y2="-23449" y1="-24058" x2="-24064" x1="-24064" fill="none"/><text y="-27854" xml:space="preserve" x="-28909" stroke="none" font-size="433.3333" font-family="sans-serif">NH</text><text y="-26283" xml:space="preserve" x="-28002" stroke="none" font-size="433.3333" font-family="sans-serif">NH</text><text y="-27854" xml:space="preserve" x="-27094" stroke="none" font-size="433.3333" font-family="sans-serif">O</text><text y="-32242" xml:space="preserve" x="-30873" stroke="none" font-size="433.3333" font-family="sans-serif">F</text><text y="-28952" xml:space="preserve" x="-32762" stroke="none" font-size="433.3333" font-family="sans-serif">F</text><text y="-24099" xml:space="preserve" x="-24217" stroke="none" font-size="433.3333" font-family="sans-serif">N</text><text y="-24622" xml:space="preserve" x="-23310" stroke="none" font-size="433.3333" font-family="sans-serif">CH</text><text y="-24532" xml:space="preserve" x="-22732" stroke="none" font-size="313.3333" font-family="sans-serif">3</text><text y="-23050" xml:space="preserve" x="-24217" stroke="none" font-size="433.3333" font-family="sans-serif">CH</text><text y="-22960" xml:space="preserve" x="-23639" stroke="none" font-size="313.3333" font-family="sans-serif">3</text><text y="-31197" xml:space="preserve" x="-28909" stroke="none" font-size="433.3333" font-family="sans-serif">N</text></g></g></svg>