<svg width="207.39" viewBox="0 0 6913 4700" text-rendering="auto" stroke-width="1" stroke-opacity="1" stroke-miterlimit="10" stroke-linejoin="miter" stroke-linecap="square" stroke-dashoffset="0" stroke-dasharray="none" stroke="black" shape-rendering="auto" image-rendering="auto" height="141.0" font-weight="normal" font-style="normal" font-size="12" font-family="'Dialog'" fill-opacity="1" fill="black" color-rendering="auto" color-interpolation="auto" xmlns="http://www.w3.org/2000/svg"><g><g stroke="white" fill="white"><rect y="0" x="0" width="6913" stroke="none" height="4700"/></g><g transform="translate(32866,32866)" text-rendering="geometricPrecision" stroke-width="44" stroke-linejoin="round" stroke-linecap="round"><line y2="-30532" y1="-31101" x2="-28935" x1="-29917" fill="none"/><line y2="-30457" y1="-30885" x2="-29143" x1="-29879" fill="none"/><line y2="-29394" y1="-30532" x2="-28935" x1="-28935" fill="none"/><line y2="-31101" y1="-30532" x2="-29917" x1="-30905" fill="none"/><line y2="-28828" y1="-29394" x2="-29917" x1="-28935" fill="none"/><line y2="-29044" y1="-29472" x2="-29879" x1="-29143" fill="none"/><line y2="-30532" y1="-29394" x2="-30905" x1="-30905" fill="none"/><line y2="-30391" y1="-29538" x2="-30734" x1="-30734" fill="none"/><line y2="-29394" y1="-28828" x2="-30905" x1="-29917" fill="none"/><line y2="-31055" y1="-30532" x2="-28028" x1="-28935" fill="none"/><line y2="-28871" y1="-29394" x2="-31812" x1="-30905" fill="none"/><line y2="-32193" y1="-31055" x2="-28028" x1="-28028" fill="none"/><line y2="-32052" y1="-31200" x2="-27857" x1="-27857" fill="none"/><line y2="-31055" y1="-30489" x2="-28028" x1="-27040" fill="none"/><line y2="-32762" y1="-32193" x2="-27040" x1="-28028" fill="none"/><line y2="-30489" y1="-31055" x2="-27040" x1="-26057" fill="none"/><line y2="-30706" y1="-31133" x2="-27002" x1="-26265" fill="none"/><line y2="-32193" y1="-32762" x2="-26057" x1="-27040" fill="none"/><line y2="-32118" y1="-32546" x2="-26265" x1="-27002" fill="none"/><line y2="-31055" y1="-32193" x2="-26057" x1="-26057" fill="none"/><line y2="-28348" y1="-28871" x2="-32719" x1="-31812" fill="none"/><line y2="-28270" y1="-28793" x2="-32673" x1="-31766" fill="none"/><line y2="-28426" y1="-28949" x2="-32762" x1="-31855" fill="none"/></g></g></svg>