<svg width="400.83" viewBox="0 0 13361 7874" text-rendering="auto" stroke-width="1" stroke-opacity="1" stroke-miterlimit="10" stroke-linejoin="miter" stroke-linecap="square" stroke-dashoffset="0" stroke-dasharray="none" stroke="black" shape-rendering="auto" image-rendering="auto" height="236.22" font-weight="normal" font-style="normal" font-size="12" font-family="'Dialog'" fill-opacity="1" fill="black" color-rendering="auto" color-interpolation="auto" xmlns="http://www.w3.org/2000/svg"><g><g stroke="white" fill="white"><rect y="0" x="0" width="13361" stroke="none" height="7874"/></g><g transform="translate(32866,32758)" text-rendering="geometricPrecision" stroke-width="44" stroke-linejoin="round" stroke-linecap="round"><line y2="-29229" y1="-28082" x2="-25127" x1="-25127" fill="none"/><line y2="-27510" y1="-28082" x2="-26109" x1="-25127" fill="none"/><line y2="-28082" y1="-28082" x2="-25127" x1="-23163" fill="none"/><line y2="-29804" y1="-29229" x2="-24145" x1="-25127" fill="none"/><line y2="-29229" y1="-29804" x2="-25127" x1="-26109" fill="none"/><line y2="-28082" y1="-27510" x2="-27092" x1="-26109" fill="none"/><line y2="-28158" y1="-27730" x2="-26884" x1="-26147" fill="none"/><line y2="-26364" y1="-27510" x2="-26109" x1="-26109" fill="none"/><line y2="-28082" y1="-29229" x2="-23163" x1="-23163" fill="none"/><line y2="-29229" y1="-29804" x2="-23163" x1="-24145" fill="none"/><line y2="-29804" y1="-29229" x2="-26109" x1="-27092" fill="none"/><line y2="-29229" y1="-28082" x2="-27092" x1="-27092" fill="none"/><line y2="-28082" y1="-27510" x2="-27092" x1="-28074" fill="none"/><line y2="-25792" y1="-26364" x2="-27092" x1="-26109" fill="none"/><line y2="-26364" y1="-27510" x2="-28074" x1="-28074" fill="none"/><line y2="-27510" y1="-28082" x2="-28074" x1="-29059" fill="none"/><line y2="-26364" y1="-25792" x2="-28074" x1="-27092" fill="none"/><line y2="-25792" y1="-26364" x2="-29059" x1="-28074" fill="none"/><line y2="-28082" y1="-27510" x2="-29059" x1="-30041" fill="none"/><line y2="-26364" y1="-25792" x2="-30041" x1="-29059" fill="none"/><line y2="-27510" y1="-26364" x2="-30041" x1="-30041" fill="none"/><line y2="-30850" y1="-29804" x2="-24145" x1="-24145" fill="none"/><line y2="-24988" y1="-25792" x2="-29732" x1="-29059" fill="none"/><line y2="-24988" y1="-25792" x2="-28383" x1="-29059" fill="none"/><line y2="-26364" y1="-25948" x2="-31855" x1="-31136" fill="none"/><line y2="-31376" y1="-30850" x2="-23238" x1="-24145" fill="none"/><line y2="-30850" y1="-31376" x2="-22331" x1="-23238" fill="none"/><line y2="-31376" y1="-30850" x2="-21424" x1="-22331" fill="none"/><line y2="-25841" y1="-26364" x2="-32762" x1="-31855" fill="none"/><line y2="-27193" y1="-26364" x2="-31925" x1="-31925" fill="none"/><line y2="-27193" y1="-26364" x2="-31783" x1="-31783" fill="none"/><line y2="-30850" y1="-31376" x2="-20516" x1="-21424" fill="none"/><line y2="-32422" y1="-31376" x2="-21424" x1="-21424" fill="none"/><line y2="-32422" y1="-31376" x2="-21285" x1="-21285" fill="none"/><line y2="-31070" y1="-31376" x2="-25578" x1="-25052" fill="none"/><line y2="-32202" y1="-31376" x2="-25121" x1="-25121" fill="none"/><line y2="-32202" y1="-31416" x2="-24983" x1="-24983" fill="none"/><line y2="-31376" y1="-30850" x2="-19609" x1="-20516" fill="none"/><line y2="-29804" y1="-30850" x2="-20516" x1="-20516" fill="none"/><polygon stroke-width="1" stroke="none" points=" -25127 -29229 -25196 -30278 -25058 -30278"/><polygon stroke-width="1" points=" -25127 -29229 -25196 -30278 -25058 -30278" fill="none"/><polygon stroke-width="1" stroke="none" points=" -28074 -27510 -28143 -28556 -28007 -28559"/><polygon stroke-width="1" points=" -28074 -27510 -28143 -28556 -28007 -28559" fill="none"/><polygon stroke-width="1" stroke="none" points=" -30041 -26364 -30723 -25890 -30795 -26008"/><polygon stroke-width="1" points=" -30041 -26364 -30723 -25890 -30795 -26008" fill="none"/><line y2="-27034" y1="-27037" x2="-25196" x1="-25058" fill="none"/><line y2="-27251" y1="-27253" x2="-25182" x1="-25072" fill="none"/><line y2="-27468" y1="-27470" x2="-25167" x1="-25087" fill="none"/><line y2="-27685" y1="-27686" x2="-25153" x1="-25101" fill="none"/><line y2="-27902" y1="-27902" x2="-25139" x1="-25115" fill="none"/><line y2="-29585" y1="-29706" x2="-22409" x1="-22478" fill="none"/><line y2="-29492" y1="-29582" x2="-22606" x1="-22657" fill="none"/><line y2="-29399" y1="-29457" x2="-22802" x1="-22835" fill="none"/><line y2="-29307" y1="-29333" x2="-22999" x1="-23014" fill="none"/><line y2="-25534" y1="-25534" x2="-28143" x1="-28007" fill="none"/><line y2="-25751" y1="-25751" x2="-28125" x1="-28024" fill="none"/><line y2="-25967" y1="-25967" x2="-28107" x1="-28042" fill="none"/><line y2="-26184" y1="-26184" x2="-28089" x1="-28059" fill="none"/><line y2="-30160" y1="-30278" x2="-23391" x1="-23460" fill="none"/><line y2="-30067" y1="-30154" x2="-23588" x1="-23639" fill="none"/><line y2="-29974" y1="-30031" x2="-23784" x1="-23817" fill="none"/><line y2="-29881" y1="-29907" x2="-23981" x1="-23996" fill="none"/><line y2="-31434" y1="-31315" x2="-25017" x1="-25087" fill="none"/><line y2="-31313" y1="-31219" x2="-24837" x1="-24892" fill="none"/><line y2="-31192" y1="-31123" x2="-24656" x1="-24697" fill="none"/><line y2="-31072" y1="-31027" x2="-24476" x1="-24503" fill="none"/><line y2="-30951" y1="-30930" x2="-24296" x1="-24308" fill="none"/><text y="-30671" xml:space="preserve" x="-26112" stroke="none" font-size="433.3333" font-family="sans-serif">OH</text><text y="-32242" xml:space="preserve" x="-25205" stroke="none" font-size="433.3333" font-family="sans-serif">O</text><text y="-29576" xml:space="preserve" x="-22406" stroke="none" font-size="433.3333" font-family="sans-serif">OH</text><text y="-25662" xml:space="preserve" x="-31098" stroke="none" font-size="433.3333" font-family="sans-serif">O</text><text y="-27233" xml:space="preserve" x="-32006" stroke="none" font-size="433.3333" font-family="sans-serif">O</text><text y="-25139" xml:space="preserve" x="-28227" stroke="none" font-size="433.3333" font-family="sans-serif">H</text><text y="-30148" xml:space="preserve" x="-23391" stroke="none" font-size="433.3333" font-family="sans-serif">H</text><text y="-30526" xml:space="preserve" x="-24050" stroke="none" font-style="italic" font-size="313.3333" font-family="sans-serif">R</text><text y="-28048" xml:space="preserve" x="-25526" stroke="none" font-style="italic" font-size="313.3333" font-family="sans-serif">R</text><text y="-28906" xml:space="preserve" x="-25032" stroke="none" font-style="italic" font-size="313.3333" font-family="sans-serif">R</text><text y="-29322" xml:space="preserve" x="-24298" stroke="none" font-style="italic" font-size="313.3333" font-family="sans-serif">R</text><text y="-28906" xml:space="preserve" x="-23564" stroke="none" font-style="italic" font-size="313.3333" font-family="sans-serif">R</text><text y="-27187" xml:space="preserve" x="-27978" stroke="none" font-style="italic" font-size="313.3333" font-family="sans-serif">S</text><text y="-26329" xml:space="preserve" x="-28475" stroke="none" font-style="italic" font-size="313.3333" font-family="sans-serif">R</text><text y="-26329" xml:space="preserve" x="-29943" stroke="none" font-style="italic" font-size="313.3333" font-family="sans-serif">S</text></g></g></svg>