<svg width="230.97" viewBox="0 0 7699 5605" text-rendering="auto" stroke-width="1" stroke-opacity="1" stroke-miterlimit="10" stroke-linejoin="miter" stroke-linecap="square" stroke-dashoffset="0" stroke-dasharray="none" stroke="black" shape-rendering="auto" image-rendering="auto" height="168.15" font-weight="normal" font-style="normal" font-size="12" font-family="'Dialog'" fill-opacity="1" fill="black" color-rendering="auto" color-interpolation="auto" xmlns="http://www.w3.org/2000/svg"><g><g stroke="white" fill="white"><rect y="0" x="0" width="7699" stroke="none" height="5605"/></g><g transform="translate(32866,32758)" text-rendering="geometricPrecision" stroke-width="44" stroke-linejoin="round" stroke-linecap="round"><line y2="-30807" y1="-29668" x2="-29134" x1="-29134" fill="none"/><line y2="-30665" y1="-29810" x2="-28964" x1="-28964" fill="none"/><line y2="-29668" y1="-29099" x2="-29134" x1="-28146" fill="none"/><line y2="-31376" y1="-30807" x2="-28146" x1="-29134" fill="none"/><line y2="-29099" y1="-29668" x2="-28146" x1="-27164" fill="none"/><line y2="-29319" y1="-29744" x2="-28108" x1="-27372" fill="none"/><line y2="-30807" y1="-31376" x2="-27164" x1="-28146" fill="none"/><line y2="-30729" y1="-31156" x2="-27372" x1="-28108" fill="none"/><line y2="-29668" y1="-30807" x2="-27164" x1="-27164" fill="none"/><line y2="-31330" y1="-30807" x2="-26257" x1="-27164" fill="none"/><line y2="-29252" y1="-29668" x2="-29853" x1="-29134" fill="none"/><line y2="-31223" y1="-30807" x2="-29853" x1="-29134" fill="none"/><line y2="-28273" y1="-29099" x2="-28146" x1="-28146" fill="none"/><line y2="-32202" y1="-31376" x2="-28146" x1="-28146" fill="none"/><line y2="-30914" y1="-31330" x2="-25537" x1="-26257" fill="none"/><line y2="-32017" y1="-31330" x2="-25858" x1="-26257" fill="none"/><line y2="-32017" y1="-31330" x2="-26655" x1="-26257" fill="none"/><line y2="-29668" y1="-29252" x2="-30948" x1="-30229" fill="none"/><line y2="-29146" y1="-29668" x2="-31855" x1="-30948" fill="none"/><line y2="-29668" y1="-29146" x2="-32762" x1="-31855" fill="none"/><line y2="-28097" y1="-28926" x2="-30041" x1="-30041" fill="none"/><line y2="-27574" y1="-28097" x2="-30948" x1="-30041" fill="none"/><line y2="-28097" y1="-27574" x2="-31855" x1="-30948" fill="none"/><line y2="-32159" y1="-31549" x2="-30110" x1="-30110" fill="none"/><line y2="-32159" y1="-31549" x2="-29972" x1="-29972" fill="none"/><line y2="-30853" y1="-31162" x2="-30726" x1="-30194" fill="none"/><line y2="-30974" y1="-31283" x2="-30795" x1="-30264" fill="none"/><line y2="-27577" y1="-27883" x2="-28831" x1="-28299" fill="none"/><line y2="-27698" y1="-28004" x2="-28900" x1="-28368" fill="none"/><line y2="-27698" y1="-28004" x2="-27392" x1="-27924" fill="none"/><line y2="-27577" y1="-27883" x2="-27461" x1="-27993" fill="none"/><text y="-28966" xml:space="preserve" x="-30194" stroke="none" font-size="433.3333" font-family="sans-serif">N</text><text y="-31150" xml:space="preserve" x="-30194" stroke="none" font-size="433.3333" font-family="sans-serif">N</text><text y="-32199" xml:space="preserve" x="-30194" stroke="none" font-size="433.3333" font-family="sans-serif">O</text><text y="-30628" xml:space="preserve" x="-31101" stroke="none" font-size="433.3333" font-family="sans-serif">O</text><text y="-27874" xml:space="preserve" x="-28299" stroke="none" font-size="433.3333" font-family="sans-serif">N</text><text y="-27349" xml:space="preserve" x="-29206" stroke="none" font-size="433.3333" font-family="sans-serif">O</text><text y="-27349" xml:space="preserve" x="-27392" stroke="none" font-size="433.3333" font-family="sans-serif">O</text><text y="-32242" xml:space="preserve" x="-28299" stroke="none" font-size="433.3333" font-family="sans-serif">NH</text><text y="-32153" xml:space="preserve" x="-27721" stroke="none" font-size="313.3333" font-family="sans-serif">2</text><text y="-30628" xml:space="preserve" x="-25503" stroke="none" font-size="433.3333" font-family="sans-serif">F</text><text y="-32058" xml:space="preserve" x="-25884" stroke="none" font-size="433.3333" font-family="sans-serif">F</text><text y="-32058" xml:space="preserve" x="-26933" stroke="none" font-size="433.3333" font-family="sans-serif">F</text></g></g></svg>