<svg width="178.86" viewBox="0 0 5962 3988" text-rendering="auto" stroke-width="1" stroke-opacity="1" stroke-miterlimit="10" stroke-linejoin="miter" stroke-linecap="square" stroke-dashoffset="0" stroke-dasharray="none" stroke="black" shape-rendering="auto" image-rendering="auto" height="119.64" font-weight="normal" font-style="normal" font-size="12" font-family="'Dialog'" fill-opacity="1" fill="black" color-rendering="auto" color-interpolation="auto" xmlns="http://www.w3.org/2000/svg"><g><g stroke="white" fill="white"><rect y="0" x="0" width="5962" stroke="none" height="3988"/></g><g transform="translate(32866,32758)" text-rendering="geometricPrecision" stroke-width="44" stroke-linejoin="round" stroke-linecap="round"><line y2="-30717" y1="-30717" x2="-30604" x1="-28822" fill="none"/><line y2="-31855" y1="-30937" x2="-30792" x1="-30792" fill="none"/><line y2="-30148" y1="-30607" x2="-31777" x1="-30980" fill="none"/><line y2="-30717" y1="-31855" x2="-28822" x1="-28822" fill="none"/><line y2="-30859" y1="-31711" x2="-28992" x1="-28992" fill="none"/><line y2="-32315" y1="-31855" x2="-29995" x1="-30792" fill="none"/><line y2="-32110" y1="-31763" x2="-30009" x1="-30607" fill="none"/><line y2="-31855" y1="-32422" x2="-30792" x1="-31777" fill="none"/><line y2="-30717" y1="-30148" x2="-32762" x1="-31777" fill="none"/><line y2="-30792" y1="-30368" x2="-32554" x1="-31815" fill="none"/><line y2="-31855" y1="-32315" x2="-28822" x1="-29616" fill="none"/><line y2="-32422" y1="-31855" x2="-31777" x1="-32762" fill="none"/><line y2="-32205" y1="-31777" x2="-31815" x1="-32554" fill="none"/><line y2="-31855" y1="-30717" x2="-32762" x1="-32762" fill="none"/><line y2="-30191" y1="-30717" x2="-27915" x1="-28822" fill="none"/><line y2="-32378" y1="-31855" x2="-27915" x1="-28822" fill="none"/><line y2="-30717" y1="-30191" x2="-27008" x1="-27915" fill="none"/><line y2="-29365" y1="-30191" x2="-27846" x1="-27846" fill="none"/><line y2="-29365" y1="-30191" x2="-27984" x1="-27984" fill="none"/><text y="-28966" xml:space="preserve" x="-28068" stroke="none" font-size="433.3333" font-family="sans-serif">O</text><text y="-30538" xml:space="preserve" x="-30945" stroke="none" font-size="433.3333" font-family="sans-serif">N</text><text y="-32242" xml:space="preserve" x="-29957" stroke="none" font-size="433.3333" font-family="sans-serif">N</text></g></g></svg>