<svg width="380.37" viewBox="0 0 12679 7218" text-rendering="auto" stroke-width="1" stroke-opacity="1" stroke-miterlimit="10" stroke-linejoin="miter" stroke-linecap="square" stroke-dashoffset="0" stroke-dasharray="none" stroke="black" shape-rendering="auto" image-rendering="auto" height="216.54" font-weight="normal" font-style="normal" font-size="12" font-family="'Dialog'" fill-opacity="1" fill="black" color-rendering="auto" color-interpolation="auto" xmlns="http://www.w3.org/2000/svg"><g><g stroke="white" fill="white"><rect y="0" x="0" width="12679" stroke="none" height="7218"/></g><g transform="translate(32866,32758)" text-rendering="geometricPrecision" stroke-width="44" stroke-linejoin="round" stroke-linecap="round"><line y2="-29654" y1="-29082" x2="-27773" x1="-26791" fill="none"/><line y2="-29654" y1="-29082" x2="-25809" x1="-26791" fill="none"/><line y2="-29082" y1="-28155" x2="-26791" x1="-26791" fill="none"/><line y2="-28966" y1="-28270" x2="-26621" x1="-26621" fill="none"/><line y2="-30581" y1="-29654" x2="-27773" x1="-27773" fill="none"/><line y2="-29082" y1="-29654" x2="-28756" x1="-27773" fill="none"/><line y2="-29302" y1="-29732" x2="-28721" x1="-27984" fill="none"/><line y2="-29082" y1="-29654" x2="-24827" x1="-25809" fill="none"/><line y2="-29007" y1="-29437" x2="-25035" x1="-25771" fill="none"/><line y2="-29654" y1="-30801" x2="-25809" x1="-25809" fill="none"/><line y2="-27825" y1="-27363" x2="-26603" x1="-25809" fill="none"/><line y2="-30801" y1="-30801" x2="-25809" x1="-27586" fill="none"/><line y2="-30911" y1="-31376" x2="-27961" x1="-28756" fill="none"/><line y2="-29654" y1="-29082" x2="-29738" x1="-28756" fill="none"/><line y2="-27935" y1="-29082" x2="-24827" x1="-24827" fill="none"/><line y2="-27935" y1="-27363" x2="-24827" x1="-25809" fill="none"/><line y2="-27363" y1="-26216" x2="-25809" x1="-25809" fill="none"/><line y2="-27219" y1="-26361" x2="-25638" x1="-25638" fill="none"/><line y2="-31376" y1="-30801" x2="-28756" x1="-29738" fill="none"/><line y2="-30801" y1="-29654" x2="-29738" x1="-29738" fill="none"/><line y2="-30659" y1="-29798" x2="-29570" x1="-29570" fill="none"/><line y2="-29082" y1="-29654" x2="-30723" x1="-29738" fill="none"/><line y2="-27363" y1="-27935" x2="-23844" x1="-24827" fill="none"/><line y2="-27288" y1="-27718" x2="-24052" x1="-24789" fill="none"/><line y2="-26216" y1="-25644" x2="-25809" x1="-24827" fill="none"/><line y2="-30801" y1="-31376" x2="-29738" x1="-30723" fill="none"/><line y2="-29654" y1="-29082" x2="-31705" x1="-30723" fill="none"/><line y2="-26216" y1="-27363" x2="-23844" x1="-23844" fill="none"/><line y2="-25644" y1="-26216" x2="-24827" x1="-23844" fill="none"/><line y2="-25861" y1="-26291" x2="-24789" x1="-24052" fill="none"/><line y2="-31376" y1="-30911" x2="-30723" x1="-31514" fill="none"/><line y2="-30581" y1="-29654" x2="-31705" x1="-31705" fill="none"/><line y2="-28033" y1="-29082" x2="-30723" x1="-30723" fill="none"/><line y2="-27510" y1="-28033" x2="-31630" x1="-30723" fill="none"/><line y2="-29605" y1="-29082" x2="-23920" x1="-24827" fill="none"/><line y2="-32202" y1="-31376" x2="-28828" x1="-28828" fill="none"/><line y2="-32202" y1="-31376" x2="-28686" x1="-28686" fill="none"/><line y2="-29180" y1="-29593" x2="-32387" x1="-31670" fill="none"/><line y2="-29302" y1="-29718" x2="-32459" x1="-31740" fill="none"/><line y2="-29192" y1="-29605" x2="-23200" x1="-23920" fill="none"/><line y2="-29122" y1="-29434" x2="-23359" x1="-23899" fill="none"/><line y2="-29498" y1="-29192" x2="-22293" x1="-22825" fill="none"/><line y2="-29082" y1="-29498" x2="-21198" x1="-21918" fill="none"/><line y2="-29605" y1="-29082" x2="-20291" x1="-21198" fill="none"/><line y2="-28175" y1="-29082" x2="-20672" x1="-21198" fill="none"/><line y2="-28175" y1="-29082" x2="-21721" x1="-21198" fill="none"/><line y2="-28836" y1="-28718" x2="-31283" x1="-31214" fill="none"/><line y2="-28924" y1="-28848" x2="-31083" x1="-31039" fill="none"/><line y2="-29011" y1="-28978" x2="-30884" x1="-30864" fill="none"/><text y="-28903" xml:space="preserve" x="-23163" stroke="none" font-size="433.3333" font-family="sans-serif">N</text><text y="-29426" xml:space="preserve" x="-22256" stroke="none" font-size="433.3333" font-family="sans-serif">O</text><text y="-32242" xml:space="preserve" x="-28909" stroke="none" font-size="433.3333" font-family="sans-serif">O</text><text y="-28380" xml:space="preserve" x="-31780" stroke="none" font-size="433.3333" font-family="sans-serif">OH</text><text y="-28952" xml:space="preserve" x="-32762" stroke="none" font-size="433.3333" font-family="sans-serif">O</text><text y="-27756" xml:space="preserve" x="-26944" stroke="none" font-size="433.3333" font-family="sans-serif">N</text><text y="-30622" xml:space="preserve" x="-27926" stroke="none" font-size="433.3333" font-family="sans-serif">N</text><text y="-30622" xml:space="preserve" x="-31855" stroke="none" font-size="433.3333" font-family="sans-serif">O</text><text y="-29608" xml:space="preserve" x="-23495" stroke="none" font-style="italic" font-size="313.3333" font-family="sans-serif">E</text><text y="-28758" xml:space="preserve" x="-30625" stroke="none" font-style="italic" font-size="313.3333" font-family="sans-serif">S</text></g></g></svg>