<svg width="146.13" viewBox="0 0 4871 4410" text-rendering="auto" stroke-width="1" stroke-opacity="1" stroke-miterlimit="10" stroke-linejoin="miter" stroke-linecap="square" stroke-dashoffset="0" stroke-dasharray="none" stroke="black" shape-rendering="auto" image-rendering="auto" height="132.3" font-weight="normal" font-style="normal" font-size="12" font-family="'Dialog'" fill-opacity="1" fill="black" color-rendering="auto" color-interpolation="auto" xmlns="http://www.w3.org/2000/svg"><g><g stroke="white" fill="white"><rect y="0" x="0" width="4871" stroke="none" height="4410"/></g><g transform="translate(32866,32758)" text-rendering="geometricPrecision" stroke-width="44" stroke-linejoin="round" stroke-linecap="round"><line y2="-29050" y1="-30252" x2="-30665" x1="-30665" fill="none"/><line y2="-30252" y1="-30850" x2="-30665" x1="-31702" fill="none"/><line y2="-30180" y1="-30628" x2="-30879" x1="-31656" fill="none"/><line y2="-30850" y1="-30252" x2="-29622" x1="-30665" fill="none"/><line y2="-29050" y1="-29050" x2="-30665" x1="-28773" fill="none"/><line y2="-28452" y1="-29050" x2="-31702" x1="-30665" fill="none"/><line y2="-28672" y1="-29122" x2="-31656" x1="-30879" fill="none"/><line y2="-30850" y1="-30252" x2="-31702" x1="-32742" fill="none"/><line y2="-30359" y1="-30850" x2="-28773" x1="-29622" fill="none"/><line y2="-30275" y1="-30642" x2="-28966" x1="-29602" fill="none"/><line y2="-29270" y1="-30032" x2="-28585" x1="-28585" fill="none"/><line y2="-29050" y1="-28452" x2="-32742" x1="-31702" fill="none"/><line y2="-30252" y1="-29050" x2="-32742" x1="-32742" fill="none"/><line y2="-30102" y1="-29200" x2="-32572" x1="-32572" fill="none"/><line y2="-31679" y1="-30850" x2="-31702" x1="-31702" fill="none"/><line y2="-32254" y1="-31945" x2="-32456" x1="-31925" fill="none"/><line y2="-32375" y1="-32069" x2="-32387" x1="-31855" fill="none"/><line y2="-32375" y1="-32069" x2="-31018" x1="-31549" fill="none"/><line y2="-32254" y1="-31945" x2="-30948" x1="-31480" fill="none"/><text y="-31720" xml:space="preserve" x="-31855" stroke="none" font-size="433.3333" font-family="sans-serif">N</text><text y="-32242" xml:space="preserve" x="-32762" stroke="none" font-size="433.3333" font-family="sans-serif">O</text><text y="-32242" xml:space="preserve" x="-30948" stroke="none" font-size="433.3333" font-family="sans-serif">O</text><text y="-28871" xml:space="preserve" x="-28738" stroke="none" font-size="433.3333" font-family="sans-serif">NH</text><text y="-30073" xml:space="preserve" x="-28738" stroke="none" font-size="433.3333" font-family="sans-serif">N</text></g></g></svg>