<svg width="414.42" viewBox="0 0 13814 7442" text-rendering="auto" stroke-width="1" stroke-opacity="1" stroke-miterlimit="10" stroke-linejoin="miter" stroke-linecap="square" stroke-dashoffset="0" stroke-dasharray="none" stroke="black" shape-rendering="auto" image-rendering="auto" height="223.26" font-weight="normal" font-style="normal" font-size="12" font-family="'Dialog'" fill-opacity="1" fill="black" color-rendering="auto" color-interpolation="auto" xmlns="http://www.w3.org/2000/svg"><g><g stroke="white" fill="white"><rect y="0" x="0" width="13814" stroke="none" height="7442"/></g><g transform="translate(32866,32866)" text-rendering="geometricPrecision" stroke-width="44" stroke-linejoin="round" stroke-linecap="round"><line y2="-30186" y1="-31332" x2="-22934" x1="-22934" fill="none"/><line y2="-31904" y1="-31332" x2="-21952" x1="-22934" fill="none"/><line y2="-31685" y1="-31257" x2="-21990" x1="-22726" fill="none"/><line y2="-31332" y1="-31795" x2="-22934" x1="-23729" fill="none"/><line y2="-30186" y1="-29611" x2="-22934" x1="-21952" fill="none"/><line y2="-30261" y1="-29830" x2="-22726" x1="-21990" fill="none"/><line y2="-29723" y1="-30186" x2="-23729" x1="-22934" fill="none"/><line y2="-31332" y1="-31904" x2="-20970" x1="-21952" fill="none"/><line y2="-31795" y1="-31332" x2="-24107" x1="-24902" fill="none"/><line y2="-29611" y1="-30186" x2="-21952" x1="-20970" fill="none"/><line y2="-30186" y1="-29720" x2="-24902" x1="-24107" fill="none"/><line y2="-30186" y1="-31332" x2="-20970" x1="-20970" fill="none"/><line y2="-30327" y1="-31188" x2="-21140" x1="-21140" fill="none"/><line y2="-31332" y1="-31904" x2="-24902" x1="-25884" fill="none"/><line y2="-29611" y1="-30186" x2="-25884" x1="-24902" fill="none"/><line y2="-31904" y1="-31442" x2="-25884" x1="-26678" fill="none"/><line y2="-30076" y1="-29611" x2="-26678" x1="-25884" fill="none"/><line y2="-31442" y1="-31904" x2="-27054" x1="-27848" fill="none"/><line y2="-29611" y1="-30076" x2="-27848" x1="-27054" fill="none"/><line y2="-31904" y1="-31332" x2="-27848" x1="-28831" fill="none"/><line y2="-30186" y1="-29611" x2="-28831" x1="-27848" fill="none"/><line y2="-31332" y1="-31795" x2="-28831" x1="-29625" fill="none"/><line y2="-29723" y1="-30186" x2="-29625" x1="-28831" fill="none"/><line y2="-31795" y1="-31332" x2="-30001" x1="-30795" fill="none"/><line y2="-30186" y1="-29723" x2="-30795" x1="-30001" fill="none"/><line y2="-30186" y1="-31332" x2="-30795" x1="-30795" fill="none"/><line y2="-31332" y1="-31904" x2="-30795" x1="-31780" fill="none"/><line y2="-31257" y1="-31685" x2="-31006" x1="-31743" fill="none"/><line y2="-29611" y1="-30186" x2="-31780" x1="-30795" fill="none"/><line y2="-29830" y1="-30261" x2="-31743" x1="-31006" fill="none"/><line y2="-31904" y1="-31332" x2="-31780" x1="-32762" fill="none"/><line y2="-30186" y1="-29611" x2="-32762" x1="-31780" fill="none"/><line y2="-31332" y1="-30186" x2="-32762" x1="-32762" fill="none"/><line y2="-31188" y1="-30327" x2="-32592" x1="-32592" fill="none"/><line y2="-31855" y1="-31332" x2="-20063" x1="-20970" fill="none"/><line y2="-31332" y1="-31855" x2="-19156" x1="-20063" fill="none"/><line y2="-32762" y1="-31855" x2="-19540" x1="-20063" fill="none"/><line y2="-32762" y1="-31855" x2="-20589" x1="-20063" fill="none"/><line y2="-25974" y1="-26390" x2="-25546" x1="-26262" fill="none"/><line y2="-26083" y1="-26390" x2="-26791" x1="-26262" fill="none"/><line y2="-27216" y1="-26390" x2="-26262" x1="-26262" fill="none"/><line y2="-26693" y1="-26390" x2="-26791" x1="-26262" fill="none"/><text y="-31725" xml:space="preserve" x="-24070" stroke="none" font-size="433.3333" font-family="sans-serif">O</text><text y="-29432" xml:space="preserve" x="-24070" stroke="none" font-size="433.3333" font-family="sans-serif">O</text><text y="-31153" xml:space="preserve" x="-27019" stroke="none" font-size="433.3333" font-family="sans-serif">O</text><text y="-30006" xml:space="preserve" x="-27019" stroke="none" font-size="433.3333" font-family="sans-serif">O</text><text y="-31725" xml:space="preserve" x="-29966" stroke="none" font-size="433.3333" font-family="sans-serif">O</text><text y="-29432" xml:space="preserve" x="-29966" stroke="none" font-size="433.3333" font-family="sans-serif">O</text><text y="-26733" xml:space="preserve" x="-27323" stroke="none" font-size="433.3333" font-family="sans-serif">D1</text><text y="-25685" xml:space="preserve" x="-25508" stroke="none" font-size="433.3333" font-family="sans-serif">CH</text><text y="-25595" xml:space="preserve" x="-24931" stroke="none" font-size="313.3333" font-family="sans-serif">3</text><text y="-25685" xml:space="preserve" x="-27323" stroke="none" font-size="433.3333" font-family="sans-serif">CH</text><text y="-25595" xml:space="preserve" x="-26745" stroke="none" font-size="313.3333" font-family="sans-serif">3</text><text y="-27256" xml:space="preserve" x="-26416" stroke="none" font-size="433.3333" font-family="sans-serif">CH</text><text y="-27167" xml:space="preserve" x="-25838" stroke="none" font-size="313.3333" font-family="sans-serif">3</text></g></g></svg>