<svg width="985.98" viewBox="0 0 32866 7012" text-rendering="auto" stroke-width="1" stroke-opacity="1" stroke-miterlimit="10" stroke-linejoin="miter" stroke-linecap="square" stroke-dashoffset="0" stroke-dasharray="none" stroke="black" shape-rendering="auto" image-rendering="auto" height="210.36" font-weight="normal" font-style="normal" font-size="12" font-family="'Dialog'" fill-opacity="1" fill="black" color-rendering="auto" color-interpolation="auto" xmlns="http://www.w3.org/2000/svg"><g><g stroke="white" fill="white"><rect y="0" x="0" width="32866" stroke="none" height="7012"/></g><g transform="translate(32866,32758)" text-rendering="geometricPrecision" stroke-width="44" stroke-linejoin="round" stroke-linecap="round"><line y2="-29278" y1="-29804" x2="-12806" x1="-13713" fill="none"/><line y2="-29804" y1="-29278" x2="-11896" x1="-12806" fill="none"/><line y2="-29388" y1="-29804" x2="-11180" x1="-11896" fill="none"/><line y2="-29804" y1="-29388" x2="-10082" x1="-10801" fill="none"/><line y2="-29278" y1="-29804" x2="-9175" x1="-10082" fill="none"/><line y2="-29804" y1="-29278" x2="-8268" x1="-9175" fill="none"/><line y2="-29278" y1="-29804" x2="-7360" x1="-8268" fill="none"/><line y2="-29804" y1="-29278" x2="-6453" x1="-7360" fill="none"/><line y2="-29278" y1="-29804" x2="-5546" x1="-6453" fill="none"/><line y2="-29804" y1="-29278" x2="-4639" x1="-5546" fill="none"/><line y2="-29278" y1="-29804" x2="-3732" x1="-4639" fill="none"/><line y2="-29804" y1="-29278" x2="-2825" x1="-3732" fill="none"/><line y2="-29278" y1="-29804" x2="-1918" x1="-2825" fill="none"/><line y2="-29804" y1="-29278" x2="-1011" x1="-1918" fill="none"/><line y2="-29278" y1="-29804" x2="-104" x1="-1011" fill="none"/><line y2="-29388" y1="-29804" x2="-14430" x1="-13713" fill="none"/><line y2="-29804" y1="-29388" x2="-15527" x1="-14808" fill="none"/><line y2="-29278" y1="-29804" x2="-16434" x1="-15527" fill="none"/><line y2="-30630" y1="-29804" x2="-13782" x1="-13782" fill="none"/><line y2="-30630" y1="-29804" x2="-13641" x1="-13641" fill="none"/><line y2="-29804" y1="-29278" x2="-17339" x1="-16434" fill="none"/><line y2="-30630" y1="-29804" x2="-17339" x1="-17339" fill="none"/><line y2="-31376" y1="-30960" x2="-18246" x1="-17526" fill="none"/><line y2="-28233" y1="-29278" x2="-16434" x1="-16434" fill="none"/><line y2="-27805" y1="-28233" x2="-15724" x1="-16434" fill="none"/><line y2="-26644" y1="-27473" x2="-15536" x1="-15536" fill="none"/><line y2="-28756" y1="-29278" x2="-17342" x1="-16434" fill="none"/><line y2="-29172" y1="-28756" x2="-18061" x1="-17342" fill="none"/><line y2="-28756" y1="-29172" x2="-19156" x1="-18436" fill="none"/><line y2="-30850" y1="-31376" x2="-19153" x1="-18246" fill="none"/><line y2="-31376" y1="-30850" x2="-20060" x1="-19153" fill="none"/><line y2="-30960" y1="-31376" x2="-20779" x1="-20060" fill="none"/><line y2="-31376" y1="-30960" x2="-21874" x1="-21158" fill="none"/><line y2="-30850" y1="-31376" x2="-22784" x1="-21874" fill="none"/><line y2="-31376" y1="-30850" x2="-23691" x1="-22784" fill="none"/><line y2="-30850" y1="-31376" x2="-24598" x1="-23691" fill="none"/><line y2="-31376" y1="-30850" x2="-25506" x1="-24598" fill="none"/><line y2="-30850" y1="-31376" x2="-26413" x1="-25506" fill="none"/><line y2="-31376" y1="-30850" x2="-27320" x1="-26413" fill="none"/><line y2="-30850" y1="-31376" x2="-28227" x1="-27320" fill="none"/><line y2="-31376" y1="-30850" x2="-29134" x1="-28227" fill="none"/><line y2="-30850" y1="-31376" x2="-30041" x1="-29134" fill="none"/><line y2="-31376" y1="-30850" x2="-30948" x1="-30041" fill="none"/><line y2="-30850" y1="-31376" x2="-31855" x1="-30948" fill="none"/><line y2="-32202" y1="-31376" x2="-18318" x1="-18318" fill="none"/><line y2="-32202" y1="-31376" x2="-18176" x1="-18176" fill="none"/><line y2="-26121" y1="-26644" x2="-14626" x1="-15536" fill="none"/><line y2="-26644" y1="-26121" x2="-13719" x1="-14626" fill="none"/><line y2="-26228" y1="-26644" x2="-13000" x1="-13719" fill="none"/><line y2="-26644" y1="-26228" x2="-11905" x1="-12624" fill="none"/><line y2="-26121" y1="-26644" x2="-10998" x1="-11905" fill="none"/><line y2="-26644" y1="-26121" x2="-10090" x1="-10998" fill="none"/><line y2="-26121" y1="-26644" x2="-9183" x1="-10090" fill="none"/><line y2="-26644" y1="-26121" x2="-8276" x1="-9183" fill="none"/><line y2="-26121" y1="-26644" x2="-7369" x1="-8276" fill="none"/><line y2="-26644" y1="-26121" x2="-6462" x1="-7369" fill="none"/><line y2="-26121" y1="-26644" x2="-5555" x1="-6462" fill="none"/><line y2="-26644" y1="-26121" x2="-4648" x1="-5555" fill="none"/><line y2="-26121" y1="-26644" x2="-3741" x1="-4648" fill="none"/><line y2="-26644" y1="-26121" x2="-2834" x1="-3741" fill="none"/><line y2="-26121" y1="-26644" x2="-1926" x1="-2834" fill="none"/><line y2="-26167" y1="-26583" x2="-16221" x1="-15501" fill="none"/><line y2="-26288" y1="-26704" x2="-16290" x1="-15571" fill="none"/><line y2="-29278" y1="-28756" x2="-20063" x1="-19156" fill="none"/><line y2="-28756" y1="-29278" x2="-20970" x1="-20063" fill="none"/><line y2="-29172" y1="-28756" x2="-21689" x1="-20970" fill="none"/><line y2="-28756" y1="-29172" x2="-22784" x1="-22065" fill="none"/><line y2="-29278" y1="-28756" x2="-23691" x1="-22784" fill="none"/><line y2="-28756" y1="-29278" x2="-24598" x1="-23691" fill="none"/><line y2="-29278" y1="-28756" x2="-25506" x1="-24598" fill="none"/><line y2="-28756" y1="-29278" x2="-26413" x1="-25506" fill="none"/><line y2="-29278" y1="-28756" x2="-27320" x1="-26413" fill="none"/><line y2="-28756" y1="-29278" x2="-28227" x1="-27320" fill="none"/><line y2="-29278" y1="-28756" x2="-29134" x1="-28227" fill="none"/><line y2="-28756" y1="-29278" x2="-30041" x1="-29134" fill="none"/><line y2="-29278" y1="-28756" x2="-30948" x1="-30041" fill="none"/><line y2="-28756" y1="-29278" x2="-31855" x1="-30948" fill="none"/><line y2="-29278" y1="-28756" x2="-32762" x1="-31855" fill="none"/><line y2="-27926" y1="-28756" x2="-19086" x1="-19086" fill="none"/><line y2="-27926" y1="-28756" x2="-19225" x1="-19225" fill="none"/><text y="-29099" xml:space="preserve" x="-14770" stroke="none" font-size="433.3333" font-family="sans-serif">O</text><text y="-30671" xml:space="preserve" x="-17492" stroke="none" font-size="433.3333" font-family="sans-serif">O</text><text y="-27513" xml:space="preserve" x="-15686" stroke="none" font-size="433.3333" font-family="sans-serif">O</text><text y="-29099" xml:space="preserve" x="-18399" stroke="none" font-size="433.3333" font-family="sans-serif">O</text><text y="-30671" xml:space="preserve" x="-13863" stroke="none" font-size="433.3333" font-family="sans-serif">O</text><text y="-32242" xml:space="preserve" x="-18399" stroke="none" font-size="433.3333" font-family="sans-serif">O</text><text y="-25942" xml:space="preserve" x="-16593" stroke="none" font-size="433.3333" font-family="sans-serif">O</text><text y="-27528" xml:space="preserve" x="-19306" stroke="none" font-size="433.3333" font-family="sans-serif">O</text><text y="-29099" xml:space="preserve" x="-11142" stroke="none" font-size="433.3333" font-family="sans-serif">S</text><text y="-30671" xml:space="preserve" x="-21120" stroke="none" font-size="433.3333" font-family="sans-serif">S</text><text y="-25942" xml:space="preserve" x="-12965" stroke="none" font-size="433.3333" font-family="sans-serif">S</text><text y="-29099" xml:space="preserve" x="-22030" stroke="none" font-size="433.3333" font-family="sans-serif">S</text></g></g></svg>