<svg width="159.87" viewBox="0 0 5329 4116" text-rendering="auto" stroke-width="1" stroke-opacity="1" stroke-miterlimit="10" stroke-linejoin="miter" stroke-linecap="square" stroke-dashoffset="0" stroke-dasharray="none" stroke="black" shape-rendering="auto" image-rendering="auto" height="123.48" font-weight="normal" font-style="normal" font-size="12" font-family="'Dialog'" fill-opacity="1" fill="black" color-rendering="auto" color-interpolation="auto" xmlns="http://www.w3.org/2000/svg"><g><g stroke="white" fill="white"><rect y="0" x="0" width="5329" stroke="none" height="4116"/></g><g transform="translate(32866,32866)" text-rendering="geometricPrecision" stroke-width="44" stroke-linejoin="round" stroke-linecap="round"><line y2="-29570" y1="-31000" x2="-30287" x1="-30287" fill="none"/><line y2="-31000" y1="-31714" x2="-30287" x1="-31523" fill="none"/><line y2="-30942" y1="-31477" x2="-30526" x1="-31454" fill="none"/><line y2="-31607" y1="-31000" x2="-29232" x1="-30287" fill="none"/><line y2="-28854" y1="-29570" x2="-31523" x1="-30287" fill="none"/><line y2="-29091" y1="-29628" x2="-31454" x1="-30526" fill="none"/><line y2="-29570" y1="-29570" x2="-30287" x1="-27996" fill="none"/><line y2="-31714" y1="-31000" x2="-31523" x1="-32762" fill="none"/><line y2="-31107" y1="-31494" x2="-27996" x1="-28666" fill="none"/><line y2="-29570" y1="-28854" x2="-32762" x1="-31523" fill="none"/><line y2="-29790" y1="-30781" x2="-27808" x1="-27808" fill="none"/><line y2="-29914" y1="-30656" x2="-27978" x1="-27978" fill="none"/><line y2="-31000" y1="-29570" x2="-32762" x1="-32762" fill="none"/><line y2="-30821" y1="-29749" x2="-32592" x1="-32592" fill="none"/><line y2="-32762" y1="-31714" x2="-31523" x1="-31523" fill="none"/><text y="-31535" xml:space="preserve" x="-29198" stroke="none" font-size="433.3333" font-family="sans-serif">NH</text><text y="-29391" xml:space="preserve" x="-27961" stroke="none" font-size="433.3333" font-family="sans-serif">N</text><text y="-30821" xml:space="preserve" x="-27961" stroke="none" font-size="433.3333" font-family="sans-serif">N</text></g></g></svg>