<svg width="412.59" viewBox="0 0 13753 5909" text-rendering="auto" stroke-width="1" stroke-opacity="1" stroke-miterlimit="10" stroke-linejoin="miter" stroke-linecap="square" stroke-dashoffset="0" stroke-dasharray="none" stroke="black" shape-rendering="auto" image-rendering="auto" height="177.27" font-weight="normal" font-style="normal" font-size="12" font-family="'Dialog'" fill-opacity="1" fill="black" color-rendering="auto" color-interpolation="auto" xmlns="http://www.w3.org/2000/svg"><g><g stroke="white" fill="white"><rect y="0" x="0" width="13753" stroke="none" height="5909"/></g><g transform="translate(32866,32758)" text-rendering="geometricPrecision" stroke-width="44" stroke-linejoin="round" stroke-linecap="round"><line y2="-29668" y1="-29668" x2="-30639" x1="-28857" fill="none"/><line y2="-29888" y1="-30807" x2="-28669" x1="-28669" fill="none"/><line y2="-30807" y1="-29668" x2="-30639" x1="-30639" fill="none"/><line y2="-29209" y1="-29668" x2="-31434" x1="-30639" fill="none"/><line y2="-29411" y1="-29758" x2="-31419" x1="-30824" fill="none"/><line y2="-30807" y1="-31266" x2="-28669" x1="-29463" fill="none"/><line y2="-30717" y1="-31061" x2="-28851" x1="-29449" fill="none"/><line y2="-31266" y1="-30807" x2="-29839" x1="-30639" fill="none"/><line y2="-30807" y1="-31376" x2="-30639" x1="-31621" fill="none"/><line y2="-30729" y1="-31156" x2="-30847" x1="-31584" fill="none"/><line y2="-29668" y1="-29209" x2="-32609" x1="-31809" fill="none"/><line y2="-31376" y1="-30914" x2="-31621" x1="-32422" fill="none"/><line y2="-30587" y1="-29668" x2="-32609" x1="-32609" fill="none"/><line y2="-30472" y1="-29784" x2="-32439" x1="-32439" fill="none"/><line y2="-32202" y1="-31376" x2="-31621" x1="-31621" fill="none"/><line y2="-29703" y1="-29146" x2="-27005" x1="-27762" fill="none"/><line y2="-29146" y1="-28080" x2="-27762" x1="-27432" fill="none"/><line y2="-29146" y1="-29694" x2="-25919" x1="-26629" fill="none"/><line y2="-28080" y1="-28080" x2="-27432" x1="-26286" fill="none"/><line y2="-28080" y1="-29146" x2="-26286" x1="-25919" fill="none"/><line y2="-29252" y1="-29668" x2="-24292" x1="-25012" fill="none"/><line y2="-29668" y1="-29252" x2="-23197" x1="-23917" fill="none"/><line y2="-29146" y1="-29668" x2="-22290" x1="-23197" fill="none"/><line y2="-29668" y1="-29146" x2="-21383" x1="-22290" fill="none"/><line y2="-28316" y1="-28926" x2="-24104" x1="-24104" fill="none"/><line y2="-29146" y1="-29668" x2="-20476" x1="-21383" fill="none"/><line y2="-29562" y1="-29146" x2="-19757" x1="-20476" fill="none"/><line y2="-28316" y1="-29146" x2="-20404" x1="-20404" fill="none"/><line y2="-28316" y1="-29146" x2="-20545" x1="-20545" fill="none"/><polygon stroke-width="1" stroke="none" points=" -27432 -28080 -27831 -27412 -27947 -27493"/><polygon stroke-width="1" points=" -27432 -28080 -27831 -27412 -27947 -27493" fill="none"/><polygon stroke-width="1" stroke="none" points=" -26286 -28080 -25783 -27482 -25896 -27401"/><polygon stroke-width="1" points=" -26286 -28080 -25783 -27482 -25896 -27401" fill="none"/><line y2="-29619" y1="-29501" x2="-28446" x1="-28513" fill="none"/><line y2="-29495" y1="-29408" x2="-28267" x1="-28317" fill="none"/><line y2="-29372" y1="-29315" x2="-28088" x1="-28120" fill="none"/><line y2="-29248" y1="-29222" x2="-27909" x1="-27924" fill="none"/><line y2="-29608" y1="-29729" x2="-24977" x1="-25046" fill="none"/><line y2="-29512" y1="-29608" x2="-25172" x1="-25227" fill="none"/><line y2="-29417" y1="-29488" x2="-25367" x1="-25407" fill="none"/><line y2="-29321" y1="-29367" x2="-25562" x1="-25588" fill="none"/><line y2="-29226" y1="-29246" x2="-25757" x1="-25769" fill="none"/><line y2="-30498" y1="-30498" x2="-21314" x1="-21452" fill="none"/><line y2="-30281" y1="-30281" x2="-21332" x1="-21434" fill="none"/><line y2="-30065" y1="-30065" x2="-21350" x1="-21416" fill="none"/><line y2="-29848" y1="-29848" x2="-21368" x1="-21398" fill="none"/><text y="-27054" xml:space="preserve" x="-28201" stroke="none" font-size="433.3333" font-family="sans-serif">OH</text><text y="-32242" xml:space="preserve" x="-31774" stroke="none" font-size="433.3333" font-family="sans-serif">NH</text><text y="-32153" xml:space="preserve" x="-31197" stroke="none" font-size="313.3333" font-family="sans-serif">2</text><text y="-28966" xml:space="preserve" x="-24255" stroke="none" font-size="433.3333" font-family="sans-serif">S</text><text y="-27918" xml:space="preserve" x="-24255" stroke="none" font-size="433.3333" font-family="sans-serif">CH</text><text y="-27828" xml:space="preserve" x="-23677" stroke="none" font-size="313.3333" font-family="sans-serif">3</text><text y="-30538" xml:space="preserve" x="-21533" stroke="none" font-size="433.3333" font-family="sans-serif">NH</text><text y="-30448" xml:space="preserve" x="-20956" stroke="none" font-size="313.3333" font-family="sans-serif">2</text><text y="-29489" xml:space="preserve" x="-19719" stroke="none" font-size="433.3333" font-family="sans-serif">O</text><text y="-27918" xml:space="preserve" x="-20626" stroke="none" font-size="433.3333" font-family="sans-serif">O</text><text y="-27045" xml:space="preserve" x="-25838" stroke="none" font-size="433.3333" font-family="sans-serif">OH</text><text y="-29489" xml:space="preserve" x="-28819" stroke="none" font-size="433.3333" font-family="sans-serif">N</text><text y="-28920" xml:space="preserve" x="-31774" stroke="none" font-size="433.3333" font-family="sans-serif">N</text><text y="-31197" xml:space="preserve" x="-29804" stroke="none" font-size="433.3333" font-family="sans-serif">N</text><text y="-30628" xml:space="preserve" x="-32762" stroke="none" font-size="433.3333" font-family="sans-serif">N</text><text y="-29663" xml:space="preserve" x="-26970" stroke="none" font-size="433.3333" font-family="sans-serif">O</text><text y="-29351" xml:space="preserve" x="-24255" stroke="none" font-size="313.3333" font-family="sans-serif">+</text><text y="-29544" xml:space="preserve" x="-19398" stroke="none" font-size="313.3333" font-family="sans-serif">-</text><text y="-29189" xml:space="preserve" x="-21533" stroke="none" font-style="italic" font-size="313.3333" font-family="sans-serif">S</text><text y="-28891" xml:space="preserve" x="-27635" stroke="none" font-style="italic" font-size="313.3333" font-family="sans-serif">R</text><text y="-28189" xml:space="preserve" x="-27352" stroke="none" font-style="italic" font-size="313.3333" font-family="sans-serif">R</text><text y="-28868" xml:space="preserve" x="-26340" stroke="none" font-style="italic" font-size="313.3333" font-family="sans-serif">S</text><text y="-28189" xml:space="preserve" x="-26673" stroke="none" font-style="italic" font-size="313.3333" font-family="sans-serif">S</text></g></g></svg>