<svg width="195.12" viewBox="0 0 6504 3778" text-rendering="auto" stroke-width="1" stroke-opacity="1" stroke-miterlimit="10" stroke-linejoin="miter" stroke-linecap="square" stroke-dashoffset="0" stroke-dasharray="none" stroke="black" shape-rendering="auto" image-rendering="auto" height="113.34" font-weight="normal" font-style="normal" font-size="12" font-family="'Dialog'" fill-opacity="1" fill="black" color-rendering="auto" color-interpolation="auto" xmlns="http://www.w3.org/2000/svg"><g><g stroke="white" fill="white"><rect y="0" x="0" width="6504" stroke="none" height="3778"/></g><g transform="translate(32866,32758)" text-rendering="geometricPrecision" stroke-width="44" stroke-linejoin="round" stroke-linecap="round"><line y2="-30992" y1="-31514" x2="-30717" x1="-31624" fill="none"/><line y2="-31188" y1="-31514" x2="-32190" x1="-31624" fill="none"/><line y2="-32202" y1="-31514" x2="-31228" x1="-31624" fill="none"/><line y2="-32202" y1="-31514" x2="-32023" x1="-31624" fill="none"/><line y2="-31408" y1="-30992" x2="-29998" x1="-30717" fill="none"/><line y2="-31098" y1="-31408" x2="-29091" x1="-29622" fill="none"/><line y2="-30162" y1="-30992" x2="-30717" x1="-30717" fill="none"/><line y2="-31408" y1="-31098" x2="-28184" x1="-28715" fill="none"/><line y2="-31098" y1="-31408" x2="-27276" x1="-27808" fill="none"/><line y2="-30162" y1="-30772" x2="-28903" x1="-28903" fill="none"/><line y2="-29527" y1="-29836" x2="-28184" x1="-28715" fill="none"/><line y2="-30636" y1="-30945" x2="-28149" x1="-28680" fill="none"/><line y2="-30515" y1="-30821" x2="-28218" x1="-28750" fill="none"/><text y="-31335" xml:space="preserve" x="-29963" stroke="none" font-size="433.3333" font-family="sans-serif">O</text><text y="-30812" xml:space="preserve" x="-29056" stroke="none" font-size="433.3333" font-family="sans-serif">P</text><text y="-31335" xml:space="preserve" x="-28149" stroke="none" font-size="433.3333" font-family="sans-serif">O</text><text y="-29764" xml:space="preserve" x="-29056" stroke="none" font-size="433.3333" font-family="sans-serif">O</text><text y="-30290" xml:space="preserve" x="-28149" stroke="none" font-size="433.3333" font-family="sans-serif">O</text><text y="-29764" xml:space="preserve" x="-30948" stroke="none" font-size="433.3333" font-family="sans-serif">Br</text><text y="-30812" xml:space="preserve" x="-27242" stroke="none" font-size="433.3333" font-family="sans-serif">CH</text><text y="-30723" xml:space="preserve" x="-26664" stroke="none" font-size="313.3333" font-family="sans-serif">3</text><text y="-29241" xml:space="preserve" x="-28149" stroke="none" font-size="433.3333" font-family="sans-serif">CH</text><text y="-29151" xml:space="preserve" x="-27571" stroke="none" font-size="313.3333" font-family="sans-serif">3</text><text y="-30812" xml:space="preserve" x="-32762" stroke="none" font-size="433.3333" font-family="sans-serif">Br</text><text y="-32242" xml:space="preserve" x="-31332" stroke="none" font-size="433.3333" font-family="sans-serif">Cl</text><text y="-32242" xml:space="preserve" x="-32381" stroke="none" font-size="433.3333" font-family="sans-serif">Cl</text></g></g></svg>