<svg width="251.16" viewBox="0 0 8372 4900" text-rendering="auto" stroke-width="1" stroke-opacity="1" stroke-miterlimit="10" stroke-linejoin="miter" stroke-linecap="square" stroke-dashoffset="0" stroke-dasharray="none" stroke="black" shape-rendering="auto" image-rendering="auto" height="147.0" font-weight="normal" font-style="normal" font-size="12" font-family="'Dialog'" fill-opacity="1" fill="black" color-rendering="auto" color-interpolation="auto" xmlns="http://www.w3.org/2000/svg"><g><g stroke="white" fill="white"><rect y="0" x="0" width="8372" stroke="none" height="4900"/></g><g transform="translate(32866,32758)" text-rendering="geometricPrecision" stroke-width="44" stroke-linejoin="round" stroke-linecap="round"><line y2="-29278" y1="-29804" x2="-29134" x1="-28227" fill="none"/><line y2="-29694" y1="-29278" x2="-29853" x1="-29134" fill="none"/><line y2="-29388" y1="-29694" x2="-30760" x1="-30229" fill="none"/><line y2="-29804" y1="-29388" x2="-31855" x1="-31136" fill="none"/><line y2="-29278" y1="-29804" x2="-27320" x1="-28227" fill="none"/><line y2="-31376" y1="-31070" x2="-27320" x1="-27848" fill="none"/><line y2="-29278" y1="-29804" x2="-32762" x1="-31855" fill="none"/><line y2="-30711" y1="-29804" x2="-32381" x1="-31855" fill="none"/><line y2="-30711" y1="-29804" x2="-31332" x1="-31855" fill="none"/><line y2="-29694" y1="-29278" x2="-26600" x1="-27320" fill="none"/><line y2="-28452" y1="-29278" x2="-27250" x1="-27250" fill="none"/><line y2="-28452" y1="-29278" x2="-27389" x1="-27389" fill="none"/><line y2="-30960" y1="-31376" x2="-26600" x1="-27320" fill="none"/><line y2="-31376" y1="-30960" x2="-25506" x1="-26225" fill="none"/><line y2="-32202" y1="-31376" x2="-27389" x1="-27389" fill="none"/><line y2="-32202" y1="-31376" x2="-27250" x1="-27250" fill="none"/><line y2="-30850" y1="-31376" x2="-24598" x1="-25506" fill="none"/><line y2="-32283" y1="-31376" x2="-24983" x1="-25506" fill="none"/><line y2="-32283" y1="-31376" x2="-26028" x1="-25506" fill="none"/><line y2="-30630" y1="-30630" x2="-28158" x1="-28296" fill="none"/><line y2="-30413" y1="-30413" x2="-28176" x1="-28278" fill="none"/><line y2="-30197" y1="-30197" x2="-28194" x1="-28260" fill="none"/><line y2="-29980" y1="-29980" x2="-28212" x1="-28242" fill="none"/><text y="-30671" xml:space="preserve" x="-28380" stroke="none" font-size="433.3333" font-family="sans-serif">NH</text><text y="-29625" xml:space="preserve" x="-30194" stroke="none" font-size="433.3333" font-family="sans-serif">S</text><text y="-29625" xml:space="preserve" x="-26566" stroke="none" font-size="433.3333" font-family="sans-serif">OH</text><text y="-28054" xml:space="preserve" x="-27473" stroke="none" font-size="433.3333" font-family="sans-serif">O</text><text y="-30671" xml:space="preserve" x="-26566" stroke="none" font-size="433.3333" font-family="sans-serif">O</text><text y="-32242" xml:space="preserve" x="-27473" stroke="none" font-size="433.3333" font-family="sans-serif">O</text><text y="-29099" xml:space="preserve" x="-31101" stroke="none" font-size="433.3333" font-family="sans-serif">S</text><text y="-29322" xml:space="preserve" x="-28380" stroke="none" font-style="italic" font-size="313.3333" font-family="sans-serif">R</text></g></g></svg>