<svg width="189.93" viewBox="0 0 6331 3346" text-rendering="auto" stroke-width="1" stroke-opacity="1" stroke-miterlimit="10" stroke-linejoin="miter" stroke-linecap="square" stroke-dashoffset="0" stroke-dasharray="none" stroke="black" shape-rendering="auto" image-rendering="auto" height="100.38" font-weight="normal" font-style="normal" font-size="12" font-family="'Dialog'" fill-opacity="1" fill="black" color-rendering="auto" color-interpolation="auto" xmlns="http://www.w3.org/2000/svg"><g><g stroke="white" fill="white"><rect y="0" x="0" width="6331" stroke="none" height="3346"/></g><g transform="translate(32866,32758)" text-rendering="geometricPrecision" stroke-width="44" stroke-linejoin="round" stroke-linecap="round"><line y2="-30850" y1="-31327" x2="-28955" x1="-29570" fill="none"/><line y2="-29787" y1="-30850" x2="-29322" x1="-28955" fill="none"/><line y2="-31408" y1="-30850" x2="-30044" x1="-30798" fill="none"/><line y2="-29787" y1="-29787" x2="-30281" x1="-29322" fill="none"/><line y2="-30850" y1="-30006" x2="-30798" x1="-30538" fill="none"/><line y2="-31376" y1="-30850" x2="-28048" x1="-28955" fill="none"/><line y2="-31376" y1="-30850" x2="-31705" x1="-30798" fill="none"/><line y2="-30960" y1="-31376" x2="-27328" x1="-28048" fill="none"/><line y2="-32202" y1="-31376" x2="-28117" x1="-28117" fill="none"/><line y2="-32202" y1="-31376" x2="-27978" x1="-27978" fill="none"/><line y2="-31070" y1="-31376" x2="-32231" x1="-31705" fill="none"/><line y2="-32202" y1="-31376" x2="-31774" x1="-31774" fill="none"/><line y2="-32202" y1="-31376" x2="-31636" x1="-31636" fill="none"/><text y="-30671" xml:space="preserve" x="-27294" stroke="none" font-size="433.3333" font-family="sans-serif">OH</text><text y="-32242" xml:space="preserve" x="-28201" stroke="none" font-size="433.3333" font-family="sans-serif">O</text><text y="-30671" xml:space="preserve" x="-32762" stroke="none" font-size="433.3333" font-family="sans-serif">OH</text><text y="-32242" xml:space="preserve" x="-31855" stroke="none" font-size="433.3333" font-family="sans-serif">O</text><text y="-31367" xml:space="preserve" x="-30006" stroke="none" font-size="433.3333" font-family="sans-serif">NH</text><text y="-29608" xml:space="preserve" x="-30622" stroke="none" font-size="433.3333" font-family="sans-serif">S</text></g></g></svg>