<svg width="172.59" viewBox="0 0 5753 5605" text-rendering="auto" stroke-width="1" stroke-opacity="1" stroke-miterlimit="10" stroke-linejoin="miter" stroke-linecap="square" stroke-dashoffset="0" stroke-dasharray="none" stroke="black" shape-rendering="auto" image-rendering="auto" height="168.15" font-weight="normal" font-style="normal" font-size="12" font-family="'Dialog'" fill-opacity="1" fill="black" color-rendering="auto" color-interpolation="auto" xmlns="http://www.w3.org/2000/svg"><g><g stroke="white" fill="white"><rect y="0" x="0" width="5753" stroke="none" height="5605"/></g><g transform="translate(32866,32758)" text-rendering="geometricPrecision" stroke-width="44" stroke-linejoin="round" stroke-linecap="round"><line y2="-30281" y1="-30850" x2="-29533" x1="-30515" fill="none"/><line y2="-30206" y1="-30633" x2="-29741" x1="-30477" fill="none"/><line y2="-29146" y1="-30281" x2="-29533" x1="-29533" fill="none"/><line y2="-30850" y1="-30281" x2="-30515" x1="-31503" fill="none"/><line y2="-28576" y1="-29146" x2="-30515" x1="-29533" fill="none"/><line y2="-28793" y1="-29221" x2="-30477" x1="-29741" fill="none"/><line y2="-30281" y1="-29146" x2="-31503" x1="-31503" fill="none"/><line y2="-30139" y1="-29287" x2="-31332" x1="-31332" fill="none"/><line y2="-29146" y1="-28576" x2="-31503" x1="-30515" fill="none"/><line y2="-30807" y1="-30281" x2="-28626" x1="-29533" fill="none"/><line y2="-27747" y1="-28576" x2="-30515" x1="-30515" fill="none"/><line y2="-27528" y1="-27528" x2="-31376" x1="-30703" fill="none"/><line y2="-31679" y1="-30850" x2="-30515" x1="-30515" fill="none"/><line y2="-30391" y1="-30807" x2="-27906" x1="-28626" fill="none"/><line y2="-31636" y1="-30807" x2="-28695" x1="-28695" fill="none"/><line y2="-31636" y1="-30807" x2="-28556" x1="-28556" fill="none"/><line y2="-27528" y1="-27528" x2="-32424" x1="-31751" fill="none"/><line y2="-27438" y1="-27438" x2="-32424" x1="-31751" fill="none"/><line y2="-27617" y1="-27617" x2="-32424" x1="-31751" fill="none"/><line y2="-32254" y1="-31945" x2="-31269" x1="-30737" fill="none"/><line y2="-32375" y1="-32069" x2="-31200" x1="-30668" fill="none"/><line y2="-32375" y1="-32069" x2="-29830" x1="-30362" fill="none"/><line y2="-32254" y1="-31945" x2="-29761" x1="-30292" fill="none"/><text y="-30102" xml:space="preserve" x="-27872" stroke="none" font-size="433.3333" font-family="sans-serif">OH</text><text y="-31676" xml:space="preserve" x="-28779" stroke="none" font-size="433.3333" font-family="sans-serif">O</text><text y="-31720" xml:space="preserve" x="-30668" stroke="none" font-size="433.3333" font-family="sans-serif">N</text><text y="-32242" xml:space="preserve" x="-31575" stroke="none" font-size="433.3333" font-family="sans-serif">O</text><text y="-32242" xml:space="preserve" x="-29761" stroke="none" font-size="433.3333" font-family="sans-serif">O</text><text y="-27349" xml:space="preserve" x="-30668" stroke="none" font-size="433.3333" font-family="sans-serif">S</text><text y="-27349" xml:space="preserve" x="-31717" stroke="none" font-size="433.3333" font-family="sans-serif">C</text><text y="-27349" xml:space="preserve" x="-32762" stroke="none" font-size="433.3333" font-family="sans-serif">N</text></g></g></svg>