<svg width="249.99" viewBox="0 0 8333 2400" text-rendering="auto" stroke-width="1" stroke-opacity="1" stroke-miterlimit="10" stroke-linejoin="miter" stroke-linecap="square" stroke-dashoffset="0" stroke-dasharray="none" stroke="black" shape-rendering="auto" image-rendering="auto" height="72.0" font-weight="normal" font-style="normal" font-size="12" font-family="'Dialog'" fill-opacity="1" fill="black" color-rendering="auto" color-interpolation="auto" xmlns="http://www.w3.org/2000/svg"><g><g stroke="white" fill="white"><rect y="0" x="0" width="8333" stroke="none" height="2400"/></g><g transform="translate(32866,32758)" text-rendering="geometricPrecision" stroke-width="44" stroke-linejoin="round" stroke-linecap="round"><line y2="-30850" y1="-31266" x2="-30706" x1="-31425" fill="none"/><line y2="-31376" y1="-30850" x2="-29798" x1="-30706" fill="none"/><line y2="-30960" y1="-31376" x2="-29079" x1="-29798" fill="none"/><line y2="-31376" y1="-30960" x2="-27984" x1="-28704" fill="none"/><line y2="-30850" y1="-31376" x2="-27077" x1="-27984" fill="none"/><line y2="-31266" y1="-30850" x2="-26358" x1="-27077" fill="none"/><line y2="-31018" y1="-31266" x2="-32231" x1="-31800" fill="none"/><line y2="-32202" y1="-31595" x2="-31613" x1="-31613" fill="none"/><line y2="-30960" y1="-31266" x2="-25451" x1="-25979" fill="none"/><line y2="-32202" y1="-31595" x2="-26170" x1="-26170" fill="none"/><text y="-30671" xml:space="preserve" x="-29042" stroke="none" font-size="433.3333" font-family="sans-serif">O</text><text y="-31197" xml:space="preserve" x="-26320" stroke="none" font-size="433.3333" font-family="sans-serif">N</text><text y="-30671" xml:space="preserve" x="-25413" stroke="none" font-size="433.3333" font-family="sans-serif">CH</text><text y="-30581" xml:space="preserve" x="-24835" stroke="none" font-size="313.3333" font-family="sans-serif">3</text><text y="-32242" xml:space="preserve" x="-26320" stroke="none" font-size="433.3333" font-family="sans-serif">CH</text><text y="-32153" xml:space="preserve" x="-25742" stroke="none" font-size="313.3333" font-family="sans-serif">3</text><text y="-31197" xml:space="preserve" x="-31763" stroke="none" font-size="433.3333" font-family="sans-serif">N</text><text y="-30619" xml:space="preserve" x="-32762" stroke="none" font-size="433.3333" font-family="sans-serif">CH</text><text y="-30529" xml:space="preserve" x="-32185" stroke="none" font-size="313.3333" font-family="sans-serif">3</text><text y="-32242" xml:space="preserve" x="-31763" stroke="none" font-size="433.3333" font-family="sans-serif">CH</text><text y="-32153" xml:space="preserve" x="-31185" stroke="none" font-size="313.3333" font-family="sans-serif">3</text></g></g></svg>