<svg width="254.04" viewBox="0 0 8468 5967" text-rendering="auto" stroke-width="1" stroke-opacity="1" stroke-miterlimit="10" stroke-linejoin="miter" stroke-linecap="square" stroke-dashoffset="0" stroke-dasharray="none" stroke="black" shape-rendering="auto" image-rendering="auto" height="179.01" font-weight="normal" font-style="normal" font-size="12" font-family="'Dialog'" fill-opacity="1" fill="black" color-rendering="auto" color-interpolation="auto" xmlns="http://www.w3.org/2000/svg"><g><g stroke="white" fill="white"><rect y="0" x="0" width="8468" stroke="none" height="5967"/></g><g transform="translate(32866,32758)" text-rendering="geometricPrecision" stroke-width="44" stroke-linejoin="round" stroke-linecap="round"><line y2="-29186" y1="-28614" x2="-29816" x1="-30798" fill="none"/><line y2="-27467" y1="-28614" x2="-30798" x1="-30798" fill="none"/><line y2="-27612" y1="-28470" x2="-30968" x1="-30968" fill="none"/><line y2="-28614" y1="-29186" x2="-30798" x1="-31780" fill="none"/><line y2="-28724" y1="-29186" x2="-29021" x1="-29816" fill="none"/><line y2="-27467" y1="-26895" x2="-30798" x1="-29816" fill="none"/><line y2="-26895" y1="-27467" x2="-31780" x1="-30798" fill="none"/><line y2="-29186" y1="-28614" x2="-31780" x1="-32762" fill="none"/><line y2="-27467" y1="-28394" x2="-28834" x1="-28834" fill="none"/><line y2="-26895" y1="-27467" x2="-29816" x1="-28834" fill="none"/><line y2="-27467" y1="-26895" x2="-32762" x1="-31780" fill="none"/><line y2="-28614" y1="-27467" x2="-32762" x1="-32762" fill="none"/><line y2="-30758" y1="-30235" x2="-28909" x1="-29816" fill="none"/><line y2="-31896" y1="-30758" x2="-28909" x1="-28909" fill="none"/><line y2="-31754" y1="-30902" x2="-28738" x1="-28738" fill="none"/><line y2="-30758" y1="-30191" x2="-28909" x1="-27924" fill="none"/><line y2="-32465" y1="-31896" x2="-27924" x1="-28909" fill="none"/><line y2="-30191" y1="-30758" x2="-27924" x1="-26938" fill="none"/><line y2="-30408" y1="-30836" x2="-27886" x1="-27146" fill="none"/><line y2="-31896" y1="-32465" x2="-26938" x1="-27924" fill="none"/><line y2="-31821" y1="-32248" x2="-27146" x1="-27886" fill="none"/><line y2="-30758" y1="-31896" x2="-26938" x1="-26938" fill="none"/><line y2="-32312" y1="-31896" x2="-26219" x1="-26938" fill="none"/><line y2="-32006" y1="-32312" x2="-25312" x1="-25844" fill="none"/><line y2="-30235" y1="-30235" x2="-29746" x1="-29885" fill="none"/><line y2="-30018" y1="-30018" x2="-29760" x1="-29871" fill="none"/><line y2="-29802" y1="-29802" x2="-29775" x1="-29856" fill="none"/><line y2="-29585" y1="-29585" x2="-29789" x1="-29842" fill="none"/><line y2="-29368" y1="-29368" x2="-29804" x1="-29828" fill="none"/><text y="-32242" xml:space="preserve" x="-26184" stroke="none" font-size="433.3333" font-family="sans-serif">O</text><text y="-31717" xml:space="preserve" x="-25277" stroke="none" font-size="433.3333" font-family="sans-serif">CH</text><text y="-31627" xml:space="preserve" x="-24700" stroke="none" font-size="313.3333" font-family="sans-serif">3</text><text y="-28435" xml:space="preserve" x="-28987" stroke="none" font-size="433.3333" font-family="sans-serif">NH</text><text y="-28706" xml:space="preserve" x="-29969" stroke="none" font-style="italic" font-size="313.3333" font-family="sans-serif">S</text></g></g></svg>