<svg width="218.79" viewBox="0 0 7293 4419" text-rendering="auto" stroke-width="1" stroke-opacity="1" stroke-miterlimit="10" stroke-linejoin="miter" stroke-linecap="square" stroke-dashoffset="0" stroke-dasharray="none" stroke="black" shape-rendering="auto" image-rendering="auto" height="132.57" font-weight="normal" font-style="normal" font-size="12" font-family="'Dialog'" fill-opacity="1" fill="black" color-rendering="auto" color-interpolation="auto" xmlns="http://www.w3.org/2000/svg"><g><g stroke="white" fill="white"><rect y="0" x="0" width="7293" stroke="none" height="4419"/></g><g transform="translate(32866,32758)" text-rendering="geometricPrecision" stroke-width="44" stroke-linejoin="round" stroke-linecap="round"><line y2="-28779" y1="-29302" x2="-30474" x1="-29567" fill="none"/><line y2="-29302" y1="-28779" x2="-31382" x1="-30474" fill="none"/><line y2="-28779" y1="-29302" x2="-28660" x1="-29567" fill="none"/><line y2="-29137" y1="-28779" x2="-28036" x1="-28660" fill="none"/><line y2="-31376" y1="-30960" x2="-28660" x1="-29377" fill="none"/><line y2="-28886" y1="-29302" x2="-32101" x1="-31382" fill="none"/><line y2="-30131" y1="-29302" x2="-31451" x1="-31451" fill="none"/><line y2="-30131" y1="-29302" x2="-31309" x1="-31309" fill="none"/><line y2="-28886" y1="-29195" x2="-27034" x1="-27562" fill="none"/><line y2="-30131" y1="-29521" x2="-27753" x1="-27753" fill="none"/><line y2="-30030" y1="-29411" x2="-26491" x1="-27562" fill="none"/><line y2="-30850" y1="-31376" x2="-27753" x1="-28660" fill="none"/><line y2="-32202" y1="-31376" x2="-28730" x1="-28730" fill="none"/><line y2="-32202" y1="-31376" x2="-28591" x1="-28591" fill="none"/><polygon stroke-width="1" stroke="none" points=" -29567 -29302 -29634 -30630 -29498 -30630"/><polygon stroke-width="1" points=" -29567 -29302 -29634 -30630 -29498 -30630" fill="none"/><text y="-29122" xml:space="preserve" x="-27903" stroke-width="1" stroke="none" font-size="433.3333" font-family="sans-serif">N</text><text y="-30671" xml:space="preserve" x="-29718" stroke-width="1" stroke="none" font-size="433.3333" font-family="sans-serif">O</text><text y="-28600" xml:space="preserve" x="-26996" stroke-width="1" stroke="none" font-size="433.3333" font-family="sans-serif">CH</text><text y="-28510" xml:space="preserve" x="-26418" stroke-width="1" stroke="none" font-size="313.3333" font-family="sans-serif">3</text><text y="-30171" xml:space="preserve" x="-27903" stroke-width="1" stroke="none" font-size="433.3333" font-family="sans-serif">CH</text><text y="-30082" xml:space="preserve" x="-27326" stroke-width="1" stroke="none" font-size="313.3333" font-family="sans-serif">3</text><text y="-29960" xml:space="preserve" x="-26453" stroke-width="1" stroke="none" font-size="433.3333" font-family="sans-serif">CH</text><text y="-29871" xml:space="preserve" x="-25875" stroke-width="1" stroke="none" font-size="313.3333" font-family="sans-serif">3</text><text y="-28600" xml:space="preserve" x="-32439" stroke-width="1" stroke="none" font-size="433.3333" font-family="sans-serif">O</text><text y="-30171" xml:space="preserve" x="-31532" stroke-width="1" stroke="none" font-size="433.3333" font-family="sans-serif">O</text><text y="-32242" xml:space="preserve" x="-28813" stroke-width="1" stroke="none" font-size="433.3333" font-family="sans-serif">O</text><text y="-29177" xml:space="preserve" x="-28227" stroke-width="1" stroke="none" font-size="313.3333" font-family="sans-serif">+</text><text y="-28654" xml:space="preserve" x="-32762" stroke-width="1" stroke="none" font-size="313.3333" font-family="sans-serif">-</text></g><g transform="translate(32866,32758)" text-rendering="geometricPrecision" stroke-linejoin="round" stroke-linecap="round" font-style="italic" font-size="313.3333" font-family="sans-serif"><text y="-28822" xml:space="preserve" x="-29718" stroke="none">R</text></g></g></svg>