<svg width="651.24" viewBox="0 0 21708 7409" text-rendering="auto" stroke-width="1" stroke-opacity="1" stroke-miterlimit="10" stroke-linejoin="miter" stroke-linecap="square" stroke-dashoffset="0" stroke-dasharray="none" stroke="black" shape-rendering="auto" image-rendering="auto" height="222.27" font-weight="normal" font-style="normal" font-size="12" font-family="'Dialog'" fill-opacity="1" fill="black" color-rendering="auto" color-interpolation="auto" xmlns="http://www.w3.org/2000/svg"><g><g stroke="white" fill="white"><rect y="0" x="0" width="21708" stroke="none" height="7409"/></g><g transform="translate(32866,32758)" text-rendering="geometricPrecision" stroke-width="44" stroke-linejoin="round" stroke-linecap="round"><line y2="-30850" y1="-29894" x2="-29065" x1="-30706" fill="none"/><line y2="-30573" y1="-29865" x2="-29203" x1="-30417" fill="none"/><line y2="-28935" y1="-30850" x2="-29065" x1="-29065" fill="none"/><line y2="-29894" y1="-30850" x2="-27421" x1="-29065" fill="none"/><line y2="-29894" y1="-27976" x2="-30706" x1="-30706" fill="none"/><line y2="-27976" y1="-28935" x2="-27421" x1="-29065" fill="none"/><line y2="-30850" y1="-29894" x2="-25774" x1="-27421" fill="none"/><line y2="-27976" y1="-27016" x2="-30706" x1="-29065" fill="none"/><line y2="-27016" y1="-27976" x2="-29065" x1="-27421" fill="none"/><line y2="-27282" y1="-27993" x2="-28943" x1="-27727" fill="none"/><line y2="-27976" y1="-27126" x2="-27421" x1="-25962" fill="none"/><line y2="-29894" y1="-30850" x2="-24130" x1="-25774" fill="none"/><line y2="-27236" y1="-27976" x2="-25399" x1="-24130" fill="none"/><line y2="-30850" y1="-29894" x2="-22487" x1="-24130" fill="none"/><line y2="-27976" y1="-27016" x2="-24130" x1="-22487" fill="none"/><line y2="-29894" y1="-30850" x2="-20840" x1="-22487" fill="none"/><line y2="-27016" y1="-27976" x2="-22487" x1="-20840" fill="none"/><line y2="-27282" y1="-28004" x2="-22365" x1="-21132" fill="none"/><line y2="-30850" y1="-29894" x2="-19196" x1="-20840" fill="none"/><line y2="-27976" y1="-27016" x2="-20840" x1="-19196" fill="none"/><line y2="-29894" y1="-30850" x2="-17552" x1="-19196" fill="none"/><line y2="-27016" y1="-27976" x2="-19196" x1="-17552" fill="none"/><line y2="-27282" y1="-28004" x2="-19078" x1="-17844" fill="none"/><line y2="-30440" y1="-29894" x2="-15770" x1="-17552" fill="none"/><line y2="-30209" y1="-29798" x2="-15943" x1="-17281" fill="none"/><line y2="-27976" y1="-27360" x2="-17552" x1="-15770" fill="none"/><line y2="-28865" y1="-30440" x2="-14606" x1="-15770" fill="none"/><line y2="-27360" y1="-28865" x2="-15770" x1="-14606" fill="none"/><line y2="-25968" y1="-27016" x2="-22487" x1="-22487" fill="none"/><line y2="-31436" y1="-30440" x2="-15446" x1="-15770" fill="none"/><line y2="-28865" y1="-29281" x2="-12792" x1="-13511" fill="none"/><line y2="-30307" y1="-29894" x2="-31425" x1="-30706" fill="none"/><line y2="-30061" y1="-30307" x2="-32231" x1="-31803" fill="none"/><line y2="-32315" y1="-32008" x2="-21767" x1="-22296" fill="none"/><line y2="-25896" y1="-26202" x2="-15051" x1="-15582" fill="none"/><line y2="-28467" y1="-28874" x2="-29732" x1="-29027" fill="none"/><line y2="-28591" y1="-28995" x2="-29801" x1="-29099" fill="none"/><line y2="-27499" y1="-27915" x2="-31390" x1="-30671" fill="none"/><line y2="-27620" y1="-28036" x2="-31460" x1="-30740" fill="none"/><line y2="-27146" y1="-27935" x2="-24061" x1="-24061" fill="none"/><line y2="-27146" y1="-27935" x2="-24200" x1="-24200" fill="none"/><line y2="-29281" y1="-28865" x2="-12072" x1="-12792" fill="none"/><line y2="-28039" y1="-28865" x2="-12722" x1="-12722" fill="none"/><line y2="-28039" y1="-28865" x2="-12861" x1="-12861" fill="none"/><polygon stroke-width="1" stroke="none" points=" -25774 -30850 -25844 -31899 -25705 -31899"/><polygon stroke-width="1" points=" -25774 -30850 -25844 -31899 -25705 -31899" fill="none"/><polygon stroke-width="1" stroke="none" points=" -19196 -30850 -19266 -31899 -19127 -31899"/><polygon stroke-width="1" points=" -19196 -30850 -19266 -31899 -19127 -31899" fill="none"/><polygon stroke-width="1" stroke="none" points=" -15770 -27360 -15701 -26531 -15839 -26531"/><polygon stroke-width="1" points=" -15770 -27360 -15701 -26531 -15839 -26531" fill="none"/><polygon stroke-width="1" stroke="none" points=" -20840 -29894 -20771 -29082 -20909 -29082"/><polygon stroke-width="1" points=" -20840 -29894 -20771 -29082 -20909 -29082" fill="none"/><line y2="-29221" y1="-29342" x2="-13852" x1="-13921" fill="none"/><line y2="-29128" y1="-29218" x2="-14049" x1="-14100" fill="none"/><line y2="-29035" y1="-29093" x2="-14245" x1="-14278" fill="none"/><line y2="-28943" y1="-28969" x2="-14442" x1="-14457" fill="none"/><line y2="-31679" y1="-31679" x2="-22417" x1="-22553" fill="none"/><line y2="-31462" y1="-31462" x2="-22435" x1="-22536" fill="none"/><line y2="-31246" y1="-31246" x2="-22454" x1="-22519" fill="none"/><line y2="-31029" y1="-31029" x2="-22472" x1="-22501" fill="none"/><text y="-30238" xml:space="preserve" x="-31766" stroke="none" font-size="433.3333" font-family="sans-serif">O</text><text y="-29663" xml:space="preserve" x="-32762" stroke="none" font-size="433.3333" font-family="sans-serif">CH</text><text y="-29573" xml:space="preserve" x="-32185" stroke="none" font-size="313.3333" font-family="sans-serif">3</text><text y="-28241" xml:space="preserve" x="-30108" stroke="none" font-size="433.3333" font-family="sans-serif">O</text><text y="-27274" xml:space="preserve" x="-31766" stroke="none" font-size="433.3333" font-family="sans-serif">O</text><text y="-26751" xml:space="preserve" x="-24284" stroke="none" font-size="433.3333" font-family="sans-serif">O</text><text y="-31720" xml:space="preserve" x="-22637" stroke="none" font-size="433.3333" font-family="sans-serif">O</text><text y="-32242" xml:space="preserve" x="-21730" stroke="none" font-size="433.3333" font-family="sans-serif">CH</text><text y="-32153" xml:space="preserve" x="-21152" stroke="none" font-size="313.3333" font-family="sans-serif">3</text><text y="-28683" xml:space="preserve" x="-20993" stroke="none" font-size="433.3333" font-family="sans-serif">OH</text><text y="-26132" xml:space="preserve" x="-15923" stroke="none" font-size="433.3333" font-family="sans-serif">O</text><text y="-25610" xml:space="preserve" x="-15016" stroke="none" font-size="433.3333" font-family="sans-serif">CH</text><text y="-25520" xml:space="preserve" x="-14438" stroke="none" font-size="313.3333" font-family="sans-serif">3</text><text y="-29212" xml:space="preserve" x="-13852" stroke="none" font-size="433.3333" font-family="sans-serif">O</text><text y="-29212" xml:space="preserve" x="-12038" stroke="none" font-size="433.3333" font-family="sans-serif">NH</text><text y="-29122" xml:space="preserve" x="-11460" stroke="none" font-size="313.3333" font-family="sans-serif">2</text><text y="-27640" xml:space="preserve" x="-12945" stroke="none" font-size="433.3333" font-family="sans-serif">O</text><text y="-26837" xml:space="preserve" x="-25927" stroke="none" font-size="433.3333" font-family="sans-serif">NH</text><text y="-27788" xml:space="preserve" x="-22100" stroke="none" font-style="italic" font-size="313.3333" font-family="sans-serif">E</text><text y="-27788" xml:space="preserve" x="-18809" stroke="none" font-style="italic" font-size="313.3333" font-family="sans-serif">Z</text><text y="-29478" xml:space="preserve" x="-16660" stroke="none" font-style="italic" font-size="313.3333" font-family="sans-serif">E</text><text y="-30370" xml:space="preserve" x="-25927" stroke="none" font-style="italic" font-size="313.3333" font-family="sans-serif">R</text><text y="-30370" xml:space="preserve" x="-22637" stroke="none" font-style="italic" font-size="313.3333" font-family="sans-serif">S</text><text y="-30015" xml:space="preserve" x="-20993" stroke="none" font-style="italic" font-size="313.3333" font-family="sans-serif">R</text><text y="-30370" xml:space="preserve" x="-19349" stroke="none" font-style="italic" font-size="313.3333" font-family="sans-serif">S</text><text y="-27450" xml:space="preserve" x="-16021" stroke="none" font-style="italic" font-size="313.3333" font-family="sans-serif">S</text><text y="-28686" xml:space="preserve" x="-15030" stroke="none" font-style="italic" font-size="313.3333" font-family="sans-serif">S</text></g></g></svg>