<svg width="193.02" viewBox="0 0 6434 5958" text-rendering="auto" stroke-width="1" stroke-opacity="1" stroke-miterlimit="10" stroke-linejoin="miter" stroke-linecap="square" stroke-dashoffset="0" stroke-dasharray="none" stroke="black" shape-rendering="auto" image-rendering="auto" height="178.74" font-weight="normal" font-style="normal" font-size="12" font-family="'Dialog'" fill-opacity="1" fill="black" color-rendering="auto" color-interpolation="auto" xmlns="http://www.w3.org/2000/svg"><g><g stroke="white" fill="white"><rect y="0" x="0" width="6434" stroke="none" height="5958"/></g><g transform="translate(32866,32758)" text-rendering="geometricPrecision" stroke-width="44" stroke-linejoin="round" stroke-linecap="round"><line y2="-29226" y1="-30370" x2="-29614" x1="-29614" fill="none"/><line y2="-30370" y1="-30945" x2="-29614" x1="-30596" fill="none"/><line y2="-30945" y1="-30370" x2="-28631" x1="-29614" fill="none"/><line y2="-29226" y1="-28652" x2="-29614" x1="-28631" fill="none"/><line y2="-28652" y1="-29226" x2="-30596" x1="-29614" fill="none"/><line y2="-30945" y1="-30370" x2="-30596" x1="-31578" fill="none"/><line y2="-30370" y1="-30945" x2="-27649" x1="-28631" fill="none"/><line y2="-28652" y1="-29226" x2="-28631" x1="-27649" fill="none"/><line y2="-29226" y1="-28652" x2="-31578" x1="-30596" fill="none"/><line y2="-30370" y1="-29226" x2="-31578" x1="-31578" fill="none"/><line y2="-29226" y1="-30370" x2="-27649" x1="-27649" fill="none"/><line y2="-31529" y1="-30945" x2="-30108" x1="-30596" fill="none"/><line y2="-31529" y1="-30945" x2="-31084" x1="-30596" fill="none"/><line y2="-31529" y1="-30945" x2="-28143" x1="-28631" fill="none"/><line y2="-31529" y1="-30945" x2="-29120" x1="-28631" fill="none"/><line y2="-28068" y1="-28652" x2="-29120" x1="-28631" fill="none"/><line y2="-28068" y1="-28652" x2="-28143" x1="-28631" fill="none"/><line y2="-28068" y1="-28652" x2="-31084" x1="-30596" fill="none"/><line y2="-28068" y1="-28652" x2="-30108" x1="-30596" fill="none"/><line y2="-31136" y1="-30370" x2="-31858" x1="-31578" fill="none"/><line y2="-30223" y1="-30370" x2="-32422" x1="-31578" fill="none"/><line y2="-30223" y1="-30370" x2="-26806" x1="-27649" fill="none"/><line y2="-31136" y1="-30370" x2="-27369" x1="-27649" fill="none"/><line y2="-28461" y1="-29226" x2="-27369" x1="-27649" fill="none"/><line y2="-29374" y1="-29226" x2="-26806" x1="-27649" fill="none"/><line y2="-29374" y1="-29226" x2="-32422" x1="-31578" fill="none"/><line y2="-28461" y1="-29226" x2="-31858" x1="-31578" fill="none"/><line y2="-32202" y1="-30370" x2="-29614" x1="-29614" fill="none"/><line y2="-27395" y1="-29226" x2="-29614" x1="-29614" fill="none"/><text y="-32242" xml:space="preserve" x="-29767" stroke="none" font-size="433.3333" font-family="sans-serif">F</text><text y="-26996" xml:space="preserve" x="-29767" stroke="none" font-size="433.3333" font-family="sans-serif">F</text><text y="-31569" xml:space="preserve" x="-30076" stroke="none" font-size="433.3333" font-family="sans-serif">F</text><text y="-31569" xml:space="preserve" x="-31422" stroke="none" font-size="433.3333" font-family="sans-serif">F</text><text y="-31569" xml:space="preserve" x="-28111" stroke="none" font-size="433.3333" font-family="sans-serif">F</text><text y="-31569" xml:space="preserve" x="-29458" stroke="none" font-size="433.3333" font-family="sans-serif">F</text><text y="-27672" xml:space="preserve" x="-29458" stroke="none" font-size="433.3333" font-family="sans-serif">F</text><text y="-27672" xml:space="preserve" x="-28111" stroke="none" font-size="433.3333" font-family="sans-serif">F</text><text y="-27672" xml:space="preserve" x="-31422" stroke="none" font-size="433.3333" font-family="sans-serif">F</text><text y="-27672" xml:space="preserve" x="-30076" stroke="none" font-size="433.3333" font-family="sans-serif">F</text><text y="-31176" xml:space="preserve" x="-32089" stroke="none" font-size="433.3333" font-family="sans-serif">F</text><text y="-30012" xml:space="preserve" x="-32762" stroke="none" font-size="433.3333" font-family="sans-serif">F</text><text y="-30012" xml:space="preserve" x="-26768" stroke="none" font-size="433.3333" font-family="sans-serif">F</text><text y="-31176" xml:space="preserve" x="-27444" stroke="none" font-size="433.3333" font-family="sans-serif">F</text><text y="-28062" xml:space="preserve" x="-27444" stroke="none" font-size="433.3333" font-family="sans-serif">F</text><text y="-29229" xml:space="preserve" x="-26768" stroke="none" font-size="433.3333" font-family="sans-serif">F</text><text y="-29229" xml:space="preserve" x="-32762" stroke="none" font-size="433.3333" font-family="sans-serif">F</text><text y="-28062" xml:space="preserve" x="-32089" stroke="none" font-size="433.3333" font-family="sans-serif">F</text></g></g></svg>