<svg width="191.61" viewBox="0 0 6387 4359" text-rendering="auto" stroke-width="1" stroke-opacity="1" stroke-miterlimit="10" stroke-linejoin="miter" stroke-linecap="square" stroke-dashoffset="0" stroke-dasharray="none" stroke="black" shape-rendering="auto" image-rendering="auto" height="130.77" font-weight="normal" font-style="normal" font-size="12" font-family="'Dialog'" fill-opacity="1" fill="black" color-rendering="auto" color-interpolation="auto" xmlns="http://www.w3.org/2000/svg"><g><g stroke="white" fill="white"><rect y="0" x="0" width="6387" stroke="none" height="4359"/></g><g transform="translate(32866,32866)" text-rendering="geometricPrecision" stroke-width="44" stroke-linejoin="round" stroke-linecap="round"><line y2="-30532" y1="-31084" x2="-29460" x1="-30171" fill="none"/><line y2="-29469" y1="-30532" x2="-29827" x1="-29460" fill="none"/><line y2="-29657" y1="-30454" x2="-29943" x1="-29668" fill="none"/><line y2="-31090" y1="-30532" x2="-30550" x1="-31304" fill="none"/><line y2="-30882" y1="-30466" x2="-30541" x1="-31107" fill="none"/><line y2="-29469" y1="-29469" x2="-30786" x1="-29827" fill="none"/><line y2="-30532" y1="-29689" x2="-31304" x1="-31041" fill="none"/><line y2="-31055" y1="-30532" x2="-28553" x1="-29460" fill="none"/><line y2="-28611" y1="-29469" x2="-29226" x1="-29827" fill="none"/><line y2="-30697" y1="-30532" x2="-31812" x1="-31304" fill="none"/><line y2="-32193" y1="-31055" x2="-28553" x1="-28553" fill="none"/><line y2="-32052" y1="-31200" x2="-28383" x1="-28383" fill="none"/><line y2="-31055" y1="-30489" x2="-28553" x1="-27565" fill="none"/><line y2="-32762" y1="-32193" x2="-27565" x1="-28553" fill="none"/><line y2="-30489" y1="-31055" x2="-27565" x1="-26583" fill="none"/><line y2="-30706" y1="-31133" x2="-27528" x1="-26791" fill="none"/><line y2="-32193" y1="-32762" x2="-26583" x1="-27565" fill="none"/><line y2="-32118" y1="-32546" x2="-26791" x1="-27528" fill="none"/><line y2="-31055" y1="-32193" x2="-26583" x1="-26583" fill="none"/><text y="-30778" xml:space="preserve" x="-32762" stroke="none" font-size="433.3333" font-family="sans-serif">NH</text><text y="-30688" xml:space="preserve" x="-32185" stroke="none" font-size="313.3333" font-family="sans-serif">2</text><text y="-31049" xml:space="preserve" x="-30512" stroke="none" font-size="433.3333" font-family="sans-serif">N</text><text y="-29290" xml:space="preserve" x="-31127" stroke="none" font-size="433.3333" font-family="sans-serif">S</text></g></g></svg>