<svg width="175.05" viewBox="0 0 5835 5533" text-rendering="auto" stroke-width="1" stroke-opacity="1" stroke-miterlimit="10" stroke-linejoin="miter" stroke-linecap="square" stroke-dashoffset="0" stroke-dasharray="none" stroke="black" shape-rendering="auto" image-rendering="auto" height="165.99" font-weight="normal" font-style="normal" font-size="12" font-family="'Dialog'" fill-opacity="1" fill="black" color-rendering="auto" color-interpolation="auto" xmlns="http://www.w3.org/2000/svg"><g><g stroke="white" fill="white"><rect y="0" x="0" width="5835" stroke="none" height="5533"/></g><g transform="translate(32866,32758)" text-rendering="geometricPrecision" stroke-width="44" stroke-linejoin="round" stroke-linecap="round"><line y2="-28663" y1="-29140" x2="-30919" x1="-31535" fill="none"/><line y2="-27820" y1="-28663" x2="-31211" x1="-30919" fill="none"/><line y2="-27981" y1="-28614" x2="-31335" x1="-31119" fill="none"/><line y2="-29221" y1="-28663" x2="-32008" x1="-32762" fill="none"/><line y2="-27600" y1="-27600" x2="-32433" x1="-31477" fill="none"/><line y2="-28663" y1="-27600" x2="-32762" x1="-32433" fill="none"/><line y2="-29186" y1="-28663" x2="-30012" x1="-30919" fill="none"/><line y2="-30015" y1="-29186" x2="-30012" x1="-30012" fill="none"/><line y2="-30758" y1="-30344" x2="-29105" x1="-29824" fill="none"/><line y2="-28663" y1="-29186" x2="-29105" x1="-30012" fill="none"/><line y2="-31896" y1="-30758" x2="-29105" x1="-29105" fill="none"/><line y2="-31754" y1="-30902" x2="-28935" x1="-28935" fill="none"/><line y2="-30758" y1="-30191" x2="-29105" x1="-28117" fill="none"/><line y2="-32465" y1="-31896" x2="-28117" x1="-29105" fill="none"/><line y2="-30191" y1="-30758" x2="-28117" x1="-27135" fill="none"/><line y2="-30408" y1="-30836" x2="-28080" x1="-27343" fill="none"/><line y2="-31896" y1="-32465" x2="-27135" x1="-28117" fill="none"/><line y2="-31821" y1="-32248" x2="-27343" x1="-28080" fill="none"/><line y2="-30758" y1="-31896" x2="-27135" x1="-27135" fill="none"/><line y2="-32222" y1="-31896" x2="-29671" x1="-29105" fill="none"/><line y2="-29362" y1="-30191" x2="-28117" x1="-28117" fill="none"/><text y="-30056" xml:space="preserve" x="-30165" stroke="none" font-size="433.3333" font-family="sans-serif">O</text><text y="-32242" xml:space="preserve" x="-30243" stroke="none" font-size="433.3333" font-family="sans-serif">Cl</text><text y="-28964" xml:space="preserve" x="-28348" stroke="none" font-size="433.3333" font-family="sans-serif">Cl</text><text y="-29180" xml:space="preserve" x="-31971" stroke="none" font-size="433.3333" font-family="sans-serif">NH</text><text y="-27421" xml:space="preserve" x="-31439" stroke="none" font-size="433.3333" font-family="sans-serif">N</text></g></g></svg>