<svg width="210.99" viewBox="0 0 7033 4326" text-rendering="auto" stroke-width="1" stroke-opacity="1" stroke-miterlimit="10" stroke-linejoin="miter" stroke-linecap="square" stroke-dashoffset="0" stroke-dasharray="none" stroke="black" shape-rendering="auto" image-rendering="auto" height="129.78" font-weight="normal" font-style="normal" font-size="12" font-family="'Dialog'" fill-opacity="1" fill="black" color-rendering="auto" color-interpolation="auto" xmlns="http://www.w3.org/2000/svg"><g><g stroke="white" fill="white"><rect y="0" x="0" width="7033" stroke="none" height="4326"/></g><g transform="translate(32866,32758)" text-rendering="geometricPrecision" stroke-width="44" stroke-linejoin="round" stroke-linecap="round"><line y2="-31376" y1="-30238" x2="-29888" x1="-29888" fill="none"/><line y2="-31231" y1="-30379" x2="-29718" x1="-29718" fill="none"/><line y2="-30238" y1="-29668" x2="-29888" x1="-28900" fill="none"/><line y2="-31945" y1="-31376" x2="-28900" x1="-29888" fill="none"/><line y2="-29668" y1="-30238" x2="-28900" x1="-27918" fill="none"/><line y2="-29885" y1="-30313" x2="-28862" x1="-28126" fill="none"/><line y2="-31376" y1="-31945" x2="-27918" x1="-28900" fill="none"/><line y2="-31298" y1="-31725" x2="-28126" x1="-28862" fill="none"/><line y2="-30238" y1="-31376" x2="-27918" x1="-27918" fill="none"/><line y2="-31899" y1="-31376" x2="-27011" x1="-27918" fill="none"/><line y2="-29822" y1="-30238" x2="-30607" x1="-29888" fill="none"/><line y2="-32315" y1="-31899" x2="-26291" x1="-27011" fill="none"/><line y2="-32393" y1="-31977" x2="-26335" x1="-27054" fill="none"/><line y2="-32237" y1="-31821" x2="-26245" x1="-26964" fill="none"/><line y2="-30238" y1="-29822" x2="-31702" x1="-30983" fill="none"/><line y2="-28990" y1="-29460" x2="-31130" x1="-30862" fill="none"/><line y2="-29062" y1="-29530" x2="-31252" x1="-30983" fill="none"/><line y2="-29062" y1="-29530" x2="-30336" x1="-30607" fill="none"/><line y2="-28990" y1="-29460" x2="-30460" x1="-30729" fill="none"/><line y2="-29822" y1="-30238" x2="-32422" x1="-31702" fill="none"/><line y2="-30925" y1="-30238" x2="-32101" x1="-31702" fill="none"/><line y2="-30925" y1="-30238" x2="-31304" x1="-31702" fill="none"/><text y="-29536" xml:space="preserve" x="-30948" stroke="none" font-size="433.3333" font-family="sans-serif">S</text><text y="-28628" xml:space="preserve" x="-31471" stroke="none" font-size="433.3333" font-family="sans-serif">O</text><text y="-28628" xml:space="preserve" x="-30422" stroke="none" font-size="433.3333" font-family="sans-serif">O</text><text y="-29536" xml:space="preserve" x="-32762" stroke="none" font-size="433.3333" font-family="sans-serif">F</text><text y="-30966" xml:space="preserve" x="-32378" stroke="none" font-size="433.3333" font-family="sans-serif">F</text><text y="-30966" xml:space="preserve" x="-31330" stroke="none" font-size="433.3333" font-family="sans-serif">F</text><text y="-32242" xml:space="preserve" x="-26257" stroke="none" font-size="433.3333" font-family="sans-serif">N</text></g></g></svg>