<svg width="209.19" viewBox="0 0 6973 2602" text-rendering="auto" stroke-width="1" stroke-opacity="1" stroke-miterlimit="10" stroke-linejoin="miter" stroke-linecap="square" stroke-dashoffset="0" stroke-dasharray="none" stroke="black" shape-rendering="auto" image-rendering="auto" height="78.06" font-weight="normal" font-style="normal" font-size="12" font-family="'Dialog'" fill-opacity="1" fill="black" color-rendering="auto" color-interpolation="auto" xmlns="http://www.w3.org/2000/svg"><g><g stroke="white" fill="white"><rect y="0" x="0" width="6973" stroke="none" height="2602"/></g><g transform="translate(32866,32866)" text-rendering="geometricPrecision" stroke-width="44" stroke-linejoin="round" stroke-linecap="round"><line y2="-32271" y1="-32762" x2="-29969" x1="-30815" fill="none"/><line y2="-30966" y1="-31945" x2="-29781" x1="-29781" fill="none"/><line y2="-32762" y1="-32164" x2="-30815" x1="-31855" fill="none"/><line y2="-30368" y1="-30966" x2="-30815" x1="-29781" fill="none"/><line y2="-32164" y1="-31185" x2="-31855" x1="-31855" fill="none"/><line y2="-30749" y1="-30368" x2="-31474" x1="-30815" fill="none"/><line y2="-32687" y1="-32271" x2="-28874" x1="-29593" fill="none"/><line y2="-32164" y1="-32687" x2="-27967" x1="-28874" fill="none"/><line y2="-32687" y1="-32164" x2="-32762" x1="-31855" fill="none"/><line y2="-32164" y1="-31026" x2="-27967" x1="-27967" fill="none"/><line y2="-32023" y1="-31171" x2="-27796" x1="-27796" fill="none"/><line y2="-32734" y1="-32164" x2="-26979" x1="-27967" fill="none"/><line y2="-31026" y1="-30457" x2="-27967" x1="-26979" fill="none"/><line y2="-32164" y1="-32734" x2="-25997" x1="-26979" fill="none"/><line y2="-32089" y1="-32514" x2="-26202" x1="-26941" fill="none"/><line y2="-30457" y1="-31026" x2="-26979" x1="-25997" fill="none"/><line y2="-30677" y1="-31104" x2="-26941" x1="-26202" fill="none"/><line y2="-31026" y1="-32164" x2="-25997" x1="-25997" fill="none"/><text y="-31985" xml:space="preserve" x="-29931" stroke="none" font-size="433.3333" font-family="sans-serif">N</text><text y="-30786" xml:space="preserve" x="-32008" stroke="none" font-size="433.3333" font-family="sans-serif">NH</text></g></g></svg>