<svg width="252.33" viewBox="0 0 8411 5926" text-rendering="auto" stroke-width="1" stroke-opacity="1" stroke-miterlimit="10" stroke-linejoin="miter" stroke-linecap="square" stroke-dashoffset="0" stroke-dasharray="none" stroke="black" shape-rendering="auto" image-rendering="auto" height="177.78" font-weight="normal" font-style="normal" font-size="12" font-family="'Dialog'" fill-opacity="1" fill="black" color-rendering="auto" color-interpolation="auto" xmlns="http://www.w3.org/2000/svg"><g><g stroke="white" fill="white"><rect y="0" x="0" width="8411" stroke="none" height="5926"/></g><g transform="translate(32866,32758)" text-rendering="geometricPrecision" stroke-width="44" stroke-linejoin="round" stroke-linecap="round"><line y2="-28779" y1="-29758" x2="-29625" x1="-29625" fill="none"/><line y2="-30084" y1="-30576" x2="-29813" x1="-30662" fill="none"/><line y2="-28181" y1="-28779" x2="-30662" x1="-29625" fill="none"/><line y2="-28400" y1="-28851" x2="-30616" x1="-29842" fill="none"/><line y2="-30576" y1="-30197" x2="-30662" x1="-31321" fill="none"/><line y2="-28779" y1="-28181" x2="-31702" x1="-30662" fill="none"/><line y2="-29758" y1="-28779" x2="-31702" x1="-31702" fill="none"/><line y2="-28256" y1="-28779" x2="-28718" x1="-29625" fill="none"/><line y2="-31405" y1="-30576" x2="-30732" x1="-30732" fill="none"/><line y2="-31405" y1="-30576" x2="-30593" x1="-30593" fill="none"/><line y2="-28302" y1="-28718" x2="-32387" x1="-31668" fill="none"/><line y2="-28423" y1="-28839" x2="-32456" x1="-31737" fill="none"/><line y2="-30500" y1="-29949" x2="-28718" x1="-28007" fill="none"/><line y2="-31564" y1="-30500" x2="-28351" x1="-28718" fill="none"/><line y2="-29943" y1="-30500" x2="-27629" x1="-26875" fill="none"/><line y2="-31564" y1="-31564" x2="-27204" x1="-28351" fill="none"/><line y2="-30500" y1="-31564" x2="-26875" x1="-27204" fill="none"/><line y2="-30394" y1="-29978" x2="-25248" x1="-25968" fill="none"/><line y2="-28669" y1="-28256" x2="-27999" x1="-28718" fill="none"/><line y2="-27427" y1="-28256" x2="-28649" x1="-28649" fill="none"/><line y2="-27427" y1="-28256" x2="-28787" x1="-28787" fill="none"/><polygon stroke-width="1" stroke="none" points=" -29403 -30024 -28718 -30500 -29472 -30145"/><polygon stroke-width="1" points=" -29403 -30024 -28718 -30500 -29472 -30145" fill="none"/><polygon stroke-width="1" stroke="none" points=" -26875 -30500 -25936 -30038 -26002 -29917"/><polygon stroke-width="1" points=" -26875 -30500 -25936 -30038 -26002 -29917" fill="none"/><line y2="-32242" y1="-32162" x2="-28741" x1="-28854" fill="none"/><line y2="-32053" y1="-31996" x2="-28632" x1="-28714" fill="none"/><line y2="-31865" y1="-31829" x2="-28524" x1="-28574" fill="none"/><line y2="-31676" y1="-31663" x2="-28415" x1="-28434" fill="none"/><line y2="-32153" y1="-32234" x2="-26690" x1="-26803" fill="none"/><line y2="-31989" y1="-32047" x2="-26833" x1="-26915" fill="none"/><line y2="-31825" y1="-31861" x2="-26976" x1="-27026" fill="none"/><line y2="-31661" y1="-31674" x2="-27119" x1="-27138" fill="none"/><text y="-28600" xml:space="preserve" x="-27964" stroke="none" font-size="433.3333" font-family="sans-serif">OH</text><text y="-27028" xml:space="preserve" x="-28871" stroke="none" font-size="433.3333" font-family="sans-serif">O</text><text y="-31445" xml:space="preserve" x="-30815" stroke="none" font-size="433.3333" font-family="sans-serif">O</text><text y="-32242" xml:space="preserve" x="-29102" stroke="none" font-size="433.3333" font-family="sans-serif">OH</text><text y="-30321" xml:space="preserve" x="-25214" stroke="none" font-size="433.3333" font-family="sans-serif">OH</text><text y="-32234" xml:space="preserve" x="-26739" stroke="none" font-size="433.3333" font-family="sans-serif">OH</text><text y="-28077" xml:space="preserve" x="-32762" stroke="none" font-size="433.3333" font-family="sans-serif">O</text><text y="-29798" xml:space="preserve" x="-29778" stroke="none" font-size="433.3333" font-family="sans-serif">N</text><text y="-29798" xml:space="preserve" x="-31855" stroke="none" font-size="433.3333" font-family="sans-serif">NH</text><text y="-29625" xml:space="preserve" x="-27970" stroke="none" font-size="433.3333" font-family="sans-serif">O</text><text y="-30420" xml:space="preserve" x="-28602" stroke="none" font-style="italic" font-size="313.3333" font-family="sans-serif">R</text><text y="-31098" xml:space="preserve" x="-28270" stroke="none" font-style="italic" font-size="313.3333" font-family="sans-serif">R</text><text y="-30396" xml:space="preserve" x="-27305" stroke="none" font-style="italic" font-size="313.3333" font-family="sans-serif">R</text><text y="-31098" xml:space="preserve" x="-27588" stroke="none" font-style="italic" font-size="313.3333" font-family="sans-serif">S</text></g></g></svg>