<svg width="272.22" viewBox="0 0 9074 10440" text-rendering="auto" stroke-width="1" stroke-opacity="1" stroke-miterlimit="10" stroke-linejoin="miter" stroke-linecap="square" stroke-dashoffset="0" stroke-dasharray="none" stroke="black" shape-rendering="auto" image-rendering="auto" height="313.2" font-weight="normal" font-style="normal" font-size="12" font-family="'Dialog'" fill-opacity="1" fill="black" color-rendering="auto" color-interpolation="auto" xmlns="http://www.w3.org/2000/svg"><g><g stroke="white" fill="white"><rect y="0" x="0" width="9074" stroke="none" height="10440"/></g><g transform="translate(32866,32866)" text-rendering="geometricPrecision" stroke-width="44" stroke-linejoin="round" stroke-linecap="round"><line y2="-30633" y1="-30058" x2="-28738" x1="-27756" fill="none"/><line y2="-30058" y1="-30633" x2="-27756" x1="-26774" fill="none"/><line y2="-31777" y1="-30633" x2="-28738" x1="-28738" fill="none"/><line y2="-30058" y1="-30633" x2="-29723" x1="-28738" fill="none"/><line y2="-30278" y1="-30708" x2="-29686" x1="-28949" fill="none"/><line y2="-30633" y1="-31777" x2="-26774" x1="-26774" fill="none"/><line y2="-32242" y1="-31777" x2="-27944" x1="-28738" fill="none"/><line y2="-31777" y1="-32352" x2="-28738" x1="-29723" fill="none"/><line y2="-31702" y1="-32133" x2="-28949" x1="-29686" fill="none"/><line y2="-30633" y1="-30058" x2="-30706" x1="-29723" fill="none"/><line y2="-31777" y1="-32242" x2="-26774" x1="-27568" fill="none"/><line y2="-32352" y1="-31777" x2="-29723" x1="-30706" fill="none"/><line y2="-31777" y1="-30633" x2="-30706" x1="-30706" fill="none"/><line y2="-31636" y1="-30775" x2="-30535" x1="-30535" fill="none"/><line y2="-31595" y1="-31777" x2="-25742" x1="-26774" fill="none"/><line y2="-32762" y1="-31777" x2="-26416" x1="-26774" fill="none"/><line y2="-32193" y1="-31777" x2="-31425" x1="-30706" fill="none"/><line y2="-31945" y1="-32193" x2="-32231" x1="-31800" fill="none"/><line y2="-29010" y1="-28444" x2="-27756" x1="-28744" fill="none"/><line y2="-28793" y1="-28366" x2="-27796" x1="-28536" fill="none"/><line y2="-28444" y1="-29010" x2="-26774" x1="-27756" fill="none"/><line y2="-28444" y1="-27305" x2="-28744" x1="-28744" fill="none"/><line y2="-27305" y1="-28444" x2="-26774" x1="-26774" fill="none"/><line y2="-27447" y1="-28299" x2="-26944" x1="-26944" fill="none"/><line y2="-27305" y1="-26736" x2="-28744" x1="-27756" fill="none"/><line y2="-27383" y1="-26956" x2="-28536" x1="-27796" fill="none"/><line y2="-26736" y1="-27305" x2="-27756" x1="-26774" fill="none"/><line y2="-25907" y1="-26736" x2="-27756" x1="-27756" fill="none"/><line y2="-25165" y1="-25581" x2="-28663" x1="-27944" fill="none"/><line y2="-24116" y1="-25165" x2="-28663" x1="-28663" fill="none"/><line y2="-23700" y1="-24116" x2="-29382" x1="-28663" fill="none"/><line y2="-30108" y1="-28969" x2="-25867" x1="-25867" fill="none"/><line y2="-29966" y1="-29114" x2="-25696" x1="-25696" fill="none"/><line y2="-30677" y1="-30108" x2="-24882" x1="-25867" fill="none"/><line y2="-28969" y1="-28403" x2="-25867" x1="-24882" fill="none"/><line y2="-30108" y1="-30677" x2="-23896" x1="-24882" fill="none"/><line y2="-30032" y1="-30460" x2="-24104" x1="-24844" fill="none"/><line y2="-28403" y1="-28969" x2="-24882" x1="-23896" fill="none"/><line y2="-28620" y1="-29047" x2="-24844" x1="-24104" fill="none"/><line y2="-28969" y1="-30108" x2="-23896" x1="-23896" fill="none"/><line y2="-23738" y1="-24289" x2="-29761" x1="-30472" fill="none"/><line y2="-22530" y1="-23374" x2="-29940" x1="-29648" fill="none"/><line y2="-24289" y1="-23593" x2="-30472" x1="-31413" fill="none"/><line y2="-22530" y1="-22530" x2="-31087" x1="-29940" fill="none"/><line y2="-23593" y1="-22530" x2="-31413" x1="-31087" fill="none"/><polygon stroke-width="1" stroke="none" points=" -27756 -30058 -27690 -29010 -27825 -29010"/><polygon stroke-width="1" points=" -27756 -30058 -27690 -29010 -27825 -29010" fill="none"/><line y2="-30047" y1="-30168" x2="-25901" x1="-25835" fill="none"/><line y2="-30168" y1="-30264" x2="-26082" x1="-26029" fill="none"/><line y2="-30289" y1="-30360" x2="-26262" x1="-26223" fill="none"/><line y2="-30411" y1="-30457" x2="-26443" x1="-26418" fill="none"/><line y2="-30532" y1="-30553" x2="-26623" x1="-26612" fill="none"/><text y="-32124" xml:space="preserve" x="-31763" stroke="none" font-size="433.3333" font-family="sans-serif">O</text><text y="-31546" xml:space="preserve" x="-32762" stroke="none" font-size="433.3333" font-family="sans-serif">CH</text><text y="-31457" xml:space="preserve" x="-32185" stroke="none" font-size="313.3333" font-family="sans-serif">3</text><text y="-25508" xml:space="preserve" x="-27909" stroke="none" font-size="433.3333" font-family="sans-serif">O</text><text y="-32173" xml:space="preserve" x="-27909" stroke="none" font-size="433.3333" font-family="sans-serif">O</text><text y="-23414" xml:space="preserve" x="-29723" stroke="none" font-size="433.3333" font-family="sans-serif">N</text><text y="-30183" xml:space="preserve" x="-27909" stroke="none" font-style="italic" font-size="313.3333" font-family="sans-serif">S</text><text y="-30596" xml:space="preserve" x="-27175" stroke="none" font-style="italic" font-size="313.3333" font-family="sans-serif">S</text></g></g></svg>