<svg width="192.87" viewBox="0 0 6429 3486" text-rendering="auto" stroke-width="1" stroke-opacity="1" stroke-miterlimit="10" stroke-linejoin="miter" stroke-linecap="square" stroke-dashoffset="0" stroke-dasharray="none" stroke="black" shape-rendering="auto" image-rendering="auto" height="104.58" font-weight="normal" font-style="normal" font-size="12" font-family="'Dialog'" fill-opacity="1" fill="black" color-rendering="auto" color-interpolation="auto" xmlns="http://www.w3.org/2000/svg"><g><g stroke="white" fill="white"><rect y="0" x="0" width="6429" stroke="none" height="3486"/></g><g transform="translate(32866,32866)" text-rendering="geometricPrecision" stroke-width="44" stroke-linejoin="round" stroke-linecap="round"><line y2="-31191" y1="-31760" x2="-30792" x1="-31777" fill="none"/><line y2="-31116" y1="-31540" x2="-31000" x1="-31740" fill="none"/><line y2="-30053" y1="-31191" x2="-30792" x1="-30792" fill="none"/><line y2="-31760" y1="-31191" x2="-31777" x1="-32762" fill="none"/><line y2="-29484" y1="-30053" x2="-31777" x1="-30792" fill="none"/><line y2="-29703" y1="-30131" x2="-31740" x1="-31000" fill="none"/><line y2="-31191" y1="-30053" x2="-32762" x1="-32762" fill="none"/><line y2="-31049" y1="-30197" x2="-32592" x1="-32592" fill="none"/><line y2="-30053" y1="-29484" x2="-32762" x1="-31777" fill="none"/><line y2="-31714" y1="-31191" x2="-29885" x1="-30792" fill="none"/><line y2="-31191" y1="-31714" x2="-28978" x1="-29885" fill="none"/><line y2="-32762" y1="-31714" x2="-29885" x1="-29885" fill="none"/><line y2="-31607" y1="-31191" x2="-28259" x1="-28978" fill="none"/><line y2="-31298" y1="-31607" x2="-27352" x1="-27883" fill="none"/><line y2="-30362" y1="-31191" x2="-28909" x1="-28909" fill="none"/><line y2="-30362" y1="-31191" x2="-29050" x1="-29050" fill="none"/><text y="-31535" xml:space="preserve" x="-28224" stroke="none" font-size="433.3333" font-family="sans-serif">O</text><text y="-29963" xml:space="preserve" x="-29131" stroke="none" font-size="433.3333" font-family="sans-serif">O</text><text y="-31012" xml:space="preserve" x="-27317" stroke="none" font-size="433.3333" font-family="sans-serif">CH</text><text y="-30922" xml:space="preserve" x="-26739" stroke="none" font-size="313.3333" font-family="sans-serif">3</text></g></g></svg>