<svg width="264.93" viewBox="0 0 8831 5597" text-rendering="auto" stroke-width="1" stroke-opacity="1" stroke-miterlimit="10" stroke-linejoin="miter" stroke-linecap="square" stroke-dashoffset="0" stroke-dasharray="none" stroke="black" shape-rendering="auto" image-rendering="auto" height="167.91" font-weight="normal" font-style="normal" font-size="12" font-family="'Dialog'" fill-opacity="1" fill="black" color-rendering="auto" color-interpolation="auto" xmlns="http://www.w3.org/2000/svg"><g><g stroke="white" fill="white"><rect y="0" x="0" width="8831" stroke="none" height="5597"/></g><g transform="translate(32866,32758)" text-rendering="geometricPrecision" stroke-width="44" stroke-linejoin="round" stroke-linecap="round"><line y2="-29616" y1="-30680" x2="-28134" x1="-27768" fill="none"/><line y2="-30680" y1="-31376" x2="-27768" x1="-28666" fill="none"/><line y2="-29616" y1="-29616" x2="-29281" x1="-28134" fill="none"/><line y2="-31376" y1="-30680" x2="-28666" x1="-29608" fill="none"/><line y2="-30680" y1="-29616" x2="-29608" x1="-29281" fill="none"/><line y2="-31202" y1="-30680" x2="-26860" x1="-27768" fill="none"/><line y2="-28059" y1="-28888" x2="-27219" x1="-27219" fill="none"/><line y2="-30680" y1="-31202" x2="-25953" x1="-26860" fill="none"/><line y2="-30786" y1="-31202" x2="-31234" x1="-30515" fill="none"/><line y2="-31035" y1="-30786" x2="-32040" x1="-31610" fill="none"/><line y2="-32032" y1="-31202" x2="-30587" x1="-30587" fill="none"/><line y2="-32032" y1="-31243" x2="-30446" x1="-30446" fill="none"/><line y2="-27646" y1="-28059" x2="-26499" x1="-27219" fill="none"/><line y2="-28059" y1="-27646" x2="-25404" x1="-26124" fill="none"/><line y2="-27583" y1="-27999" x2="-27903" x1="-27184" fill="none"/><line y2="-27707" y1="-28120" x2="-27973" x1="-27253" fill="none"/><line y2="-31202" y1="-30680" x2="-25046" x1="-25953" fill="none"/><line y2="-30680" y1="-31202" x2="-24139" x1="-25046" fill="none"/><line y2="-29631" y1="-30680" x2="-25953" x1="-25953" fill="none"/><line y2="-29108" y1="-29631" x2="-25046" x1="-25953" fill="none"/><line y2="-27554" y1="-28059" x2="-24489" x1="-25404" fill="none"/><line y2="-28969" y1="-28059" x2="-24882" x1="-25404" fill="none"/><line y2="-28969" y1="-28059" x2="-25930" x1="-25404" fill="none"/><polygon stroke-width="1" stroke="none" points=" -28666 -31376 -28735 -32202 -28597 -32202"/><polygon stroke-width="1" points=" -28666 -31376 -28735 -32202 -28597 -32202" fill="none"/><polygon stroke-width="1" stroke="none" points=" -26860 -31202 -26927 -32032 -26791 -32032"/><polygon stroke-width="1" points=" -26860 -31202 -26927 -32032 -26791 -32032" fill="none"/><line y2="-31263" y1="-31142" x2="-30480" x1="-30550" fill="none"/><line y2="-31142" y1="-31046" x2="-30300" x1="-30355" fill="none"/><line y2="-31022" y1="-30951" x2="-30119" x1="-30160" fill="none"/><line y2="-30901" y1="-30855" x2="-29939" x1="-29965" fill="none"/><line y2="-30780" y1="-30759" x2="-29758" x1="-29770" fill="none"/><line y2="-29151" y1="-29273" x2="-27441" x1="-27375" fill="none"/><line y2="-29272" y1="-29362" x2="-27622" x1="-27573" fill="none"/><line y2="-29394" y1="-29452" x2="-27802" x1="-27771" fill="none"/><line y2="-29515" y1="-29541" x2="-27983" x1="-27969" fill="none"/><line y2="-30110" y1="-30217" x2="-27196" x1="-27109" fill="none"/><line y2="-30264" y1="-30342" x2="-27350" x1="-27287" fill="none"/><line y2="-30417" y1="-30467" x2="-27504" x1="-27464" fill="none"/><line y2="-30571" y1="-30592" x2="-27659" x1="-27642" fill="none"/><text y="-32072" xml:space="preserve" x="-27011" stroke="none" font-size="433.3333" font-family="sans-serif">NH</text><text y="-31982" xml:space="preserve" x="-26433" stroke="none" font-size="313.3333" font-family="sans-serif">2</text><text y="-28929" xml:space="preserve" x="-27372" stroke="none" font-size="433.3333" font-family="sans-serif">NH</text><text y="-27357" xml:space="preserve" x="-26465" stroke="none" font-size="433.3333" font-family="sans-serif">O</text><text y="-27357" xml:space="preserve" x="-28279" stroke="none" font-size="433.3333" font-family="sans-serif">O</text><text y="-32242" xml:space="preserve" x="-28819" stroke="none" font-size="433.3333" font-family="sans-serif">OH</text><text y="-30500" xml:space="preserve" x="-31575" stroke="none" font-size="433.3333" font-family="sans-serif">O</text><text y="-32072" xml:space="preserve" x="-30668" stroke="none" font-size="433.3333" font-family="sans-serif">O</text><text y="-31185" xml:space="preserve" x="-32762" stroke="none" font-size="433.3333" font-family="sans-serif">CH</text><text y="-31096" xml:space="preserve" x="-32185" stroke="none" font-size="313.3333" font-family="sans-serif">3</text><text y="-29827" xml:space="preserve" x="-27118" stroke="none" font-size="433.3333" font-family="sans-serif">H</text><text y="-30720" xml:space="preserve" x="-27011" stroke="none" font-style="italic" font-size="313.3333" font-family="sans-serif">S</text><text y="-30801" xml:space="preserve" x="-27918" stroke="none" font-style="italic" font-size="313.3333" font-family="sans-serif">S</text><text y="-29723" xml:space="preserve" x="-28519" stroke="none" font-style="italic" font-size="313.3333" font-family="sans-serif">R</text><text y="-30893" xml:space="preserve" x="-28819" stroke="none" font-style="italic" font-size="313.3333" font-family="sans-serif">S</text><text y="-30425" xml:space="preserve" x="-29484" stroke="none" font-style="italic" font-size="313.3333" font-family="sans-serif">S</text></g></g></svg>