<svg width="323.43" viewBox="0 0 10781 2576" text-rendering="auto" stroke-width="1" stroke-opacity="1" stroke-miterlimit="10" stroke-linejoin="miter" stroke-linecap="square" stroke-dashoffset="0" stroke-dasharray="none" stroke="black" shape-rendering="auto" image-rendering="auto" height="77.28" font-weight="normal" font-style="normal" font-size="12" font-family="'Dialog'" fill-opacity="1" fill="black" color-rendering="auto" color-interpolation="auto" xmlns="http://www.w3.org/2000/svg"><g><g stroke="white" fill="white"><rect y="0" x="0" width="10781" stroke="none" height="2576"/></g><g transform="translate(32866,32866)" text-rendering="geometricPrecision" stroke-width="44" stroke-linejoin="round" stroke-linecap="round"><line y2="-30836" y1="-31361" x2="-28444" x1="-29351" fill="none"/><line y2="-31252" y1="-30836" x2="-27724" x1="-28444" fill="none"/><line y2="-30836" y1="-31252" x2="-26629" x1="-27349" fill="none"/><line y2="-31252" y1="-30836" x2="-25910" x1="-26629" fill="none"/><line y2="-30945" y1="-31361" x2="-30070" x1="-29351" fill="none"/><line y2="-32188" y1="-31361" x2="-29420" x1="-29420" fill="none"/><line y2="-32188" y1="-31361" x2="-29281" x1="-29281" fill="none"/><line y2="-31361" y1="-31361" x2="-23223" x1="-24925" fill="none"/><line y2="-30836" y1="-30836" x2="-32147" x1="-30446" fill="none"/><line y2="-32762" y1="-30483" x2="-32762" x1="-32762" fill="none"/><line y2="-32762" y1="-32762" x2="-32488" x1="-32762" fill="none"/><line y2="-30483" y1="-30483" x2="-32488" x1="-32762" fill="none"/><line y2="-32762" y1="-30483" x2="-22611" x1="-22611" fill="none"/><line y2="-32762" y1="-32762" x2="-22882" x1="-22611" fill="none"/><line y2="-30483" y1="-30483" x2="-22882" x1="-22611" fill="none"/><text y="-30656" xml:space="preserve" x="-30411" stroke="none" font-size="433.3333" font-family="sans-serif">O</text><text y="-32228" xml:space="preserve" x="-29504" stroke="none" font-size="433.3333" font-family="sans-serif">O</text><text y="-31182" xml:space="preserve" x="-27690" stroke="none" font-size="433.3333" font-family="sans-serif">O</text><text y="-31182" xml:space="preserve" x="-25875" stroke="none" font-size="433.3333" font-family="sans-serif">CH</text><text y="-31093" xml:space="preserve" x="-25298" stroke="none" font-size="313.3333" font-family="sans-serif">2</text><text y="-30486" xml:space="preserve" x="-22458" stroke="none" font-size="433.3333" font-family="sans-serif">n</text></g></g></svg>