<svg width="197.1" viewBox="0 0 6570 8954" text-rendering="auto" stroke-width="1" stroke-opacity="1" stroke-miterlimit="10" stroke-linejoin="miter" stroke-linecap="square" stroke-dashoffset="0" stroke-dasharray="none" stroke="black" shape-rendering="auto" image-rendering="auto" height="268.62" font-weight="normal" font-style="normal" font-size="12" font-family="'Dialog'" fill-opacity="1" fill="black" color-rendering="auto" color-interpolation="auto" xmlns="http://www.w3.org/2000/svg"><g><g stroke="white" fill="white"><rect y="0" x="0" width="6570" stroke="none" height="8954"/></g><g transform="translate(32866,32758)" text-rendering="geometricPrecision" stroke-width="44" stroke-linejoin="round" stroke-linecap="round"><line y2="-26323" y1="-27470" x2="-29819" x1="-29819" fill="none"/><line y2="-27470" y1="-28042" x2="-29819" x1="-30801" fill="none"/><line y2="-28042" y1="-27470" x2="-28836" x1="-29819" fill="none"/><line y2="-26323" y1="-25751" x2="-29819" x1="-28836" fill="none"/><line y2="-25751" y1="-26323" x2="-30801" x1="-29819" fill="none"/><line y2="-28042" y1="-27470" x2="-30801" x1="-31783" fill="none"/><line y2="-27470" y1="-28042" x2="-27854" x1="-28836" fill="none"/><line y2="-25751" y1="-26323" x2="-28836" x1="-27854" fill="none"/><line y2="-26323" y1="-25751" x2="-31783" x1="-30801" fill="none"/><line y2="-27470" y1="-26323" x2="-31783" x1="-31783" fill="none"/><line y2="-26323" y1="-27470" x2="-27854" x1="-27854" fill="none"/><line y2="-29616" y1="-29091" x2="-31708" x1="-30801" fill="none"/><line y2="-30662" y1="-29616" x2="-31708" x1="-31708" fill="none"/><line y2="-24702" y1="-25751" x2="-28836" x1="-28836" fill="none"/><line y2="-27993" y1="-27470" x2="-32690" x1="-31783" fill="none"/><line y2="-27874" y1="-27352" x2="-32762" x1="-31855" fill="none"/><line y2="-30662" y1="-31358" x2="-31708" x1="-30766" fill="none"/><line y2="-31358" y1="-30662" x2="-32609" x1="-31708" fill="none"/><line y2="-31408" y1="-30885" x2="-32393" x1="-31720" fill="none"/><line y2="-31358" y1="-32202" x2="-30766" x1="-31029" fill="none"/><line y2="-32422" y1="-31358" x2="-32242" x1="-32609" fill="none"/><line y2="-32422" y1="-32422" x2="-31283" x1="-32242" fill="none"/><line y2="-31162" y1="-31425" x2="-29937" x1="-30746" fill="none"/><line y2="-31029" y1="-31292" x2="-29980" x1="-30789" fill="none"/><line y2="-24286" y1="-24702" x2="-28117" x1="-28836" fill="none"/><line y2="-24596" y1="-24286" x2="-27210" x1="-27742" fill="none"/><line y2="-24226" y1="-24642" x2="-29521" x1="-28802" fill="none"/><line y2="-24347" y1="-24763" x2="-29590" x1="-28871" fill="none"/><polygon stroke-width="1" stroke="none" points=" -28836 -25751 -27895 -25286 -27964 -25168"/><polygon stroke-width="1" points=" -28836 -25751 -27895 -25286 -27964 -25168" fill="none"/><polygon stroke-width="1" stroke="none" points=" -29819 -26323 -29749 -25497 -29888 -25494"/><polygon stroke-width="1" points=" -29819 -26323 -29749 -25497 -29888 -25494" fill="none"/><line y2="-29091" y1="-29091" x2="-30734" x1="-30870" fill="none"/><line y2="-28874" y1="-28874" x2="-30748" x1="-30856" fill="none"/><line y2="-28658" y1="-28658" x2="-30762" x1="-30841" fill="none"/><line y2="-28441" y1="-28441" x2="-30776" x1="-30827" fill="none"/><line y2="-28224" y1="-28224" x2="-30789" x1="-30813" fill="none"/><line y2="-28519" y1="-28516" x2="-29749" x1="-29888" fill="none"/><line y2="-28302" y1="-28300" x2="-29763" x1="-29874" fill="none"/><line y2="-28085" y1="-28083" x2="-29778" x1="-29859" fill="none"/><line y2="-27868" y1="-27867" x2="-29792" x1="-29845" fill="none"/><line y2="-27651" y1="-27651" x2="-29807" x1="-29831" fill="none"/><text y="-24000" xml:space="preserve" x="-28082" stroke="none" font-size="433.3333" font-family="sans-serif">O</text><text y="-24000" xml:space="preserve" x="-29897" stroke="none" font-size="433.3333" font-family="sans-serif">O</text><text y="-24523" xml:space="preserve" x="-27175" stroke="none" font-size="433.3333" font-family="sans-serif">CH</text><text y="-24434" xml:space="preserve" x="-26598" stroke="none" font-size="313.3333" font-family="sans-serif">3</text><text y="-30856" xml:space="preserve" x="-29923" stroke="none" font-size="433.3333" font-family="sans-serif">O</text><text y="-32242" xml:space="preserve" x="-31246" stroke="none" font-size="433.3333" font-family="sans-serif">O</text><text y="-25098" xml:space="preserve" x="-29972" stroke="none" font-size="433.3333" font-family="sans-serif">H</text><text y="-27146" xml:space="preserve" x="-29723" stroke="none" font-style="italic" font-size="313.3333" font-family="sans-serif">R</text><text y="-26288" xml:space="preserve" x="-30220" stroke="none" font-style="italic" font-size="313.3333" font-family="sans-serif">R</text><text y="-27562" xml:space="preserve" x="-30954" stroke="none" font-style="italic" font-size="313.3333" font-family="sans-serif">S</text><text y="-25428" xml:space="preserve" x="-29238" stroke="none" font-style="italic" font-size="313.3333" font-family="sans-serif">S</text></g></g></svg>