<svg width="271.65" viewBox="0 0 9055 2530" text-rendering="auto" stroke-width="1" stroke-opacity="1" stroke-miterlimit="10" stroke-linejoin="miter" stroke-linecap="square" stroke-dashoffset="0" stroke-dasharray="none" stroke="black" shape-rendering="auto" image-rendering="auto" height="75.9" font-weight="normal" font-style="normal" font-size="12" font-family="'Dialog'" fill-opacity="1" fill="black" color-rendering="auto" color-interpolation="auto" xmlns="http://www.w3.org/2000/svg"><g><g stroke="white" fill="white"><rect y="0" x="0" width="9055" stroke="none" height="2530"/></g><g transform="translate(32866,32866)" text-rendering="geometricPrecision" stroke-width="44" stroke-linejoin="round" stroke-linecap="round"><line y2="-32762" y1="-31292" x2="-29160" x1="-29160" fill="none"/><line y2="-32762" y1="-32762" x2="-28888" x1="-29160" fill="none"/><line y2="-31292" y1="-31292" x2="-28888" x1="-29160" fill="none"/><line y2="-32762" y1="-31292" x2="-25456" x1="-25456" fill="none"/><line y2="-32762" y1="-32762" x2="-25731" x1="-25456" fill="none"/><line y2="-31292" y1="-31292" x2="-25731" x1="-25456" fill="none"/><line y2="-30440" y1="-31503" x2="-31286" x1="-30919" fill="none"/><line y2="-31503" y1="-32055" x2="-30919" x1="-31630" fill="none"/><line y2="-30440" y1="-30440" x2="-32433" x1="-31286" fill="none"/><line y2="-32060" y1="-31503" x2="-32008" x1="-32762" fill="none"/><line y2="-31503" y1="-30440" x2="-32762" x1="-32433" fill="none"/><line y2="-32029" y1="-31503" x2="-30012" x1="-30919" fill="none"/><line y2="-32029" y1="-32029" x2="-28311" x1="-30012" fill="none"/><line y2="-32552" y1="-32136" x2="-27216" x1="-27935" fill="none"/><line y2="-32029" y1="-32552" x2="-26309" x1="-27216" fill="none"/><line y2="-32029" y1="-32029" x2="-24607" x1="-26309" fill="none"/><text y="-31298" xml:space="preserve" x="-25355" stroke="none" font-size="433.3333" font-family="sans-serif">n</text><text y="-31850" xml:space="preserve" x="-28276" stroke="none" font-size="433.3333" font-family="sans-serif">O</text><text y="-31850" xml:space="preserve" x="-24570" stroke="none" font-size="433.3333" font-family="sans-serif">OH</text><text y="-32020" xml:space="preserve" x="-31971" stroke="none" font-size="433.3333" font-family="sans-serif">O</text></g></g></svg>