<svg width="355.02" viewBox="0 0 11834 4808" text-rendering="auto" stroke-width="1" stroke-opacity="1" stroke-miterlimit="10" stroke-linejoin="miter" stroke-linecap="square" stroke-dashoffset="0" stroke-dasharray="none" stroke="black" shape-rendering="auto" image-rendering="auto" height="144.24" font-weight="normal" font-style="normal" font-size="12" font-family="'Dialog'" fill-opacity="1" fill="black" color-rendering="auto" color-interpolation="auto" xmlns="http://www.w3.org/2000/svg"><g><g stroke="white" fill="white"><rect y="0" x="0" width="11834" stroke="none" height="4808"/></g><g transform="translate(32866,32758)" text-rendering="geometricPrecision" stroke-width="44" stroke-linejoin="round" stroke-linecap="round"><line y2="-30807" y1="-29668" x2="-23293" x1="-23293" fill="none"/><line y2="-29099" y1="-29668" x2="-24275" x1="-23293" fill="none"/><line y2="-29319" y1="-29744" x2="-24237" x1="-23498" fill="none"/><line y2="-29668" y1="-29668" x2="-23293" x1="-21320" fill="none"/><line y2="-30807" y1="-31376" x2="-23293" x1="-24275" fill="none"/><line y2="-30729" y1="-31156" x2="-23498" x1="-24237" fill="none"/><line y2="-31376" y1="-30807" x2="-22305" x1="-23293" fill="none"/><line y2="-29668" y1="-29099" x2="-25263" x1="-24275" fill="none"/><line y2="-29668" y1="-30587" x2="-21320" x1="-21320" fill="none"/><line y2="-31376" y1="-30807" x2="-24275" x1="-25263" fill="none"/><line y2="-30914" y1="-31376" x2="-21507" x1="-22305" fill="none"/><line y2="-30807" y1="-29668" x2="-25263" x1="-25263" fill="none"/><line y2="-30665" y1="-29810" x2="-25092" x1="-25092" fill="none"/><line y2="-31330" y1="-30807" x2="-26170" x1="-25263" fill="none"/><line y2="-30807" y1="-31330" x2="-27077" x1="-26170" fill="none"/><line y2="-28054" y1="-29099" x2="-24275" x1="-24275" fill="none"/><line y2="-29252" y1="-29668" x2="-25979" x1="-25263" fill="none"/><line y2="-29501" y1="-29252" x2="-26785" x1="-26358" fill="none"/><line y2="-32202" y1="-31376" x2="-24275" x1="-24275" fill="none"/><line y2="-32202" y1="-31376" x2="-22374" x1="-22374" fill="none"/><line y2="-32202" y1="-31376" x2="-22232" x1="-22232" fill="none"/><line y2="-31330" y1="-30807" x2="-27984" x1="-27077" fill="none"/><line y2="-31145" y1="-30752" x2="-27938" x1="-27259" fill="none"/><line y2="-30807" y1="-31330" x2="-28891" x1="-27984" fill="none"/><line y2="-31330" y1="-30807" x2="-29798" x1="-28891" fill="none"/><line y2="-30807" y1="-31330" x2="-30706" x1="-29798" fill="none"/><line y2="-32378" y1="-31330" x2="-27984" x1="-27984" fill="none"/><line y2="-31223" y1="-30807" x2="-31425" x1="-30706" fill="none"/><line y2="-30974" y1="-31223" x2="-32231" x1="-31800" fill="none"/><line y2="-29978" y1="-30807" x2="-30636" x1="-30636" fill="none"/><line y2="-29978" y1="-30807" x2="-30775" x1="-30775" fill="none"/><text y="-32242" xml:space="preserve" x="-24428" stroke="none" font-size="433.3333" font-family="sans-serif">OH</text><text y="-32242" xml:space="preserve" x="-22455" stroke="none" font-size="433.3333" font-family="sans-serif">O</text><text y="-28966" xml:space="preserve" x="-26320" stroke="none" font-size="433.3333" font-family="sans-serif">O</text><text y="-29651" xml:space="preserve" x="-27510" stroke="none" font-size="433.3333" font-family="sans-serif">CH</text><text y="-29562" xml:space="preserve" x="-26933" stroke="none" font-size="313.3333" font-family="sans-serif">3</text><text y="-31150" xml:space="preserve" x="-31763" stroke="none" font-size="433.3333" font-family="sans-serif">O</text><text y="-29579" xml:space="preserve" x="-30856" stroke="none" font-size="433.3333" font-family="sans-serif">O</text><text y="-30576" xml:space="preserve" x="-32762" stroke="none" font-size="433.3333" font-family="sans-serif">CH</text><text y="-30486" xml:space="preserve" x="-32185" stroke="none" font-size="313.3333" font-family="sans-serif">3</text><text y="-30628" xml:space="preserve" x="-21473" stroke="none" font-size="433.3333" font-family="sans-serif">O</text><text y="-31275" xml:space="preserve" x="-27458" stroke="none" font-style="italic" font-size="313.3333" font-family="sans-serif">E</text></g></g></svg>