<svg width="178.77" viewBox="0 0 5959 7177" text-rendering="auto" stroke-width="1" stroke-opacity="1" stroke-miterlimit="10" stroke-linejoin="miter" stroke-linecap="square" stroke-dashoffset="0" stroke-dasharray="none" stroke="black" shape-rendering="auto" image-rendering="auto" height="215.31" font-weight="normal" font-style="normal" font-size="12" font-family="'Dialog'" fill-opacity="1" fill="black" color-rendering="auto" color-interpolation="auto" xmlns="http://www.w3.org/2000/svg"><g><g stroke="white" fill="white"><rect y="0" x="0" width="5959" stroke="none" height="7177"/></g><g transform="translate(32866,32758)" text-rendering="geometricPrecision" stroke-width="44" stroke-linejoin="round" stroke-linecap="round"><line y2="-29235" y1="-29804" x2="-28825" x1="-29810" fill="none"/><line y2="-29157" y1="-29585" x2="-29033" x1="-29770" fill="none"/><line y2="-29804" y1="-29235" x2="-29810" x1="-30795" fill="none"/><line y2="-28097" y1="-29235" x2="-28825" x1="-28825" fill="none"/><line y2="-29235" y1="-28097" x2="-30795" x1="-30795" fill="none"/><line y2="-29091" y1="-28238" x2="-30625" x1="-30625" fill="none"/><line y2="-27528" y1="-28097" x2="-29810" x1="-28825" fill="none"/><line y2="-27747" y1="-28172" x2="-29770" x1="-29033" fill="none"/><line y2="-28097" y1="-27528" x2="-30795" x1="-29810" fill="none"/><line y2="-29758" y1="-29235" x2="-27918" x1="-28825" fill="none"/><line y2="-30630" y1="-29804" x2="-29810" x1="-29810" fill="none"/><line y2="-31376" y1="-30960" x2="-28900" x1="-29619" fill="none"/><line y2="-29651" y1="-29235" x2="-31514" x1="-30795" fill="none"/><line y2="-26699" y1="-27528" x2="-29810" x1="-29810" fill="none"/><line y2="-29235" y1="-29758" x2="-27011" x1="-27918" fill="none"/><line y2="-30665" y1="-29758" x2="-27395" x1="-27918" fill="none"/><line y2="-30665" y1="-29758" x2="-28441" x1="-27918" fill="none"/><line y2="-30836" y1="-31376" x2="-28004" x1="-28900" fill="none"/><line y2="-32202" y1="-31376" x2="-28972" x1="-28972" fill="none"/><line y2="-32202" y1="-31376" x2="-28831" x1="-28831" fill="none"/><line y2="-30587" y1="-29978" x2="-31772" x1="-31772" fill="none"/><line y2="-30587" y1="-29978" x2="-31633" x1="-31633" fill="none"/><line y2="-29281" y1="-29590" x2="-32387" x1="-31855" fill="none"/><line y2="-29403" y1="-29712" x2="-32456" x1="-31925" fill="none"/><line y2="-26005" y1="-26312" x2="-30492" x1="-29963" fill="none"/><line y2="-26127" y1="-26433" x2="-30564" x1="-30032" fill="none"/><line y2="-26127" y1="-26433" x2="-29053" x1="-29585" fill="none"/><line y2="-26005" y1="-26312" x2="-29125" x1="-29657" fill="none"/><text y="-30671" xml:space="preserve" x="-29960" stroke="none" font-size="433.3333" font-family="sans-serif">O</text><text y="-32242" xml:space="preserve" x="-29053" stroke="none" font-size="433.3333" font-family="sans-serif">O</text><text y="-29579" xml:space="preserve" x="-31855" stroke="none" font-size="433.3333" font-family="sans-serif">N</text><text y="-30628" xml:space="preserve" x="-31855" stroke="none" font-size="433.3333" font-family="sans-serif">O</text><text y="-29056" xml:space="preserve" x="-32762" stroke="none" font-size="433.3333" font-family="sans-serif">O</text><text y="-26303" xml:space="preserve" x="-29960" stroke="none" font-size="433.3333" font-family="sans-serif">N</text><text y="-25777" xml:space="preserve" x="-30867" stroke="none" font-size="433.3333" font-family="sans-serif">O</text><text y="-25777" xml:space="preserve" x="-29053" stroke="none" font-size="433.3333" font-family="sans-serif">O</text></g></g></svg>