<svg width="197.82" viewBox="0 0 6594 4286" text-rendering="auto" stroke-width="1" stroke-opacity="1" stroke-miterlimit="10" stroke-linejoin="miter" stroke-linecap="square" stroke-dashoffset="0" stroke-dasharray="none" stroke="black" shape-rendering="auto" image-rendering="auto" height="128.58" font-weight="normal" font-style="normal" font-size="12" font-family="'Dialog'" fill-opacity="1" fill="black" color-rendering="auto" color-interpolation="auto" xmlns="http://www.w3.org/2000/svg"><g><g stroke="white" fill="white"><rect y="0" x="0" width="6594" stroke="none" height="4286"/></g><g transform="translate(32866,32758)" text-rendering="geometricPrecision" stroke-width="44" stroke-linejoin="round" stroke-linecap="round"><line y2="-30281" y1="-30850" x2="-29723" x1="-30706" fill="none"/><line y2="-29146" y1="-30281" x2="-29723" x1="-29723" fill="none"/><line y2="-30850" y1="-30281" x2="-30706" x1="-31694" fill="none"/><line y2="-28576" y1="-29146" x2="-30706" x1="-29723" fill="none"/><line y2="-30281" y1="-29146" x2="-31694" x1="-31694" fill="none"/><line y2="-29146" y1="-28576" x2="-31694" x1="-30706" fill="none"/><line y2="-30391" y1="-30807" x2="-28097" x1="-28816" fill="none"/><line y2="-30697" y1="-30391" x2="-27190" x1="-27718" fill="none"/><line y2="-31636" y1="-30847" x2="-28886" x1="-28886" fill="none"/><line y2="-31636" y1="-30807" x2="-28744" x1="-28744" fill="none"/><line y2="-32315" y1="-31899" x2="-31425" x1="-30706" fill="none"/><line y2="-32066" y1="-32315" x2="-32231" x1="-31800" fill="none"/><line y2="-32375" y1="-31959" x2="-30021" x1="-30740" fill="none"/><line y2="-32254" y1="-31858" x2="-29952" x1="-30636" fill="none"/><polygon stroke-width="1" stroke="none" points=" -30706 -30850 -30775 -31899 -30636 -31899"/><polygon stroke-width="1" points=" -30706 -30850 -30775 -31899 -30636 -31899" fill="none"/><line y2="-30746" y1="-30864" x2="-28779" x1="-28848" fill="none"/><line y2="-30650" y1="-30744" x2="-28974" x1="-29029" fill="none"/><line y2="-30554" y1="-30623" x2="-29169" x1="-29209" fill="none"/><line y2="-30458" y1="-30503" x2="-29364" x1="-29390" fill="none"/><line y2="-30362" y1="-30383" x2="-29558" x1="-29570" fill="none"/><text y="-30102" xml:space="preserve" x="-28059" stroke="none" font-size="433.3333" font-family="sans-serif">O</text><text y="-31676" xml:space="preserve" x="-28966" stroke="none" font-size="433.3333" font-family="sans-serif">O</text><text y="-30628" xml:space="preserve" x="-27152" stroke="none" font-size="433.3333" font-family="sans-serif">CH</text><text y="-30538" xml:space="preserve" x="-26574" stroke="none" font-size="313.3333" font-family="sans-serif">3</text><text y="-32242" xml:space="preserve" x="-31766" stroke="none" font-size="433.3333" font-family="sans-serif">O</text><text y="-32242" xml:space="preserve" x="-29952" stroke="none" font-size="433.3333" font-family="sans-serif">O</text><text y="-31668" xml:space="preserve" x="-32762" stroke="none" font-size="433.3333" font-family="sans-serif">CH</text><text y="-31578" xml:space="preserve" x="-32185" stroke="none" font-size="313.3333" font-family="sans-serif">3</text><text y="-29960" xml:space="preserve" x="-30122" stroke="none" font-style="italic" font-size="313.3333" font-family="sans-serif">R</text><text y="-30370" xml:space="preserve" x="-30859" stroke="none" font-style="italic" font-size="313.3333" font-family="sans-serif">R</text></g></g></svg>