<svg width="99.81" viewBox="0 0 3327 3944" text-rendering="auto" stroke-width="1" stroke-opacity="1" stroke-miterlimit="10" stroke-linejoin="miter" stroke-linecap="square" stroke-dashoffset="0" stroke-dasharray="none" stroke="black" shape-rendering="auto" image-rendering="auto" height="118.32" font-weight="normal" font-style="normal" font-size="12" font-family="'Dialog'" fill-opacity="1" fill="black" color-rendering="auto" color-interpolation="auto" xmlns="http://www.w3.org/2000/svg"><g><g stroke="white" fill="white"><rect y="0" x="0" width="3327" stroke="none" height="3944"/></g><g transform="translate(32866,32758)" text-rendering="geometricPrecision" stroke-width="44" stroke-linejoin="round" stroke-linecap="round"><line y2="-30238" y1="-31376" x2="-31624" x1="-31624" fill="none"/><line y2="-31376" y1="-31376" x2="-31624" x1="-32762" fill="none"/><line y2="-30238" y1="-30238" x2="-32762" x1="-31624" fill="none"/><line y2="-31376" y1="-30238" x2="-32762" x1="-32762" fill="none"/><line y2="-32315" y1="-31899" x2="-29998" x1="-30717" fill="none"/><line y2="-32393" y1="-31977" x2="-30044" x1="-30763" fill="none"/><line y2="-32237" y1="-31821" x2="-29954" x1="-30674" fill="none"/><line y2="-29299" y1="-29715" x2="-29998" x1="-30717" fill="none"/><line y2="-29377" y1="-29793" x2="-29954" x1="-30674" fill="none"/><line y2="-29221" y1="-29637" x2="-30044" x1="-30763" fill="none"/><polygon stroke-width="1" stroke="none" points=" -31624 -31376 -30752 -31956 -30682 -31838"/><polygon stroke-width="1" points=" -31624 -31376 -30752 -31956 -30682 -31838" fill="none"/><line y2="-29654" y1="-29772" x2="-30752" x1="-30682" fill="none"/><line y2="-29775" y1="-29868" x2="-30932" x1="-30877" fill="none"/><line y2="-29895" y1="-29965" x2="-31113" x1="-31072" fill="none"/><line y2="-30016" y1="-30061" x2="-31293" x1="-31266" fill="none"/><line y2="-30137" y1="-30157" x2="-31473" x1="-31461" fill="none"/><text y="-32242" xml:space="preserve" x="-29963" stroke="none" font-size="433.3333" font-family="sans-serif">N</text><text y="-29010" xml:space="preserve" x="-29963" stroke="none" font-size="433.3333" font-family="sans-serif">N</text><text y="-30919" xml:space="preserve" x="-32020" stroke="none" font-style="italic" font-size="313.3333" font-family="sans-serif">R</text><text y="-30333" xml:space="preserve" x="-32020" stroke="none" font-style="italic" font-size="313.3333" font-family="sans-serif">R</text></g></g></svg>