<svg width="152.31" viewBox="0 0 5077 5091" text-rendering="auto" stroke-width="1" stroke-opacity="1" stroke-miterlimit="10" stroke-linejoin="miter" stroke-linecap="square" stroke-dashoffset="0" stroke-dasharray="none" stroke="black" shape-rendering="auto" image-rendering="auto" height="152.73" font-weight="normal" font-style="normal" font-size="12" font-family="'Dialog'" fill-opacity="1" fill="black" color-rendering="auto" color-interpolation="auto" xmlns="http://www.w3.org/2000/svg"><g><g stroke="white" fill="white"><rect y="0" x="0" width="5077" stroke="none" height="5091"/></g><g transform="translate(32866,32758)" text-rendering="geometricPrecision" stroke-width="44" stroke-linejoin="round" stroke-linecap="round"><line y2="-30680" y1="-31228" x2="-29963" x1="-30674" fill="none"/><line y2="-31237" y1="-30680" x2="-31052" x1="-31806" fill="none"/><line y2="-29616" y1="-30680" x2="-30330" x1="-29963" fill="none"/><line y2="-30680" y1="-29616" x2="-31806" x1="-31477" fill="none"/><line y2="-29616" y1="-29616" x2="-31477" x1="-30330" fill="none"/><line y2="-29784" y1="-29784" x2="-31335" x1="-30474" fill="none"/><line y2="-29091" y1="-29616" x2="-29423" x1="-30330" fill="none"/><line y2="-30220" y1="-30680" x2="-29021" x1="-29963" fill="none"/><line y2="-31566" y1="-30680" x2="-29408" x1="-29963" fill="none"/><line y2="-30252" y1="-30680" x2="-32762" x1="-31806" fill="none"/><line y2="-31587" y1="-30680" x2="-32329" x1="-31806" fill="none"/><line y2="-32202" y1="-31595" x2="-30864" x1="-30864" fill="none"/><line y2="-29507" y1="-29091" x2="-28704" x1="-29423" fill="none"/><line y2="-28262" y1="-29091" x2="-29354" x1="-29354" fill="none"/><line y2="-28262" y1="-29091" x2="-29495" x1="-29495" fill="none"/><text y="-32242" xml:space="preserve" x="-31015" stroke="none" font-size="433.3333" font-family="sans-serif">O</text><text y="-29437" xml:space="preserve" x="-28669" stroke="none" font-size="433.3333" font-family="sans-serif">NH</text><text y="-29348" xml:space="preserve" x="-28091" stroke="none" font-size="313.3333" font-family="sans-serif">2</text><text y="-27863" xml:space="preserve" x="-29576" stroke="none" font-size="433.3333" font-family="sans-serif">O</text><text y="-31197" xml:space="preserve" x="-31015" stroke="none" font-size="433.3333" font-family="sans-serif">N</text></g></g></svg>