<svg width="317.07" viewBox="0 0 10569 5129" text-rendering="auto" stroke-width="1" stroke-opacity="1" stroke-miterlimit="10" stroke-linejoin="miter" stroke-linecap="square" stroke-dashoffset="0" stroke-dasharray="none" stroke="black" shape-rendering="auto" image-rendering="auto" height="153.87" font-weight="normal" font-style="normal" font-size="12" font-family="'Dialog'" fill-opacity="1" fill="black" color-rendering="auto" color-interpolation="auto" xmlns="http://www.w3.org/2000/svg"><g><g stroke="white" fill="white"><rect y="0" x="0" width="10569" stroke="none" height="5129"/></g><g transform="translate(32866,32758)" text-rendering="geometricPrecision" stroke-width="44" stroke-linejoin="round" stroke-linecap="round"><line y2="-29053" y1="-30191" x2="-26765" x1="-26765" fill="none"/><line y2="-30758" y1="-30191" x2="-25783" x1="-26765" fill="none"/><line y2="-30191" y1="-30651" x2="-26765" x1="-27562" fill="none"/><line y2="-29053" y1="-29053" x2="-28732" x1="-26765" fill="none"/><line y2="-29053" y1="-28484" x2="-26765" x1="-25783" fill="none"/><line y2="-30191" y1="-30758" x2="-24795" x1="-25783" fill="none"/><line y2="-31896" y1="-30758" x2="-25783" x1="-25783" fill="none"/><line y2="-31754" y1="-30902" x2="-25612" x1="-25612" fill="none"/><line y2="-30651" y1="-30191" x2="-27938" x1="-28732" fill="none"/><line y2="-30191" y1="-29053" x2="-28732" x1="-28732" fill="none"/><line y2="-28484" y1="-29053" x2="-29720" x1="-28732" fill="none"/><line y2="-28704" y1="-29131" x2="-29683" x1="-28940" fill="none"/><line y2="-28484" y1="-28943" x2="-25783" x1="-24983" fill="none"/><line y2="-29273" y1="-30191" x2="-24795" x1="-24795" fill="none"/><line y2="-30191" y1="-30758" x2="-24795" x1="-23810" fill="none"/><line y2="-30408" y1="-30836" x2="-24757" x1="-24018" fill="none"/><line y2="-32465" y1="-31896" x2="-24795" x1="-25783" fill="none"/><line y2="-30191" y1="-30758" x2="-28732" x1="-29720" fill="none"/><line y2="-30113" y1="-30541" x2="-28940" x1="-29683" fill="none"/><line y2="-29053" y1="-28484" x2="-30706" x1="-29720" fill="none"/><line y2="-30758" y1="-31896" x2="-23810" x1="-23810" fill="none"/><line y2="-31896" y1="-32465" x2="-23810" x1="-24795" fill="none"/><line y2="-31821" y1="-32245" x2="-24018" x1="-24757" fill="none"/><line y2="-30758" y1="-30191" x2="-29720" x1="-30706" fill="none"/><line y2="-30191" y1="-29053" x2="-30706" x1="-30706" fill="none"/><line y2="-30047" y1="-29195" x2="-30535" x1="-30535" fill="none"/><line y2="-30604" y1="-30191" x2="-31422" x1="-30706" fill="none"/><line y2="-30359" y1="-30604" x2="-32228" x1="-31800" fill="none"/><line y2="-32312" y1="-31896" x2="-23090" x1="-23810" fill="none"/><line y2="-31018" y1="-31018" x2="-26699" x1="-26834" fill="none"/><line y2="-30801" y1="-30801" x2="-26716" x1="-26816" fill="none"/><line y2="-30585" y1="-30585" x2="-26734" x1="-26798" fill="none"/><line y2="-30368" y1="-30368" x2="-26751" x1="-26780" fill="none"/><line y2="-28224" y1="-28224" x2="-26834" x1="-26699" fill="none"/><line y2="-28441" y1="-28441" x2="-26816" x1="-26716" fill="none"/><line y2="-28657" y1="-28657" x2="-26798" x1="-26733" fill="none"/><line y2="-28874" y1="-28874" x2="-26780" x1="-26751" fill="none"/><text y="-32242" xml:space="preserve" x="-23056" stroke="none" font-size="433.3333" font-family="sans-serif">OH</text><text y="-30535" xml:space="preserve" x="-31763" stroke="none" font-size="433.3333" font-family="sans-serif">O</text><text y="-29960" xml:space="preserve" x="-32762" stroke="none" font-size="433.3333" font-family="sans-serif">CH</text><text y="-29871" xml:space="preserve" x="-32185" stroke="none" font-size="313.3333" font-family="sans-serif">3</text><text y="-30578" xml:space="preserve" x="-27903" stroke="none" font-size="433.3333" font-family="sans-serif">O</text><text y="-28874" xml:space="preserve" x="-24945" stroke="none" font-size="433.3333" font-family="sans-serif">O</text><text y="-31058" xml:space="preserve" x="-26918" stroke="none" font-size="433.3333" font-family="sans-serif">H</text><text y="-27825" xml:space="preserve" x="-26918" stroke="none" font-size="433.3333" font-family="sans-serif">H</text><text y="-29868" xml:space="preserve" x="-26670" stroke="none" font-style="italic" font-size="313.3333" font-family="sans-serif">R</text><text y="-29018" xml:space="preserve" x="-26670" stroke="none" font-style="italic" font-size="313.3333" font-family="sans-serif">R</text></g></g></svg>