<svg width="203.52" viewBox="0 0 6784 5605" text-rendering="auto" stroke-width="1" stroke-opacity="1" stroke-miterlimit="10" stroke-linejoin="miter" stroke-linecap="square" stroke-dashoffset="0" stroke-dasharray="none" stroke="black" shape-rendering="auto" image-rendering="auto" height="168.15" font-weight="normal" font-style="normal" font-size="12" font-family="'Dialog'" fill-opacity="1" fill="black" color-rendering="auto" color-interpolation="auto" xmlns="http://www.w3.org/2000/svg"><g><g stroke="white" fill="white"><rect y="0" x="0" width="6784" stroke="none" height="5605"/></g><g transform="translate(32866,32758)" text-rendering="geometricPrecision" stroke-width="44" stroke-linejoin="round" stroke-linecap="round"><line y2="-29099" y1="-29668" x2="-30515" x1="-29530" fill="none"/><line y2="-29319" y1="-29744" x2="-30477" x1="-29738" fill="none"/><line y2="-29668" y1="-30587" x2="-29530" x1="-29530" fill="none"/><line y2="-29668" y1="-29099" x2="-31500" x1="-30515" fill="none"/><line y2="-30914" y1="-31376" x2="-29720" x1="-30515" fill="none"/><line y2="-30824" y1="-31171" x2="-29902" x1="-30500" fill="none"/><line y2="-30807" y1="-29668" x2="-31500" x1="-31500" fill="none"/><line y2="-30665" y1="-29810" x2="-31332" x1="-31332" fill="none"/><line y2="-31376" y1="-30807" x2="-30515" x1="-31500" fill="none"/><line y2="-29146" y1="-29668" x2="-28623" x1="-29530" fill="none"/><line y2="-28054" y1="-29099" x2="-30515" x1="-30515" fill="none"/><line y2="-32202" y1="-31376" x2="-30515" x1="-30515" fill="none"/><line y2="-29562" y1="-29146" x2="-27903" x1="-28623" fill="none"/><line y2="-29252" y1="-29562" x2="-26996" x1="-27528" fill="none"/><line y2="-28316" y1="-29146" x2="-28553" x1="-28553" fill="none"/><line y2="-28316" y1="-29146" x2="-28695" x1="-28695" fill="none"/><line y2="-27638" y1="-28054" x2="-31234" x1="-30515" fill="none"/><line y2="-27886" y1="-27638" x2="-32040" x1="-31610" fill="none"/><line y2="-27698" y1="-28114" x2="-29761" x1="-30480" fill="none"/><line y2="-27577" y1="-27990" x2="-29830" x1="-30550" fill="none"/><text y="-29489" xml:space="preserve" x="-27869" stroke="none" font-size="433.3333" font-family="sans-serif">O</text><text y="-27918" xml:space="preserve" x="-28776" stroke="none" font-size="433.3333" font-family="sans-serif">O</text><text y="-28966" xml:space="preserve" x="-26962" stroke="none" font-size="433.3333" font-family="sans-serif">CH</text><text y="-28877" xml:space="preserve" x="-26384" stroke="none" font-size="313.3333" font-family="sans-serif">3</text><text y="-27349" xml:space="preserve" x="-31575" stroke="none" font-size="433.3333" font-family="sans-serif">O</text><text y="-27349" xml:space="preserve" x="-29758" stroke="none" font-size="433.3333" font-family="sans-serif">O</text><text y="-28036" xml:space="preserve" x="-32762" stroke="none" font-size="433.3333" font-family="sans-serif">CH</text><text y="-27947" xml:space="preserve" x="-32185" stroke="none" font-size="313.3333" font-family="sans-serif">3</text><text y="-32242" xml:space="preserve" x="-30746" stroke="none" font-size="433.3333" font-family="sans-serif">Cl</text><text y="-30628" xml:space="preserve" x="-29683" stroke="none" font-size="433.3333" font-family="sans-serif">N</text></g></g></svg>