<svg width="144.18" viewBox="0 0 4806 4196" text-rendering="auto" stroke-width="1" stroke-opacity="1" stroke-miterlimit="10" stroke-linejoin="miter" stroke-linecap="square" stroke-dashoffset="0" stroke-dasharray="none" stroke="black" shape-rendering="auto" image-rendering="auto" height="125.88" font-weight="normal" font-style="normal" font-size="12" font-family="'Dialog'" fill-opacity="1" fill="black" color-rendering="auto" color-interpolation="auto" xmlns="http://www.w3.org/2000/svg"><g><g stroke="white" fill="white"><rect y="0" x="0" width="4806" stroke="none" height="4196"/></g><g transform="translate(32866,32758)" text-rendering="geometricPrecision" stroke-width="44" stroke-linejoin="round" stroke-linecap="round"><line y2="-29787" y1="-30850" x2="-30850" x1="-30480" fill="none"/><line y2="-29975" y1="-30772" x2="-30966" x1="-30688" fill="none"/><line y2="-30850" y1="-31402" x2="-30480" x1="-31194" fill="none"/><line y2="-29787" y1="-29787" x2="-31994" x1="-30850" fill="none"/><line y2="-31408" y1="-30850" x2="-31569" x1="-32323" fill="none"/><line y2="-30850" y1="-29787" x2="-32323" x1="-31994" fill="none"/><line y2="-30766" y1="-29972" x2="-32118" x1="-31873" fill="none"/><line y2="-31376" y1="-30850" x2="-29573" x1="-30480" fill="none"/><line y2="-29157" y1="-29787" x2="-32450" x1="-31994" fill="none"/><line y2="-30960" y1="-31376" x2="-28854" x1="-29573" fill="none"/><line y2="-32202" y1="-31376" x2="-29642" x1="-29642" fill="none"/><line y2="-32202" y1="-31376" x2="-29504" x1="-29504" fill="none"/><text y="-30671" xml:space="preserve" x="-28819" stroke="none" font-size="433.3333" font-family="sans-serif">OH</text><text y="-32242" xml:space="preserve" x="-29726" stroke="none" font-size="433.3333" font-family="sans-serif">O</text><text y="-28758" xml:space="preserve" x="-32762" stroke="none" font-size="433.3333" font-family="sans-serif">F</text><text y="-31367" xml:space="preserve" x="-31532" stroke="none" font-size="433.3333" font-family="sans-serif">S</text></g></g></svg>