<svg width="387.21" viewBox="0 0 12907 3190" text-rendering="auto" stroke-width="1" stroke-opacity="1" stroke-miterlimit="10" stroke-linejoin="miter" stroke-linecap="square" stroke-dashoffset="0" stroke-dasharray="none" stroke="black" shape-rendering="auto" image-rendering="auto" height="95.7" font-weight="normal" font-style="normal" font-size="12" font-family="'Dialog'" fill-opacity="1" fill="black" color-rendering="auto" color-interpolation="auto" xmlns="http://www.w3.org/2000/svg"><g><g stroke="white" fill="white"><rect y="0" x="0" width="12907" stroke="none" height="3190"/></g><g transform="translate(32866,32758)" text-rendering="geometricPrecision" stroke-width="44" stroke-linejoin="round" stroke-linecap="round"><line y2="-31514" y1="-30992" x2="-20970" x1="-21877" fill="none"/><line y2="-31408" y1="-30992" x2="-22596" x1="-21877" fill="none"/><line y2="-30992" y1="-31408" x2="-23691" x1="-22972" fill="none"/><line y2="-31514" y1="-30992" x2="-24598" x1="-23691" fill="none"/><line y2="-31098" y1="-31514" x2="-25318" x1="-24598" fill="none"/><line y2="-31408" y1="-31098" x2="-26225" x1="-25693" fill="none"/><line y2="-30162" y1="-30992" x2="-21808" x1="-21808" fill="none"/><line y2="-30162" y1="-30992" x2="-21946" x1="-21946" fill="none"/><line y2="-30992" y1="-31514" x2="-20063" x1="-20970" fill="none"/><line y2="-32563" y1="-31514" x2="-20970" x1="-20970" fill="none"/><line y2="-32563" y1="-31514" x2="-20831" x1="-20831" fill="none"/><line y2="-31098" y1="-31408" x2="-27132" x1="-26600" fill="none"/><line y2="-31514" y1="-31098" x2="-28227" x1="-27508" fill="none"/><line y2="-30992" y1="-31514" x2="-29134" x1="-28227" fill="none"/><line y2="-31408" y1="-30992" x2="-29853" x1="-29134" fill="none"/><line y2="-30992" y1="-31408" x2="-30948" x1="-30229" fill="none"/><line y2="-32202" y1="-31734" x2="-26808" x1="-26540" fill="none"/><line y2="-32237" y1="-31769" x2="-26078" x1="-26346" fill="none"/><line y2="-32167" y1="-31699" x2="-25956" x1="-26225" fill="none"/><line y2="-31514" y1="-30992" x2="-31855" x1="-30948" fill="none"/><line y2="-30162" y1="-30992" x2="-30879" x1="-30879" fill="none"/><line y2="-30162" y1="-30992" x2="-31018" x1="-31018" fill="none"/><line y2="-30992" y1="-31514" x2="-32762" x1="-31855" fill="none"/><line y2="-32563" y1="-31514" x2="-31855" x1="-31855" fill="none"/><line y2="-32563" y1="-31514" x2="-31717" x1="-31717" fill="none"/><text y="-31335" xml:space="preserve" x="-26566" stroke="none" font-size="433.3333" font-family="sans-serif">P</text><text y="-30812" xml:space="preserve" x="-25659" stroke="none" font-size="433.3333" font-family="sans-serif">O</text><text y="-30812" xml:space="preserve" x="-27473" stroke="none" font-size="433.3333" font-family="sans-serif">O</text><text y="-32242" xml:space="preserve" x="-26040" stroke="none" font-size="433.3333" font-family="sans-serif">O</text><text y="-32242" xml:space="preserve" x="-27089" stroke="none" font-size="433.3333" font-family="sans-serif">OH</text><text y="-31335" xml:space="preserve" x="-22937" stroke="none" font-size="433.3333" font-family="sans-serif">O</text><text y="-31335" xml:space="preserve" x="-30194" stroke="none" font-size="433.3333" font-family="sans-serif">O</text><text y="-29764" xml:space="preserve" x="-22030" stroke="none" font-size="433.3333" font-family="sans-serif">O</text><text y="-29764" xml:space="preserve" x="-31101" stroke="none" font-size="433.3333" font-family="sans-serif">O</text></g></g></svg>