<svg width="321.99" viewBox="0 0 10733 7085" text-rendering="auto" stroke-width="1" stroke-opacity="1" stroke-miterlimit="10" stroke-linejoin="miter" stroke-linecap="square" stroke-dashoffset="0" stroke-dasharray="none" stroke="black" shape-rendering="auto" image-rendering="auto" height="212.55" font-weight="normal" font-style="normal" font-size="12" font-family="'Dialog'" fill-opacity="1" fill="black" color-rendering="auto" color-interpolation="auto" xmlns="http://www.w3.org/2000/svg"><g><g stroke="white" fill="white"><rect y="0" x="0" width="10733" stroke="none" height="7085"/></g><g transform="translate(32866,32758)" text-rendering="geometricPrecision" stroke-width="44" stroke-linejoin="round" stroke-linecap="round"><line y2="-29146" y1="-29715" x2="-26101" x1="-27083" fill="none"/><line y2="-29068" y1="-29495" x2="-26309" x1="-27045" fill="none"/><line y2="-28007" y1="-29146" x2="-26101" x1="-26101" fill="none"/><line y2="-29715" y1="-29146" x2="-27083" x1="-28071" fill="none"/><line y2="-27438" y1="-28007" x2="-27083" x1="-26101" fill="none"/><line y2="-27658" y1="-28082" x2="-27045" x1="-26309" fill="none"/><line y2="-29146" y1="-28007" x2="-28071" x1="-28071" fill="none"/><line y2="-29001" y1="-28149" x2="-27900" x1="-27900" fill="none"/><line y2="-28007" y1="-27438" x2="-28071" x1="-27083" fill="none"/><line y2="-29668" y1="-29146" x2="-25194" x1="-26101" fill="none"/><line y2="-27484" y1="-28007" x2="-28978" x1="-28071" fill="none"/><line y2="-30541" y1="-29715" x2="-27083" x1="-27083" fill="none"/><line y2="-30807" y1="-29668" x2="-25194" x1="-25194" fill="none"/><line y2="-30665" y1="-29810" x2="-25023" x1="-25023" fill="none"/><line y2="-29668" y1="-29099" x2="-25194" x1="-24211" fill="none"/><line y2="-31376" y1="-30807" x2="-24211" x1="-25194" fill="none"/><line y2="-29099" y1="-29668" x2="-24211" x1="-23223" fill="none"/><line y2="-29319" y1="-29746" x2="-24171" x1="-23431" fill="none"/><line y2="-30807" y1="-31376" x2="-23223" x1="-24211" fill="none"/><line y2="-30729" y1="-31156" x2="-23431" x1="-24171" fill="none"/><line y2="-29668" y1="-30807" x2="-23223" x1="-23223" fill="none"/><line y2="-32202" y1="-31376" x2="-24211" x1="-24211" fill="none"/><line y2="-29252" y1="-29668" x2="-22504" x1="-23223" fill="none"/><line y2="-31223" y1="-30807" x2="-22504" x1="-23223" fill="none"/><line y2="-26346" y1="-27484" x2="-28978" x1="-28978" fill="none"/><line y2="-26488" y1="-27340" x2="-29148" x1="-29148" fill="none"/><line y2="-27484" y1="-28054" x2="-28978" x1="-29960" fill="none"/><line y2="-25777" y1="-26346" x2="-29960" x1="-28978" fill="none"/><line y2="-28054" y1="-27484" x2="-29960" x1="-30948" fill="none"/><line y2="-27834" y1="-27406" x2="-30001" x1="-30740" fill="none"/><line y2="-26346" y1="-25777" x2="-30948" x1="-29960" fill="none"/><line y2="-26424" y1="-25997" x2="-30740" x1="-30001" fill="none"/><line y2="-27484" y1="-26346" x2="-30948" x1="-30948" fill="none"/><line y2="-25823" y1="-26346" x2="-31855" x1="-30948" fill="none"/><line y2="-26346" y1="-25823" x2="-32762" x1="-31855" fill="none"/><text y="-30581" xml:space="preserve" x="-27236" stroke="none" font-size="433.3333" font-family="sans-serif">F</text><text y="-32242" xml:space="preserve" x="-24362" stroke="none" font-size="433.3333" font-family="sans-serif">F</text><text y="-28966" xml:space="preserve" x="-22469" stroke="none" font-size="433.3333" font-family="sans-serif">F</text><text y="-31150" xml:space="preserve" x="-22469" stroke="none" font-size="433.3333" font-family="sans-serif">F</text></g></g></svg>