<svg width="480.99" viewBox="0 0 16033 8106" text-rendering="auto" stroke-width="1" stroke-opacity="1" stroke-miterlimit="10" stroke-linejoin="miter" stroke-linecap="square" stroke-dashoffset="0" stroke-dasharray="none" stroke="black" shape-rendering="auto" image-rendering="auto" height="243.18" font-weight="normal" font-style="normal" font-size="12" font-family="'Dialog'" fill-opacity="1" fill="black" color-rendering="auto" color-interpolation="auto" xmlns="http://www.w3.org/2000/svg"><g><g stroke="white" fill="white"><rect y="0" x="0" width="16033" stroke="none" height="8106"/></g><g transform="translate(32866,32866)" text-rendering="geometricPrecision" stroke-width="44" stroke-linejoin="round" stroke-linecap="round"><line y2="-28634" y1="-29050" x2="-25537" x1="-26257" fill="none"/><line y2="-28992" y1="-28744" x2="-24538" x1="-24968" fill="none"/><line y2="-28576" y1="-28883" x2="-23443" x1="-23972" fill="none"/><line y2="-28524" y1="-29050" x2="-27164" x1="-26257" fill="none"/><line y2="-29050" y1="-28524" x2="-28071" x1="-27164" fill="none"/><line y2="-28524" y1="-29050" x2="-28978" x1="-28071" fill="none"/><line y2="-29879" y1="-29050" x2="-26326" x1="-26326" fill="none"/><line y2="-29879" y1="-29050" x2="-26187" x1="-26187" fill="none"/><line y2="-29102" y1="-28576" x2="-22536" x1="-23443" fill="none"/><line y2="-28576" y1="-29102" x2="-21629" x1="-22536" fill="none"/><line y2="-29102" y1="-28576" x2="-20722" x1="-21629" fill="none"/><line y2="-27750" y1="-28576" x2="-23374" x1="-23374" fill="none"/><line y2="-27750" y1="-28576" x2="-23515" x1="-23515" fill="none"/><line y2="-27389" y1="-28524" x2="-28978" x1="-28978" fill="none"/><line y2="-27531" y1="-28383" x2="-29148" x1="-29148" fill="none"/><line y2="-28524" y1="-29094" x2="-28978" x1="-29960" fill="none"/><line y2="-26820" y1="-27389" x2="-29960" x1="-28978" fill="none"/><line y2="-29094" y1="-28524" x2="-29960" x1="-30948" fill="none"/><line y2="-28877" y1="-28449" x2="-30001" x1="-30740" fill="none"/><line y2="-27389" y1="-26820" x2="-30948" x1="-29960" fill="none"/><line y2="-27464" y1="-27037" x2="-30740" x1="-30001" fill="none"/><line y2="-28524" y1="-27389" x2="-30948" x1="-30948" fill="none"/><line y2="-25771" y1="-26820" x2="-29960" x1="-29960" fill="none"/><line y2="-29050" y1="-28524" x2="-31855" x1="-30948" fill="none"/><line y2="-27083" y1="-27389" x2="-31474" x1="-30948" fill="none"/><line y2="-30238" y1="-29102" x2="-20722" x1="-20722" fill="none"/><line y2="-30096" y1="-29244" x2="-20551" x1="-20551" fill="none"/><line y2="-29102" y1="-28533" x2="-20722" x1="-19739" fill="none"/><line y2="-30807" y1="-30238" x2="-19739" x1="-20722" fill="none"/><line y2="-28533" y1="-29102" x2="-19739" x1="-18751" fill="none"/><line y2="-28753" y1="-29177" x2="-19702" x1="-18959" fill="none"/><line y2="-30238" y1="-30807" x2="-18751" x1="-19739" fill="none"/><line y2="-30162" y1="-30590" x2="-18959" x1="-19702" fill="none"/><line y2="-29102" y1="-30238" x2="-18751" x1="-18751" fill="none"/><line y2="-31855" y1="-30807" x2="-19739" x1="-19739" fill="none"/><line y2="-28576" y1="-29102" x2="-17844" x1="-18751" fill="none"/><line y2="-30654" y1="-30238" x2="-18032" x1="-18751" fill="none"/><line y2="-25248" y1="-25771" x2="-30867" x1="-29960" fill="none"/><line y2="-24864" y1="-25771" x2="-29437" x1="-29960" fill="none"/><line y2="-25771" y1="-25771" x2="-28914" x1="-29960" fill="none"/><line y2="-28524" y1="-29050" x2="-32762" x1="-31855" fill="none"/><line y2="-29957" y1="-29050" x2="-32378" x1="-31855" fill="none"/><line y2="-29957" y1="-29050" x2="-31332" x1="-31855" fill="none"/><line y2="-32378" y1="-31855" x2="-18832" x1="-19739" fill="none"/><line y2="-32762" y1="-31855" x2="-20262" x1="-19739" fill="none"/><line y2="-31855" y1="-31855" x2="-20788" x1="-19739" fill="none"/><line y2="-29102" y1="-28576" x2="-16937" x1="-17844" fill="none"/><line y2="-27669" y1="-28576" x2="-17321" x1="-17844" fill="none"/><line y2="-27669" y1="-28576" x2="-18370" x1="-17844" fill="none"/><text y="-28345" xml:space="preserve" x="-25500" stroke="none" font-size="433.3333" font-family="sans-serif">NH</text><text y="-29917" xml:space="preserve" x="-26407" stroke="none" font-size="433.3333" font-family="sans-serif">O</text><text y="-28923" xml:space="preserve" x="-24503" stroke="none" font-size="433.3333" font-family="sans-serif">NH</text><text y="-27352" xml:space="preserve" x="-23596" stroke="none" font-size="433.3333" font-family="sans-serif">O</text><text y="-26684" xml:space="preserve" x="-32008" stroke="none" font-size="433.3333" font-family="sans-serif">OH</text><text y="-30584" xml:space="preserve" x="-17997" stroke="none" font-size="433.3333" font-family="sans-serif">OH</text></g></g></svg>