<svg width="181.14" viewBox="0 0 6038 5559" text-rendering="auto" stroke-width="1" stroke-opacity="1" stroke-miterlimit="10" stroke-linejoin="miter" stroke-linecap="square" stroke-dashoffset="0" stroke-dasharray="none" stroke="black" shape-rendering="auto" image-rendering="auto" height="166.77" font-weight="normal" font-style="normal" font-size="12" font-family="'Dialog'" fill-opacity="1" fill="black" color-rendering="auto" color-interpolation="auto" xmlns="http://www.w3.org/2000/svg"><g><g stroke="white" fill="white"><rect y="0" x="0" width="6038" stroke="none" height="5559"/></g><g transform="translate(32866,32758)" text-rendering="geometricPrecision" stroke-width="44" stroke-linejoin="round" stroke-linecap="round"><line y2="-30850" y1="-31419" x2="-28825" x1="-29807" fill="none"/><line y2="-30775" y1="-31202" x2="-29033" x1="-29770" fill="none"/><line y2="-29715" y1="-30850" x2="-28825" x1="-28825" fill="none"/><line y2="-31419" y1="-30850" x2="-29807" x1="-30795" fill="none"/><line y2="-29146" y1="-29715" x2="-29807" x1="-28825" fill="none"/><line y2="-29362" y1="-29790" x2="-29770" x1="-29033" fill="none"/><line y2="-30850" y1="-29715" x2="-30795" x1="-30795" fill="none"/><line y2="-30708" y1="-29856" x2="-30625" x1="-30625" fill="none"/><line y2="-29715" y1="-29146" x2="-30795" x1="-29807" fill="none"/><line y2="-31376" y1="-30850" x2="-27918" x1="-28825" fill="none"/><line y2="-31376" y1="-30850" x2="-31702" x1="-30795" fill="none"/><line y2="-28316" y1="-29146" x2="-29807" x1="-29807" fill="none"/><line y2="-30960" y1="-31376" x2="-27198" x1="-27918" fill="none"/><line y2="-32063" y1="-31376" x2="-27519" x1="-27918" fill="none"/><line y2="-32063" y1="-31376" x2="-28316" x1="-27918" fill="none"/><line y2="-31070" y1="-31376" x2="-32231" x1="-31702" fill="none"/><line y2="-32202" y1="-31376" x2="-31772" x1="-31772" fill="none"/><line y2="-32202" y1="-31376" x2="-31633" x1="-31633" fill="none"/><line y2="-27620" y1="-27926" x2="-30492" x1="-29960" fill="none"/><line y2="-27742" y1="-28051" x2="-30561" x1="-30032" fill="none"/><line y2="-27742" y1="-28051" x2="-29053" x1="-29585" fill="none"/><line y2="-27620" y1="-27926" x2="-29125" x1="-29654" fill="none"/><text y="-30671" xml:space="preserve" x="-27164" stroke="none" font-size="433.3333" font-family="sans-serif">F</text><text y="-32104" xml:space="preserve" x="-27545" stroke="none" font-size="433.3333" font-family="sans-serif">F</text><text y="-32104" xml:space="preserve" x="-28594" stroke="none" font-size="433.3333" font-family="sans-serif">F</text><text y="-30671" xml:space="preserve" x="-32762" stroke="none" font-size="433.3333" font-family="sans-serif">OH</text><text y="-32242" xml:space="preserve" x="-31855" stroke="none" font-size="433.3333" font-family="sans-serif">O</text><text y="-27918" xml:space="preserve" x="-29960" stroke="none" font-size="433.3333" font-family="sans-serif">N</text><text y="-27395" xml:space="preserve" x="-30867" stroke="none" font-size="433.3333" font-family="sans-serif">O</text><text y="-27395" xml:space="preserve" x="-29053" stroke="none" font-size="433.3333" font-family="sans-serif">O</text></g></g></svg>