<svg width="405.06" viewBox="0 0 13502 9614" text-rendering="auto" stroke-width="1" stroke-opacity="1" stroke-miterlimit="10" stroke-linejoin="miter" stroke-linecap="square" stroke-dashoffset="0" stroke-dasharray="none" stroke="black" shape-rendering="auto" image-rendering="auto" height="288.42" font-weight="normal" font-style="normal" font-size="12" font-family="'Dialog'" fill-opacity="1" fill="black" color-rendering="auto" color-interpolation="auto" xmlns="http://www.w3.org/2000/svg"><g><g stroke="white" fill="white"><rect y="0" x="0" width="13502" stroke="none" height="9614"/></g><g transform="translate(32866,32866)" text-rendering="geometricPrecision" stroke-width="44" stroke-linejoin="round" stroke-linecap="round"><line y2="-28279" y1="-29221" x2="-24925" x1="-25474" fill="none"/><line y2="-26898" y1="-27840" x2="-25474" x1="-24925" fill="none"/><line y2="-27840" y1="-27016" x2="-24636" x1="-24029" fill="none"/><line y2="-29200" y1="-28279" x2="-24018" x1="-24648" fill="none"/><line y2="-29466" y1="-29671" x2="-25789" x1="-27213" fill="none"/><line y2="-26447" y1="-26652" x2="-27213" x1="-25789" fill="none"/><line y2="-26970" y1="-27331" x2="-23376" x1="-22345" fill="none"/><line y2="-28912" y1="-29151" x2="-22348" x1="-23073" fill="none"/><line y2="-28865" y1="-29671" x2="-28597" x1="-27213" fill="none"/><line y2="-29671" y1="-31283" x2="-27213" x1="-27213" fill="none"/><line y2="-29871" y1="-31081" x2="-27383" x1="-27383" fill="none"/><line y2="-27253" y1="-26447" x2="-28597" x1="-27213" fill="none"/><line y2="-24835" y1="-26447" x2="-27213" x1="-27213" fill="none"/><line y2="-25038" y1="-26245" x2="-27383" x1="-27383" fill="none"/><line y2="-27331" y1="-28912" x2="-22345" x1="-22348" fill="none"/><line y2="-28865" y1="-27253" x2="-28597" x1="-28597" fill="none"/><line y2="-29671" y1="-28865" x2="-29978" x1="-28597" fill="none"/><line y2="-29715" y1="-29111" x2="-29718" x1="-28683" fill="none"/><line y2="-31283" y1="-32089" x2="-27213" x1="-28597" fill="none"/><line y2="-27253" y1="-26447" x2="-28597" x1="-29978" fill="none"/><line y2="-27005" y1="-26401" x2="-28683" x1="-29718" fill="none"/><line y2="-24029" y1="-24835" x2="-28597" x1="-27213" fill="none"/><line y2="-31283" y1="-29671" x2="-29978" x1="-29978" fill="none"/><line y2="-28865" y1="-29671" x2="-31358" x1="-29978" fill="none"/><line y2="-32089" y1="-31283" x2="-28597" x1="-29978" fill="none"/><line y2="-31841" y1="-31237" x2="-28683" x1="-29718" fill="none"/><line y2="-24835" y1="-26447" x2="-29978" x1="-29978" fill="none"/><line y2="-26447" y1="-27230" x2="-29978" x1="-31370" fill="none"/><line y2="-24835" y1="-24029" x2="-29978" x1="-28597" fill="none"/><line y2="-24882" y1="-24278" x2="-29718" x1="-28683" fill="none"/><line y2="-31283" y1="-32089" x2="-29978" x1="-31358" fill="none"/><line y2="-29671" y1="-28865" x2="-32742" x1="-31358" fill="none"/><line y2="-29715" y1="-29111" x2="-32482" x1="-31445" fill="none"/><line y2="-24029" y1="-24835" x2="-31370" x1="-29978" fill="none"/><line y2="-27230" y1="-26416" x2="-31370" x1="-32762" fill="none"/><line y2="-26982" y1="-26372" x2="-31460" x1="-32502" fill="none"/><line y2="-32089" y1="-31283" x2="-31358" x1="-32742" fill="none"/><line y2="-31841" y1="-31237" x2="-31445" x1="-32482" fill="none"/><line y2="-31283" y1="-29671" x2="-32742" x1="-32742" fill="none"/><line y2="-24818" y1="-24029" x2="-32762" x1="-31370" fill="none"/><line y2="-24867" y1="-24275" x2="-32505" x1="-31460" fill="none"/><line y2="-26416" y1="-24818" x2="-32762" x1="-32762" fill="none"/><line y2="-30521" y1="-29570" x2="-24058" x1="-25413" fill="none"/><line y2="-30489" y1="-29660" x2="-25601" x1="-25601" fill="none"/><line y2="-26118" y1="-26551" x2="-24772" x1="-25413" fill="none"/><line y2="-25627" y1="-25962" x2="-24041" x1="-24541" fill="none"/><line y2="-25630" y1="-26459" x2="-25601" x1="-25601" fill="none"/><line y2="-26806" y1="-27331" x2="-21438" x1="-22345" fill="none"/><line y2="-29434" y1="-28912" x2="-21441" x1="-22348" fill="none"/><line y2="-28435" y1="-28149" x2="-26205" x1="-25136" fill="none"/><line y2="-26187" y1="-27840" x2="-24665" x1="-24780" fill="none"/><line y2="-31656" y1="-30521" x2="-24058" x1="-24058" fill="none"/><line y2="-31514" y1="-30662" x2="-23888" x1="-23888" fill="none"/><line y2="-30521" y1="-29952" x2="-24058" x1="-23073" fill="none"/><line y2="-32225" y1="-31656" x2="-23073" x1="-24058" fill="none"/><line y2="-29952" y1="-30521" x2="-23073" x1="-22088" fill="none"/><line y2="-30168" y1="-30596" x2="-23036" x1="-22296" fill="none"/><line y2="-31656" y1="-32225" x2="-22088" x1="-23073" fill="none"/><line y2="-31581" y1="-32008" x2="-22296" x1="-23036" fill="none"/><line y2="-30521" y1="-31656" x2="-22088" x1="-22088" fill="none"/><line y2="-31055" y1="-30489" x2="-26589" x1="-25601" fill="none"/><line y2="-31133" y1="-30706" x2="-26378" x1="-25638" fill="none"/><line y2="-30489" y1="-31055" x2="-25601" x1="-24619" fill="none"/><line y2="-32193" y1="-31055" x2="-26589" x1="-26589" fill="none"/><line y2="-31055" y1="-32193" x2="-24619" x1="-24619" fill="none"/><line y2="-31200" y1="-32052" x2="-24789" x1="-24789" fill="none"/><line y2="-32762" y1="-32193" x2="-25601" x1="-26589" fill="none"/><line y2="-32543" y1="-32118" x2="-25638" x1="-26378" fill="none"/><line y2="-32193" y1="-32762" x2="-24619" x1="-25601" fill="none"/><line y2="-25627" y1="-24489" x2="-24041" x1="-24041" fill="none"/><line y2="-25482" y1="-24630" x2="-23870" x1="-23870" fill="none"/><line y2="-26193" y1="-25627" x2="-23053" x1="-24041" fill="none"/><line y2="-24489" y1="-23920" x2="-24041" x1="-23053" fill="none"/><line y2="-25627" y1="-26193" x2="-22071" x1="-23053" fill="none"/><line y2="-25549" y1="-25976" x2="-22279" x1="-23015" fill="none"/><line y2="-23920" y1="-24489" x2="-23053" x1="-22071" fill="none"/><line y2="-24136" y1="-24564" x2="-23015" x1="-22279" fill="none"/><line y2="-24489" y1="-25627" x2="-22071" x1="-22071" fill="none"/><line y2="-25630" y1="-25061" x2="-25601" x1="-26589" fill="none"/><line y2="-25413" y1="-24986" x2="-25638" x1="-26378" fill="none"/><line y2="-25061" y1="-25630" x2="-24619" x1="-25601" fill="none"/><line y2="-25061" y1="-23925" x2="-26589" x1="-26589" fill="none"/><line y2="-23925" y1="-25061" x2="-24619" x1="-24619" fill="none"/><line y2="-24067" y1="-24919" x2="-24789" x1="-24789" fill="none"/><line y2="-23925" y1="-23356" x2="-26589" x1="-25601" fill="none"/><line y2="-24000" y1="-23573" x2="-26378" x1="-25638" fill="none"/><line y2="-23356" y1="-23925" x2="-25601" x1="-24619" fill="none"/><line y2="-26806" y1="-25670" x2="-21438" x1="-21438" fill="none"/><line y2="-26664" y1="-25812" x2="-21268" x1="-21268" fill="none"/><line y2="-27375" y1="-26806" x2="-20450" x1="-21438" fill="none"/><line y2="-25670" y1="-25101" x2="-21438" x1="-20450" fill="none"/><line y2="-26806" y1="-27375" x2="-19468" x1="-20450" fill="none"/><line y2="-26730" y1="-27158" x2="-19676" x1="-20412" fill="none"/><line y2="-25101" y1="-25670" x2="-20450" x1="-19468" fill="none"/><line y2="-25318" y1="-25745" x2="-20412" x1="-19676" fill="none"/><line y2="-25670" y1="-26806" x2="-19468" x1="-19468" fill="none"/><line y2="-30573" y1="-29434" x2="-21441" x1="-21441" fill="none"/><line y2="-30428" y1="-29576" x2="-21273" x1="-21273" fill="none"/><line y2="-29434" y1="-28865" x2="-21441" x1="-20456" fill="none"/><line y2="-31142" y1="-30573" x2="-20456" x1="-21441" fill="none"/><line y2="-28865" y1="-29434" x2="-20456" x1="-19471" fill="none"/><line y2="-29085" y1="-29510" x2="-20418" x1="-19679" fill="none"/><line y2="-30573" y1="-31142" x2="-19471" x1="-20456" fill="none"/><line y2="-30495" y1="-30922" x2="-19679" x1="-20418" fill="none"/><line y2="-29434" y1="-30573" x2="-19471" x1="-19471" fill="none"/><text y="-28420" xml:space="preserve" x="-27051" stroke="none" font-size="433.3333" font-family="sans-serif">Cl</text><text y="-25789" xml:space="preserve" x="-24882" stroke="none" font-size="433.3333" font-family="sans-serif">Cl</text><text y="-27880" xml:space="preserve" x="-25098" stroke="none" font-size="433.3333" font-family="sans-serif">Ru</text><text y="-29261" xml:space="preserve" x="-25754" stroke="none" font-size="433.3333" font-family="sans-serif">P</text><text y="-26499" xml:space="preserve" x="-25754" stroke="none" font-size="433.3333" font-family="sans-serif">P</text><text y="-26618" xml:space="preserve" x="-24021" stroke="none" font-size="433.3333" font-family="sans-serif">NH</text><text y="-26528" xml:space="preserve" x="-23443" stroke="none" font-size="313.3333" font-family="sans-serif">2</text><text y="-29238" xml:space="preserve" x="-24021" stroke="none" font-size="433.3333" font-family="sans-serif">NH</text><text y="-29148" xml:space="preserve" x="-23443" stroke="none" font-size="313.3333" font-family="sans-serif">2</text><text y="-28475" xml:space="preserve" x="-26496" stroke="none" font-size="313.3333" font-family="sans-serif">-</text><text y="-25846" xml:space="preserve" x="-24327" stroke="none" font-size="313.3333" font-family="sans-serif">-</text><text y="-27935" xml:space="preserve" x="-24471" stroke="none" font-size="313.3333" font-family="sans-serif">2+</text></g></g></svg>