<svg width="223.14" viewBox="0 0 7438 4161" text-rendering="auto" stroke-width="1" stroke-opacity="1" stroke-miterlimit="10" stroke-linejoin="miter" stroke-linecap="square" stroke-dashoffset="0" stroke-dasharray="none" stroke="black" shape-rendering="auto" image-rendering="auto" height="124.83" font-weight="normal" font-style="normal" font-size="12" font-family="'Dialog'" fill-opacity="1" fill="black" color-rendering="auto" color-interpolation="auto" xmlns="http://www.w3.org/2000/svg"><g><g stroke="white" fill="white"><rect y="0" x="0" width="7438" stroke="none" height="4161"/></g><g transform="translate(32866,32758)" text-rendering="geometricPrecision" stroke-width="44" stroke-linejoin="round" stroke-linecap="round"><line y2="-29715" y1="-30850" x2="-29819" x1="-29819" fill="none"/><line y2="-29856" y1="-30708" x2="-29989" x1="-29989" fill="none"/><line y2="-31419" y1="-30850" x2="-28831" x1="-29819" fill="none"/><line y2="-30850" y1="-31312" x2="-29819" x1="-30613" fill="none"/><line y2="-29715" y1="-29715" x2="-29819" x1="-28036" fill="none"/><line y2="-29715" y1="-29715" x2="-31789" x1="-29819" fill="none"/><line y2="-30850" y1="-31419" x2="-27848" x1="-28831" fill="none"/><line y2="-30775" y1="-31202" x2="-28056" x1="-28793" fill="none"/><line y2="-31312" y1="-30850" x2="-30992" x1="-31789" fill="none"/><line y2="-29934" y1="-30850" x2="-27848" x1="-27848" fill="none"/><line y2="-30850" y1="-29715" x2="-31789" x1="-31789" fill="none"/><line y2="-30708" y1="-29856" x2="-31618" x1="-31618" fill="none"/><line y2="-31376" y1="-30850" x2="-26941" x1="-27848" fill="none"/><line y2="-29192" y1="-29715" x2="-32312" x1="-31789" fill="none"/><line y2="-30960" y1="-31376" x2="-26222" x1="-26941" fill="none"/><line y2="-32202" y1="-31376" x2="-27011" x1="-27011" fill="none"/><line y2="-32202" y1="-31376" x2="-26872" x1="-26872" fill="none"/><text y="-28793" xml:space="preserve" x="-32762" stroke="none" font-size="433.3333" font-family="sans-serif">Br</text><text y="-30671" xml:space="preserve" x="-26187" stroke="none" font-size="433.3333" font-family="sans-serif">OH</text><text y="-32242" xml:space="preserve" x="-27094" stroke="none" font-size="433.3333" font-family="sans-serif">O</text><text y="-31240" xml:space="preserve" x="-30954" stroke="none" font-size="433.3333" font-family="sans-serif">S</text><text y="-29536" xml:space="preserve" x="-28002" stroke="none" font-size="433.3333" font-family="sans-serif">NH</text></g></g></svg>