<svg width="237.96" viewBox="0 0 7932 2671" text-rendering="auto" stroke-width="1" stroke-opacity="1" stroke-miterlimit="10" stroke-linejoin="miter" stroke-linecap="square" stroke-dashoffset="0" stroke-dasharray="none" stroke="black" shape-rendering="auto" image-rendering="auto" height="80.13" font-weight="normal" font-style="normal" font-size="12" font-family="'Dialog'" fill-opacity="1" fill="black" color-rendering="auto" color-interpolation="auto" xmlns="http://www.w3.org/2000/svg"><g><g stroke="white" fill="white"><rect y="0" x="0" width="7932" stroke="none" height="2671"/></g><g transform="translate(32866,32758)" text-rendering="geometricPrecision" stroke-width="44" stroke-linejoin="round" stroke-linecap="round"><line y2="-30758" y1="-31896" x2="-28822" x1="-28822" fill="none"/><line y2="-31896" y1="-32465" x2="-28822" x1="-29804" fill="none"/><line y2="-30758" y1="-30758" x2="-30792" x1="-28822" fill="none"/><line y2="-32465" y1="-31896" x2="-29804" x1="-30792" fill="none"/><line y2="-31896" y1="-30758" x2="-30792" x1="-30792" fill="none"/><line y2="-30191" y1="-30758" x2="-31777" x1="-30792" fill="none"/><line y2="-30408" y1="-30836" x2="-31740" x1="-31000" fill="none"/><line y2="-31896" y1="-32465" x2="-30792" x1="-31777" fill="none"/><line y2="-31821" y1="-32248" x2="-31000" x1="-31740" fill="none"/><line y2="-30758" y1="-30191" x2="-32762" x1="-31777" fill="none"/><line y2="-32465" y1="-31896" x2="-31777" x1="-32762" fill="none"/><line y2="-31896" y1="-30758" x2="-32762" x1="-32762" fill="none"/><line y2="-31754" y1="-30902" x2="-32592" x1="-32592" fill="none"/><line y2="-32312" y1="-31896" x2="-28103" x1="-28822" fill="none"/><line y2="-31896" y1="-32202" x2="-27008" x1="-27536" fill="none"/><line y2="-31896" y1="-30758" x2="-27008" x1="-27008" fill="none"/><line y2="-31754" y1="-30902" x2="-26837" x1="-26837" fill="none"/><line y2="-32465" y1="-31896" x2="-26020" x1="-27008" fill="none"/><line y2="-30758" y1="-30191" x2="-27008" x1="-26020" fill="none"/><line y2="-31896" y1="-32465" x2="-25038" x1="-26020" fill="none"/><line y2="-31821" y1="-32248" x2="-25246" x1="-25982" fill="none"/><line y2="-30191" y1="-30758" x2="-26020" x1="-25038" fill="none"/><line y2="-30408" y1="-30836" x2="-25982" x1="-25246" fill="none"/><line y2="-30758" y1="-31896" x2="-25038" x1="-25038" fill="none"/><text y="-32242" xml:space="preserve" x="-28068" stroke="none" font-size="433.3333" font-family="sans-serif">NH</text></g></g></svg>