<svg width="209.19" viewBox="0 0 6973 3922" text-rendering="auto" stroke-width="1" stroke-opacity="1" stroke-miterlimit="10" stroke-linejoin="miter" stroke-linecap="square" stroke-dashoffset="0" stroke-dasharray="none" stroke="black" shape-rendering="auto" image-rendering="auto" height="117.66" font-weight="normal" font-style="normal" font-size="12" font-family="'Dialog'" fill-opacity="1" fill="black" color-rendering="auto" color-interpolation="auto" xmlns="http://www.w3.org/2000/svg"><g><g stroke="white" fill="white"><rect y="0" x="0" width="6973" stroke="none" height="3922"/></g><g transform="translate(32866,32866)" text-rendering="geometricPrecision" stroke-width="44" stroke-linejoin="round" stroke-linecap="round"><line y2="-30365" y1="-30966" x2="-31569" x1="-30532" fill="none"/><line y2="-30966" y1="-31942" x2="-30532" x1="-30532" fill="none"/><line y2="-30746" y1="-30365" x2="-32228" x1="-31569" fill="none"/><line y2="-32271" y1="-32762" x2="-30720" x1="-31569" fill="none"/><line y2="-32162" y1="-31182" x2="-32612" x1="-32612" fill="none"/><line y2="-32762" y1="-32162" x2="-31569" x1="-32612" fill="none"/><line y2="-30440" y1="-30966" x2="-29625" x1="-30532" fill="none"/><line y2="-30966" y1="-30440" x2="-28718" x1="-29625" fill="none"/><line y2="-29538" y1="-30365" x2="-31500" x1="-31500" fill="none"/><line y2="-29538" y1="-30365" x2="-31639" x1="-31639" fill="none"/><line y2="-30550" y1="-30966" x2="-27999" x1="-28718" fill="none"/><line y2="-30966" y1="-30550" x2="-26904" x1="-27623" fill="none"/><line y2="-30440" y1="-30966" x2="-25997" x1="-26904" fill="none"/><line y2="-31792" y1="-30966" x2="-28787" x1="-28787" fill="none"/><line y2="-31792" y1="-30966" x2="-28649" x1="-28649" fill="none"/><text y="-30261" xml:space="preserve" x="-27964" stroke="none" font-size="433.3333" font-family="sans-serif">O</text><text y="-31832" xml:space="preserve" x="-28871" stroke="none" font-size="433.3333" font-family="sans-serif">O</text><text y="-29140" xml:space="preserve" x="-31722" stroke="none" font-size="433.3333" font-family="sans-serif">O</text><text y="-31982" xml:space="preserve" x="-30685" stroke="none" font-size="433.3333" font-family="sans-serif">NH</text><text y="-30786" xml:space="preserve" x="-32762" stroke="none" font-size="433.3333" font-family="sans-serif">NH</text></g></g></svg>