<svg width="168.12" viewBox="0 0 5604 2778" text-rendering="auto" stroke-width="1" stroke-opacity="1" stroke-miterlimit="10" stroke-linejoin="miter" stroke-linecap="square" stroke-dashoffset="0" stroke-dasharray="none" stroke="black" shape-rendering="auto" image-rendering="auto" height="83.34" font-weight="normal" font-style="normal" font-size="12" font-family="'Dialog'" fill-opacity="1" fill="black" color-rendering="auto" color-interpolation="auto" xmlns="http://www.w3.org/2000/svg"><g><g stroke="white" fill="white"><rect y="0" x="0" width="5604" stroke="none" height="2778"/></g><g transform="translate(32866,32758)" text-rendering="geometricPrecision" stroke-width="44" stroke-linejoin="round" stroke-linecap="round"><line y2="-30688" y1="-31899" x2="-30538" x1="-30538" fill="none"/><line y2="-32502" y1="-31899" x2="-29504" x1="-30538" fill="none"/><line y2="-32280" y1="-31826" x2="-29547" x1="-30324" fill="none"/><line y2="-31899" y1="-32502" x2="-30538" x1="-31575" fill="none"/><line y2="-30688" y1="-30084" x2="-30538" x1="-29504" fill="none"/><line y2="-30760" y1="-30307" x2="-30324" x1="-29547" fill="none"/><line y2="-30084" y1="-30688" x2="-31575" x1="-30538" fill="none"/><line y2="-31899" y1="-32502" x2="-28467" x1="-29504" fill="none"/><line y2="-32502" y1="-31899" x2="-31575" x1="-32612" fill="none"/><line y2="-30084" y1="-30688" x2="-29504" x1="-28467" fill="none"/><line y2="-30469" y1="-30084" x2="-32237" x1="-31575" fill="none"/><line y2="-30688" y1="-31899" x2="-28467" x1="-28467" fill="none"/><line y2="-30841" y1="-31746" x2="-28637" x1="-28637" fill="none"/><line y2="-31899" y1="-30908" x2="-32612" x1="-32612" fill="none"/><line y2="-32225" y1="-31899" x2="-27900" x1="-28467" fill="none"/><text y="-32242" xml:space="preserve" x="-27791" stroke="none" font-size="433.3333" font-family="sans-serif">Cl</text><text y="-30509" xml:space="preserve" x="-32762" stroke="none" font-size="433.3333" font-family="sans-serif">NH</text></g></g></svg>