<svg width="467.1" viewBox="0 0 15570 8205" text-rendering="auto" stroke-width="1" stroke-opacity="1" stroke-miterlimit="10" stroke-linejoin="miter" stroke-linecap="square" stroke-dashoffset="0" stroke-dasharray="none" stroke="black" shape-rendering="auto" image-rendering="auto" height="246.15" font-weight="normal" font-style="normal" font-size="12" font-family="'Dialog'" fill-opacity="1" fill="black" color-rendering="auto" color-interpolation="auto" xmlns="http://www.w3.org/2000/svg"><g><g stroke="white" fill="white"><rect y="0" x="0" width="15570" stroke="none" height="8205"/></g><g transform="translate(32866,32758)" text-rendering="geometricPrecision" stroke-width="44" stroke-linejoin="round" stroke-linecap="round"><line y2="-28207" y1="-27060" x2="-23654" x1="-23654" fill="none"/><line y2="-27060" y1="-26488" x2="-23654" x1="-22669" fill="none"/><line y2="-26488" y1="-27060" x2="-24636" x1="-23654" fill="none"/><line y2="-26704" y1="-27135" x2="-24598" x1="-23862" fill="none"/><line y2="-28669" y1="-28207" x2="-22859" x1="-23654" fill="none"/><line y2="-28207" y1="-28779" x2="-23654" x1="-24636" fill="none"/><line y2="-28132" y1="-28562" x2="-23862" x1="-24598" fill="none"/><line y2="-26488" y1="-27060" x2="-22669" x1="-21686" fill="none"/><line y2="-27060" y1="-26488" x2="-25618" x1="-24636" fill="none"/><line y2="-28207" y1="-28669" x2="-21686" x1="-22481" fill="none"/><line y2="-28779" y1="-28207" x2="-24636" x1="-25618" fill="none"/><line y2="-27060" y1="-28207" x2="-21686" x1="-21686" fill="none"/><line y2="-27204" y1="-28062" x2="-21857" x1="-21857" fill="none"/><line y2="-28207" y1="-27060" x2="-25618" x1="-25618" fill="none"/><line y2="-28062" y1="-27204" x2="-25448" x1="-25448" fill="none"/><line y2="-28623" y1="-28207" x2="-26338" x1="-25618" fill="none"/><line y2="-28730" y1="-28207" x2="-20779" x1="-21686" fill="none"/><line y2="-25659" y1="-26488" x2="-24636" x1="-24636" fill="none"/><line y2="-25659" y1="-26488" x2="-22599" x1="-22599" fill="none"/><line y2="-25659" y1="-26488" x2="-22741" x1="-22741" fill="none"/><line y2="-28207" y1="-28776" x2="-27432" x1="-28415" fill="none"/><line y2="-27288" y1="-28207" x2="-27432" x1="-27432" fill="none"/><line y2="-28776" y1="-28207" x2="-28415" x1="-29403" fill="none"/><line y2="-26499" y1="-26962" x2="-28415" x1="-27620" fill="none"/><line y2="-28207" y1="-27068" x2="-29403" x1="-29403" fill="none"/><line y2="-27068" y1="-26499" x2="-29403" x1="-28415" fill="none"/><line y2="-30347" y1="-29931" x2="-29322" x1="-28602" fill="none"/><line y2="-25147" y1="-25454" x2="-28943" x1="-28415" fill="none"/><line y2="-29868" y1="-28730" x2="-20779" x1="-20779" fill="none"/><line y2="-29726" y1="-28874" x2="-20609" x1="-20609" fill="none"/><line y2="-28730" y1="-28160" x2="-20779" x1="-19794" fill="none"/><line y2="-30437" y1="-29868" x2="-19794" x1="-20779" fill="none"/><line y2="-28160" y1="-28730" x2="-19794" x1="-18809" fill="none"/><line y2="-28380" y1="-28808" x2="-19757" x1="-19017" fill="none"/><line y2="-29868" y1="-30437" x2="-18809" x1="-19794" fill="none"/><line y2="-29793" y1="-30217" x2="-19017" x1="-19757" fill="none"/><line y2="-28730" y1="-29868" x2="-18809" x1="-18809" fill="none"/><line y2="-31266" y1="-30437" x2="-19794" x1="-19794" fill="none"/><line y2="-31841" y1="-31592" x2="-20412" x1="-19982" fill="none"/><line y2="-30284" y1="-29868" x2="-18090" x1="-18809" fill="none"/><line y2="-30347" y1="-31410" x2="-29322" x1="-29651" fill="none"/><line y2="-29790" y1="-30347" x2="-30076" x1="-29322" fill="none"/><line y2="-31410" y1="-31410" x2="-29651" x1="-30795" fill="none"/><line y2="-30347" y1="-29796" x2="-31165" x1="-30451" fill="none"/><line y2="-31410" y1="-30347" x2="-30795" x1="-31165" fill="none"/><line y2="-31933" y1="-31410" x2="-31702" x1="-30795" fill="none"/><line y2="-31630" y1="-31933" x2="-32231" x1="-31702" fill="none"/><polygon stroke-width="1" stroke="none" points=" -28415 -28776 -28484 -29602 -28345 -29602"/><polygon stroke-width="1" points=" -28415 -28776 -28484 -29602 -28345 -29602" fill="none"/><polygon stroke-width="1" stroke="none" points=" -29403 -27068 -29894 -26704 -29963 -26823"/><polygon stroke-width="1" points=" -29403 -27068 -29894 -26704 -29963 -26823" fill="none"/><polygon stroke-width="1" stroke="none" points=" -30795 -31410 -30651 -32219 -30518 -32185"/><polygon stroke-width="1" points=" -30795 -31410 -30651 -32219 -30518 -32185" fill="none"/><polygon stroke-width="1" stroke="none" points=" -29651 -31410 -29250 -32081 -29137 -31997"/><polygon stroke-width="1" points=" -29651 -31410 -29250 -32081 -29137 -31997" fill="none"/><polygon stroke-width="1" stroke="none" points=" -29322 -30347 -28738 -30908 -28652 -30801"/><polygon stroke-width="1" points=" -29322 -30347 -28738 -30908 -28652 -30801" fill="none"/><line y2="-28562" y1="-28680" x2="-26676" x1="-26748" fill="none"/><line y2="-28469" y1="-28557" x2="-26873" x1="-26926" fill="none"/><line y2="-28377" y1="-28433" x2="-27070" x1="-27105" fill="none"/><line y2="-28284" y1="-28310" x2="-27268" x1="-27283" fill="none"/><line y2="-25451" y1="-25454" x2="-28484" x1="-28345" fill="none"/><line y2="-25668" y1="-25670" x2="-28470" x1="-28359" fill="none"/><line y2="-25885" y1="-25887" x2="-28455" x1="-28374" fill="none"/><line y2="-26102" y1="-26103" x2="-28441" x1="-28388" fill="none"/><line y2="-26319" y1="-26319" x2="-28427" x1="-28403" fill="none"/><line y2="-28571" y1="-28452" x2="-29894" x1="-29963" fill="none"/><line y2="-28441" y1="-28365" x2="-29719" x1="-29763" fill="none"/><line y2="-28311" y1="-28277" x2="-29544" x1="-29563" fill="none"/><text y="-25260" xml:space="preserve" x="-22822" stroke="none" font-size="433.3333" font-family="sans-serif">O</text><text y="-25260" xml:space="preserve" x="-24786" stroke="none" font-size="433.3333" font-family="sans-serif">OH</text><text y="-28550" xml:space="preserve" x="-26676" stroke="none" font-size="433.3333" font-family="sans-serif">O</text><text y="-31304" xml:space="preserve" x="-19944" stroke="none" font-size="433.3333" font-family="sans-serif">O</text><text y="-31991" xml:space="preserve" x="-21135" stroke="none" font-size="433.3333" font-family="sans-serif">CH</text><text y="-31902" xml:space="preserve" x="-20557" stroke="none" font-size="313.3333" font-family="sans-serif">3</text><text y="-29642" xml:space="preserve" x="-28568" stroke="none" font-size="433.3333" font-family="sans-serif">O</text><text y="-30212" xml:space="preserve" x="-18055" stroke="none" font-size="433.3333" font-family="sans-serif">OH</text><text y="-28550" xml:space="preserve" x="-30460" stroke="none" font-size="433.3333" font-family="sans-serif">OH</text><text y="-24749" xml:space="preserve" x="-29475" stroke="none" font-size="433.3333" font-family="sans-serif">OH</text><text y="-26366" xml:space="preserve" x="-30460" stroke="none" font-size="433.3333" font-family="sans-serif">OH</text><text y="-32081" xml:space="preserve" x="-29186" stroke="none" font-size="433.3333" font-family="sans-serif">OH</text><text y="-31231" xml:space="preserve" x="-32762" stroke="none" font-size="433.3333" font-family="sans-serif">OH</text><text y="-32242" xml:space="preserve" x="-30677" stroke="none" font-size="433.3333" font-family="sans-serif">OH</text><text y="-28600" xml:space="preserve" x="-22822" stroke="none" font-size="433.3333" font-family="sans-serif">O</text><text y="-26889" xml:space="preserve" x="-27583" stroke="none" font-size="433.3333" font-family="sans-serif">O</text><text y="-29472" xml:space="preserve" x="-30417" stroke="none" font-size="433.3333" font-family="sans-serif">O</text><text y="-30827" xml:space="preserve" x="-28660" stroke="none" font-size="433.3333" font-family="sans-serif">H</text><text y="-27883" xml:space="preserve" x="-27831" stroke="none" font-style="italic" font-size="313.3333" font-family="sans-serif">S</text><text y="-28293" xml:space="preserve" x="-28568" stroke="none" font-style="italic" font-size="313.3333" font-family="sans-serif">R</text><text y="-27883" xml:space="preserve" x="-29304" stroke="none" font-style="italic" font-size="313.3333" font-family="sans-serif">S</text><text y="-26624" xml:space="preserve" x="-28568" stroke="none" font-style="italic" font-size="313.3333" font-family="sans-serif">R</text><text y="-27034" xml:space="preserve" x="-29304" stroke="none" font-style="italic" font-size="313.3333" font-family="sans-serif">S</text><text y="-29865" xml:space="preserve" x="-29466" stroke="none" font-style="italic" font-size="313.3333" font-family="sans-serif">S</text><text y="-30945" xml:space="preserve" x="-30035" stroke="none" font-style="italic" font-size="313.3333" font-family="sans-serif">R</text><text y="-30945" xml:space="preserve" x="-30714" stroke="none" font-style="italic" font-size="313.3333" font-family="sans-serif">R</text></g></g></svg>