<svg width="668.16" viewBox="0 0 22272 14022" text-rendering="auto" stroke-width="1" stroke-opacity="1" stroke-miterlimit="10" stroke-linejoin="miter" stroke-linecap="square" stroke-dashoffset="0" stroke-dasharray="none" stroke="black" shape-rendering="auto" image-rendering="auto" height="420.66" font-weight="normal" font-style="normal" font-size="12" font-family="'Dialog'" fill-opacity="1" fill="black" color-rendering="auto" color-interpolation="auto" xmlns="http://www.w3.org/2000/svg"><g><g stroke="white" fill="white"><rect y="0" x="0" width="22272" stroke="none" height="14022"/></g><g transform="translate(32866,32866)" text-rendering="geometricPrecision" stroke-width="44" stroke-linejoin="round" stroke-linecap="round"><line y2="-23350" y1="-22204" x2="-25572" x1="-25572" fill="none"/><line y2="-22204" y1="-21629" x2="-25572" x1="-24590" fill="none"/><line y2="-21629" y1="-22204" x2="-26554" x1="-25572" fill="none"/><line y2="-23922" y1="-23350" x2="-24590" x1="-25572" fill="none"/><line y2="-23350" y1="-23922" x2="-25572" x1="-26554" fill="none"/><line y2="-21629" y1="-22204" x2="-24590" x1="-23608" fill="none"/><line y2="-22204" y1="-21629" x2="-27539" x1="-26554" fill="none"/><line y2="-23350" y1="-23922" x2="-23608" x1="-24590" fill="none"/><line y2="-25069" y1="-23922" x2="-24590" x1="-24590" fill="none"/><line y2="-24925" y1="-24067" x2="-24419" x1="-24419" fill="none"/><line y2="-23922" y1="-23350" x2="-26554" x1="-27539" fill="none"/><line y2="-22204" y1="-23350" x2="-23608" x1="-23608" fill="none"/><line y2="-23350" y1="-22204" x2="-27539" x1="-27539" fill="none"/><line y2="-23350" y1="-23922" x2="-23608" x1="-22625" fill="none"/><line y2="-25641" y1="-25069" x2="-23608" x1="-24590" fill="none"/><line y2="-25069" y1="-23922" x2="-22625" x1="-22625" fill="none"/><line y2="-23922" y1="-23350" x2="-22625" x1="-21643" fill="none"/><line y2="-25069" y1="-25641" x2="-22625" x1="-23608" fill="none"/><line y2="-25641" y1="-25069" x2="-21643" x1="-22625" fill="none"/><line y2="-23350" y1="-23922" x2="-21643" x1="-20661" fill="none"/><line y2="-25069" y1="-25641" x2="-20661" x1="-21643" fill="none"/><line y2="-26788" y1="-25641" x2="-21643" x1="-21643" fill="none"/><line y2="-23922" y1="-25069" x2="-20661" x1="-20661" fill="none"/><line y2="-25069" y1="-25641" x2="-20661" x1="-19676" fill="none"/><line y2="-27360" y1="-26788" x2="-20661" x1="-21643" fill="none"/><line y2="-25641" y1="-26788" x2="-19676" x1="-19676" fill="none"/><line y2="-26788" y1="-27360" x2="-19676" x1="-20661" fill="none"/><line y2="-26788" y1="-27204" x2="-17862" x1="-18581" fill="none"/><line y2="-24333" y1="-23350" x2="-27898" x1="-27539" fill="none"/><line y2="-23168" y1="-23350" x2="-28571" x1="-27539" fill="none"/><line y2="-24659" y1="-25641" x2="-19318" x1="-19676" fill="none"/><line y2="-25823" y1="-25641" x2="-18644" x1="-19676" fill="none"/><line y2="-27357" y1="-26788" x2="-16879" x1="-17862" fill="none"/><line y2="-26788" y1="-25870" x2="-17862" x1="-17862" fill="none"/><line y2="-26788" y1="-27357" x2="-15891" x1="-16879" fill="none"/><line y2="-25543" y1="-25081" x2="-17674" x1="-16879" fill="none"/><line y2="-25650" y1="-26788" x2="-15891" x1="-15891" fill="none"/><line y2="-25081" y1="-25650" x2="-16879" x1="-15891" fill="none"/><line y2="-29931" y1="-29515" x2="-15972" x1="-16692" fill="none"/><line y2="-25650" y1="-25234" x2="-14077" x1="-14796" fill="none"/><line y2="-20421" y1="-21155" x2="-26826" x1="-25572" fill="none"/><line y2="-20800" y1="-21195" x2="-24818" x1="-25503" fill="none"/><line y2="-20678" y1="-21094" x2="-24887" x1="-25607" fill="none"/><line y2="-29931" y1="-29362" x2="-15972" x1="-14990" fill="none"/><line y2="-30850" y1="-29931" x2="-15972" x1="-15972" fill="none"/><line y2="-29362" y1="-29931" x2="-14990" x1="-14002" fill="none"/><line y2="-31639" y1="-31176" x2="-14990" x1="-15784" fill="none"/><line y2="-29931" y1="-31070" x2="-14002" x1="-14002" fill="none"/><line y2="-31070" y1="-31639" x2="-14002" x1="-14990" fill="none"/><line y2="-26569" y1="-25650" x2="-14077" x1="-14077" fill="none"/><line y2="-25650" y1="-25081" x2="-14077" x1="-13095" fill="none"/><line y2="-27357" y1="-26898" x2="-13095" x1="-13889" fill="none"/><line y2="-25081" y1="-25650" x2="-13095" x1="-12107" fill="none"/><line y2="-26788" y1="-27357" x2="-12107" x1="-13095" fill="none"/><line y2="-25650" y1="-26788" x2="-12107" x1="-12107" fill="none"/><line y2="-28819" y1="-28406" x2="-12376" x1="-13095" fill="none"/><line y2="-20834" y1="-21753" x2="-27921" x1="-27921" fill="none"/><line y2="-20265" y1="-20834" x2="-28906" x1="-27921" fill="none"/><line y2="-22079" y1="-22539" x2="-28108" x1="-28906" fill="none"/><line y2="-20834" y1="-20265" x2="-29891" x1="-28906" fill="none"/><line y2="-22539" y1="-21972" x2="-28906" x1="-29891" fill="none"/><line y2="-21972" y1="-20834" x2="-29891" x1="-29891" fill="none"/><line y2="-24003" y1="-23587" x2="-29625" x1="-28906" fill="none"/><line y2="-25618" y1="-25159" x2="-30607" x1="-29813" fill="none"/><line y2="-25159" y1="-25728" x2="-29813" x1="-28825" fill="none"/><line y2="-26866" y1="-25948" x2="-30795" x1="-30795" fill="none"/><line y2="-25728" y1="-26866" x2="-28825" x1="-28825" fill="none"/><line y2="-27435" y1="-26866" x2="-29813" x1="-30795" fill="none"/><line y2="-26866" y1="-27435" x2="-28825" x1="-29813" fill="none"/><line y2="-30009" y1="-29593" x2="-28903" x1="-29625" fill="none"/><line y2="-27086" y1="-27389" x2="-32231" x1="-31702" fill="none"/><line y2="-30009" y1="-29440" x2="-28903" x1="-27921" fill="none"/><line y2="-30928" y1="-30009" x2="-28903" x1="-28903" fill="none"/><line y2="-29440" y1="-30009" x2="-27921" x1="-26933" fill="none"/><line y2="-31714" y1="-31254" x2="-27921" x1="-28715" fill="none"/><line y2="-30009" y1="-31145" x2="-26933" x1="-26933" fill="none"/><line y2="-31145" y1="-31714" x2="-26933" x1="-27921" fill="none"/><polygon stroke-width="1" stroke="none" points=" -23608 -23350 -23677 -24396 -23538 -24396"/><polygon stroke-width="1" points=" -23608 -23350 -23677 -24396 -23538 -24396" fill="none"/><polygon stroke-width="1" stroke="none" points=" -22625 -25069 -22695 -25896 -22556 -25898"/><polygon stroke-width="1" points=" -22625 -25069 -22695 -25896 -22556 -25898" fill="none"/><polygon stroke-width="1" stroke="none" points=" -20661 -25069 -20730 -25896 -20592 -25898"/><polygon stroke-width="1" points=" -20661 -25069 -20730 -25896 -20592 -25898" fill="none"/><polygon stroke-width="1" stroke="none" points=" -15891 -25650 -15140 -25295 -15207 -25173"/><polygon stroke-width="1" points=" -15891 -25650 -15140 -25295 -15207 -25173" fill="none"/><polygon stroke-width="1" stroke="none" points=" -15891 -26788 -15207 -27262 -15137 -27144"/><polygon stroke-width="1" points=" -15891 -26788 -15207 -27262 -15137 -27144" fill="none"/><polygon stroke-width="1" stroke="none" points=" -27167 -20479 -27921 -20834 -27236 -20360"/><polygon stroke-width="1" points=" -27167 -20479 -27921 -20834 -27236 -20360" fill="none"/><polygon stroke-width="1" stroke="none" points=" -14990 -31639 -15056 -32684 -14921 -32684"/><polygon stroke-width="1" points=" -14990 -31639 -15056 -32684 -14921 -32684" fill="none"/><polygon stroke-width="1" stroke="none" points=" -14990 -29362 -14921 -28536 -15056 -28533"/><polygon stroke-width="1" points=" -14990 -29362 -14921 -28536 -15056 -28533" fill="none"/><polygon stroke-width="1" stroke="none" points=" -14002 -29931 -13248 -29576 -13317 -29455"/><polygon stroke-width="1" points=" -14002 -29931 -13248 -29576 -13317 -29455" fill="none"/><polygon stroke-width="1" stroke="none" points=" -15972 -29931 -16726 -30287 -16657 -30405"/><polygon stroke-width="1" points=" -15972 -29931 -16726 -30287 -16657 -30405" fill="none"/><polygon stroke-width="1" stroke="none" points=" -13095 -25081 -13026 -24255 -13164 -24252"/><polygon stroke-width="1" points=" -13095 -25081 -13026 -24255 -13164 -24252" fill="none"/><polygon stroke-width="1" stroke="none" points=" -12107 -26788 -11422 -27262 -11353 -27144"/><polygon stroke-width="1" points=" -12107 -26788 -11422 -27262 -11353 -27144" fill="none"/><polygon stroke-width="1" stroke="none" points=" -14077 -25650 -14831 -26005 -14762 -26127"/><polygon stroke-width="1" points=" -14077 -25650 -14831 -26005 -14762 -26127" fill="none"/><polygon stroke-width="1" stroke="none" points=" -28906 -22539 -28975 -23587 -28836 -23587"/><polygon stroke-width="1" points=" -28906 -22539 -28975 -23587 -28836 -23587" fill="none"/><polygon stroke-width="1" stroke="none" points=" -29891 -20834 -30385 -20470 -30454 -20589"/><polygon stroke-width="1" points=" -29891 -20834 -30385 -20470 -30454 -20589" fill="none"/><polygon stroke-width="1" stroke="none" points=" -29813 -27435 -29882 -29264 -29744 -29264"/><polygon stroke-width="1" points=" -29813 -27435 -29882 -29264 -29744 -29264" fill="none"/><polygon stroke-width="1" stroke="none" points=" -28825 -25728 -28071 -25373 -28140 -25251"/><polygon stroke-width="1" points=" -28825 -25728 -28071 -25373 -28140 -25251" fill="none"/><polygon stroke-width="1" stroke="none" points=" -27921 -31714 -27990 -32762 -27851 -32762"/><polygon stroke-width="1" points=" -27921 -31714 -27990 -32762 -27851 -32762" fill="none"/><polygon stroke-width="1" stroke="none" points=" -27921 -29440 -27851 -28611 -27990 -28611"/><polygon stroke-width="1" points=" -27921 -29440 -27851 -28611 -27990 -28611" fill="none"/><polygon stroke-width="1" stroke="none" points=" -26933 -30009 -26182 -29654 -26248 -29533"/><polygon stroke-width="1" points=" -26933 -30009 -26182 -29654 -26248 -29533" fill="none"/><polygon stroke-width="1" stroke="none" points=" -28903 -30009 -29657 -30365 -29590 -30483"/><polygon stroke-width="1" points=" -28903 -30009 -29657 -30365 -29590 -30483" fill="none"/><line y2="-27144" y1="-27262" x2="-18922" x1="-18991" fill="none"/><line y2="-27051" y1="-27138" x2="-19119" x1="-19170" fill="none"/><line y2="-26958" y1="-27015" x2="-19315" x1="-19348" fill="none"/><line y2="-26865" y1="-26891" x2="-19512" x1="-19527" fill="none"/><line y2="-21155" y1="-21155" x2="-25641" x1="-25503" fill="none"/><line y2="-21372" y1="-21372" x2="-25627" x1="-25517" fill="none"/><line y2="-21588" y1="-21588" x2="-25612" x1="-25532" fill="none"/><line y2="-21805" y1="-21805" x2="-25598" x1="-25546" fill="none"/><line y2="-22022" y1="-22022" x2="-25584" x1="-25560" fill="none"/><line y2="-22874" y1="-22874" x2="-22695" x1="-22556" fill="none"/><line y2="-23091" y1="-23091" x2="-22681" x1="-22570" fill="none"/><line y2="-23307" y1="-23307" x2="-22666" x1="-22585" fill="none"/><line y2="-23524" y1="-23524" x2="-22652" x1="-22599" fill="none"/><line y2="-23741" y1="-23741" x2="-22637" x1="-22613" fill="none"/><line y2="-24593" y1="-24596" x2="-21712" x1="-21574" fill="none"/><line y2="-24810" y1="-24812" x2="-21698" x1="-21588" fill="none"/><line y2="-25027" y1="-25029" x2="-21683" x1="-21603" fill="none"/><line y2="-25244" y1="-25245" x2="-21669" x1="-21617" fill="none"/><line y2="-25461" y1="-25461" x2="-21655" x1="-21631" fill="none"/><line y2="-24177" y1="-24177" x2="-25503" x1="-25641" fill="none"/><line y2="-23960" y1="-23960" x2="-25521" x1="-25623" fill="none"/><line y2="-23744" y1="-23744" x2="-25539" x1="-25605" fill="none"/><line y2="-23527" y1="-23527" x2="-25557" x1="-25587" fill="none"/><line y2="-29189" y1="-29186" x2="-16810" x1="-16949" fill="none"/><line y2="-28972" y1="-28970" x2="-16818" x1="-16941" fill="none"/><line y2="-28755" y1="-28753" x2="-16826" x1="-16932" fill="none"/><line y2="-28538" y1="-28537" x2="-16835" x1="-16924" fill="none"/><line y2="-28322" y1="-28320" x2="-16843" x1="-16916" fill="none"/><line y2="-28105" y1="-28104" x2="-16851" x1="-16908" fill="none"/><line y2="-27888" y1="-27887" x2="-16859" x1="-16899" fill="none"/><line y2="-27671" y1="-27671" x2="-16867" x1="-16891" fill="none"/><line y2="-27454" y1="-27454" x2="-16875" x1="-16883" fill="none"/><line y2="-27617" y1="-27614" x2="-17795" x1="-17931" fill="none"/><line y2="-27400" y1="-27398" x2="-17813" x1="-17913" fill="none"/><line y2="-27183" y1="-27181" x2="-17830" x1="-17895" fill="none"/><line y2="-26966" y1="-26965" x2="-17848" x1="-17877" fill="none"/><line y2="-31425" y1="-31543" x2="-13248" x1="-13317" fill="none"/><line y2="-31332" y1="-31420" x2="-13445" x1="-13496" fill="none"/><line y2="-31240" y1="-31296" x2="-13642" x1="-13675" fill="none"/><line y2="-31147" y1="-31173" x2="-13838" x1="-13853" fill="none"/><line y2="-28406" y1="-28403" x2="-13026" x1="-13164" fill="none"/><line y2="-28189" y1="-28187" x2="-13040" x1="-13150" fill="none"/><line y2="-27972" y1="-27970" x2="-13055" x1="-13135" fill="none"/><line y2="-27755" y1="-27754" x2="-13069" x1="-13121" fill="none"/><line y2="-27538" y1="-27538" x2="-13083" x1="-13107" fill="none"/><line y2="-25173" y1="-25295" x2="-11422" x1="-11356" fill="none"/><line y2="-25298" y1="-25388" x2="-11601" x1="-11552" fill="none"/><line y2="-25422" y1="-25480" x2="-11780" x1="-11748" fill="none"/><line y2="-25547" y1="-25573" x2="-11959" x1="-11944" fill="none"/><line y2="-24330" y1="-24330" x2="-29882" x1="-29744" fill="none"/><line y2="-24547" y1="-24547" x2="-29864" x1="-29762" fill="none"/><line y2="-24763" y1="-24763" x2="-29846" x1="-29780" fill="none"/><line y2="-24980" y1="-24980" x2="-29828" x1="-29798" fill="none"/><line y2="-19436" y1="-19439" x2="-28975" x1="-28836" fill="none"/><line y2="-19653" y1="-19655" x2="-28957" x1="-28854" fill="none"/><line y2="-19870" y1="-19872" x2="-28939" x1="-28873" fill="none"/><line y2="-20087" y1="-20088" x2="-28921" x1="-28891" fill="none"/><line y2="-22334" y1="-22215" x2="-30385" x1="-30451" fill="none"/><line y2="-22205" y1="-22128" x2="-30209" x1="-30251" fill="none"/><line y2="-22076" y1="-22042" x2="-30033" x1="-30052" fill="none"/><line y2="-27447" y1="-27328" x2="-31668" x1="-31737" fill="none"/><line y2="-27327" y1="-27232" x2="-31487" x1="-31542" fill="none"/><line y2="-27206" y1="-27137" x2="-31307" x1="-31347" fill="none"/><line y2="-27086" y1="-27041" x2="-31126" x1="-31152" fill="none"/><line y2="-26966" y1="-26945" x2="-30945" x1="-30957" fill="none"/><line y2="-27222" y1="-27340" x2="-28071" x1="-28140" fill="none"/><line y2="-27129" y1="-27216" x2="-28268" x1="-28319" fill="none"/><line y2="-27036" y1="-27093" x2="-28464" x1="-28497" fill="none"/><line y2="-26943" y1="-26969" x2="-28661" x1="-28676" fill="none"/><line y2="-31503" y1="-31621" x2="-26182" x1="-26251" fill="none"/><line y2="-31409" y1="-31497" x2="-26378" x1="-26429" fill="none"/><line y2="-31316" y1="-31372" x2="-26575" x1="-26607" fill="none"/><line y2="-31222" y1="-31248" x2="-26771" x1="-26786" fill="none"/><text y="-20132" xml:space="preserve" x="-27167" stroke="none" font-size="433.3333" font-family="sans-serif">O</text><text y="-20453" xml:space="preserve" x="-24818" stroke="none" font-size="433.3333" font-family="sans-serif">O</text><text y="-19040" xml:space="preserve" x="-29056" stroke="none" font-size="433.3333" font-family="sans-serif">OH</text><text y="-23931" xml:space="preserve" x="-29963" stroke="none" font-size="433.3333" font-family="sans-serif">O</text><text y="-20132" xml:space="preserve" x="-30951" stroke="none" font-size="433.3333" font-family="sans-serif">OH</text><text y="-22316" xml:space="preserve" x="-30951" stroke="none" font-size="433.3333" font-family="sans-serif">OH</text><text y="-27132" xml:space="preserve" x="-18922" stroke="none" font-size="433.3333" font-family="sans-serif">O</text><text y="-25026" xml:space="preserve" x="-28071" stroke="none" font-size="433.3333" font-family="sans-serif">OH</text><text y="-26687" xml:space="preserve" x="-32762" stroke="none" font-size="433.3333" font-family="sans-serif">OH</text><text y="-27210" xml:space="preserve" x="-28071" stroke="none" font-size="433.3333" font-family="sans-serif">OH</text><text y="-29304" xml:space="preserve" x="-29963" stroke="none" font-size="433.3333" font-family="sans-serif">O</text><text y="-29229" xml:space="preserve" x="-17032" stroke="none" font-size="433.3333" font-family="sans-serif">O</text><text y="-27132" xml:space="preserve" x="-15137" stroke="none" font-size="433.3333" font-family="sans-serif">OH</text><text y="-24948" xml:space="preserve" x="-15137" stroke="none" font-size="433.3333" font-family="sans-serif">O</text><text y="-28212" xml:space="preserve" x="-28074" stroke="none" font-size="433.3333" font-family="sans-serif">OH</text><text y="-28137" xml:space="preserve" x="-15140" stroke="none" font-size="433.3333" font-family="sans-serif">OH</text><text y="-29304" xml:space="preserve" x="-26179" stroke="none" font-size="433.3333" font-family="sans-serif">OH</text><text y="-29229" xml:space="preserve" x="-13248" stroke="none" font-size="433.3333" font-family="sans-serif">OH</text><text y="-31491" xml:space="preserve" x="-26179" stroke="none" font-size="433.3333" font-family="sans-serif">OH</text><text y="-23856" xml:space="preserve" x="-13248" stroke="none" font-size="433.3333" font-family="sans-serif">OH</text><text y="-31413" xml:space="preserve" x="-13248" stroke="none" font-size="433.3333" font-family="sans-serif">OH</text><text y="-28750" xml:space="preserve" x="-12341" stroke="none" font-size="433.3333" font-family="sans-serif">OH</text><text y="-24948" xml:space="preserve" x="-11353" stroke="none" font-size="433.3333" font-family="sans-serif">OH</text><text y="-27132" xml:space="preserve" x="-11353" stroke="none" font-size="433.3333" font-family="sans-serif">OH</text><text y="-21793" xml:space="preserve" x="-28074" stroke="none" font-size="433.3333" font-family="sans-serif">O</text><text y="-25549" xml:space="preserve" x="-30948" stroke="none" font-size="433.3333" font-family="sans-serif">O</text><text y="-25471" xml:space="preserve" x="-18015" stroke="none" font-size="433.3333" font-family="sans-serif">O</text><text y="-30966" xml:space="preserve" x="-29056" stroke="none" font-size="433.3333" font-family="sans-serif">O</text><text y="-30890" xml:space="preserve" x="-16125" stroke="none" font-size="433.3333" font-family="sans-serif">O</text><text y="-26609" xml:space="preserve" x="-14230" stroke="none" font-size="433.3333" font-family="sans-serif">O</text><text y="-25939" xml:space="preserve" x="-22778" stroke="none" font-size="433.3333" font-family="sans-serif">H</text><text y="-24217" xml:space="preserve" x="-25725" stroke="none" font-size="433.3333" font-family="sans-serif">H</text><text y="-25939" xml:space="preserve" x="-20814" stroke="none" font-size="433.3333" font-family="sans-serif">H</text><text y="-27658" xml:space="preserve" x="-18015" stroke="none" font-size="433.3333" font-family="sans-serif">H</text><text y="-30275" xml:space="preserve" x="-17032" stroke="none" font-size="433.3333" font-family="sans-serif">H</text><text y="-25997" xml:space="preserve" x="-15137" stroke="none" font-size="433.3333" font-family="sans-serif">H</text><text y="-30353" xml:space="preserve" x="-29963" stroke="none" font-size="433.3333" font-family="sans-serif">H</text><text y="-22166" xml:space="preserve" x="-25974" stroke="none" font-style="italic" font-size="313.3333" font-family="sans-serif">S</text><text y="-23027" xml:space="preserve" x="-25477" stroke="none" font-style="italic" font-size="313.3333" font-family="sans-serif">S</text><text y="-23027" xml:space="preserve" x="-23512" stroke="none" font-style="italic" font-size="313.3333" font-family="sans-serif">S</text><text y="-23888" xml:space="preserve" x="-23027" stroke="none" font-style="italic" font-size="313.3333" font-family="sans-serif">R</text><text y="-24746" xml:space="preserve" x="-22530" stroke="none" font-style="italic" font-size="313.3333" font-family="sans-serif">R</text><text y="-25607" xml:space="preserve" x="-22045" stroke="none" font-style="italic" font-size="313.3333" font-family="sans-serif">R</text><text y="-24746" xml:space="preserve" x="-20566" stroke="none" font-style="italic" font-size="313.3333" font-family="sans-serif">R</text><text y="-26465" xml:space="preserve" x="-20077" stroke="none" font-style="italic" font-size="313.3333" font-family="sans-serif">S</text><text y="-20800" xml:space="preserve" x="-28322" stroke="none" font-style="italic" font-size="313.3333" font-family="sans-serif">S</text><text y="-20389" xml:space="preserve" x="-29056" stroke="none" font-style="italic" font-size="313.3333" font-family="sans-serif">R</text><text y="-22059" xml:space="preserve" x="-29056" stroke="none" font-style="italic" font-size="313.3333" font-family="sans-serif">R</text><text y="-20800" xml:space="preserve" x="-29796" stroke="none" font-style="italic" font-size="313.3333" font-family="sans-serif">S</text><text y="-21649" xml:space="preserve" x="-29796" stroke="none" font-style="italic" font-size="313.3333" font-family="sans-serif">S</text><text y="-25283" xml:space="preserve" x="-29963" stroke="none" font-style="italic" font-size="313.3333" font-family="sans-serif">R</text><text y="-25693" xml:space="preserve" x="-29226" stroke="none" font-style="italic" font-size="313.3333" font-family="sans-serif">R</text><text y="-26543" xml:space="preserve" x="-30700" stroke="none" font-style="italic" font-size="313.3333" font-family="sans-serif">R</text><text y="-26543" xml:space="preserve" x="-29226" stroke="none" font-style="italic" font-size="313.3333" font-family="sans-serif">R</text><text y="-26953" xml:space="preserve" x="-29963" stroke="none" font-style="italic" font-size="313.3333" font-family="sans-serif">S</text><text y="-26465" xml:space="preserve" x="-17766" stroke="none" font-style="italic" font-size="313.3333" font-family="sans-serif">S</text><text y="-26875" xml:space="preserve" x="-17032" stroke="none" font-style="italic" font-size="313.3333" font-family="sans-serif">R</text><text y="-26465" xml:space="preserve" x="-16293" stroke="none" font-style="italic" font-size="313.3333" font-family="sans-serif">S</text><text y="-25615" xml:space="preserve" x="-16293" stroke="none" font-style="italic" font-size="313.3333" font-family="sans-serif">S</text><text y="-29972" xml:space="preserve" x="-28808" stroke="none" font-style="italic" font-size="313.3333" font-family="sans-serif">S</text><text y="-29562" xml:space="preserve" x="-28074" stroke="none" font-style="italic" font-size="313.3333" font-family="sans-serif">R</text><text y="-29972" xml:space="preserve" x="-27334" stroke="none" font-style="italic" font-size="313.3333" font-family="sans-serif">R</text><text y="-31234" xml:space="preserve" x="-28074" stroke="none" font-style="italic" font-size="313.3333" font-family="sans-serif">S</text><text y="-30824" xml:space="preserve" x="-27334" stroke="none" font-style="italic" font-size="313.3333" font-family="sans-serif">R</text><text y="-29897" xml:space="preserve" x="-15877" stroke="none" font-style="italic" font-size="313.3333" font-family="sans-serif">S</text><text y="-29486" xml:space="preserve" x="-15140" stroke="none" font-style="italic" font-size="313.3333" font-family="sans-serif">R</text><text y="-29897" xml:space="preserve" x="-14404" stroke="none" font-style="italic" font-size="313.3333" font-family="sans-serif">R</text><text y="-31156" xml:space="preserve" x="-15140" stroke="none" font-style="italic" font-size="313.3333" font-family="sans-serif">S</text><text y="-30746" xml:space="preserve" x="-14404" stroke="none" font-style="italic" font-size="313.3333" font-family="sans-serif">R</text><text y="-25615" xml:space="preserve" x="-13982" stroke="none" font-style="italic" font-size="313.3333" font-family="sans-serif">S</text><text y="-25205" xml:space="preserve" x="-13248" stroke="none" font-style="italic" font-size="313.3333" font-family="sans-serif">R</text><text y="-26875" xml:space="preserve" x="-13248" stroke="none" font-style="italic" font-size="313.3333" font-family="sans-serif">R</text><text y="-25615" xml:space="preserve" x="-12508" stroke="none" font-style="italic" font-size="313.3333" font-family="sans-serif">S</text><text y="-26465" xml:space="preserve" x="-12508" stroke="none" font-style="italic" font-size="313.3333" font-family="sans-serif">S</text></g></g></svg>