<svg width="358.17" viewBox="0 0 11939 6650" text-rendering="auto" stroke-width="1" stroke-opacity="1" stroke-miterlimit="10" stroke-linejoin="miter" stroke-linecap="square" stroke-dashoffset="0" stroke-dasharray="none" stroke="black" shape-rendering="auto" image-rendering="auto" height="199.5" font-weight="normal" font-style="normal" font-size="12" font-family="'Dialog'" fill-opacity="1" fill="black" color-rendering="auto" color-interpolation="auto" xmlns="http://www.w3.org/2000/svg"><g><g stroke="white" fill="white"><rect y="0" x="0" width="11939" stroke="none" height="6650"/></g><g transform="translate(32866,32866)" text-rendering="geometricPrecision" stroke-width="44" stroke-linejoin="round" stroke-linecap="round"><line y2="-28712" y1="-28975" x2="-25543" x1="-25997" fill="none"/><line y2="-29244" y1="-28712" x2="-24246" x1="-25168" fill="none"/><line y2="-28094" y1="-28972" x2="-28172" x1="-26678" fill="none"/><line y2="-28354" y1="-28091" x2="-29001" x1="-28548" fill="none"/><line y2="-30220" y1="-29391" x2="-26340" x1="-26340" fill="none"/><line y2="-29616" y1="-29368" x2="-27109" x1="-26678" fill="none"/><line y2="-28917" y1="-29244" x2="-23001" x1="-23567" fill="none"/><line y2="-30489" y1="-29660" x2="-23908" x1="-23908" fill="none"/><line y2="-29900" y1="-29637" x2="-23111" x1="-23567" fill="none"/><line y2="-28028" y1="-28354" x2="-30252" x1="-29683" fill="none"/><line y2="-29385" y1="-28747" x2="-30792" x1="-29683" fill="none"/><line y2="-29380" y1="-28770" x2="-29345" x1="-29345" fill="none"/><line y2="-30789" y1="-30220" x2="-27326" x1="-26340" fill="none"/><line y2="-30867" y1="-30440" x2="-27118" x1="-26378" fill="none"/><line y2="-30220" y1="-30789" x2="-26340" x1="-25355" fill="none"/><line y2="-31928" y1="-30789" x2="-27326" x1="-27326" fill="none"/><line y2="-30789" y1="-31928" x2="-25355" x1="-25355" fill="none"/><line y2="-30931" y1="-31783" x2="-25526" x1="-25526" fill="none"/><line y2="-32497" y1="-31928" x2="-26340" x1="-27326" fill="none"/><line y2="-32277" y1="-31850" x2="-26378" x1="-27118" fill="none"/><line y2="-31928" y1="-32497" x2="-25355" x1="-26340" fill="none"/><line y2="-28917" y1="-27779" x2="-23001" x1="-23001" fill="none"/><line y2="-28776" y1="-27921" x2="-22830" x1="-22830" fill="none"/><line y2="-29484" y1="-28917" x2="-22013" x1="-23001" fill="none"/><line y2="-27779" y1="-27210" x2="-23001" x1="-22013" fill="none"/><line y2="-28917" y1="-29484" x2="-21031" x1="-22013" fill="none"/><line y2="-28839" y1="-29267" x2="-21239" x1="-21975" fill="none"/><line y2="-27210" y1="-27779" x2="-22013" x1="-21031" fill="none"/><line y2="-27430" y1="-27857" x2="-21975" x1="-21239" fill="none"/><line y2="-27779" y1="-28917" x2="-21031" x1="-21031" fill="none"/><line y2="-31055" y1="-30489" x2="-24893" x1="-23908" fill="none"/><line y2="-31133" y1="-30706" x2="-24685" x1="-23946" fill="none"/><line y2="-30489" y1="-31055" x2="-23908" x1="-22923" fill="none"/><line y2="-32193" y1="-31055" x2="-24893" x1="-24893" fill="none"/><line y2="-31055" y1="-32193" x2="-22923" x1="-22923" fill="none"/><line y2="-31200" y1="-32052" x2="-23093" x1="-23093" fill="none"/><line y2="-32762" y1="-32193" x2="-23908" x1="-24893" fill="none"/><line y2="-32543" y1="-32118" x2="-23946" x1="-24685" fill="none"/><line y2="-32193" y1="-32762" x2="-22923" x1="-23908" fill="none"/><line y2="-28028" y1="-28597" x2="-30252" x1="-31234" fill="none"/><line y2="-27950" y1="-28377" x2="-30460" x1="-31197" fill="none"/><line y2="-26889" y1="-28028" x2="-30252" x1="-30252" fill="none"/><line y2="-28597" y1="-28028" x2="-31234" x1="-32222" fill="none"/><line y2="-26320" y1="-26889" x2="-31234" x1="-30252" fill="none"/><line y2="-26540" y1="-26964" x2="-31197" x1="-30460" fill="none"/><line y2="-28028" y1="-26889" x2="-32222" x1="-32222" fill="none"/><line y2="-27883" y1="-27031" x2="-32052" x1="-32052" fill="none"/><line y2="-26889" y1="-26320" x2="-32222" x1="-31234" fill="none"/><line y2="-29385" y1="-30521" x2="-30792" x1="-30792" fill="none"/><line y2="-29527" y1="-30379" x2="-30960" x1="-30960" fill="none"/><line y2="-28816" y1="-29385" x2="-31774" x1="-30792" fill="none"/><line y2="-30521" y1="-31090" x2="-30792" x1="-31774" fill="none"/><line y2="-29385" y1="-28816" x2="-32762" x1="-31774" fill="none"/><line y2="-29463" y1="-29036" x2="-32552" x1="-31812" fill="none"/><line y2="-31090" y1="-30521" x2="-31774" x1="-32762" fill="none"/><line y2="-30873" y1="-30446" x2="-31812" x1="-32552" fill="none"/><line y2="-30521" y1="-29385" x2="-32762" x1="-32762" fill="none"/><text y="-29261" xml:space="preserve" x="-24139" stroke="none" font-size="433.3333" font-family="sans-serif">Si</text><text y="-28426" xml:space="preserve" x="-25508" stroke="none" font-size="433.3333" font-family="sans-serif">O</text><text y="-29830" xml:space="preserve" x="-23076" stroke="none" font-size="433.3333" font-family="sans-serif">CH</text><text y="-29741" xml:space="preserve" x="-22498" stroke="none" font-size="313.3333" font-family="sans-serif">3</text><text y="-28995" xml:space="preserve" x="-26572" stroke="none" font-size="433.3333" font-family="sans-serif">Si</text><text y="-27802" xml:space="preserve" x="-28513" stroke="none" font-size="433.3333" font-family="sans-serif">O</text><text y="-29767" xml:space="preserve" x="-27831" stroke="none" font-size="433.3333" font-family="sans-serif">CH</text><text y="-29677" xml:space="preserve" x="-27253" stroke="none" font-size="313.3333" font-family="sans-serif">3</text><text y="-28371" xml:space="preserve" x="-29576" stroke="none" font-size="433.3333" font-family="sans-serif">Si</text><text y="-29417" xml:space="preserve" x="-29495" stroke="none" font-size="433.3333" font-family="sans-serif">CH</text><text y="-29328" xml:space="preserve" x="-28917" stroke="none" font-size="313.3333" font-family="sans-serif">3</text></g></g></svg>