<svg width="230.34" viewBox="0 0 7678 3734" text-rendering="auto" stroke-width="1" stroke-opacity="1" stroke-miterlimit="10" stroke-linejoin="miter" stroke-linecap="square" stroke-dashoffset="0" stroke-dasharray="none" stroke="black" shape-rendering="auto" image-rendering="auto" height="112.02" font-weight="normal" font-style="normal" font-size="12" font-family="'Dialog'" fill-opacity="1" fill="black" color-rendering="auto" color-interpolation="auto" xmlns="http://www.w3.org/2000/svg"><g><g stroke="white" fill="white"><rect y="0" x="0" width="7678" stroke="none" height="3734"/></g><g transform="translate(32866,32758)" text-rendering="geometricPrecision" stroke-width="44" stroke-linejoin="round" stroke-linecap="round"><line y2="-30836" y1="-31405" x2="-28042" x1="-29024" fill="none"/><line y2="-30758" y1="-31185" x2="-28250" x1="-28987" fill="none"/><line y2="-29697" y1="-30836" x2="-28042" x1="-28042" fill="none"/><line y2="-31405" y1="-30836" x2="-29024" x1="-30012" fill="none"/><line y2="-29128" y1="-29697" x2="-29024" x1="-28042" fill="none"/><line y2="-29348" y1="-29772" x2="-28987" x1="-28250" fill="none"/><line y2="-30836" y1="-29697" x2="-30012" x1="-30012" fill="none"/><line y2="-30691" y1="-29839" x2="-29842" x1="-29842" fill="none"/><line y2="-29697" y1="-29128" x2="-30012" x1="-29024" fill="none"/><line y2="-31358" y1="-30836" x2="-27135" x1="-28042" fill="none"/><line y2="-31358" y1="-30836" x2="-30919" x1="-30012" fill="none"/><line y2="-31358" y1="-30807" x2="-27135" x1="-26424" fill="none"/><line y2="-31425" y1="-31012" x2="-26941" x1="-26407" fill="none"/><line y2="-32202" y1="-31358" x2="-26843" x1="-27135" fill="none"/><line y2="-30801" y1="-31358" x2="-26046" x1="-25292" fill="none"/><line y2="-32422" y1="-32422" x2="-25621" x1="-26577" fill="none"/><line y2="-31358" y1="-32422" x2="-25292" x1="-25621" fill="none"/><line y2="-30801" y1="-31358" x2="-31673" x1="-30919" fill="none"/><line y2="-31009" y1="-31425" x2="-31682" x1="-31116" fill="none"/><line y2="-31358" y1="-32202" x2="-30919" x1="-31179" fill="none"/><line y2="-31358" y1="-30807" x2="-32762" x1="-32049" fill="none"/><line y2="-32422" y1="-32422" x2="-31436" x1="-32393" fill="none"/><line y2="-32422" y1="-31358" x2="-32393" x1="-32762" fill="none"/><text y="-30483" xml:space="preserve" x="-26387" stroke="none" font-size="433.3333" font-family="sans-serif">N</text><text y="-32242" xml:space="preserve" x="-26918" stroke="none" font-size="433.3333" font-family="sans-serif">O</text><text y="-30483" xml:space="preserve" x="-32014" stroke="none" font-size="433.3333" font-family="sans-serif">N</text><text y="-32242" xml:space="preserve" x="-31399" stroke="none" font-size="433.3333" font-family="sans-serif">O</text></g></g></svg>