<svg width="159.78" viewBox="0 0 5326 2698" text-rendering="auto" stroke-width="1" stroke-opacity="1" stroke-miterlimit="10" stroke-linejoin="miter" stroke-linecap="square" stroke-dashoffset="0" stroke-dasharray="none" stroke="black" shape-rendering="auto" image-rendering="auto" height="80.94" font-weight="normal" font-style="normal" font-size="12" font-family="'Dialog'" fill-opacity="1" fill="black" color-rendering="auto" color-interpolation="auto" xmlns="http://www.w3.org/2000/svg"><g><g stroke="white" fill="white"><rect y="0" x="0" width="5326" stroke="none" height="2698"/></g><g transform="translate(32866,32866)" text-rendering="geometricPrecision" stroke-width="44" stroke-linejoin="round" stroke-linecap="round"><line y2="-30272" y1="-31228" x2="-30700" x1="-30235" fill="none"/><line y2="-32762" y1="-31668" x2="-30131" x1="-30131" fill="none"/><line y2="-30272" y1="-30272" x2="-30700" x1="-29562" fill="none"/><line y2="-31159" y1="-30272" x2="-31410" x1="-30700" fill="none"/><line y2="-32268" y1="-32762" x2="-29102" x1="-30131" fill="none"/><line y2="-32762" y1="-32268" x2="-30131" x1="-31153" fill="none"/><line y2="-30272" y1="-31159" x2="-29562" x1="-28851" fill="none"/><line y2="-32268" y1="-31159" x2="-31153" x1="-31410" fill="none"/><line y2="-31159" y1="-32268" x2="-28851" x1="-29102" fill="none"/><line y2="-31630" y1="-31480" x2="-31156" x1="-30318" fill="none"/><line y2="-31748" y1="-31676" x2="-31847" x1="-31434" fill="none"/><line y2="-31035" y1="-31228" x2="-28002" x1="-28834" fill="none"/><line y2="-30899" y1="-31093" x2="-28033" x1="-28865" fill="none"/><line y2="-32257" y1="-31748" x2="-32762" x1="-31847" fill="none"/><line y2="-30703" y1="-31748" x2="-31847" x1="-31847" fill="none"/><text y="-30746" xml:space="preserve" x="-27981" stroke="none" font-size="433.3333" font-family="sans-serif">O</text><text y="-31269" xml:space="preserve" x="-30284" stroke="none" font-size="433.3333" font-family="sans-serif">N</text></g></g></svg>