<svg width="216.54" viewBox="0 0 7218 8792" text-rendering="auto" stroke-width="1" stroke-opacity="1" stroke-miterlimit="10" stroke-linejoin="miter" stroke-linecap="square" stroke-dashoffset="0" stroke-dasharray="none" stroke="black" shape-rendering="auto" image-rendering="auto" height="263.76" font-weight="normal" font-style="normal" font-size="12" font-family="'Dialog'" fill-opacity="1" fill="black" color-rendering="auto" color-interpolation="auto" xmlns="http://www.w3.org/2000/svg"><g><g stroke="white" fill="white"><rect y="0" x="0" width="7218" stroke="none" height="8792"/></g><g transform="translate(32866,32758)" text-rendering="geometricPrecision" stroke-width="44" stroke-linejoin="round" stroke-linecap="round"><line y2="-27354" y1="-26525" x2="-31855" x1="-31855" fill="none"/><line y2="-28097" y1="-27794" x2="-30945" x1="-31474" fill="none"/><line y2="-29146" y1="-28097" x2="-30945" x1="-30945" fill="none"/><line y2="-29668" y1="-29146" x2="-30038" x1="-30945" fill="none"/><line y2="-26002" y1="-26525" x2="-30945" x1="-31855" fill="none"/><line y2="-26525" y1="-26002" x2="-30038" x1="-30945" fill="none"/><line y2="-26002" y1="-26525" x2="-29131" x1="-30038" fill="none"/><line y2="-26002" y1="-26525" x2="-32762" x1="-31855" fill="none"/><line y2="-30807" y1="-29668" x2="-30038" x1="-30038" fill="none"/><line y2="-30665" y1="-29810" x2="-29871" x1="-29871" fill="none"/><line y2="-29668" y1="-29099" x2="-30038" x1="-29053" fill="none"/><line y2="-31376" y1="-30807" x2="-29053" x1="-30038" fill="none"/><line y2="-29099" y1="-29668" x2="-29053" x1="-28068" fill="none"/><line y2="-29319" y1="-29744" x2="-29016" x1="-28276" fill="none"/><line y2="-30807" y1="-31376" x2="-28068" x1="-29053" fill="none"/><line y2="-30729" y1="-31156" x2="-28276" x1="-29016" fill="none"/><line y2="-29668" y1="-30807" x2="-28068" x1="-28068" fill="none"/><line y2="-32202" y1="-31376" x2="-29053" x1="-29053" fill="none"/><line y2="-31223" y1="-30807" x2="-27352" x1="-28068" fill="none"/><line y2="-26002" y1="-24864" x2="-29131" x1="-29131" fill="none"/><line y2="-25858" y1="-25006" x2="-28964" x1="-28964" fill="none"/><line y2="-26572" y1="-26002" x2="-28146" x1="-29131" fill="none"/><line y2="-24864" y1="-24295" x2="-29131" x1="-28146" fill="none"/><line y2="-26002" y1="-26572" x2="-27161" x1="-28146" fill="none"/><line y2="-25924" y1="-26352" x2="-27369" x1="-28108" fill="none"/><line y2="-24295" y1="-24864" x2="-28146" x1="-27161" fill="none"/><line y2="-24512" y1="-24939" x2="-28108" x1="-27369" fill="none"/><line y2="-24864" y1="-26002" x2="-27161" x1="-27161" fill="none"/><line y2="-24448" y1="-24864" x2="-26444" x1="-27161" fill="none"/><text y="-27395" xml:space="preserve" x="-32006" stroke="none" font-size="433.3333" font-family="sans-serif">NH</text><text y="-32242" xml:space="preserve" x="-29206" stroke="none" font-size="433.3333" font-family="sans-serif">OH</text><text y="-31150" xml:space="preserve" x="-27314" stroke="none" font-size="433.3333" font-family="sans-serif">OH</text><text y="-24162" xml:space="preserve" x="-26407" stroke="none" font-size="433.3333" font-family="sans-serif">OH</text></g></g></svg>