<svg width="238.71" viewBox="0 0 7957 4035" text-rendering="auto" stroke-width="1" stroke-opacity="1" stroke-miterlimit="10" stroke-linejoin="miter" stroke-linecap="square" stroke-dashoffset="0" stroke-dasharray="none" stroke="black" shape-rendering="auto" image-rendering="auto" height="121.05" font-weight="normal" font-style="normal" font-size="12" font-family="'Dialog'" fill-opacity="1" fill="black" color-rendering="auto" color-interpolation="auto" xmlns="http://www.w3.org/2000/svg"><g><g stroke="white" fill="white"><rect y="0" x="0" width="7957" stroke="none" height="4035"/></g><g transform="translate(32866,32758)" text-rendering="geometricPrecision" stroke-width="44" stroke-linejoin="round" stroke-linecap="round"><line y2="-30824" y1="-31350" x2="-28984" x1="-29891" fill="none"/><line y2="-30824" y1="-31350" x2="-30795" x1="-29891" fill="none"/><line y2="-32176" y1="-31350" x2="-29960" x1="-29960" fill="none"/><line y2="-32176" y1="-31350" x2="-29819" x1="-29819" fill="none"/><line y2="-31393" y1="-30824" x2="-27996" x1="-28984" fill="none"/><line y2="-31176" y1="-30749" x2="-28033" x1="-28773" fill="none"/><line y2="-30824" y1="-29689" x2="-28984" x1="-28984" fill="none"/><line y2="-30824" y1="-31393" x2="-27014" x1="-27996" fill="none"/><line y2="-29689" y1="-29120" x2="-28984" x1="-27996" fill="none"/><line y2="-29764" y1="-29336" x2="-28773" x1="-28033" fill="none"/><line y2="-29689" y1="-30824" x2="-27014" x1="-27014" fill="none"/><line y2="-29830" y1="-30682" x2="-27181" x1="-27181" fill="none"/><line y2="-29120" y1="-29689" x2="-27996" x1="-27014" fill="none"/><line y2="-31240" y1="-30824" x2="-26294" x1="-27014" fill="none"/><line y2="-29382" y1="-29689" x2="-29510" x1="-28984" fill="none"/><line y2="-30824" y1="-31376" x2="-30795" x1="-31789" fill="none"/><line y2="-30746" y1="-31156" x2="-31003" x1="-31748" fill="none"/><line y2="-29689" y1="-30824" x2="-30775" x1="-30795" fill="none"/><line y2="-31376" y1="-30792" x2="-31789" x1="-32762" fill="none"/><line y2="-29102" y1="-29689" x2="-31748" x1="-30775" fill="none"/><line y2="-29322" y1="-29761" x2="-31717" x1="-30983" fill="none"/><line y2="-30792" y1="-29654" x2="-32762" x1="-32745" fill="none"/><line y2="-30654" y1="-29798" x2="-32592" x1="-32578" fill="none"/><line y2="-29654" y1="-29102" x2="-32745" x1="-31748" fill="none"/><line y2="-32202" y1="-31376" x2="-31789" x1="-31789" fill="none"/><line y2="-32176" y1="-31569" x2="-26176" x1="-26176" fill="none"/><line y2="-32176" y1="-31569" x2="-26034" x1="-26034" fill="none"/><line y2="-30994" y1="-31301" x2="-25352" x1="-25881" fill="none"/><line y2="-30873" y1="-31179" x2="-25422" x1="-25953" fill="none"/><text y="-32216" xml:space="preserve" x="-30041" stroke="none" font-size="433.3333" font-family="sans-serif">O</text><text y="-28984" xml:space="preserve" x="-30041" stroke="none" font-size="433.3333" font-family="sans-serif">NH</text><text y="-28894" xml:space="preserve" x="-29463" stroke="none" font-size="313.3333" font-family="sans-serif">2</text><text y="-31171" xml:space="preserve" x="-26257" stroke="none" font-size="433.3333" font-family="sans-serif">N</text><text y="-32216" xml:space="preserve" x="-26257" stroke="none" font-size="433.3333" font-family="sans-serif">O</text><text y="-30645" xml:space="preserve" x="-25350" stroke="none" font-size="433.3333" font-family="sans-serif">O</text><text y="-32242" xml:space="preserve" x="-31942" stroke="none" font-size="433.3333" font-family="sans-serif">F</text></g></g></svg>