<svg width="196.71" viewBox="0 0 6557 3329" text-rendering="auto" stroke-width="1" stroke-opacity="1" stroke-miterlimit="10" stroke-linejoin="miter" stroke-linecap="square" stroke-dashoffset="0" stroke-dasharray="none" stroke="black" shape-rendering="auto" image-rendering="auto" height="99.87" font-weight="normal" font-style="normal" font-size="12" font-family="'Dialog'" fill-opacity="1" fill="black" color-rendering="auto" color-interpolation="auto" xmlns="http://www.w3.org/2000/svg"><g><g stroke="white" fill="white"><rect y="0" x="0" width="6557" stroke="none" height="3329"/></g><g transform="translate(32866,32758)" text-rendering="geometricPrecision" stroke-width="44" stroke-linejoin="round" stroke-linecap="round"><line y2="-30850" y1="-31376" x2="-27320" x1="-28227" fill="none"/><line y2="-30960" y1="-31376" x2="-28946" x1="-28227" fill="none"/><line y2="-31376" y1="-30960" x2="-30041" x1="-29322" fill="none"/><line y2="-30850" y1="-31376" x2="-30948" x1="-30041" fill="none"/><line y2="-31376" y1="-30850" x2="-31855" x1="-30948" fill="none"/><line y2="-30850" y1="-31376" x2="-32762" x1="-31855" fill="none"/><line y2="-32202" y1="-31376" x2="-28296" x1="-28296" fill="none"/><line y2="-32202" y1="-31376" x2="-28158" x1="-28158" fill="none"/><line y2="-31376" y1="-30850" x2="-26413" x1="-27320" fill="none"/><line y2="-30021" y1="-30024" x2="-27389" x1="-27250" fill="none"/><line y2="-30238" y1="-30240" x2="-27371" x1="-27268" fill="none"/><line y2="-30455" y1="-30457" x2="-27353" x1="-27287" fill="none"/><line y2="-30672" y1="-30673" x2="-27335" x1="-27305" fill="none"/><text y="-30671" xml:space="preserve" x="-29287" stroke="none" font-size="433.3333" font-family="sans-serif">O</text><text y="-32242" xml:space="preserve" x="-28380" stroke="none" font-size="433.3333" font-family="sans-serif">O</text><text y="-29625" xml:space="preserve" x="-27473" stroke="none" font-size="433.3333" font-family="sans-serif">OH</text><text y="-30974" xml:space="preserve" x="-27473" stroke="none" font-style="italic" font-size="313.3333" font-family="sans-serif">S</text></g></g></svg>