<svg width="330.72" viewBox="0 0 11024 7560" text-rendering="auto" stroke-width="1" stroke-opacity="1" stroke-miterlimit="10" stroke-linejoin="miter" stroke-linecap="square" stroke-dashoffset="0" stroke-dasharray="none" stroke="black" shape-rendering="auto" image-rendering="auto" height="226.8" font-weight="normal" font-style="normal" font-size="12" font-family="'Dialog'" fill-opacity="1" fill="black" color-rendering="auto" color-interpolation="auto" xmlns="http://www.w3.org/2000/svg"><g><g stroke="white" fill="white"><rect y="0" x="0" width="11024" stroke="none" height="7560"/></g><g transform="translate(32866,32866)" text-rendering="geometricPrecision" stroke-width="44" stroke-linejoin="round" stroke-linecap="round"><line y2="-28732" y1="-29333" x2="-28845" x1="-27808" fill="none"/><line y2="-28958" y1="-29406" x2="-28802" x1="-28025" fill="none"/><line y2="-30313" y1="-29333" x2="-27808" x1="-27808" fill="none"/><line y2="-29333" y1="-29333" x2="-27808" x1="-25919" fill="none"/><line y2="-29114" y1="-28732" x2="-29504" x1="-28845" fill="none"/><line y2="-30642" y1="-31130" x2="-27996" x1="-28845" fill="none"/><line y2="-31130" y1="-30642" x2="-26768" x1="-27620" fill="none"/><line y2="-29553" y1="-30532" x2="-25731" x1="-25731" fill="none"/><line y2="-29674" y1="-30411" x2="-25901" x1="-25901" fill="none"/><line y2="-30532" y1="-29553" x2="-29885" x1="-29885" fill="none"/><line y2="-31130" y1="-30532" x2="-28845" x1="-29885" fill="none"/><line y2="-30908" y1="-30460" x2="-28891" x1="-29671" fill="none"/><line y2="-30532" y1="-31130" x2="-25731" x1="-26768" fill="none"/><line y2="-31055" y1="-30532" x2="-24824" x1="-25731" fill="none"/><line y2="-30532" y1="-31055" x2="-23917" x1="-24824" fill="none"/><line y2="-27687" y1="-28732" x2="-28845" x1="-28845" fill="none"/><line y2="-31055" y1="-30532" x2="-30792" x1="-29885" fill="none"/><line y2="-31959" y1="-31130" x2="-26837" x1="-26837" fill="none"/><line y2="-31959" y1="-31130" x2="-26699" x1="-26699" fill="none"/><line y2="-30532" y1="-29394" x2="-23917" x1="-23917" fill="none"/><line y2="-30391" y1="-29538" x2="-23746" x1="-23746" fill="none"/><line y2="-31101" y1="-30532" x2="-22932" x1="-23917" fill="none"/><line y2="-29394" y1="-28828" x2="-23917" x1="-22932" fill="none"/><line y2="-30532" y1="-31101" x2="-21946" x1="-22932" fill="none"/><line y2="-30457" y1="-30885" x2="-22154" x1="-22894" fill="none"/><line y2="-28828" y1="-29394" x2="-22932" x1="-21946" fill="none"/><line y2="-29044" y1="-29472" x2="-22894" x1="-22154" fill="none"/><line y2="-29394" y1="-30532" x2="-21946" x1="-21946" fill="none"/><line y2="-27687" y1="-27118" x2="-28845" x1="-29833" fill="none"/><line y2="-27467" y1="-27040" x2="-28886" x1="-29625" fill="none"/><line y2="-27118" y1="-27687" x2="-27863" x1="-28845" fill="none"/><line y2="-27118" y1="-25979" x2="-29833" x1="-29833" fill="none"/><line y2="-25979" y1="-27118" x2="-27863" x1="-27863" fill="none"/><line y2="-26121" y1="-26973" x2="-28033" x1="-28033" fill="none"/><line y2="-25979" y1="-25410" x2="-29833" x1="-28845" fill="none"/><line y2="-26057" y1="-25630" x2="-29625" x1="-28886" fill="none"/><line y2="-25410" y1="-25979" x2="-28845" x1="-27863" fill="none"/><line y2="-31055" y1="-32193" x2="-30792" x1="-30792" fill="none"/><line y2="-31200" y1="-32052" x2="-30963" x1="-30963" fill="none"/><line y2="-30489" y1="-31055" x2="-31777" x1="-30792" fill="none"/><line y2="-32193" y1="-32762" x2="-30792" x1="-31777" fill="none"/><line y2="-31055" y1="-30489" x2="-32762" x1="-31777" fill="none"/><line y2="-31133" y1="-30706" x2="-32554" x1="-31815" fill="none"/><line y2="-32762" y1="-32193" x2="-31777" x1="-32762" fill="none"/><line y2="-32543" y1="-32118" x2="-31815" x1="-32554" fill="none"/><line y2="-32193" y1="-31055" x2="-32762" x1="-32762" fill="none"/><text y="-32000" xml:space="preserve" x="-26921" stroke="none" font-size="433.3333" font-family="sans-serif">O</text><text y="-30353" xml:space="preserve" x="-27961" stroke="none" font-size="433.3333" font-family="sans-serif">N</text><text y="-29154" xml:space="preserve" x="-25884" stroke="none" font-size="433.3333" font-family="sans-serif">N</text><text y="-29154" xml:space="preserve" x="-30038" stroke="none" font-size="433.3333" font-family="sans-serif">NH</text></g></g></svg>