<svg width="260.52" viewBox="0 0 8684 4142" text-rendering="auto" stroke-width="1" stroke-opacity="1" stroke-miterlimit="10" stroke-linejoin="miter" stroke-linecap="square" stroke-dashoffset="0" stroke-dasharray="none" stroke="black" shape-rendering="auto" image-rendering="auto" height="124.26" font-weight="normal" font-style="normal" font-size="12" font-family="'Dialog'" fill-opacity="1" fill="black" color-rendering="auto" color-interpolation="auto" xmlns="http://www.w3.org/2000/svg"><g><g stroke="white" fill="white"><rect y="0" x="0" width="8684" stroke="none" height="4142"/></g><g transform="translate(32866,32866)" text-rendering="geometricPrecision" stroke-width="44" stroke-linejoin="round" stroke-linecap="round"><line y2="-30532" y1="-31055" x2="-28071" x1="-28978" fill="none"/><line y2="-30532" y1="-31055" x2="-29885" x1="-28978" fill="none"/><line y2="-31884" y1="-31055" x2="-29047" x1="-29047" fill="none"/><line y2="-31884" y1="-31055" x2="-28909" x1="-28909" fill="none"/><line y2="-31055" y1="-30532" x2="-27164" x1="-28071" fill="none"/><line y2="-29703" y1="-30532" x2="-28002" x1="-28002" fill="none"/><line y2="-29703" y1="-30532" x2="-28140" x1="-28140" fill="none"/><line y2="-29394" y1="-30532" x2="-29885" x1="-29885" fill="none"/><line y2="-29538" y1="-30391" x2="-30056" x1="-30056" fill="none"/><line y2="-30532" y1="-31101" x2="-29885" x1="-30867" fill="none"/><line y2="-28828" y1="-29394" x2="-30867" x1="-29885" fill="none"/><line y2="-31101" y1="-30532" x2="-30867" x1="-31855" fill="none"/><line y2="-30882" y1="-30454" x2="-30908" x1="-31647" fill="none"/><line y2="-29394" y1="-28828" x2="-31855" x1="-30867" fill="none"/><line y2="-29472" y1="-29044" x2="-31647" x1="-30908" fill="none"/><line y2="-30532" y1="-29394" x2="-31855" x1="-31855" fill="none"/><line y2="-28871" y1="-29394" x2="-32762" x1="-31855" fill="none"/><line y2="-32193" y1="-31055" x2="-27164" x1="-27164" fill="none"/><line y2="-32052" y1="-31200" x2="-26993" x1="-26993" fill="none"/><line y2="-31055" y1="-30489" x2="-27164" x1="-26176" fill="none"/><line y2="-32762" y1="-32193" x2="-26176" x1="-27164" fill="none"/><line y2="-30489" y1="-31055" x2="-26176" x1="-25194" fill="none"/><line y2="-30706" y1="-31133" x2="-26138" x1="-25402" fill="none"/><line y2="-32193" y1="-32762" x2="-25194" x1="-26176" fill="none"/><line y2="-32118" y1="-32546" x2="-25402" x1="-26138" fill="none"/><line y2="-31055" y1="-32193" x2="-25194" x1="-25194" fill="none"/><line y2="-32719" y1="-32193" x2="-24286" x1="-25194" fill="none"/><text y="-31925" xml:space="preserve" x="-29131" stroke="none" font-size="433.3333" font-family="sans-serif">O</text><text y="-29304" xml:space="preserve" x="-28224" stroke="none" font-size="433.3333" font-family="sans-serif">O</text></g></g></svg>