<svg width="306.96" viewBox="0 0 10232 14476" text-rendering="auto" stroke-width="1" stroke-opacity="1" stroke-miterlimit="10" stroke-linejoin="miter" stroke-linecap="square" stroke-dashoffset="0" stroke-dasharray="none" stroke="black" shape-rendering="auto" image-rendering="auto" height="434.28" font-weight="normal" font-style="normal" font-size="12" font-family="'Dialog'" fill-opacity="1" fill="black" color-rendering="auto" color-interpolation="auto" xmlns="http://www.w3.org/2000/svg"><g><g stroke="white" fill="white"><rect y="0" x="0" width="10232" stroke="none" height="14476"/></g><g transform="translate(32866,32866)" text-rendering="geometricPrecision" stroke-width="44" stroke-linejoin="round" stroke-linecap="round"><line y2="-25523" y1="-26670" x2="-28487" x1="-28487" fill="none"/><line y2="-25523" y1="-26670" x2="-29345" x1="-28487" fill="none"/><line y2="-27132" y1="-26670" x2="-29281" x1="-28487" fill="none"/><line y2="-27242" y1="-26670" x2="-27502" x1="-28487" fill="none"/><line y2="-24457" y1="-25523" x2="-28894" x1="-28487" fill="none"/><line y2="-25523" y1="-24951" x2="-28487" x1="-27502" fill="none"/><line y2="-25523" y1="-25523" x2="-30451" x1="-29345" fill="none"/><line y2="-26670" y1="-27132" x2="-30451" x1="-29657" fill="none"/><line y2="-26670" y1="-27242" x2="-26520" x1="-27502" fill="none"/><line y2="-24457" y1="-24457" x2="-30041" x1="-28894" fill="none"/><line y2="-24951" y1="-25523" x2="-27502" x1="-26520" fill="none"/><line y2="-26670" y1="-25523" x2="-30451" x1="-30451" fill="none"/><line y2="-25523" y1="-24457" x2="-30451" x1="-30041" fill="none"/><line y2="-27242" y1="-26670" x2="-31434" x1="-30451" fill="none"/><line y2="-25523" y1="-26670" x2="-26520" x1="-26520" fill="none"/><line y2="-26670" y1="-27132" x2="-26520" x1="-25725" fill="none"/><line y2="-28169" y1="-27242" x2="-31434" x1="-31434" fill="none"/><line y2="-27461" y1="-28389" x2="-25537" x1="-25537" fill="none"/><line y2="-28961" y1="-28498" x2="-30451" x1="-31246" fill="none"/><line y2="-28389" y1="-28961" x2="-25537" x1="-26520" fill="none"/><line y2="-30108" y1="-28961" x2="-30451" x1="-30451" fill="none"/><line y2="-28961" y1="-28389" x2="-26520" x1="-27502" fill="none"/><line y2="-30682" y1="-30108" x2="-29429" x1="-30451" fill="none"/><line y2="-30723" y1="-30108" x2="-31393" x1="-30451" fill="none"/><line y2="-30786" y1="-30327" x2="-31182" x1="-30474" fill="none"/><line y2="-28389" y1="-28961" x2="-27502" x1="-28487" fill="none"/><line y2="-28961" y1="-30682" x2="-28487" x1="-29429" fill="none"/><line y2="-30682" y1="-31607" x2="-29429" x1="-29429" fill="none"/><line y2="-30798" y1="-31491" x2="-29599" x1="-29599" fill="none"/><line y2="-31870" y1="-30723" x2="-31393" x1="-31393" fill="none"/><line y2="-31939" y1="-32401" x2="-29616" x1="-30411" fill="none"/><line y2="-32401" y1="-31870" x2="-30411" x1="-31393" fill="none"/><line y2="-32185" y1="-31786" x2="-30451" x1="-31188" fill="none"/><line y2="-29377" y1="-28961" x2="-25803" x1="-26520" fill="none"/><line y2="-30532" y1="-29703" x2="-25615" x1="-25615" fill="none"/><line y2="-21198" y1="-25523" x2="-27724" x1="-28487" fill="none"/><line y2="-20782" y1="-21198" x2="-27005" x1="-27724" fill="none"/><line y2="-21198" y1="-20782" x2="-25910" x1="-26629" fill="none"/><line y2="-28045" y1="-27242" x2="-26829" x1="-27502" fill="none"/><line y2="-30009" y1="-28961" x2="-26520" x1="-26520" fill="none"/><line y2="-26144" y1="-26670" x2="-31358" x1="-30451" fill="none"/><line y2="-24590" y1="-25523" x2="-29648" x1="-29345" fill="none"/><line y2="-23925" y1="-24327" x2="-29865" x1="-29735" fill="none"/><line y2="-23183" y1="-23599" x2="-30841" x1="-30122" fill="none"/><line y2="-20285" y1="-24457" x2="-28894" x1="-28894" fill="none"/><line y2="-19543" y1="-19959" x2="-29801" x1="-29082" fill="none"/><line y2="-24535" y1="-24951" x2="-26785" x1="-27502" fill="none"/><line y2="-23379" y1="-24208" x2="-26598" x1="-26598" fill="none"/><line y2="-24044" y1="-24457" x2="-30760" x1="-30041" fill="none"/><line y2="-24457" y1="-24044" x2="-31855" x1="-31136" fill="none"/><line y2="-25107" y1="-25523" x2="-25800" x1="-26520" fill="none"/><line y2="-25523" y1="-25107" x2="-24705" x1="-25425" fill="none"/><line y2="-27825" y1="-27242" x2="-27993" x1="-27502" fill="none"/><line y2="-28865" y1="-28449" x2="-24853" x1="-25572" fill="none"/><line y2="-28744" y1="-28328" x2="-24783" x1="-25503" fill="none"/><line y2="-29316" y1="-28920" x2="-31205" x1="-30521" fill="none"/><line y2="-29437" y1="-29044" x2="-31136" x1="-30451" fill="none"/><line y2="-31055" y1="-30532" x2="-24708" x1="-25615" fill="none"/><line y2="-30888" y1="-30472" x2="-26369" x1="-25650" fill="none"/><line y2="-31009" y1="-30593" x2="-26300" x1="-25581" fill="none"/><line y2="-20675" y1="-21198" x2="-25003" x1="-25910" fill="none"/><line y2="-22027" y1="-21198" x2="-25979" x1="-25979" fill="none"/><line y2="-22027" y1="-21198" x2="-25838" x1="-25838" fill="none"/><line y2="-23706" y1="-23183" x2="-31748" x1="-30841" fill="none"/><line y2="-22354" y1="-23183" x2="-30772" x1="-30772" fill="none"/><line y2="-22354" y1="-23183" x2="-30911" x1="-30911" fill="none"/><line y2="-18494" y1="-19543" x2="-29801" x1="-29801" fill="none"/><line y2="-19898" y1="-19482" x2="-30555" x1="-29836" fill="none"/><line y2="-20020" y1="-19604" x2="-30486" x1="-29767" fill="none"/><line y2="-22854" y1="-23379" x2="-25690" x1="-26598" fill="none"/><line y2="-22903" y1="-23319" x2="-27282" x1="-26563" fill="none"/><line y2="-23024" y1="-23440" x2="-27352" x1="-26632" fill="none"/><line y2="-23934" y1="-24457" x2="-32762" x1="-31855" fill="none"/><line y2="-25286" y1="-24457" x2="-31925" x1="-31925" fill="none"/><line y2="-25286" y1="-24457" x2="-31786" x1="-31786" fill="none"/><line y2="-25000" y1="-25523" x2="-23798" x1="-24705" fill="none"/><line y2="-26352" y1="-25523" x2="-24778" x1="-24778" fill="none"/><line y2="-26352" y1="-25523" x2="-24636" x1="-24636" fill="none"/><line y2="-32193" y1="-31055" x2="-24708" x1="-24708" fill="none"/><line y2="-32052" y1="-31200" x2="-24538" x1="-24538" fill="none"/><line y2="-31055" y1="-30489" x2="-24708" x1="-23720" fill="none"/><line y2="-32762" y1="-32193" x2="-23720" x1="-24708" fill="none"/><line y2="-30489" y1="-31055" x2="-23720" x1="-22738" fill="none"/><line y2="-30706" y1="-31133" x2="-23683" x1="-22946" fill="none"/><line y2="-32193" y1="-32762" x2="-22738" x1="-23720" fill="none"/><line y2="-32118" y1="-32546" x2="-22946" x1="-23683" fill="none"/><line y2="-31055" y1="-32193" x2="-22738" x1="-22738" fill="none"/><text y="-20496" xml:space="preserve" x="-26967" stroke="none" font-size="433.3333" font-family="sans-serif">O</text><text y="-22068" xml:space="preserve" x="-26060" stroke="none" font-size="433.3333" font-family="sans-serif">O</text><text y="-23527" xml:space="preserve" x="-30087" stroke="none" font-size="433.3333" font-family="sans-serif">O</text><text y="-21955" xml:space="preserve" x="-30994" stroke="none" font-size="433.3333" font-family="sans-serif">O</text><text y="-27866" xml:space="preserve" x="-28328" stroke="none" font-size="433.3333" font-family="sans-serif">OH</text><text y="-19887" xml:space="preserve" x="-29047" stroke="none" font-size="433.3333" font-family="sans-serif">O</text><text y="-19887" xml:space="preserve" x="-30862" stroke="none" font-size="433.3333" font-family="sans-serif">O</text><text y="-24249" xml:space="preserve" x="-26748" stroke="none" font-size="433.3333" font-family="sans-serif">O</text><text y="-22674" xml:space="preserve" x="-27658" stroke="none" font-size="433.3333" font-family="sans-serif">O</text><text y="-23755" xml:space="preserve" x="-31101" stroke="none" font-size="433.3333" font-family="sans-serif">O</text><text y="-25326" xml:space="preserve" x="-32008" stroke="none" font-size="433.3333" font-family="sans-serif">O</text><text y="-24821" xml:space="preserve" x="-25766" stroke="none" font-size="433.3333" font-family="sans-serif">O</text><text y="-26392" xml:space="preserve" x="-24858" stroke="none" font-size="433.3333" font-family="sans-serif">O</text><text y="-28732" xml:space="preserve" x="-24783" stroke="none" font-size="433.3333" font-family="sans-serif">O</text><text y="-29307" xml:space="preserve" x="-31509" stroke="none" font-size="433.3333" font-family="sans-serif">O</text><text y="-29304" xml:space="preserve" x="-25766" stroke="none" font-size="433.3333" font-family="sans-serif">O</text><text y="-30876" xml:space="preserve" x="-26676" stroke="none" font-size="433.3333" font-family="sans-serif">O</text><text y="-27063" xml:space="preserve" x="-29619" stroke="none" font-size="433.3333" font-family="sans-serif">O</text><text y="-27063" xml:space="preserve" x="-25690" stroke="none" font-size="433.3333" font-family="sans-serif">O</text><text y="-28210" xml:space="preserve" x="-31587" stroke="none" font-size="433.3333" font-family="sans-serif">O</text><text y="-31647" xml:space="preserve" x="-29579" stroke="none" font-size="433.3333" font-family="sans-serif">N</text></g></g></svg>