<svg width="342.57" viewBox="0 0 11419 8821" text-rendering="auto" stroke-width="1" stroke-opacity="1" stroke-miterlimit="10" stroke-linejoin="miter" stroke-linecap="square" stroke-dashoffset="0" stroke-dasharray="none" stroke="black" shape-rendering="auto" image-rendering="auto" height="264.63" font-weight="normal" font-style="normal" font-size="12" font-family="'Dialog'" fill-opacity="1" fill="black" color-rendering="auto" color-interpolation="auto" xmlns="http://www.w3.org/2000/svg"><g><g stroke="white" fill="white"><rect y="0" x="0" width="11419" stroke="none" height="8821"/></g><g transform="translate(32866,32758)" text-rendering="geometricPrecision" stroke-width="44" stroke-linejoin="round" stroke-linecap="round"><line y2="-27510" y1="-28082" x2="-27646" x1="-26664" fill="none"/><line y2="-29229" y1="-28082" x2="-26664" x1="-26664" fill="none"/><line y2="-28082" y1="-28082" x2="-26664" x1="-24700" fill="none"/><line y2="-28082" y1="-27510" x2="-28631" x1="-27646" fill="none"/><line y2="-26364" y1="-27510" x2="-27646" x1="-27646" fill="none"/><line y2="-29804" y1="-29229" x2="-25682" x1="-26664" fill="none"/><line y2="-29229" y1="-29804" x2="-26664" x1="-27646" fill="none"/><line y2="-28082" y1="-29229" x2="-24700" x1="-24700" fill="none"/><line y2="-28082" y1="-27510" x2="-28631" x1="-29614" fill="none"/><line y2="-29229" y1="-28082" x2="-28631" x1="-28631" fill="none"/><line y2="-25792" y1="-26364" x2="-28631" x1="-27646" fill="none"/><line y2="-29229" y1="-29804" x2="-24700" x1="-25682" fill="none"/><line y2="-29804" y1="-29229" x2="-27646" x1="-28631" fill="none"/><line y2="-26364" y1="-27510" x2="-29614" x1="-29614" fill="none"/><line y2="-27510" y1="-28082" x2="-29614" x1="-30596" fill="none"/><line y2="-26364" y1="-25792" x2="-29614" x1="-28631" fill="none"/><line y2="-25792" y1="-26364" x2="-30596" x1="-29614" fill="none"/><line y2="-28082" y1="-27510" x2="-30596" x1="-31578" fill="none"/><line y2="-26364" y1="-25792" x2="-31578" x1="-30596" fill="none"/><line y2="-27510" y1="-26364" x2="-31578" x1="-31578" fill="none"/><line y2="-30850" y1="-29804" x2="-25682" x1="-25682" fill="none"/><line y2="-25208" y1="-25792" x2="-31084" x1="-30596" fill="none"/><line y2="-25208" y1="-25792" x2="-30105" x1="-30596" fill="none"/><line y2="-28276" y1="-27510" x2="-31855" x1="-31578" fill="none"/><line y2="-27363" y1="-27510" x2="-32422" x1="-31578" fill="none"/><line y2="-31376" y1="-30850" x2="-24775" x1="-25682" fill="none"/><line y2="-30850" y1="-31376" x2="-23868" x1="-24775" fill="none"/><line y2="-31376" y1="-30850" x2="-22960" x1="-23868" fill="none"/><line y2="-30960" y1="-31376" x2="-22241" x1="-22960" fill="none"/><line y2="-32202" y1="-31376" x2="-23030" x1="-23030" fill="none"/><line y2="-32202" y1="-31376" x2="-22891" x1="-22891" fill="none"/><polygon stroke-width="1" stroke="none" points=" -26664 -29229 -26733 -30278 -26595 -30278"/><polygon stroke-width="1" points=" -26664 -29229 -26733 -30278 -26595 -30278" fill="none"/><polygon stroke-width="1" stroke="none" points=" -29614 -27510 -29680 -28556 -29544 -28559"/><polygon stroke-width="1" points=" -29614 -27510 -29680 -28556 -29544 -28559" fill="none"/><polygon stroke-width="1" stroke="none" points=" -27646 -26364 -26895 -26008 -26962 -25887"/><polygon stroke-width="1" points=" -27646 -26364 -26895 -26008 -26962 -25887" fill="none"/><polygon stroke-width="1" stroke="none" points=" -27646 -27510 -27716 -28337 -27580 -28340"/><polygon stroke-width="1" points=" -27646 -27510 -27716 -28337 -27580 -28340" fill="none"/><polygon stroke-width="1" stroke="none" points=" -29614 -26364 -29544 -24532 -29680 -24532"/><polygon stroke-width="1" points=" -29614 -26364 -29544 -24532 -29680 -24532" fill="none"/><line y2="-26118" y1="-26000" x2="-32138" x1="-32069" fill="none"/><line y2="-26206" y1="-26130" x2="-31938" x1="-31894" fill="none"/><line y2="-26293" y1="-26260" x2="-31739" x1="-31719" fill="none"/><line y2="-27253" y1="-27256" x2="-28698" x1="-28562" fill="none"/><line y2="-27470" y1="-27472" x2="-28680" x1="-28580" fill="none"/><line y2="-27687" y1="-27689" x2="-28663" x1="-28598" fill="none"/><line y2="-27904" y1="-27905" x2="-28645" x1="-28616" fill="none"/><line y2="-27253" y1="-27256" x2="-26733" x1="-26595" fill="none"/><line y2="-27470" y1="-27472" x2="-26715" x1="-26613" fill="none"/><line y2="-27687" y1="-27689" x2="-26697" x1="-26631" fill="none"/><line y2="-27904" y1="-27905" x2="-26679" x1="-26649" fill="none"/><line y2="-30160" y1="-30278" x2="-24928" x1="-24997" fill="none"/><line y2="-30067" y1="-30154" x2="-25125" x1="-25176" fill="none"/><line y2="-29974" y1="-30031" x2="-25321" x1="-25354" fill="none"/><line y2="-29881" y1="-29907" x2="-25518" x1="-25533" fill="none"/><line y2="-31434" y1="-31315" x2="-26554" x1="-26624" fill="none"/><line y2="-31313" y1="-31219" x2="-26374" x1="-26429" fill="none"/><line y2="-31192" y1="-31123" x2="-26193" x1="-26234" fill="none"/><line y2="-31072" y1="-31027" x2="-26013" x1="-26040" fill="none"/><line y2="-30951" y1="-30930" x2="-25833" x1="-25845" fill="none"/><text y="-25662" xml:space="preserve" x="-26892" stroke="none" font-size="433.3333" font-family="sans-serif">OH</text><text y="-30671" xml:space="preserve" x="-22206" stroke="none" font-size="433.3333" font-family="sans-serif">OH</text><text y="-32242" xml:space="preserve" x="-23114" stroke="none" font-size="433.3333" font-family="sans-serif">O</text><text y="-25662" xml:space="preserve" x="-32635" stroke="none" font-size="433.3333" font-family="sans-serif">OH</text><text y="-24809" xml:space="preserve" x="-31422" stroke="none" font-size="433.3333" font-family="sans-serif">D</text><text y="-24809" xml:space="preserve" x="-30073" stroke="none" font-size="433.3333" font-family="sans-serif">D</text><text y="-28316" xml:space="preserve" x="-32086" stroke="none" font-size="433.3333" font-family="sans-serif">D</text><text y="-27149" xml:space="preserve" x="-32762" stroke="none" font-size="433.3333" font-family="sans-serif">D</text><text y="-28380" xml:space="preserve" x="-27799" stroke="none" font-size="433.3333" font-family="sans-serif">H</text><text y="-26858" xml:space="preserve" x="-28782" stroke="none" font-size="433.3333" font-family="sans-serif">H</text><text y="-26858" xml:space="preserve" x="-26817" stroke="none" font-size="433.3333" font-family="sans-serif">H</text><text y="-24133" xml:space="preserve" x="-29764" stroke="none" font-size="433.3333" font-family="sans-serif">H</text><text y="-30148" xml:space="preserve" x="-24928" stroke="none" font-size="433.3333" font-family="sans-serif">H</text><text y="-30526" xml:space="preserve" x="-25586" stroke="none" font-style="italic" font-size="313.3333" font-family="sans-serif">R</text><text y="-28048" xml:space="preserve" x="-27066" stroke="none" font-style="italic" font-size="313.3333" font-family="sans-serif">S</text><text y="-27187" xml:space="preserve" x="-27551" stroke="none" font-style="italic" font-size="313.3333" font-family="sans-serif">R</text><text y="-28909" xml:space="preserve" x="-26569" stroke="none" font-style="italic" font-size="313.3333" font-family="sans-serif">R</text><text y="-28048" xml:space="preserve" x="-28533" stroke="none" font-style="italic" font-size="313.3333" font-family="sans-serif">S</text><text y="-26329" xml:space="preserve" x="-28048" stroke="none" font-style="italic" font-size="313.3333" font-family="sans-serif">S</text><text y="-29322" xml:space="preserve" x="-25835" stroke="none" font-style="italic" font-size="313.3333" font-family="sans-serif">R</text><text y="-27187" xml:space="preserve" x="-29515" stroke="none" font-style="italic" font-size="313.3333" font-family="sans-serif">S</text><text y="-26329" xml:space="preserve" x="-30012" stroke="none" font-style="italic" font-size="313.3333" font-family="sans-serif">S</text><text y="-26329" xml:space="preserve" x="-31480" stroke="none" font-style="italic" font-size="313.3333" font-family="sans-serif">R</text></g></g></svg>