<svg width="218.19" viewBox="0 0 7273 8642" text-rendering="auto" stroke-width="1" stroke-opacity="1" stroke-miterlimit="10" stroke-linejoin="miter" stroke-linecap="square" stroke-dashoffset="0" stroke-dasharray="none" stroke="black" shape-rendering="auto" image-rendering="auto" height="259.26" font-weight="normal" font-style="normal" font-size="12" font-family="'Dialog'" fill-opacity="1" fill="black" color-rendering="auto" color-interpolation="auto" xmlns="http://www.w3.org/2000/svg"><g><g stroke="white" fill="white"><rect y="0" x="0" width="7273" stroke="none" height="8642"/></g><g transform="translate(32866,32758)" text-rendering="geometricPrecision" stroke-width="44" stroke-linejoin="round" stroke-linecap="round"><line y2="-27352" y1="-27814" x2="-29920" x1="-30717" fill="none"/><line y2="-27814" y1="-27245" x2="-30717" x1="-31702" fill="none"/><line y2="-26106" y1="-27025" x2="-29732" x1="-29732" fill="none"/><line y2="-27245" y1="-26106" x2="-31702" x1="-31702" fill="none"/><line y2="-25537" y1="-26106" x2="-30717" x1="-29732" fill="none"/><line y2="-26106" y1="-25537" x2="-31702" x1="-30717" fill="none"/><line y2="-26000" y1="-25584" x2="-28106" x1="-28825" fill="none"/><line y2="-29385" y1="-28969" x2="-29810" x1="-30526" fill="none"/><line y2="-28845" y1="-29385" x2="-28912" x1="-29810" fill="none"/><line y2="-30434" y1="-29385" x2="-29810" x1="-29810" fill="none"/><line y2="-29368" y1="-28845" x2="-28004" x1="-28912" fill="none"/><line y2="-30957" y1="-30434" x2="-30717" x1="-29810" fill="none"/><line y2="-30529" y1="-30957" x2="-31425" x1="-30717" fill="none"/><line y2="-30463" y1="-30784" x2="-31266" x1="-30732" fill="none"/><line y2="-28828" y1="-29368" x2="-27106" x1="-28004" fill="none"/><line y2="-29244" y1="-28828" x2="-26387" x1="-27106" fill="none"/><polygon stroke-width="1" stroke="none" points=" -31702 -27245 -32266 -27490 -32196 -27609"/><polygon stroke-width="1" points=" -31702 -27245 -32266 -27490 -32196 -27609" fill="none"/><polygon stroke-width="1" stroke="none" points=" -30717 -25537 -30648 -24711 -30784 -24708"/><polygon stroke-width="1" points=" -30717 -25537 -30648 -24711 -30784 -24708" fill="none"/><polygon stroke-width="1" stroke="none" points=" -29810 -29385 -30561 -29741 -30492 -29859"/><polygon stroke-width="1" points=" -29810 -29385 -30561 -29741 -30492 -29859" fill="none"/><polygon stroke-width="1" stroke="none" points=" -28912 -28845 -28842 -28016 -28981 -28016"/><polygon stroke-width="1" points=" -28912 -28845 -28842 -28016 -28981 -28016" fill="none"/><line y2="-25523" y1="-25644" x2="-28860" x1="-28790" fill="none"/><line y2="-25644" y1="-25740" x2="-29040" x1="-28985" fill="none"/><line y2="-25764" y1="-25835" x2="-29221" x1="-29180" fill="none"/><line y2="-25885" y1="-25931" x2="-29401" x1="-29375" fill="none"/><line y2="-26006" y1="-26027" x2="-29582" x1="-29570" fill="none"/><line y2="-28643" y1="-28640" x2="-30648" x1="-30784" fill="none"/><line y2="-28426" y1="-28424" x2="-30666" x1="-30766" fill="none"/><line y2="-28209" y1="-28207" x2="-30684" x1="-30749" fill="none"/><line y2="-27992" y1="-27991" x2="-30702" x1="-30731" fill="none"/><line y2="-25861" y1="-25742" x2="-32266" x1="-32193" fill="none"/><line y2="-25948" y1="-25871" x2="-32065" x1="-32018" fill="none"/><line y2="-26035" y1="-26001" x2="-31865" x1="-31844" fill="none"/><line y2="-30789" y1="-30908" x2="-29056" x1="-29122" fill="none"/><line y2="-30697" y1="-30785" x2="-29252" x1="-29301" fill="none"/><line y2="-30604" y1="-30661" x2="-29449" x1="-29480" fill="none"/><line y2="-30512" y1="-30538" x2="-29645" x1="-29660" fill="none"/><line y2="-32202" y1="-32202" x2="-27935" x1="-28074" fill="none"/><line y2="-31985" y1="-31985" x2="-27940" x1="-28069" fill="none"/><line y2="-31769" y1="-31769" x2="-27946" x1="-28063" fill="none"/><line y2="-31552" y1="-31552" x2="-27951" x1="-28058" fill="none"/><line y2="-31335" y1="-31335" x2="-27956" x1="-28053" fill="none"/><line y2="-31119" y1="-31119" x2="-27961" x1="-28047" fill="none"/><line y2="-30902" y1="-30902" x2="-27967" x1="-28042" fill="none"/><line y2="-30685" y1="-30685" x2="-27972" x1="-28037" fill="none"/><line y2="-30469" y1="-30469" x2="-27977" x1="-28031" fill="none"/><line y2="-30252" y1="-30252" x2="-27982" x1="-28026" fill="none"/><line y2="-30035" y1="-30035" x2="-27988" x1="-28020" fill="none"/><line y2="-29819" y1="-29819" x2="-27993" x1="-28015" fill="none"/><line y2="-29602" y1="-29602" x2="-27998" x1="-28010" fill="none"/><line y2="-29385" y1="-29385" x2="-28004" x1="-28004" fill="none"/><text y="-28680" xml:space="preserve" x="-30867" stroke="none" font-size="433.3333" font-family="sans-serif">O</text><text y="-27617" xml:space="preserve" x="-29065" stroke="none" font-size="433.3333" font-family="sans-serif">OH</text><text y="-30778" xml:space="preserve" x="-29053" stroke="none" font-size="433.3333" font-family="sans-serif">OH</text><text y="-32242" xml:space="preserve" x="-28158" stroke="none" font-size="433.3333" font-family="sans-serif">OH</text><text y="-30238" xml:space="preserve" x="-31766" stroke="none" font-size="433.3333" font-family="sans-serif">O</text><text y="-29174" xml:space="preserve" x="-26352" stroke="none" font-size="433.3333" font-family="sans-serif">OH</text><text y="-27588" xml:space="preserve" x="-32762" stroke="none" font-size="433.3333" font-family="sans-serif">OH</text><text y="-25927" xml:space="preserve" x="-28071" stroke="none" font-size="433.3333" font-family="sans-serif">OH</text><text y="-25404" xml:space="preserve" x="-32762" stroke="none" font-size="433.3333" font-family="sans-serif">OH</text><text y="-24312" xml:space="preserve" x="-30867" stroke="none" font-size="433.3333" font-family="sans-serif">OH</text><text y="-27066" xml:space="preserve" x="-29885" stroke="none" font-size="433.3333" font-family="sans-serif">O</text><text y="-29729" xml:space="preserve" x="-30867" stroke="none" font-size="433.3333" font-family="sans-serif">H</text><text y="-29348" xml:space="preserve" x="-29712" stroke="none" font-style="italic" font-size="313.3333" font-family="sans-serif">S</text><text y="-28966" xml:space="preserve" x="-29065" stroke="none" font-style="italic" font-size="313.3333" font-family="sans-serif">R</text><text y="-30110" xml:space="preserve" x="-30209" stroke="none" font-style="italic" font-size="313.3333" font-family="sans-serif">R</text><text y="-28886" xml:space="preserve" x="-28158" stroke="none" font-style="italic" font-size="313.3333" font-family="sans-serif">R</text><text y="-27331" xml:space="preserve" x="-30867" stroke="none" font-style="italic" font-size="313.3333" font-family="sans-serif">S</text><text y="-26921" xml:space="preserve" x="-31607" stroke="none" font-style="italic" font-size="313.3333" font-family="sans-serif">R</text><text y="-26072" xml:space="preserve" x="-30134" stroke="none" font-style="italic" font-size="313.3333" font-family="sans-serif">R</text><text y="-26072" xml:space="preserve" x="-31607" stroke="none" font-style="italic" font-size="313.3333" font-family="sans-serif">S</text><text y="-25662" xml:space="preserve" x="-30867" stroke="none" font-style="italic" font-size="313.3333" font-family="sans-serif">S</text></g></g></svg>