<svg width="181.14" viewBox="0 0 6038 6304" text-rendering="auto" stroke-width="1" stroke-opacity="1" stroke-miterlimit="10" stroke-linejoin="miter" stroke-linecap="square" stroke-dashoffset="0" stroke-dasharray="none" stroke="black" shape-rendering="auto" image-rendering="auto" height="189.12" font-weight="normal" font-style="normal" font-size="12" font-family="'Dialog'" fill-opacity="1" fill="black" color-rendering="auto" color-interpolation="auto" xmlns="http://www.w3.org/2000/svg"><g><g stroke="white" fill="white"><rect y="0" x="0" width="6038" stroke="none" height="6304"/></g><g transform="translate(32866,32758)" text-rendering="geometricPrecision" stroke-width="44" stroke-linejoin="round" stroke-linecap="round"><line y2="-29397" y1="-29966" x2="-28825" x1="-29807" fill="none"/><line y2="-29322" y1="-29749" x2="-29033" x1="-29770" fill="none"/><line y2="-29966" y1="-29397" x2="-29807" x1="-30795" fill="none"/><line y2="-28259" y1="-29397" x2="-28825" x1="-28825" fill="none"/><line y2="-29397" y1="-28259" x2="-30795" x1="-30795" fill="none"/><line y2="-29255" y1="-28403" x2="-30625" x1="-30625" fill="none"/><line y2="-27692" y1="-28259" x2="-29807" x1="-28825" fill="none"/><line y2="-27909" y1="-28337" x2="-29770" x1="-29033" fill="none"/><line y2="-28259" y1="-27692" x2="-30795" x1="-29807" fill="none"/><line y2="-29923" y1="-29397" x2="-27918" x1="-28825" fill="none"/><line y2="-27736" y1="-28259" x2="-31702" x1="-30795" fill="none"/><line y2="-31295" y1="-29966" x2="-29807" x1="-29807" fill="none"/><line y2="-29507" y1="-29923" x2="-27198" x1="-27918" fill="none"/><line y2="-30610" y1="-29923" x2="-27519" x1="-27918" fill="none"/><line y2="-30610" y1="-29923" x2="-28316" x1="-27918" fill="none"/><line y2="-28152" y1="-27736" x2="-32422" x1="-31702" fill="none"/><line y2="-27048" y1="-27736" x2="-32101" x1="-31702" fill="none"/><line y2="-27048" y1="-27736" x2="-31304" x1="-31702" fill="none"/><line y2="-31887" y1="-31624" x2="-30451" x1="-29998" fill="none"/><line y2="-32240" y1="-31769" x2="-29472" x1="-29744" fill="none"/><line y2="-32167" y1="-31699" x2="-29351" x1="-29622" fill="none"/><line y2="-31587" y1="-31587" x2="-28949" x1="-29619" fill="none"/><line y2="-31445" y1="-31445" x2="-28949" x1="-29619" fill="none"/><text y="-31335" xml:space="preserve" x="-29960" stroke="none" font-size="433.3333" font-family="sans-serif">S</text><text y="-31904" xml:space="preserve" x="-31023" stroke="none" font-size="433.3333" font-family="sans-serif">Cl</text><text y="-32242" xml:space="preserve" x="-29437" stroke="none" font-size="433.3333" font-family="sans-serif">O</text><text y="-31335" xml:space="preserve" x="-28914" stroke="none" font-size="433.3333" font-family="sans-serif">O</text><text y="-29218" xml:space="preserve" x="-27164" stroke="none" font-size="433.3333" font-family="sans-serif">F</text><text y="-30651" xml:space="preserve" x="-27545" stroke="none" font-size="433.3333" font-family="sans-serif">F</text><text y="-30651" xml:space="preserve" x="-28594" stroke="none" font-size="433.3333" font-family="sans-serif">F</text><text y="-28080" xml:space="preserve" x="-32762" stroke="none" font-size="433.3333" font-family="sans-serif">F</text><text y="-26650" xml:space="preserve" x="-32378" stroke="none" font-size="433.3333" font-family="sans-serif">F</text><text y="-26650" xml:space="preserve" x="-31330" stroke="none" font-size="433.3333" font-family="sans-serif">F</text></g></g></svg>