<svg width="235.26" viewBox="0 0 7842 6618" text-rendering="auto" stroke-width="1" stroke-opacity="1" stroke-miterlimit="10" stroke-linejoin="miter" stroke-linecap="square" stroke-dashoffset="0" stroke-dasharray="none" stroke="black" shape-rendering="auto" image-rendering="auto" height="198.54" font-weight="normal" font-style="normal" font-size="12" font-family="'Dialog'" fill-opacity="1" fill="black" color-rendering="auto" color-interpolation="auto" xmlns="http://www.w3.org/2000/svg"><g><g stroke="white" fill="white"><rect y="0" x="0" width="7842" stroke="none" height="6618"/></g><g transform="translate(32866,32866)" text-rendering="geometricPrecision" stroke-width="44" stroke-linejoin="round" stroke-linecap="round"><line y2="-30197" y1="-28917" x2="-29466" x1="-29466" fill="none"/><line y2="-30838" y1="-30197" x2="-30564" x1="-29466" fill="none"/><line y2="-30197" y1="-30838" x2="-29466" x1="-28368" fill="none"/><line y2="-30425" y1="-30905" x2="-29414" x1="-28591" fill="none"/><line y2="-28917" y1="-28276" x2="-29466" x1="-30564" fill="none"/><line y2="-28917" y1="-28276" x2="-29466" x1="-28368" fill="none"/><line y2="-28984" y1="-28504" x2="-29244" x1="-28418" fill="none"/><line y2="-32121" y1="-30838" x2="-30564" x1="-30564" fill="none"/><line y2="-30197" y1="-30838" x2="-31665" x1="-30564" fill="none"/><line y2="-30425" y1="-30905" x2="-31613" x1="-30789" fill="none"/><line y2="-30682" y1="-30838" x2="-27274" x1="-28368" fill="none"/><line y2="-30838" y1="-32121" x2="-28368" x1="-28368" fill="none"/><line y2="-26993" y1="-28276" x2="-30564" x1="-30564" fill="none"/><line y2="-28276" y1="-28917" x2="-30564" x1="-31665" fill="none"/><line y2="-28210" y1="-28689" x2="-30789" x1="-31613" fill="none"/><line y2="-28276" y1="-28432" x2="-28368" x1="-27274" fill="none"/><line y2="-26993" y1="-28276" x2="-28368" x1="-28368" fill="none"/><line y2="-32762" y1="-32121" x2="-29466" x1="-30564" fill="none"/><line y2="-32121" y1="-32762" x2="-30564" x1="-31665" fill="none"/><line y2="-32055" y1="-32534" x2="-30789" x1="-31613" fill="none"/><line y2="-30838" y1="-30197" x2="-32762" x1="-31665" fill="none"/><line y2="-29775" y1="-30437" x2="-26572" x1="-26956" fill="none"/><line y2="-32121" y1="-32762" x2="-28368" x1="-29466" fill="none"/><line y2="-32055" y1="-32534" x2="-28591" x1="-29414" fill="none"/><line y2="-26993" y1="-26352" x2="-30564" x1="-29466" fill="none"/><line y2="-26352" y1="-26993" x2="-31665" x1="-30564" fill="none"/><line y2="-26580" y1="-27060" x2="-31613" x1="-30789" fill="none"/><line y2="-28917" y1="-28276" x2="-31665" x1="-32762" fill="none"/><line y2="-28678" y1="-29339" x2="-26956" x1="-26572" fill="none"/><line y2="-26352" y1="-26993" x2="-29466" x1="-28368" fill="none"/><line y2="-26580" y1="-27060" x2="-29414" x1="-28591" fill="none"/><line y2="-32762" y1="-32121" x2="-31665" x1="-32762" fill="none"/><line y2="-32121" y1="-30838" x2="-32762" x1="-32762" fill="none"/><line y2="-31962" y1="-31000" x2="-32592" x1="-32592" fill="none"/><line y2="-26993" y1="-26352" x2="-32762" x1="-31665" fill="none"/><line y2="-28276" y1="-26993" x2="-32762" x1="-32762" fill="none"/><line y2="-28114" y1="-27152" x2="-32592" x1="-32592" fill="none"/><line y2="-30064" y1="-29709" x2="-25818" x1="-26257" fill="none"/><line y2="-29085" y1="-29446" x2="-25797" x1="-26210" fill="none"/><line y2="-28981" y1="-29342" x2="-25887" x1="-26303" fill="none"/><text y="-28689" xml:space="preserve" x="-25806" stroke="none" font-size="433.3333" font-family="sans-serif">O</text><text y="-30038" xml:space="preserve" x="-25783" stroke="none" font-size="433.3333" font-family="sans-serif">OH</text><text y="-30477" xml:space="preserve" x="-27236" stroke="none" font-size="433.3333" font-family="sans-serif">O</text><text y="-28279" xml:space="preserve" x="-27236" stroke="none" font-size="433.3333" font-family="sans-serif">O</text><text y="-29380" xml:space="preserve" x="-26598" stroke="none" font-size="433.3333" font-family="sans-serif">P</text></g></g></svg>