<svg width="496.23" viewBox="0 0 16541 17213" text-rendering="auto" stroke-width="1" stroke-opacity="1" stroke-miterlimit="10" stroke-linejoin="miter" stroke-linecap="square" stroke-dashoffset="0" stroke-dasharray="none" stroke="black" shape-rendering="auto" image-rendering="auto" height="516.39" font-weight="normal" font-style="normal" font-size="12" font-family="'Dialog'" fill-opacity="1" fill="black" color-rendering="auto" color-interpolation="auto" xmlns="http://www.w3.org/2000/svg"><g><g stroke="white" fill="white"><rect y="0" x="0" width="16541" stroke="none" height="17213"/></g><g transform="translate(32866,32758)" text-rendering="geometricPrecision" stroke-width="44" stroke-linejoin="round" stroke-linecap="round"><line y2="-23085" y1="-24171" x2="-22388" x1="-21764" fill="none"/><line y2="-24171" y1="-25260" x2="-21764" x1="-22388" fill="none"/><line y2="-24223" y1="-25038" x2="-21990" x1="-22461" fill="none"/><line y2="-23085" y1="-23085" x2="-23151" x1="-22388" fill="none"/><line y2="-21996" y1="-23085" x2="-21759" x1="-22388" fill="none"/><line y2="-22048" y1="-22862" x2="-21984" x1="-22458" fill="none"/><line y2="-25260" y1="-25260" x2="-23460" x1="-22388" fill="none"/><line y2="-25260" y1="-26343" x2="-22388" x1="-21764" fill="none"/><line y2="-21831" y1="-22865" x2="-23645" x1="-23645" fill="none"/><line y2="-21198" y1="-21996" x2="-22550" x1="-21759" fill="none"/><line y2="-26520" y1="-25480" x2="-23648" x1="-23648" fill="none"/><line y2="-26390" y1="-25610" x2="-23478" x1="-23478" fill="none"/><line y2="-26343" y1="-27146" x2="-21764" x1="-22559" fill="none"/><line y2="-26323" y1="-26924" x2="-21984" x1="-22582" fill="none"/><line y2="-21831" y1="-21198" x2="-23645" x1="-22550" fill="none"/><line y2="-21900" y1="-21426" x2="-23423" x1="-22602" fill="none"/><line y2="-21198" y1="-21831" x2="-24728" x1="-23645" fill="none"/><line y2="-27146" y1="-26520" x2="-22559" x1="-23648" fill="none"/><line y2="-26520" y1="-27146" x2="-23648" x1="-24740" fill="none"/><line y2="-21825" y1="-21198" x2="-25818" x1="-24728" fill="none"/><line y2="-21894" y1="-21426" x2="-25595" x1="-24780" fill="none"/><line y2="-27146" y1="-26522" x2="-24740" x1="-25829" fill="none"/><line y2="-26918" y1="-26453" x2="-24792" x1="-25610" fill="none"/><line y2="-22859" y1="-21825" x2="-25818" x1="-25818" fill="none"/><line y2="-21198" y1="-21825" x2="-26895" x1="-25818" fill="none"/><line y2="-25488" y1="-26522" x2="-25829" x1="-25829" fill="none"/><line y2="-26522" y1="-27146" x2="-25829" x1="-26915" fill="none"/><line y2="-23079" y1="-23079" x2="-26005" x1="-27071" fill="none"/><line y2="-22908" y1="-22908" x2="-26138" x1="-26936" fill="none"/><line y2="-21990" y1="-21198" x2="-27687" x1="-26895" fill="none"/><line y2="-22010" y1="-21418" x2="-27467" x1="-26875" fill="none"/><line y2="-25251" y1="-25266" x2="-27060" x1="-26017" fill="none"/><line y2="-27146" y1="-26329" x2="-26915" x1="-27687" fill="none"/><line y2="-26927" y1="-26314" x2="-26886" x1="-27467" fill="none"/><line y2="-23079" y1="-21990" x2="-27071" x1="-27687" fill="none"/><line y2="-24165" y1="-23079" x2="-27687" x1="-27071" fill="none"/><line y2="-26329" y1="-25251" x2="-27687" x1="-27060" fill="none"/><line y2="-25251" y1="-24165" x2="-27060" x1="-27687" fill="none"/><line y2="-25029" y1="-24214" x2="-26993" x1="-27461" fill="none"/><line y2="-24171" y1="-24171" x2="-20716" x1="-21764" fill="none"/><line y2="-20150" y1="-21198" x2="-24728" x1="-24728" fill="none"/><line y2="-28192" y1="-27146" x2="-24740" x1="-24740" fill="none"/><line y2="-24165" y1="-24165" x2="-28735" x1="-27687" fill="none"/><line y2="-25309" y1="-24171" x2="-20716" x1="-20716" fill="none"/><line y2="-25168" y1="-24315" x2="-20545" x1="-20545" fill="none"/><line y2="-24171" y1="-23602" x2="-20716" x1="-19728" fill="none"/><line y2="-25878" y1="-25309" x2="-19728" x1="-20716" fill="none"/><line y2="-23602" y1="-24171" x2="-19728" x1="-18746" fill="none"/><line y2="-23821" y1="-24249" x2="-19690" x1="-18954" fill="none"/><line y2="-25309" y1="-25878" x2="-18746" x1="-19728" fill="none"/><line y2="-25234" y1="-25662" x2="-18954" x1="-19690" fill="none"/><line y2="-24171" y1="-25309" x2="-18746" x1="-18746" fill="none"/><line y2="-25725" y1="-25309" x2="-18026" x1="-18746" fill="none"/><line y2="-20150" y1="-19583" x2="-24728" x1="-25714" fill="none"/><line y2="-19933" y1="-19505" x2="-24766" x1="-25506" fill="none"/><line y2="-19583" y1="-20150" x2="-23743" x1="-24728" fill="none"/><line y2="-19583" y1="-18445" x2="-25714" x1="-25714" fill="none"/><line y2="-18445" y1="-19583" x2="-23743" x1="-23743" fill="none"/><line y2="-18587" y1="-19439" x2="-23914" x1="-23914" fill="none"/><line y2="-18445" y1="-17876" x2="-25714" x1="-24728" fill="none"/><line y2="-18523" y1="-18096" x2="-25506" x1="-24766" fill="none"/><line y2="-17876" y1="-18445" x2="-24728" x1="-23743" fill="none"/><line y2="-17047" y1="-17876" x2="-24728" x1="-24728" fill="none"/><line y2="-28761" y1="-28192" x2="-25728" x1="-24740" fill="none"/><line y2="-28839" y1="-28412" x2="-25520" x1="-24780" fill="none"/><line y2="-28192" y1="-28761" x2="-24740" x1="-23758" fill="none"/><line y2="-29900" y1="-28761" x2="-25728" x1="-25728" fill="none"/><line y2="-28761" y1="-29900" x2="-23758" x1="-23758" fill="none"/><line y2="-28903" y1="-29755" x2="-23928" x1="-23928" fill="none"/><line y2="-30469" y1="-29900" x2="-24740" x1="-25728" fill="none"/><line y2="-30249" y1="-29822" x2="-24780" x1="-25520" fill="none"/><line y2="-29900" y1="-30469" x2="-23758" x1="-24740" fill="none"/><line y2="-31295" y1="-30469" x2="-24740" x1="-24740" fill="none"/><line y2="-24165" y1="-25300" x2="-28735" x1="-28735" fill="none"/><line y2="-24307" y1="-25159" x2="-28906" x1="-28906" fill="none"/><line y2="-23596" y1="-24165" x2="-29723" x1="-28735" fill="none"/><line y2="-25300" y1="-25870" x2="-28735" x1="-29723" fill="none"/><line y2="-24165" y1="-23596" x2="-30706" x1="-29723" fill="none"/><line y2="-24240" y1="-23813" x2="-30498" x1="-29761" fill="none"/><line y2="-25870" y1="-25300" x2="-29723" x1="-30706" fill="none"/><line y2="-25653" y1="-25225" x2="-29761" x1="-30498" fill="none"/><line y2="-25300" y1="-24165" x2="-30706" x1="-30706" fill="none"/><line y2="-25716" y1="-25300" x2="-31425" x1="-30706" fill="none"/><line y2="-25419" y1="-25725" x2="-17119" x1="-17651" fill="none"/><line y2="-26557" y1="-26086" x2="-17503" x1="-17772" fill="none"/><line y2="-26485" y1="-26017" x2="-17382" x1="-17651" fill="none"/><line y2="-26485" y1="-26017" x2="-18295" x1="-18026" fill="none"/><line y2="-26557" y1="-26086" x2="-18174" x1="-17905" fill="none"/><line y2="-16472" y1="-16720" x2="-25347" x1="-24916" fill="none"/><line y2="-16174" y1="-16642" x2="-24269" x1="-24541" fill="none"/><line y2="-16105" y1="-16573" x2="-24393" x1="-24662" fill="none"/><line y2="-16900" y1="-16900" x2="-23868" x1="-24541" fill="none"/><line y2="-16758" y1="-16758" x2="-23868" x1="-24541" fill="none"/><line y2="-31873" y1="-31624" x2="-25358" x1="-24928" fill="none"/><line y2="-32240" y1="-31769" x2="-24405" x1="-24676" fill="none"/><line y2="-32167" y1="-31699" x2="-24284" x1="-24552" fill="none"/><line y2="-31587" y1="-31587" x2="-23882" x1="-24552" fill="none"/><line y2="-31445" y1="-31445" x2="-23882" x1="-24552" fill="none"/><line y2="-25468" y1="-25716" x2="-32231" x1="-31800" fill="none"/><line y2="-26479" y1="-26008" x2="-32072" x1="-31800" fill="none"/><line y2="-26548" y1="-26080" x2="-31948" x1="-31679" fill="none"/><line y2="-26548" y1="-26080" x2="-31278" x1="-31549" fill="none"/><line y2="-26479" y1="-26008" x2="-31156" x1="-31425" fill="none"/><text y="-25653" xml:space="preserve" x="-17992" stroke="none" font-size="433.3333" font-family="sans-serif">S</text><text y="-26560" xml:space="preserve" x="-17466" stroke="none" font-size="433.3333" font-family="sans-serif">O</text><text y="-26560" xml:space="preserve" x="-18514" stroke="none" font-size="433.3333" font-family="sans-serif">O</text><text y="-25130" xml:space="preserve" x="-17084" stroke="none" font-size="433.3333" font-family="sans-serif">OH</text><text y="-16648" xml:space="preserve" x="-24882" stroke="none" font-size="433.3333" font-family="sans-serif">S</text><text y="-15741" xml:space="preserve" x="-24356" stroke="none" font-size="433.3333" font-family="sans-serif">O</text><text y="-16648" xml:space="preserve" x="-23833" stroke="none" font-size="433.3333" font-family="sans-serif">O</text><text y="-16073" xml:space="preserve" x="-25878" stroke="none" font-size="433.3333" font-family="sans-serif">OH</text><text y="-31335" xml:space="preserve" x="-24893" stroke="none" font-size="433.3333" font-family="sans-serif">S</text><text y="-32242" xml:space="preserve" x="-24370" stroke="none" font-size="433.3333" font-family="sans-serif">O</text><text y="-31335" xml:space="preserve" x="-23844" stroke="none" font-size="433.3333" font-family="sans-serif">O</text><text y="-31913" xml:space="preserve" x="-25890" stroke="none" font-size="433.3333" font-family="sans-serif">OH</text><text y="-25647" xml:space="preserve" x="-31766" stroke="none" font-size="433.3333" font-family="sans-serif">S</text><text y="-26554" xml:space="preserve" x="-32289" stroke="none" font-size="433.3333" font-family="sans-serif">O</text><text y="-26554" xml:space="preserve" x="-31240" stroke="none" font-size="433.3333" font-family="sans-serif">O</text><text y="-25069" xml:space="preserve" x="-32762" stroke="none" font-size="433.3333" font-family="sans-serif">OH</text><text y="-22906" xml:space="preserve" x="-23795" stroke="none" font-size="433.3333" font-family="sans-serif">NH</text><text y="-25081" xml:space="preserve" x="-23801" stroke="none" font-size="433.3333" font-family="sans-serif">N</text><text y="-22900" xml:space="preserve" x="-25968" stroke="none" font-size="433.3333" font-family="sans-serif">N</text><text y="-25090" xml:space="preserve" x="-25982" stroke="none" font-size="433.3333" font-family="sans-serif">NH</text></g></g></svg>