<svg width="237.63" viewBox="0 0 7921 7481" text-rendering="auto" stroke-width="1" stroke-opacity="1" stroke-miterlimit="10" stroke-linejoin="miter" stroke-linecap="square" stroke-dashoffset="0" stroke-dasharray="none" stroke="black" shape-rendering="auto" image-rendering="auto" height="224.43" font-weight="normal" font-style="normal" font-size="12" font-family="'Dialog'" fill-opacity="1" fill="black" color-rendering="auto" color-interpolation="auto" xmlns="http://www.w3.org/2000/svg"><g><g stroke="white" fill="white"><rect y="0" x="0" width="7921" stroke="none" height="7481"/></g><g transform="translate(32866,32758)" text-rendering="geometricPrecision" stroke-width="44" stroke-linejoin="round" stroke-linecap="round"><line y2="-29180" y1="-30327" x2="-28834" x1="-28834" fill="none"/><line y2="-30327" y1="-30902" x2="-28834" x1="-29816" fill="none"/><line y2="-30252" y1="-30682" x2="-29042" x1="-29778" fill="none"/><line y2="-28608" y1="-29180" x2="-29816" x1="-28834" fill="none"/><line y2="-28828" y1="-29258" x2="-29778" x1="-29042" fill="none"/><line y2="-30902" y1="-30327" x2="-29816" x1="-30798" fill="none"/><line y2="-29180" y1="-28608" x2="-30798" x1="-29816" fill="none"/><line y2="-29180" y1="-30327" x2="-30798" x1="-30798" fill="none"/><line y2="-29325" y1="-30186" x2="-30968" x1="-30968" fill="none"/><line y2="-30327" y1="-30902" x2="-30798" x1="-31780" fill="none"/><line y2="-28608" y1="-29180" x2="-31780" x1="-30798" fill="none"/><line y2="-30902" y1="-30327" x2="-31780" x1="-32762" fill="none"/><line y2="-30682" y1="-30252" x2="-31818" x1="-32554" fill="none"/><line y2="-29180" y1="-28608" x2="-32762" x1="-31780" fill="none"/><line y2="-29258" y1="-28828" x2="-32554" x1="-31818" fill="none"/><line y2="-30327" y1="-29180" x2="-32762" x1="-32762" fill="none"/><line y2="-28657" y1="-29180" x2="-27926" x1="-28834" fill="none"/><line y2="-30743" y1="-30327" x2="-28114" x1="-28834" fill="none"/><line y2="-31899" y1="-31070" x2="-27926" x1="-27926" fill="none"/><line y2="-27828" y1="-28657" x2="-27926" x1="-27926" fill="none"/><line y2="-27086" y1="-27389" x2="-27019" x1="-27545" fill="none"/><line y2="-29134" y1="-28718" x2="-27242" x1="-27961" fill="none"/><line y2="-29013" y1="-28597" x2="-27172" x1="-27892" fill="none"/><line y2="-32422" y1="-31899" x2="-27019" x1="-27926" fill="none"/><line y2="-32095" y1="-32422" x2="-26453" x1="-27019" fill="none"/><line y2="-32254" y1="-31838" x2="-28680" x1="-27961" fill="none"/><line y2="-32375" y1="-31959" x2="-28611" x1="-27892" fill="none"/><line y2="-27655" y1="-27086" x2="-26034" x1="-27019" fill="none"/><line y2="-27438" y1="-27011" x2="-26075" x1="-26811" fill="none"/><line y2="-27086" y1="-25948" x2="-27019" x1="-27019" fill="none"/><line y2="-27086" y1="-27655" x2="-25049" x1="-26034" fill="none"/><line y2="-25948" y1="-25381" x2="-27019" x1="-26034" fill="none"/><line y2="-26026" y1="-25598" x2="-26811" x1="-26075" fill="none"/><line y2="-25948" y1="-27086" x2="-25049" x1="-25049" fill="none"/><line y2="-26092" y1="-26944" x2="-25220" x1="-25220" fill="none"/><line y2="-25381" y1="-25948" x2="-26034" x1="-25049" fill="none"/><line y2="-28704" y1="-27655" x2="-26034" x1="-26034" fill="none"/><text y="-30671" xml:space="preserve" x="-28080" stroke="none" font-size="433.3333" font-family="sans-serif">O</text><text y="-32242" xml:space="preserve" x="-28987" stroke="none" font-size="433.3333" font-family="sans-serif">O</text><text y="-31720" xml:space="preserve" x="-26343" stroke="none" font-size="433.3333" font-family="sans-serif">Cl</text><text y="-27430" xml:space="preserve" x="-28080" stroke="none" font-size="433.3333" font-family="sans-serif">NH</text><text y="-29001" xml:space="preserve" x="-27172" stroke="none" font-size="433.3333" font-family="sans-serif">O</text></g></g></svg>