<svg width="119.76" viewBox="0 0 3992 5386" text-rendering="auto" stroke-width="1" stroke-opacity="1" stroke-miterlimit="10" stroke-linejoin="miter" stroke-linecap="square" stroke-dashoffset="0" stroke-dasharray="none" stroke="black" shape-rendering="auto" image-rendering="auto" height="161.58" font-weight="normal" font-style="normal" font-size="12" font-family="'Dialog'" fill-opacity="1" fill="black" color-rendering="auto" color-interpolation="auto" xmlns="http://www.w3.org/2000/svg"><g><g stroke="white" fill="white"><rect y="0" x="0" width="3992" stroke="none" height="5386"/></g><g transform="translate(32866,32758)" text-rendering="geometricPrecision" stroke-width="44" stroke-linejoin="round" stroke-linecap="round"><line y2="-30229" y1="-30798" x2="-29885" x1="-30867" fill="none"/><line y2="-30154" y1="-30581" x2="-30093" x1="-30830" fill="none"/><line y2="-30798" y1="-30229" x2="-30867" x1="-31855" fill="none"/><line y2="-29094" y1="-30229" x2="-29885" x1="-29885" fill="none"/><line y2="-30229" y1="-29094" x2="-31855" x1="-31855" fill="none"/><line y2="-30087" y1="-29235" x2="-31685" x1="-31685" fill="none"/><line y2="-28524" y1="-29094" x2="-30867" x1="-29885" fill="none"/><line y2="-28741" y1="-29169" x2="-30830" x1="-30093" fill="none"/><line y2="-29094" y1="-28524" x2="-31855" x1="-30867" fill="none"/><line y2="-30755" y1="-30229" x2="-28978" x1="-29885" fill="none"/><line y2="-28568" y1="-29094" x2="-32762" x1="-31855" fill="none"/><line y2="-27476" y1="-28524" x2="-30867" x1="-30867" fill="none"/><line y2="-31627" y1="-30798" x2="-30867" x1="-30867" fill="none"/><line y2="-32202" y1="-31956" x2="-31486" x1="-31058" fill="none"/><line y2="-32263" y1="-31956" x2="-30148" x1="-30680" fill="none"/><text y="-31668" xml:space="preserve" x="-31020" stroke="none" font-size="433.3333" font-family="sans-serif">B</text><text y="-32242" xml:space="preserve" x="-32017" stroke="none" font-size="433.3333" font-family="sans-serif">OH</text><text y="-32190" xml:space="preserve" x="-30113" stroke="none" font-size="433.3333" font-family="sans-serif">OH</text></g></g></svg>