<svg width="295.23" viewBox="0 0 9841 4603" text-rendering="auto" stroke-width="1" stroke-opacity="1" stroke-miterlimit="10" stroke-linejoin="miter" stroke-linecap="square" stroke-dashoffset="0" stroke-dasharray="none" stroke="black" shape-rendering="auto" image-rendering="auto" height="138.09" font-weight="normal" font-style="normal" font-size="12" font-family="'Dialog'" fill-opacity="1" fill="black" color-rendering="auto" color-interpolation="auto" xmlns="http://www.w3.org/2000/svg"><g><g stroke="white" fill="white"><rect y="0" x="0" width="9841" stroke="none" height="4603"/></g><g transform="translate(32866,32758)" text-rendering="geometricPrecision" stroke-width="44" stroke-linejoin="round" stroke-linecap="round"><line y2="-29960" y1="-31087" x2="-31012" x1="-31029" fill="none"/><line y2="-31087" y1="-31434" x2="-31029" x1="-32115" fill="none"/><line y2="-29567" y1="-29960" x2="-32089" x1="-31012" fill="none"/><line y2="-31434" y1="-30457" x2="-32115" x1="-32762" fill="none"/><line y2="-30457" y1="-29567" x2="-32762" x1="-32089" fill="none"/><line y2="-31087" y1="-31610" x2="-29215" x1="-30122" fill="none"/><line y2="-29960" y1="-29437" x2="-29198" x1="-30105" fill="none"/><line y2="-29775" y1="-29382" x2="-29241" x1="-29923" fill="none"/><line y2="-31087" y1="-31087" x2="-28169" x1="-29215" fill="none"/><line y2="-31226" y1="-31226" x2="-28299" x1="-29085" fill="none"/><line y2="-29437" y1="-29960" x2="-28290" x1="-29198" fill="none"/><line y2="-31610" y1="-31087" x2="-27262" x1="-28169" fill="none"/><line y2="-31087" y1="-31610" x2="-26355" x1="-27262" fill="none"/><line y2="-31610" y1="-31087" x2="-25448" x1="-26355" fill="none"/><line y2="-31087" y1="-31610" x2="-24541" x1="-25448" fill="none"/><line y2="-29960" y1="-29437" x2="-27383" x1="-28290" fill="none"/><line y2="-29437" y1="-29960" x2="-26476" x1="-27383" fill="none"/><line y2="-29960" y1="-29437" x2="-25569" x1="-26476" fill="none"/><line y2="-29437" y1="-29960" x2="-24662" x1="-25569" fill="none"/><line y2="-29960" y1="-29437" x2="-23755" x1="-24662" fill="none"/><line y2="-31503" y1="-31087" x2="-23821" x1="-24541" fill="none"/><line y2="-30258" y1="-31087" x2="-24468" x1="-24468" fill="none"/><line y2="-30258" y1="-31087" x2="-24610" x1="-24610" fill="none"/><polygon stroke-width="1" stroke="none" points=" -31012 -29960 -30070 -29498 -30139 -29377"/><polygon stroke-width="1" points=" -31012 -29960 -30070 -29498 -30139 -29377" fill="none"/><polygon stroke-width="1" stroke="none" points=" -28290 -29437 -27707 -28565 -27825 -28493"/><polygon stroke-width="1" points=" -28290 -29437 -27707 -28565 -27825 -28493" fill="none"/><line y2="-31549" y1="-31670" x2="-30087" x1="-30157" fill="none"/><line y2="-31453" y1="-31549" x2="-30282" x1="-30337" fill="none"/><line y2="-31358" y1="-31429" x2="-30477" x1="-30518" fill="none"/><line y2="-31262" y1="-31308" x2="-30672" x1="-30698" fill="none"/><line y2="-31166" y1="-31187" x2="-30867" x1="-30879" fill="none"/><line y2="-32225" y1="-32179" x2="-32315" x1="-32445" fill="none"/><line y2="-32014" y1="-31980" x2="-32262" x1="-32357" fill="none"/><line y2="-31803" y1="-31782" x2="-32208" x1="-32269" fill="none"/><line y2="-31592" y1="-31583" x2="-32155" x1="-32181" fill="none"/><line y2="-28796" y1="-28761" x2="-32381" x1="-32248" fill="none"/><line y2="-29000" y1="-28974" x2="-32304" x1="-32206" fill="none"/><line y2="-29203" y1="-29187" x2="-32227" x1="-32164" fill="none"/><line y2="-29407" y1="-29400" x2="-32150" x1="-32122" fill="none"/><line y2="-28782" y1="-28715" x2="-28750" x1="-28628" fill="none"/><line y2="-28960" y1="-28912" x2="-28625" x1="-28536" fill="none"/><line y2="-29139" y1="-29108" x2="-28500" x1="-28444" fill="none"/><line y2="-29317" y1="-29305" x2="-28374" x1="-28352" fill="none"/><text y="-31431" xml:space="preserve" x="-23784" stroke="none" font-size="433.3333" font-family="sans-serif">OH</text><text y="-29859" xml:space="preserve" x="-24691" stroke="none" font-size="433.3333" font-family="sans-serif">O</text><text y="-28351" xml:space="preserve" x="-28966" stroke="none" font-size="433.3333" font-family="sans-serif">OH</text><text y="-32242" xml:space="preserve" x="-32609" stroke="none" font-size="433.3333" font-family="sans-serif">OH</text><text y="-28383" xml:space="preserve" x="-32531" stroke="none" font-size="433.3333" font-family="sans-serif">OH</text><text y="-31304" xml:space="preserve" x="-28845" stroke="none" font-style="italic" font-size="313.3333" font-family="sans-serif">Z</text><text y="-29908" xml:space="preserve" x="-30030" stroke="none" font-style="italic" font-size="313.3333" font-family="sans-serif">E</text><text y="-29562" xml:space="preserve" x="-28444" stroke="none" font-style="italic" font-size="313.3333" font-family="sans-serif">S</text><text y="-30639" xml:space="preserve" x="-31431" stroke="none" font-style="italic" font-size="313.3333" font-family="sans-serif">R</text><text y="-29926" xml:space="preserve" x="-31413" stroke="none" font-style="italic" font-size="313.3333" font-family="sans-serif">R</text><text y="-30983" xml:space="preserve" x="-32167" stroke="none" font-style="italic" font-size="313.3333" font-family="sans-serif">S</text><text y="-29666" xml:space="preserve" x="-32167" stroke="none" font-style="italic" font-size="313.3333" font-family="sans-serif">R</text></g></g></svg>