<svg width="325.83" viewBox="0 0 10861 6511" text-rendering="auto" stroke-width="1" stroke-opacity="1" stroke-miterlimit="10" stroke-linejoin="miter" stroke-linecap="square" stroke-dashoffset="0" stroke-dasharray="none" stroke="black" shape-rendering="auto" image-rendering="auto" height="195.33" font-weight="normal" font-style="normal" font-size="12" font-family="'Dialog'" fill-opacity="1" fill="black" color-rendering="auto" color-interpolation="auto" xmlns="http://www.w3.org/2000/svg"><g><g stroke="white" fill="white"><rect y="0" x="0" width="10861" stroke="none" height="6511"/></g><g transform="translate(32866,32866)" text-rendering="geometricPrecision" stroke-width="44" stroke-linejoin="round" stroke-linecap="round"><line y2="-28981" y1="-29553" x2="-27773" x1="-28756" fill="none"/><line y2="-29553" y1="-28981" x2="-28756" x1="-29738" fill="none"/><line y2="-30700" y1="-29553" x2="-28756" x1="-28756" fill="none"/><line y2="-28981" y1="-29553" x2="-27773" x1="-26791" fill="none"/><line y2="-27834" y1="-28981" x2="-27773" x1="-27773" fill="none"/><line y2="-27834" y1="-28981" x2="-29738" x1="-29738" fill="none"/><line y2="-28981" y1="-29553" x2="-29738" x1="-30720" fill="none"/><line y2="-31275" y1="-30700" x2="-27773" x1="-28756" fill="none"/><line y2="-30700" y1="-29553" x2="-26791" x1="-26791" fill="none"/><line y2="-29553" y1="-29553" x2="-26791" x1="-24824" fill="none"/><line y2="-27262" y1="-27834" x2="-28756" x1="-27773" fill="none"/><line y2="-27834" y1="-27262" x2="-29738" x1="-28756" fill="none"/><line y2="-27262" y1="-27834" x2="-30720" x1="-29738" fill="none"/><line y2="-29553" y1="-28981" x2="-30720" x1="-31702" fill="none"/><line y2="-30700" y1="-31275" x2="-26791" x1="-27773" fill="none"/><line y2="-31275" y1="-30700" x2="-25809" x1="-26791" fill="none"/><line y2="-29553" y1="-30700" x2="-24824" x1="-24824" fill="none"/><line y2="-27834" y1="-27262" x2="-31702" x1="-30720" fill="none"/><line y2="-28981" y1="-27834" x2="-31702" x1="-31702" fill="none"/><line y2="-30700" y1="-31275" x2="-24824" x1="-25809" fill="none"/><line y2="-31798" y1="-31275" x2="-24902" x1="-25809" fill="none"/><line y2="-26459" y1="-27262" x2="-31393" x1="-30720" fill="none"/><line y2="-26459" y1="-27262" x2="-30047" x1="-30720" fill="none"/><line y2="-31798" y1="-31075" x2="-24902" x1="-24367" fill="none"/><line y2="-32696" y1="-31798" x2="-24206" x1="-24902" fill="none"/><line y2="-30914" y1="-31182" x2="-24018" x1="-23142" fill="none"/><line y2="-32329" y1="-32696" x2="-23140" x1="-24206" fill="none"/><line y2="-31182" y1="-32329" x2="-23142" x1="-23140" fill="none"/><line y2="-30760" y1="-31240" x2="-22440" x1="-23099" fill="none"/><line y2="-30648" y1="-31124" x2="-22524" x1="-23183" fill="none"/><polygon stroke-width="1" stroke="none" points=" -27773 -28981 -27843 -30027 -27704 -30030"/><polygon stroke-width="1" points=" -27773 -28981 -27843 -30027 -27704 -30030" fill="none"/><polygon stroke-width="1" stroke="none" points=" -29738 -28981 -29807 -30027 -29668 -30030"/><polygon stroke-width="1" points=" -29738 -28981 -29807 -30027 -29668 -30030" fill="none"/><polygon stroke-width="1" stroke="none" points=" -26791 -30700 -26860 -31529 -26722 -31529"/><polygon stroke-width="1" points=" -26791 -30700 -26860 -31529 -26722 -31529" fill="none"/><polygon stroke-width="1" stroke="none" points=" -24902 -31798 -25439 -32699 -25315 -32762"/><polygon stroke-width="1" points=" -24902 -31798 -25439 -32699 -25315 -32762" fill="none"/><line y2="-28504" y1="-28507" x2="-26860" x1="-26722" fill="none"/><line y2="-28721" y1="-28723" x2="-26846" x1="-26736" fill="none"/><line y2="-28938" y1="-28940" x2="-26831" x1="-26751" fill="none"/><line y2="-29155" y1="-29156" x2="-26817" x1="-26765" fill="none"/><line y2="-29372" y1="-29372" x2="-26803" x1="-26779" fill="none"/><line y2="-27588" y1="-27470" x2="-32266" x1="-32193" fill="none"/><line y2="-27675" y1="-27599" x2="-32065" x1="-32018" fill="none"/><line y2="-27763" y1="-27729" x2="-31865" x1="-31844" fill="none"/><line y2="-28724" y1="-28727" x2="-28825" x1="-28686" fill="none"/><line y2="-28941" y1="-28943" x2="-28807" x1="-28704" fill="none"/><line y2="-29158" y1="-29160" x2="-28789" x1="-28723" fill="none"/><line y2="-29375" y1="-29376" x2="-28771" x1="-28741" fill="none"/><line y2="-27005" y1="-27005" x2="-29807" x1="-29668" fill="none"/><line y2="-27222" y1="-27222" x2="-29789" x1="-29686" fill="none"/><line y2="-27438" y1="-27438" x2="-29771" x1="-29705" fill="none"/><line y2="-27655" y1="-27655" x2="-29753" x1="-29723" fill="none"/><line y2="-32101" y1="-32101" x2="-25740" x1="-25875" fill="none"/><line y2="-31884" y1="-31884" x2="-25758" x1="-25858" fill="none"/><line y2="-31668" y1="-31668" x2="-25776" x1="-25840" fill="none"/><line y2="-31451" y1="-31451" x2="-25794" x1="-25823" fill="none"/><text y="-27132" xml:space="preserve" x="-32762" stroke="none" font-size="433.3333" font-family="sans-serif">OH</text><text y="-30388" xml:space="preserve" x="-22446" stroke="none" font-size="433.3333" font-family="sans-serif">O</text><text y="-30677" xml:space="preserve" x="-24359" stroke="none" font-size="433.3333" font-family="sans-serif">O</text><text y="-28328" xml:space="preserve" x="-28909" stroke="none" font-size="433.3333" font-family="sans-serif">H</text><text y="-31569" xml:space="preserve" x="-26941" stroke="none" font-size="433.3333" font-family="sans-serif">H</text><text y="-26609" xml:space="preserve" x="-29891" stroke="none" font-size="433.3333" font-family="sans-serif">H</text><text y="-32141" xml:space="preserve" x="-25959" stroke="none" font-size="433.3333" font-family="sans-serif">H</text><text y="-29518" xml:space="preserve" x="-29157" stroke="none" font-style="italic" font-size="313.3333" font-family="sans-serif">R</text><text y="-28657" xml:space="preserve" x="-27678" stroke="none" font-style="italic" font-size="313.3333" font-family="sans-serif">R</text><text y="-28657" xml:space="preserve" x="-29642" stroke="none" font-style="italic" font-size="313.3333" font-family="sans-serif">R</text><text y="-29518" xml:space="preserve" x="-27193" stroke="none" font-style="italic" font-size="313.3333" font-family="sans-serif">R</text><text y="-27799" xml:space="preserve" x="-30139" stroke="none" font-style="italic" font-size="313.3333" font-family="sans-serif">R</text><text y="-30376" xml:space="preserve" x="-26693" stroke="none" font-style="italic" font-size="313.3333" font-family="sans-serif">R</text><text y="-30792" xml:space="preserve" x="-25959" stroke="none" font-style="italic" font-size="313.3333" font-family="sans-serif">S</text><text y="-27799" xml:space="preserve" x="-31607" stroke="none" font-style="italic" font-size="313.3333" font-family="sans-serif">R</text><text y="-31618" xml:space="preserve" x="-24783" stroke="none" font-style="italic" font-size="313.3333" font-family="sans-serif">S</text></g></g></svg>