<svg width="372.39" viewBox="0 0 12413 7472" text-rendering="auto" stroke-width="1" stroke-opacity="1" stroke-miterlimit="10" stroke-linejoin="miter" stroke-linecap="square" stroke-dashoffset="0" stroke-dasharray="none" stroke="black" shape-rendering="auto" image-rendering="auto" height="224.16" font-weight="normal" font-style="normal" font-size="12" font-family="'Dialog'" fill-opacity="1" fill="black" color-rendering="auto" color-interpolation="auto" xmlns="http://www.w3.org/2000/svg"><g><g stroke="white" fill="white"><rect y="0" x="0" width="12413" stroke="none" height="7472"/></g><g transform="translate(32866,32758)" text-rendering="geometricPrecision" stroke-width="44" stroke-linejoin="round" stroke-linecap="round"><line y2="-29668" y1="-30807" x2="-27063" x1="-27063" fill="none"/><line y2="-30807" y1="-31376" x2="-27063" x1="-28048" fill="none"/><line y2="-29099" y1="-29668" x2="-28048" x1="-27063" fill="none"/><line y2="-31376" y1="-30807" x2="-28048" x1="-29033" fill="none"/><line y2="-29562" y1="-29099" x2="-28845" x1="-28048" fill="none"/><line y2="-30807" y1="-29888" x2="-29033" x1="-29033" fill="none"/><line y2="-30807" y1="-31223" x2="-25248" x1="-25968" fill="none"/><line y2="-31026" y1="-31330" x2="-30466" x1="-29940" fill="none"/><line y2="-27233" y1="-27638" x2="-28964" x1="-28236" fill="none"/><line y2="-30807" y1="-29888" x2="-25248" x1="-25248" fill="none"/><line y2="-31376" y1="-30807" x2="-24263" x1="-25248" fill="none"/><line y2="-29562" y1="-29099" x2="-25061" x1="-24263" fill="none"/><line y2="-30807" y1="-31376" x2="-23278" x1="-24263" fill="none"/><line y2="-29099" y1="-29668" x2="-24263" x1="-23278" fill="none"/><line y2="-29668" y1="-30807" x2="-23278" x1="-23278" fill="none"/><line y2="-28054" y1="-29099" x2="-24263" x1="-24263" fill="none"/><line y2="-29668" y1="-29365" x2="-21464" x1="-21990" fill="none"/><line y2="-27756" y1="-27233" x2="-29871" x1="-28964" fill="none"/><line y2="-26184" y1="-27233" x2="-28964" x1="-28964" fill="none"/><line y2="-27528" y1="-28054" x2="-23356" x1="-24263" fill="none"/><line y2="-32268" y1="-31855" x2="-24529" x1="-25248" fill="none"/><line y2="-32208" y1="-31815" x2="-26002" x1="-25318" fill="none"/><line y2="-32329" y1="-31916" x2="-25930" x1="-25214" fill="none"/><line y2="-29146" y1="-29668" x2="-20557" x1="-21464" fill="none"/><line y2="-30498" y1="-29668" x2="-21533" x1="-21533" fill="none"/><line y2="-30498" y1="-29668" x2="-21392" x1="-21392" fill="none"/><line y2="-27248" y1="-27756" x2="-30789" x1="-29871" fill="none"/><line y2="-25662" y1="-26184" x2="-28056" x1="-28964" fill="none"/><line y2="-26078" y1="-25662" x2="-27337" x1="-28056" fill="none"/><line y2="-28054" y1="-27528" x2="-22449" x1="-23356" fill="none"/><line y2="-27638" y1="-28054" x2="-21730" x1="-22449" fill="none"/><line y2="-27773" y1="-27248" x2="-31696" x1="-30789" fill="none"/><line y2="-27369" y1="-27773" x2="-32424" x1="-31696" fill="none"/><line y2="-27297" y1="-27600" x2="-32266" x1="-31720" fill="none"/><polygon stroke-width="1" stroke="none" points=" -27063 -29668 -26309 -29313 -26375 -29192"/><polygon stroke-width="1" points=" -27063 -29668 -26309 -29313 -26375 -29192" fill="none"/><polygon stroke-width="1" stroke="none" points=" -25248 -30807 -25315 -31852 -25179 -31855"/><polygon stroke-width="1" points=" -25248 -30807 -25315 -31852 -25179 -31855" fill="none"/><polygon stroke-width="1" stroke="none" points=" -23278 -29668 -22524 -29313 -22591 -29192"/><polygon stroke-width="1" points=" -23278 -29668 -22524 -29313 -22591 -29192" fill="none"/><polygon stroke-width="1" stroke="none" points=" -24263 -29099 -24948 -28626 -25017 -28744"/><polygon stroke-width="1" points=" -24263 -29099 -24948 -28626 -25017 -28744" fill="none"/><polygon stroke-width="1" stroke="none" points=" -28964 -27233 -28218 -26866 -28290 -26748"/><polygon stroke-width="1" points=" -28964 -27233 -28218 -26866 -28290 -26748" fill="none"/><polygon stroke-width="1" stroke="none" points=" -24263 -28054 -24754 -27687 -24827 -27808"/><polygon stroke-width="1" points=" -24263 -28054 -24754 -27687 -24827 -27808" fill="none"/><polygon stroke-width="1" stroke="none" points=" -29871 -27756 -29940 -28585 -29804 -28585"/><polygon stroke-width="1" points=" -29871 -27756 -29940 -28585 -29804 -28585" fill="none"/><polygon stroke-width="1" stroke="none" points=" -28964 -26184 -29458 -25820 -29527 -25939"/><polygon stroke-width="1" points=" -28964 -26184 -29458 -25820 -29527 -25939" fill="none"/><polygon stroke-width="1" stroke="none" points=" -23356 -27528 -23287 -26699 -23426 -26699"/><polygon stroke-width="1" points=" -23356 -27528 -23287 -26699 -23426 -26699" fill="none"/><polygon stroke-width="1" stroke="none" points=" -30789 -27248 -30720 -26421 -30856 -26418"/><polygon stroke-width="1" points=" -30789 -27248 -30720 -26421 -30856 -26418" fill="none"/><line y2="-31162" y1="-31280" x2="-26309" x1="-26378" fill="none"/><line y2="-31069" y1="-31157" x2="-26506" x1="-26557" fill="none"/><line y2="-30977" y1="-31033" x2="-26703" x1="-26736" fill="none"/><line y2="-30884" y1="-30910" x2="-26899" x1="-26914" fill="none"/><line y2="-31390" y1="-31269" x2="-29905" x1="-29972" fill="none"/><line y2="-31269" y1="-31173" x2="-29724" x1="-29777" fill="none"/><line y2="-31148" y1="-31078" x2="-29544" x1="-29583" fill="none"/><line y2="-31028" y1="-30982" x2="-29363" x1="-29388" fill="none"/><line y2="-30907" y1="-30886" x2="-29182" x1="-29194" fill="none"/><line y2="-27958" y1="-27961" x2="-28117" x1="-27978" fill="none"/><line y2="-28175" y1="-28177" x2="-28104" x1="-27991" fill="none"/><line y2="-28392" y1="-28394" x2="-28091" x1="-28005" fill="none"/><line y2="-28609" y1="-28610" x2="-28078" x1="-28018" fill="none"/><line y2="-28826" y1="-28827" x2="-28065" x1="-28031" fill="none"/><line y2="-29043" y1="-29043" x2="-28051" x1="-28045" fill="none"/><line y2="-32202" y1="-32202" x2="-27978" x1="-28117" fill="none"/><line y2="-31985" y1="-31985" x2="-27996" x1="-28099" fill="none"/><line y2="-31769" y1="-31769" x2="-28015" x1="-28081" fill="none"/><line y2="-31552" y1="-31552" x2="-28033" x1="-28063" fill="none"/><line y2="-31162" y1="-31280" x2="-22524" x1="-22591" fill="none"/><line y2="-31069" y1="-31157" x2="-22721" x1="-22770" fill="none"/><line y2="-30977" y1="-31033" x2="-22917" x1="-22949" fill="none"/><line y2="-30884" y1="-30910" x2="-23114" x1="-23128" fill="none"/><text y="-31150" xml:space="preserve" x="-26306" stroke="none" font-size="433.3333" font-family="sans-serif">O</text><text y="-32199" xml:space="preserve" x="-24492" stroke="none" font-size="433.3333" font-family="sans-serif">OH</text><text y="-32199" xml:space="preserve" x="-26306" stroke="none" font-size="433.3333" font-family="sans-serif">O</text><text y="-27349" xml:space="preserve" x="-25324" stroke="none" font-size="433.3333" font-family="sans-serif">OH</text><text y="-26303" xml:space="preserve" x="-23509" stroke="none" font-size="433.3333" font-family="sans-serif">OH</text><text y="-27349" xml:space="preserve" x="-21695" stroke="none" font-size="433.3333" font-family="sans-serif">OH</text><text y="-31150" xml:space="preserve" x="-22521" stroke="none" font-size="433.3333" font-family="sans-serif">OH</text><text y="-28966" xml:space="preserve" x="-22521" stroke="none" font-size="433.3333" font-family="sans-serif">NH</text><text y="-30538" xml:space="preserve" x="-21614" stroke="none" font-size="433.3333" font-family="sans-serif">O</text><text y="-28966" xml:space="preserve" x="-26306" stroke="none" font-size="433.3333" font-family="sans-serif">OH</text><text y="-32242" xml:space="preserve" x="-28201" stroke="none" font-size="433.3333" font-family="sans-serif">OH</text><text y="-27562" xml:space="preserve" x="-28201" stroke="none" font-size="433.3333" font-family="sans-serif">O</text><text y="-28626" xml:space="preserve" x="-30024" stroke="none" font-size="433.3333" font-family="sans-serif">OH</text><text y="-25482" xml:space="preserve" x="-30024" stroke="none" font-size="433.3333" font-family="sans-serif">OH</text><text y="-26023" xml:space="preserve" x="-30940" stroke="none" font-size="433.3333" font-family="sans-serif">OH</text><text y="-26005" xml:space="preserve" x="-27300" stroke="none" font-size="433.3333" font-family="sans-serif">OH</text><text y="-27086" xml:space="preserve" x="-32762" stroke="none" font-size="433.3333" font-family="sans-serif">O</text><text y="-30628" xml:space="preserve" x="-30997" stroke="none" font-size="433.3333" font-family="sans-serif">OH</text><text y="-29489" xml:space="preserve" x="-25399" stroke="none" font-size="433.3333" font-family="sans-serif">O</text><text y="-29489" xml:space="preserve" x="-29183" stroke="none" font-size="433.3333" font-family="sans-serif">O</text><text y="-28397" xml:space="preserve" x="-25324" stroke="none" font-size="433.3333" font-family="sans-serif">H</text><text y="-26514" xml:space="preserve" x="-28218" stroke="none" font-size="433.3333" font-family="sans-serif">H</text><text y="-28016" xml:space="preserve" x="-24168" stroke="none" font-style="italic" font-size="313.3333" font-family="sans-serif">R</text><text y="-27652" xml:space="preserve" x="-23509" stroke="none" font-style="italic" font-size="313.3333" font-family="sans-serif">R</text><text y="-27357" xml:space="preserve" x="-29117" stroke="none" font-style="italic" font-size="313.3333" font-family="sans-serif">R</text><text y="-27276" xml:space="preserve" x="-30024" stroke="none" font-style="italic" font-size="313.3333" font-family="sans-serif">R</text><text y="-26150" xml:space="preserve" x="-28868" stroke="none" font-style="italic" font-size="313.3333" font-family="sans-serif">R</text><text y="-27372" xml:space="preserve" x="-30940" stroke="none" font-style="italic" font-size="313.3333" font-family="sans-serif">R</text><text y="-30483" xml:space="preserve" x="-25150" stroke="none" font-style="italic" font-size="313.3333" font-family="sans-serif">S</text><text y="-28779" xml:space="preserve" x="-24168" stroke="none" font-style="italic" font-size="313.3333" font-family="sans-serif">R</text><text y="-30483" xml:space="preserve" x="-23677" stroke="none" font-style="italic" font-size="313.3333" font-family="sans-serif">S</text><text y="-29634" xml:space="preserve" x="-23677" stroke="none" font-style="italic" font-size="313.3333" font-family="sans-serif">R</text><text y="-30483" xml:space="preserve" x="-27461" stroke="none" font-style="italic" font-size="313.3333" font-family="sans-serif">S</text><text y="-29634" xml:space="preserve" x="-27461" stroke="none" font-style="italic" font-size="313.3333" font-family="sans-serif">R</text><text y="-30893" xml:space="preserve" x="-28201" stroke="none" font-style="italic" font-size="313.3333" font-family="sans-serif">S</text><text y="-29224" xml:space="preserve" x="-28201" stroke="none" font-style="italic" font-size="313.3333" font-family="sans-serif">S</text><text y="-30483" xml:space="preserve" x="-28935" stroke="none" font-style="italic" font-size="313.3333" font-family="sans-serif">R</text></g></g></svg>