<svg width="265.98" viewBox="0 0 8866 7672" text-rendering="auto" stroke-width="1" stroke-opacity="1" stroke-miterlimit="10" stroke-linejoin="miter" stroke-linecap="square" stroke-dashoffset="0" stroke-dasharray="none" stroke="black" shape-rendering="auto" image-rendering="auto" height="230.16" font-weight="normal" font-style="normal" font-size="12" font-family="'Dialog'" fill-opacity="1" fill="black" color-rendering="auto" color-interpolation="auto" xmlns="http://www.w3.org/2000/svg"><g><g stroke="white" fill="white"><rect y="0" x="0" width="8866" stroke="none" height="7672"/></g><g transform="translate(32866,32866)" text-rendering="geometricPrecision" stroke-width="44" stroke-linejoin="round" stroke-linecap="round"><line y2="-28851" y1="-29790" x2="-27987" x1="-27987" fill="none"/><line y2="-28051" y1="-28435" x2="-28990" x1="-28328" fill="none"/><line y2="-30697" y1="-30116" x2="-29177" x1="-28175" fill="none"/><line y2="-30281" y1="-30697" x2="-27513" x1="-26794" fill="none"/><line y2="-30480" y1="-30792" x2="-27508" x1="-26967" fill="none"/><line y2="-28631" y1="-28051" x2="-30373" x1="-29365" fill="none"/><line y2="-30697" y1="-30006" x2="-29177" x1="-30373" fill="none"/><line y2="-32075" y1="-30697" x2="-29177" x1="-29177" fill="none"/><line y2="-31902" y1="-30867" x2="-29007" x1="-29007" fill="none"/><line y2="-30697" y1="-32075" x2="-26794" x1="-26794" fill="none"/><line y2="-30006" y1="-28631" x2="-30373" x1="-30373" fill="none"/><line y2="-27941" y1="-28631" x2="-31566" x1="-30373" fill="none"/><line y2="-28175" y1="-28692" x2="-31503" x1="-30607" fill="none"/><line y2="-30006" y1="-30697" x2="-30373" x1="-31566" fill="none"/><line y2="-29946" y1="-30463" x2="-30607" x1="-31503" fill="none"/><line y2="-32762" y1="-32075" x2="-27987" x1="-29177" fill="none"/><line y2="-32075" y1="-32762" x2="-26794" x1="-27987" fill="none"/><line y2="-32011" y1="-32528" x2="-27028" x1="-27924" fill="none"/><line y2="-28631" y1="-27941" x2="-32762" x1="-31566" fill="none"/><line y2="-30697" y1="-30006" x2="-31566" x1="-32762" fill="none"/><line y2="-30006" y1="-28631" x2="-32762" x1="-32762" fill="none"/><line y2="-29836" y1="-28802" x2="-32592" x1="-32592" fill="none"/><line y2="-28158" y1="-28432" x2="-27170" x1="-27646" fill="none"/><line y2="-27427" y1="-27834" x2="-30067" x1="-29365" fill="none"/><line y2="-27115" y1="-27721" x2="-29177" x1="-29177" fill="none"/><line y2="-27802" y1="-28412" x2="-27987" x1="-27987" fill="none"/><line y2="-28574" y1="-28270" x2="-26075" x1="-26603" fill="none"/><line y2="-27002" y1="-27831" x2="-26982" x1="-26982" fill="none"/><line y2="-28574" y1="-28004" x2="-26075" x1="-25087" fill="none"/><line y2="-29712" y1="-28574" x2="-26075" x1="-26075" fill="none"/><line y2="-29143" y1="-28004" x2="-24688" x1="-25087" fill="none"/><line y2="-28004" y1="-28574" x2="-25087" x1="-24104" fill="none"/><line y2="-30281" y1="-29712" x2="-25087" x1="-26075" fill="none"/><line y2="-30281" y1="-29143" x2="-25087" x1="-24688" fill="none"/><line y2="-28574" y1="-29712" x2="-24104" x1="-24104" fill="none"/><line y2="-29712" y1="-30281" x2="-24104" x1="-25087" fill="none"/><line y2="-27571" y1="-27002" x2="-26000" x1="-26982" fill="none"/><line y2="-27002" y1="-25864" x2="-26982" x1="-26982" fill="none"/><line y2="-27571" y1="-26433" x2="-26000" x1="-26398" fill="none"/><line y2="-27002" y1="-27571" x2="-25012" x1="-26000" fill="none"/><line y2="-25864" y1="-25298" x2="-26982" x1="-26000" fill="none"/><line y2="-26433" y1="-25298" x2="-26398" x1="-26000" fill="none"/><line y2="-25867" y1="-27002" x2="-25012" x1="-25012" fill="none"/><line y2="-25298" y1="-25867" x2="-26000" x1="-25012" fill="none"/><text y="-27872" xml:space="preserve" x="-27135" stroke="none" font-size="433.3333" font-family="sans-serif">PH</text><text y="-27404" xml:space="preserve" x="-28218" stroke="none" font-size="433.3333" font-family="sans-serif">Cl</text><text y="-27028" xml:space="preserve" x="-30602" stroke="none" font-size="433.3333" font-family="sans-serif">CH</text><text y="-26938" xml:space="preserve" x="-30024" stroke="none" font-size="313.3333" font-family="sans-serif">3</text><text y="-26716" xml:space="preserve" x="-29330" stroke="none" font-size="433.3333" font-family="sans-serif">CH</text><text y="-26626" xml:space="preserve" x="-28753" stroke="none" font-size="313.3333" font-family="sans-serif">3</text><text y="-28452" xml:space="preserve" x="-28290" stroke="none" font-size="433.3333" font-family="sans-serif">Pd</text><text y="-29827" xml:space="preserve" x="-28140" stroke="none" font-size="433.3333" font-family="sans-serif">C</text><text y="-27762" xml:space="preserve" x="-29330" stroke="none" font-size="433.3333" font-family="sans-serif">N</text><text y="-27458" xml:space="preserve" x="-27664" stroke="none" font-size="313.3333" font-family="sans-serif">-</text><text y="-28507" xml:space="preserve" x="-27664" stroke="none" font-size="313.3333" font-family="sans-serif">2+</text><text y="-29882" xml:space="preserve" x="-27817" stroke="none" font-size="313.3333" font-family="sans-serif">-</text></g></g></svg>