<svg width="374.04" viewBox="0 0 12468 7697" text-rendering="auto" stroke-width="1" stroke-opacity="1" stroke-miterlimit="10" stroke-linejoin="miter" stroke-linecap="square" stroke-dashoffset="0" stroke-dasharray="none" stroke="black" shape-rendering="auto" image-rendering="auto" height="230.91" font-weight="normal" font-style="normal" font-size="12" font-family="'Dialog'" fill-opacity="1" fill="black" color-rendering="auto" color-interpolation="auto" xmlns="http://www.w3.org/2000/svg"><g><g stroke="white" fill="white"><rect y="0" x="0" width="12468" stroke="none" height="7697"/></g><g transform="translate(32866,32758)" text-rendering="geometricPrecision" stroke-width="44" stroke-linejoin="round" stroke-linecap="round"><line y2="-30119" y1="-28984" x2="-28071" x1="-28071" fill="none"/><line y2="-30688" y1="-30119" x2="-27083" x1="-28071" fill="none"/><line y2="-28984" y1="-28415" x2="-28071" x1="-27083" fill="none"/><line y2="-30229" y1="-30688" x2="-26288" x1="-27083" fill="none"/><line y2="-28415" y1="-28984" x2="-27083" x1="-26101" fill="none"/><line y2="-28984" y1="-29900" x2="-26101" x1="-26101" fill="none"/><line y2="-30119" y1="-30535" x2="-29885" x1="-29166" fill="none"/><line y2="-27395" y1="-28224" x2="-28969" x1="-28969" fill="none"/><line y2="-28874" y1="-28458" x2="-24474" x1="-25194" fill="none"/><line y2="-28458" y1="-28874" x2="-23379" x1="-24099" fill="none"/><line y2="-32092" y1="-31844" x2="-27701" x1="-27271" fill="none"/><line y2="-30645" y1="-30119" x2="-30792" x1="-29885" fill="none"/><line y2="-29293" y1="-30119" x2="-29816" x1="-29816" fill="none"/><line y2="-29293" y1="-30119" x2="-29954" x1="-29954" fill="none"/><line y2="-26872" y1="-27395" x2="-29876" x1="-28969" fill="none"/><line y2="-27042" y1="-27456" x2="-28212" x1="-28932" fill="none"/><line y2="-26918" y1="-27334" x2="-28285" x1="-29004" fill="none"/><line y2="-28984" y1="-28458" x2="-22472" x1="-23379" fill="none"/><line y2="-27632" y1="-28458" x2="-23310" x1="-23310" fill="none"/><line y2="-27632" y1="-28458" x2="-23449" x1="-23449" fill="none"/><line y2="-30645" y1="-31780" x2="-30792" x1="-30792" fill="none"/><line y2="-30786" y1="-31639" x2="-30963" x1="-30963" fill="none"/><line y2="-30076" y1="-30645" x2="-31774" x1="-30792" fill="none"/><line y2="-31780" y1="-32349" x2="-30792" x1="-31774" fill="none"/><line y2="-30645" y1="-30076" x2="-32762" x1="-31774" fill="none"/><line y2="-30720" y1="-30292" x2="-32554" x1="-31815" fill="none"/><line y2="-32349" y1="-31780" x2="-31774" x1="-32762" fill="none"/><line y2="-32133" y1="-31705" x2="-31815" x1="-32554" fill="none"/><line y2="-31780" y1="-30645" x2="-32762" x1="-32762" fill="none"/><line y2="-26872" y1="-27441" x2="-29876" x1="-30859" fill="none"/><line y2="-26797" y1="-27224" x2="-30082" x1="-30821" fill="none"/><line y2="-25734" y1="-26872" x2="-29876" x1="-29876" fill="none"/><line y2="-27441" y1="-26872" x2="-30859" x1="-31847" fill="none"/><line y2="-25165" y1="-25734" x2="-30859" x1="-29876" fill="none"/><line y2="-25384" y1="-25812" x2="-30821" x1="-30082" fill="none"/><line y2="-26872" y1="-25734" x2="-31847" x1="-31847" fill="none"/><line y2="-26730" y1="-25878" x2="-31676" x1="-31676" fill="none"/><line y2="-25734" y1="-25165" x2="-31847" x1="-30859" fill="none"/><line y2="-30119" y1="-28984" x2="-22472" x1="-22472" fill="none"/><line y2="-29978" y1="-29125" x2="-22302" x1="-22302" fill="none"/><line y2="-28984" y1="-28415" x2="-22472" x1="-21484" fill="none"/><line y2="-30688" y1="-30119" x2="-21484" x1="-22472" fill="none"/><line y2="-28415" y1="-28984" x2="-21484" x1="-20502" fill="none"/><line y2="-28631" y1="-29059" x2="-21447" x1="-20710" fill="none"/><line y2="-30119" y1="-30688" x2="-20502" x1="-21484" fill="none"/><line y2="-30044" y1="-30472" x2="-20710" x1="-21447" fill="none"/><line y2="-28984" y1="-30119" x2="-20502" x1="-20502" fill="none"/><polygon stroke-width="1" stroke="none" points=" -28071 -30119 -28825 -30474 -28756 -30596"/><polygon stroke-width="1" points=" -28071 -30119 -28825 -30474 -28756 -30596" fill="none"/><polygon stroke-width="1" stroke="none" points=" -27083 -30688 -27152 -31517 -27014 -31517"/><polygon stroke-width="1" points=" -27083 -30688 -27152 -31517 -27014 -31517" fill="none"/><line y2="-28617" y1="-28496" x2="-28816" x1="-28744" fill="none"/><line y2="-28713" y1="-28624" x2="-28621" x1="-28568" fill="none"/><line y2="-28809" y1="-28751" x2="-28426" x1="-28392" fill="none"/><line y2="-28905" y1="-28879" x2="-28231" x1="-28216" fill="none"/><line y2="-28397" y1="-28519" x2="-25225" x1="-25159" fill="none"/><line y2="-28518" y1="-28615" x2="-25406" x1="-25353" fill="none"/><line y2="-28639" y1="-28711" x2="-25586" x1="-25548" fill="none"/><line y2="-28760" y1="-28807" x2="-25767" x1="-25742" fill="none"/><line y2="-28881" y1="-28903" x2="-25948" x1="-25936" fill="none"/><line y2="-27586" y1="-27586" x2="-27152" x1="-27014" fill="none"/><line y2="-27803" y1="-27803" x2="-27134" x1="-27032" fill="none"/><line y2="-28019" y1="-28019" x2="-27116" x1="-27050" fill="none"/><line y2="-28236" y1="-28236" x2="-27098" x1="-27068" fill="none"/><text y="-30466" xml:space="preserve" x="-29131" stroke="none" font-size="433.3333" font-family="sans-serif">O</text><text y="-28894" xml:space="preserve" x="-30038" stroke="none" font-size="433.3333" font-family="sans-serif">O</text><text y="-28264" xml:space="preserve" x="-29120" stroke="none" font-size="433.3333" font-family="sans-serif">O</text><text y="-26693" xml:space="preserve" x="-28212" stroke="none" font-size="433.3333" font-family="sans-serif">O</text><text y="-31558" xml:space="preserve" x="-27236" stroke="none" font-size="433.3333" font-family="sans-serif">O</text><text y="-32242" xml:space="preserve" x="-28423" stroke="none" font-size="433.3333" font-family="sans-serif">CH</text><text y="-32153" xml:space="preserve" x="-27846" stroke="none" font-size="313.3333" font-family="sans-serif">3</text><text y="-27187" xml:space="preserve" x="-27236" stroke="none" font-size="433.3333" font-family="sans-serif">OH</text><text y="-28805" xml:space="preserve" x="-24440" stroke="none" font-size="433.3333" font-family="sans-serif">O</text><text y="-27233" xml:space="preserve" x="-23532" stroke="none" font-size="433.3333" font-family="sans-serif">O</text><text y="-29940" xml:space="preserve" x="-26254" stroke="none" font-size="433.3333" font-family="sans-serif">O</text><text y="-29798" xml:space="preserve" x="-27976" stroke="none" font-style="italic" font-size="313.3333" font-family="sans-serif">R</text><text y="-28949" xml:space="preserve" x="-27976" stroke="none" font-style="italic" font-size="313.3333" font-family="sans-serif">S</text><text y="-30206" xml:space="preserve" x="-27236" stroke="none" font-style="italic" font-size="313.3333" font-family="sans-serif">S</text><text y="-28539" xml:space="preserve" x="-27236" stroke="none" font-style="italic" font-size="313.3333" font-family="sans-serif">S</text><text y="-28949" xml:space="preserve" x="-26502" stroke="none" font-style="italic" font-size="313.3333" font-family="sans-serif">R</text></g></g></svg>