<svg width="446.13" viewBox="0 0 14871 5676" text-rendering="auto" stroke-width="1" stroke-opacity="1" stroke-miterlimit="10" stroke-linejoin="miter" stroke-linecap="square" stroke-dashoffset="0" stroke-dasharray="none" stroke="black" shape-rendering="auto" image-rendering="auto" height="170.28" font-weight="normal" font-style="normal" font-size="12" font-family="'Dialog'" fill-opacity="1" fill="black" color-rendering="auto" color-interpolation="auto" xmlns="http://www.w3.org/2000/svg"><g><g stroke="white" fill="white"><rect y="0" x="0" width="14871" stroke="none" height="5676"/></g><g transform="translate(32866,32758)" text-rendering="geometricPrecision" stroke-width="44" stroke-linejoin="round" stroke-linecap="round"><line y2="-30850" y1="-31376" x2="-25107" x1="-26014" fill="none"/><line y2="-31376" y1="-30850" x2="-24200" x1="-25107" fill="none"/><line y2="-30850" y1="-31376" x2="-26921" x1="-26014" fill="none"/><line y2="-31376" y1="-30850" x2="-27828" x1="-26921" fill="none"/><line y2="-30850" y1="-31376" x2="-28735" x1="-27828" fill="none"/><line y2="-32202" y1="-31376" x2="-26014" x1="-26014" fill="none"/><line y2="-30850" y1="-31376" x2="-23293" x1="-24200" fill="none"/><line y2="-31376" y1="-30850" x2="-22386" x1="-23293" fill="none"/><line y2="-30850" y1="-31376" x2="-21478" x1="-22386" fill="none"/><line y2="-32202" y1="-31376" x2="-24269" x1="-24269" fill="none"/><line y2="-32202" y1="-31376" x2="-24130" x1="-24130" fill="none"/><line y2="-30850" y1="-31419" x2="-28735" x1="-29720" fill="none"/><line y2="-30775" y1="-31202" x2="-28943" x1="-29683" fill="none"/><line y2="-29715" y1="-30850" x2="-28735" x1="-28735" fill="none"/><line y2="-31419" y1="-30850" x2="-29720" x1="-30706" fill="none"/><line y2="-29146" y1="-29715" x2="-29720" x1="-28735" fill="none"/><line y2="-29362" y1="-29790" x2="-29683" x1="-28943" fill="none"/><line y2="-30850" y1="-29715" x2="-30706" x1="-30706" fill="none"/><line y2="-30708" y1="-29856" x2="-30535" x1="-30535" fill="none"/><line y2="-29715" y1="-29146" x2="-30706" x1="-29720" fill="none"/><line y2="-31266" y1="-30850" x2="-31425" x1="-30706" fill="none"/><line y2="-31018" y1="-31266" x2="-32231" x1="-31800" fill="none"/><line y2="-29408" y1="-29715" x2="-31234" x1="-30706" fill="none"/><line y2="-30850" y1="-29715" x2="-21478" x1="-21478" fill="none"/><line y2="-30708" y1="-29856" x2="-21308" x1="-21308" fill="none"/><line y2="-31419" y1="-30850" x2="-20490" x1="-21478" fill="none"/><line y2="-29715" y1="-29146" x2="-21478" x1="-20490" fill="none"/><line y2="-30850" y1="-31419" x2="-19508" x1="-20490" fill="none"/><line y2="-30775" y1="-31202" x2="-19716" x1="-20453" fill="none"/><line y2="-29146" y1="-29715" x2="-20490" x1="-19508" fill="none"/><line y2="-29362" y1="-29790" x2="-20453" x1="-19716" fill="none"/><line y2="-29715" y1="-30850" x2="-19508" x1="-19508" fill="none"/><line y2="-28316" y1="-29146" x2="-20490" x1="-20490" fill="none"/><line y2="-27742" y1="-27990" x2="-21109" x1="-20678" fill="none"/><line y2="-29299" y1="-29715" x2="-18789" x1="-19508" fill="none"/><text y="-32242" xml:space="preserve" x="-26167" stroke="none" font-size="433.3333" font-family="sans-serif">OH</text><text y="-32242" xml:space="preserve" x="-24353" stroke="none" font-size="433.3333" font-family="sans-serif">O</text><text y="-31197" xml:space="preserve" x="-31766" stroke="none" font-size="433.3333" font-family="sans-serif">O</text><text y="-30619" xml:space="preserve" x="-32762" stroke="none" font-size="433.3333" font-family="sans-serif">CH</text><text y="-30529" xml:space="preserve" x="-32185" stroke="none" font-size="313.3333" font-family="sans-serif">3</text><text y="-29010" xml:space="preserve" x="-31766" stroke="none" font-size="433.3333" font-family="sans-serif">OH</text><text y="-27918" xml:space="preserve" x="-20644" stroke="none" font-size="433.3333" font-family="sans-serif">O</text><text y="-27343" xml:space="preserve" x="-21640" stroke="none" font-size="433.3333" font-family="sans-serif">CH</text><text y="-27253" xml:space="preserve" x="-21062" stroke="none" font-size="313.3333" font-family="sans-serif">3</text><text y="-29010" xml:space="preserve" x="-18754" stroke="none" font-size="433.3333" font-family="sans-serif">OH</text></g></g></svg>