<svg width="270.39" viewBox="0 0 9013 11546" text-rendering="auto" stroke-width="1" stroke-opacity="1" stroke-miterlimit="10" stroke-linejoin="miter" stroke-linecap="square" stroke-dashoffset="0" stroke-dasharray="none" stroke="black" shape-rendering="auto" image-rendering="auto" height="346.38" font-weight="normal" font-style="normal" font-size="12" font-family="'Dialog'" fill-opacity="1" fill="black" color-rendering="auto" color-interpolation="auto" xmlns="http://www.w3.org/2000/svg"><g><g stroke="white" fill="white"><rect y="0" x="0" width="9013" stroke="none" height="11546"/></g><g transform="translate(32866,32866)" text-rendering="geometricPrecision" stroke-width="44" stroke-linejoin="round" stroke-linecap="round"><line y2="-27730" y1="-26447" x2="-29463" x1="-29463" fill="none"/><line y2="-27730" y1="-28368" x2="-29463" x1="-28366" fill="none"/><line y2="-27955" y1="-28435" x2="-29414" x1="-28588" fill="none"/><line y2="-28368" y1="-27730" x2="-30564" x1="-29463" fill="none"/><line y2="-26447" y1="-25806" x2="-29463" x1="-28366" fill="none"/><line y2="-26514" y1="-26034" x2="-29241" x1="-28418" fill="none"/><line y2="-26447" y1="-25806" x2="-29463" x1="-30564" fill="none"/><line y2="-28368" y1="-29651" x2="-28366" x1="-28366" fill="none"/><line y2="-28212" y1="-28368" x2="-27271" x1="-28366" fill="none"/><line y2="-29651" y1="-28368" x2="-30564" x1="-30564" fill="none"/><line y2="-27730" y1="-28368" x2="-31662" x1="-30564" fill="none"/><line y2="-27955" y1="-28435" x2="-31610" x1="-30786" fill="none"/><line y2="-24523" y1="-25806" x2="-28366" x1="-28366" fill="none"/><line y2="-25806" y1="-25962" x2="-28366" x1="-27271" fill="none"/><line y2="-24523" y1="-25806" x2="-30564" x1="-30564" fill="none"/><line y2="-25806" y1="-26447" x2="-30564" x1="-31662" fill="none"/><line y2="-25740" y1="-26219" x2="-30786" x1="-31610" fill="none"/><line y2="-29651" y1="-30292" x2="-28366" x1="-29463" fill="none"/><line y2="-29585" y1="-30067" x2="-28588" x1="-29414" fill="none"/><line y2="-27308" y1="-27967" x2="-26572" x1="-26956" fill="none"/><line y2="-30292" y1="-29651" x2="-29463" x1="-30564" fill="none"/><line y2="-29651" y1="-30292" x2="-30564" x1="-31662" fill="none"/><line y2="-29585" y1="-30067" x2="-30786" x1="-31610" fill="none"/><line y2="-28368" y1="-27730" x2="-32762" x1="-31662" fill="none"/><line y2="-23882" y1="-24523" x2="-29463" x1="-28366" fill="none"/><line y2="-24110" y1="-24590" x2="-29414" x1="-28588" fill="none"/><line y2="-26210" y1="-26869" x2="-26956" x1="-26572" fill="none"/><line y2="-24523" y1="-23882" x2="-30564" x1="-29463" fill="none"/><line y2="-23882" y1="-24523" x2="-31662" x1="-30564" fill="none"/><line y2="-24110" y1="-24590" x2="-31610" x1="-30786" fill="none"/><line y2="-26447" y1="-25806" x2="-31662" x1="-32762" fill="none"/><line y2="-30292" y1="-29651" x2="-31662" x1="-32762" fill="none"/><line y2="-29651" y1="-28368" x2="-32762" x1="-32762" fill="none"/><line y2="-29492" y1="-28530" x2="-32592" x1="-32592" fill="none"/><line y2="-24523" y1="-23882" x2="-32762" x1="-31662" fill="none"/><line y2="-25806" y1="-24523" x2="-32762" x1="-32762" fill="none"/><line y2="-25647" y1="-24685" x2="-32592" x1="-32592" fill="none"/><line y2="-30489" y1="-29651" x2="-26918" x1="-28366" fill="none"/><line y2="-23700" y1="-24523" x2="-26912" x1="-28366" fill="none"/><line y2="-27594" y1="-27242" x2="-25818" x1="-26254" fill="none"/><line y2="-26618" y1="-26976" x2="-25794" x1="-26208" fill="none"/><line y2="-26511" y1="-26872" x2="-25887" x1="-26300" fill="none"/><line y2="-31055" y1="-30489" x2="-27903" x1="-26918" fill="none"/><line y2="-30489" y1="-31055" x2="-26918" x1="-25936" fill="none"/><line y2="-30706" y1="-31133" x2="-26881" x1="-26141" fill="none"/><line y2="-32193" y1="-31055" x2="-27903" x1="-27903" fill="none"/><line y2="-32052" y1="-31200" x2="-27733" x1="-27733" fill="none"/><line y2="-30489" y1="-31055" x2="-28888" x1="-27903" fill="none"/><line y2="-32193" y1="-31055" x2="-25936" x1="-25936" fill="none"/><line y2="-31055" y1="-30489" x2="-25936" x1="-24948" fill="none"/><line y2="-32762" y1="-32193" x2="-26918" x1="-27903" fill="none"/><line y2="-32193" y1="-32762" x2="-27903" x1="-28888" fill="none"/><line y2="-31055" y1="-30489" x2="-29876" x1="-28888" fill="none"/><line y2="-31133" y1="-30706" x2="-29666" x1="-28926" fill="none"/><line y2="-32193" y1="-32762" x2="-25936" x1="-26918" fill="none"/><line y2="-32118" y1="-32546" x2="-26141" x1="-26881" fill="none"/><line y2="-32762" y1="-32193" x2="-24948" x1="-25936" fill="none"/><line y2="-30489" y1="-31055" x2="-24948" x1="-23963" fill="none"/><line y2="-30706" y1="-31133" x2="-24910" x1="-24171" fill="none"/><line y2="-32762" y1="-32193" x2="-28888" x1="-29876" fill="none"/><line y2="-32543" y1="-32118" x2="-28926" x1="-29666" fill="none"/><line y2="-32193" y1="-31055" x2="-29876" x1="-29876" fill="none"/><line y2="-32193" y1="-32762" x2="-23963" x1="-24948" fill="none"/><line y2="-32118" y1="-32546" x2="-24171" x1="-24910" fill="none"/><line y2="-31055" y1="-32193" x2="-23963" x1="-23963" fill="none"/><line y2="-23131" y1="-23700" x2="-25930" x1="-26912" fill="none"/><line y2="-23700" y1="-23131" x2="-26912" x1="-27898" fill="none"/><line y2="-23480" y1="-23053" x2="-26950" x1="-27690" fill="none"/><line y2="-21993" y1="-23131" x2="-25930" x1="-25930" fill="none"/><line y2="-22134" y1="-22986" x2="-26101" x1="-26101" fill="none"/><line y2="-23700" y1="-23131" x2="-24942" x1="-25930" fill="none"/><line y2="-21993" y1="-23131" x2="-27898" x1="-27898" fill="none"/><line y2="-23131" y1="-23700" x2="-27898" x1="-28883" fill="none"/><line y2="-21424" y1="-21993" x2="-26912" x1="-25930" fill="none"/><line y2="-21993" y1="-21424" x2="-25930" x1="-24942" fill="none"/><line y2="-23131" y1="-23700" x2="-23957" x1="-24942" fill="none"/><line y2="-23053" y1="-23480" x2="-24165" x1="-24905" fill="none"/><line y2="-21993" y1="-21424" x2="-27898" x1="-26912" fill="none"/><line y2="-22071" y1="-21643" x2="-27690" x1="-26950" fill="none"/><line y2="-21424" y1="-21993" x2="-28883" x1="-27898" fill="none"/><line y2="-23700" y1="-23131" x2="-28883" x1="-29871" fill="none"/><line y2="-23480" y1="-23053" x2="-28920" x1="-29660" fill="none"/><line y2="-21424" y1="-21993" x2="-24942" x1="-23957" fill="none"/><line y2="-21640" y1="-22068" x2="-24905" x1="-24165" fill="none"/><line y2="-21993" y1="-23131" x2="-23957" x1="-23957" fill="none"/><line y2="-21993" y1="-21424" x2="-29871" x1="-28883" fill="none"/><line y2="-22071" y1="-21643" x2="-29660" x1="-28920" fill="none"/><line y2="-23131" y1="-21993" x2="-29871" x1="-29871" fill="none"/><text y="-26222" xml:space="preserve" x="-25803" stroke="none" font-size="433.3333" font-family="sans-serif">O</text><text y="-27568" xml:space="preserve" x="-25780" stroke="none" font-size="433.3333" font-family="sans-serif">OH</text><text y="-28007" xml:space="preserve" x="-27236" stroke="none" font-size="433.3333" font-family="sans-serif">O</text><text y="-25812" xml:space="preserve" x="-27236" stroke="none" font-size="433.3333" font-family="sans-serif">O</text><text y="-26910" xml:space="preserve" x="-26595" stroke="none" font-size="433.3333" font-family="sans-serif">P</text></g></g></svg>