<svg width="157.47" viewBox="0 0 5249 3530" text-rendering="auto" stroke-width="1" stroke-opacity="1" stroke-miterlimit="10" stroke-linejoin="miter" stroke-linecap="square" stroke-dashoffset="0" stroke-dasharray="none" stroke="black" shape-rendering="auto" image-rendering="auto" height="105.9" font-weight="normal" font-style="normal" font-size="12" font-family="'Dialog'" fill-opacity="1" fill="black" color-rendering="auto" color-interpolation="auto" xmlns="http://www.w3.org/2000/svg"><g><g stroke="white" fill="white"><rect y="0" x="0" width="5249" stroke="none" height="3530"/></g><g transform="translate(32866,32866)" text-rendering="geometricPrecision" stroke-width="44" stroke-linejoin="round" stroke-linecap="round"><line y2="-31145" y1="-30009" x2="-30792" x1="-30792" fill="none"/><line y2="-30009" y1="-30009" x2="-30792" x1="-29010" fill="none"/><line y2="-29440" y1="-30009" x2="-31777" x1="-30792" fill="none"/><line y2="-29657" y1="-30084" x2="-31740" x1="-31000" fill="none"/><line y2="-31607" y1="-31145" x2="-29995" x1="-30792" fill="none"/><line y2="-31145" y1="-31714" x2="-30792" x1="-31777" fill="none"/><line y2="-31070" y1="-31497" x2="-31000" x1="-31740" fill="none"/><line y2="-30229" y1="-31145" x2="-28822" x1="-28822" fill="none"/><line y2="-30009" y1="-29440" x2="-32762" x1="-31777" fill="none"/><line y2="-31145" y1="-31607" x2="-28822" x1="-29616" fill="none"/><line y2="-31055" y1="-31402" x2="-29007" x1="-29602" fill="none"/><line y2="-31714" y1="-31145" x2="-31777" x1="-32762" fill="none"/><line y2="-31145" y1="-30009" x2="-32762" x1="-32762" fill="none"/><line y2="-31003" y1="-30151" x2="-32595" x1="-32595" fill="none"/><line y2="-32762" y1="-31714" x2="-31777" x1="-31777" fill="none"/><line y2="-31474" y1="-31145" x2="-28256" x1="-28822" fill="none"/><text y="-31491" xml:space="preserve" x="-28146" stroke="none" font-size="433.3333" font-family="sans-serif">Cl</text><text y="-29830" xml:space="preserve" x="-28975" stroke="none" font-size="433.3333" font-family="sans-serif">S</text><text y="-31535" xml:space="preserve" x="-29957" stroke="none" font-size="433.3333" font-family="sans-serif">N</text></g></g></svg>