<svg width="316.11" viewBox="0 0 10537 3663" text-rendering="auto" stroke-width="1" stroke-opacity="1" stroke-miterlimit="10" stroke-linejoin="miter" stroke-linecap="square" stroke-dashoffset="0" stroke-dasharray="none" stroke="black" shape-rendering="auto" image-rendering="auto" height="109.89" font-weight="normal" font-style="normal" font-size="12" font-family="'Dialog'" fill-opacity="1" fill="black" color-rendering="auto" color-interpolation="auto" xmlns="http://www.w3.org/2000/svg"><g><g stroke="white" fill="white"><rect y="0" x="0" width="10537" stroke="none" height="3663"/></g><g transform="translate(32866,32866)" text-rendering="geometricPrecision" stroke-width="44" stroke-linejoin="round" stroke-linecap="round"><line y2="-31714" y1="-31298" x2="-26413" x1="-27132" fill="none"/><line y2="-31191" y1="-31714" x2="-25506" x1="-26413" fill="none"/><line y2="-31714" y1="-31191" x2="-24598" x1="-25506" fill="none"/><line y2="-31298" y1="-31714" x2="-23879" x1="-24598" fill="none"/><line y2="-31714" y1="-31298" x2="-28227" x1="-27508" fill="none"/><line y2="-31191" y1="-31714" x2="-29134" x1="-28227" fill="none"/><line y2="-31607" y1="-31191" x2="-29853" x1="-29134" fill="none"/><line y2="-31191" y1="-31607" x2="-30948" x1="-30229" fill="none"/><line y2="-29862" y1="-30971" x2="-27320" x1="-27320" fill="none"/><line y2="-30836" y1="-31081" x2="-27938" x1="-27508" fill="none"/><line y2="-31607" y1="-31298" x2="-22972" x1="-23504" fill="none"/><line y2="-30538" y1="-31006" x2="-23232" x1="-23504" fill="none"/><line y2="-30469" y1="-30937" x2="-23356" x1="-23625" fill="none"/><line y2="-30469" y1="-30937" x2="-24026" x1="-23755" fill="none"/><line y2="-30538" y1="-31006" x2="-24148" x1="-23879" fill="none"/><line y2="-31714" y1="-31191" x2="-31855" x1="-30948" fill="none"/><line y2="-30362" y1="-31191" x2="-30879" x1="-30879" fill="none"/><line y2="-30362" y1="-31191" x2="-31018" x1="-31018" fill="none"/><line y2="-31191" y1="-31714" x2="-32762" x1="-31855" fill="none"/><line y2="-32762" y1="-31714" x2="-31855" x1="-31855" fill="none"/><line y2="-32762" y1="-31714" x2="-31717" x1="-31717" fill="none"/><text y="-31012" xml:space="preserve" x="-27473" stroke="none" font-size="433.3333" font-family="sans-serif">N</text><text y="-29463" xml:space="preserve" x="-27473" stroke="none" font-size="433.3333" font-family="sans-serif">CH</text><text y="-29374" xml:space="preserve" x="-26895" stroke="none" font-size="313.3333" font-family="sans-serif">3</text><text y="-30437" xml:space="preserve" x="-28470" stroke="none" font-size="433.3333" font-family="sans-serif">CH</text><text y="-30347" xml:space="preserve" x="-27892" stroke="none" font-size="313.3333" font-family="sans-serif">3</text><text y="-31535" xml:space="preserve" x="-30194" stroke="none" font-size="433.3333" font-family="sans-serif">O</text><text y="-31012" xml:space="preserve" x="-23842" stroke="none" font-size="433.3333" font-family="sans-serif">S</text><text y="-29963" xml:space="preserve" x="-31101" stroke="none" font-size="433.3333" font-family="sans-serif">O</text><text y="-30105" xml:space="preserve" x="-23319" stroke="none" font-size="433.3333" font-family="sans-serif">O</text><text y="-30105" xml:space="preserve" x="-24367" stroke="none" font-size="433.3333" font-family="sans-serif">O</text><text y="-31535" xml:space="preserve" x="-22934" stroke="none" font-size="433.3333" font-family="sans-serif">O</text><text y="-31396" xml:space="preserve" x="-27473" stroke="none" font-size="313.3333" font-family="sans-serif">+</text><text y="-31590" xml:space="preserve" x="-22614" stroke="none" font-size="313.3333" font-family="sans-serif">-</text></g></g></svg>