<svg width="335.31" viewBox="0 0 11177 6241" text-rendering="auto" stroke-width="1" stroke-opacity="1" stroke-miterlimit="10" stroke-linejoin="miter" stroke-linecap="square" stroke-dashoffset="0" stroke-dasharray="none" stroke="black" shape-rendering="auto" image-rendering="auto" height="187.23" font-weight="normal" font-style="normal" font-size="12" font-family="'Dialog'" fill-opacity="1" fill="black" color-rendering="auto" color-interpolation="auto" xmlns="http://www.w3.org/2000/svg"><g><g stroke="white" fill="white"><rect y="0" x="0" width="11177" stroke="none" height="6241"/></g><g transform="translate(32866,32758)" text-rendering="geometricPrecision" stroke-width="44" stroke-linejoin="round" stroke-linecap="round"><line y2="-29394" y1="-30050" x2="-28296" x1="-27164" fill="none"/><line y2="-31373" y1="-30050" x2="-27164" x1="-27164" fill="none"/><line y2="-31087" y1="-30050" x2="-26364" x1="-27164" fill="none"/><line y2="-29900" y1="-30050" x2="-26057" x1="-27164" fill="none"/><line y2="-30050" y1="-29394" x2="-29432" x1="-28296" fill="none"/><line y2="-29394" y1="-29394" x2="-28296" x1="-24515" fill="none"/><line y2="-31373" y1="-31373" x2="-24515" x1="-27164" fill="none"/><line y2="-31373" y1="-31928" x2="-27164" x1="-28108" fill="none"/><line y2="-30093" y1="-31087" x2="-25956" x1="-26364" fill="none"/><line y2="-31376" y1="-30050" x2="-29432" x1="-29432" fill="none"/><line y2="-29388" y1="-30050" x2="-30570" x1="-29432" fill="none"/><line y2="-29394" y1="-31373" x2="-24515" x1="-24515" fill="none"/><line y2="-31928" y1="-31376" x2="-28487" x1="-29432" fill="none"/><line y2="-31376" y1="-32037" x2="-29432" x1="-30570" fill="none"/><line y2="-30050" y1="-29388" x2="-31702" x1="-30570" fill="none"/><line y2="-32037" y1="-31376" x2="-30570" x1="-31702" fill="none"/><line y2="-31806" y1="-31312" x2="-30625" x1="-31477" fill="none"/><line y2="-31376" y1="-30050" x2="-31702" x1="-31702" fill="none"/><line y2="-28576" y1="-29001" x2="-30142" x1="-29432" fill="none"/><line y2="-27415" y1="-28244" x2="-30330" x1="-30330" fill="none"/><line y2="-28383" y1="-29394" x2="-28568" x1="-28296" fill="none"/><line y2="-31899" y1="-31376" x2="-32609" x1="-31702" fill="none"/><line y2="-29394" y1="-28978" x2="-22700" x1="-23420" fill="none"/><line y2="-26892" y1="-27415" x2="-31237" x1="-30330" fill="none"/><line y2="-27060" y1="-27476" x2="-29576" x1="-30295" fill="none"/><line y2="-26938" y1="-27354" x2="-29645" x1="-30365" fill="none"/><line y2="-28871" y1="-29394" x2="-21793" x1="-22700" fill="none"/><line y2="-30223" y1="-29394" x2="-22770" x1="-22770" fill="none"/><line y2="-30223" y1="-29394" x2="-22628" x1="-22628" fill="none"/><polygon stroke-width="1" stroke="none" points=" -24515 -29394 -23761 -29039 -23827 -28917"/><polygon stroke-width="1" points=" -24515 -29394 -23761 -29039 -23827 -28917" fill="none"/><polygon stroke-width="1" stroke="none" points=" -27164 -31373 -27233 -32199 -27094 -32199"/><polygon stroke-width="1" points=" -27164 -31373 -27233 -32199 -27094 -32199" fill="none"/><line y2="-29001" y1="-29001" x2="-29501" x1="-29362" fill="none"/><line y2="-29218" y1="-29218" x2="-29487" x1="-29376" fill="none"/><line y2="-29434" y1="-29434" x2="-29472" x1="-29391" fill="none"/><line y2="-29651" y1="-29651" x2="-29458" x1="-29405" fill="none"/><line y2="-29868" y1="-29868" x2="-29444" x1="-29420" fill="none"/><line y2="-31876" y1="-31974" x2="-23911" x1="-24009" fill="none"/><line y2="-31737" y1="-31808" x2="-24078" x1="-24149" fill="none"/><line y2="-31598" y1="-31641" x2="-24245" x1="-24289" fill="none"/><line y2="-31458" y1="-31475" x2="-24413" x1="-24429" fill="none"/><line y2="-29804" y1="-29686" x2="-32266" x1="-32196" fill="none"/><line y2="-29891" y1="-29815" x2="-32066" x1="-32021" fill="none"/><line y2="-29979" y1="-29944" x2="-31866" x1="-31845" fill="none"/><line y2="-32202" y1="-32202" x2="-29362" x1="-29501" fill="none"/><line y2="-31985" y1="-31985" x2="-29380" x1="-29483" fill="none"/><line y2="-31769" y1="-31769" x2="-29399" x1="-29465" fill="none"/><line y2="-31552" y1="-31552" x2="-29417" x1="-29447" fill="none"/><text y="-28285" xml:space="preserve" x="-30483" stroke="none" font-size="433.3333" font-family="sans-serif">O</text><text y="-26713" xml:space="preserve" x="-29573" stroke="none" font-size="433.3333" font-family="sans-serif">O</text><text y="-28692" xml:space="preserve" x="-23758" stroke="none" font-size="433.3333" font-family="sans-serif">O</text><text y="-30264" xml:space="preserve" x="-22851" stroke="none" font-size="433.3333" font-family="sans-serif">O</text><text y="-31933" xml:space="preserve" x="-23925" stroke="none" font-size="433.3333" font-family="sans-serif">OH</text><text y="-29348" xml:space="preserve" x="-32762" stroke="none" font-size="433.3333" font-family="sans-serif">OH</text><text y="-29694" xml:space="preserve" x="-26020" stroke="none" font-size="433.3333" font-family="sans-serif">O</text><text y="-31858" xml:space="preserve" x="-28449" stroke="none" font-size="433.3333" font-family="sans-serif">O</text><text y="-32240" xml:space="preserve" x="-27314" stroke="none" font-size="433.3333" font-family="sans-serif">H</text><text y="-32242" xml:space="preserve" x="-29585" stroke="none" font-size="433.3333" font-family="sans-serif">H</text><text y="-29593" xml:space="preserve" x="-27242" stroke="none" font-style="italic" font-size="313.3333" font-family="sans-serif">S</text><text y="-29518" xml:space="preserve" x="-28449" stroke="none" font-style="italic" font-size="313.3333" font-family="sans-serif">S</text><text y="-31049" xml:space="preserve" x="-27565" stroke="none" font-style="italic" font-size="313.3333" font-family="sans-serif">R</text><text y="-30015" xml:space="preserve" x="-29833" stroke="none" font-style="italic" font-size="313.3333" font-family="sans-serif">R</text><text y="-29489" xml:space="preserve" x="-24910" stroke="none" font-style="italic" font-size="313.3333" font-family="sans-serif">S</text><text y="-30916" xml:space="preserve" x="-24910" stroke="none" font-style="italic" font-size="313.3333" font-family="sans-serif">R</text><text y="-31052" xml:space="preserve" x="-29336" stroke="none" font-style="italic" font-size="313.3333" font-family="sans-serif">R</text><text y="-30015" xml:space="preserve" x="-31607" stroke="none" font-style="italic" font-size="313.3333" font-family="sans-serif">S</text></g></g></svg>