<svg width="278.61" viewBox="0 0 9287 6799" text-rendering="auto" stroke-width="1" stroke-opacity="1" stroke-miterlimit="10" stroke-linejoin="miter" stroke-linecap="square" stroke-dashoffset="0" stroke-dasharray="none" stroke="black" shape-rendering="auto" image-rendering="auto" height="203.97" font-weight="normal" font-style="normal" font-size="12" font-family="'Dialog'" fill-opacity="1" fill="black" color-rendering="auto" color-interpolation="auto" xmlns="http://www.w3.org/2000/svg"><g><g stroke="white" fill="white"><rect y="0" x="0" width="9287" stroke="none" height="6799"/></g><g transform="translate(32866,32758)" text-rendering="geometricPrecision" stroke-width="44" stroke-linejoin="round" stroke-linecap="round"><line y2="-30717" y1="-30148" x2="-29212" x1="-28227" fill="none"/><line y2="-30148" y1="-30717" x2="-28227" x1="-27245" fill="none"/><line y2="-31855" y1="-30717" x2="-29212" x1="-29212" fill="none"/><line y2="-31711" y1="-30859" x2="-29042" x1="-29042" fill="none"/><line y2="-30717" y1="-30717" x2="-31182" x1="-29212" fill="none"/><line y2="-31855" y1="-30717" x2="-27245" x1="-27245" fill="none"/><line y2="-31711" y1="-30859" x2="-27074" x1="-27074" fill="none"/><line y2="-30717" y1="-30717" x2="-27245" x1="-25274" fill="none"/><line y2="-31855" y1="-31855" x2="-27245" x1="-29212" fill="none"/><line y2="-31855" y1="-32315" x2="-29212" x1="-30009" fill="none"/><line y2="-31855" y1="-30717" x2="-31182" x1="-31182" fill="none"/><line y2="-31711" y1="-30859" x2="-31012" x1="-31012" fill="none"/><line y2="-32315" y1="-31855" x2="-26447" x1="-27245" fill="none"/><line y2="-30717" y1="-31855" x2="-25274" x1="-25274" fill="none"/><line y2="-30859" y1="-31711" x2="-25445" x1="-25445" fill="none"/><line y2="-32315" y1="-31855" x2="-30385" x1="-31182" fill="none"/><line y2="-31855" y1="-32315" x2="-25274" x1="-26069" fill="none"/><line y2="-29642" y1="-30148" x2="-27311" x1="-28227" fill="none"/><line y2="-26586" y1="-29642" x2="-27311" x1="-27311" fill="none"/><line y2="-29099" y1="-30148" x2="-28227" x1="-28227" fill="none"/><line y2="-28576" y1="-29099" x2="-29134" x1="-28227" fill="none"/><line y2="-32182" y1="-31855" x2="-31748" x1="-31182" fill="none"/><line y2="-32182" y1="-31855" x2="-24705" x1="-25274" fill="none"/><line y2="-26063" y1="-26586" x2="-26404" x1="-27311" fill="none"/><line y2="-26586" y1="-26063" x2="-25497" x1="-26404" fill="none"/><line y2="-26063" y1="-26586" x2="-24590" x1="-25497" fill="none"/><line y2="-26586" y1="-26063" x2="-23683" x1="-24590" fill="none"/><line y2="-26063" y1="-26586" x2="-28221" x1="-27311" fill="none"/><line y2="-26586" y1="-26063" x2="-29128" x1="-28221" fill="none"/><line y2="-29099" y1="-28576" x2="-30041" x1="-29134" fill="none"/><line y2="-28576" y1="-29099" x2="-30948" x1="-30041" fill="none"/><line y2="-29099" y1="-28576" x2="-31855" x1="-30948" fill="none"/><line y2="-28576" y1="-29099" x2="-32762" x1="-31855" fill="none"/><line y2="-27528" y1="-28576" x2="-29134" x1="-29134" fill="none"/><line y2="-27005" y1="-27528" x2="-30041" x1="-29134" fill="none"/><text y="-32199" xml:space="preserve" x="-32320" stroke="none" font-size="433.3333" font-family="sans-serif">Br</text><text y="-32199" xml:space="preserve" x="-24598" stroke="none" font-size="433.3333" font-family="sans-serif">Br</text><text y="-32242" xml:space="preserve" x="-30350" stroke="none" font-size="433.3333" font-family="sans-serif">S</text><text y="-32242" xml:space="preserve" x="-26410" stroke="none" font-size="433.3333" font-family="sans-serif">S</text></g></g></svg>