<svg width="235.17" viewBox="0 0 7839 8169" text-rendering="auto" stroke-width="1" stroke-opacity="1" stroke-miterlimit="10" stroke-linejoin="miter" stroke-linecap="square" stroke-dashoffset="0" stroke-dasharray="none" stroke="black" shape-rendering="auto" image-rendering="auto" height="245.07" font-weight="normal" font-style="normal" font-size="12" font-family="'Dialog'" fill-opacity="1" fill="black" color-rendering="auto" color-interpolation="auto" xmlns="http://www.w3.org/2000/svg"><g><g stroke="white" fill="white"><rect y="0" x="0" width="7839" stroke="none" height="8169"/></g><g transform="translate(32866,32866)" text-rendering="geometricPrecision" stroke-width="44" stroke-linejoin="round" stroke-linecap="round"><line y2="-29310" y1="-28689" x2="-28556" x1="-29010" fill="none"/><line y2="-28689" y1="-29310" x2="-29328" x1="-29778" fill="none"/><line y2="-27684" y1="-28250" x2="-29738" x1="-29328" fill="none"/><line y2="-28250" y1="-27629" x2="-29010" x1="-28556" fill="none"/><line y2="-29122" y1="-29469" x2="-27149" x1="-28210" fill="none"/><line y2="-29469" y1="-29122" x2="-30125" x1="-31185" fill="none"/><line y2="-27814" y1="-27470" x2="-31185" x1="-30125" fill="none"/><line y2="-27597" y1="-27814" x2="-27817" x1="-27149" fill="none"/><line y2="-27814" y1="-29122" x2="-27149" x1="-27149" fill="none"/><line y2="-29122" y1="-27814" x2="-31185" x1="-31185" fill="none"/><line y2="-29972" y1="-29616" x2="-27447" x1="-28210" fill="none"/><line y2="-29446" y1="-29972" x2="-26540" x1="-27447" fill="none"/><line y2="-29862" y1="-29446" x2="-25820" x1="-26540" fill="none"/><line y2="-30576" y1="-29749" x2="-28397" x1="-28397" fill="none"/><line y2="-31101" y1="-30576" x2="-27490" x1="-28397" fill="none"/><line y2="-30674" y1="-31101" x2="-26780" x1="-27490" fill="none"/><line y2="-30131" y1="-29660" x2="-30795" x1="-30125" fill="none"/><line y2="-29605" y1="-30131" x2="-31702" x1="-30795" fill="none"/><line y2="-29911" y1="-29605" x2="-32231" x1="-31702" fill="none"/><line y2="-30576" y1="-29749" x2="-29937" x1="-29937" fill="none"/><line y2="-31413" y1="-30576" x2="-31387" x1="-29937" fill="none"/><line y2="-31110" y1="-31413" x2="-31916" x1="-31387" fill="none"/><line y2="-26592" y1="-28250" x2="-29169" x1="-29169" fill="none"/><line y2="-25849" y1="-26265" x2="-30076" x1="-29356" fill="none"/><line y2="-30344" y1="-28689" x2="-29169" x1="-29169" fill="none"/><line y2="-31714" y1="-30671" x2="-27175" x1="-28981" fill="none"/><line y2="-26372" y1="-25849" x2="-30983" x1="-30076" fill="none"/><line y2="-24801" y1="-25849" x2="-30076" x1="-30076" fill="none"/><line y2="-31174" y1="-31714" x2="-26280" x1="-27175" fill="none"/><line y2="-32762" y1="-31714" x2="-27175" x1="-27175" fill="none"/><text y="-26193" xml:space="preserve" x="-29322" stroke="none" font-size="433.3333" font-family="sans-serif">O</text><text y="-30385" xml:space="preserve" x="-29322" stroke="none" font-size="433.3333" font-family="sans-serif">O</text><text y="-29793" xml:space="preserve" x="-25786" stroke="none" font-size="433.3333" font-family="sans-serif">OH</text><text y="-30382" xml:space="preserve" x="-26745" stroke="none" font-size="433.3333" font-family="sans-serif">OH</text><text y="-29952" xml:space="preserve" x="-32762" stroke="none" font-size="433.3333" font-family="sans-serif">OH</text><text y="-30711" xml:space="preserve" x="-32448" stroke="none" font-size="433.3333" font-family="sans-serif">OH</text><text y="-28290" xml:space="preserve" x="-29400" stroke="none" font-size="433.3333" font-family="sans-serif">Ti</text><text y="-29351" xml:space="preserve" x="-28548" stroke="none" font-size="433.3333" font-family="sans-serif">N</text><text y="-29351" xml:space="preserve" x="-30090" stroke="none" font-size="433.3333" font-family="sans-serif">N</text><text y="-27230" xml:space="preserve" x="-30090" stroke="none" font-size="433.3333" font-family="sans-serif">O</text><text y="-27230" xml:space="preserve" x="-28548" stroke="none" font-size="433.3333" font-family="sans-serif">O</text><text y="-26248" xml:space="preserve" x="-28998" stroke="none" font-size="313.3333" font-family="sans-serif">-</text><text y="-30440" xml:space="preserve" x="-29642" stroke="none" font-size="313.3333" font-family="sans-serif">-</text><text y="-28342" xml:space="preserve" x="-28845" stroke="none" font-size="313.3333" font-family="sans-serif">4+</text><text y="-27285" xml:space="preserve" x="-29767" stroke="none" font-size="313.3333" font-family="sans-serif">-</text><text y="-27496" xml:space="preserve" x="-28158" stroke="none" font-size="313.3333" font-family="sans-serif">-</text></g></g></svg>