<svg width="151.98" viewBox="0 0 5066 4808" text-rendering="auto" stroke-width="1" stroke-opacity="1" stroke-miterlimit="10" stroke-linejoin="miter" stroke-linecap="square" stroke-dashoffset="0" stroke-dasharray="none" stroke="black" shape-rendering="auto" image-rendering="auto" height="144.24" font-weight="normal" font-style="normal" font-size="12" font-family="'Dialog'" fill-opacity="1" fill="black" color-rendering="auto" color-interpolation="auto" xmlns="http://www.w3.org/2000/svg"><g><g stroke="white" fill="white"><rect y="0" x="0" width="5066" stroke="none" height="4808"/></g><g transform="translate(32866,32758)" text-rendering="geometricPrecision" stroke-width="44" stroke-linejoin="round" stroke-linecap="round"><line y2="-29758" y1="-30327" x2="-29885" x1="-30867" fill="none"/><line y2="-29683" y1="-30110" x2="-30093" x1="-30830" fill="none"/><line y2="-28620" y1="-29758" x2="-29885" x1="-29885" fill="none"/><line y2="-30327" y1="-29758" x2="-30867" x1="-31855" fill="none"/><line y2="-28054" y1="-28620" x2="-30867" x1="-29885" fill="none"/><line y2="-28270" y1="-28698" x2="-30830" x1="-30093" fill="none"/><line y2="-29758" y1="-28620" x2="-31855" x1="-31855" fill="none"/><line y2="-29616" y1="-28764" x2="-31685" x1="-31685" fill="none"/><line y2="-28620" y1="-28054" x2="-31855" x1="-30867" fill="none"/><line y2="-30281" y1="-29758" x2="-28978" x1="-29885" fill="none"/><line y2="-31376" y1="-30327" x2="-30867" x1="-30867" fill="none"/><line y2="-30281" y1="-29758" x2="-32762" x1="-31855" fill="none"/><line y2="-30697" y1="-30281" x2="-28259" x1="-28978" fill="none"/><line y2="-30775" y1="-30359" x2="-28305" x1="-29024" fill="none"/><line y2="-30619" y1="-30203" x2="-28215" x1="-28935" fill="none"/><line y2="-32202" y1="-31376" x2="-30867" x1="-30867" fill="none"/><line y2="-32202" y1="-31376" x2="-30957" x1="-30957" fill="none"/><line y2="-32202" y1="-31376" x2="-30778" x1="-30778" fill="none"/><text y="-30628" xml:space="preserve" x="-28224" stroke="none" font-size="433.3333" font-family="sans-serif">N</text><text y="-32242" xml:space="preserve" x="-31020" stroke="none" font-size="433.3333" font-family="sans-serif">N</text></g></g></svg>