<svg width="237.63" viewBox="0 0 7921 4462" text-rendering="auto" stroke-width="1" stroke-opacity="1" stroke-miterlimit="10" stroke-linejoin="miter" stroke-linecap="square" stroke-dashoffset="0" stroke-dasharray="none" stroke="black" shape-rendering="auto" image-rendering="auto" height="133.86" font-weight="normal" font-style="normal" font-size="12" font-family="'Dialog'" fill-opacity="1" fill="black" color-rendering="auto" color-interpolation="auto" xmlns="http://www.w3.org/2000/svg"><g><g stroke="white" fill="white"><rect y="0" x="0" width="7921" stroke="none" height="4462"/></g><g transform="translate(32866,32758)" text-rendering="geometricPrecision" stroke-width="44" stroke-linejoin="round" stroke-linecap="round"><line y2="-30798" y1="-30200" x2="-29677" x1="-30706" fill="none"/><line y2="-28998" y1="-30200" x2="-30706" x1="-30706" fill="none"/><line y2="-29148" y1="-30050" x2="-30873" x1="-30873" fill="none"/><line y2="-30200" y1="-30798" x2="-30706" x1="-31731" fill="none"/><line y2="-30310" y1="-30798" x2="-28836" x1="-29677" fill="none"/><line y2="-30223" y1="-30590" x2="-29027" x1="-29657" fill="none"/><line y2="-28998" y1="-28400" x2="-30706" x1="-29677" fill="none"/><line y2="-28400" y1="-28998" x2="-31731" x1="-30706" fill="none"/><line y2="-30798" y1="-30200" x2="-31731" x1="-32762" fill="none"/><line y2="-30576" y1="-30128" x2="-31774" x1="-32546" fill="none"/><line y2="-29218" y1="-29980" x2="-28649" x1="-28649" fill="none"/><line y2="-28400" y1="-28888" x2="-29677" x1="-28836" fill="none"/><line y2="-28605" y1="-28975" x2="-29657" x1="-29027" fill="none"/><line y2="-28998" y1="-28400" x2="-32762" x1="-31731" fill="none"/><line y2="-29070" y1="-28620" x2="-32546" x1="-31774" fill="none"/><line y2="-30200" y1="-28998" x2="-32762" x1="-32762" fill="none"/><line y2="-31627" y1="-30798" x2="-29677" x1="-29677" fill="none"/><line y2="-32315" y1="-32066" x2="-28865" x1="-29296" fill="none"/><line y2="-31959" y1="-32375" x2="-27736" x1="-28455" fill="none"/><line y2="-31838" y1="-32254" x2="-27805" x1="-28524" fill="none"/><line y2="-32422" y1="-31899" x2="-26863" x1="-27770" fill="none"/><line y2="-31899" y1="-32422" x2="-25956" x1="-26863" fill="none"/><line y2="-31844" y1="-32237" x2="-26141" x1="-26820" fill="none"/><line y2="-30850" y1="-31899" x2="-27770" x1="-27770" fill="none"/><line y2="-32422" y1="-31899" x2="-25049" x1="-25956" fill="none"/><line y2="-30850" y1="-31899" x2="-25956" x1="-25956" fill="none"/><text y="-31668" xml:space="preserve" x="-29827" stroke="none" font-size="433.3333" font-family="sans-serif">NH</text><text y="-32242" xml:space="preserve" x="-28831" stroke="none" font-size="433.3333" font-family="sans-serif">N</text><text y="-30021" xml:space="preserve" x="-28799" stroke="none" font-size="433.3333" font-family="sans-serif">N</text><text y="-28819" xml:space="preserve" x="-28799" stroke="none" font-size="433.3333" font-family="sans-serif">N</text></g></g></svg>