<svg width="281.01" viewBox="0 0 9367 4314" text-rendering="auto" stroke-width="1" stroke-opacity="1" stroke-miterlimit="10" stroke-linejoin="miter" stroke-linecap="square" stroke-dashoffset="0" stroke-dasharray="none" stroke="black" shape-rendering="auto" image-rendering="auto" height="129.42" font-weight="normal" font-style="normal" font-size="12" font-family="'Dialog'" fill-opacity="1" fill="black" color-rendering="auto" color-interpolation="auto" xmlns="http://www.w3.org/2000/svg"><g><g stroke="white" fill="white"><rect y="0" x="0" width="9367" stroke="none" height="4314"/></g><g transform="translate(32866,32758)" text-rendering="geometricPrecision" stroke-width="44" stroke-linejoin="round" stroke-linecap="round"><line y2="-30740" y1="-31292" x2="-28955" x1="-29666" fill="none"/><line y2="-29677" y1="-30740" x2="-29322" x1="-28955" fill="none"/><line y2="-31298" y1="-30740" x2="-30041" x1="-30795" fill="none"/><line y2="-29677" y1="-29677" x2="-30469" x1="-29322" fill="none"/><line y2="-30740" y1="-29677" x2="-30795" x1="-30469" fill="none"/><line y2="-30960" y1="-31266" x2="-32231" x1="-31702" fill="none"/><line y2="-31119" y1="-30654" x2="-27857" x1="-27253" fill="none"/><line y2="-32422" y1="-31483" x2="-27646" x1="-27970" fill="none"/><line y2="-30648" y1="-31266" x2="-26878" x1="-26040" fill="none"/><line y2="-30862" y1="-31324" x2="-26875" x1="-26248" fill="none"/><line y2="-32422" y1="-32422" x2="-26586" x1="-27646" fill="none"/><line y2="-32251" y1="-32251" x2="-26719" x1="-27513" fill="none"/><line y2="-31266" y1="-32202" x2="-26040" x1="-26332" fill="none"/><line y2="-30740" y1="-31266" x2="-25133" x1="-26040" fill="none"/><line y2="-31156" y1="-30740" x2="-24414" x1="-25133" fill="none"/><line y2="-29911" y1="-30740" x2="-25064" x1="-25064" fill="none"/><line y2="-29911" y1="-30740" x2="-25205" x1="-25205" fill="none"/><polygon stroke-width="1" stroke="none" points=" -28955 -30740 -28267 -31214 -28198 -31096"/><polygon stroke-width="1" points=" -28955 -30740 -28267 -31214 -28198 -31096" fill="none"/><polygon stroke-width="1" stroke="none" points=" -30795 -30740 -31737 -31205 -31668 -31324"/><polygon stroke-width="1" points=" -30795 -30740 -31737 -31205 -31668 -31324" fill="none"/><line y2="-28998" y1="-29079" x2="-28929" x1="-28819" fill="none"/><line y2="-29187" y1="-29245" x2="-29038" x1="-28959" fill="none"/><line y2="-29375" y1="-29411" x2="-29147" x1="-29098" fill="none"/><line y2="-29564" y1="-29577" x2="-29257" x1="-29238" fill="none"/><line y2="-29088" y1="-29007" x2="-30980" x1="-30867" fill="none"/><line y2="-29252" y1="-29194" x2="-30837" x1="-30756" fill="none"/><line y2="-29417" y1="-29381" x2="-30695" x1="-30645" fill="none"/><line y2="-29581" y1="-29568" x2="-30552" x1="-30534" fill="none"/><text y="-28640" xml:space="preserve" x="-28874" stroke="none" font-size="433.3333" font-family="sans-serif">OH</text><text y="-30561" xml:space="preserve" x="-32762" stroke="none" font-size="433.3333" font-family="sans-serif">OH</text><text y="-28649" xml:space="preserve" x="-31237" stroke="none" font-size="433.3333" font-family="sans-serif">OH</text><text y="-31087" xml:space="preserve" x="-24379" stroke="none" font-size="433.3333" font-family="sans-serif">NH</text><text y="-30997" xml:space="preserve" x="-23801" stroke="none" font-size="313.3333" font-family="sans-serif">2</text><text y="-29512" xml:space="preserve" x="-25286" stroke="none" font-size="433.3333" font-family="sans-serif">O</text><text y="-31257" xml:space="preserve" x="-30006" stroke="none" font-size="433.3333" font-family="sans-serif">O</text><text y="-31087" xml:space="preserve" x="-28198" stroke="none" font-size="433.3333" font-family="sans-serif">N</text><text y="-30330" xml:space="preserve" x="-27219" stroke="none" font-size="433.3333" font-family="sans-serif">N</text><text y="-32242" xml:space="preserve" x="-26551" stroke="none" font-size="433.3333" font-family="sans-serif">N</text><text y="-30463" xml:space="preserve" x="-29377" stroke="none" font-style="italic" font-size="313.3333" font-family="sans-serif">R</text><text y="-29784" xml:space="preserve" x="-29706" stroke="none" font-style="italic" font-size="313.3333" font-family="sans-serif">R</text><text y="-30486" xml:space="preserve" x="-30671" stroke="none" font-style="italic" font-size="313.3333" font-family="sans-serif">R</text><text y="-29784" xml:space="preserve" x="-30388" stroke="none" font-style="italic" font-size="313.3333" font-family="sans-serif">S</text></g></g></svg>