<svg width="189.54" viewBox="0 0 6318 3803" text-rendering="auto" stroke-width="1" stroke-opacity="1" stroke-miterlimit="10" stroke-linejoin="miter" stroke-linecap="square" stroke-dashoffset="0" stroke-dasharray="none" stroke="black" shape-rendering="auto" image-rendering="auto" height="114.09" font-weight="normal" font-style="normal" font-size="12" font-family="'Dialog'" fill-opacity="1" fill="black" color-rendering="auto" color-interpolation="auto" xmlns="http://www.w3.org/2000/svg"><g><g stroke="white" fill="white"><rect y="0" x="0" width="6318" stroke="none" height="3803"/></g><g transform="translate(32866,32758)" text-rendering="geometricPrecision" stroke-width="44" stroke-linejoin="round" stroke-linecap="round"><line y2="-30992" y1="-31561" x2="-28545" x1="-29530" fill="none"/><line y2="-30916" y1="-31344" x2="-28753" x1="-29492" fill="none"/><line y2="-29853" y1="-30992" x2="-28545" x1="-28545" fill="none"/><line y2="-31561" y1="-30992" x2="-29530" x1="-30515" fill="none"/><line y2="-29284" y1="-29853" x2="-29530" x1="-28545" fill="none"/><line y2="-29504" y1="-29931" x2="-29492" x1="-28753" fill="none"/><line y2="-30992" y1="-29853" x2="-30515" x1="-30515" fill="none"/><line y2="-30850" y1="-29998" x2="-30344" x1="-30344" fill="none"/><line y2="-29853" y1="-29284" x2="-30515" x1="-29530" fill="none"/><line y2="-31514" y1="-30992" x2="-27638" x1="-28545" fill="none"/><line y2="-29550" y1="-29853" x2="-31044" x1="-30515" fill="none"/><line y2="-29686" y1="-29437" x2="-32040" x1="-31610" fill="none"/><line y2="-31098" y1="-31514" x2="-26918" x1="-27638" fill="none"/><line y2="-32202" y1="-31514" x2="-27242" x1="-27638" fill="none"/><line y2="-32202" y1="-31514" x2="-28036" x1="-27638" fill="none"/><text y="-30812" xml:space="preserve" x="-26884" stroke="none" font-size="433.3333" font-family="sans-serif">F</text><text y="-32242" xml:space="preserve" x="-27268" stroke="none" font-size="433.3333" font-family="sans-serif">F</text><text y="-32242" xml:space="preserve" x="-28314" stroke="none" font-size="433.3333" font-family="sans-serif">F</text><text y="-29151" xml:space="preserve" x="-31575" stroke="none" font-size="433.3333" font-family="sans-serif">NH</text><text y="-29836" xml:space="preserve" x="-32762" stroke="none" font-size="433.3333" font-family="sans-serif">NH</text><text y="-29746" xml:space="preserve" x="-32185" stroke="none" font-size="313.3333" font-family="sans-serif">2</text></g></g></svg>