<svg width="288.87" viewBox="0 0 9629 3944" text-rendering="auto" stroke-width="1" stroke-opacity="1" stroke-miterlimit="10" stroke-linejoin="miter" stroke-linecap="square" stroke-dashoffset="0" stroke-dasharray="none" stroke="black" shape-rendering="auto" image-rendering="auto" height="118.32" font-weight="normal" font-style="normal" font-size="12" font-family="'Dialog'" fill-opacity="1" fill="black" color-rendering="auto" color-interpolation="auto" xmlns="http://www.w3.org/2000/svg"><g><g stroke="white" fill="white"><rect y="0" x="0" width="9629" stroke="none" height="3944"/></g><g transform="translate(32866,32758)" text-rendering="geometricPrecision" stroke-width="44" stroke-linejoin="round" stroke-linecap="round"><line y2="-30850" y1="-31419" x2="-25350" x1="-26332" fill="none"/><line y2="-30775" y1="-31202" x2="-25555" x1="-26294" fill="none"/><line y2="-29715" y1="-30850" x2="-25350" x1="-25350" fill="none"/><line y2="-31419" y1="-30850" x2="-26332" x1="-27320" fill="none"/><line y2="-29146" y1="-29715" x2="-26332" x1="-25350" fill="none"/><line y2="-29362" y1="-29790" x2="-26294" x1="-25555" fill="none"/><line y2="-30850" y1="-29715" x2="-27320" x1="-27320" fill="none"/><line y2="-30708" y1="-29856" x2="-27149" x1="-27149" fill="none"/><line y2="-29715" y1="-29146" x2="-27320" x1="-26332" fill="none"/><line y2="-31376" y1="-30850" x2="-24442" x1="-25350" fill="none"/><line y2="-29299" y1="-29715" x2="-28036" x1="-27320" fill="none"/><line y2="-29715" y1="-29299" x2="-29134" x1="-28415" fill="none"/><line y2="-29189" y1="-29715" x2="-30041" x1="-29134" fill="none"/><line y2="-29715" y1="-29189" x2="-30948" x1="-30041" fill="none"/><line y2="-29189" y1="-29715" x2="-31855" x1="-30948" fill="none"/><line y2="-29715" y1="-29189" x2="-32762" x1="-31855" fill="none"/><line y2="-31046" y1="-31376" x2="-23873" x1="-24442" fill="none"/><line y2="-32202" y1="-31376" x2="-24512" x1="-24512" fill="none"/><line y2="-32202" y1="-31376" x2="-24370" x1="-24370" fill="none"/><text y="-30671" xml:space="preserve" x="-23766" stroke="none" font-size="433.3333" font-family="sans-serif">Cl</text><text y="-32242" xml:space="preserve" x="-24593" stroke="none" font-size="433.3333" font-family="sans-serif">O</text><text y="-29010" xml:space="preserve" x="-28377" stroke="none" font-size="433.3333" font-family="sans-serif">O</text></g></g></svg>