<svg width="206.07" viewBox="0 0 6869 3530" text-rendering="auto" stroke-width="1" stroke-opacity="1" stroke-miterlimit="10" stroke-linejoin="miter" stroke-linecap="square" stroke-dashoffset="0" stroke-dasharray="none" stroke="black" shape-rendering="auto" image-rendering="auto" height="105.9" font-weight="normal" font-style="normal" font-size="12" font-family="'Dialog'" fill-opacity="1" fill="black" color-rendering="auto" color-interpolation="auto" xmlns="http://www.w3.org/2000/svg"><g><g stroke="white" fill="white"><rect y="0" x="0" width="6869" stroke="none" height="3530"/></g><g transform="translate(32866,32866)" text-rendering="geometricPrecision" stroke-width="44" stroke-linejoin="round" stroke-linecap="round"><line y2="-31624" y1="-30489" x2="-31376" x1="-31774" fill="none"/><line y2="-30489" y1="-31055" x2="-31774" x1="-30792" fill="none"/><line y2="-31055" y1="-30489" x2="-32762" x1="-31774" fill="none"/><line y2="-32762" y1="-31624" x2="-31774" x1="-31376" fill="none"/><line y2="-31055" y1="-32193" x2="-30792" x1="-30792" fill="none"/><line y2="-32193" y1="-31055" x2="-32762" x1="-32762" fill="none"/><line y2="-32193" y1="-32762" x2="-30792" x1="-31774" fill="none"/><line y2="-32762" y1="-32193" x2="-31774" x1="-32762" fill="none"/><line y2="-32719" y1="-32193" x2="-29885" x1="-30792" fill="none"/><line y2="-32531" y1="-32138" x2="-29928" x1="-30607" fill="none"/><line y2="-32193" y1="-32719" x2="-28978" x1="-29885" fill="none"/><line y2="-31977" y1="-31624" x2="-31893" x1="-31376" fill="none"/><line y2="-31260" y1="-31624" x2="-31881" x1="-31376" fill="none"/><line y2="-29440" y1="-30489" x2="-31774" x1="-31774" fill="none"/><line y2="-30703" y1="-31119" x2="-30038" x1="-30758" fill="none"/><line y2="-30581" y1="-30994" x2="-30108" x1="-30827" fill="none"/><line y2="-32193" y1="-31055" x2="-28978" x1="-28978" fill="none"/><line y2="-32052" y1="-31200" x2="-28808" x1="-28808" fill="none"/><line y2="-32762" y1="-32193" x2="-27990" x1="-28978" fill="none"/><line y2="-31055" y1="-30489" x2="-28978" x1="-27990" fill="none"/><line y2="-32193" y1="-32762" x2="-27008" x1="-27990" fill="none"/><line y2="-32118" y1="-32546" x2="-27216" x1="-27952" fill="none"/><line y2="-30489" y1="-31055" x2="-27990" x1="-27008" fill="none"/><line y2="-30706" y1="-31133" x2="-27952" x1="-27216" fill="none"/><line y2="-31055" y1="-32193" x2="-27008" x1="-27008" fill="none"/><line y2="-30532" y1="-31055" x2="-26101" x1="-27008" fill="none"/><text y="-30353" xml:space="preserve" x="-30038" stroke="none" font-size="433.3333" font-family="sans-serif">O</text></g></g></svg>