<svg width="994.38" viewBox="0 0 33146 2283" text-rendering="auto" stroke-width="1" stroke-opacity="1" stroke-miterlimit="10" stroke-linejoin="miter" stroke-linecap="square" stroke-dashoffset="0" stroke-dasharray="none" stroke="black" shape-rendering="auto" image-rendering="auto" height="68.49" font-weight="normal" font-style="normal" font-size="12" font-family="'Dialog'" fill-opacity="1" fill="black" color-rendering="auto" color-interpolation="auto" xmlns="http://www.w3.org/2000/svg"><g><g stroke="white" fill="white"><rect y="0" x="0" width="33146" stroke="none" height="2283"/></g><g transform="translate(32866,32758)" text-rendering="geometricPrecision" stroke-width="44" stroke-linejoin="round" stroke-linecap="round"><line y2="-32422" y1="-31899" x2="-14479" x1="-15386" fill="none"/><line y2="-31899" y1="-32422" x2="-13572" x1="-14479" fill="none"/><line y2="-32422" y1="-31899" x2="-12664" x1="-13572" fill="none"/><line y2="-31899" y1="-32422" x2="-11757" x1="-12664" fill="none"/><line y2="-32422" y1="-31899" x2="-10850" x1="-11757" fill="none"/><line y2="-31899" y1="-32422" x2="-9943" x1="-10850" fill="none"/><line y2="-32422" y1="-31899" x2="-9036" x1="-9943" fill="none"/><line y2="-31899" y1="-32422" x2="-8129" x1="-9036" fill="none"/><line y2="-32315" y1="-31899" x2="-16105" x1="-15386" fill="none"/><line y2="-31899" y1="-32315" x2="-17200" x1="-16481" fill="none"/><line y2="-32422" y1="-31899" x2="-18107" x1="-17200" fill="none"/><line y2="-31899" y1="-32422" x2="-19014" x1="-18107" fill="none"/><line y2="-32422" y1="-31899" x2="-19921" x1="-19014" fill="none"/><line y2="-31899" y1="-32422" x2="-20828" x1="-19921" fill="none"/><line y2="-32422" y1="-31899" x2="-21736" x1="-20828" fill="none"/><line y2="-31899" y1="-32422" x2="-22643" x1="-21736" fill="none"/><line y2="-32422" y1="-31899" x2="-23550" x1="-22643" fill="none"/><line y2="-31899" y1="-32422" x2="-24457" x1="-23550" fill="none"/><line y2="-31070" y1="-31899" x2="-15316" x1="-15316" fill="none"/><line y2="-31070" y1="-31899" x2="-15455" x1="-15455" fill="none"/><line y2="-31899" y1="-31899" x2="-7080" x1="-8129" fill="none"/><line y2="-32037" y1="-32037" x2="-7210" x1="-7996" fill="none"/><line y2="-31899" y1="-31899" x2="-25506" x1="-24457" fill="none"/><line y2="-32037" y1="-32037" x2="-25376" x1="-24587" fill="none"/><line y2="-32422" y1="-31899" x2="-6173" x1="-7080" fill="none"/><line y2="-31899" y1="-32422" x2="-5266" x1="-6173" fill="none"/><line y2="-32422" y1="-31899" x2="-4359" x1="-5266" fill="none"/><line y2="-31899" y1="-32422" x2="-3452" x1="-4359" fill="none"/><line y2="-32422" y1="-31899" x2="-2545" x1="-3452" fill="none"/><line y2="-31899" y1="-32422" x2="-1638" x1="-2545" fill="none"/><line y2="-32422" y1="-31899" x2="-730" x1="-1638" fill="none"/><line y2="-31899" y1="-32422" x2="176" x1="-730" fill="none"/><line y2="-32422" y1="-31899" x2="-26413" x1="-25506" fill="none"/><line y2="-31899" y1="-32422" x2="-27320" x1="-26413" fill="none"/><line y2="-32422" y1="-31899" x2="-28227" x1="-27320" fill="none"/><line y2="-31899" y1="-32422" x2="-29134" x1="-28227" fill="none"/><line y2="-32422" y1="-31899" x2="-30041" x1="-29134" fill="none"/><line y2="-31899" y1="-32422" x2="-30948" x1="-30041" fill="none"/><line y2="-32422" y1="-31899" x2="-31855" x1="-30948" fill="none"/><line y2="-31899" y1="-32422" x2="-32762" x1="-31855" fill="none"/><text y="-32242" xml:space="preserve" x="-16446" stroke="none" font-size="433.3333" font-family="sans-serif">O</text><text y="-30671" xml:space="preserve" x="-15539" stroke="none" font-size="433.3333" font-family="sans-serif">O</text><text y="-32115" xml:space="preserve" x="-7756" stroke="none" font-style="italic" font-size="313.3333" font-family="sans-serif">Z</text><text y="-32185" xml:space="preserve" x="-25133" stroke="none" font-style="italic" font-size="313.3333" font-family="sans-serif">Z</text></g></g></svg>