<svg width="203.73" viewBox="0 0 6791 8860" text-rendering="auto" stroke-width="1" stroke-opacity="1" stroke-miterlimit="10" stroke-linejoin="miter" stroke-linecap="square" stroke-dashoffset="0" stroke-dasharray="none" stroke="black" shape-rendering="auto" image-rendering="auto" height="265.8" font-weight="normal" font-style="normal" font-size="12" font-family="'Dialog'" fill-opacity="1" fill="black" color-rendering="auto" color-interpolation="auto" xmlns="http://www.w3.org/2000/svg"><g><g stroke="white" fill="white"><rect y="0" x="0" width="6791" stroke="none" height="8860"/></g><g transform="translate(32866,32866)" text-rendering="geometricPrecision" stroke-width="44" stroke-linejoin="round" stroke-linecap="round"><line y2="-27898" y1="-28961" x2="-30333" x1="-29963" fill="none"/><line y2="-28961" y1="-29512" x2="-29963" x1="-30677" fill="none"/><line y2="-27898" y1="-27898" x2="-31289" x1="-30333" fill="none"/><line y2="-29518" y1="-28961" x2="-31052" x1="-31806" fill="none"/><line y2="-28961" y1="-28117" x2="-31806" x1="-31546" fill="none"/><line y2="-30313" y1="-29484" x2="-29059" x1="-29059" fill="none"/><line y2="-26563" y1="-27389" x2="-29417" x1="-29417" fill="none"/><line y2="-28536" y1="-28961" x2="-32762" x1="-31806" fill="none"/><line y2="-29868" y1="-28961" x2="-32329" x1="-31806" fill="none"/><line y2="-31055" y1="-30639" x2="-28149" x1="-28868" fill="none"/><line y2="-31055" y1="-30639" x2="-29966" x1="-29247" fill="none"/><line y2="-25818" y1="-26234" x2="-28510" x1="-29229" fill="none"/><line y2="-25818" y1="-26234" x2="-30324" x1="-29605" fill="none"/><line y2="-32193" y1="-31055" x2="-28149" x1="-28149" fill="none"/><line y2="-32052" y1="-31197" x2="-27981" x1="-27981" fill="none"/><line y2="-31055" y1="-30486" x2="-28149" x1="-27164" fill="none"/><line y2="-32762" y1="-32193" x2="-27164" x1="-28149" fill="none"/><line y2="-30486" y1="-31055" x2="-27164" x1="-26179" fill="none"/><line y2="-30706" y1="-31133" x2="-27126" x1="-26387" fill="none"/><line y2="-32193" y1="-32762" x2="-26179" x1="-27164" fill="none"/><line y2="-32118" y1="-32543" x2="-26387" x1="-27126" fill="none"/><line y2="-31055" y1="-32193" x2="-26179" x1="-26179" fill="none"/><line y2="-31055" y1="-32193" x2="-29966" x1="-29963" fill="none"/><line y2="-31197" y1="-32052" x2="-30134" x1="-30134" fill="none"/><line y2="-30489" y1="-31055" x2="-30948" x1="-29966" fill="none"/><line y2="-32193" y1="-32762" x2="-29963" x1="-30948" fill="none"/><line y2="-31055" y1="-30489" x2="-31933" x1="-30948" fill="none"/><line y2="-31133" y1="-30706" x2="-31725" x1="-30986" fill="none"/><line y2="-32762" y1="-32193" x2="-30948" x1="-31933" fill="none"/><line y2="-32543" y1="-32118" x2="-30986" x1="-31725" fill="none"/><line y2="-32193" y1="-31055" x2="-31933" x1="-31933" fill="none"/><line y2="-25818" y1="-24682" x2="-28510" x1="-28510" fill="none"/><line y2="-25676" y1="-24824" x2="-28340" x1="-28340" fill="none"/><line y2="-26387" y1="-25818" x2="-27522" x1="-28510" fill="none"/><line y2="-24682" y1="-24113" x2="-28510" x1="-27522" fill="none"/><line y2="-25818" y1="-26387" x2="-26540" x1="-27522" fill="none"/><line y2="-25742" y1="-26170" x2="-26748" x1="-27484" fill="none"/><line y2="-24113" y1="-24682" x2="-27522" x1="-26540" fill="none"/><line y2="-24330" y1="-24757" x2="-27484" x1="-26748" fill="none"/><line y2="-24682" y1="-25818" x2="-26540" x1="-26540" fill="none"/><line y2="-24679" y1="-25818" x2="-30321" x1="-30324" fill="none"/><line y2="-24824" y1="-25676" x2="-30492" x1="-30495" fill="none"/><line y2="-25818" y1="-26387" x2="-30324" x1="-31306" fill="none"/><line y2="-24110" y1="-24679" x2="-31306" x1="-30321" fill="none"/><line y2="-26387" y1="-25818" x2="-31306" x1="-32292" fill="none"/><line y2="-26167" y1="-25740" x2="-31347" x1="-32084" fill="none"/><line y2="-24682" y1="-24110" x2="-32294" x1="-31306" fill="none"/><line y2="-24757" y1="-24330" x2="-32084" x1="-31347" fill="none"/><line y2="-25818" y1="-24682" x2="-32292" x1="-32294" fill="none"/><polygon stroke-width="1" stroke="none" points=" -30333 -27898 -29382 -27450 -29449 -27328"/><polygon stroke-width="1" points=" -30333 -27898 -29382 -27450 -29449 -27328" fill="none"/><line y2="-29423" y1="-29544" x2="-29021" x1="-29091" fill="none"/><line y2="-29327" y1="-29423" x2="-29216" x1="-29271" fill="none"/><line y2="-29232" y1="-29303" x2="-29411" x1="-29452" fill="none"/><line y2="-29136" y1="-29182" x2="-29606" x1="-29632" fill="none"/><line y2="-29040" y1="-29061" x2="-29801" x1="-29813" fill="none"/><text y="-30353" xml:space="preserve" x="-29209" stroke="none" font-size="433.3333" font-family="sans-serif">P</text><text y="-26164" xml:space="preserve" x="-29570" stroke="none" font-size="433.3333" font-family="sans-serif">P</text><text y="-29478" xml:space="preserve" x="-31015" stroke="none" font-size="433.3333" font-family="sans-serif">O</text><text y="-27718" xml:space="preserve" x="-31630" stroke="none" font-size="433.3333" font-family="sans-serif">O</text><text y="-28683" xml:space="preserve" x="-30385" stroke="none" font-style="italic" font-size="313.3333" font-family="sans-serif">S</text><text y="-28004" xml:space="preserve" x="-30717" stroke="none" font-style="italic" font-size="313.3333" font-family="sans-serif">S</text></g></g></svg>