<svg width="190.62" viewBox="0 0 6354 4918" text-rendering="auto" stroke-width="1" stroke-opacity="1" stroke-miterlimit="10" stroke-linejoin="miter" stroke-linecap="square" stroke-dashoffset="0" stroke-dasharray="none" stroke="black" shape-rendering="auto" image-rendering="auto" height="147.54" font-weight="normal" font-style="normal" font-size="12" font-family="'Dialog'" fill-opacity="1" fill="black" color-rendering="auto" color-interpolation="auto" xmlns="http://www.w3.org/2000/svg"><g><g stroke="white" fill="white"><rect y="0" x="0" width="6354" stroke="none" height="4918"/></g><g transform="translate(32866,32758)" text-rendering="geometricPrecision" stroke-width="44" stroke-linejoin="round" stroke-linecap="round"><line y2="-29787" y1="-30850" x2="-30330" x1="-29963" fill="none"/><line y2="-30850" y1="-31402" x2="-29963" x1="-30674" fill="none"/><line y2="-29787" y1="-29787" x2="-31289" x1="-30330" fill="none"/><line y2="-31408" y1="-30850" x2="-31049" x1="-31803" fill="none"/><line y2="-30850" y1="-30006" x2="-31803" x1="-31543" fill="none"/><line y2="-30425" y1="-30850" x2="-32762" x1="-31803" fill="none"/><line y2="-31757" y1="-30850" x2="-32329" x1="-31803" fill="none"/><line y2="-30960" y1="-31376" x2="-28337" x1="-29056" fill="none"/><line y2="-31266" y1="-30960" x2="-27430" x1="-27961" fill="none"/><line y2="-32202" y1="-31416" x2="-29125" x1="-29125" fill="none"/><line y2="-32202" y1="-31376" x2="-28984" x1="-28984" fill="none"/><line y2="-29680" y1="-29264" x2="-28704" x1="-29423" fill="none"/><line y2="-29371" y1="-29680" x2="-27796" x1="-28328" fill="none"/><line y2="-28435" y1="-29264" x2="-29354" x1="-29354" fill="none"/><line y2="-28435" y1="-29224" x2="-29492" x1="-29492" fill="none"/><polygon stroke-width="1" stroke="none" points=" -30330 -29787 -29388 -29322 -29458 -29203"/><polygon stroke-width="1" points=" -30330 -29787 -29388 -29322 -29458 -29203" fill="none"/><line y2="-31315" y1="-31434" x2="-29021" x1="-29088" fill="none"/><line y2="-31219" y1="-31313" x2="-29216" x1="-29269" fill="none"/><line y2="-31123" y1="-31193" x2="-29410" x1="-29449" fill="none"/><line y2="-31027" y1="-31072" x2="-29605" x1="-29630" fill="none"/><line y2="-30931" y1="-30952" x2="-29799" x1="-29811" fill="none"/><text y="-30671" xml:space="preserve" x="-28299" stroke="none" font-size="433.3333" font-family="sans-serif">O</text><text y="-32242" xml:space="preserve" x="-29206" stroke="none" font-size="433.3333" font-family="sans-serif">O</text><text y="-31197" xml:space="preserve" x="-27392" stroke="none" font-size="433.3333" font-family="sans-serif">CH</text><text y="-31107" xml:space="preserve" x="-26814" stroke="none" font-size="313.3333" font-family="sans-serif">3</text><text y="-29608" xml:space="preserve" x="-28669" stroke="none" font-size="433.3333" font-family="sans-serif">O</text><text y="-28036" xml:space="preserve" x="-29576" stroke="none" font-size="433.3333" font-family="sans-serif">O</text><text y="-29085" xml:space="preserve" x="-27762" stroke="none" font-size="433.3333" font-family="sans-serif">CH</text><text y="-28995" xml:space="preserve" x="-27184" stroke="none" font-size="313.3333" font-family="sans-serif">3</text><text y="-31367" xml:space="preserve" x="-31015" stroke="none" font-size="433.3333" font-family="sans-serif">O</text><text y="-29608" xml:space="preserve" x="-31630" stroke="none" font-size="433.3333" font-family="sans-serif">O</text><text y="-30576" xml:space="preserve" x="-30382" stroke="none" font-style="italic" font-size="313.3333" font-family="sans-serif">S</text><text y="-29894" xml:space="preserve" x="-30714" stroke="none" font-style="italic" font-size="313.3333" font-family="sans-serif">S</text></g></g></svg>