<svg width="250.68" viewBox="0 0 8356 7649" text-rendering="auto" stroke-width="1" stroke-opacity="1" stroke-miterlimit="10" stroke-linejoin="miter" stroke-linecap="square" stroke-dashoffset="0" stroke-dasharray="none" stroke="black" shape-rendering="auto" image-rendering="auto" height="229.47" font-weight="normal" font-style="normal" font-size="12" font-family="'Dialog'" fill-opacity="1" fill="black" color-rendering="auto" color-interpolation="auto" xmlns="http://www.w3.org/2000/svg"><g><g stroke="white" fill="white"><rect y="0" x="0" width="8356" stroke="none" height="7649"/></g><g transform="translate(32866,32866)" text-rendering="geometricPrecision" stroke-width="44" stroke-linejoin="round" stroke-linecap="round"><line y2="-27779" y1="-28698" x2="-28900" x1="-28900" fill="none"/><line y2="-27895" y1="-28582" x2="-29070" x1="-29070" fill="none"/><line y2="-27210" y1="-27779" x2="-29885" x1="-28900" fill="none"/><line y2="-29024" y1="-29484" x2="-29088" x1="-29885" fill="none"/><line y2="-27669" y1="-27210" x2="-30682" x1="-29885" fill="none"/><line y2="-27762" y1="-27415" x2="-30498" x1="-29900" fill="none"/><line y2="-29484" y1="-28917" x2="-29885" x1="-30870" fill="none"/><line y2="-29267" y1="-28839" x2="-29923" x1="-30662" fill="none"/><line y2="-28917" y1="-27999" x2="-30870" x1="-30870" fill="none"/><line y2="-27256" y1="-27779" x2="-27993" x1="-28900" fill="none"/><line y2="-30532" y1="-29484" x2="-29885" x1="-29885" fill="none"/><line y2="-31055" y1="-30532" x2="-30792" x1="-29885" fill="none"/><line y2="-29166" y1="-28917" x2="-31306" x1="-30870" fill="none"/><line y2="-27256" y1="-26118" x2="-27993" x1="-27993" fill="none"/><line y2="-27112" y1="-26260" x2="-27822" x1="-27822" fill="none"/><line y2="-27822" y1="-27256" x2="-27008" x1="-27993" fill="none"/><line y2="-26118" y1="-25549" x2="-27993" x1="-27008" fill="none"/><line y2="-27256" y1="-27822" x2="-26023" x1="-27008" fill="none"/><line y2="-27178" y1="-27606" x2="-26231" x1="-26970" fill="none"/><line y2="-25549" y1="-26118" x2="-27008" x1="-26023" fill="none"/><line y2="-25766" y1="-26193" x2="-26970" x1="-26231" fill="none"/><line y2="-26118" y1="-27256" x2="-26023" x1="-26023" fill="none"/><line y2="-25702" y1="-26118" x2="-25303" x1="-26023" fill="none"/><line y2="-31055" y1="-32193" x2="-30792" x1="-30792" fill="none"/><line y2="-31200" y1="-32052" x2="-30963" x1="-30963" fill="none"/><line y2="-30489" y1="-31055" x2="-31774" x1="-30792" fill="none"/><line y2="-32193" y1="-32762" x2="-30792" x1="-31774" fill="none"/><line y2="-31055" y1="-30489" x2="-32762" x1="-31774" fill="none"/><line y2="-31133" y1="-30706" x2="-32552" x1="-31812" fill="none"/><line y2="-32762" y1="-32193" x2="-31774" x1="-32762" fill="none"/><line y2="-32543" y1="-32118" x2="-31812" x1="-32552" fill="none"/><line y2="-32193" y1="-31055" x2="-32762" x1="-32762" fill="none"/><text y="-29316" xml:space="preserve" x="-32029" stroke="none" font-size="433.3333" font-family="sans-serif">NH</text><text y="-29226" xml:space="preserve" x="-31451" stroke="none" font-size="313.3333" font-family="sans-serif">2</text><text y="-25413" xml:space="preserve" x="-25269" stroke="none" font-size="433.3333" font-family="sans-serif">OH</text><text y="-28738" xml:space="preserve" x="-29053" stroke="none" font-size="433.3333" font-family="sans-serif">N</text><text y="-27600" xml:space="preserve" x="-31023" stroke="none" font-size="433.3333" font-family="sans-serif">N</text></g></g></svg>