<svg width="591.39" viewBox="0 0 19713 3599" text-rendering="auto" stroke-width="1" stroke-opacity="1" stroke-miterlimit="10" stroke-linejoin="miter" stroke-linecap="square" stroke-dashoffset="0" stroke-dasharray="none" stroke="black" shape-rendering="auto" image-rendering="auto" height="107.97" font-weight="normal" font-style="normal" font-size="12" font-family="'Dialog'" fill-opacity="1" fill="black" color-rendering="auto" color-interpolation="auto" xmlns="http://www.w3.org/2000/svg"><g><g stroke="white" fill="white"><rect y="0" x="0" width="19713" stroke="none" height="3599"/></g><g transform="translate(32866,32866)" text-rendering="geometricPrecision" stroke-width="44" stroke-linejoin="round" stroke-linecap="round"><line y2="-30928" y1="-29460" x2="-19306" x1="-19306" fill="none"/><line y2="-30928" y1="-30928" x2="-19032" x1="-19306" fill="none"/><line y2="-29460" y1="-29460" x2="-19032" x1="-19306" fill="none"/><line y2="-31451" y1="-29983" x2="-14799" x1="-14799" fill="none"/><line y2="-31451" y1="-31451" x2="-15071" x1="-14799" fill="none"/><line y2="-29983" y1="-29983" x2="-15071" x1="-14799" fill="none"/><line y2="-30928" y1="-29460" x2="-26762" x1="-26762" fill="none"/><line y2="-30928" y1="-30928" x2="-27034" x1="-26762" fill="none"/><line y2="-29460" y1="-29460" x2="-27034" x1="-26762" fill="none"/><line y2="-31451" y1="-29983" x2="-31266" x1="-31266" fill="none"/><line y2="-31451" y1="-31451" x2="-30992" x1="-31266" fill="none"/><line y2="-29983" y1="-29983" x2="-30992" x1="-31266" fill="none"/><line y2="-31332" y1="-31855" x2="-22126" x1="-23033" fill="none"/><line y2="-31332" y1="-31855" x2="-23940" x1="-23033" fill="none"/><line y2="-32762" y1="-31855" x2="-23558" x1="-23033" fill="none"/><line y2="-32762" y1="-31855" x2="-22510" x1="-23033" fill="none"/><line y2="-31332" y1="-30194" x2="-22126" x1="-22126" fill="none"/><line y2="-31188" y1="-30336" x2="-21955" x1="-21955" fill="none"/><line y2="-31899" y1="-31332" x2="-21140" x1="-22126" fill="none"/><line y2="-30194" y1="-29625" x2="-22126" x1="-21140" fill="none"/><line y2="-31332" y1="-31899" x2="-20155" x1="-21140" fill="none"/><line y2="-31254" y1="-31682" x2="-20363" x1="-21103" fill="none"/><line y2="-29625" y1="-30194" x2="-21140" x1="-20155" fill="none"/><line y2="-29842" y1="-30269" x2="-21103" x1="-20363" fill="none"/><line y2="-30194" y1="-31332" x2="-20155" x1="-20155" fill="none"/><line y2="-30194" y1="-30194" x2="-18454" x1="-20155" fill="none"/><line y2="-30194" y1="-31332" x2="-23940" x1="-23940" fill="none"/><line y2="-30336" y1="-31188" x2="-24110" x1="-24110" fill="none"/><line y2="-31332" y1="-31899" x2="-23940" x1="-24928" fill="none"/><line y2="-29625" y1="-30194" x2="-24928" x1="-23940" fill="none"/><line y2="-31899" y1="-31332" x2="-24928" x1="-25910" fill="none"/><line y2="-31682" y1="-31254" x2="-24965" x1="-25702" fill="none"/><line y2="-30194" y1="-29625" x2="-25910" x1="-24928" fill="none"/><line y2="-30269" y1="-29842" x2="-25702" x1="-24965" fill="none"/><line y2="-31332" y1="-30194" x2="-25910" x1="-25910" fill="none"/><line y2="-30194" y1="-30194" x2="-27612" x1="-25910" fill="none"/><line y2="-30607" y1="-30301" x2="-17550" x1="-18078" fill="none"/><line y2="-30607" y1="-30301" x2="-28516" x1="-27990" fill="none"/><line y2="-30717" y1="-30717" x2="-13947" x1="-15649" fill="none"/><line y2="-30717" y1="-30717" x2="-32115" x1="-30414" fill="none"/><text y="-29989" xml:space="preserve" x="-14698" stroke="none" font-size="433.3333" font-family="sans-serif">n</text><text y="-29463" xml:space="preserve" x="-26661" stroke="none" font-size="433.3333" font-family="sans-serif">n</text><text y="-30015" xml:space="preserve" x="-18419" stroke="none" font-size="433.3333" font-family="sans-serif">O</text><text y="-30538" xml:space="preserve" x="-17512" stroke="none" font-size="433.3333" font-family="sans-serif">(C</text><text y="-30448" xml:space="preserve" x="-16934" stroke="none" font-size="313.3333" font-family="sans-serif">3</text><text y="-30538" xml:space="preserve" x="-16645" stroke="none" font-size="433.3333" font-family="sans-serif">H</text><text y="-30448" xml:space="preserve" x="-16356" stroke="none" font-size="313.3333" font-family="sans-serif">6</text><text y="-30538" xml:space="preserve" x="-16068" stroke="none" font-size="433.3333" font-family="sans-serif">)</text><text y="-30538" xml:space="preserve" x="-13912" stroke="none" font-size="433.3333" font-family="sans-serif">OH</text><text y="-30015" xml:space="preserve" x="-27952" stroke="none" font-size="433.3333" font-family="sans-serif">O</text><text y="-30538" xml:space="preserve" x="-30379" stroke="none" font-size="433.3333" font-family="sans-serif">(C</text><text y="-30448" xml:space="preserve" x="-29801" stroke="none" font-size="313.3333" font-family="sans-serif">3</text><text y="-30538" xml:space="preserve" x="-29512" stroke="none" font-size="433.3333" font-family="sans-serif">H</text><text y="-30448" xml:space="preserve" x="-29224" stroke="none" font-size="313.3333" font-family="sans-serif">6</text><text y="-30538" xml:space="preserve" x="-28935" stroke="none" font-size="433.3333" font-family="sans-serif">)</text><text y="-30538" xml:space="preserve" x="-32762" stroke="none" font-size="433.3333" font-family="sans-serif">OH</text></g></g></svg>