<svg width="392.64" viewBox="0 0 13088 9948" text-rendering="auto" stroke-width="1" stroke-opacity="1" stroke-miterlimit="10" stroke-linejoin="miter" stroke-linecap="square" stroke-dashoffset="0" stroke-dasharray="none" stroke="black" shape-rendering="auto" image-rendering="auto" height="298.44" font-weight="normal" font-style="normal" font-size="12" font-family="'Dialog'" fill-opacity="1" fill="black" color-rendering="auto" color-interpolation="auto" xmlns="http://www.w3.org/2000/svg"><g><g stroke="white" fill="white"><rect y="0" x="0" width="13088" stroke="none" height="9948"/></g><g transform="translate(32866,32758)" text-rendering="geometricPrecision" stroke-width="44" stroke-linejoin="round" stroke-linecap="round"><line y2="-25390" y1="-26525" x2="-25950" x1="-25950" fill="none"/><line y2="-26525" y1="-27094" x2="-25950" x1="-26933" fill="none"/><line y2="-24821" y1="-25390" x2="-26933" x1="-25950" fill="none"/><line y2="-27094" y1="-26525" x2="-26933" x1="-27921" fill="none"/><line y2="-25390" y1="-24821" x2="-27921" x1="-26933" fill="none"/><line y2="-26525" y1="-25390" x2="-27921" x1="-27921" fill="none"/><line y2="-29099" y1="-27268" x2="-25043" x1="-25043" fill="none"/><line y2="-26525" y1="-26941" x2="-29735" x1="-29016" fill="none"/><line y2="-25390" y1="-25084" x2="-24136" x1="-24662" fill="none"/><line y2="-29099" y1="-29559" x2="-25043" x1="-24246" fill="none"/><line y2="-29666" y1="-29099" x2="-26026" x1="-25043" fill="none"/><line y2="-29888" y1="-30804" x2="-24058" x1="-24058" fill="none"/><line y2="-30807" y1="-29666" x2="-26026" x1="-26026" fill="none"/><line y2="-30804" y1="-31376" x2="-24058" x1="-25046" fill="none"/><line y2="-31376" y1="-30807" x2="-25046" x1="-26026" fill="none"/><line y2="-30914" y1="-31330" x2="-22432" x1="-23151" fill="none"/><line y2="-25610" y1="-26525" x2="-29735" x1="-29735" fill="none"/><line y2="-26525" y1="-27094" x2="-29735" x1="-30717" fill="none"/><line y2="-24821" y1="-25280" x2="-30717" x1="-29923" fill="none"/><line y2="-27094" y1="-26525" x2="-30717" x1="-31705" fill="none"/><line y2="-25390" y1="-24821" x2="-31705" x1="-30717" fill="none"/><line y2="-26525" y1="-25390" x2="-31705" x1="-31705" fill="none"/><line y2="-23469" y1="-23772" x2="-31246" x1="-30717" fill="none"/><line y2="-24864" y1="-25390" x2="-23229" x1="-24136" fill="none"/><line y2="-26216" y1="-25390" x2="-24206" x1="-24206" fill="none"/><line y2="-26216" y1="-25390" x2="-24064" x1="-24064" fill="none"/><line y2="-25390" y1="-24864" x2="-22322" x1="-23229" fill="none"/><line y2="-24864" y1="-25390" x2="-21412" x1="-22322" fill="none"/><line y2="-25280" y1="-24864" x2="-20696" x1="-21412" fill="none"/><polygon stroke-width="1" stroke="none" points=" -25950 -26525 -25266 -26999 -25196 -26881"/><polygon stroke-width="1" points=" -25950 -26525 -25266 -26999 -25196 -26881" fill="none"/><polygon stroke-width="1" stroke="none" points=" -27921 -26525 -28672 -26881 -28602 -27002"/><polygon stroke-width="1" points=" -27921 -26525 -28672 -26881 -28602 -27002" fill="none"/><polygon stroke-width="1" stroke="none" points=" -24058 -30804 -23186 -31387 -23116 -31269"/><polygon stroke-width="1" points=" -24058 -30804 -23186 -31387 -23116 -31269" fill="none"/><polygon stroke-width="1" stroke="none" points=" -26026 -30807 -26525 -31015 -26456 -31133"/><polygon stroke-width="1" points=" -26026 -30807 -26525 -31015 -26456 -31133" fill="none"/><polygon stroke-width="1" stroke="none" points=" -25043 -29099 -25725 -28626 -25794 -28744"/><polygon stroke-width="1" points=" -25043 -29099 -25725 -28626 -25794 -28744" fill="none"/><polygon stroke-width="1" stroke="none" points=" -30717 -27094 -30786 -27924 -30648 -27924"/><polygon stroke-width="1" points=" -30717 -27094 -30786 -27924 -30648 -27924" fill="none"/><polygon stroke-width="1" stroke="none" points=" -31705 -25390 -32196 -25023 -32266 -25144"/><polygon stroke-width="1" points=" -31705 -25390 -32196 -25023 -32266 -25144" fill="none"/><line y2="-24913" y1="-25035" x2="-25263" x1="-25196" fill="none"/><line y2="-25037" y1="-25127" x2="-25442" x1="-25392" fill="none"/><line y2="-25161" y1="-25220" x2="-25621" x1="-25589" fill="none"/><line y2="-25286" y1="-25312" x2="-25800" x1="-25785" fill="none"/><line y2="-25144" y1="-25023" x2="-28481" x1="-28412" fill="none"/><line y2="-25232" y1="-25154" x2="-28282" x1="-28237" fill="none"/><line y2="-25319" y1="-25284" x2="-28082" x1="-28062" fill="none"/><line y2="-27924" y1="-27924" x2="-26863" x1="-27002" fill="none"/><line y2="-27707" y1="-27707" x2="-26881" x1="-26984" fill="none"/><line y2="-27491" y1="-27491" x2="-26900" x1="-26966" fill="none"/><line y2="-27274" y1="-27274" x2="-26918" x1="-26948" fill="none"/><line y2="-29423" y1="-29302" x2="-26586" x1="-26517" fill="none"/><line y2="-29510" y1="-29432" x2="-26386" x1="-26342" fill="none"/><line y2="-29597" y1="-29562" x2="-26186" x1="-26166" fill="none"/><line y2="-32202" y1="-32202" x2="-24977" x1="-25113" fill="none"/><line y2="-31985" y1="-31985" x2="-24995" x1="-25095" fill="none"/><line y2="-31769" y1="-31769" x2="-25013" x1="-25078" fill="none"/><line y2="-31552" y1="-31552" x2="-25031" x1="-25060" fill="none"/><line y2="-23772" y1="-23772" x2="-30786" x1="-30648" fill="none"/><line y2="-23989" y1="-23989" x2="-30772" x1="-30662" fill="none"/><line y2="-24205" y1="-24205" x2="-30757" x1="-30677" fill="none"/><line y2="-24422" y1="-24422" x2="-30743" x1="-30691" fill="none"/><line y2="-24639" y1="-24639" x2="-30729" x1="-30705" fill="none"/><line y2="-26889" y1="-26771" x2="-32196" x1="-32266" fill="none"/><line y2="-26759" y1="-26683" x2="-32021" x1="-32066" fill="none"/><line y2="-26630" y1="-26596" x2="-31846" x1="-31866" fill="none"/><line y2="-26049" y1="-26170" x2="-29047" x1="-28981" fill="none"/><line y2="-26173" y1="-26262" x2="-29226" x1="-29177" fill="none"/><line y2="-26297" y1="-26355" x2="-29405" x1="-29374" fill="none"/><line y2="-26421" y1="-26447" x2="-29584" x1="-29570" fill="none"/><line y2="-24035" y1="-24038" x2="-23296" x1="-23160" fill="none"/><line y2="-24252" y1="-24254" x2="-23278" x1="-23178" fill="none"/><line y2="-24469" y1="-24471" x2="-23261" x1="-23196" fill="none"/><line y2="-24686" y1="-24687" x2="-23243" x1="-23214" fill="none"/><text y="-26869" xml:space="preserve" x="-25196" stroke="none" font-size="433.3333" font-family="sans-serif">O</text><text y="-24685" xml:space="preserve" x="-25194" stroke="none" font-size="433.3333" font-family="sans-serif">NH</text><text y="-26257" xml:space="preserve" x="-24286" stroke="none" font-size="433.3333" font-family="sans-serif">O</text><text y="-23639" xml:space="preserve" x="-23379" stroke="none" font-size="433.3333" font-family="sans-serif">OH</text><text y="-25211" xml:space="preserve" x="-20658" stroke="none" font-size="433.3333" font-family="sans-serif">NH</text><text y="-25121" xml:space="preserve" x="-20080" stroke="none" font-size="313.3333" font-family="sans-serif">2</text><text y="-27964" xml:space="preserve" x="-27086" stroke="none" font-size="433.3333" font-family="sans-serif">OH</text><text y="-26872" xml:space="preserve" x="-28978" stroke="none" font-size="433.3333" font-family="sans-serif">O</text><text y="-24685" xml:space="preserve" x="-28978" stroke="none" font-size="433.3333" font-family="sans-serif">NH</text><text y="-24596" xml:space="preserve" x="-28400" stroke="none" font-size="313.3333" font-family="sans-serif">2</text><text y="-28964" xml:space="preserve" x="-27086" stroke="none" font-size="433.3333" font-family="sans-serif">OH</text><text y="-30625" xml:space="preserve" x="-22397" stroke="none" font-size="433.3333" font-family="sans-serif">OH</text><text y="-31226" xml:space="preserve" x="-27213" stroke="none" font-size="433.3333" font-family="sans-serif">NH</text><text y="-31136" xml:space="preserve" x="-26635" stroke="none" font-size="313.3333" font-family="sans-serif">2</text><text y="-27964" xml:space="preserve" x="-30870" stroke="none" font-size="433.3333" font-family="sans-serif">OH</text><text y="-32242" xml:space="preserve" x="-25196" stroke="none" font-size="433.3333" font-family="sans-serif">OH</text><text y="-23070" xml:space="preserve" x="-31777" stroke="none" font-size="433.3333" font-family="sans-serif">NH</text><text y="-22981" xml:space="preserve" x="-31200" stroke="none" font-size="313.3333" font-family="sans-serif">2</text><text y="-26872" xml:space="preserve" x="-32762" stroke="none" font-size="433.3333" font-family="sans-serif">OH</text><text y="-24685" xml:space="preserve" x="-32762" stroke="none" font-size="433.3333" font-family="sans-serif">OH</text><text y="-29489" xml:space="preserve" x="-24211" stroke="none" font-size="433.3333" font-family="sans-serif">O</text><text y="-25211" xml:space="preserve" x="-29885" stroke="none" font-size="433.3333" font-family="sans-serif">O</text><text y="-28397" xml:space="preserve" x="-26101" stroke="none" font-size="433.3333" font-family="sans-serif">H</text><text y="-25823" xml:space="preserve" x="-28978" stroke="none" font-size="433.3333" font-family="sans-serif">H</text><text y="-24988" xml:space="preserve" x="-23379" stroke="none" font-style="italic" font-size="313.3333" font-family="sans-serif">S</text><text y="-26205" xml:space="preserve" x="-26349" stroke="none" font-style="italic" font-size="313.3333" font-family="sans-serif">S</text><text y="-25355" xml:space="preserve" x="-26349" stroke="none" font-style="italic" font-size="313.3333" font-family="sans-serif">R</text><text y="-26612" xml:space="preserve" x="-27086" stroke="none" font-style="italic" font-size="313.3333" font-family="sans-serif">S</text><text y="-26205" xml:space="preserve" x="-27822" stroke="none" font-style="italic" font-size="313.3333" font-family="sans-serif">R</text><text y="-25355" xml:space="preserve" x="-27822" stroke="none" font-style="italic" font-size="313.3333" font-family="sans-serif">S</text><text y="-28776" xml:space="preserve" x="-24948" stroke="none" font-style="italic" font-size="313.3333" font-family="sans-serif">S</text><text y="-29631" xml:space="preserve" x="-25930" stroke="none" font-style="italic" font-size="313.3333" font-family="sans-serif">R</text><text y="-30480" xml:space="preserve" x="-24460" stroke="none" font-style="italic" font-size="313.3333" font-family="sans-serif">R</text><text y="-30483" xml:space="preserve" x="-25930" stroke="none" font-style="italic" font-size="313.3333" font-family="sans-serif">S</text><text y="-30893" xml:space="preserve" x="-25196" stroke="none" font-style="italic" font-size="313.3333" font-family="sans-serif">S</text><text y="-26650" xml:space="preserve" x="-29885" stroke="none" font-style="italic" font-size="313.3333" font-family="sans-serif">R</text><text y="-26612" xml:space="preserve" x="-30870" stroke="none" font-style="italic" font-size="313.3333" font-family="sans-serif">R</text><text y="-24945" xml:space="preserve" x="-30870" stroke="none" font-style="italic" font-size="313.3333" font-family="sans-serif">R</text><text y="-26205" xml:space="preserve" x="-31607" stroke="none" font-style="italic" font-size="313.3333" font-family="sans-serif">S</text><text y="-25355" xml:space="preserve" x="-31607" stroke="none" font-style="italic" font-size="313.3333" font-family="sans-serif">S</text></g></g></svg>