<svg width="257.82" viewBox="0 0 8594 3190" text-rendering="auto" stroke-width="1" stroke-opacity="1" stroke-miterlimit="10" stroke-linejoin="miter" stroke-linecap="square" stroke-dashoffset="0" stroke-dasharray="none" stroke="black" shape-rendering="auto" image-rendering="auto" height="95.7" font-weight="normal" font-style="normal" font-size="12" font-family="'Dialog'" fill-opacity="1" fill="black" color-rendering="auto" color-interpolation="auto" xmlns="http://www.w3.org/2000/svg"><g><g stroke="white" fill="white"><rect y="0" x="0" width="8594" stroke="none" height="3190"/></g><g transform="translate(32866,32758)" text-rendering="geometricPrecision" stroke-width="44" stroke-linejoin="round" stroke-linecap="round"><line y2="-30850" y1="-31376" x2="-28981" x1="-29888" fill="none"/><line y2="-30850" y1="-31376" x2="-30795" x1="-29888" fill="none"/><line y2="-32063" y1="-31376" x2="-29489" x1="-29888" fill="none"/><line y2="-32063" y1="-31376" x2="-30287" x1="-29888" fill="none"/><line y2="-31376" y1="-30850" x2="-28074" x1="-28981" fill="none"/><line y2="-30960" y1="-31376" x2="-27354" x1="-28074" fill="none"/><line y2="-31376" y1="-30960" x2="-26260" x1="-26979" fill="none"/><line y2="-30162" y1="-30850" x2="-28582" x1="-28981" fill="none"/><line y2="-30162" y1="-30850" x2="-29380" x1="-28981" fill="none"/><line y2="-31376" y1="-30850" x2="-31702" x1="-30795" fill="none"/><line y2="-30162" y1="-30850" x2="-31194" x1="-30795" fill="none"/><line y2="-30162" y1="-30850" x2="-30396" x1="-30795" fill="none"/><line y2="-30850" y1="-31376" x2="-25352" x1="-26260" fill="none"/><line y2="-31376" y1="-30850" x2="-24445" x1="-25352" fill="none"/><line y2="-31254" y1="-30732" x2="-24376" x1="-25283" fill="none"/><line y2="-32202" y1="-31376" x2="-26329" x1="-26329" fill="none"/><line y2="-32202" y1="-31376" x2="-26190" x1="-26190" fill="none"/><line y2="-30960" y1="-31376" x2="-32422" x1="-31702" fill="none"/><line y2="-32202" y1="-31376" x2="-31702" x1="-31702" fill="none"/><text y="-32104" xml:space="preserve" x="-29515" stroke="none" font-size="433.3333" font-family="sans-serif">F</text><text y="-32104" xml:space="preserve" x="-30564" stroke="none" font-size="433.3333" font-family="sans-serif">F</text><text y="-29764" xml:space="preserve" x="-31471" stroke="none" font-size="433.3333" font-family="sans-serif">F</text><text y="-29764" xml:space="preserve" x="-30422" stroke="none" font-size="433.3333" font-family="sans-serif">F</text><text y="-29764" xml:space="preserve" x="-28608" stroke="none" font-size="433.3333" font-family="sans-serif">F</text><text y="-29764" xml:space="preserve" x="-29657" stroke="none" font-size="433.3333" font-family="sans-serif">F</text><text y="-30671" xml:space="preserve" x="-32762" stroke="none" font-size="433.3333" font-family="sans-serif">F</text><text y="-32242" xml:space="preserve" x="-31855" stroke="none" font-size="433.3333" font-family="sans-serif">F</text><text y="-30671" xml:space="preserve" x="-27320" stroke="none" font-size="433.3333" font-family="sans-serif">O</text><text y="-32242" xml:space="preserve" x="-26413" stroke="none" font-size="433.3333" font-family="sans-serif">O</text></g></g></svg>