<svg width="551.37" viewBox="0 0 18379 1091" text-rendering="auto" stroke-width="1" stroke-opacity="1" stroke-miterlimit="10" stroke-linejoin="miter" stroke-linecap="square" stroke-dashoffset="0" stroke-dasharray="none" stroke="black" shape-rendering="auto" image-rendering="auto" height="32.73" font-weight="normal" font-style="normal" font-size="12" font-family="'Dialog'" fill-opacity="1" fill="black" color-rendering="auto" color-interpolation="auto" xmlns="http://www.w3.org/2000/svg"><g><g stroke="white" fill="white"><rect y="0" x="0" width="18379" stroke="none" height="1091"/></g><g transform="translate(32866,32866)" text-rendering="geometricPrecision" stroke-width="44" stroke-linejoin="round" stroke-linecap="round"><line y2="-32673" y1="-32673" x2="-27713" x1="-28761" fill="none"/><line y2="-32762" y1="-32762" x2="-27713" x1="-28761" fill="none"/><line y2="-32583" y1="-32583" x2="-27713" x1="-28761" fill="none"/><line y2="-32673" y1="-32673" x2="-29810" x1="-28761" fill="none"/><line y2="-32150" y1="-32673" x2="-30717" x1="-29810" fill="none"/><line y2="-32673" y1="-32150" x2="-31624" x1="-30717" fill="none"/><line y2="-32346" y1="-32673" x2="-32190" x1="-31624" fill="none"/><line y2="-32673" y1="-32673" x2="-26667" x1="-27713" fill="none"/><line y2="-32673" y1="-32673" x2="-25618" x1="-26667" fill="none"/><line y2="-32762" y1="-32762" x2="-25618" x1="-26667" fill="none"/><line y2="-32583" y1="-32583" x2="-25618" x1="-26667" fill="none"/><line y2="-32673" y1="-32673" x2="-24570" x1="-25618" fill="none"/><line y2="-32150" y1="-32673" x2="-23662" x1="-24570" fill="none"/><line y2="-32673" y1="-32150" x2="-22755" x1="-23662" fill="none"/><line y2="-32150" y1="-32673" x2="-21848" x1="-22755" fill="none"/><line y2="-32673" y1="-32150" x2="-20941" x1="-21848" fill="none"/><line y2="-32150" y1="-32673" x2="-20034" x1="-20941" fill="none"/><line y2="-32673" y1="-32150" x2="-19127" x1="-20034" fill="none"/><line y2="-32150" y1="-32673" x2="-18220" x1="-19127" fill="none"/><line y2="-32673" y1="-32150" x2="-17313" x1="-18220" fill="none"/><line y2="-32150" y1="-32673" x2="-16406" x1="-17313" fill="none"/><line y2="-32673" y1="-32150" x2="-15498" x1="-16406" fill="none"/><line y2="-32150" y1="-32673" x2="-14591" x1="-15498" fill="none"/><text y="-31971" xml:space="preserve" x="-32762" stroke="none" font-size="433.3333" font-family="sans-serif">Br</text></g></g></svg>