<svg width="298.95" viewBox="0 0 9965 4817" text-rendering="auto" stroke-width="1" stroke-opacity="1" stroke-miterlimit="10" stroke-linejoin="miter" stroke-linecap="square" stroke-dashoffset="0" stroke-dasharray="none" stroke="black" shape-rendering="auto" image-rendering="auto" height="144.51" font-weight="normal" font-style="normal" font-size="12" font-family="'Dialog'" fill-opacity="1" fill="black" color-rendering="auto" color-interpolation="auto" xmlns="http://www.w3.org/2000/svg"><g><g stroke="white" fill="white"><rect y="0" x="0" width="9965" stroke="none" height="4817"/></g><g transform="translate(32866,32758)" text-rendering="geometricPrecision" stroke-width="44" stroke-linejoin="round" stroke-linecap="round"><line y2="-30084" y1="-30547" x2="-28259" x1="-29056" fill="none"/><line y2="-28839" y1="-29758" x2="-28071" x1="-28071" fill="none"/><line y2="-30547" y1="-30084" x2="-29056" x1="-29853" fill="none"/><line y2="-28270" y1="-28839" x2="-29056" x1="-28071" fill="none"/><line y2="-28490" y1="-28914" x2="-29018" x1="-28279" fill="none"/><line y2="-29758" y1="-28839" x2="-30041" x1="-30041" fill="none"/><line y2="-29642" y1="-28955" x2="-29871" x1="-29871" fill="none"/><line y2="-28839" y1="-28270" x2="-30041" x1="-29056" fill="none"/><line y2="-28536" y1="-28839" x2="-30570" x1="-30041" fill="none"/><line y2="-28839" y1="-28423" x2="-31855" x1="-31136" fill="none"/><line y2="-31373" y1="-30547" x2="-29125" x1="-29125" fill="none"/><line y2="-31373" y1="-30547" x2="-28987" x1="-28987" fill="none"/><line y2="-30500" y1="-29949" x2="-27164" x1="-26453" fill="none"/><line y2="-31564" y1="-30500" x2="-26797" x1="-27164" fill="none"/><line y2="-29943" y1="-30500" x2="-26078" x1="-25324" fill="none"/><line y2="-31564" y1="-31564" x2="-25650" x1="-26797" fill="none"/><line y2="-30500" y1="-31564" x2="-25324" x1="-25650" fill="none"/><line y2="-30394" y1="-29978" x2="-23697" x1="-24416" fill="none"/><line y2="-28316" y1="-28839" x2="-32762" x1="-31855" fill="none"/><line y2="-29668" y1="-28839" x2="-31928" x1="-31928" fill="none"/><line y2="-29668" y1="-28839" x2="-31786" x1="-31786" fill="none"/><polygon stroke-width="1" stroke="none" points=" -27848 -30024 -27164 -30500 -27918 -30145"/><polygon stroke-width="1" points=" -27848 -30024 -27164 -30500 -27918 -30145" fill="none"/><polygon stroke-width="1" stroke="none" points=" -25324 -30500 -24382 -30038 -24448 -29917"/><polygon stroke-width="1" points=" -25324 -30500 -24382 -30038 -24448 -29917" fill="none"/><line y2="-32242" y1="-32162" x2="-27187" x1="-27300" fill="none"/><line y2="-32053" y1="-31996" x2="-27078" x1="-27160" fill="none"/><line y2="-31865" y1="-31829" x2="-26970" x1="-27020" fill="none"/><line y2="-31676" y1="-31663" x2="-26861" x1="-26880" fill="none"/><line y2="-32153" y1="-32234" x2="-25136" x1="-25248" fill="none"/><line y2="-31989" y1="-32048" x2="-25279" x1="-25360" fill="none"/><line y2="-31825" y1="-31861" x2="-25422" x1="-25472" fill="none"/><line y2="-31661" y1="-31675" x2="-25565" x1="-25584" fill="none"/><text y="-32242" xml:space="preserve" x="-27551" stroke="none" font-size="433.3333" font-family="sans-serif">OH</text><text y="-31413" xml:space="preserve" x="-29206" stroke="none" font-size="433.3333" font-family="sans-serif">O</text><text y="-30321" xml:space="preserve" x="-23660" stroke="none" font-size="433.3333" font-family="sans-serif">OH</text><text y="-32234" xml:space="preserve" x="-25185" stroke="none" font-size="433.3333" font-family="sans-serif">OH</text><text y="-28137" xml:space="preserve" x="-31101" stroke="none" font-size="433.3333" font-family="sans-serif">NH</text><text y="-29709" xml:space="preserve" x="-32008" stroke="none" font-size="433.3333" font-family="sans-serif">O</text><text y="-29625" xml:space="preserve" x="-26416" stroke="none" font-size="433.3333" font-family="sans-serif">O</text><text y="-29798" xml:space="preserve" x="-28224" stroke="none" font-size="433.3333" font-family="sans-serif">N</text><text y="-29798" xml:space="preserve" x="-30194" stroke="none" font-size="433.3333" font-family="sans-serif">N</text><text y="-30420" xml:space="preserve" x="-27048" stroke="none" font-style="italic" font-size="313.3333" font-family="sans-serif">R</text><text y="-31098" xml:space="preserve" x="-26716" stroke="none" font-style="italic" font-size="313.3333" font-family="sans-serif">R</text><text y="-30396" xml:space="preserve" x="-25751" stroke="none" font-style="italic" font-size="313.3333" font-family="sans-serif">R</text><text y="-31098" xml:space="preserve" x="-26034" stroke="none" font-style="italic" font-size="313.3333" font-family="sans-serif">S</text></g></g></svg>