<svg width="327.75" viewBox="0 0 10925 4560" text-rendering="auto" stroke-width="1" stroke-opacity="1" stroke-miterlimit="10" stroke-linejoin="miter" stroke-linecap="square" stroke-dashoffset="0" stroke-dasharray="none" stroke="black" shape-rendering="auto" image-rendering="auto" height="136.8" font-weight="normal" font-style="normal" font-size="12" font-family="'Dialog'" fill-opacity="1" fill="black" color-rendering="auto" color-interpolation="auto" xmlns="http://www.w3.org/2000/svg"><g><g stroke="white" fill="white"><rect y="0" x="0" width="10925" stroke="none" height="4560"/></g><g transform="translate(32866,32758)" text-rendering="geometricPrecision" stroke-width="44" stroke-linejoin="round" stroke-linecap="round"><line y2="-30235" y1="-30804" x2="-29654" x1="-30639" fill="none"/><line y2="-30160" y1="-30587" x2="-29862" x1="-30602" fill="none"/><line y2="-29096" y1="-30235" x2="-29654" x1="-29654" fill="none"/><line y2="-30804" y1="-30235" x2="-30639" x1="-31624" fill="none"/><line y2="-28530" y1="-29096" x2="-30639" x1="-29654" fill="none"/><line y2="-28747" y1="-29174" x2="-30602" x1="-29862" fill="none"/><line y2="-30235" y1="-29096" x2="-31624" x1="-31624" fill="none"/><line y2="-30093" y1="-29241" x2="-31454" x1="-31454" fill="none"/><line y2="-29096" y1="-28530" x2="-31624" x1="-30639" fill="none"/><line y2="-30651" y1="-30235" x2="-28935" x1="-29654" fill="none"/><line y2="-30235" y1="-30651" x2="-27840" x1="-28559" fill="none"/><line y2="-30758" y1="-30235" x2="-26933" x1="-27840" fill="none"/><line y2="-30344" y1="-30758" x2="-26213" x1="-26933" fill="none"/><line y2="-30758" y1="-30344" x2="-25118" x1="-25838" fill="none"/><line y2="-31633" y1="-30804" x2="-30639" x1="-30639" fill="none"/><line y2="-28770" y1="-29096" x2="-29088" x1="-29654" fill="none"/><line y2="-28770" y1="-29096" x2="-32190" x1="-31624" fill="none"/><line y2="-31896" y1="-30758" x2="-25118" x1="-25118" fill="none"/><line y2="-31754" y1="-30902" x2="-24948" x1="-24948" fill="none"/><line y2="-30758" y1="-30191" x2="-25118" x1="-24130" fill="none"/><line y2="-32465" y1="-31896" x2="-24130" x1="-25118" fill="none"/><line y2="-30191" y1="-30758" x2="-24130" x1="-23148" fill="none"/><line y2="-30408" y1="-30836" x2="-24093" x1="-23356" fill="none"/><line y2="-31896" y1="-32465" x2="-23148" x1="-24130" fill="none"/><line y2="-31821" y1="-32248" x2="-23356" x1="-24093" fill="none"/><line y2="-30758" y1="-31896" x2="-23148" x1="-23148" fill="none"/><line y2="-32222" y1="-31896" x2="-25685" x1="-25118" fill="none"/><line y2="-29362" y1="-30191" x2="-24130" x1="-24130" fill="none"/><line y2="-32225" y1="-31896" x2="-22582" x1="-23148" fill="none"/><text y="-30578" xml:space="preserve" x="-28900" stroke="none" font-size="433.3333" font-family="sans-serif">O</text><text y="-30056" xml:space="preserve" x="-26179" stroke="none" font-size="433.3333" font-family="sans-serif">O</text><text y="-31673" xml:space="preserve" x="-30870" stroke="none" font-size="433.3333" font-family="sans-serif">Br</text><text y="-28394" xml:space="preserve" x="-28978" stroke="none" font-size="433.3333" font-family="sans-serif">Br</text><text y="-28394" xml:space="preserve" x="-32762" stroke="none" font-size="433.3333" font-family="sans-serif">Br</text><text y="-32242" xml:space="preserve" x="-26257" stroke="none" font-size="433.3333" font-family="sans-serif">Br</text><text y="-28964" xml:space="preserve" x="-24364" stroke="none" font-size="433.3333" font-family="sans-serif">Br</text><text y="-32242" xml:space="preserve" x="-22472" stroke="none" font-size="433.3333" font-family="sans-serif">Br</text></g></g></svg>