<svg width="275.34" viewBox="0 0 9178 5063" text-rendering="auto" stroke-width="1" stroke-opacity="1" stroke-miterlimit="10" stroke-linejoin="miter" stroke-linecap="square" stroke-dashoffset="0" stroke-dasharray="none" stroke="black" shape-rendering="auto" image-rendering="auto" height="151.89" font-weight="normal" font-style="normal" font-size="12" font-family="'Dialog'" fill-opacity="1" fill="black" color-rendering="auto" color-interpolation="auto" xmlns="http://www.w3.org/2000/svg"><g><g stroke="white" fill="white"><rect y="0" x="0" width="9178" stroke="none" height="5063"/></g><g transform="translate(32866,32866)" text-rendering="geometricPrecision" stroke-width="44" stroke-linejoin="round" stroke-linecap="round"><line y2="-28750" y1="-29325" x2="-28756" x1="-27773" fill="none"/><line y2="-30469" y1="-29325" x2="-27773" x1="-27773" fill="none"/><line y2="-29325" y1="-28750" x2="-27773" x1="-26791" fill="none"/><line y2="-29325" y1="-28750" x2="-29738" x1="-28756" fill="none"/><line y2="-31044" y1="-30469" x2="-26791" x1="-27773" fill="none"/><line y2="-30469" y1="-31044" x2="-27773" x1="-28756" fill="none"/><line y2="-28750" y1="-29325" x2="-26791" x1="-25809" fill="none"/><line y2="-30469" y1="-29325" x2="-29738" x1="-29738" fill="none"/><line y2="-29325" y1="-29325" x2="-31702" x1="-29738" fill="none"/><line y2="-29495" y1="-29495" x2="-31457" x1="-29983" fill="none"/><line y2="-30469" y1="-31044" x2="-25809" x1="-26791" fill="none"/><line y2="-32190" y1="-31044" x2="-26791" x1="-26791" fill="none"/><line y2="-31044" y1="-30469" x2="-28756" x1="-29738" fill="none"/><line y2="-30824" y1="-30394" x2="-28790" x1="-29530" fill="none"/><line y2="-29325" y1="-30469" x2="-25809" x1="-25809" fill="none"/><line y2="-30469" y1="-30934" x2="-29738" x1="-30532" fill="none"/><line y2="-30469" y1="-29325" x2="-31702" x1="-31702" fill="none"/><line y2="-30469" y1="-31044" x2="-25809" x1="-24824" fill="none"/><line y2="-32762" y1="-32190" x2="-25809" x1="-26791" fill="none"/><line y2="-30934" y1="-30469" x2="-30908" x1="-31702" fill="none"/><line y2="-31044" y1="-32190" x2="-24824" x1="-24824" fill="none"/><line y2="-32190" y1="-32762" x2="-24824" x1="-25809" fill="none"/><line y2="-30058" y1="-31044" x2="-24466" x1="-24824" fill="none"/><line y2="-31226" y1="-31044" x2="-23792" x1="-24824" fill="none"/><line y2="-28582" y1="-29325" x2="-32445" x1="-31702" fill="none"/><line y2="-30824" y1="-30408" x2="-32456" x1="-31737" fill="none"/><line y2="-30945" y1="-30529" x2="-32387" x1="-31668" fill="none"/><polygon stroke-width="1" stroke="none" points=" -26791 -31044 -26722 -29995 -26858 -29995"/><polygon stroke-width="1" points=" -26791 -31044 -26722 -29995 -26858 -29995" fill="none"/><line y2="-28394" y1="-28397" x2="-27843" x1="-27704" fill="none"/><line y2="-28611" y1="-28613" x2="-27827" x1="-27720" fill="none"/><line y2="-28828" y1="-28830" x2="-27810" x1="-27736" fill="none"/><line y2="-29045" y1="-29046" x2="-27794" x1="-27752" fill="none"/><line y2="-29262" y1="-29262" x2="-27778" x1="-27768" fill="none"/><line y2="-28227" y1="-28345" x2="-27996" x1="-27926" fill="none"/><line y2="-28350" y1="-28440" x2="-28175" x1="-28121" fill="none"/><line y2="-28473" y1="-28536" x2="-28354" x1="-28317" fill="none"/><line y2="-28596" y1="-28631" x2="-28533" x1="-28512" fill="none"/><line y2="-28719" y1="-28726" x2="-28712" x1="-28707" fill="none"/><line y2="-31298" y1="-31298" x2="-27704" x1="-27843" fill="none"/><line y2="-31081" y1="-31081" x2="-27722" x1="-27825" fill="none"/><line y2="-30865" y1="-30865" x2="-27740" x1="-27806" fill="none"/><line y2="-30648" y1="-30648" x2="-27758" x1="-27788" fill="none"/><line y2="-31298" y1="-31298" x2="-25740" x1="-25875" fill="none"/><line y2="-31081" y1="-31081" x2="-25758" x1="-25858" fill="none"/><line y2="-30865" y1="-30865" x2="-25776" x1="-25841" fill="none"/><line y2="-30648" y1="-30648" x2="-25794" x1="-25823" fill="none"/><text y="-30815" xml:space="preserve" x="-32762" stroke="none" font-size="433.3333" font-family="sans-serif">O</text><text y="-27999" xml:space="preserve" x="-27924" stroke="none" font-size="433.3333" font-family="sans-serif">O</text><text y="-30864" xml:space="preserve" x="-30873" stroke="none" font-size="433.3333" font-family="sans-serif">O</text><text y="-31338" xml:space="preserve" x="-27924" stroke="none" font-size="433.3333" font-family="sans-serif">H</text><text y="-31338" xml:space="preserve" x="-25959" stroke="none" font-size="433.3333" font-family="sans-serif">H</text><text y="-29290" xml:space="preserve" x="-28172" stroke="none" font-style="italic" font-size="313.3333" font-family="sans-serif">S</text><text y="-28874" xml:space="preserve" x="-28906" stroke="none" font-style="italic" font-size="313.3333" font-family="sans-serif">R</text><text y="-30148" xml:space="preserve" x="-27675" stroke="none" font-style="italic" font-size="313.3333" font-family="sans-serif">S</text><text y="-31006" xml:space="preserve" x="-27190" stroke="none" font-style="italic" font-size="313.3333" font-family="sans-serif">R</text><text y="-30148" xml:space="preserve" x="-25711" stroke="none" font-style="italic" font-size="313.3333" font-family="sans-serif">R</text></g></g></svg>