<svg width="202.23" viewBox="0 0 6741 3947" text-rendering="auto" stroke-width="1" stroke-opacity="1" stroke-miterlimit="10" stroke-linejoin="miter" stroke-linecap="square" stroke-dashoffset="0" stroke-dasharray="none" stroke="black" shape-rendering="auto" image-rendering="auto" height="118.41" font-weight="normal" font-style="normal" font-size="12" font-family="'Dialog'" fill-opacity="1" fill="black" color-rendering="auto" color-interpolation="auto" xmlns="http://www.w3.org/2000/svg"><g><g stroke="white" fill="white"><rect y="0" x="0" width="6741" stroke="none" height="3947"/></g><g transform="translate(32866,32758)" text-rendering="geometricPrecision" stroke-width="44" stroke-linejoin="round" stroke-linecap="round"><line y2="-30847" y1="-31416" x2="-28545" x1="-29527" fill="none"/><line y2="-30772" y1="-31200" x2="-28753" x1="-29489" fill="none"/><line y2="-29712" y1="-30847" x2="-28545" x1="-28545" fill="none"/><line y2="-31416" y1="-30847" x2="-29527" x1="-30515" fill="none"/><line y2="-29143" y1="-29712" x2="-29527" x1="-28545" fill="none"/><line y2="-29359" y1="-29787" x2="-29489" x1="-28753" fill="none"/><line y2="-30847" y1="-29712" x2="-30515" x1="-30515" fill="none"/><line y2="-30706" y1="-29853" x2="-30344" x1="-30344" fill="none"/><line y2="-29712" y1="-29143" x2="-30515" x1="-29527" fill="none"/><line y2="-31373" y1="-30847" x2="-27638" x1="-28545" fill="none"/><line y2="-32465" y1="-31416" x2="-29527" x1="-29527" fill="none"/><line y2="-29186" y1="-29712" x2="-27638" x1="-28545" fill="none"/><line y2="-29296" y1="-29712" x2="-31234" x1="-30515" fill="none"/><line y2="-29544" y1="-29296" x2="-32040" x1="-31610" fill="none"/><line y2="-30957" y1="-31373" x2="-26918" x1="-27638" fill="none"/><line y2="-32202" y1="-31373" x2="-27707" x1="-27707" fill="none"/><line y2="-32202" y1="-31373" x2="-27568" x1="-27568" fill="none"/><text y="-30668" xml:space="preserve" x="-26884" stroke="none" font-size="433.3333" font-family="sans-serif">OH</text><text y="-32242" xml:space="preserve" x="-27791" stroke="none" font-size="433.3333" font-family="sans-serif">O</text><text y="-29007" xml:space="preserve" x="-31575" stroke="none" font-size="433.3333" font-family="sans-serif">O</text><text y="-29694" xml:space="preserve" x="-32762" stroke="none" font-size="433.3333" font-family="sans-serif">CH</text><text y="-29605" xml:space="preserve" x="-32185" stroke="none" font-size="313.3333" font-family="sans-serif">3</text></g></g></svg>