<svg width="208.5" viewBox="0 0 6950 5467" text-rendering="auto" stroke-width="1" stroke-opacity="1" stroke-miterlimit="10" stroke-linejoin="miter" stroke-linecap="square" stroke-dashoffset="0" stroke-dasharray="none" stroke="black" shape-rendering="auto" image-rendering="auto" height="164.01" font-weight="normal" font-style="normal" font-size="12" font-family="'Dialog'" fill-opacity="1" fill="black" color-rendering="auto" color-interpolation="auto" xmlns="http://www.w3.org/2000/svg"><g><g stroke="white" fill="white"><rect y="0" x="0" width="6950" stroke="none" height="5467"/></g><g transform="translate(32866,32758)" text-rendering="geometricPrecision" stroke-width="44" stroke-linejoin="round" stroke-linecap="round"><line y2="-29668" y1="-29099" x2="-27990" x1="-28978" fill="none"/><line y2="-29099" y1="-27964" x2="-28978" x1="-28978" fill="none"/><line y2="-28958" y1="-28106" x2="-28808" x1="-28808" fill="none"/><line y2="-29099" y1="-29668" x2="-28978" x1="-29960" fill="none"/><line y2="-29099" y1="-29668" x2="-27008" x1="-27990" fill="none"/><line y2="-29024" y1="-29452" x2="-27213" x1="-27952" fill="none"/><line y2="-30587" y1="-29668" x2="-27990" x1="-27990" fill="none"/><line y2="-27964" y1="-27964" x2="-30760" x1="-28978" fill="none"/><line y2="-27964" y1="-27395" x2="-28978" x1="-27990" fill="none"/><line y2="-29668" y1="-29099" x2="-29960" x1="-30948" fill="none"/><line y2="-27964" y1="-29099" x2="-27008" x1="-27008" fill="none"/><line y2="-29099" y1="-29668" x2="-27008" x1="-26020" fill="none"/><line y2="-31376" y1="-30914" x2="-27008" x1="-27802" fill="none"/><line y2="-29099" y1="-28184" x2="-30948" x1="-30948" fill="none"/><line y2="-27395" y1="-27964" x2="-27990" x1="-27008" fill="none"/><line y2="-27612" y1="-28039" x2="-27952" x1="-27213" fill="none"/><line y2="-29668" y1="-30807" x2="-26020" x1="-26020" fill="none"/><line y2="-29810" y1="-30665" x2="-26190" x1="-26190" fill="none"/><line y2="-30807" y1="-31376" x2="-26020" x1="-27008" fill="none"/><line y2="-32202" y1="-31376" x2="-27077" x1="-27077" fill="none"/><line y2="-32202" y1="-31376" x2="-26936" x1="-26936" fill="none"/><line y2="-29099" y1="-29625" x2="-32762" x1="-31855" fill="none"/><line y2="-30532" y1="-29625" x2="-32378" x1="-31855" fill="none"/><line y2="-30313" y1="-29625" x2="-31457" x1="-31855" fill="none"/><line y2="-29683" y1="-29564" x2="-31821" x1="-31890" fill="none"/><line y2="-29562" y1="-29468" x2="-31641" x1="-31695" fill="none"/><line y2="-29442" y1="-29372" x2="-31460" x1="-31501" fill="none"/><line y2="-29321" y1="-29276" x2="-31280" x1="-31306" fill="none"/><line y2="-29200" y1="-29180" x2="-31099" x1="-31111" fill="none"/><text y="-30353" xml:space="preserve" x="-31483" stroke="none" font-size="433.3333" font-family="sans-serif">OH</text><text y="-32242" xml:space="preserve" x="-27158" stroke="none" font-size="433.3333" font-family="sans-serif">O</text><text y="-30628" xml:space="preserve" x="-28143" stroke="none" font-size="433.3333" font-family="sans-serif">O</text><text y="-27785" xml:space="preserve" x="-31101" stroke="none" font-size="433.3333" font-family="sans-serif">O</text><text y="-28779" xml:space="preserve" x="-30853" stroke="none" font-style="italic" font-size="313.3333" font-family="sans-serif">S</text></g></g></svg>