<svg width="188.28" viewBox="0 0 6276 6007" text-rendering="auto" stroke-width="1" stroke-opacity="1" stroke-miterlimit="10" stroke-linejoin="miter" stroke-linecap="square" stroke-dashoffset="0" stroke-dasharray="none" stroke="black" shape-rendering="auto" image-rendering="auto" height="180.21" font-weight="normal" font-style="normal" font-size="12" font-family="'Dialog'" fill-opacity="1" fill="black" color-rendering="auto" color-interpolation="auto" xmlns="http://www.w3.org/2000/svg"><g><g stroke="white" fill="white"><rect y="0" x="0" width="6276" stroke="none" height="6007"/></g><g transform="translate(32866,32758)" text-rendering="geometricPrecision" stroke-width="44" stroke-linejoin="round" stroke-linecap="round"><line y2="-29894" y1="-28747" x2="-29738" x1="-29738" fill="none"/><line y2="-29752" y1="-28891" x2="-29567" x1="-29567" fill="none"/><line y2="-28747" y1="-28175" x2="-29738" x1="-28756" fill="none"/><line y2="-28175" y1="-28747" x2="-30720" x1="-29738" fill="none"/><line y2="-30469" y1="-29894" x2="-28756" x1="-29738" fill="none"/><line y2="-29894" y1="-30469" x2="-29738" x1="-30720" fill="none"/><line y2="-28175" y1="-28747" x2="-28756" x1="-27773" fill="none"/><line y2="-28394" y1="-28822" x2="-28718" x1="-27981" fill="none"/><line y2="-28747" y1="-28175" x2="-31702" x1="-30720" fill="none"/><line y2="-28822" y1="-28394" x2="-31494" x1="-30758" fill="none"/><line y2="-29894" y1="-30469" x2="-27773" x1="-28756" fill="none"/><line y2="-29819" y1="-30249" x2="-27981" x1="-28718" fill="none"/><line y2="-30469" y1="-29894" x2="-30720" x1="-31702" fill="none"/><line y2="-30249" y1="-29819" x2="-30758" x1="-31494" fill="none"/><line y2="-28747" y1="-29894" x2="-27773" x1="-27773" fill="none"/><line y2="-29894" y1="-28747" x2="-31702" x1="-31702" fill="none"/><line y2="-31514" y1="-30469" x2="-28756" x1="-28756" fill="none"/><line y2="-27346" y1="-28175" x2="-28756" x1="-28756" fill="none"/><line y2="-27346" y1="-28175" x2="-30720" x1="-30720" fill="none"/><line y2="-31295" y1="-30469" x2="-30720" x1="-30720" fill="none"/><line y2="-28334" y1="-28747" x2="-27054" x1="-27773" fill="none"/><line y2="-28334" y1="-28747" x2="-32422" x1="-31702" fill="none"/><line y2="-30310" y1="-29894" x2="-27054" x1="-27773" fill="none"/><line y2="-30310" y1="-29894" x2="-32422" x1="-31702" fill="none"/><line y2="-31930" y1="-31514" x2="-28036" x1="-28756" fill="none"/><line y2="-32202" y1="-31514" x2="-29154" x1="-28756" fill="none"/><line y2="-31514" y1="-31514" x2="-29616" x1="-28756" fill="none"/><text y="-31861" xml:space="preserve" x="-28002" stroke="none" font-size="433.3333" font-family="sans-serif">D</text><text y="-32242" xml:space="preserve" x="-29432" stroke="none" font-size="433.3333" font-family="sans-serif">D</text><text y="-31335" xml:space="preserve" x="-29954" stroke="none" font-size="433.3333" font-family="sans-serif">D</text><text y="-26947" xml:space="preserve" x="-28909" stroke="none" font-size="433.3333" font-family="sans-serif">D</text><text y="-26947" xml:space="preserve" x="-30873" stroke="none" font-size="433.3333" font-family="sans-serif">D</text><text y="-31335" xml:space="preserve" x="-30873" stroke="none" font-size="433.3333" font-family="sans-serif">D</text><text y="-28045" xml:space="preserve" x="-27019" stroke="none" font-size="433.3333" font-family="sans-serif">D</text><text y="-28045" xml:space="preserve" x="-32762" stroke="none" font-size="433.3333" font-family="sans-serif">D</text><text y="-30240" xml:space="preserve" x="-27019" stroke="none" font-size="433.3333" font-family="sans-serif">D</text><text y="-30240" xml:space="preserve" x="-32762" stroke="none" font-size="433.3333" font-family="sans-serif">D</text></g></g></svg>