<svg width="432.54" viewBox="0 0 14418 6537" text-rendering="auto" stroke-width="1" stroke-opacity="1" stroke-miterlimit="10" stroke-linejoin="miter" stroke-linecap="square" stroke-dashoffset="0" stroke-dasharray="none" stroke="black" shape-rendering="auto" image-rendering="auto" height="196.11" font-weight="normal" font-style="normal" font-size="12" font-family="'Dialog'" fill-opacity="1" fill="black" color-rendering="auto" color-interpolation="auto" xmlns="http://www.w3.org/2000/svg"><g><g stroke="white" fill="white"><rect y="0" x="0" width="14418" stroke="none" height="6537"/></g><g transform="translate(32866,32866)" text-rendering="geometricPrecision" stroke-width="44" stroke-linejoin="round" stroke-linecap="round"><line y2="-30668" y1="-30093" x2="-25809" x1="-26791" fill="none"/><line y2="-30093" y1="-30668" x2="-24827" x1="-25809" fill="none"/><line y2="-28946" y1="-30093" x2="-26791" x1="-26791" fill="none"/><line y2="-30093" y1="-30668" x2="-26791" x1="-27773" fill="none"/><line y2="-28946" y1="-30093" x2="-24827" x1="-24827" fill="none"/><line y2="-28946" y1="-28946" x2="-26791" x1="-24827" fill="none"/><line y2="-28374" y1="-28946" x2="-27773" x1="-26791" fill="none"/><line y2="-30668" y1="-30093" x2="-27773" x1="-28756" fill="none"/><line y2="-28946" y1="-28374" x2="-28756" x1="-27773" fill="none"/><line y2="-27227" y1="-28374" x2="-27773" x1="-27773" fill="none"/><line y2="-30093" y1="-28946" x2="-28756" x1="-28756" fill="none"/><line y2="-28946" y1="-28374" x2="-28756" x1="-29738" fill="none"/><line y2="-26655" y1="-27227" x2="-28756" x1="-27773" fill="none"/><line y2="-27227" y1="-28374" x2="-29738" x1="-29738" fill="none"/><line y2="-28374" y1="-28946" x2="-29738" x1="-30723" fill="none"/><line y2="-27227" y1="-26655" x2="-29738" x1="-28756" fill="none"/><line y2="-26655" y1="-27227" x2="-30723" x1="-29738" fill="none"/><line y2="-26872" y1="-27302" x2="-30685" x1="-29949" fill="none"/><line y2="-28946" y1="-28374" x2="-30723" x1="-31705" fill="none"/><line y2="-27227" y1="-26655" x2="-31705" x1="-30723" fill="none"/><line y2="-28374" y1="-27227" x2="-31705" x1="-31705" fill="none"/><line y2="-31714" y1="-30668" x2="-25809" x1="-25809" fill="none"/><line y2="-30668" y1="-31081" x2="-23995" x1="-24714" fill="none"/><line y2="-26751" y1="-27167" x2="-32387" x1="-31670" fill="none"/><line y2="-26872" y1="-27288" x2="-32459" x1="-31740" fill="none"/><line y2="-32762" y1="-31714" x2="-25809" x1="-25809" fill="none"/><line y2="-32762" y1="-31714" x2="-25898" x1="-25898" fill="none"/><line y2="-32762" y1="-31714" x2="-25719" x1="-25719" fill="none"/><line y2="-31191" y1="-30668" x2="-23088" x1="-23995" fill="none"/><line y2="-30668" y1="-31191" x2="-22180" x1="-23088" fill="none"/><line y2="-31191" y1="-30668" x2="-21273" x1="-22180" fill="none"/><line y2="-30668" y1="-31191" x2="-20366" x1="-21273" fill="none"/><line y2="-31191" y1="-30668" x2="-19459" x1="-20366" fill="none"/><line y2="-30668" y1="-31191" x2="-18552" x1="-19459" fill="none"/><line y2="-29839" y1="-30668" x2="-23925" x1="-23925" fill="none"/><line y2="-29839" y1="-30668" x2="-24064" x1="-24064" fill="none"/><polygon stroke-width="1" stroke="none" points=" -26791 -30093 -26860 -31142 -26722 -31142"/><polygon stroke-width="1" points=" -26791 -30093 -26860 -31142 -26722 -31142" fill="none"/><polygon stroke-width="1" stroke="none" points=" -25809 -30668 -25124 -31142 -25055 -31023"/><polygon stroke-width="1" points=" -25809 -30668 -25124 -31142 -25055 -31023" fill="none"/><polygon stroke-width="1" stroke="none" points=" -27773 -28374 -27843 -29200 -27704 -29203"/><polygon stroke-width="1" points=" -27773 -28374 -27843 -29200 -27704 -29203" fill="none"/><polygon stroke-width="1" stroke="none" points=" -29738 -28374 -29807 -29200 -29671 -29203"/><polygon stroke-width="1" points=" -29738 -28374 -29807 -29200 -29671 -29203" fill="none"/><line y2="-28117" y1="-28120" x2="-28825" x1="-28689" fill="none"/><line y2="-28334" y1="-28336" x2="-28807" x1="-28707" fill="none"/><line y2="-28551" y1="-28553" x2="-28789" x1="-28724" fill="none"/><line y2="-28768" y1="-28769" x2="-28771" x1="-28742" fill="none"/><line y2="-28117" y1="-28120" x2="-26860" x1="-26722" fill="none"/><line y2="-28334" y1="-28336" x2="-26842" x1="-26740" fill="none"/><line y2="-28551" y1="-28553" x2="-26824" x1="-26758" fill="none"/><line y2="-28768" y1="-28769" x2="-26806" x1="-26776" fill="none"/><text y="-31012" xml:space="preserve" x="-25055" stroke="none" font-size="433.3333" font-family="sans-serif">O</text><text y="-29440" xml:space="preserve" x="-24148" stroke="none" font-size="433.3333" font-family="sans-serif">O</text><text y="-26525" xml:space="preserve" x="-32762" stroke="none" font-size="433.3333" font-family="sans-serif">O</text><text y="-29244" xml:space="preserve" x="-27926" stroke="none" font-size="433.3333" font-family="sans-serif">H</text><text y="-27721" xml:space="preserve" x="-28909" stroke="none" font-size="433.3333" font-family="sans-serif">H</text><text y="-27721" xml:space="preserve" x="-26944" stroke="none" font-size="433.3333" font-family="sans-serif">H</text><text y="-29244" xml:space="preserve" x="-29891" stroke="none" font-size="433.3333" font-family="sans-serif">H</text><text y="-30186" xml:space="preserve" x="-25962" stroke="none" font-style="italic" font-size="313.3333" font-family="sans-serif">R</text><text y="-29772" xml:space="preserve" x="-26693" stroke="none" font-style="italic" font-size="313.3333" font-family="sans-serif">S</text><text y="-28912" xml:space="preserve" x="-27193" stroke="none" font-style="italic" font-size="313.3333" font-family="sans-serif">S</text><text y="-28051" xml:space="preserve" x="-27678" stroke="none" font-style="italic" font-size="313.3333" font-family="sans-serif">R</text><text y="-28912" xml:space="preserve" x="-28660" stroke="none" font-style="italic" font-size="313.3333" font-family="sans-serif">S</text><text y="-28051" xml:space="preserve" x="-29642" stroke="none" font-style="italic" font-size="313.3333" font-family="sans-serif">R</text></g></g></svg>