<svg width="182.58" viewBox="0 0 6086 3855" text-rendering="auto" stroke-width="1" stroke-opacity="1" stroke-miterlimit="10" stroke-linejoin="miter" stroke-linecap="square" stroke-dashoffset="0" stroke-dasharray="none" stroke="black" shape-rendering="auto" image-rendering="auto" height="115.65" font-weight="normal" font-style="normal" font-size="12" font-family="'Dialog'" fill-opacity="1" fill="black" color-rendering="auto" color-interpolation="auto" xmlns="http://www.w3.org/2000/svg"><g><g stroke="white" fill="white"><rect y="0" x="0" width="6086" stroke="none" height="3855"/></g><g transform="translate(32866,32758)" text-rendering="geometricPrecision" stroke-width="44" stroke-linejoin="round" stroke-linecap="round"><line y2="-30327" y1="-30850" x2="-29605" x1="-30512" fill="none"/><line y2="-30850" y1="-30850" x2="-31561" x1="-30512" fill="none"/><line y2="-31679" y1="-30853" x2="-30584" x1="-30584" fill="none"/><line y2="-31679" y1="-30850" x2="-30443" x1="-30443" fill="none"/><line y2="-32315" y1="-32008" x2="-29796" x1="-30324" fill="none"/><line y2="-30743" y1="-30327" x2="-28888" x1="-29605" fill="none"/><line y2="-30327" y1="-30743" x2="-27791" x1="-28510" fill="none"/><line y2="-30850" y1="-30327" x2="-26884" x1="-27791" fill="none"/><line y2="-29498" y1="-30327" x2="-29536" x1="-29536" fill="none"/><line y2="-29498" y1="-30327" x2="-29677" x1="-29677" fill="none"/><line y2="-30850" y1="-30850" x2="-32422" x1="-31561" fill="none"/><line y2="-30760" y1="-30760" x2="-32422" x1="-31561" fill="none"/><line y2="-30940" y1="-30940" x2="-32422" x1="-31561" fill="none"/><text y="-31720" xml:space="preserve" x="-30665" stroke="none" font-size="433.3333" font-family="sans-serif">N</text><text y="-30671" xml:space="preserve" x="-28851" stroke="none" font-size="433.3333" font-family="sans-serif">O</text><text y="-29099" xml:space="preserve" x="-29758" stroke="none" font-size="433.3333" font-family="sans-serif">O</text><text y="-30671" xml:space="preserve" x="-32762" stroke="none" font-size="433.3333" font-family="sans-serif">N</text><text y="-32242" xml:space="preserve" x="-29758" stroke="none" font-size="433.3333" font-family="sans-serif">OH</text></g></g></svg>