<svg width="132.93" viewBox="0 0 4431 6696" text-rendering="auto" stroke-width="1" stroke-opacity="1" stroke-miterlimit="10" stroke-linejoin="miter" stroke-linecap="square" stroke-dashoffset="0" stroke-dasharray="none" stroke="black" shape-rendering="auto" image-rendering="auto" height="200.88" font-weight="normal" font-style="normal" font-size="12" font-family="'Dialog'" fill-opacity="1" fill="black" color-rendering="auto" color-interpolation="auto" xmlns="http://www.w3.org/2000/svg"><g><g stroke="white" fill="white"><rect y="0" x="0" width="4431" stroke="none" height="6696"/></g><g transform="translate(32866,32866)" text-rendering="geometricPrecision" stroke-width="44" stroke-linejoin="round" stroke-linecap="round"><line y2="-31044" y1="-32190" x2="-30651" x1="-30651" fill="none"/><line y2="-31185" y1="-32046" x2="-30821" x1="-30821" fill="none"/><line y2="-32190" y1="-32762" x2="-30651" x1="-31633" fill="none"/><line y2="-32762" y1="-32190" x2="-29668" x1="-30651" fill="none"/><line y2="-31044" y1="-30469" x2="-30651" x1="-29668" fill="none"/><line y2="-30469" y1="-31044" x2="-31633" x1="-30651" fill="none"/><line y2="-32762" y1="-32190" x2="-31633" x1="-32615" fill="none"/><line y2="-32543" y1="-32115" x2="-31670" x1="-32407" fill="none"/><line y2="-32190" y1="-32762" x2="-28686" x1="-29668" fill="none"/><line y2="-32115" y1="-32543" x2="-28894" x1="-29631" fill="none"/><line y2="-30469" y1="-31044" x2="-29668" x1="-28686" fill="none"/><line y2="-30688" y1="-31119" x2="-29631" x1="-28894" fill="none"/><line y2="-31044" y1="-30469" x2="-32615" x1="-31633" fill="none"/><line y2="-31119" y1="-30688" x2="-32407" x1="-31670" fill="none"/><line y2="-32190" y1="-31044" x2="-32615" x1="-32615" fill="none"/><line y2="-31044" y1="-32190" x2="-28686" x1="-28686" fill="none"/><line y2="-26846" y1="-27262" x2="-29931" x1="-30651" fill="none"/><line y2="-26956" y1="-27262" x2="-31179" x1="-30651" fill="none"/><line y2="-28088" y1="-27262" x2="-30651" x1="-30651" fill="none"/><line y2="-28663" y1="-26274" x2="-32156" x1="-32156" fill="none"/><line y2="-28663" y1="-28663" x2="-31881" x1="-32156" fill="none"/><line y2="-26274" y1="-26274" x2="-31881" x1="-32156" fill="none"/><line y2="-28663" y1="-26274" x2="-28539" x1="-28539" fill="none"/><line y2="-28663" y1="-28663" x2="-28813" x1="-28539" fill="none"/><line y2="-26274" y1="-26274" x2="-28813" x1="-28539" fill="none"/><text y="-28129" xml:space="preserve" x="-30804" stroke="none" font-size="433.3333" font-family="sans-serif">D1</text><text y="-26557" xml:space="preserve" x="-29897" stroke="none" font-size="433.3333" font-family="sans-serif">CH</text><text y="-26468" xml:space="preserve" x="-29319" stroke="none" font-size="313.3333" font-family="sans-serif">3</text><text y="-26557" xml:space="preserve" x="-31711" stroke="none" font-size="433.3333" font-family="sans-serif">CH</text><text y="-26468" xml:space="preserve" x="-31133" stroke="none" font-size="313.3333" font-family="sans-serif">3</text><text y="-27288" xml:space="preserve" x="-32762" stroke="none" font-size="433.3333" font-family="sans-serif">2</text></g></g></svg>