<svg width="201.39" viewBox="0 0 6713 5344" text-rendering="auto" stroke-width="1" stroke-opacity="1" stroke-miterlimit="10" stroke-linejoin="miter" stroke-linecap="square" stroke-dashoffset="0" stroke-dasharray="none" stroke="black" shape-rendering="auto" image-rendering="auto" height="160.32" font-weight="normal" font-style="normal" font-size="12" font-family="'Dialog'" fill-opacity="1" fill="black" color-rendering="auto" color-interpolation="auto" xmlns="http://www.w3.org/2000/svg"><g><g stroke="white" fill="white"><rect y="0" x="0" width="6713" stroke="none" height="5344"/></g><g transform="translate(32866,32866)" text-rendering="geometricPrecision" stroke-width="44" stroke-linejoin="round" stroke-linecap="round"><line y2="-32193" y1="-31055" x2="-29134" x1="-29134" fill="none"/><line y2="-32052" y1="-31200" x2="-28964" x1="-28964" fill="none"/><line y2="-31055" y1="-30489" x2="-29134" x1="-28149" fill="none"/><line y2="-32762" y1="-32193" x2="-28149" x1="-29134" fill="none"/><line y2="-30489" y1="-31055" x2="-28149" x1="-27164" fill="none"/><line y2="-30706" y1="-31133" x2="-28111" x1="-27372" fill="none"/><line y2="-32193" y1="-32762" x2="-27164" x1="-28149" fill="none"/><line y2="-32118" y1="-32546" x2="-27372" x1="-28111" fill="none"/><line y2="-31055" y1="-32193" x2="-27164" x1="-27164" fill="none"/><line y2="-32719" y1="-32193" x2="-26257" x1="-27164" fill="none"/><line y2="-30642" y1="-31055" x2="-29853" x1="-29134" fill="none"/><line y2="-31055" y1="-30642" x2="-30948" x1="-30229" fill="none"/><line y2="-30532" y1="-31055" x2="-31855" x1="-30948" fill="none"/><line y2="-29484" y1="-30313" x2="-30041" x1="-30041" fill="none"/><line y2="-28946" y1="-29484" x2="-29143" x1="-30041" fill="none"/><line y2="-31055" y1="-30532" x2="-32762" x1="-31855" fill="none"/><line y2="-29703" y1="-30532" x2="-31855" x1="-31855" fill="none"/><line y2="-29469" y1="-28946" x2="-28236" x1="-29143" fill="none"/><line y2="-28117" y1="-28946" x2="-29143" x1="-29143" fill="none"/><text y="-30353" xml:space="preserve" x="-30194" stroke="none" font-size="433.3333" font-family="sans-serif">N</text><text y="-29304" xml:space="preserve" x="-32008" stroke="none" font-size="433.3333" font-family="sans-serif">OH</text><text y="-27718" xml:space="preserve" x="-29296" stroke="none" font-size="433.3333" font-family="sans-serif">OH</text></g></g></svg>