<svg width="238.98" viewBox="0 0 7966 4782" text-rendering="auto" stroke-width="1" stroke-opacity="1" stroke-miterlimit="10" stroke-linejoin="miter" stroke-linecap="square" stroke-dashoffset="0" stroke-dasharray="none" stroke="black" shape-rendering="auto" image-rendering="auto" height="143.46" font-weight="normal" font-style="normal" font-size="12" font-family="'Dialog'" fill-opacity="1" fill="black" color-rendering="auto" color-interpolation="auto" xmlns="http://www.w3.org/2000/svg"><g><g stroke="white" fill="white"><rect y="0" x="0" width="7966" stroke="none" height="4782"/></g><g transform="translate(32866,32758)" text-rendering="geometricPrecision" stroke-width="44" stroke-linejoin="round" stroke-linecap="round"><line y2="-29668" y1="-30587" x2="-29735" x1="-29735" fill="none"/><line y2="-29209" y1="-29668" x2="-30529" x1="-29735" fill="none"/><line y2="-29411" y1="-29758" x2="-30515" x1="-29920" fill="none"/><line y2="-30914" y1="-31376" x2="-29923" x1="-30717" fill="none"/><line y2="-30824" y1="-31171" x2="-30108" x1="-30703" fill="none"/><line y2="-29668" y1="-29209" x2="-31705" x1="-30905" fill="none"/><line y2="-31376" y1="-30914" x2="-30717" x1="-31517" fill="none"/><line y2="-30587" y1="-29668" x2="-31705" x1="-31705" fill="none"/><line y2="-30472" y1="-29784" x2="-31535" x1="-31535" fill="none"/><line y2="-29146" y1="-29668" x2="-28828" x1="-29735" fill="none"/><line y2="-29668" y1="-29146" x2="-27921" x1="-28828" fill="none"/><line y2="-29252" y1="-29668" x2="-27201" x1="-27921" fill="none"/><line y2="-32202" y1="-31376" x2="-30717" x1="-30717" fill="none"/><line y2="-29365" y1="-29668" x2="-32231" x1="-31705" fill="none"/><line y2="-29842" y1="-29284" x2="-26072" x1="-26826" fill="none"/><line y2="-28926" y1="-28080" x2="-26944" x1="-26684" fill="none"/><line y2="-29290" y1="-29842" x2="-25358" x1="-26072" fill="none"/><line y2="-29224" y1="-29637" x2="-25552" x1="-26086" fill="none"/><line y2="-28080" y1="-28080" x2="-26684" x1="-25537" fill="none"/><line y2="-28250" y1="-28250" x2="-26543" x1="-25682" fill="none"/><line y2="-28080" y1="-28926" x2="-25537" x1="-25246" fill="none"/><line y2="-30888" y1="-29842" x2="-26072" x1="-26072" fill="none"/><text y="-32242" xml:space="preserve" x="-30870" stroke="none" font-size="433.3333" font-family="sans-serif">NH</text><text y="-32153" xml:space="preserve" x="-30292" stroke="none" font-size="313.3333" font-family="sans-serif">2</text><text y="-28966" xml:space="preserve" x="-32762" stroke="none" font-size="433.3333" font-family="sans-serif">NH</text><text y="-28877" xml:space="preserve" x="-32185" stroke="none" font-size="313.3333" font-family="sans-serif">2</text><text y="-28966" xml:space="preserve" x="-27164" stroke="none" font-size="433.3333" font-family="sans-serif">N</text><text y="-28966" xml:space="preserve" x="-25324" stroke="none" font-size="433.3333" font-family="sans-serif">N</text><text y="-30628" xml:space="preserve" x="-29885" stroke="none" font-size="433.3333" font-family="sans-serif">N</text><text y="-28920" xml:space="preserve" x="-30870" stroke="none" font-size="433.3333" font-family="sans-serif">N</text><text y="-30628" xml:space="preserve" x="-31855" stroke="none" font-size="433.3333" font-family="sans-serif">N</text></g></g></svg>