<svg width="281.79" viewBox="0 0 9393 6024" text-rendering="auto" stroke-width="1" stroke-opacity="1" stroke-miterlimit="10" stroke-linejoin="miter" stroke-linecap="square" stroke-dashoffset="0" stroke-dasharray="none" stroke="black" shape-rendering="auto" image-rendering="auto" height="180.72" font-weight="normal" font-style="normal" font-size="12" font-family="'Dialog'" fill-opacity="1" fill="black" color-rendering="auto" color-interpolation="auto" xmlns="http://www.w3.org/2000/svg"><g><g stroke="white" fill="white"><rect y="0" x="0" width="9393" stroke="none" height="6024"/></g><g transform="translate(32866,32758)" text-rendering="geometricPrecision" stroke-width="44" stroke-linejoin="round" stroke-linecap="round"><line y2="-30755" y1="-30183" x2="-27854" x1="-28836" fill="none"/><line y2="-29039" y1="-30183" x2="-28836" x1="-28836" fill="none"/><line y2="-30183" y1="-30755" x2="-28836" x1="-29816" fill="none"/><line y2="-30183" y1="-30755" x2="-26875" x1="-27854" fill="none"/><line y2="-31899" y1="-30755" x2="-27854" x1="-27854" fill="none"/><line y2="-27976" y1="-29039" x2="-29244" x1="-28836" fill="none"/><line y2="-29039" y1="-28467" x2="-28836" x1="-27854" fill="none"/><line y2="-30755" y1="-30183" x2="-29816" x1="-30795" fill="none"/><line y2="-30183" y1="-30755" x2="-26875" x1="-25896" fill="none"/><line y2="-29039" y1="-30183" x2="-26875" x1="-26875" fill="none"/><line y2="-32471" y1="-31899" x2="-26875" x1="-27854" fill="none"/><line y2="-27976" y1="-27976" x2="-30388" x1="-29244" fill="none"/><line y2="-28467" y1="-29039" x2="-27854" x1="-26875" fill="none"/><line y2="-29039" y1="-27976" x2="-30795" x1="-30388" fill="none"/><line y2="-30183" y1="-29039" x2="-30795" x1="-30795" fill="none"/><line y2="-30755" y1="-31899" x2="-25896" x1="-25896" fill="none"/><line y2="-31899" y1="-32471" x2="-25896" x1="-26875" fill="none"/><line y2="-30232" y1="-30755" x2="-24988" x1="-25896" fill="none"/><line y2="-30648" y1="-30232" x2="-24269" x1="-24988" fill="none"/><line y2="-28516" y1="-29039" x2="-31702" x1="-30795" fill="none"/><line y2="-28819" y1="-28516" x2="-32231" x1="-31702" fill="none"/><line y2="-27328" y1="-27976" x2="-30824" x1="-30388" fill="none"/><polygon stroke-width="1" stroke="none" points=" -25896 -31899 -25208 -32372 -25142 -32254"/><polygon stroke-width="1" points=" -25896 -31899 -25208 -32372 -25142 -32254" fill="none"/><polygon stroke-width="1" stroke="none" points=" -26875 -30183 -26944 -31009 -26806 -31012"/><polygon stroke-width="1" points=" -26875 -30183 -26944 -31009 -26806 -31012" fill="none"/><line y2="-29507" y1="-29388" x2="-30096" x1="-30024" fill="none"/><line y2="-29610" y1="-29509" x2="-29905" x1="-29844" fill="none"/><line y2="-29712" y1="-29629" x2="-29714" x1="-29663" fill="none"/><line y2="-29815" y1="-29750" x2="-29522" x1="-29483" fill="none"/><line y2="-29917" y1="-29870" x2="-29331" x1="-29303" fill="none"/><line y2="-30020" y1="-29991" x2="-29140" x1="-29123" fill="none"/><line y2="-30122" y1="-30112" x2="-28949" x1="-28942" fill="none"/><line y2="-29432" y1="-29460" x2="-29992" x1="-30128" fill="none"/><line y2="-29223" y1="-29247" x2="-30049" x1="-30165" fill="none"/><line y2="-29013" y1="-29033" x2="-30106" x1="-30203" fill="none"/><line y2="-28804" y1="-28820" x2="-30163" x1="-30240" fill="none"/><line y2="-28594" y1="-28606" x2="-30220" x1="-30278" fill="none"/><line y2="-28385" y1="-28393" x2="-30277" x1="-30315" fill="none"/><line y2="-28175" y1="-28179" x2="-30334" x1="-30352" fill="none"/><line y2="-29706" y1="-29706" x2="-25962" x1="-25826" fill="none"/><line y2="-29923" y1="-29923" x2="-25948" x1="-25840" fill="none"/><line y2="-30139" y1="-30139" x2="-25935" x1="-25855" fill="none"/><line y2="-30356" y1="-30356" x2="-25921" x1="-25869" fill="none"/><line y2="-30573" y1="-30573" x2="-25907" x1="-25884" fill="none"/><line y2="-29706" y1="-29706" x2="-27924" x1="-27785" fill="none"/><line y2="-29923" y1="-29923" x2="-27910" x1="-27799" fill="none"/><line y2="-30139" y1="-30139" x2="-27895" x1="-27814" fill="none"/><line y2="-30356" y1="-30356" x2="-27881" x1="-27828" fill="none"/><line y2="-30573" y1="-30573" x2="-27866" x1="-27842" fill="none"/><line y2="-29403" y1="-29284" x2="-31289" x1="-31358" fill="none"/><line y2="-29274" y1="-29197" x2="-31114" x1="-31158" fill="none"/><line y2="-29144" y1="-29110" x2="-30938" x1="-30958" fill="none"/><line y2="-27898" y1="-27898" x2="-28903" x1="-28767" fill="none"/><line y2="-28115" y1="-28115" x2="-28890" x1="-28780" fill="none"/><line y2="-28331" y1="-28331" x2="-28878" x1="-28793" fill="none"/><line y2="-28548" y1="-28548" x2="-28865" x1="-28806" fill="none"/><line y2="-28765" y1="-28765" x2="-28852" x1="-28819" fill="none"/><line y2="-28981" y1="-28981" x2="-28839" x1="-28833" fill="none"/><text y="-30576" xml:space="preserve" x="-24232" stroke="none" font-size="433.3333" font-family="sans-serif">OH</text><text y="-28860" xml:space="preserve" x="-32762" stroke="none" font-size="433.3333" font-family="sans-serif">OH</text><text y="-29382" xml:space="preserve" x="-31855" stroke="none" font-size="433.3333" font-family="sans-serif">OH</text><text y="-32242" xml:space="preserve" x="-25139" stroke="none" font-size="433.3333" font-family="sans-serif">OH</text><text y="-27502" xml:space="preserve" x="-28987" stroke="none" font-size="433.3333" font-family="sans-serif">H</text><text y="-31052" xml:space="preserve" x="-27028" stroke="none" font-size="433.3333" font-family="sans-serif">H</text><text y="-26930" xml:space="preserve" x="-31124" stroke="none" font-size="433.3333" font-family="sans-serif">H</text><text y="-30307" xml:space="preserve" x="-28987" stroke="none" font-style="italic" font-size="313.3333" font-family="sans-serif">S</text><text y="-30720" xml:space="preserve" x="-28256" stroke="none" font-style="italic" font-size="313.3333" font-family="sans-serif">S</text><text y="-28909" xml:space="preserve" x="-29270" stroke="none" font-style="italic" font-size="313.3333" font-family="sans-serif">S</text><text y="-29859" xml:space="preserve" x="-26780" stroke="none" font-style="italic" font-size="313.3333" font-family="sans-serif">R</text><text y="-27805" xml:space="preserve" x="-30810" stroke="none" font-style="italic" font-size="313.3333" font-family="sans-serif">R</text><text y="-30720" xml:space="preserve" x="-26294" stroke="none" font-style="italic" font-size="313.3333" font-family="sans-serif">R</text><text y="-28909" xml:space="preserve" x="-30665" stroke="none" font-style="italic" font-size="313.3333" font-family="sans-serif">R</text><text y="-31575" xml:space="preserve" x="-26294" stroke="none" font-style="italic" font-size="313.3333" font-family="sans-serif">R</text></g></g></svg>