<svg width="506.91" viewBox="0 0 16897 8747" text-rendering="auto" stroke-width="1" stroke-opacity="1" stroke-miterlimit="10" stroke-linejoin="miter" stroke-linecap="square" stroke-dashoffset="0" stroke-dasharray="none" stroke="black" shape-rendering="auto" image-rendering="auto" height="262.41" font-weight="normal" font-style="normal" font-size="12" font-family="'Dialog'" fill-opacity="1" fill="black" color-rendering="auto" color-interpolation="auto" xmlns="http://www.w3.org/2000/svg"><g><g stroke="white" fill="white"><rect y="0" x="0" width="16897" stroke="none" height="8747"/></g><g transform="translate(32866,32866)" text-rendering="geometricPrecision" stroke-width="44" stroke-linejoin="round" stroke-linecap="round"><line y2="-29888" y1="-29316" x2="-20941" x1="-21923" fill="none"/><line y2="-28172" y1="-29316" x2="-21923" x1="-21923" fill="none"/><line y2="-29316" y1="-29888" x2="-21923" x1="-22906" fill="none"/><line y2="-29316" y1="-29888" x2="-19962" x1="-20941" fill="none"/><line y2="-31032" y1="-29888" x2="-20941" x1="-20941" fill="none"/><line y2="-27600" y1="-28172" x2="-22906" x1="-21923" fill="none"/><line y2="-28172" y1="-28172" x2="-21923" x1="-19962" fill="none"/><line y2="-29888" y1="-29316" x2="-22906" x1="-23888" fill="none"/><line y2="-28172" y1="-29316" x2="-19962" x1="-19962" fill="none"/><line y2="-29316" y1="-29778" x2="-19962" x1="-19167" fill="none"/><line y2="-31032" y1="-31032" x2="-18980" x1="-20941" fill="none"/><line y2="-28172" y1="-27600" x2="-23888" x1="-22906" fill="none"/><line y2="-26462" y1="-27600" x2="-22903" x1="-22906" fill="none"/><line y2="-29316" y1="-28172" x2="-23888" x1="-23888" fill="none"/><line y2="-30108" y1="-31032" x2="-18980" x1="-18980" fill="none"/><line y2="-28172" y1="-27614" x2="-23888" x1="-24879" fill="none"/><line y2="-25901" y1="-26462" x2="-23888" x1="-22903" fill="none"/><line y2="-32751" y1="-32179" x2="-17997" x1="-18980" fill="none"/><line y2="-30570" y1="-31032" x2="-17810" x1="-17015" fill="none"/><line y2="-27614" y1="-28192" x2="-24879" x1="-25861" fill="none"/><line y2="-26476" y1="-27614" x2="-24879" x1="-24879" fill="none"/><line y2="-26476" y1="-25901" x2="-24879" x1="-23888" fill="none"/><line y2="-26551" y1="-26121" x2="-24671" x1="-23928" fill="none"/><line y2="-32179" y1="-32751" x2="-17015" x1="-17997" fill="none"/><line y2="-31032" y1="-32179" x2="-17015" x1="-17015" fill="none"/><line y2="-28192" y1="-27620" x2="-25861" x1="-26840" fill="none"/><line y2="-25901" y1="-26476" x2="-25861" x1="-24879" fill="none"/><line y2="-27620" y1="-26473" x2="-26840" x1="-26840" fill="none"/><line y2="-26473" y1="-25901" x2="-26840" x1="-25861" fill="none"/><line y2="-29764" y1="-29348" x2="-26768" x1="-26049" fill="none"/><line y2="-29195" y1="-29764" x2="-27750" x1="-26768" fill="none"/><line y2="-29764" y1="-30682" x2="-26768" x1="-26768" fill="none"/><line y2="-29764" y1="-29195" x2="-28738" x1="-27750" fill="none"/><line y2="-31009" y1="-31468" x2="-26956" x1="-27750" fill="none"/><line y2="-30902" y1="-29764" x2="-28738" x1="-28738" fill="none"/><line y2="-31468" y1="-30902" x2="-27750" x1="-28738" fill="none"/><line y2="-26976" y1="-28036" x2="-29732" x1="-27938" fill="none"/><line y2="-26976" y1="-27545" x2="-29732" x1="-30717" fill="none"/><line y2="-26060" y1="-26976" x2="-29732" x1="-29732" fill="none"/><line y2="-27545" y1="-26976" x2="-30717" x1="-31702" fill="none"/><line y2="-25272" y1="-25731" x2="-30717" x1="-29920" fill="none"/><line y2="-26976" y1="-25841" x2="-31702" x1="-31702" fill="none"/><line y2="-25841" y1="-25272" x2="-31702" x1="-30717" fill="none"/><polygon stroke-width="1" stroke="none" points=" -18980 -31032 -19049 -32179 -18910 -32179"/><polygon stroke-width="1" points=" -18980 -31032 -19049 -32179 -18910 -32179" fill="none"/><polygon stroke-width="1" stroke="none" points=" -25861 -28192 -25930 -29018 -25792 -29021"/><polygon stroke-width="1" points=" -25861 -28192 -25930 -29018 -25792 -29021" fill="none"/><polygon stroke-width="1" stroke="none" points=" -21923 -29316 -21993 -30365 -21854 -30365"/><polygon stroke-width="1" points=" -21923 -29316 -21993 -30365 -21854 -30365" fill="none"/><polygon stroke-width="1" stroke="none" points=" -24879 -27614 -24948 -28660 -24809 -28663"/><polygon stroke-width="1" points=" -24879 -27614 -24948 -28660 -24809 -28663" fill="none"/><polygon stroke-width="1" stroke="none" points=" -17015 -32179 -16143 -32762 -16073 -32644"/><polygon stroke-width="1" points=" -17015 -32179 -16143 -32762 -16073 -32644" fill="none"/><polygon stroke-width="1" stroke="none" points=" -26840 -26473 -27334 -26109 -27404 -26228"/><polygon stroke-width="1" points=" -26840 -26473 -27334 -26109 -27404 -26228" fill="none"/><polygon stroke-width="1" stroke="none" points=" -22906 -27600 -22975 -28426 -22836 -28426"/><polygon stroke-width="1" points=" -22906 -27600 -22975 -28426 -22836 -28426" fill="none"/><polygon stroke-width="1" stroke="none" points=" -27750 -31468 -27820 -32517 -27681 -32517"/><polygon stroke-width="1" points=" -27750 -31468 -27820 -32517 -27681 -32517" fill="none"/><polygon stroke-width="1" stroke="none" points=" -28738 -29764 -29229 -29400 -29299 -29518"/><polygon stroke-width="1" points=" -28738 -29764 -29229 -29400 -29299 -29518" fill="none"/><polygon stroke-width="1" stroke="none" points=" -28738 -30902 -29299 -31145 -29229 -31263"/><polygon stroke-width="1" points=" -28738 -30902 -29299 -31145 -29229 -31263" fill="none"/><polygon stroke-width="1" stroke="none" points=" -30717 -25272 -30648 -24223 -30784 -24223"/><polygon stroke-width="1" points=" -30717 -25272 -30648 -24223 -30784 -24223" fill="none"/><polygon stroke-width="1" stroke="none" points=" -30717 -27545 -30784 -28374 -30648 -28374"/><polygon stroke-width="1" points=" -30717 -27545 -30784 -28374 -30648 -28374" fill="none"/><polygon stroke-width="1" stroke="none" points=" -31702 -26976 -32266 -27222 -32196 -27340"/><polygon stroke-width="1" points=" -31702 -26976 -32266 -27222 -32196 -27340" fill="none"/><polygon stroke-width="1" stroke="none" points=" -29732 -26976 -28978 -26621 -29047 -26502"/><polygon stroke-width="1" points=" -29732 -26976 -28978 -26621 -29047 -26502" fill="none"/><line y2="-30509" y1="-30630" x2="-18220" x1="-18150" fill="none"/><line y2="-30632" y1="-30725" x2="-18399" x1="-18346" fill="none"/><line y2="-30755" y1="-30819" x2="-18578" x1="-18541" fill="none"/><line y2="-30879" y1="-30914" x2="-18757" x1="-18737" fill="none"/><line y2="-31002" y1="-31009" x2="-18936" x1="-18932" fill="none"/><line y2="-31824" y1="-31725" x2="-21634" x1="-21733" fill="none"/><line y2="-31661" y1="-31582" x2="-21491" x1="-21570" fill="none"/><line y2="-31497" y1="-31439" x2="-21348" x1="-21406" fill="none"/><line y2="-31334" y1="-31296" x2="-21205" x1="-21243" fill="none"/><line y2="-31170" y1="-31153" x2="-21062" x1="-21079" fill="none"/><line y2="-29059" y1="-29062" x2="-21010" x1="-20875" fill="none"/><line y2="-29276" y1="-29278" x2="-20992" x1="-20892" fill="none"/><line y2="-29493" y1="-29495" x2="-20974" x1="-20910" fill="none"/><line y2="-29710" y1="-29711" x2="-20956" x1="-20927" fill="none"/><line y2="-30145" y1="-30145" x2="-19892" x1="-20031" fill="none"/><line y2="-29928" y1="-29928" x2="-19910" x1="-20013" fill="none"/><line y2="-29712" y1="-29712" x2="-19929" x1="-19995" fill="none"/><line y2="-29495" y1="-29495" x2="-19947" x1="-19977" fill="none"/><line y2="-27343" y1="-27343" x2="-21993" x1="-21854" fill="none"/><line y2="-27560" y1="-27560" x2="-21975" x1="-21872" fill="none"/><line y2="-27776" y1="-27776" x2="-21956" x1="-21890" fill="none"/><line y2="-27993" y1="-27993" x2="-21938" x1="-21908" fill="none"/><line y2="-27343" y1="-27343" x2="-23957" x1="-23818" fill="none"/><line y2="-27560" y1="-27560" x2="-23939" x1="-23836" fill="none"/><line y2="-27776" y1="-27776" x2="-23921" x1="-23855" fill="none"/><line y2="-27993" y1="-27993" x2="-23903" x1="-23873" fill="none"/><line y2="-28366" y1="-28366" x2="-27820" x1="-27681" fill="none"/><line y2="-28583" y1="-28583" x2="-27802" x1="-27699" fill="none"/><line y2="-28799" y1="-28799" x2="-27783" x1="-27717" fill="none"/><line y2="-29016" y1="-29016" x2="-27765" x1="-27735" fill="none"/><line y2="-28935" y1="-28935" x2="-26837" x1="-26699" fill="none"/><line y2="-29152" y1="-29152" x2="-26819" x1="-26717" fill="none"/><line y2="-29368" y1="-29368" x2="-26801" x1="-26735" fill="none"/><line y2="-29585" y1="-29585" x2="-26783" x1="-26753" fill="none"/><line y2="-25595" y1="-25477" x2="-32266" x1="-32193" fill="none"/><line y2="-25682" y1="-25606" x2="-32065" x1="-32018" fill="none"/><line y2="-25770" y1="-25736" x2="-31865" x1="-31844" fill="none"/><text y="-29062" xml:space="preserve" x="-26011" stroke="none" font-size="433.3333" font-family="sans-serif">O</text><text y="-25771" xml:space="preserve" x="-27900" stroke="none" font-size="433.3333" font-family="sans-serif">OH</text><text y="-27967" xml:space="preserve" x="-27903" stroke="none" font-size="433.3333" font-family="sans-serif">O</text><text y="-29062" xml:space="preserve" x="-29796" stroke="none" font-size="433.3333" font-family="sans-serif">OH</text><text y="-31246" xml:space="preserve" x="-29796" stroke="none" font-size="433.3333" font-family="sans-serif">OH</text><text y="-28415" xml:space="preserve" x="-30867" stroke="none" font-size="433.3333" font-family="sans-serif">OH</text><text y="-27323" xml:space="preserve" x="-32762" stroke="none" font-size="433.3333" font-family="sans-serif">OH</text><text y="-25136" xml:space="preserve" x="-32762" stroke="none" font-size="433.3333" font-family="sans-serif">OH</text><text y="-29709" xml:space="preserve" x="-19133" stroke="none" font-size="433.3333" font-family="sans-serif">O</text><text y="-30281" xml:space="preserve" x="-18150" stroke="none" font-size="433.3333" font-family="sans-serif">O</text><text y="-30723" xml:space="preserve" x="-26918" stroke="none" font-size="433.3333" font-family="sans-serif">O</text><text y="-25662" xml:space="preserve" x="-29885" stroke="none" font-size="433.3333" font-family="sans-serif">O</text><text y="-28663" xml:space="preserve" x="-21094" stroke="none" font-size="433.3333" font-family="sans-serif">H</text><text y="-30186" xml:space="preserve" x="-20112" stroke="none" font-size="433.3333" font-family="sans-serif">H</text><text y="-26944" xml:space="preserve" x="-22076" stroke="none" font-size="433.3333" font-family="sans-serif">H</text><text y="-28467" xml:space="preserve" x="-23059" stroke="none" font-size="433.3333" font-family="sans-serif">H</text><text y="-26944" xml:space="preserve" x="-24038" stroke="none" font-size="433.3333" font-family="sans-serif">H</text><text y="-28536" xml:space="preserve" x="-26918" stroke="none" font-size="433.3333" font-family="sans-serif">H</text><text y="-26274" xml:space="preserve" x="-28978" stroke="none" font-size="433.3333" font-family="sans-serif">H</text><text y="-28995" xml:space="preserve" x="-21828" stroke="none" font-style="italic" font-size="313.3333" font-family="sans-serif">S</text><text y="-29853" xml:space="preserve" x="-21343" stroke="none" font-style="italic" font-size="313.3333" font-family="sans-serif">R</text><text y="-28137" xml:space="preserve" x="-22325" stroke="none" font-style="italic" font-size="313.3333" font-family="sans-serif">S</text><text y="-28995" xml:space="preserve" x="-19866" stroke="none" font-style="italic" font-size="313.3333" font-family="sans-serif">S</text><text y="-30578" xml:space="preserve" x="-20852" stroke="none" font-style="italic" font-size="313.3333" font-family="sans-serif">S</text><text y="-27276" xml:space="preserve" x="-23307" stroke="none" font-style="italic" font-size="313.3333" font-family="sans-serif">S</text><text y="-30578" xml:space="preserve" x="-19375" stroke="none" font-style="italic" font-size="313.3333" font-family="sans-serif">R</text><text y="-28137" xml:space="preserve" x="-23790" stroke="none" font-style="italic" font-size="313.3333" font-family="sans-serif">S</text><text y="-27291" xml:space="preserve" x="-24780" stroke="none" font-style="italic" font-size="313.3333" font-family="sans-serif">R</text><text y="-27710" xml:space="preserve" x="-26011" stroke="none" font-style="italic" font-size="313.3333" font-family="sans-serif">R</text><text y="-31855" xml:space="preserve" x="-17417" stroke="none" font-style="italic" font-size="313.3333" font-family="sans-serif">R</text><text y="-26439" xml:space="preserve" x="-26745" stroke="none" font-style="italic" font-size="313.3333" font-family="sans-serif">R</text><text y="-29726" xml:space="preserve" x="-27167" stroke="none" font-style="italic" font-size="313.3333" font-family="sans-serif">R</text><text y="-29316" xml:space="preserve" x="-27903" stroke="none" font-style="italic" font-size="313.3333" font-family="sans-serif">R</text><text y="-29726" xml:space="preserve" x="-28640" stroke="none" font-style="italic" font-size="313.3333" font-family="sans-serif">S</text><text y="-30989" xml:space="preserve" x="-27903" stroke="none" font-style="italic" font-size="313.3333" font-family="sans-serif">R</text><text y="-30578" xml:space="preserve" x="-28640" stroke="none" font-style="italic" font-size="313.3333" font-family="sans-serif">R</text><text y="-27100" xml:space="preserve" x="-29885" stroke="none" font-style="italic" font-size="313.3333" font-family="sans-serif">S</text><text y="-27066" xml:space="preserve" x="-30867" stroke="none" font-style="italic" font-size="313.3333" font-family="sans-serif">R</text><text y="-26655" xml:space="preserve" x="-31607" stroke="none" font-style="italic" font-size="313.3333" font-family="sans-serif">R</text><text y="-25396" xml:space="preserve" x="-30867" stroke="none" font-style="italic" font-size="313.3333" font-family="sans-serif">S</text><text y="-25806" xml:space="preserve" x="-31607" stroke="none" font-style="italic" font-size="313.3333" font-family="sans-serif">R</text></g></g></svg>