<svg width="203.22" viewBox="0 0 6774 3112" text-rendering="auto" stroke-width="1" stroke-opacity="1" stroke-miterlimit="10" stroke-linejoin="miter" stroke-linecap="square" stroke-dashoffset="0" stroke-dasharray="none" stroke="black" shape-rendering="auto" image-rendering="auto" height="93.36" font-weight="normal" font-style="normal" font-size="12" font-family="'Dialog'" fill-opacity="1" fill="black" color-rendering="auto" color-interpolation="auto" xmlns="http://www.w3.org/2000/svg"><g><g stroke="white" fill="white"><rect y="0" x="0" width="6774" stroke="none" height="3112"/></g><g transform="translate(32866,32758)" text-rendering="geometricPrecision" stroke-width="44" stroke-linejoin="round" stroke-linecap="round"><line y2="-30760" y1="-31899" x2="-30732" x1="-30732" fill="none"/><line y2="-31899" y1="-31899" x2="-30732" x1="-31870" fill="none"/><line y2="-30760" y1="-30760" x2="-31870" x1="-30732" fill="none"/><line y2="-31899" y1="-30760" x2="-31870" x1="-31870" fill="none"/><line y2="-31899" y1="-32202" x2="-28917" x1="-29446" fill="none"/><line y2="-32315" y1="-31899" x2="-28198" x1="-28917" fill="none"/><line y2="-31899" y1="-32315" x2="-27103" x1="-27822" fill="none"/><line y2="-31070" y1="-31899" x2="-28848" x1="-28848" fill="none"/><line y2="-31070" y1="-31899" x2="-28987" x1="-28987" fill="none"/><line y2="-32422" y1="-31899" x2="-26196" x1="-27103" fill="none"/><line y2="-30992" y1="-31899" x2="-26580" x1="-27103" fill="none"/><line y2="-30992" y1="-31899" x2="-27626" x1="-27103" fill="none"/><polygon stroke-width="1" stroke="none" points=" -30732 -31899 -30047 -32372 -29978 -32254"/><polygon stroke-width="1" points=" -30732 -31899 -30047 -32372 -29978 -32254" fill="none"/><line y2="-30287" y1="-30191" x2="-32439" x1="-32341" fill="none"/><line y2="-30426" y1="-30358" x2="-32272" x1="-32202" fill="none"/><line y2="-30565" y1="-30526" x2="-32104" x1="-32064" fill="none"/><line y2="-30705" y1="-30693" x2="-31937" x1="-31925" fill="none"/><text y="-32242" xml:space="preserve" x="-29978" stroke="none" font-size="433.3333" font-family="sans-serif">NH</text><text y="-32242" xml:space="preserve" x="-28163" stroke="none" font-size="433.3333" font-family="sans-serif">O</text><text y="-30671" xml:space="preserve" x="-29070" stroke="none" font-size="433.3333" font-family="sans-serif">O</text><text y="-29842" xml:space="preserve" x="-32762" stroke="none" font-size="433.3333" font-family="sans-serif">OH</text></g></g></svg>