<svg width="482.88" viewBox="0 0 16096 15582" text-rendering="auto" stroke-width="1" stroke-opacity="1" stroke-miterlimit="10" stroke-linejoin="miter" stroke-linecap="square" stroke-dashoffset="0" stroke-dasharray="none" stroke="black" shape-rendering="auto" image-rendering="auto" height="467.46" font-weight="normal" font-style="normal" font-size="12" font-family="'Dialog'" fill-opacity="1" fill="black" color-rendering="auto" color-interpolation="auto" xmlns="http://www.w3.org/2000/svg"><g><g stroke="white" fill="white"><rect y="0" x="0" width="16096" stroke="none" height="15582"/></g><g transform="translate(32866,32866)" text-rendering="geometricPrecision" stroke-width="44" stroke-linejoin="round" stroke-linecap="round"><line y2="-25092" y1="-25092" x2="-23313" x1="-23792" fill="none"/><line y2="-25075" y1="-25090" x2="-25942" x1="-25118" fill="none"/><line y2="-23593" y1="-24876" x2="-24780" x1="-24778" fill="none"/><line y2="-26563" y1="-25312" x2="-24809" x1="-24783" fill="none"/><line y2="-24168" y1="-24916" x2="-22140" x1="-22934" fill="none"/><line y2="-26066" y1="-25367" x2="-22149" x1="-22851" fill="none"/><line y2="-26080" y1="-25263" x2="-27438" x1="-26664" fill="none"/><line y2="-24087" y1="-24876" x2="-27453" x1="-26664" fill="none"/><line y2="-22400" y1="-23186" x2="-25760" x1="-24971" fill="none"/><line y2="-23197" y1="-22478" x2="-24596" x1="-23833" fill="none"/><line y2="-23229" y1="-22689" x2="-24382" x1="-23813" fill="none"/><line y2="-27759" y1="-26970" x2="-23839" x1="-24627" fill="none"/><line y2="-27542" y1="-26947" x2="-23816" x1="-24408" fill="none"/><line y2="-27773" y1="-26982" x2="-25748" x1="-25003" fill="none"/><line y2="-24168" y1="-24471" x2="-22140" x1="-21086" fill="none"/><line y2="-23056" y1="-24168" x2="-22438" x1="-22140" fill="none"/><line y2="-23238" y1="-24073" x2="-22565" x1="-22342" fill="none"/><line y2="-25852" y1="-26066" x2="-21103" x1="-22149" fill="none"/><line y2="-26066" y1="-27181" x2="-22149" x1="-22446" fill="none"/><line y2="-26161" y1="-26996" x2="-22351" x1="-22573" fill="none"/><line y2="-26080" y1="-25771" x2="-27438" x1="-28550" fill="none"/><line y2="-25878" y1="-25644" x2="-27531" x1="-28366" fill="none"/><line y2="-27201" y1="-26080" x2="-27138" x1="-27438" fill="none"/><line y2="-24390" y1="-24087" x2="-28571" x1="-27453" fill="none"/><line y2="-24518" y1="-24289" x2="-28386" x1="-27548" fill="none"/><line y2="-24087" y1="-22975" x2="-27453" x1="-27152" fill="none"/><line y2="-22703" y1="-22400" x2="-26907" x1="-25760" fill="none"/><line y2="-22830" y1="-22602" x2="-26719" x1="-25861" fill="none"/><line y2="-22400" y1="-21216" x2="-25760" x1="-25465" fill="none"/><line y2="-22478" y1="-22787" x2="-23833" x1="-22683" fill="none"/><line y2="-21233" y1="-22478" x2="-24084" x1="-23833" fill="none"/><line y2="-27450" y1="-27759" x2="-22692" x1="-23839" fill="none"/><line y2="-27759" y1="-28935" x2="-23839" x1="-24052" fill="none"/><line y2="-27773" y1="-27470" x2="-25748" x1="-26892" fill="none"/><line y2="-27571" y1="-27343" x2="-25846" x1="-26704" fill="none"/><line y2="-28955" y1="-27773" x2="-25433" x1="-25748" fill="none"/><line y2="-25852" y1="-24471" x2="-21103" x1="-21086" fill="none"/><line y2="-24471" y1="-23795" x2="-21086" x1="-19878" fill="none"/><line y2="-24535" y1="-24029" x2="-20852" x1="-19944" fill="none"/><line y2="-26563" y1="-25852" x2="-19916" x1="-21103" fill="none"/><line y2="-26326" y1="-25794" x2="-19976" x1="-20869" fill="none"/><line y2="-24390" y1="-25771" x2="-28571" x1="-28550" fill="none"/><line y2="-25771" y1="-26479" x2="-28550" x1="-29741" fill="none"/><line y2="-23714" y1="-24390" x2="-29778" x1="-28571" fill="none"/><line y2="-21233" y1="-21216" x2="-24084" x1="-25465" fill="none"/><line y2="-21216" y1="-20008" x2="-25465" x1="-26138" fill="none"/><line y2="-20982" y1="-20077" x2="-25399" x1="-25907" fill="none"/><line y2="-20046" y1="-21233" x2="-23374" x1="-24084" fill="none"/><line y2="-20106" y1="-20999" x2="-23608" x1="-24139" fill="none"/><line y2="-28955" y1="-28935" x2="-25433" x1="-24052" fill="none"/><line y2="-28935" y1="-30122" x2="-24052" x1="-23342" fill="none"/><line y2="-29172" y1="-30061" x2="-24110" x1="-23579" fill="none"/><line y2="-30162" y1="-28955" x2="-26109" x1="-25433" fill="none"/><line y2="-30093" y1="-29189" x2="-25878" x1="-25370" fill="none"/><line y2="-23795" y1="-24506" x2="-19878" x1="-18688" fill="none"/><line y2="-25887" y1="-26563" x2="-18708" x1="-19916" fill="none"/><line y2="-26479" y1="-25809" x2="-29741" x1="-30948" fill="none"/><line y2="-26248" y1="-25742" x2="-29810" x1="-30714" fill="none"/><line y2="-24422" y1="-23714" x2="-30968" x1="-29778" fill="none"/><line y2="-24480" y1="-23948" x2="-30732" x1="-29842" fill="none"/><line y2="-20008" y1="-18818" x2="-26138" x1="-25430" fill="none"/><line y2="-18838" y1="-20046" x2="-24050" x1="-23374" fill="none"/><line y2="-30122" y1="-31332" x2="-23342" x1="-24015" fill="none"/><line y2="-31350" y1="-30162" x2="-25402" x1="-26109" fill="none"/><line y2="-24506" y1="-25887" x2="-18688" x1="-18708" fill="none"/><line y2="-24676" y1="-25711" x2="-18861" x1="-18876" fill="none"/><line y2="-25809" y1="-24422" x2="-30948" x1="-30968" fill="none"/><line y2="-18818" y1="-18838" x2="-25430" x1="-24050" fill="none"/><line y2="-18991" y1="-19006" x2="-25260" x1="-24226" fill="none"/><line y2="-31332" y1="-31350" x2="-24015" x1="-25402" fill="none"/><line y2="-31165" y1="-31179" x2="-24191" x1="-25231" fill="none"/><line y2="-23980" y1="-24506" x2="-17781" x1="-18688" fill="none"/><line y2="-26332" y1="-25809" x2="-31855" x1="-30948" fill="none"/><line y2="-18295" y1="-18818" x2="-26338" x1="-25430" fill="none"/><line y2="-31855" y1="-31332" x2="-23108" x1="-24015" fill="none"/><line y2="-24506" y1="-23980" x2="-16874" x1="-17781" fill="none"/><line y2="-23073" y1="-23980" x2="-17258" x1="-17781" fill="none"/><line y2="-23073" y1="-23980" x2="-18306" x1="-17781" fill="none"/><line y2="-25809" y1="-26332" x2="-32762" x1="-31855" fill="none"/><line y2="-27239" y1="-26332" x2="-32378" x1="-31855" fill="none"/><line y2="-27239" y1="-26332" x2="-31332" x1="-31855" fill="none"/><line y2="-18818" y1="-18295" x2="-27245" x1="-26338" fill="none"/><line y2="-17388" y1="-18295" x2="-26860" x1="-26338" fill="none"/><line y2="-17388" y1="-18295" x2="-25812" x1="-26338" fill="none"/><line y2="-31332" y1="-31855" x2="-22201" x1="-23108" fill="none"/><line y2="-32762" y1="-31855" x2="-22585" x1="-23108" fill="none"/><line y2="-32762" y1="-31855" x2="-23634" x1="-23108" fill="none"/><text y="-24913" xml:space="preserve" x="-25081" stroke="none" font-size="433.3333" font-family="sans-serif">Cu</text><text y="-24913" xml:space="preserve" x="-23275" stroke="none" font-size="433.3333" font-family="sans-serif">N</text><text y="-24887" xml:space="preserve" x="-26626" stroke="none" font-size="433.3333" font-family="sans-serif">N</text><text y="-23194" xml:space="preserve" x="-24934" stroke="none" font-size="433.3333" font-family="sans-serif">N</text><text y="-26603" xml:space="preserve" x="-24968" stroke="none" font-size="433.3333" font-family="sans-serif">N</text><text y="-22657" xml:space="preserve" x="-22648" stroke="none" font-size="433.3333" font-family="sans-serif">N</text><text y="-27222" xml:space="preserve" x="-22657" stroke="none" font-size="433.3333" font-family="sans-serif">N</text><text y="-27242" xml:space="preserve" x="-27230" stroke="none" font-size="433.3333" font-family="sans-serif">N</text><text y="-22576" xml:space="preserve" x="-27245" stroke="none" font-size="433.3333" font-family="sans-serif">N</text><text y="-25026" xml:space="preserve" x="-24437" stroke="none" font-size="313.3333" font-family="sans-serif">2+</text><text y="-24968" xml:space="preserve" x="-22955" stroke="none" font-size="313.3333" font-family="sans-serif">-</text><text y="-25006" xml:space="preserve" x="-26283" stroke="none" font-size="313.3333" font-family="sans-serif">-</text></g></g></svg>