<svg width="203.58" viewBox="0 0 6786 10899" text-rendering="auto" stroke-width="1" stroke-opacity="1" stroke-miterlimit="10" stroke-linejoin="miter" stroke-linecap="square" stroke-dashoffset="0" stroke-dasharray="none" stroke="black" shape-rendering="auto" image-rendering="auto" height="326.97" font-weight="normal" font-style="normal" font-size="12" font-family="'Dialog'" fill-opacity="1" fill="black" color-rendering="auto" color-interpolation="auto" xmlns="http://www.w3.org/2000/svg"><g><g stroke="white" fill="white"><rect y="0" x="0" width="6786" stroke="none" height="10899"/></g><g transform="translate(32866,32758)" text-rendering="geometricPrecision" stroke-width="44" stroke-linejoin="round" stroke-linecap="round"><line y2="-30281" y1="-30850" x2="-30720" x1="-31702" fill="none"/><line y2="-30206" y1="-30633" x2="-30928" x1="-31665" fill="none"/><line y2="-29146" y1="-30281" x2="-30720" x1="-30720" fill="none"/><line y2="-30850" y1="-30281" x2="-31702" x1="-32690" fill="none"/><line y2="-28576" y1="-29146" x2="-31702" x1="-30720" fill="none"/><line y2="-28793" y1="-29221" x2="-31665" x1="-30928" fill="none"/><line y2="-30281" y1="-29146" x2="-32690" x1="-32690" fill="none"/><line y2="-30139" y1="-29287" x2="-32520" x1="-32520" fill="none"/><line y2="-29146" y1="-28576" x2="-32690" x1="-31702" fill="none"/><line y2="-30697" y1="-30281" x2="-30001" x1="-30720" fill="none"/><line y2="-30281" y1="-30697" x2="-28906" x1="-29625" fill="none"/><line y2="-31679" y1="-30850" x2="-31702" x1="-31702" fill="none"/><line y2="-30807" y1="-30281" x2="-27999" x1="-28906" fill="none"/><line y2="-30281" y1="-30807" x2="-27092" x1="-27999" fill="none"/><line y2="-30229" y1="-30622" x2="-27274" x1="-27955" fill="none"/><line y2="-30807" y1="-30281" x2="-26184" x1="-27092" fill="none"/><line y2="-29455" y1="-30281" x2="-28836" x1="-28836" fill="none"/><line y2="-29455" y1="-30281" x2="-28975" x1="-28975" fill="none"/><line y2="-32254" y1="-31945" x2="-32456" x1="-31928" fill="none"/><line y2="-32375" y1="-32069" x2="-32387" x1="-31855" fill="none"/><line y2="-32375" y1="-32069" x2="-31018" x1="-31549" fill="none"/><line y2="-32254" y1="-31945" x2="-30948" x1="-31480" fill="none"/><line y2="-24951" y1="-25257" x2="-28871" x1="-29403" fill="none"/><line y2="-26196" y1="-25586" x2="-29660" x1="-29660" fill="none"/><line y2="-26196" y1="-25586" x2="-29521" x1="-29521" fill="none"/><line y2="-24890" y1="-25196" x2="-30275" x1="-29744" fill="none"/><line y2="-25012" y1="-25318" x2="-30344" x1="-29813" fill="none"/><line y2="-22299" y1="-22299" x2="-29931" x1="-30469" fill="none"/><text y="-30628" xml:space="preserve" x="-29966" stroke="none" font-size="433.3333" font-family="sans-serif">O</text><text y="-29056" xml:space="preserve" x="-29059" stroke="none" font-size="433.3333" font-family="sans-serif">O</text><text y="-31720" xml:space="preserve" x="-31855" stroke="none" font-size="433.3333" font-family="sans-serif">N</text><text y="-32242" xml:space="preserve" x="-32762" stroke="none" font-size="433.3333" font-family="sans-serif">O</text><text y="-32242" xml:space="preserve" x="-30948" stroke="none" font-size="433.3333" font-family="sans-serif">O</text><text y="-25188" xml:space="preserve" x="-29741" stroke="none" font-size="433.3333" font-family="sans-serif">N</text><text y="-24665" xml:space="preserve" x="-28834" stroke="none" font-size="433.3333" font-family="sans-serif">D1</text><text y="-26236" xml:space="preserve" x="-29741" stroke="none" font-size="433.3333" font-family="sans-serif">O</text><text y="-24665" xml:space="preserve" x="-30648" stroke="none" font-size="433.3333" font-family="sans-serif">O</text><text y="-22120" xml:space="preserve" x="-31113" stroke="none" font-size="433.3333" font-family="sans-serif">D1</text><text y="-22120" xml:space="preserve" x="-29894" stroke="none" font-size="433.3333" font-family="sans-serif">(C</text><text y="-22030" xml:space="preserve" x="-29316" stroke="none" font-size="313.3333" font-family="sans-serif">8</text><text y="-22120" xml:space="preserve" x="-29027" stroke="none" font-size="433.3333" font-family="sans-serif">H</text><text y="-22030" xml:space="preserve" x="-28738" stroke="none" font-size="313.3333" font-family="sans-serif">17</text><text y="-22120" xml:space="preserve" x="-28160" stroke="none" font-size="433.3333" font-family="sans-serif">)</text></g></g></svg>