<svg width="241.71" viewBox="0 0 8057 3944" text-rendering="auto" stroke-width="1" stroke-opacity="1" stroke-miterlimit="10" stroke-linejoin="miter" stroke-linecap="square" stroke-dashoffset="0" stroke-dasharray="none" stroke="black" shape-rendering="auto" image-rendering="auto" height="118.32" font-weight="normal" font-style="normal" font-size="12" font-family="'Dialog'" fill-opacity="1" fill="black" color-rendering="auto" color-interpolation="auto" xmlns="http://www.w3.org/2000/svg"><g><g stroke="white" fill="white"><rect y="0" x="0" width="8057" stroke="none" height="3944"/></g><g transform="translate(32866,32758)" text-rendering="geometricPrecision" stroke-width="44" stroke-linejoin="round" stroke-linecap="round"><line y2="-30850" y1="-31419" x2="-28542" x1="-29527" fill="none"/><line y2="-30775" y1="-31202" x2="-28750" x1="-29489" fill="none"/><line y2="-29715" y1="-30850" x2="-28542" x1="-28542" fill="none"/><line y2="-31419" y1="-30850" x2="-29527" x1="-30512" fill="none"/><line y2="-29146" y1="-29715" x2="-29527" x1="-28542" fill="none"/><line y2="-29362" y1="-29790" x2="-29489" x1="-28750" fill="none"/><line y2="-30850" y1="-29715" x2="-30512" x1="-30512" fill="none"/><line y2="-30708" y1="-29856" x2="-30344" x1="-30344" fill="none"/><line y2="-29715" y1="-29146" x2="-30512" x1="-29527" fill="none"/><line y2="-31376" y1="-30850" x2="-27635" x1="-28542" fill="none"/><line y2="-31266" y1="-30850" x2="-31231" x1="-30512" fill="none"/><line y2="-31018" y1="-31266" x2="-32037" x1="-31610" fill="none"/><line y2="-29299" y1="-29715" x2="-31231" x1="-30512" fill="none"/><line y2="-29547" y1="-29299" x2="-32037" x1="-31610" fill="none"/><line y2="-30960" y1="-31376" x2="-26918" x1="-27635" fill="none"/><line y2="-31376" y1="-30960" x2="-25820" x1="-26540" fill="none"/><line y2="-30850" y1="-31376" x2="-24913" x1="-25820" fill="none"/><line y2="-32202" y1="-31376" x2="-27707" x1="-27707" fill="none"/><line y2="-32202" y1="-31376" x2="-27565" x1="-27565" fill="none"/><text y="-30671" xml:space="preserve" x="-26881" stroke="none" font-size="433.3333" font-family="sans-serif">O</text><text y="-32242" xml:space="preserve" x="-27788" stroke="none" font-size="433.3333" font-family="sans-serif">O</text><text y="-31197" xml:space="preserve" x="-31572" stroke="none" font-size="433.3333" font-family="sans-serif">O</text><text y="-30619" xml:space="preserve" x="-32572" stroke="none" font-size="433.3333" font-family="sans-serif">CH</text><text y="-30529" xml:space="preserve" x="-31994" stroke="none" font-size="313.3333" font-family="sans-serif">3</text><text y="-29010" xml:space="preserve" x="-31572" stroke="none" font-size="433.3333" font-family="sans-serif">O</text><text y="-29697" xml:space="preserve" x="-32762" stroke="none" font-size="433.3333" font-family="sans-serif">CH</text><text y="-29608" xml:space="preserve" x="-32185" stroke="none" font-size="313.3333" font-family="sans-serif">3</text></g></g></svg>