<svg width="251.88" viewBox="0 0 8396 3855" text-rendering="auto" stroke-width="1" stroke-opacity="1" stroke-miterlimit="10" stroke-linejoin="miter" stroke-linecap="square" stroke-dashoffset="0" stroke-dasharray="none" stroke="black" shape-rendering="auto" image-rendering="auto" height="115.65" font-weight="normal" font-style="normal" font-size="12" font-family="'Dialog'" fill-opacity="1" fill="black" color-rendering="auto" color-interpolation="auto" xmlns="http://www.w3.org/2000/svg"><g><g stroke="white" fill="white"><rect y="0" x="0" width="8396" stroke="none" height="3855"/></g><g transform="translate(32866,32758)" text-rendering="geometricPrecision" stroke-width="44" stroke-linejoin="round" stroke-linecap="round"><line y2="-30850" y1="-31419" x2="-28825" x1="-29810" fill="none"/><line y2="-30775" y1="-31202" x2="-29033" x1="-29772" fill="none"/><line y2="-29715" y1="-30850" x2="-28825" x1="-28825" fill="none"/><line y2="-31419" y1="-30850" x2="-29810" x1="-30795" fill="none"/><line y2="-29146" y1="-29715" x2="-29810" x1="-28825" fill="none"/><line y2="-29362" y1="-29790" x2="-29772" x1="-29033" fill="none"/><line y2="-30850" y1="-29715" x2="-30795" x1="-30795" fill="none"/><line y2="-30708" y1="-29856" x2="-30628" x1="-30628" fill="none"/><line y2="-29715" y1="-29146" x2="-30795" x1="-29810" fill="none"/><line y2="-31376" y1="-30850" x2="-27918" x1="-28825" fill="none"/><line y2="-30850" y1="-31376" x2="-27011" x1="-27918" fill="none"/><line y2="-30795" y1="-31188" x2="-27196" x1="-27874" fill="none"/><line y2="-31266" y1="-30850" x2="-31514" x1="-30795" fill="none"/><line y2="-31376" y1="-30850" x2="-26104" x1="-27011" fill="none"/><line y2="-29804" y1="-30850" x2="-27011" x1="-27011" fill="none"/><line y2="-32202" y1="-31595" x2="-31774" x1="-31774" fill="none"/><line y2="-32202" y1="-31595" x2="-31633" x1="-31633" fill="none"/><line y2="-30899" y1="-31205" x2="-32387" x1="-31858" fill="none"/><line y2="-31020" y1="-31327" x2="-32459" x1="-31928" fill="none"/><line y2="-30850" y1="-31376" x2="-25196" x1="-26104" fill="none"/><line y2="-32202" y1="-31376" x2="-26176" x1="-26176" fill="none"/><line y2="-32202" y1="-31376" x2="-26034" x1="-26034" fill="none"/><line y2="-29388" y1="-29804" x2="-26291" x1="-27011" fill="none"/><line y2="-29694" y1="-29388" x2="-25384" x1="-25916" fill="none"/><line y2="-29328" y1="-29744" x2="-27695" x1="-26976" fill="none"/><line y2="-29449" y1="-29865" x2="-27765" x1="-27045" fill="none"/><text y="-29099" xml:space="preserve" x="-26257" stroke="none" font-size="433.3333" font-family="sans-serif">O</text><text y="-29099" xml:space="preserve" x="-28071" stroke="none" font-size="433.3333" font-family="sans-serif">O</text><text y="-32242" xml:space="preserve" x="-26257" stroke="none" font-size="433.3333" font-family="sans-serif">O</text><text y="-29625" xml:space="preserve" x="-25350" stroke="none" font-size="433.3333" font-family="sans-serif">CH</text><text y="-29536" xml:space="preserve" x="-24772" stroke="none" font-size="313.3333" font-family="sans-serif">3</text><text y="-31197" xml:space="preserve" x="-31855" stroke="none" font-size="433.3333" font-family="sans-serif">N</text><text y="-32242" xml:space="preserve" x="-31855" stroke="none" font-size="433.3333" font-family="sans-serif">O</text><text y="-30671" xml:space="preserve" x="-32762" stroke="none" font-size="433.3333" font-family="sans-serif">O</text></g></g></svg>