<svg width="192.45" viewBox="0 0 6415 4090" text-rendering="auto" stroke-width="1" stroke-opacity="1" stroke-miterlimit="10" stroke-linejoin="miter" stroke-linecap="square" stroke-dashoffset="0" stroke-dasharray="none" stroke="black" shape-rendering="auto" image-rendering="auto" height="122.7" font-weight="normal" font-style="normal" font-size="12" font-family="'Dialog'" fill-opacity="1" fill="black" color-rendering="auto" color-interpolation="auto" xmlns="http://www.w3.org/2000/svg"><g><g stroke="white" fill="white"><rect y="0" x="0" width="6415" stroke="none" height="4090"/></g><g transform="translate(32866,32866)" text-rendering="geometricPrecision" stroke-width="44" stroke-linejoin="round" stroke-linecap="round"><line y2="-29894" y1="-31107" x2="-29752" x1="-29752" fill="none"/><line y2="-31607" y1="-31107" x2="-28886" x1="-29752" fill="none"/><line y2="-31107" y1="-31714" x2="-29752" x1="-30804" fill="none"/><line y2="-31038" y1="-31491" x2="-29969" x1="-30755" fill="none"/><line y2="-29894" y1="-29894" x2="-29752" x1="-27646" fill="none"/><line y2="-29284" y1="-29894" x2="-30804" x1="-29752" fill="none"/><line y2="-29507" y1="-29963" x2="-30755" x1="-29969" fill="none"/><line y2="-31107" y1="-31494" x2="-27646" x1="-28316" fill="none"/><line y2="-31714" y1="-31107" x2="-30804" x1="-31855" fill="none"/><line y2="-29894" y1="-31107" x2="-27646" x1="-27646" fill="none"/><line y2="-29894" y1="-29284" x2="-31855" x1="-30804" fill="none"/><line y2="-31107" y1="-29894" x2="-31855" x1="-31855" fill="none"/><line y2="-30954" y1="-30044" x2="-31688" x1="-31688" fill="none"/><line y2="-32762" y1="-31714" x2="-30804" x1="-30804" fill="none"/><line y2="-29368" y1="-29894" x2="-32762" x1="-31855" fill="none"/><line y2="-29391" y1="-29943" x2="-27045" x1="-27597" fill="none"/><line y2="-29290" y1="-29845" x2="-27144" x1="-27695" fill="none"/><line y2="-31584" y1="-31168" x2="-26962" x1="-27681" fill="none"/><line y2="-31462" y1="-31046" x2="-26892" x1="-27612" fill="none"/><text y="-28972" xml:space="preserve" x="-27057" stroke="none" font-size="433.3333" font-family="sans-serif">O</text><text y="-31451" xml:space="preserve" x="-26892" stroke="none" font-size="433.3333" font-family="sans-serif">O</text><text y="-31535" xml:space="preserve" x="-28848" stroke="none" font-size="433.3333" font-family="sans-serif">NH</text></g></g></svg>