<svg width="280.17" viewBox="0 0 9339 3806" text-rendering="auto" stroke-width="1" stroke-opacity="1" stroke-miterlimit="10" stroke-linejoin="miter" stroke-linecap="square" stroke-dashoffset="0" stroke-dasharray="none" stroke="black" shape-rendering="auto" image-rendering="auto" height="114.18" font-weight="normal" font-style="normal" font-size="12" font-family="'Dialog'" fill-opacity="1" fill="black" color-rendering="auto" color-interpolation="auto" xmlns="http://www.w3.org/2000/svg"><g><g stroke="white" fill="white"><rect y="0" x="0" width="9339" stroke="none" height="3806"/></g><g transform="translate(32866,32758)" text-rendering="geometricPrecision" stroke-width="44" stroke-linejoin="round" stroke-linecap="round"><line y2="-31896" y1="-32465" x2="-28828" x1="-29810" fill="none"/><line y2="-31821" y1="-32248" x2="-29036" x1="-29772" fill="none"/><line y2="-30758" y1="-31896" x2="-28828" x1="-28828" fill="none"/><line y2="-32465" y1="-31896" x2="-29810" x1="-30798" fill="none"/><line y2="-30191" y1="-30758" x2="-29810" x1="-28828" fill="none"/><line y2="-30408" y1="-30836" x2="-29772" x1="-29036" fill="none"/><line y2="-31896" y1="-30758" x2="-30798" x1="-30798" fill="none"/><line y2="-31754" y1="-30902" x2="-30628" x1="-30628" fill="none"/><line y2="-30758" y1="-30191" x2="-30798" x1="-29810" fill="none"/><line y2="-32312" y1="-31896" x2="-28108" x1="-28828" fill="none"/><line y2="-31896" y1="-32312" x2="-27014" x1="-27730" fill="none"/><line y2="-30235" y1="-30758" x2="-31705" x1="-30798" fill="none"/><line y2="-31896" y1="-30758" x2="-27014" x1="-27014" fill="none"/><line y2="-31754" y1="-30902" x2="-26843" x1="-26843" fill="none"/><line y2="-32465" y1="-31896" x2="-26026" x1="-27014" fill="none"/><line y2="-30758" y1="-30191" x2="-27014" x1="-26026" fill="none"/><line y2="-31896" y1="-32465" x2="-25043" x1="-26026" fill="none"/><line y2="-31821" y1="-32248" x2="-25248" x1="-25988" fill="none"/><line y2="-30191" y1="-30758" x2="-26026" x1="-25043" fill="none"/><line y2="-30408" y1="-30836" x2="-25988" x1="-25248" fill="none"/><line y2="-30758" y1="-31896" x2="-25043" x1="-25043" fill="none"/><line y2="-30344" y1="-30758" x2="-24324" x1="-25043" fill="none"/><line y2="-30651" y1="-30235" x2="-32424" x1="-31705" fill="none"/><line y2="-29547" y1="-30235" x2="-32101" x1="-31705" fill="none"/><line y2="-29547" y1="-30235" x2="-31306" x1="-31705" fill="none"/><text y="-32242" xml:space="preserve" x="-28071" stroke="none" font-size="433.3333" font-family="sans-serif">O</text><text y="-30578" xml:space="preserve" x="-32762" stroke="none" font-size="433.3333" font-family="sans-serif">F</text><text y="-29148" xml:space="preserve" x="-32381" stroke="none" font-size="433.3333" font-family="sans-serif">F</text><text y="-29148" xml:space="preserve" x="-31332" stroke="none" font-size="433.3333" font-family="sans-serif">F</text><text y="-30056" xml:space="preserve" x="-24286" stroke="none" font-size="433.3333" font-family="sans-serif">OH</text></g></g></svg>