<svg width="151.65" viewBox="0 0 5055 5424" text-rendering="auto" stroke-width="1" stroke-opacity="1" stroke-miterlimit="10" stroke-linejoin="miter" stroke-linecap="square" stroke-dashoffset="0" stroke-dasharray="none" stroke="black" shape-rendering="auto" image-rendering="auto" height="162.72" font-weight="normal" font-style="normal" font-size="12" font-family="'Dialog'" fill-opacity="1" fill="black" color-rendering="auto" color-interpolation="auto" xmlns="http://www.w3.org/2000/svg"><g><g stroke="white" fill="white"><rect y="0" x="0" width="5055" stroke="none" height="5424"/></g><g transform="translate(32866,32758)" text-rendering="geometricPrecision" stroke-width="44" stroke-linejoin="round" stroke-linecap="round"><line y2="-29668" y1="-30587" x2="-30792" x1="-30792" fill="none"/><line y2="-29099" y1="-29668" x2="-31774" x1="-30792" fill="none"/><line y2="-29319" y1="-29744" x2="-31737" x1="-31000" fill="none"/><line y2="-30914" y1="-31376" x2="-30980" x1="-31774" fill="none"/><line y2="-30824" y1="-31171" x2="-31165" x1="-31760" fill="none"/><line y2="-29668" y1="-29099" x2="-32762" x1="-31774" fill="none"/><line y2="-31376" y1="-30807" x2="-31774" x1="-32762" fill="none"/><line y2="-30807" y1="-29668" x2="-32762" x1="-32762" fill="none"/><line y2="-30665" y1="-29810" x2="-32592" x1="-32592" fill="none"/><line y2="-29146" y1="-29668" x2="-29885" x1="-30792" fill="none"/><line y2="-32202" y1="-31376" x2="-31774" x1="-31774" fill="none"/><line y2="-29146" y1="-28007" x2="-29885" x1="-29885" fill="none"/><line y2="-29001" y1="-28149" x2="-29715" x1="-29715" fill="none"/><line y2="-29715" y1="-29146" x2="-28897" x1="-29885" fill="none"/><line y2="-28007" y1="-27438" x2="-29885" x1="-28897" fill="none"/><line y2="-29146" y1="-29715" x2="-27915" x1="-28897" fill="none"/><line y2="-29068" y1="-29495" x2="-28123" x1="-28860" fill="none"/><line y2="-27438" y1="-28007" x2="-28897" x1="-27915" fill="none"/><line y2="-27658" y1="-28082" x2="-28860" x1="-28123" fill="none"/><line y2="-28007" y1="-29146" x2="-27915" x1="-27915" fill="none"/><text y="-32242" xml:space="preserve" x="-32006" stroke="none" font-size="433.3333" font-family="sans-serif">Br</text><text y="-30628" xml:space="preserve" x="-30945" stroke="none" font-size="433.3333" font-family="sans-serif">N</text></g></g></svg>