<svg width="267.45" viewBox="0 0 8915 6384" text-rendering="auto" stroke-width="1" stroke-opacity="1" stroke-miterlimit="10" stroke-linejoin="miter" stroke-linecap="square" stroke-dashoffset="0" stroke-dasharray="none" stroke="black" shape-rendering="auto" image-rendering="auto" height="191.52" font-weight="normal" font-style="normal" font-size="12" font-family="'Dialog'" fill-opacity="1" fill="black" color-rendering="auto" color-interpolation="auto" xmlns="http://www.w3.org/2000/svg"><g><g stroke="white" fill="white"><rect y="0" x="0" width="8915" stroke="none" height="6384"/></g><g transform="translate(32866,32866)" text-rendering="geometricPrecision" stroke-width="44" stroke-linejoin="round" stroke-linecap="round"><line y2="-29018" y1="-29481" x2="-29137" x1="-29735" fill="none"/><line y2="-27716" y1="-28652" x2="-29348" x1="-29024" fill="none"/><line y2="-29489" y1="-28871" x2="-30113" x1="-30948" fill="none"/><line y2="-29276" y1="-28810" x2="-30116" x1="-30743" fill="none"/><line y2="-27716" y1="-27716" x2="-30405" x1="-29348" fill="none"/><line y2="-28871" y1="-27935" x2="-30948" x1="-30659" fill="none"/><line y2="-29394" y1="-28981" x2="-28042" x1="-28761" fill="none"/><line y2="-29394" y1="-28871" x2="-31855" x1="-30948" fill="none"/><line y2="-27118" y1="-27756" x2="-28842" x1="-29290" fill="none"/><line y2="-27037" y1="-27675" x2="-28958" x1="-29403" fill="none"/><line y2="-30532" y1="-29394" x2="-28042" x1="-28042" fill="none"/><line y2="-30391" y1="-29538" x2="-27872" x1="-27872" fill="none"/><line y2="-29394" y1="-28828" x2="-28042" x1="-27057" fill="none"/><line y2="-31101" y1="-30532" x2="-27057" x1="-28042" fill="none"/><line y2="-28828" y1="-29394" x2="-27057" x1="-26072" fill="none"/><line y2="-29044" y1="-29472" x2="-27019" x1="-26280" fill="none"/><line y2="-30532" y1="-31101" x2="-26072" x1="-27057" fill="none"/><line y2="-30454" y1="-30882" x2="-26280" x1="-27019" fill="none"/><line y2="-29394" y1="-30532" x2="-26072" x1="-26072" fill="none"/><line y2="-31930" y1="-31101" x2="-27057" x1="-27057" fill="none"/><line y2="-32673" y1="-32257" x2="-26150" x1="-26869" fill="none"/><line y2="-32673" y1="-32673" x2="-25104" x1="-26150" fill="none"/><line y2="-27999" y1="-28828" x2="-27057" x1="-27057" fill="none"/><line y2="-30862" y1="-30532" x2="-25503" x1="-26072" fill="none"/><line y2="-28871" y1="-29394" x2="-32762" x1="-31855" fill="none"/><line y2="-30301" y1="-29394" x2="-32378" x1="-31855" fill="none"/><line y2="-30301" y1="-29394" x2="-31332" x1="-31855" fill="none"/><line y2="-32673" y1="-32673" x2="-24055" x1="-25104" fill="none"/><line y2="-32762" y1="-32762" x2="-24055" x1="-25104" fill="none"/><line y2="-32583" y1="-32583" x2="-24055" x1="-25104" fill="none"/><text y="-26678" xml:space="preserve" x="-28897" stroke="none" font-size="433.3333" font-family="sans-serif">O</text><text y="-27600" xml:space="preserve" x="-27288" stroke="none" font-size="433.3333" font-family="sans-serif">Cl</text><text y="-31971" xml:space="preserve" x="-27210" stroke="none" font-size="433.3333" font-family="sans-serif">O</text><text y="-30876" xml:space="preserve" x="-25396" stroke="none" font-size="433.3333" font-family="sans-serif">Cl</text><text y="-28692" xml:space="preserve" x="-29099" stroke="none" font-size="433.3333" font-family="sans-serif">N</text><text y="-29449" xml:space="preserve" x="-30076" stroke="none" font-size="433.3333" font-family="sans-serif">N</text><text y="-27536" xml:space="preserve" x="-30746" stroke="none" font-size="433.3333" font-family="sans-serif">O</text></g></g></svg>