<svg width="236.13" viewBox="0 0 7871 4019" text-rendering="auto" stroke-width="1" stroke-opacity="1" stroke-miterlimit="10" stroke-linejoin="miter" stroke-linecap="square" stroke-dashoffset="0" stroke-dasharray="none" stroke="black" shape-rendering="auto" image-rendering="auto" height="120.57" font-weight="normal" font-style="normal" font-size="12" font-family="'Dialog'" fill-opacity="1" fill="black" color-rendering="auto" color-interpolation="auto" xmlns="http://www.w3.org/2000/svg"><g><g stroke="white" fill="white"><rect y="0" x="0" width="7871" stroke="none" height="4019"/></g><g transform="translate(32866,32758)" text-rendering="geometricPrecision" stroke-width="44" stroke-linejoin="round" stroke-linecap="round"><line y2="-29637" y1="-30850" x2="-29521" x1="-29521" fill="none"/><line y2="-31350" y1="-30850" x2="-28652" x1="-29521" fill="none"/><line y2="-30850" y1="-31457" x2="-29521" x1="-30570" fill="none"/><line y2="-30781" y1="-31234" x2="-29738" x1="-30524" fill="none"/><line y2="-29637" y1="-29637" x2="-29521" x1="-27603" fill="none"/><line y2="-29030" y1="-29637" x2="-30570" x1="-29521" fill="none"/><line y2="-29252" y1="-29706" x2="-30524" x1="-29738" fill="none"/><line y2="-30850" y1="-31240" x2="-27415" x1="-28085" fill="none"/><line y2="-31457" y1="-30850" x2="-30570" x1="-31624" fill="none"/><line y2="-29856" y1="-30850" x2="-27415" x1="-27415" fill="none"/><line y2="-29980" y1="-30726" x2="-27586" x1="-27586" fill="none"/><line y2="-29637" y1="-29030" x2="-31624" x1="-30570" fill="none"/><line y2="-30850" y1="-29637" x2="-31624" x1="-31624" fill="none"/><line y2="-30700" y1="-29790" x2="-31454" x1="-31454" fill="none"/><line y2="-31376" y1="-30850" x2="-26508" x1="-27415" fill="none"/><line y2="-29310" y1="-29637" x2="-32190" x1="-31624" fill="none"/><line y2="-30960" y1="-31376" x2="-25789" x1="-26508" fill="none"/><line y2="-32202" y1="-31376" x2="-26577" x1="-26577" fill="none"/><line y2="-32202" y1="-31376" x2="-26439" x1="-26439" fill="none"/><text y="-30671" xml:space="preserve" x="-25754" stroke="none" font-size="433.3333" font-family="sans-serif">OH</text><text y="-32242" xml:space="preserve" x="-26661" stroke="none" font-size="433.3333" font-family="sans-serif">O</text><text y="-28935" xml:space="preserve" x="-32762" stroke="none" font-size="433.3333" font-family="sans-serif">Cl</text><text y="-31278" xml:space="preserve" x="-28617" stroke="none" font-size="433.3333" font-family="sans-serif">NH</text><text y="-29458" xml:space="preserve" x="-27568" stroke="none" font-size="433.3333" font-family="sans-serif">N</text></g></g></svg>