<svg width="176.01" viewBox="0 0 5867 4161" text-rendering="auto" stroke-width="1" stroke-opacity="1" stroke-miterlimit="10" stroke-linejoin="miter" stroke-linecap="square" stroke-dashoffset="0" stroke-dasharray="none" stroke="black" shape-rendering="auto" image-rendering="auto" height="124.83" font-weight="normal" font-style="normal" font-size="12" font-family="'Dialog'" fill-opacity="1" fill="black" color-rendering="auto" color-interpolation="auto" xmlns="http://www.w3.org/2000/svg"><g><g stroke="white" fill="white"><rect y="0" x="0" width="5867" stroke="none" height="4161"/></g><g transform="translate(32866,32758)" text-rendering="geometricPrecision" stroke-width="44" stroke-linejoin="round" stroke-linecap="round"><line y2="-30850" y1="-30850" x2="-30919" x1="-31870" fill="none"/><line y2="-29715" y1="-30630" x2="-30732" x1="-30732" fill="none"/><line y2="-30850" y1="-29715" x2="-31870" x1="-31870" fill="none"/><line y2="-29715" y1="-29715" x2="-31870" x1="-30732" fill="none"/><line y2="-31376" y1="-30960" x2="-29824" x1="-30544" fill="none"/><line y2="-29111" y1="-29666" x2="-32372" x1="-31821" fill="none"/><line y2="-29209" y1="-29764" x2="-32471" x1="-31919" fill="none"/><line y2="-30960" y1="-31376" x2="-29105" x1="-29824" fill="none"/><line y2="-31376" y1="-30960" x2="-28010" x1="-28730" fill="none"/><line y2="-32202" y1="-31376" x2="-29894" x1="-29894" fill="none"/><line y2="-32202" y1="-31376" x2="-29755" x1="-29755" fill="none"/><line y2="-30850" y1="-31376" x2="-27103" x1="-28010" fill="none"/><line y2="-32283" y1="-31376" x2="-27487" x1="-28010" fill="none"/><line y2="-32283" y1="-31376" x2="-28533" x1="-28010" fill="none"/><text y="-30671" xml:space="preserve" x="-29070" stroke="none" font-size="433.3333" font-family="sans-serif">O</text><text y="-32242" xml:space="preserve" x="-29978" stroke="none" font-size="433.3333" font-family="sans-serif">O</text><text y="-28793" xml:space="preserve" x="-32762" stroke="none" font-size="433.3333" font-family="sans-serif">O</text><text y="-30671" xml:space="preserve" x="-30885" stroke="none" font-size="433.3333" font-family="sans-serif">N</text></g></g></svg>