<svg width="207.96" viewBox="0 0 6932 3709" text-rendering="auto" stroke-width="1" stroke-opacity="1" stroke-miterlimit="10" stroke-linejoin="miter" stroke-linecap="square" stroke-dashoffset="0" stroke-dasharray="none" stroke="black" shape-rendering="auto" image-rendering="auto" height="111.27" font-weight="normal" font-style="normal" font-size="12" font-family="'Dialog'" fill-opacity="1" fill="black" color-rendering="auto" color-interpolation="auto" xmlns="http://www.w3.org/2000/svg"><g><g stroke="white" fill="white"><rect y="0" x="0" width="6932" stroke="none" height="3709"/></g><g transform="translate(32866,32866)" text-rendering="geometricPrecision" stroke-width="44" stroke-linejoin="round" stroke-linecap="round"><line y2="-31145" y1="-31714" x2="-30792" x1="-31774" fill="none"/><line y2="-31070" y1="-31497" x2="-30997" x1="-31737" fill="none"/><line y2="-30009" y1="-31145" x2="-30792" x1="-30792" fill="none"/><line y2="-31714" y1="-31145" x2="-31774" x1="-32762" fill="none"/><line y2="-29440" y1="-30009" x2="-31774" x1="-30792" fill="none"/><line y2="-29657" y1="-30084" x2="-31737" x1="-30997" fill="none"/><line y2="-31145" y1="-30009" x2="-32762" x1="-32762" fill="none"/><line y2="-31003" y1="-30151" x2="-32592" x1="-32592" fill="none"/><line y2="-30009" y1="-29440" x2="-32762" x1="-31774" fill="none"/><line y2="-31145" y1="-31145" x2="-29744" x1="-30792" fill="none"/><line y2="-32762" y1="-31714" x2="-31774" x1="-31774" fill="none"/><line y2="-31145" y1="-31145" x2="-28695" x1="-29744" fill="none"/><line y2="-31234" y1="-31234" x2="-28695" x1="-29744" fill="none"/><line y2="-31055" y1="-31055" x2="-28695" x1="-29744" fill="none"/><line y2="-31145" y1="-31145" x2="-27987" x1="-28695" fill="none"/><line y2="-31607" y1="-31344" x2="-26852" x1="-27305" fill="none"/><line y2="-29816" y1="-30928" x2="-27646" x1="-27646" fill="none"/><line y2="-30685" y1="-30948" x2="-26852" x1="-27305" fill="none"/><text y="-30966" xml:space="preserve" x="-27880" stroke="none" font-size="433.3333" font-family="sans-serif">Si</text><text y="-31535" xml:space="preserve" x="-26814" stroke="none" font-size="433.3333" font-family="sans-serif">CH</text><text y="-31445" xml:space="preserve" x="-26236" stroke="none" font-size="313.3333" font-family="sans-serif">3</text><text y="-29417" xml:space="preserve" x="-27799" stroke="none" font-size="433.3333" font-family="sans-serif">CH</text><text y="-29328" xml:space="preserve" x="-27222" stroke="none" font-size="313.3333" font-family="sans-serif">3</text><text y="-30399" xml:space="preserve" x="-26814" stroke="none" font-size="433.3333" font-family="sans-serif">CH</text><text y="-30310" xml:space="preserve" x="-26236" stroke="none" font-size="313.3333" font-family="sans-serif">3</text></g></g></svg>