<svg width="373.47" viewBox="0 0 12449 2709" text-rendering="auto" stroke-width="1" stroke-opacity="1" stroke-miterlimit="10" stroke-linejoin="miter" stroke-linecap="square" stroke-dashoffset="0" stroke-dasharray="none" stroke="black" shape-rendering="auto" image-rendering="auto" height="81.27" font-weight="normal" font-style="normal" font-size="12" font-family="'Dialog'" fill-opacity="1" fill="black" color-rendering="auto" color-interpolation="auto" xmlns="http://www.w3.org/2000/svg"><g><g stroke="white" fill="white"><rect y="0" x="0" width="12449" stroke="none" height="2709"/></g><g transform="translate(32866,32866)" text-rendering="geometricPrecision" stroke-width="44" stroke-linejoin="round" stroke-linecap="round"><line y2="-32193" y1="-32193" x2="-25976" x1="-27025" fill="none"/><line y2="-32283" y1="-32283" x2="-25976" x1="-27025" fill="none"/><line y2="-32104" y1="-32104" x2="-25976" x1="-27025" fill="none"/><line y2="-32193" y1="-32193" x2="-28071" x1="-27025" fill="none"/><line y2="-32193" y1="-32193" x2="-24928" x1="-25976" fill="none"/><line y2="-31055" y1="-32193" x2="-28071" x1="-28071" fill="none"/><line y2="-31200" y1="-32052" x2="-28241" x1="-28241" fill="none"/><line y2="-32193" y1="-32762" x2="-28071" x1="-29059" fill="none"/><line y2="-30489" y1="-31055" x2="-29059" x1="-28071" fill="none"/><line y2="-32762" y1="-32193" x2="-29059" x1="-30041" fill="none"/><line y2="-32546" y1="-32118" x2="-29096" x1="-29833" fill="none"/><line y2="-31055" y1="-30489" x2="-30041" x1="-29059" fill="none"/><line y2="-31133" y1="-30706" x2="-29833" x1="-29096" fill="none"/><line y2="-32193" y1="-31055" x2="-30041" x1="-30041" fill="none"/><line y2="-30532" y1="-31055" x2="-30948" x1="-30041" fill="none"/><line y2="-31055" y1="-30532" x2="-31855" x1="-30948" fill="none"/><line y2="-30532" y1="-31055" x2="-32762" x1="-31855" fill="none"/><line y2="-32193" y1="-31055" x2="-24928" x1="-24928" fill="none"/><line y2="-32052" y1="-31200" x2="-24757" x1="-24757" fill="none"/><line y2="-32762" y1="-32193" x2="-23940" x1="-24928" fill="none"/><line y2="-31055" y1="-30489" x2="-24928" x1="-23940" fill="none"/><line y2="-32193" y1="-32762" x2="-22958" x1="-23940" fill="none"/><line y2="-32118" y1="-32546" x2="-23166" x1="-23902" fill="none"/><line y2="-30489" y1="-31055" x2="-23940" x1="-22958" fill="none"/><line y2="-30706" y1="-31133" x2="-23902" x1="-23166" fill="none"/><line y2="-31055" y1="-32193" x2="-22958" x1="-22958" fill="none"/><line y2="-30642" y1="-31055" x2="-22238" x1="-22958" fill="none"/><line y2="-30948" y1="-30642" x2="-21331" x1="-21863" fill="none"/><text y="-30353" xml:space="preserve" x="-22204" stroke="none" font-size="433.3333" font-family="sans-serif">O</text><text y="-30876" xml:space="preserve" x="-21296" stroke="none" font-size="433.3333" font-family="sans-serif">CH</text><text y="-30786" xml:space="preserve" x="-20719" stroke="none" font-size="313.3333" font-family="sans-serif">3</text></g></g></svg>