<svg width="190.71" viewBox="0 0 6357 3881" text-rendering="auto" stroke-width="1" stroke-opacity="1" stroke-miterlimit="10" stroke-linejoin="miter" stroke-linecap="square" stroke-dashoffset="0" stroke-dasharray="none" stroke="black" shape-rendering="auto" image-rendering="auto" height="116.43" font-weight="normal" font-style="normal" font-size="12" font-family="'Dialog'" fill-opacity="1" fill="black" color-rendering="auto" color-interpolation="auto" xmlns="http://www.w3.org/2000/svg"><g><g stroke="white" fill="white"><rect y="0" x="0" width="6357" stroke="none" height="3881"/></g><g transform="translate(32866,32758)" text-rendering="geometricPrecision" stroke-width="44" stroke-linejoin="round" stroke-linecap="round"><line y2="-30775" y1="-29579" x2="-30688" x1="-30688" fill="none"/><line y2="-29579" y1="-29579" x2="-30688" x1="-28614" fill="none"/><line y2="-28981" y1="-29579" x2="-31722" x1="-30688" fill="none"/><line y2="-29203" y1="-29654" x2="-31679" x1="-30902" fill="none"/><line y2="-31266" y1="-30775" x2="-29836" x1="-30688" fill="none"/><line y2="-30775" y1="-31376" x2="-30688" x1="-31722" fill="none"/><line y2="-30703" y1="-31153" x2="-30902" x1="-31679" fill="none"/><line y2="-29579" y1="-30555" x2="-28614" x1="-28614" fill="none"/><line y2="-29718" y1="-30434" x2="-28784" x1="-28784" fill="none"/><line y2="-29579" y1="-28981" x2="-32762" x1="-31722" fill="none"/><line y2="-30885" y1="-31266" x2="-28802" x1="-29460" fill="none"/><line y2="-31376" y1="-30775" x2="-31722" x1="-32762" fill="none"/><line y2="-30775" y1="-29579" x2="-32762" x1="-32762" fill="none"/><line y2="-30628" y1="-29729" x2="-32592" x1="-32592" fill="none"/><line y2="-29056" y1="-29579" x2="-27707" x1="-28614" fill="none"/><line y2="-29472" y1="-29056" x2="-26988" x1="-27707" fill="none"/><line y2="-29299" y1="-28987" x2="-27008" x1="-27545" fill="none"/><line y2="-32202" y1="-31595" x2="-29648" x1="-29648" fill="none"/><text y="-29400" xml:space="preserve" x="-26950" stroke="none" font-size="433.3333" font-family="sans-serif">O</text><text y="-32242" xml:space="preserve" x="-29801" stroke="none" font-size="433.3333" font-family="sans-serif">CH</text><text y="-32153" xml:space="preserve" x="-29224" stroke="none" font-size="313.3333" font-family="sans-serif">3</text><text y="-31197" xml:space="preserve" x="-29801" stroke="none" font-size="433.3333" font-family="sans-serif">N</text><text y="-30596" xml:space="preserve" x="-28764" stroke="none" font-size="433.3333" font-family="sans-serif">N</text></g></g></svg>