<svg width="174.09" viewBox="0 0 5803 2573" text-rendering="auto" stroke-width="1" stroke-opacity="1" stroke-miterlimit="10" stroke-linejoin="miter" stroke-linecap="square" stroke-dashoffset="0" stroke-dasharray="none" stroke="black" shape-rendering="auto" image-rendering="auto" height="77.19" font-weight="normal" font-style="normal" font-size="12" font-family="'Dialog'" fill-opacity="1" fill="black" color-rendering="auto" color-interpolation="auto" xmlns="http://www.w3.org/2000/svg"><g><g stroke="white" fill="white"><rect y="0" x="0" width="5803" stroke="none" height="2573"/></g><g transform="translate(32866,32866)" text-rendering="geometricPrecision" stroke-width="44" stroke-linejoin="round" stroke-linecap="round"><line y2="-31191" y1="-31714" x2="-27167" x1="-28074" fill="none"/><line y2="-31191" y1="-31714" x2="-28981" x1="-28074" fill="none"/><line y2="-32762" y1="-31714" x2="-28074" x1="-28074" fill="none"/><line y2="-32130" y1="-31714" x2="-28793" x1="-28074" fill="none"/><line y2="-31714" y1="-32130" x2="-29888" x1="-29169" fill="none"/><line y2="-32240" y1="-31714" x2="-30795" x1="-29888" fill="none"/><line y2="-31714" y1="-32240" x2="-31702" x1="-30795" fill="none"/><line y2="-30888" y1="-31714" x2="-29819" x1="-29819" fill="none"/><line y2="-30888" y1="-31714" x2="-29957" x1="-29957" fill="none"/><line y2="-32020" y1="-31714" x2="-32231" x1="-31702" fill="none"/><line y2="-30888" y1="-31714" x2="-31633" x1="-31633" fill="none"/><line y2="-30888" y1="-31714" x2="-31772" x1="-31772" fill="none"/><text y="-32060" xml:space="preserve" x="-29134" stroke="none" font-size="433.3333" font-family="sans-serif">O</text><text y="-30489" xml:space="preserve" x="-30041" stroke="none" font-size="433.3333" font-family="sans-serif">O</text><text y="-32060" xml:space="preserve" x="-32762" stroke="none" font-size="433.3333" font-family="sans-serif">OH</text><text y="-30489" xml:space="preserve" x="-31855" stroke="none" font-size="433.3333" font-family="sans-serif">O</text></g></g></svg>