<svg width="189.06" viewBox="0 0 6302 2283" text-rendering="auto" stroke-width="1" stroke-opacity="1" stroke-miterlimit="10" stroke-linejoin="miter" stroke-linecap="square" stroke-dashoffset="0" stroke-dasharray="none" stroke="black" shape-rendering="auto" image-rendering="auto" height="68.49" font-weight="normal" font-style="normal" font-size="12" font-family="'Dialog'" fill-opacity="1" fill="black" color-rendering="auto" color-interpolation="auto" xmlns="http://www.w3.org/2000/svg"><g><g stroke="white" fill="white"><rect y="0" x="0" width="6302" stroke="none" height="2283"/></g><g transform="translate(32866,32758)" text-rendering="geometricPrecision" stroke-width="44" stroke-linejoin="round" stroke-linecap="round"><line y2="-30836" y1="-31899" x2="-31289" x1="-30919" fill="none"/><line y2="-31899" y1="-32595" x2="-30919" x1="-31821" fill="none"/><line y2="-30836" y1="-30836" x2="-32436" x1="-31289" fill="none"/><line y2="-32595" y1="-31899" x2="-31821" x1="-32762" fill="none"/><line y2="-31899" y1="-30836" x2="-32762" x1="-32436" fill="none"/><line y2="-32422" y1="-31899" x2="-30012" x1="-30919" fill="none"/><line y2="-32237" y1="-31844" x2="-30058" x1="-30737" fill="none"/><line y2="-31899" y1="-32422" x2="-29105" x1="-30012" fill="none"/><line y2="-32315" y1="-31899" x2="-28386" x1="-29105" fill="none"/><line y2="-32008" y1="-32315" x2="-27479" x1="-28010" fill="none"/><line y2="-31070" y1="-31899" x2="-29036" x1="-29036" fill="none"/><line y2="-31070" y1="-31899" x2="-29177" x1="-29177" fill="none"/><text y="-32242" xml:space="preserve" x="-28351" stroke="none" font-size="433.3333" font-family="sans-serif">O</text><text y="-30671" xml:space="preserve" x="-29258" stroke="none" font-size="433.3333" font-family="sans-serif">O</text><text y="-31720" xml:space="preserve" x="-27444" stroke="none" font-size="433.3333" font-family="sans-serif">CH</text><text y="-31630" xml:space="preserve" x="-26866" stroke="none" font-size="313.3333" font-family="sans-serif">3</text></g></g></svg>