<svg width="126.69" viewBox="0 0 4223 4675" text-rendering="auto" stroke-width="1" stroke-opacity="1" stroke-miterlimit="10" stroke-linejoin="miter" stroke-linecap="square" stroke-dashoffset="0" stroke-dasharray="none" stroke="black" shape-rendering="auto" image-rendering="auto" height="140.25" font-weight="normal" font-style="normal" font-size="12" font-family="'Dialog'" fill-opacity="1" fill="black" color-rendering="auto" color-interpolation="auto" xmlns="http://www.w3.org/2000/svg"><g><g stroke="white" fill="white"><rect y="0" x="0" width="4223" stroke="none" height="4675"/></g><g transform="translate(32866,32758)" text-rendering="geometricPrecision" stroke-width="44" stroke-linejoin="round" stroke-linecap="round"><line y2="-30119" y1="-30688" x2="-29654" x1="-30636" fill="none"/><line y2="-30044" y1="-30472" x2="-29862" x1="-30599" fill="none"/><line y2="-30688" y1="-30119" x2="-30636" x1="-31624" fill="none"/><line y2="-28984" y1="-30119" x2="-29654" x1="-29654" fill="none"/><line y2="-30119" y1="-28984" x2="-31624" x1="-31624" fill="none"/><line y2="-29978" y1="-29125" x2="-31454" x1="-31454" fill="none"/><line y2="-28415" y1="-28984" x2="-30636" x1="-29654" fill="none"/><line y2="-28631" y1="-29059" x2="-30599" x1="-29862" fill="none"/><line y2="-28984" y1="-28415" x2="-31624" x1="-30636" fill="none"/><line y2="-30645" y1="-30119" x2="-28747" x1="-29654" fill="none"/><line y2="-31517" y1="-30688" x2="-30636" x1="-30636" fill="none"/><line y2="-32092" y1="-31844" x2="-31254" x1="-30827" fill="none"/><line y2="-28657" y1="-28984" x2="-32190" x1="-31624" fill="none"/><text y="-31558" xml:space="preserve" x="-30789" stroke="none" font-size="433.3333" font-family="sans-serif">O</text><text y="-32242" xml:space="preserve" x="-31980" stroke="none" font-size="433.3333" font-family="sans-serif">CH</text><text y="-32153" xml:space="preserve" x="-31402" stroke="none" font-size="313.3333" font-family="sans-serif">3</text><text y="-28279" xml:space="preserve" x="-32762" stroke="none" font-size="433.3333" font-family="sans-serif">Cl</text></g></g></svg>