<svg width="443.25" viewBox="0 0 14775 3329" text-rendering="auto" stroke-width="1" stroke-opacity="1" stroke-miterlimit="10" stroke-linejoin="miter" stroke-linecap="square" stroke-dashoffset="0" stroke-dasharray="none" stroke="black" shape-rendering="auto" image-rendering="auto" height="99.87" font-weight="normal" font-style="normal" font-size="12" font-family="'Dialog'" fill-opacity="1" fill="black" color-rendering="auto" color-interpolation="auto" xmlns="http://www.w3.org/2000/svg"><g><g stroke="white" fill="white"><rect y="0" x="0" width="14775" stroke="none" height="3329"/></g><g transform="translate(32866,32758)" text-rendering="geometricPrecision" stroke-width="44" stroke-linejoin="round" stroke-linecap="round"><line y2="-31376" y1="-30850" x2="-29796" x1="-30703" fill="none"/><line y2="-30850" y1="-31376" x2="-28888" x1="-29796" fill="none"/><line y2="-31376" y1="-30850" x2="-27981" x1="-28888" fill="none"/><line y2="-30850" y1="-31376" x2="-27074" x1="-27981" fill="none"/><line y2="-31376" y1="-30850" x2="-26167" x1="-27074" fill="none"/><line y2="-30850" y1="-31376" x2="-25260" x1="-26167" fill="none"/><line y2="-31376" y1="-30850" x2="-24353" x1="-25260" fill="none"/><line y2="-30850" y1="-31376" x2="-23446" x1="-24353" fill="none"/><line y2="-31376" y1="-30850" x2="-22539" x1="-23446" fill="none"/><line y2="-30850" y1="-31376" x2="-21632" x1="-22539" fill="none"/><line y2="-31376" y1="-30850" x2="-20724" x1="-21632" fill="none"/><line y2="-31156" y1="-30850" x2="-31231" x1="-30703" fill="none"/><line y2="-31018" y1="-31266" x2="-32228" x1="-31800" fill="none"/><line y2="-30024" y1="-30850" x2="-30633" x1="-30633" fill="none"/><line y2="-30024" y1="-30850" x2="-30775" x1="-30775" fill="none"/><line y2="-30960" y1="-31376" x2="-20005" x1="-20724" fill="none"/><line y2="-31318" y1="-31070" x2="-19008" x1="-19439" fill="none"/><line y2="-32202" y1="-31376" x2="-20794" x1="-20794" fill="none"/><line y2="-32202" y1="-31376" x2="-20655" x1="-20655" fill="none"/><text y="-30671" xml:space="preserve" x="-19970" stroke="none" font-size="433.3333" font-family="sans-serif">NH</text><text y="-32242" xml:space="preserve" x="-20878" stroke="none" font-size="433.3333" font-family="sans-serif">O</text><text y="-31249" xml:space="preserve" x="-18971" stroke="none" font-size="433.3333" font-family="sans-serif">NH</text><text y="-31159" xml:space="preserve" x="-18393" stroke="none" font-size="313.3333" font-family="sans-serif">2</text><text y="-31197" xml:space="preserve" x="-31763" stroke="none" font-size="433.3333" font-family="sans-serif">NH</text><text y="-29625" xml:space="preserve" x="-30856" stroke="none" font-size="433.3333" font-family="sans-serif">O</text><text y="-30619" xml:space="preserve" x="-32762" stroke="none" font-size="433.3333" font-family="sans-serif">NH</text><text y="-30529" xml:space="preserve" x="-32185" stroke="none" font-size="313.3333" font-family="sans-serif">2</text></g></g></svg>