<svg width="136.2" viewBox="0 0 4540 3654" text-rendering="auto" stroke-width="1" stroke-opacity="1" stroke-miterlimit="10" stroke-linejoin="miter" stroke-linecap="square" stroke-dashoffset="0" stroke-dasharray="none" stroke="black" shape-rendering="auto" image-rendering="auto" height="109.62" font-weight="normal" font-style="normal" font-size="12" font-family="'Dialog'" fill-opacity="1" fill="black" color-rendering="auto" color-interpolation="auto" xmlns="http://www.w3.org/2000/svg"><g><g stroke="white" fill="white"><rect y="0" x="0" width="4540" stroke="none" height="3654"/></g><g transform="translate(32866,32866)" text-rendering="geometricPrecision" stroke-width="44" stroke-linejoin="round" stroke-linecap="round"><line y2="-31772" y1="-30570" x2="-31725" x1="-31725" fill="none"/><line y2="-32372" y1="-31772" x2="-30685" x1="-31725" fill="none"/><line y2="-30570" y1="-30079" x2="-31725" x1="-30873" fill="none"/><line y2="-31881" y1="-32372" x2="-29833" x1="-30685" fill="none"/><line y2="-30079" y1="-30463" x2="-30498" x1="-29833" fill="none"/><line y2="-30789" y1="-31552" x2="-29645" x1="-29645" fill="none"/><line y2="-31607" y1="-31772" x2="-32762" x1="-31725" fill="none"/><line y2="-32762" y1="-31772" x2="-32066" x1="-31725" fill="none"/><line y2="-29807" y1="-30350" x2="-29368" x1="-29567" fill="none"/><line y2="-30789" y1="-30674" x2="-28813" x1="-29469" fill="none"/><line y2="-30651" y1="-30535" x2="-28790" x1="-29446" fill="none"/><text y="-29408" xml:space="preserve" x="-29518" stroke="none" font-size="433.3333" font-family="sans-serif">Cl</text><text y="-30573" xml:space="preserve" x="-28767" stroke="none" font-size="433.3333" font-family="sans-serif">O</text><text y="-29790" xml:space="preserve" x="-30836" stroke="none" font-size="433.3333" font-family="sans-serif">O</text><text y="-31592" xml:space="preserve" x="-29798" stroke="none" font-size="433.3333" font-family="sans-serif">O</text><text y="-30391" xml:space="preserve" x="-29798" stroke="none" font-size="433.3333" font-family="sans-serif">P</text></g></g></svg>