<svg width="247.29" viewBox="0 0 8243 4675" text-rendering="auto" stroke-width="1" stroke-opacity="1" stroke-miterlimit="10" stroke-linejoin="miter" stroke-linecap="square" stroke-dashoffset="0" stroke-dasharray="none" stroke="black" shape-rendering="auto" image-rendering="auto" height="140.25" font-weight="normal" font-style="normal" font-size="12" font-family="'Dialog'" fill-opacity="1" fill="black" color-rendering="auto" color-interpolation="auto" xmlns="http://www.w3.org/2000/svg"><g><g stroke="white" fill="white"><rect y="0" x="0" width="8243" stroke="none" height="4675"/></g><g transform="translate(32866,32758)" text-rendering="geometricPrecision" stroke-width="44" stroke-linejoin="round" stroke-linecap="round"><line y2="-30119" y1="-30688" x2="-28071" x1="-29056" fill="none"/><line y2="-30044" y1="-30472" x2="-28279" x1="-29018" fill="none"/><line y2="-28984" y1="-30119" x2="-28071" x1="-28071" fill="none"/><line y2="-30688" y1="-30119" x2="-29056" x1="-30041" fill="none"/><line y2="-28415" y1="-28984" x2="-29056" x1="-28071" fill="none"/><line y2="-28631" y1="-29059" x2="-29018" x1="-28279" fill="none"/><line y2="-30119" y1="-28984" x2="-30041" x1="-30041" fill="none"/><line y2="-29978" y1="-29125" x2="-29871" x1="-29871" fill="none"/><line y2="-28984" y1="-28415" x2="-30041" x1="-29056" fill="none"/><line y2="-30645" y1="-30119" x2="-27164" x1="-28071" fill="none"/><line y2="-28678" y1="-28984" x2="-30570" x1="-30041" fill="none"/><line y2="-28984" y1="-28568" x2="-31855" x1="-31136" fill="none"/><line y2="-31517" y1="-30688" x2="-29056" x1="-29056" fill="none"/><line y2="-32092" y1="-31844" x2="-29674" x1="-29244" fill="none"/><line y2="-30229" y1="-30645" x2="-26444" x1="-27164" fill="none"/><line y2="-30535" y1="-30229" x2="-25537" x1="-26069" fill="none"/><line y2="-31471" y1="-30645" x2="-27233" x1="-27233" fill="none"/><line y2="-31471" y1="-30645" x2="-27094" x1="-27094" fill="none"/><line y2="-28458" y1="-28984" x2="-32762" x1="-31855" fill="none"/><line y2="-29810" y1="-28984" x2="-31928" x1="-31928" fill="none"/><line y2="-29810" y1="-28984" x2="-31786" x1="-31786" fill="none"/><text y="-29940" xml:space="preserve" x="-26410" stroke="none" font-size="433.3333" font-family="sans-serif">O</text><text y="-31512" xml:space="preserve" x="-27317" stroke="none" font-size="433.3333" font-family="sans-serif">O</text><text y="-30466" xml:space="preserve" x="-25503" stroke="none" font-size="433.3333" font-family="sans-serif">CH</text><text y="-30376" xml:space="preserve" x="-24925" stroke="none" font-size="313.3333" font-family="sans-serif">3</text><text y="-31558" xml:space="preserve" x="-29206" stroke="none" font-size="433.3333" font-family="sans-serif">O</text><text y="-32242" xml:space="preserve" x="-30396" stroke="none" font-size="433.3333" font-family="sans-serif">CH</text><text y="-32153" xml:space="preserve" x="-29819" stroke="none" font-size="313.3333" font-family="sans-serif">3</text><text y="-28279" xml:space="preserve" x="-31101" stroke="none" font-size="433.3333" font-family="sans-serif">NH</text><text y="-29850" xml:space="preserve" x="-32008" stroke="none" font-size="433.3333" font-family="sans-serif">O</text></g></g></svg>