<svg width="298.86" viewBox="0 0 9962 9269" text-rendering="auto" stroke-width="1" stroke-opacity="1" stroke-miterlimit="10" stroke-linejoin="miter" stroke-linecap="square" stroke-dashoffset="0" stroke-dasharray="none" stroke="black" shape-rendering="auto" image-rendering="auto" height="278.07" font-weight="normal" font-style="normal" font-size="12" font-family="'Dialog'" fill-opacity="1" fill="black" color-rendering="auto" color-interpolation="auto" xmlns="http://www.w3.org/2000/svg"><g><g stroke="white" fill="white"><rect y="0" x="0" width="9962" stroke="none" height="9269"/></g><g transform="translate(32866,32758)" text-rendering="geometricPrecision" stroke-width="44" stroke-linejoin="round" stroke-linecap="round"><line y2="-27375" y1="-26161" x2="-28461" x1="-28461" fill="none"/><line y2="-27222" y1="-26312" x2="-28290" x1="-28290" fill="none"/><line y2="-27981" y1="-27375" x2="-27409" x1="-28461" fill="none"/><line y2="-27375" y1="-27762" x2="-28461" x1="-29131" fill="none"/><line y2="-26161" y1="-26161" x2="-30558" x1="-28461" fill="none"/><line y2="-26161" y1="-25552" x2="-28461" x1="-27409" fill="none"/><line y2="-27482" y1="-27981" x2="-26540" x1="-27409" fill="none"/><line y2="-29195" y1="-27981" x2="-27409" x1="-27409" fill="none"/><line y2="-27872" y1="-27375" x2="-29697" x1="-30558" fill="none"/><line y2="-27375" y1="-26161" x2="-30558" x1="-30558" fill="none"/><line y2="-25552" y1="-26161" x2="-31613" x1="-30558" fill="none"/><line y2="-25777" y1="-26231" x2="-31566" x1="-30775" fill="none"/><line y2="-25552" y1="-26161" x2="-27409" x1="-26352" fill="none"/><line y2="-26161" y1="-27155" x2="-26352" x1="-26352" fill="none"/><line y2="-27482" y1="-27981" x2="-26164" x1="-25300" fill="none"/><line y2="-29804" y1="-29195" x2="-26352" x1="-27409" fill="none"/><line y2="-27375" y1="-27981" x2="-30558" x1="-31613" fill="none"/><line y2="-27302" y1="-27759" x2="-30775" x1="-31566" fill="none"/><line y2="-26161" y1="-25552" x2="-32664" x1="-31613" fill="none"/><line y2="-27981" y1="-29195" x2="-25300" x1="-25300" fill="none"/><line y2="-29195" y1="-29804" x2="-25300" x1="-26352" fill="none"/><line y2="-27981" y1="-27375" x2="-31613" x1="-32664" fill="none"/><line y2="-27375" y1="-26161" x2="-32664" x1="-32664" fill="none"/><line y2="-27222" y1="-26312" x2="-32494" x1="-32494" fill="none"/><line y2="-29195" y1="-29720" x2="-23486" x1="-24393" fill="none"/><line y2="-24726" y1="-25552" x2="-31613" x1="-31613" fill="none"/><line y2="-24148" y1="-24396" x2="-32231" x1="-31800" fill="none"/><line y2="-31376" y1="-30850" x2="-27259" x1="-26352" fill="none"/><line y2="-31188" y1="-30795" x2="-27216" x1="-26537" fill="none"/><line y2="-31376" y1="-30850" x2="-25445" x1="-26352" fill="none"/><line y2="-30960" y1="-31376" x2="-27978" x1="-27259" fill="none"/><line y2="-31208" y1="-30960" x2="-28784" x1="-28354" fill="none"/><line y2="-30960" y1="-31376" x2="-24726" x1="-25445" fill="none"/><line y2="-31266" y1="-30960" x2="-23818" x1="-24350" fill="none"/><line y2="-32202" y1="-31376" x2="-25514" x1="-25514" fill="none"/><line y2="-32202" y1="-31376" x2="-25376" x1="-25376" fill="none"/><polygon stroke-width="1" stroke="none" points=" -27409 -27981 -27340 -27152 -27476 -27152"/><polygon stroke-width="1" points=" -27409 -27981 -27340 -27152 -27476 -27152" fill="none"/><line y2="-30850" y1="-30850" x2="-26283" x1="-26421" fill="none"/><line y2="-30633" y1="-30633" x2="-26297" x1="-26407" fill="none"/><line y2="-30417" y1="-30417" x2="-26312" x1="-26392" fill="none"/><line y2="-30200" y1="-30200" x2="-26326" x1="-26378" fill="none"/><line y2="-29983" y1="-29983" x2="-26340" x1="-26364" fill="none"/><line y2="-29660" y1="-29778" x2="-24359" x1="-24428" fill="none"/><line y2="-29564" y1="-29657" x2="-24554" x1="-24608" fill="none"/><line y2="-29468" y1="-29537" x2="-24748" x1="-24789" fill="none"/><line y2="-29371" y1="-29416" x2="-24943" x1="-24969" fill="none"/><line y2="-29275" y1="-29295" x2="-25138" x1="-25150" fill="none"/><text y="-24327" xml:space="preserve" x="-31766" stroke="none" font-size="433.3333" font-family="sans-serif">O</text><text y="-23749" xml:space="preserve" x="-32762" stroke="none" font-size="433.3333" font-family="sans-serif">CH</text><text y="-23660" xml:space="preserve" x="-32185" stroke="none" font-size="313.3333" font-family="sans-serif">3</text><text y="-30671" xml:space="preserve" x="-24691" stroke="none" font-size="433.3333" font-family="sans-serif">O</text><text y="-32242" xml:space="preserve" x="-25598" stroke="none" font-size="433.3333" font-family="sans-serif">O</text><text y="-30671" xml:space="preserve" x="-28319" stroke="none" font-size="433.3333" font-family="sans-serif">O</text><text y="-31197" xml:space="preserve" x="-23784" stroke="none" font-size="433.3333" font-family="sans-serif">CH</text><text y="-31107" xml:space="preserve" x="-23206" stroke="none" font-size="313.3333" font-family="sans-serif">3</text><text y="-31358" xml:space="preserve" x="-29507" stroke="none" font-size="433.3333" font-family="sans-serif">CH</text><text y="-31269" xml:space="preserve" x="-28929" stroke="none" font-size="313.3333" font-family="sans-serif">3</text><text y="-27802" xml:space="preserve" x="-29663" stroke="none" font-size="433.3333" font-family="sans-serif">NH</text><text y="-27196" xml:space="preserve" x="-26505" stroke="none" font-size="433.3333" font-family="sans-serif">N</text><text y="-26754" xml:space="preserve" x="-27560" stroke="none" font-size="433.3333" font-family="sans-serif">H</text><text y="-30486" xml:space="preserve" x="-27216" stroke="none" font-style="italic" font-size="313.3333" font-family="sans-serif">E</text><text y="-27947" xml:space="preserve" x="-27808" stroke="none" font-style="italic" font-size="313.3333" font-family="sans-serif">S</text><text y="-29322" xml:space="preserve" x="-26505" stroke="none" font-style="italic" font-size="313.3333" font-family="sans-serif">S</text><text y="-28874" xml:space="preserve" x="-25702" stroke="none" font-style="italic" font-size="313.3333" font-family="sans-serif">S</text></g></g></svg>