<svg width="172.17" viewBox="0 0 5739 4148" text-rendering="auto" stroke-width="1" stroke-opacity="1" stroke-miterlimit="10" stroke-linejoin="miter" stroke-linecap="square" stroke-dashoffset="0" stroke-dasharray="none" stroke="black" shape-rendering="auto" image-rendering="auto" height="124.44" font-weight="normal" font-style="normal" font-size="12" font-family="'Dialog'" fill-opacity="1" fill="black" color-rendering="auto" color-interpolation="auto" xmlns="http://www.w3.org/2000/svg"><g><g stroke="white" fill="white"><rect y="0" x="0" width="5739" stroke="none" height="4148"/></g><g transform="translate(32866,32866)" text-rendering="geometricPrecision" stroke-width="44" stroke-linejoin="round" stroke-linecap="round"><line y2="-30792" y1="-30792" x2="-29351" x1="-30489" fill="none"/><line y2="-30792" y1="-29804" x2="-30489" x1="-31058" fill="none"/><line y2="-30581" y1="-29842" x2="-30411" x1="-30838" fill="none"/><line y2="-31555" y1="-30792" x2="-30931" x1="-30489" fill="none"/><line y2="-29804" y1="-30792" x2="-28782" x1="-29351" fill="none"/><line y2="-29842" y1="-30581" x2="-29001" x1="-29429" fill="none"/><line y2="-30792" y1="-31774" x2="-29351" x1="-28782" fill="none"/><line y2="-29804" y1="-28822" x2="-31058" x1="-30489" fill="none"/><line y2="-29804" y1="-29804" x2="-32193" x1="-31058" fill="none"/><line y2="-32762" y1="-31994" x2="-30489" x1="-30931" fill="none"/><line y2="-31774" y1="-31774" x2="-31246" x1="-32193" fill="none"/><line y2="-28822" y1="-29804" x2="-29351" x1="-28782" fill="none"/><line y2="-31774" y1="-32762" x2="-28782" x1="-29351" fill="none"/><line y2="-28822" y1="-28822" x2="-30489" x1="-29351" fill="none"/><line y2="-28992" y1="-28992" x2="-30344" x1="-29492" fill="none"/><line y2="-30792" y1="-29804" x2="-32762" x1="-32193" fill="none"/><line y2="-32762" y1="-32762" x2="-29351" x1="-30489" fill="none"/><line y2="-31774" y1="-30792" x2="-32193" x1="-32762" fill="none"/><line y2="-29804" y1="-29804" x2="-27924" x1="-28782" fill="none"/><text y="-29625" xml:space="preserve" x="-27886" stroke="none" font-size="433.3333" font-family="sans-serif">OH</text><text y="-31595" xml:space="preserve" x="-31208" stroke="none" font-size="433.3333" font-family="sans-serif">N</text></g></g></svg>