<svg width="229.02" viewBox="0 0 7634 2685" text-rendering="auto" stroke-width="1" stroke-opacity="1" stroke-miterlimit="10" stroke-linejoin="miter" stroke-linecap="square" stroke-dashoffset="0" stroke-dasharray="none" stroke="black" shape-rendering="auto" image-rendering="auto" height="80.55" font-weight="normal" font-style="normal" font-size="12" font-family="'Dialog'" fill-opacity="1" fill="black" color-rendering="auto" color-interpolation="auto" xmlns="http://www.w3.org/2000/svg"><g><g stroke="white" fill="white"><rect y="0" x="0" width="7634" stroke="none" height="2685"/></g><g transform="translate(32866,32758)" text-rendering="geometricPrecision" stroke-width="44" stroke-linejoin="round" stroke-linecap="round"><line y2="-30752" y1="-31899" x2="-29741" x1="-29741" fill="none"/><line y2="-32471" y1="-31899" x2="-28758" x1="-29741" fill="none"/><line y2="-32251" y1="-31824" x2="-28793" x1="-29530" fill="none"/><line y2="-31899" y1="-32471" x2="-29741" x1="-30723" fill="none"/><line y2="-30752" y1="-30177" x2="-29741" x1="-28758" fill="none"/><line y2="-30827" y1="-30396" x2="-29530" x1="-28793" fill="none"/><line y2="-30177" y1="-30752" x2="-30723" x1="-29741" fill="none"/><line y2="-31899" y1="-32471" x2="-27773" x1="-28758" fill="none"/><line y2="-32471" y1="-31899" x2="-30723" x1="-31705" fill="none"/><line y2="-30177" y1="-30752" x2="-28758" x1="-27773" fill="none"/><line y2="-30752" y1="-30177" x2="-31705" x1="-30723" fill="none"/><line y2="-30752" y1="-31899" x2="-27773" x1="-27773" fill="none"/><line y2="-30893" y1="-31754" x2="-27944" x1="-27944" fill="none"/><line y2="-31899" y1="-30752" x2="-31705" x1="-31705" fill="none"/><line y2="-32312" y1="-31899" x2="-27057" x1="-27773" fill="none"/><line y2="-32006" y1="-32312" x2="-26150" x1="-26678" fill="none"/><line y2="-32251" y1="-31838" x2="-32459" x1="-31740" fill="none"/><line y2="-32375" y1="-31959" x2="-32390" x1="-31670" fill="none"/><text y="-32242" xml:space="preserve" x="-27019" stroke="none" font-size="433.3333" font-family="sans-serif">O</text><text y="-31720" xml:space="preserve" x="-26112" stroke="none" font-size="433.3333" font-family="sans-serif">CH</text><text y="-31630" xml:space="preserve" x="-25534" stroke="none" font-size="313.3333" font-family="sans-serif">3</text><text y="-32242" xml:space="preserve" x="-32762" stroke="none" font-size="433.3333" font-family="sans-serif">O</text></g></g></svg>