<svg width="350.64" viewBox="0 0 11688 5582" text-rendering="auto" stroke-width="1" stroke-opacity="1" stroke-miterlimit="10" stroke-linejoin="miter" stroke-linecap="square" stroke-dashoffset="0" stroke-dasharray="none" stroke="black" shape-rendering="auto" image-rendering="auto" height="167.46" font-weight="normal" font-style="normal" font-size="12" font-family="'Dialog'" fill-opacity="1" fill="black" color-rendering="auto" color-interpolation="auto" xmlns="http://www.w3.org/2000/svg"><g><g stroke="white" fill="white"><rect y="0" x="0" width="11688" stroke="none" height="5582"/></g><g transform="translate(32866,32758)" text-rendering="geometricPrecision" stroke-width="44" stroke-linejoin="round" stroke-linecap="round"><line y2="-30119" y1="-28984" x2="-29758" x1="-29758" fill="none"/><line y2="-28984" y1="-28984" x2="-29758" x1="-27788" fill="none"/><line y2="-28984" y1="-28984" x2="-31540" x1="-29758" fill="none"/><line y2="-30688" y1="-30119" x2="-28770" x1="-29758" fill="none"/><line y2="-30119" y1="-30581" x2="-29758" x1="-30552" fill="none"/><line y2="-28984" y1="-29900" x2="-27788" x1="-27788" fill="none"/><line y2="-30119" y1="-29203" x2="-31728" x1="-31728" fill="none"/><line y2="-30229" y1="-30688" x2="-27976" x1="-28770" fill="none"/><line y2="-30581" y1="-30119" x2="-30928" x1="-31728" fill="none"/><line y2="-28874" y1="-28458" x2="-26161" x1="-26881" fill="none"/><line y2="-28568" y1="-28874" x2="-25254" x1="-25786" fill="none"/><line y2="-29957" y1="-30119" x2="-32762" x1="-31728" fill="none"/><line y2="-31110" y1="-30119" x2="-32069" x1="-31728" fill="none"/><line y2="-32092" y1="-31844" x2="-29388" x1="-28958" fill="none"/><line y2="-28984" y1="-28568" x2="-24159" x1="-24879" fill="none"/><line y2="-27805" y1="-28273" x2="-24607" x1="-24879" fill="none"/><line y2="-27736" y1="-28204" x2="-24728" x1="-25000" fill="none"/><line y2="-27736" y1="-28204" x2="-25402" x1="-25130" fill="none"/><line y2="-27805" y1="-28273" x2="-25523" x1="-25251" fill="none"/><line y2="-30119" y1="-28984" x2="-24159" x1="-24159" fill="none"/><line y2="-29978" y1="-29125" x2="-23989" x1="-23989" fill="none"/><line y2="-28984" y1="-28415" x2="-24159" x1="-23171" fill="none"/><line y2="-30688" y1="-30119" x2="-23171" x1="-24159" fill="none"/><line y2="-28415" y1="-28984" x2="-23171" x1="-22189" fill="none"/><line y2="-28631" y1="-29059" x2="-23134" x1="-22397" fill="none"/><line y2="-30119" y1="-30688" x2="-22189" x1="-23171" fill="none"/><line y2="-30044" y1="-30472" x2="-22397" x1="-23134" fill="none"/><line y2="-28984" y1="-30119" x2="-22189" x1="-22189" fill="none"/><line y2="-30645" y1="-30119" x2="-21282" x1="-22189" fill="none"/><line y2="-28397" y1="-28519" x2="-26912" x1="-26846" fill="none"/><line y2="-28518" y1="-28615" x2="-27093" x1="-27040" fill="none"/><line y2="-28639" y1="-28711" x2="-27273" x1="-27235" fill="none"/><line y2="-28760" y1="-28807" x2="-27454" x1="-27429" fill="none"/><line y2="-28881" y1="-28903" x2="-27635" x1="-27623" fill="none"/><line y2="-31517" y1="-31517" x2="-28701" x1="-28839" fill="none"/><line y2="-31300" y1="-31300" x2="-28719" x1="-28821" fill="none"/><line y2="-31084" y1="-31084" x2="-28737" x1="-28803" fill="none"/><line y2="-30867" y1="-30867" x2="-28755" x1="-28785" fill="none"/><line y2="-28155" y1="-28155" x2="-29827" x1="-29689" fill="none"/><line y2="-28372" y1="-28372" x2="-29809" x1="-29707" fill="none"/><line y2="-28588" y1="-28588" x2="-29791" x1="-29725" fill="none"/><line y2="-28805" y1="-28805" x2="-29773" x1="-29743" fill="none"/><line y2="-30948" y1="-30948" x2="-29689" x1="-29827" fill="none"/><line y2="-30731" y1="-30731" x2="-29707" x1="-29809" fill="none"/><line y2="-30515" y1="-30515" x2="-29725" x1="-29791" fill="none"/><line y2="-30298" y1="-30298" x2="-29743" x1="-29773" fill="none"/><text y="-28805" xml:space="preserve" x="-26124" stroke="none" font-size="433.3333" font-family="sans-serif">O</text><text y="-28279" xml:space="preserve" x="-25217" stroke="none" font-size="433.3333" font-family="sans-serif">S</text><text y="-27372" xml:space="preserve" x="-24694" stroke="none" font-size="433.3333" font-family="sans-serif">O</text><text y="-27372" xml:space="preserve" x="-25742" stroke="none" font-size="433.3333" font-family="sans-serif">O</text><text y="-31558" xml:space="preserve" x="-28923" stroke="none" font-size="433.3333" font-family="sans-serif">O</text><text y="-32242" xml:space="preserve" x="-30110" stroke="none" font-size="433.3333" font-family="sans-serif">CH</text><text y="-32153" xml:space="preserve" x="-29533" stroke="none" font-size="313.3333" font-family="sans-serif">3</text><text y="-28805" xml:space="preserve" x="-31881" stroke="none" font-size="433.3333" font-family="sans-serif">O</text><text y="-30509" xml:space="preserve" x="-30893" stroke="none" font-size="433.3333" font-family="sans-serif">O</text><text y="-29940" xml:space="preserve" x="-27938" stroke="none" font-size="433.3333" font-family="sans-serif">O</text><text y="-27756" xml:space="preserve" x="-29908" stroke="none" font-size="433.3333" font-family="sans-serif">H</text><text y="-30989" xml:space="preserve" x="-29908" stroke="none" font-size="433.3333" font-family="sans-serif">H</text><text y="-29079" xml:space="preserve" x="-30154" stroke="none" font-style="italic" font-size="313.3333" font-family="sans-serif">R</text><text y="-29796" xml:space="preserve" x="-29660" stroke="none" font-style="italic" font-size="313.3333" font-family="sans-serif">R</text><text y="-29079" xml:space="preserve" x="-28184" stroke="none" font-style="italic" font-size="313.3333" font-family="sans-serif">R</text><text y="-30206" xml:space="preserve" x="-28923" stroke="none" font-style="italic" font-size="313.3333" font-family="sans-serif">R</text></g></g></svg>