<svg width="220.08" viewBox="0 0 7336 2671" text-rendering="auto" stroke-width="1" stroke-opacity="1" stroke-miterlimit="10" stroke-linejoin="miter" stroke-linecap="square" stroke-dashoffset="0" stroke-dasharray="none" stroke="black" shape-rendering="auto" image-rendering="auto" height="80.13" font-weight="normal" font-style="normal" font-size="12" font-family="'Dialog'" fill-opacity="1" fill="black" color-rendering="auto" color-interpolation="auto" xmlns="http://www.w3.org/2000/svg"><g><g stroke="white" fill="white"><rect y="0" x="0" width="7336" stroke="none" height="2671"/></g><g transform="translate(32866,32758)" text-rendering="geometricPrecision" stroke-width="44" stroke-linejoin="round" stroke-linecap="round"><line y2="-31896" y1="-32465" x2="-30792" x1="-31777" fill="none"/><line y2="-31821" y1="-32248" x2="-31000" x1="-31740" fill="none"/><line y2="-30758" y1="-31896" x2="-30792" x1="-30792" fill="none"/><line y2="-32465" y1="-31896" x2="-31777" x1="-32762" fill="none"/><line y2="-30191" y1="-30758" x2="-31777" x1="-30792" fill="none"/><line y2="-30408" y1="-30836" x2="-31740" x1="-31000" fill="none"/><line y2="-31896" y1="-30758" x2="-32762" x1="-32762" fill="none"/><line y2="-31754" y1="-30902" x2="-32592" x1="-32592" fill="none"/><line y2="-30758" y1="-30191" x2="-32762" x1="-31777" fill="none"/><line y2="-32422" y1="-31896" x2="-29885" x1="-30792" fill="none"/><line y2="-32006" y1="-32422" x2="-29166" x1="-29885" fill="none"/><line y2="-32422" y1="-32115" x2="-28071" x1="-28600" fill="none"/><line y2="-31896" y1="-32422" x2="-27164" x1="-28071" fill="none"/><line y2="-32312" y1="-31896" x2="-26444" x1="-27164" fill="none"/><text y="-31717" xml:space="preserve" x="-29131" stroke="none" font-size="433.3333" font-family="sans-serif">NH</text><text y="-32242" xml:space="preserve" x="-26410" stroke="none" font-size="433.3333" font-family="sans-serif">NH</text><text y="-32153" xml:space="preserve" x="-25832" stroke="none" font-size="313.3333" font-family="sans-serif">2</text></g></g></svg>