<svg width="188.73" viewBox="0 0 6291 5144" text-rendering="auto" stroke-width="1" stroke-opacity="1" stroke-miterlimit="10" stroke-linejoin="miter" stroke-linecap="square" stroke-dashoffset="0" stroke-dasharray="none" stroke="black" shape-rendering="auto" image-rendering="auto" height="154.32" font-weight="normal" font-style="normal" font-size="12" font-family="'Dialog'" fill-opacity="1" fill="black" color-rendering="auto" color-interpolation="auto" xmlns="http://www.w3.org/2000/svg"><g><g stroke="white" fill="white"><rect y="0" x="0" width="6291" stroke="none" height="5144"/></g><g transform="translate(32866,32866)" text-rendering="geometricPrecision" stroke-width="44" stroke-linejoin="round" stroke-linecap="round"><line y2="-29472" y1="-30619" x2="-29738" x1="-29738" fill="none"/><line y2="-31191" y1="-30619" x2="-28756" x1="-29738" fill="none"/><line y2="-30619" y1="-31191" x2="-29738" x1="-30720" fill="none"/><line y2="-30544" y1="-30971" x2="-29946" x1="-30682" fill="none"/><line y2="-29472" y1="-28897" x2="-29738" x1="-28756" fill="none"/><line y2="-28897" y1="-29472" x2="-30720" x1="-29738" fill="none"/><line y2="-29117" y1="-29547" x2="-30682" x1="-29946" fill="none"/><line y2="-30619" y1="-31191" x2="-27773" x1="-28756" fill="none"/><line y2="-30544" y1="-30971" x2="-27981" x1="-28718" fill="none"/><line y2="-31191" y1="-30619" x2="-30720" x1="-31702" fill="none"/><line y2="-28897" y1="-29472" x2="-28756" x1="-27773" fill="none"/><line y2="-29472" y1="-28897" x2="-31702" x1="-30720" fill="none"/><line y2="-29472" y1="-30619" x2="-27773" x1="-27773" fill="none"/><line y2="-30619" y1="-29472" x2="-31702" x1="-31702" fill="none"/><line y2="-30474" y1="-29614" x2="-31532" x1="-31532" fill="none"/><line y2="-32240" y1="-31191" x2="-28756" x1="-28756" fill="none"/><line y2="-31142" y1="-30619" x2="-32609" x1="-31702" fill="none"/><line y2="-29166" y1="-29472" x2="-32231" x1="-31702" fill="none"/><line y2="-29117" y1="-29533" x2="-27019" x1="-27739" fill="none"/><line y2="-28995" y1="-29411" x2="-27089" x1="-27808" fill="none"/><line y2="-32762" y1="-32240" x2="-27848" x1="-28756" fill="none"/><line y2="-32762" y1="-32240" x2="-29663" x1="-28756" fill="none"/><polygon stroke-width="1" stroke="none" points=" -28756 -28897 -29374 -28051 -29481 -28137"/><polygon stroke-width="1" points=" -28756 -28897 -29374 -28051 -29481 -28137" fill="none"/><line y2="-28270" y1="-28360" x2="-28319" x1="-28212" fill="none"/><line y2="-28448" y1="-28513" x2="-28443" x1="-28367" fill="none"/><line y2="-28627" y1="-28666" x2="-28568" x1="-28522" fill="none"/><line y2="-28805" y1="-28819" x2="-28692" x1="-28677" fill="none"/><text y="-27918" xml:space="preserve" x="-28233" stroke="none" font-size="433.3333" font-family="sans-serif">OH</text><text y="-28767" xml:space="preserve" x="-27016" stroke="none" font-size="433.3333" font-family="sans-serif">O</text><text y="-28767" xml:space="preserve" x="-32762" stroke="none" font-size="433.3333" font-family="sans-serif">OH</text><text y="-29021" xml:space="preserve" x="-28909" stroke="none" font-style="italic" font-size="313.3333" font-family="sans-serif">R</text></g></g></svg>