<svg width="337.47" viewBox="0 0 11249 5080" text-rendering="auto" stroke-width="1" stroke-opacity="1" stroke-miterlimit="10" stroke-linejoin="miter" stroke-linecap="square" stroke-dashoffset="0" stroke-dasharray="none" stroke="black" shape-rendering="auto" image-rendering="auto" height="152.4" font-weight="normal" font-style="normal" font-size="12" font-family="'Dialog'" fill-opacity="1" fill="black" color-rendering="auto" color-interpolation="auto" xmlns="http://www.w3.org/2000/svg"><g><g stroke="white" fill="white"><rect y="0" x="0" width="11249" stroke="none" height="5080"/></g><g transform="translate(32866,32758)" text-rendering="geometricPrecision" stroke-width="44" stroke-linejoin="round" stroke-linecap="round"><line y2="-30807" y1="-31376" x2="-26257" x1="-27239" fill="none"/><line y2="-30729" y1="-31156" x2="-26465" x1="-27201" fill="none"/><line y2="-29668" y1="-30807" x2="-26257" x1="-26257" fill="none"/><line y2="-31376" y1="-30807" x2="-27239" x1="-28227" fill="none"/><line y2="-29099" y1="-29668" x2="-27239" x1="-26257" fill="none"/><line y2="-29319" y1="-29744" x2="-27201" x1="-26465" fill="none"/><line y2="-30807" y1="-29668" x2="-28227" x1="-28227" fill="none"/><line y2="-30665" y1="-29810" x2="-28056" x1="-28056" fill="none"/><line y2="-29668" y1="-29099" x2="-28227" x1="-27239" fill="none"/><line y2="-31223" y1="-30807" x2="-25537" x1="-26257" fill="none"/><line y2="-30807" y1="-31110" x2="-24442" x1="-24971" fill="none"/><line y2="-29365" y1="-29668" x2="-28756" x1="-28227" fill="none"/><line y2="-29668" y1="-29252" x2="-30041" x1="-29322" fill="none"/><line y2="-32202" y1="-31376" x2="-27239" x1="-27239" fill="none"/><line y2="-28273" y1="-29099" x2="-27239" x1="-27239" fill="none"/><line y2="-31330" y1="-30807" x2="-23535" x1="-24442" fill="none"/><line y2="-30807" y1="-31330" x2="-22628" x1="-23535" fill="none"/><line y2="-29978" y1="-30807" x2="-24373" x1="-24373" fill="none"/><line y2="-29978" y1="-30807" x2="-24512" x1="-24512" fill="none"/><line y2="-29146" y1="-29668" x2="-30948" x1="-30041" fill="none"/><line y2="-29668" y1="-29146" x2="-31855" x1="-30948" fill="none"/><line y2="-30498" y1="-29668" x2="-30110" x1="-30110" fill="none"/><line y2="-30498" y1="-29668" x2="-29972" x1="-29972" fill="none"/><line y2="-31330" y1="-30807" x2="-21721" x1="-22628" fill="none"/><line y2="-29978" y1="-30807" x2="-22559" x1="-22559" fill="none"/><line y2="-29978" y1="-30807" x2="-22698" x1="-22698" fill="none"/><line y2="-29146" y1="-29668" x2="-32762" x1="-31855" fill="none"/><line y2="-30498" y1="-29668" x2="-31925" x1="-31925" fill="none"/><line y2="-30498" y1="-29668" x2="-31786" x1="-31786" fill="none"/><text y="-31150" xml:space="preserve" x="-25503" stroke="none" font-size="433.3333" font-family="sans-serif">NH</text><text y="-29579" xml:space="preserve" x="-24596" stroke="none" font-size="433.3333" font-family="sans-serif">O</text><text y="-29579" xml:space="preserve" x="-22781" stroke="none" font-size="433.3333" font-family="sans-serif">O</text><text y="-32242" xml:space="preserve" x="-27473" stroke="none" font-size="433.3333" font-family="sans-serif">Cl</text><text y="-27874" xml:space="preserve" x="-27473" stroke="none" font-size="433.3333" font-family="sans-serif">Cl</text><text y="-28966" xml:space="preserve" x="-29287" stroke="none" font-size="433.3333" font-family="sans-serif">NH</text><text y="-30538" xml:space="preserve" x="-30194" stroke="none" font-size="433.3333" font-family="sans-serif">O</text><text y="-30538" xml:space="preserve" x="-32008" stroke="none" font-size="433.3333" font-family="sans-serif">O</text></g></g></svg>