<svg width="256.77" viewBox="0 0 8559 4064" text-rendering="auto" stroke-width="1" stroke-opacity="1" stroke-miterlimit="10" stroke-linejoin="miter" stroke-linecap="square" stroke-dashoffset="0" stroke-dasharray="none" stroke="black" shape-rendering="auto" image-rendering="auto" height="121.92" font-weight="normal" font-style="normal" font-size="12" font-family="'Dialog'" fill-opacity="1" fill="black" color-rendering="auto" color-interpolation="auto" xmlns="http://www.w3.org/2000/svg"><g><g stroke="white" fill="white"><rect y="0" x="0" width="8559" stroke="none" height="4064"/></g><g transform="translate(32866,32866)" text-rendering="geometricPrecision" stroke-width="44" stroke-linejoin="round" stroke-linecap="round"><line y2="-31809" y1="-31191" x2="-27389" x1="-28224" fill="none"/><line y2="-31592" y1="-31130" x2="-27392" x1="-28019" fill="none"/><line y2="-31191" y1="-30255" x2="-28224" x1="-27938" fill="none"/><line y2="-31335" y1="-31800" x2="-26413" x1="-27014" fill="none"/><line y2="-30035" y1="-30035" x2="-27681" x1="-26624" fill="none"/><line y2="-30206" y1="-30206" x2="-27548" x1="-26756" fill="none"/><line y2="-30035" y1="-30971" x2="-26624" x1="-26300" fill="none"/><line y2="-31714" y1="-31298" x2="-25318" x1="-26034" fill="none"/><line y2="-31607" y1="-31191" x2="-28943" x1="-28224" fill="none"/><line y2="-31298" y1="-31607" x2="-29850" x1="-29322" fill="none"/><line y2="-29397" y1="-30035" x2="-26176" x1="-26624" fill="none"/><line y2="-31191" y1="-31714" x2="-24411" x1="-25318" fill="none"/><line y2="-32762" y1="-31714" x2="-25318" x1="-25318" fill="none"/><line y2="-31607" y1="-31298" x2="-30758" x1="-30229" fill="none"/><line y2="-31191" y1="-31607" x2="-31855" x1="-31136" fill="none"/><line y2="-31714" y1="-31191" x2="-32762" x1="-31855" fill="none"/><line y2="-30362" y1="-30971" x2="-30038" x1="-30038" fill="none"/><line y2="-29619" y1="-30035" x2="-30948" x1="-30229" fill="none"/><line y2="-30142" y1="-29619" x2="-31855" x1="-30948" fill="none"/><line y2="-30714" y1="-31020" x2="-30723" x1="-30191" fill="none"/><line y2="-30836" y1="-31145" x2="-30792" x1="-30264" fill="none"/><text y="-31012" xml:space="preserve" x="-30191" stroke="none" font-size="433.3333" font-family="sans-serif">P</text><text y="-31535" xml:space="preserve" x="-29284" stroke="none" font-size="433.3333" font-family="sans-serif">O</text><text y="-31535" xml:space="preserve" x="-31098" stroke="none" font-size="433.3333" font-family="sans-serif">O</text><text y="-29963" xml:space="preserve" x="-30191" stroke="none" font-size="433.3333" font-family="sans-serif">O</text><text y="-30489" xml:space="preserve" x="-31098" stroke="none" font-size="433.3333" font-family="sans-serif">S</text><text y="-28998" xml:space="preserve" x="-26254" stroke="none" font-size="433.3333" font-family="sans-serif">Cl</text><text y="-31769" xml:space="preserve" x="-27354" stroke="none" font-size="433.3333" font-family="sans-serif">N</text><text y="-29856" xml:space="preserve" x="-28022" stroke="none" font-size="433.3333" font-family="sans-serif">N</text><text y="-31012" xml:space="preserve" x="-26375" stroke="none" font-size="433.3333" font-family="sans-serif">N</text></g></g></svg>