<svg width="220.95" viewBox="0 0 7365 3690" text-rendering="auto" stroke-width="1" stroke-opacity="1" stroke-miterlimit="10" stroke-linejoin="miter" stroke-linecap="square" stroke-dashoffset="0" stroke-dasharray="none" stroke="black" shape-rendering="auto" image-rendering="auto" height="110.7" font-weight="normal" font-style="normal" font-size="12" font-family="'Dialog'" fill-opacity="1" fill="black" color-rendering="auto" color-interpolation="auto" xmlns="http://www.w3.org/2000/svg"><g><g stroke="white" fill="white"><rect y="0" x="0" width="7365" stroke="none" height="3690"/></g><g transform="translate(32866,32758)" text-rendering="geometricPrecision" stroke-width="44" stroke-linejoin="round" stroke-linecap="round"><line y2="-29172" y1="-30235" x2="-31289" x1="-30922" fill="none"/><line y2="-29359" y1="-30157" x2="-31405" x1="-31127" fill="none"/><line y2="-30235" y1="-30786" x2="-30922" x1="-31633" fill="none"/><line y2="-29172" y1="-29172" x2="-32436" x1="-31289" fill="none"/><line y2="-30792" y1="-30235" x2="-32008" x1="-32762" fill="none"/><line y2="-30235" y1="-29172" x2="-32762" x1="-32436" fill="none"/><line y2="-30151" y1="-29354" x2="-32560" x1="-32315" fill="none"/><line y2="-30758" y1="-30235" x2="-30015" x1="-30922" fill="none"/><line y2="-31896" y1="-30758" x2="-30015" x1="-30015" fill="none"/><line y2="-31754" y1="-30902" x2="-29845" x1="-29845" fill="none"/><line y2="-30758" y1="-30191" x2="-30015" x1="-29027" fill="none"/><line y2="-32465" y1="-31896" x2="-29027" x1="-30015" fill="none"/><line y2="-30191" y1="-30758" x2="-29027" x1="-28045" fill="none"/><line y2="-30408" y1="-30836" x2="-28990" x1="-28250" fill="none"/><line y2="-31896" y1="-32465" x2="-28045" x1="-29027" fill="none"/><line y2="-31821" y1="-32248" x2="-28250" x1="-28990" fill="none"/><line y2="-30758" y1="-31896" x2="-28045" x1="-28045" fill="none"/><line y2="-32312" y1="-31896" x2="-27326" x1="-28045" fill="none"/><line y2="-32006" y1="-32312" x2="-26418" x1="-26947" fill="none"/><text y="-32242" xml:space="preserve" x="-27288" stroke="none" font-size="433.3333" font-family="sans-serif">O</text><text y="-31717" xml:space="preserve" x="-26381" stroke="none" font-size="433.3333" font-family="sans-serif">CH</text><text y="-31627" xml:space="preserve" x="-25803" stroke="none" font-size="313.3333" font-family="sans-serif">3</text><text y="-30752" xml:space="preserve" x="-31974" stroke="none" font-size="433.3333" font-family="sans-serif">S</text></g></g></svg>