<svg width="770.07" viewBox="0 0 25669 16531" text-rendering="auto" stroke-width="1" stroke-opacity="1" stroke-miterlimit="10" stroke-linejoin="miter" stroke-linecap="square" stroke-dashoffset="0" stroke-dasharray="none" stroke="black" shape-rendering="auto" image-rendering="auto" height="495.93" font-weight="normal" font-style="normal" font-size="12" font-family="'Dialog'" fill-opacity="1" fill="black" color-rendering="auto" color-interpolation="auto" xmlns="http://www.w3.org/2000/svg"><g><g stroke="white" fill="white"><rect y="0" x="0" width="25669" stroke="none" height="16531"/></g><g transform="translate(32866,32758)" text-rendering="geometricPrecision" stroke-width="44" stroke-linejoin="round" stroke-linecap="round"><line y2="-24252" y1="-24775" x2="-23382" x1="-24289" fill="none"/><line y2="-24197" y1="-24590" x2="-23567" x1="-24246" fill="none"/><line y2="-24252" y1="-24775" x2="-25196" x1="-24289" fill="none"/><line y2="-24775" y1="-24252" x2="-22475" x1="-23382" fill="none"/><line y2="-24775" y1="-24252" x2="-26104" x1="-25196" fill="none"/><line y2="-24590" y1="-24197" x2="-26060" x1="-25381" fill="none"/><line y2="-24252" y1="-24775" x2="-21568" x1="-22475" fill="none"/><line y2="-24197" y1="-24590" x2="-21753" x1="-22432" fill="none"/><line y2="-25823" y1="-24775" x2="-22475" x1="-22475" fill="none"/><line y2="-24252" y1="-24775" x2="-27011" x1="-26104" fill="none"/><line y2="-25823" y1="-24775" x2="-26104" x1="-26104" fill="none"/><line y2="-24775" y1="-24252" x2="-20661" x1="-21568" fill="none"/><line y2="-24665" y1="-24252" x2="-27730" x1="-27011" fill="none"/><line y2="-23423" y1="-24252" x2="-26941" x1="-26941" fill="none"/><line y2="-23423" y1="-24252" x2="-27080" x1="-27080" fill="none"/><line y2="-24252" y1="-24775" x2="-19754" x1="-20661" fill="none"/><line y2="-24197" y1="-24590" x2="-19939" x1="-20618" fill="none"/><line y2="-22544" y1="-23004" x2="-29810" x1="-29013" fill="none"/><line y2="-23114" y1="-22544" x2="-30795" x1="-29810" fill="none"/><line y2="-23333" y1="-24252" x2="-28825" x1="-28825" fill="none"/><line y2="-24252" y1="-23114" x2="-30795" x1="-30795" fill="none"/><line y2="-24252" y1="-24818" x2="-28825" x1="-29810" fill="none"/><line y2="-24818" y1="-24252" x2="-29810" x1="-30795" fill="none"/><line y2="-21083" y1="-21496" x2="-30529" x1="-29810" fill="none"/><line y2="-24775" y1="-24252" x2="-18847" x1="-19754" fill="none"/><line y2="-19465" y1="-19924" x2="-29920" x1="-30717" fill="none"/><line y2="-19924" y1="-19355" x2="-30717" x1="-31702" fill="none"/><line y2="-18220" y1="-19138" x2="-29732" x1="-29732" fill="none"/><line y2="-19355" y1="-18220" x2="-31702" x1="-31702" fill="none"/><line y2="-17651" y1="-18220" x2="-30717" x1="-29732" fill="none"/><line y2="-18220" y1="-17651" x2="-31702" x1="-30717" fill="none"/><line y2="-18110" y1="-17694" x2="-28106" x1="-28825" fill="none"/><line y2="-24252" y1="-24775" x2="-17940" x1="-18847" fill="none"/><line y2="-24197" y1="-24590" x2="-18122" x1="-18803" fill="none"/><line y2="-24775" y1="-24252" x2="-17032" x1="-17940" fill="none"/><line y2="-23203" y1="-24252" x2="-17940" x1="-17940" fill="none"/><line y2="-24252" y1="-24775" x2="-16125" x1="-17032" fill="none"/><line y2="-24197" y1="-24590" x2="-16307" x1="-16989" fill="none"/><line y2="-24775" y1="-24252" x2="-15218" x1="-16125" fill="none"/><line y2="-24252" y1="-24775" x2="-14311" x1="-15218" fill="none"/><line y2="-24197" y1="-24590" x2="-14493" x1="-15175" fill="none"/><line y2="-24775" y1="-24252" x2="-13404" x1="-14311" fill="none"/><line y2="-23203" y1="-24252" x2="-14311" x1="-14311" fill="none"/><line y2="-24359" y1="-24775" x2="-12685" x1="-13404" fill="none"/><line y2="-25604" y1="-24775" x2="-13473" x1="-13473" fill="none"/><line y2="-25604" y1="-24775" x2="-13335" x1="-13335" fill="none"/><line y2="-25693" y1="-24775" x2="-11590" x1="-11590" fill="none"/><line y2="-24775" y1="-24206" x2="-11590" x1="-10605" fill="none"/><line y2="-26482" y1="-26020" x2="-10605" x1="-11402" fill="none"/><line y2="-24206" y1="-24775" x2="-10605" x1="-9620" fill="none"/><line y2="-25913" y1="-26482" x2="-9620" x1="-10605" fill="none"/><line y2="-24775" y1="-25913" x2="-9620" x1="-9620" fill="none"/><line y2="-27944" y1="-27528" x2="-9885" x1="-10605" fill="none"/><line y2="-29562" y1="-29099" x2="-10495" x1="-9698" fill="none"/><line y2="-29099" y1="-29668" x2="-9698" x1="-8712" fill="none"/><line y2="-30807" y1="-29888" x2="-10683" x1="-10683" fill="none"/><line y2="-29668" y1="-30807" x2="-8712" x1="-8712" fill="none"/><line y2="-31376" y1="-30807" x2="-9698" x1="-10683" fill="none"/><line y2="-30807" y1="-31376" x2="-8712" x1="-9698" fill="none"/><line y2="-31026" y1="-31330" x2="-12116" x1="-11590" fill="none"/><polygon stroke-width="1" stroke="none" points=" -30795 -23114 -31286 -22750 -31358 -22868"/><polygon stroke-width="1" points=" -30795 -23114 -31286 -22750 -31358 -22868" fill="none"/><polygon stroke-width="1" stroke="none" points=" -29810 -24818 -29879 -25647 -29741 -25647"/><polygon stroke-width="1" points=" -29810 -24818 -29879 -25647 -29741 -25647" fill="none"/><polygon stroke-width="1" stroke="none" points=" -31702 -19355 -32266 -19601 -32196 -19719"/><polygon stroke-width="1" points=" -31702 -19355 -32266 -19601 -32196 -19719" fill="none"/><polygon stroke-width="1" stroke="none" points=" -30717 -17651 -30648 -16822 -30786 -16822"/><polygon stroke-width="1" points=" -30717 -17651 -30648 -16822 -30786 -16822" fill="none"/><polygon stroke-width="1" stroke="none" points=" -10605 -24206 -10535 -23376 -10674 -23376"/><polygon stroke-width="1" points=" -10605 -24206 -10535 -23376 -10674 -23376" fill="none"/><polygon stroke-width="1" stroke="none" points=" -9620 -25913 -8935 -26387 -8866 -26268"/><polygon stroke-width="1" points=" -9620 -25913 -8935 -26387 -8866 -26268" fill="none"/><polygon stroke-width="1" stroke="none" points=" -8712 -29668 -7958 -29313 -8025 -29192"/><polygon stroke-width="1" points=" -8712 -29668 -7958 -29313 -8025 -29192" fill="none"/><polygon stroke-width="1" stroke="none" points=" -9698 -31376 -9767 -32202 -9628 -32202"/><polygon stroke-width="1" points=" -9698 -31376 -9767 -32202 -9628 -32202" fill="none"/><line y2="-24607" y1="-24726" x2="-28071" x1="-28140" fill="none"/><line y2="-24514" y1="-24602" x2="-28268" x1="-28319" fill="none"/><line y2="-24422" y1="-24479" x2="-28464" x1="-28497" fill="none"/><line y2="-24329" y1="-24355" x2="-28661" x1="-28676" fill="none"/><line y2="-21496" y1="-21496" x2="-29879" x1="-29741" fill="none"/><line y2="-21713" y1="-21713" x2="-29865" x1="-29755" fill="none"/><line y2="-21929" y1="-21929" x2="-29850" x1="-29770" fill="none"/><line y2="-22146" y1="-22146" x2="-29836" x1="-29784" fill="none"/><line y2="-22363" y1="-22363" x2="-29822" x1="-29798" fill="none"/><line y2="-20753" y1="-20753" x2="-30648" x1="-30786" fill="none"/><line y2="-20536" y1="-20536" x2="-30666" x1="-30768" fill="none"/><line y2="-20320" y1="-20320" x2="-30684" x1="-30750" fill="none"/><line y2="-20103" y1="-20103" x2="-30702" x1="-30732" fill="none"/><line y2="-24613" y1="-24494" x2="-31289" x1="-31358" fill="none"/><line y2="-24484" y1="-24408" x2="-31113" x1="-31158" fill="none"/><line y2="-24356" y1="-24322" x2="-30937" x1="-30957" fill="none"/><line y2="-17633" y1="-17755" x2="-28860" x1="-28793" fill="none"/><line y2="-17754" y1="-17851" x2="-29040" x1="-28987" fill="none"/><line y2="-17876" y1="-17947" x2="-29221" x1="-29182" fill="none"/><line y2="-17997" y1="-18044" x2="-29401" x1="-29376" fill="none"/><line y2="-18119" y1="-18140" x2="-29582" x1="-29570" fill="none"/><line y2="-17974" y1="-17856" x2="-32266" x1="-32196" fill="none"/><line y2="-18061" y1="-17985" x2="-32066" x1="-32021" fill="none"/><line y2="-18149" y1="-18114" x2="-31866" x1="-31845" fill="none"/><line y2="-24419" y1="-24298" x2="-12341" x1="-12274" fill="none"/><line y2="-24512" y1="-24423" x2="-12145" x1="-12095" fill="none"/><line y2="-24605" y1="-24547" x2="-11949" x1="-11917" fill="none"/><line y2="-24698" y1="-24672" x2="-11753" x1="-11738" fill="none"/><line y2="-27528" y1="-27528" x2="-10535" x1="-10674" fill="none"/><line y2="-27311" y1="-27311" x2="-10549" x1="-10660" fill="none"/><line y2="-27095" y1="-27095" x2="-10564" x1="-10645" fill="none"/><line y2="-26878" y1="-26878" x2="-10578" x1="-10631" fill="none"/><line y2="-26661" y1="-26661" x2="-10593" x1="-10617" fill="none"/><line y2="-28270" y1="-28273" x2="-9767" x1="-9628" fill="none"/><line y2="-28487" y1="-28489" x2="-9749" x1="-9646" fill="none"/><line y2="-28704" y1="-28706" x2="-9731" x1="-9665" fill="none"/><line y2="-28921" y1="-28922" x2="-9713" x1="-9683" fill="none"/><line y2="-24298" y1="-24419" x2="-8932" x1="-8866" fill="none"/><line y2="-24422" y1="-24512" x2="-9111" x1="-9062" fill="none"/><line y2="-24546" y1="-24604" x2="-9290" x1="-9258" fill="none"/><line y2="-24670" y1="-24697" x2="-9469" x1="-9455" fill="none"/><line y2="-31390" y1="-31269" x2="-11555" x1="-11624" fill="none"/><line y2="-31269" y1="-31173" x2="-11374" x1="-11429" fill="none"/><line y2="-31149" y1="-31078" x2="-11194" x1="-11234" fill="none"/><line y2="-31028" y1="-30982" x2="-11013" x1="-11039" fill="none"/><line y2="-30907" y1="-30886" x2="-10833" x1="-10845" fill="none"/><line y2="-31162" y1="-31280" x2="-7958" x1="-8028" fill="none"/><line y2="-31069" y1="-31156" x2="-8155" x1="-8207" fill="none"/><line y2="-30977" y1="-31033" x2="-8352" x1="-8385" fill="none"/><line y2="-30884" y1="-30909" x2="-8549" x1="-8564" fill="none"/><text y="-20794" xml:space="preserve" x="-30867" stroke="none" font-size="433.3333" font-family="sans-serif">O</text><text y="-22412" xml:space="preserve" x="-31855" stroke="none" font-size="433.3333" font-family="sans-serif">OH</text><text y="-24596" xml:space="preserve" x="-28071" stroke="none" font-size="433.3333" font-family="sans-serif">O</text><text y="-23024" xml:space="preserve" x="-27164" stroke="none" font-size="433.3333" font-family="sans-serif">O</text><text y="-24073" xml:space="preserve" x="-12647" stroke="none" font-size="433.3333" font-family="sans-serif">O</text><text y="-25644" xml:space="preserve" x="-13554" stroke="none" font-size="433.3333" font-family="sans-serif">O</text><text y="-24596" xml:space="preserve" x="-31855" stroke="none" font-size="433.3333" font-family="sans-serif">OH</text><text y="-25688" xml:space="preserve" x="-29960" stroke="none" font-size="433.3333" font-family="sans-serif">OH</text><text y="-19702" xml:space="preserve" x="-32762" stroke="none" font-size="433.3333" font-family="sans-serif">OH</text><text y="-18041" xml:space="preserve" x="-28071" stroke="none" font-size="433.3333" font-family="sans-serif">OH</text><text y="-17515" xml:space="preserve" x="-32762" stroke="none" font-size="433.3333" font-family="sans-serif">OH</text><text y="-16423" xml:space="preserve" x="-30867" stroke="none" font-size="433.3333" font-family="sans-serif">OH</text><text y="-22978" xml:space="preserve" x="-10758" stroke="none" font-size="433.3333" font-family="sans-serif">OH</text><text y="-27874" xml:space="preserve" x="-9851" stroke="none" font-size="433.3333" font-family="sans-serif">O</text><text y="-24073" xml:space="preserve" x="-8863" stroke="none" font-size="433.3333" font-family="sans-serif">OH</text><text y="-26257" xml:space="preserve" x="-8863" stroke="none" font-size="433.3333" font-family="sans-serif">OH</text><text y="-28966" xml:space="preserve" x="-7956" stroke="none" font-size="433.3333" font-family="sans-serif">OH</text><text y="-30628" xml:space="preserve" x="-12647" stroke="none" font-size="433.3333" font-family="sans-serif">OH</text><text y="-31150" xml:space="preserve" x="-7956" stroke="none" font-size="433.3333" font-family="sans-serif">OH</text><text y="-32242" xml:space="preserve" x="-9851" stroke="none" font-size="433.3333" font-family="sans-serif">OH</text><text y="-22934" xml:space="preserve" x="-28978" stroke="none" font-size="433.3333" font-family="sans-serif">O</text><text y="-19176" xml:space="preserve" x="-29885" stroke="none" font-size="433.3333" font-family="sans-serif">O</text><text y="-25734" xml:space="preserve" x="-11740" stroke="none" font-size="433.3333" font-family="sans-serif">O</text><text y="-29489" xml:space="preserve" x="-10833" stroke="none" font-size="433.3333" font-family="sans-serif">O</text><text y="-24720" xml:space="preserve" x="-25581" stroke="none" font-style="italic" font-size="313.3333" font-family="sans-serif">E</text><text y="-24723" xml:space="preserve" x="-23772" stroke="none" font-style="italic" font-size="313.3333" font-family="sans-serif">E</text><text y="-24723" xml:space="preserve" x="-21958" stroke="none" font-style="italic" font-size="313.3333" font-family="sans-serif">E</text><text y="-24723" xml:space="preserve" x="-20144" stroke="none" font-style="italic" font-size="313.3333" font-family="sans-serif">E</text><text y="-23882" xml:space="preserve" x="-18795" stroke="none" font-style="italic" font-size="313.3333" font-family="sans-serif">E</text><text y="-24723" xml:space="preserve" x="-16515" stroke="none" font-style="italic" font-size="313.3333" font-family="sans-serif">E</text><text y="-23882" xml:space="preserve" x="-15166" stroke="none" font-style="italic" font-size="313.3333" font-family="sans-serif">E</text><text y="-22669" xml:space="preserve" x="-29960" stroke="none" font-style="italic" font-size="313.3333" font-family="sans-serif">R</text><text y="-23079" xml:space="preserve" x="-30700" stroke="none" font-style="italic" font-size="313.3333" font-family="sans-serif">S</text><text y="-23928" xml:space="preserve" x="-29226" stroke="none" font-style="italic" font-size="313.3333" font-family="sans-serif">S</text><text y="-23928" xml:space="preserve" x="-30700" stroke="none" font-style="italic" font-size="313.3333" font-family="sans-serif">S</text><text y="-24338" xml:space="preserve" x="-29960" stroke="none" font-style="italic" font-size="313.3333" font-family="sans-serif">R</text><text y="-19445" xml:space="preserve" x="-30867" stroke="none" font-style="italic" font-size="313.3333" font-family="sans-serif">R</text><text y="-19034" xml:space="preserve" x="-31607" stroke="none" font-style="italic" font-size="313.3333" font-family="sans-serif">R</text><text y="-18185" xml:space="preserve" x="-30134" stroke="none" font-style="italic" font-size="313.3333" font-family="sans-serif">R</text><text y="-18185" xml:space="preserve" x="-31607" stroke="none" font-style="italic" font-size="313.3333" font-family="sans-serif">S</text><text y="-17775" xml:space="preserve" x="-30867" stroke="none" font-style="italic" font-size="313.3333" font-family="sans-serif">S</text><text y="-24740" xml:space="preserve" x="-11494" stroke="none" font-style="italic" font-size="313.3333" font-family="sans-serif">S</text><text y="-24330" xml:space="preserve" x="-10758" stroke="none" font-style="italic" font-size="313.3333" font-family="sans-serif">R</text><text y="-26000" xml:space="preserve" x="-10758" stroke="none" font-style="italic" font-size="313.3333" font-family="sans-serif">R</text><text y="-24740" xml:space="preserve" x="-10021" stroke="none" font-style="italic" font-size="313.3333" font-family="sans-serif">S</text><text y="-25589" xml:space="preserve" x="-10021" stroke="none" font-style="italic" font-size="313.3333" font-family="sans-serif">S</text><text y="-29224" xml:space="preserve" x="-9851" stroke="none" font-style="italic" font-size="313.3333" font-family="sans-serif">R</text><text y="-29634" xml:space="preserve" x="-9114" stroke="none" font-style="italic" font-size="313.3333" font-family="sans-serif">R</text><text y="-30483" xml:space="preserve" x="-10587" stroke="none" font-style="italic" font-size="313.3333" font-family="sans-serif">R</text><text y="-30483" xml:space="preserve" x="-9114" stroke="none" font-style="italic" font-size="313.3333" font-family="sans-serif">S</text><text y="-30893" xml:space="preserve" x="-9851" stroke="none" font-style="italic" font-size="313.3333" font-family="sans-serif">S</text></g></g></svg>