<svg width="374.79" viewBox="0 0 12493 5533" text-rendering="auto" stroke-width="1" stroke-opacity="1" stroke-miterlimit="10" stroke-linejoin="miter" stroke-linecap="square" stroke-dashoffset="0" stroke-dasharray="none" stroke="black" shape-rendering="auto" image-rendering="auto" height="165.99" font-weight="normal" font-style="normal" font-size="12" font-family="'Dialog'" fill-opacity="1" fill="black" color-rendering="auto" color-interpolation="auto" xmlns="http://www.w3.org/2000/svg"><g><g stroke="white" fill="white"><rect y="0" x="0" width="12493" stroke="none" height="5533"/></g><g transform="translate(32866,32758)" text-rendering="geometricPrecision" stroke-width="44" stroke-linejoin="round" stroke-linecap="round"><line y2="-30457" y1="-30766" x2="-26092" x1="-26624" fill="none"/><line y2="-30873" y1="-30457" x2="-24997" x1="-25716" fill="none"/><line y2="-30350" y1="-30873" x2="-24090" x1="-24997" fill="none"/><line y2="-30457" y1="-30766" x2="-27531" x1="-26999" fill="none"/><line y2="-30873" y1="-30457" x2="-28626" x1="-27906" fill="none"/><line y2="-30350" y1="-30873" x2="-29533" x1="-28626" fill="none"/><line y2="-31228" y1="-30983" x2="-27430" x1="-26999" fill="none"/><line y2="-32202" y1="-31093" x2="-26881" x1="-26881" fill="none"/><line y2="-32202" y1="-31093" x2="-26742" x1="-26742" fill="none"/><line y2="-30350" y1="-29148" x2="-24090" x1="-24090" fill="none"/><line y2="-30948" y1="-30350" x2="-23047" x1="-24090" fill="none"/><line y2="-29148" y1="-28657" x2="-24090" x1="-23235" fill="none"/><line y2="-30457" y1="-30948" x2="-22198" x1="-23047" fill="none"/><line y2="-28657" y1="-29039" x2="-22859" x1="-22198" fill="none"/><line y2="-29368" y1="-30131" x2="-22010" x1="-22010" fill="none"/><line y2="-31396" y1="-30350" x2="-24090" x1="-24090" fill="none"/><line y2="-31922" y1="-31396" x2="-24997" x1="-24090" fill="none"/><line y2="-28732" y1="-29039" x2="-21291" x1="-21822" fill="none"/><line y2="-28319" y1="-28929" x2="-21941" x1="-21941" fill="none"/><line y2="-28319" y1="-28929" x2="-22079" x1="-22079" fill="none"/><line y2="-29148" y1="-30350" x2="-29533" x1="-29533" fill="none"/><line y2="-30350" y1="-30948" x2="-29533" x1="-30573" fill="none"/><line y2="-28657" y1="-29148" x2="-30385" x1="-29533" fill="none"/><line y2="-30948" y1="-30457" x2="-30573" x1="-31422" fill="none"/><line y2="-29042" y1="-28657" x2="-31422" x1="-30760" fill="none"/><line y2="-30131" y1="-29368" x2="-31613" x1="-31613" fill="none"/><line y2="-31396" y1="-30350" x2="-29533" x1="-29533" fill="none"/><line y2="-31922" y1="-31396" x2="-28626" x1="-29533" fill="none"/><line y2="-28793" y1="-29042" x2="-32228" x1="-31800" fill="none"/><line y2="-27820" y1="-28929" x2="-31540" x1="-31540" fill="none"/><line y2="-27820" y1="-28929" x2="-31682" x1="-31682" fill="none"/><text y="-30171" xml:space="preserve" x="-26057" stroke="none" font-size="433.3333" font-family="sans-serif">O</text><text y="-30694" xml:space="preserve" x="-26964" stroke="none" font-size="433.3333" font-family="sans-serif">P</text><text y="-30171" xml:space="preserve" x="-27872" stroke="none" font-size="433.3333" font-family="sans-serif">O</text><text y="-31382" xml:space="preserve" x="-28152" stroke="none" font-size="433.3333" font-family="sans-serif">CH</text><text y="-31292" xml:space="preserve" x="-27574" stroke="none" font-size="313.3333" font-family="sans-serif">3</text><text y="-32242" xml:space="preserve" x="-26964" stroke="none" font-size="433.3333" font-family="sans-serif">O</text><text y="-28446" xml:space="preserve" x="-21253" stroke="none" font-size="433.3333" font-family="sans-serif">CH</text><text y="-28357" xml:space="preserve" x="-20675" stroke="none" font-size="313.3333" font-family="sans-serif">3</text><text y="-27921" xml:space="preserve" x="-22160" stroke="none" font-size="433.3333" font-family="sans-serif">O</text><text y="-28394" xml:space="preserve" x="-32762" stroke="none" font-size="433.3333" font-family="sans-serif">CH</text><text y="-28305" xml:space="preserve" x="-32185" stroke="none" font-size="313.3333" font-family="sans-serif">3</text><text y="-27421" xml:space="preserve" x="-31763" stroke="none" font-size="433.3333" font-family="sans-serif">O</text><text y="-28368" xml:space="preserve" x="-23200" stroke="none" font-size="433.3333" font-family="sans-serif">O</text><text y="-30171" xml:space="preserve" x="-22160" stroke="none" font-size="433.3333" font-family="sans-serif">O</text><text y="-28969" xml:space="preserve" x="-22160" stroke="none" font-size="433.3333" font-family="sans-serif">P</text><text y="-28371" xml:space="preserve" x="-30726" stroke="none" font-size="433.3333" font-family="sans-serif">O</text><text y="-30171" xml:space="preserve" x="-31763" stroke="none" font-size="433.3333" font-family="sans-serif">O</text><text y="-28969" xml:space="preserve" x="-31763" stroke="none" font-size="433.3333" font-family="sans-serif">P</text></g></g></svg>