<svg width="463.89" viewBox="0 0 15463 4895" text-rendering="auto" stroke-width="1" stroke-opacity="1" stroke-miterlimit="10" stroke-linejoin="miter" stroke-linecap="square" stroke-dashoffset="0" stroke-dasharray="none" stroke="black" shape-rendering="auto" image-rendering="auto" height="146.85" font-weight="normal" font-style="normal" font-size="12" font-family="'Dialog'" fill-opacity="1" fill="black" color-rendering="auto" color-interpolation="auto" xmlns="http://www.w3.org/2000/svg"><g><g stroke="white" fill="white"><rect y="0" x="0" width="15463" stroke="none" height="4895"/></g><g transform="translate(32866,32758)" text-rendering="geometricPrecision" stroke-width="44" stroke-linejoin="round" stroke-linecap="round"><line y2="-30992" y1="-31408" x2="-24208" x1="-24928" fill="none"/><line y2="-30992" y1="-31408" x2="-26023" x1="-25303" fill="none"/><line y2="-32167" y1="-31699" x2="-25575" x1="-25303" fill="none"/><line y2="-32240" y1="-31769" x2="-25454" x1="-25182" fill="none"/><line y2="-32240" y1="-31769" x2="-24780" x1="-25052" fill="none"/><line y2="-32167" y1="-31699" x2="-24659" x1="-24931" fill="none"/><line y2="-30992" y1="-29853" x2="-24208" x1="-24208" fill="none"/><line y2="-30850" y1="-29998" x2="-24038" x1="-24038" fill="none"/><line y2="-31561" y1="-30992" x2="-23226" x1="-24208" fill="none"/><line y2="-29853" y1="-29284" x2="-24208" x1="-23226" fill="none"/><line y2="-30992" y1="-31561" x2="-22238" x1="-23226" fill="none"/><line y2="-30914" y1="-31341" x2="-22449" x1="-23189" fill="none"/><line y2="-29284" y1="-29853" x2="-23226" x1="-22238" fill="none"/><line y2="-29504" y1="-29931" x2="-23189" x1="-22449" fill="none"/><line y2="-29853" y1="-30992" x2="-22238" x1="-22238" fill="none"/><line y2="-29437" y1="-29853" x2="-21519" x1="-22238" fill="none"/><line y2="-29853" y1="-29437" x2="-20424" x1="-21143" fill="none"/><line y2="-29330" y1="-29853" x2="-19517" x1="-20424" fill="none"/><line y2="-28458" y1="-29284" x2="-23226" x1="-23226" fill="none"/><line y2="-31318" y1="-30992" x2="-21672" x1="-22238" fill="none"/><line y2="-29853" y1="-30992" x2="-26023" x1="-26023" fill="none"/><line y2="-29998" y1="-30850" x2="-26193" x1="-26193" fill="none"/><line y2="-30992" y1="-31561" x2="-26023" x1="-27011" fill="none"/><line y2="-29284" y1="-29853" x2="-27011" x1="-26023" fill="none"/><line y2="-31561" y1="-30992" x2="-27011" x1="-27993" fill="none"/><line y2="-31344" y1="-30916" x2="-27048" x1="-27785" fill="none"/><line y2="-29853" y1="-29284" x2="-27993" x1="-27011" fill="none"/><line y2="-29931" y1="-29504" x2="-27785" x1="-27048" fill="none"/><line y2="-30992" y1="-29853" x2="-27993" x1="-27993" fill="none"/><line y2="-29437" y1="-29853" x2="-28712" x1="-27993" fill="none"/><line y2="-29853" y1="-29437" x2="-29807" x1="-29091" fill="none"/><line y2="-29330" y1="-29853" x2="-30714" x1="-29807" fill="none"/><line y2="-28458" y1="-29284" x2="-27011" x1="-27011" fill="none"/><line y2="-31318" y1="-30992" x2="-28559" x1="-27993" fill="none"/><line y2="-29853" y1="-29330" x2="-18610" x1="-19517" fill="none"/><line y2="-29527" y1="-29853" x2="-18044" x1="-18610" fill="none"/><line y2="-28501" y1="-29330" x2="-19517" x1="-19517" fill="none"/><line y2="-29853" y1="-29330" x2="-31621" x1="-30714" fill="none"/><line y2="-29527" y1="-29853" x2="-32188" x1="-31621" fill="none"/><line y2="-28501" y1="-29330" x2="-30714" x1="-30714" fill="none"/><text y="-31335" xml:space="preserve" x="-25269" stroke="none" font-size="433.3333" font-family="sans-serif">S</text><text y="-32242" xml:space="preserve" x="-25792" stroke="none" font-size="433.3333" font-family="sans-serif">O</text><text y="-32242" xml:space="preserve" x="-24746" stroke="none" font-size="433.3333" font-family="sans-serif">O</text><text y="-28059" xml:space="preserve" x="-23457" stroke="none" font-size="433.3333" font-family="sans-serif">Br</text><text y="-31335" xml:space="preserve" x="-21562" stroke="none" font-size="433.3333" font-family="sans-serif">Br</text><text y="-29151" xml:space="preserve" x="-21484" stroke="none" font-size="433.3333" font-family="sans-serif">O</text><text y="-28103" xml:space="preserve" x="-19748" stroke="none" font-size="433.3333" font-family="sans-serif">Br</text><text y="-29151" xml:space="preserve" x="-17934" stroke="none" font-size="433.3333" font-family="sans-serif">Br</text><text y="-28059" xml:space="preserve" x="-27242" stroke="none" font-size="433.3333" font-family="sans-serif">Br</text><text y="-31335" xml:space="preserve" x="-29131" stroke="none" font-size="433.3333" font-family="sans-serif">Br</text><text y="-29151" xml:space="preserve" x="-29053" stroke="none" font-size="433.3333" font-family="sans-serif">O</text><text y="-28103" xml:space="preserve" x="-30948" stroke="none" font-size="433.3333" font-family="sans-serif">Br</text><text y="-29151" xml:space="preserve" x="-32762" stroke="none" font-size="433.3333" font-family="sans-serif">Br</text></g></g></svg>