<svg width="256.47" viewBox="0 0 8549 3075" text-rendering="auto" stroke-width="1" stroke-opacity="1" stroke-miterlimit="10" stroke-linejoin="miter" stroke-linecap="square" stroke-dashoffset="0" stroke-dasharray="none" stroke="black" shape-rendering="auto" image-rendering="auto" height="92.25" font-weight="normal" font-style="normal" font-size="12" font-family="'Dialog'" fill-opacity="1" fill="black" color-rendering="auto" color-interpolation="auto" xmlns="http://www.w3.org/2000/svg"><g><g stroke="white" fill="white"><rect y="0" x="0" width="8549" stroke="none" height="3075"/></g><g transform="translate(32866,32758)" text-rendering="geometricPrecision" stroke-width="44" stroke-linejoin="round" stroke-linecap="round"><line y2="-30850" y1="-31402" x2="-27765" x1="-28478" fill="none"/><line y2="-29787" y1="-30850" x2="-28132" x1="-27765" fill="none"/><line y2="-29975" y1="-30772" x2="-28247" x1="-27973" fill="none"/><line y2="-31408" y1="-30850" x2="-28854" x1="-29608" fill="none"/><line y2="-29787" y1="-29787" x2="-29278" x1="-28132" fill="none"/><line y2="-30850" y1="-29787" x2="-29608" x1="-29278" fill="none"/><line y2="-30766" y1="-29972" x2="-29403" x1="-29157" fill="none"/><line y2="-31376" y1="-30850" x2="-26858" x1="-27765" fill="none"/><line y2="-31376" y1="-30850" x2="-30515" x1="-29608" fill="none"/><line y2="-30960" y1="-31376" x2="-26138" x1="-26858" fill="none"/><line y2="-31266" y1="-30960" x2="-25231" x1="-25763" fill="none"/><line y2="-32202" y1="-31376" x2="-26927" x1="-26927" fill="none"/><line y2="-32202" y1="-31376" x2="-26788" x1="-26788" fill="none"/><line y2="-30960" y1="-31376" x2="-31234" x1="-30515" fill="none"/><line y2="-31208" y1="-30960" x2="-32040" x1="-31610" fill="none"/><line y2="-32202" y1="-31376" x2="-30584" x1="-30584" fill="none"/><line y2="-32202" y1="-31376" x2="-30446" x1="-30446" fill="none"/><text y="-30671" xml:space="preserve" x="-26104" stroke="none" font-size="433.3333" font-family="sans-serif">O</text><text y="-32242" xml:space="preserve" x="-27011" stroke="none" font-size="433.3333" font-family="sans-serif">O</text><text y="-31197" xml:space="preserve" x="-25196" stroke="none" font-size="433.3333" font-family="sans-serif">CH</text><text y="-31107" xml:space="preserve" x="-24619" stroke="none" font-size="313.3333" font-family="sans-serif">3</text><text y="-30671" xml:space="preserve" x="-31575" stroke="none" font-size="433.3333" font-family="sans-serif">O</text><text y="-32242" xml:space="preserve" x="-30665" stroke="none" font-size="433.3333" font-family="sans-serif">O</text><text y="-31358" xml:space="preserve" x="-32762" stroke="none" font-size="433.3333" font-family="sans-serif">CH</text><text y="-31269" xml:space="preserve" x="-32185" stroke="none" font-size="313.3333" font-family="sans-serif">3</text><text y="-31367" xml:space="preserve" x="-28816" stroke="none" font-size="433.3333" font-family="sans-serif">O</text></g></g></svg>