<svg width="169.14" viewBox="0 0 5638 4042" text-rendering="auto" stroke-width="1" stroke-opacity="1" stroke-miterlimit="10" stroke-linejoin="miter" stroke-linecap="square" stroke-dashoffset="0" stroke-dasharray="none" stroke="black" shape-rendering="auto" image-rendering="auto" height="121.26" font-weight="normal" font-style="normal" font-size="12" font-family="'Dialog'" fill-opacity="1" fill="black" color-rendering="auto" color-interpolation="auto" xmlns="http://www.w3.org/2000/svg"><g><g stroke="white" fill="white"><rect y="0" x="0" width="5638" stroke="none" height="4042"/></g><g transform="translate(32866,32758)" text-rendering="geometricPrecision" stroke-width="44" stroke-linejoin="round" stroke-linecap="round"><line y2="-30662" y1="-30662" x2="-30795" x1="-29648" fill="none"/><line y2="-30662" y1="-31725" x2="-29648" x1="-29281" fill="none"/><line y2="-30853" y1="-31650" x2="-29764" x1="-29489" fill="none"/><line y2="-31725" y1="-30662" x2="-31124" x1="-30795" fill="none"/><line y2="-31644" y1="-30847" x2="-30919" x1="-30674" fill="none"/><line y2="-31725" y1="-32277" x2="-29281" x1="-29992" fill="none"/><line y2="-32283" y1="-31725" x2="-30370" x1="-31124" fill="none"/><line y2="-30139" y1="-30662" x2="-28741" x1="-29648" fill="none"/><line y2="-30139" y1="-30662" x2="-31702" x1="-30795" fill="none"/><line y2="-30555" y1="-30139" x2="-28022" x1="-28741" fill="none"/><line y2="-29310" y1="-30139" x2="-28672" x1="-28672" fill="none"/><line y2="-29310" y1="-30139" x2="-28810" x1="-28810" fill="none"/><line y2="-30443" y1="-30139" x2="-32231" x1="-31702" fill="none"/><line y2="-29310" y1="-30139" x2="-31633" x1="-31633" fill="none"/><line y2="-29310" y1="-30139" x2="-31772" x1="-31772" fill="none"/><text y="-30483" xml:space="preserve" x="-27987" stroke="none" font-size="433.3333" font-family="sans-serif">OH</text><text y="-28912" xml:space="preserve" x="-28894" stroke="none" font-size="433.3333" font-family="sans-serif">O</text><text y="-30483" xml:space="preserve" x="-32762" stroke="none" font-size="433.3333" font-family="sans-serif">OH</text><text y="-28912" xml:space="preserve" x="-31855" stroke="none" font-size="433.3333" font-family="sans-serif">O</text><text y="-32242" xml:space="preserve" x="-30333" stroke="none" font-size="433.3333" font-family="sans-serif">S</text></g></g></svg>