<svg width="186.99" viewBox="0 0 6233 2898" text-rendering="auto" stroke-width="1" stroke-opacity="1" stroke-miterlimit="10" stroke-linejoin="miter" stroke-linecap="square" stroke-dashoffset="0" stroke-dasharray="none" stroke="black" shape-rendering="auto" image-rendering="auto" height="86.94" font-weight="normal" font-style="normal" font-size="12" font-family="'Dialog'" fill-opacity="1" fill="black" color-rendering="auto" color-interpolation="auto" xmlns="http://www.w3.org/2000/svg"><g><g stroke="white" fill="white"><rect y="0" x="0" width="6233" stroke="none" height="2898"/></g><g transform="translate(32866,32758)" text-rendering="geometricPrecision" stroke-width="44" stroke-linejoin="round" stroke-linecap="round"><line y2="-32465" y1="-31896" x2="-29720" x1="-30706" fill="none"/><line y2="-32245" y1="-31821" x2="-29758" x1="-30498" fill="none"/><line y2="-31896" y1="-30758" x2="-30706" x1="-30706" fill="none"/><line y2="-31896" y1="-32465" x2="-28735" x1="-29720" fill="none"/><line y2="-30758" y1="-30191" x2="-30706" x1="-29720" fill="none"/><line y2="-30836" y1="-30408" x2="-30498" x1="-29758" fill="none"/><line y2="-30758" y1="-31896" x2="-28735" x1="-28735" fill="none"/><line y2="-30902" y1="-31754" x2="-28906" x1="-28906" fill="none"/><line y2="-30191" y1="-30758" x2="-29720" x1="-28735" fill="none"/><line y2="-32422" y1="-31896" x2="-27828" x1="-28735" fill="none"/><line y2="-32006" y1="-32422" x2="-27109" x1="-27828" fill="none"/><line y2="-31936" y1="-32248" x2="-27268" x1="-27808" fill="none"/><line y2="-32312" y1="-31896" x2="-31425" x1="-30706" fill="none"/><line y2="-32063" y1="-32312" x2="-32231" x1="-31800" fill="none"/><line y2="-30431" y1="-30758" x2="-31272" x1="-30706" fill="none"/><text y="-32242" xml:space="preserve" x="-31766" stroke="none" font-size="433.3333" font-family="sans-serif">O</text><text y="-31665" xml:space="preserve" x="-32762" stroke="none" font-size="433.3333" font-family="sans-serif">CH</text><text y="-31575" xml:space="preserve" x="-32185" stroke="none" font-size="313.3333" font-family="sans-serif">3</text><text y="-30056" xml:space="preserve" x="-31844" stroke="none" font-size="433.3333" font-family="sans-serif">Br</text><text y="-31717" xml:space="preserve" x="-27074" stroke="none" font-size="433.3333" font-family="sans-serif">O</text></g></g></svg>