<svg width="183.18" viewBox="0 0 6106 3075" text-rendering="auto" stroke-width="1" stroke-opacity="1" stroke-miterlimit="10" stroke-linejoin="miter" stroke-linecap="square" stroke-dashoffset="0" stroke-dasharray="none" stroke="black" shape-rendering="auto" image-rendering="auto" height="92.25" font-weight="normal" font-style="normal" font-size="12" font-family="'Dialog'" fill-opacity="1" fill="black" color-rendering="auto" color-interpolation="auto" xmlns="http://www.w3.org/2000/svg"><g><g stroke="white" fill="white"><rect y="0" x="0" width="6106" stroke="none" height="3075"/></g><g transform="translate(32866,32758)" text-rendering="geometricPrecision" stroke-width="44" stroke-linejoin="round" stroke-linecap="round"><line y2="-31408" y1="-30850" x2="-29952" x1="-30706" fill="none"/><line y2="-30850" y1="-29787" x2="-30706" x1="-30379" fill="none"/><line y2="-30766" y1="-29972" x2="-30503" x1="-30258" fill="none"/><line y2="-30850" y1="-31402" x2="-28865" x1="-29576" fill="none"/><line y2="-29787" y1="-29787" x2="-30379" x1="-29232" fill="none"/><line y2="-29787" y1="-30850" x2="-29232" x1="-28865" fill="none"/><line y2="-29975" y1="-30772" x2="-29348" x1="-29070" fill="none"/><line y2="-31376" y1="-30850" x2="-27958" x1="-28865" fill="none"/><line y2="-30960" y1="-31376" x2="-27239" x1="-27958" fill="none"/><line y2="-30890" y1="-31202" x2="-27398" x1="-27938" fill="none"/><line y2="-31266" y1="-30850" x2="-31425" x1="-30706" fill="none"/><line y2="-31018" y1="-31266" x2="-32231" x1="-31800" fill="none"/><line y2="-32202" y1="-31595" x2="-31613" x1="-31613" fill="none"/><text y="-31197" xml:space="preserve" x="-31766" stroke="none" font-size="433.3333" font-family="sans-serif">B</text><text y="-30619" xml:space="preserve" x="-32762" stroke="none" font-size="433.3333" font-family="sans-serif">OH</text><text y="-32242" xml:space="preserve" x="-31766" stroke="none" font-size="433.3333" font-family="sans-serif">OH</text><text y="-30671" xml:space="preserve" x="-27201" stroke="none" font-size="433.3333" font-family="sans-serif">O</text><text y="-31367" xml:space="preserve" x="-29917" stroke="none" font-size="433.3333" font-family="sans-serif">S</text></g></g></svg>