<svg width="206.07" viewBox="0 0 6869 4242" text-rendering="auto" stroke-width="1" stroke-opacity="1" stroke-miterlimit="10" stroke-linejoin="miter" stroke-linecap="square" stroke-dashoffset="0" stroke-dasharray="none" stroke="black" shape-rendering="auto" image-rendering="auto" height="127.26" font-weight="normal" font-style="normal" font-size="12" font-family="'Dialog'" fill-opacity="1" fill="black" color-rendering="auto" color-interpolation="auto" xmlns="http://www.w3.org/2000/svg"><g><g stroke="white" fill="white"><rect y="0" x="0" width="6869" stroke="none" height="4242"/></g><g transform="translate(32866,32758)" text-rendering="geometricPrecision" stroke-width="44" stroke-linejoin="round" stroke-linecap="round"><line y2="-30324" y1="-30847" x2="-28978" x1="-29885" fill="none"/><line y2="-30324" y1="-30847" x2="-30792" x1="-29885" fill="none"/><line y2="-31676" y1="-30847" x2="-29954" x1="-29954" fill="none"/><line y2="-31676" y1="-30847" x2="-29816" x1="-29816" fill="none"/><line y2="-32312" y1="-32006" x2="-29166" x1="-29697" fill="none"/><line y2="-30847" y1="-30324" x2="-28071" x1="-28978" fill="none"/><line y2="-29495" y1="-30324" x2="-28978" x1="-28978" fill="none"/><line y2="-30324" y1="-30893" x2="-30792" x1="-31774" fill="none"/><line y2="-30249" y1="-30677" x2="-31000" x1="-31737" fill="none"/><line y2="-29186" y1="-30324" x2="-30792" x1="-30792" fill="none"/><line y2="-30893" y1="-30324" x2="-31774" x1="-32762" fill="none"/><line y2="-28620" y1="-29186" x2="-31774" x1="-30792" fill="none"/><line y2="-28836" y1="-29264" x2="-31737" x1="-31000" fill="none"/><line y2="-30324" y1="-29186" x2="-32762" x1="-32762" fill="none"/><line y2="-30183" y1="-29330" x2="-32592" x1="-32592" fill="none"/><line y2="-29186" y1="-28620" x2="-32762" x1="-31774" fill="none"/><line y2="-31985" y1="-30847" x2="-28071" x1="-28071" fill="none"/><line y2="-31844" y1="-30992" x2="-27900" x1="-27900" fill="none"/><line y2="-30847" y1="-30281" x2="-28071" x1="-27083" fill="none"/><line y2="-32554" y1="-31985" x2="-27083" x1="-28071" fill="none"/><line y2="-30281" y1="-30847" x2="-27083" x1="-26101" fill="none"/><line y2="-30498" y1="-30925" x2="-27045" x1="-26309" fill="none"/><line y2="-31985" y1="-32554" x2="-26101" x1="-27083" fill="none"/><line y2="-31910" y1="-32338" x2="-26309" x1="-27045" fill="none"/><line y2="-30847" y1="-31985" x2="-26101" x1="-26101" fill="none"/><text y="-31717" xml:space="preserve" x="-30038" stroke="none" font-size="433.3333" font-family="sans-serif">N</text><text y="-29096" xml:space="preserve" x="-29131" stroke="none" font-size="433.3333" font-family="sans-serif">OH</text><text y="-32242" xml:space="preserve" x="-29131" stroke="none" font-size="433.3333" font-family="sans-serif">OH</text></g></g></svg>