<svg width="395.01" viewBox="0 0 13167 8009" text-rendering="auto" stroke-width="1" stroke-opacity="1" stroke-miterlimit="10" stroke-linejoin="miter" stroke-linecap="square" stroke-dashoffset="0" stroke-dasharray="none" stroke="black" shape-rendering="auto" image-rendering="auto" height="240.27" font-weight="normal" font-style="normal" font-size="12" font-family="'Dialog'" fill-opacity="1" fill="black" color-rendering="auto" color-interpolation="auto" xmlns="http://www.w3.org/2000/svg"><g><g stroke="white" fill="white"><rect y="0" x="0" width="13167" stroke="none" height="8009"/></g><g transform="translate(32866,32758)" text-rendering="geometricPrecision" stroke-width="44" stroke-linejoin="round" stroke-linecap="round"><line y2="-30076" y1="-28929" x2="-24766" x1="-24766" fill="none"/><line y2="-29931" y1="-29073" x2="-24596" x1="-24596" fill="none"/><line y2="-28929" y1="-28357" x2="-24766" x1="-23784" fill="none"/><line y2="-28357" y1="-28929" x2="-25748" x1="-24766" fill="none"/><line y2="-30076" y1="-30648" x2="-24766" x1="-25748" fill="none"/><line y2="-30538" y1="-30076" x2="-23972" x1="-24766" fill="none"/><line y2="-28357" y1="-28819" x2="-23784" x1="-22989" fill="none"/><line y2="-28562" y1="-28909" x2="-23769" x1="-23174" fill="none"/><line y2="-28929" y1="-28357" x2="-26730" x1="-25748" fill="none"/><line y2="-29004" y1="-28574" x2="-26522" x1="-25786" fill="none"/><line y2="-30648" y1="-30076" x2="-25748" x1="-26730" fill="none"/><line y2="-30431" y1="-30001" x2="-25786" x1="-26522" fill="none"/><line y2="-30076" y1="-30538" x2="-22802" x1="-23596" fill="none"/><line y2="-29986" y1="-30333" x2="-22986" x1="-23582" fill="none"/><line y2="-29148" y1="-30076" x2="-22802" x1="-22802" fill="none"/><line y2="-30076" y1="-28929" x2="-26730" x1="-26730" fill="none"/><line y2="-27528" y1="-28357" x2="-23784" x1="-23784" fill="none"/><line y2="-26785" y1="-27089" x2="-22877" x1="-23402" fill="none"/><line y2="-30492" y1="-30076" x2="-27450" x1="-26730" fill="none"/><line y2="-30076" y1="-30492" x2="-28545" x1="-27825" fill="none"/><line y2="-30599" y1="-30076" x2="-29452" x1="-28545" fill="none"/><line y2="-28513" y1="-28929" x2="-27450" x1="-26730" fill="none"/><line y2="-28761" y1="-28513" x2="-28256" x1="-27825" fill="none"/><line y2="-27352" y1="-26785" x2="-21892" x1="-22877" fill="none"/><line y2="-27135" y1="-26707" x2="-21929" x1="-22669" fill="none"/><line y2="-26785" y1="-25647" x2="-22877" x1="-22877" fill="none"/><line y2="-26785" y1="-27352" x2="-20906" x1="-21892" fill="none"/><line y2="-25647" y1="-25078" x2="-22877" x1="-21892" fill="none"/><line y2="-25722" y1="-25295" x2="-22669" x1="-21929" fill="none"/><line y2="-25647" y1="-26785" x2="-20906" x1="-20906" fill="none"/><line y2="-25789" y1="-26641" x2="-21077" x1="-21077" fill="none"/><line y2="-25078" y1="-25647" x2="-21892" x1="-20906" fill="none"/><line y2="-28181" y1="-27352" x2="-21892" x1="-21892" fill="none"/><line y2="-25318" y1="-25647" x2="-20337" x1="-20906" fill="none"/><line y2="-30599" y1="-31737" x2="-29452" x1="-29452" fill="none"/><line y2="-30030" y1="-30599" x2="-30440" x1="-29452" fill="none"/><line y2="-31737" y1="-32306" x2="-29452" x1="-30440" fill="none"/><line y2="-30599" y1="-30030" x2="-31422" x1="-30440" fill="none"/><line y2="-32306" y1="-31844" x2="-30440" x1="-31234" fill="none"/><line y2="-31517" y1="-30599" x2="-31422" x1="-31422" fill="none"/><line y2="-32092" y1="-31844" x2="-32040" x1="-31610" fill="none"/><text y="-27129" xml:space="preserve" x="-23934" stroke="none" font-size="433.3333" font-family="sans-serif">NH</text><text y="-28227" xml:space="preserve" x="-27791" stroke="none" font-size="433.3333" font-family="sans-serif">O</text><text y="-28912" xml:space="preserve" x="-28978" stroke="none" font-size="433.3333" font-family="sans-serif">CH</text><text y="-28822" xml:space="preserve" x="-28400" stroke="none" font-size="313.3333" font-family="sans-serif">3</text><text y="-30420" xml:space="preserve" x="-27791" stroke="none" font-size="433.3333" font-family="sans-serif">O</text><text y="-28221" xml:space="preserve" x="-22045" stroke="none" font-size="433.3333" font-family="sans-serif">F</text><text y="-24945" xml:space="preserve" x="-20230" stroke="none" font-size="433.3333" font-family="sans-serif">Br</text><text y="-32242" xml:space="preserve" x="-32762" stroke="none" font-size="433.3333" font-family="sans-serif">CH</text><text y="-32153" xml:space="preserve" x="-32185" stroke="none" font-size="313.3333" font-family="sans-serif">3</text><text y="-30469" xml:space="preserve" x="-23934" stroke="none" font-size="433.3333" font-family="sans-serif">N</text><text y="-28750" xml:space="preserve" x="-22952" stroke="none" font-size="433.3333" font-family="sans-serif">N</text><text y="-31558" xml:space="preserve" x="-31575" stroke="none" font-size="433.3333" font-family="sans-serif">N</text></g></g></svg>