<svg width="158.67" viewBox="0 0 5289 7144" text-rendering="auto" stroke-width="1" stroke-opacity="1" stroke-miterlimit="10" stroke-linejoin="miter" stroke-linecap="square" stroke-dashoffset="0" stroke-dasharray="none" stroke="black" shape-rendering="auto" image-rendering="auto" height="214.32" font-weight="normal" font-style="normal" font-size="12" font-family="'Dialog'" fill-opacity="1" fill="black" color-rendering="auto" color-interpolation="auto" xmlns="http://www.w3.org/2000/svg"><g><g stroke="white" fill="white"><rect y="0" x="0" width="5289" stroke="none" height="7144"/></g><g transform="translate(32866,32866)" text-rendering="geometricPrecision" stroke-width="44" stroke-linejoin="round" stroke-linecap="round"><line y2="-30009" y1="-29547" x2="-29651" x1="-30451" fill="none"/><line y2="-28302" y1="-29221" x2="-30639" x1="-30639" fill="none"/><line y2="-29547" y1="-30009" x2="-30827" x1="-31621" fill="none"/><line y2="-29440" y1="-30009" x2="-28669" x1="-29651" fill="none"/><line y2="-31145" y1="-30009" x2="-29651" x1="-29651" fill="none"/><line y2="-31003" y1="-30151" x2="-29481" x1="-29481" fill="none"/><line y2="-28302" y1="-27733" x2="-30639" x1="-29651" fill="none"/><line y2="-28302" y1="-28302" x2="-32422" x1="-30639" fill="none"/><line y2="-28472" y1="-28472" x2="-32199" x1="-30862" fill="none"/><line y2="-30009" y1="-29440" x2="-31621" x1="-32609" fill="none"/><line y2="-29790" y1="-29362" x2="-31662" x1="-32401" fill="none"/><line y2="-28522" y1="-29440" x2="-28669" x1="-28669" fill="none"/><line y2="-29440" y1="-30009" x2="-28669" x1="-27681" fill="none"/><line y2="-29660" y1="-30084" x2="-28628" x1="-27889" fill="none"/><line y2="-31714" y1="-31145" x2="-28669" x1="-29651" fill="none"/><line y2="-27733" y1="-28195" x2="-29651" x1="-28857" fill="none"/><line y2="-27938" y1="-28285" x2="-29637" x1="-29039" fill="none"/><line y2="-29440" y1="-28522" x2="-32609" x1="-32609" fill="none"/><line y2="-30009" y1="-31145" x2="-27681" x1="-27681" fill="none"/><line y2="-31145" y1="-31714" x2="-27681" x1="-28669" fill="none"/><line y2="-31070" y1="-31497" x2="-27889" x1="-28628" fill="none"/><line y2="-31055" y1="-30009" x2="-31621" x1="-31621" fill="none"/><line y2="-32762" y1="-31714" x2="-28669" x1="-28669" fill="none"/><line y2="-26907" y1="-27733" x2="-29651" x1="-29651" fill="none"/><line y2="-26161" y1="-26577" x2="-30558" x1="-29839" fill="none"/><line y2="-26687" y1="-26161" x2="-31465" x1="-30558" fill="none"/><line y2="-26381" y1="-26687" x2="-31994" x1="-31465" fill="none"/><text y="-26508" xml:space="preserve" x="-29804" stroke="none" font-size="433.3333" font-family="sans-serif">NH</text><text y="-25982" xml:space="preserve" x="-32526" stroke="none" font-size="433.3333" font-family="sans-serif">NH</text><text y="-25893" xml:space="preserve" x="-31948" stroke="none" font-size="313.3333" font-family="sans-serif">2</text><text y="-29261" xml:space="preserve" x="-30792" stroke="none" font-size="433.3333" font-family="sans-serif">N</text><text y="-28123" xml:space="preserve" x="-32762" stroke="none" font-size="433.3333" font-family="sans-serif">N</text><text y="-28123" xml:space="preserve" x="-28819" stroke="none" font-size="433.3333" font-family="sans-serif">N</text></g></g></svg>