<svg width="308.13" viewBox="0 0 10271 6692" text-rendering="auto" stroke-width="1" stroke-opacity="1" stroke-miterlimit="10" stroke-linejoin="miter" stroke-linecap="square" stroke-dashoffset="0" stroke-dasharray="none" stroke="black" shape-rendering="auto" image-rendering="auto" height="200.76" font-weight="normal" font-style="normal" font-size="12" font-family="'Dialog'" fill-opacity="1" fill="black" color-rendering="auto" color-interpolation="auto" xmlns="http://www.w3.org/2000/svg"><g><g stroke="white" fill="white"><rect y="0" x="0" width="10271" stroke="none" height="6692"/></g><g transform="translate(32866,32758)" text-rendering="geometricPrecision" stroke-width="44" stroke-linejoin="round" stroke-linecap="round"><line y2="-28672" y1="-29088" x2="-28334" x1="-29053" fill="none"/><line y2="-29824" y1="-28672" x2="-26343" x1="-28334" fill="none"/><line y2="-28672" y1="-29088" x2="-30148" x1="-29432" fill="none"/><line y2="-29850" y1="-29382" x2="-29700" x1="-29429" fill="none"/><line y2="-29920" y1="-29452" x2="-29579" x1="-29307" fill="none"/><line y2="-29920" y1="-29452" x2="-28906" x1="-29177" fill="none"/><line y2="-29850" y1="-29382" x2="-28784" x1="-29056" fill="none"/><line y2="-29824" y1="-29062" x2="-26343" x1="-25355" fill="none"/><line y2="-29862" y1="-29290" x2="-26115" x1="-25376" fill="none"/><line y2="-30992" y1="-29824" x2="-25939" x1="-26343" fill="none"/><line y2="-29062" y1="-29686" x2="-25355" x1="-24509" fill="none"/><line y2="-30992" y1="-30992" x2="-24867" x1="-25939" fill="none"/><line y2="-30821" y1="-30821" x2="-25003" x1="-25806" fill="none"/><line y2="-30044" y1="-30772" x2="-24388" x1="-24613" fill="none"/><line y2="-31514" y1="-30992" x2="-26846" x1="-25939" fill="none"/><line y2="-29562" y1="-29764" x2="-23512" x1="-24133" fill="none"/><line y2="-28233" y1="-29062" x2="-25355" x1="-25355" fill="none"/><line y2="-27490" y1="-27903" x2="-24448" x1="-25168" fill="none"/><line y2="-27557" y1="-28672" x2="-30535" x1="-30148" fill="none"/><line y2="-28672" y1="-29258" x2="-30148" x1="-30905" fill="none"/><line y2="-28611" y1="-29050" x2="-30347" x1="-30914" fill="none"/><line y2="-27557" y1="-27557" x2="-31737" x1="-30535" fill="none"/><line y2="-29264" y1="-28810" x2="-31280" x1="-31893" fill="none"/><line y2="-28452" y1="-27557" x2="-32014" x1="-31737" fill="none"/><line y2="-26514" y1="-27557" x2="-31627" x1="-31737" fill="none"/><line y2="-27340" y1="-27557" x2="-32762" x1="-31737" fill="none"/><line y2="-31098" y1="-31514" x2="-27565" x1="-26846" fill="none"/><line y2="-32202" y1="-31514" x2="-27245" x1="-26846" fill="none"/><line y2="-32202" y1="-31514" x2="-26447" x1="-26846" fill="none"/><line y2="-27903" y1="-27490" x2="-23729" x1="-24448" fill="none"/><line y2="-26661" y1="-27490" x2="-24448" x1="-24448" fill="none"/><text y="-29018" xml:space="preserve" x="-29394" stroke="none" font-size="433.3333" font-family="sans-serif">S</text><text y="-29926" xml:space="preserve" x="-29917" stroke="none" font-size="433.3333" font-family="sans-serif">O</text><text y="-29926" xml:space="preserve" x="-28871" stroke="none" font-size="433.3333" font-family="sans-serif">O</text><text y="-27834" xml:space="preserve" x="-25506" stroke="none" font-size="433.3333" font-family="sans-serif">O</text><text y="-27834" xml:space="preserve" x="-23691" stroke="none" font-size="433.3333" font-family="sans-serif">F</text><text y="-26262" xml:space="preserve" x="-24598" stroke="none" font-size="433.3333" font-family="sans-serif">F</text><text y="-30812" xml:space="preserve" x="-27906" stroke="none" font-size="433.3333" font-family="sans-serif">F</text><text y="-32242" xml:space="preserve" x="-27522" stroke="none" font-size="433.3333" font-family="sans-serif">F</text><text y="-32242" xml:space="preserve" x="-26473" stroke="none" font-size="433.3333" font-family="sans-serif">F</text><text y="-29322" xml:space="preserve" x="-23475" stroke="none" font-size="433.3333" font-family="sans-serif">CH</text><text y="-29232" xml:space="preserve" x="-22897" stroke="none" font-size="313.3333" font-family="sans-serif">3</text><text y="-29645" xml:space="preserve" x="-24471" stroke="none" font-size="433.3333" font-family="sans-serif">N</text><text y="-30812" xml:space="preserve" x="-24832" stroke="none" font-size="433.3333" font-family="sans-serif">N</text><text y="-29224" xml:space="preserve" x="-31246" stroke="none" font-size="433.3333" font-family="sans-serif">N</text><text y="-28493" xml:space="preserve" x="-32234" stroke="none" font-size="433.3333" font-family="sans-serif">O</text></g></g></svg>