<svg width="173.76" viewBox="0 0 5792 2726" text-rendering="auto" stroke-width="1" stroke-opacity="1" stroke-miterlimit="10" stroke-linejoin="miter" stroke-linecap="square" stroke-dashoffset="0" stroke-dasharray="none" stroke="black" shape-rendering="auto" image-rendering="auto" height="81.78" font-weight="normal" font-style="normal" font-size="12" font-family="'Dialog'" fill-opacity="1" fill="black" color-rendering="auto" color-interpolation="auto" xmlns="http://www.w3.org/2000/svg"><g><g stroke="white" fill="white"><rect y="0" x="0" width="5792" stroke="none" height="2726"/></g><g transform="translate(32866,32758)" text-rendering="geometricPrecision" stroke-width="44" stroke-linejoin="round" stroke-linecap="round"><line y2="-31841" y1="-30706" x2="-29637" x1="-29637" fill="none"/><line y2="-30136" y1="-30706" x2="-30619" x1="-29637" fill="none"/><line y2="-30353" y1="-30781" x2="-30581" x1="-29845" fill="none"/><line y2="-30706" y1="-30706" x2="-29637" x1="-27854" fill="none"/><line y2="-31841" y1="-32303" x2="-29637" x1="-30431" fill="none"/><line y2="-31751" y1="-32098" x2="-29822" x1="-30417" fill="none"/><line y2="-32303" y1="-31841" x2="-28836" x1="-29637" fill="none"/><line y2="-30596" y1="-30136" x2="-31419" x1="-30619" fill="none"/><line y2="-30925" y1="-31841" x2="-27666" x1="-27666" fill="none"/><line y2="-32303" y1="-31841" x2="-30807" x1="-31607" fill="none"/><line y2="-31841" y1="-32303" x2="-27666" x1="-28461" fill="none"/><line y2="-31751" y1="-32098" x2="-27848" x1="-28446" fill="none"/><line y2="-31841" y1="-30925" x2="-31607" x1="-31607" fill="none"/><line y2="-31728" y1="-31038" x2="-31436" x1="-31436" fill="none"/><line y2="-32092" y1="-31841" x2="-32040" x1="-31607" fill="none"/><text y="-32242" xml:space="preserve" x="-32762" stroke="none" font-size="433.3333" font-family="sans-serif">NH</text><text y="-32153" xml:space="preserve" x="-32185" stroke="none" font-size="313.3333" font-family="sans-serif">2</text><text y="-30526" xml:space="preserve" x="-27817" stroke="none" font-size="433.3333" font-family="sans-serif">NH</text><text y="-32231" xml:space="preserve" x="-30772" stroke="none" font-size="433.3333" font-family="sans-serif">N</text><text y="-32231" xml:space="preserve" x="-28802" stroke="none" font-size="433.3333" font-family="sans-serif">N</text><text y="-30526" xml:space="preserve" x="-31760" stroke="none" font-size="433.3333" font-family="sans-serif">N</text></g></g></svg>