<svg width="389.19" viewBox="0 0 12973 6174" text-rendering="auto" stroke-width="1" stroke-opacity="1" stroke-miterlimit="10" stroke-linejoin="miter" stroke-linecap="square" stroke-dashoffset="0" stroke-dasharray="none" stroke="black" shape-rendering="auto" image-rendering="auto" height="185.22" font-weight="normal" font-style="normal" font-size="12" font-family="'Dialog'" fill-opacity="1" fill="black" color-rendering="auto" color-interpolation="auto" xmlns="http://www.w3.org/2000/svg"><g><g stroke="white" fill="white"><rect y="0" x="0" width="12973" stroke="none" height="6174"/></g><g transform="translate(32866,32758)" text-rendering="geometricPrecision" stroke-width="44" stroke-linejoin="round" stroke-linecap="round"><line y2="-28620" y1="-29189" x2="-24286" x1="-25269" fill="none"/><line y2="-28545" y1="-28972" x2="-24494" x1="-25231" fill="none"/><line y2="-27484" y1="-28620" x2="-24286" x1="-24286" fill="none"/><line y2="-29189" y1="-28620" x2="-25269" x1="-26257" fill="none"/><line y2="-26915" y1="-27484" x2="-25269" x1="-24286" fill="none"/><line y2="-27132" y1="-27560" x2="-25231" x1="-24494" fill="none"/><line y2="-28620" y1="-27484" x2="-26257" x1="-26257" fill="none"/><line y2="-28478" y1="-27626" x2="-26086" x1="-26086" fill="none"/><line y2="-27484" y1="-26915" x2="-26257" x1="-25269" fill="none"/><line y2="-29146" y1="-28620" x2="-27164" x1="-26257" fill="none"/><line y2="-28620" y1="-29146" x2="-28071" x1="-27164" fill="none"/><line y2="-27158" y1="-27484" x2="-26823" x1="-26257" fill="none"/><line y2="-30064" y1="-29146" x2="-23379" x1="-23379" fill="none"/><line y2="-29146" y1="-28576" x2="-23379" x1="-22394" fill="none"/><line y2="-30850" y1="-30391" x2="-22394" x1="-23192" fill="none"/><line y2="-28576" y1="-29146" x2="-22394" x1="-21409" fill="none"/><line y2="-30281" y1="-30850" x2="-21409" x1="-22394" fill="none"/><line y2="-29146" y1="-30281" x2="-21409" x1="-21409" fill="none"/><line y2="-32315" y1="-31899" x2="-21675" x1="-22394" fill="none"/><line y2="-27484" y1="-28620" x2="-28071" x1="-28071" fill="none"/><line y2="-27626" y1="-28478" x2="-28241" x1="-28241" fill="none"/><line y2="-28620" y1="-29189" x2="-28071" x1="-29053" fill="none"/><line y2="-26915" y1="-27484" x2="-29053" x1="-28071" fill="none"/><line y2="-29189" y1="-28620" x2="-29053" x1="-30041" fill="none"/><line y2="-28972" y1="-28545" x2="-29094" x1="-29833" fill="none"/><line y2="-27484" y1="-26915" x2="-30041" x1="-29053" fill="none"/><line y2="-27560" y1="-27135" x2="-29833" x1="-29094" fill="none"/><line y2="-28620" y1="-27484" x2="-30041" x1="-30041" fill="none"/><line y2="-27068" y1="-27484" x2="-30760" x1="-30041" fill="none"/><line y2="-27484" y1="-27068" x2="-31855" x1="-31136" fill="none"/><line y2="-26959" y1="-27484" x2="-32762" x1="-31855" fill="none"/><polygon stroke-width="1" stroke="none" points=" -22394 -28576 -22325 -27747 -22464 -27747"/><polygon stroke-width="1" points=" -22394 -28576 -22325 -27747 -22464 -27747" fill="none"/><polygon stroke-width="1" stroke="none" points=" -21409 -30281 -20724 -30758 -20655 -30639"/><polygon stroke-width="1" points=" -21409 -30281 -20724 -30758 -20655 -30639" fill="none"/><line y2="-28680" y1="-28562" x2="-24321" x1="-24252" fill="none"/><line y2="-28776" y1="-28683" x2="-24126" x1="-24072" fill="none"/><line y2="-28873" y1="-28803" x2="-23932" x1="-23891" fill="none"/><line y2="-28969" y1="-28924" x2="-23737" x1="-23711" fill="none"/><line y2="-29065" y1="-29045" x2="-23542" x1="-23530" fill="none"/><line y2="-31899" y1="-31899" x2="-22325" x1="-22464" fill="none"/><line y2="-31682" y1="-31682" x2="-22339" x1="-22450" fill="none"/><line y2="-31466" y1="-31466" x2="-22354" x1="-22435" fill="none"/><line y2="-31249" y1="-31249" x2="-22368" x1="-22421" fill="none"/><line y2="-31032" y1="-31032" x2="-22382" x1="-22406" fill="none"/><line y2="-28669" y1="-28790" x2="-20722" x1="-20655" fill="none"/><line y2="-28793" y1="-28883" x2="-20901" x1="-20851" fill="none"/><line y2="-28917" y1="-28975" x2="-21080" x1="-21048" fill="none"/><line y2="-29042" y1="-29068" x2="-21259" x1="-21244" fill="none"/><text y="-27349" xml:space="preserve" x="-22547" stroke="none" font-size="433.3333" font-family="sans-serif">OH</text><text y="-32242" xml:space="preserve" x="-21640" stroke="none" font-size="433.3333" font-family="sans-serif">OH</text><text y="-28441" xml:space="preserve" x="-20652" stroke="none" font-size="433.3333" font-family="sans-serif">OH</text><text y="-30628" xml:space="preserve" x="-20652" stroke="none" font-size="433.3333" font-family="sans-serif">OH</text><text y="-26780" xml:space="preserve" x="-27395" stroke="none" font-size="433.3333" font-family="sans-serif">Cl</text><text y="-26780" xml:space="preserve" x="-31101" stroke="none" font-size="433.3333" font-family="sans-serif">O</text><text y="-30102" xml:space="preserve" x="-23530" stroke="none" font-size="433.3333" font-family="sans-serif">O</text><text y="-29108" xml:space="preserve" x="-23284" stroke="none" font-style="italic" font-size="313.3333" font-family="sans-serif">S</text><text y="-28698" xml:space="preserve" x="-22547" stroke="none" font-style="italic" font-size="313.3333" font-family="sans-serif">R</text><text y="-30370" xml:space="preserve" x="-22547" stroke="none" font-style="italic" font-size="313.3333" font-family="sans-serif">R</text><text y="-29108" xml:space="preserve" x="-21811" stroke="none" font-style="italic" font-size="313.3333" font-family="sans-serif">R</text><text y="-29960" xml:space="preserve" x="-21811" stroke="none" font-style="italic" font-size="313.3333" font-family="sans-serif">S</text></g></g></svg>