<svg width="92.46" viewBox="0 0 3082 3957" text-rendering="auto" stroke-width="1" stroke-opacity="1" stroke-miterlimit="10" stroke-linejoin="miter" stroke-linecap="square" stroke-dashoffset="0" stroke-dasharray="none" stroke="black" shape-rendering="auto" image-rendering="auto" height="118.71" font-weight="normal" font-style="normal" font-size="12" font-family="'Dialog'" fill-opacity="1" fill="black" color-rendering="auto" color-interpolation="auto" xmlns="http://www.w3.org/2000/svg"><g><g stroke="white" fill="white"><rect y="0" x="0" width="3082" stroke="none" height="3957"/></g><g transform="translate(32866,32758)" text-rendering="geometricPrecision" stroke-width="44" stroke-linejoin="round" stroke-linecap="round"><line y2="-31338" y1="-30922" x2="-30795" x1="-31514" fill="none"/><line y2="-30812" y1="-31338" x2="-29888" x1="-30795" fill="none"/><line y2="-30694" y1="-31217" x2="-29957" x1="-30864" fill="none"/><line y2="-31228" y1="-30922" x2="-32422" x1="-31890" fill="none"/><line y2="-32202" y1="-31555" x2="-32609" x1="-32609" fill="none"/><line y2="-29986" y1="-30593" x2="-31702" x1="-31702" fill="none"/><line y2="-29351" y1="-29657" x2="-30983" x1="-31514" fill="none"/><line y2="-30336" y1="-30645" x2="-32387" x1="-31855" fill="none"/><line y2="-30460" y1="-30766" x2="-32456" x1="-31925" fill="none"/><text y="-30633" xml:space="preserve" x="-31855" stroke="none" font-size="433.3333" font-family="sans-serif">P</text><text y="-31156" xml:space="preserve" x="-32760" stroke="none" font-size="433.3333" font-family="sans-serif">O</text><text y="-29588" xml:space="preserve" x="-31855" stroke="none" font-size="433.3333" font-family="sans-serif">O</text><text y="-30110" xml:space="preserve" x="-32762" stroke="none" font-size="433.3333" font-family="sans-serif">O</text><text y="-32242" xml:space="preserve" x="-32760" stroke="none" font-size="433.3333" font-family="sans-serif">CH</text><text y="-32153" xml:space="preserve" x="-32182" stroke="none" font-size="313.3333" font-family="sans-serif">3</text><text y="-29062" xml:space="preserve" x="-30948" stroke="none" font-size="433.3333" font-family="sans-serif">CH</text><text y="-28972" xml:space="preserve" x="-30370" stroke="none" font-size="313.3333" font-family="sans-serif">3</text></g></g></svg>