<svg width="331.02" viewBox="0 0 11034 6833" text-rendering="auto" stroke-width="1" stroke-opacity="1" stroke-miterlimit="10" stroke-linejoin="miter" stroke-linecap="square" stroke-dashoffset="0" stroke-dasharray="none" stroke="black" shape-rendering="auto" image-rendering="auto" height="204.99" font-weight="normal" font-style="normal" font-size="12" font-family="'Dialog'" fill-opacity="1" fill="black" color-rendering="auto" color-interpolation="auto" xmlns="http://www.w3.org/2000/svg"><g><g stroke="white" fill="white"><rect y="0" x="0" width="11034" stroke="none" height="6833"/></g><g transform="translate(32866,32758)" text-rendering="geometricPrecision" stroke-width="44" stroke-linejoin="round" stroke-linecap="round"><line y2="-29068" y1="-30203" x2="-29342" x1="-29342" fill="none"/><line y2="-31341" y1="-30203" x2="-29342" x1="-29342" fill="none"/><line y2="-30775" y1="-30203" x2="-28311" x1="-29342" fill="none"/><line y2="-30203" y1="-30778" x2="-29342" x1="-30333" fill="none"/><line y2="-28501" y1="-29068" x2="-30327" x1="-29342" fill="none"/><line y2="-29068" y1="-28013" x2="-29342" x1="-28900" fill="none"/><line y2="-30567" y1="-31341" x2="-28972" x1="-29342" fill="none"/><line y2="-28013" y1="-30316" x2="-27762" x1="-28854" fill="none"/><line y2="-30443" y1="-29850" x2="-30032" x1="-30489" fill="none"/><line y2="-31341" y1="-30665" x2="-29342" x1="-29862" fill="none"/><line y2="-30203" y1="-30775" x2="-27328" x1="-28311" fill="none"/><line y2="-32474" y1="-30775" x2="-27323" x1="-28311" fill="none"/><line y2="-30778" y1="-30203" x2="-30333" x1="-31315" fill="none"/><line y2="-27357" y1="-28501" x2="-30659" x1="-30327" fill="none"/><line y2="-29068" y1="-28501" x2="-31315" x1="-30327" fill="none"/><line y2="-28013" y1="-28013" x2="-28900" x1="-27762" fill="none"/><line y2="-28013" y1="-29068" x2="-27762" x1="-27328" fill="none"/><line y2="-28553" y1="-27357" x2="-30659" x1="-30659" fill="none"/><line y2="-29411" y1="-28831" x2="-30659" x1="-30659" fill="none"/><line y2="-29068" y1="-30203" x2="-27328" x1="-27328" fill="none"/><line y2="-31904" y1="-32474" x2="-26340" x1="-27323" fill="none"/><line y2="-30203" y1="-29068" x2="-31315" x1="-31315" fill="none"/><line y2="-29068" y1="-29065" x2="-27328" x1="-25364" fill="none"/><line y2="-31899" y1="-31904" x2="-24373" x1="-26340" fill="none"/><line y2="-29065" y1="-31899" x2="-25364" x1="-24373" fill="none"/><line y2="-29761" y1="-29677" x2="-31179" x1="-30847" fill="none"/><line y2="-29931" y1="-29830" x2="-31855" x1="-31451" fill="none"/><line y2="-29406" y1="-29931" x2="-32762" x1="-31855" fill="none"/><line y2="-26410" y1="-26826" x2="-28756" x1="-29472" fill="none"/><line y2="-26716" y1="-26410" x2="-27848" x1="-28377" fill="none"/><line y2="-27531" y1="-27224" x2="-27643" x1="-28172" fill="none"/><line y2="-32006" y1="-32315" x2="-22747" x1="-23278" fill="none"/><line y2="-31072" y1="-30769" x2="-26872" x1="-26343" fill="none"/><line y2="-30353" y1="-30769" x2="-25624" x1="-26343" fill="none"/><polygon stroke-width="1" stroke="none" points=" -30327 -28501 -29411 -26855 -29536 -26794"/><polygon stroke-width="1" points=" -30327 -28501 -29411 -26855 -29536 -26794" fill="none"/><polygon stroke-width="1" stroke="none" points=" -24373 -31899 -23688 -32372 -23619 -32254"/><polygon stroke-width="1" points=" -24373 -31899 -23688 -32372 -23619 -32254" fill="none"/><polygon stroke-width="1" stroke="none" points=" -27328 -29068 -26618 -28654 -26696 -28539"/><polygon stroke-width="1" points=" -27328 -29068 -26618 -28654 -26696 -28539" fill="none"/><polygon stroke-width="1" stroke="none" points=" -28311 -30775 -28380 -31601 -28241 -31604"/><polygon stroke-width="1" points=" -28311 -30775 -28380 -31601 -28241 -31604" fill="none"/><polygon stroke-width="1" stroke="none" points=" -29342 -29068 -29486 -28256 -29619 -28290"/><polygon stroke-width="1" points=" -29342 -29068 -29486 -28256 -29619 -28290" fill="none"/><line y2="-30708" y1="-30827" x2="-26309" x1="-26378" fill="none"/><line y2="-30612" y1="-30708" x2="-26504" x1="-26559" fill="none"/><line y2="-30515" y1="-30589" x2="-26698" x1="-26741" fill="none"/><line y2="-30419" y1="-30470" x2="-26893" x1="-26922" fill="none"/><line y2="-30322" y1="-30350" x2="-27087" x1="-27103" fill="none"/><line y2="-30226" y1="-30231" x2="-27282" x1="-27285" fill="none"/><line y2="-30766" y1="-30769" x2="-26413" x1="-26274" fill="none"/><line y2="-30983" y1="-30985" x2="-26399" x1="-26287" fill="none"/><line y2="-31200" y1="-31202" x2="-26385" x1="-26299" fill="none"/><line y2="-31417" y1="-31418" x2="-26371" x1="-26312" fill="none"/><line y2="-31634" y1="-31635" x2="-26357" x1="-26324" fill="none"/><line y2="-31851" y1="-31851" x2="-26343" x1="-26337" fill="none"/><line y2="-27300" y1="-27369" x2="-28550" x1="-28432" fill="none"/><line y2="-27495" y1="-27545" x2="-28646" x1="-28560" fill="none"/><line y2="-27690" y1="-27721" x2="-28741" x1="-28688" fill="none"/><line y2="-27885" y1="-27897" x2="-28837" x1="-28816" fill="none"/><line y2="-31607" y1="-31604" x2="-30266" x1="-30402" fill="none"/><line y2="-31390" y1="-31388" x2="-30284" x1="-30384" fill="none"/><line y2="-31173" y1="-31171" x2="-30301" x1="-30366" fill="none"/><line y2="-30956" y1="-30955" x2="-30319" x1="-30348" fill="none"/><text y="-31647" xml:space="preserve" x="-30486" stroke="none" font-size="433.3333" font-family="sans-serif">OH</text><text y="-26121" xml:space="preserve" x="-28718" stroke="none" font-size="433.3333" font-family="sans-serif">O</text><text y="-26647" xml:space="preserve" x="-27811" stroke="none" font-size="433.3333" font-family="sans-serif">CH</text><text y="-26557" xml:space="preserve" x="-27233" stroke="none" font-size="313.3333" font-family="sans-serif">3</text><text y="-26936" xml:space="preserve" x="-28513" stroke="none" font-size="433.3333" font-family="sans-serif">O</text><text y="-27461" xml:space="preserve" x="-27606" stroke="none" font-size="433.3333" font-family="sans-serif">CH</text><text y="-27372" xml:space="preserve" x="-27028" stroke="none" font-size="313.3333" font-family="sans-serif">3</text><text y="-28288" xml:space="preserve" x="-26621" stroke="none" font-size="433.3333" font-family="sans-serif">OH</text><text y="-31113" xml:space="preserve" x="-27404" stroke="none" font-size="433.3333" font-family="sans-serif">OH</text><text y="-32242" xml:space="preserve" x="-23619" stroke="none" font-size="433.3333" font-family="sans-serif">O</text><text y="-31720" xml:space="preserve" x="-22712" stroke="none" font-size="433.3333" font-family="sans-serif">CH</text><text y="-31630" xml:space="preserve" x="-22134" stroke="none" font-size="313.3333" font-family="sans-serif">3</text><text y="-29452" xml:space="preserve" x="-30812" stroke="none" font-size="433.3333" font-family="sans-serif">N</text><text y="-31644" xml:space="preserve" x="-28461" stroke="none" font-size="433.3333" font-family="sans-serif">H</text><text y="-27874" xml:space="preserve" x="-29764" stroke="none" font-size="433.3333" font-family="sans-serif">H</text><text y="-30064" xml:space="preserve" x="-25589" stroke="none" font-size="433.3333" font-family="sans-serif">H</text><text y="-29882" xml:space="preserve" x="-29244" stroke="none" font-style="italic" font-size="313.3333" font-family="sans-serif">S</text><text y="-28964" xml:space="preserve" x="-29215" stroke="none" font-style="italic" font-size="313.3333" font-family="sans-serif">R</text><text y="-31465" xml:space="preserve" x="-29486" stroke="none" font-style="italic" font-size="313.3333" font-family="sans-serif">R</text><text y="-30292" xml:space="preserve" x="-28461" stroke="none" font-style="italic" font-size="313.3333" font-family="sans-serif">R</text><text y="-30295" xml:space="preserve" x="-30486" stroke="none" font-style="italic" font-size="313.3333" font-family="sans-serif">S</text><text y="-28626" xml:space="preserve" x="-30480" stroke="none" font-style="italic" font-size="313.3333" font-family="sans-serif">S</text><text y="-28082" xml:space="preserve" x="-28909" stroke="none" font-style="italic" font-size="313.3333" font-family="sans-serif">R</text><text y="-28100" xml:space="preserve" x="-28250" stroke="none" font-style="italic" font-size="313.3333" font-family="sans-serif">R</text><text y="-29882" xml:space="preserve" x="-27730" stroke="none" font-style="italic" font-size="313.3333" font-family="sans-serif">R</text><text y="-28938" xml:space="preserve" x="-27762" stroke="none" font-style="italic" font-size="313.3333" font-family="sans-serif">R</text><text y="-30287" xml:space="preserve" x="-26496" stroke="none" font-style="italic" font-size="313.3333" font-family="sans-serif">S</text><text y="-32000" xml:space="preserve" x="-26418" stroke="none" font-style="italic" font-size="313.3333" font-family="sans-serif">S</text><text y="-31994" xml:space="preserve" x="-24598" stroke="none" font-style="italic" font-size="313.3333" font-family="sans-serif">S</text></g></g></svg>