<svg width="97.41" viewBox="0 0 3247 5489" text-rendering="auto" stroke-width="1" stroke-opacity="1" stroke-miterlimit="10" stroke-linejoin="miter" stroke-linecap="square" stroke-dashoffset="0" stroke-dasharray="none" stroke="black" shape-rendering="auto" image-rendering="auto" height="164.67" font-weight="normal" font-style="normal" font-size="12" font-family="'Dialog'" fill-opacity="1" fill="black" color-rendering="auto" color-interpolation="auto" xmlns="http://www.w3.org/2000/svg"><g><g stroke="white" fill="white"><rect y="0" x="0" width="3247" stroke="none" height="5489"/></g><g transform="translate(32866,32866)" text-rendering="geometricPrecision" stroke-width="44" stroke-linejoin="round" stroke-linecap="round"><line y2="-29440" y1="-30009" x2="-31613" x1="-30630" fill="none"/><line y2="-29657" y1="-30084" x2="-31575" x1="-30838" fill="none"/><line y2="-30009" y1="-29440" x2="-32601" x1="-31613" fill="none"/><line y2="-30009" y1="-31145" x2="-30630" x1="-30630" fill="none"/><line y2="-31145" y1="-30009" x2="-32601" x1="-32601" fill="none"/><line y2="-31003" y1="-30151" x2="-32430" x1="-32430" fill="none"/><line y2="-31145" y1="-31714" x2="-30630" x1="-31613" fill="none"/><line y2="-31070" y1="-31497" x2="-30838" x1="-31575" fill="none"/><line y2="-31714" y1="-31145" x2="-31613" x1="-32601" fill="none"/><line y2="-31670" y1="-31145" x2="-29723" x1="-30630" fill="none"/><line y2="-32762" y1="-31714" x2="-31613" x1="-31613" fill="none"/><line y2="-28611" y1="-29440" x2="-31613" x1="-31613" fill="none"/><line y2="-28036" y1="-28285" x2="-32231" x1="-31800" fill="none"/><text y="-28212" xml:space="preserve" x="-31766" stroke="none" font-size="433.3333" font-family="sans-serif">O</text><text y="-27638" xml:space="preserve" x="-32762" stroke="none" font-size="433.3333" font-family="sans-serif">CH</text><text y="-27548" xml:space="preserve" x="-32185" stroke="none" font-size="313.3333" font-family="sans-serif">3</text></g></g></svg>