<svg width="128.67" viewBox="0 0 4289 5724" text-rendering="auto" stroke-width="1" stroke-opacity="1" stroke-miterlimit="10" stroke-linejoin="miter" stroke-linecap="square" stroke-dashoffset="0" stroke-dasharray="none" stroke="black" shape-rendering="auto" image-rendering="auto" height="171.72" font-weight="normal" font-style="normal" font-size="12" font-family="'Dialog'" fill-opacity="1" fill="black" color-rendering="auto" color-interpolation="auto" xmlns="http://www.w3.org/2000/svg"><g><g stroke="white" fill="white"><rect y="0" x="0" width="4289" stroke="none" height="5724"/></g><g transform="translate(32866,32758)" text-rendering="geometricPrecision" stroke-width="44" stroke-linejoin="round" stroke-linecap="round"><line y2="-30359" y1="-30850" x2="-30457" x1="-31483" fill="none"/><line y2="-30850" y1="-30448" x2="-31483" x1="-32318" fill="none"/><line y2="-29247" y1="-30359" x2="-30203" x1="-30457" fill="none"/><line y2="-30139" y1="-29247" x2="-32557" x1="-32762" fill="none"/><line y2="-28360" y1="-29247" x2="-30914" x1="-30203" fill="none"/><line y2="-29247" y1="-28360" x2="-32762" x1="-32052" fill="none"/><line y2="-28360" y1="-28360" x2="-32052" x1="-30914" fill="none"/><line y2="-31899" y1="-30850" x2="-31483" x1="-31483" fill="none"/><line y2="-32202" y1="-31899" x2="-32011" x1="-31483" fill="none"/><polygon stroke-width="1" stroke="none" points=" -30457 -30359 -29874 -30916 -29787 -30810"/><polygon stroke-width="1" points=" -30457 -30359 -29874 -30916 -29787 -30810" fill="none"/><line y2="-29755" y1="-29755" x2="-31552" x1="-31413" fill="none"/><line y2="-29972" y1="-29972" x2="-31538" x1="-31427" fill="none"/><line y2="-30188" y1="-30188" x2="-31525" x1="-31441" fill="none"/><line y2="-30405" y1="-30405" x2="-31511" x1="-31455" fill="none"/><line y2="-30622" y1="-30622" x2="-31497" x1="-31468" fill="none"/><line y2="-30838" y1="-30838" x2="-31484" x1="-31482" fill="none"/><line y2="-29287" y1="-29345" x2="-31526" x1="-31650" fill="none"/><line y2="-29098" y1="-29144" x2="-31633" x1="-31732" fill="none"/><line y2="-28909" y1="-28943" x2="-31740" x1="-31814" fill="none"/><line y2="-28720" y1="-28742" x2="-31848" x1="-31896" fill="none"/><line y2="-28531" y1="-28542" x2="-31955" x1="-31978" fill="none"/><line y2="-28987" y1="-29122" x2="-29385" x1="-29356" fill="none"/><line y2="-29053" y1="-29154" x2="-29592" x1="-29571" fill="none"/><line y2="-29119" y1="-29185" x2="-29800" x1="-29786" fill="none"/><line y2="-29185" y1="-29217" x2="-30007" x1="-30000" fill="none"/><line y2="-27600" y1="-27658" x2="-30636" x1="-30512" fill="none"/><line y2="-27804" y1="-27847" x2="-30711" x1="-30620" fill="none"/><line y2="-28008" y1="-28035" x2="-30785" x1="-30728" fill="none"/><line y2="-28213" y1="-28224" x2="-30860" x1="-30836" fill="none"/><text y="-32242" xml:space="preserve" x="-32543" stroke="none" font-size="433.3333" font-family="sans-serif">OH</text><text y="-30838" xml:space="preserve" x="-29796" stroke="none" font-size="433.3333" font-family="sans-serif">OH</text><text y="-28834" xml:space="preserve" x="-29336" stroke="none" font-size="433.3333" font-family="sans-serif">OH</text><text y="-27230" xml:space="preserve" x="-30625" stroke="none" font-size="433.3333" font-family="sans-serif">OH</text><text y="-29356" xml:space="preserve" x="-31636" stroke="none" font-size="433.3333" font-family="sans-serif">O</text><text y="-30180" xml:space="preserve" x="-32658" stroke="none" font-size="433.3333" font-family="sans-serif">O</text><text y="-30815" xml:space="preserve" x="-31884" stroke="none" font-style="italic" font-size="313.3333" font-family="sans-serif">R</text><text y="-29908" xml:space="preserve" x="-30859" stroke="none" font-style="italic" font-size="313.3333" font-family="sans-serif">S</text><text y="-29120" xml:space="preserve" x="-30639" stroke="none" font-style="italic" font-size="313.3333" font-family="sans-serif">R</text><text y="-27921" xml:space="preserve" x="-32326" stroke="none" font-style="italic" font-size="313.3333" font-family="sans-serif">R</text><text y="-28441" xml:space="preserve" x="-31188" stroke="none" font-style="italic" font-size="313.3333" font-family="sans-serif">S</text></g></g></svg>