<svg width="217.17" viewBox="0 0 7239 6628" text-rendering="auto" stroke-width="1" stroke-opacity="1" stroke-miterlimit="10" stroke-linejoin="miter" stroke-linecap="square" stroke-dashoffset="0" stroke-dasharray="none" stroke="black" shape-rendering="auto" image-rendering="auto" height="198.84" font-weight="normal" font-style="normal" font-size="12" font-family="'Dialog'" fill-opacity="1" fill="black" color-rendering="auto" color-interpolation="auto" xmlns="http://www.w3.org/2000/svg"><g><g stroke="white" fill="white"><rect y="0" x="0" width="7239" stroke="none" height="6628"/></g><g transform="translate(32866,32758)" text-rendering="geometricPrecision" stroke-width="44" stroke-linejoin="round" stroke-linecap="round"><line y2="-29796" y1="-30370" x2="-28756" x1="-29738" fill="none"/><line y2="-30370" y1="-29796" x2="-29738" x1="-30720" fill="none"/><line y2="-31514" y1="-30370" x2="-29738" x1="-29738" fill="none"/><line y2="-28649" y1="-29796" x2="-28756" x1="-28756" fill="none"/><line y2="-29796" y1="-29226" x2="-28756" x1="-27759" fill="none"/><line y2="-28649" y1="-29796" x2="-30720" x1="-30720" fill="none"/><line y2="-29796" y1="-30370" x2="-30720" x1="-31702" fill="none"/><line y2="-32089" y1="-31514" x2="-28756" x1="-29738" fill="none"/><line y2="-31514" y1="-30370" x2="-27773" x1="-27773" fill="none"/><line y2="-28077" y1="-28649" x2="-29738" x1="-28756" fill="none"/><line y2="-29226" y1="-30942" x2="-27759" x1="-26780" fill="none"/><line y2="-28649" y1="-28077" x2="-30720" x1="-29738" fill="none"/><line y2="-28077" y1="-28649" x2="-31702" x1="-30720" fill="none"/><line y2="-30370" y1="-29796" x2="-31702" x1="-32684" fill="none"/><line y2="-31514" y1="-32089" x2="-27773" x1="-28756" fill="none"/><line y2="-30942" y1="-31514" x2="-26780" x1="-27773" fill="none"/><line y2="-28649" y1="-28077" x2="-32684" x1="-31702" fill="none"/><line y2="-29796" y1="-28649" x2="-32684" x1="-32684" fill="none"/><line y2="-27028" y1="-28077" x2="-31702" x1="-31702" fill="none"/><line y2="-31214" y1="-30942" x2="-25768" x1="-26780" fill="none"/><line y2="-31078" y1="-30807" x2="-25731" x1="-26745" fill="none"/><line y2="-26725" y1="-27028" x2="-32231" x1="-31702" fill="none"/><line y2="-26673" y1="-27089" x2="-30948" x1="-31668" fill="none"/><line y2="-26551" y1="-26967" x2="-31018" x1="-31737" fill="none"/><polygon stroke-width="1" stroke="none" points=" -31702 -28077 -32575 -27493 -32644 -27612"/><polygon stroke-width="1" points=" -31702 -28077 -32575 -27493 -32644 -27612" fill="none"/><polygon stroke-width="1" stroke="none" points=" -29738 -30370 -29668 -29541 -29807 -29538"/><polygon stroke-width="1" points=" -29738 -30370 -29668 -29541 -29807 -29538" fill="none"/><polygon stroke-width="1" stroke="none" points=" -30720 -28649 -30651 -27822 -30789 -27820"/><polygon stroke-width="1" points=" -30720 -28649 -30651 -27822 -30789 -27820" fill="none"/><line y2="-30310" y1="-30428" x2="-27739" x1="-27805" fill="none"/><line y2="-30212" y1="-30308" x2="-27933" x1="-27986" fill="none"/><line y2="-30114" y1="-30187" x2="-28126" x1="-28167" fill="none"/><line y2="-30017" y1="-30067" x2="-28320" x1="-28348" fill="none"/><line y2="-29919" y1="-29947" x2="-28513" x1="-28529" fill="none"/><line y2="-29821" y1="-29827" x2="-28707" x1="-28710" fill="none"/><line y2="-30844" y1="-30844" x2="-30651" x1="-30789" fill="none"/><line y2="-30627" y1="-30627" x2="-30665" x1="-30775" fill="none"/><line y2="-30411" y1="-30411" x2="-30680" x1="-30760" fill="none"/><line y2="-30194" y1="-30194" x2="-30694" x1="-30746" fill="none"/><line y2="-29977" y1="-29977" x2="-30708" x1="-30732" fill="none"/><line y2="-32167" y1="-32237" x2="-27314" x1="-27432" fill="none"/><line y2="-31989" y1="-32040" x2="-27439" x1="-27525" fill="none"/><line y2="-31811" y1="-31843" x2="-27564" x1="-27618" fill="none"/><line y2="-31634" y1="-31646" x2="-27689" x1="-27711" fill="none"/><text y="-32242" xml:space="preserve" x="-27401" stroke="none" font-size="433.3333" font-family="sans-serif">OH</text><text y="-26326" xml:space="preserve" x="-32762" stroke="none" font-size="433.3333" font-family="sans-serif">OH</text><text y="-26326" xml:space="preserve" x="-30948" stroke="none" font-size="433.3333" font-family="sans-serif">O</text><text y="-29143" xml:space="preserve" x="-29891" stroke="none" font-size="433.3333" font-family="sans-serif">H</text><text y="-27424" xml:space="preserve" x="-30873" stroke="none" font-size="433.3333" font-family="sans-serif">H</text><text y="-30333" xml:space="preserve" x="-30139" stroke="none" font-style="italic" font-size="313.3333" font-family="sans-serif">R</text><text y="-29475" xml:space="preserve" x="-29157" stroke="none" font-style="italic" font-size="313.3333" font-family="sans-serif">R</text><text y="-29475" xml:space="preserve" x="-30625" stroke="none" font-style="italic" font-size="313.3333" font-family="sans-serif">S</text><text y="-28614" xml:space="preserve" x="-31122" stroke="none" font-style="italic" font-size="313.3333" font-family="sans-serif">S</text><text y="-31191" xml:space="preserve" x="-28172" stroke="none" font-style="italic" font-size="313.3333" font-family="sans-serif">S</text><text y="-27753" xml:space="preserve" x="-31607" stroke="none" font-style="italic" font-size="313.3333" font-family="sans-serif">R</text></g></g></svg>