<svg width="325.95" viewBox="0 0 10865 3892" text-rendering="auto" stroke-width="1" stroke-opacity="1" stroke-miterlimit="10" stroke-linejoin="miter" stroke-linecap="square" stroke-dashoffset="0" stroke-dasharray="none" stroke="black" shape-rendering="auto" image-rendering="auto" height="116.76" font-weight="normal" font-style="normal" font-size="12" font-family="'Dialog'" fill-opacity="1" fill="black" color-rendering="auto" color-interpolation="auto" xmlns="http://www.w3.org/2000/svg"><g><g stroke="white" fill="white"><rect y="0" x="0" width="10865" stroke="none" height="3892"/></g><g transform="translate(32866,32758)" text-rendering="geometricPrecision" stroke-width="44" stroke-linejoin="round" stroke-linecap="round"><line y2="-30902" y1="-31471" x2="-28545" x1="-29530" fill="none"/><line y2="-30827" y1="-31254" x2="-28753" x1="-29492" fill="none"/><line y2="-29767" y1="-30902" x2="-28545" x1="-28545" fill="none"/><line y2="-31471" y1="-30902" x2="-29530" x1="-30515" fill="none"/><line y2="-29198" y1="-29767" x2="-29530" x1="-28545" fill="none"/><line y2="-29414" y1="-29842" x2="-29492" x1="-28753" fill="none"/><line y2="-30902" y1="-29767" x2="-30515" x1="-30515" fill="none"/><line y2="-30760" y1="-29908" x2="-30344" x1="-30344" fill="none"/><line y2="-29767" y1="-29198" x2="-30515" x1="-29530" fill="none"/><line y2="-31318" y1="-30902" x2="-27825" x1="-28545" fill="none"/><line y2="-30960" y1="-31208" x2="-26829" x1="-27259" fill="none"/><line y2="-29351" y1="-29767" x2="-31234" x1="-30515" fill="none"/><line y2="-29599" y1="-29351" x2="-32040" x1="-31610" fill="none"/><line y2="-31436" y1="-31020" x2="-25768" x1="-26488" fill="none"/><line y2="-31315" y1="-30899" x2="-25699" x1="-26418" fill="none"/><line y2="-30850" y1="-31376" x2="-24827" x1="-25734" fill="none"/><line y2="-32202" y1="-31376" x2="-25734" x1="-25734" fill="none"/><line y2="-31266" y1="-30850" x2="-24107" x1="-24827" fill="none"/><line y2="-30850" y1="-31266" x2="-23012" x1="-23732" fill="none"/><line y2="-31376" y1="-30850" x2="-22105" x1="-23012" fill="none"/><line y2="-30024" y1="-30850" x2="-24757" x1="-24757" fill="none"/><line y2="-30024" y1="-30850" x2="-24896" x1="-24896" fill="none"/><text y="-31249" xml:space="preserve" x="-27791" stroke="none" font-size="433.3333" font-family="sans-serif">NH</text><text y="-30671" xml:space="preserve" x="-26794" stroke="none" font-size="433.3333" font-family="sans-serif">N</text><text y="-32242" xml:space="preserve" x="-25965" stroke="none" font-size="433.3333" font-family="sans-serif">Cl</text><text y="-31197" xml:space="preserve" x="-24070" stroke="none" font-size="433.3333" font-family="sans-serif">O</text><text y="-29625" xml:space="preserve" x="-24977" stroke="none" font-size="433.3333" font-family="sans-serif">O</text><text y="-29062" xml:space="preserve" x="-31575" stroke="none" font-size="433.3333" font-family="sans-serif">O</text><text y="-29749" xml:space="preserve" x="-32762" stroke="none" font-size="433.3333" font-family="sans-serif">CH</text><text y="-29660" xml:space="preserve" x="-32185" stroke="none" font-size="313.3333" font-family="sans-serif">3</text><text y="-31376" xml:space="preserve" x="-26470" stroke="none" font-style="italic" font-size="313.3333" font-family="sans-serif">Z</text></g></g></svg>