<svg width="462.18" viewBox="0 0 15406 7199" text-rendering="auto" stroke-width="1" stroke-opacity="1" stroke-miterlimit="10" stroke-linejoin="miter" stroke-linecap="square" stroke-dashoffset="0" stroke-dasharray="none" stroke="black" shape-rendering="auto" image-rendering="auto" height="215.97" font-weight="normal" font-style="normal" font-size="12" font-family="'Dialog'" fill-opacity="1" fill="black" color-rendering="auto" color-interpolation="auto" xmlns="http://www.w3.org/2000/svg"><g><g stroke="white" fill="white"><rect y="0" x="0" width="15406" stroke="none" height="7199"/></g><g transform="translate(32866,32866)" text-rendering="geometricPrecision" stroke-width="44" stroke-linejoin="round" stroke-linecap="round"><line y2="-28048" y1="-27479" x2="-20516" x1="-21504" fill="none"/><line y2="-27479" y1="-28048" x2="-19534" x1="-20516" fill="none"/><line y2="-26340" y1="-27479" x2="-21504" x1="-21504" fill="none"/><line y2="-27479" y1="-28048" x2="-21504" x1="-22490" fill="none"/><line y2="-27404" y1="-27831" x2="-21712" x1="-22449" fill="none"/><line y2="-26340" y1="-27479" x2="-19534" x1="-19534" fill="none"/><line y2="-28048" y1="-27479" x2="-18546" x1="-19534" fill="none"/><line y2="-27828" y1="-27401" x2="-18587" x1="-19326" fill="none"/><line y2="-26340" y1="-26340" x2="-21504" x1="-19534" fill="none"/><line y2="-25771" y1="-26340" x2="-22490" x1="-21504" fill="none"/><line y2="-25991" y1="-26418" x2="-22449" x1="-21712" fill="none"/><line y2="-28048" y1="-27479" x2="-22490" x1="-23475" fill="none"/><line y2="-26340" y1="-25771" x2="-19534" x1="-18546" fill="none"/><line y2="-26418" y1="-25991" x2="-19326" x1="-18587" fill="none"/><line y2="-27479" y1="-28048" x2="-17564" x1="-18546" fill="none"/><line y2="-26340" y1="-25771" x2="-23475" x1="-22490" fill="none"/><line y2="-27479" y1="-26340" x2="-23475" x1="-23475" fill="none"/><line y2="-27337" y1="-26485" x2="-23304" x1="-23304" fill="none"/><line y2="-25771" y1="-26340" x2="-18546" x1="-17564" fill="none"/><line y2="-26340" y1="-27479" x2="-17564" x1="-17564" fill="none"/><line y2="-26485" y1="-27337" x2="-17734" x1="-17734" fill="none"/><line y2="-29096" y1="-28048" x2="-20516" x1="-20516" fill="none"/><line y2="-29510" y1="-29096" x2="-21236" x1="-20516" fill="none"/><line y2="-30668" y1="-29839" x2="-21424" x1="-21424" fill="none"/><line y2="-30971" y1="-30668" x2="-21952" x1="-21424" fill="none"/><line y2="-30668" y1="-31081" x2="-23238" x1="-22518" fill="none"/><line y2="-31145" y1="-30729" x2="-20739" x1="-21458" fill="none"/><line y2="-31020" y1="-30607" x2="-20670" x1="-21389" fill="none"/><line y2="-31191" y1="-30668" x2="-24145" x1="-23238" fill="none"/><line y2="-29096" y1="-29619" x2="-24145" x1="-23238" fill="none"/><line y2="-30888" y1="-31191" x2="-24674" x1="-24145" fill="none"/><line y2="-31191" y1="-30775" x2="-25959" x1="-25240" fill="none"/><line y2="-32020" y1="-31191" x2="-24217" x1="-24217" fill="none"/><line y2="-32020" y1="-31191" x2="-24076" x1="-24076" fill="none"/><line y2="-29096" y1="-29663" x2="-24145" x1="-25130" fill="none"/><line y2="-27958" y1="-29096" x2="-24145" x1="-24145" fill="none"/><line y2="-29663" y1="-29096" x2="-25130" x1="-26115" fill="none"/><line y2="-27389" y1="-27958" x2="-25130" x1="-24145" fill="none"/><line y2="-29096" y1="-27958" x2="-26115" x1="-26115" fill="none"/><line y2="-27958" y1="-27389" x2="-26115" x1="-25130" fill="none"/><line y2="-30668" y1="-31191" x2="-26866" x1="-25959" fill="none"/><line y2="-32762" y1="-32240" x2="-26866" x1="-25959" fill="none"/><line y2="-32240" y1="-32762" x2="-27773" x1="-26866" fill="none"/><line y2="-32762" y1="-32240" x2="-28680" x1="-27773" fill="none"/><line y2="-32459" y1="-32762" x2="-29209" x1="-28680" fill="none"/><line y2="-29839" y1="-30668" x2="-26866" x1="-26866" fill="none"/><line y2="-29096" y1="-29510" x2="-27773" x1="-27057" fill="none"/><line y2="-31020" y1="-30607" x2="-27620" x1="-26904" fill="none"/><line y2="-31145" y1="-30729" x2="-27551" x1="-26832" fill="none"/><line y2="-29096" y1="-29668" x2="-27773" x1="-28758" fill="none"/><line y2="-27950" y1="-29096" x2="-27773" x1="-27773" fill="none"/><line y2="-28091" y1="-28952" x2="-27944" x1="-27944" fill="none"/><line y2="-29668" y1="-29096" x2="-28758" x1="-29741" fill="none"/><line y2="-29449" y1="-29021" x2="-28793" x1="-29530" fill="none"/><line y2="-27375" y1="-27950" x2="-28758" x1="-27773" fill="none"/><line y2="-27950" y1="-29096" x2="-29741" x1="-29741" fill="none"/><line y2="-29096" y1="-29559" x2="-29741" x1="-30535" fill="none"/><line y2="-27950" y1="-27375" x2="-29741" x1="-28758" fill="none"/><line y2="-28025" y1="-27594" x2="-29530" x1="-28793" fill="none"/><line y2="-27375" y1="-27950" x2="-30723" x1="-29741" fill="none"/><line y2="-29559" y1="-29096" x2="-30911" x1="-31705" fill="none"/><line y2="-27950" y1="-27375" x2="-31705" x1="-30723" fill="none"/><line y2="-28025" y1="-27594" x2="-31494" x1="-30758" fill="none"/><line y2="-29096" y1="-27950" x2="-31705" x1="-31705" fill="none"/><line y2="-26329" y1="-27375" x2="-30723" x1="-30723" fill="none"/><line y2="-29449" y1="-29033" x2="-32459" x1="-31740" fill="none"/><line y2="-29570" y1="-29157" x2="-32390" x1="-31670" fill="none"/><polygon stroke-width="1" stroke="none" points=" -23238 -30668 -23168 -29619 -23307 -29619"/><polygon stroke-width="1" points=" -23238 -30668 -23168 -29619 -23307 -29619" fill="none"/><line y2="-32240" y1="-32237" x2="-25893" x1="-26028" fill="none"/><line y2="-32023" y1="-32021" x2="-25907" x1="-26014" fill="none"/><line y2="-31806" y1="-31804" x2="-25920" x1="-25999" fill="none"/><line y2="-31589" y1="-31588" x2="-25934" x1="-25985" fill="none"/><line y2="-31372" y1="-31372" x2="-25948" x1="-25971" fill="none"/><text y="-29440" xml:space="preserve" x="-21577" stroke="none" font-size="433.3333" font-family="sans-serif">O</text><text y="-31012" xml:space="preserve" x="-22484" stroke="none" font-size="433.3333" font-family="sans-serif">NH</text><text y="-31012" xml:space="preserve" x="-20670" stroke="none" font-size="433.3333" font-family="sans-serif">O</text><text y="-30489" xml:space="preserve" x="-25205" stroke="none" font-size="433.3333" font-family="sans-serif">NH</text><text y="-32060" xml:space="preserve" x="-24298" stroke="none" font-size="433.3333" font-family="sans-serif">O</text><text y="-29440" xml:space="preserve" x="-27019" stroke="none" font-size="433.3333" font-family="sans-serif">NH</text><text y="-31012" xml:space="preserve" x="-27926" stroke="none" font-size="433.3333" font-family="sans-serif">O</text><text y="-32060" xml:space="preserve" x="-29741" stroke="none" font-size="433.3333" font-family="sans-serif">NH</text><text y="-31971" xml:space="preserve" x="-29163" stroke="none" font-size="313.3333" font-family="sans-serif">2</text><text y="-29440" xml:space="preserve" x="-32762" stroke="none" font-size="433.3333" font-family="sans-serif">O</text><text y="-29489" xml:space="preserve" x="-30873" stroke="none" font-size="433.3333" font-family="sans-serif">O</text><text y="-30789" xml:space="preserve" x="-23391" stroke="none" font-style="italic" font-size="313.3333" font-family="sans-serif">S</text><text y="-30708" xml:space="preserve" x="-26112" stroke="none" font-style="italic" font-size="313.3333" font-family="sans-serif">S</text></g></g></svg>