<svg width="149.67" viewBox="0 0 4989 3329" text-rendering="auto" stroke-width="1" stroke-opacity="1" stroke-miterlimit="10" stroke-linejoin="miter" stroke-linecap="square" stroke-dashoffset="0" stroke-dasharray="none" stroke="black" shape-rendering="auto" image-rendering="auto" height="99.87" font-weight="normal" font-style="normal" font-size="12" font-family="'Dialog'" fill-opacity="1" fill="black" color-rendering="auto" color-interpolation="auto" xmlns="http://www.w3.org/2000/svg"><g><g stroke="white" fill="white"><rect y="0" x="0" width="4989" stroke="none" height="3329"/></g><g transform="translate(32866,32758)" text-rendering="geometricPrecision" stroke-width="44" stroke-linejoin="round" stroke-linecap="round"><line y2="-30850" y1="-31376" x2="-28888" x1="-29796" fill="none"/><line y2="-30850" y1="-31376" x2="-30703" x1="-29796" fill="none"/><line y2="-32202" y1="-31376" x2="-29796" x1="-29796" fill="none"/><line y2="-31376" y1="-30850" x2="-27981" x1="-28888" fill="none"/><line y2="-30024" y1="-30850" x2="-28819" x1="-28819" fill="none"/><line y2="-30024" y1="-30850" x2="-28961" x1="-28961" fill="none"/><line y2="-31266" y1="-30850" x2="-31422" x1="-30703" fill="none"/><line y2="-31018" y1="-31266" x2="-32228" x1="-31800" fill="none"/><line y2="-30024" y1="-30850" x2="-30633" x1="-30633" fill="none"/><line y2="-30024" y1="-30850" x2="-30775" x1="-30775" fill="none"/><text y="-32242" xml:space="preserve" x="-30030" stroke="none" font-size="433.3333" font-family="sans-serif">Cl</text><text y="-31197" xml:space="preserve" x="-31763" stroke="none" font-size="433.3333" font-family="sans-serif">O</text><text y="-29625" xml:space="preserve" x="-30856" stroke="none" font-size="433.3333" font-family="sans-serif">O</text><text y="-29625" xml:space="preserve" x="-29042" stroke="none" font-size="433.3333" font-family="sans-serif">O</text><text y="-30619" xml:space="preserve" x="-32762" stroke="none" font-size="433.3333" font-family="sans-serif">CH</text><text y="-30529" xml:space="preserve" x="-32185" stroke="none" font-size="313.3333" font-family="sans-serif">3</text></g></g></svg>