<svg width="228.6" viewBox="0 0 7620 4947" text-rendering="auto" stroke-width="1" stroke-opacity="1" stroke-miterlimit="10" stroke-linejoin="miter" stroke-linecap="square" stroke-dashoffset="0" stroke-dasharray="none" stroke="black" shape-rendering="auto" image-rendering="auto" height="148.41" font-weight="normal" font-style="normal" font-size="12" font-family="'Dialog'" fill-opacity="1" fill="black" color-rendering="auto" color-interpolation="auto" xmlns="http://www.w3.org/2000/svg"><g><g stroke="white" fill="white"><rect y="0" x="0" width="7620" stroke="none" height="4947"/></g><g transform="translate(32866,32758)" text-rendering="geometricPrecision" stroke-width="44" stroke-linejoin="round" stroke-linecap="round"><line y2="-30807" y1="-31376" x2="-30792" x1="-31777" fill="none"/><line y2="-30729" y1="-31156" x2="-31000" x1="-31737" fill="none"/><line y2="-29668" y1="-30807" x2="-30792" x1="-30792" fill="none"/><line y2="-31376" y1="-30807" x2="-31777" x1="-32762" fill="none"/><line y2="-29099" y1="-29668" x2="-31777" x1="-30792" fill="none"/><line y2="-29319" y1="-29744" x2="-31737" x1="-31000" fill="none"/><line y2="-30807" y1="-29668" x2="-32762" x1="-32762" fill="none"/><line y2="-30665" y1="-29810" x2="-32592" x1="-32592" fill="none"/><line y2="-29668" y1="-29099" x2="-32762" x1="-31777" fill="none"/><line y2="-31330" y1="-30807" x2="-29885" x1="-30792" fill="none"/><line y2="-30807" y1="-31330" x2="-28978" x1="-29885" fill="none"/><line y2="-32202" y1="-31376" x2="-31777" x1="-31777" fill="none"/><line y2="-31330" y1="-30807" x2="-28071" x1="-28978" fill="none"/><line y2="-29235" y1="-29538" x2="-28071" x1="-28600" fill="none"/><line y2="-30914" y1="-31330" x2="-27352" x1="-28071" fill="none"/><line y2="-32159" y1="-31330" x2="-28140" x1="-28140" fill="none"/><line y2="-32159" y1="-31330" x2="-28002" x1="-28002" fill="none"/><line y2="-29651" y1="-29235" x2="-27352" x1="-28071" fill="none"/><line y2="-29235" y1="-29651" x2="-26257" x1="-26976" fill="none"/><line y2="-28406" y1="-29235" x2="-28002" x1="-28002" fill="none"/><line y2="-28406" y1="-29235" x2="-28140" x1="-28140" fill="none"/><line y2="-29758" y1="-29235" x2="-25350" x1="-26257" fill="none"/><line y2="-28328" y1="-29235" x2="-25734" x1="-26257" fill="none"/><line y2="-28328" y1="-29235" x2="-26780" x1="-26257" fill="none"/><line y2="-29978" y1="-29978" x2="-29047" x1="-28909" fill="none"/><line y2="-30195" y1="-30195" x2="-29029" x1="-28927" fill="none"/><line y2="-30411" y1="-30411" x2="-29011" x1="-28945" fill="none"/><line y2="-30628" y1="-30628" x2="-28993" x1="-28963" fill="none"/><text y="-29579" xml:space="preserve" x="-29131" stroke="none" font-size="433.3333" font-family="sans-serif">NH</text><text y="-30628" xml:space="preserve" x="-27317" stroke="none" font-size="433.3333" font-family="sans-serif">OH</text><text y="-32199" xml:space="preserve" x="-28224" stroke="none" font-size="433.3333" font-family="sans-serif">O</text><text y="-29579" xml:space="preserve" x="-27317" stroke="none" font-size="433.3333" font-family="sans-serif">O</text><text y="-28007" xml:space="preserve" x="-28224" stroke="none" font-size="433.3333" font-family="sans-serif">O</text><text y="-32242" xml:space="preserve" x="-31928" stroke="none" font-size="433.3333" font-family="sans-serif">I</text><text y="-30928" xml:space="preserve" x="-29131" stroke="none" font-style="italic" font-size="313.3333" font-family="sans-serif">R</text></g></g></svg>