<svg width="183.51" viewBox="0 0 6117 8143" text-rendering="auto" stroke-width="1" stroke-opacity="1" stroke-miterlimit="10" stroke-linejoin="miter" stroke-linecap="square" stroke-dashoffset="0" stroke-dasharray="none" stroke="black" shape-rendering="auto" image-rendering="auto" height="244.29" font-weight="normal" font-style="normal" font-size="12" font-family="'Dialog'" fill-opacity="1" fill="black" color-rendering="auto" color-interpolation="auto" xmlns="http://www.w3.org/2000/svg"><g><g stroke="white" fill="white"><rect y="0" x="0" width="6117" stroke="none" height="8143"/></g><g transform="translate(32866,32866)" text-rendering="geometricPrecision" stroke-width="44" stroke-linejoin="round" stroke-linecap="round"><line y2="-26817" y1="-26245" x2="-31298" x1="-30316" fill="none"/><line y2="-26817" y1="-26245" x2="-29333" x1="-30316" fill="none"/><line y2="-25318" y1="-26245" x2="-30316" x1="-30316" fill="none"/><line y2="-27770" y1="-26817" x2="-30905" x1="-31298" fill="none"/><line y2="-26817" y1="-26245" x2="-31298" x1="-32280" fill="none"/><line y2="-26817" y1="-27990" x2="-29333" x1="-29666" fill="none"/><line y2="-26245" y1="-26817" x2="-28351" x1="-29333" fill="none"/><line y2="-26170" y1="-26600" x2="-28559" x1="-29299" fill="none"/><line y2="-25098" y1="-25098" x2="-30128" x1="-28351" fill="none"/><line y2="-25098" y1="-25098" x2="-32280" x1="-30503" fill="none"/><line y2="-28972" y1="-28210" x2="-31384" x1="-30940" fill="none"/><line y2="-26245" y1="-25098" x2="-32280" x1="-32280" fill="none"/><line y2="-27990" y1="-28753" x2="-29666" x1="-29221" fill="none"/><line y2="-25098" y1="-26245" x2="-28351" x1="-28351" fill="none"/><line y2="-29954" y1="-28972" x2="-30812" x1="-31384" fill="none"/><line y2="-29192" y1="-29954" x2="-29221" x1="-29666" fill="none"/><line y2="-31018" y1="-29954" x2="-31139" x1="-30812" fill="none"/><line y2="-29954" y1="-31018" x2="-29666" x1="-29299" fill="none"/><line y2="-31714" y1="-31018" x2="-30200" x1="-31139" fill="none"/><line y2="-31018" y1="-31714" x2="-29299" x1="-30200" fill="none"/><line y2="-30044" y1="-29954" x2="-31855" x1="-30812" fill="none"/><line y2="-29897" y1="-29827" x2="-31737" x1="-30954" fill="none"/><line y2="-30853" y1="-31018" x2="-28264" x1="-29299" fill="none"/><line y2="-31269" y1="-30853" x2="-27545" x1="-28264" fill="none"/><line y2="-28903" y1="-28903" x2="-32245" x1="-31384" fill="none"/><line y2="-29042" y1="-29042" x2="-32245" x1="-31384" fill="none"/><line y2="-30099" y1="-30027" x2="-28816" x1="-29640" fill="none"/><line y2="-29960" y1="-29888" x2="-28805" x1="-29625" fill="none"/><line y2="-29521" y1="-30044" x2="-32762" x1="-31855" fill="none"/><polygon stroke-width="1" stroke="none" points=" -30200 -31714 -30269 -32762 -30131 -32762"/><polygon stroke-width="1" points=" -30200 -31714 -30269 -32762 -30131 -32762" fill="none"/><polygon stroke-width="1" stroke="none" points=" -29299 -31018 -29085 -31806 -28955 -31760"/><polygon stroke-width="1" points=" -29299 -31018 -29085 -31806 -28955 -31760" fill="none"/><line y2="-27074" y1="-27071" x2="-30246" x1="-30385" fill="none"/><line y2="-26857" y1="-26855" x2="-30264" x1="-30367" fill="none"/><line y2="-26640" y1="-26638" x2="-30283" x1="-30349" fill="none"/><line y2="-26423" y1="-26422" x2="-30301" x1="-30331" fill="none"/><line y2="-27386" y1="-27282" x2="-31870" x1="-31956" fill="none"/><line y2="-27233" y1="-27157" x2="-31716" x1="-31779" fill="none"/><line y2="-27079" y1="-27031" x2="-31561" x1="-31601" fill="none"/><line y2="-26926" y1="-26906" x2="-31407" x1="-31424" fill="none"/><text y="-28793" xml:space="preserve" x="-32586" stroke="none" font-size="433.3333" font-family="sans-serif">O</text><text y="-29865" xml:space="preserve" x="-28776" stroke="none" font-size="433.3333" font-family="sans-serif">O</text><text y="-31200" xml:space="preserve" x="-27508" stroke="none" font-size="433.3333" font-family="sans-serif">OH</text><text y="-31824" xml:space="preserve" x="-29094" stroke="none" font-size="433.3333" font-family="sans-serif">OH</text><text y="-24919" xml:space="preserve" x="-30469" stroke="none" font-size="433.3333" font-family="sans-serif">N</text><text y="-27811" xml:space="preserve" x="-30966" stroke="none" font-size="433.3333" font-family="sans-serif">O</text><text y="-28793" xml:space="preserve" x="-29247" stroke="none" font-size="433.3333" font-family="sans-serif">O</text><text y="-27115" xml:space="preserve" x="-30469" stroke="none" font-size="433.3333" font-family="sans-serif">H</text><text y="-27314" xml:space="preserve" x="-32254" stroke="none" font-size="433.3333" font-family="sans-serif">H</text><text y="-29345" xml:space="preserve" x="-31529" stroke="none" font-style="italic" font-size="313.3333" font-family="sans-serif">Z</text><text y="-25922" xml:space="preserve" x="-30220" stroke="none" font-style="italic" font-size="313.3333" font-family="sans-serif">R</text><text y="-26338" xml:space="preserve" x="-31451" stroke="none" font-style="italic" font-size="313.3333" font-family="sans-serif">R</text><text y="-30740" xml:space="preserve" x="-29720" stroke="none" font-style="italic" font-size="313.3333" font-family="sans-serif">S</text><text y="-31234" xml:space="preserve" x="-30350" stroke="none" font-style="italic" font-size="313.3333" font-family="sans-serif">R</text></g></g></svg>