<svg width="284.49" viewBox="0 0 9483 5706" text-rendering="auto" stroke-width="1" stroke-opacity="1" stroke-miterlimit="10" stroke-linejoin="miter" stroke-linecap="square" stroke-dashoffset="0" stroke-dasharray="none" stroke="black" shape-rendering="auto" image-rendering="auto" height="171.18" font-weight="normal" font-style="normal" font-size="12" font-family="'Dialog'" fill-opacity="1" fill="black" color-rendering="auto" color-interpolation="auto" xmlns="http://www.w3.org/2000/svg"><g><g stroke="white" fill="white"><rect y="0" x="0" width="9483" stroke="none" height="5706"/></g><g transform="translate(32866,32758)" text-rendering="geometricPrecision" stroke-width="44" stroke-linejoin="round" stroke-linecap="round"><line y2="-31850" y1="-30703" x2="-29741" x1="-29741" fill="none"/><line y2="-30703" y1="-30131" x2="-29741" x1="-28758" fill="none"/><line y2="-30131" y1="-30703" x2="-30723" x1="-29741" fill="none"/><line y2="-30347" y1="-30778" x2="-30685" x1="-29949" fill="none"/><line y2="-32312" y1="-31850" x2="-28946" x1="-29741" fill="none"/><line y2="-31850" y1="-32422" x2="-29741" x1="-30723" fill="none"/><line y2="-31774" y1="-32205" x2="-29949" x1="-30685" fill="none"/><line y2="-30131" y1="-30703" x2="-28758" x1="-27773" fill="none"/><line y2="-30703" y1="-30131" x2="-31705" x1="-30723" fill="none"/><line y2="-31850" y1="-32312" x2="-27773" x1="-28568" fill="none"/><line y2="-32422" y1="-31850" x2="-30723" x1="-31705" fill="none"/><line y2="-30703" y1="-31850" x2="-27773" x1="-27773" fill="none"/><line y2="-30847" y1="-31705" x2="-27944" x1="-27944" fill="none"/><line y2="-31850" y1="-30703" x2="-31705" x1="-31705" fill="none"/><line y2="-31705" y1="-30847" x2="-31535" x1="-31535" fill="none"/><line y2="-30180" y1="-30703" x2="-26866" x1="-27773" fill="none"/><line y2="-29302" y1="-30131" x2="-30723" x1="-30723" fill="none"/><line y2="-32153" y1="-31850" x2="-32231" x1="-31705" fill="none"/><line y2="-29302" y1="-30131" x2="-28686" x1="-28686" fill="none"/><line y2="-29302" y1="-30131" x2="-28828" x1="-28828" fill="none"/><line y2="-30180" y1="-29042" x2="-26866" x1="-26866" fill="none"/><line y2="-30038" y1="-29183" x2="-26699" x1="-26699" fill="none"/><line y2="-30749" y1="-30180" x2="-25881" x1="-26866" fill="none"/><line y2="-29042" y1="-28472" x2="-26866" x1="-25881" fill="none"/><line y2="-30180" y1="-30749" x2="-24896" x1="-25881" fill="none"/><line y2="-30102" y1="-30529" x2="-25104" x1="-25844" fill="none"/><line y2="-28472" y1="-29042" x2="-25881" x1="-24896" fill="none"/><line y2="-28692" y1="-29117" x2="-25844" x1="-25104" fill="none"/><line y2="-29042" y1="-30180" x2="-24896" x1="-24896" fill="none"/><line y2="-27646" y1="-28472" x2="-25881" x1="-25881" fill="none"/><line y2="-28626" y1="-29042" x2="-24177" x1="-24896" fill="none"/><text y="-28903" xml:space="preserve" x="-28909" stroke="none" font-size="433.3333" font-family="sans-serif">O</text><text y="-28903" xml:space="preserve" x="-30873" stroke="none" font-size="433.3333" font-family="sans-serif">OH</text><text y="-32193" xml:space="preserve" x="-32762" stroke="none" font-size="433.3333" font-family="sans-serif">OH</text><text y="-27248" xml:space="preserve" x="-26034" stroke="none" font-size="433.3333" font-family="sans-serif">OH</text><text y="-28340" xml:space="preserve" x="-24142" stroke="none" font-size="433.3333" font-family="sans-serif">OH</text><text y="-32242" xml:space="preserve" x="-28909" stroke="none" font-size="433.3333" font-family="sans-serif">O</text></g></g></svg>