<svg width="317.52" viewBox="0 0 10584 4639" text-rendering="auto" stroke-width="1" stroke-opacity="1" stroke-miterlimit="10" stroke-linejoin="miter" stroke-linecap="square" stroke-dashoffset="0" stroke-dasharray="none" stroke="black" shape-rendering="auto" image-rendering="auto" height="139.17" font-weight="normal" font-style="normal" font-size="12" font-family="'Dialog'" fill-opacity="1" fill="black" color-rendering="auto" color-interpolation="auto" xmlns="http://www.w3.org/2000/svg"><g><g stroke="white" fill="white"><rect y="0" x="0" width="10584" stroke="none" height="4639"/></g><g transform="translate(32866,32866)" text-rendering="geometricPrecision" stroke-width="44" stroke-linejoin="round" stroke-linecap="round"><line y2="-29593" y1="-30313" x2="-30125" x1="-29876" fill="none"/><line y2="-30677" y1="-31145" x2="-29986" x1="-30593" fill="none"/><line y2="-29374" y1="-29374" x2="-31448" x1="-30388" fill="none"/><line y2="-31150" y1="-30532" x2="-30968" x1="-31803" fill="none"/><line y2="-30532" y1="-29374" x2="-31803" x1="-31448" fill="none"/><line y2="-31055" y1="-30642" x2="-28891" x1="-29611" fill="none"/><line y2="-28331" y1="-29374" x2="-31338" x1="-31448" fill="none"/><line y2="-29157" y1="-29374" x2="-32474" x1="-31448" fill="none"/><line y2="-30108" y1="-30532" x2="-32762" x1="-31803" fill="none"/><line y2="-31439" y1="-30532" x2="-32329" x1="-31803" fill="none"/><line y2="-31055" y1="-30489" x2="-28891" x1="-27909" fill="none"/><line y2="-31133" y1="-30706" x2="-28683" x1="-27947" fill="none"/><line y2="-32193" y1="-31055" x2="-28891" x1="-28891" fill="none"/><line y2="-30489" y1="-31055" x2="-27909" x1="-26921" fill="none"/><line y2="-32762" y1="-32193" x2="-27909" x1="-28891" fill="none"/><line y2="-32546" y1="-32118" x2="-27947" x1="-28683" fill="none"/><line y2="-31055" y1="-32193" x2="-26921" x1="-26921" fill="none"/><line y2="-31200" y1="-32052" x2="-27092" x1="-27092" fill="none"/><line y2="-32193" y1="-32762" x2="-26921" x1="-27909" fill="none"/><line y2="-30642" y1="-31055" x2="-26202" x1="-26921" fill="none"/><line y2="-31055" y1="-30642" x2="-25107" x1="-25826" fill="none"/><line y2="-30642" y1="-31055" x2="-24388" x1="-25107" fill="none"/><line y2="-31055" y1="-30642" x2="-23293" x1="-24012" fill="none"/><line y2="-31884" y1="-31055" x2="-25176" x1="-25176" fill="none"/><line y2="-31884" y1="-31055" x2="-25038" x1="-25038" fill="none"/><line y2="-30532" y1="-31055" x2="-22386" x1="-23293" fill="none"/><line y2="-31962" y1="-31055" x2="-22770" x1="-23293" fill="none"/><line y2="-31962" y1="-31055" x2="-23818" x1="-23293" fill="none"/><text y="-30353" xml:space="preserve" x="-26167" stroke="none" font-size="433.3333" font-family="sans-serif">O</text><text y="-30353" xml:space="preserve" x="-24353" stroke="none" font-size="433.3333" font-family="sans-serif">O</text><text y="-31925" xml:space="preserve" x="-25260" stroke="none" font-size="433.3333" font-family="sans-serif">O</text><text y="-30353" xml:space="preserve" x="-29952" stroke="none" font-size="433.3333" font-family="sans-serif">B</text><text y="-29195" xml:space="preserve" x="-30353" stroke="none" font-size="433.3333" font-family="sans-serif">O</text><text y="-31110" xml:space="preserve" x="-30934" stroke="none" font-size="433.3333" font-family="sans-serif">O</text></g></g></svg>