<svg width="284.91" viewBox="0 0 9497 5080" text-rendering="auto" stroke-width="1" stroke-opacity="1" stroke-miterlimit="10" stroke-linejoin="miter" stroke-linecap="square" stroke-dashoffset="0" stroke-dasharray="none" stroke="black" shape-rendering="auto" image-rendering="auto" height="152.4" font-weight="normal" font-style="normal" font-size="12" font-family="'Dialog'" fill-opacity="1" fill="black" color-rendering="auto" color-interpolation="auto" xmlns="http://www.w3.org/2000/svg"><g><g stroke="white" fill="white"><rect y="0" x="0" width="9497" stroke="none" height="5080"/></g><g transform="translate(32866,32758)" text-rendering="geometricPrecision" stroke-width="44" stroke-linejoin="round" stroke-linecap="round"><line y2="-29668" y1="-30807" x2="-27762" x1="-27762" fill="none"/><line y2="-30807" y1="-31376" x2="-27762" x1="-28744" fill="none"/><line y2="-31376" y1="-30807" x2="-26774" x1="-27762" fill="none"/><line y2="-31156" y1="-30729" x2="-26811" x1="-27551" fill="none"/><line y2="-29099" y1="-29668" x2="-28744" x1="-27762" fill="none"/><line y2="-29668" y1="-29099" x2="-27762" x1="-26774" fill="none"/><line y2="-29746" y1="-29319" x2="-27551" x1="-26811" fill="none"/><line y2="-31376" y1="-30807" x2="-28744" x1="-29732" fill="none"/><line y2="-30807" y1="-31376" x2="-25789" x1="-26774" fill="none"/><line y2="-29668" y1="-29099" x2="-29732" x1="-28744" fill="none"/><line y2="-29099" y1="-29668" x2="-26774" x1="-25789" fill="none"/><line y2="-29668" y1="-30807" x2="-29732" x1="-29732" fill="none"/><line y2="-30807" y1="-31376" x2="-29732" x1="-30714" fill="none"/><line y2="-30729" y1="-31156" x2="-29940" x1="-30677" fill="none"/><line y2="-29668" y1="-30807" x2="-25789" x1="-25789" fill="none"/><line y2="-29810" y1="-30665" x2="-25959" x1="-25959" fill="none"/><line y2="-29099" y1="-29668" x2="-30714" x1="-29732" fill="none"/><line y2="-29319" y1="-29744" x2="-30677" x1="-29940" fill="none"/><line y2="-31376" y1="-30807" x2="-30714" x1="-31702" fill="none"/><line y2="-29668" y1="-29099" x2="-31702" x1="-30714" fill="none"/><line y2="-30807" y1="-29668" x2="-31702" x1="-31702" fill="none"/><line y2="-30665" y1="-29810" x2="-31532" x1="-31532" fill="none"/><line y2="-31330" y1="-30807" x2="-24882" x1="-25789" fill="none"/><line y2="-30914" y1="-31330" x2="-24162" x1="-24882" fill="none"/><line y2="-28273" y1="-29099" x2="-26774" x1="-26774" fill="none"/><line y2="-28273" y1="-29099" x2="-30714" x1="-30714" fill="none"/><line y2="-31110" y1="-30807" x2="-32228" x1="-31702" fill="none"/><line y2="-32202" y1="-31376" x2="-28813" x1="-28813" fill="none"/><line y2="-32202" y1="-31376" x2="-28675" x1="-28675" fill="none"/><line y2="-28273" y1="-29099" x2="-28675" x1="-28675" fill="none"/><line y2="-28273" y1="-29099" x2="-28813" x1="-28813" fill="none"/><text y="-32242" xml:space="preserve" x="-28897" stroke="none" font-size="433.3333" font-family="sans-serif">O</text><text y="-27874" xml:space="preserve" x="-28897" stroke="none" font-size="433.3333" font-family="sans-serif">O</text><text y="-27874" xml:space="preserve" x="-26924" stroke="none" font-size="433.3333" font-family="sans-serif">OH</text><text y="-30628" xml:space="preserve" x="-24128" stroke="none" font-size="433.3333" font-family="sans-serif">OH</text><text y="-27874" xml:space="preserve" x="-30867" stroke="none" font-size="433.3333" font-family="sans-serif">OH</text><text y="-31150" xml:space="preserve" x="-32762" stroke="none" font-size="433.3333" font-family="sans-serif">OH</text></g></g></svg>