<svg width="344.46" viewBox="0 0 11482 5835" text-rendering="auto" stroke-width="1" stroke-opacity="1" stroke-miterlimit="10" stroke-linejoin="miter" stroke-linecap="square" stroke-dashoffset="0" stroke-dasharray="none" stroke="black" shape-rendering="auto" image-rendering="auto" height="175.05" font-weight="normal" font-style="normal" font-size="12" font-family="'Dialog'" fill-opacity="1" fill="black" color-rendering="auto" color-interpolation="auto" xmlns="http://www.w3.org/2000/svg"><g><g stroke="white" fill="white"><rect y="0" x="0" width="11482" stroke="none" height="5835"/></g><g transform="translate(32866,32758)" text-rendering="geometricPrecision" stroke-width="44" stroke-linejoin="round" stroke-linecap="round"><line y2="-30131" y1="-30703" x2="-24619" x1="-23636" fill="none"/><line y2="-30703" y1="-30131" x2="-25604" x1="-24619" fill="none"/><line y2="-30778" y1="-30347" x2="-25393" x1="-24656" fill="none"/><line y2="-28984" y1="-30131" x2="-24619" x1="-24619" fill="none"/><line y2="-30703" y1="-31850" x2="-23636" x1="-23636" fill="none"/><line y2="-30847" y1="-31705" x2="-23807" x1="-23807" fill="none"/><line y2="-30703" y1="-30703" x2="-23636" x1="-21860" fill="none"/><line y2="-30703" y1="-30131" x2="-25604" x1="-26586" fill="none"/><line y2="-31850" y1="-30703" x2="-25604" x1="-25604" fill="none"/><line y2="-28522" y1="-28984" x2="-25413" x1="-24619" fill="none"/><line y2="-31850" y1="-32422" x2="-23636" x1="-24619" fill="none"/><line y2="-32312" y1="-31850" x2="-22842" x1="-23636" fill="none"/><line y2="-30922" y1="-31850" x2="-21672" x1="-21672" fill="none"/><line y2="-30131" y1="-30703" x2="-26586" x1="-27568" fill="none"/><line y2="-32422" y1="-31850" x2="-24619" x1="-25604" fill="none"/><line y2="-32205" y1="-31774" x2="-24656" x1="-25393" fill="none"/><line y2="-28984" y1="-28522" x2="-26586" x1="-25792" fill="none"/><line y2="-31850" y1="-32312" x2="-21672" x1="-22466" fill="none"/><line y2="-30703" y1="-30131" x2="-27568" x1="-28550" fill="none"/><line y2="-28412" y1="-28984" x2="-27568" x1="-26586" fill="none"/><line y2="-28984" y1="-30131" x2="-28550" x1="-28550" fill="none"/><line y2="-30131" y1="-30703" x2="-28550" x1="-29533" fill="none"/><line y2="-30056" y1="-30486" x2="-28758" x1="-29495" fill="none"/><line y2="-28984" y1="-28412" x2="-28550" x1="-27568" fill="none"/><line y2="-28412" y1="-28984" x2="-29533" x1="-28550" fill="none"/><line y2="-28628" y1="-29059" x2="-29495" x1="-28758" fill="none"/><line y2="-30703" y1="-30131" x2="-29533" x1="-30515" fill="none"/><line y2="-28984" y1="-28412" x2="-30515" x1="-29533" fill="none"/><line y2="-30131" y1="-28984" x2="-30515" x1="-30515" fill="none"/><line y2="-29986" y1="-29128" x2="-30344" x1="-30344" fill="none"/><line y2="-27583" y1="-28192" x2="-25604" x1="-25604" fill="none"/><line y2="-30547" y1="-30131" x2="-31234" x1="-30515" fill="none"/><line y2="-30298" y1="-30547" x2="-32040" x1="-31610" fill="none"/><line y2="-28568" y1="-28984" x2="-31234" x1="-30515" fill="none"/><line y2="-28816" y1="-28568" x2="-32040" x1="-31610" fill="none"/><line y2="-31532" y1="-30703" x2="-27638" x1="-27638" fill="none"/><line y2="-31532" y1="-30703" x2="-27499" x1="-27499" fill="none"/><text y="-27184" xml:space="preserve" x="-25754" stroke="none" font-size="433.3333" font-family="sans-serif">CH</text><text y="-27094" xml:space="preserve" x="-25176" stroke="none" font-size="313.3333" font-family="sans-serif">3</text><text y="-31572" xml:space="preserve" x="-27718" stroke="none" font-size="433.3333" font-family="sans-serif">O</text><text y="-30474" xml:space="preserve" x="-31575" stroke="none" font-size="433.3333" font-family="sans-serif">O</text><text y="-29900" xml:space="preserve" x="-32572" stroke="none" font-size="433.3333" font-family="sans-serif">CH</text><text y="-29810" xml:space="preserve" x="-31994" stroke="none" font-size="313.3333" font-family="sans-serif">3</text><text y="-28282" xml:space="preserve" x="-31575" stroke="none" font-size="433.3333" font-family="sans-serif">O</text><text y="-28966" xml:space="preserve" x="-32762" stroke="none" font-size="433.3333" font-family="sans-serif">CH</text><text y="-28877" xml:space="preserve" x="-32185" stroke="none" font-size="313.3333" font-family="sans-serif">3</text><text y="-30524" xml:space="preserve" x="-21825" stroke="none" font-size="433.3333" font-family="sans-serif">O</text><text y="-28233" xml:space="preserve" x="-25754" stroke="none" font-size="433.3333" font-family="sans-serif">N</text><text y="-32242" xml:space="preserve" x="-22807" stroke="none" font-size="433.3333" font-family="sans-serif">O</text></g></g></svg>