<svg width="353.64" viewBox="0 0 11788 7426" text-rendering="auto" stroke-width="1" stroke-opacity="1" stroke-miterlimit="10" stroke-linejoin="miter" stroke-linecap="square" stroke-dashoffset="0" stroke-dasharray="none" stroke="black" shape-rendering="auto" image-rendering="auto" height="222.78" font-weight="normal" font-style="normal" font-size="12" font-family="'Dialog'" fill-opacity="1" fill="black" color-rendering="auto" color-interpolation="auto" xmlns="http://www.w3.org/2000/svg"><g><g stroke="white" fill="white"><rect y="0" x="0" width="11788" stroke="none" height="7426"/></g><g transform="translate(32866,32758)" text-rendering="geometricPrecision" stroke-width="44" stroke-linejoin="round" stroke-linecap="round"><line y2="-29668" y1="-29099" x2="-25586" x1="-26574" fill="none"/><line y2="-28184" y1="-29099" x2="-26574" x1="-26574" fill="none"/><line y2="-29099" y1="-29668" x2="-26574" x1="-27557" fill="none"/><line y2="-29099" y1="-29668" x2="-24604" x1="-25586" fill="none"/><line y2="-30807" y1="-29668" x2="-25586" x1="-25586" fill="none"/><line y2="-30665" y1="-29810" x2="-25416" x1="-25416" fill="none"/><line y2="-27395" y1="-27854" x2="-27557" x1="-26762" fill="none"/><line y2="-27854" y1="-27395" x2="-26387" x1="-25586" fill="none"/><line y2="-29668" y1="-29099" x2="-27557" x1="-28545" fill="none"/><line y2="-29099" y1="-29668" x2="-24604" x1="-23622" fill="none"/><line y2="-29319" y1="-29744" x2="-24567" x1="-23827" fill="none"/><line y2="-27964" y1="-29099" x2="-24604" x1="-24604" fill="none"/><line y2="-31376" y1="-30807" x2="-24604" x1="-25586" fill="none"/><line y2="-27964" y1="-27395" x2="-28545" x1="-27557" fill="none"/><line y2="-27395" y1="-27964" x2="-25586" x1="-24604" fill="none"/><line y2="-27964" y1="-29099" x2="-28545" x1="-28545" fill="none"/><line y2="-29099" y1="-29668" x2="-28545" x1="-29530" fill="none"/><line y2="-29024" y1="-29452" x2="-28753" x1="-29492" fill="none"/><line y2="-29668" y1="-30807" x2="-23622" x1="-23622" fill="none"/><line y2="-30807" y1="-31376" x2="-23622" x1="-24604" fill="none"/><line y2="-30729" y1="-31156" x2="-23827" x1="-24567" fill="none"/><line y2="-27395" y1="-27964" x2="-29530" x1="-28545" fill="none"/><line y2="-27612" y1="-28039" x2="-29492" x1="-28753" fill="none"/><line y2="-29668" y1="-29099" x2="-29530" x1="-30515" fill="none"/><line y2="-27964" y1="-27395" x2="-30515" x1="-29530" fill="none"/><line y2="-29099" y1="-27964" x2="-30515" x1="-30515" fill="none"/><line y2="-28958" y1="-28106" x2="-30344" x1="-30344" fill="none"/><line y2="-31223" y1="-30807" x2="-22903" x1="-23622" fill="none"/><line y2="-30914" y1="-31223" x2="-21996" x1="-22524" fill="none"/><line y2="-26566" y1="-27395" x2="-29530" x1="-29530" fill="none"/><line y2="-25991" y1="-26239" x2="-30148" x1="-29718" fill="none"/><line y2="-27548" y1="-27964" x2="-31234" x1="-30515" fill="none"/><line y2="-27796" y1="-27548" x2="-32040" x1="-31610" fill="none"/><line y2="-32202" y1="-31376" x2="-24604" x1="-24604" fill="none"/><line y2="-29928" y1="-29928" x2="-26505" x1="-26644" fill="none"/><line y2="-29711" y1="-29711" x2="-26523" x1="-26626" fill="none"/><line y2="-29495" y1="-29495" x2="-26541" x1="-26607" fill="none"/><line y2="-29278" y1="-29278" x2="-26559" x1="-26589" fill="none"/><text y="-32242" xml:space="preserve" x="-24757" stroke="none" font-size="433.3333" font-family="sans-serif">OH</text><text y="-31150" xml:space="preserve" x="-22865" stroke="none" font-size="433.3333" font-family="sans-serif">O</text><text y="-30628" xml:space="preserve" x="-21958" stroke="none" font-size="433.3333" font-family="sans-serif">CH</text><text y="-30538" xml:space="preserve" x="-21380" stroke="none" font-size="313.3333" font-family="sans-serif">3</text><text y="-26167" xml:space="preserve" x="-29680" stroke="none" font-size="433.3333" font-family="sans-serif">O</text><text y="-25592" xml:space="preserve" x="-30680" stroke="none" font-size="433.3333" font-family="sans-serif">CH</text><text y="-25503" xml:space="preserve" x="-30102" stroke="none" font-size="313.3333" font-family="sans-serif">3</text><text y="-27259" xml:space="preserve" x="-31575" stroke="none" font-size="433.3333" font-family="sans-serif">O</text><text y="-27947" xml:space="preserve" x="-32762" stroke="none" font-size="433.3333" font-family="sans-serif">CH</text><text y="-27857" xml:space="preserve" x="-32185" stroke="none" font-size="313.3333" font-family="sans-serif">3</text><text y="-27785" xml:space="preserve" x="-26728" stroke="none" font-size="433.3333" font-family="sans-serif">N</text><text y="-29969" xml:space="preserve" x="-26728" stroke="none" font-size="433.3333" font-family="sans-serif">H</text><text y="-28779" xml:space="preserve" x="-26476" stroke="none" font-style="italic" font-size="313.3333" font-family="sans-serif">S</text></g></g></svg>