<svg width="209.01" viewBox="0 0 6967 4573" text-rendering="auto" stroke-width="1" stroke-opacity="1" stroke-miterlimit="10" stroke-linejoin="miter" stroke-linecap="square" stroke-dashoffset="0" stroke-dasharray="none" stroke="black" shape-rendering="auto" image-rendering="auto" height="137.19" font-weight="normal" font-style="normal" font-size="12" font-family="'Dialog'" fill-opacity="1" fill="black" color-rendering="auto" color-interpolation="auto" xmlns="http://www.w3.org/2000/svg"><g><g stroke="white" fill="white"><rect y="0" x="0" width="6967" stroke="none" height="4573"/></g><g transform="translate(32866,32866)" text-rendering="geometricPrecision" stroke-width="44" stroke-linejoin="round" stroke-linecap="round"><line y2="-30116" y1="-30688" x2="-29059" x1="-30041" fill="none"/><line y2="-30041" y1="-30472" x2="-29267" x1="-30004" fill="none"/><line y2="-28969" y1="-30116" x2="-29059" x1="-29059" fill="none"/><line y2="-30578" y1="-30116" x2="-28264" x1="-29059" fill="none"/><line y2="-30688" y1="-30116" x2="-30041" x1="-31023" fill="none"/><line y2="-28397" y1="-28969" x2="-30041" x1="-29059" fill="none"/><line y2="-28614" y1="-29044" x2="-30004" x1="-29267" fill="none"/><line y2="-28969" y1="-28397" x2="-29059" x1="-28077" fill="none"/><line y2="-30116" y1="-30578" x2="-27094" x1="-27889" fill="none"/><line y2="-30116" y1="-28969" x2="-31023" x1="-31023" fill="none"/><line y2="-29972" y1="-29114" x2="-30853" x1="-30853" fill="none"/><line y2="-28969" y1="-28397" x2="-31023" x1="-30041" fill="none"/><line y2="-28397" y1="-28969" x2="-28077" x1="-27094" fill="none"/><line y2="-28614" y1="-29044" x2="-28039" x1="-27302" fill="none"/><line y2="-28969" y1="-30116" x2="-27094" x1="-27094" fill="none"/><line y2="-32240" y1="-30688" x2="-30041" x1="-30041" fill="none"/><line y2="-32762" y1="-32240" x2="-30948" x1="-30041" fill="none"/><line y2="-32240" y1="-32762" x2="-31855" x1="-30948" fill="none"/><line y2="-32185" y1="-32578" x2="-31670" x1="-30992" fill="none"/><line y2="-30420" y1="-30116" x2="-31552" x1="-31023" fill="none"/><line y2="-30593" y1="-30177" x2="-26410" x1="-27129" fill="none"/><line y2="-30472" y1="-30056" x2="-26340" x1="-27060" fill="none"/><line y2="-32762" y1="-32240" x2="-32762" x1="-31855" fill="none"/><line y2="-31191" y1="-32240" x2="-31855" x1="-31855" fill="none"/><text y="-30460" xml:space="preserve" x="-32084" stroke="none" font-size="433.3333" font-family="sans-serif">OH</text><text y="-30460" xml:space="preserve" x="-26340" stroke="none" font-size="433.3333" font-family="sans-serif">O</text><text y="-30509" xml:space="preserve" x="-28230" stroke="none" font-size="433.3333" font-family="sans-serif">O</text></g></g></svg>