<svg width="243.42" viewBox="0 0 8114 6750" text-rendering="auto" stroke-width="1" stroke-opacity="1" stroke-miterlimit="10" stroke-linejoin="miter" stroke-linecap="square" stroke-dashoffset="0" stroke-dasharray="none" stroke="black" shape-rendering="auto" image-rendering="auto" height="202.5" font-weight="normal" font-style="normal" font-size="12" font-family="'Dialog'" fill-opacity="1" fill="black" color-rendering="auto" color-interpolation="auto" xmlns="http://www.w3.org/2000/svg"><g><g stroke="white" fill="white"><rect y="0" x="0" width="8114" stroke="none" height="6750"/></g><g transform="translate(32866,32758)" text-rendering="geometricPrecision" stroke-width="44" stroke-linejoin="round" stroke-linecap="round"><line y2="-30703" y1="-30131" x2="-30798" x1="-29816" fill="none"/><line y2="-30131" y1="-30703" x2="-29816" x1="-28834" fill="none"/><line y2="-30347" y1="-30778" x2="-29778" x1="-29042" fill="none"/><line y2="-31850" y1="-30703" x2="-30798" x1="-30798" fill="none"/><line y2="-31705" y1="-30847" x2="-30628" x1="-30628" fill="none"/><line y2="-30131" y1="-30703" x2="-31780" x1="-30798" fill="none"/><line y2="-30703" y1="-31850" x2="-28834" x1="-28834" fill="none"/><line y2="-32312" y1="-31850" x2="-30004" x1="-30798" fill="none"/><line y2="-31850" y1="-32422" x2="-30798" x1="-31780" fill="none"/><line y2="-30703" y1="-30131" x2="-32762" x1="-31780" fill="none"/><line y2="-30778" y1="-30347" x2="-32554" x1="-31818" fill="none"/><line y2="-31850" y1="-32312" x2="-28834" x1="-29628" fill="none"/><line y2="-31760" y1="-32107" x2="-29018" x1="-29614" fill="none"/><line y2="-32422" y1="-31850" x2="-31780" x1="-32762" fill="none"/><line y2="-32205" y1="-31774" x2="-31818" x1="-32554" fill="none"/><line y2="-31850" y1="-30703" x2="-32762" x1="-32762" fill="none"/><line y2="-29082" y1="-30131" x2="-29816" x1="-29816" fill="none"/><line y2="-28559" y1="-29082" x2="-28909" x1="-29816" fill="none"/><line y2="-29079" y1="-28559" x2="-28013" x1="-28909" fill="none"/><line y2="-28559" y1="-27294" x2="-28909" x1="-28909" fill="none"/><line y2="-28559" y1="-29079" x2="-26742" x1="-27638" fill="none"/><line y2="-27294" y1="-26661" x2="-28909" x1="-27825" fill="none"/><line y2="-27294" y1="-28559" x2="-26742" x1="-26742" fill="none"/><line y2="-27565" y1="-28244" x2="-28276" x1="-27461" fill="none"/><line y2="-26661" y1="-27294" x2="-27825" x1="-26742" fill="none"/><line y2="-27294" y1="-26771" x2="-24925" x1="-25835" fill="none"/><line y2="-27172" y1="-26650" x2="-24856" x1="-25763" fill="none"/><polygon stroke-width="1" stroke="none" points=" -27742 -28969 -27398 -28267 -27525 -28218"/><polygon stroke-width="1" points=" -27742 -28969 -27398 -28267 -27525 -28218" fill="none"/><polygon stroke-width="1" stroke="none" points=" -27825 -26661 -28340 -27534 -28215 -27594"/><polygon stroke-width="1" points=" -27825 -26661 -28340 -27534 -28215 -27594" fill="none"/><line y2="-28836" y1="-28718" x2="-30379" x1="-30307" fill="none"/><line y2="-28924" y1="-28848" x2="-30179" x1="-30132" fill="none"/><line y2="-29011" y1="-28977" x2="-29978" x1="-29958" fill="none"/><line y2="-26710" y1="-26829" x2="-25867" x1="-25800" fill="none"/><line y2="-26831" y1="-26925" x2="-26048" x1="-25995" fill="none"/><line y2="-26951" y1="-27021" x2="-26228" x1="-26189" fill="none"/><line y2="-27072" y1="-27117" x2="-26409" x1="-26384" fill="none"/><line y2="-27192" y1="-27213" x2="-26590" x1="-26578" fill="none"/><line y2="-29385" y1="-29385" x2="-28839" x1="-28978" fill="none"/><line y2="-29168" y1="-29168" x2="-28857" x1="-28960" fill="none"/><line y2="-28952" y1="-28952" x2="-28876" x1="-28942" fill="none"/><line y2="-28735" y1="-28735" x2="-28894" x1="-28924" fill="none"/><text y="-28380" xml:space="preserve" x="-30876" stroke="none" font-size="433.3333" font-family="sans-serif">OH</text><text y="-29010" xml:space="preserve" x="-27978" stroke="none" font-size="433.3333" font-family="sans-serif">N</text><text y="-32242" xml:space="preserve" x="-29969" stroke="none" font-size="433.3333" font-family="sans-serif">N</text><text y="-29426" xml:space="preserve" x="-29062" stroke="none" font-size="433.3333" font-family="sans-serif">H</text><text y="-29047" xml:space="preserve" x="-29720" stroke="none" font-style="italic" font-size="313.3333" font-family="sans-serif">R</text><text y="-28236" xml:space="preserve" x="-28813" stroke="none" font-style="italic" font-size="313.3333" font-family="sans-serif">S</text><text y="-29423" xml:space="preserve" x="-27869" stroke="none" font-style="italic" font-size="313.3333" font-family="sans-serif">S</text><text y="-26179" xml:space="preserve" x="-27978" stroke="none" font-style="italic" font-size="313.3333" font-family="sans-serif">S</text><text y="-27259" xml:space="preserve" x="-27141" stroke="none" font-style="italic" font-size="313.3333" font-family="sans-serif">R</text></g></g></svg>