<svg width="139.41" viewBox="0 0 4647 3988" text-rendering="auto" stroke-width="1" stroke-opacity="1" stroke-miterlimit="10" stroke-linejoin="miter" stroke-linecap="square" stroke-dashoffset="0" stroke-dasharray="none" stroke="black" shape-rendering="auto" image-rendering="auto" height="119.64" font-weight="normal" font-style="normal" font-size="12" font-family="'Dialog'" fill-opacity="1" fill="black" color-rendering="auto" color-interpolation="auto" xmlns="http://www.w3.org/2000/svg"><g><g stroke="white" fill="white"><rect y="0" x="0" width="4647" stroke="none" height="3988"/></g><g transform="translate(32866,32758)" text-rendering="geometricPrecision" stroke-width="44" stroke-linejoin="round" stroke-linecap="round"><line y2="-30807" y1="-31376" x2="-29735" x1="-30717" fill="none"/><line y2="-29668" y1="-30807" x2="-29735" x1="-29735" fill="none"/><line y2="-31376" y1="-30807" x2="-30717" x1="-31705" fill="none"/><line y2="-29099" y1="-29668" x2="-30717" x1="-29735" fill="none"/><line y2="-30807" y1="-29668" x2="-31705" x1="-31705" fill="none"/><line y2="-29668" y1="-29099" x2="-31705" x1="-30717" fill="none"/><polygon stroke-width="1" stroke="none" points=" -29735 -30807 -29050 -31280 -28981 -31162"/><polygon stroke-width="1" points=" -29735 -30807 -29050 -31280 -28981 -31162" fill="none"/><polygon stroke-width="1" stroke="none" points=" -31705 -30807 -32266 -31049 -32196 -31171"/><polygon stroke-width="1" points=" -31705 -30807 -32266 -31049 -32196 -31171" fill="none"/><polygon stroke-width="1" stroke="none" points=" -31705 -29668 -32196 -29304 -32266 -29423"/><polygon stroke-width="1" points=" -31705 -29668 -32196 -29304 -32266 -29423" fill="none"/><line y2="-32202" y1="-32202" x2="-30648" x1="-30786" fill="none"/><line y2="-31985" y1="-31985" x2="-30666" x1="-30768" fill="none"/><line y2="-31769" y1="-31769" x2="-30684" x1="-30750" fill="none"/><line y2="-31552" y1="-31552" x2="-30702" x1="-30732" fill="none"/><line y2="-29192" y1="-29313" x2="-29047" x1="-28981" fill="none"/><line y2="-29316" y1="-29405" x2="-29226" x1="-29177" fill="none"/><line y2="-29440" y1="-29498" x2="-29405" x1="-29374" fill="none"/><line y2="-29564" y1="-29590" x2="-29584" x1="-29570" fill="none"/><text y="-31150" xml:space="preserve" x="-28978" stroke="none" font-size="433.3333" font-family="sans-serif">OH</text><text y="-32242" xml:space="preserve" x="-30870" stroke="none" font-size="433.3333" font-family="sans-serif">OH</text><text y="-28966" xml:space="preserve" x="-28978" stroke="none" font-size="433.3333" font-family="sans-serif">OH</text><text y="-31150" xml:space="preserve" x="-32762" stroke="none" font-size="433.3333" font-family="sans-serif">OH</text><text y="-28966" xml:space="preserve" x="-32762" stroke="none" font-size="433.3333" font-family="sans-serif">OH</text><text y="-30483" xml:space="preserve" x="-30134" stroke="none" font-style="italic" font-size="313.3333" font-family="sans-serif">S</text><text y="-29634" xml:space="preserve" x="-30134" stroke="none" font-style="italic" font-size="313.3333" font-family="sans-serif">R</text><text y="-30483" xml:space="preserve" x="-31607" stroke="none" font-style="italic" font-size="313.3333" font-family="sans-serif">R</text><text y="-29634" xml:space="preserve" x="-31607" stroke="none" font-style="italic" font-size="313.3333" font-family="sans-serif">R</text></g></g></svg>