<svg width="193.65" viewBox="0 0 6455 5100" text-rendering="auto" stroke-width="1" stroke-opacity="1" stroke-miterlimit="10" stroke-linejoin="miter" stroke-linecap="square" stroke-dashoffset="0" stroke-dasharray="none" stroke="black" shape-rendering="auto" image-rendering="auto" height="153.0" font-weight="normal" font-style="normal" font-size="12" font-family="'Dialog'" fill-opacity="1" fill="black" color-rendering="auto" color-interpolation="auto" xmlns="http://www.w3.org/2000/svg"><g><g stroke="white" fill="white"><rect y="0" x="0" width="6455" stroke="none" height="5100"/></g><g transform="translate(32866,32758)" text-rendering="geometricPrecision" stroke-width="44" stroke-linejoin="round" stroke-linecap="round"><line y2="-29654" y1="-30801" x2="-30798" x1="-30798" fill="none"/><line y2="-29798" y1="-30659" x2="-30968" x1="-30968" fill="none"/><line y2="-31376" y1="-30801" x2="-29816" x1="-30798" fill="none"/><line y2="-30801" y1="-31376" x2="-30798" x1="-31780" fill="none"/><line y2="-29654" y1="-29082" x2="-30798" x1="-29816" fill="none"/><line y2="-29082" y1="-29654" x2="-31780" x1="-30798" fill="none"/><line y2="-30801" y1="-31376" x2="-28834" x1="-29816" fill="none"/><line y2="-30726" y1="-31156" x2="-29042" x1="-29778" fill="none"/><line y2="-31376" y1="-30801" x2="-31780" x1="-32762" fill="none"/><line y2="-31156" y1="-30726" x2="-31815" x1="-32554" fill="none"/><line y2="-29082" y1="-29654" x2="-29816" x1="-28834" fill="none"/><line y2="-29302" y1="-29732" x2="-29778" x1="-29042" fill="none"/><line y2="-29654" y1="-29082" x2="-32762" x1="-31780" fill="none"/><line y2="-29732" y1="-29302" x2="-32554" x1="-31815" fill="none"/><line y2="-29654" y1="-30801" x2="-28834" x1="-28834" fill="none"/><line y2="-30801" y1="-29654" x2="-32762" x1="-32762" fill="none"/><line y2="-31217" y1="-30801" x2="-28114" x1="-28834" fill="none"/><line y2="-32202" y1="-31376" x2="-31780" x1="-31780" fill="none"/><line y2="-28253" y1="-29082" x2="-29816" x1="-29816" fill="none"/><line y2="-30911" y1="-31217" x2="-27207" x1="-27736" fill="none"/><line y2="-32049" y1="-31581" x2="-27588" x1="-27860" fill="none"/><line y2="-31980" y1="-31509" x2="-27467" x1="-27739" fill="none"/><line y2="-31980" y1="-31509" x2="-28383" x1="-28111" fill="none"/><line y2="-32049" y1="-31581" x2="-28262" x1="-27990" fill="none"/><text y="-32242" xml:space="preserve" x="-31930" stroke="none" font-size="433.3333" font-family="sans-serif">NH</text><text y="-32153" xml:space="preserve" x="-31353" stroke="none" font-size="313.3333" font-family="sans-serif">2</text><text y="-27854" xml:space="preserve" x="-29966" stroke="none" font-size="433.3333" font-family="sans-serif">OH</text><text y="-31148" xml:space="preserve" x="-28077" stroke="none" font-size="433.3333" font-family="sans-serif">S</text><text y="-32055" xml:space="preserve" x="-27554" stroke="none" font-size="433.3333" font-family="sans-serif">O</text><text y="-32055" xml:space="preserve" x="-28602" stroke="none" font-size="433.3333" font-family="sans-serif">O</text><text y="-30622" xml:space="preserve" x="-27170" stroke="none" font-size="433.3333" font-family="sans-serif">OH</text></g></g></svg>