<svg width="139.77" viewBox="0 0 4659 4338" text-rendering="auto" stroke-width="1" stroke-opacity="1" stroke-miterlimit="10" stroke-linejoin="miter" stroke-linecap="square" stroke-dashoffset="0" stroke-dasharray="none" stroke="black" shape-rendering="auto" image-rendering="auto" height="130.14" font-weight="normal" font-style="normal" font-size="12" font-family="'Dialog'" fill-opacity="1" fill="black" color-rendering="auto" color-interpolation="auto" xmlns="http://www.w3.org/2000/svg"><g><g stroke="white" fill="white"><rect y="0" x="0" width="4659" stroke="none" height="4338"/></g><g transform="translate(32866,32758)" text-rendering="geometricPrecision" stroke-width="44" stroke-linejoin="round" stroke-linecap="round"><line y2="-30229" y1="-30798" x2="-30630" x1="-31613" fill="none"/><line y2="-29094" y1="-30229" x2="-30630" x1="-30630" fill="none"/><line y2="-30798" y1="-30229" x2="-31613" x1="-32601" fill="none"/><line y2="-28524" y1="-29094" x2="-31613" x1="-30630" fill="none"/><line y2="-30229" y1="-29094" x2="-32601" x1="-32601" fill="none"/><line y2="-29094" y1="-28524" x2="-32601" x1="-31613" fill="none"/><line y2="-30706" y1="-30292" x2="-29946" x1="-30665" fill="none"/><line y2="-30584" y1="-30168" x2="-29876" x1="-30596" fill="none"/><line y2="-30339" y1="-30645" x2="-29004" x1="-29536" fill="none"/><line y2="-31627" y1="-30798" x2="-31682" x1="-31682" fill="none"/><line y2="-31627" y1="-30798" x2="-31543" x1="-31543" fill="none"/><line y2="-32202" y1="-31956" x2="-32231" x1="-31800" fill="none"/><text y="-30576" xml:space="preserve" x="-29874" stroke="none" font-size="433.3333" font-family="sans-serif">N</text><text y="-30050" xml:space="preserve" x="-28966" stroke="none" font-size="433.3333" font-family="sans-serif">OH</text><text y="-31668" xml:space="preserve" x="-31766" stroke="none" font-size="433.3333" font-family="sans-serif">N</text><text y="-32242" xml:space="preserve" x="-32762" stroke="none" font-size="433.3333" font-family="sans-serif">OH</text></g></g></svg>