<svg width="143.61" viewBox="0 0 4787 2481" text-rendering="auto" stroke-width="1" stroke-opacity="1" stroke-miterlimit="10" stroke-linejoin="miter" stroke-linecap="square" stroke-dashoffset="0" stroke-dasharray="none" stroke="black" shape-rendering="auto" image-rendering="auto" height="74.43" font-weight="normal" font-style="normal" font-size="12" font-family="'Dialog'" fill-opacity="1" fill="black" color-rendering="auto" color-interpolation="auto" xmlns="http://www.w3.org/2000/svg"><g><g stroke="white" fill="white"><rect y="0" x="0" width="4787" stroke="none" height="2481"/></g><g transform="translate(32866,32866)" text-rendering="geometricPrecision" stroke-width="44" stroke-linejoin="round" stroke-linecap="round"><line y2="-32193" y1="-31055" x2="-30642" x1="-30642" fill="none"/><line y2="-31055" y1="-31055" x2="-30642" x1="-28669" fill="none"/><line y2="-30489" y1="-31055" x2="-31624" x1="-30642" fill="none"/><line y2="-30706" y1="-31133" x2="-31587" x1="-30850" fill="none"/><line y2="-32762" y1="-32193" x2="-29654" x1="-30642" fill="none"/><line y2="-32193" y1="-32762" x2="-30642" x1="-31624" fill="none"/><line y2="-32118" y1="-32546" x2="-30850" x1="-31587" fill="none"/><line y2="-31055" y1="-31974" x2="-28669" x1="-28669" fill="none"/><line y2="-31055" y1="-30489" x2="-32612" x1="-31624" fill="none"/><line y2="-32303" y1="-32762" x2="-28857" x1="-29654" fill="none"/><line y2="-32762" y1="-32303" x2="-31624" x1="-32424" fill="none"/><line y2="-31974" y1="-31055" x2="-32612" x1="-32612" fill="none"/><line y2="-31861" y1="-31171" x2="-32442" x1="-32442" fill="none"/><text y="-32014" xml:space="preserve" x="-28822" stroke="none" font-size="433.3333" font-family="sans-serif">NH</text><text y="-32014" xml:space="preserve" x="-32762" stroke="none" font-size="433.3333" font-family="sans-serif">N</text></g></g></svg>