<svg width="226.53" viewBox="0 0 7551 5783" text-rendering="auto" stroke-width="1" stroke-opacity="1" stroke-miterlimit="10" stroke-linejoin="miter" stroke-linecap="square" stroke-dashoffset="0" stroke-dasharray="none" stroke="black" shape-rendering="auto" image-rendering="auto" height="173.49" font-weight="normal" font-style="normal" font-size="12" font-family="'Dialog'" fill-opacity="1" fill="black" color-rendering="auto" color-interpolation="auto" xmlns="http://www.w3.org/2000/svg"><g><g stroke="white" fill="white"><rect y="0" x="0" width="7551" stroke="none" height="5783"/></g><g transform="translate(32866,32866)" text-rendering="geometricPrecision" stroke-width="44" stroke-linejoin="round" stroke-linecap="round"><line y2="-29417" y1="-30532" x2="-28683" x1="-28296" fill="none"/><line y2="-30532" y1="-31098" x2="-28296" x1="-29027" fill="none"/><line y2="-30469" y1="-30893" x2="-28493" x1="-29039" fill="none"/><line y2="-29417" y1="-29417" x2="-29885" x1="-28683" fill="none"/><line y2="-29585" y1="-29585" x2="-29735" x1="-28834" fill="none"/><line y2="-31124" y1="-30671" x2="-29429" x1="-30041" fill="none"/><line y2="-30313" y1="-29417" x2="-30160" x1="-29885" fill="none"/><line y2="-31055" y1="-30532" x2="-27389" x1="-28296" fill="none"/><line y2="-28891" y1="-29417" x2="-30792" x1="-29885" fill="none"/><line y2="-32092" y1="-31483" x2="-29241" x1="-29241" fill="none"/><line y2="-30758" y1="-30593" x2="-30925" x1="-30417" fill="none"/><line y2="-32193" y1="-31055" x2="-27389" x1="-27389" fill="none"/><line y2="-32052" y1="-31200" x2="-27219" x1="-27219" fill="none"/><line y2="-31055" y1="-30489" x2="-27389" x1="-26401" fill="none"/><line y2="-32762" y1="-32193" x2="-26401" x1="-27389" fill="none"/><line y2="-30489" y1="-31055" x2="-26401" x1="-25419" fill="none"/><line y2="-30706" y1="-31133" x2="-26364" x1="-25627" fill="none"/><line y2="-32193" y1="-32762" x2="-25419" x1="-26401" fill="none"/><line y2="-32118" y1="-32546" x2="-25627" x1="-26364" fill="none"/><line y2="-31055" y1="-32193" x2="-25419" x1="-25419" fill="none"/><line y2="-28891" y1="-29460" x2="-30792" x1="-31774" fill="none"/><line y2="-28816" y1="-29244" x2="-31000" x1="-31737" fill="none"/><line y2="-27753" y1="-28891" x2="-30792" x1="-30792" fill="none"/><line y2="-29460" y1="-28891" x2="-31774" x1="-32762" fill="none"/><line y2="-27187" y1="-27753" x2="-31774" x1="-30792" fill="none"/><line y2="-27404" y1="-27831" x2="-31737" x1="-31000" fill="none"/><line y2="-28891" y1="-27753" x2="-32762" x1="-32762" fill="none"/><line y2="-28750" y1="-27898" x2="-32592" x1="-32592" fill="none"/><line y2="-27753" y1="-27187" x2="-32762" x1="-31774" fill="none"/><text y="-32130" xml:space="preserve" x="-29394" stroke="none" font-size="433.3333" font-family="sans-serif">CH</text><text y="-32040" xml:space="preserve" x="-28816" stroke="none" font-size="313.3333" font-family="sans-serif">3</text><text y="-30838" xml:space="preserve" x="-31873" stroke="none" font-size="433.3333" font-family="sans-serif">CH</text><text y="-30749" xml:space="preserve" x="-31295" stroke="none" font-size="313.3333" font-family="sans-serif">3</text><text y="-31084" xml:space="preserve" x="-29394" stroke="none" font-size="433.3333" font-family="sans-serif">N</text><text y="-30353" xml:space="preserve" x="-30379" stroke="none" font-size="433.3333" font-family="sans-serif">N</text><text y="-31139" xml:space="preserve" x="-29070" stroke="none" font-size="313.3333" font-family="sans-serif">+</text></g></g></svg>