<svg width="244.53" viewBox="0 0 8151 6809" text-rendering="auto" stroke-width="1" stroke-opacity="1" stroke-miterlimit="10" stroke-linejoin="miter" stroke-linecap="square" stroke-dashoffset="0" stroke-dasharray="none" stroke="black" shape-rendering="auto" image-rendering="auto" height="204.27" font-weight="normal" font-style="normal" font-size="12" font-family="'Dialog'" fill-opacity="1" fill="black" color-rendering="auto" color-interpolation="auto" xmlns="http://www.w3.org/2000/svg"><g><g stroke="white" fill="white"><rect y="0" x="0" width="8151" stroke="none" height="6809"/></g><g transform="translate(32866,32866)" text-rendering="geometricPrecision" stroke-width="44" stroke-linejoin="round" stroke-linecap="round"><line y2="-30532" y1="-31009" x2="-30922" x1="-31538" fill="none"/><line y2="-29689" y1="-30532" x2="-31214" x1="-30922" fill="none"/><line y2="-29850" y1="-30483" x2="-31338" x1="-31119" fill="none"/><line y2="-31090" y1="-30532" x2="-32008" x1="-32762" fill="none"/><line y2="-29469" y1="-29469" x2="-32436" x1="-31477" fill="none"/><line y2="-30532" y1="-29469" x2="-32762" x1="-32436" fill="none"/><line y2="-31055" y1="-30532" x2="-30015" x1="-30922" fill="none"/><line y2="-30642" y1="-31055" x2="-29296" x1="-30015" fill="none"/><line y2="-31055" y1="-30642" x2="-28201" x1="-28920" fill="none"/><line y2="-29484" y1="-30313" x2="-29108" x1="-29108" fill="none"/><line y2="-31055" y1="-30489" x2="-28201" x1="-27216" fill="none"/><line y2="-31133" y1="-30706" x2="-27993" x1="-27253" fill="none"/><line y2="-32193" y1="-31055" x2="-28201" x1="-28201" fill="none"/><line y2="-30489" y1="-31055" x2="-27216" x1="-26231" fill="none"/><line y2="-32762" y1="-32193" x2="-27216" x1="-28201" fill="none"/><line y2="-32546" y1="-32118" x2="-27253" x1="-27993" fill="none"/><line y2="-31055" y1="-32193" x2="-26231" x1="-26231" fill="none"/><line y2="-31200" y1="-32052" x2="-26401" x1="-26401" fill="none"/><line y2="-32193" y1="-32762" x2="-26231" x1="-27216" fill="none"/><line y2="-30642" y1="-31055" x2="-25511" x1="-26231" fill="none"/><line y2="-29484" y1="-28917" x2="-29108" x1="-30093" fill="none"/><line y2="-29267" y1="-28839" x2="-29146" x1="-29885" fill="none"/><line y2="-28917" y1="-29484" x2="-28123" x1="-29108" fill="none"/><line y2="-28917" y1="-27779" x2="-30093" x1="-30093" fill="none"/><line y2="-27779" y1="-28917" x2="-28123" x1="-28123" fill="none"/><line y2="-27921" y1="-28773" x2="-28293" x1="-28293" fill="none"/><line y2="-27779" y1="-27210" x2="-30093" x1="-29108" fill="none"/><line y2="-27857" y1="-27430" x2="-29885" x1="-29146" fill="none"/><line y2="-27210" y1="-27779" x2="-29108" x1="-28123" fill="none"/><line y2="-26161" y1="-27210" x2="-29108" x1="-29108" fill="none"/><text y="-30353" xml:space="preserve" x="-29258" stroke="none" font-size="433.3333" font-family="sans-serif">N</text><text y="-30353" xml:space="preserve" x="-25474" stroke="none" font-size="433.3333" font-family="sans-serif">OH</text><text y="-31049" xml:space="preserve" x="-31974" stroke="none" font-size="433.3333" font-family="sans-serif">NH</text><text y="-29290" xml:space="preserve" x="-31442" stroke="none" font-size="433.3333" font-family="sans-serif">N</text></g></g></svg>