<svg width="310.05" viewBox="0 0 10335 6651" text-rendering="auto" stroke-width="1" stroke-opacity="1" stroke-miterlimit="10" stroke-linejoin="miter" stroke-linecap="square" stroke-dashoffset="0" stroke-dasharray="none" stroke="black" shape-rendering="auto" image-rendering="auto" height="199.53" font-weight="normal" font-style="normal" font-size="12" font-family="'Dialog'" fill-opacity="1" fill="black" color-rendering="auto" color-interpolation="auto" xmlns="http://www.w3.org/2000/svg"><g><g stroke="white" fill="white"><rect y="0" x="0" width="10335" stroke="none" height="6651"/></g><g transform="translate(32866,32758)" text-rendering="geometricPrecision" stroke-width="44" stroke-linejoin="round" stroke-linecap="round"><line y2="-29189" y1="-29758" x2="-27828" x1="-28810" fill="none"/><line y2="-29114" y1="-29541" x2="-28036" x1="-28773" fill="none"/><line y2="-28054" y1="-29189" x2="-27828" x1="-27828" fill="none"/><line y2="-29758" y1="-29189" x2="-28810" x1="-29798" fill="none"/><line y2="-27484" y1="-28054" x2="-28810" x1="-27828" fill="none"/><line y2="-27701" y1="-28129" x2="-28773" x1="-28036" fill="none"/><line y2="-29189" y1="-28054" x2="-29798" x1="-29798" fill="none"/><line y2="-29047" y1="-28195" x2="-29628" x1="-29628" fill="none"/><line y2="-28054" y1="-27484" x2="-29798" x1="-28810" fill="none"/><line y2="-29715" y1="-29189" x2="-26921" x1="-27828" fill="none"/><line y2="-27528" y1="-28054" x2="-30706" x1="-29798" fill="none"/><line y2="-30850" y1="-29715" x2="-26921" x1="-26921" fill="none"/><line y2="-30708" y1="-29856" x2="-26751" x1="-26751" fill="none"/><line y2="-29715" y1="-29146" x2="-26921" x1="-25933" fill="none"/><line y2="-31419" y1="-30850" x2="-25933" x1="-26921" fill="none"/><line y2="-29146" y1="-29715" x2="-25933" x1="-24951" fill="none"/><line y2="-29362" y1="-29790" x2="-25896" x1="-25159" fill="none"/><line y2="-30850" y1="-31419" x2="-24951" x1="-25933" fill="none"/><line y2="-30775" y1="-31202" x2="-25159" x1="-25896" fill="none"/><line y2="-29715" y1="-30850" x2="-24951" x1="-24951" fill="none"/><line y2="-31266" y1="-30850" x2="-24232" x1="-24951" fill="none"/><line y2="-27944" y1="-27528" x2="-31425" x1="-30706" fill="none"/><line y2="-27695" y1="-27944" x2="-32231" x1="-31800" fill="none"/><line y2="-26699" y1="-27528" x2="-30636" x1="-30636" fill="none"/><line y2="-26699" y1="-27528" x2="-30775" x1="-30775" fill="none"/><line y2="-30960" y1="-31266" x2="-23324" x1="-23856" fill="none"/><line y2="-32202" y1="-31595" x2="-24044" x1="-24044" fill="none"/><text y="-27874" xml:space="preserve" x="-31766" stroke="none" font-size="433.3333" font-family="sans-serif">O</text><text y="-26303" xml:space="preserve" x="-30859" stroke="none" font-size="433.3333" font-family="sans-serif">O</text><text y="-27297" xml:space="preserve" x="-32762" stroke="none" font-size="433.3333" font-family="sans-serif">CH</text><text y="-27207" xml:space="preserve" x="-32185" stroke="none" font-size="313.3333" font-family="sans-serif">3</text><text y="-31197" xml:space="preserve" x="-24197" stroke="none" font-size="433.3333" font-family="sans-serif">B</text><text y="-30671" xml:space="preserve" x="-23290" stroke="none" font-size="433.3333" font-family="sans-serif">OH</text><text y="-32242" xml:space="preserve" x="-24197" stroke="none" font-size="433.3333" font-family="sans-serif">OH</text></g></g></svg>