<svg width="270.63" viewBox="0 0 9021 3578" text-rendering="auto" stroke-width="1" stroke-opacity="1" stroke-miterlimit="10" stroke-linejoin="miter" stroke-linecap="square" stroke-dashoffset="0" stroke-dasharray="none" stroke="black" shape-rendering="auto" image-rendering="auto" height="107.34" font-weight="normal" font-style="normal" font-size="12" font-family="'Dialog'" fill-opacity="1" fill="black" color-rendering="auto" color-interpolation="auto" xmlns="http://www.w3.org/2000/svg"><g><g stroke="white" fill="white"><rect y="0" x="0" width="9021" stroke="none" height="3578"/></g><g transform="translate(32866,32758)" text-rendering="geometricPrecision" stroke-width="44" stroke-linejoin="round" stroke-linecap="round"><line y2="-29853" y1="-30992" x2="-27011" x1="-27011" fill="none"/><line y2="-30992" y1="-31561" x2="-27011" x1="-27996" fill="none"/><line y2="-30916" y1="-31344" x2="-27219" x1="-27958" fill="none"/><line y2="-31451" y1="-30992" x2="-26210" x1="-27011" fill="none"/><line y2="-29284" y1="-29853" x2="-27996" x1="-27011" fill="none"/><line y2="-29504" y1="-29931" x2="-27958" x1="-27219" fill="none"/><line y2="-29853" y1="-29853" x2="-27011" x1="-25228" fill="none"/><line y2="-31561" y1="-30992" x2="-27996" x1="-28981" fill="none"/><line y2="-30992" y1="-31451" x2="-25040" x1="-25835" fill="none"/><line y2="-29853" y1="-29284" x2="-28981" x1="-27996" fill="none"/><line y2="-30073" y1="-30992" x2="-25040" x1="-25040" fill="none"/><line y2="-30992" y1="-29853" x2="-28981" x1="-28981" fill="none"/><line y2="-30850" y1="-29998" x2="-28810" x1="-28810" fill="none"/><line y2="-31408" y1="-30992" x2="-29700" x1="-28981" fill="none"/><line y2="-31468" y1="-31052" x2="-24356" x1="-25075" fill="none"/><line y2="-31347" y1="-30931" x2="-24286" x1="-25006" fill="none"/><line y2="-30992" y1="-31408" x2="-30795" x1="-30076" fill="none"/><line y2="-31514" y1="-30992" x2="-31702" x1="-30795" fill="none"/><line y2="-31211" y1="-31514" x2="-32231" x1="-31702" fill="none"/><line y2="-32167" y1="-31699" x2="-30347" x1="-30076" fill="none"/><line y2="-32240" y1="-31769" x2="-30223" x1="-29954" fill="none"/><line y2="-32240" y1="-31769" x2="-29553" x1="-29824" fill="none"/><line y2="-32167" y1="-31699" x2="-29432" x1="-29700" fill="none"/><text y="-31335" xml:space="preserve" x="-30041" stroke="none" font-size="433.3333" font-family="sans-serif">S</text><text y="-32242" xml:space="preserve" x="-30564" stroke="none" font-size="433.3333" font-family="sans-serif">O</text><text y="-32242" xml:space="preserve" x="-29518" stroke="none" font-size="433.3333" font-family="sans-serif">O</text><text y="-30812" xml:space="preserve" x="-32762" stroke="none" font-size="433.3333" font-family="sans-serif">OH</text><text y="-31335" xml:space="preserve" x="-24286" stroke="none" font-size="433.3333" font-family="sans-serif">O</text><text y="-31382" xml:space="preserve" x="-26176" stroke="none" font-size="433.3333" font-family="sans-serif">O</text><text y="-29674" xml:space="preserve" x="-25194" stroke="none" font-size="433.3333" font-family="sans-serif">NH</text></g></g></svg>