<svg width="183.54" viewBox="0 0 6118 4098" text-rendering="auto" stroke-width="1" stroke-opacity="1" stroke-miterlimit="10" stroke-linejoin="miter" stroke-linecap="square" stroke-dashoffset="0" stroke-dasharray="none" stroke="black" shape-rendering="auto" image-rendering="auto" height="122.94" font-weight="normal" font-style="normal" font-size="12" font-family="'Dialog'" fill-opacity="1" fill="black" color-rendering="auto" color-interpolation="auto" xmlns="http://www.w3.org/2000/svg"><g><g stroke="white" fill="white"><rect y="0" x="0" width="6118" stroke="none" height="4098"/></g><g transform="translate(32866,32758)" text-rendering="geometricPrecision" stroke-width="44" stroke-linejoin="round" stroke-linecap="round"><line y2="-30717" y1="-30717" x2="-30792" x1="-28822" fill="none"/><line y2="-31855" y1="-30717" x2="-30792" x1="-30792" fill="none"/><line y2="-30148" y1="-30717" x2="-31777" x1="-30792" fill="none"/><line y2="-30365" y1="-30792" x2="-31740" x1="-31000" fill="none"/><line y2="-31855" y1="-30717" x2="-28822" x1="-28822" fill="none"/><line y2="-30717" y1="-30148" x2="-28822" x1="-27834" fill="none"/><line y2="-30792" y1="-30368" x2="-28614" x1="-27874" fill="none"/><line y2="-32315" y1="-31855" x2="-29995" x1="-30792" fill="none"/><line y2="-31855" y1="-32422" x2="-30792" x1="-31777" fill="none"/><line y2="-31777" y1="-32205" x2="-31000" x1="-31740" fill="none"/><line y2="-30717" y1="-30148" x2="-32762" x1="-31777" fill="none"/><line y2="-31855" y1="-32315" x2="-28822" x1="-29616" fill="none"/><line y2="-32422" y1="-31855" x2="-27834" x1="-28822" fill="none"/><line y2="-32205" y1="-31777" x2="-27874" x1="-28614" fill="none"/><line y2="-30148" y1="-30717" x2="-27834" x1="-26852" fill="none"/><line y2="-32422" y1="-31855" x2="-31777" x1="-32762" fill="none"/><line y2="-31855" y1="-30717" x2="-32762" x1="-32762" fill="none"/><line y2="-31711" y1="-30859" x2="-32592" x1="-32592" fill="none"/><line y2="-31855" y1="-32422" x2="-26852" x1="-27834" fill="none"/><line y2="-30717" y1="-31855" x2="-26852" x1="-26852" fill="none"/><line y2="-30859" y1="-31711" x2="-27022" x1="-27022" fill="none"/><line y2="-29319" y1="-30148" x2="-27834" x1="-27834" fill="none"/><text y="-28920" xml:space="preserve" x="-27987" stroke="none" font-size="433.3333" font-family="sans-serif">NH</text><text y="-28831" xml:space="preserve" x="-27409" stroke="none" font-size="313.3333" font-family="sans-serif">2</text><text y="-32242" xml:space="preserve" x="-29957" stroke="none" font-size="433.3333" font-family="sans-serif">O</text></g></g></svg>