<svg width="565.65" viewBox="0 0 18855 2051" text-rendering="auto" stroke-width="1" stroke-opacity="1" stroke-miterlimit="10" stroke-linejoin="miter" stroke-linecap="square" stroke-dashoffset="0" stroke-dasharray="none" stroke="black" shape-rendering="auto" image-rendering="auto" height="61.53" font-weight="normal" font-style="normal" font-size="12" font-family="'Dialog'" fill-opacity="1" fill="black" color-rendering="auto" color-interpolation="auto" xmlns="http://www.w3.org/2000/svg"><g><g stroke="white" fill="white"><rect y="0" x="0" width="18855" stroke="none" height="2051"/></g><g transform="translate(32866,32748)" text-rendering="geometricPrecision" stroke-width="44" stroke-linejoin="round" stroke-linecap="round"><line y2="-32644" y1="-32121" x2="-17339" x1="-16432" fill="none"/><line y2="-32228" y1="-32644" x2="-18058" x1="-17339" fill="none"/><line y2="-32644" y1="-32228" x2="-19153" x1="-18436" fill="none"/><line y2="-32121" y1="-32644" x2="-20063" x1="-19153" fill="none"/><line y2="-32644" y1="-32121" x2="-20970" x1="-20063" fill="none"/><line y2="-32121" y1="-32644" x2="-21877" x1="-20970" fill="none"/><line y2="-32644" y1="-32121" x2="-22784" x1="-21877" fill="none"/><line y2="-32121" y1="-32644" x2="-23691" x1="-22784" fill="none"/><line y2="-32644" y1="-32121" x2="-24598" x1="-23691" fill="none"/><line y2="-32121" y1="-32644" x2="-25506" x1="-24598" fill="none"/><line y2="-32644" y1="-32121" x2="-26413" x1="-25506" fill="none"/><line y2="-32121" y1="-32644" x2="-27320" x1="-26413" fill="none"/><line y2="-32644" y1="-32121" x2="-28227" x1="-27320" fill="none"/><line y2="-32121" y1="-32644" x2="-29134" x1="-28227" fill="none"/><line y2="-32644" y1="-32121" x2="-30041" x1="-29134" fill="none"/><line y2="-32121" y1="-32644" x2="-30948" x1="-30041" fill="none"/><line y2="-32644" y1="-32121" x2="-31855" x1="-30948" fill="none"/><line y2="-32121" y1="-32644" x2="-32762" x1="-31855" fill="none"/><line y2="-32644" y1="-32121" x2="-15524" x1="-16432" fill="none"/><line y2="-32228" y1="-32644" x2="-14805" x1="-15524" fill="none"/><line y2="-31292" y1="-31292" x2="-16501" x1="-16365" fill="none"/><line y2="-31509" y1="-31509" x2="-16483" x1="-16383" fill="none"/><line y2="-31725" y1="-31725" x2="-16465" x1="-16400" fill="none"/><line y2="-31942" y1="-31942" x2="-16447" x1="-16418" fill="none"/><text y="-31942" xml:space="preserve" x="-18399" stroke="none" font-size="433.3333" font-family="sans-serif">O</text><text y="-30893" xml:space="preserve" x="-16585" stroke="none" font-size="433.3333" font-family="sans-serif">OH</text><text y="-31942" xml:space="preserve" x="-14770" stroke="none" font-size="433.3333" font-family="sans-serif">OH</text><text y="-32242" xml:space="preserve" x="-16585" stroke="none" font-style="italic" font-size="313.3333" font-family="sans-serif">S</text></g></g></svg>