<svg width="218.4" viewBox="0 0 7280 5072" text-rendering="auto" stroke-width="1" stroke-opacity="1" stroke-miterlimit="10" stroke-linejoin="miter" stroke-linecap="square" stroke-dashoffset="0" stroke-dasharray="none" stroke="black" shape-rendering="auto" image-rendering="auto" height="152.16" font-weight="normal" font-style="normal" font-size="12" font-family="'Dialog'" fill-opacity="1" fill="black" color-rendering="auto" color-interpolation="auto" xmlns="http://www.w3.org/2000/svg"><g><g stroke="white" fill="white"><rect y="0" x="0" width="7280" stroke="none" height="5072"/></g><g transform="translate(32866,32866)" text-rendering="geometricPrecision" stroke-width="44" stroke-linejoin="round" stroke-linecap="round"><line y2="-30128" y1="-30128" x2="-29715" x1="-28756" fill="none"/><line y2="-30347" y1="-31191" x2="-28493" x1="-28198" fill="none"/><line y2="-31191" y1="-30128" x2="-30041" x1="-29715" fill="none"/><line y2="-31191" y1="-31668" x2="-28198" x1="-28816" fill="none"/><line y2="-31748" y1="-31191" x2="-29287" x1="-30041" fill="none"/><line y2="-29602" y1="-30018" x2="-27661" x1="-28380" fill="none"/><line y2="-31714" y1="-31191" x2="-30948" x1="-30041" fill="none"/><line y2="-29458" y1="-30084" x2="-30113" x1="-29657" fill="none"/><line y2="-29538" y1="-30168" x2="-30226" x1="-29770" fill="none"/><line y2="-31491" y1="-31257" x2="-27398" x1="-28218" fill="none"/><line y2="-31358" y1="-31124" x2="-27360" x1="-28181" fill="none"/><line y2="-29602" y1="-28467" x2="-27661" x1="-27661" fill="none"/><line y2="-29460" y1="-28608" x2="-27490" x1="-27490" fill="none"/><line y2="-30171" y1="-29602" x2="-26673" x1="-27661" fill="none"/><line y2="-28467" y1="-27898" x2="-27661" x1="-26673" fill="none"/><line y2="-29602" y1="-30171" x2="-25690" x1="-26673" fill="none"/><line y2="-29527" y1="-29954" x2="-25898" x1="-26635" fill="none"/><line y2="-27898" y1="-28467" x2="-26673" x1="-25690" fill="none"/><line y2="-28114" y1="-28542" x2="-26635" x1="-25898" fill="none"/><line y2="-28467" y1="-29602" x2="-25690" x1="-25690" fill="none"/><line y2="-31191" y1="-31714" x2="-31855" x1="-30948" fill="none"/><line y2="-31714" y1="-31191" x2="-32762" x1="-31855" fill="none"/><line y2="-32762" y1="-31714" x2="-30948" x1="-30948" fill="none"/><text y="-29099" xml:space="preserve" x="-30483" stroke="none" font-size="433.3333" font-family="sans-serif">O</text><text y="-31301" xml:space="preserve" x="-27343" stroke="none" font-size="433.3333" font-family="sans-serif">S</text><text y="-29949" xml:space="preserve" x="-28721" stroke="none" font-size="433.3333" font-family="sans-serif">N</text><text y="-31708" xml:space="preserve" x="-29252" stroke="none" font-size="433.3333" font-family="sans-serif">NH</text></g></g></svg>