<svg width="331.02" viewBox="0 0 11034 6920" text-rendering="auto" stroke-width="1" stroke-opacity="1" stroke-miterlimit="10" stroke-linejoin="miter" stroke-linecap="square" stroke-dashoffset="0" stroke-dasharray="none" stroke="black" shape-rendering="auto" image-rendering="auto" height="207.6" font-weight="normal" font-style="normal" font-size="12" font-family="'Dialog'" fill-opacity="1" fill="black" color-rendering="auto" color-interpolation="auto" xmlns="http://www.w3.org/2000/svg"><g><g stroke="white" fill="white"><rect y="0" x="0" width="11034" stroke="none" height="6920"/></g><g transform="translate(32866,32758)" text-rendering="geometricPrecision" stroke-width="44" stroke-linejoin="round" stroke-linecap="round"><line y2="-28978" y1="-30116" x2="-29342" x1="-29342" fill="none"/><line y2="-31254" y1="-30116" x2="-29342" x1="-29342" fill="none"/><line y2="-30685" y1="-30116" x2="-28311" x1="-29342" fill="none"/><line y2="-30116" y1="-30688" x2="-29342" x1="-30333" fill="none"/><line y2="-28415" y1="-28978" x2="-30327" x1="-29342" fill="none"/><line y2="-28978" y1="-27924" x2="-29342" x1="-28900" fill="none"/><line y2="-30477" y1="-31254" x2="-28972" x1="-29342" fill="none"/><line y2="-27924" y1="-30226" x2="-27762" x1="-28854" fill="none"/><line y2="-30356" y1="-29761" x2="-30032" x1="-30489" fill="none"/><line y2="-31254" y1="-30576" x2="-29342" x1="-29862" fill="none"/><line y2="-30116" y1="-30685" x2="-27328" x1="-28311" fill="none"/><line y2="-32384" y1="-30685" x2="-27323" x1="-28311" fill="none"/><line y2="-30688" y1="-30116" x2="-30333" x1="-31315" fill="none"/><line y2="-27268" y1="-28415" x2="-30659" x1="-30327" fill="none"/><line y2="-28978" y1="-28415" x2="-31315" x1="-30327" fill="none"/><line y2="-27924" y1="-27924" x2="-28900" x1="-27762" fill="none"/><line y2="-27924" y1="-28978" x2="-27762" x1="-27328" fill="none"/><line y2="-28464" y1="-27268" x2="-30659" x1="-30659" fill="none"/><line y2="-29322" y1="-28744" x2="-30659" x1="-30659" fill="none"/><line y2="-28978" y1="-30116" x2="-27328" x1="-27328" fill="none"/><line y2="-31815" y1="-32384" x2="-26340" x1="-27323" fill="none"/><line y2="-30116" y1="-28978" x2="-31315" x1="-31315" fill="none"/><line y2="-28978" y1="-28975" x2="-27328" x1="-25364" fill="none"/><line y2="-31809" y1="-31815" x2="-24373" x1="-26340" fill="none"/><line y2="-28975" y1="-31809" x2="-25364" x1="-24373" fill="none"/><line y2="-29671" y1="-29590" x2="-31179" x1="-30847" fill="none"/><line y2="-29842" y1="-29741" x2="-31855" x1="-31451" fill="none"/><line y2="-29319" y1="-29842" x2="-32762" x1="-31855" fill="none"/><line y2="-26320" y1="-26736" x2="-28756" x1="-29472" fill="none"/><line y2="-26626" y1="-26320" x2="-27848" x1="-28377" fill="none"/><line y2="-32092" y1="-31844" x2="-30951" x1="-30521" fill="none"/><line y2="-27441" y1="-27135" x2="-27643" x1="-28172" fill="none"/><line y2="-31919" y1="-32225" x2="-22747" x1="-23278" fill="none"/><line y2="-30986" y1="-30680" x2="-26872" x1="-26343" fill="none"/><line y2="-30264" y1="-30680" x2="-25624" x1="-26343" fill="none"/><polygon stroke-width="1" stroke="none" points=" -30327 -28415 -29411 -26765 -29536 -26704"/><polygon stroke-width="1" points=" -30327 -28415 -29411 -26765 -29536 -26704" fill="none"/><polygon stroke-width="1" stroke="none" points=" -24373 -31809 -23688 -32283 -23619 -32164"/><polygon stroke-width="1" points=" -24373 -31809 -23688 -32283 -23619 -32164" fill="none"/><polygon stroke-width="1" stroke="none" points=" -27328 -28978 -26618 -28565 -26696 -28452"/><polygon stroke-width="1" points=" -27328 -28978 -26618 -28565 -26696 -28452" fill="none"/><polygon stroke-width="1" stroke="none" points=" -28311 -30685 -28380 -31514 -28241 -31514"/><polygon stroke-width="1" points=" -28311 -30685 -28380 -31514 -28241 -31514" fill="none"/><polygon stroke-width="1" stroke="none" points=" -29342 -28978 -29486 -28169 -29619 -28204"/><polygon stroke-width="1" points=" -29342 -28978 -29486 -28169 -29619 -28204" fill="none"/><line y2="-30619" y1="-30740" x2="-26309" x1="-26378" fill="none"/><line y2="-30523" y1="-30621" x2="-26504" x1="-26559" fill="none"/><line y2="-30427" y1="-30502" x2="-26698" x1="-26741" fill="none"/><line y2="-30331" y1="-30382" x2="-26893" x1="-26922" fill="none"/><line y2="-30235" y1="-30263" x2="-27088" x1="-27104" fill="none"/><line y2="-30139" y1="-30144" x2="-27282" x1="-27285" fill="none"/><line y2="-30680" y1="-30680" x2="-26413" x1="-26274" fill="none"/><line y2="-30897" y1="-30897" x2="-26399" x1="-26287" fill="none"/><line y2="-31113" y1="-31113" x2="-26385" x1="-26299" fill="none"/><line y2="-31330" y1="-31330" x2="-26371" x1="-26312" fill="none"/><line y2="-31547" y1="-31547" x2="-26357" x1="-26324" fill="none"/><line y2="-31763" y1="-31763" x2="-26343" x1="-26337" fill="none"/><line y2="-31517" y1="-31517" x2="-30266" x1="-30402" fill="none"/><line y2="-31300" y1="-31300" x2="-30284" x1="-30384" fill="none"/><line y2="-31084" y1="-31084" x2="-30301" x1="-30366" fill="none"/><line y2="-30867" y1="-30867" x2="-30319" x1="-30348" fill="none"/><line y2="-27210" y1="-27282" x2="-28550" x1="-28432" fill="none"/><line y2="-27405" y1="-27458" x2="-28646" x1="-28560" fill="none"/><line y2="-27601" y1="-27633" x2="-28742" x1="-28688" fill="none"/><line y2="-27796" y1="-27809" x2="-28837" x1="-28816" fill="none"/><text y="-31558" xml:space="preserve" x="-30486" stroke="none" font-size="433.3333" font-family="sans-serif">O</text><text y="-32242" xml:space="preserve" x="-31673" stroke="none" font-size="433.3333" font-family="sans-serif">CH</text><text y="-32153" xml:space="preserve" x="-31096" stroke="none" font-size="313.3333" font-family="sans-serif">3</text><text y="-26034" xml:space="preserve" x="-28718" stroke="none" font-size="433.3333" font-family="sans-serif">O</text><text y="-26557" xml:space="preserve" x="-27811" stroke="none" font-size="433.3333" font-family="sans-serif">CH</text><text y="-26468" xml:space="preserve" x="-27233" stroke="none" font-size="313.3333" font-family="sans-serif">3</text><text y="-26849" xml:space="preserve" x="-28513" stroke="none" font-size="433.3333" font-family="sans-serif">O</text><text y="-27372" xml:space="preserve" x="-27606" stroke="none" font-size="433.3333" font-family="sans-serif">CH</text><text y="-27282" xml:space="preserve" x="-27028" stroke="none" font-size="313.3333" font-family="sans-serif">3</text><text y="-28198" xml:space="preserve" x="-26621" stroke="none" font-size="433.3333" font-family="sans-serif">OH</text><text y="-31023" xml:space="preserve" x="-27404" stroke="none" font-size="433.3333" font-family="sans-serif">OH</text><text y="-32153" xml:space="preserve" x="-23619" stroke="none" font-size="433.3333" font-family="sans-serif">O</text><text y="-31630" xml:space="preserve" x="-22712" stroke="none" font-size="433.3333" font-family="sans-serif">CH</text><text y="-31540" xml:space="preserve" x="-22134" stroke="none" font-size="313.3333" font-family="sans-serif">3</text><text y="-29362" xml:space="preserve" x="-30812" stroke="none" font-size="433.3333" font-family="sans-serif">N</text><text y="-31555" xml:space="preserve" x="-28461" stroke="none" font-size="433.3333" font-family="sans-serif">H</text><text y="-27788" xml:space="preserve" x="-29764" stroke="none" font-size="433.3333" font-family="sans-serif">H</text><text y="-29978" xml:space="preserve" x="-25589" stroke="none" font-size="433.3333" font-family="sans-serif">H</text><text y="-29793" xml:space="preserve" x="-29244" stroke="none" font-style="italic" font-size="313.3333" font-family="sans-serif">S</text><text y="-28874" xml:space="preserve" x="-29215" stroke="none" font-style="italic" font-size="313.3333" font-family="sans-serif">R</text><text y="-31376" xml:space="preserve" x="-29486" stroke="none" font-style="italic" font-size="313.3333" font-family="sans-serif">R</text><text y="-30206" xml:space="preserve" x="-28461" stroke="none" font-style="italic" font-size="313.3333" font-family="sans-serif">R</text><text y="-30209" xml:space="preserve" x="-30486" stroke="none" font-style="italic" font-size="313.3333" font-family="sans-serif">S</text><text y="-28539" xml:space="preserve" x="-30480" stroke="none" font-style="italic" font-size="313.3333" font-family="sans-serif">S</text><text y="-27993" xml:space="preserve" x="-28909" stroke="none" font-style="italic" font-size="313.3333" font-family="sans-serif">R</text><text y="-28010" xml:space="preserve" x="-28250" stroke="none" font-style="italic" font-size="313.3333" font-family="sans-serif">R</text><text y="-29793" xml:space="preserve" x="-27730" stroke="none" font-style="italic" font-size="313.3333" font-family="sans-serif">R</text><text y="-28848" xml:space="preserve" x="-27762" stroke="none" font-style="italic" font-size="313.3333" font-family="sans-serif">R</text><text y="-30200" xml:space="preserve" x="-26496" stroke="none" font-style="italic" font-size="313.3333" font-family="sans-serif">S</text><text y="-31913" xml:space="preserve" x="-26418" stroke="none" font-style="italic" font-size="313.3333" font-family="sans-serif">S</text><text y="-31907" xml:space="preserve" x="-24598" stroke="none" font-style="italic" font-size="313.3333" font-family="sans-serif">S</text></g></g></svg>