<svg width="294.57" viewBox="0 0 9819 7332" text-rendering="auto" stroke-width="1" stroke-opacity="1" stroke-miterlimit="10" stroke-linejoin="miter" stroke-linecap="square" stroke-dashoffset="0" stroke-dasharray="none" stroke="black" shape-rendering="auto" image-rendering="auto" height="219.96" font-weight="normal" font-style="normal" font-size="12" font-family="'Dialog'" fill-opacity="1" fill="black" color-rendering="auto" color-interpolation="auto" xmlns="http://www.w3.org/2000/svg"><g><g stroke="white" fill="white"><rect y="0" x="0" width="9819" stroke="none" height="7332"/></g><g transform="translate(32866,32866)" text-rendering="geometricPrecision" stroke-width="44" stroke-linejoin="round" stroke-linecap="round"><line y2="-27912" y1="-27346" x2="-26104" x1="-27092" fill="none"/><line y2="-27346" y1="-27912" x2="-25121" x1="-26104" fill="none"/><line y2="-26208" y1="-27346" x2="-27092" x1="-27092" fill="none"/><line y2="-27346" y1="-27912" x2="-27092" x1="-28077" fill="none"/><line y2="-27268" y1="-27695" x2="-27300" x1="-28039" fill="none"/><line y2="-26208" y1="-27346" x2="-25121" x1="-25121" fill="none"/><line y2="-27912" y1="-27346" x2="-24133" x1="-25121" fill="none"/><line y2="-27695" y1="-27268" x2="-24174" x1="-24913" fill="none"/><line y2="-26208" y1="-26208" x2="-27092" x1="-25121" fill="none"/><line y2="-25638" y1="-26208" x2="-28077" x1="-27092" fill="none"/><line y2="-25855" y1="-26283" x2="-28039" x1="-27300" fill="none"/><line y2="-27912" y1="-27346" x2="-28077" x1="-29062" fill="none"/><line y2="-26208" y1="-25638" x2="-25121" x1="-24133" fill="none"/><line y2="-26283" y1="-25858" x2="-24913" x1="-24174" fill="none"/><line y2="-27346" y1="-27912" x2="-23151" x1="-24133" fill="none"/><line y2="-26208" y1="-25638" x2="-29062" x1="-28077" fill="none"/><line y2="-27346" y1="-26208" x2="-29062" x1="-29062" fill="none"/><line y2="-27201" y1="-26349" x2="-28891" x1="-28891" fill="none"/><line y2="-25638" y1="-26208" x2="-24133" x1="-23151" fill="none"/><line y2="-26208" y1="-27346" x2="-23151" x1="-23151" fill="none"/><line y2="-26349" y1="-27201" x2="-23322" x1="-23322" fill="none"/><line y2="-28961" y1="-27912" x2="-26104" x1="-26104" fill="none"/><line y2="-29377" y1="-28961" x2="-26823" x1="-26104" fill="none"/><line y2="-30532" y1="-29703" x2="-27011" x1="-27011" fill="none"/><line y2="-30838" y1="-30532" x2="-27539" x1="-27011" fill="none"/><line y2="-30532" y1="-30948" x2="-28825" x1="-28108" fill="none"/><line y2="-31009" y1="-30593" x2="-26329" x1="-27048" fill="none"/><line y2="-30888" y1="-30472" x2="-26257" x1="-26976" fill="none"/><line y2="-31055" y1="-30532" x2="-29735" x1="-28825" fill="none"/><line y2="-28961" y1="-29484" x2="-29735" x1="-28825" fill="none"/><line y2="-30489" y1="-31055" x2="-30720" x1="-29735" fill="none"/><line y2="-30706" y1="-31133" x2="-30682" x1="-29943" fill="none"/><line y2="-31055" y1="-32193" x2="-29735" x1="-29735" fill="none"/><line y2="-31055" y1="-30489" x2="-31705" x1="-30720" fill="none"/><line y2="-32193" y1="-32762" x2="-29735" x1="-30720" fill="none"/><line y2="-32118" y1="-32543" x2="-29943" x1="-30682" fill="none"/><line y2="-32193" y1="-31055" x2="-31705" x1="-31705" fill="none"/><line y2="-32052" y1="-31200" x2="-31535" x1="-31535" fill="none"/><line y2="-32762" y1="-32193" x2="-30720" x1="-31705" fill="none"/><line y2="-30642" y1="-31055" x2="-32422" x1="-31705" fill="none"/><line y2="-29264" y1="-28961" x2="-30261" x1="-29735" fill="none"/><line y2="-28132" y1="-28961" x2="-29663" x1="-29663" fill="none"/><line y2="-28132" y1="-28961" x2="-29804" x1="-29804" fill="none"/><polygon stroke-width="1" stroke="none" points=" -28825 -30532 -28758 -29484 -28894 -29484"/><polygon stroke-width="1" points=" -28825 -30532 -28758 -29484 -28894 -29484" fill="none"/><text y="-29304" xml:space="preserve" x="-27164" stroke-width="1" stroke="none" font-size="433.3333" font-family="sans-serif">O</text><text y="-30876" xml:space="preserve" x="-28071" stroke-width="1" stroke="none" font-size="433.3333" font-family="sans-serif">NH</text><text y="-30876" xml:space="preserve" x="-26257" stroke-width="1" stroke="none" font-size="433.3333" font-family="sans-serif">O</text><text y="-29304" xml:space="preserve" x="-30792" stroke-width="1" stroke="none" font-size="433.3333" font-family="sans-serif">OH</text><text y="-27733" xml:space="preserve" x="-29885" stroke-width="1" stroke="none" font-size="433.3333" font-family="sans-serif">O</text><text y="-30353" xml:space="preserve" x="-32762" stroke-width="1" stroke="none" font-size="433.3333" font-family="sans-serif">F</text></g><g transform="translate(32866,32866)" text-rendering="geometricPrecision" stroke-linejoin="round" stroke-linecap="round" font-style="italic" font-size="313.3333" font-family="sans-serif"><text y="-30656" xml:space="preserve" x="-28978" stroke="none">S</text></g></g></svg>