<svg width="340.38" viewBox="0 0 11346 3896" text-rendering="auto" stroke-width="1" stroke-opacity="1" stroke-miterlimit="10" stroke-linejoin="miter" stroke-linecap="square" stroke-dashoffset="0" stroke-dasharray="none" stroke="black" shape-rendering="auto" image-rendering="auto" height="116.88" font-weight="normal" font-style="normal" font-size="12" font-family="'Dialog'" fill-opacity="1" fill="black" color-rendering="auto" color-interpolation="auto" xmlns="http://www.w3.org/2000/svg"><g><g stroke="white" fill="white"><rect y="0" x="0" width="11346" stroke="none" height="3896"/></g><g transform="translate(32866,32758)" text-rendering="geometricPrecision" stroke-width="44" stroke-linejoin="round" stroke-linecap="round"><line y2="-30850" y1="-31176" x2="-30489" x1="-31055" fill="none"/><line y2="-31376" y1="-30850" x2="-29582" x1="-30489" fill="none"/><line y2="-30850" y1="-31376" x2="-28675" x1="-29582" fill="none"/><line y2="-31376" y1="-30850" x2="-27768" x1="-28675" fill="none"/><line y2="-30850" y1="-31376" x2="-26860" x1="-27768" fill="none"/><line y2="-31376" y1="-30850" x2="-25953" x1="-26860" fill="none"/><line y2="-30850" y1="-31376" x2="-25046" x1="-25953" fill="none"/><line y2="-31376" y1="-30850" x2="-24139" x1="-25046" fill="none"/><line y2="-31046" y1="-31376" x2="-23570" x1="-24139" fill="none"/><line y2="-30931" y1="-31179" x2="-32164" x1="-31737" fill="none"/><line y2="-32202" y1="-31595" x2="-31396" x1="-31396" fill="none"/><line y2="-31832" y1="-31572" x2="-32190" x1="-31737" fill="none"/><line y2="-31312" y1="-31049" x2="-22435" x1="-22891" fill="none"/><line y2="-29521" y1="-30630" x2="-23232" x1="-23232" fill="none"/><line y2="-30391" y1="-30654" x2="-22435" x1="-22891" fill="none"/><text y="-30671" xml:space="preserve" x="-23463" stroke="none" font-size="433.3333" font-family="sans-serif">Si</text><text y="-31240" xml:space="preserve" x="-22400" stroke="none" font-size="433.3333" font-family="sans-serif">CH</text><text y="-31150" xml:space="preserve" x="-21822" stroke="none" font-size="313.3333" font-family="sans-serif">3</text><text y="-29122" xml:space="preserve" x="-23382" stroke="none" font-size="433.3333" font-family="sans-serif">CH</text><text y="-29033" xml:space="preserve" x="-22804" stroke="none" font-size="313.3333" font-family="sans-serif">3</text><text y="-30015" xml:space="preserve" x="-22328" stroke="none" font-size="433.3333" font-family="sans-serif">Cl</text><text y="-31197" xml:space="preserve" x="-31627" stroke="none" font-size="433.3333" font-family="sans-serif">Si</text><text y="-30532" xml:space="preserve" x="-32696" stroke="none" font-size="433.3333" font-family="sans-serif">CH</text><text y="-30443" xml:space="preserve" x="-32118" stroke="none" font-size="313.3333" font-family="sans-serif">3</text><text y="-32242" xml:space="preserve" x="-31549" stroke="none" font-size="433.3333" font-family="sans-serif">CH</text><text y="-32153" xml:space="preserve" x="-30971" stroke="none" font-size="313.3333" font-family="sans-serif">3</text><text y="-31852" xml:space="preserve" x="-32762" stroke="none" font-size="433.3333" font-family="sans-serif">Cl</text></g></g></svg>