<svg width="225.33" viewBox="0 0 7511 4508" text-rendering="auto" stroke-width="1" stroke-opacity="1" stroke-miterlimit="10" stroke-linejoin="miter" stroke-linecap="square" stroke-dashoffset="0" stroke-dasharray="none" stroke="black" shape-rendering="auto" image-rendering="auto" height="135.24" font-weight="normal" font-style="normal" font-size="12" font-family="'Dialog'" fill-opacity="1" fill="black" color-rendering="auto" color-interpolation="auto" xmlns="http://www.w3.org/2000/svg"><g><g stroke="white" fill="white"><rect y="0" x="0" width="7511" stroke="none" height="4508"/></g><g transform="translate(32866,32758)" text-rendering="geometricPrecision" stroke-width="44" stroke-linejoin="round" stroke-linecap="round"><line y2="-30434" y1="-29229" x2="-30694" x1="-30694" fill="none"/><line y2="-29229" y1="-28735" x2="-30694" x1="-29848" fill="none"/><line y2="-28626" y1="-29229" x2="-31728" x1="-30694" fill="none"/><line y2="-28848" y1="-29302" x2="-31685" x1="-30908" fill="none"/><line y2="-31555" y1="-30434" x2="-30264" x1="-30694" fill="none"/><line y2="-30434" y1="-31038" x2="-30694" x1="-31728" fill="none"/><line y2="-30365" y1="-30815" x2="-30908" x1="-31685" fill="none"/><line y2="-28845" y1="-29229" x2="-29284" x1="-28626" fill="none"/><line y2="-29229" y1="-28626" x2="-32762" x1="-31728" fill="none"/><line y2="-31555" y1="-31555" x2="-29247" x1="-30264" fill="none"/><line y2="-31038" y1="-30434" x2="-31728" x1="-32762" fill="none"/><line y2="-30434" y1="-29229" x2="-28626" x1="-28626" fill="none"/><line y2="-29229" y1="-28626" x2="-28626" x1="-27594" fill="none"/><line y2="-29302" y1="-28848" x2="-28412" x1="-27638" fill="none"/><line y2="-30434" y1="-29229" x2="-32762" x1="-32762" fill="none"/><line y2="-30284" y1="-29380" x2="-32592" x1="-32592" fill="none"/><line y2="-30434" y1="-31335" x2="-28626" x1="-28972" fill="none"/><line y2="-31038" y1="-30434" x2="-27594" x1="-28626" fill="none"/><line y2="-30815" y1="-30365" x2="-27638" x1="-28412" fill="none"/><line y2="-28626" y1="-29229" x2="-27594" x1="-26560" fill="none"/><line y2="-30434" y1="-31038" x2="-26560" x1="-27594" fill="none"/><line y2="-29229" y1="-30434" x2="-26560" x1="-26560" fill="none"/><line y2="-29380" y1="-30284" x2="-26730" x1="-26730" fill="none"/><line y2="-30763" y1="-30434" x2="-25991" x1="-26560" fill="none"/><line y2="-32164" y1="-31514" x2="-30760" x1="-30321" fill="none"/><line y2="-32242" y1="-31592" x2="-30642" x1="-30206" fill="none"/><text y="-32242" xml:space="preserve" x="-31000" stroke="none" font-size="433.3333" font-family="sans-serif">O</text><text y="-30781" xml:space="preserve" x="-25884" stroke="none" font-size="433.3333" font-family="sans-serif">Cl</text><text y="-28446" xml:space="preserve" x="-29813" stroke="none" font-size="433.3333" font-family="sans-serif">NH</text><text y="-31376" xml:space="preserve" x="-29209" stroke="none" font-size="433.3333" font-family="sans-serif">NH</text></g></g></svg>