<svg width="270.99" viewBox="0 0 9033 7016" text-rendering="auto" stroke-width="1" stroke-opacity="1" stroke-miterlimit="10" stroke-linejoin="miter" stroke-linecap="square" stroke-dashoffset="0" stroke-dasharray="none" stroke="black" shape-rendering="auto" image-rendering="auto" height="210.48" font-weight="normal" font-style="normal" font-size="12" font-family="'Dialog'" fill-opacity="1" fill="black" color-rendering="auto" color-interpolation="auto" xmlns="http://www.w3.org/2000/svg"><g><g stroke="white" fill="white"><rect y="0" x="0" width="9033" stroke="none" height="7016"/></g><g transform="translate(32866,32758)" text-rendering="geometricPrecision" stroke-width="44" stroke-linejoin="round" stroke-linecap="round"><line y2="-28608" y1="-29302" x2="-29209" x1="-28022" fill="none"/><line y2="-29302" y1="-28608" x2="-30391" x1="-29209" fill="none"/><line y2="-29302" y1="-29302" x2="-28022" x1="-25653" fill="none"/><line y2="-30682" y1="-29302" x2="-28022" x1="-28022" fill="none"/><line y2="-30463" y1="-29302" x2="-30391" x1="-30391" fill="none"/><line y2="-26540" y1="-27921" x2="-30391" x1="-30391" fill="none"/><line y2="-27921" y1="-28608" x2="-30391" x1="-31575" fill="none"/><line y2="-27860" y1="-28377" x2="-30625" x1="-31514" fill="none"/><line y2="-26759" y1="-27921" x2="-28022" x1="-28022" fill="none"/><line y2="-30122" y1="-29302" x2="-27892" x1="-25653" fill="none"/><line y2="-30388" y1="-30220" x2="-28614" x1="-28155" fill="none"/><line y2="-29302" y1="-30682" x2="-25653" x1="-25653" fill="none"/><line y2="-30682" y1="-31968" x2="-28022" x1="-28516" fill="none"/><line y2="-31266" y1="-30682" x2="-27025" x1="-28022" fill="none"/><line y2="-30388" y1="-29252" x2="-28614" x1="-29059" fill="none"/><line y2="-31968" y1="-30902" x2="-29897" x1="-30307" fill="none"/><line y2="-26540" y1="-26540" x2="-30391" x1="-28212" fill="none"/><line y2="-25846" y1="-26540" x2="-31575" x1="-30391" fill="none"/><line y2="-26080" y1="-26598" x2="-31514" x1="-30625" fill="none"/><line y2="-28608" y1="-27921" x2="-31575" x1="-32762" fill="none"/><line y2="-31968" y1="-30388" x2="-28516" x1="-28614" fill="none"/><line y2="-30682" y1="-31266" x2="-25653" x1="-26650" fill="none"/><line y2="-31968" y1="-31968" x2="-28516" x1="-29897" fill="none"/><line y2="-26540" y1="-25846" x2="-32762" x1="-31575" fill="none"/><line y2="-27921" y1="-26540" x2="-32762" x1="-32762" fill="none"/><line y2="-27747" y1="-26710" x2="-32592" x1="-32592" fill="none"/><line y2="-28559" y1="-29302" x2="-24913" x1="-25653" fill="none"/><line y2="-29085" y1="-28559" x2="-24006" x1="-24913" fill="none"/><line y2="-28964" y1="-28441" x2="-23937" x1="-24844" fill="none"/><line y2="-32202" y1="-31595" x2="-26837" x1="-26837" fill="none"/><line y2="-27840" y1="-27987" x2="-27167" x1="-28002" fill="none"/><line y2="-27701" y1="-27848" x2="-27193" x1="-28022" fill="none"/><line y2="-29137" y1="-29302" x2="-31231" x1="-30391" fill="none"/><polygon stroke-width="1" stroke="none" points=" -29209 -28608 -27990 -27978 -28056 -27860"/><polygon stroke-width="1" points=" -29209 -28608 -27990 -27978 -28056 -27860" fill="none"/><polygon stroke-width="1" stroke="none" points=" -30391 -29302 -29056 -29319 -29059 -29183"/><polygon stroke-width="1" points=" -30391 -29302 -29056 -29319 -29059 -29183" fill="none"/><polygon stroke-width="1" stroke="none" points=" -28614 -30388 -29432 -30506 -29400 -30639"/><polygon stroke-width="1" points=" -28614 -30388 -29432 -30506 -29400 -30639" fill="none"/><line y2="-27978" y1="-27860" x2="-30425" x1="-30356" fill="none"/><line y2="-28078" y1="-27978" x2="-30232" x1="-30174" fill="none"/><line y2="-28178" y1="-28097" x2="-30040" x1="-29993" fill="none"/><line y2="-28277" y1="-28215" x2="-29847" x1="-29811" fill="none"/><line y2="-28377" y1="-28334" x2="-29654" x1="-29629" fill="none"/><line y2="-28477" y1="-28452" x2="-29462" x1="-29447" fill="none"/><line y2="-28577" y1="-28571" x2="-29269" x1="-29266" fill="none"/><line y2="-28490" y1="-28524" x2="-27877" x1="-27744" fill="none"/><line y2="-28704" y1="-28729" x2="-27915" x1="-27817" fill="none"/><line y2="-28918" y1="-28934" x2="-27953" x1="-27890" fill="none"/><line y2="-29132" y1="-29139" x2="-27992" x1="-27964" fill="none"/><line y2="-31824" y1="-31821" x2="-27955" x1="-28091" fill="none"/><line y2="-31607" y1="-31605" x2="-27968" x1="-28078" fill="none"/><line y2="-31390" y1="-31388" x2="-27980" x1="-28065" fill="none"/><line y2="-31173" y1="-31172" x2="-27993" x1="-28052" fill="none"/><line y2="-30956" y1="-30955" x2="-28006" x1="-28039" fill="none"/><line y2="-30739" y1="-30739" x2="-28019" x1="-28025" fill="none"/><text y="-27560" xml:space="preserve" x="-27144" stroke="none" font-size="433.3333" font-family="sans-serif">O</text><text y="-32242" xml:space="preserve" x="-26990" stroke="none" font-size="433.3333" font-family="sans-serif">CH</text><text y="-32153" xml:space="preserve" x="-26413" stroke="none" font-size="313.3333" font-family="sans-serif">3</text><text y="-30503" xml:space="preserve" x="-30544" stroke="none" font-size="433.3333" font-family="sans-serif">O</text><text y="-26361" xml:space="preserve" x="-28175" stroke="none" font-size="433.3333" font-family="sans-serif">NH</text><text y="-31197" xml:space="preserve" x="-26990" stroke="none" font-size="433.3333" font-family="sans-serif">N</text><text y="-28108" xml:space="preserve" x="-27903" stroke="none" font-size="433.3333" font-family="sans-serif">H</text><text y="-28920" xml:space="preserve" x="-31572" stroke="none" font-size="433.3333" font-family="sans-serif">H</text><text y="-31864" xml:space="preserve" x="-28175" stroke="none" font-size="433.3333" font-family="sans-serif">H</text><text y="-30437" xml:space="preserve" x="-29755" stroke="none" font-size="433.3333" font-family="sans-serif">H</text><text y="-28732" xml:space="preserve" x="-29359" stroke="none" font-style="italic" font-size="313.3333" font-family="sans-serif">S</text><text y="-29264" xml:space="preserve" x="-28423" stroke="none" font-style="italic" font-size="313.3333" font-family="sans-serif">S</text><text y="-28839" xml:space="preserve" x="-30593" stroke="none" font-style="italic" font-size="313.3333" font-family="sans-serif">R</text><text y="-28851" xml:space="preserve" x="-25904" stroke="none" font-style="italic" font-size="313.3333" font-family="sans-serif">S</text><text y="-30454" xml:space="preserve" x="-28458" stroke="none" font-style="italic" font-size="313.3333" font-family="sans-serif">S</text><text y="-29949" xml:space="preserve" x="-28646" stroke="none" font-style="italic" font-size="313.3333" font-family="sans-serif">R</text><text y="-31520" xml:space="preserve" x="-28987" stroke="none" font-style="italic" font-size="313.3333" font-family="sans-serif">S</text></g></g></svg>