<svg width="287.64" viewBox="0 0 9588 4299" text-rendering="auto" stroke-width="1" stroke-opacity="1" stroke-miterlimit="10" stroke-linejoin="miter" stroke-linecap="square" stroke-dashoffset="0" stroke-dasharray="none" stroke="black" shape-rendering="auto" image-rendering="auto" height="128.97" font-weight="normal" font-style="normal" font-size="12" font-family="'Dialog'" fill-opacity="1" fill="black" color-rendering="auto" color-interpolation="auto" xmlns="http://www.w3.org/2000/svg"><g><g stroke="white" fill="white"><rect y="0" x="0" width="9588" stroke="none" height="4299"/></g><g transform="translate(32866,32866)" text-rendering="geometricPrecision" stroke-width="44" stroke-linejoin="round" stroke-linecap="round"><line y2="-30668" y1="-31234" x2="-29732" x1="-30717" fill="none"/><line y2="-30590" y1="-31018" x2="-29940" x1="-30680" fill="none"/><line y2="-29530" y1="-30668" x2="-29732" x1="-29732" fill="none"/><line y2="-31234" y1="-30668" x2="-30717" x1="-31702" fill="none"/><line y2="-28961" y1="-29530" x2="-30717" x1="-29732" fill="none"/><line y2="-29177" y1="-29605" x2="-30680" x1="-29940" fill="none"/><line y2="-30668" y1="-29530" x2="-31702" x1="-31702" fill="none"/><line y2="-30524" y1="-29671" x2="-31532" x1="-31532" fill="none"/><line y2="-29530" y1="-28961" x2="-31702" x1="-30717" fill="none"/><line y2="-31191" y1="-30668" x2="-28825" x1="-29732" fill="none"/><line y2="-29226" y1="-29530" x2="-32231" x1="-31702" fill="none"/><line y2="-30775" y1="-31191" x2="-28106" x1="-28825" fill="none"/><line y2="-31191" y1="-30888" x2="-27011" x1="-27539" fill="none"/><line y2="-30668" y1="-31191" x2="-26104" x1="-27011" fill="none"/><line y2="-31081" y1="-30668" x2="-25384" x1="-26104" fill="none"/><line y2="-32020" y1="-31191" x2="-28894" x1="-28894" fill="none"/><line y2="-32020" y1="-31191" x2="-28756" x1="-28756" fill="none"/><line y2="-30668" y1="-31081" x2="-24289" x1="-25009" fill="none"/><line y2="-31191" y1="-30668" x2="-23382" x1="-24289" fill="none"/><line y2="-32240" y1="-31410" x2="-25196" x1="-25196" fill="none"/><line y2="-32762" y1="-32240" x2="-24289" x1="-25196" fill="none"/><text y="-30489" xml:space="preserve" x="-28071" stroke="none" font-size="433.3333" font-family="sans-serif">NH</text><text y="-32060" xml:space="preserve" x="-28978" stroke="none" font-size="433.3333" font-family="sans-serif">O</text><text y="-31012" xml:space="preserve" x="-25350" stroke="none" font-size="433.3333" font-family="sans-serif">N</text><text y="-28828" xml:space="preserve" x="-32762" stroke="none" font-size="433.3333" font-family="sans-serif">NH</text><text y="-28738" xml:space="preserve" x="-32185" stroke="none" font-size="313.3333" font-family="sans-serif">2</text></g></g></svg>