<svg width="284.4" viewBox="0 0 9480 9016" text-rendering="auto" stroke-width="1" stroke-opacity="1" stroke-miterlimit="10" stroke-linejoin="miter" stroke-linecap="square" stroke-dashoffset="0" stroke-dasharray="none" stroke="black" shape-rendering="auto" image-rendering="auto" height="270.48" font-weight="normal" font-style="normal" font-size="12" font-family="'Dialog'" fill-opacity="1" fill="black" color-rendering="auto" color-interpolation="auto" xmlns="http://www.w3.org/2000/svg"><g><g stroke="white" fill="white"><rect y="0" x="0" width="9480" stroke="none" height="9016"/></g><g transform="translate(32866,32852)" text-rendering="geometricPrecision" stroke-width="44" stroke-linejoin="round" stroke-linecap="round"><line y2="-25315" y1="-26462" x2="-26866" x1="-26866" fill="none"/><line y2="-26462" y1="-27034" x2="-26866" x1="-27848" fill="none"/><line y2="-27034" y1="-26462" x2="-25884" x1="-26866" fill="none"/><line y2="-25315" y1="-24740" x2="-26866" x1="-25884" fill="none"/><line y2="-24740" y1="-25315" x2="-27848" x1="-26866" fill="none"/><line y2="-27034" y1="-26462" x2="-27848" x1="-28831" fill="none"/><line y2="-26462" y1="-27034" x2="-24902" x1="-25884" fill="none"/><line y2="-24740" y1="-25315" x2="-25884" x1="-24902" fill="none"/><line y2="-25315" y1="-24740" x2="-28831" x1="-27848" fill="none"/><line y2="-26462" y1="-25315" x2="-28831" x1="-28831" fill="none"/><line y2="-25315" y1="-26462" x2="-24902" x1="-24902" fill="none"/><line y2="-28605" y1="-28082" x2="-28756" x1="-27848" fill="none"/><line y2="-23940" y1="-24740" x2="-26557" x1="-25884" fill="none"/><line y2="-23940" y1="-24740" x2="-25211" x1="-25884" fill="none"/><line y2="-26985" y1="-26462" x2="-29738" x1="-28831" fill="none"/><line y2="-26863" y1="-26340" x2="-29807" x1="-28900" fill="none"/><line y2="-30226" y1="-29654" x2="-29738" x1="-28756" fill="none"/><line y2="-29654" y1="-30226" x2="-28756" x1="-27773" fill="none"/><line y2="-31373" y1="-30226" x2="-29738" x1="-29738" fill="none"/><line y2="-29654" y1="-30226" x2="-30720" x1="-29738" fill="none"/><line y2="-30226" y1="-31373" x2="-27773" x1="-27773" fill="none"/><line y2="-31373" y1="-31945" x2="-29738" x1="-30720" fill="none"/><line y2="-31945" y1="-31373" x2="-28756" x1="-29738" fill="none"/><line y2="-30226" y1="-29654" x2="-31702" x1="-30720" fill="none"/><line y2="-31373" y1="-31945" x2="-27773" x1="-28756" fill="none"/><line y2="-31945" y1="-31373" x2="-30720" x1="-31702" fill="none"/><line y2="-31373" y1="-30226" x2="-31702" x1="-31702" fill="none"/><line y2="-32748" y1="-31945" x2="-30047" x1="-30720" fill="none"/><line y2="-32748" y1="-31945" x2="-31393" x1="-30720" fill="none"/><line y2="-29703" y1="-30226" x2="-26866" x1="-27773" fill="none"/><line y2="-29582" y1="-30108" x2="-26936" x1="-27843" fill="none"/><polygon stroke-width="1" stroke="none" points=" -26866 -25315 -26797 -24486 -26936 -24486"/><polygon stroke-width="1" points=" -26866 -25315 -26797 -24486 -26936 -24486" fill="none"/><polygon stroke-width="1" stroke="none" points=" -29738 -31373 -29807 -32199 -29668 -32202"/><polygon stroke-width="1" points=" -29738 -31373 -29807 -32199 -29668 -32202" fill="none"/><line y2="-28082" y1="-28080" x2="-27779" x1="-27918" fill="none"/><line y2="-27865" y1="-27864" x2="-27793" x1="-27904" fill="none"/><line y2="-27648" y1="-27647" x2="-27808" x1="-27889" fill="none"/><line y2="-27431" y1="-27431" x2="-27822" x1="-27875" fill="none"/><line y2="-27215" y1="-27214" x2="-27836" x1="-27860" fill="none"/><line y2="-28605" y1="-28605" x2="-28825" x1="-28686" fill="none"/><line y2="-28822" y1="-28822" x2="-28811" x1="-28700" fill="none"/><line y2="-29038" y1="-29038" x2="-28796" x1="-28715" fill="none"/><line y2="-29255" y1="-29255" x2="-28782" x1="-28729" fill="none"/><line y2="-29472" y1="-29472" x2="-28768" x1="-28744" fill="none"/><line y2="-27508" y1="-27508" x2="-26797" x1="-26936" fill="none"/><line y2="-27291" y1="-27291" x2="-26811" x1="-26922" fill="none"/><line y2="-27075" y1="-27075" x2="-26826" x1="-26907" fill="none"/><line y2="-26858" y1="-26858" x2="-26840" x1="-26893" fill="none"/><line y2="-26641" y1="-26641" x2="-26854" x1="-26878" fill="none"/><line y2="-24838" y1="-24960" x2="-24214" x1="-24148" fill="none"/><line y2="-24962" y1="-25052" x2="-24393" x1="-24344" fill="none"/><line y2="-25086" y1="-25145" x2="-24572" x1="-24541" fill="none"/><line y2="-25210" y1="-25237" x2="-24751" x1="-24737" fill="none"/><line y2="-29177" y1="-29177" x2="-29807" x1="-29668" fill="none"/><line y2="-29394" y1="-29394" x2="-29793" x1="-29682" fill="none"/><line y2="-29610" y1="-29610" x2="-29778" x1="-29697" fill="none"/><line y2="-29827" y1="-29827" x2="-29764" x1="-29711" fill="none"/><line y2="-30044" y1="-30044" x2="-29750" x1="-29726" fill="none"/><line y2="-31737" y1="-31616" x2="-32196" x1="-32263" fill="none"/><line y2="-31607" y1="-31529" x2="-32020" x1="-32063" fill="none"/><line y2="-31478" y1="-31443" x2="-31844" x1="-31864" fill="none"/><text y="-24610" xml:space="preserve" x="-24145" stroke="none" font-size="433.3333" font-family="sans-serif">OH</text><text y="-31717" xml:space="preserve" x="-32762" stroke="none" font-size="433.3333" font-family="sans-serif">OH</text><text y="-24087" xml:space="preserve" x="-27019" stroke="none" font-size="433.3333" font-family="sans-serif">H</text><text y="-32242" xml:space="preserve" x="-29891" stroke="none" font-size="433.3333" font-family="sans-serif">H</text><text y="-26138" xml:space="preserve" x="-26771" stroke="none" font-style="italic" font-size="313.3333" font-family="sans-serif">R</text><text y="-25280" xml:space="preserve" x="-27265" stroke="none" font-style="italic" font-size="313.3333" font-family="sans-serif">R</text><text y="-26551" xml:space="preserve" x="-28002" stroke="none" font-style="italic" font-size="313.3333" font-family="sans-serif">S</text><text y="-25280" xml:space="preserve" x="-25303" stroke="none" font-style="italic" font-size="313.3333" font-family="sans-serif">S</text><text y="-29775" xml:space="preserve" x="-28909" stroke="none" font-style="italic" font-size="313.3333" font-family="sans-serif">S</text><text y="-30191" xml:space="preserve" x="-30139" stroke="none" font-style="italic" font-size="313.3333" font-family="sans-serif">R</text><text y="-31049" xml:space="preserve" x="-29640" stroke="none" font-style="italic" font-size="313.3333" font-family="sans-serif">R</text><text y="-31049" xml:space="preserve" x="-31607" stroke="none" font-style="italic" font-size="313.3333" font-family="sans-serif">S</text></g></g></svg>