<svg width="288.42" viewBox="0 0 9614 13587" text-rendering="auto" stroke-width="1" stroke-opacity="1" stroke-miterlimit="10" stroke-linejoin="miter" stroke-linecap="square" stroke-dashoffset="0" stroke-dasharray="none" stroke="black" shape-rendering="auto" image-rendering="auto" height="407.61" font-weight="normal" font-style="normal" font-size="12" font-family="'Dialog'" fill-opacity="1" fill="black" color-rendering="auto" color-interpolation="auto" xmlns="http://www.w3.org/2000/svg"><g><g stroke="white" fill="white"><rect y="0" x="0" width="9614" stroke="none" height="13587"/></g><g transform="translate(32866,32758)" text-rendering="geometricPrecision" stroke-width="44" stroke-linejoin="round" stroke-linecap="round"><line y2="-24705" y1="-24133" x2="-28831" x1="-29813" fill="none"/><line y2="-24133" y1="-24705" x2="-27848" x1="-28831" fill="none"/><line y2="-24133" y1="-22986" x2="-29813" x1="-29813" fill="none"/><line y2="-23989" y1="-23128" x2="-29642" x1="-29642" fill="none"/><line y2="-23206" y1="-24133" x2="-27848" x1="-27848" fill="none"/><line y2="-22986" y1="-22412" x2="-29813" x1="-30795" fill="none"/><line y2="-22412" y1="-22986" x2="-28831" x1="-29813" fill="none"/><line y2="-22412" y1="-22877" x2="-28831" x1="-28036" fill="none"/><line y2="-21268" y1="-22412" x2="-30795" x1="-30795" fill="none"/><line y2="-22412" y1="-22986" x2="-30795" x1="-31777" fill="none"/><line y2="-22336" y1="-22767" x2="-31006" x1="-31743" fill="none"/><line y2="-21268" y1="-22412" x2="-28831" x1="-28831" fill="none"/><line y2="-20693" y1="-21268" x2="-29813" x1="-30795" fill="none"/><line y2="-20693" y1="-21268" x2="-31777" x1="-30795" fill="none"/><line y2="-20912" y1="-21343" x2="-31743" x1="-31006" fill="none"/><line y2="-22986" y1="-22412" x2="-31777" x1="-32762" fill="none"/><line y2="-20693" y1="-21268" x2="-29813" x1="-28831" fill="none"/><line y2="-19546" y1="-20693" x2="-29813" x1="-29813" fill="none"/><line y2="-19690" y1="-20551" x2="-29983" x1="-29983" fill="none"/><line y2="-20693" y1="-19765" x2="-31777" x1="-31777" fill="none"/><line y2="-21268" y1="-20693" x2="-32762" x1="-31777" fill="none"/><line y2="-22412" y1="-21268" x2="-32762" x1="-32762" fill="none"/><line y2="-22270" y1="-21409" x2="-32592" x1="-32592" fill="none"/><line y2="-19546" y1="-19546" x2="-31286" x1="-29813" fill="none"/><line y2="-22570" y1="-22877" x2="-27129" x1="-27661" fill="none"/><line y2="-26167" y1="-25754" x2="-28114" x1="-28831" fill="none"/><line y2="-27574" y1="-26496" x2="-27926" x1="-27926" fill="none"/><line y2="-26109" y1="-25714" x2="-29585" x1="-28900" fill="none"/><line y2="-26231" y1="-25815" x2="-29515" x1="-28796" fill="none"/><line y2="-29541" y1="-29541" x2="-26976" x1="-27926" fill="none"/><line y2="-30524" y1="-29541" x2="-28496" x1="-27926" fill="none"/><line y2="-29541" y1="-28779" x2="-27926" x1="-28368" fill="none"/><line y2="-29761" y1="-30529" x2="-26661" x1="-26219" fill="none"/><line y2="-27574" y1="-29322" x2="-26788" x1="-26788" fill="none"/><line y2="-31298" y1="-30524" x2="-28054" x1="-28496" fill="none"/><line y2="-30524" y1="-30524" x2="-29628" x1="-28496" fill="none"/><line y2="-28340" y1="-27574" x2="-28368" x1="-27926" fill="none"/><line y2="-30529" y1="-31514" x2="-26219" x1="-26788" fill="none"/><line y2="-27574" y1="-27574" x2="-27926" x1="-26788" fill="none"/><line y2="-31514" y1="-31517" x2="-26788" x1="-27739" fill="none"/><line y2="-31737" y1="-32500" x2="-28054" x1="-28496" fill="none"/><line y2="-32500" y1="-30524" x2="-29628" x1="-29628" fill="none"/><line y2="-32500" y1="-32500" x2="-28496" x1="-29628" fill="none"/><line y2="-30004" y1="-30529" x2="-24263" x1="-25173" fill="none"/><line y2="-27068" y1="-27623" x2="-26187" x1="-26739" fill="none"/><line y2="-26970" y1="-27525" x2="-26286" x1="-26837" fill="none"/><line y2="-32237" y1="-31549" x2="-26453" x1="-26849" fill="none"/><line y2="-32167" y1="-31480" x2="-26329" x1="-26728" fill="none"/><line y2="-30529" y1="-30004" x2="-23356" x1="-24263" fill="none"/><line y2="-28958" y1="-30004" x2="-24263" x1="-24263" fill="none"/><line y2="-28481" y1="-27574" x2="-29495" x1="-28972" fill="none"/><line y2="-26667" y1="-27574" x2="-29495" x1="-28972" fill="none"/><polygon stroke-width="1" stroke="none" points=" -28831 -24705 -28900 -25751 -28761 -25754"/><polygon stroke-width="1" points=" -28831 -24705 -28900 -25751 -28761 -25754" fill="none"/><polygon stroke-width="1" stroke="none" points=" -28831 -22412 -28900 -23241 -28761 -23241"/><polygon stroke-width="1" points=" -28831 -22412 -28900 -23241 -28761 -23241" fill="none"/><polygon stroke-width="1" stroke="none" points=" -27926 -27574 -28972 -27505 -28972 -27643"/><polygon stroke-width="1" points=" -27926 -27574 -28972 -27505 -28972 -27643" fill="none"/><polygon stroke-width="1" stroke="none" points=" -28496 -30524 -27635 -30593 -27635 -30457"/><polygon stroke-width="1" points=" -28496 -30524 -27635 -30593 -27635 -30457" fill="none"/><line y2="-30460" y1="-30599" x2="-25173" x1="-25173" fill="none"/><line y2="-30474" y1="-30585" x2="-25390" x1="-25390" fill="none"/><line y2="-30489" y1="-30570" x2="-25606" x1="-25606" fill="none"/><line y2="-30503" y1="-30556" x2="-25823" x1="-25823" fill="none"/><line y2="-30517" y1="-30541" x2="-26040" x1="-26040" fill="none"/><line y2="-29611" y1="-29472" x2="-28478" x1="-28478" fill="none"/><line y2="-29584" y1="-29499" x2="-28261" x1="-28261" fill="none"/><line y2="-29556" y1="-29526" x2="-28045" x1="-28045" fill="none"/><text y="-29362" xml:space="preserve" x="-29125" stroke="none" font-size="433.3333" font-family="sans-serif">OH</text><text y="-26652" xml:space="preserve" x="-26199" stroke="none" font-size="433.3333" font-family="sans-serif">O</text><text y="-26098" xml:space="preserve" x="-28077" stroke="none" font-size="433.3333" font-family="sans-serif">NH</text><text y="-26098" xml:space="preserve" x="-29891" stroke="none" font-size="433.3333" font-family="sans-serif">O</text><text y="-32242" xml:space="preserve" x="-26416" stroke="none" font-size="433.3333" font-family="sans-serif">O</text><text y="-22284" xml:space="preserve" x="-27094" stroke="none" font-size="433.3333" font-family="sans-serif">CH</text><text y="-22195" xml:space="preserve" x="-26517" stroke="none" font-size="313.3333" font-family="sans-serif">3</text><text y="-29362" xml:space="preserve" x="-26941" stroke="none" font-size="433.3333" font-family="sans-serif">N</text><text y="-28380" xml:space="preserve" x="-28646" stroke="none" font-size="433.3333" font-family="sans-serif">O</text><text y="-31338" xml:space="preserve" x="-28080" stroke="none" font-size="433.3333" font-family="sans-serif">N</text><text y="-22807" xml:space="preserve" x="-28002" stroke="none" font-size="433.3333" font-family="sans-serif">N</text><text y="-19367" xml:space="preserve" x="-31930" stroke="none" font-size="433.3333" font-family="sans-serif">NH</text><text y="-23281" xml:space="preserve" x="-28984" stroke="none" font-size="433.3333" font-family="sans-serif">H</text><text y="-30344" xml:space="preserve" x="-27600" stroke="none" font-size="433.3333" font-family="sans-serif">H</text><text y="-29611" xml:space="preserve" x="-27935" stroke="none" font-style="italic" font-size="313.3333" font-family="sans-serif">S</text><text y="-30096" xml:space="preserve" x="-28790" stroke="none" font-style="italic" font-size="313.3333" font-family="sans-serif">S</text><text y="-30350" xml:space="preserve" x="-26644" stroke="none" font-style="italic" font-size="313.3333" font-family="sans-serif">S</text><text y="-27643" xml:space="preserve" x="-27935" stroke="none" font-style="italic" font-size="313.3333" font-family="sans-serif">R</text><text y="-24226" xml:space="preserve" x="-28984" stroke="none" font-style="italic" font-size="313.3333" font-family="sans-serif">R</text><text y="-22091" xml:space="preserve" x="-28735" stroke="none" font-style="italic" font-size="313.3333" font-family="sans-serif">R</text></g></g></svg>