<svg width="373.92" viewBox="0 0 12464 6529" text-rendering="auto" stroke-width="1" stroke-opacity="1" stroke-miterlimit="10" stroke-linejoin="miter" stroke-linecap="square" stroke-dashoffset="0" stroke-dasharray="none" stroke="black" shape-rendering="auto" image-rendering="auto" height="195.87" font-weight="normal" font-style="normal" font-size="12" font-family="'Dialog'" fill-opacity="1" fill="black" color-rendering="auto" color-interpolation="auto" xmlns="http://www.w3.org/2000/svg"><g><g stroke="white" fill="white"><rect y="0" x="0" width="12464" stroke="none" height="6529"/></g><g transform="translate(32866,32866)" text-rendering="geometricPrecision" stroke-width="44" stroke-linejoin="round" stroke-linecap="round"><line y2="-30009" y1="-29440" x2="-29608" x1="-28620" fill="none"/><line y2="-31145" y1="-30009" x2="-29608" x1="-29608" fill="none"/><line y2="-29440" y1="-30009" x2="-28620" x1="-27638" fill="none"/><line y2="-29657" y1="-30084" x2="-28582" x1="-27846" fill="none"/><line y2="-31714" y1="-31145" x2="-28620" x1="-29608" fill="none"/><line y2="-31497" y1="-31070" x2="-28660" x1="-29400" fill="none"/><line y2="-30009" y1="-30928" x2="-27638" x1="-27638" fill="none"/><line y2="-31254" y1="-31714" x2="-27825" x1="-28620" fill="none"/><line y2="-29484" y1="-30009" x2="-26730" x1="-27638" fill="none"/><line y2="-30009" y1="-29484" x2="-25823" x1="-26730" fill="none"/><line y2="-29824" y1="-29432" x2="-25867" x1="-26546" fill="none"/><line y2="-29484" y1="-30009" x2="-24916" x1="-25823" fill="none"/><line y2="-29423" y1="-29949" x2="-30480" x1="-29573" fill="none"/><line y2="-29544" y1="-30070" x2="-30550" x1="-29642" fill="none"/><line y2="-32762" y1="-31714" x2="-28620" x1="-28620" fill="none"/><line y2="-29484" y1="-28348" x2="-24916" x1="-24916" fill="none"/><line y2="-29342" y1="-28490" x2="-24746" x1="-24746" fill="none"/><line y2="-30053" y1="-29484" x2="-23928" x1="-24916" fill="none"/><line y2="-28348" y1="-27779" x2="-24916" x1="-23928" fill="none"/><line y2="-29484" y1="-30053" x2="-22946" x1="-23928" fill="none"/><line y2="-29408" y1="-29836" x2="-23154" x1="-23891" fill="none"/><line y2="-27779" y1="-28348" x2="-23928" x1="-22946" fill="none"/><line y2="-27996" y1="-28423" x2="-23891" x1="-23154" fill="none"/><line y2="-28348" y1="-29484" x2="-22946" x1="-22946" fill="none"/><line y2="-27932" y1="-28348" x2="-22227" x1="-22946" fill="none"/><line y2="-29484" y1="-29484" x2="-31564" x1="-30515" fill="none"/><line y2="-28438" y1="-29484" x2="-30515" x1="-30515" fill="none"/><line y2="-28238" y1="-27932" x2="-21320" x1="-21851" fill="none"/><line y2="-26996" y1="-27603" x2="-22039" x1="-22039" fill="none"/><line y2="-29484" y1="-29484" x2="-32422" x1="-31564" fill="none"/><line y2="-29394" y1="-29394" x2="-32422" x1="-31564" fill="none"/><line y2="-29573" y1="-29573" x2="-32422" x1="-31564" fill="none"/><line y2="-28438" y1="-28438" x2="-31373" x1="-30515" fill="none"/><line y2="-28348" y1="-28348" x2="-31373" x1="-30515" fill="none"/><line y2="-28527" y1="-28527" x2="-31373" x1="-30515" fill="none"/><text y="-29304" xml:space="preserve" x="-32762" stroke="none" font-size="433.3333" font-family="sans-serif">N</text><text y="-28259" xml:space="preserve" x="-31714" stroke="none" font-size="433.3333" font-family="sans-serif">N</text><text y="-27643" xml:space="preserve" x="-22189" stroke="none" font-size="433.3333" font-family="sans-serif">N</text><text y="-28169" xml:space="preserve" x="-21282" stroke="none" font-size="433.3333" font-family="sans-serif">CH</text><text y="-28080" xml:space="preserve" x="-20704" stroke="none" font-size="313.3333" font-family="sans-serif">3</text><text y="-26598" xml:space="preserve" x="-22189" stroke="none" font-size="433.3333" font-family="sans-serif">CH</text><text y="-26508" xml:space="preserve" x="-21611" stroke="none" font-size="313.3333" font-family="sans-serif">3</text><text y="-30966" xml:space="preserve" x="-27788" stroke="none" font-size="433.3333" font-family="sans-serif">O</text></g></g></svg>