<svg width="244.29" viewBox="0 0 8143 5475" text-rendering="auto" stroke-width="1" stroke-opacity="1" stroke-miterlimit="10" stroke-linejoin="miter" stroke-linecap="square" stroke-dashoffset="0" stroke-dasharray="none" stroke="black" shape-rendering="auto" image-rendering="auto" height="164.25" font-weight="normal" font-style="normal" font-size="12" font-family="'Dialog'" fill-opacity="1" fill="black" color-rendering="auto" color-interpolation="auto" xmlns="http://www.w3.org/2000/svg"><g><g stroke="white" fill="white"><rect y="0" x="0" width="8143" stroke="none" height="5475"/></g><g transform="translate(32866,32758)" text-rendering="geometricPrecision" stroke-width="44" stroke-linejoin="round" stroke-linecap="round"><line y2="-31046" y1="-29900" x2="-26791" x1="-26791" fill="none"/><line y2="-29328" y1="-29900" x2="-27773" x1="-26791" fill="none"/><line y2="-29900" y1="-29900" x2="-26791" x1="-24827" fill="none"/><line y2="-31621" y1="-31046" x2="-25809" x1="-26791" fill="none"/><line y2="-31046" y1="-31621" x2="-26791" x1="-27773" fill="none"/><line y2="-29900" y1="-29328" x2="-28756" x1="-27773" fill="none"/><line y2="-28181" y1="-29328" x2="-27773" x1="-27773" fill="none"/><line y2="-29900" y1="-31046" x2="-24827" x1="-24827" fill="none"/><line y2="-31046" y1="-31621" x2="-24827" x1="-25809" fill="none"/><line y2="-31621" y1="-31046" x2="-27773" x1="-28756" fill="none"/><line y2="-31046" y1="-29900" x2="-28756" x1="-28756" fill="none"/><line y2="-29900" y1="-29328" x2="-28756" x1="-29741" fill="none"/><line y2="-27609" y1="-28181" x2="-28756" x1="-27773" fill="none"/><line y2="-28181" y1="-29328" x2="-29741" x1="-29741" fill="none"/><line y2="-29328" y1="-29900" x2="-29741" x1="-30723" fill="none"/><line y2="-28181" y1="-27609" x2="-29741" x1="-28756" fill="none"/><line y2="-27609" y1="-28181" x2="-30723" x1="-29741" fill="none"/><line y2="-27825" y1="-28256" x2="-30685" x1="-29949" fill="none"/><line y2="-29900" y1="-29328" x2="-30723" x1="-31705" fill="none"/><line y2="-28181" y1="-27609" x2="-31705" x1="-30723" fill="none"/><line y2="-29328" y1="-28181" x2="-31705" x1="-31705" fill="none"/><line y2="-27704" y1="-28120" x2="-32390" x1="-31670" fill="none"/><line y2="-27825" y1="-28241" x2="-32459" x1="-31740" fill="none"/><polygon stroke-width="1" stroke="none" points=" -26791 -31046 -26860 -32095 -26722 -32095"/><polygon stroke-width="1" points=" -26791 -31046 -26860 -32095 -26722 -32095" fill="none"/><polygon stroke-width="1" stroke="none" points=" -25809 -31621 -26349 -32159 -26245 -32248"/><polygon stroke-width="1" points=" -25809 -31621 -26349 -32159 -26245 -32248" fill="none"/><polygon stroke-width="1" stroke="none" points=" -27773 -29328 -27843 -30154 -27707 -30157"/><polygon stroke-width="1" points=" -27773 -29328 -27843 -30154 -27707 -30157" fill="none"/><polygon stroke-width="1" stroke="none" points=" -29741 -29328 -29807 -30154 -29671 -30157"/><polygon stroke-width="1" points=" -29741 -29328 -29807 -30154 -29671 -30157" fill="none"/><line y2="-32378" y1="-32468" x2="-25084" x1="-25188" fill="none"/><line y2="-32221" y1="-32293" x2="-25234" x1="-25317" fill="none"/><line y2="-32065" y1="-32117" x2="-25384" x1="-25445" fill="none"/><line y2="-31908" y1="-31942" x2="-25534" x1="-25574" fill="none"/><line y2="-31751" y1="-31767" x2="-25684" x1="-25702" fill="none"/><line y2="-29070" y1="-29073" x2="-28825" x1="-28689" fill="none"/><line y2="-29287" y1="-29289" x2="-28807" x1="-28707" fill="none"/><line y2="-29504" y1="-29506" x2="-28789" x1="-28724" fill="none"/><line y2="-29721" y1="-29722" x2="-28771" x1="-28742" fill="none"/><line y2="-29070" y1="-29073" x2="-26860" x1="-26722" fill="none"/><line y2="-29287" y1="-29289" x2="-26842" x1="-26740" fill="none"/><line y2="-29504" y1="-29506" x2="-26824" x1="-26758" fill="none"/><line y2="-29721" y1="-29722" x2="-26806" x1="-26776" fill="none"/><text y="-32242" xml:space="preserve" x="-26635" stroke="none" font-size="433.3333" font-family="sans-serif">OH</text><text y="-27479" xml:space="preserve" x="-32762" stroke="none" font-size="433.3333" font-family="sans-serif">O</text><text y="-30197" xml:space="preserve" x="-27926" stroke="none" font-size="433.3333" font-family="sans-serif">H</text><text y="-28675" xml:space="preserve" x="-28909" stroke="none" font-size="433.3333" font-family="sans-serif">H</text><text y="-28675" xml:space="preserve" x="-26944" stroke="none" font-size="433.3333" font-family="sans-serif">H</text><text y="-30197" xml:space="preserve" x="-29891" stroke="none" font-size="433.3333" font-family="sans-serif">H</text><text y="-29865" xml:space="preserve" x="-27193" stroke="none" font-style="italic" font-size="313.3333" font-family="sans-serif">S</text><text y="-30726" xml:space="preserve" x="-26696" stroke="none" font-style="italic" font-size="313.3333" font-family="sans-serif">S</text><text y="-29004" xml:space="preserve" x="-27678" stroke="none" font-style="italic" font-size="313.3333" font-family="sans-serif">R</text><text y="-31139" xml:space="preserve" x="-25962" stroke="none" font-style="italic" font-size="313.3333" font-family="sans-serif">S</text><text y="-29865" xml:space="preserve" x="-28660" stroke="none" font-style="italic" font-size="313.3333" font-family="sans-serif">S</text><text y="-29004" xml:space="preserve" x="-29642" stroke="none" font-style="italic" font-size="313.3333" font-family="sans-serif">R</text></g></g></svg>