<svg width="255.84" viewBox="0 0 8528 3578" text-rendering="auto" stroke-width="1" stroke-opacity="1" stroke-miterlimit="10" stroke-linejoin="miter" stroke-linecap="square" stroke-dashoffset="0" stroke-dasharray="none" stroke="black" shape-rendering="auto" image-rendering="auto" height="107.34" font-weight="normal" font-style="normal" font-size="12" font-family="'Dialog'" fill-opacity="1" fill="black" color-rendering="auto" color-interpolation="auto" xmlns="http://www.w3.org/2000/svg"><g><g stroke="white" fill="white"><rect y="0" x="0" width="8528" stroke="none" height="3578"/></g><g transform="translate(32866,32758)" text-rendering="geometricPrecision" stroke-width="44" stroke-linejoin="round" stroke-linecap="round"><line y2="-30992" y1="-31561" x2="-29885" x1="-30867" fill="none"/><line y2="-29853" y1="-30992" x2="-29885" x1="-29885" fill="none"/><line y2="-31561" y1="-30992" x2="-30867" x1="-31855" fill="none"/><line y2="-29284" y1="-29853" x2="-30867" x1="-29885" fill="none"/><line y2="-30992" y1="-29853" x2="-31855" x1="-31855" fill="none"/><line y2="-29853" y1="-29284" x2="-31855" x1="-30867" fill="none"/><line y2="-29931" y1="-29504" x2="-31647" x1="-30908" fill="none"/><line y2="-31514" y1="-30992" x2="-28978" x1="-29885" fill="none"/><line y2="-29330" y1="-29853" x2="-32762" x1="-31855" fill="none"/><line y2="-30992" y1="-31514" x2="-28071" x1="-28978" fill="none"/><line y2="-31514" y1="-30992" x2="-27164" x1="-28071" fill="none"/><line y2="-30992" y1="-31514" x2="-26257" x1="-27164" fill="none"/><line y2="-31514" y1="-30992" x2="-25350" x1="-26257" fill="none"/><line y2="-31330" y1="-30937" x2="-25393" x1="-26072" fill="none"/><line y2="-30992" y1="-31514" x2="-24442" x1="-25350" fill="none"/><line y2="-32563" y1="-31514" x2="-25350" x1="-25350" fill="none"/><polygon stroke-width="1" stroke="none" points=" -28978 -31514 -28513 -32456 -28394 -32387"/><polygon stroke-width="1" points=" -28978 -31514 -28513 -32456 -28394 -32387" fill="none"/><line y2="-30515" y1="-30636" x2="-29198" x1="-29131" fill="none"/><line y2="-30639" y1="-30729" x2="-29377" x1="-29327" fill="none"/><line y2="-30763" y1="-30821" x2="-29556" x1="-29524" fill="none"/><line y2="-30888" y1="-30914" x2="-29735" x1="-29720" fill="none"/><line y2="-32237" y1="-32167" x2="-29316" x1="-29434" fill="none"/><line y2="-32040" y1="-31989" x2="-29224" x1="-29310" fill="none"/><line y2="-31843" y1="-31811" x2="-29132" x1="-29185" fill="none"/><line y2="-31645" y1="-31633" x2="-29039" x1="-29061" fill="none"/><text y="-32242" xml:space="preserve" x="-29654" stroke="none" font-size="433.3333" font-family="sans-serif">OH</text><text y="-30290" xml:space="preserve" x="-29131" stroke="none" font-size="433.3333" font-family="sans-serif">H</text><text y="-31035" xml:space="preserve" x="-29131" stroke="none" font-style="italic" font-size="313.3333" font-family="sans-serif">R</text><text y="-31113" xml:space="preserve" x="-30038" stroke="none" font-style="italic" font-size="313.3333" font-family="sans-serif">R</text></g></g></svg>