<svg width="213.09" viewBox="0 0 7103 6744" text-rendering="auto" stroke-width="1" stroke-opacity="1" stroke-miterlimit="10" stroke-linejoin="miter" stroke-linecap="square" stroke-dashoffset="0" stroke-dasharray="none" stroke="black" shape-rendering="auto" image-rendering="auto" height="202.32" font-weight="normal" font-style="normal" font-size="12" font-family="'Dialog'" fill-opacity="1" fill="black" color-rendering="auto" color-interpolation="auto" xmlns="http://www.w3.org/2000/svg"><g><g stroke="white" fill="white"><rect y="0" x="0" width="7103" stroke="none" height="6744"/></g><g transform="translate(32866,32758)" text-rendering="geometricPrecision" stroke-width="44" stroke-linejoin="round" stroke-linecap="round"><line y2="-30599" y1="-30599" x2="-30079" x1="-27973" fill="none"/><line y2="-31815" y1="-30599" x2="-30079" x1="-30079" fill="none"/><line y2="-29992" y1="-30599" x2="-31130" x1="-30079" fill="none"/><line y2="-30214" y1="-30671" x2="-31081" x1="-30295" fill="none"/><line y2="-31815" y1="-30599" x2="-27973" x1="-27973" fill="none"/><line y2="-30599" y1="-29992" x2="-27973" x1="-26918" fill="none"/><line y2="-30671" y1="-30217" x2="-27756" x1="-26964" fill="none"/><line y2="-32315" y1="-31815" x2="-29212" x1="-30079" fill="none"/><line y2="-31815" y1="-32422" x2="-30079" x1="-31130" fill="none"/><line y2="-31743" y1="-32199" x2="-30295" x1="-31081" fill="none"/><line y2="-30599" y1="-29992" x2="-32182" x1="-31130" fill="none"/><line y2="-31815" y1="-32202" x2="-27973" x1="-28643" fill="none"/><line y2="-32422" y1="-31815" x2="-26918" x1="-27973" fill="none"/><line y2="-32199" y1="-31743" x2="-26964" x1="-27756" fill="none"/><line y2="-29992" y1="-30599" x2="-26918" x1="-25867" fill="none"/><line y2="-32422" y1="-31815" x2="-31130" x1="-32182" fill="none"/><line y2="-31815" y1="-30599" x2="-32182" x1="-32182" fill="none"/><line y2="-31662" y1="-30752" x2="-32014" x1="-32014" fill="none"/><line y2="-31815" y1="-32422" x2="-25867" x1="-26918" fill="none"/><line y2="-30599" y1="-31815" x2="-25867" x1="-25867" fill="none"/><line y2="-30752" y1="-31662" x2="-26037" x1="-26037" fill="none"/><line y2="-29163" y1="-29992" x2="-31130" x1="-31130" fill="none"/><line y2="-28420" y1="-28836" x2="-32037" x1="-31318" fill="none"/><line y2="-27372" y1="-28420" x2="-32037" x1="-32037" fill="none"/><line y2="-26390" y1="-27372" x2="-31462" x1="-32037" fill="none"/><line y2="-27372" y1="-26609" x2="-32037" x1="-32482" fill="none"/><line y2="-26390" y1="-26390" x2="-32422" x1="-31462" fill="none"/><text y="-28764" xml:space="preserve" x="-31280" stroke="none" font-size="433.3333" font-family="sans-serif">O</text><text y="-32242" xml:space="preserve" x="-29174" stroke="none" font-size="433.3333" font-family="sans-serif">NH</text><text y="-26210" xml:space="preserve" x="-32762" stroke="none" font-size="433.3333" font-family="sans-serif">O</text></g></g></svg>