<svg width="146.97" viewBox="0 0 4899 3988" text-rendering="auto" stroke-width="1" stroke-opacity="1" stroke-miterlimit="10" stroke-linejoin="miter" stroke-linecap="square" stroke-dashoffset="0" stroke-dasharray="none" stroke="black" shape-rendering="auto" image-rendering="auto" height="119.64" font-weight="normal" font-style="normal" font-size="12" font-family="'Dialog'" fill-opacity="1" fill="black" color-rendering="auto" color-interpolation="auto" xmlns="http://www.w3.org/2000/svg"><g><g stroke="white" fill="white"><rect y="0" x="0" width="4899" stroke="none" height="3988"/></g><g transform="translate(32866,32758)" text-rendering="geometricPrecision" stroke-width="44" stroke-linejoin="round" stroke-linecap="round"><line y2="-30807" y1="-29668" x2="-30948" x1="-30948" fill="none"/><line y2="-31376" y1="-30807" x2="-29960" x1="-30948" fill="none"/><line y2="-29668" y1="-29099" x2="-30948" x1="-29960" fill="none"/><line y2="-30914" y1="-31376" x2="-29166" x1="-29960" fill="none"/><line y2="-29099" y1="-29668" x2="-29960" x1="-28978" fill="none"/><line y2="-29319" y1="-29744" x2="-29923" x1="-29186" fill="none"/><line y2="-29668" y1="-30587" x2="-28978" x1="-28978" fill="none"/><line y2="-31330" y1="-30807" x2="-31855" x1="-30948" fill="none"/><line y2="-29146" y1="-29668" x2="-28071" x1="-28978" fill="none"/><line y2="-29192" y1="-29608" x2="-31633" x1="-30914" fill="none"/><line y2="-29313" y1="-29729" x2="-31702" x1="-30983" fill="none"/><line y2="-32202" y1="-31376" x2="-30030" x1="-30030" fill="none"/><line y2="-32202" y1="-31376" x2="-29891" x1="-29891" fill="none"/><line y2="-30807" y1="-31330" x2="-32762" x1="-31855" fill="none"/><line y2="-32159" y1="-31330" x2="-31925" x1="-31925" fill="none"/><line y2="-32159" y1="-31330" x2="-31786" x1="-31786" fill="none"/><text y="-32199" xml:space="preserve" x="-32008" stroke="none" font-size="433.3333" font-family="sans-serif">O</text><text y="-28966" xml:space="preserve" x="-32008" stroke="none" font-size="433.3333" font-family="sans-serif">O</text><text y="-32242" xml:space="preserve" x="-30113" stroke="none" font-size="433.3333" font-family="sans-serif">O</text><text y="-30628" xml:space="preserve" x="-29131" stroke="none" font-size="433.3333" font-family="sans-serif">O</text></g></g></svg>