<svg width="366.66" viewBox="0 0 12222 5080" text-rendering="auto" stroke-width="1" stroke-opacity="1" stroke-miterlimit="10" stroke-linejoin="miter" stroke-linecap="square" stroke-dashoffset="0" stroke-dasharray="none" stroke="black" shape-rendering="auto" image-rendering="auto" height="152.4" font-weight="normal" font-style="normal" font-size="12" font-family="'Dialog'" fill-opacity="1" fill="black" color-rendering="auto" color-interpolation="auto" xmlns="http://www.w3.org/2000/svg"><g><g stroke="white" fill="white"><rect y="0" x="0" width="12222" stroke="none" height="5080"/></g><g transform="translate(32866,32758)" text-rendering="geometricPrecision" stroke-width="44" stroke-linejoin="round" stroke-linecap="round"><line y2="-29668" y1="-30807" x2="-27915" x1="-27915" fill="none"/><line y2="-30807" y1="-31376" x2="-27915" x1="-28897" fill="none"/><line y2="-31376" y1="-30807" x2="-26927" x1="-27915" fill="none"/><line y2="-31156" y1="-30729" x2="-26964" x1="-27704" fill="none"/><line y2="-29099" y1="-29668" x2="-28897" x1="-27915" fill="none"/><line y2="-29668" y1="-29099" x2="-27915" x1="-26927" fill="none"/><line y2="-29746" y1="-29319" x2="-27704" x1="-26964" fill="none"/><line y2="-31376" y1="-30807" x2="-28897" x1="-29885" fill="none"/><line y2="-30807" y1="-31376" x2="-25942" x1="-26927" fill="none"/><line y2="-29668" y1="-29099" x2="-29885" x1="-28897" fill="none"/><line y2="-29099" y1="-29668" x2="-26927" x1="-25942" fill="none"/><line y2="-29668" y1="-30807" x2="-29885" x1="-29885" fill="none"/><line y2="-30807" y1="-31376" x2="-29885" x1="-30867" fill="none"/><line y2="-30729" y1="-31156" x2="-30093" x1="-30830" fill="none"/><line y2="-29668" y1="-30807" x2="-25942" x1="-25942" fill="none"/><line y2="-29810" y1="-30665" x2="-26112" x1="-26112" fill="none"/><line y2="-29099" y1="-29668" x2="-30867" x1="-29885" fill="none"/><line y2="-29319" y1="-29744" x2="-30830" x1="-30093" fill="none"/><line y2="-31376" y1="-30807" x2="-30867" x1="-31855" fill="none"/><line y2="-29668" y1="-29099" x2="-31855" x1="-30867" fill="none"/><line y2="-30807" y1="-29668" x2="-31855" x1="-31855" fill="none"/><line y2="-30665" y1="-29810" x2="-31685" x1="-31685" fill="none"/><line y2="-31223" y1="-30807" x2="-25222" x1="-25942" fill="none"/><line y2="-31330" y1="-30807" x2="-32762" x1="-31855" fill="none"/><line y2="-28273" y1="-29099" x2="-26927" x1="-26927" fill="none"/><line y2="-28273" y1="-29099" x2="-30867" x1="-30867" fill="none"/><line y2="-32202" y1="-31376" x2="-28966" x1="-28966" fill="none"/><line y2="-32202" y1="-31376" x2="-28828" x1="-28828" fill="none"/><line y2="-28273" y1="-29099" x2="-28828" x1="-28828" fill="none"/><line y2="-28273" y1="-29099" x2="-28966" x1="-28966" fill="none"/><line y2="-31376" y1="-30807" x2="-23145" x1="-24128" fill="none"/><line y2="-30807" y1="-29888" x2="-24128" x1="-24128" fill="none"/><line y2="-30807" y1="-31376" x2="-22157" x1="-23145" fill="none"/><line y2="-29562" y1="-29099" x2="-23940" x1="-23145" fill="none"/><line y2="-29668" y1="-30807" x2="-22157" x1="-22157" fill="none"/><line y2="-29099" y1="-29668" x2="-23145" x1="-22157" fill="none"/><polygon stroke-width="1" stroke="none" points=" -24882 -31162 -24128 -30807 -24812 -31280"/><polygon stroke-width="1" points=" -24882 -31162 -24128 -30807 -24812 -31280" fill="none"/><polygon stroke-width="1" stroke="none" points=" -22157 -29668 -21406 -29313 -21473 -29192"/><polygon stroke-width="1" points=" -22157 -29668 -21406 -29313 -21473 -29192" fill="none"/><line y2="-28051" y1="-28054" x2="-23215" x1="-23076" fill="none"/><line y2="-28268" y1="-28270" x2="-23201" x1="-23090" fill="none"/><line y2="-28485" y1="-28487" x2="-23186" x1="-23105" fill="none"/><line y2="-28702" y1="-28703" x2="-23172" x1="-23119" fill="none"/><line y2="-28919" y1="-28919" x2="-23157" x1="-23133" fill="none"/><line y2="-32202" y1="-32202" x2="-23076" x1="-23215" fill="none"/><line y2="-31985" y1="-31985" x2="-23094" x1="-23197" fill="none"/><line y2="-31769" y1="-31769" x2="-23112" x1="-23178" fill="none"/><line y2="-31552" y1="-31552" x2="-23130" x1="-23160" fill="none"/><line y2="-31162" y1="-31280" x2="-21403" x1="-21473" fill="none"/><line y2="-31069" y1="-31156" x2="-21600" x1="-21652" fill="none"/><line y2="-30977" y1="-31033" x2="-21797" x1="-21830" fill="none"/><line y2="-30884" y1="-30909" x2="-21994" x1="-22009" fill="none"/><text y="-32242" xml:space="preserve" x="-29050" stroke="none" font-size="433.3333" font-family="sans-serif">O</text><text y="-27874" xml:space="preserve" x="-29050" stroke="none" font-size="433.3333" font-family="sans-serif">O</text><text y="-27874" xml:space="preserve" x="-27077" stroke="none" font-size="433.3333" font-family="sans-serif">OH</text><text y="-31150" xml:space="preserve" x="-25188" stroke="none" font-size="433.3333" font-family="sans-serif">O</text><text y="-27874" xml:space="preserve" x="-31020" stroke="none" font-size="433.3333" font-family="sans-serif">OH</text><text y="-32242" xml:space="preserve" x="-23298" stroke="none" font-size="433.3333" font-family="sans-serif">OH</text><text y="-31150" xml:space="preserve" x="-21403" stroke="none" font-size="433.3333" font-family="sans-serif">OH</text><text y="-28966" xml:space="preserve" x="-21403" stroke="none" font-size="433.3333" font-family="sans-serif">OH</text><text y="-29489" xml:space="preserve" x="-24281" stroke="none" font-size="433.3333" font-family="sans-serif">O</text><text y="-30483" xml:space="preserve" x="-24032" stroke="none" font-style="italic" font-size="313.3333" font-family="sans-serif">S</text><text y="-30893" xml:space="preserve" x="-23298" stroke="none" font-style="italic" font-size="313.3333" font-family="sans-serif">R</text><text y="-30483" xml:space="preserve" x="-22559" stroke="none" font-style="italic" font-size="313.3333" font-family="sans-serif">R</text><text y="-29224" xml:space="preserve" x="-23298" stroke="none" font-style="italic" font-size="313.3333" font-family="sans-serif">S</text><text y="-29634" xml:space="preserve" x="-22559" stroke="none" font-style="italic" font-size="313.3333" font-family="sans-serif">R</text></g></g></svg>