<svg width="337.2" viewBox="0 0 11240 3232" text-rendering="auto" stroke-width="1" stroke-opacity="1" stroke-miterlimit="10" stroke-linejoin="miter" stroke-linecap="square" stroke-dashoffset="0" stroke-dasharray="none" stroke="black" shape-rendering="auto" image-rendering="auto" height="96.96" font-weight="normal" font-style="normal" font-size="12" font-family="'Dialog'" fill-opacity="1" fill="black" color-rendering="auto" color-interpolation="auto" xmlns="http://www.w3.org/2000/svg"><g><g stroke="white" fill="white"><rect y="0" x="0" width="11240" stroke="none" height="3232"/></g><g transform="translate(32866,32866)" text-rendering="geometricPrecision" stroke-width="44" stroke-linejoin="round" stroke-linecap="round"><line y2="-32193" y1="-32193" x2="-26730" x1="-27776" fill="none"/><line y2="-32283" y1="-32283" x2="-26730" x1="-27776" fill="none"/><line y2="-32104" y1="-32104" x2="-26730" x1="-27776" fill="none"/><line y2="-32193" y1="-32193" x2="-28825" x1="-27776" fill="none"/><line y2="-32193" y1="-32193" x2="-25682" x1="-26730" fill="none"/><line y2="-31055" y1="-32193" x2="-28825" x1="-28825" fill="none"/><line y2="-31200" y1="-32052" x2="-28995" x1="-28995" fill="none"/><line y2="-32193" y1="-32762" x2="-28825" x1="-29813" fill="none"/><line y2="-30489" y1="-31055" x2="-29813" x1="-28825" fill="none"/><line y2="-32762" y1="-32193" x2="-29813" x1="-30795" fill="none"/><line y2="-32546" y1="-32118" x2="-29850" x1="-30587" fill="none"/><line y2="-31055" y1="-30489" x2="-30795" x1="-29813" fill="none"/><line y2="-31133" y1="-30706" x2="-30587" x1="-29850" fill="none"/><line y2="-32193" y1="-31055" x2="-30795" x1="-30795" fill="none"/><line y2="-30532" y1="-31055" x2="-31702" x1="-30795" fill="none"/><line y2="-32193" y1="-31055" x2="-25682" x1="-25682" fill="none"/><line y2="-32052" y1="-31200" x2="-25511" x1="-25511" fill="none"/><line y2="-32762" y1="-32193" x2="-24694" x1="-25682" fill="none"/><line y2="-31055" y1="-30489" x2="-25682" x1="-24694" fill="none"/><line y2="-32193" y1="-32762" x2="-23712" x1="-24694" fill="none"/><line y2="-32118" y1="-32546" x2="-23920" x1="-24656" fill="none"/><line y2="-30489" y1="-31055" x2="-24694" x1="-23712" fill="none"/><line y2="-30706" y1="-31133" x2="-24656" x1="-23920" fill="none"/><line y2="-31055" y1="-32193" x2="-23712" x1="-23712" fill="none"/><line y2="-30532" y1="-31055" x2="-22804" x1="-23712" fill="none"/><line y2="-30116" y1="-30532" x2="-32422" x1="-31702" fill="none"/><line y2="-30038" y1="-30454" x2="-32378" x1="-31659" fill="none"/><line y2="-30194" y1="-30610" x2="-32468" x1="-31748" fill="none"/><line y2="-30116" y1="-30532" x2="-22085" x1="-22804" fill="none"/><line y2="-30194" y1="-30610" x2="-22042" x1="-22758" fill="none"/><line y2="-30038" y1="-30454" x2="-22131" x1="-22848" fill="none"/><text y="-29830" xml:space="preserve" x="-32762" stroke="none" font-size="433.3333" font-family="sans-serif">N</text><text y="-29830" xml:space="preserve" x="-22050" stroke="none" font-size="433.3333" font-family="sans-serif">N</text></g></g></svg>