<svg width="204.0" viewBox="0 0 6800 5107" text-rendering="auto" stroke-width="1" stroke-opacity="1" stroke-miterlimit="10" stroke-linejoin="miter" stroke-linecap="square" stroke-dashoffset="0" stroke-dasharray="none" stroke="black" shape-rendering="auto" image-rendering="auto" height="153.21" font-weight="normal" font-style="normal" font-size="12" font-family="'Dialog'" fill-opacity="1" fill="black" color-rendering="auto" color-interpolation="auto" xmlns="http://www.w3.org/2000/svg"><g><g stroke="white" fill="white"><rect y="0" x="0" width="6800" stroke="none" height="5107"/></g><g transform="translate(32866,32866)" text-rendering="geometricPrecision" stroke-width="44" stroke-linejoin="round" stroke-linecap="round"><line y2="-29570" y1="-30093" x2="-28140" x1="-29047" fill="none"/><line y2="-29570" y1="-30093" x2="-29954" x1="-29047" fill="none"/><line y2="-31191" y1="-30093" x2="-30948" x1="-29047" fill="none"/><line y2="-30922" y1="-30093" x2="-29047" x1="-29047" fill="none"/><line y2="-29570" y1="-28432" x2="-28140" x1="-28140" fill="none"/><line y2="-29429" y1="-28574" x2="-27970" x1="-27970" fill="none"/><line y2="-30139" y1="-29570" x2="-27152" x1="-28140" fill="none"/><line y2="-28432" y1="-27863" x2="-28140" x1="-27152" fill="none"/><line y2="-29570" y1="-30139" x2="-26170" x1="-27152" fill="none"/><line y2="-29495" y1="-29920" x2="-26378" x1="-27115" fill="none"/><line y2="-27863" y1="-28432" x2="-27152" x1="-26170" fill="none"/><line y2="-28082" y1="-28510" x2="-27115" x1="-26378" fill="none"/><line y2="-28432" y1="-29570" x2="-26170" x1="-26170" fill="none"/><line y2="-29570" y1="-30139" x2="-29954" x1="-30937" fill="none"/><line y2="-29495" y1="-29920" x2="-30162" x1="-30899" fill="none"/><line y2="-28432" y1="-29570" x2="-29954" x1="-29954" fill="none"/><line y2="-30139" y1="-29570" x2="-30937" x1="-31925" fill="none"/><line y2="-27863" y1="-28432" x2="-30937" x1="-29954" fill="none"/><line y2="-28082" y1="-28510" x2="-30899" x1="-30162" fill="none"/><line y2="-29570" y1="-28432" x2="-31925" x1="-31925" fill="none"/><line y2="-29429" y1="-28574" x2="-31754" x1="-31754" fill="none"/><line y2="-28432" y1="-27863" x2="-31925" x1="-30937" fill="none"/><line y2="-32020" y1="-31191" x2="-30948" x1="-30948" fill="none"/><line y2="-32762" y1="-32346" x2="-31855" x1="-31136" fill="none"/><line y2="-32240" y1="-32762" x2="-32762" x1="-31855" fill="none"/><line y2="-30714" y1="-31130" x2="-31633" x1="-30914" fill="none"/><line y2="-30836" y1="-31252" x2="-31702" x1="-30983" fill="none"/><text y="-30963" xml:space="preserve" x="-29200" stroke="none" font-size="433.3333" font-family="sans-serif">OH</text><text y="-32060" xml:space="preserve" x="-31101" stroke="none" font-size="433.3333" font-family="sans-serif">O</text><text y="-30489" xml:space="preserve" x="-32008" stroke="none" font-size="433.3333" font-family="sans-serif">O</text></g></g></svg>