<svg width="284.58" viewBox="0 0 9486 9771" text-rendering="auto" stroke-width="1" stroke-opacity="1" stroke-miterlimit="10" stroke-linejoin="miter" stroke-linecap="square" stroke-dashoffset="0" stroke-dasharray="none" stroke="black" shape-rendering="auto" image-rendering="auto" height="293.13" font-weight="normal" font-style="normal" font-size="12" font-family="'Dialog'" fill-opacity="1" fill="black" color-rendering="auto" color-interpolation="auto" xmlns="http://www.w3.org/2000/svg"><g><g stroke="white" fill="white"><rect y="0" x="0" width="9486" stroke="none" height="9771"/></g><g transform="translate(32866,32758)" text-rendering="geometricPrecision" stroke-width="44" stroke-linejoin="round" stroke-linecap="round"><line y2="-29091" y1="-30238" x2="-27773" x1="-27773" fill="none"/><line y2="-29235" y1="-30093" x2="-27944" x1="-27944" fill="none"/><line y2="-30238" y1="-30700" x2="-27773" x1="-28568" fill="none"/><line y2="-28519" y1="-29091" x2="-28756" x1="-27773" fill="none"/><line y2="-30700" y1="-30238" x2="-28943" x1="-29738" fill="none"/><line y2="-29091" y1="-28519" x2="-29738" x1="-28756" fill="none"/><line y2="-29091" y1="-30238" x2="-29738" x1="-29738" fill="none"/><line y2="-30238" y1="-30810" x2="-29738" x1="-30720" fill="none"/><line y2="-30162" y1="-30590" x2="-29946" x1="-30682" fill="none"/><line y2="-28519" y1="-29091" x2="-30720" x1="-29738" fill="none"/><line y2="-28735" y1="-29166" x2="-30682" x1="-29946" fill="none"/><line y2="-30810" y1="-30238" x2="-30720" x1="-31702" fill="none"/><line y2="-29091" y1="-28519" x2="-31702" x1="-30720" fill="none"/><line y2="-30238" y1="-29091" x2="-31702" x1="-31702" fill="none"/><line y2="-30093" y1="-29235" x2="-31532" x1="-31532" fill="none"/><line y2="-28675" y1="-29091" x2="-27054" x1="-27773" fill="none"/><line y2="-30758" y1="-30238" x2="-26866" x1="-27773" fill="none"/><line y2="-27690" y1="-28519" x2="-30720" x1="-30720" fill="none"/><line y2="-30541" y1="-30238" x2="-32231" x1="-31702" fill="none"/><line y2="-27690" y1="-28519" x2="-28686" x1="-28686" fill="none"/><line y2="-27690" y1="-28519" x2="-28825" x1="-28825" fill="none"/><line y2="-26684" y1="-26115" x2="-26866" x1="-27848" fill="none"/><line y2="-26222" y1="-26684" x2="-26069" x1="-26866" fill="none"/><line y2="-26115" y1="-24977" x2="-27848" x1="-27851" fill="none"/><line y2="-24980" y1="-25896" x2="-25881" x1="-25881" fill="none"/><line y2="-24977" y1="-24408" x2="-27851" x1="-26866" fill="none"/><line y2="-24408" y1="-24980" x2="-26866" x1="-25881" fill="none"/><line y2="-30758" y1="-30188" x2="-26866" x1="-25881" fill="none"/><line y2="-30836" y1="-30408" x2="-26658" x1="-25919" fill="none"/><line y2="-31896" y1="-30758" x2="-26866" x1="-26866" fill="none"/><line y2="-30188" y1="-30758" x2="-25881" x1="-24893" fill="none"/><line y2="-32465" y1="-31896" x2="-25881" x1="-26866" fill="none"/><line y2="-32245" y1="-31821" x2="-25919" x1="-26658" fill="none"/><line y2="-30758" y1="-31896" x2="-24893" x1="-24893" fill="none"/><line y2="-30899" y1="-31754" x2="-25064" x1="-25064" fill="none"/><line y2="-31896" y1="-32465" x2="-24893" x1="-25881" fill="none"/><line y2="-30342" y1="-30758" x2="-24174" x1="-24893" fill="none"/><line y2="-32312" y1="-31896" x2="-24174" x1="-24893" fill="none"/><polygon stroke-width="1" stroke="none" points=" -25881 -24980 -24939 -24515 -25006 -24396"/><polygon stroke-width="1" points=" -25881 -24980 -24939 -24515 -25006 -24396" fill="none"/><polygon stroke-width="1" stroke="none" points=" -27848 -26115 -28409 -26361 -28342 -26479"/><polygon stroke-width="1" points=" -27848 -26115 -28409 -26361 -28342 -26479" fill="none"/><polygon stroke-width="1" stroke="none" points=" -27851 -24977 -28342 -24613 -28412 -24731"/><polygon stroke-width="1" points=" -27851 -24977 -28342 -24613 -28412 -24731" fill="none"/><line y2="-28348" y1="-28345" x2="-26797" x1="-26936" fill="none"/><line y2="-28131" y1="-28129" x2="-26806" x1="-26927" fill="none"/><line y2="-27914" y1="-27912" x2="-26815" x1="-26918" fill="none"/><line y2="-27697" y1="-27696" x2="-26824" x1="-26909" fill="none"/><line y2="-27481" y1="-27479" x2="-26833" x1="-26900" fill="none"/><line y2="-27264" y1="-27263" x2="-26842" x1="-26890" fill="none"/><line y2="-27047" y1="-27046" x2="-26851" x1="-26881" fill="none"/><line y2="-26830" y1="-26830" x2="-26860" x1="-26872" fill="none"/><line y2="-23579" y1="-23582" x2="-26936" x1="-26797" fill="none"/><line y2="-23796" y1="-23798" x2="-26918" x1="-26815" fill="none"/><line y2="-24013" y1="-24015" x2="-26899" x1="-26833" fill="none"/><line y2="-24230" y1="-24231" x2="-26881" x1="-26851" fill="none"/><text y="-28389" xml:space="preserve" x="-27016" stroke="none" font-size="433.3333" font-family="sans-serif">O</text><text y="-27291" xml:space="preserve" x="-28909" stroke="none" font-size="433.3333" font-family="sans-serif">O</text><text y="-30056" xml:space="preserve" x="-24139" stroke="none" font-size="433.3333" font-family="sans-serif">OH</text><text y="-27291" xml:space="preserve" x="-30873" stroke="none" font-size="433.3333" font-family="sans-serif">OH</text><text y="-26462" xml:space="preserve" x="-28909" stroke="none" font-size="433.3333" font-family="sans-serif">OH</text><text y="-32242" xml:space="preserve" x="-24139" stroke="none" font-size="433.3333" font-family="sans-serif">OH</text><text y="-30581" xml:space="preserve" x="-32762" stroke="none" font-size="433.3333" font-family="sans-serif">OH</text><text y="-24275" xml:space="preserve" x="-28909" stroke="none" font-size="433.3333" font-family="sans-serif">OH</text><text y="-23183" xml:space="preserve" x="-27019" stroke="none" font-size="433.3333" font-family="sans-serif">OH</text><text y="-30630" xml:space="preserve" x="-28909" stroke="none" font-size="433.3333" font-family="sans-serif">O</text><text y="-25936" xml:space="preserve" x="-26034" stroke="none" font-size="433.3333" font-family="sans-serif">O</text><text y="-26202" xml:space="preserve" x="-27016" stroke="none" font-style="italic" font-size="313.3333" font-family="sans-serif">S</text><text y="-25794" xml:space="preserve" x="-27753" stroke="none" font-style="italic" font-size="313.3333" font-family="sans-serif">R</text><text y="-24942" xml:space="preserve" x="-27756" stroke="none" font-style="italic" font-size="313.3333" font-family="sans-serif">R</text><text y="-24945" xml:space="preserve" x="-26283" stroke="none" font-style="italic" font-size="313.3333" font-family="sans-serif">S</text><text y="-24532" xml:space="preserve" x="-27019" stroke="none" font-style="italic" font-size="313.3333" font-family="sans-serif">R</text></g></g></svg>