<svg width="332.01" viewBox="0 0 11067 3049" text-rendering="auto" stroke-width="1" stroke-opacity="1" stroke-miterlimit="10" stroke-linejoin="miter" stroke-linecap="square" stroke-dashoffset="0" stroke-dasharray="none" stroke="black" shape-rendering="auto" image-rendering="auto" height="91.47" font-weight="normal" font-style="normal" font-size="12" font-family="'Dialog'" fill-opacity="1" fill="black" color-rendering="auto" color-interpolation="auto" xmlns="http://www.w3.org/2000/svg"><g><g stroke="white" fill="white"><rect y="0" x="0" width="11067" stroke="none" height="3049"/></g><g transform="translate(32866,32758)" text-rendering="geometricPrecision" stroke-width="44" stroke-linejoin="round" stroke-linecap="round"><line y2="-30992" y1="-31318" x2="-30489" x1="-31055" fill="none"/><line y2="-31514" y1="-30992" x2="-29582" x1="-30489" fill="none"/><line y2="-30992" y1="-31514" x2="-28675" x1="-29582" fill="none"/><line y2="-31514" y1="-30992" x2="-27768" x1="-28675" fill="none"/><line y2="-30992" y1="-31514" x2="-26860" x1="-27768" fill="none"/><line y2="-31514" y1="-30992" x2="-25953" x1="-26860" fill="none"/><line y2="-30992" y1="-31514" x2="-25046" x1="-25953" fill="none"/><line y2="-31514" y1="-30992" x2="-24139" x1="-25046" fill="none"/><line y2="-31188" y1="-31514" x2="-23573" x1="-24139" fill="none"/><line y2="-31058" y1="-31318" x2="-32190" x1="-31737" fill="none"/><line y2="-32202" y1="-31734" x2="-31000" x1="-31272" fill="none"/><line y2="-32202" y1="-31734" x2="-31795" x1="-31523" fill="none"/><line y2="-31451" y1="-31188" x2="-22435" x1="-22891" fill="none"/><line y2="-30304" y1="-30772" x2="-22836" x1="-23105" fill="none"/><line y2="-30304" y1="-30772" x2="-23628" x1="-23359" fill="none"/><text y="-30812" xml:space="preserve" x="-23463" stroke="none" font-size="433.3333" font-family="sans-serif">Si</text><text y="-31468" xml:space="preserve" x="-22328" stroke="none" font-size="433.3333" font-family="sans-serif">Cl</text><text y="-29905" xml:space="preserve" x="-22940" stroke="none" font-size="433.3333" font-family="sans-serif">Cl</text><text y="-29905" xml:space="preserve" x="-23986" stroke="none" font-size="433.3333" font-family="sans-serif">Cl</text><text y="-31335" xml:space="preserve" x="-31627" stroke="none" font-size="433.3333" font-family="sans-serif">Si</text><text y="-30680" xml:space="preserve" x="-32762" stroke="none" font-size="433.3333" font-family="sans-serif">Cl</text><text y="-32242" xml:space="preserve" x="-31104" stroke="none" font-size="433.3333" font-family="sans-serif">Cl</text><text y="-32242" xml:space="preserve" x="-32153" stroke="none" font-size="433.3333" font-family="sans-serif">Cl</text></g></g></svg>