<svg width="250.59" viewBox="0 0 8353 5193" text-rendering="auto" stroke-width="1" stroke-opacity="1" stroke-miterlimit="10" stroke-linejoin="miter" stroke-linecap="square" stroke-dashoffset="0" stroke-dasharray="none" stroke="black" shape-rendering="auto" image-rendering="auto" height="155.79" font-weight="normal" font-style="normal" font-size="12" font-family="'Dialog'" fill-opacity="1" fill="black" color-rendering="auto" color-interpolation="auto" xmlns="http://www.w3.org/2000/svg"><g><g stroke="white" fill="white"><rect y="0" x="0" width="8353" stroke="none" height="5193"/></g><g transform="translate(32866,32758)" text-rendering="geometricPrecision" stroke-width="44" stroke-linejoin="round" stroke-linecap="round"><line y2="-30775" y1="-29576" x2="-29134" x1="-29134" fill="none"/><line y2="-30625" y1="-29726" x2="-28964" x1="-28964" fill="none"/><line y2="-31376" y1="-30775" x2="-28094" x1="-29134" fill="none"/><line y2="-29576" y1="-29082" x2="-29134" x1="-28282" fill="none"/><line y2="-30885" y1="-31376" x2="-27242" x1="-28094" fill="none"/><line y2="-29195" y1="-29576" x2="-27716" x1="-27054" fill="none"/><line y2="-29576" y1="-30555" x2="-27054" x1="-27054" fill="none"/><line y2="-29697" y1="-30434" x2="-27224" x1="-27224" fill="none"/><line y2="-31301" y1="-30775" x2="-30041" x1="-29134" fill="none"/><line y2="-30775" y1="-31301" x2="-30948" x1="-30041" fill="none"/><line y2="-31301" y1="-30775" x2="-31855" x1="-30948" fill="none"/><line y2="-30775" y1="-31301" x2="-32762" x1="-31855" fill="none"/><line y2="-29053" y1="-29576" x2="-30041" x1="-29134" fill="none"/><line y2="-29160" y1="-29576" x2="-26335" x1="-27054" fill="none"/><line y2="-32202" y1="-31376" x2="-28163" x1="-28163" fill="none"/><line y2="-32202" y1="-31376" x2="-28025" x1="-28025" fill="none"/><line y2="-29466" y1="-29160" x2="-25428" x1="-25959" fill="none"/><line y2="-28224" y1="-28834" x2="-26147" x1="-26147" fill="none"/><text y="-32242" xml:space="preserve" x="-28247" stroke="none" font-size="433.3333" font-family="sans-serif">O</text><text y="-28874" xml:space="preserve" x="-26300" stroke="none" font-size="433.3333" font-family="sans-serif">N</text><text y="-29397" xml:space="preserve" x="-25393" stroke="none" font-size="433.3333" font-family="sans-serif">CH</text><text y="-29307" xml:space="preserve" x="-24815" stroke="none" font-size="313.3333" font-family="sans-serif">3</text><text y="-27825" xml:space="preserve" x="-26300" stroke="none" font-size="433.3333" font-family="sans-serif">CH</text><text y="-27736" xml:space="preserve" x="-25722" stroke="none" font-size="313.3333" font-family="sans-serif">3</text><text y="-28796" xml:space="preserve" x="-28247" stroke="none" font-size="433.3333" font-family="sans-serif">NH</text><text y="-30596" xml:space="preserve" x="-27207" stroke="none" font-size="433.3333" font-family="sans-serif">N</text></g></g></svg>