<svg width="456.09" viewBox="0 0 15203 5080" text-rendering="auto" stroke-width="1" stroke-opacity="1" stroke-miterlimit="10" stroke-linejoin="miter" stroke-linecap="square" stroke-dashoffset="0" stroke-dasharray="none" stroke="black" shape-rendering="auto" image-rendering="auto" height="152.4" font-weight="normal" font-style="normal" font-size="12" font-family="'Dialog'" fill-opacity="1" fill="black" color-rendering="auto" color-interpolation="auto" xmlns="http://www.w3.org/2000/svg"><g><g stroke="white" fill="white"><rect y="0" x="0" width="15203" stroke="none" height="5080"/></g><g transform="translate(32866,32758)" text-rendering="geometricPrecision" stroke-width="44" stroke-linejoin="round" stroke-linecap="round"><line y2="-29715" y1="-30281" x2="-22628" x1="-23610" fill="none"/><line y2="-29637" y1="-30064" x2="-22836" x1="-23573" fill="none"/><line y2="-28576" y1="-29715" x2="-22628" x1="-22628" fill="none"/><line y2="-30281" y1="-29715" x2="-23610" x1="-24598" fill="none"/><line y2="-28007" y1="-28576" x2="-23610" x1="-22628" fill="none"/><line y2="-28224" y1="-28652" x2="-23573" x1="-22836" fill="none"/><line y2="-29715" y1="-28576" x2="-24598" x1="-24598" fill="none"/><line y2="-29570" y1="-28718" x2="-24428" x1="-24428" fill="none"/><line y2="-28576" y1="-28007" x2="-24598" x1="-23610" fill="none"/><line y2="-30238" y1="-29715" x2="-21721" x1="-22628" fill="none"/><line y2="-28160" y1="-28576" x2="-25318" x1="-24598" fill="none"/><line y2="-28576" y1="-28160" x2="-26413" x1="-25693" fill="none"/><line y2="-28054" y1="-28576" x2="-27320" x1="-26413" fill="none"/><line y2="-28576" y1="-28054" x2="-28227" x1="-27320" fill="none"/><line y2="-28054" y1="-28576" x2="-29134" x1="-28227" fill="none"/><line y2="-28576" y1="-28054" x2="-30041" x1="-29134" fill="none"/><line y2="-28054" y1="-28576" x2="-30948" x1="-30041" fill="none"/><line y2="-28576" y1="-28054" x2="-31855" x1="-30948" fill="none"/><line y2="-28054" y1="-28576" x2="-32762" x1="-31855" fill="none"/><line y2="-31376" y1="-30238" x2="-21721" x1="-21721" fill="none"/><line y2="-31231" y1="-30379" x2="-21551" x1="-21551" fill="none"/><line y2="-30238" y1="-29668" x2="-21721" x1="-20733" fill="none"/><line y2="-31945" y1="-31376" x2="-20733" x1="-21721" fill="none"/><line y2="-29668" y1="-30238" x2="-20733" x1="-19751" fill="none"/><line y2="-29885" y1="-30313" x2="-20696" x1="-19959" fill="none"/><line y2="-31376" y1="-31945" x2="-19751" x1="-20733" fill="none"/><line y2="-31298" y1="-31725" x2="-19959" x1="-20696" fill="none"/><line y2="-30238" y1="-31376" x2="-19751" x1="-19751" fill="none"/><line y2="-31899" y1="-31376" x2="-18844" x1="-19751" fill="none"/><line y2="-32315" y1="-31899" x2="-18124" x1="-18844" fill="none"/><line y2="-32393" y1="-31977" x2="-18168" x1="-18887" fill="none"/><line y2="-32237" y1="-31821" x2="-18078" x1="-18798" fill="none"/><text y="-27874" xml:space="preserve" x="-25659" stroke="none" font-size="433.3333" font-family="sans-serif">O</text><text y="-32242" xml:space="preserve" x="-18087" stroke="none" font-size="433.3333" font-family="sans-serif">N</text></g></g></svg>