<svg width="155.91" viewBox="0 0 5197 3780" text-rendering="auto" stroke-width="1" stroke-opacity="1" stroke-miterlimit="10" stroke-linejoin="miter" stroke-linecap="square" stroke-dashoffset="0" stroke-dasharray="none" stroke="black" shape-rendering="auto" image-rendering="auto" height="113.4" font-weight="normal" font-style="normal" font-size="12" font-family="'Dialog'" fill-opacity="1" fill="black" color-rendering="auto" color-interpolation="auto" xmlns="http://www.w3.org/2000/svg"><g><g stroke="white" fill="white"><rect y="0" x="0" width="5197" stroke="none" height="3780"/></g><g transform="translate(32866,32758)" text-rendering="geometricPrecision" stroke-width="44" stroke-linejoin="round" stroke-linecap="round"><line y2="-29654" y1="-30801" x2="-29738" x1="-29738" fill="none"/><line y2="-30801" y1="-31376" x2="-29738" x1="-30720" fill="none"/><line y2="-31376" y1="-30801" x2="-28756" x1="-29738" fill="none"/><line y2="-31156" y1="-30726" x2="-28793" x1="-29530" fill="none"/><line y2="-29082" y1="-29654" x2="-30720" x1="-29738" fill="none"/><line y2="-29654" y1="-29082" x2="-29738" x1="-28756" fill="none"/><line y2="-29732" y1="-29302" x2="-29530" x1="-28793" fill="none"/><line y2="-31376" y1="-30801" x2="-30720" x1="-31702" fill="none"/><line y2="-30801" y1="-31376" x2="-27773" x1="-28756" fill="none"/><line y2="-29654" y1="-29082" x2="-31702" x1="-30720" fill="none"/><line y2="-29732" y1="-29302" x2="-31494" x1="-30758" fill="none"/><line y2="-29082" y1="-29654" x2="-28756" x1="-27773" fill="none"/><line y2="-30801" y1="-29654" x2="-31702" x1="-31702" fill="none"/><line y2="-29654" y1="-30801" x2="-27773" x1="-27773" fill="none"/><line y2="-29798" y1="-30659" x2="-27944" x1="-27944" fill="none"/><line y2="-32202" y1="-31376" x2="-30789" x1="-30789" fill="none"/><line y2="-32202" y1="-31376" x2="-30651" x1="-30651" fill="none"/><line y2="-31156" y1="-30740" x2="-32456" x1="-31737" fill="none"/><line y2="-31278" y1="-30862" x2="-32387" x1="-31668" fill="none"/><text y="-32242" xml:space="preserve" x="-30873" stroke="none" font-size="433.3333" font-family="sans-serif">O</text><text y="-31148" xml:space="preserve" x="-32762" stroke="none" font-size="433.3333" font-family="sans-serif">O</text></g></g></svg>