<svg width="155.13" viewBox="0 0 5171 4665" text-rendering="auto" stroke-width="1" stroke-opacity="1" stroke-miterlimit="10" stroke-linejoin="miter" stroke-linecap="square" stroke-dashoffset="0" stroke-dasharray="none" stroke="black" shape-rendering="auto" image-rendering="auto" height="139.95" font-weight="normal" font-style="normal" font-size="12" font-family="'Dialog'" fill-opacity="1" fill="black" color-rendering="auto" color-interpolation="auto" xmlns="http://www.w3.org/2000/svg"><g><g stroke="white" fill="white"><rect y="0" x="0" width="5171" stroke="none" height="4665"/></g><g transform="translate(32866,32866)" text-rendering="geometricPrecision" stroke-width="44" stroke-linejoin="round" stroke-linecap="round"><line y2="-30009" y1="-31145" x2="-29885" x1="-29885" fill="none"/><line y2="-30151" y1="-31003" x2="-30056" x1="-30056" fill="none"/><line y2="-29440" y1="-30009" x2="-30867" x1="-29885" fill="none"/><line y2="-31145" y1="-31714" x2="-29885" x1="-30867" fill="none"/><line y2="-30009" y1="-29440" x2="-31855" x1="-30867" fill="none"/><line y2="-30084" y1="-29660" x2="-31647" x1="-30905" fill="none"/><line y2="-31714" y1="-31145" x2="-30867" x1="-31855" fill="none"/><line y2="-31497" y1="-31070" x2="-30905" x1="-31647" fill="none"/><line y2="-31145" y1="-30009" x2="-31855" x1="-31855" fill="none"/><line y2="-31670" y1="-31145" x2="-28978" x1="-29885" fill="none"/><line y2="-28392" y1="-29440" x2="-30867" x1="-30867" fill="none"/><line y2="-32762" y1="-31714" x2="-30867" x1="-30867" fill="none"/><line y2="-29484" y1="-30009" x2="-32762" x1="-31855" fill="none"/><line y2="-31670" y1="-31145" x2="-32762" x1="-31855" fill="none"/><line y2="-29593" y1="-30009" x2="-29166" x1="-29885" fill="none"/><line y2="-29856" y1="-29593" x2="-28334" x1="-28790" fill="none"/><line y2="-28831" y1="-29302" x2="-28519" x1="-28790" fill="none"/><line y2="-28761" y1="-29229" x2="-28643" x1="-28912" fill="none"/><line y2="-28761" y1="-29229" x2="-29313" x1="-29042" fill="none"/><line y2="-28831" y1="-29302" x2="-29434" x1="-29166" fill="none"/><text y="-29304" xml:space="preserve" x="-29128" stroke="none" font-size="433.3333" font-family="sans-serif">S</text><text y="-29874" xml:space="preserve" x="-28224" stroke="none" font-size="433.3333" font-family="sans-serif">Cl</text><text y="-28397" xml:space="preserve" x="-28605" stroke="none" font-size="433.3333" font-family="sans-serif">O</text><text y="-28397" xml:space="preserve" x="-29654" stroke="none" font-size="433.3333" font-family="sans-serif">O</text></g></g></svg>