<svg width="627.27" viewBox="0 0 20909 9159" text-rendering="auto" stroke-width="1" stroke-opacity="1" stroke-miterlimit="10" stroke-linejoin="miter" stroke-linecap="square" stroke-dashoffset="0" stroke-dasharray="none" stroke="black" shape-rendering="auto" image-rendering="auto" height="274.77" font-weight="normal" font-style="normal" font-size="12" font-family="'Dialog'" fill-opacity="1" fill="black" color-rendering="auto" color-interpolation="auto" xmlns="http://www.w3.org/2000/svg"><g><g stroke="white" fill="white"><rect y="0" x="0" width="20909" stroke="none" height="9159"/></g><g transform="translate(32866,32758)" text-rendering="geometricPrecision" stroke-width="44" stroke-linejoin="round" stroke-linecap="round"><line y2="-28184" y1="-27037" x2="-15435" x1="-15435" fill="none"/><line y2="-26465" y1="-27037" x2="-16420" x1="-15435" fill="none"/><line y2="-27037" y1="-27037" x2="-15435" x1="-13470" fill="none"/><line y2="-28758" y1="-28184" x2="-14453" x1="-15435" fill="none"/><line y2="-28184" y1="-28758" x2="-15435" x1="-16420" fill="none"/><line y2="-27037" y1="-26465" x2="-17402" x1="-16420" fill="none"/><line y2="-25318" y1="-26465" x2="-16420" x1="-16420" fill="none"/><line y2="-27037" y1="-28184" x2="-13470" x1="-13470" fill="none"/><line y2="-28184" y1="-28758" x2="-13470" x1="-14453" fill="none"/><line y2="-28758" y1="-28184" x2="-16420" x1="-17402" fill="none"/><line y2="-28184" y1="-27037" x2="-17402" x1="-17402" fill="none"/><line y2="-27037" y1="-26465" x2="-17402" x1="-18384" fill="none"/><line y2="-24746" y1="-25318" x2="-17402" x1="-16420" fill="none"/><line y2="-25318" y1="-26465" x2="-18384" x1="-18384" fill="none"/><line y2="-26465" y1="-27037" x2="-18384" x1="-19367" fill="none"/><line y2="-25318" y1="-24746" x2="-18384" x1="-17402" fill="none"/><line y2="-24746" y1="-25318" x2="-19367" x1="-18384" fill="none"/><line y2="-27037" y1="-26465" x2="-19367" x1="-20349" fill="none"/><line y2="-25318" y1="-24746" x2="-20349" x1="-19367" fill="none"/><line y2="-26465" y1="-25318" x2="-20349" x1="-20349" fill="none"/><line y2="-24902" y1="-25318" x2="-21068" x1="-20349" fill="none"/><line y2="-25318" y1="-24902" x2="-22163" x1="-21444" fill="none"/><line y2="-29804" y1="-28758" x2="-14453" x1="-14453" fill="none"/><line y2="-29232" y1="-28184" x2="-15435" x1="-15435" fill="none"/><line y2="-27513" y1="-26465" x2="-18384" x1="-18384" fill="none"/><line y2="-26245" y1="-27037" x2="-15224" x1="-15435" fill="none"/><line y2="-29585" y1="-28758" x2="-16420" x1="-16420" fill="none"/><line y2="-28600" y1="-28184" x2="-12751" x1="-13470" fill="none"/><line y2="-24749" y1="-25318" x2="-23145" x1="-22163" fill="none"/><line y2="-25318" y1="-26236" x2="-22163" x1="-22163" fill="none"/><line y2="-25318" y1="-24749" x2="-24133" x1="-23145" fill="none"/><line y2="-26563" y1="-27025" x2="-22351" x1="-23145" fill="none"/><line y2="-26456" y1="-25318" x2="-24133" x1="-24133" fill="none"/><line y2="-27025" y1="-26456" x2="-23145" x1="-24133" fill="none"/><line y2="-26872" y1="-26456" x2="-24853" x1="-24133" fill="none"/><line y2="-26456" y1="-26872" x2="-25948" x1="-25228" fill="none"/><line y2="-28071" y1="-27025" x2="-23145" x1="-23145" fill="none"/><line y2="-25014" y1="-25318" x2="-24662" x1="-24133" fill="none"/><line y2="-29804" y1="-30500" x2="-14453" x1="-13511" fill="none"/><line y2="-30500" y1="-29804" x2="-15354" x1="-14453" fill="none"/><line y2="-30550" y1="-30027" x2="-15137" x1="-14461" fill="none"/><line y2="-30500" y1="-31344" x2="-13511" x1="-13771" fill="none"/><line y2="-31564" y1="-30500" x2="-14984" x1="-15354" fill="none"/><line y2="-31564" y1="-31564" x2="-14028" x1="-14984" fill="none"/><line y2="-32162" y1="-31523" x2="-15490" x1="-15042" fill="none"/><line y2="-32242" y1="-31604" x2="-15374" x1="-14929" fill="none"/><line y2="-26456" y1="-27025" x2="-25948" x1="-26933" fill="none"/><line y2="-25537" y1="-26456" x2="-25948" x1="-25948" fill="none"/><line y2="-27025" y1="-26456" x2="-26933" x1="-27918" fill="none"/><line y2="-24749" y1="-25211" x2="-26933" x1="-26135" fill="none"/><line y2="-26456" y1="-25318" x2="-27918" x1="-27918" fill="none"/><line y2="-25318" y1="-24749" x2="-27918" x1="-26933" fill="none"/><line y2="-24902" y1="-25318" x2="-28637" x1="-27918" fill="none"/><line y2="-25318" y1="-24902" x2="-29732" x1="-29013" fill="none"/><line y2="-23703" y1="-24749" x2="-26933" x1="-26933" fill="none"/><line y2="-26759" y1="-26456" x2="-28446" x1="-27918" fill="none"/><line y2="-24749" y1="-25318" x2="-30717" x1="-29732" fill="none"/><line y2="-25318" y1="-26236" x2="-29732" x1="-29732" fill="none"/><line y2="-25318" y1="-24749" x2="-31702" x1="-30717" fill="none"/><line y2="-26563" y1="-27025" x2="-29920" x1="-30717" fill="none"/><line y2="-26456" y1="-25318" x2="-31702" x1="-31702" fill="none"/><line y2="-27025" y1="-26456" x2="-30717" x1="-31702" fill="none"/><line y2="-28071" y1="-27025" x2="-30717" x1="-30717" fill="none"/><line y2="-25014" y1="-25318" x2="-32231" x1="-31702" fill="none"/><line y2="-26759" y1="-26456" x2="-32231" x1="-31702" fill="none"/><text y="-25846" xml:space="preserve" x="-15316" stroke="none" font-size="433.3333" font-family="sans-serif">OH</text><text y="-29625" xml:space="preserve" x="-16570" stroke="none" font-size="433.3333" font-family="sans-serif">OH</text><text y="-28527" xml:space="preserve" x="-12716" stroke="none" font-size="433.3333" font-family="sans-serif">OH</text><text y="-32242" xml:space="preserve" x="-15738" stroke="none" font-size="433.3333" font-family="sans-serif">O</text><text y="-24616" xml:space="preserve" x="-21409" stroke="none" font-size="433.3333" font-family="sans-serif">O</text><text y="-24616" xml:space="preserve" x="-25194" stroke="none" font-size="433.3333" font-family="sans-serif">OH</text><text y="-26800" xml:space="preserve" x="-25194" stroke="none" font-size="433.3333" font-family="sans-serif">O</text><text y="-26800" xml:space="preserve" x="-28978" stroke="none" font-size="433.3333" font-family="sans-serif">OH</text><text y="-24616" xml:space="preserve" x="-28978" stroke="none" font-size="433.3333" font-family="sans-serif">O</text><text y="-24616" xml:space="preserve" x="-32762" stroke="none" font-size="433.3333" font-family="sans-serif">OH</text><text y="-26800" xml:space="preserve" x="-32762" stroke="none" font-size="433.3333" font-family="sans-serif">OH</text><text y="-31384" xml:space="preserve" x="-13990" stroke="none" font-size="433.3333" font-family="sans-serif">O</text><text y="-26277" xml:space="preserve" x="-22316" stroke="none" font-size="433.3333" font-family="sans-serif">O</text><text y="-25139" xml:space="preserve" x="-26101" stroke="none" font-size="433.3333" font-family="sans-serif">O</text><text y="-26277" xml:space="preserve" x="-29885" stroke="none" font-size="433.3333" font-family="sans-serif">O</text></g></g></svg>