<svg width="595.47" viewBox="0 0 19849 7477" text-rendering="auto" stroke-width="1" stroke-opacity="1" stroke-miterlimit="10" stroke-linejoin="miter" stroke-linecap="square" stroke-dashoffset="0" stroke-dasharray="none" stroke="black" shape-rendering="auto" image-rendering="auto" height="224.31" font-weight="normal" font-style="normal" font-size="12" font-family="'Dialog'" fill-opacity="1" fill="black" color-rendering="auto" color-interpolation="auto" xmlns="http://www.w3.org/2000/svg"><g><g stroke="white" fill="white"><rect y="0" x="0" width="19849" stroke="none" height="7477"/></g><g transform="translate(32866,32758)" text-rendering="geometricPrecision" stroke-width="44" stroke-linejoin="round" stroke-linecap="round"><line y2="-29278" y1="-29848" x2="-28545" x1="-29527" fill="none"/><line y2="-29203" y1="-29631" x2="-28750" x1="-29489" fill="none"/><line y2="-28143" y1="-29278" x2="-28545" x1="-28545" fill="none"/><line y2="-29848" y1="-29278" x2="-29527" x1="-30515" fill="none"/><line y2="-27574" y1="-28143" x2="-29527" x1="-28545" fill="none"/><line y2="-27791" y1="-28218" x2="-29489" x1="-28750" fill="none"/><line y2="-29278" y1="-28143" x2="-30515" x1="-30515" fill="none"/><line y2="-29137" y1="-28285" x2="-30344" x1="-30344" fill="none"/><line y2="-28143" y1="-27574" x2="-30515" x1="-29527" fill="none"/><line y2="-29804" y1="-29278" x2="-27638" x1="-28545" fill="none"/><line y2="-27727" y1="-28143" x2="-31231" x1="-30515" fill="none"/><line y2="-29278" y1="-29804" x2="-26728" x1="-27638" fill="none"/><line y2="-31376" y1="-30960" x2="-26728" x1="-27447" fill="none"/><line y2="-27976" y1="-27727" x2="-32037" x1="-31610" fill="none"/><line y2="-26895" y1="-27363" x2="-31757" x1="-31486" fill="none"/><line y2="-26964" y1="-27432" x2="-31878" x1="-31607" fill="none"/><line y2="-26964" y1="-27432" x2="-30963" x1="-31234" fill="none"/><line y2="-26895" y1="-27363" x2="-31084" x1="-31356" fill="none"/><line y2="-29804" y1="-29278" x2="-25820" x1="-26728" fill="none"/><line y2="-29388" y1="-29804" x2="-25104" x1="-25820" fill="none"/><line y2="-26704" y1="-27008" x2="-25820" x1="-26349" fill="none"/><line y2="-30850" y1="-31376" x2="-25820" x1="-26728" fill="none"/><line y2="-31376" y1="-30850" x2="-24913" x1="-25820" fill="none"/><line y2="-30850" y1="-31376" x2="-24006" x1="-24913" fill="none"/><line y2="-31376" y1="-30850" x2="-23099" x1="-24006" fill="none"/><line y2="-30850" y1="-31376" x2="-22192" x1="-23099" fill="none"/><line y2="-31376" y1="-30850" x2="-21285" x1="-22192" fill="none"/><line y2="-30850" y1="-31376" x2="-20378" x1="-21285" fill="none"/><line y2="-31376" y1="-30850" x2="-19471" x1="-20378" fill="none"/><line y2="-30850" y1="-31376" x2="-18564" x1="-19471" fill="none"/><line y2="-31376" y1="-30850" x2="-17656" x1="-18564" fill="none"/><line y2="-30850" y1="-31376" x2="-16749" x1="-17656" fill="none"/><line y2="-31376" y1="-30850" x2="-15842" x1="-16749" fill="none"/><line y2="-30850" y1="-31376" x2="-14935" x1="-15842" fill="none"/><line y2="-31376" y1="-30850" x2="-14028" x1="-14935" fill="none"/><line y2="-30850" y1="-31376" x2="-13121" x1="-14028" fill="none"/><line y2="-32202" y1="-31376" x2="-26800" x1="-26800" fill="none"/><line y2="-32202" y1="-31376" x2="-26658" x1="-26658" fill="none"/><line y2="-27227" y1="-26704" x2="-24913" x1="-25820" fill="none"/><line y2="-25875" y1="-26704" x2="-25751" x1="-25751" fill="none"/><line y2="-25875" y1="-26704" x2="-25893" x1="-25893" fill="none"/><line y2="-26901" y1="-27227" x2="-24347" x1="-24913" fill="none"/><line y2="-28056" y1="-27227" x2="-24913" x1="-24913" fill="none"/><polygon stroke-width="1" stroke="none" points=" -27638 -29804 -27704 -30630 -27568 -30630"/><polygon stroke-width="1" points=" -27638 -29804 -27704 -30630 -27568 -30630" fill="none"/><polygon stroke-width="1" stroke="none" points=" -26728 -29278 -26661 -27447 -26797 -27447"/><polygon stroke-width="1" points=" -26728 -29278 -26661 -27447 -26797 -27447" fill="none"/><text y="-30671" xml:space="preserve" x="-27788" stroke-width="1" stroke="none" font-size="433.3333" font-family="sans-serif">O</text><text y="-27048" xml:space="preserve" x="-26881" stroke-width="1" stroke="none" font-size="433.3333" font-family="sans-serif">NH</text><text y="-29099" xml:space="preserve" x="-25066" stroke-width="1" stroke="none" font-size="433.3333" font-family="sans-serif">OH</text><text y="-32242" xml:space="preserve" x="-26881" stroke-width="1" stroke="none" font-size="433.3333" font-family="sans-serif">O</text><text y="-25477" xml:space="preserve" x="-25974" stroke-width="1" stroke="none" font-size="433.3333" font-family="sans-serif">O</text><text y="-26525" xml:space="preserve" x="-24237" stroke-width="1" stroke="none" font-size="433.3333" font-family="sans-serif">Cl</text><text y="-28097" xml:space="preserve" x="-25147" stroke-width="1" stroke="none" font-size="433.3333" font-family="sans-serif">Cl</text><text y="-27438" xml:space="preserve" x="-31572" stroke-width="1" stroke="none" font-size="433.3333" font-family="sans-serif">S</text><text y="-28126" xml:space="preserve" x="-32762" stroke-width="1" stroke="none" font-size="433.3333" font-family="sans-serif">CH</text><text y="-28036" xml:space="preserve" x="-32185" stroke-width="1" stroke="none" font-size="313.3333" font-family="sans-serif">3</text><text y="-26531" xml:space="preserve" x="-32098" stroke-width="1" stroke="none" font-size="433.3333" font-family="sans-serif">O</text><text y="-26531" xml:space="preserve" x="-31049" stroke-width="1" stroke="none" font-size="433.3333" font-family="sans-serif">O</text></g><g transform="translate(32866,32758)" text-rendering="geometricPrecision" stroke-linejoin="round" stroke-linecap="round" font-style="italic" font-size="313.3333" font-family="sans-serif"><text y="-29322" xml:space="preserve" x="-27788" stroke="none">R</text><text y="-29403" xml:space="preserve" x="-26881" stroke="none">R</text></g></g></svg>