<svg width="176.43" viewBox="0 0 5881 4172" text-rendering="auto" stroke-width="1" stroke-opacity="1" stroke-miterlimit="10" stroke-linejoin="miter" stroke-linecap="square" stroke-dashoffset="0" stroke-dasharray="none" stroke="black" shape-rendering="auto" image-rendering="auto" height="125.16" font-weight="normal" font-style="normal" font-size="12" font-family="'Dialog'" fill-opacity="1" fill="black" color-rendering="auto" color-interpolation="auto" xmlns="http://www.w3.org/2000/svg"><g><g stroke="white" fill="white"><rect y="0" x="0" width="5881" stroke="none" height="4172"/></g><g transform="translate(32866,32866)" text-rendering="geometricPrecision" stroke-width="44" stroke-linejoin="round" stroke-linecap="round"><line y2="-31714" y1="-31191" x2="-28975" x1="-29882" fill="none"/><line y2="-31191" y1="-31714" x2="-28068" x1="-28975" fill="none"/><line y2="-31714" y1="-31191" x2="-27158" x1="-28068" fill="none"/><line y2="-31595" y1="-31070" x2="-27089" x1="-27996" fill="none"/><line y2="-31714" y1="-31191" x2="-30789" x1="-29882" fill="none"/><line y2="-29642" y1="-31191" x2="-29882" x1="-29882" fill="none"/><line y2="-31191" y1="-31714" x2="-31696" x1="-30789" fill="none"/><line y2="-32762" y1="-31714" x2="-30789" x1="-30789" fill="none"/><line y2="-29336" y1="-29642" x2="-30408" x1="-29882" fill="none"/><line y2="-29642" y1="-29226" x2="-31696" x1="-30977" fill="none"/><line y2="-29287" y1="-29703" x2="-29128" x1="-29845" fill="none"/><line y2="-29166" y1="-29582" x2="-29198" x1="-29917" fill="none"/><line y2="-29354" y1="-29642" x2="-32216" x1="-31696" fill="none"/><line y2="-30469" y1="-29642" x2="-31766" x1="-31766" fill="none"/><line y2="-30469" y1="-29642" x2="-31624" x1="-31624" fill="none"/><text y="-28938" xml:space="preserve" x="-30940" stroke="none" font-size="433.3333" font-family="sans-serif">NH</text><text y="-28938" xml:space="preserve" x="-29125" stroke="none" font-size="433.3333" font-family="sans-serif">O</text><text y="-28955" xml:space="preserve" x="-32762" stroke="none" font-size="433.3333" font-family="sans-serif">NH</text><text y="-28865" xml:space="preserve" x="-32185" stroke="none" font-size="313.3333" font-family="sans-serif">2</text><text y="-30509" xml:space="preserve" x="-31847" stroke="none" font-size="433.3333" font-family="sans-serif">O</text></g></g></svg>