<svg width="501.87" viewBox="0 0 16729 5803" text-rendering="auto" stroke-width="1" stroke-opacity="1" stroke-miterlimit="10" stroke-linejoin="miter" stroke-linecap="square" stroke-dashoffset="0" stroke-dasharray="none" stroke="black" shape-rendering="auto" image-rendering="auto" height="174.09" font-weight="normal" font-style="normal" font-size="12" font-family="'Dialog'" fill-opacity="1" fill="black" color-rendering="auto" color-interpolation="auto" xmlns="http://www.w3.org/2000/svg"><g><g stroke="white" fill="white"><rect y="0" x="0" width="16729" stroke="none" height="5803"/></g><g transform="translate(32866,32866)" text-rendering="geometricPrecision" stroke-width="44" stroke-linejoin="round" stroke-linecap="round"><line y2="-30532" y1="-30532" x2="-23059" x1="-24841" fill="none"/><line y2="-29394" y1="-30532" x2="-23059" x1="-23059" fill="none"/><line y2="-31101" y1="-30532" x2="-22076" x1="-23059" fill="none"/><line y2="-30885" y1="-30457" x2="-22114" x1="-22851" fill="none"/><line y2="-30313" y1="-29394" x2="-25029" x1="-25029" fill="none"/><line y2="-28935" y1="-29394" x2="-23859" x1="-23059" fill="none"/><line y2="-29394" y1="-28828" x2="-23059" x1="-22076" fill="none"/><line y2="-29472" y1="-29044" x2="-22851" x1="-22114" fill="none"/><line y2="-30532" y1="-31101" x2="-21088" x1="-22076" fill="none"/><line y2="-29394" y1="-28935" x2="-25029" x1="-24234" fill="none"/><line y2="-29484" y1="-29140" x2="-24847" x1="-24249" fill="none"/><line y2="-28828" y1="-29394" x2="-22076" x1="-21088" fill="none"/><line y2="-29394" y1="-30532" x2="-21088" x1="-21088" fill="none"/><line y2="-29538" y1="-30391" x2="-21259" x1="-21259" fill="none"/><line y2="-31055" y1="-30532" x2="-20181" x1="-21088" fill="none"/><line y2="-31055" y1="-30642" x2="-25936" x1="-25217" fill="none"/><line y2="-30532" y1="-31055" x2="-26843" x1="-25936" fill="none"/><line y2="-28857" y1="-29394" x2="-25927" x1="-25029" fill="none"/><line y2="-27808" y1="-28857" x2="-25927" x1="-25927" fill="none"/><line y2="-27285" y1="-27808" x2="-26834" x1="-25927" fill="none"/><line y2="-27779" y1="-28828" x2="-22076" x1="-22076" fill="none"/><line y2="-31974" y1="-31055" x2="-20181" x1="-20181" fill="none"/><line y2="-31861" y1="-31171" x2="-20011" x1="-20011" fill="none"/><line y2="-31055" y1="-30596" x2="-20181" x1="-19387" fill="none"/><line y2="-32193" y1="-32193" x2="-18211" x1="-19994" fill="none"/><line y2="-30596" y1="-31055" x2="-19011" x1="-18211" fill="none"/><line y2="-31055" y1="-32193" x2="-18211" x1="-18211" fill="none"/><line y2="-32762" y1="-32193" x2="-17226" x1="-18211" fill="none"/><line y2="-32546" y1="-32118" x2="-17264" x1="-18003" fill="none"/><line y2="-31055" y1="-30489" x2="-18211" x1="-17226" fill="none"/><line y2="-31133" y1="-30706" x2="-18003" x1="-17264" fill="none"/><line y2="-32193" y1="-32762" x2="-16241" x1="-17226" fill="none"/><line y2="-30489" y1="-31055" x2="-17226" x1="-16241" fill="none"/><line y2="-31055" y1="-32193" x2="-16241" x1="-16241" fill="none"/><line y2="-31200" y1="-32052" x2="-16411" x1="-16411" fill="none"/><line y2="-29660" y1="-30269" x2="-19199" x1="-19199" fill="none"/><line y2="-29394" y1="-30532" x2="-26843" x1="-26843" fill="none"/><line y2="-29538" y1="-30391" x2="-27014" x1="-27014" fill="none"/><line y2="-30532" y1="-31101" x2="-26843" x1="-27828" fill="none"/><line y2="-28828" y1="-29394" x2="-27828" x1="-26843" fill="none"/><line y2="-31101" y1="-30532" x2="-27828" x1="-28813" fill="none"/><line y2="-30882" y1="-30454" x2="-27866" x1="-28605" fill="none"/><line y2="-29394" y1="-28828" x2="-28813" x1="-27828" fill="none"/><line y2="-29472" y1="-29044" x2="-28605" x1="-27866" fill="none"/><line y2="-30532" y1="-29394" x2="-28813" x1="-28813" fill="none"/><line y2="-28871" y1="-29394" x2="-29720" x1="-28813" fill="none"/><line y2="-28871" y1="-29440" x2="-29720" x1="-30706" fill="none"/><line y2="-28796" y1="-29224" x2="-29928" x1="-30668" fill="none"/><line y2="-27733" y1="-28871" x2="-29720" x1="-29720" fill="none"/><line y2="-29440" y1="-28871" x2="-30706" x1="-31691" fill="none"/><line y2="-27167" y1="-27733" x2="-30706" x1="-29720" fill="none"/><line y2="-27383" y1="-27811" x2="-30668" x1="-29928" fill="none"/><line y2="-28871" y1="-27733" x2="-31691" x1="-31691" fill="none"/><line y2="-28730" y1="-27877" x2="-31523" x1="-31523" fill="none"/><line y2="-27733" y1="-27167" x2="-31691" x1="-30706" fill="none"/><line y2="-30489" y1="-29440" x2="-30706" x1="-30706" fill="none"/><line y2="-30902" y1="-30489" x2="-31425" x1="-30706" fill="none"/><line y2="-30656" y1="-30902" x2="-32231" x1="-31800" fill="none"/><line y2="-30966" y1="-30550" x2="-30021" x1="-30740" fill="none"/><line y2="-30841" y1="-30428" x2="-29952" x1="-30671" fill="none"/><text y="-29261" xml:space="preserve" x="-19349" stroke="none" font-size="433.3333" font-family="sans-serif">CH</text><text y="-29172" xml:space="preserve" x="-18772" stroke="none" font-size="313.3333" font-family="sans-serif">3</text><text y="-30833" xml:space="preserve" x="-31766" stroke="none" font-size="433.3333" font-family="sans-serif">O</text><text y="-30833" xml:space="preserve" x="-29952" stroke="none" font-size="433.3333" font-family="sans-serif">O</text><text y="-30258" xml:space="preserve" x="-32762" stroke="none" font-size="433.3333" font-family="sans-serif">CH</text><text y="-30168" xml:space="preserve" x="-32185" stroke="none" font-size="313.3333" font-family="sans-serif">3</text><text y="-30353" xml:space="preserve" x="-25182" stroke="none" font-size="433.3333" font-family="sans-serif">N</text><text y="-28649" xml:space="preserve" x="-24200" stroke="none" font-size="433.3333" font-family="sans-serif">N</text><text y="-32014" xml:space="preserve" x="-20334" stroke="none" font-size="433.3333" font-family="sans-serif">N</text><text y="-30310" xml:space="preserve" x="-19349" stroke="none" font-size="433.3333" font-family="sans-serif">N</text></g></g></svg>