<svg width="236.16" viewBox="0 0 7872 3716" text-rendering="auto" stroke-width="1" stroke-opacity="1" stroke-miterlimit="10" stroke-linejoin="miter" stroke-linecap="square" stroke-dashoffset="0" stroke-dasharray="none" stroke="black" shape-rendering="auto" image-rendering="auto" height="111.48" font-weight="normal" font-style="normal" font-size="12" font-family="'Dialog'" fill-opacity="1" fill="black" color-rendering="auto" color-interpolation="auto" xmlns="http://www.w3.org/2000/svg"><g><g stroke="white" fill="white"><rect y="0" x="0" width="7872" stroke="none" height="3716"/></g><g transform="translate(32866,32758)" text-rendering="geometricPrecision" stroke-width="44" stroke-linejoin="round" stroke-linecap="round"><line y2="-30850" y1="-31419" x2="-29634" x1="-30619" fill="none"/><line y2="-30775" y1="-31202" x2="-29842" x1="-30581" fill="none"/><line y2="-29715" y1="-30850" x2="-29634" x1="-29634" fill="none"/><line y2="-31419" y1="-30850" x2="-30619" x1="-31604" fill="none"/><line y2="-29146" y1="-29715" x2="-30619" x1="-29634" fill="none"/><line y2="-29362" y1="-29790" x2="-30581" x1="-29842" fill="none"/><line y2="-30850" y1="-29715" x2="-31604" x1="-31604" fill="none"/><line y2="-30708" y1="-29856" x2="-31434" x1="-31434" fill="none"/><line y2="-29715" y1="-29146" x2="-31604" x1="-30619" fill="none"/><line y2="-31266" y1="-30850" x2="-28914" x1="-29634" fill="none"/><line y2="-31101" y1="-30850" x2="-32037" x1="-31604" fill="none"/><line y2="-30850" y1="-31266" x2="-27820" x1="-28539" fill="none"/><line y2="-32202" y1="-31595" x2="-28727" x1="-28727" fill="none"/><line y2="-31266" y1="-30850" x2="-27100" x1="-27820" fill="none"/><line y2="-30850" y1="-31266" x2="-26005" x1="-26725" fill="none"/><line y2="-30024" y1="-30850" x2="-27750" x1="-27750" fill="none"/><line y2="-30024" y1="-30850" x2="-27889" x1="-27889" fill="none"/><line y2="-31376" y1="-30850" x2="-25098" x1="-26005" fill="none"/><line y2="-29943" y1="-30850" x2="-25482" x1="-26005" fill="none"/><line y2="-29943" y1="-30850" x2="-26528" x1="-26005" fill="none"/><text y="-31197" xml:space="preserve" x="-28880" stroke="none" font-size="433.3333" font-family="sans-serif">N</text><text y="-32242" xml:space="preserve" x="-28880" stroke="none" font-size="433.3333" font-family="sans-serif">CH</text><text y="-32153" xml:space="preserve" x="-28302" stroke="none" font-size="313.3333" font-family="sans-serif">3</text><text y="-31197" xml:space="preserve" x="-27066" stroke="none" font-size="433.3333" font-family="sans-serif">O</text><text y="-29625" xml:space="preserve" x="-27973" stroke="none" font-size="433.3333" font-family="sans-serif">O</text><text y="-31252" xml:space="preserve" x="-32762" stroke="none" font-size="433.3333" font-family="sans-serif">NH</text><text y="-31162" xml:space="preserve" x="-32185" stroke="none" font-size="313.3333" font-family="sans-serif">2</text></g></g></svg>