<svg width="170.52" viewBox="0 0 5684 4048" text-rendering="auto" stroke-width="1" stroke-opacity="1" stroke-miterlimit="10" stroke-linejoin="miter" stroke-linecap="square" stroke-dashoffset="0" stroke-dasharray="none" stroke="black" shape-rendering="auto" image-rendering="auto" height="121.44" font-weight="normal" font-style="normal" font-size="12" font-family="'Dialog'" fill-opacity="1" fill="black" color-rendering="auto" color-interpolation="auto" xmlns="http://www.w3.org/2000/svg"><g><g stroke="white" fill="white"><rect y="0" x="0" width="5684" stroke="none" height="4048"/></g><g transform="translate(32866,32758)" text-rendering="geometricPrecision" stroke-width="44" stroke-linejoin="round" stroke-linecap="round"><line y2="-30850" y1="-31361" x2="-30633" x1="-31509" fill="none"/><line y2="-29608" y1="-30850" x2="-30633" x1="-30633" fill="none"/><line y2="-31364" y1="-30850" x2="-31884" x1="-32762" fill="none"/><line y2="-30541" y1="-31254" x2="-31341" x1="-31613" fill="none"/><line y2="-28987" y1="-29608" x2="-31696" x1="-30633" fill="none"/><line y2="-30850" y1="-29608" x2="-32762" x1="-32762" fill="none"/><line y2="-29874" y1="-30541" x2="-32141" x1="-31341" fill="none"/><line y2="-29608" y1="-28987" x2="-32762" x1="-31696" fill="none"/><line y2="-29874" y1="-28987" x2="-32141" x1="-31696" fill="none"/><line y2="-31376" y1="-30850" x2="-29726" x1="-30633" fill="none"/><line y2="-30960" y1="-31376" x2="-29007" x1="-29726" fill="none"/><line y2="-31266" y1="-30960" x2="-28100" x1="-28628" fill="none"/><line y2="-31899" y1="-30850" x2="-30633" x1="-30633" fill="none"/><line y2="-32315" y1="-31899" x2="-29914" x1="-30633" fill="none"/><line y2="-29252" y1="-29668" x2="-29879" x1="-30599" fill="none"/><line y2="-29131" y1="-29547" x2="-29949" x1="-30668" fill="none"/><text y="-30671" xml:space="preserve" x="-28969" stroke="none" font-size="433.3333" font-family="sans-serif">O</text><text y="-31197" xml:space="preserve" x="-28062" stroke="none" font-size="433.3333" font-family="sans-serif">CH</text><text y="-31107" xml:space="preserve" x="-27484" stroke="none" font-size="313.3333" font-family="sans-serif">3</text><text y="-32242" xml:space="preserve" x="-29876" stroke="none" font-size="433.3333" font-family="sans-serif">OH</text><text y="-28906" xml:space="preserve" x="-29876" stroke="none" font-size="433.3333" font-family="sans-serif">O</text><text y="-31292" xml:space="preserve" x="-31850" stroke="none" font-size="433.3333" font-family="sans-serif">N</text></g></g></svg>