<svg width="251.97" viewBox="0 0 8399 5055" text-rendering="auto" stroke-width="1" stroke-opacity="1" stroke-miterlimit="10" stroke-linejoin="miter" stroke-linecap="square" stroke-dashoffset="0" stroke-dasharray="none" stroke="black" shape-rendering="auto" image-rendering="auto" height="151.65" font-weight="normal" font-style="normal" font-size="12" font-family="'Dialog'" fill-opacity="1" fill="black" color-rendering="auto" color-interpolation="auto" xmlns="http://www.w3.org/2000/svg"><g><g stroke="white" fill="white"><rect y="0" x="0" width="8399" stroke="none" height="5055"/></g><g transform="translate(32866,32758)" text-rendering="geometricPrecision" stroke-width="44" stroke-linejoin="round" stroke-linecap="round"><line y2="-30850" y1="-31376" x2="-28978" x1="-29885" fill="none"/><line y2="-30850" y1="-31376" x2="-30792" x1="-29885" fill="none"/><line y2="-32202" y1="-31376" x2="-29957" x1="-29957" fill="none"/><line y2="-32202" y1="-31376" x2="-29816" x1="-29816" fill="none"/><line y2="-30850" y1="-29715" x2="-28978" x1="-28978" fill="none"/><line y2="-30708" y1="-29856" x2="-28808" x1="-28808" fill="none"/><line y2="-31419" y1="-30850" x2="-27993" x1="-28978" fill="none"/><line y2="-29715" y1="-29146" x2="-28978" x1="-27993" fill="none"/><line y2="-30850" y1="-31419" x2="-27008" x1="-27993" fill="none"/><line y2="-30775" y1="-31202" x2="-27216" x1="-27955" fill="none"/><line y2="-29146" y1="-29715" x2="-27993" x1="-27008" fill="none"/><line y2="-29362" y1="-29790" x2="-27955" x1="-27216" fill="none"/><line y2="-29715" y1="-30850" x2="-27008" x1="-27008" fill="none"/><line y2="-29299" y1="-29715" x2="-26288" x1="-27008" fill="none"/><line y2="-30850" y1="-31419" x2="-30792" x1="-31777" fill="none"/><line y2="-30775" y1="-31202" x2="-31000" x1="-31740" fill="none"/><line y2="-29715" y1="-30850" x2="-30792" x1="-30792" fill="none"/><line y2="-31419" y1="-30850" x2="-31777" x1="-32762" fill="none"/><line y2="-29146" y1="-29715" x2="-31777" x1="-30792" fill="none"/><line y2="-29362" y1="-29790" x2="-31740" x1="-31000" fill="none"/><line y2="-30850" y1="-29715" x2="-32762" x1="-32762" fill="none"/><line y2="-30708" y1="-29856" x2="-32592" x1="-32592" fill="none"/><line y2="-29715" y1="-29146" x2="-32762" x1="-31777" fill="none"/><line y2="-29605" y1="-29299" x2="-25381" x1="-25913" fill="none"/><line y2="-28363" y1="-28969" x2="-26101" x1="-26101" fill="none"/><text y="-32242" xml:space="preserve" x="-30038" stroke="none" font-size="433.3333" font-family="sans-serif">O</text><text y="-29010" xml:space="preserve" x="-26254" stroke="none" font-size="433.3333" font-family="sans-serif">N</text><text y="-29536" xml:space="preserve" x="-25347" stroke="none" font-size="433.3333" font-family="sans-serif">CH</text><text y="-29446" xml:space="preserve" x="-24769" stroke="none" font-size="313.3333" font-family="sans-serif">3</text><text y="-27964" xml:space="preserve" x="-26254" stroke="none" font-size="433.3333" font-family="sans-serif">CH</text><text y="-27874" xml:space="preserve" x="-25676" stroke="none" font-size="313.3333" font-family="sans-serif">3</text></g></g></svg>