<svg width="290.49" viewBox="0 0 9683 5760" text-rendering="auto" stroke-width="1" stroke-opacity="1" stroke-miterlimit="10" stroke-linejoin="miter" stroke-linecap="square" stroke-dashoffset="0" stroke-dasharray="none" stroke="black" shape-rendering="auto" image-rendering="auto" height="172.8" font-weight="normal" font-style="normal" font-size="12" font-family="'Dialog'" fill-opacity="1" fill="black" color-rendering="auto" color-interpolation="auto" xmlns="http://www.w3.org/2000/svg"><g><g stroke="white" fill="white"><rect y="0" x="0" width="9683" stroke="none" height="5760"/></g><g transform="translate(32866,32866)" text-rendering="geometricPrecision" stroke-width="44" stroke-linejoin="round" stroke-linecap="round"><line y2="-29024" y1="-29440" x2="-27262" x1="-27981" fill="none"/><line y2="-29391" y1="-29085" x2="-26390" x1="-26918" fill="none"/><line y2="-29270" y1="-28964" x2="-26317" x1="-26849" fill="none"/><line y2="-28917" y1="-29330" x2="-25257" x1="-25976" fill="none"/><line y2="-28964" y1="-29380" x2="-28663" x1="-27944" fill="none"/><line y2="-29085" y1="-29501" x2="-28735" x1="-28016" fill="none"/><line y2="-29273" y1="-29024" x2="-29504" x1="-29076" fill="none"/><line y2="-28969" y1="-29382" x2="-30792" x1="-30073" fill="none"/><line y2="-30489" y1="-29440" x2="-27981" x1="-27981" fill="none"/><line y2="-28917" y1="-27779" x2="-25257" x1="-25257" fill="none"/><line y2="-28773" y1="-27921" x2="-25090" x1="-25090" fill="none"/><line y2="-29484" y1="-28917" x2="-24272" x1="-25257" fill="none"/><line y2="-27779" y1="-27210" x2="-25257" x1="-24272" fill="none"/><line y2="-28917" y1="-29484" x2="-23287" x1="-24272" fill="none"/><line y2="-28839" y1="-29267" x2="-23495" x1="-24234" fill="none"/><line y2="-27210" y1="-27779" x2="-24272" x1="-23287" fill="none"/><line y2="-27427" y1="-27854" x2="-24234" x1="-23495" fill="none"/><line y2="-27779" y1="-28917" x2="-23287" x1="-23287" fill="none"/><line y2="-28969" y1="-29536" x2="-30792" x1="-31774" fill="none"/><line y2="-28891" y1="-29319" x2="-31000" x1="-31737" fill="none"/><line y2="-27831" y1="-28969" x2="-30792" x1="-30792" fill="none"/><line y2="-29536" y1="-28969" x2="-31774" x1="-32762" fill="none"/><line y2="-27262" y1="-27831" x2="-31774" x1="-30792" fill="none"/><line y2="-27479" y1="-27906" x2="-31737" x1="-31000" fill="none"/><line y2="-28969" y1="-27831" x2="-32762" x1="-32762" fill="none"/><line y2="-28825" y1="-27973" x2="-32592" x1="-32592" fill="none"/><line y2="-27831" y1="-27262" x2="-32762" x1="-31774" fill="none"/><line y2="-31055" y1="-30489" x2="-28966" x1="-27981" fill="none"/><line y2="-31133" y1="-30706" x2="-28758" x1="-28019" fill="none"/><line y2="-30489" y1="-31055" x2="-27981" x1="-26996" fill="none"/><line y2="-32193" y1="-31055" x2="-28966" x1="-28966" fill="none"/><line y2="-31055" y1="-32193" x2="-26996" x1="-26996" fill="none"/><line y2="-31200" y1="-32052" x2="-27167" x1="-27167" fill="none"/><line y2="-32762" y1="-32193" x2="-27981" x1="-28966" fill="none"/><line y2="-32543" y1="-32118" x2="-28019" x1="-28758" fill="none"/><line y2="-32193" y1="-32762" x2="-26996" x1="-27981" fill="none"/><text y="-28738" xml:space="preserve" x="-27224" stroke="none" font-size="433.3333" font-family="sans-serif">N</text><text y="-28738" xml:space="preserve" x="-29039" stroke="none" font-size="433.3333" font-family="sans-serif">N</text><text y="-29261" xml:space="preserve" x="-26317" stroke="none" font-size="433.3333" font-family="sans-serif">N</text><text y="-29313" xml:space="preserve" x="-30038" stroke="none" font-size="433.3333" font-family="sans-serif">NH</text></g></g></svg>