<svg width="193.53" viewBox="0 0 6451 3530" text-rendering="auto" stroke-width="1" stroke-opacity="1" stroke-miterlimit="10" stroke-linejoin="miter" stroke-linecap="square" stroke-dashoffset="0" stroke-dasharray="none" stroke="black" shape-rendering="auto" image-rendering="auto" height="105.9" font-weight="normal" font-style="normal" font-size="12" font-family="'Dialog'" fill-opacity="1" fill="black" color-rendering="auto" color-interpolation="auto" xmlns="http://www.w3.org/2000/svg"><g><g stroke="white" fill="white"><rect y="0" x="0" width="6451" stroke="none" height="3530"/></g><g transform="translate(32866,32866)" text-rendering="geometricPrecision" stroke-width="44" stroke-linejoin="round" stroke-linecap="round"><line y2="-31145" y1="-31714" x2="-30792" x1="-31774" fill="none"/><line y2="-31070" y1="-31497" x2="-31000" x1="-31737" fill="none"/><line y2="-30009" y1="-31145" x2="-30792" x1="-30792" fill="none"/><line y2="-31714" y1="-31145" x2="-31774" x1="-32762" fill="none"/><line y2="-29440" y1="-30009" x2="-31774" x1="-30792" fill="none"/><line y2="-29657" y1="-30084" x2="-31737" x1="-31000" fill="none"/><line y2="-31145" y1="-30009" x2="-32762" x1="-32762" fill="none"/><line y2="-31003" y1="-30151" x2="-32592" x1="-32592" fill="none"/><line y2="-30009" y1="-29440" x2="-32762" x1="-31774" fill="none"/><line y2="-31670" y1="-31145" x2="-29885" x1="-30792" fill="none"/><line y2="-31254" y1="-31670" x2="-29166" x1="-29885" fill="none"/><line y2="-32762" y1="-31714" x2="-31774" x1="-31774" fill="none"/><line y2="-30928" y1="-30009" x2="-28978" x1="-28978" fill="none"/><line y2="-31714" y1="-31254" x2="-27990" x1="-28790" fill="none"/><line y2="-30009" y1="-29440" x2="-28978" x1="-27990" fill="none"/><line y2="-31145" y1="-31714" x2="-27008" x1="-27990" fill="none"/><line y2="-29440" y1="-29900" x2="-27990" x1="-27196" fill="none"/><line y2="-30229" y1="-31145" x2="-27008" x1="-27008" fill="none"/><text y="-30966" xml:space="preserve" x="-29128" stroke="none" font-size="433.3333" font-family="sans-serif">N</text><text y="-29830" xml:space="preserve" x="-27158" stroke="none" font-size="433.3333" font-family="sans-serif">NH</text></g></g></svg>