<svg width="97.41" viewBox="0 0 3247 5987" text-rendering="auto" stroke-width="1" stroke-opacity="1" stroke-miterlimit="10" stroke-linejoin="miter" stroke-linecap="square" stroke-dashoffset="0" stroke-dasharray="none" stroke="black" shape-rendering="auto" image-rendering="auto" height="179.61" font-weight="normal" font-style="normal" font-size="12" font-family="'Dialog'" fill-opacity="1" fill="black" color-rendering="auto" color-interpolation="auto" xmlns="http://www.w3.org/2000/svg"><g><g stroke="white" fill="white"><rect y="0" x="0" width="3247" stroke="none" height="5987"/></g><g transform="translate(32866,32758)" text-rendering="geometricPrecision" stroke-width="44" stroke-linejoin="round" stroke-linecap="round"><line y2="-29099" y1="-29668" x2="-31613" x1="-30630" fill="none"/><line y2="-29319" y1="-29744" x2="-31575" x1="-30838" fill="none"/><line y2="-29668" y1="-29099" x2="-32601" x1="-31613" fill="none"/><line y2="-29668" y1="-30807" x2="-30630" x1="-30630" fill="none"/><line y2="-30807" y1="-29668" x2="-32601" x1="-32601" fill="none"/><line y2="-30665" y1="-29810" x2="-32430" x1="-32430" fill="none"/><line y2="-30807" y1="-31376" x2="-30630" x1="-31613" fill="none"/><line y2="-30729" y1="-31156" x2="-30838" x1="-31575" fill="none"/><line y2="-31376" y1="-30807" x2="-31613" x1="-32601" fill="none"/><line y2="-31330" y1="-30807" x2="-29723" x1="-30630" fill="none"/><line y2="-28273" y1="-29099" x2="-31613" x1="-31613" fill="none"/><line y2="-32202" y1="-31376" x2="-31613" x1="-31613" fill="none"/><line y2="-27695" y1="-27944" x2="-32231" x1="-31800" fill="none"/><line y2="-27401" y1="-27869" x2="-31156" x1="-31425" fill="none"/><line y2="-27328" y1="-27799" x2="-31278" x1="-31549" fill="none"/><line y2="-28123" y1="-28123" x2="-30755" x1="-31425" fill="none"/><line y2="-27981" y1="-27981" x2="-30755" x1="-31425" fill="none"/><text y="-27874" xml:space="preserve" x="-31766" stroke="none" font-size="433.3333" font-family="sans-serif">S</text><text y="-27297" xml:space="preserve" x="-32762" stroke="none" font-size="433.3333" font-family="sans-serif">NH</text><text y="-27207" xml:space="preserve" x="-32185" stroke="none" font-size="313.3333" font-family="sans-serif">2</text><text y="-26967" xml:space="preserve" x="-31243" stroke="none" font-size="433.3333" font-family="sans-serif">O</text><text y="-27874" xml:space="preserve" x="-30717" stroke="none" font-size="433.3333" font-family="sans-serif">O</text><text y="-32242" xml:space="preserve" x="-31766" stroke="none" font-size="433.3333" font-family="sans-serif">NH</text><text y="-32153" xml:space="preserve" x="-31188" stroke="none" font-size="313.3333" font-family="sans-serif">2</text></g></g></svg>