<svg width="161.25" viewBox="0 0 5375 6741" text-rendering="auto" stroke-width="1" stroke-opacity="1" stroke-miterlimit="10" stroke-linejoin="miter" stroke-linecap="square" stroke-dashoffset="0" stroke-dasharray="none" stroke="black" shape-rendering="auto" image-rendering="auto" height="202.23" font-weight="normal" font-style="normal" font-size="12" font-family="'Dialog'" fill-opacity="1" fill="black" color-rendering="auto" color-interpolation="auto" xmlns="http://www.w3.org/2000/svg"><g><g stroke="white" fill="white"><rect y="0" x="0" width="5375" stroke="none" height="6741"/></g><g transform="translate(32866,32758)" text-rendering="geometricPrecision" stroke-width="44" stroke-linejoin="round" stroke-linecap="round"><line y2="-28007" y1="-29146" x2="-30639" x1="-30639" fill="none"/><line y2="-29146" y1="-29715" x2="-30639" x1="-31627" fill="none"/><line y2="-29068" y1="-29495" x2="-30847" x1="-31587" fill="none"/><line y2="-27438" y1="-28007" x2="-31627" x1="-30639" fill="none"/><line y2="-27658" y1="-28085" x2="-31587" x1="-30847" fill="none"/><line y2="-29715" y1="-29146" x2="-31627" x1="-32609" fill="none"/><line y2="-27900" y1="-27438" x2="-32422" x1="-31627" fill="none"/><line y2="-29146" y1="-28227" x2="-32609" x1="-32609" fill="none"/><line y2="-29030" y1="-28342" x2="-32439" x1="-32439" fill="none"/><line y2="-29668" y1="-29146" x2="-29732" x1="-30639" fill="none"/><line y2="-26609" y1="-27438" x2="-31627" x1="-31627" fill="none"/><line y2="-30807" y1="-29668" x2="-29732" x1="-29732" fill="none"/><line y2="-29668" y1="-29099" x2="-29732" x1="-28744" fill="none"/><line y2="-29746" y1="-29319" x2="-29524" x1="-28784" fill="none"/><line y2="-31376" y1="-30807" x2="-28744" x1="-29732" fill="none"/><line y2="-31156" y1="-30729" x2="-28784" x1="-29524" fill="none"/><line y2="-29099" y1="-29668" x2="-28744" x1="-27762" fill="none"/><line y2="-30914" y1="-31376" x2="-27950" x1="-28744" fill="none"/><line y2="-29668" y1="-30587" x2="-27762" x1="-27762" fill="none"/><line y2="-29784" y1="-30472" x2="-27932" x1="-27932" fill="none"/><line y2="-32202" y1="-31376" x2="-28744" x1="-28744" fill="none"/><text y="-26213" xml:space="preserve" x="-31858" stroke="none" font-size="433.3333" font-family="sans-serif">Cl</text><text y="-32242" xml:space="preserve" x="-28975" stroke="none" font-size="433.3333" font-family="sans-serif">Cl</text><text y="-27828" xml:space="preserve" x="-32762" stroke="none" font-size="433.3333" font-family="sans-serif">N</text><text y="-30628" xml:space="preserve" x="-27915" stroke="none" font-size="433.3333" font-family="sans-serif">N</text></g></g></svg>