<svg width="183.78" viewBox="0 0 6126 3758" text-rendering="auto" stroke-width="1" stroke-opacity="1" stroke-miterlimit="10" stroke-linejoin="miter" stroke-linecap="square" stroke-dashoffset="0" stroke-dasharray="none" stroke="black" shape-rendering="auto" image-rendering="auto" height="112.74" font-weight="normal" font-style="normal" font-size="12" font-family="'Dialog'" fill-opacity="1" fill="black" color-rendering="auto" color-interpolation="auto" xmlns="http://www.w3.org/2000/svg"><g><g stroke="white" fill="white"><rect y="0" x="0" width="6126" stroke="none" height="3758"/></g><g transform="translate(32866,32866)" text-rendering="geometricPrecision" stroke-width="44" stroke-linejoin="round" stroke-linecap="round"><line y2="-32193" y1="-31055" x2="-28981" x1="-28981" fill="none"/><line y2="-31055" y1="-30489" x2="-28981" x1="-27993" fill="none"/><line y2="-31133" y1="-30706" x2="-28773" x1="-28033" fill="none"/><line y2="-32762" y1="-32193" x2="-27993" x1="-28981" fill="none"/><line y2="-32543" y1="-32118" x2="-28033" x1="-28773" fill="none"/><line y2="-30489" y1="-31055" x2="-27993" x1="-27011" fill="none"/><line y2="-32303" y1="-32762" x2="-27198" x1="-27993" fill="none"/><line y2="-31055" y1="-31974" x2="-27011" x1="-27011" fill="none"/><line y2="-31171" y1="-31861" x2="-27181" x1="-27181" fill="none"/><line y2="-30532" y1="-31055" x2="-29888" x1="-28981" fill="none"/><line y2="-31055" y1="-30532" x2="-30795" x1="-29888" fill="none"/><line y2="-30870" y1="-30477" x2="-30752" x1="-30073" fill="none"/><line y2="-30532" y1="-31055" x2="-31702" x1="-30795" fill="none"/><line y2="-30838" y1="-30532" x2="-32231" x1="-31702" fill="none"/><line y2="-29703" y1="-30532" x2="-31633" x1="-31633" fill="none"/><line y2="-29703" y1="-30532" x2="-31772" x1="-31772" fill="none"/><text y="-30876" xml:space="preserve" x="-32762" stroke="none" font-size="433.3333" font-family="sans-serif">OH</text><text y="-29304" xml:space="preserve" x="-31855" stroke="none" font-size="433.3333" font-family="sans-serif">O</text><text y="-32014" xml:space="preserve" x="-27164" stroke="none" font-size="433.3333" font-family="sans-serif">N</text></g></g></svg>