<svg width="368.37" viewBox="0 0 12279 3947" text-rendering="auto" stroke-width="1" stroke-opacity="1" stroke-miterlimit="10" stroke-linejoin="miter" stroke-linecap="square" stroke-dashoffset="0" stroke-dasharray="none" stroke="black" shape-rendering="auto" image-rendering="auto" height="118.41" font-weight="normal" font-style="normal" font-size="12" font-family="'Dialog'" fill-opacity="1" fill="black" color-rendering="auto" color-interpolation="auto" xmlns="http://www.w3.org/2000/svg"><g><g stroke="white" fill="white"><rect y="0" x="0" width="12279" stroke="none" height="3947"/></g><g transform="translate(32866,32758)" text-rendering="geometricPrecision" stroke-width="44" stroke-linejoin="round" stroke-linecap="round"><line y2="-31896" y1="-30758" x2="-30697" x1="-30697" fill="none"/><line y2="-31754" y1="-30902" x2="-30529" x1="-30529" fill="none"/><line y2="-30758" y1="-30191" x2="-30697" x1="-29712" fill="none"/><line y2="-32465" y1="-31896" x2="-29712" x1="-30697" fill="none"/><line y2="-30191" y1="-30758" x2="-29712" x1="-28727" fill="none"/><line y2="-30408" y1="-30836" x2="-29674" x1="-28935" fill="none"/><line y2="-31896" y1="-32465" x2="-28727" x1="-29712" fill="none"/><line y2="-31821" y1="-32248" x2="-28935" x1="-29674" fill="none"/><line y2="-30758" y1="-31896" x2="-28727" x1="-28727" fill="none"/><line y2="-32312" y1="-31896" x2="-28010" x1="-28727" fill="none"/><line y2="-32066" y1="-32372" x2="-27066" x1="-27597" fill="none"/><line y2="-31945" y1="-32251" x2="-27138" x1="-27666" fill="none"/><line y2="-32312" y1="-32006" x2="-26193" x1="-26725" fill="none"/><line y2="-31896" y1="-32202" x2="-25098" x1="-25627" fill="none"/><line y2="-30235" y1="-30758" x2="-31604" x1="-30697" fill="none"/><line y2="-31896" y1="-30758" x2="-25098" x1="-25098" fill="none"/><line y2="-31754" y1="-30902" x2="-24928" x1="-24928" fill="none"/><line y2="-32465" y1="-31896" x2="-24113" x1="-25098" fill="none"/><line y2="-30758" y1="-30191" x2="-25098" x1="-24113" fill="none"/><line y2="-31896" y1="-32465" x2="-23128" x1="-24113" fill="none"/><line y2="-31821" y1="-32248" x2="-23336" x1="-24076" fill="none"/><line y2="-30191" y1="-30758" x2="-24113" x1="-23128" fill="none"/><line y2="-30408" y1="-30836" x2="-24076" x1="-23336" fill="none"/><line y2="-30758" y1="-31896" x2="-23128" x1="-23128" fill="none"/><line y2="-30235" y1="-30758" x2="-22221" x1="-23128" fill="none"/><line y2="-30486" y1="-30235" x2="-32040" x1="-31604" fill="none"/><line y2="-29406" y1="-30235" x2="-31535" x1="-31535" fill="none"/><line y2="-29406" y1="-30235" x2="-31676" x1="-31676" fill="none"/><line y2="-30651" y1="-30235" x2="-21502" x1="-22221" fill="none"/><line y2="-29406" y1="-30235" x2="-22152" x1="-22152" fill="none"/><line y2="-29406" y1="-30235" x2="-22290" x1="-22290" fill="none"/><text y="-29007" xml:space="preserve" x="-31757" stroke="none" font-size="433.3333" font-family="sans-serif">NH</text><text y="-30636" xml:space="preserve" x="-32762" stroke="none" font-size="433.3333" font-family="sans-serif">NH</text><text y="-30547" xml:space="preserve" x="-32185" stroke="none" font-size="313.3333" font-family="sans-serif">2</text><text y="-32242" xml:space="preserve" x="-27973" stroke="none" font-size="433.3333" font-family="sans-serif">N</text><text y="-31717" xml:space="preserve" x="-27066" stroke="none" font-size="433.3333" font-family="sans-serif">N</text><text y="-32242" xml:space="preserve" x="-26158" stroke="none" font-size="433.3333" font-family="sans-serif">NH</text><text y="-29007" xml:space="preserve" x="-22374" stroke="none" font-size="433.3333" font-family="sans-serif">NH</text><text y="-30578" xml:space="preserve" x="-21467" stroke="none" font-size="433.3333" font-family="sans-serif">NH</text><text y="-30489" xml:space="preserve" x="-20889" stroke="none" font-size="313.3333" font-family="sans-serif">2</text></g></g></svg>