<svg width="154.5" viewBox="0 0 5150 3345" text-rendering="auto" stroke-width="1" stroke-opacity="1" stroke-miterlimit="10" stroke-linejoin="miter" stroke-linecap="square" stroke-dashoffset="0" stroke-dasharray="none" stroke="black" shape-rendering="auto" image-rendering="auto" height="100.35" font-weight="normal" font-style="normal" font-size="12" font-family="'Dialog'" fill-opacity="1" fill="black" color-rendering="auto" color-interpolation="auto" xmlns="http://www.w3.org/2000/svg"><g><g stroke="white" fill="white"><rect y="0" x="0" width="5150" stroke="none" height="3345"/></g><g transform="translate(32866,32866)" text-rendering="geometricPrecision" stroke-width="44" stroke-linejoin="round" stroke-linecap="round"><line y2="-31332" y1="-31899" x2="-29634" x1="-30619" fill="none"/><line y2="-31254" y1="-31682" x2="-29842" x1="-30581" fill="none"/><line y2="-30194" y1="-31332" x2="-29634" x1="-29634" fill="none"/><line y2="-31899" y1="-31332" x2="-30619" x1="-31604" fill="none"/><line y2="-29625" y1="-30194" x2="-30619" x1="-29634" fill="none"/><line y2="-29842" y1="-30269" x2="-30581" x1="-29842" fill="none"/><line y2="-31332" y1="-30194" x2="-31604" x1="-31604" fill="none"/><line y2="-31188" y1="-30336" x2="-31434" x1="-31434" fill="none"/><line y2="-30194" y1="-29625" x2="-31604" x1="-30619" fill="none"/><line y2="-31855" y1="-31332" x2="-28727" x1="-29634" fill="none"/><line y2="-31581" y1="-31332" x2="-32040" x1="-31604" fill="none"/><line y2="-31332" y1="-31855" x2="-27820" x1="-28727" fill="none"/><line y2="-32762" y1="-31855" x2="-28204" x1="-28727" fill="none"/><line y2="-32762" y1="-31855" x2="-29252" x1="-28727" fill="none"/><text y="-31734" xml:space="preserve" x="-32762" stroke="none" font-size="433.3333" font-family="sans-serif">NH</text><text y="-31644" xml:space="preserve" x="-32185" stroke="none" font-size="313.3333" font-family="sans-serif">2</text></g></g></svg>