<svg width="505.44" viewBox="0 0 16848 6949" text-rendering="auto" stroke-width="1" stroke-opacity="1" stroke-miterlimit="10" stroke-linejoin="miter" stroke-linecap="square" stroke-dashoffset="0" stroke-dasharray="none" stroke="black" shape-rendering="auto" image-rendering="auto" height="208.47" font-weight="normal" font-style="normal" font-size="12" font-family="'Dialog'" fill-opacity="1" fill="black" color-rendering="auto" color-interpolation="auto" xmlns="http://www.w3.org/2000/svg"><g><g stroke="white" fill="white"><rect y="0" x="0" width="16848" stroke="none" height="6949"/></g><g transform="translate(32866,32758)" text-rendering="geometricPrecision" stroke-width="44" stroke-linejoin="round" stroke-linecap="round"><line y2="-27617" y1="-28143" x2="-25350" x1="-26257" fill="none"/><line y2="-27562" y1="-27955" x2="-25534" x1="-26213" fill="none"/><line y2="-27617" y1="-28143" x2="-27164" x1="-26257" fill="none"/><line y2="-28143" y1="-27617" x2="-24442" x1="-25350" fill="none"/><line y2="-28143" y1="-27617" x2="-28071" x1="-27164" fill="none"/><line y2="-27955" y1="-27562" x2="-28028" x1="-27349" fill="none"/><line y2="-27617" y1="-28143" x2="-23535" x1="-24442" fill="none"/><line y2="-27562" y1="-27955" x2="-23720" x1="-24399" fill="none"/><line y2="-29189" y1="-28143" x2="-24442" x1="-24442" fill="none"/><line y2="-27617" y1="-28143" x2="-28978" x1="-28071" fill="none"/><line y2="-29189" y1="-28143" x2="-28071" x1="-28071" fill="none"/><line y2="-28143" y1="-27617" x2="-22628" x1="-23535" fill="none"/><line y2="-28143" y1="-27617" x2="-29885" x1="-28978" fill="none"/><line y2="-27955" y1="-27562" x2="-29842" x1="-29163" fill="none"/><line y2="-28969" y1="-28143" x2="-22628" x1="-22628" fill="none"/><line y2="-29715" y1="-29408" x2="-21721" x1="-22250" fill="none"/><line y2="-27788" y1="-28204" x2="-21874" x1="-22594" fill="none"/><line y2="-27666" y1="-28080" x2="-21944" x1="-22663" fill="none"/><line y2="-27617" y1="-28143" x2="-30792" x1="-29885" fill="none"/><line y2="-30850" y1="-29715" x2="-21721" x1="-21721" fill="none"/><line y2="-30708" y1="-29856" x2="-21551" x1="-21551" fill="none"/><line y2="-29715" y1="-29146" x2="-21721" x1="-20733" fill="none"/><line y2="-31419" y1="-30850" x2="-20733" x1="-21721" fill="none"/><line y2="-29146" y1="-29715" x2="-20733" x1="-19751" fill="none"/><line y2="-29362" y1="-29790" x2="-20696" x1="-19959" fill="none"/><line y2="-30850" y1="-31419" x2="-19751" x1="-20733" fill="none"/><line y2="-30775" y1="-31202" x2="-19959" x1="-20696" fill="none"/><line y2="-29715" y1="-30850" x2="-19751" x1="-19751" fill="none"/><line y2="-31376" y1="-30850" x2="-18844" x1="-19751" fill="none"/><line y2="-27617" y1="-28186" x2="-30792" x1="-31780" fill="none"/><line y2="-26482" y1="-27617" x2="-30792" x1="-30792" fill="none"/><line y2="-26624" y1="-27476" x2="-30963" x1="-30963" fill="none"/><line y2="-28186" y1="-27617" x2="-31780" x1="-32762" fill="none"/><line y2="-25913" y1="-26482" x2="-31780" x1="-30792" fill="none"/><line y2="-27617" y1="-26482" x2="-32762" x1="-32762" fill="none"/><line y2="-26482" y1="-25913" x2="-32762" x1="-31780" fill="none"/><line y2="-29001" y1="-28186" x2="-32439" x1="-31780" fill="none"/><line y2="-28990" y1="-28186" x2="-31107" x1="-31780" fill="none"/><line y2="-25956" y1="-26482" x2="-29885" x1="-30792" fill="none"/><line y2="-30960" y1="-31376" x2="-18124" x1="-18844" fill="none"/><line y2="-31376" y1="-30960" x2="-17030" x1="-17749" fill="none"/><line y2="-30850" y1="-31376" x2="-16122" x1="-17030" fill="none"/><line y2="-32202" y1="-31376" x2="-18913" x1="-18913" fill="none"/><line y2="-32202" y1="-31376" x2="-18774" x1="-18774" fill="none"/><text y="-29010" xml:space="preserve" x="-22781" stroke="none" font-size="433.3333" font-family="sans-serif">NH</text><text y="-27438" xml:space="preserve" x="-21874" stroke="none" font-size="433.3333" font-family="sans-serif">O</text><text y="-30671" xml:space="preserve" x="-18090" stroke="none" font-size="433.3333" font-family="sans-serif">O</text><text y="-32242" xml:space="preserve" x="-18997" stroke="none" font-size="433.3333" font-family="sans-serif">O</text><text y="-28088" xml:space="preserve" x="-29362" stroke="none" font-style="italic" font-size="313.3333" font-family="sans-serif">E</text><text y="-28088" xml:space="preserve" x="-27545" stroke="none" font-style="italic" font-size="313.3333" font-family="sans-serif">E</text><text y="-28091" xml:space="preserve" x="-25740" stroke="none" font-style="italic" font-size="313.3333" font-family="sans-serif">E</text><text y="-28091" xml:space="preserve" x="-23925" stroke="none" font-style="italic" font-size="313.3333" font-family="sans-serif">E</text></g></g></svg>