<svg width="138.36" viewBox="0 0 4612 3217" text-rendering="auto" stroke-width="1" stroke-opacity="1" stroke-miterlimit="10" stroke-linejoin="miter" stroke-linecap="square" stroke-dashoffset="0" stroke-dasharray="none" stroke="black" shape-rendering="auto" image-rendering="auto" height="96.51" font-weight="normal" font-style="normal" font-size="12" font-family="'Dialog'" fill-opacity="1" fill="black" color-rendering="auto" color-interpolation="auto" xmlns="http://www.w3.org/2000/svg"><g><g stroke="white" fill="white"><rect y="0" x="0" width="4612" stroke="none" height="3217"/></g><g transform="translate(32866,32758)" text-rendering="geometricPrecision" stroke-width="44" stroke-linejoin="round" stroke-linecap="round"><line y2="-31217" y1="-30694" x2="-31852" x1="-30945" fill="none"/><line y2="-31376" y1="-30694" x2="-29767" x1="-30945" fill="none"/><line y2="-29645" y1="-30694" x2="-30945" x1="-30945" fill="none"/><line y2="-30694" y1="-31217" x2="-32762" x1="-31852" fill="none"/><line y2="-32266" y1="-31217" x2="-31852" x1="-31852" fill="none"/><line y2="-30960" y1="-31376" x2="-29050" x1="-29767" fill="none"/><line y2="-32202" y1="-31376" x2="-29839" x1="-29839" fill="none"/><line y2="-32202" y1="-31376" x2="-29697" x1="-29697" fill="none"/><polygon stroke-width="1" stroke="none" points=" -30945 -30694 -30194 -30339 -30261 -30217"/><polygon stroke-width="1" points=" -30945 -30694 -30194 -30339 -30261 -30217" fill="none"/><text y="-29992" xml:space="preserve" x="-30191" stroke-width="1" stroke="none" font-size="433.3333" font-family="sans-serif">NH</text><text y="-29902" xml:space="preserve" x="-29614" stroke-width="1" stroke="none" font-size="313.3333" font-family="sans-serif">2</text><text y="-30671" xml:space="preserve" x="-29013" stroke-width="1" stroke="none" font-size="433.3333" font-family="sans-serif">OH</text><text y="-32242" xml:space="preserve" x="-29920" stroke-width="1" stroke="none" font-size="433.3333" font-family="sans-serif">O</text></g><g transform="translate(32866,32758)" text-rendering="geometricPrecision" stroke-linejoin="round" stroke-linecap="round" font-style="italic" font-size="313.3333" font-family="sans-serif"><text y="-30370" xml:space="preserve" x="-31347" stroke="none">S</text></g></g></svg>