<svg width="212.88" viewBox="0 0 7096 5508" text-rendering="auto" stroke-width="1" stroke-opacity="1" stroke-miterlimit="10" stroke-linejoin="miter" stroke-linecap="square" stroke-dashoffset="0" stroke-dasharray="none" stroke="black" shape-rendering="auto" image-rendering="auto" height="165.24" font-weight="normal" font-style="normal" font-size="12" font-family="'Dialog'" fill-opacity="1" fill="black" color-rendering="auto" color-interpolation="auto" xmlns="http://www.w3.org/2000/svg"><g><g stroke="white" fill="white"><rect y="0" x="0" width="7096" stroke="none" height="5508"/></g><g transform="translate(32866,32758)" text-rendering="geometricPrecision" stroke-width="44" stroke-linejoin="round" stroke-linecap="round"><line y2="-29328" y1="-30266" x2="-28056" x1="-28056" fill="none"/><line y2="-30593" y1="-30977" x2="-28247" x1="-28906" fill="none"/><line y2="-28527" y1="-28912" x2="-29059" x1="-28397" fill="none"/><line y2="-30977" y1="-30593" x2="-29588" x1="-30255" fill="none"/><line y2="-28912" y1="-28527" x2="-30102" x1="-29437" fill="none"/><line y2="-30266" y1="-29328" x2="-30443" x1="-30443" fill="none"/><line y2="-27909" y1="-28888" x2="-27620" x1="-27978" fill="none"/><line y2="-29348" y1="-29169" x2="-26687" x1="-27716" fill="none"/><line y2="-32202" y1="-31393" x2="-30053" x1="-29420" fill="none"/><line y2="-32162" y1="-31393" x2="-28389" x1="-29056" fill="none"/><line y2="-29348" y1="-29169" x2="-31815" x1="-30784" fill="none"/><line y2="-27909" y1="-28888" x2="-30882" x1="-30524" fill="none"/><text y="-27510" xml:space="preserve" x="-27692" stroke="none" font-size="433.3333" font-family="sans-serif">CH</text><text y="-27421" xml:space="preserve" x="-27115" stroke="none" font-size="313.3333" font-family="sans-serif">3</text><text y="-29203" xml:space="preserve" x="-26650" stroke="none" font-size="433.3333" font-family="sans-serif">CH</text><text y="-29114" xml:space="preserve" x="-26072" stroke="none" font-size="313.3333" font-family="sans-serif">3</text><text y="-32242" xml:space="preserve" x="-30376" stroke="none" font-size="433.3333" font-family="sans-serif">CH</text><text y="-32153" xml:space="preserve" x="-29798" stroke="none" font-size="313.3333" font-family="sans-serif">3</text><text y="-32199" xml:space="preserve" x="-28354" stroke="none" font-size="433.3333" font-family="sans-serif">CH</text><text y="-32110" xml:space="preserve" x="-27776" stroke="none" font-size="313.3333" font-family="sans-serif">3</text><text y="-29310" xml:space="preserve" x="-32762" stroke="none" font-size="433.3333" font-family="sans-serif">CH</text><text y="-29221" xml:space="preserve" x="-32185" stroke="none" font-size="313.3333" font-family="sans-serif">3</text><text y="-27510" xml:space="preserve" x="-31113" stroke="none" font-size="433.3333" font-family="sans-serif">CH</text><text y="-27421" xml:space="preserve" x="-30535" stroke="none" font-size="313.3333" font-family="sans-serif">3</text><text y="-30307" xml:space="preserve" x="-28210" stroke="none" font-size="433.3333" font-family="sans-serif">O</text><text y="-28929" xml:space="preserve" x="-28290" stroke="none" font-size="433.3333" font-family="sans-serif">Si</text><text y="-30994" xml:space="preserve" x="-29481" stroke="none" font-size="433.3333" font-family="sans-serif">Si</text><text y="-28238" xml:space="preserve" x="-29400" stroke="none" font-size="433.3333" font-family="sans-serif">O</text><text y="-30307" xml:space="preserve" x="-30596" stroke="none" font-size="433.3333" font-family="sans-serif">O</text><text y="-28929" xml:space="preserve" x="-30674" stroke="none" font-size="433.3333" font-family="sans-serif">Si</text></g></g></svg>