<svg width="207.96" viewBox="0 0 6932 5236" text-rendering="auto" stroke-width="1" stroke-opacity="1" stroke-miterlimit="10" stroke-linejoin="miter" stroke-linecap="square" stroke-dashoffset="0" stroke-dasharray="none" stroke="black" shape-rendering="auto" image-rendering="auto" height="157.08" font-weight="normal" font-style="normal" font-size="12" font-family="'Dialog'" fill-opacity="1" fill="black" color-rendering="auto" color-interpolation="auto" xmlns="http://www.w3.org/2000/svg"><g><g stroke="white" fill="white"><rect y="0" x="0" width="6932" stroke="none" height="5236"/></g><g transform="translate(32866,32758)" text-rendering="geometricPrecision" stroke-width="44" stroke-linejoin="round" stroke-linecap="round"><line y2="-29553" y1="-30766" x2="-29507" x1="-29507" fill="none"/><line y2="-29706" y1="-30616" x2="-29677" x1="-29677" fill="none"/><line y2="-30766" y1="-31266" x2="-29507" x1="-30370" fill="none"/><line y2="-31266" y1="-30766" x2="-28640" x1="-29507" fill="none"/><line y2="-28946" y1="-29553" x2="-30558" x1="-29507" fill="none"/><line y2="-29553" y1="-29553" x2="-29507" x1="-27588" fill="none"/><line y2="-31266" y1="-30766" x2="-30746" x1="-31613" fill="none"/><line y2="-30766" y1="-31156" x2="-27401" x1="-28071" fill="none"/><line y2="-29446" y1="-28946" x2="-31425" x1="-30558" fill="none"/><line y2="-29772" y1="-30766" x2="-27401" x1="-27401" fill="none"/><line y2="-30766" y1="-29772" x2="-31613" x1="-31613" fill="none"/><line y2="-32202" y1="-31595" x2="-30558" x1="-30558" fill="none"/><line y2="-29001" y1="-29365" x2="-26849" x1="-27213" fill="none"/><line y2="-29198" y1="-29446" x2="-32231" x1="-31800" fill="none"/><line y2="-28117" y1="-28946" x2="-30489" x1="-30489" fill="none"/><line y2="-28117" y1="-28946" x2="-30628" x1="-30628" fill="none"/><line y2="-31122" y1="-30706" x2="-32367" x1="-31647" fill="none"/><line y2="-31243" y1="-30830" x2="-32294" x1="-31578" fill="none"/><line y2="-31243" y1="-30830" x2="-26716" x1="-27435" fill="none"/><line y2="-31122" y1="-30706" x2="-26647" x1="-27366" fill="none"/><text y="-32242" xml:space="preserve" x="-30708" stroke="none" font-size="433.3333" font-family="sans-serif">CH</text><text y="-32153" xml:space="preserve" x="-30131" stroke="none" font-size="313.3333" font-family="sans-serif">3</text><text y="-27718" xml:space="preserve" x="-30708" stroke="none" font-size="433.3333" font-family="sans-serif">O</text><text y="-28634" xml:space="preserve" x="-26814" stroke="none" font-size="433.3333" font-family="sans-serif">CH</text><text y="-28545" xml:space="preserve" x="-26236" stroke="none" font-size="313.3333" font-family="sans-serif">3</text><text y="-31113" xml:space="preserve" x="-32670" stroke="none" font-size="433.3333" font-family="sans-serif">O</text><text y="-31113" xml:space="preserve" x="-26647" stroke="none" font-size="433.3333" font-family="sans-serif">O</text><text y="-28799" xml:space="preserve" x="-32762" stroke="none" font-size="433.3333" font-family="sans-serif">CH</text><text y="-28709" xml:space="preserve" x="-32185" stroke="none" font-size="313.3333" font-family="sans-serif">3</text><text y="-31197" xml:space="preserve" x="-30708" stroke="none" font-size="433.3333" font-family="sans-serif">N</text><text y="-31197" xml:space="preserve" x="-28605" stroke="none" font-size="433.3333" font-family="sans-serif">NH</text><text y="-29374" xml:space="preserve" x="-27554" stroke="none" font-size="433.3333" font-family="sans-serif">N</text><text y="-29374" xml:space="preserve" x="-31763" stroke="none" font-size="433.3333" font-family="sans-serif">N</text></g></g></svg>