<svg width="504.9" viewBox="0 0 16830 2283" text-rendering="auto" stroke-width="1" stroke-opacity="1" stroke-miterlimit="10" stroke-linejoin="miter" stroke-linecap="square" stroke-dashoffset="0" stroke-dasharray="none" stroke="black" shape-rendering="auto" image-rendering="auto" height="68.49" font-weight="normal" font-style="normal" font-size="12" font-family="'Dialog'" fill-opacity="1" fill="black" color-rendering="auto" color-interpolation="auto" xmlns="http://www.w3.org/2000/svg"><g><g stroke="white" fill="white"><rect y="0" x="0" width="16830" stroke="none" height="2283"/></g><g transform="translate(32866,32758)" text-rendering="geometricPrecision" stroke-width="44" stroke-linejoin="round" stroke-linecap="round"><line y2="-30850" y1="-30850" x2="-20675" x1="-21724" fill="none"/><line y2="-30989" y1="-30989" x2="-20805" x1="-21591" fill="none"/><line y2="-31376" y1="-30850" x2="-22631" x1="-21724" fill="none"/><line y2="-31376" y1="-30850" x2="-19768" x1="-20675" fill="none"/><line y2="-30850" y1="-31376" x2="-18861" x1="-19768" fill="none"/><line y2="-31376" y1="-30850" x2="-17954" x1="-18861" fill="none"/><line y2="-30850" y1="-31376" x2="-17047" x1="-17954" fill="none"/><line y2="-31376" y1="-30850" x2="-16140" x1="-17047" fill="none"/><line y2="-30850" y1="-31376" x2="-23538" x1="-22631" fill="none"/><line y2="-30795" y1="-31188" x2="-23353" x1="-22674" fill="none"/><line y2="-31376" y1="-30850" x2="-24445" x1="-23538" fill="none"/><line y2="-30850" y1="-31376" x2="-25352" x1="-24445" fill="none"/><line y2="-31376" y1="-30850" x2="-26260" x1="-25352" fill="none"/><line y2="-30850" y1="-31376" x2="-27167" x1="-26260" fill="none"/><line y2="-31376" y1="-30850" x2="-28074" x1="-27167" fill="none"/><line y2="-30850" y1="-31376" x2="-28981" x1="-28074" fill="none"/><line y2="-31376" y1="-30850" x2="-29888" x1="-28981" fill="none"/><line y2="-30850" y1="-31376" x2="-30795" x1="-29888" fill="none"/><line y2="-31376" y1="-30850" x2="-31702" x1="-30795" fill="none"/><line y2="-32202" y1="-31376" x2="-24515" x1="-24515" fill="none"/><line y2="-32202" y1="-31376" x2="-24373" x1="-24373" fill="none"/><line y2="-31070" y1="-31376" x2="-32228" x1="-31702" fill="none"/><line y2="-32202" y1="-31376" x2="-31772" x1="-31772" fill="none"/><line y2="-32202" y1="-31376" x2="-31633" x1="-31633" fill="none"/><text y="-32242" xml:space="preserve" x="-24596" stroke="none" font-size="433.3333" font-family="sans-serif">O</text><text y="-30671" xml:space="preserve" x="-32762" stroke="none" font-size="433.3333" font-family="sans-serif">OH</text><text y="-32242" xml:space="preserve" x="-31855" stroke="none" font-size="433.3333" font-family="sans-serif">O</text><text y="-31318" xml:space="preserve" x="-23466" stroke="none" font-style="italic" font-size="313.3333" font-family="sans-serif">E</text><text y="-31139" xml:space="preserve" x="-21351" stroke="none" font-style="italic" font-size="313.3333" font-family="sans-serif">Z</text></g></g></svg>