<svg width="136.47" viewBox="0 0 4549 5207" text-rendering="auto" stroke-width="1" stroke-opacity="1" stroke-miterlimit="10" stroke-linejoin="miter" stroke-linecap="square" stroke-dashoffset="0" stroke-dasharray="none" stroke="black" shape-rendering="auto" image-rendering="auto" height="156.21" font-weight="normal" font-style="normal" font-size="12" font-family="'Dialog'" fill-opacity="1" fill="black" color-rendering="auto" color-interpolation="auto" xmlns="http://www.w3.org/2000/svg"><g><g stroke="white" fill="white"><rect y="0" x="0" width="4549" stroke="none" height="5207"/></g><g transform="translate(32866,32758)" text-rendering="geometricPrecision" stroke-width="44" stroke-linejoin="round" stroke-linecap="round"><line y2="-29576" y1="-30775" x2="-30685" x1="-30685" fill="none"/><line y2="-30775" y1="-31376" x2="-30685" x1="-31722" fill="none"/><line y2="-31266" y1="-30775" x2="-29833" x1="-30685" fill="none"/><line y2="-31058" y1="-30688" x2="-29853" x1="-30495" fill="none"/><line y2="-28975" y1="-29576" x2="-31722" x1="-30685" fill="none"/><line y2="-29576" y1="-29576" x2="-30685" x1="-28796" fill="none"/><line y2="-29744" y1="-29744" x2="-30448" x1="-29030" fill="none"/><line y2="-31376" y1="-30775" x2="-31722" x1="-32762" fill="none"/><line y2="-31150" y1="-30703" x2="-31769" x1="-32549" fill="none"/><line y2="-30882" y1="-31266" x2="-28796" x1="-29455" fill="none"/><line y2="-29576" y1="-28975" x2="-32762" x1="-31722" fill="none"/><line y2="-29648" y1="-29198" x2="-32549" x1="-31769" fill="none"/><line y2="-29796" y1="-30555" x2="-28605" x1="-28605" fill="none"/><line y2="-30775" y1="-29576" x2="-32762" x1="-32762" fill="none"/><line y2="-32202" y1="-31376" x2="-31722" x1="-31722" fill="none"/><line y2="-28146" y1="-28975" x2="-31722" x1="-31722" fill="none"/><text y="-32242" xml:space="preserve" x="-31954" stroke="none" font-size="433.3333" font-family="sans-serif">Br</text><text y="-27747" xml:space="preserve" x="-31954" stroke="none" font-size="433.3333" font-family="sans-serif">Br</text><text y="-31197" xml:space="preserve" x="-29796" stroke="none" font-size="433.3333" font-family="sans-serif">N</text><text y="-29397" xml:space="preserve" x="-28758" stroke="none" font-size="433.3333" font-family="sans-serif">N</text><text y="-30596" xml:space="preserve" x="-28758" stroke="none" font-size="433.3333" font-family="sans-serif">O</text></g></g></svg>