<svg width="134.55" viewBox="0 0 4485 4042" text-rendering="auto" stroke-width="1" stroke-opacity="1" stroke-miterlimit="10" stroke-linejoin="miter" stroke-linecap="square" stroke-dashoffset="0" stroke-dasharray="none" stroke="black" shape-rendering="auto" image-rendering="auto" height="121.26" font-weight="normal" font-style="normal" font-size="12" font-family="'Dialog'" fill-opacity="1" fill="black" color-rendering="auto" color-interpolation="auto" xmlns="http://www.w3.org/2000/svg"><g><g stroke="white" fill="white"><rect y="0" x="0" width="4485" stroke="none" height="4042"/></g><g transform="translate(32866,32758)" text-rendering="geometricPrecision" stroke-width="44" stroke-linejoin="round" stroke-linecap="round"><line y2="-30154" y1="-30706" x2="-30804" x1="-31514" fill="none"/><line y2="-29091" y1="-30154" x2="-31171" x1="-30804" fill="none"/><line y2="-30711" y1="-30154" x2="-31890" x1="-32644" fill="none"/><line y2="-29091" y1="-29091" x2="-32130" x1="-31171" fill="none"/><line y2="-30154" y1="-29310" x2="-32644" x1="-32384" fill="none"/><line y2="-31899" y1="-31070" x2="-31702" x1="-31702" fill="none"/><line y2="-32422" y1="-31899" x2="-30795" x1="-31702" fill="none"/><line y2="-32254" y1="-31838" x2="-32456" x1="-31737" fill="none"/><line y2="-32375" y1="-31959" x2="-32387" x1="-31668" fill="none"/><line y2="-30264" y1="-30680" x2="-29177" x1="-29897" fill="none"/><line y2="-31509" y1="-30720" x2="-29966" x1="-29966" fill="none"/><line y2="-31509" y1="-30680" x2="-29824" x1="-29824" fill="none"/><line y2="-30619" y1="-30737" x2="-29862" x1="-29928" fill="none"/><line y2="-30523" y1="-30617" x2="-30057" x1="-30109" fill="none"/><line y2="-30427" y1="-30496" x2="-30251" x1="-30290" fill="none"/><line y2="-30331" y1="-30376" x2="-30446" x1="-30471" fill="none"/><line y2="-30235" y1="-30255" x2="-30640" x1="-30652" fill="none"/><text y="-29975" xml:space="preserve" x="-29140" stroke="none" font-size="433.3333" font-family="sans-serif">OH</text><text y="-31546" xml:space="preserve" x="-30047" stroke="none" font-size="433.3333" font-family="sans-serif">O</text><text y="-32242" xml:space="preserve" x="-32762" stroke="none" font-size="433.3333" font-family="sans-serif">O</text><text y="-30671" xml:space="preserve" x="-31855" stroke="none" font-size="433.3333" font-family="sans-serif">N</text><text y="-28912" xml:space="preserve" x="-32471" stroke="none" font-size="433.3333" font-family="sans-serif">S</text><text y="-29879" xml:space="preserve" x="-31223" stroke="none" font-style="italic" font-size="313.3333" font-family="sans-serif">R</text></g></g></svg>