<svg width="316.41" viewBox="0 0 10547 7938" text-rendering="auto" stroke-width="1" stroke-opacity="1" stroke-miterlimit="10" stroke-linejoin="miter" stroke-linecap="square" stroke-dashoffset="0" stroke-dasharray="none" stroke="black" shape-rendering="auto" image-rendering="auto" height="238.14" font-weight="normal" font-style="normal" font-size="12" font-family="'Dialog'" fill-opacity="1" fill="black" color-rendering="auto" color-interpolation="auto" xmlns="http://www.w3.org/2000/svg"><g><g stroke="white" fill="white"><rect y="0" x="0" width="10547" stroke="none" height="7938"/></g><g transform="translate(32866,32758)" text-rendering="geometricPrecision" stroke-width="44" stroke-linejoin="round" stroke-linecap="round"><line y2="-28510" y1="-29654" x2="-25601" x1="-25601" fill="none"/><line y2="-29654" y1="-29654" x2="-23636" x1="-25601" fill="none"/><line y2="-29654" y1="-30229" x2="-25601" x1="-26583" fill="none"/><line y2="-27935" y1="-28510" x2="-26583" x1="-25601" fill="none"/><line y2="-28510" y1="-27935" x2="-25601" x1="-24619" fill="none"/><line y2="-28510" y1="-29654" x2="-23636" x1="-23636" fill="none"/><line y2="-29654" y1="-30801" x2="-23636" x1="-23636" fill="none"/><line y2="-30229" y1="-29654" x2="-26583" x1="-27568" fill="none"/><line y2="-31266" y1="-30801" x2="-24806" x1="-25601" fill="none"/><line y2="-28510" y1="-27935" x2="-27568" x1="-26583" fill="none"/><line y2="-26788" y1="-27935" x2="-26583" x1="-26583" fill="none"/><line y2="-27935" y1="-28510" x2="-24619" x1="-23636" fill="none"/><line y2="-30801" y1="-31266" x2="-23636" x1="-24431" fill="none"/><line y2="-29654" y1="-28510" x2="-27568" x1="-27568" fill="none"/><line y2="-28510" y1="-27935" x2="-27568" x1="-28550" fill="none"/><line y2="-26216" y1="-26788" x2="-27568" x1="-26583" fill="none"/><line y2="-26832" y1="-27935" x2="-28550" x1="-28550" fill="none"/><line y2="-27935" y1="-28550" x2="-28550" x1="-29533" fill="none"/><line y2="-26832" y1="-26216" x2="-28550" x1="-27568" fill="none"/><line y2="-26898" y1="-26439" x2="-28337" x1="-27600" fill="none"/><line y2="-26257" y1="-26832" x2="-29533" x1="-28550" fill="none"/><line y2="-28550" y1="-27978" x2="-29533" x1="-30515" fill="none"/><line y2="-26832" y1="-26257" x2="-30515" x1="-29533" fill="none"/><line y2="-27978" y1="-26832" x2="-30515" x1="-30515" fill="none"/><line y2="-32202" y1="-31595" x2="-24619" x1="-24619" fill="none"/><line y2="-26664" y1="-26416" x2="-32040" x1="-31610" fill="none"/><line y2="-25480" y1="-26086" x2="-31422" x1="-31422" fill="none"/><polygon stroke-width="1" stroke="none" points=" -25601 -29654 -25670 -30801 -25534 -30801"/><polygon stroke-width="1" points=" -25601 -29654 -25670 -30801 -25534 -30801" fill="none"/><polygon stroke-width="1" stroke="none" points=" -23636 -30801 -22764 -31384 -22695 -31266"/><polygon stroke-width="1" points=" -23636 -30801 -22764 -31384 -22695 -31266" fill="none"/><polygon stroke-width="1" stroke="none" points=" -28550 -27935 -28620 -28984 -28481 -28984"/><polygon stroke-width="1" points=" -28550 -27935 -28620 -28984 -28481 -28984" fill="none"/><polygon stroke-width="1" stroke="none" points=" -30515 -26832 -31200 -26355 -31269 -26473"/><polygon stroke-width="1" points=" -30515 -26832 -31200 -26355 -31269 -26473" fill="none"/><polygon stroke-width="1" stroke="none" points=" -26583 -27935 -26652 -28764 -26517 -28764"/><polygon stroke-width="1" points=" -26583 -27935 -26652 -28764 -26517 -28764" fill="none"/><line y2="-27681" y1="-27681" x2="-25670" x1="-25534" fill="none"/><line y2="-27898" y1="-27898" x2="-25652" x1="-25552" fill="none"/><line y2="-28114" y1="-28114" x2="-25634" x1="-25569" fill="none"/><line y2="-28331" y1="-28331" x2="-25616" x1="-25587" fill="none"/><line y2="-29588" y1="-29723" x2="-22778" x1="-22778" fill="none"/><line y2="-29605" y1="-29706" x2="-22995" x1="-22995" fill="none"/><line y2="-29621" y1="-29688" x2="-23211" x1="-23211" fill="none"/><line y2="-29638" y1="-29671" x2="-23428" x1="-23428" fill="none"/><line y2="-27681" y1="-27681" x2="-27635" x1="-27499" fill="none"/><line y2="-27898" y1="-27898" x2="-27617" x1="-27517" fill="none"/><line y2="-28114" y1="-28114" x2="-27600" x1="-27535" fill="none"/><line y2="-28331" y1="-28331" x2="-27582" x1="-27553" fill="none"/><text y="-32242" xml:space="preserve" x="-24772" stroke="none" font-size="433.3333" font-family="sans-serif">CH</text><text y="-32153" xml:space="preserve" x="-24194" stroke="none" font-size="313.3333" font-family="sans-serif">3</text><text y="-26127" xml:space="preserve" x="-31575" stroke="none" font-size="433.3333" font-family="sans-serif">N</text><text y="-26814" xml:space="preserve" x="-32762" stroke="none" font-size="433.3333" font-family="sans-serif">CH</text><text y="-26725" xml:space="preserve" x="-32185" stroke="none" font-size="313.3333" font-family="sans-serif">3</text><text y="-25081" xml:space="preserve" x="-31575" stroke="none" font-size="433.3333" font-family="sans-serif">CH</text><text y="-24991" xml:space="preserve" x="-30997" stroke="none" font-size="313.3333" font-family="sans-serif">3</text><text y="-31197" xml:space="preserve" x="-24772" stroke="none" font-size="433.3333" font-family="sans-serif">N</text><text y="-27282" xml:space="preserve" x="-25754" stroke="none" font-size="433.3333" font-family="sans-serif">H</text><text y="-29475" xml:space="preserve" x="-22741" stroke="none" font-size="433.3333" font-family="sans-serif">H</text><text y="-28805" xml:space="preserve" x="-26736" stroke="none" font-size="433.3333" font-family="sans-serif">H</text><text y="-27282" xml:space="preserve" x="-27718" stroke="none" font-size="433.3333" font-family="sans-serif">H</text><text y="-29333" xml:space="preserve" x="-26002" stroke="none" font-style="italic" font-size="313.3333" font-family="sans-serif">R</text><text y="-28475" xml:space="preserve" x="-26002" stroke="none" font-style="italic" font-size="313.3333" font-family="sans-serif">S</text><text y="-29200" xml:space="preserve" x="-24032" stroke="none" font-style="italic" font-size="313.3333" font-family="sans-serif">S</text><text y="-27614" xml:space="preserve" x="-26488" stroke="none" font-style="italic" font-size="313.3333" font-family="sans-serif">R</text><text y="-30480" xml:space="preserve" x="-24038" stroke="none" font-style="italic" font-size="313.3333" font-family="sans-serif">S</text><text y="-28475" xml:space="preserve" x="-27470" stroke="none" font-style="italic" font-size="313.3333" font-family="sans-serif">S</text><text y="-27614" xml:space="preserve" x="-28949" stroke="none" font-style="italic" font-size="313.3333" font-family="sans-serif">R</text><text y="-26797" xml:space="preserve" x="-30420" stroke="none" font-style="italic" font-size="313.3333" font-family="sans-serif">S</text></g></g></svg>