<svg width="315.0" viewBox="0 0 10500 7556" text-rendering="auto" stroke-width="1" stroke-opacity="1" stroke-miterlimit="10" stroke-linejoin="miter" stroke-linecap="square" stroke-dashoffset="0" stroke-dasharray="none" stroke="black" shape-rendering="auto" image-rendering="auto" height="226.68" font-weight="normal" font-style="normal" font-size="12" font-family="'Dialog'" fill-opacity="1" fill="black" color-rendering="auto" color-interpolation="auto" xmlns="http://www.w3.org/2000/svg"><g><g stroke="white" fill="white"><rect y="0" x="0" width="10500" stroke="none" height="7556"/></g><g transform="translate(32866,32758)" text-rendering="geometricPrecision" stroke-width="44" stroke-linejoin="round" stroke-linecap="round"><line y2="-29556" y1="-28984" x2="-25601" x1="-26583" fill="none"/><line y2="-28056" y1="-28984" x2="-26583" x1="-26583" fill="none"/><line y2="-28984" y1="-29556" x2="-26583" x1="-27568" fill="none"/><line y2="-28909" y1="-29339" x2="-26794" x1="-27531" fill="none"/><line y2="-28984" y1="-29556" x2="-24619" x1="-25601" fill="none"/><line y2="-30703" y1="-29556" x2="-25601" x1="-25601" fill="none"/><line y2="-30561" y1="-29700" x2="-25430" x1="-25430" fill="none"/><line y2="-27265" y1="-27727" x2="-27568" x1="-26774" fill="none"/><line y2="-27727" y1="-27265" x2="-26395" x1="-25601" fill="none"/><line y2="-29556" y1="-28984" x2="-27568" x1="-28550" fill="none"/><line y2="-28984" y1="-29556" x2="-24619" x1="-23636" fill="none"/><line y2="-29203" y1="-29631" x2="-24584" x1="-23844" fill="none"/><line y2="-27837" y1="-28984" x2="-24619" x1="-24619" fill="none"/><line y2="-31278" y1="-30703" x2="-24619" x1="-25601" fill="none"/><line y2="-27837" y1="-27265" x2="-28550" x1="-27568" fill="none"/><line y2="-27265" y1="-27837" x2="-25601" x1="-24619" fill="none"/><line y2="-27837" y1="-28984" x2="-28550" x1="-28550" fill="none"/><line y2="-28984" y1="-29556" x2="-28550" x1="-29533" fill="none"/><line y2="-28909" y1="-29339" x2="-28758" x1="-29495" fill="none"/><line y2="-29556" y1="-30703" x2="-23636" x1="-23636" fill="none"/><line y2="-30703" y1="-31278" x2="-23636" x1="-24619" fill="none"/><line y2="-30628" y1="-31058" x2="-23844" x1="-24584" fill="none"/><line y2="-32202" y1="-31278" x2="-24619" x1="-24619" fill="none"/><line y2="-27265" y1="-27837" x2="-29533" x1="-28550" fill="none"/><line y2="-27482" y1="-27912" x2="-29495" x1="-28758" fill="none"/><line y2="-29556" y1="-28984" x2="-29533" x1="-30515" fill="none"/><line y2="-30703" y1="-31168" x2="-23636" x1="-22842" fill="none"/><line y2="-32422" y1="-32422" x2="-22654" x1="-24431" fill="none"/><line y2="-27837" y1="-27265" x2="-30515" x1="-29533" fill="none"/><line y2="-28984" y1="-27837" x2="-30515" x1="-30515" fill="none"/><line y2="-28839" y1="-27981" x2="-30344" x1="-30344" fill="none"/><line y2="-31497" y1="-32422" x2="-22654" x1="-22654" fill="none"/><line y2="-26436" y1="-27265" x2="-29533" x1="-29533" fill="none"/><line y2="-25861" y1="-26109" x2="-30151" x1="-29720" fill="none"/><line y2="-27421" y1="-27837" x2="-31234" x1="-30515" fill="none"/><line y2="-27669" y1="-27421" x2="-32040" x1="-31610" fill="none"/><line y2="-26436" y1="-27265" x2="-27496" x1="-27496" fill="none"/><line y2="-26436" y1="-27265" x2="-27638" x1="-27638" fill="none"/><text y="-26037" xml:space="preserve" x="-27718" stroke="none" font-size="433.3333" font-family="sans-serif">O</text><text y="-26037" xml:space="preserve" x="-29683" stroke="none" font-size="433.3333" font-family="sans-serif">O</text><text y="-25462" xml:space="preserve" x="-30682" stroke="none" font-size="433.3333" font-family="sans-serif">CH</text><text y="-25373" xml:space="preserve" x="-30105" stroke="none" font-size="313.3333" font-family="sans-serif">3</text><text y="-27135" xml:space="preserve" x="-31575" stroke="none" font-size="433.3333" font-family="sans-serif">O</text><text y="-27820" xml:space="preserve" x="-32762" stroke="none" font-size="433.3333" font-family="sans-serif">CH</text><text y="-27730" xml:space="preserve" x="-32185" stroke="none" font-size="313.3333" font-family="sans-serif">3</text><text y="-27658" xml:space="preserve" x="-26736" stroke="none" font-size="433.3333" font-family="sans-serif">N</text><text y="-32242" xml:space="preserve" x="-24772" stroke="none" font-size="433.3333" font-family="sans-serif">O</text><text y="-31098" xml:space="preserve" x="-22807" stroke="none" font-size="433.3333" font-family="sans-serif">O</text></g></g></svg>