<svg width="135.45" viewBox="0 0 4515 2835" text-rendering="auto" stroke-width="1" stroke-opacity="1" stroke-miterlimit="10" stroke-linejoin="miter" stroke-linecap="square" stroke-dashoffset="0" stroke-dasharray="none" stroke="black" shape-rendering="auto" image-rendering="auto" height="85.05" font-weight="normal" font-style="normal" font-size="12" font-family="'Dialog'" fill-opacity="1" fill="black" color-rendering="auto" color-interpolation="auto" xmlns="http://www.w3.org/2000/svg"><g><g stroke="white" fill="white"><rect y="0" x="0" width="4515" stroke="none" height="2835"/></g><g transform="translate(32866,32758)" text-rendering="geometricPrecision" stroke-width="44" stroke-linejoin="round" stroke-linecap="round"><line y2="-30625" y1="-31824" x2="-30532" x1="-30532" fill="none"/><line y2="-30775" y1="-31673" x2="-30703" x1="-30703" fill="none"/><line y2="-30625" y1="-30625" x2="-30532" x1="-28455" fill="none"/><line y2="-30027" y1="-30625" x2="-31569" x1="-30532" fill="none"/><line y2="-32315" y1="-31824" x2="-29680" x1="-30532" fill="none"/><line y2="-31824" y1="-32422" x2="-30532" x1="-31569" fill="none"/><line y2="-30625" y1="-31824" x2="-28455" x1="-28455" fill="none"/><line y2="-30775" y1="-31673" x2="-28623" x1="-28623" fill="none"/><line y2="-30405" y1="-30027" x2="-32228" x1="-31569" fill="none"/><line y2="-31824" y1="-32315" x2="-28455" x1="-29304" fill="none"/><line y2="-32422" y1="-31824" x2="-31569" x1="-32609" fill="none"/><line y2="-31824" y1="-30844" x2="-32609" x1="-32609" fill="none"/><text y="-32242" xml:space="preserve" x="-29645" stroke="none" font-size="433.3333" font-family="sans-serif">S</text><text y="-30446" xml:space="preserve" x="-32762" stroke="none" font-size="433.3333" font-family="sans-serif">NH</text></g></g></svg>