<svg width="166.62" viewBox="0 0 5554 5334" text-rendering="auto" stroke-width="1" stroke-opacity="1" stroke-miterlimit="10" stroke-linejoin="miter" stroke-linecap="square" stroke-dashoffset="0" stroke-dasharray="none" stroke="black" shape-rendering="auto" image-rendering="auto" height="160.02" font-weight="normal" font-style="normal" font-size="12" font-family="'Dialog'" fill-opacity="1" fill="black" color-rendering="auto" color-interpolation="auto" xmlns="http://www.w3.org/2000/svg"><g><g stroke="white" fill="white"><rect y="0" x="0" width="5554" stroke="none" height="5334"/></g><g transform="translate(32866,32758)" text-rendering="geometricPrecision" stroke-width="44" stroke-linejoin="round" stroke-linecap="round"><line y2="-29235" y1="-29804" x2="-29735" x1="-30717" fill="none"/><line y2="-29157" y1="-29585" x2="-29943" x1="-30680" fill="none"/><line y2="-29804" y1="-29235" x2="-30717" x1="-31705" fill="none"/><line y2="-28097" y1="-29235" x2="-29735" x1="-29735" fill="none"/><line y2="-29235" y1="-28097" x2="-31705" x1="-31705" fill="none"/><line y2="-29091" y1="-28238" x2="-31535" x1="-31535" fill="none"/><line y2="-27528" y1="-28097" x2="-30717" x1="-29735" fill="none"/><line y2="-27747" y1="-28172" x2="-30680" x1="-29943" fill="none"/><line y2="-28097" y1="-27528" x2="-31705" x1="-30717" fill="none"/><line y2="-29758" y1="-29235" x2="-28828" x1="-29735" fill="none"/><line y2="-30630" y1="-29804" x2="-30717" x1="-30717" fill="none"/><line y2="-31376" y1="-30960" x2="-31624" x1="-30905" fill="none"/><line y2="-29651" y1="-29235" x2="-32424" x1="-31705" fill="none"/><line y2="-29342" y1="-29758" x2="-28108" x1="-28828" fill="none"/><line y2="-30587" y1="-29758" x2="-28897" x1="-28897" fill="none"/><line y2="-30587" y1="-29758" x2="-28756" x1="-28756" fill="none"/><line y2="-30850" y1="-31376" x2="-32531" x1="-31624" fill="none"/><line y2="-32202" y1="-31376" x2="-31694" x1="-31694" fill="none"/><line y2="-32202" y1="-31376" x2="-31555" x1="-31555" fill="none"/><text y="-30671" xml:space="preserve" x="-30870" stroke="none" font-size="433.3333" font-family="sans-serif">NH</text><text y="-32242" xml:space="preserve" x="-31777" stroke="none" font-size="433.3333" font-family="sans-serif">O</text><text y="-29056" xml:space="preserve" x="-28071" stroke="none" font-size="433.3333" font-family="sans-serif">OH</text><text y="-30628" xml:space="preserve" x="-28978" stroke="none" font-size="433.3333" font-family="sans-serif">O</text><text y="-29579" xml:space="preserve" x="-32762" stroke="none" font-size="433.3333" font-family="sans-serif">F</text></g></g></svg>