<svg width="569.55" viewBox="0 0 18985 7753" text-rendering="auto" stroke-width="1" stroke-opacity="1" stroke-miterlimit="10" stroke-linejoin="miter" stroke-linecap="square" stroke-dashoffset="0" stroke-dasharray="none" stroke="black" shape-rendering="auto" image-rendering="auto" height="232.59" font-weight="normal" font-style="normal" font-size="12" font-family="'Dialog'" fill-opacity="1" fill="black" color-rendering="auto" color-interpolation="auto" xmlns="http://www.w3.org/2000/svg"><g><g stroke="white" fill="white"><rect y="0" x="0" width="18985" stroke="none" height="7753"/></g><g transform="translate(32866,32866)" text-rendering="geometricPrecision" stroke-width="44" stroke-linejoin="round" stroke-linecap="round"><line y2="-29351" y1="-29813" x2="-21270" x1="-20476" fill="none"/><line y2="-29813" y1="-30960" x2="-20476" x1="-20476" fill="none"/><line y2="-29484" y1="-30125" x2="-18676" x1="-19225" fill="none"/><line y2="-28706" y1="-28501" x2="-20355" x1="-19208" fill="none"/><line y2="-30960" y1="-31532" x2="-20476" x1="-21458" fill="none"/><line y2="-29813" y1="-30275" x2="-22443" x1="-23235" fill="none"/><line y2="-28666" y1="-29813" x2="-22443" x1="-22443" fill="none"/><line y2="-28501" y1="-29484" x2="-19208" x1="-18676" fill="none"/><line y2="-31532" y1="-30960" x2="-21458" x1="-22443" fill="none"/><line y2="-31312" y1="-30885" x2="-21496" x1="-22232" fill="none"/><line y2="-30275" y1="-29813" x2="-23613" x1="-24408" fill="none"/><line y2="-28094" y1="-28666" x2="-23426" x1="-22443" fill="none"/><line y2="-29813" y1="-28666" x2="-24408" x1="-24408" fill="none"/><line y2="-28666" y1="-28094" x2="-24408" x1="-23426" fill="none"/><line y2="-30336" y1="-29813" x2="-25315" x1="-24408" fill="none"/><line y2="-30009" y1="-29484" x2="-17769" x1="-18676" fill="none"/><line y2="-29813" y1="-30336" x2="-26222" x1="-25315" fill="none"/><line y2="-31907" y1="-31384" x2="-26222" x1="-25315" fill="none"/><line y2="-30928" y1="-30009" x2="-17769" x1="-17769" fill="none"/><line y2="-30009" y1="-29440" x2="-17769" x1="-16787" fill="none"/><line y2="-31714" y1="-31254" x2="-16787" x1="-17581" fill="none"/><line y2="-29440" y1="-30009" x2="-16787" x1="-15799" fill="none"/><line y2="-31145" y1="-31714" x2="-15799" x1="-16787" fill="none"/><line y2="-30009" y1="-31145" x2="-15799" x1="-15799" fill="none"/><line y2="-31670" y1="-31145" x2="-14892" x1="-15799" fill="none"/><line y2="-31145" y1="-31670" x2="-13985" x1="-14892" fill="none"/><line y2="-30336" y1="-29813" x2="-27129" x1="-26222" fill="none"/><line y2="-28984" y1="-29813" x2="-26153" x1="-26153" fill="none"/><line y2="-28984" y1="-29813" x2="-26291" x1="-26291" fill="none"/><line y2="-29813" y1="-30336" x2="-28036" x1="-27129" fill="none"/><line y2="-30336" y1="-29813" x2="-28943" x1="-28036" fill="none"/><line y2="-29813" y1="-30336" x2="-29850" x1="-28943" fill="none"/><line y2="-28894" y1="-29813" x2="-29850" x1="-29850" fill="none"/><line y2="-29813" y1="-30382" x2="-29850" x1="-30836" fill="none"/><line y2="-28106" y1="-28568" x2="-30836" x1="-30038" fill="none"/><line y2="-30382" y1="-29813" x2="-30836" x1="-31821" fill="none"/><line y2="-28675" y1="-28106" x2="-31821" x1="-30836" fill="none"/><line y2="-29813" y1="-28675" x2="-31821" x1="-31821" fill="none"/><line y2="-27060" y1="-28106" x2="-30836" x1="-30836" fill="none"/><line y2="-26534" y1="-27060" x2="-31743" x1="-30836" fill="none"/><line y2="-27060" y1="-26534" x2="-32650" x1="-31743" fill="none"/><line y2="-26950" y1="-26534" x2="-29209" x1="-29928" fill="none"/><line y2="-25708" y1="-26534" x2="-29856" x1="-29856" fill="none"/><line y2="-25708" y1="-26494" x2="-29998" x1="-29998" fill="none"/><polygon stroke-width="1" stroke="none" points=" -20476 -29813 -19630 -30313 -19569 -30188"/><polygon stroke-width="1" points=" -20476 -29813 -19630 -30313 -19569 -30188" fill="none"/><polygon stroke-width="1" stroke="none" points=" -21611 -29408 -22443 -29813 -21681 -29290"/><polygon stroke-width="1" points=" -21611 -29408 -22443 -29813 -21681 -29290" fill="none"/><polygon stroke-width="1" stroke="none" points=" -18676 -29484 -17888 -28793 -17983 -28695"/><polygon stroke-width="1" points=" -18676 -29484 -17888 -28793 -17983 -28695" fill="none"/><polygon stroke-width="1" stroke="none" points=" -20476 -30960 -19791 -31434 -19722 -31315"/><polygon stroke-width="1" points=" -20476 -30960 -19791 -31434 -19722 -31315" fill="none"/><polygon stroke-width="1" stroke="none" points=" -16787 -31714 -16853 -32762 -16718 -32762"/><polygon stroke-width="1" points=" -16787 -31714 -16853 -32762 -16718 -32762" fill="none"/><polygon stroke-width="1" stroke="none" points=" -17769 -30009 -18523 -30365 -18454 -30483"/><polygon stroke-width="1" points=" -17769 -30009 -18523 -30365 -18454 -30483" fill="none"/><polygon stroke-width="1" stroke="none" points=" -28036 -29813 -27967 -28984 -28106 -28984"/><polygon stroke-width="1" points=" -28036 -29813 -27967 -28984 -28106 -28984" fill="none"/><polygon stroke-width="1" stroke="none" points=" -28943 -30336 -29013 -31384 -28874 -31384"/><polygon stroke-width="1" points=" -28943 -30336 -29013 -31384 -28874 -31384" fill="none"/><polygon stroke-width="1" stroke="none" points=" -31821 -28675 -32693 -28091 -32762 -28210"/><polygon stroke-width="1" points=" -31821 -28675 -32693 -28091 -32762 -28210" fill="none"/><polygon stroke-width="1" stroke="none" points=" -29850 -29813 -29096 -29458 -29166 -29336"/><polygon stroke-width="1" points=" -29850 -29813 -29096 -29458 -29166 -29336" fill="none"/><line y2="-28698" y1="-28715" x2="-20421" x1="-20285" fill="none"/><line y2="-28915" y1="-28929" x2="-20432" x1="-20322" fill="none"/><line y2="-29132" y1="-29142" x2="-20442" x1="-20359" fill="none"/><line y2="-29349" y1="-29356" x2="-20453" x1="-20397" fill="none"/><line y2="-29566" y1="-29570" x2="-20464" x1="-20434" fill="none"/><line y2="-29783" y1="-29783" x2="-20475" x1="-20471" fill="none"/><line y2="-30960" y1="-30957" x2="-22374" x1="-22510" fill="none"/><line y2="-30743" y1="-30741" x2="-22387" x1="-22497" fill="none"/><line y2="-30526" y1="-30524" x2="-22400" x1="-22485" fill="none"/><line y2="-30309" y1="-30308" x2="-22413" x1="-22472" fill="none"/><line y2="-30092" y1="-30091" x2="-22426" x1="-22459" fill="none"/><line y2="-29875" y1="-29875" x2="-22439" x1="-22447" fill="none"/><line y2="-28082" y1="-28201" x2="-21568" x1="-21502" fill="none"/><line y2="-28203" y1="-28297" x2="-21749" x1="-21696" fill="none"/><line y2="-28323" y1="-28393" x2="-21930" x1="-21891" fill="none"/><line y2="-28444" y1="-28489" x2="-22110" x1="-22085" fill="none"/><line y2="-28565" y1="-28585" x2="-22291" x1="-22280" fill="none"/><line y2="-28201" y1="-28082" x2="-25350" x1="-25280" fill="none"/><line y2="-28297" y1="-28203" x2="-25155" x1="-25100" fill="none"/><line y2="-28393" y1="-28324" x2="-24960" x1="-24919" fill="none"/><line y2="-28489" y1="-28444" x2="-24766" x1="-24739" fill="none"/><line y2="-28586" y1="-28565" x2="-24571" x1="-24559" fill="none"/><line y2="-30642" y1="-30639" x2="-24338" x1="-24477" fill="none"/><line y2="-30425" y1="-30423" x2="-24356" x1="-24459" fill="none"/><line y2="-30208" y1="-30206" x2="-24375" x1="-24441" fill="none"/><line y2="-29991" y1="-29990" x2="-24393" x1="-24423" fill="none"/><line y2="-31384" y1="-31384" x2="-25246" x1="-25384" fill="none"/><line y2="-31167" y1="-31167" x2="-25260" x1="-25370" fill="none"/><line y2="-30951" y1="-30951" x2="-25275" x1="-25355" fill="none"/><line y2="-30734" y1="-30734" x2="-25289" x1="-25341" fill="none"/><line y2="-30517" y1="-30517" x2="-25303" x1="-25327" fill="none"/><line y2="-31974" y1="-31974" x2="-15730" x1="-15868" fill="none"/><line y2="-31757" y1="-31757" x2="-15748" x1="-15850" fill="none"/><line y2="-31541" y1="-31541" x2="-15766" x1="-15832" fill="none"/><line y2="-31324" y1="-31324" x2="-15784" x1="-15814" fill="none"/><line y2="-31384" y1="-31384" x2="-27060" x1="-27198" fill="none"/><line y2="-31167" y1="-31167" x2="-27074" x1="-27184" fill="none"/><line y2="-30951" y1="-30951" x2="-27089" x1="-27169" fill="none"/><line y2="-30734" y1="-30734" x2="-27103" x1="-27155" fill="none"/><line y2="-30517" y1="-30517" x2="-27117" x1="-27141" fill="none"/><line y2="-31428" y1="-31428" x2="-30766" x1="-30902" fill="none"/><line y2="-31211" y1="-31211" x2="-30780" x1="-30888" fill="none"/><line y2="-30995" y1="-30995" x2="-30795" x1="-30875" fill="none"/><line y2="-30778" y1="-30778" x2="-30809" x1="-30861" fill="none"/><line y2="-30561" y1="-30561" x2="-30824" x1="-30847" fill="none"/><line y2="-27629" y1="-27750" x2="-30148" x1="-30082" fill="none"/><line y2="-27753" y1="-27843" x2="-30327" x1="-30278" fill="none"/><line y2="-27877" y1="-27935" x2="-30506" x1="-30474" fill="none"/><line y2="-28001" y1="-28028" x2="-30685" x1="-30671" fill="none"/><line y2="-26473" y1="-26595" x2="-29960" x1="-29894" fill="none"/><line y2="-26594" y1="-26691" x2="-30141" x1="-30088" fill="none"/><line y2="-26715" y1="-26787" x2="-30321" x1="-30283" fill="none"/><line y2="-26836" y1="-26883" x2="-30502" x1="-30477" fill="none"/><line y2="-26957" y1="-26979" x2="-30683" x1="-30671" fill="none"/><text y="-31304" xml:space="preserve" x="-19722" stroke="none" font-size="433.3333" font-family="sans-serif">OH</text><text y="-28585" xml:space="preserve" x="-26375" stroke="none" font-size="433.3333" font-family="sans-serif">O</text><text y="-28585" xml:space="preserve" x="-28189" stroke="none" font-size="433.3333" font-family="sans-serif">OH</text><text y="-32014" xml:space="preserve" x="-15952" stroke="none" font-size="433.3333" font-family="sans-serif">OH</text><text y="-26881" xml:space="preserve" x="-29172" stroke="none" font-size="433.3333" font-family="sans-serif">OH</text><text y="-25309" xml:space="preserve" x="-30079" stroke="none" font-size="433.3333" font-family="sans-serif">O</text><text y="-29059" xml:space="preserve" x="-21611" stroke="none" font-size="433.3333" font-family="sans-serif">O</text><text y="-30165" xml:space="preserve" x="-19563" stroke="none" font-size="433.3333" font-family="sans-serif">O</text><text y="-30206" xml:space="preserve" x="-23576" stroke="none" font-size="433.3333" font-family="sans-serif">O</text><text y="-30966" xml:space="preserve" x="-17922" stroke="none" font-size="433.3333" font-family="sans-serif">O</text><text y="-28496" xml:space="preserve" x="-30004" stroke="none" font-size="433.3333" font-family="sans-serif">O</text><text y="-30682" xml:space="preserve" x="-24561" stroke="none" font-size="433.3333" font-family="sans-serif">H</text><text y="-29111" xml:space="preserve" x="-29096" stroke="none" font-size="433.3333" font-family="sans-serif">H</text><text y="-27404" xml:space="preserve" x="-30079" stroke="none" font-size="433.3333" font-family="sans-serif">H</text><text y="-30353" xml:space="preserve" x="-18829" stroke="none" font-size="433.3333" font-family="sans-serif">H</text><text y="-29856" xml:space="preserve" x="-25468" stroke="none" font-style="italic" font-size="313.3333" font-family="sans-serif">R</text><text y="-29856" xml:space="preserve" x="-27282" stroke="none" font-style="italic" font-size="313.3333" font-family="sans-serif">S</text><text y="-29937" xml:space="preserve" x="-28189" stroke="none" font-style="italic" font-size="313.3333" font-family="sans-serif">S</text><text y="-29856" xml:space="preserve" x="-29096" stroke="none" font-style="italic" font-size="313.3333" font-family="sans-serif">S</text><text y="-27025" xml:space="preserve" x="-31234" stroke="none" font-style="italic" font-size="313.3333" font-family="sans-serif">R</text><text y="-29778" xml:space="preserve" x="-20878" stroke="none" font-style="italic" font-size="313.3333" font-family="sans-serif">S</text><text y="-30636" xml:space="preserve" x="-20878" stroke="none" font-style="italic" font-size="313.3333" font-family="sans-serif">R</text><text y="-29489" xml:space="preserve" x="-22842" stroke="none" font-style="italic" font-size="313.3333" font-family="sans-serif">R</text><text y="-29255" xml:space="preserve" x="-19112" stroke="none" font-style="italic" font-size="313.3333" font-family="sans-serif">S</text><text y="-28631" xml:space="preserve" x="-22842" stroke="none" font-style="italic" font-size="313.3333" font-family="sans-serif">R</text><text y="-29489" xml:space="preserve" x="-24310" stroke="none" font-style="italic" font-size="313.3333" font-family="sans-serif">S</text><text y="-28631" xml:space="preserve" x="-24310" stroke="none" font-style="italic" font-size="313.3333" font-family="sans-serif">S</text><text y="-29975" xml:space="preserve" x="-17674" stroke="none" font-style="italic" font-size="313.3333" font-family="sans-serif">R</text><text y="-31234" xml:space="preserve" x="-16937" stroke="none" font-style="italic" font-size="313.3333" font-family="sans-serif">S</text><text y="-30824" xml:space="preserve" x="-15704" stroke="none" font-style="italic" font-size="313.3333" font-family="sans-serif">R</text><text y="-29937" xml:space="preserve" x="-30004" stroke="none" font-style="italic" font-size="313.3333" font-family="sans-serif">R</text><text y="-29900" xml:space="preserve" x="-30986" stroke="none" font-style="italic" font-size="313.3333" font-family="sans-serif">S</text><text y="-27785" xml:space="preserve" x="-31234" stroke="none" font-style="italic" font-size="313.3333" font-family="sans-serif">R</text><text y="-28640" xml:space="preserve" x="-31725" stroke="none" font-style="italic" font-size="313.3333" font-family="sans-serif">S</text></g></g></svg>