<svg width="206.04" viewBox="0 0 6868 4131" text-rendering="auto" stroke-width="1" stroke-opacity="1" stroke-miterlimit="10" stroke-linejoin="miter" stroke-linecap="square" stroke-dashoffset="0" stroke-dasharray="none" stroke="black" shape-rendering="auto" image-rendering="auto" height="123.93" font-weight="normal" font-style="normal" font-size="12" font-family="'Dialog'" fill-opacity="1" fill="black" color-rendering="auto" color-interpolation="auto" xmlns="http://www.w3.org/2000/svg"><g><g stroke="white" fill="white"><rect y="0" x="0" width="6868" stroke="none" height="4131"/></g><g transform="translate(32866,32866)" text-rendering="geometricPrecision" stroke-width="44" stroke-linejoin="round" stroke-linecap="round"><line y2="-29914" y1="-31116" x2="-29544" x1="-29544" fill="none"/><line y2="-31714" y1="-31116" x2="-28504" x1="-29544" fill="none"/><line y2="-31116" y1="-31714" x2="-29544" x1="-30584" fill="none"/><line y2="-31044" y1="-31491" x2="-29761" x1="-30538" fill="none"/><line y2="-29914" y1="-29914" x2="-29544" x1="-27655" fill="none"/><line y2="-29316" y1="-29914" x2="-30584" x1="-29544" fill="none"/><line y2="-29536" y1="-29986" x2="-30538" x1="-29761" fill="none"/><line y2="-31223" y1="-31714" x2="-27655" x1="-28504" fill="none"/><line y2="-31139" y1="-31506" x2="-27846" x1="-28481" fill="none"/><line y2="-31714" y1="-31116" x2="-30584" x1="-31624" fill="none"/><line y2="-30134" y1="-30896" x2="-27467" x1="-27467" fill="none"/><line y2="-29914" y1="-29316" x2="-31624" x1="-30584" fill="none"/><line y2="-31116" y1="-29914" x2="-31624" x1="-31624" fill="none"/><line y2="-30966" y1="-30064" x2="-31454" x1="-31454" fill="none"/><line y2="-29362" y1="-29726" x2="-26912" x1="-27279" fill="none"/><line y2="-32762" y1="-31714" x2="-28504" x1="-28504" fill="none"/><line y2="-31442" y1="-31116" x2="-32190" x1="-31624" fill="none"/><text y="-28995" xml:space="preserve" x="-26878" stroke="none" font-size="433.3333" font-family="sans-serif">CH</text><text y="-28906" xml:space="preserve" x="-26300" stroke="none" font-size="313.3333" font-family="sans-serif">3</text><text y="-31460" xml:space="preserve" x="-32762" stroke="none" font-size="433.3333" font-family="sans-serif">Br</text><text y="-29735" xml:space="preserve" x="-27617" stroke="none" font-size="433.3333" font-family="sans-serif">N</text><text y="-30937" xml:space="preserve" x="-27617" stroke="none" font-size="433.3333" font-family="sans-serif">N</text></g></g></svg>