<svg width="344.4" viewBox="0 0 11480 8082" text-rendering="auto" stroke-width="1" stroke-opacity="1" stroke-miterlimit="10" stroke-linejoin="miter" stroke-linecap="square" stroke-dashoffset="0" stroke-dasharray="none" stroke="black" shape-rendering="auto" image-rendering="auto" height="242.46" font-weight="normal" font-style="normal" font-size="12" font-family="'Dialog'" fill-opacity="1" fill="black" color-rendering="auto" color-interpolation="auto" xmlns="http://www.w3.org/2000/svg"><g><g stroke="white" fill="white"><rect y="0" x="0" width="11480" stroke="none" height="8082"/></g><g transform="translate(32866,32866)" text-rendering="geometricPrecision" stroke-width="44" stroke-linejoin="round" stroke-linecap="round"><line y2="-27912" y1="-27346" x2="-27164" x1="-28152" fill="none"/><line y2="-26208" y1="-27346" x2="-28152" x1="-28152" fill="none"/><line y2="-27346" y1="-27912" x2="-28152" x1="-29134" fill="none"/><line y2="-27346" y1="-27912" x2="-26182" x1="-27164" fill="none"/><line y2="-26208" y1="-26208" x2="-28152" x1="-26182" fill="none"/><line y2="-26208" y1="-26208" x2="-29934" x1="-28152" fill="none"/><line y2="-27912" y1="-27346" x2="-29134" x1="-30122" fill="none"/><line y2="-26208" y1="-27346" x2="-26182" x1="-26182" fill="none"/><line y2="-27346" y1="-26427" x2="-30122" x1="-30122" fill="none"/><line y2="-27346" y1="-27759" x2="-24367" x1="-25087" fill="none"/><line y2="-27698" y1="-27282" x2="-30876" x1="-30157" fill="none"/><line y2="-27820" y1="-27406" x2="-30807" x1="-30087" fill="none"/><line y2="-27869" y1="-27346" x2="-23460" x1="-24367" fill="none"/><line y2="-26517" y1="-27346" x2="-24295" x1="-24295" fill="none"/><line y2="-26517" y1="-27346" x2="-24437" x1="-24437" fill="none"/><line y2="-29484" y1="-28961" x2="-28071" x1="-27164" fill="none"/><line y2="-29299" y1="-28906" x2="-28028" x1="-27349" fill="none"/><line y2="-29007" y1="-27869" x2="-23460" x1="-23460" fill="none"/><line y2="-28862" y1="-28010" x2="-23290" x1="-23290" fill="none"/><line y2="-27869" y1="-27300" x2="-23460" x1="-22472" fill="none"/><line y2="-29573" y1="-29007" x2="-22472" x1="-23460" fill="none"/><line y2="-27300" y1="-27869" x2="-22472" x1="-21490" fill="none"/><line y2="-27516" y1="-27944" x2="-22435" x1="-21698" fill="none"/><line y2="-29007" y1="-29573" x2="-21490" x1="-22472" fill="none"/><line y2="-28929" y1="-29356" x2="-21698" x1="-22435" fill="none"/><line y2="-27869" y1="-29007" x2="-21490" x1="-21490" fill="none"/><line y2="-30532" y1="-29484" x2="-28071" x1="-28071" fill="none"/><line y2="-31055" y1="-30532" x2="-28978" x1="-28071" fill="none"/><line y2="-30532" y1="-31055" x2="-29885" x1="-28978" fill="none"/><line y2="-31055" y1="-30532" x2="-30792" x1="-29885" fill="none"/><line y2="-31055" y1="-32193" x2="-30792" x1="-30792" fill="none"/><line y2="-31200" y1="-32052" x2="-30963" x1="-30963" fill="none"/><line y2="-30489" y1="-31055" x2="-31777" x1="-30792" fill="none"/><line y2="-32193" y1="-32762" x2="-30792" x1="-31777" fill="none"/><line y2="-31055" y1="-30489" x2="-32762" x1="-31777" fill="none"/><line y2="-31133" y1="-30706" x2="-32554" x1="-31815" fill="none"/><line y2="-32762" y1="-32193" x2="-31777" x1="-32762" fill="none"/><line y2="-32543" y1="-32118" x2="-31815" x1="-32554" fill="none"/><line y2="-32193" y1="-31055" x2="-32762" x1="-32762" fill="none"/><polygon stroke-width="1" stroke="none" points=" -27164 -27912 -27233 -28961 -27094 -28961"/><polygon stroke-width="1" points=" -27164 -27912 -27233 -28961 -27094 -28961" fill="none"/><polygon stroke-width="1" stroke="none" points=" -28152 -27346 -28221 -28172 -28082 -28172"/><polygon stroke-width="1" points=" -28152 -27346 -28221 -28172 -28082 -28172" fill="none"/><polygon stroke-width="1" stroke="none" points=" -28152 -26208 -28082 -25378 -28221 -25378"/><polygon stroke-width="1" points=" -28152 -26208 -28082 -25378 -28221 -25378" fill="none"/><line y2="-27701" y1="-27820" x2="-25428" x1="-25497" fill="none"/><line y2="-27608" y1="-27696" x2="-25625" x1="-25676" fill="none"/><line y2="-27516" y1="-27573" x2="-25821" x1="-25854" fill="none"/><line y2="-27423" y1="-27449" x2="-26018" x1="-26033" fill="none"/><line y2="-30888" y1="-31006" x2="-27317" x1="-27386" fill="none"/><line y2="-30795" y1="-30882" x2="-27514" x1="-27565" fill="none"/><line y2="-30702" y1="-30759" x2="-27710" x1="-27743" fill="none"/><line y2="-30609" y1="-30635" x2="-27907" x1="-27922" fill="none"/><text y="-30876" xml:space="preserve" x="-27317" stroke="none" font-size="433.3333" font-family="sans-serif">OH</text><text y="-27690" xml:space="preserve" x="-25425" stroke="none" font-size="433.3333" font-family="sans-serif">O</text><text y="-26118" xml:space="preserve" x="-24518" stroke="none" font-size="433.3333" font-family="sans-serif">O</text><text y="-27690" xml:space="preserve" x="-31182" stroke="none" font-size="433.3333" font-family="sans-serif">O</text><text y="-26028" xml:space="preserve" x="-30275" stroke="none" font-size="433.3333" font-family="sans-serif">O</text><text y="-28212" xml:space="preserve" x="-28302" stroke="none" font-size="433.3333" font-family="sans-serif">H</text><text y="-24980" xml:space="preserve" x="-28302" stroke="none" font-size="433.3333" font-family="sans-serif">H</text><text y="-29432" xml:space="preserve" x="-27545" stroke="none" font-style="italic" font-size="313.3333" font-family="sans-serif">E</text><text y="-30209" xml:space="preserve" x="-28472" stroke="none" font-style="italic" font-size="313.3333" font-family="sans-serif">S</text><text y="-27022" xml:space="preserve" x="-28054" stroke="none" font-style="italic" font-size="313.3333" font-family="sans-serif">R</text><text y="-27432" xml:space="preserve" x="-27317" stroke="none" font-style="italic" font-size="313.3333" font-family="sans-serif">R</text><text y="-26303" xml:space="preserve" x="-28548" stroke="none" font-style="italic" font-size="313.3333" font-family="sans-serif">S</text><text y="-27022" xml:space="preserve" x="-26583" stroke="none" font-style="italic" font-size="313.3333" font-family="sans-serif">R</text></g></g></svg>