<svg width="208.32" viewBox="0 0 6944 4076" text-rendering="auto" stroke-width="1" stroke-opacity="1" stroke-miterlimit="10" stroke-linejoin="miter" stroke-linecap="square" stroke-dashoffset="0" stroke-dasharray="none" stroke="black" shape-rendering="auto" image-rendering="auto" height="122.28" font-weight="normal" font-style="normal" font-size="12" font-family="'Dialog'" fill-opacity="1" fill="black" color-rendering="auto" color-interpolation="auto" xmlns="http://www.w3.org/2000/svg"><g><g stroke="white" fill="white"><rect y="0" x="0" width="6944" stroke="none" height="4076"/></g><g transform="translate(32866,32866)" text-rendering="geometricPrecision" stroke-width="44" stroke-linejoin="round" stroke-linecap="round"><line y2="-31191" y1="-31714" x2="-27996" x1="-28903" fill="none"/><line y2="-30599" y1="-31714" x2="-30792" x1="-28903" fill="none"/><line y2="-31714" y1="-31714" x2="-29952" x1="-28903" fill="none"/><line y2="-32762" y1="-31714" x2="-28903" x1="-28903" fill="none"/><line y2="-31191" y1="-30053" x2="-27996" x1="-27996" fill="none"/><line y2="-31049" y1="-30197" x2="-27825" x1="-27825" fill="none"/><line y2="-31760" y1="-31191" x2="-27008" x1="-27996" fill="none"/><line y2="-30053" y1="-29484" x2="-27996" x1="-27008" fill="none"/><line y2="-31191" y1="-31760" x2="-26026" x1="-27008" fill="none"/><line y2="-31116" y1="-31540" x2="-26234" x1="-26970" fill="none"/><line y2="-29484" y1="-30053" x2="-27008" x1="-26026" fill="none"/><line y2="-29703" y1="-30131" x2="-26970" x1="-26234" fill="none"/><line y2="-30053" y1="-31191" x2="-26026" x1="-26026" fill="none"/><line y2="-30599" y1="-31168" x2="-30792" x1="-31777" fill="none"/><line y2="-30524" y1="-30951" x2="-31000" x1="-31740" fill="none"/><line y2="-29463" y1="-30599" x2="-30792" x1="-30792" fill="none"/><line y2="-31168" y1="-30599" x2="-31777" x1="-32762" fill="none"/><line y2="-28894" y1="-29463" x2="-31777" x1="-30792" fill="none"/><line y2="-29111" y1="-29538" x2="-31740" x1="-31000" fill="none"/><line y2="-30599" y1="-29463" x2="-32762" x1="-32762" fill="none"/><line y2="-30457" y1="-29605" x2="-32592" x1="-32592" fill="none"/><line y2="-29463" y1="-28894" x2="-32762" x1="-31777" fill="none"/><line y2="-31714" y1="-31714" x2="-30810" x1="-29952" fill="none"/><line y2="-31624" y1="-31624" x2="-30810" x1="-29952" fill="none"/><line y2="-31803" y1="-31803" x2="-30810" x1="-29952" fill="none"/><text y="-31535" xml:space="preserve" x="-31150" stroke="none" font-size="433.3333" font-family="sans-serif">N</text></g></g></svg>