<svg width="227.79" viewBox="0 0 7593 6906" text-rendering="auto" stroke-width="1" stroke-opacity="1" stroke-miterlimit="10" stroke-linejoin="miter" stroke-linecap="square" stroke-dashoffset="0" stroke-dasharray="none" stroke="black" shape-rendering="auto" image-rendering="auto" height="207.18" font-weight="normal" font-style="normal" font-size="12" font-family="'Dialog'" fill-opacity="1" fill="black" color-rendering="auto" color-interpolation="auto" xmlns="http://www.w3.org/2000/svg"><g><g stroke="white" fill="white"><rect y="0" x="0" width="7593" stroke="none" height="6906"/></g><g transform="translate(32866,32758)" text-rendering="geometricPrecision" stroke-width="44" stroke-linejoin="round" stroke-linecap="round"><line y2="-27926" y1="-28467" x2="-28299" x1="-27759" fill="none"/><line y2="-27739" y1="-27739" x2="-29484" x1="-28675" fill="none"/><line y2="-28906" y1="-29804" x2="-27539" x1="-27539" fill="none"/><line y2="-28498" y1="-27958" x2="-30581" x1="-30044" fill="none"/><line y2="-30212" y1="-30749" x2="-27727" x1="-28267" fill="none"/><line y2="-29804" y1="-28906" x2="-30769" x1="-30769" fill="none"/><line y2="-30968" y1="-30968" x2="-28825" x1="-29637" fill="none"/><line y2="-30781" y1="-30243" x2="-30012" x1="-30550" fill="none"/><line y2="-27568" y1="-28467" x2="-26895" x1="-27412" fill="none"/><line y2="-29047" y1="-28779" x2="-26190" x1="-27198" fill="none"/><line y2="-27040" y1="-27542" x2="-31035" x1="-30162" fill="none"/><line y2="-26511" y1="-27519" x2="-29495" x1="-29764" fill="none"/><line y2="-31685" y1="-31165" x2="-27248" x1="-28146" fill="none"/><line y2="-32202" y1="-31188" x2="-28793" x1="-28542" fill="none"/><line y2="-31139" y1="-30243" x2="-31413" x1="-30896" fill="none"/><line y2="-29660" y1="-29931" x2="-32118" x1="-31107" fill="none"/><text y="-27172" xml:space="preserve" x="-26921" stroke="none" font-size="433.3333" font-family="sans-serif">CH</text><text y="-27083" xml:space="preserve" x="-26343" stroke="none" font-size="313.3333" font-family="sans-serif">3</text><text y="-28920" xml:space="preserve" x="-26153" stroke="none" font-size="433.3333" font-family="sans-serif">CH</text><text y="-28831" xml:space="preserve" x="-25575" stroke="none" font-size="313.3333" font-family="sans-serif">3</text><text y="-26641" xml:space="preserve" x="-31566" stroke="none" font-size="433.3333" font-family="sans-serif">CH</text><text y="-26551" xml:space="preserve" x="-30989" stroke="none" font-size="313.3333" font-family="sans-serif">3</text><text y="-26112" xml:space="preserve" x="-29588" stroke="none" font-size="433.3333" font-family="sans-serif">CH</text><text y="-26023" xml:space="preserve" x="-29010" stroke="none" font-size="313.3333" font-family="sans-serif">3</text><text y="-31613" xml:space="preserve" x="-27213" stroke="none" font-size="433.3333" font-family="sans-serif">CH</text><text y="-31523" xml:space="preserve" x="-26635" stroke="none" font-size="313.3333" font-family="sans-serif">3</text><text y="-32242" xml:space="preserve" x="-29001" stroke="none" font-size="433.3333" font-family="sans-serif">CH</text><text y="-32153" xml:space="preserve" x="-28423" stroke="none" font-size="313.3333" font-family="sans-serif">3</text><text y="-31179" xml:space="preserve" x="-31694" stroke="none" font-size="433.3333" font-family="sans-serif">CH</text><text y="-31090" xml:space="preserve" x="-31116" stroke="none" font-size="313.3333" font-family="sans-serif">3</text><text y="-29351" xml:space="preserve" x="-32762" stroke="none" font-size="433.3333" font-family="sans-serif">CH</text><text y="-29261" xml:space="preserve" x="-32185" stroke="none" font-size="313.3333" font-family="sans-serif">3</text><text y="-27560" xml:space="preserve" x="-28637" stroke="none" font-size="433.3333" font-family="sans-serif">O</text><text y="-28507" xml:space="preserve" x="-27770" stroke="none" font-size="433.3333" font-family="sans-serif">Si</text><text y="-27560" xml:space="preserve" x="-30056" stroke="none" font-size="433.3333" font-family="sans-serif">Si</text><text y="-29845" xml:space="preserve" x="-27692" stroke="none" font-size="433.3333" font-family="sans-serif">O</text><text y="-28507" xml:space="preserve" x="-30922" stroke="none" font-size="433.3333" font-family="sans-serif">O</text><text y="-30789" xml:space="preserve" x="-28718" stroke="none" font-size="433.3333" font-family="sans-serif">Si</text><text y="-29845" xml:space="preserve" x="-31000" stroke="none" font-size="433.3333" font-family="sans-serif">Si</text><text y="-30789" xml:space="preserve" x="-29975" stroke="none" font-size="433.3333" font-family="sans-serif">O</text></g></g></svg>