<svg width="310.74" viewBox="0 0 10358 4542" text-rendering="auto" stroke-width="1" stroke-opacity="1" stroke-miterlimit="10" stroke-linejoin="miter" stroke-linecap="square" stroke-dashoffset="0" stroke-dasharray="none" stroke="black" shape-rendering="auto" image-rendering="auto" height="136.26" font-weight="normal" font-style="normal" font-size="12" font-family="'Dialog'" fill-opacity="1" fill="black" color-rendering="auto" color-interpolation="auto" xmlns="http://www.w3.org/2000/svg"><g><g stroke="white" fill="white"><rect y="0" x="0" width="10358" stroke="none" height="4542"/></g><g transform="translate(32866,32758)" text-rendering="geometricPrecision" stroke-width="44" stroke-linejoin="round" stroke-linecap="round"><line y2="-31358" y1="-30212" x2="-28831" x1="-28831" fill="none"/><line y2="-29640" y1="-30212" x2="-29813" x1="-28831" fill="none"/><line y2="-30212" y1="-29640" x2="-28831" x1="-27848" fill="none"/><line y2="-30287" y1="-29859" x2="-28623" x1="-27886" fill="none"/><line y2="-31358" y1="-32202" x2="-28831" x1="-29157" fill="none"/><line y2="-31930" y1="-31358" x2="-27848" x1="-28831" fill="none"/><line y2="-31714" y1="-31283" x2="-27886" x1="-28623" fill="none"/><line y2="-30212" y1="-29640" x2="-30795" x1="-29813" fill="none"/><line y2="-29640" y1="-30212" x2="-27848" x1="-26866" fill="none"/><line y2="-32422" y1="-32422" x2="-29429" x1="-30385" fill="none"/><line y2="-31358" y1="-31930" x2="-26866" x1="-27848" fill="none"/><line y2="-31358" y1="-30212" x2="-30795" x1="-30795" fill="none"/><line y2="-29640" y1="-30212" x2="-31780" x1="-30795" fill="none"/><line y2="-29859" y1="-30287" x2="-31743" x1="-31006" fill="none"/><line y2="-30212" y1="-31358" x2="-26866" x1="-26866" fill="none"/><line y2="-30356" y1="-31214" x2="-27037" x1="-27037" fill="none"/><line y2="-32422" y1="-31358" x2="-30385" x1="-30795" fill="none"/><line y2="-31358" y1="-31930" x2="-30795" x1="-31780" fill="none"/><line y2="-31283" y1="-31714" x2="-31006" x1="-31743" fill="none"/><line y2="-30212" y1="-29640" x2="-32762" x1="-31780" fill="none"/><line y2="-31930" y1="-31358" x2="-31780" x1="-32762" fill="none"/><line y2="-31358" y1="-30212" x2="-32762" x1="-32762" fill="none"/><line y2="-31214" y1="-30356" x2="-32592" x1="-32592" fill="none"/><line y2="-29689" y1="-30212" x2="-25959" x1="-26866" fill="none"/><line y2="-30212" y1="-29689" x2="-25052" x1="-25959" fill="none"/><line y2="-28810" y1="-29640" x2="-29744" x1="-29744" fill="none"/><line y2="-28810" y1="-29640" x2="-29882" x1="-29882" fill="none"/><line y2="-29796" y1="-30212" x2="-24333" x1="-25052" fill="none"/><line y2="-30105" y1="-29796" x2="-23426" x1="-23957" fill="none"/><line y2="-31041" y1="-30212" x2="-25121" x1="-25121" fill="none"/><line y2="-31041" y1="-30212" x2="-24983" x1="-24983" fill="none"/><text y="-28412" xml:space="preserve" x="-29966" stroke="none" font-size="433.3333" font-family="sans-serif">O</text><text y="-29510" xml:space="preserve" x="-24295" stroke="none" font-size="433.3333" font-family="sans-serif">O</text><text y="-31081" xml:space="preserve" x="-25205" stroke="none" font-size="433.3333" font-family="sans-serif">O</text><text y="-30032" xml:space="preserve" x="-23388" stroke="none" font-size="433.3333" font-family="sans-serif">CH</text><text y="-29943" xml:space="preserve" x="-22810" stroke="none" font-size="313.3333" font-family="sans-serif">3</text><text y="-32242" xml:space="preserve" x="-29391" stroke="none" font-size="433.3333" font-family="sans-serif">O</text></g></g></svg>