<svg width="454.74" viewBox="0 0 15158 4335" text-rendering="auto" stroke-width="1" stroke-opacity="1" stroke-miterlimit="10" stroke-linejoin="miter" stroke-linecap="square" stroke-dashoffset="0" stroke-dasharray="none" stroke="black" shape-rendering="auto" image-rendering="auto" height="130.05" font-weight="normal" font-style="normal" font-size="12" font-family="'Dialog'" fill-opacity="1" fill="black" color-rendering="auto" color-interpolation="auto" xmlns="http://www.w3.org/2000/svg"><g><g stroke="white" fill="white"><rect y="0" x="0" width="15158" stroke="none" height="4335"/></g><g transform="translate(32866,32866)" text-rendering="geometricPrecision" stroke-width="44" stroke-linejoin="round" stroke-linecap="round"><line y2="-29602" y1="-29602" x2="-29599" x1="-27490" fill="none"/><line y2="-30818" y1="-29602" x2="-29599" x1="-29599" fill="none"/><line y2="-28995" y1="-29602" x2="-30648" x1="-29599" fill="none"/><line y2="-29218" y1="-29674" x2="-30602" x1="-29816" fill="none"/><line y2="-29602" y1="-30818" x2="-27490" x1="-27490" fill="none"/><line y2="-31318" y1="-30818" x2="-28730" x1="-29599" fill="none"/><line y2="-30818" y1="-31425" x2="-29599" x1="-30648" fill="none"/><line y2="-30749" y1="-31202" x2="-29816" x1="-30602" fill="none"/><line y2="-29602" y1="-28995" x2="-31702" x1="-30648" fill="none"/><line y2="-30818" y1="-31205" x2="-27490" x1="-28163" fill="none"/><line y2="-31425" y1="-30818" x2="-30648" x1="-31702" fill="none"/><line y2="-30818" y1="-29602" x2="-31702" x1="-31702" fill="none"/><line y2="-30665" y1="-29755" x2="-31532" x1="-31532" fill="none"/><line y2="-29079" y1="-29602" x2="-26583" x1="-27490" fill="none"/><line y2="-29024" y1="-29417" x2="-26768" x1="-27447" fill="none"/><line y2="-29186" y1="-29602" x2="-32422" x1="-31702" fill="none"/><line y2="-31295" y1="-30879" x2="-26808" x1="-27525" fill="none"/><line y2="-31174" y1="-30758" x2="-26736" x1="-27456" fill="none"/><line y2="-29602" y1="-29079" x2="-25676" x1="-26583" fill="none"/><line y2="-30668" y1="-29602" x2="-25309" x1="-25676" fill="none"/><line y2="-30477" y1="-29680" x2="-25194" x1="-25471" fill="none"/><line y2="-29602" y1="-29053" x2="-25676" x1="-24965" fill="none"/><line y2="-30668" y1="-30668" x2="-24162" x1="-25309" fill="none"/><line y2="-29125" y1="-29602" x2="-24480" x1="-23836" fill="none"/><line y2="-29602" y1="-30668" x2="-23836" x1="-24162" fill="none"/><line y2="-29686" y1="-30483" x2="-24038" x1="-24284" fill="none"/><line y2="-31191" y1="-30668" x2="-23255" x1="-24162" fill="none"/><line y2="-31526" y1="-30668" x2="-25910" x1="-25309" fill="none"/><line y2="-29278" y1="-29602" x2="-22839" x1="-23836" fill="none"/><line y2="-30775" y1="-31191" x2="-22536" x1="-23255" fill="none"/><line y2="-31191" y1="-30888" x2="-21441" x1="-21970" fill="none"/><line y2="-30668" y1="-31191" x2="-20534" x1="-21441" fill="none"/><line y2="-31081" y1="-30668" x2="-19814" x1="-20534" fill="none"/><line y2="-32020" y1="-31191" x2="-23324" x1="-23324" fill="none"/><line y2="-32020" y1="-31191" x2="-23186" x1="-23186" fill="none"/><line y2="-30668" y1="-31081" x2="-18720" x1="-19439" fill="none"/><line y2="-31191" y1="-30668" x2="-17812" x1="-18720" fill="none"/><line y2="-32240" y1="-31410" x2="-19627" x1="-19627" fill="none"/><line y2="-32762" y1="-32240" x2="-18720" x1="-19627" fill="none"/><text y="-31162" xml:space="preserve" x="-26736" stroke="none" font-size="433.3333" font-family="sans-serif">O</text><text y="-28900" xml:space="preserve" x="-32762" stroke="none" font-size="433.3333" font-family="sans-serif">F</text><text y="-30489" xml:space="preserve" x="-22501" stroke="none" font-size="433.3333" font-family="sans-serif">NH</text><text y="-32060" xml:space="preserve" x="-23408" stroke="none" font-size="433.3333" font-family="sans-serif">O</text><text y="-31012" xml:space="preserve" x="-19780" stroke="none" font-size="433.3333" font-family="sans-serif">N</text><text y="-31246" xml:space="preserve" x="-28695" stroke="none" font-size="433.3333" font-family="sans-serif">NH</text><text y="-28727" xml:space="preserve" x="-24928" stroke="none" font-size="433.3333" font-family="sans-serif">NH</text><text y="-29553" xml:space="preserve" x="-26976" stroke="none" font-style="italic" font-size="313.3333" font-family="sans-serif">Z</text></g></g></svg>