<svg width="179.64" viewBox="0 0 5988 4782" text-rendering="auto" stroke-width="1" stroke-opacity="1" stroke-miterlimit="10" stroke-linejoin="miter" stroke-linecap="square" stroke-dashoffset="0" stroke-dasharray="none" stroke="black" shape-rendering="auto" image-rendering="auto" height="143.46" font-weight="normal" font-style="normal" font-size="12" font-family="'Dialog'" fill-opacity="1" fill="black" color-rendering="auto" color-interpolation="auto" xmlns="http://www.w3.org/2000/svg"><g><g stroke="white" fill="white"><rect y="0" x="0" width="5988" stroke="none" height="4782"/></g><g transform="translate(32866,32758)" text-rendering="geometricPrecision" stroke-width="44" stroke-linejoin="round" stroke-linecap="round"><line y2="-29099" y1="-29668" x2="-30714" x1="-29732" fill="none"/><line y2="-29668" y1="-30587" x2="-29732" x1="-29732" fill="none"/><line y2="-29784" y1="-30472" x2="-29902" x1="-29902" fill="none"/><line y2="-29668" y1="-29099" x2="-31702" x1="-30714" fill="none"/><line y2="-29746" y1="-29319" x2="-31494" x1="-30755" fill="none"/><line y2="-30914" y1="-31376" x2="-29920" x1="-30714" fill="none"/><line y2="-30587" y1="-29668" x2="-31702" x1="-31702" fill="none"/><line y2="-31376" y1="-30914" x2="-30714" x1="-31514" fill="none"/><line y2="-31171" y1="-30824" x2="-30729" x1="-31330" fill="none"/><line y2="-29252" y1="-29668" x2="-29013" x1="-29732" fill="none"/><line y2="-29365" y1="-29668" x2="-32228" x1="-31702" fill="none"/><line y2="-32202" y1="-31376" x2="-30714" x1="-30714" fill="none"/><line y2="-31162" y1="-30853" x2="-32456" x1="-31925" fill="none"/><line y2="-31283" y1="-30974" x2="-32387" x1="-31855" fill="none"/><line y2="-29842" y1="-29284" x2="-27883" x1="-28637" fill="none"/><line y2="-28926" y1="-28080" x2="-28758" x1="-28496" fill="none"/><line y2="-29146" y1="-29842" x2="-26982" x1="-27883" fill="none"/><line y2="-28080" y1="-28080" x2="-28496" x1="-27352" fill="none"/><line y2="-28080" y1="-29146" x2="-27352" x1="-26982" fill="none"/><text y="-28966" xml:space="preserve" x="-32762" stroke="none" font-size="433.3333" font-family="sans-serif">NH</text><text y="-28877" xml:space="preserve" x="-32185" stroke="none" font-size="313.3333" font-family="sans-serif">2</text><text y="-32242" xml:space="preserve" x="-30867" stroke="none" font-size="433.3333" font-family="sans-serif">NH</text><text y="-32153" xml:space="preserve" x="-30290" stroke="none" font-size="313.3333" font-family="sans-serif">2</text><text y="-31150" xml:space="preserve" x="-32762" stroke="none" font-size="433.3333" font-family="sans-serif">O</text><text y="-30628" xml:space="preserve" x="-29885" stroke="none" font-size="433.3333" font-family="sans-serif">N</text><text y="-30628" xml:space="preserve" x="-31855" stroke="none" font-size="433.3333" font-family="sans-serif">N</text><text y="-28966" xml:space="preserve" x="-28975" stroke="none" font-size="433.3333" font-family="sans-serif">N</text></g></g></svg>