<svg width="213.09" viewBox="0 0 7103 4188" text-rendering="auto" stroke-width="1" stroke-opacity="1" stroke-miterlimit="10" stroke-linejoin="miter" stroke-linecap="square" stroke-dashoffset="0" stroke-dasharray="none" stroke="black" shape-rendering="auto" image-rendering="auto" height="125.64" font-weight="normal" font-style="normal" font-size="12" font-family="'Dialog'" fill-opacity="1" fill="black" color-rendering="auto" color-interpolation="auto" xmlns="http://www.w3.org/2000/svg"><g><g stroke="white" fill="white"><rect y="0" x="0" width="7103" stroke="none" height="4188"/></g><g transform="translate(32866,32866)" text-rendering="geometricPrecision" stroke-width="44" stroke-linejoin="round" stroke-linecap="round"><line y2="-31055" y1="-30489" x2="-27834" x1="-28819" fill="none"/><line y2="-30838" y1="-30411" x2="-27872" x1="-28611" fill="none"/><line y2="-29351" y1="-30489" x2="-28819" x1="-28819" fill="none"/><line y2="-30489" y1="-31055" x2="-28819" x1="-29804" fill="none"/><line y2="-30489" y1="-31055" x2="-26849" x1="-27834" fill="none"/><line y2="-32193" y1="-31055" x2="-27834" x1="-27834" fill="none"/><line y2="-28782" y1="-29351" x2="-29804" x1="-28819" fill="none"/><line y2="-29351" y1="-28782" x2="-28819" x1="-27834" fill="none"/><line y2="-29429" y1="-29001" x2="-28611" x1="-27872" fill="none"/><line y2="-31055" y1="-30489" x2="-29804" x1="-30792" fill="none"/><line y2="-30838" y1="-30411" x2="-29842" x1="-30581" fill="none"/><line y2="-29351" y1="-30489" x2="-26849" x1="-26849" fill="none"/><line y2="-29492" y1="-30344" x2="-27019" x1="-27019" fill="none"/><line y2="-30489" y1="-31055" x2="-26849" x1="-25867" fill="none"/><line y2="-32762" y1="-32193" x2="-26849" x1="-27834" fill="none"/><line y2="-32546" y1="-32118" x2="-26886" x1="-27626" fill="none"/><line y2="-29351" y1="-28782" x2="-30792" x1="-29804" fill="none"/><line y2="-29429" y1="-29001" x2="-30581" x1="-29842" fill="none"/><line y2="-28782" y1="-29351" x2="-27834" x1="-26849" fill="none"/><line y2="-29351" y1="-30489" x2="-30792" x1="-30792" fill="none"/><line y2="-30489" y1="-31055" x2="-30792" x1="-31774" fill="none"/><line y2="-31055" y1="-32193" x2="-25867" x1="-25867" fill="none"/><line y2="-31200" y1="-32052" x2="-26037" x1="-26037" fill="none"/><line y2="-32193" y1="-32762" x2="-25867" x1="-26849" fill="none"/><line y2="-28782" y1="-29351" x2="-31774" x1="-30792" fill="none"/><line y2="-31055" y1="-30489" x2="-31774" x1="-32762" fill="none"/><line y2="-30838" y1="-30411" x2="-31812" x1="-32552" fill="none"/><line y2="-29351" y1="-28782" x2="-32762" x1="-31774" fill="none"/><line y2="-29429" y1="-29001" x2="-32552" x1="-31812" fill="none"/><line y2="-30489" y1="-29351" x2="-32762" x1="-32762" fill="none"/></g></g></svg>