<svg width="123.06" viewBox="0 0 4102 5204" text-rendering="auto" stroke-width="1" stroke-opacity="1" stroke-miterlimit="10" stroke-linejoin="miter" stroke-linecap="square" stroke-dashoffset="0" stroke-dasharray="none" stroke="black" shape-rendering="auto" image-rendering="auto" height="156.12" font-weight="normal" font-style="normal" font-size="12" font-family="'Dialog'" fill-opacity="1" fill="black" color-rendering="auto" color-interpolation="auto" xmlns="http://www.w3.org/2000/svg"><g><g stroke="white" fill="white"><rect y="0" x="0" width="4102" stroke="none" height="5204"/></g><g transform="translate(32866,32758)" text-rendering="geometricPrecision" stroke-width="44" stroke-linejoin="round" stroke-linecap="round"><line y2="-28978" y1="-29576" x2="-30812" x1="-29775" fill="none"/><line y2="-29576" y1="-30555" x2="-29775" x1="-29775" fill="none"/><line y2="-29356" y1="-28978" x2="-31471" x1="-30812" fill="none"/><line y2="-30885" y1="-31376" x2="-29966" x1="-30812" fill="none"/><line y2="-30775" y1="-29796" x2="-31855" x1="-31855" fill="none"/><line y2="-31376" y1="-30775" x2="-30812" x1="-31855" fill="none"/><line y2="-29053" y1="-29576" x2="-28868" x1="-29775" fill="none"/><line y2="-31298" y1="-30775" x2="-32762" x1="-31855" fill="none"/><line y2="-28149" y1="-28978" x2="-30743" x1="-30743" fill="none"/><line y2="-28149" y1="-28978" x2="-30882" x1="-30882" fill="none"/><line y2="-32202" y1="-31376" x2="-30882" x1="-30882" fill="none"/><line y2="-32202" y1="-31376" x2="-30743" x1="-30743" fill="none"/><text y="-27750" xml:space="preserve" x="-30966" stroke="none" font-size="433.3333" font-family="sans-serif">O</text><text y="-32242" xml:space="preserve" x="-30966" stroke="none" font-size="433.3333" font-family="sans-serif">O</text><text y="-30596" xml:space="preserve" x="-29928" stroke="none" font-size="433.3333" font-family="sans-serif">NH</text><text y="-29397" xml:space="preserve" x="-32006" stroke="none" font-size="433.3333" font-family="sans-serif">NH</text></g></g></svg>