<svg width="282.69" viewBox="0 0 9423 6875" text-rendering="auto" stroke-width="1" stroke-opacity="1" stroke-miterlimit="10" stroke-linejoin="miter" stroke-linecap="square" stroke-dashoffset="0" stroke-dasharray="none" stroke="black" shape-rendering="auto" image-rendering="auto" height="206.25" font-weight="normal" font-style="normal" font-size="12" font-family="'Dialog'" fill-opacity="1" fill="black" color-rendering="auto" color-interpolation="auto" xmlns="http://www.w3.org/2000/svg"><g><g stroke="white" fill="white"><rect y="0" x="0" width="9423" stroke="none" height="6875"/></g><g transform="translate(32866,32866)" text-rendering="geometricPrecision" stroke-width="44" stroke-linejoin="round" stroke-linecap="round"><line y2="-31555" y1="-30954" x2="-28626" x1="-27591" fill="none"/><line y2="-32762" y1="-31555" x2="-28626" x1="-28626" fill="none"/><line y2="-31445" y1="-30954" x2="-26748" x1="-27591" fill="none"/><line y2="-30954" y1="-29746" x2="-27591" x1="-27591" fill="none"/><line y2="-30350" y1="-31555" x2="-30694" x1="-30694" fill="none"/><line y2="-31555" y1="-32159" x2="-30694" x1="-31728" fill="none"/><line y2="-31486" y1="-31939" x2="-30908" x1="-31685" fill="none"/><line y2="-29966" y1="-30350" x2="-29284" x1="-28626" fill="none"/><line y2="-32762" y1="-32762" x2="-26557" x1="-28626" fill="none"/><line y2="-31774" y1="-32762" x2="-26557" x1="-26557" fill="none"/><line y2="-30954" y1="-31448" x2="-25523" x1="-26369" fill="none"/><line y2="-29746" y1="-29143" x2="-27591" x1="-26557" fill="none"/><line y2="-30350" y1="-29856" x2="-30694" x1="-29848" fill="none"/><line y2="-29746" y1="-30350" x2="-31728" x1="-30694" fill="none"/><line y2="-29969" y1="-30422" x2="-31685" x1="-30908" fill="none"/><line y2="-32159" y1="-31555" x2="-31728" x1="-32762" fill="none"/><line y2="-29746" y1="-30954" x2="-25523" x1="-25523" fill="none"/><line y2="-29746" y1="-29143" x2="-25523" x1="-26557" fill="none"/><line y2="-29143" y1="-27938" x2="-26557" x1="-26557" fill="none"/><line y2="-30350" y1="-29746" x2="-32762" x1="-31728" fill="none"/><line y2="-31555" y1="-30350" x2="-32762" x1="-32762" fill="none"/><line y2="-31405" y1="-30500" x2="-32592" x1="-32592" fill="none"/><line y2="-29143" y1="-29746" x2="-24489" x1="-25523" fill="none"/><line y2="-27938" y1="-27334" x2="-26557" x1="-25523" fill="none"/><line y2="-28010" y1="-27557" x2="-26343" x1="-25566" fill="none"/><line y2="-28158" y1="-29143" x2="-24489" x1="-24489" fill="none"/><line y2="-27334" y1="-27828" x2="-25523" x1="-24676" fill="none"/><line y2="-27412" y1="-27938" x2="-27464" x1="-26557" fill="none"/><line y2="-29822" y1="-30376" x2="-28074" x1="-28556" fill="none"/><line y2="-29729" y1="-30304" x2="-28181" x1="-28678" fill="none"/><line y2="-27828" y1="-27412" x2="-28184" x1="-27464" fill="none"/><line y2="-27580" y1="-27828" x2="-28990" x1="-28562" fill="none"/><line y2="-26586" y1="-27412" x2="-27395" x1="-27395" fill="none"/><line y2="-26586" y1="-27412" x2="-27536" x1="-27536" fill="none"/><polygon stroke-width="1" stroke="none" points=" -28626 -31555 -28556 -30350 -28695 -30350"/><polygon stroke-width="1" points=" -28626 -31555 -28556 -30350 -28695 -30350" fill="none"/><line y2="-31624" y1="-31488" x2="-30694" x1="-30691" fill="none"/><line y2="-31617" y1="-31495" x2="-30477" x1="-30474" fill="none"/><line y2="-31610" y1="-31502" x2="-30260" x1="-30258" fill="none"/><line y2="-31602" y1="-31509" x2="-30044" x1="-30041" fill="none"/><line y2="-31595" y1="-31516" x2="-29827" x1="-29825" fill="none"/><line y2="-31588" y1="-31523" x2="-29610" x1="-29608" fill="none"/><line y2="-31581" y1="-31530" x2="-29393" x1="-29392" fill="none"/><line y2="-31573" y1="-31537" x2="-29176" x1="-29175" fill="none"/><line y2="-31566" y1="-31544" x2="-28959" x1="-28959" fill="none"/><line y2="-31559" y1="-31551" x2="-28743" x1="-28742" fill="none"/><line y2="-29608" y1="-29726" x2="-23547" x1="-23616" fill="none"/><line y2="-29512" y1="-29605" x2="-23742" x1="-23797" fill="none"/><line y2="-29416" y1="-29485" x2="-23937" x1="-23977" fill="none"/><line y2="-29320" y1="-29364" x2="-24131" x1="-24158" fill="none"/><line y2="-29223" y1="-29244" x2="-24326" x1="-24338" fill="none"/><line y2="-31780" y1="-31780" x2="-27522" x1="-27661" fill="none"/><line y2="-31563" y1="-31563" x2="-27540" x1="-27643" fill="none"/><line y2="-31347" y1="-31347" x2="-27558" x1="-27624" fill="none"/><line y2="-31130" y1="-31130" x2="-27576" x1="-27606" fill="none"/><line y2="-29972" y1="-29972" x2="-26491" x1="-26626" fill="none"/><line y2="-29755" y1="-29755" x2="-26508" x1="-26608" fill="none"/><line y2="-29539" y1="-29539" x2="-26525" x1="-26590" fill="none"/><line y2="-29322" y1="-29322" x2="-26543" x1="-26572" fill="none"/><line y2="-28917" y1="-28917" x2="-25592" x1="-25454" fill="none"/><line y2="-29134" y1="-29134" x2="-25574" x1="-25472" fill="none"/><line y2="-29350" y1="-29350" x2="-25556" x1="-25490" fill="none"/><line y2="-29567" y1="-29567" x2="-25538" x1="-25508" fill="none"/><text y="-29380" xml:space="preserve" x="-28091" stroke="none" font-size="433.3333" font-family="sans-serif">O</text><text y="-27759" xml:space="preserve" x="-28524" stroke="none" font-size="433.3333" font-family="sans-serif">O</text><text y="-26187" xml:space="preserve" x="-27617" stroke="none" font-size="433.3333" font-family="sans-serif">O</text><text y="-27181" xml:space="preserve" x="-29524" stroke="none" font-size="433.3333" font-family="sans-serif">CH</text><text y="-27092" xml:space="preserve" x="-28946" stroke="none" font-size="313.3333" font-family="sans-serif">3</text><text y="-31376" xml:space="preserve" x="-26710" stroke="none" font-size="433.3333" font-family="sans-serif">N</text><text y="-29567" xml:space="preserve" x="-29813" stroke="none" font-size="433.3333" font-family="sans-serif">NH</text><text y="-27759" xml:space="preserve" x="-24642" stroke="none" font-size="433.3333" font-family="sans-serif">O</text><text y="-31821" xml:space="preserve" x="-27744" stroke="none" font-size="433.3333" font-family="sans-serif">H</text><text y="-30012" xml:space="preserve" x="-26710" stroke="none" font-size="433.3333" font-family="sans-serif">H</text><text y="-28522" xml:space="preserve" x="-25676" stroke="none" font-size="433.3333" font-family="sans-serif">H</text><text y="-31520" xml:space="preserve" x="-28530" stroke="none" font-style="italic" font-size="313.3333" font-family="sans-serif">R</text><text y="-30630" xml:space="preserve" x="-27496" stroke="none" font-style="italic" font-size="313.3333" font-family="sans-serif">S</text><text y="-28822" xml:space="preserve" x="-26462" stroke="none" font-style="italic" font-size="313.3333" font-family="sans-serif">S</text><text y="-29712" xml:space="preserve" x="-25924" stroke="none" font-style="italic" font-size="313.3333" font-family="sans-serif">S</text><text y="-28822" xml:space="preserve" x="-24890" stroke="none" font-style="italic" font-size="313.3333" font-family="sans-serif">S</text></g></g></svg>