<svg width="138.93" viewBox="0 0 4631 3988" text-rendering="auto" stroke-width="1" stroke-opacity="1" stroke-miterlimit="10" stroke-linejoin="miter" stroke-linecap="square" stroke-dashoffset="0" stroke-dasharray="none" stroke="black" shape-rendering="auto" image-rendering="auto" height="119.64" font-weight="normal" font-style="normal" font-size="12" font-family="'Dialog'" fill-opacity="1" fill="black" color-rendering="auto" color-interpolation="auto" xmlns="http://www.w3.org/2000/svg"><g><g stroke="white" fill="white"><rect y="0" x="0" width="4631" stroke="none" height="3988"/></g><g transform="translate(32866,32758)" text-rendering="geometricPrecision" stroke-width="44" stroke-linejoin="round" stroke-linecap="round"><line y2="-30807" y1="-29668" x2="-30798" x1="-30798" fill="none"/><line y2="-30665" y1="-29810" x2="-30628" x1="-30628" fill="none"/><line y2="-31376" y1="-30807" x2="-29810" x1="-30798" fill="none"/><line y2="-29668" y1="-29099" x2="-30798" x1="-29810" fill="none"/><line y2="-30914" y1="-31376" x2="-29016" x1="-29810" fill="none"/><line y2="-29099" y1="-29668" x2="-29810" x1="-28828" fill="none"/><line y2="-29319" y1="-29744" x2="-29772" x1="-29036" fill="none"/><line y2="-29668" y1="-30587" x2="-28828" x1="-28828" fill="none"/><line y2="-31330" y1="-30807" x2="-31705" x1="-30798" fill="none"/><line y2="-29365" y1="-29668" x2="-31324" x1="-30798" fill="none"/><line y2="-32202" y1="-31376" x2="-29879" x1="-29879" fill="none"/><line y2="-32202" y1="-31376" x2="-29741" x1="-29741" fill="none"/><line y2="-31746" y1="-31330" x2="-32424" x1="-31705" fill="none"/><line y2="-31668" y1="-31252" x2="-32468" x1="-31748" fill="none"/><line y2="-31824" y1="-31408" x2="-32378" x1="-31659" fill="none"/><text y="-31676" xml:space="preserve" x="-32762" stroke="none" font-size="433.3333" font-family="sans-serif">N</text><text y="-28966" xml:space="preserve" x="-31855" stroke="none" font-size="433.3333" font-family="sans-serif">OH</text><text y="-32242" xml:space="preserve" x="-29963" stroke="none" font-size="433.3333" font-family="sans-serif">O</text><text y="-30628" xml:space="preserve" x="-28978" stroke="none" font-size="433.3333" font-family="sans-serif">NH</text></g></g></svg>