<svg width="371.82" viewBox="0 0 12394 5649" text-rendering="auto" stroke-width="1" stroke-opacity="1" stroke-miterlimit="10" stroke-linejoin="miter" stroke-linecap="square" stroke-dashoffset="0" stroke-dasharray="none" stroke="black" shape-rendering="auto" image-rendering="auto" height="169.47" font-weight="normal" font-style="normal" font-size="12" font-family="'Dialog'" fill-opacity="1" fill="black" color-rendering="auto" color-interpolation="auto" xmlns="http://www.w3.org/2000/svg"><g><g stroke="white" fill="white"><rect y="0" x="0" width="12394" stroke="none" height="5649"/></g><g transform="translate(32866,32758)" text-rendering="geometricPrecision" stroke-width="44" stroke-linejoin="round" stroke-linecap="round"><line y2="-31376" y1="-30807" x2="-27239" x1="-28227" fill="none"/><line y2="-31156" y1="-30729" x2="-27276" x1="-28019" fill="none"/><line y2="-30807" y1="-29668" x2="-28227" x1="-28227" fill="none"/><line y2="-30914" y1="-31376" x2="-26444" x1="-27239" fill="none"/><line y2="-29668" y1="-29099" x2="-28227" x1="-27239" fill="none"/><line y2="-29746" y1="-29319" x2="-28019" x1="-27276" fill="none"/><line y2="-29668" y1="-30587" x2="-26257" x1="-26257" fill="none"/><line y2="-29784" y1="-30472" x2="-26427" x1="-26427" fill="none"/><line y2="-29099" y1="-29668" x2="-27239" x1="-26257" fill="none"/><line y2="-29252" y1="-29668" x2="-25537" x1="-26257" fill="none"/><line y2="-29668" y1="-29365" x2="-24442" x1="-24968" fill="none"/><line y2="-29146" y1="-29668" x2="-23535" x1="-24442" fill="none"/><line y2="-31110" y1="-30807" x2="-28753" x1="-28227" fill="none"/><line y2="-30807" y1="-31223" x2="-30041" x1="-29322" fill="none"/><line y2="-32202" y1="-31376" x2="-27239" x1="-27239" fill="none"/><line y2="-29146" y1="-28007" x2="-23535" x1="-23535" fill="none"/><line y2="-29001" y1="-28149" x2="-23365" x1="-23365" fill="none"/><line y2="-29715" y1="-29146" x2="-22547" x1="-23535" fill="none"/><line y2="-28007" y1="-27438" x2="-23535" x1="-22547" fill="none"/><line y2="-29146" y1="-29715" x2="-21565" x1="-22547" fill="none"/><line y2="-29068" y1="-29495" x2="-21773" x1="-22510" fill="none"/><line y2="-27438" y1="-28007" x2="-22547" x1="-21565" fill="none"/><line y2="-27658" y1="-28082" x2="-22510" x1="-21773" fill="none"/><line y2="-28007" y1="-29146" x2="-21565" x1="-21565" fill="none"/><line y2="-27591" y1="-28007" x2="-20846" x1="-21565" fill="none"/><line y2="-31223" y1="-30807" x2="-30760" x1="-30041" fill="none"/><line y2="-30807" y1="-31223" x2="-31855" x1="-31136" fill="none"/><line y2="-31330" y1="-30807" x2="-32762" x1="-31855" fill="none"/><line y2="-29978" y1="-30807" x2="-29972" x1="-29972" fill="none"/><line y2="-29978" y1="-30807" x2="-30110" x1="-30110" fill="none"/><text y="-31150" xml:space="preserve" x="-29284" stroke="none" font-size="433.3333" font-family="sans-serif">NH</text><text y="-31150" xml:space="preserve" x="-31101" stroke="none" font-size="433.3333" font-family="sans-serif">O</text><text y="-29579" xml:space="preserve" x="-30194" stroke="none" font-size="433.3333" font-family="sans-serif">O</text><text y="-32242" xml:space="preserve" x="-27392" stroke="none" font-size="433.3333" font-family="sans-serif">NH</text><text y="-32153" xml:space="preserve" x="-26814" stroke="none" font-size="313.3333" font-family="sans-serif">2</text><text y="-28966" xml:space="preserve" x="-25500" stroke="none" font-size="433.3333" font-family="sans-serif">NH</text><text y="-27305" xml:space="preserve" x="-20808" stroke="none" font-size="433.3333" font-family="sans-serif">F</text><text y="-30628" xml:space="preserve" x="-26407" stroke="none" font-size="433.3333" font-family="sans-serif">N</text></g></g></svg>