<svg width="142.35" viewBox="0 0 4745 9844" text-rendering="auto" stroke-width="1" stroke-opacity="1" stroke-miterlimit="10" stroke-linejoin="miter" stroke-linecap="square" stroke-dashoffset="0" stroke-dasharray="none" stroke="black" shape-rendering="auto" image-rendering="auto" height="295.32" font-weight="normal" font-style="normal" font-size="12" font-family="'Dialog'" fill-opacity="1" fill="black" color-rendering="auto" color-interpolation="auto" xmlns="http://www.w3.org/2000/svg"><g><g stroke="white" fill="white"><rect y="0" x="0" width="4745" stroke="none" height="9844"/></g><g transform="translate(32866,32866)" text-rendering="geometricPrecision" stroke-width="44" stroke-linejoin="round" stroke-linecap="round"><line y2="-29443" y1="-29983" x2="-29599" x1="-30298" fill="none"/><line y2="-28279" y1="-29443" x2="-30001" x1="-29599" fill="none"/><line y2="-30064" y1="-29443" x2="-30769" x1="-31613" fill="none"/><line y2="-28279" y1="-28279" x2="-30763" x1="-30001" fill="none"/><line y2="-29443" y1="-28498" x2="-31613" x1="-31321" fill="none"/><line y2="-30489" y1="-29443" x2="-29599" x1="-29599" fill="none"/><line y2="-29319" y1="-29443" x2="-28906" x1="-29599" fill="none"/><line y2="-27681" y1="-28319" x2="-29495" x1="-29943" fill="none"/><line y2="-27600" y1="-28238" x2="-29611" x1="-30058" fill="none"/><line y2="-29640" y1="-29377" x2="-32442" x1="-31633" fill="none"/><line y2="-29772" y1="-29507" x2="-32401" x1="-31592" fill="none"/><line y2="-31055" y1="-30489" x2="-30581" x1="-29599" fill="none"/><line y2="-31133" y1="-30708" x2="-30373" x1="-29637" fill="none"/><line y2="-30489" y1="-31058" x2="-29599" x1="-28614" fill="none"/><line y2="-32193" y1="-31055" x2="-30581" x1="-30581" fill="none"/><line y2="-31058" y1="-32193" x2="-28614" x1="-28614" fill="none"/><line y2="-31200" y1="-32052" x2="-28784" x1="-28784" fill="none"/><line y2="-32762" y1="-32193" x2="-29599" x1="-30581" fill="none"/><line y2="-32543" y1="-32118" x2="-29637" x1="-30373" fill="none"/><line y2="-32193" y1="-32762" x2="-28614" x1="-29599" fill="none"/><line y2="-25055" y1="-23920" x2="-30977" x1="-30974" fill="none"/><line y2="-24913" y1="-24061" x2="-30807" x1="-30804" fill="none"/><line y2="-23920" y1="-23350" x2="-30974" x1="-29992" fill="none"/><line y2="-25624" y1="-25055" x2="-29992" x1="-30977" fill="none"/><line y2="-23350" y1="-23920" x2="-29992" x1="-29007" fill="none"/><line y2="-23570" y1="-23995" x2="-29954" x1="-29215" fill="none"/><line y2="-25055" y1="-25624" x2="-29007" x1="-29992" fill="none"/><line y2="-24980" y1="-25407" x2="-29215" x1="-29954" fill="none"/><line y2="-23920" y1="-25055" x2="-29007" x1="-29007" fill="none"/><line y2="-23593" y1="-23920" x2="-31543" x1="-30974" fill="none"/><text y="-27242" xml:space="preserve" x="-29553" stroke="none" font-size="433.3333" font-family="sans-serif">O</text><text y="-29588" xml:space="preserve" x="-32762" stroke="none" font-size="433.3333" font-family="sans-serif">O</text><text y="-30024" xml:space="preserve" x="-30734" stroke="none" font-size="433.3333" font-family="sans-serif">NH</text><text y="-28100" xml:space="preserve" x="-31408" stroke="none" font-size="433.3333" font-family="sans-serif">NH</text><text y="-29079" xml:space="preserve" x="-28871" stroke="none" font-size="433.3333" font-family="sans-serif">@1</text><text y="-23218" xml:space="preserve" x="-32185" stroke="none" font-size="433.3333" font-family="sans-serif">@1</text></g></g></svg>