<svg width="157.62" viewBox="0 0 5254 5605" text-rendering="auto" stroke-width="1" stroke-opacity="1" stroke-miterlimit="10" stroke-linejoin="miter" stroke-linecap="square" stroke-dashoffset="0" stroke-dasharray="none" stroke="black" shape-rendering="auto" image-rendering="auto" height="168.15" font-weight="normal" font-style="normal" font-size="12" font-family="'Dialog'" fill-opacity="1" fill="black" color-rendering="auto" color-interpolation="auto" xmlns="http://www.w3.org/2000/svg"><g><g stroke="white" fill="white"><rect y="0" x="0" width="5254" stroke="none" height="5605"/></g><g transform="translate(32866,32758)" text-rendering="geometricPrecision" stroke-width="44" stroke-linejoin="round" stroke-linecap="round"><line y2="-29099" y1="-29668" x2="-30515" x1="-29530" fill="none"/><line y2="-29319" y1="-29744" x2="-30477" x1="-29738" fill="none"/><line y2="-29668" y1="-29099" x2="-31500" x1="-30515" fill="none"/><line y2="-29668" y1="-30807" x2="-29530" x1="-29530" fill="none"/><line y2="-30807" y1="-29668" x2="-31500" x1="-31500" fill="none"/><line y2="-30665" y1="-29810" x2="-31330" x1="-31330" fill="none"/><line y2="-30807" y1="-31376" x2="-29530" x1="-30515" fill="none"/><line y2="-30729" y1="-31156" x2="-29738" x1="-30477" fill="none"/><line y2="-31376" y1="-30807" x2="-30515" x1="-31500" fill="none"/><line y2="-31330" y1="-30807" x2="-28623" x1="-29530" fill="none"/><line y2="-28054" y1="-29099" x2="-30515" x1="-30515" fill="none"/><line y2="-32202" y1="-31376" x2="-30515" x1="-30515" fill="none"/><line y2="-30807" y1="-31330" x2="-27716" x1="-28623" fill="none"/><line y2="-32159" y1="-31330" x2="-28692" x1="-28692" fill="none"/><line y2="-32159" y1="-31330" x2="-28553" x1="-28553" fill="none"/><line y2="-27638" y1="-28054" x2="-31234" x1="-30515" fill="none"/><line y2="-27886" y1="-27638" x2="-32040" x1="-31610" fill="none"/><line y2="-27698" y1="-28114" x2="-29761" x1="-30480" fill="none"/><line y2="-27577" y1="-27990" x2="-29830" x1="-30550" fill="none"/><text y="-27349" xml:space="preserve" x="-31572" stroke="none" font-size="433.3333" font-family="sans-serif">O</text><text y="-27349" xml:space="preserve" x="-29758" stroke="none" font-size="433.3333" font-family="sans-serif">O</text><text y="-28036" xml:space="preserve" x="-32762" stroke="none" font-size="433.3333" font-family="sans-serif">CH</text><text y="-27947" xml:space="preserve" x="-32185" stroke="none" font-size="313.3333" font-family="sans-serif">3</text><text y="-32199" xml:space="preserve" x="-28776" stroke="none" font-size="433.3333" font-family="sans-serif">O</text><text y="-32242" xml:space="preserve" x="-30665" stroke="none" font-size="433.3333" font-family="sans-serif">OH</text></g></g></svg>