<svg width="314.31" viewBox="0 0 10477 3583" text-rendering="auto" stroke-width="1" stroke-opacity="1" stroke-miterlimit="10" stroke-linejoin="miter" stroke-linecap="square" stroke-dashoffset="0" stroke-dasharray="none" stroke="black" shape-rendering="auto" image-rendering="auto" height="107.49" font-weight="normal" font-style="normal" font-size="12" font-family="'Dialog'" fill-opacity="1" fill="black" color-rendering="auto" color-interpolation="auto" xmlns="http://www.w3.org/2000/svg"><g><g stroke="white" fill="white"><rect y="0" x="0" width="10477" stroke="none" height="3583"/></g><g transform="translate(32866,32758)" text-rendering="geometricPrecision" stroke-width="44" stroke-linejoin="round" stroke-linecap="round"><line y2="-30599" y1="-30599" x2="-28689" x1="-26580" fill="none"/><line y2="-31815" y1="-30599" x2="-26580" x1="-26580" fill="none"/><line y2="-30599" y1="-29989" x2="-26580" x1="-25526" fill="none"/><line y2="-30671" y1="-30214" x2="-26364" x1="-25572" fill="none"/><line y2="-31815" y1="-30599" x2="-28689" x1="-28689" fill="none"/><line y2="-29989" y1="-30599" x2="-29741" x1="-28689" fill="none"/><line y2="-30214" y1="-30668" x2="-29694" x1="-28906" fill="none"/><line y2="-31815" y1="-32202" x2="-26580" x1="-27253" fill="none"/><line y2="-32422" y1="-31815" x2="-25526" x1="-26580" fill="none"/><line y2="-32199" y1="-31743" x2="-25572" x1="-26364" fill="none"/><line y2="-29989" y1="-30599" x2="-25526" x1="-24474" fill="none"/><line y2="-32315" y1="-31815" x2="-27820" x1="-28689" fill="none"/><line y2="-31815" y1="-32422" x2="-28689" x1="-29741" fill="none"/><line y2="-31743" y1="-32199" x2="-28906" x1="-29694" fill="none"/><line y2="-30599" y1="-29989" x2="-30795" x1="-29741" fill="none"/><line y2="-31815" y1="-32422" x2="-24474" x1="-25526" fill="none"/><line y2="-30599" y1="-31815" x2="-24474" x1="-24474" fill="none"/><line y2="-30752" y1="-31662" x2="-24645" x1="-24645" fill="none"/><line y2="-32422" y1="-31815" x2="-29741" x1="-30795" fill="none"/><line y2="-31815" y1="-30599" x2="-30795" x1="-30795" fill="none"/><line y2="-31662" y1="-30752" x2="-30625" x1="-30625" fill="none"/><line y2="-30076" y1="-30599" x2="-23567" x1="-24474" fill="none"/><line y2="-30076" y1="-30599" x2="-31702" x1="-30795" fill="none"/><line y2="-29660" y1="-30076" x2="-22848" x1="-23567" fill="none"/><line y2="-29738" y1="-30154" x2="-22804" x1="-23524" fill="none"/><line y2="-29582" y1="-29998" x2="-22894" x1="-23613" fill="none"/><line y2="-29660" y1="-30076" x2="-32422" x1="-31702" fill="none"/><line y2="-29582" y1="-29998" x2="-32375" x1="-31659" fill="none"/><line y2="-29738" y1="-30154" x2="-32465" x1="-31748" fill="none"/><text y="-29371" xml:space="preserve" x="-22813" stroke="none" font-size="433.3333" font-family="sans-serif">N</text><text y="-29371" xml:space="preserve" x="-32762" stroke="none" font-size="433.3333" font-family="sans-serif">N</text><text y="-32242" xml:space="preserve" x="-27785" stroke="none" font-size="433.3333" font-family="sans-serif">NH</text></g></g></svg>