<svg width="311.97" viewBox="0 0 10399 6174" text-rendering="auto" stroke-width="1" stroke-opacity="1" stroke-miterlimit="10" stroke-linejoin="miter" stroke-linecap="square" stroke-dashoffset="0" stroke-dasharray="none" stroke="black" shape-rendering="auto" image-rendering="auto" height="185.22" font-weight="normal" font-style="normal" font-size="12" font-family="'Dialog'" fill-opacity="1" fill="black" color-rendering="auto" color-interpolation="auto" xmlns="http://www.w3.org/2000/svg"><g><g stroke="white" fill="white"><rect y="0" x="0" width="10399" stroke="none" height="6174"/></g><g transform="translate(32866,32758)" text-rendering="geometricPrecision" stroke-width="44" stroke-linejoin="round" stroke-linecap="round"><line y2="-29079" y1="-28620" x2="-28938" x1="-29735" fill="none"/><line y2="-28620" y1="-29079" x2="-27765" x1="-28559" fill="none"/><line y2="-27482" y1="-28620" x2="-29735" x1="-29735" fill="none"/><line y2="-28620" y1="-29186" x2="-29735" x1="-30720" fill="none"/><line y2="-28542" y1="-28969" x2="-29943" x1="-30682" fill="none"/><line y2="-27482" y1="-28620" x2="-27765" x1="-27765" fill="none"/><line y2="-27623" y1="-28475" x2="-27935" x1="-27935" fill="none"/><line y2="-28620" y1="-28620" x2="-25794" x1="-27765" fill="none"/><line y2="-27482" y1="-27482" x2="-29735" x1="-27765" fill="none"/><line y2="-26912" y1="-27482" x2="-30720" x1="-29735" fill="none"/><line y2="-27129" y1="-27557" x2="-30682" x1="-29943" fill="none"/><line y2="-29186" y1="-28620" x2="-30720" x1="-31702" fill="none"/><line y2="-27482" y1="-26912" x2="-27765" x1="-26777" fill="none"/><line y2="-27482" y1="-28620" x2="-25794" x1="-25794" fill="none"/><line y2="-27482" y1="-26912" x2="-31702" x1="-30720" fill="none"/><line y2="-28620" y1="-27482" x2="-31702" x1="-31702" fill="none"/><line y2="-28475" y1="-27623" x2="-31532" x1="-31532" fill="none"/><line y2="-26912" y1="-27482" x2="-26777" x1="-25794" fill="none"/><line y2="-30235" y1="-29406" x2="-28747" x1="-28747" fill="none"/><line y2="-30758" y1="-30235" x2="-27840" x1="-28747" fill="none"/><line y2="-28620" y1="-29143" x2="-23980" x1="-24887" fill="none"/><line y2="-30015" y1="-29186" x2="-30720" x1="-30720" fill="none"/><line y2="-27066" y1="-27482" x2="-32422" x1="-31702" fill="none"/><line y2="-31896" y1="-30758" x2="-27840" x1="-27840" fill="none"/><line y2="-31754" y1="-30902" x2="-27672" x1="-27672" fill="none"/><line y2="-30758" y1="-30191" x2="-27840" x1="-26858" fill="none"/><line y2="-32465" y1="-31896" x2="-26858" x1="-27840" fill="none"/><line y2="-30191" y1="-30758" x2="-26858" x1="-25870" fill="none"/><line y2="-30408" y1="-30836" x2="-26820" x1="-26080" fill="none"/><line y2="-31896" y1="-32465" x2="-25870" x1="-26858" fill="none"/><line y2="-31821" y1="-32245" x2="-26080" x1="-26820" fill="none"/><line y2="-30758" y1="-31896" x2="-25870" x1="-25870" fill="none"/><line y2="-32225" y1="-31896" x2="-25303" x1="-25870" fill="none"/><line y2="-29033" y1="-28620" x2="-23261" x1="-23980" fill="none"/><line y2="-27791" y1="-28620" x2="-23911" x1="-23911" fill="none"/><line y2="-27791" y1="-28620" x2="-24050" x1="-24050" fill="none"/><line y2="-30590" y1="-30344" x2="-31338" x1="-30908" fill="none"/><line y2="-30957" y1="-30489" x2="-30385" x1="-30654" fill="none"/><line y2="-30888" y1="-30420" x2="-30261" x1="-30532" fill="none"/><line y2="-30304" y1="-30304" x2="-29859" x1="-30532" fill="none"/><line y2="-30165" y1="-30165" x2="-29859" x1="-30532" fill="none"/><polygon stroke-width="1" stroke="none" points=" -25794 -28620 -24922 -29200 -24853 -29082"/><polygon stroke-width="1" points=" -25794 -28620 -24922 -29200 -24853 -29082" fill="none"/><text y="-30056" xml:space="preserve" x="-30870" stroke-width="1" stroke="none" font-size="433.3333" font-family="sans-serif">S</text><text y="-30743" xml:space="preserve" x="-32060" stroke-width="1" stroke="none" font-size="433.3333" font-family="sans-serif">CH</text><text y="-30654" xml:space="preserve" x="-31483" stroke-width="1" stroke="none" font-size="313.3333" font-family="sans-serif">3</text><text y="-30963" xml:space="preserve" x="-30347" stroke-width="1" stroke="none" font-size="433.3333" font-family="sans-serif">O</text><text y="-30056" xml:space="preserve" x="-29824" stroke-width="1" stroke="none" font-size="433.3333" font-family="sans-serif">O</text><text y="-28964" xml:space="preserve" x="-23226" stroke-width="1" stroke="none" font-size="433.3333" font-family="sans-serif">OH</text><text y="-27392" xml:space="preserve" x="-24133" stroke-width="1" stroke="none" font-size="433.3333" font-family="sans-serif">O</text><text y="-26780" xml:space="preserve" x="-32762" stroke-width="1" stroke="none" font-size="433.3333" font-family="sans-serif">F</text><text y="-32242" xml:space="preserve" x="-25194" stroke-width="1" stroke="none" font-size="433.3333" font-family="sans-serif">Cl</text><text y="-29007" xml:space="preserve" x="-28900" stroke-width="1" stroke="none" font-size="433.3333" font-family="sans-serif">N</text></g><g transform="translate(32866,32758)" text-rendering="geometricPrecision" stroke-linejoin="round" stroke-linecap="round" font-style="italic" font-size="313.3333" font-family="sans-serif"><text y="-28163" xml:space="preserve" x="-26190" stroke="none">R</text></g></g></svg>