<svg width="406.8" viewBox="0 0 13560 6247" text-rendering="auto" stroke-width="1" stroke-opacity="1" stroke-miterlimit="10" stroke-linejoin="miter" stroke-linecap="square" stroke-dashoffset="0" stroke-dasharray="none" stroke="black" shape-rendering="auto" image-rendering="auto" height="187.41" font-weight="normal" font-style="normal" font-size="12" font-family="'Dialog'" fill-opacity="1" fill="black" color-rendering="auto" color-interpolation="auto" xmlns="http://www.w3.org/2000/svg"><g><g stroke="white" fill="white"><rect y="0" x="0" width="13560" stroke="none" height="6247"/></g><g transform="translate(32866,32758)" text-rendering="geometricPrecision" stroke-width="44" stroke-linejoin="round" stroke-linecap="round"><line y2="-29770" y1="-29157" x2="-25419" x1="-26468" fill="none"/><line y2="-29157" y1="-29157" x2="-26468" x1="-28568" fill="none"/><line y2="-27932" y1="-29157" x2="-26468" x1="-26468" fill="none"/><line y2="-29157" y1="-29770" x2="-24370" x1="-25419" fill="none"/><line y2="-30992" y1="-29770" x2="-25419" x1="-25419" fill="none"/><line y2="-27932" y1="-29157" x2="-28568" x1="-28568" fill="none"/><line y2="-28085" y1="-29004" x2="-28738" x1="-28738" fill="none"/><line y2="-29157" y1="-29550" x2="-28568" x1="-29241" fill="none"/><line y2="-27323" y1="-27932" x2="-27516" x1="-26468" fill="none"/><line y2="-27932" y1="-27323" x2="-26468" x1="-25419" fill="none"/><line y2="-29157" y1="-29770" x2="-24370" x1="-23322" fill="none"/><line y2="-27932" y1="-29157" x2="-24370" x1="-24370" fill="none"/><line y2="-31604" y1="-30992" x2="-24370" x1="-25419" fill="none"/><line y2="-27932" y1="-27323" x2="-28568" x1="-27516" fill="none"/><line y2="-27932" y1="-27932" x2="-30665" x1="-28568" fill="none"/><line y2="-29660" y1="-29157" x2="-29804" x1="-30665" fill="none"/><line y2="-27323" y1="-27932" x2="-25419" x1="-24370" fill="none"/><line y2="-30992" y1="-29770" x2="-23322" x1="-23322" fill="none"/><line y2="-29770" y1="-29157" x2="-23322" x1="-22273" fill="none"/><line y2="-29839" y1="-29380" x2="-23105" x1="-22319" fill="none"/><line y2="-30992" y1="-31604" x2="-23322" x1="-24370" fill="none"/><line y2="-29157" y1="-27932" x2="-30665" x1="-30665" fill="none"/><line y2="-27323" y1="-27932" x2="-31714" x1="-30665" fill="none"/><line y2="-27545" y1="-28004" x2="-31668" x1="-30882" fill="none"/><line y2="-29157" y1="-29770" x2="-30665" x1="-31714" fill="none"/><line y2="-29085" y1="-29544" x2="-30882" x1="-31668" fill="none"/><line y2="-31494" y1="-30992" x2="-22461" x1="-23322" fill="none"/><line y2="-29157" y1="-29770" x2="-22273" x1="-21224" fill="none"/><line y2="-27932" y1="-27323" x2="-32762" x1="-31714" fill="none"/><line y2="-29770" y1="-29157" x2="-31714" x1="-32762" fill="none"/><line y2="-30992" y1="-31494" x2="-21224" x1="-22085" fill="none"/><line y2="-29770" y1="-30992" x2="-21224" x1="-21224" fill="none"/><line y2="-29157" y1="-27932" x2="-32762" x1="-32762" fill="none"/><line y2="-29004" y1="-28085" x2="-32592" x1="-32592" fill="none"/><line y2="-29414" y1="-29830" x2="-20470" x1="-21190" fill="none"/><line y2="-29293" y1="-29706" x2="-20542" x1="-21259" fill="none"/><line y2="-30992" y1="-31514" x2="-19410" x1="-20317" fill="none"/><line y2="-32422" y1="-31514" x2="-19794" x1="-20317" fill="none"/><line y2="-32202" y1="-31514" x2="-20716" x1="-20317" fill="none"/><polygon stroke-width="1" stroke="none" points=" -26468 -29157 -26537 -30203 -26401 -30203"/><polygon stroke-width="1" points=" -26468 -29157 -26537 -30203 -26401 -30203" fill="none"/><polygon stroke-width="1" stroke="none" points=" -24370 -29157 -24440 -29983 -24304 -29986"/><polygon stroke-width="1" points=" -24370 -29157 -24440 -29983 -24304 -29986" fill="none"/><polygon stroke-width="1" stroke="none" points=" -23322 -30992 -23391 -31818 -23255 -31821"/><polygon stroke-width="1" points=" -23322 -30992 -23391 -31818 -23255 -31821" fill="none"/><line y2="-31457" y1="-31575" x2="-20282" x1="-20352" fill="none"/><line y2="-31361" y1="-31454" x2="-20477" x1="-20532" fill="none"/><line y2="-31265" y1="-31334" x2="-20672" x1="-20713" fill="none"/><line y2="-31168" y1="-31213" x2="-20867" x1="-20893" fill="none"/><line y2="-31072" y1="-31093" x2="-21061" x1="-21073" fill="none"/><line y2="-28721" y1="-28721" x2="-25488" x1="-25352" fill="none"/><line y2="-28938" y1="-28938" x2="-25474" x1="-25366" fill="none"/><line y2="-29154" y1="-29154" x2="-25459" x1="-25380" fill="none"/><line y2="-29371" y1="-29371" x2="-25445" x1="-25394" fill="none"/><line y2="-29588" y1="-29588" x2="-25431" x1="-25407" fill="none"/><line y2="-27103" y1="-27106" x2="-26537" x1="-26401" fill="none"/><line y2="-27320" y1="-27322" x2="-26519" x1="-26419" fill="none"/><line y2="-27537" y1="-27539" x2="-26501" x1="-26436" fill="none"/><line y2="-27754" y1="-27755" x2="-26483" x1="-26454" fill="none"/><text y="-30024" xml:space="preserve" x="-24523" stroke="none" font-size="433.3333" font-family="sans-serif">OH</text><text y="-29065" xml:space="preserve" x="-20470" stroke="none" font-size="433.3333" font-family="sans-serif">O</text><text y="-32242" xml:space="preserve" x="-20993" stroke="none" font-size="433.3333" font-family="sans-serif">OH</text><text y="-29590" xml:space="preserve" x="-29767" stroke="none" font-size="433.3333" font-family="sans-serif">NH</text><text y="-31425" xml:space="preserve" x="-22426" stroke="none" font-size="433.3333" font-family="sans-serif">O</text><text y="-26707" xml:space="preserve" x="-26621" stroke="none" font-size="433.3333" font-family="sans-serif">H</text><text y="-31861" xml:space="preserve" x="-23475" stroke="none" font-size="433.3333" font-family="sans-serif">H</text><text y="-28834" xml:space="preserve" x="-26372" stroke="none" font-style="italic" font-size="313.3333" font-family="sans-serif">S</text><text y="-29732" xml:space="preserve" x="-25820" stroke="none" font-style="italic" font-size="313.3333" font-family="sans-serif">R</text><text y="-27898" xml:space="preserve" x="-26869" stroke="none" font-style="italic" font-size="313.3333" font-family="sans-serif">S</text><text y="-28834" xml:space="preserve" x="-24275" stroke="none" font-style="italic" font-size="313.3333" font-family="sans-serif">S</text><text y="-30668" xml:space="preserve" x="-23226" stroke="none" font-style="italic" font-size="313.3333" font-family="sans-serif">S</text><text y="-30668" xml:space="preserve" x="-21626" stroke="none" font-style="italic" font-size="313.3333" font-family="sans-serif">R</text></g></g></svg>