<svg width="407.67" viewBox="0 0 13589 8044" text-rendering="auto" stroke-width="1" stroke-opacity="1" stroke-miterlimit="10" stroke-linejoin="miter" stroke-linecap="square" stroke-dashoffset="0" stroke-dasharray="none" stroke="black" shape-rendering="auto" image-rendering="auto" height="241.32" font-weight="normal" font-style="normal" font-size="12" font-family="'Dialog'" fill-opacity="1" fill="black" color-rendering="auto" color-interpolation="auto" xmlns="http://www.w3.org/2000/svg"><g><g stroke="white" fill="white"><rect y="0" x="0" width="13589" stroke="none" height="8044"/></g><g transform="translate(32866,32758)" text-rendering="geometricPrecision" stroke-width="44" stroke-linejoin="round" stroke-linecap="round"><line y2="-27528" y1="-26392" x2="-26797" x1="-26797" fill="none"/><line y2="-26392" y1="-26392" x2="-26797" x1="-24824" fill="none"/><line y2="-25823" y1="-26392" x2="-27779" x1="-26797" fill="none"/><line y2="-27528" y1="-28097" x2="-26797" x1="-27779" fill="none"/><line y2="-28097" y1="-27528" x2="-25809" x1="-26797" fill="none"/><line y2="-26392" y1="-27528" x2="-24824" x1="-24824" fill="none"/><line y2="-26392" y1="-25823" x2="-28767" x1="-27779" fill="none"/><line y2="-28097" y1="-27528" x2="-27779" x1="-28767" fill="none"/><line y2="-27528" y1="-28097" x2="-24824" x1="-25809" fill="none"/><line y2="-27528" y1="-26392" x2="-28767" x1="-28767" fill="none"/><line y2="-29146" y1="-28097" x2="-27779" x1="-27779" fill="none"/><line y2="-29016" y1="-28227" x2="-27640" x1="-27640" fill="none"/><line y2="-25867" y1="-26392" x2="-23917" x1="-24824" fill="none"/><line y2="-29668" y1="-29146" x2="-28686" x1="-27779" fill="none"/><line y2="-26392" y1="-25867" x2="-23010" x1="-23917" fill="none"/><line y2="-25867" y1="-26392" x2="-22102" x1="-23010" fill="none"/><line y2="-26392" y1="-25867" x2="-21195" x1="-22102" fill="none"/><line y2="-29668" y1="-29668" x2="-29735" x1="-28686" fill="none"/><line y2="-29530" y1="-29530" x2="-29605" x1="-28816" fill="none"/><line y2="-25867" y1="-26392" x2="-20288" x1="-21195" fill="none"/><line y2="-29099" y1="-29668" x2="-30720" x1="-29735" fill="none"/><line y2="-29668" y1="-30807" x2="-29735" x1="-29735" fill="none"/><line y2="-29668" y1="-29099" x2="-31705" x1="-30720" fill="none"/><line y2="-30807" y1="-31376" x2="-29735" x1="-30720" fill="none"/><line y2="-30807" y1="-29668" x2="-31705" x1="-31705" fill="none"/><line y2="-31376" y1="-30807" x2="-30720" x1="-31705" fill="none"/><line y2="-28054" y1="-29099" x2="-30720" x1="-30720" fill="none"/><line y2="-28054" y1="-29099" x2="-30859" x1="-30859" fill="none"/><line y2="-26392" y1="-25867" x2="-19381" x1="-20288" fill="none"/><line y2="-24818" y1="-25867" x2="-20288" x1="-20288" fill="none"/><polygon stroke-width="1" stroke="none" points=" -26797 -27528 -26866 -28357 -26728 -28357"/><polygon stroke-width="1" points=" -26797 -27528 -26866 -28357 -26728 -28357" fill="none"/><polygon stroke-width="1" stroke="none" points=" -24824 -26392 -24971 -25581 -25104 -25615"/><polygon stroke-width="1" points=" -24824 -26392 -24971 -25581 -25104 -25615" fill="none"/><polygon stroke-width="1" stroke="none" points=" -23917 -25867 -23847 -24818 -23986 -24818"/><polygon stroke-width="1" points=" -23917 -25867 -23847 -24818 -23986 -24818" fill="none"/><polygon stroke-width="1" stroke="none" points=" -21195 -26392 -21265 -27219 -21126 -27219"/><polygon stroke-width="1" points=" -21195 -26392 -21265 -27219 -21126 -27219" fill="none"/><polygon stroke-width="1" stroke="none" points=" -31705 -29668 -32196 -29304 -32266 -29423"/><polygon stroke-width="1" points=" -31705 -29668 -32196 -29304 -32266 -29423" fill="none"/><line y2="-25344" y1="-25344" x2="-26866" x1="-26728" fill="none"/><line y2="-25561" y1="-25561" x2="-26852" x1="-26742" fill="none"/><line y2="-25777" y1="-25777" x2="-26837" x1="-26757" fill="none"/><line y2="-25994" y1="-25994" x2="-26823" x1="-26771" fill="none"/><line y2="-26211" y1="-26211" x2="-26809" x1="-26785" fill="none"/><line y2="-32202" y1="-32202" x2="-30654" x1="-30789" fill="none"/><line y2="-31985" y1="-31985" x2="-30671" x1="-30771" fill="none"/><line y2="-31769" y1="-31769" x2="-30689" x1="-30753" fill="none"/><line y2="-31552" y1="-31552" x2="-30706" x1="-30735" fill="none"/><text y="-27259" xml:space="preserve" x="-21348" stroke="none" font-size="433.3333" font-family="sans-serif">OH</text><text y="-28966" xml:space="preserve" x="-32762" stroke="none" font-size="433.3333" font-family="sans-serif">OH</text><text y="-32242" xml:space="preserve" x="-30873" stroke="none" font-size="433.3333" font-family="sans-serif">OH</text><text y="-28397" xml:space="preserve" x="-26947" stroke="none" font-size="433.3333" font-family="sans-serif">H</text><text y="-25199" xml:space="preserve" x="-25248" stroke="none" font-size="433.3333" font-family="sans-serif">H</text><text y="-28441" xml:space="preserve" x="-28296" stroke="none" font-style="italic" font-size="313.3333" font-family="sans-serif">E</text><text y="-29024" xml:space="preserve" x="-29362" stroke="none" font-style="italic" font-size="313.3333" font-family="sans-serif">Z</text><text y="-25991" xml:space="preserve" x="-24070" stroke="none" font-style="italic" font-size="313.3333" font-family="sans-serif">R</text><text y="-25910" xml:space="preserve" x="-21348" stroke="none" font-style="italic" font-size="313.3333" font-family="sans-serif">R</text><text y="-26355" xml:space="preserve" x="-27196" stroke="none" font-style="italic" font-size="313.3333" font-family="sans-serif">R</text><text y="-27204" xml:space="preserve" x="-26699" stroke="none" font-style="italic" font-size="313.3333" font-family="sans-serif">S</text><text y="-26355" xml:space="preserve" x="-24728" stroke="none" font-style="italic" font-size="313.3333" font-family="sans-serif">R</text><text y="-29634" xml:space="preserve" x="-31607" stroke="none" font-style="italic" font-size="313.3333" font-family="sans-serif">S</text><text y="-30893" xml:space="preserve" x="-30873" stroke="none" font-style="italic" font-size="313.3333" font-family="sans-serif">R</text></g></g></svg>