<svg width="507.66" viewBox="0 0 16922 4855" text-rendering="auto" stroke-width="1" stroke-opacity="1" stroke-miterlimit="10" stroke-linejoin="miter" stroke-linecap="square" stroke-dashoffset="0" stroke-dasharray="none" stroke="black" shape-rendering="auto" image-rendering="auto" height="145.65" font-weight="normal" font-style="normal" font-size="12" font-family="'Dialog'" fill-opacity="1" fill="black" color-rendering="auto" color-interpolation="auto" xmlns="http://www.w3.org/2000/svg"><g><g stroke="white" fill="white"><rect y="0" x="0" width="16922" stroke="none" height="4855"/></g><g transform="translate(32866,32758)" text-rendering="geometricPrecision" stroke-width="44" stroke-linejoin="round" stroke-linecap="round"><line y2="-30154" y1="-31376" x2="-19237" x1="-19237" fill="none"/><line y2="-31376" y1="-31985" x2="-19237" x1="-20285" fill="none"/><line y2="-31304" y1="-31763" x2="-19453" x1="-20239" fill="none"/><line y2="-31876" y1="-31376" x2="-18376" x1="-19237" fill="none"/><line y2="-29541" y1="-30154" x2="-20285" x1="-19237" fill="none"/><line y2="-29764" y1="-30223" x2="-20239" x1="-19453" fill="none"/><line y2="-30154" y1="-29541" x2="-19237" x1="-18188" fill="none"/><line y2="-31985" y1="-31376" x2="-20285" x1="-21331" fill="none"/><line y2="-31376" y1="-31766" x2="-17139" x1="-17812" fill="none"/><line y2="-30154" y1="-29541" x2="-21331" x1="-20285" fill="none"/><line y2="-29541" y1="-30154" x2="-18188" x1="-17139" fill="none"/><line y2="-31376" y1="-30154" x2="-21331" x1="-21331" fill="none"/><line y2="-31223" y1="-30307" x2="-21164" x1="-21164" fill="none"/><line y2="-30154" y1="-31376" x2="-17139" x1="-17139" fill="none"/><line y2="-31792" y1="-31376" x2="-22050" x1="-21331" fill="none"/><line y2="-31376" y1="-31792" x2="-23148" x1="-22429" fill="none"/><line y2="-31899" y1="-31376" x2="-24055" x1="-23148" fill="none"/><line y2="-31376" y1="-31899" x2="-24962" x1="-24055" fill="none"/><line y2="-31899" y1="-31376" x2="-25870" x1="-24962" fill="none"/><line y2="-31483" y1="-31899" x2="-26589" x1="-25870" fill="none"/><line y2="-31852" y1="-31436" x2="-16455" x1="-17174" fill="none"/><line y2="-31728" y1="-31315" x2="-16385" x1="-17105" fill="none"/><line y2="-31483" y1="-31945" x2="-26964" x1="-27759" fill="none"/><line y2="-30238" y1="-31156" x2="-26777" x1="-26777" fill="none"/><line y2="-31945" y1="-31376" x2="-27759" x1="-28747" fill="none"/><line y2="-29668" y1="-30238" x2="-27759" x1="-26777" fill="none"/><line y2="-31376" y1="-30457" x2="-28747" x1="-28747" fill="none"/><line y2="-30128" y1="-29668" x2="-28559" x1="-27759" fill="none"/><line y2="-29715" y1="-30128" x2="-29654" x1="-28935" fill="none"/><line y2="-32202" y1="-31595" x2="-26846" x1="-26846" fill="none"/><line y2="-32202" y1="-31595" x2="-26704" x1="-26704" fill="none"/><line y2="-29715" y1="-30281" x2="-29654" x1="-30636" fill="none"/><line y2="-29637" y1="-30064" x2="-29862" x1="-30599" fill="none"/><line y2="-28576" y1="-29715" x2="-29654" x1="-29654" fill="none"/><line y2="-30281" y1="-29715" x2="-30636" x1="-31624" fill="none"/><line y2="-28007" y1="-28576" x2="-30636" x1="-29654" fill="none"/><line y2="-28224" y1="-28652" x2="-30599" x1="-29862" fill="none"/><line y2="-29715" y1="-28576" x2="-31624" x1="-31624" fill="none"/><line y2="-29570" y1="-28718" x2="-31454" x1="-31454" fill="none"/><line y2="-28576" y1="-28007" x2="-31624" x1="-30636" fill="none"/><line y2="-31110" y1="-30281" x2="-30636" x1="-30636" fill="none"/><line y2="-30041" y1="-29715" x2="-32190" x1="-31624" fill="none"/><text y="-31720" xml:space="preserve" x="-22391" stroke="none" font-size="433.3333" font-family="sans-serif">O</text><text y="-31720" xml:space="preserve" x="-16385" stroke="none" font-size="433.3333" font-family="sans-serif">O</text><text y="-32242" xml:space="preserve" x="-26927" stroke="none" font-size="433.3333" font-family="sans-serif">O</text><text y="-31150" xml:space="preserve" x="-30867" stroke="none" font-size="433.3333" font-family="sans-serif">Cl</text><text y="-30058" xml:space="preserve" x="-32762" stroke="none" font-size="433.3333" font-family="sans-serif">Cl</text><text y="-31806" xml:space="preserve" x="-18341" stroke="none" font-size="433.3333" font-family="sans-serif">NH</text><text y="-31197" xml:space="preserve" x="-26927" stroke="none" font-size="433.3333" font-family="sans-serif">N</text><text y="-30058" xml:space="preserve" x="-28897" stroke="none" font-size="433.3333" font-family="sans-serif">N</text></g></g></svg>