<svg width="195.54" viewBox="0 0 6518 2293" text-rendering="auto" stroke-width="1" stroke-opacity="1" stroke-miterlimit="10" stroke-linejoin="miter" stroke-linecap="square" stroke-dashoffset="0" stroke-dasharray="none" stroke="black" shape-rendering="auto" image-rendering="auto" height="68.79" font-weight="normal" font-style="normal" font-size="12" font-family="'Dialog'" fill-opacity="1" fill="black" color-rendering="auto" color-interpolation="auto" xmlns="http://www.w3.org/2000/svg"><g><g stroke="white" fill="white"><rect y="0" x="0" width="6518" stroke="none" height="2293"/></g><g transform="translate(32866,32644)" text-rendering="geometricPrecision" stroke-width="44" stroke-linejoin="round" stroke-linecap="round"><line y2="-32297" y1="-31774" x2="-29798" x1="-30706" fill="none"/><line y2="-32112" y1="-31720" x2="-29842" x1="-30521" fill="none"/><line y2="-32190" y1="-31774" x2="-31425" x1="-30706" fill="none"/><line y2="-31942" y1="-32190" x2="-32231" x1="-31800" fill="none"/><line y2="-31774" y1="-32297" x2="-28891" x1="-29798" fill="none"/><line y2="-32190" y1="-31774" x2="-28172" x1="-28891" fill="none"/><line y2="-31881" y1="-32190" x2="-27265" x1="-27794" fill="none"/><line y2="-30945" y1="-31774" x2="-28819" x1="-28819" fill="none"/><line y2="-30945" y1="-31774" x2="-28961" x1="-28961" fill="none"/><text y="-32118" xml:space="preserve" x="-28134" stroke="none" font-size="433.3333" font-family="sans-serif">O</text><text y="-30547" xml:space="preserve" x="-29042" stroke="none" font-size="433.3333" font-family="sans-serif">O</text><text y="-31595" xml:space="preserve" x="-27227" stroke="none" font-size="433.3333" font-family="sans-serif">CH</text><text y="-31506" xml:space="preserve" x="-26650" stroke="none" font-size="313.3333" font-family="sans-serif">3</text><text y="-32118" xml:space="preserve" x="-31763" stroke="none" font-size="433.3333" font-family="sans-serif">O</text><text y="-31543" xml:space="preserve" x="-32762" stroke="none" font-size="433.3333" font-family="sans-serif">CH</text><text y="-31454" xml:space="preserve" x="-32185" stroke="none" font-size="313.3333" font-family="sans-serif">3</text><text y="-32242" xml:space="preserve" x="-30628" stroke="none" font-style="italic" font-size="313.3333" font-family="sans-serif">E</text></g></g></svg>