<svg width="561.03" viewBox="0 0 18701 2283" text-rendering="auto" stroke-width="1" stroke-opacity="1" stroke-miterlimit="10" stroke-linejoin="miter" stroke-linecap="square" stroke-dashoffset="0" stroke-dasharray="none" stroke="black" shape-rendering="auto" image-rendering="auto" height="68.49" font-weight="normal" font-style="normal" font-size="12" font-family="'Dialog'" fill-opacity="1" fill="black" color-rendering="auto" color-interpolation="auto" xmlns="http://www.w3.org/2000/svg"><g><g stroke="white" fill="white"><rect y="0" x="0" width="18701" stroke="none" height="2283"/></g><g transform="translate(32866,32758)" text-rendering="geometricPrecision" stroke-width="44" stroke-linejoin="round" stroke-linecap="round"><line y2="-30850" y1="-31376" x2="-29134" x1="-30041" fill="none"/><line y2="-31376" y1="-30850" x2="-28227" x1="-29134" fill="none"/><line y2="-30960" y1="-31376" x2="-27508" x1="-28227" fill="none"/><line y2="-31376" y1="-30960" x2="-26413" x1="-27132" fill="none"/><line y2="-30850" y1="-31376" x2="-25506" x1="-26413" fill="none"/><line y2="-31266" y1="-30850" x2="-24786" x1="-25506" fill="none"/><line y2="-30850" y1="-31266" x2="-23691" x1="-24411" fill="none"/><line y2="-31376" y1="-30850" x2="-22784" x1="-23691" fill="none"/><line y2="-30960" y1="-31376" x2="-22065" x1="-22784" fill="none"/><line y2="-31376" y1="-30960" x2="-20970" x1="-21689" fill="none"/><line y2="-30850" y1="-31376" x2="-20063" x1="-20970" fill="none"/><line y2="-31266" y1="-30850" x2="-19344" x1="-20063" fill="none"/><line y2="-30850" y1="-31266" x2="-18249" x1="-18965" fill="none"/><line y2="-31376" y1="-30850" x2="-17342" x1="-18249" fill="none"/><line y2="-30960" y1="-31376" x2="-16622" x1="-17342" fill="none"/><line y2="-31327" y1="-31020" x2="-15750" x1="-16278" fill="none"/><line y2="-31205" y1="-30899" x2="-15678" x1="-16209" fill="none"/><line y2="-31020" y1="-31272" x2="-14770" x1="-15204" fill="none"/><line y2="-30899" y1="-31150" x2="-14843" x1="-15276" fill="none"/><line y2="-30960" y1="-31376" x2="-30760" x1="-30041" fill="none"/><line y2="-31376" y1="-30960" x2="-31855" x1="-31136" fill="none"/><line y2="-32202" y1="-31376" x2="-30110" x1="-30110" fill="none"/><line y2="-32202" y1="-31376" x2="-29972" x1="-29972" fill="none"/><line y2="-30850" y1="-31376" x2="-32762" x1="-31855" fill="none"/><line y2="-32283" y1="-31376" x2="-32378" x1="-31855" fill="none"/><line y2="-32283" y1="-31376" x2="-31332" x1="-31855" fill="none"/><text y="-30671" xml:space="preserve" x="-27473" stroke="none" font-size="433.3333" font-family="sans-serif">O</text><text y="-31197" xml:space="preserve" x="-24749" stroke="none" font-size="433.3333" font-family="sans-serif">O</text><text y="-30671" xml:space="preserve" x="-31101" stroke="none" font-size="433.3333" font-family="sans-serif">O</text><text y="-32242" xml:space="preserve" x="-30194" stroke="none" font-size="433.3333" font-family="sans-serif">O</text><text y="-30671" xml:space="preserve" x="-22027" stroke="none" font-size="433.3333" font-family="sans-serif">O</text><text y="-31197" xml:space="preserve" x="-19306" stroke="none" font-size="433.3333" font-family="sans-serif">O</text><text y="-30671" xml:space="preserve" x="-16585" stroke="none" font-size="433.3333" font-family="sans-serif">N</text><text y="-31197" xml:space="preserve" x="-15678" stroke="none" font-size="433.3333" font-family="sans-serif">N</text><text y="-30671" xml:space="preserve" x="-14770" stroke="none" font-size="433.3333" font-family="sans-serif">N</text><text y="-31252" xml:space="preserve" x="-15357" stroke="none" font-size="313.3333" font-family="sans-serif">+</text><text y="-30729" xml:space="preserve" x="-14450" stroke="none" font-size="313.3333" font-family="sans-serif">-</text></g></g></svg>