<svg width="179.97" viewBox="0 0 5999 2552" text-rendering="auto" stroke-width="1" stroke-opacity="1" stroke-miterlimit="10" stroke-linejoin="miter" stroke-linecap="square" stroke-dashoffset="0" stroke-dasharray="none" stroke="black" shape-rendering="auto" image-rendering="auto" height="76.56" font-weight="normal" font-style="normal" font-size="12" font-family="'Dialog'" fill-opacity="1" fill="black" color-rendering="auto" color-interpolation="auto" xmlns="http://www.w3.org/2000/svg"><g><g stroke="white" fill="white"><rect y="0" x="0" width="5999" stroke="none" height="2552"/></g><g transform="translate(32866,32758)" text-rendering="geometricPrecision" stroke-width="44" stroke-linejoin="round" stroke-linecap="round"><line y2="-31376" y1="-31925" x2="-28952" x1="-29666" fill="none"/><line y2="-30310" y1="-31376" x2="-29322" x1="-28952" fill="none"/><line y2="-30500" y1="-31298" x2="-29437" x1="-29160" fill="none"/><line y2="-31930" y1="-31376" x2="-30041" x1="-30795" fill="none"/><line y2="-30310" y1="-30310" x2="-30469" x1="-29322" fill="none"/><line y2="-31376" y1="-30310" x2="-30795" x1="-30469" fill="none"/><line y2="-31292" y1="-30495" x2="-30590" x1="-30344" fill="none"/><line y2="-31899" y1="-31376" x2="-28045" x1="-28952" fill="none"/><line y2="-31899" y1="-31376" x2="-31702" x1="-30795" fill="none"/><line y2="-32315" y1="-31899" x2="-27326" x1="-28045" fill="none"/><line y2="-32393" y1="-31977" x2="-27372" x1="-28091" fill="none"/><line y2="-32237" y1="-31821" x2="-27282" x1="-28002" fill="none"/><line y2="-32315" y1="-31899" x2="-32422" x1="-31702" fill="none"/><line y2="-32237" y1="-31821" x2="-32465" x1="-31748" fill="none"/><line y2="-32393" y1="-31977" x2="-32375" x1="-31659" fill="none"/><text y="-32242" xml:space="preserve" x="-27291" stroke="none" font-size="433.3333" font-family="sans-serif">N</text><text y="-32242" xml:space="preserve" x="-32762" stroke="none" font-size="433.3333" font-family="sans-serif">N</text><text y="-31893" xml:space="preserve" x="-30006" stroke="none" font-size="433.3333" font-family="sans-serif">O</text></g></g></svg>