<svg width="283.05" viewBox="0 0 9435 5080" text-rendering="auto" stroke-width="1" stroke-opacity="1" stroke-miterlimit="10" stroke-linejoin="miter" stroke-linecap="square" stroke-dashoffset="0" stroke-dasharray="none" stroke="black" shape-rendering="auto" image-rendering="auto" height="152.4" font-weight="normal" font-style="normal" font-size="12" font-family="'Dialog'" fill-opacity="1" fill="black" color-rendering="auto" color-interpolation="auto" xmlns="http://www.w3.org/2000/svg"><g><g stroke="white" fill="white"><rect y="0" x="0" width="9435" stroke="none" height="5080"/></g><g transform="translate(32866,32758)" text-rendering="geometricPrecision" stroke-width="44" stroke-linejoin="round" stroke-linecap="round"><line y2="-30807" y1="-31376" x2="-27164" x1="-28146" fill="none"/><line y2="-30729" y1="-31156" x2="-27372" x1="-28108" fill="none"/><line y2="-29668" y1="-30807" x2="-27164" x1="-27164" fill="none"/><line y2="-31376" y1="-30807" x2="-28146" x1="-29134" fill="none"/><line y2="-29099" y1="-29668" x2="-28146" x1="-27164" fill="none"/><line y2="-29319" y1="-29744" x2="-28108" x1="-27372" fill="none"/><line y2="-30807" y1="-29668" x2="-29134" x1="-29134" fill="none"/><line y2="-30665" y1="-29810" x2="-28964" x1="-28964" fill="none"/><line y2="-29668" y1="-29099" x2="-29134" x1="-28146" fill="none"/><line y2="-31330" y1="-30807" x2="-26257" x1="-27164" fill="none"/><line y2="-29146" y1="-29668" x2="-30041" x1="-29134" fill="none"/><line y2="-32202" y1="-31376" x2="-28146" x1="-28146" fill="none"/><line y2="-28273" y1="-29099" x2="-28146" x1="-28146" fill="none"/><line y2="-30914" y1="-31330" x2="-25537" x1="-26257" fill="none"/><line y2="-31330" y1="-30914" x2="-24442" x1="-25162" fill="none"/><line y2="-30807" y1="-31330" x2="-23535" x1="-24442" fill="none"/><line y2="-32159" y1="-31330" x2="-26326" x1="-26326" fill="none"/><line y2="-32159" y1="-31330" x2="-26187" x1="-26187" fill="none"/><line y2="-29562" y1="-29146" x2="-30760" x1="-30041" fill="none"/><line y2="-29146" y1="-29562" x2="-31855" x1="-31136" fill="none"/><line y2="-29668" y1="-29146" x2="-32762" x1="-31855" fill="none"/><line y2="-28316" y1="-29146" x2="-29972" x1="-29972" fill="none"/><line y2="-28316" y1="-29146" x2="-30110" x1="-30110" fill="none"/><text y="-30628" xml:space="preserve" x="-25503" stroke="none" font-size="433.3333" font-family="sans-serif">O</text><text y="-32199" xml:space="preserve" x="-26410" stroke="none" font-size="433.3333" font-family="sans-serif">O</text><text y="-32242" xml:space="preserve" x="-28299" stroke="none" font-size="433.3333" font-family="sans-serif">OH</text><text y="-27874" xml:space="preserve" x="-28299" stroke="none" font-size="433.3333" font-family="sans-serif">OH</text><text y="-29489" xml:space="preserve" x="-31101" stroke="none" font-size="433.3333" font-family="sans-serif">O</text><text y="-27918" xml:space="preserve" x="-30194" stroke="none" font-size="433.3333" font-family="sans-serif">O</text></g></g></svg>