<svg width="307.47" viewBox="0 0 10249 6403" text-rendering="auto" stroke-width="1" stroke-opacity="1" stroke-miterlimit="10" stroke-linejoin="miter" stroke-linecap="square" stroke-dashoffset="0" stroke-dasharray="none" stroke="black" shape-rendering="auto" image-rendering="auto" height="192.09" font-weight="normal" font-style="normal" font-size="12" font-family="'Dialog'" fill-opacity="1" fill="black" color-rendering="auto" color-interpolation="auto" xmlns="http://www.w3.org/2000/svg"><g><g stroke="white" fill="white"><rect y="0" x="0" width="10249" stroke="none" height="6403"/></g><g transform="translate(32866,32758)" text-rendering="geometricPrecision" stroke-width="44" stroke-linejoin="round" stroke-linecap="round"><line y2="-30119" y1="-30645" x2="-27918" x1="-28825" fill="none"/><line y2="-30119" y1="-30645" x2="-29732" x1="-28825" fill="none"/><line y2="-31471" y1="-30645" x2="-28894" x1="-28894" fill="none"/><line y2="-31471" y1="-30645" x2="-28756" x1="-28756" fill="none"/><line y2="-30645" y1="-30119" x2="-27011" x1="-27918" fill="none"/><line y2="-30460" y1="-30064" x2="-27054" x1="-27733" fill="none"/><line y2="-28984" y1="-30119" x2="-29732" x1="-29732" fill="none"/><line y2="-29125" y1="-29978" x2="-29902" x1="-29902" fill="none"/><line y2="-30119" y1="-30688" x2="-29732" x1="-30717" fill="none"/><line y2="-28415" y1="-28984" x2="-30717" x1="-29732" fill="none"/><line y2="-30688" y1="-30119" x2="-30717" x1="-31702" fill="none"/><line y2="-30472" y1="-30044" x2="-30755" x1="-31494" fill="none"/><line y2="-28984" y1="-28415" x2="-31702" x1="-30717" fill="none"/><line y2="-29059" y1="-28631" x2="-31494" x1="-30755" fill="none"/><line y2="-30119" y1="-28984" x2="-31702" x1="-31702" fill="none"/><line y2="-28678" y1="-28984" x2="-32228" x1="-31702" fill="none"/><line y2="-30119" y1="-30645" x2="-26104" x1="-27011" fill="none"/><line y2="-30688" y1="-30119" x2="-25116" x1="-26104" fill="none"/><line y2="-30472" y1="-30044" x2="-25153" x1="-25893" fill="none"/><line y2="-30119" y1="-28984" x2="-26104" x1="-26104" fill="none"/><line y2="-30119" y1="-30688" x2="-24133" x1="-25116" fill="none"/><line y2="-28984" y1="-28415" x2="-26104" x1="-25116" fill="none"/><line y2="-29059" y1="-28631" x2="-25893" x1="-25153" fill="none"/><line y2="-28984" y1="-30119" x2="-24133" x1="-24133" fill="none"/><line y2="-29125" y1="-29978" x2="-24304" x1="-24304" fill="none"/><line y2="-28415" y1="-28984" x2="-25116" x1="-24133" fill="none"/><line y2="-27366" y1="-28415" x2="-25116" x1="-25116" fill="none"/><line y2="-31517" y1="-30688" x2="-25116" x1="-25116" fill="none"/><line y2="-32092" y1="-31844" x2="-25734" x1="-25303" fill="none"/><line y2="-28568" y1="-28984" x2="-23414" x1="-24133" fill="none"/><line y2="-26843" y1="-27366" x2="-26023" x1="-25116" fill="none"/><line y2="-27366" y1="-26843" x2="-26930" x1="-26023" fill="none"/><line y2="-27248" y1="-26722" x2="-26999" x1="-26092" fill="none"/><line y2="-26459" y1="-27366" x2="-24593" x1="-25116" fill="none"/><line y2="-27366" y1="-27366" x2="-24067" x1="-25116" fill="none"/><text y="-31512" xml:space="preserve" x="-28975" stroke="none" font-size="433.3333" font-family="sans-serif">O</text><text y="-31558" xml:space="preserve" x="-25269" stroke="none" font-size="433.3333" font-family="sans-serif">O</text><text y="-32242" xml:space="preserve" x="-26456" stroke="none" font-size="433.3333" font-family="sans-serif">CH</text><text y="-32153" xml:space="preserve" x="-25878" stroke="none" font-size="313.3333" font-family="sans-serif">3</text><text y="-28279" xml:space="preserve" x="-23376" stroke="none" font-size="433.3333" font-family="sans-serif">OH</text><text y="-28279" xml:space="preserve" x="-32762" stroke="none" font-size="433.3333" font-family="sans-serif">OH</text><text y="-30590" xml:space="preserve" x="-27840" stroke="none" font-style="italic" font-size="313.3333" font-family="sans-serif">E</text></g></g></svg>