<svg width="141.21" viewBox="0 0 4707 4294" text-rendering="auto" stroke-width="1" stroke-opacity="1" stroke-miterlimit="10" stroke-linejoin="miter" stroke-linecap="square" stroke-dashoffset="0" stroke-dasharray="none" stroke="black" shape-rendering="auto" image-rendering="auto" height="128.82" font-weight="normal" font-style="normal" font-size="12" font-family="'Dialog'" fill-opacity="1" fill="black" color-rendering="auto" color-interpolation="auto" xmlns="http://www.w3.org/2000/svg"><g><g stroke="white" fill="white"><rect y="0" x="0" width="4707" stroke="none" height="4294"/></g><g transform="translate(32866,32758)" text-rendering="geometricPrecision" stroke-width="44" stroke-linejoin="round" stroke-linecap="round"><line y2="-30275" y1="-30844" x2="-30792" x1="-31774" fill="none"/><line y2="-30200" y1="-30628" x2="-31000" x1="-31737" fill="none"/><line y2="-29137" y1="-30275" x2="-30792" x1="-30792" fill="none"/><line y2="-30844" y1="-30275" x2="-31774" x1="-32762" fill="none"/><line y2="-28568" y1="-29137" x2="-31774" x1="-30792" fill="none"/><line y2="-28787" y1="-29215" x2="-31737" x1="-31000" fill="none"/><line y2="-30275" y1="-29137" x2="-32762" x1="-32762" fill="none"/><line y2="-30134" y1="-29281" x2="-32592" x1="-32592" fill="none"/><line y2="-29137" y1="-28568" x2="-32762" x1="-31774" fill="none"/><line y2="-30798" y1="-30275" x2="-29885" x1="-30792" fill="none"/><line y2="-30275" y1="-30798" x2="-28978" x1="-29885" fill="none"/><line y2="-32315" y1="-32066" x2="-29076" x1="-29504" fill="none"/><line y2="-31627" y1="-31627" x2="-29816" x1="-29954" fill="none"/><line y2="-31410" y1="-31410" x2="-29834" x1="-29936" fill="none"/><line y2="-31194" y1="-31194" x2="-29852" x1="-29918" fill="none"/><line y2="-30977" y1="-30977" x2="-29870" x1="-29900" fill="none"/><text y="-31668" xml:space="preserve" x="-30038" stroke="none" font-size="433.3333" font-family="sans-serif">NH</text><text y="-32242" xml:space="preserve" x="-29039" stroke="none" font-size="433.3333" font-family="sans-serif">CH</text><text y="-32153" xml:space="preserve" x="-28461" stroke="none" font-size="313.3333" font-family="sans-serif">3</text><text y="-30318" xml:space="preserve" x="-30038" stroke="none" font-style="italic" font-size="313.3333" font-family="sans-serif">R</text></g></g></svg>