<svg width="161.85" viewBox="0 0 5395 4776" text-rendering="auto" stroke-width="1" stroke-opacity="1" stroke-miterlimit="10" stroke-linejoin="miter" stroke-linecap="square" stroke-dashoffset="0" stroke-dasharray="none" stroke="black" shape-rendering="auto" image-rendering="auto" height="143.28" font-weight="normal" font-style="normal" font-size="12" font-family="'Dialog'" fill-opacity="1" fill="black" color-rendering="auto" color-interpolation="auto" xmlns="http://www.w3.org/2000/svg"><g><g stroke="white" fill="white"><rect y="0" x="0" width="5395" stroke="none" height="4776"/></g><g transform="translate(32866,32758)" text-rendering="geometricPrecision" stroke-width="44" stroke-linejoin="round" stroke-linecap="round"><line y2="-29787" y1="-30850" x2="-31289" x1="-30922" fill="none"/><line y2="-29975" y1="-30772" x2="-31405" x1="-31127" fill="none"/><line y2="-29787" y1="-29787" x2="-32436" x1="-31289" fill="none"/><line y2="-30850" y1="-31402" x2="-30922" x1="-31633" fill="none"/><line y2="-30850" y1="-29787" x2="-32762" x1="-32436" fill="none"/><line y2="-30766" y1="-29972" x2="-32560" x1="-32315" fill="none"/><line y2="-31408" y1="-30850" x2="-32008" x1="-32762" fill="none"/><line y2="-31376" y1="-30850" x2="-30015" x1="-30922" fill="none"/><line y2="-29371" y1="-29787" x2="-30570" x1="-31289" fill="none"/><line y2="-30960" y1="-31376" x2="-29296" x1="-30015" fill="none"/><line y2="-31266" y1="-30960" x2="-28389" x1="-28917" fill="none"/><line y2="-32202" y1="-31376" x2="-30084" x1="-30084" fill="none"/><line y2="-32202" y1="-31376" x2="-29943" x1="-29943" fill="none"/><line y2="-29634" y1="-29371" x2="-29738" x1="-30194" fill="none"/><line y2="-28611" y1="-29079" x2="-29926" x1="-30194" fill="none"/><line y2="-28542" y1="-29010" x2="-30047" x1="-30316" fill="none"/><line y2="-28542" y1="-29010" x2="-30717" x1="-30448" fill="none"/><line y2="-28611" y1="-29079" x2="-30838" x1="-30570" fill="none"/><text y="-29085" xml:space="preserve" x="-30535" stroke="none" font-size="433.3333" font-family="sans-serif">S</text><text y="-29651" xml:space="preserve" x="-29631" stroke="none" font-size="433.3333" font-family="sans-serif">Cl</text><text y="-28178" xml:space="preserve" x="-30009" stroke="none" font-size="433.3333" font-family="sans-serif">O</text><text y="-28178" xml:space="preserve" x="-31058" stroke="none" font-size="433.3333" font-family="sans-serif">O</text><text y="-30671" xml:space="preserve" x="-29258" stroke="none" font-size="433.3333" font-family="sans-serif">O</text><text y="-32242" xml:space="preserve" x="-30165" stroke="none" font-size="433.3333" font-family="sans-serif">O</text><text y="-31197" xml:space="preserve" x="-28351" stroke="none" font-size="433.3333" font-family="sans-serif">CH</text><text y="-31107" xml:space="preserve" x="-27773" stroke="none" font-size="313.3333" font-family="sans-serif">3</text><text y="-31367" xml:space="preserve" x="-31974" stroke="none" font-size="433.3333" font-family="sans-serif">S</text></g></g></svg>