<svg width="257.61" viewBox="0 0 8587 7302" text-rendering="auto" stroke-width="1" stroke-opacity="1" stroke-miterlimit="10" stroke-linejoin="miter" stroke-linecap="square" stroke-dashoffset="0" stroke-dasharray="none" stroke="black" shape-rendering="auto" image-rendering="auto" height="219.06" font-weight="normal" font-style="normal" font-size="12" font-family="'Dialog'" fill-opacity="1" fill="black" color-rendering="auto" color-interpolation="auto" xmlns="http://www.w3.org/2000/svg"><g><g stroke="white" fill="white"><rect y="0" x="0" width="8587" stroke="none" height="7302"/></g><g transform="translate(32866,32866)" text-rendering="geometricPrecision" stroke-width="44" stroke-linejoin="round" stroke-linecap="round"><line y2="-30766" y1="-30307" x2="-28857" x1="-29657" fill="none"/><line y2="-30307" y1="-30766" x2="-27687" x1="-28481" fill="none"/><line y2="-32008" y1="-31096" x2="-28666" x1="-28669" fill="none"/><line y2="-29169" y1="-30307" x2="-29657" x1="-29657" fill="none"/><line y2="-30307" y1="-30876" x2="-29657" x1="-30639" fill="none"/><line y2="-30232" y1="-30659" x2="-29865" x1="-30602" fill="none"/><line y2="-30307" y1="-30870" x2="-27687" x1="-26699" fill="none"/><line y2="-30526" y1="-30948" x2="-27646" x1="-26907" fill="none"/><line y2="-29169" y1="-30307" x2="-27687" x1="-27687" fill="none"/><line y2="-32008" y1="-32008" x2="-26886" x1="-28666" fill="none"/><line y2="-31838" y1="-31838" x2="-27109" x1="-28444" fill="none"/><line y2="-29169" y1="-28120" x2="-29657" x1="-29221" fill="none"/><line y2="-28600" y1="-29169" x2="-30639" x1="-29657" fill="none"/><line y2="-28819" y1="-29247" x2="-30602" x1="-29865" fill="none"/><line y2="-30876" y1="-30307" x2="-30639" x1="-31624" fill="none"/><line y2="-30870" y1="-31789" x2="-26699" x1="-26699" fill="none"/><line y2="-28340" y1="-29169" x2="-27999" x1="-27687" fill="none"/><line y2="-28120" y1="-28120" x2="-29221" x1="-28267" fill="none"/><line y2="-28290" y1="-28290" x2="-29102" x1="-28389" fill="none"/><line y2="-29169" y1="-28600" x2="-31624" x1="-30639" fill="none"/><line y2="-30307" y1="-29169" x2="-31624" x1="-31624" fill="none"/><line y2="-30165" y1="-29313" x2="-31454" x1="-31454" fill="none"/><line y2="-27597" y1="-28120" x2="-30128" x1="-29221" fill="none"/><line y2="-30347" y1="-30870" x2="-25792" x1="-26699" fill="none"/><line y2="-32762" y1="-32008" x2="-29394" x1="-28666" fill="none"/><line y2="-28842" y1="-29169" x2="-32190" x1="-31624" fill="none"/><line y2="-26462" y1="-27597" x2="-30108" x1="-30128" fill="none"/><line y2="-26600" y1="-27453" x2="-30281" x1="-30295" fill="none"/><line y2="-27597" y1="-28149" x2="-30128" x1="-31122" fill="none"/><line y2="-25872" y1="-26462" x2="-31084" x1="-30108" fill="none"/><line y2="-28149" y1="-27562" x2="-31122" x1="-32095" fill="none"/><line y2="-27929" y1="-27490" x2="-31156" x1="-31887" fill="none"/><line y2="-26424" y1="-25872" x2="-32078" x1="-31084" fill="none"/><line y2="-26505" y1="-26092" x2="-31873" x1="-31124" fill="none"/><line y2="-27562" y1="-26424" x2="-32095" x1="-32078" fill="none"/><line y2="-26046" y1="-26462" x2="-29388" x1="-30108" fill="none"/><line y2="-30763" y1="-30347" x2="-25072" x1="-25792" fill="none"/><line y2="-29518" y1="-30347" x2="-25722" x1="-25722" fill="none"/><line y2="-29518" y1="-30347" x2="-25861" x1="-25861" fill="none"/><text y="-30691" xml:space="preserve" x="-25038" stroke="none" font-size="433.3333" font-family="sans-serif">OH</text><text y="-29120" xml:space="preserve" x="-25945" stroke="none" font-size="433.3333" font-family="sans-serif">O</text><text y="-28467" xml:space="preserve" x="-32762" stroke="none" font-size="433.3333" font-family="sans-serif">Cl</text><text y="-25760" xml:space="preserve" x="-29354" stroke="none" font-size="433.3333" font-family="sans-serif">F</text><text y="-30697" xml:space="preserve" x="-28822" stroke="none" font-size="433.3333" font-family="sans-serif">N</text><text y="-31829" xml:space="preserve" x="-26852" stroke="none" font-size="433.3333" font-family="sans-serif">N</text><text y="-27941" xml:space="preserve" x="-28233" stroke="none" font-size="433.3333" font-family="sans-serif">N</text></g></g></svg>