<svg width="262.68" viewBox="0 0 8756 9714" text-rendering="auto" stroke-width="1" stroke-opacity="1" stroke-miterlimit="10" stroke-linejoin="miter" stroke-linecap="square" stroke-dashoffset="0" stroke-dasharray="none" stroke="black" shape-rendering="auto" image-rendering="auto" height="291.42" font-weight="normal" font-style="normal" font-size="12" font-family="'Dialog'" fill-opacity="1" fill="black" color-rendering="auto" color-interpolation="auto" xmlns="http://www.w3.org/2000/svg"><g><g stroke="white" fill="white"><rect y="0" x="0" width="8756" stroke="none" height="9714"/></g><g transform="translate(32866,32758)" text-rendering="geometricPrecision" stroke-width="44" stroke-linejoin="round" stroke-linecap="round"><line y2="-25624" y1="-26759" x2="-26936" x1="-26936" fill="none"/><line y2="-26759" y1="-27328" x2="-26936" x1="-27921" fill="none"/><line y2="-25055" y1="-25624" x2="-27921" x1="-26936" fill="none"/><line y2="-27328" y1="-26759" x2="-27921" x1="-28906" fill="none"/><line y2="-25624" y1="-25055" x2="-28906" x1="-27921" fill="none"/><line y2="-26759" y1="-25624" x2="-28906" x1="-28906" fill="none"/><line y2="-29333" y1="-27502" x2="-26031" x1="-26028" fill="none"/><line y2="-26759" y1="-27175" x2="-30720" x1="-30001" fill="none"/><line y2="-25624" y1="-25318" x2="-25121" x1="-25650" fill="none"/><line y2="-25098" y1="-25624" x2="-24214" x1="-25121" fill="none"/><line y2="-29900" y1="-29333" x2="-27014" x1="-26031" fill="none"/><line y2="-29333" y1="-29793" x2="-26031" x1="-25234" fill="none"/><line y2="-31041" y1="-29900" x2="-27014" x1="-27014" fill="none"/><line y2="-30122" y1="-31038" x2="-25046" x1="-25043" fill="none"/><line y2="-31610" y1="-31041" x2="-26031" x1="-27014" fill="none"/><line y2="-31038" y1="-31610" x2="-25043" x1="-26031" fill="none"/><line y2="-31200" y1="-31460" x2="-28576" x1="-28108" fill="none"/><line y2="-25841" y1="-26759" x2="-30720" x1="-30720" fill="none"/><line y2="-26759" y1="-27328" x2="-30720" x1="-31705" fill="none"/><line y2="-25055" y1="-25514" x2="-31705" x1="-30908" fill="none"/><line y2="-27328" y1="-26759" x2="-31705" x1="-32690" fill="none"/><line y2="-25624" y1="-25055" x2="-32690" x1="-31705" fill="none"/><line y2="-26759" y1="-25624" x2="-32690" x1="-32690" fill="none"/><line y2="-23703" y1="-24006" x2="-32231" x1="-31705" fill="none"/><polygon stroke-width="1" stroke="none" points=" -26936 -26759 -26251 -27233 -26182 -27115"/><polygon stroke-width="1" points=" -26936 -26759 -26251 -27233 -26182 -27115" fill="none"/><polygon stroke-width="1" stroke="none" points=" -28906 -26759 -29660 -27115 -29590 -27236"/><polygon stroke-width="1" points=" -28906 -26759 -29660 -27115 -29590 -27236" fill="none"/><polygon stroke-width="1" stroke="none" points=" -27014 -31041 -27574 -31283 -27505 -31405"/><polygon stroke-width="1" points=" -27014 -31041 -27574 -31283 -27505 -31405" fill="none"/><polygon stroke-width="1" stroke="none" points=" -26031 -31610 -26566 -32159 -26459 -32245"/><polygon stroke-width="1" points=" -26031 -31610 -26566 -32159 -26459 -32245" fill="none"/><polygon stroke-width="1" stroke="none" points=" -26031 -29333 -26713 -28860 -26782 -28978"/><polygon stroke-width="1" points=" -26031 -29333 -26713 -28860 -26782 -28978" fill="none"/><polygon stroke-width="1" stroke="none" points=" -31705 -27328 -31774 -28158 -31636 -28158"/><polygon stroke-width="1" points=" -31705 -27328 -31774 -28158 -31636 -28158" fill="none"/><line y2="-25147" y1="-25266" x2="-26251" x1="-26182" fill="none"/><line y2="-25271" y1="-25359" x2="-26429" x1="-26378" fill="none"/><line y2="-25395" y1="-25452" x2="-26608" x1="-26575" fill="none"/><line y2="-25520" y1="-25546" x2="-26786" x1="-26771" fill="none"/><line y2="-25378" y1="-25257" x2="-29469" x1="-29397" fill="none"/><line y2="-25465" y1="-25387" x2="-29269" x1="-29223" fill="none"/><line y2="-25553" y1="-25518" x2="-29069" x1="-29048" fill="none"/><line y2="-28158" y1="-28158" x2="-27851" x1="-27987" fill="none"/><line y2="-27941" y1="-27941" x2="-27869" x1="-27970" fill="none"/><line y2="-27725" y1="-27725" x2="-27888" x1="-27953" fill="none"/><line y2="-27508" y1="-27508" x2="-27906" x1="-27935" fill="none"/><line y2="-32367" y1="-32456" x2="-25306" x1="-25410" fill="none"/><line y2="-32210" y1="-32281" x2="-25456" x1="-25539" fill="none"/><line y2="-32054" y1="-32106" x2="-25606" x1="-25667" fill="none"/><line y2="-31897" y1="-31931" x2="-25756" x1="-25796" fill="none"/><line y2="-31740" y1="-31755" x2="-25906" x1="-25924" fill="none"/><line y2="-29654" y1="-29536" x2="-27574" x1="-27505" fill="none"/><line y2="-29742" y1="-29666" x2="-27374" x1="-27330" fill="none"/><line y2="-29829" y1="-29796" x2="-27175" x1="-27155" fill="none"/><line y2="-24006" y1="-24006" x2="-31774" x1="-31636" fill="none"/><line y2="-24223" y1="-24223" x2="-31760" x1="-31650" fill="none"/><line y2="-24439" y1="-24439" x2="-31745" x1="-31665" fill="none"/><line y2="-24656" y1="-24656" x2="-31731" x1="-31679" fill="none"/><line y2="-24873" y1="-24873" x2="-31717" x1="-31693" fill="none"/><line y2="-26283" y1="-26404" x2="-30035" x1="-29969" fill="none"/><line y2="-26407" y1="-26497" x2="-30214" x1="-30165" fill="none"/><line y2="-26532" y1="-26589" x2="-30393" x1="-30361" fill="none"/><line y2="-26656" y1="-26682" x2="-30572" x1="-30557" fill="none"/><text y="-27103" xml:space="preserve" x="-26182" stroke="none" font-size="433.3333" font-family="sans-serif">O</text><text y="-24919" xml:space="preserve" x="-26182" stroke="none" font-size="433.3333" font-family="sans-serif">NH</text><text y="-28198" xml:space="preserve" x="-28071" stroke="none" font-size="433.3333" font-family="sans-serif">OH</text><text y="-27106" xml:space="preserve" x="-29966" stroke="none" font-size="433.3333" font-family="sans-serif">O</text><text y="-24919" xml:space="preserve" x="-29966" stroke="none" font-size="433.3333" font-family="sans-serif">NH</text><text y="-24830" xml:space="preserve" x="-29388" stroke="none" font-size="313.3333" font-family="sans-serif">2</text><text y="-29198" xml:space="preserve" x="-28071" stroke="none" font-size="433.3333" font-family="sans-serif">OH</text><text y="-31384" xml:space="preserve" x="-28074" stroke="none" font-size="433.3333" font-family="sans-serif">NH</text><text y="-30801" xml:space="preserve" x="-29125" stroke="none" font-size="433.3333" font-family="sans-serif">CH</text><text y="-30711" xml:space="preserve" x="-28548" stroke="none" font-size="313.3333" font-family="sans-serif">3</text><text y="-28198" xml:space="preserve" x="-31855" stroke="none" font-size="433.3333" font-family="sans-serif">NH</text><text y="-28108" xml:space="preserve" x="-31278" stroke="none" font-size="313.3333" font-family="sans-serif">2</text><text y="-32242" xml:space="preserve" x="-26843" stroke="none" font-size="433.3333" font-family="sans-serif">OH</text><text y="-23304" xml:space="preserve" x="-32762" stroke="none" font-size="433.3333" font-family="sans-serif">NH</text><text y="-23215" xml:space="preserve" x="-32185" stroke="none" font-size="313.3333" font-family="sans-serif">2</text><text y="-29723" xml:space="preserve" x="-25196" stroke="none" font-size="433.3333" font-family="sans-serif">O</text><text y="-25445" xml:space="preserve" x="-30873" stroke="none" font-size="433.3333" font-family="sans-serif">O</text><text y="-28631" xml:space="preserve" x="-27089" stroke="none" font-size="433.3333" font-family="sans-serif">H</text><text y="-26057" xml:space="preserve" x="-29966" stroke="none" font-size="433.3333" font-family="sans-serif">H</text><text y="-26439" xml:space="preserve" x="-27337" stroke="none" font-style="italic" font-size="313.3333" font-family="sans-serif">S</text><text y="-25586" xml:space="preserve" x="-27337" stroke="none" font-style="italic" font-size="313.3333" font-family="sans-serif">R</text><text y="-26846" xml:space="preserve" x="-28071" stroke="none" font-style="italic" font-size="313.3333" font-family="sans-serif">S</text><text y="-26439" xml:space="preserve" x="-28810" stroke="none" font-style="italic" font-size="313.3333" font-family="sans-serif">R</text><text y="-25586" xml:space="preserve" x="-28810" stroke="none" font-style="italic" font-size="313.3333" font-family="sans-serif">S</text><text y="-29010" xml:space="preserve" x="-25936" stroke="none" font-style="italic" font-size="313.3333" font-family="sans-serif">R</text><text y="-29865" xml:space="preserve" x="-26915" stroke="none" font-style="italic" font-size="313.3333" font-family="sans-serif">R</text><text y="-30717" xml:space="preserve" x="-26918" stroke="none" font-style="italic" font-size="313.3333" font-family="sans-serif">R</text><text y="-31127" xml:space="preserve" x="-26184" stroke="none" font-style="italic" font-size="313.3333" font-family="sans-serif">R</text><text y="-26884" xml:space="preserve" x="-30873" stroke="none" font-style="italic" font-size="313.3333" font-family="sans-serif">R</text><text y="-26846" xml:space="preserve" x="-31855" stroke="none" font-style="italic" font-size="313.3333" font-family="sans-serif">R</text><text y="-25176" xml:space="preserve" x="-31855" stroke="none" font-style="italic" font-size="313.3333" font-family="sans-serif">S</text></g></g></svg>