<svg width="313.62" viewBox="0 0 10454 6455" text-rendering="auto" stroke-width="1" stroke-opacity="1" stroke-miterlimit="10" stroke-linejoin="miter" stroke-linecap="square" stroke-dashoffset="0" stroke-dasharray="none" stroke="black" shape-rendering="auto" image-rendering="auto" height="193.65" font-weight="normal" font-style="normal" font-size="12" font-family="'Dialog'" fill-opacity="1" fill="black" color-rendering="auto" color-interpolation="auto" xmlns="http://www.w3.org/2000/svg"><g><g stroke="white" fill="white"><rect y="0" x="0" width="10454" stroke="none" height="6455"/></g><g transform="translate(32866,32758)" text-rendering="geometricPrecision" stroke-width="44" stroke-linejoin="round" stroke-linecap="round"><line y2="-29096" y1="-28530" x2="-28773" x1="-29761" fill="none"/><line y2="-28530" y1="-27392" x2="-29761" x1="-29761" fill="none"/><line y2="-28386" y1="-27534" x2="-29590" x1="-29590" fill="none"/><line y2="-28530" y1="-29096" x2="-29761" x1="-30743" fill="none"/><line y2="-28530" y1="-29096" x2="-27791" x1="-28773" fill="none"/><line y2="-28452" y1="-28880" x2="-27999" x1="-28735" fill="none"/><line y2="-30015" y1="-29096" x2="-28773" x1="-28773" fill="none"/><line y2="-27392" y1="-26823" x2="-29761" x1="-28773" fill="none"/><line y2="-26933" y1="-27392" x2="-30555" x1="-29761" fill="none"/><line y2="-29096" y1="-28530" x2="-30743" x1="-31731" fill="none"/><line y2="-28880" y1="-28452" x2="-30784" x1="-31523" fill="none"/><line y2="-28530" y1="-29096" x2="-27791" x1="-26803" fill="none"/><line y2="-27392" y1="-28530" x2="-27791" x1="-27791" fill="none"/><line y2="-30804" y1="-30344" x2="-27791" x1="-28585" fill="none"/><line y2="-26823" y1="-27392" x2="-28773" x1="-27791" fill="none"/><line y2="-27040" y1="-27467" x2="-28735" x1="-27999" fill="none"/><line y2="-27392" y1="-26933" x2="-31731" x1="-30931" fill="none"/><line y2="-28530" y1="-27392" x2="-31731" x1="-31731" fill="none"/><line y2="-29096" y1="-30235" x2="-26803" x1="-26803" fill="none"/><line y2="-30235" y1="-30804" x2="-26803" x1="-27791" fill="none"/><line y2="-27574" y1="-27392" x2="-32762" x1="-31731" fill="none"/><line y2="-26407" y1="-27392" x2="-32089" x1="-31731" fill="none"/><line y2="-30758" y1="-30191" x2="-25896" x1="-24913" fill="none"/><line y2="-30836" y1="-30408" x2="-25688" x1="-24951" fill="none"/><line y2="-31896" y1="-30758" x2="-25896" x1="-25896" fill="none"/><line y2="-30191" y1="-30758" x2="-24913" x1="-23925" fill="none"/><line y2="-32465" y1="-31896" x2="-24913" x1="-25896" fill="none"/><line y2="-32248" y1="-31821" x2="-24951" x1="-25688" fill="none"/><line y2="-30758" y1="-31896" x2="-23925" x1="-23925" fill="none"/><line y2="-30902" y1="-31754" x2="-24096" x1="-24096" fill="none"/><line y2="-31896" y1="-32465" x2="-23925" x1="-24913" fill="none"/><line y2="-29362" y1="-30191" x2="-24913" x1="-24913" fill="none"/><line y2="-32312" y1="-31896" x2="-23206" x1="-23925" fill="none"/><polygon stroke-width="1" stroke="none" points=" -26803 -30235 -25930 -30818 -25861 -30700"/><polygon stroke-width="1" points=" -26803 -30235 -25930 -30818 -25861 -30700" fill="none"/><text y="-28964" xml:space="preserve" x="-25064" stroke-width="1" stroke="none" font-size="433.3333" font-family="sans-serif">OH</text><text y="-32242" xml:space="preserve" x="-23171" stroke-width="1" stroke="none" font-size="433.3333" font-family="sans-serif">OH</text><text y="-30056" xml:space="preserve" x="-28926" stroke-width="1" stroke="none" font-size="433.3333" font-family="sans-serif">O</text><text y="-26644" xml:space="preserve" x="-30896" stroke-width="1" stroke="none" font-size="433.3333" font-family="sans-serif">O</text></g><g transform="translate(32866,32758)" text-rendering="geometricPrecision" stroke-linejoin="round" stroke-linecap="round" font-style="italic" font-size="313.3333" font-family="sans-serif"><text y="-29911" xml:space="preserve" x="-27204" stroke="none">R</text></g></g></svg>