<svg width="233.28" viewBox="0 0 7776 3578" text-rendering="auto" stroke-width="1" stroke-opacity="1" stroke-miterlimit="10" stroke-linejoin="miter" stroke-linecap="square" stroke-dashoffset="0" stroke-dasharray="none" stroke="black" shape-rendering="auto" image-rendering="auto" height="107.34" font-weight="normal" font-style="normal" font-size="12" font-family="'Dialog'" fill-opacity="1" fill="black" color-rendering="auto" color-interpolation="auto" xmlns="http://www.w3.org/2000/svg"><g><g stroke="white" fill="white"><rect y="0" x="0" width="7776" stroke="none" height="3578"/></g><g transform="translate(32866,32758)" text-rendering="geometricPrecision" stroke-width="44" stroke-linejoin="round" stroke-linecap="round"><line y2="-30992" y1="-31408" x2="-28071" x1="-28790" fill="none"/><line y2="-30992" y1="-31408" x2="-29885" x1="-29166" fill="none"/><line y2="-32167" y1="-31699" x2="-29434" x1="-29166" fill="none"/><line y2="-32240" y1="-31769" x2="-29313" x1="-29044" fill="none"/><line y2="-32240" y1="-31769" x2="-28643" x1="-28912" fill="none"/><line y2="-32167" y1="-31699" x2="-28522" x1="-28790" fill="none"/><line y2="-30992" y1="-29853" x2="-28071" x1="-28071" fill="none"/><line y2="-30850" y1="-29998" x2="-27900" x1="-27900" fill="none"/><line y2="-31561" y1="-30992" x2="-27083" x1="-28071" fill="none"/><line y2="-29853" y1="-29284" x2="-28071" x1="-27083" fill="none"/><line y2="-30992" y1="-31561" x2="-26101" x1="-27083" fill="none"/><line y2="-30916" y1="-31344" x2="-26309" x1="-27045" fill="none"/><line y2="-29284" y1="-29853" x2="-27083" x1="-26101" fill="none"/><line y2="-29504" y1="-29931" x2="-27045" x1="-26309" fill="none"/><line y2="-29853" y1="-30992" x2="-26101" x1="-26101" fill="none"/><line y2="-29330" y1="-29853" x2="-25194" x1="-26101" fill="none"/><line y2="-29853" y1="-30992" x2="-29885" x1="-29885" fill="none"/><line y2="-29998" y1="-30850" x2="-30056" x1="-30056" fill="none"/><line y2="-30992" y1="-31561" x2="-29885" x1="-30873" fill="none"/><line y2="-29284" y1="-29853" x2="-30873" x1="-29885" fill="none"/><line y2="-31561" y1="-30992" x2="-30873" x1="-31855" fill="none"/><line y2="-31344" y1="-30916" x2="-30911" x1="-31647" fill="none"/><line y2="-29853" y1="-29284" x2="-31855" x1="-30873" fill="none"/><line y2="-29931" y1="-29504" x2="-31647" x1="-30911" fill="none"/><line y2="-30992" y1="-29853" x2="-31855" x1="-31855" fill="none"/><line y2="-29330" y1="-29853" x2="-32762" x1="-31855" fill="none"/><text y="-31335" xml:space="preserve" x="-29131" stroke="none" font-size="433.3333" font-family="sans-serif">S</text><text y="-32242" xml:space="preserve" x="-29654" stroke="none" font-size="433.3333" font-family="sans-serif">O</text><text y="-32242" xml:space="preserve" x="-28605" stroke="none" font-size="433.3333" font-family="sans-serif">O</text></g></g></svg>