<svg width="156.36" viewBox="0 0 5212 4665" text-rendering="auto" stroke-width="1" stroke-opacity="1" stroke-miterlimit="10" stroke-linejoin="miter" stroke-linecap="square" stroke-dashoffset="0" stroke-dasharray="none" stroke="black" shape-rendering="auto" image-rendering="auto" height="139.95" font-weight="normal" font-style="normal" font-size="12" font-family="'Dialog'" fill-opacity="1" fill="black" color-rendering="auto" color-interpolation="auto" xmlns="http://www.w3.org/2000/svg"><g><g stroke="white" fill="white"><rect y="0" x="0" width="5212" stroke="none" height="4665"/></g><g transform="translate(32866,32866)" text-rendering="geometricPrecision" stroke-width="44" stroke-linejoin="round" stroke-linecap="round"><line y2="-29440" y1="-30009" x2="-30636" x1="-29654" fill="none"/><line y2="-30009" y1="-30928" x2="-29654" x1="-29654" fill="none"/><line y2="-30122" y1="-30812" x2="-29824" x1="-29824" fill="none"/><line y2="-30009" y1="-29440" x2="-31624" x1="-30636" fill="none"/><line y2="-30084" y1="-29660" x2="-31416" x1="-30677" fill="none"/><line y2="-31254" y1="-31714" x2="-29842" x1="-30636" fill="none"/><line y2="-30928" y1="-30009" x2="-31624" x1="-31624" fill="none"/><line y2="-31714" y1="-31254" x2="-30636" x1="-31436" fill="none"/><line y2="-31509" y1="-31165" x2="-30654" x1="-31252" fill="none"/><line y2="-29484" y1="-30009" x2="-28747" x1="-29654" fill="none"/><line y2="-32762" y1="-31714" x2="-30636" x1="-30636" fill="none"/><line y2="-29683" y1="-30009" x2="-32190" x1="-31624" fill="none"/><line y2="-29900" y1="-29484" x2="-28028" x1="-28747" fill="none"/><line y2="-28796" y1="-29484" x2="-28348" x1="-28747" fill="none"/><line y2="-28796" y1="-29484" x2="-29143" x1="-28747" fill="none"/><text y="-29830" xml:space="preserve" x="-27990" stroke="none" font-size="433.3333" font-family="sans-serif">F</text><text y="-28397" xml:space="preserve" x="-28374" stroke="none" font-size="433.3333" font-family="sans-serif">F</text><text y="-28397" xml:space="preserve" x="-29423" stroke="none" font-size="433.3333" font-family="sans-serif">F</text><text y="-29304" xml:space="preserve" x="-32762" stroke="none" font-size="433.3333" font-family="sans-serif">Cl</text><text y="-30966" xml:space="preserve" x="-29807" stroke="none" font-size="433.3333" font-family="sans-serif">N</text><text y="-30966" xml:space="preserve" x="-31777" stroke="none" font-size="433.3333" font-family="sans-serif">N</text></g></g></svg>