<svg width="192.69" viewBox="0 0 6423 3944" text-rendering="auto" stroke-width="1" stroke-opacity="1" stroke-miterlimit="10" stroke-linejoin="miter" stroke-linecap="square" stroke-dashoffset="0" stroke-dasharray="none" stroke="black" shape-rendering="auto" image-rendering="auto" height="118.32" font-weight="normal" font-style="normal" font-size="12" font-family="'Dialog'" fill-opacity="1" fill="black" color-rendering="auto" color-interpolation="auto" xmlns="http://www.w3.org/2000/svg"><g><g stroke="white" fill="white"><rect y="0" x="0" width="6423" stroke="none" height="3944"/></g><g transform="translate(32866,32758)" text-rendering="geometricPrecision" stroke-width="44" stroke-linejoin="round" stroke-linecap="round"><line y2="-30850" y1="-29715" x2="-29608" x1="-29608" fill="none"/><line y2="-31419" y1="-30850" x2="-28623" x1="-29608" fill="none"/><line y2="-31202" y1="-30775" x2="-28660" x1="-29400" fill="none"/><line y2="-29715" y1="-29146" x2="-29608" x1="-28623" fill="none"/><line y2="-29790" y1="-29362" x2="-29400" x1="-28660" fill="none"/><line y2="-30960" y1="-31419" x2="-27825" x1="-28623" fill="none"/><line y2="-29146" y1="-29715" x2="-28623" x1="-27638" fill="none"/><line y2="-29715" y1="-30630" x2="-27638" x1="-27638" fill="none"/><line y2="-31376" y1="-30850" x2="-30515" x1="-29608" fill="none"/><line y2="-29359" y1="-29775" x2="-26884" x1="-27603" fill="none"/><line y2="-29238" y1="-29654" x2="-26953" x1="-27672" fill="none"/><line y2="-30960" y1="-31376" x2="-31234" x1="-30515" fill="none"/><line y2="-31208" y1="-30960" x2="-32040" x1="-31610" fill="none"/><line y2="-32202" y1="-31376" x2="-30587" x1="-30587" fill="none"/><line y2="-32202" y1="-31376" x2="-30446" x1="-30446" fill="none"/><text y="-30671" xml:space="preserve" x="-31575" stroke="none" font-size="433.3333" font-family="sans-serif">O</text><text y="-32242" xml:space="preserve" x="-30668" stroke="none" font-size="433.3333" font-family="sans-serif">O</text><text y="-31358" xml:space="preserve" x="-32762" stroke="none" font-size="433.3333" font-family="sans-serif">CH</text><text y="-31269" xml:space="preserve" x="-32185" stroke="none" font-size="313.3333" font-family="sans-serif">3</text><text y="-29010" xml:space="preserve" x="-26884" stroke="none" font-size="433.3333" font-family="sans-serif">O</text><text y="-30671" xml:space="preserve" x="-27791" stroke="none" font-size="433.3333" font-family="sans-serif">O</text></g></g></svg>