<svg width="373.65" viewBox="0 0 12455 3832" text-rendering="auto" stroke-width="1" stroke-opacity="1" stroke-miterlimit="10" stroke-linejoin="miter" stroke-linecap="square" stroke-dashoffset="0" stroke-dasharray="none" stroke="black" shape-rendering="auto" image-rendering="auto" height="114.96" font-weight="normal" font-style="normal" font-size="12" font-family="'Dialog'" fill-opacity="1" fill="black" color-rendering="auto" color-interpolation="auto" xmlns="http://www.w3.org/2000/svg"><g><g stroke="white" fill="white"><rect y="0" x="0" width="12455" stroke="none" height="3832"/></g><g transform="translate(32866,32758)" text-rendering="geometricPrecision" stroke-width="44" stroke-linejoin="round" stroke-linecap="round"><line y2="-29637" y1="-30850" x2="-26872" x1="-26872" fill="none"/><line y2="-30850" y1="-31457" x2="-26872" x1="-27924" fill="none"/><line y2="-30781" y1="-31234" x2="-27089" x1="-27877" fill="none"/><line y2="-31350" y1="-30850" x2="-26005" x1="-26872" fill="none"/><line y2="-29637" y1="-29637" x2="-26872" x1="-24957" fill="none"/><line y2="-29030" y1="-29637" x2="-27924" x1="-26872" fill="none"/><line y2="-29252" y1="-29706" x2="-27877" x1="-27089" fill="none"/><line y2="-31457" y1="-30850" x2="-27924" x1="-28978" fill="none"/><line y2="-30850" y1="-31240" x2="-24769" x1="-25439" fill="none"/><line y2="-29856" y1="-30850" x2="-24769" x1="-24769" fill="none"/><line y2="-29980" y1="-30726" x2="-24936" x1="-24936" fill="none"/><line y2="-29637" y1="-29030" x2="-28978" x1="-27924" fill="none"/><line y2="-30850" y1="-29637" x2="-28978" x1="-28978" fill="none"/><line y2="-30700" y1="-29790" x2="-28808" x1="-28808" fill="none"/><line y2="-31376" y1="-30850" x2="-29885" x1="-28978" fill="none"/><line y2="-31266" y1="-30850" x2="-24050" x1="-24769" fill="none"/><line y2="-30850" y1="-31156" x2="-22952" x1="-23480" fill="none"/><line y2="-30850" y1="-31376" x2="-30792" x1="-29885" fill="none"/><line y2="-32202" y1="-31376" x2="-29885" x1="-29885" fill="none"/><line y2="-31266" y1="-30850" x2="-22235" x1="-22952" fill="none"/><line y2="-30960" y1="-31266" x2="-21328" x1="-21857" fill="none"/><line y2="-30024" y1="-30850" x2="-22882" x1="-22882" fill="none"/><line y2="-30024" y1="-30850" x2="-23024" x1="-23024" fill="none"/><line y2="-30850" y1="-31419" x2="-30792" x1="-31774" fill="none"/><line y2="-30775" y1="-31202" x2="-31000" x1="-31737" fill="none"/><line y2="-29715" y1="-30850" x2="-30792" x1="-30792" fill="none"/><line y2="-31419" y1="-30850" x2="-31774" x1="-32762" fill="none"/><line y2="-29146" y1="-29715" x2="-31774" x1="-30792" fill="none"/><line y2="-29362" y1="-29790" x2="-31737" x1="-31000" fill="none"/><line y2="-30850" y1="-29715" x2="-32762" x1="-32762" fill="none"/><line y2="-30708" y1="-29856" x2="-32592" x1="-32592" fill="none"/><line y2="-29715" y1="-29146" x2="-32762" x1="-31774" fill="none"/><text y="-32242" xml:space="preserve" x="-30038" stroke="none" font-size="433.3333" font-family="sans-serif">OH</text><text y="-31197" xml:space="preserve" x="-24012" stroke="none" font-size="433.3333" font-family="sans-serif">NH</text><text y="-31197" xml:space="preserve" x="-22198" stroke="none" font-size="433.3333" font-family="sans-serif">O</text><text y="-29625" xml:space="preserve" x="-23105" stroke="none" font-size="433.3333" font-family="sans-serif">O</text><text y="-30671" xml:space="preserve" x="-21291" stroke="none" font-size="433.3333" font-family="sans-serif">CH</text><text y="-30581" xml:space="preserve" x="-20713" stroke="none" font-size="313.3333" font-family="sans-serif">3</text><text y="-31278" xml:space="preserve" x="-25971" stroke="none" font-size="433.3333" font-family="sans-serif">NH</text><text y="-29458" xml:space="preserve" x="-24919" stroke="none" font-size="433.3333" font-family="sans-serif">N</text></g></g></svg>