<svg width="142.29" viewBox="0 0 4743 3855" text-rendering="auto" stroke-width="1" stroke-opacity="1" stroke-miterlimit="10" stroke-linejoin="miter" stroke-linecap="square" stroke-dashoffset="0" stroke-dasharray="none" stroke="black" shape-rendering="auto" image-rendering="auto" height="115.65" font-weight="normal" font-style="normal" font-size="12" font-family="'Dialog'" fill-opacity="1" fill="black" color-rendering="auto" color-interpolation="auto" xmlns="http://www.w3.org/2000/svg"><g><g stroke="white" fill="white"><rect y="0" x="0" width="4743" stroke="none" height="3855"/></g><g transform="translate(32866,32758)" text-rendering="geometricPrecision" stroke-width="44" stroke-linejoin="round" stroke-linecap="round"><line y2="-31376" y1="-30850" x2="-30041" x1="-30948" fill="none"/><line y2="-31376" y1="-30850" x2="-31855" x1="-30948" fill="none"/><line y2="-29804" y1="-30850" x2="-30948" x1="-30948" fill="none"/><line y2="-30850" y1="-31376" x2="-29134" x1="-30041" fill="none"/><line y2="-32202" y1="-31376" x2="-30110" x1="-30110" fill="none"/><line y2="-32202" y1="-31376" x2="-29972" x1="-29972" fill="none"/><line y2="-30850" y1="-31376" x2="-32762" x1="-31855" fill="none"/><line y2="-32202" y1="-31376" x2="-31925" x1="-31925" fill="none"/><line y2="-32202" y1="-31376" x2="-31786" x1="-31786" fill="none"/><line y2="-29388" y1="-29804" x2="-30229" x1="-30948" fill="none"/><line y2="-29804" y1="-29388" x2="-29134" x1="-29853" fill="none"/><line y2="-29278" y1="-29804" x2="-28227" x1="-29134" fill="none"/><line y2="-29328" y1="-29744" x2="-31633" x1="-30914" fill="none"/><line y2="-29449" y1="-29865" x2="-31702" x1="-30983" fill="none"/><text y="-29099" xml:space="preserve" x="-30194" stroke="none" font-size="433.3333" font-family="sans-serif">O</text><text y="-29099" xml:space="preserve" x="-32008" stroke="none" font-size="433.3333" font-family="sans-serif">O</text><text y="-32242" xml:space="preserve" x="-30194" stroke="none" font-size="433.3333" font-family="sans-serif">O</text><text y="-32242" xml:space="preserve" x="-32008" stroke="none" font-size="433.3333" font-family="sans-serif">O</text></g></g></svg>