<svg width="233.28" viewBox="0 0 7776 5513" text-rendering="auto" stroke-width="1" stroke-opacity="1" stroke-miterlimit="10" stroke-linejoin="miter" stroke-linecap="square" stroke-dashoffset="0" stroke-dasharray="none" stroke="black" shape-rendering="auto" image-rendering="auto" height="165.39" font-weight="normal" font-style="normal" font-size="12" font-family="'Dialog'" fill-opacity="1" fill="black" color-rendering="auto" color-interpolation="auto" xmlns="http://www.w3.org/2000/svg"><g><g stroke="white" fill="white"><rect y="0" x="0" width="7776" stroke="none" height="5513"/></g><g transform="translate(32866,32758)" text-rendering="geometricPrecision" stroke-width="44" stroke-linejoin="round" stroke-linecap="round"><line y2="-29192" y1="-29192" x2="-30792" x1="-28822" fill="none"/><line y2="-29192" y1="-30327" x2="-28822" x1="-28822" fill="none"/><line y2="-29333" y1="-30186" x2="-28992" x1="-28992" fill="none"/><line y2="-29192" y1="-30327" x2="-30792" x1="-30792" fill="none"/><line y2="-29333" y1="-30186" x2="-30963" x1="-30963" fill="none"/><line y2="-28623" y1="-29192" x2="-31777" x1="-30792" fill="none"/><line y2="-30327" y1="-30789" x2="-28822" x1="-29616" fill="none"/><line y2="-30789" y1="-30327" x2="-29995" x1="-30792" fill="none"/><line y2="-30327" y1="-30896" x2="-30792" x1="-31777" fill="none"/><line y2="-29192" y1="-28623" x2="-32762" x1="-31777" fill="none"/><line y2="-30896" y1="-30327" x2="-31777" x1="-32762" fill="none"/><line y2="-30327" y1="-29192" x2="-32762" x1="-32762" fill="none"/><line y2="-28666" y1="-29192" x2="-27915" x1="-28822" fill="none"/><line y2="-30743" y1="-30327" x2="-28103" x1="-28822" fill="none"/><line y2="-31899" y1="-31070" x2="-27915" x1="-27915" fill="none"/><line y2="-29082" y1="-28666" x2="-27196" x1="-27915" fill="none"/><line y2="-28666" y1="-29082" x2="-26101" x1="-26820" fill="none"/><line y2="-29192" y1="-28666" x2="-25194" x1="-26101" fill="none"/><line y2="-27837" y1="-28666" x2="-27846" x1="-27846" fill="none"/><line y2="-27837" y1="-28666" x2="-27984" x1="-27984" fill="none"/><line y2="-32422" y1="-31899" x2="-27008" x1="-27915" fill="none"/><line y2="-32095" y1="-32422" x2="-26442" x1="-27008" fill="none"/><line y2="-32254" y1="-31838" x2="-28669" x1="-27950" fill="none"/><line y2="-32375" y1="-31959" x2="-28600" x1="-27880" fill="none"/><text y="-29013" xml:space="preserve" x="-27161" stroke="none" font-size="433.3333" font-family="sans-serif">O</text><text y="-27441" xml:space="preserve" x="-28068" stroke="none" font-size="433.3333" font-family="sans-serif">O</text><text y="-30671" xml:space="preserve" x="-28068" stroke="none" font-size="433.3333" font-family="sans-serif">NH</text><text y="-32242" xml:space="preserve" x="-28975" stroke="none" font-size="433.3333" font-family="sans-serif">O</text><text y="-31720" xml:space="preserve" x="-26332" stroke="none" font-size="433.3333" font-family="sans-serif">Cl</text><text y="-30717" xml:space="preserve" x="-29957" stroke="none" font-size="433.3333" font-family="sans-serif">S</text></g></g></svg>