<svg width="166.2" viewBox="0 0 5540 2806" text-rendering="auto" stroke-width="1" stroke-opacity="1" stroke-miterlimit="10" stroke-linejoin="miter" stroke-linecap="square" stroke-dashoffset="0" stroke-dasharray="none" stroke="black" shape-rendering="auto" image-rendering="auto" height="84.18" font-weight="normal" font-style="normal" font-size="12" font-family="'Dialog'" fill-opacity="1" fill="black" color-rendering="auto" color-interpolation="auto" xmlns="http://www.w3.org/2000/svg"><g><g stroke="white" fill="white"><rect y="0" x="0" width="5540" stroke="none" height="2806"/></g><g transform="translate(32866,32758)" text-rendering="geometricPrecision" stroke-width="44" stroke-linejoin="round" stroke-linecap="round"><line y2="-30850" y1="-30850" x2="-29746" x1="-30795" fill="none"/><line y2="-30711" y1="-30711" x2="-29879" x1="-30665" fill="none"/><line y2="-31373" y1="-30850" x2="-31702" x1="-30795" fill="none"/><line y2="-30524" y1="-30850" x2="-31361" x1="-30795" fill="none"/><line y2="-31376" y1="-30850" x2="-28839" x1="-29746" fill="none"/><line y2="-30524" y1="-30850" x2="-29180" x1="-29746" fill="none"/><line y2="-32202" y1="-31373" x2="-31702" x1="-31702" fill="none"/><line y2="-30896" y1="-31312" x2="-32387" x1="-31668" fill="none"/><line y2="-31020" y1="-31434" x2="-32456" x1="-31737" fill="none"/><line y2="-30960" y1="-31376" x2="-28120" x1="-28839" fill="none"/><line y2="-32202" y1="-31376" x2="-28912" x1="-28912" fill="none"/><line y2="-32202" y1="-31376" x2="-28770" x1="-28770" fill="none"/><text y="-30148" xml:space="preserve" x="-29070" stroke="none" font-size="433.3333" font-family="sans-serif">Br</text><text y="-30148" xml:space="preserve" x="-31933" stroke="none" font-size="433.3333" font-family="sans-serif">Br</text><text y="-30671" xml:space="preserve" x="-28085" stroke="none" font-size="433.3333" font-family="sans-serif">OH</text><text y="-32242" xml:space="preserve" x="-28992" stroke="none" font-size="433.3333" font-family="sans-serif">O</text><text y="-32242" xml:space="preserve" x="-31855" stroke="none" font-size="433.3333" font-family="sans-serif">OH</text><text y="-30671" xml:space="preserve" x="-32762" stroke="none" font-size="433.3333" font-family="sans-serif">O</text><text y="-31067" xml:space="preserve" x="-30422" stroke="none" font-style="italic" font-size="313.3333" font-family="sans-serif">Z</text></g></g></svg>