<svg width="241.35" viewBox="0 0 8045 3869" text-rendering="auto" stroke-width="1" stroke-opacity="1" stroke-miterlimit="10" stroke-linejoin="miter" stroke-linecap="square" stroke-dashoffset="0" stroke-dasharray="none" stroke="black" shape-rendering="auto" image-rendering="auto" height="116.07" font-weight="normal" font-style="normal" font-size="12" font-family="'Dialog'" fill-opacity="1" fill="black" color-rendering="auto" color-interpolation="auto" xmlns="http://www.w3.org/2000/svg"><g><g stroke="white" fill="white"><rect y="0" x="0" width="8045" stroke="none" height="3869"/></g><g transform="translate(32866,32758)" text-rendering="geometricPrecision" stroke-width="44" stroke-linejoin="round" stroke-linecap="round"><line y2="-30327" y1="-30879" x2="-29460" x1="-30174" fill="none"/><line y2="-29264" y1="-30327" x2="-29827" x1="-29460" fill="none"/><line y2="-29452" y1="-30249" x2="-29943" x1="-29668" fill="none"/><line y2="-30885" y1="-30327" x2="-30550" x1="-31304" fill="none"/><line y2="-30677" y1="-30261" x2="-30541" x1="-31107" fill="none"/><line y2="-29264" y1="-29264" x2="-30786" x1="-29827" fill="none"/><line y2="-30327" y1="-29484" x2="-31304" x1="-31044" fill="none"/><line y2="-30850" y1="-30327" x2="-28553" x1="-29460" fill="none"/><line y2="-30492" y1="-30327" x2="-31812" x1="-31304" fill="none"/><line y2="-30327" y1="-30850" x2="-27646" x1="-28553" fill="none"/><line y2="-31679" y1="-30850" x2="-28623" x1="-28623" fill="none"/><line y2="-31679" y1="-30850" x2="-28484" x1="-28484" fill="none"/><line y2="-32315" y1="-32008" x2="-27834" x1="-28366" fill="none"/><line y2="-30743" y1="-30327" x2="-26927" x1="-27646" fill="none"/><line y2="-30327" y1="-30743" x2="-25832" x1="-26551" fill="none"/><line y2="-30850" y1="-30327" x2="-24925" x1="-25832" fill="none"/><line y2="-29498" y1="-30327" x2="-27577" x1="-27577" fill="none"/><line y2="-29498" y1="-30327" x2="-27716" x1="-27716" fill="none"/><text y="-31720" xml:space="preserve" x="-28706" stroke="none" font-size="433.3333" font-family="sans-serif">N</text><text y="-30671" xml:space="preserve" x="-26892" stroke="none" font-size="433.3333" font-family="sans-serif">O</text><text y="-29099" xml:space="preserve" x="-27799" stroke="none" font-size="433.3333" font-family="sans-serif">O</text><text y="-32242" xml:space="preserve" x="-27799" stroke="none" font-size="433.3333" font-family="sans-serif">OH</text><text y="-30573" xml:space="preserve" x="-32762" stroke="none" font-size="433.3333" font-family="sans-serif">NH</text><text y="-30483" xml:space="preserve" x="-32185" stroke="none" font-size="313.3333" font-family="sans-serif">2</text><text y="-30844" xml:space="preserve" x="-30512" stroke="none" font-size="433.3333" font-family="sans-serif">N</text><text y="-29085" xml:space="preserve" x="-31127" stroke="none" font-size="433.3333" font-family="sans-serif">S</text></g></g></svg>