<svg width="259.5" viewBox="0 0 8650 3716" text-rendering="auto" stroke-width="1" stroke-opacity="1" stroke-miterlimit="10" stroke-linejoin="miter" stroke-linecap="square" stroke-dashoffset="0" stroke-dasharray="none" stroke="black" shape-rendering="auto" image-rendering="auto" height="111.48" font-weight="normal" font-style="normal" font-size="12" font-family="'Dialog'" fill-opacity="1" fill="black" color-rendering="auto" color-interpolation="auto" xmlns="http://www.w3.org/2000/svg"><g><g stroke="white" fill="white"><rect y="0" x="0" width="8650" stroke="none" height="3716"/></g><g transform="translate(32866,32758)" text-rendering="geometricPrecision" stroke-width="44" stroke-linejoin="round" stroke-linecap="round"><line y2="-30850" y1="-31376" x2="-27820" x1="-28727" fill="none"/><line y2="-30850" y1="-31376" x2="-29634" x1="-28727" fill="none"/><line y2="-32202" y1="-31376" x2="-28799" x1="-28799" fill="none"/><line y2="-32202" y1="-31376" x2="-28657" x1="-28657" fill="none"/><line y2="-31419" y1="-30850" x2="-26834" x1="-27820" fill="none"/><line y2="-31202" y1="-30775" x2="-26872" x1="-27612" fill="none"/><line y2="-30850" y1="-29715" x2="-27820" x1="-27820" fill="none"/><line y2="-30850" y1="-31419" x2="-25849" x1="-26834" fill="none"/><line y2="-29715" y1="-29146" x2="-27820" x1="-26834" fill="none"/><line y2="-29790" y1="-29362" x2="-27612" x1="-26872" fill="none"/><line y2="-29715" y1="-30850" x2="-25849" x1="-25849" fill="none"/><line y2="-29856" y1="-30708" x2="-26020" x1="-26020" fill="none"/><line y2="-29146" y1="-29715" x2="-26834" x1="-25849" fill="none"/><line y2="-31266" y1="-30850" x2="-25130" x1="-25849" fill="none"/><line y2="-30850" y1="-31419" x2="-29634" x1="-30622" fill="none"/><line y2="-30775" y1="-31202" x2="-29845" x1="-30584" fill="none"/><line y2="-29715" y1="-30850" x2="-29634" x1="-29634" fill="none"/><line y2="-31419" y1="-30850" x2="-30622" x1="-31604" fill="none"/><line y2="-29146" y1="-29715" x2="-30622" x1="-29634" fill="none"/><line y2="-29362" y1="-29790" x2="-30584" x1="-29845" fill="none"/><line y2="-30850" y1="-29715" x2="-31604" x1="-31604" fill="none"/><line y2="-30708" y1="-29856" x2="-31436" x1="-31436" fill="none"/><line y2="-29715" y1="-29146" x2="-31604" x1="-30622" fill="none"/><line y2="-31101" y1="-30850" x2="-32040" x1="-31604" fill="none"/><text y="-32242" xml:space="preserve" x="-28880" stroke="none" font-size="433.3333" font-family="sans-serif">O</text><text y="-31197" xml:space="preserve" x="-25095" stroke="none" font-size="433.3333" font-family="sans-serif">NH</text><text y="-31107" xml:space="preserve" x="-24518" stroke="none" font-size="313.3333" font-family="sans-serif">2</text><text y="-31252" xml:space="preserve" x="-32762" stroke="none" font-size="433.3333" font-family="sans-serif">NH</text><text y="-31162" xml:space="preserve" x="-32185" stroke="none" font-size="313.3333" font-family="sans-serif">2</text></g></g></svg>