<svg width="414.75" viewBox="0 0 13825 7590" text-rendering="auto" stroke-width="1" stroke-opacity="1" stroke-miterlimit="10" stroke-linejoin="miter" stroke-linecap="square" stroke-dashoffset="0" stroke-dasharray="none" stroke="black" shape-rendering="auto" image-rendering="auto" height="227.7" font-weight="normal" font-style="normal" font-size="12" font-family="'Dialog'" fill-opacity="1" fill="black" color-rendering="auto" color-interpolation="auto" xmlns="http://www.w3.org/2000/svg"><g><g stroke="white" fill="white"><rect y="0" x="0" width="13825" stroke="none" height="7590"/></g><g transform="translate(32866,32758)" text-rendering="geometricPrecision" stroke-width="44" stroke-linejoin="round" stroke-linecap="round"><line y2="-27115" y1="-28033" x2="-26026" x1="-26026" fill="none"/><line y2="-28822" y1="-28363" x2="-25040" x1="-25838" fill="none"/><line y2="-28253" y1="-28253" x2="-26213" x1="-27164" fill="none"/><line y2="-27115" y1="-27115" x2="-27164" x1="-26026" fill="none"/><line y2="-27115" y1="-26655" x2="-26026" x1="-25228" fill="none"/><line y2="-28253" y1="-28822" x2="-24055" x1="-25040" fill="none"/><line y2="-28178" y1="-28605" x2="-24263" x1="-25003" fill="none"/><line y2="-28253" y1="-27115" x2="-27164" x1="-27164" fill="none"/><line y2="-26655" y1="-27115" x2="-24850" x1="-24055" fill="none"/><line y2="-27115" y1="-28253" x2="-24055" x1="-24055" fill="none"/><line y2="-28776" y1="-28253" x2="-23148" x1="-24055" fill="none"/><line y2="-28363" y1="-28776" x2="-22429" x1="-23148" fill="none"/><line y2="-28776" y1="-28363" x2="-21334" x1="-22053" fill="none"/><line y2="-27115" y1="-26699" x2="-28978" x1="-28259" fill="none"/><line y2="-29871" y1="-28822" x2="-25040" x1="-25040" fill="none"/><line y2="-28756" y1="-28204" x2="-27765" x1="-27213" fill="none"/><line y2="-28854" y1="-28302" x2="-27666" x1="-27115" fill="none"/><line y2="-29726" y1="-28776" x2="-21008" x1="-21334" fill="none"/><line y2="-28776" y1="-28158" x2="-21334" x1="-20534" fill="none"/><line y2="-28834" y1="-28368" x2="-21129" x1="-20531" fill="none"/><line y2="-29946" y1="-29946" x2="-19861" x1="-20742" fill="none"/><line y2="-28152" y1="-28637" x2="-20158" x1="-19500" fill="none"/><line y2="-28995" y1="-29726" x2="-19378" x1="-19604" fill="none"/><line y2="-29039" y1="-29585" x2="-19569" x1="-19739" fill="none"/><line y2="-30469" y1="-30053" x2="-21837" x1="-21117" fill="none"/><line y2="-31295" y1="-30469" x2="-21837" x1="-21837" fill="none"/><line y2="-26592" y1="-27115" x2="-29885" x1="-28978" fill="none"/><line y2="-27944" y1="-27115" x2="-29047" x1="-29047" fill="none"/><line y2="-27944" y1="-27115" x2="-28909" x1="-28909" fill="none"/><line y2="-30174" y1="-29871" x2="-25566" x1="-25040" fill="none"/><line y2="-30344" y1="-29931" x2="-24356" x1="-25075" fill="none"/><line y2="-30223" y1="-29807" x2="-24286" x1="-25006" fill="none"/><line y2="-31919" y1="-31618" x2="-21109" x1="-21649" fill="none"/><line y2="-32167" y1="-31699" x2="-22296" x1="-22024" fill="none"/><line y2="-32240" y1="-31769" x2="-22175" x1="-21903" fill="none"/><line y2="-31445" y1="-31445" x2="-22698" x1="-22024" fill="none"/><line y2="-31587" y1="-31587" x2="-22698" x1="-22024" fill="none"/><line y2="-27115" y1="-26592" x2="-30792" x1="-29885" fill="none"/><line y2="-27115" y1="-28253" x2="-30792" x1="-30792" fill="none"/><line y2="-27259" y1="-28111" x2="-30963" x1="-30963" fill="none"/><line y2="-26546" y1="-27115" x2="-31774" x1="-30792" fill="none"/><line y2="-28253" y1="-28822" x2="-30792" x1="-31774" fill="none"/><line y2="-27115" y1="-26546" x2="-32762" x1="-31774" fill="none"/><line y2="-27193" y1="-26765" x2="-32554" x1="-31815" fill="none"/><line y2="-28822" y1="-28253" x2="-31774" x1="-32762" fill="none"/><line y2="-28602" y1="-28175" x2="-31815" x1="-32554" fill="none"/><line y2="-28253" y1="-27115" x2="-32762" x1="-32762" fill="none"/><polygon stroke-width="1" stroke="none" points=" -26026 -27115 -25956 -26288 -26095 -26286"/><polygon stroke-width="1" points=" -26026 -27115 -25956 -26288 -26095 -26286" fill="none"/><line y2="-26869" y1="-26751" x2="-27727" x1="-27655" fill="none"/><line y2="-26957" y1="-26881" x2="-27527" x1="-27480" fill="none"/><line y2="-27044" y1="-27010" x2="-27326" x1="-27306" fill="none"/><line y2="-25763" y1="-25763" x2="-29954" x1="-29816" fill="none"/><line y2="-25980" y1="-25980" x2="-29936" x1="-29834" fill="none"/><line y2="-26196" y1="-26196" x2="-29918" x1="-29852" fill="none"/><line y2="-26413" y1="-26413" x2="-29900" x1="-29870" fill="none"/><text y="-30214" xml:space="preserve" x="-26098" stroke="none" font-size="433.3333" font-family="sans-serif">OH</text><text y="-30214" xml:space="preserve" x="-24284" stroke="none" font-size="433.3333" font-family="sans-serif">O</text><text y="-28813" xml:space="preserve" x="-28056" stroke="none" font-size="433.3333" font-family="sans-serif">O</text><text y="-26413" xml:space="preserve" x="-28224" stroke="none" font-size="433.3333" font-family="sans-serif">NH</text><text y="-27984" xml:space="preserve" x="-29131" stroke="none" font-size="433.3333" font-family="sans-serif">O</text><text y="-25364" xml:space="preserve" x="-30038" stroke="none" font-size="433.3333" font-family="sans-serif">OH</text><text y="-28074" xml:space="preserve" x="-22394" stroke="none" font-size="433.3333" font-family="sans-serif">S</text><text y="-31335" xml:space="preserve" x="-21990" stroke="none" font-size="433.3333" font-family="sans-serif">S</text><text y="-32242" xml:space="preserve" x="-22513" stroke="none" font-size="433.3333" font-family="sans-serif">O</text><text y="-31335" xml:space="preserve" x="-23038" stroke="none" font-size="433.3333" font-family="sans-serif">O</text><text y="-31844" xml:space="preserve" x="-21074" stroke="none" font-size="433.3333" font-family="sans-serif">OH</text><text y="-28074" xml:space="preserve" x="-26179" stroke="none" font-size="433.3333" font-family="sans-serif">N</text><text y="-26366" xml:space="preserve" x="-25191" stroke="none" font-size="433.3333" font-family="sans-serif">S</text><text y="-29767" xml:space="preserve" x="-21083" stroke="none" font-size="433.3333" font-family="sans-serif">N</text><text y="-27834" xml:space="preserve" x="-20499" stroke="none" font-size="433.3333" font-family="sans-serif">N</text><text y="-29767" xml:space="preserve" x="-19823" stroke="none" font-size="433.3333" font-family="sans-serif">N</text><text y="-28597" xml:space="preserve" x="-19465" stroke="none" font-size="433.3333" font-family="sans-serif">N</text><text y="-25890" xml:space="preserve" x="-26179" stroke="none" font-size="433.3333" font-family="sans-serif">H</text><text y="-26716" xml:space="preserve" x="-30038" stroke="none" font-style="italic" font-size="313.3333" font-family="sans-serif">R</text><text y="-27080" xml:space="preserve" x="-25930" stroke="none" font-style="italic" font-size="313.3333" font-family="sans-serif">R</text><text y="-27213" xml:space="preserve" x="-27071" stroke="none" font-style="italic" font-size="313.3333" font-family="sans-serif">R</text></g></g></svg>