<svg width="224.19" viewBox="0 0 7473 8838" text-rendering="auto" stroke-width="1" stroke-opacity="1" stroke-miterlimit="10" stroke-linejoin="miter" stroke-linecap="square" stroke-dashoffset="0" stroke-dasharray="none" stroke="black" shape-rendering="auto" image-rendering="auto" height="265.14" font-weight="normal" font-style="normal" font-size="12" font-family="'Dialog'" fill-opacity="1" fill="black" color-rendering="auto" color-interpolation="auto" xmlns="http://www.w3.org/2000/svg"><g><g stroke="white" fill="white"><rect y="0" x="0" width="7473" stroke="none" height="8838"/></g><g transform="translate(32866,32758)" text-rendering="geometricPrecision" stroke-width="44" stroke-linejoin="round" stroke-linecap="round"><line y2="-26482" y1="-26482" x2="-32436" x1="-31477" fill="none"/><line y2="-26699" y1="-27545" x2="-31214" x1="-30922" fill="none"/><line y2="-27545" y1="-26482" x2="-32762" x1="-32436" fill="none"/><line y2="-27461" y1="-26664" x2="-32560" x1="-32315" fill="none"/><line y2="-27545" y1="-28094" x2="-30922" x1="-31633" fill="none"/><line y2="-27479" y1="-27892" x2="-31113" x1="-31650" fill="none"/><line y2="-28103" y1="-27545" x2="-32008" x1="-32762" fill="none"/><line y2="-25956" y1="-26372" x2="-30382" x1="-31101" fill="none"/><line y2="-26482" y1="-25956" x2="-29475" x1="-30382" fill="none"/><line y2="-25956" y1="-26482" x2="-28568" x1="-29475" fill="none"/><line y2="-27308" y1="-26482" x2="-29475" x1="-29475" fill="none"/><line y2="-28054" y1="-27638" x2="-28568" x1="-29287" fill="none"/><line y2="-29099" y1="-28054" x2="-28568" x1="-28568" fill="none"/><line y2="-26525" y1="-25956" x2="-27586" x1="-28568" fill="none"/><line y2="-26309" y1="-25881" x2="-27623" x1="-28360" fill="none"/><line y2="-25956" y1="-24818" x2="-28568" x1="-28568" fill="none"/><line y2="-25956" y1="-26525" x2="-26598" x1="-27586" fill="none"/><line y2="-24818" y1="-24252" x2="-28568" x1="-27586" fill="none"/><line y2="-24896" y1="-24468" x2="-28360" x1="-27623" fill="none"/><line y2="-24818" y1="-25956" x2="-26598" x1="-26598" fill="none"/><line y2="-24962" y1="-25815" x2="-26768" x1="-26768" fill="none"/><line y2="-24252" y1="-24818" x2="-27586" x1="-26598" fill="none"/><line y2="-27354" y1="-26525" x2="-27586" x1="-27586" fill="none"/><line y2="-24492" y1="-24818" x2="-26031" x1="-26598" fill="none"/><line y2="-29668" y1="-29099" x2="-29556" x1="-28568" fill="none"/><line y2="-29746" y1="-29319" x2="-29348" x1="-28605" fill="none"/><line y2="-29099" y1="-29668" x2="-28568" x1="-27586" fill="none"/><line y2="-30807" y1="-29668" x2="-29556" x1="-29556" fill="none"/><line y2="-29668" y1="-30807" x2="-27586" x1="-27586" fill="none"/><line y2="-29810" y1="-30665" x2="-27756" x1="-27756" fill="none"/><line y2="-31376" y1="-30807" x2="-28568" x1="-29556" fill="none"/><line y2="-31156" y1="-30729" x2="-28605" x1="-29348" fill="none"/><line y2="-30807" y1="-31376" x2="-27586" x1="-28568" fill="none"/><line y2="-32202" y1="-31376" x2="-28568" x1="-28568" fill="none"/><text y="-27349" xml:space="preserve" x="-29628" stroke="none" font-size="433.3333" font-family="sans-serif">S</text><text y="-27395" xml:space="preserve" x="-27817" stroke="none" font-size="433.3333" font-family="sans-serif">Cl</text><text y="-24116" xml:space="preserve" x="-25922" stroke="none" font-size="433.3333" font-family="sans-serif">Cl</text><text y="-32242" xml:space="preserve" x="-28799" stroke="none" font-size="433.3333" font-family="sans-serif">Cl</text><text y="-26303" xml:space="preserve" x="-31442" stroke="none" font-size="433.3333" font-family="sans-serif">N</text><text y="-28062" xml:space="preserve" x="-31974" stroke="none" font-size="433.3333" font-family="sans-serif">N</text></g></g></svg>