<svg width="445.17" viewBox="0 0 14839 7034" text-rendering="auto" stroke-width="1" stroke-opacity="1" stroke-miterlimit="10" stroke-linejoin="miter" stroke-linecap="square" stroke-dashoffset="0" stroke-dasharray="none" stroke="black" shape-rendering="auto" image-rendering="auto" height="211.02" font-weight="normal" font-style="normal" font-size="12" font-family="'Dialog'" fill-opacity="1" fill="black" color-rendering="auto" color-interpolation="auto" xmlns="http://www.w3.org/2000/svg"><g><g stroke="white" fill="white"><rect y="0" x="0" width="14839" stroke="none" height="7034"/></g><g transform="translate(32866,32866)" text-rendering="geometricPrecision" stroke-width="44" stroke-linejoin="round" stroke-linecap="round"><line y2="-27999" y1="-28917" x2="-22397" x1="-22397" fill="none"/><line y2="-28917" y1="-28917" x2="-22397" x1="-23535" fill="none"/><line y2="-29374" y1="-28917" x2="-21611" x1="-22397" fill="none"/><line y2="-27779" y1="-27779" x2="-22209" x1="-20447" fill="none"/><line y2="-27779" y1="-27779" x2="-23535" x1="-22585" fill="none"/><line y2="-28917" y1="-27779" x2="-23535" x1="-23535" fill="none"/><line y2="-28917" y1="-29377" x2="-20447" x1="-21236" fill="none"/><line y2="-27779" y1="-28917" x2="-20447" x1="-20447" fill="none"/><line y2="-28917" y1="-29330" x2="-25350" x1="-24630" fill="none"/><line y2="-28735" y1="-28917" x2="-19416" x1="-20447" fill="none"/><line y2="-29900" y1="-28917" x2="-20089" x1="-20447" fill="none"/><line y2="-27178" y1="-27730" x2="-24038" x1="-23486" fill="none"/><line y2="-27276" y1="-27828" x2="-24136" x1="-23584" fill="none"/><line y2="-29440" y1="-28917" x2="-26257" x1="-25350" fill="none"/><line y2="-28088" y1="-28917" x2="-25280" x1="-25280" fill="none"/><line y2="-28088" y1="-28917" x2="-25419" x1="-25419" fill="none"/><line y2="-27669" y1="-27256" x2="-18821" x1="-19540" fill="none"/><line y2="-26427" y1="-27256" x2="-19471" x1="-19471" fill="none"/><line y2="-26427" y1="-27216" x2="-19612" x1="-19612" fill="none"/><line y2="-29137" y1="-29440" x2="-26785" x1="-26257" fill="none"/><line y2="-29440" y1="-29024" x2="-28071" x1="-27352" fill="none"/><line y2="-29024" y1="-29440" x2="-28790" x1="-28071" fill="none"/><line y2="-30269" y1="-29440" x2="-28140" x1="-28140" fill="none"/><line y2="-30269" y1="-29440" x2="-28002" x1="-28002" fill="none"/><line y2="-31055" y1="-30489" x2="-27245" x1="-26257" fill="none"/><line y2="-31133" y1="-30706" x2="-27034" x1="-26294" fill="none"/><line y2="-30489" y1="-31055" x2="-26257" x1="-25274" fill="none"/><line y2="-32193" y1="-31055" x2="-27245" x1="-27245" fill="none"/><line y2="-31055" y1="-32193" x2="-25274" x1="-25274" fill="none"/><line y2="-31200" y1="-32052" x2="-25445" x1="-25445" fill="none"/><line y2="-32762" y1="-32193" x2="-26257" x1="-27245" fill="none"/><line y2="-32543" y1="-32118" x2="-26294" x1="-27034" fill="none"/><line y2="-32193" y1="-32762" x2="-25274" x1="-26257" fill="none"/><line y2="-29024" y1="-29484" x2="-29166" x1="-29963" fill="none"/><line y2="-27779" y1="-28698" x2="-28978" x1="-28978" fill="none"/><line y2="-29484" y1="-28917" x2="-29963" x1="-30948" fill="none"/><line y2="-27210" y1="-27779" x2="-29963" x1="-28978" fill="none"/><line y2="-28917" y1="-27999" x2="-30948" x1="-30948" fill="none"/><line y2="-27669" y1="-27210" x2="-30760" x1="-29963" fill="none"/><line y2="-27256" y1="-27669" x2="-31855" x1="-31136" fill="none"/><line y2="-27779" y1="-27256" x2="-32762" x1="-31855" fill="none"/><line y2="-30313" y1="-29484" x2="-30032" x1="-30032" fill="none"/><line y2="-30313" y1="-29484" x2="-29891" x1="-29891" fill="none"/><line y2="-29270" y1="-28854" x2="-31702" x1="-30983" fill="none"/><line y2="-29391" y1="-28978" x2="-31633" x1="-30914" fill="none"/><polygon stroke-width="1" stroke="none" points=" -23535 -28917 -24096 -29160 -24026 -29278"/><polygon stroke-width="1" points=" -23535 -28917 -24096 -29160 -24026 -29278" fill="none"/><line y2="-27193" y1="-27314" x2="-19575" x1="-19508" fill="none"/><line y2="-27314" y1="-27410" x2="-19755" x1="-19702" fill="none"/><line y2="-27436" y1="-27506" x2="-19936" x1="-19897" fill="none"/><line y2="-27557" y1="-27603" x2="-20116" x1="-20091" fill="none"/><line y2="-27678" y1="-27699" x2="-20297" x1="-20285" fill="none"/><line y2="-29744" y1="-29744" x2="-22328" x1="-22466" fill="none"/><line y2="-29527" y1="-29527" x2="-22346" x1="-22448" fill="none"/><line y2="-29311" y1="-29311" x2="-22364" x1="-22430" fill="none"/><line y2="-29094" y1="-29094" x2="-22382" x1="-22412" fill="none"/><line y2="-30489" y1="-30486" x2="-26187" x1="-26326" fill="none"/><line y2="-30272" y1="-30270" x2="-26201" x1="-26312" fill="none"/><line y2="-30055" y1="-30053" x2="-26216" x1="-26297" fill="none"/><line y2="-29838" y1="-29837" x2="-26230" x1="-26283" fill="none"/><line y2="-29621" y1="-29621" x2="-26245" x1="-26269" fill="none"/><text y="-29261" xml:space="preserve" x="-24596" stroke="none" font-size="433.3333" font-family="sans-serif">NH</text><text y="-27690" xml:space="preserve" x="-25503" stroke="none" font-size="433.3333" font-family="sans-serif">O</text><text y="-28738" xml:space="preserve" x="-27317" stroke="none" font-size="433.3333" font-family="sans-serif">NH</text><text y="-30310" xml:space="preserve" x="-28224" stroke="none" font-size="433.3333" font-family="sans-serif">O</text><text y="-27600" xml:space="preserve" x="-18786" stroke="none" font-size="433.3333" font-family="sans-serif">OH</text><text y="-26028" xml:space="preserve" x="-19693" stroke="none" font-size="433.3333" font-family="sans-serif">O</text><text y="-26858" xml:space="preserve" x="-24428" stroke="none" font-size="433.3333" font-family="sans-serif">O</text><text y="-30353" xml:space="preserve" x="-30113" stroke="none" font-size="433.3333" font-family="sans-serif">O</text><text y="-29261" xml:space="preserve" x="-32008" stroke="none" font-size="433.3333" font-family="sans-serif">O</text><text y="-27600" xml:space="preserve" x="-22550" stroke="none" font-size="433.3333" font-family="sans-serif">N</text><text y="-29304" xml:space="preserve" x="-21577" stroke="none" font-size="433.3333" font-family="sans-serif">S</text><text y="-28738" xml:space="preserve" x="-29131" stroke="none" font-size="433.3333" font-family="sans-serif">N</text><text y="-27600" xml:space="preserve" x="-31101" stroke="none" font-size="433.3333" font-family="sans-serif">N</text><text y="-29784" xml:space="preserve" x="-22550" stroke="none" font-size="433.3333" font-family="sans-serif">H</text><text y="-28958" xml:space="preserve" x="-26410" stroke="none" font-style="italic" font-size="313.3333" font-family="sans-serif">R</text><text y="-28594" xml:space="preserve" x="-22302" stroke="none" font-style="italic" font-size="313.3333" font-family="sans-serif">R</text><text y="-28461" xml:space="preserve" x="-23443" stroke="none" font-style="italic" font-size="313.3333" font-family="sans-serif">R</text><text y="-27874" xml:space="preserve" x="-20846" stroke="none" font-style="italic" font-size="313.3333" font-family="sans-serif">S</text></g></g></svg>