<svg width="202.26" viewBox="0 0 6742 3890" text-rendering="auto" stroke-width="1" stroke-opacity="1" stroke-miterlimit="10" stroke-linejoin="miter" stroke-linecap="square" stroke-dashoffset="0" stroke-dasharray="none" stroke="black" shape-rendering="auto" image-rendering="auto" height="116.7" font-weight="normal" font-style="normal" font-size="12" font-family="'Dialog'" fill-opacity="1" fill="black" color-rendering="auto" color-interpolation="auto" xmlns="http://www.w3.org/2000/svg"><g><g stroke="white" fill="white"><rect y="0" x="0" width="6742" stroke="none" height="3890"/></g><g transform="translate(32866,32758)" text-rendering="geometricPrecision" stroke-width="44" stroke-linejoin="round" stroke-linecap="round"><line y2="-30680" y1="-31228" x2="-30919" x1="-31633" fill="none"/><line y2="-29833" y1="-30680" x2="-31211" x1="-30919" fill="none"/><line y2="-31237" y1="-30680" x2="-32008" x1="-32762" fill="none"/><line y2="-29616" y1="-29616" x2="-32433" x1="-31477" fill="none"/><line y2="-30680" y1="-29616" x2="-32762" x1="-32433" fill="none"/><line y2="-30596" y1="-29798" x2="-32557" x1="-32312" fill="none"/><line y2="-31156" y1="-30740" x2="-30235" x1="-30954" fill="none"/><line y2="-31035" y1="-30619" x2="-30165" x1="-30885" fill="none"/><line y2="-30680" y1="-31096" x2="-29105" x1="-29824" fill="none"/><line y2="-32202" y1="-31595" x2="-31821" x1="-31821" fill="none"/><line y2="-31249" y1="-30680" x2="-28123" x1="-29105" fill="none"/><line y2="-31029" y1="-30602" x2="-28160" x1="-28897" fill="none"/><line y2="-30680" y1="-29541" x2="-29105" x1="-29105" fill="none"/><line y2="-30680" y1="-31249" x2="-27135" x1="-28123" fill="none"/><line y2="-29541" y1="-28972" x2="-29105" x1="-28123" fill="none"/><line y2="-29616" y1="-29192" x2="-28897" x1="-28160" fill="none"/><line y2="-29541" y1="-30680" x2="-27135" x1="-27135" fill="none"/><line y2="-29683" y1="-30538" x2="-27305" x1="-27305" fill="none"/><line y2="-28972" y1="-29541" x2="-28123" x1="-27135" fill="none"/><line y2="-32294" y1="-31249" x2="-28123" x1="-28123" fill="none"/><line y2="-29018" y1="-29541" x2="-26228" x1="-27135" fill="none"/><text y="-31023" xml:space="preserve" x="-30165" stroke="none" font-size="433.3333" font-family="sans-serif">N</text><text y="-32242" xml:space="preserve" x="-31971" stroke="none" font-size="433.3333" font-family="sans-serif">CH</text><text y="-32153" xml:space="preserve" x="-31393" stroke="none" font-size="313.3333" font-family="sans-serif">3</text><text y="-31197" xml:space="preserve" x="-31971" stroke="none" font-size="433.3333" font-family="sans-serif">N</text><text y="-29437" xml:space="preserve" x="-31439" stroke="none" font-size="433.3333" font-family="sans-serif">S</text></g></g></svg>