<svg width="242.7" viewBox="0 0 8090 3734" text-rendering="auto" stroke-width="1" stroke-opacity="1" stroke-miterlimit="10" stroke-linejoin="miter" stroke-linecap="square" stroke-dashoffset="0" stroke-dasharray="none" stroke="black" shape-rendering="auto" image-rendering="auto" height="112.02" font-weight="normal" font-style="normal" font-size="12" font-family="'Dialog'" fill-opacity="1" fill="black" color-rendering="auto" color-interpolation="auto" xmlns="http://www.w3.org/2000/svg"><g><g stroke="white" fill="white"><rect y="0" x="0" width="8090" stroke="none" height="3734"/></g><g transform="translate(32866,32758)" text-rendering="geometricPrecision" stroke-width="44" stroke-linejoin="round" stroke-linecap="round"><line y2="-31405" y1="-30836" x2="-28019" x1="-29007" fill="none"/><line y2="-30836" y1="-29697" x2="-29007" x1="-29007" fill="none"/><line y2="-30691" y1="-29839" x2="-28836" x1="-28836" fill="none"/><line y2="-30836" y1="-31405" x2="-27037" x1="-28019" fill="none"/><line y2="-30758" y1="-31185" x2="-27245" x1="-27981" fill="none"/><line y2="-29697" y1="-29128" x2="-29007" x1="-28019" fill="none"/><line y2="-29697" y1="-30836" x2="-27037" x1="-27037" fill="none"/><line y2="-31295" y1="-30836" x2="-26236" x1="-27037" fill="none"/><line y2="-29128" y1="-29697" x2="-28019" x1="-27037" fill="none"/><line y2="-29348" y1="-29772" x2="-27981" x1="-27245" fill="none"/><line y2="-29697" y1="-29697" x2="-27037" x1="-25254" fill="none"/><line y2="-30836" y1="-31295" x2="-25066" x1="-25861" fill="none"/><line y2="-29917" y1="-30836" x2="-25066" x1="-25066" fill="none"/><line y2="-31358" y1="-30836" x2="-29914" x1="-29007" fill="none"/><line y2="-31358" y1="-32202" x2="-29914" x1="-30174" fill="none"/><line y2="-30801" y1="-31358" x2="-30668" x1="-29914" fill="none"/><line y2="-32422" y1="-32422" x2="-30431" x1="-31387" fill="none"/><line y2="-31358" y1="-30807" x2="-31757" x1="-31044" fill="none"/><line y2="-32422" y1="-31358" x2="-31387" x1="-31757" fill="none"/><line y2="-31070" y1="-31358" x2="-32762" x1="-31757" fill="none"/><text y="-31226" xml:space="preserve" x="-26202" stroke="none" font-size="433.3333" font-family="sans-serif">O</text><text y="-29518" xml:space="preserve" x="-25217" stroke="none" font-size="433.3333" font-family="sans-serif">O</text><text y="-32242" xml:space="preserve" x="-30394" stroke="none" font-size="433.3333" font-family="sans-serif">O</text><text y="-30483" xml:space="preserve" x="-31009" stroke="none" font-size="433.3333" font-family="sans-serif">O</text></g></g></svg>