<svg width="245.73" viewBox="0 0 8191 4638" text-rendering="auto" stroke-width="1" stroke-opacity="1" stroke-miterlimit="10" stroke-linejoin="miter" stroke-linecap="square" stroke-dashoffset="0" stroke-dasharray="none" stroke="black" shape-rendering="auto" image-rendering="auto" height="139.14" font-weight="normal" font-style="normal" font-size="12" font-family="'Dialog'" fill-opacity="1" fill="black" color-rendering="auto" color-interpolation="auto" xmlns="http://www.w3.org/2000/svg"><g><g stroke="white" fill="white"><rect y="0" x="0" width="8191" stroke="none" height="4638"/></g><g transform="translate(32866,32704)" text-rendering="geometricPrecision" stroke-width="44" stroke-linejoin="round" stroke-linecap="round"><line y2="-31321" y1="-29489" x2="-29590" x1="-29590" fill="none"/><line y2="-29489" y1="-29489" x2="-29590" x1="-26606" fill="none"/><line y2="-28574" y1="-29489" x2="-31174" x1="-29590" fill="none"/><line y2="-32127" y1="-31321" x2="-28186" x1="-29590" fill="none"/><line y2="-31321" y1="-32237" x2="-29590" x1="-31174" fill="none"/><line y2="-29709" y1="-31101" x2="-26418" x1="-26418" fill="none"/><line y2="-29489" y1="-28574" x2="-32762" x1="-31174" fill="none"/><line y2="-31517" y1="-31904" x2="-26756" x1="-27430" fill="none"/><line y2="-32237" y1="-31321" x2="-31174" x1="-32762" fill="none"/><line y2="-31321" y1="-29489" x2="-32762" x1="-32762" fill="none"/><line y2="-31780" y1="-31595" x2="-25621" x1="-25942" fill="none"/><line y2="-32150" y1="-31540" x2="-26418" x1="-26418" fill="none"/><polygon stroke-width="1" stroke="none" points=" -29590 -29489 -29521 -28660 -29660 -28660"/><polygon stroke-width="1" points=" -29590 -29489 -29521 -28660 -29660 -28660" fill="none"/><line y2="-32150" y1="-32147" x2="-29521" x1="-29660" fill="none"/><line y2="-31933" y1="-31931" x2="-29539" x1="-29642" fill="none"/><line y2="-31716" y1="-31714" x2="-29557" x1="-29623" fill="none"/><line y2="-31499" y1="-31498" x2="-29575" x1="-29605" fill="none"/><text y="-31798" xml:space="preserve" x="-25514" stroke="none" font-size="433.3333" font-family="sans-serif">Cl</text><text y="-32188" xml:space="preserve" x="-26650" stroke="none" font-size="433.3333" font-family="sans-serif">Cl</text><text y="-29310" xml:space="preserve" x="-26569" stroke="none" font-size="433.3333" font-family="sans-serif">NH</text><text y="-29221" xml:space="preserve" x="-25991" stroke="none" font-size="313.3333" font-family="sans-serif">2</text><text y="-32058" xml:space="preserve" x="-28152" stroke="none" font-size="433.3333" font-family="sans-serif">NH</text><text y="-31968" xml:space="preserve" x="-27574" stroke="none" font-size="313.3333" font-family="sans-serif">2</text><text y="-31142" xml:space="preserve" x="-26650" stroke="none" font-size="433.3333" font-family="sans-serif">Pt</text><text y="-28262" xml:space="preserve" x="-29744" stroke="none" font-size="433.3333" font-family="sans-serif">H</text><text y="-32188" xml:space="preserve" x="-29744" stroke="none" font-size="433.3333" font-family="sans-serif">H</text><text y="-31852" xml:space="preserve" x="-24960" stroke="none" font-size="313.3333" font-family="sans-serif">-</text><text y="-32242" xml:space="preserve" x="-26095" stroke="none" font-size="313.3333" font-family="sans-serif">-</text><text y="-31197" xml:space="preserve" x="-26095" stroke="none" font-size="313.3333" font-family="sans-serif">2+</text><text y="-29455" xml:space="preserve" x="-29992" stroke="none" font-style="italic" font-size="313.3333" font-family="sans-serif">R</text><text y="-30997" xml:space="preserve" x="-29492" stroke="none" font-style="italic" font-size="313.3333" font-family="sans-serif">R</text></g></g></svg>