<svg width="255.39" viewBox="0 0 8513 3329" text-rendering="auto" stroke-width="1" stroke-opacity="1" stroke-miterlimit="10" stroke-linejoin="miter" stroke-linecap="square" stroke-dashoffset="0" stroke-dasharray="none" stroke="black" shape-rendering="auto" image-rendering="auto" height="99.87" font-weight="normal" font-style="normal" font-size="12" font-family="'Dialog'" fill-opacity="1" fill="black" color-rendering="auto" color-interpolation="auto" xmlns="http://www.w3.org/2000/svg"><g><g stroke="white" fill="white"><rect y="0" x="0" width="8513" stroke="none" height="3329"/></g><g transform="translate(32866,32758)" text-rendering="geometricPrecision" stroke-width="44" stroke-linejoin="round" stroke-linecap="round"><line y2="-30850" y1="-30850" x2="-26271" x1="-27317" fill="none"/><line y2="-30989" y1="-30989" x2="-26401" x1="-27187" fill="none"/><line y2="-31376" y1="-30850" x2="-28224" x1="-27317" fill="none"/><line y2="-30850" y1="-31376" x2="-29131" x1="-28224" fill="none"/><line y2="-31266" y1="-30850" x2="-29850" x1="-29131" fill="none"/><line y2="-30850" y1="-31266" x2="-30945" x1="-30229" fill="none"/><line y2="-31376" y1="-30850" x2="-25364" x1="-26271" fill="none"/><line y2="-30850" y1="-31376" x2="-24457" x1="-25364" fill="none"/><line y2="-31376" y1="-30850" x2="-31852" x1="-30945" fill="none"/><line y2="-30024" y1="-30850" x2="-30876" x1="-30876" fill="none"/><line y2="-30024" y1="-30850" x2="-31018" x1="-31018" fill="none"/><line y2="-30850" y1="-31376" x2="-32762" x1="-31852" fill="none"/><line y2="-32202" y1="-31376" x2="-31852" x1="-31852" fill="none"/><text y="-31197" xml:space="preserve" x="-30191" stroke="none" font-size="433.3333" font-family="sans-serif">O</text><text y="-29625" xml:space="preserve" x="-31098" stroke="none" font-size="433.3333" font-family="sans-serif">O</text><text y="-32242" xml:space="preserve" x="-32006" stroke="none" font-size="433.3333" font-family="sans-serif">OH</text><text y="-31139" xml:space="preserve" x="-26947" stroke="none" font-style="italic" font-size="313.3333" font-family="sans-serif">Z</text></g></g></svg>