<svg width="354.12" viewBox="0 0 11804 6470" text-rendering="auto" stroke-width="1" stroke-opacity="1" stroke-miterlimit="10" stroke-linejoin="miter" stroke-linecap="square" stroke-dashoffset="0" stroke-dasharray="none" stroke="black" shape-rendering="auto" image-rendering="auto" height="194.1" font-weight="normal" font-style="normal" font-size="12" font-family="'Dialog'" fill-opacity="1" fill="black" color-rendering="auto" color-interpolation="auto" xmlns="http://www.w3.org/2000/svg"><g><g stroke="white" fill="white"><rect y="0" x="0" width="11804" stroke="none" height="6470"/></g><g transform="translate(32866,32758)" text-rendering="geometricPrecision" stroke-width="44" stroke-linejoin="round" stroke-linecap="round"><line y2="-28666" y1="-28097" x2="-25936" x1="-26921" fill="none"/><line y2="-28446" y1="-28019" x2="-25974" x1="-26713" fill="none"/><line y2="-28097" y1="-26959" x2="-26921" x1="-26921" fill="none"/><line y2="-28097" y1="-28666" x2="-24951" x1="-25936" fill="none"/><line y2="-26959" y1="-26392" x2="-26921" x1="-25936" fill="none"/><line y2="-27037" y1="-26609" x2="-26713" x1="-25974" fill="none"/><line y2="-26959" y1="-28097" x2="-24951" x1="-24951" fill="none"/><line y2="-27103" y1="-27955" x2="-25121" x1="-25121" fill="none"/><line y2="-26392" y1="-26959" x2="-25936" x1="-24951" fill="none"/><line y2="-28513" y1="-28097" x2="-24232" x1="-24951" fill="none"/><line y2="-28513" y1="-28097" x2="-27640" x1="-26921" fill="none"/><line y2="-28143" y1="-28452" x2="-28513" x1="-27981" fill="none"/><line y2="-28267" y1="-28574" x2="-28582" x1="-28054" fill="none"/><line y2="-28620" y1="-28207" x2="-29642" x1="-28923" fill="none"/><line y2="-28097" y1="-28513" x2="-23137" x1="-23856" fill="none"/><line y2="-29345" y1="-28874" x2="-23709" x1="-23980" fill="none"/><line y2="-29273" y1="-28805" x2="-23587" x1="-23856" fill="none"/><line y2="-29273" y1="-28805" x2="-24503" x1="-24232" fill="none"/><line y2="-29345" y1="-28874" x2="-24382" x1="-24110" fill="none"/><line y2="-28620" y1="-29758" x2="-29642" x1="-29642" fill="none"/><line y2="-28764" y1="-29616" x2="-29813" x1="-29813" fill="none"/><line y2="-28054" y1="-28620" x2="-30630" x1="-29642" fill="none"/><line y2="-29758" y1="-30327" x2="-29642" x1="-30630" fill="none"/><line y2="-28513" y1="-28054" x2="-31425" x1="-30630" fill="none"/><line y2="-30327" y1="-29758" x2="-30630" x1="-31613" fill="none"/><line y2="-30110" y1="-29683" x2="-30668" x1="-31405" fill="none"/><line y2="-29758" y1="-28839" x2="-31613" x1="-31613" fill="none"/><line y2="-31376" y1="-30327" x2="-30630" x1="-30630" fill="none"/><line y2="-28264" y1="-28513" x2="-32231" x1="-31800" fill="none"/><line y2="-30281" y1="-29758" x2="-28735" x1="-29642" fill="none"/><line y2="-30064" y1="-29758" x2="-32141" x1="-31613" fill="none"/><line y2="-27224" y1="-28054" x2="-30561" x1="-30561" fill="none"/><line y2="-27224" y1="-28054" x2="-30700" x1="-30700" fill="none"/><line y2="-28097" y1="-26959" x2="-23137" x1="-23137" fill="none"/><line y2="-27955" y1="-27103" x2="-22966" x1="-22966" fill="none"/><line y2="-28666" y1="-28097" x2="-22152" x1="-23137" fill="none"/><line y2="-26959" y1="-26392" x2="-23137" x1="-22152" fill="none"/><line y2="-28097" y1="-28666" x2="-21166" x1="-22152" fill="none"/><line y2="-28022" y1="-28449" x2="-21374" x1="-22114" fill="none"/><line y2="-26392" y1="-26959" x2="-22152" x1="-21166" fill="none"/><line y2="-26609" y1="-27037" x2="-22114" x1="-21374" fill="none"/><line y2="-26959" y1="-28097" x2="-21166" x1="-21166" fill="none"/><line y2="-32202" y1="-31376" x2="-30630" x1="-30630" fill="none"/><line y2="-32202" y1="-31376" x2="-30720" x1="-30720" fill="none"/><line y2="-32202" y1="-31376" x2="-30541" x1="-30541" fill="none"/><text y="-27918" xml:space="preserve" x="-28888" stroke="none" font-size="433.3333" font-family="sans-serif">N</text><text y="-28441" xml:space="preserve" x="-27981" stroke="none" font-size="433.3333" font-family="sans-serif">N</text><text y="-26826" xml:space="preserve" x="-30784" stroke="none" font-size="433.3333" font-family="sans-serif">O</text><text y="-32242" xml:space="preserve" x="-30784" stroke="none" font-size="433.3333" font-family="sans-serif">N</text><text y="-27866" xml:space="preserve" x="-32762" stroke="none" font-size="433.3333" font-family="sans-serif">CH</text><text y="-27776" xml:space="preserve" x="-32185" stroke="none" font-size="313.3333" font-family="sans-serif">3</text><text y="-30102" xml:space="preserve" x="-32673" stroke="none" font-size="433.3333" font-family="sans-serif">OH</text><text y="-28441" xml:space="preserve" x="-24197" stroke="none" font-size="433.3333" font-family="sans-serif">S</text><text y="-29348" xml:space="preserve" x="-23674" stroke="none" font-size="433.3333" font-family="sans-serif">O</text><text y="-29348" xml:space="preserve" x="-24720" stroke="none" font-size="433.3333" font-family="sans-serif">O</text><text y="-28441" xml:space="preserve" x="-31766" stroke="none" font-size="433.3333" font-family="sans-serif">N</text></g></g></svg>