<svg width="260.52" viewBox="0 0 8684 8380" text-rendering="auto" stroke-width="1" stroke-opacity="1" stroke-miterlimit="10" stroke-linejoin="miter" stroke-linecap="square" stroke-dashoffset="0" stroke-dasharray="none" stroke="black" shape-rendering="auto" image-rendering="auto" height="251.4" font-weight="normal" font-style="normal" font-size="12" font-family="'Dialog'" fill-opacity="1" fill="black" color-rendering="auto" color-interpolation="auto" xmlns="http://www.w3.org/2000/svg"><g><g stroke="white" fill="white"><rect y="0" x="0" width="8684" stroke="none" height="8380"/></g><g transform="translate(32866,32866)" text-rendering="geometricPrecision" stroke-width="44" stroke-linejoin="round" stroke-linecap="round"><line y2="-30313" y1="-29703" x2="-28071" x1="-28071" fill="none"/><line y2="-31055" y1="-30642" x2="-27164" x1="-27883" fill="none"/><line y2="-29070" y1="-29377" x2="-27352" x1="-27883" fill="none"/><line y2="-27912" y1="-28741" x2="-27164" x1="-27164" fill="none"/><line y2="-29070" y1="-29377" x2="-28790" x1="-28259" fill="none"/><line y2="-29484" y1="-29070" x2="-29885" x1="-29166" fill="none"/><line y2="-32193" y1="-31055" x2="-27164" x1="-27164" fill="none"/><line y2="-32052" y1="-31200" x2="-26993" x1="-26993" fill="none"/><line y2="-31055" y1="-30489" x2="-27164" x1="-26179" fill="none"/><line y2="-32762" y1="-32193" x2="-26179" x1="-27164" fill="none"/><line y2="-30489" y1="-31055" x2="-26179" x1="-25194" fill="none"/><line y2="-30706" y1="-31133" x2="-26141" x1="-25402" fill="none"/><line y2="-32193" y1="-32762" x2="-25194" x1="-26179" fill="none"/><line y2="-32118" y1="-32546" x2="-25402" x1="-26141" fill="none"/><line y2="-31055" y1="-32193" x2="-25194" x1="-25194" fill="none"/><line y2="-32719" y1="-32193" x2="-24286" x1="-25194" fill="none"/><line y2="-27346" y1="-27912" x2="-26179" x1="-27164" fill="none"/><line y2="-27268" y1="-27695" x2="-26387" x1="-27126" fill="none"/><line y2="-27912" y1="-27343" x2="-27164" x1="-28149" fill="none"/><line y2="-26208" y1="-27346" x2="-26182" x1="-26179" fill="none"/><line y2="-27343" y1="-26208" x2="-28149" x1="-28149" fill="none"/><line y2="-27201" y1="-26349" x2="-27978" x1="-27978" fill="none"/><line y2="-25638" y1="-26208" x2="-27164" x1="-26182" fill="none"/><line y2="-25858" y1="-26283" x2="-27126" x1="-26390" fill="none"/><line y2="-26208" y1="-25638" x2="-28149" x1="-27164" fill="none"/><line y2="-24590" y1="-25638" x2="-27164" x1="-27164" fill="none"/><line y2="-29484" y1="-30622" x2="-29885" x1="-29885" fill="none"/><line y2="-29628" y1="-30480" x2="-30056" x1="-30056" fill="none"/><line y2="-28917" y1="-29484" x2="-30873" x1="-29885" fill="none"/><line y2="-30622" y1="-31191" x2="-29885" x1="-30873" fill="none"/><line y2="-29484" y1="-28917" x2="-31855" x1="-30873" fill="none"/><line y2="-29562" y1="-29134" x2="-31647" x1="-30911" fill="none"/><line y2="-31191" y1="-30622" x2="-30873" x1="-31855" fill="none"/><line y2="-30974" y1="-30547" x2="-30911" x1="-31647" fill="none"/><line y2="-30622" y1="-29484" x2="-31855" x1="-31855" fill="none"/><line y2="-31145" y1="-30622" x2="-32762" x1="-31855" fill="none"/><text y="-29304" xml:space="preserve" x="-28224" stroke="none" font-size="433.3333" font-family="sans-serif">P</text><text y="-30353" xml:space="preserve" x="-28224" stroke="none" font-size="433.3333" font-family="sans-serif">O</text><text y="-28782" xml:space="preserve" x="-27317" stroke="none" font-size="433.3333" font-family="sans-serif">O</text><text y="-28782" xml:space="preserve" x="-29131" stroke="none" font-size="433.3333" font-family="sans-serif">O</text></g></g></svg>