<svg width="287.73" viewBox="0 0 9591 3716" text-rendering="auto" stroke-width="1" stroke-opacity="1" stroke-miterlimit="10" stroke-linejoin="miter" stroke-linecap="square" stroke-dashoffset="0" stroke-dasharray="none" stroke="black" shape-rendering="auto" image-rendering="auto" height="111.48" font-weight="normal" font-style="normal" font-size="12" font-family="'Dialog'" fill-opacity="1" fill="black" color-rendering="auto" color-interpolation="auto" xmlns="http://www.w3.org/2000/svg"><g><g stroke="white" fill="white"><rect y="0" x="0" width="9591" stroke="none" height="3716"/></g><g transform="translate(32866,32758)" text-rendering="geometricPrecision" stroke-width="44" stroke-linejoin="round" stroke-linecap="round"><line y2="-30850" y1="-31376" x2="-27164" x1="-28071" fill="none"/><line y2="-31266" y1="-30850" x2="-26444" x1="-27164" fill="none"/><line y2="-30850" y1="-31266" x2="-25350" x1="-26069" fill="none"/><line y2="-30850" y1="-31376" x2="-28978" x1="-28071" fill="none"/><line y2="-31266" y1="-30850" x2="-29697" x1="-28978" fill="none"/><line y2="-30850" y1="-31266" x2="-30792" x1="-30073" fill="none"/><line y2="-32202" y1="-31376" x2="-28071" x1="-28071" fill="none"/><line y2="-30850" y1="-29715" x2="-25350" x1="-25350" fill="none"/><line y2="-30708" y1="-29856" x2="-25179" x1="-25179" fill="none"/><line y2="-31419" y1="-30850" x2="-24362" x1="-25350" fill="none"/><line y2="-29715" y1="-29146" x2="-25350" x1="-24362" fill="none"/><line y2="-30850" y1="-31419" x2="-23379" x1="-24362" fill="none"/><line y2="-30775" y1="-31202" x2="-23587" x1="-24324" fill="none"/><line y2="-29146" y1="-29715" x2="-24362" x1="-23379" fill="none"/><line y2="-29362" y1="-29790" x2="-24324" x1="-23587" fill="none"/><line y2="-29715" y1="-30850" x2="-23379" x1="-23379" fill="none"/><line y2="-30850" y1="-31419" x2="-30792" x1="-31777" fill="none"/><line y2="-30775" y1="-31202" x2="-31000" x1="-31737" fill="none"/><line y2="-29715" y1="-30850" x2="-30792" x1="-30792" fill="none"/><line y2="-31419" y1="-30850" x2="-31777" x1="-32762" fill="none"/><line y2="-29146" y1="-29715" x2="-31777" x1="-30792" fill="none"/><line y2="-29362" y1="-29790" x2="-31737" x1="-31000" fill="none"/><line y2="-30850" y1="-29715" x2="-32762" x1="-32762" fill="none"/><line y2="-30708" y1="-29856" x2="-32592" x1="-32592" fill="none"/><line y2="-29715" y1="-29146" x2="-32762" x1="-31777" fill="none"/><text y="-31197" xml:space="preserve" x="-26410" stroke="none" font-size="433.3333" font-family="sans-serif">O</text><text y="-32242" xml:space="preserve" x="-28224" stroke="none" font-size="433.3333" font-family="sans-serif">OH</text><text y="-31197" xml:space="preserve" x="-30038" stroke="none" font-size="433.3333" font-family="sans-serif">O</text></g></g></svg>