<svg width="293.1" viewBox="0 0 9770 3664" text-rendering="auto" stroke-width="1" stroke-opacity="1" stroke-miterlimit="10" stroke-linejoin="miter" stroke-linecap="square" stroke-dashoffset="0" stroke-dasharray="none" stroke="black" shape-rendering="auto" image-rendering="auto" height="109.92" font-weight="normal" font-style="normal" font-size="12" font-family="'Dialog'" fill-opacity="1" fill="black" color-rendering="auto" color-interpolation="auto" xmlns="http://www.w3.org/2000/svg"><g><g stroke="white" fill="white"><rect y="0" x="0" width="9770" stroke="none" height="3664"/></g><g transform="translate(32866,32758)" text-rendering="geometricPrecision" stroke-width="44" stroke-linejoin="round" stroke-linecap="round"><line y2="-30960" y1="-31376" x2="-27262" x1="-27981" fill="none"/><line y2="-31318" y1="-31070" x2="-26265" x1="-26696" fill="none"/><line y2="-30902" y1="-31208" x2="-25170" x1="-25696" fill="none"/><line y2="-31070" y1="-31376" x2="-28510" x1="-27981" fill="none"/><line y2="-31208" y1="-30960" x2="-29507" x1="-29076" fill="none"/><line y2="-30902" y1="-31318" x2="-30792" x1="-30076" fill="none"/><line y2="-32202" y1="-31376" x2="-28051" x1="-28051" fill="none"/><line y2="-32202" y1="-31376" x2="-27912" x1="-27912" fill="none"/><line y2="-30902" y1="-29767" x2="-25170" x1="-25170" fill="none"/><line y2="-30760" y1="-29908" x2="-25000" x1="-25000" fill="none"/><line y2="-31471" y1="-30902" x2="-24182" x1="-25170" fill="none"/><line y2="-29767" y1="-29198" x2="-25170" x1="-24182" fill="none"/><line y2="-30902" y1="-31471" x2="-23200" x1="-24182" fill="none"/><line y2="-30827" y1="-31254" x2="-23408" x1="-24145" fill="none"/><line y2="-29198" y1="-29767" x2="-24182" x1="-23200" fill="none"/><line y2="-29414" y1="-29842" x2="-24145" x1="-23408" fill="none"/><line y2="-29767" y1="-30902" x2="-23200" x1="-23200" fill="none"/><line y2="-30902" y1="-31471" x2="-30792" x1="-31777" fill="none"/><line y2="-30827" y1="-31254" x2="-31000" x1="-31740" fill="none"/><line y2="-29767" y1="-30902" x2="-30792" x1="-30792" fill="none"/><line y2="-31471" y1="-30902" x2="-31777" x1="-32762" fill="none"/><line y2="-29198" y1="-29767" x2="-31777" x1="-30792" fill="none"/><line y2="-29414" y1="-29842" x2="-31740" x1="-31000" fill="none"/><line y2="-30902" y1="-29767" x2="-32762" x1="-32762" fill="none"/><line y2="-30760" y1="-29908" x2="-32595" x1="-32595" fill="none"/><line y2="-29767" y1="-29198" x2="-32762" x1="-31777" fill="none"/><text y="-31249" xml:space="preserve" x="-26228" stroke="none" font-size="433.3333" font-family="sans-serif">NH</text><text y="-30671" xml:space="preserve" x="-27227" stroke="none" font-size="433.3333" font-family="sans-serif">NH</text><text y="-30671" xml:space="preserve" x="-29042" stroke="none" font-size="433.3333" font-family="sans-serif">NH</text><text y="-32242" xml:space="preserve" x="-28134" stroke="none" font-size="433.3333" font-family="sans-serif">S</text><text y="-31249" xml:space="preserve" x="-30038" stroke="none" font-size="433.3333" font-family="sans-serif">NH</text></g></g></svg>