<svg width="278.37" viewBox="0 0 9279 2142" text-rendering="auto" stroke-width="1" stroke-opacity="1" stroke-miterlimit="10" stroke-linejoin="miter" stroke-linecap="square" stroke-dashoffset="0" stroke-dasharray="none" stroke="black" shape-rendering="auto" image-rendering="auto" height="64.26" font-weight="normal" font-style="normal" font-size="12" font-family="'Dialog'" fill-opacity="1" fill="black" color-rendering="auto" color-interpolation="auto" xmlns="http://www.w3.org/2000/svg"><g><g stroke="white" fill="white"><rect y="0" x="0" width="9279" stroke="none" height="2142"/></g><g transform="translate(32866,32758)" text-rendering="geometricPrecision" stroke-width="44" stroke-linejoin="round" stroke-linecap="round"><line y2="-31098" y1="-31408" x2="-27508" x1="-28039" fill="none"/><line y2="-31514" y1="-31098" x2="-26413" x1="-27132" fill="none"/><line y2="-30992" y1="-31514" x2="-25506" x1="-26413" fill="none"/><line y2="-31514" y1="-30992" x2="-24598" x1="-25506" fill="none"/><line y2="-30992" y1="-31514" x2="-23691" x1="-24598" fill="none"/><line y2="-31098" y1="-31408" x2="-28946" x1="-28415" fill="none"/><line y2="-31514" y1="-31098" x2="-30041" x1="-29322" fill="none"/><line y2="-30992" y1="-31514" x2="-30948" x1="-30041" fill="none"/><line y2="-31514" y1="-30992" x2="-31855" x1="-30948" fill="none"/><line y2="-30992" y1="-31514" x2="-32762" x1="-31855" fill="none"/><line y2="-32240" y1="-31769" x2="-27892" x1="-28160" fill="none"/><line y2="-32167" y1="-31699" x2="-27770" x1="-28039" fill="none"/><line y2="-32167" y1="-31699" x2="-28683" x1="-28415" fill="none"/><line y2="-32240" y1="-31769" x2="-28562" x1="-28293" fill="none"/><text y="-30812" xml:space="preserve" x="-27473" stroke="none" font-size="433.3333" font-family="sans-serif">O</text><text y="-31335" xml:space="preserve" x="-28380" stroke="none" font-size="433.3333" font-family="sans-serif">S</text><text y="-30812" xml:space="preserve" x="-29287" stroke="none" font-size="433.3333" font-family="sans-serif">O</text><text y="-32242" xml:space="preserve" x="-27854" stroke="none" font-size="433.3333" font-family="sans-serif">O</text><text y="-32242" xml:space="preserve" x="-28903" stroke="none" font-size="433.3333" font-family="sans-serif">O</text></g></g></svg>