<svg width="454.08" viewBox="0 0 15136 6466" text-rendering="auto" stroke-width="1" stroke-opacity="1" stroke-miterlimit="10" stroke-linejoin="miter" stroke-linecap="square" stroke-dashoffset="0" stroke-dasharray="none" stroke="black" shape-rendering="auto" image-rendering="auto" height="193.98" font-weight="normal" font-style="normal" font-size="12" font-family="'Dialog'" fill-opacity="1" fill="black" color-rendering="auto" color-interpolation="auto" xmlns="http://www.w3.org/2000/svg"><g><g stroke="white" fill="white"><rect y="0" x="0" width="15136" stroke="none" height="6466"/></g><g transform="translate(32866,32758)" text-rendering="geometricPrecision" stroke-width="44" stroke-linejoin="round" stroke-linecap="round"><line y2="-29943" y1="-29027" x2="-26026" x1="-26026" fill="none"/><line y2="-28698" y1="-28238" x2="-25838" x1="-25040" fill="none"/><line y2="-28808" y1="-28808" x2="-27164" x1="-26216" fill="none"/><line y2="-29943" y1="-29943" x2="-26026" x1="-27164" fill="none"/><line y2="-30405" y1="-29943" x2="-25228" x1="-26026" fill="none"/><line y2="-28238" y1="-28808" x2="-25040" x1="-24055" fill="none"/><line y2="-28455" y1="-28883" x2="-25003" x1="-24263" fill="none"/><line y2="-29943" y1="-28808" x2="-27164" x1="-27164" fill="none"/><line y2="-29943" y1="-30405" x2="-24055" x1="-24853" fill="none"/><line y2="-28808" y1="-29943" x2="-24055" x1="-24055" fill="none"/><line y2="-29943" y1="-30359" x2="-28978" x1="-28259" fill="none"/><line y2="-28282" y1="-28808" x2="-23148" x1="-24055" fill="none"/><line y2="-28698" y1="-28282" x2="-22432" x1="-23148" fill="none"/><line y2="-27190" y1="-28238" x2="-25040" x1="-25040" fill="none"/><line y2="-28204" y1="-28758" x2="-27666" x1="-27115" fill="none"/><line y2="-28302" y1="-28857" x2="-27768" x1="-27213" fill="none"/><line y2="-30469" y1="-29943" x2="-29885" x1="-28978" fill="none"/><line y2="-29117" y1="-29943" x2="-28909" x1="-28909" fill="none"/><line y2="-29117" y1="-29943" x2="-29047" x1="-29047" fill="none"/><line y2="-28643" y1="-28238" x2="-21958" x1="-21259" fill="none"/><line y2="-29943" y1="-29027" x2="-22241" x1="-22241" fill="none"/><line y2="-29830" y1="-29140" x2="-22074" x1="-22074" fill="none"/><line y2="-28238" y1="-28808" x2="-21259" x1="-20271" fill="none"/><line y2="-28455" y1="-28883" x2="-21221" x1="-20482" fill="none"/><line y2="-30512" y1="-29943" x2="-21259" x1="-22241" fill="none"/><line y2="-28808" y1="-29943" x2="-20271" x1="-20271" fill="none"/><line y2="-29943" y1="-30512" x2="-20271" x1="-21259" fill="none"/><line y2="-29868" y1="-30292" x2="-20482" x1="-21221" fill="none"/><line y2="-30469" y1="-29943" x2="-19364" x1="-20271" fill="none"/><line y2="-26774" y1="-27190" x2="-25760" x1="-25040" fill="none"/><line y2="-26834" y1="-27250" x2="-24286" x1="-25006" fill="none"/><line y2="-26713" y1="-27129" x2="-24356" x1="-25075" fill="none"/><line y2="-29943" y1="-30469" x2="-30792" x1="-29885" fill="none"/><line y2="-30053" y1="-30469" x2="-18644" x1="-19364" fill="none"/><line y2="-31295" y1="-30469" x2="-19436" x1="-19436" fill="none"/><line y2="-31295" y1="-30469" x2="-19294" x1="-19294" fill="none"/><line y2="-29943" y1="-30512" x2="-30792" x1="-31777" fill="none"/><line y2="-29868" y1="-30295" x2="-31000" x1="-31740" fill="none"/><line y2="-28808" y1="-29943" x2="-30792" x1="-30792" fill="none"/><line y2="-30512" y1="-29943" x2="-31777" x1="-32762" fill="none"/><line y2="-28238" y1="-28808" x2="-31777" x1="-30792" fill="none"/><line y2="-28455" y1="-28883" x2="-31740" x1="-31000" fill="none"/><line y2="-29943" y1="-28808" x2="-32762" x1="-32762" fill="none"/><line y2="-29801" y1="-28949" x2="-32592" x1="-32592" fill="none"/><line y2="-28808" y1="-28238" x2="-32762" x1="-31777" fill="none"/><line y2="-31873" y1="-31624" x2="-30503" x1="-30073" fill="none"/><line y2="-32240" y1="-31769" x2="-29550" x1="-29822" fill="none"/><line y2="-32167" y1="-31699" x2="-29429" x1="-29697" fill="none"/><line y2="-31587" y1="-31587" x2="-29027" x1="-29697" fill="none"/><line y2="-31445" y1="-31445" x2="-29027" x1="-29697" fill="none"/><polygon stroke-width="1" stroke="none" points=" -27164 -29943 -27727 -30188 -27658 -30307"/><polygon stroke-width="1" points=" -27164 -29943 -27727 -30188 -27658 -30307" fill="none"/><polygon stroke-width="1" stroke="none" points=" -29885 -30469 -29954 -31295 -29816 -31295"/><polygon stroke-width="1" points=" -29885 -30469 -29954 -31295 -29816 -31295" fill="none"/><line y2="-30772" y1="-30772" x2="-25959" x1="-26095" fill="none"/><line y2="-30555" y1="-30555" x2="-25977" x1="-26077" fill="none"/><line y2="-30339" y1="-30339" x2="-25994" x1="-26059" fill="none"/><line y2="-30122" y1="-30122" x2="-26012" x1="-26041" fill="none"/><text y="-26488" xml:space="preserve" x="-26101" stroke="none" font-size="433.3333" font-family="sans-serif">O</text><text y="-26488" xml:space="preserve" x="-24286" stroke="none" font-size="433.3333" font-family="sans-serif">O</text><text y="-27886" xml:space="preserve" x="-28056" stroke="none" font-size="433.3333" font-family="sans-serif">O</text><text y="-30290" xml:space="preserve" x="-28224" stroke="none" font-size="433.3333" font-family="sans-serif">NH</text><text y="-28718" xml:space="preserve" x="-29131" stroke="none" font-size="433.3333" font-family="sans-serif">O</text><text y="-31335" xml:space="preserve" x="-30038" stroke="none" font-size="433.3333" font-family="sans-serif">S</text><text y="-32242" xml:space="preserve" x="-29515" stroke="none" font-size="433.3333" font-family="sans-serif">O</text><text y="-31335" xml:space="preserve" x="-28990" stroke="none" font-size="433.3333" font-family="sans-serif">O</text><text y="-31913" xml:space="preserve" x="-31035" stroke="none" font-size="433.3333" font-family="sans-serif">OH</text><text y="-29764" xml:space="preserve" x="-18610" stroke="none" font-size="433.3333" font-family="sans-serif">NH</text><text y="-29674" xml:space="preserve" x="-18032" stroke="none" font-size="313.3333" font-family="sans-serif">2</text><text y="-31335" xml:space="preserve" x="-19517" stroke="none" font-size="433.3333" font-family="sans-serif">O</text><text y="-28628" xml:space="preserve" x="-26179" stroke="none" font-size="433.3333" font-family="sans-serif">N</text><text y="-30333" xml:space="preserve" x="-25194" stroke="none" font-size="433.3333" font-family="sans-serif">S</text><text y="-28628" xml:space="preserve" x="-22394" stroke="none" font-size="433.3333" font-family="sans-serif">N</text><text y="-30812" xml:space="preserve" x="-26179" stroke="none" font-size="433.3333" font-family="sans-serif">H</text><text y="-26543" xml:space="preserve" x="-26421" stroke="none" font-size="313.3333" font-family="sans-serif">-</text><text y="-28680" xml:space="preserve" x="-22074" stroke="none" font-size="313.3333" font-family="sans-serif">+</text><text y="-29986" xml:space="preserve" x="-30038" stroke="none" font-style="italic" font-size="313.3333" font-family="sans-serif">R</text><text y="-29619" xml:space="preserve" x="-25930" stroke="none" font-style="italic" font-size="313.3333" font-family="sans-serif">R</text><text y="-29489" xml:space="preserve" x="-27071" stroke="none" font-style="italic" font-size="313.3333" font-family="sans-serif">R</text></g></g></svg>