<svg width="297.06" viewBox="0 0 9902 5605" text-rendering="auto" stroke-width="1" stroke-opacity="1" stroke-miterlimit="10" stroke-linejoin="miter" stroke-linecap="square" stroke-dashoffset="0" stroke-dasharray="none" stroke="black" shape-rendering="auto" image-rendering="auto" height="168.15" font-weight="normal" font-style="normal" font-size="12" font-family="'Dialog'" fill-opacity="1" fill="black" color-rendering="auto" color-interpolation="auto" xmlns="http://www.w3.org/2000/svg"><g><g stroke="white" fill="white"><rect y="0" x="0" width="9902" stroke="none" height="5605"/></g><g transform="translate(32866,32758)" text-rendering="geometricPrecision" stroke-width="44" stroke-linejoin="round" stroke-linecap="round"><line y2="-28576" y1="-29495" x2="-27929" x1="-27929" fill="none"/><line y2="-29822" y1="-30281" x2="-28117" x1="-28912" fill="none"/><line y2="-28576" y1="-28576" x2="-29900" x1="-27929" fill="none"/><line y2="-30281" y1="-29822" x2="-28912" x1="-29709" fill="none"/><line y2="-29495" y1="-28576" x2="-29900" x1="-29900" fill="none"/><line y2="-28576" y1="-28576" x2="-31870" x1="-29900" fill="none"/><line y2="-29822" y1="-30281" x2="-30087" x1="-30882" fill="none"/><line y2="-29715" y1="-28576" x2="-31870" x1="-31870" fill="none"/><line y2="-30281" y1="-29715" x2="-30882" x1="-31870" fill="none"/><line y2="-30238" y1="-29822" x2="-27022" x1="-27739" fill="none"/><line y2="-28074" y1="-28626" x2="-27326" x1="-27880" fill="none"/><line y2="-27976" y1="-28527" x2="-27424" x1="-27978" fill="none"/><line y2="-31110" y1="-30281" x2="-28981" x1="-28981" fill="none"/><line y2="-31110" y1="-30281" x2="-28842" x1="-28842" fill="none"/><line y2="-30238" y1="-29668" x2="-27022" x1="-26037" fill="none"/><line y2="-30313" y1="-29885" x2="-26814" x1="-26075" fill="none"/><line y2="-31376" y1="-30238" x2="-27022" x1="-27022" fill="none"/><line y2="-29668" y1="-30238" x2="-26037" x1="-25052" fill="none"/><line y2="-31945" y1="-31376" x2="-26037" x1="-27022" fill="none"/><line y2="-31725" y1="-31298" x2="-26075" x1="-26814" fill="none"/><line y2="-30238" y1="-31376" x2="-25052" x1="-25052" fill="none"/><line y2="-30379" y1="-31231" x2="-25220" x1="-25220" fill="none"/><line y2="-31376" y1="-31945" x2="-25052" x1="-26037" fill="none"/><line y2="-31899" y1="-31376" x2="-24145" x1="-25052" fill="none"/><line y2="-28620" y1="-29668" x2="-26037" x1="-26037" fill="none"/><line y2="-29911" y1="-30238" x2="-24483" x1="-25052" fill="none"/><line y2="-32315" y1="-31899" x2="-23426" x1="-24145" fill="none"/><line y2="-32393" y1="-31977" x2="-23469" x1="-24188" fill="none"/><line y2="-32237" y1="-31821" x2="-23379" x1="-24099" fill="none"/><polygon stroke-width="1" stroke="none" points=" -29900 -28576 -29830 -27747 -29966 -27747"/><polygon stroke-width="1" points=" -29900 -28576 -29830 -27747 -29966 -27747" fill="none"/><line y2="-28103" y1="-28007" x2="-32439" x1="-32341" fill="none"/><line y2="-28242" y1="-28174" x2="-32272" x1="-32202" fill="none"/><line y2="-28381" y1="-28342" x2="-32104" x1="-32064" fill="none"/><line y2="-28521" y1="-28509" x2="-31937" x1="-31925" fill="none"/><text y="-27658" xml:space="preserve" x="-27340" stroke="none" font-size="433.3333" font-family="sans-serif">O</text><text y="-31150" xml:space="preserve" x="-29065" stroke="none" font-size="433.3333" font-family="sans-serif">O</text><text y="-29536" xml:space="preserve" x="-24376" stroke="none" font-size="433.3333" font-family="sans-serif">Cl</text><text y="-27658" xml:space="preserve" x="-32762" stroke="none" font-size="433.3333" font-family="sans-serif">OH</text><text y="-32242" xml:space="preserve" x="-23388" stroke="none" font-size="433.3333" font-family="sans-serif">N</text><text y="-29536" xml:space="preserve" x="-28080" stroke="none" font-size="433.3333" font-family="sans-serif">N</text><text y="-29536" xml:space="preserve" x="-30050" stroke="none" font-size="433.3333" font-family="sans-serif">N</text><text y="-27349" xml:space="preserve" x="-30050" stroke="none" font-size="433.3333" font-family="sans-serif">H</text><text y="-28672" xml:space="preserve" x="-30295" stroke="none" font-style="italic" font-size="313.3333" font-family="sans-serif">S</text><text y="-28672" xml:space="preserve" x="-31777" stroke="none" font-style="italic" font-size="313.3333" font-family="sans-serif">R</text></g></g></svg>