<svg width="346.83" viewBox="0 0 11561 9517" text-rendering="auto" stroke-width="1" stroke-opacity="1" stroke-miterlimit="10" stroke-linejoin="miter" stroke-linecap="square" stroke-dashoffset="0" stroke-dasharray="none" stroke="black" shape-rendering="auto" image-rendering="auto" height="285.51" font-weight="normal" font-style="normal" font-size="12" font-family="'Dialog'" fill-opacity="1" fill="black" color-rendering="auto" color-interpolation="auto" xmlns="http://www.w3.org/2000/svg"><g><g stroke="white" fill="white"><rect y="0" x="0" width="11561" stroke="none" height="9517"/></g><g transform="translate(32866,32758)" text-rendering="geometricPrecision" stroke-width="44" stroke-linejoin="round" stroke-linecap="round"><line y2="-26577" y1="-27146" x2="-26101" x1="-27083" fill="none"/><line y2="-27146" y1="-26577" x2="-27083" x1="-28071" fill="none"/><line y2="-26927" y1="-26499" x2="-27123" x1="-27863" fill="none"/><line y2="-25439" y1="-26577" x2="-26101" x1="-26101" fill="none"/><line y2="-25581" y1="-26433" x2="-26271" x1="-26271" fill="none"/><line y2="-27146" y1="-26577" x2="-25113" x1="-26101" fill="none"/><line y2="-25439" y1="-26577" x2="-28071" x1="-28071" fill="none"/><line y2="-26577" y1="-27146" x2="-28071" x1="-29053" fill="none"/><line y2="-24980" y1="-25439" x2="-26895" x1="-26101" fill="none"/><line y2="-25439" y1="-24870" x2="-26101" x1="-25113" fill="none"/><line y2="-26577" y1="-27146" x2="-24130" x1="-25113" fill="none"/><line y2="-26499" y1="-26927" x2="-24338" x1="-25075" fill="none"/><line y2="-25439" y1="-25144" x2="-28071" x1="-27562" fill="none"/><line y2="-25549" y1="-25329" x2="-27924" x1="-27539" fill="none"/><line y2="-24870" y1="-25439" x2="-29053" x1="-28071" fill="none"/><line y2="-27146" y1="-26577" x2="-29053" x1="-30041" fill="none"/><line y2="-26927" y1="-26499" x2="-29094" x1="-29833" fill="none"/><line y2="-24870" y1="-25439" x2="-25113" x1="-24130" fill="none"/><line y2="-25087" y1="-25514" x2="-25075" x1="-24338" fill="none"/><line y2="-25439" y1="-26577" x2="-24130" x1="-24130" fill="none"/><line y2="-25439" y1="-24870" x2="-30041" x1="-29053" fill="none"/><line y2="-25517" y1="-25090" x2="-29833" x1="-29094" fill="none"/><line y2="-26577" y1="-25439" x2="-30041" x1="-30041" fill="none"/><line y2="-28192" y1="-27146" x2="-27083" x1="-27083" fill="none"/><line y2="-25023" y1="-25439" x2="-23411" x1="-24130" fill="none"/><line y2="-25023" y1="-25439" x2="-30760" x1="-30041" fill="none"/><line y2="-28761" y1="-28192" x2="-28068" x1="-27083" fill="none"/><line y2="-28836" y1="-28412" x2="-27860" x1="-27120" fill="none"/><line y2="-28192" y1="-28761" x2="-27083" x1="-26098" fill="none"/><line y2="-29900" y1="-28761" x2="-28068" x1="-28068" fill="none"/><line y2="-28761" y1="-29900" x2="-26098" x1="-26098" fill="none"/><line y2="-28903" y1="-29755" x2="-26268" x1="-26268" fill="none"/><line y2="-30469" y1="-29900" x2="-27083" x1="-28068" fill="none"/><line y2="-30249" y1="-29822" x2="-27120" x1="-27860" fill="none"/><line y2="-29900" y1="-30469" x2="-26098" x1="-27083" fill="none"/><line y2="-28345" y1="-28761" x2="-28787" x1="-28068" fill="none"/><line y2="-31295" y1="-30469" x2="-27083" x1="-27083" fill="none"/><line y2="-25439" y1="-25023" x2="-22316" x1="-23036" fill="none"/><line y2="-24916" y1="-25439" x2="-21409" x1="-22316" fill="none"/><line y2="-23868" y1="-24697" x2="-23223" x1="-23223" fill="none"/><line y2="-23345" y1="-23868" x2="-22316" x1="-23223" fill="none"/><line y2="-25439" y1="-25023" x2="-31855" x1="-31136" fill="none"/><line y2="-24916" y1="-25439" x2="-32762" x1="-31855" fill="none"/><line y2="-23868" y1="-24697" x2="-30948" x1="-30948" fill="none"/><line y2="-23345" y1="-23868" x2="-31855" x1="-30948" fill="none"/><line y2="-28597" y1="-28345" x2="-29596" x1="-29163" fill="none"/><line y2="-27516" y1="-27984" x2="-29310" x1="-29039" fill="none"/><line y2="-27586" y1="-28054" x2="-29432" x1="-29163" fill="none"/><line y2="-27586" y1="-28054" x2="-28516" x1="-28787" fill="none"/><line y2="-27516" y1="-27984" x2="-28640" x1="-28909" fill="none"/><line y2="-31887" y1="-31624" x2="-26442" x1="-26895" fill="none"/><line y2="-32167" y1="-31699" x2="-27542" x1="-27271" fill="none"/><line y2="-32240" y1="-31769" x2="-27421" x1="-27149" fill="none"/><line y2="-31445" y1="-31445" x2="-27944" x1="-27274" fill="none"/><line y2="-31587" y1="-31587" x2="-27944" x1="-27274" fill="none"/><text y="-28059" xml:space="preserve" x="-29128" stroke="none" font-size="433.3333" font-family="sans-serif">S</text><text y="-27152" xml:space="preserve" x="-29651" stroke="none" font-size="433.3333" font-family="sans-serif">O</text><text y="-27152" xml:space="preserve" x="-28602" stroke="none" font-size="433.3333" font-family="sans-serif">O</text><text y="-28582" xml:space="preserve" x="-30035" stroke="none" font-size="433.3333" font-family="sans-serif">O</text><text y="-24737" xml:space="preserve" x="-23374" stroke="none" font-size="433.3333" font-family="sans-serif">N</text><text y="-24737" xml:space="preserve" x="-31101" stroke="none" font-size="433.3333" font-family="sans-serif">N</text><text y="-31335" xml:space="preserve" x="-27236" stroke="none" font-size="433.3333" font-family="sans-serif">S</text><text y="-31904" xml:space="preserve" x="-26332" stroke="none" font-size="433.3333" font-family="sans-serif">Cl</text><text y="-32242" xml:space="preserve" x="-27759" stroke="none" font-size="433.3333" font-family="sans-serif">O</text><text y="-31335" xml:space="preserve" x="-28285" stroke="none" font-size="433.3333" font-family="sans-serif">O</text><text y="-24691" xml:space="preserve" x="-27236" stroke="none" font-size="433.3333" font-family="sans-serif">O</text><text y="-28637" xml:space="preserve" x="-29712" stroke="none" font-size="313.3333" font-family="sans-serif">-</text><text y="-24746" xml:space="preserve" x="-27560" stroke="none" font-size="313.3333" font-family="sans-serif">+</text></g></g></svg>