<svg width="508.11" viewBox="0 0 16937 3616" text-rendering="auto" stroke-width="1" stroke-opacity="1" stroke-miterlimit="10" stroke-linejoin="miter" stroke-linecap="square" stroke-dashoffset="0" stroke-dasharray="none" stroke="black" shape-rendering="auto" image-rendering="auto" height="108.48" font-weight="normal" font-style="normal" font-size="12" font-family="'Dialog'" fill-opacity="1" fill="black" color-rendering="auto" color-interpolation="auto" xmlns="http://www.w3.org/2000/svg"><g><g stroke="white" fill="white"><rect y="0" x="0" width="16937" stroke="none" height="3616"/></g><g transform="translate(32866,32866)" text-rendering="geometricPrecision" stroke-width="44" stroke-linejoin="round" stroke-linecap="round"><line y2="-32193" y1="-31055" x2="-18910" x1="-18910" fill="none"/><line y2="-32052" y1="-31200" x2="-18743" x1="-18743" fill="none"/><line y2="-31055" y1="-30489" x2="-18910" x1="-17925" fill="none"/><line y2="-32762" y1="-32193" x2="-17925" x1="-18910" fill="none"/><line y2="-30489" y1="-31055" x2="-17925" x1="-16940" fill="none"/><line y2="-30706" y1="-31133" x2="-17888" x1="-17148" fill="none"/><line y2="-32193" y1="-32762" x2="-16940" x1="-17925" fill="none"/><line y2="-32118" y1="-32546" x2="-17148" x1="-17888" fill="none"/><line y2="-31055" y1="-32193" x2="-16940" x1="-16940" fill="none"/><line y2="-32719" y1="-32193" x2="-16033" x1="-16940" fill="none"/><line y2="-30642" y1="-31055" x2="-19630" x1="-18910" fill="none"/><line y2="-30948" y1="-30642" x2="-20537" x1="-20008" fill="none"/><line y2="-30532" y1="-30948" x2="-21634" x1="-20915" fill="none"/><line y2="-31055" y1="-30532" x2="-22542" x1="-21634" fill="none"/><line y2="-30642" y1="-31055" x2="-23258" x1="-22542" fill="none"/><line y2="-31055" y1="-30642" x2="-24356" x1="-23636" fill="none"/><line y2="-30532" y1="-31055" x2="-25263" x1="-24356" fill="none"/><line y2="-30948" y1="-30532" x2="-25982" x1="-25263" fill="none"/><line y2="-30532" y1="-30948" x2="-27077" x1="-26358" fill="none"/><line y2="-31055" y1="-30532" x2="-27984" x1="-27077" fill="none"/><line y2="-30642" y1="-31055" x2="-28704" x1="-27984" fill="none"/><line y2="-31055" y1="-30642" x2="-29798" x1="-29079" fill="none"/><line y2="-30532" y1="-31055" x2="-30706" x1="-29798" fill="none"/><line y2="-30948" y1="-30532" x2="-31425" x1="-30706" fill="none"/><line y2="-30700" y1="-30948" x2="-32231" x1="-31800" fill="none"/><line y2="-29810" y1="-30278" x2="-20155" x1="-19884" fill="none"/><line y2="-29879" y1="-30347" x2="-20277" x1="-20005" fill="none"/><line y2="-29879" y1="-30347" x2="-19361" x1="-19632" fill="none"/><line y2="-29810" y1="-30278" x2="-19482" x1="-19754" fill="none"/><text y="-30353" xml:space="preserve" x="-19970" stroke="none" font-size="433.3333" font-family="sans-serif">S</text><text y="-30876" xml:space="preserve" x="-20878" stroke="none" font-size="433.3333" font-family="sans-serif">O</text><text y="-29446" xml:space="preserve" x="-20496" stroke="none" font-size="433.3333" font-family="sans-serif">O</text><text y="-29446" xml:space="preserve" x="-19448" stroke="none" font-size="433.3333" font-family="sans-serif">O</text><text y="-30353" xml:space="preserve" x="-23599" stroke="none" font-size="433.3333" font-family="sans-serif">O</text><text y="-30876" xml:space="preserve" x="-26320" stroke="none" font-size="433.3333" font-family="sans-serif">O</text><text y="-30353" xml:space="preserve" x="-29042" stroke="none" font-size="433.3333" font-family="sans-serif">O</text><text y="-30876" xml:space="preserve" x="-31766" stroke="none" font-size="433.3333" font-family="sans-serif">O</text><text y="-30301" xml:space="preserve" x="-32762" stroke="none" font-size="433.3333" font-family="sans-serif">CH</text><text y="-30212" xml:space="preserve" x="-32185" stroke="none" font-size="313.3333" font-family="sans-serif">3</text></g></g></svg>