<svg width="262.95" viewBox="0 0 8765 6285" text-rendering="auto" stroke-width="1" stroke-opacity="1" stroke-miterlimit="10" stroke-linejoin="miter" stroke-linecap="square" stroke-dashoffset="0" stroke-dasharray="none" stroke="black" shape-rendering="auto" image-rendering="auto" height="188.55" font-weight="normal" font-style="normal" font-size="12" font-family="'Dialog'" fill-opacity="1" fill="black" color-rendering="auto" color-interpolation="auto" xmlns="http://www.w3.org/2000/svg"><g><g stroke="white" fill="white"><rect y="0" x="0" width="8765" stroke="none" height="6285"/></g><g transform="translate(32866,32866)" text-rendering="geometricPrecision" stroke-width="44" stroke-linejoin="round" stroke-linecap="round"><line y2="-29663" y1="-30079" x2="-28071" x1="-28790" fill="none"/><line y2="-29663" y1="-30079" x2="-29885" x1="-29166" fill="none"/><line y2="-30188" y1="-29663" x2="-30792" x1="-29885" fill="none"/><line y2="-32240" y1="-30408" x2="-28978" x1="-28978" fill="none"/><line y2="-32762" y1="-32240" x2="-28071" x1="-28978" fill="none"/><line y2="-29663" y1="-28527" x2="-28071" x1="-28071" fill="none"/><line y2="-29521" y1="-28669" x2="-27900" x1="-27900" fill="none"/><line y2="-30232" y1="-29663" x2="-27083" x1="-28071" fill="none"/><line y2="-28527" y1="-27958" x2="-28071" x1="-27083" fill="none"/><line y2="-29663" y1="-30232" x2="-26101" x1="-27083" fill="none"/><line y2="-29588" y1="-30015" x2="-26309" x1="-27045" fill="none"/><line y2="-27958" y1="-28527" x2="-27083" x1="-26101" fill="none"/><line y2="-28175" y1="-28602" x2="-27045" x1="-26309" fill="none"/><line y2="-28527" y1="-29663" x2="-26101" x1="-26101" fill="none"/><line y2="-28002" y1="-28527" x2="-25194" x1="-26101" fill="none"/><line y2="-28111" y1="-28527" x2="-28790" x1="-28071" fill="none"/><line y2="-31061" y1="-30232" x2="-27083" x1="-27083" fill="none"/><line y2="-30188" y1="-31324" x2="-30792" x1="-30792" fill="none"/><line y2="-30330" y1="-31182" x2="-30963" x1="-30963" fill="none"/><line y2="-29619" y1="-30188" x2="-31777" x1="-30792" fill="none"/><line y2="-31324" y1="-31893" x2="-30792" x1="-31777" fill="none"/><line y2="-30188" y1="-29619" x2="-32762" x1="-31777" fill="none"/><line y2="-30264" y1="-29836" x2="-32554" x1="-31815" fill="none"/><line y2="-31893" y1="-31324" x2="-31777" x1="-32762" fill="none"/><line y2="-31676" y1="-31249" x2="-31815" x1="-32554" fill="none"/><line y2="-31324" y1="-30188" x2="-32762" x1="-32762" fill="none"/><line y2="-31653" y1="-31324" x2="-30223" x1="-30792" fill="none"/><line y2="-28790" y1="-29619" x2="-31777" x1="-31777" fill="none"/><line y2="-28418" y1="-28002" x2="-24474" x1="-25194" fill="none"/><line y2="-27314" y1="-28002" x2="-24795" x1="-25194" fill="none"/><line y2="-27314" y1="-28002" x2="-25589" x1="-25194" fill="none"/><line y2="-27175" y1="-27782" x2="-28909" x1="-28909" fill="none"/><line y2="-27175" y1="-27782" x2="-29047" x1="-29047" fill="none"/><line y2="-28357" y1="-28051" x2="-29732" x1="-29200" fill="none"/><line y2="-28478" y1="-28172" x2="-29663" x1="-29131" fill="none"/><line y2="-31636" y1="-31327" x2="-27837" x1="-27305" fill="none"/><line y2="-31757" y1="-31451" x2="-27768" x1="-27236" fill="none"/><line y2="-31757" y1="-31451" x2="-26398" x1="-26930" fill="none"/><line y2="-31636" y1="-31327" x2="-26329" x1="-26860" fill="none"/><text y="-30009" xml:space="preserve" x="-29128" stroke="none" font-size="433.3333" font-family="sans-serif">N</text><text y="-27822" xml:space="preserve" x="-29128" stroke="none" font-size="433.3333" font-family="sans-serif">N</text><text y="-26777" xml:space="preserve" x="-29128" stroke="none" font-size="433.3333" font-family="sans-serif">O</text><text y="-28348" xml:space="preserve" x="-30038" stroke="none" font-size="433.3333" font-family="sans-serif">O</text><text y="-31101" xml:space="preserve" x="-27236" stroke="none" font-size="433.3333" font-family="sans-serif">N</text><text y="-31624" xml:space="preserve" x="-28143" stroke="none" font-size="433.3333" font-family="sans-serif">O</text><text y="-31624" xml:space="preserve" x="-26329" stroke="none" font-size="433.3333" font-family="sans-serif">O</text><text y="-28348" xml:space="preserve" x="-24437" stroke="none" font-size="433.3333" font-family="sans-serif">F</text><text y="-26915" xml:space="preserve" x="-24821" stroke="none" font-size="433.3333" font-family="sans-serif">F</text><text y="-26915" xml:space="preserve" x="-25870" stroke="none" font-size="433.3333" font-family="sans-serif">F</text><text y="-31670" xml:space="preserve" x="-30116" stroke="none" font-size="433.3333" font-family="sans-serif">Cl</text><text y="-28392" xml:space="preserve" x="-31930" stroke="none" font-size="433.3333" font-family="sans-serif">F</text></g></g></svg>