<svg width="150.36" viewBox="0 0 5012 3833" text-rendering="auto" stroke-width="1" stroke-opacity="1" stroke-miterlimit="10" stroke-linejoin="miter" stroke-linecap="square" stroke-dashoffset="0" stroke-dasharray="none" stroke="black" shape-rendering="auto" image-rendering="auto" height="114.99" font-weight="normal" font-style="normal" font-size="12" font-family="'Dialog'" fill-opacity="1" fill="black" color-rendering="auto" color-interpolation="auto" xmlns="http://www.w3.org/2000/svg"><g><g stroke="white" fill="white"><rect y="0" x="0" width="5012" stroke="none" height="3833"/></g><g transform="translate(32866,32866)" text-rendering="geometricPrecision" stroke-width="44" stroke-linejoin="round" stroke-linecap="round"><line y2="-30266" y1="-31332" x2="-30139" x1="-29772" fill="none"/><line y2="-31332" y1="-31809" x2="-29772" x1="-30388" fill="none"/><line y2="-30266" y1="-30266" x2="-31098" x1="-30139" fill="none"/><line y2="-31887" y1="-31332" x2="-30859" x1="-31613" fill="none"/><line y2="-31332" y1="-30486" x2="-31613" x1="-31353" fill="none"/><line y2="-29668" y1="-30307" x2="-29637" x1="-30082" fill="none"/><line y2="-29588" y1="-30226" x2="-29749" x1="-30197" fill="none"/><line y2="-31529" y1="-31266" x2="-32445" x1="-31636" fill="none"/><line y2="-31662" y1="-31399" x2="-32401" x1="-31592" fill="none"/><line y2="-31332" y1="-31855" x2="-27958" x1="-28865" fill="none"/><line y2="-32762" y1="-31855" x2="-28340" x1="-28865" fill="none"/><line y2="-32762" y1="-31855" x2="-29388" x1="-28865" fill="none"/><polygon stroke-width="1" stroke="none" points=" -29772 -31332 -28900 -31913 -28831 -31795"/><polygon stroke-width="1" points=" -29772 -31332 -28900 -31913 -28831 -31795" fill="none"/><text y="-29229" xml:space="preserve" x="-29692" stroke-width="1" stroke="none" font-size="433.3333" font-family="sans-serif">O</text><text y="-31477" xml:space="preserve" x="-32762" stroke-width="1" stroke="none" font-size="433.3333" font-family="sans-serif">O</text><text y="-31850" xml:space="preserve" x="-30824" stroke-width="1" stroke="none" font-size="433.3333" font-family="sans-serif">NH</text><text y="-30087" xml:space="preserve" x="-31439" stroke-width="1" stroke="none" font-size="433.3333" font-family="sans-serif">O</text></g><g transform="translate(32866,32866)" text-rendering="geometricPrecision" stroke-linejoin="round" stroke-linecap="round" font-style="italic" font-size="313.3333" font-family="sans-serif"><text y="-31055" xml:space="preserve" x="-30194" stroke="none">S</text></g></g></svg>