<svg width="296.16" viewBox="0 0 9872 6626" text-rendering="auto" stroke-width="1" stroke-opacity="1" stroke-miterlimit="10" stroke-linejoin="miter" stroke-linecap="square" stroke-dashoffset="0" stroke-dasharray="none" stroke="black" shape-rendering="auto" image-rendering="auto" height="198.78" font-weight="normal" font-style="normal" font-size="12" font-family="'Dialog'" fill-opacity="1" fill="black" color-rendering="auto" color-interpolation="auto" xmlns="http://www.w3.org/2000/svg"><g><g stroke="white" fill="white"><rect y="0" x="0" width="9872" stroke="none" height="6626"/></g><g transform="translate(32866,32866)" text-rendering="geometricPrecision" stroke-width="44" stroke-linejoin="round" stroke-linecap="round"><line y2="-30009" y1="-29403" x2="-27493" x1="-28550" fill="none"/><line y2="-29510" y1="-30009" x2="-26632" x1="-27493" fill="none"/><line y2="-29403" y1="-28186" x2="-28550" x1="-28550" fill="none"/><line y2="-29250" y1="-28340" x2="-28380" x1="-28380" fill="none"/><line y2="-29403" y1="-29790" x2="-28550" x1="-29221" fill="none"/><line y2="-28186" y1="-29183" x2="-26444" x1="-26444" fill="none"/><line y2="-28186" y1="-28186" x2="-30656" x1="-28550" fill="none"/><line y2="-28186" y1="-27577" x2="-28550" x1="-27493" fill="none"/><line y2="-29900" y1="-29403" x2="-29790" x1="-30656" fill="none"/><line y2="-27577" y1="-28186" x2="-27493" x1="-26444" fill="none"/><line y2="-29403" y1="-28186" x2="-30656" x1="-30656" fill="none"/><line y2="-27577" y1="-28186" x2="-31708" x1="-30656" fill="none"/><line y2="-27802" y1="-28256" x2="-31662" x1="-30873" fill="none"/><line y2="-29403" y1="-30009" x2="-30656" x1="-31708" fill="none"/><line y2="-29330" y1="-29784" x2="-30873" x1="-31662" fill="none"/><line y2="-28186" y1="-27577" x2="-32762" x1="-31708" fill="none"/><line y2="-30009" y1="-29403" x2="-31708" x1="-32762" fill="none"/><line y2="-29403" y1="-28186" x2="-32762" x1="-32762" fill="none"/><line y2="-29250" y1="-28340" x2="-32592" x1="-32592" fill="none"/><line y2="-29926" y1="-29510" x2="-25537" x1="-26257" fill="none"/><line y2="-30489" y1="-31055" x2="-28481" x1="-27493" fill="none"/><line y2="-31055" y1="-32193" x2="-27493" x1="-27493" fill="none"/><line y2="-31200" y1="-32052" x2="-27664" x1="-27664" fill="none"/><line y2="-31055" y1="-30489" x2="-29463" x1="-28481" fill="none"/><line y2="-31133" y1="-30706" x2="-29258" x1="-28519" fill="none"/><line y2="-32193" y1="-32762" x2="-27493" x1="-28481" fill="none"/><line y2="-32193" y1="-31055" x2="-29463" x1="-29463" fill="none"/><line y2="-30596" y1="-31055" x2="-30264" x1="-29463" fill="none"/><line y2="-32762" y1="-32193" x2="-28481" x1="-29463" fill="none"/><line y2="-32546" y1="-32118" x2="-28519" x1="-29258" fill="none"/><line y2="-32193" y1="-32193" x2="-29463" x1="-31249" fill="none"/><line y2="-31055" y1="-30596" x2="-31436" x1="-30642" fill="none"/><line y2="-31974" y1="-31055" x2="-31436" x1="-31436" fill="none"/><line y2="-29403" y1="-29926" x2="-24630" x1="-25537" fill="none"/><line y2="-29729" y1="-29403" x2="-24061" x1="-24630" fill="none"/><line y2="-30755" y1="-29926" x2="-25607" x1="-25607" fill="none"/><line y2="-30755" y1="-29926" x2="-25468" x1="-25468" fill="none"/><line y2="-28077" y1="-27664" x2="-24818" x1="-25537" fill="none"/><line y2="-27770" y1="-28077" x2="-23911" x1="-24442" fill="none"/><line y2="-26834" y1="-27664" x2="-25468" x1="-25468" fill="none"/><line y2="-26834" y1="-27623" x2="-25607" x1="-25607" fill="none"/><line y2="-31055" y1="-31055" x2="-27427" x1="-27562" fill="none"/><line y2="-30838" y1="-30838" x2="-27441" x1="-27548" fill="none"/><line y2="-30622" y1="-30622" x2="-27454" x1="-27533" fill="none"/><line y2="-30405" y1="-30405" x2="-27468" x1="-27519" fill="none"/><line y2="-30188" y1="-30188" x2="-27482" x1="-27505" fill="none"/><line y2="-27600" y1="-27721" x2="-25569" x1="-25503" fill="none"/><line y2="-27721" y1="-27817" x2="-25750" x1="-25697" fill="none"/><line y2="-27842" y1="-27913" x2="-25930" x1="-25892" fill="none"/><line y2="-27963" y1="-28009" x2="-26111" x1="-26086" fill="none"/><line y2="-28084" y1="-28105" x2="-26292" x1="-26280" fill="none"/><text y="-30795" xml:space="preserve" x="-25690" stroke="none" font-size="433.3333" font-family="sans-serif">O</text><text y="-29746" xml:space="preserve" x="-23954" stroke="none" font-size="433.3333" font-family="sans-serif">Cl</text><text y="-28007" xml:space="preserve" x="-24780" stroke="none" font-size="433.3333" font-family="sans-serif">O</text><text y="-26436" xml:space="preserve" x="-25690" stroke="none" font-size="433.3333" font-family="sans-serif">O</text><text y="-27484" xml:space="preserve" x="-23873" stroke="none" font-size="433.3333" font-family="sans-serif">CH</text><text y="-27395" xml:space="preserve" x="-23296" stroke="none" font-size="313.3333" font-family="sans-serif">3</text><text y="-29224" xml:space="preserve" x="-26598" stroke="none" font-size="433.3333" font-family="sans-serif">N</text><text y="-29830" xml:space="preserve" x="-29752" stroke="none" font-size="433.3333" font-family="sans-serif">NH</text><text y="-30310" xml:space="preserve" x="-30604" stroke="none" font-size="433.3333" font-family="sans-serif">O</text><text y="-32014" xml:space="preserve" x="-31587" stroke="none" font-size="433.3333" font-family="sans-serif">O</text><text y="-29527" xml:space="preserve" x="-27646" stroke="none" font-style="italic" font-size="313.3333" font-family="sans-serif">S</text><text y="-28152" xml:space="preserve" x="-26843" stroke="none" font-style="italic" font-size="313.3333" font-family="sans-serif">S</text></g></g></svg>