<svg width="245.43" viewBox="0 0 8181 4204" text-rendering="auto" stroke-width="1" stroke-opacity="1" stroke-miterlimit="10" stroke-linejoin="miter" stroke-linecap="square" stroke-dashoffset="0" stroke-dasharray="none" stroke="black" shape-rendering="auto" image-rendering="auto" height="126.12" font-weight="normal" font-style="normal" font-size="12" font-family="'Dialog'" fill-opacity="1" fill="black" color-rendering="auto" color-interpolation="auto" xmlns="http://www.w3.org/2000/svg"><g><g stroke="white" fill="white"><rect y="0" x="0" width="8181" stroke="none" height="4204"/></g><g transform="translate(32866,32758)" text-rendering="geometricPrecision" stroke-width="44" stroke-linejoin="round" stroke-linecap="round"><line y2="-29541" y1="-30763" x2="-29608" x1="-29608" fill="none"/><line y2="-29694" y1="-30610" x2="-29778" x1="-29778" fill="none"/><line y2="-29541" y1="-29039" x2="-29608" x1="-28750" fill="none"/><line y2="-29148" y1="-29541" x2="-30281" x1="-29608" fill="none"/><line y2="-31266" y1="-30763" x2="-28750" x1="-29608" fill="none"/><line y2="-30763" y1="-31376" x2="-29608" x1="-30656" fill="none"/><line y2="-29148" y1="-29541" x2="-28184" x1="-27510" fill="none"/><line y2="-29541" y1="-29039" x2="-31705" x1="-30844" fill="none"/><line y2="-30763" y1="-31156" x2="-27510" x1="-28184" fill="none"/><line y2="-31376" y1="-30873" x2="-30656" x1="-31514" fill="none"/><line y2="-29541" y1="-30763" x2="-27510" x1="-27510" fill="none"/><line y2="-30544" y1="-29541" x2="-31705" x1="-31705" fill="none"/><line y2="-30420" y1="-29666" x2="-31535" x1="-31535" fill="none"/><line y2="-31289" y1="-30763" x2="-26603" x1="-27510" fill="none"/><line y2="-29235" y1="-29541" x2="-32231" x1="-31705" fill="none"/><line y2="-32202" y1="-31376" x2="-30726" x1="-30726" fill="none"/><line y2="-32202" y1="-31376" x2="-30587" x1="-30587" fill="none"/><line y2="-30763" y1="-31289" x2="-25696" x1="-26603" fill="none"/><line y2="-31289" y1="-30763" x2="-24789" x1="-25696" fill="none"/><polygon stroke-width="1" stroke="none" points=" -26603 -31289 -26673 -32115 -26537 -32115"/><polygon stroke-width="1" points=" -26603 -31289 -26673 -32115 -26537 -32115" fill="none"/><line y2="-30287" y1="-30408" x2="-26826" x1="-26759" fill="none"/><line y2="-30411" y1="-30501" x2="-27005" x1="-26955" fill="none"/><line y2="-30536" y1="-30594" x2="-27183" x1="-27152" fill="none"/><line y2="-30660" y1="-30686" x2="-27362" x1="-27348" fill="none"/><line y2="-29934" y1="-29934" x2="-25766" x1="-25630" fill="none"/><line y2="-30151" y1="-30151" x2="-25748" x1="-25647" fill="none"/><line y2="-30367" y1="-30367" x2="-25729" x1="-25664" fill="none"/><line y2="-30584" y1="-30584" x2="-25711" x1="-25682" fill="none"/><text y="-32242" xml:space="preserve" x="-30810" stroke="none" font-size="433.3333" font-family="sans-serif">O</text><text y="-28836" xml:space="preserve" x="-32762" stroke="none" font-size="433.3333" font-family="sans-serif">NH</text><text y="-28747" xml:space="preserve" x="-32185" stroke="none" font-size="313.3333" font-family="sans-serif">2</text><text y="-32156" xml:space="preserve" x="-26756" stroke="none" font-size="433.3333" font-family="sans-serif">OH</text><text y="-29538" xml:space="preserve" x="-25849" stroke="none" font-size="433.3333" font-family="sans-serif">OH</text><text y="-28750" xml:space="preserve" x="-28712" stroke="none" font-size="433.3333" font-family="sans-serif">NH</text><text y="-28750" xml:space="preserve" x="-30810" stroke="none" font-size="433.3333" font-family="sans-serif">NH</text><text y="-31197" xml:space="preserve" x="-28712" stroke="none" font-size="433.3333" font-family="sans-serif">NH</text><text y="-30584" xml:space="preserve" x="-31855" stroke="none" font-size="433.3333" font-family="sans-serif">N</text><text y="-30061" xml:space="preserve" x="-26756" stroke="none" font-size="433.3333" font-family="sans-serif">H</text><text y="-30807" xml:space="preserve" x="-26756" stroke="none" font-style="italic" font-size="313.3333" font-family="sans-serif">R</text><text y="-30888" xml:space="preserve" x="-25849" stroke="none" font-style="italic" font-size="313.3333" font-family="sans-serif">S</text><text y="-30888" xml:space="preserve" x="-27664" stroke="none" font-style="italic" font-size="313.3333" font-family="sans-serif">R</text></g></g></svg>