<svg width="388.26" viewBox="0 0 12942 10045" text-rendering="auto" stroke-width="1" stroke-opacity="1" stroke-miterlimit="10" stroke-linejoin="miter" stroke-linecap="square" stroke-dashoffset="0" stroke-dasharray="none" stroke="black" shape-rendering="auto" image-rendering="auto" height="301.35" font-weight="normal" font-style="normal" font-size="12" font-family="'Dialog'" fill-opacity="1" fill="black" color-rendering="auto" color-interpolation="auto" xmlns="http://www.w3.org/2000/svg"><g><g stroke="white" fill="white"><rect y="0" x="0" width="12942" stroke="none" height="10045"/></g><g transform="translate(32866,32866)" text-rendering="geometricPrecision" stroke-width="44" stroke-linejoin="round" stroke-linecap="round"><line y2="-27126" y1="-26551" x2="-28678" x1="-29660" fill="none"/><line y2="-26661" y1="-27126" x2="-27883" x1="-28678" fill="none"/><line y2="-26574" y1="-26921" x2="-28068" x1="-28663" fill="none"/><line y2="-25404" y1="-26551" x2="-29660" x1="-29660" fill="none"/><line y2="-25549" y1="-26410" x2="-29830" x1="-29830" fill="none"/><line y2="-26551" y1="-27126" x2="-29660" x1="-30642" fill="none"/><line y2="-25404" y1="-26332" x2="-27695" x1="-27695" fill="none"/><line y2="-25404" y1="-24832" x2="-29660" x1="-28678" fill="none"/><line y2="-24832" y1="-25404" x2="-30642" x1="-29660" fill="none"/><line y2="-27126" y1="-26551" x2="-30642" x1="-31624" fill="none"/><line y2="-26907" y1="-26476" x2="-30680" x1="-31416" fill="none"/><line y2="-24832" y1="-25404" x2="-28678" x1="-27695" fill="none"/><line y2="-25052" y1="-25480" x2="-28640" x1="-27903" fill="none"/><line y2="-25404" y1="-24832" x2="-31624" x1="-30642" fill="none"/><line y2="-25480" y1="-25052" x2="-31416" x1="-30680" fill="none"/><line y2="-26551" y1="-25404" x2="-31624" x1="-31624" fill="none"/><line y2="-27952" y1="-27126" x2="-28678" x1="-28678" fill="none"/><line y2="-24003" y1="-24832" x2="-28678" x1="-28678" fill="none"/><line y2="-23368" y1="-23677" x2="-27958" x1="-28490" fill="none"/><line y2="-26878" y1="-26551" x2="-32190" x1="-31624" fill="none"/><line y2="-28698" y1="-29541" x2="-25927" x1="-26187" fill="none"/><line y2="-28002" y1="-28698" x2="-26869" x1="-25927" fill="none"/><line y2="-29761" y1="-29761" x2="-26444" x1="-27404" fill="none"/><line y2="-28698" y1="-28002" x2="-27770" x1="-26869" fill="none"/><line y2="-29761" y1="-28698" x2="-27404" x1="-27770" fill="none"/><line y2="-30284" y1="-29868" x2="-25350" x1="-26069" fill="none"/><line y2="-28360" y1="-27944" x2="-24093" x1="-24812" fill="none"/><line y2="-27944" y1="-28247" x2="-22998" x1="-23524" fill="none"/><line y2="-27115" y1="-27944" x2="-24743" x1="-24743" fill="none"/><line y2="-27115" y1="-27906" x2="-24882" x1="-24882" fill="none"/><line y2="-29928" y1="-30324" x2="-24596" x1="-25280" fill="none"/><line y2="-29807" y1="-30223" x2="-24665" x1="-25384" fill="none"/><line y2="-27944" y1="-27944" x2="-21851" x1="-22998" fill="none"/><line y2="-27944" y1="-26962" x2="-22998" x1="-22423" fill="none"/><line y2="-26962" y1="-27944" x2="-22423" x1="-21851" fill="none"/><line y2="-27958" y1="-28467" x2="-20028" x1="-20944" fill="none"/><line y2="-27837" y1="-28345" x2="-20095" x1="-21010" fill="none"/><line y2="-31855" y1="-31332" x2="-24442" x1="-25350" fill="none"/><line y2="-31636" y1="-31332" x2="-25878" x1="-25350" fill="none"/><line y2="-31332" y1="-31746" x2="-27167" x1="-26444" fill="none"/><line y2="-25263" y1="-25832" x2="-24194" x1="-24708" fill="none"/><line y2="-25543" y1="-25274" x2="-23163" x1="-23628" fill="none"/><line y2="-25586" y1="-25766" x2="-25532" x1="-24694" fill="none"/><line y2="-25722" y1="-25896" x2="-25560" x1="-24746" fill="none"/><line y2="-31347" y1="-31855" x2="-23527" x1="-24442" fill="none"/><line y2="-32762" y1="-31855" x2="-23920" x1="-24442" fill="none"/><line y2="-32762" y1="-31855" x2="-24965" x1="-24442" fill="none"/><line y2="-31746" y1="-31332" x2="-27886" x1="-27167" fill="none"/><line y2="-31347" y1="-31751" x2="-28990" x1="-28262" fill="none"/><line y2="-30503" y1="-31332" x2="-27097" x1="-27097" fill="none"/><line y2="-30503" y1="-31332" x2="-27236" x1="-27236" fill="none"/><line y2="-25113" y1="-25537" x2="-22076" x1="-22787" fill="none"/><line y2="-26375" y1="-25904" x2="-22637" x1="-22908" fill="none"/><line y2="-26306" y1="-25835" x2="-22516" x1="-22787" fill="none"/><line y2="-26306" y1="-25835" x2="-23434" x1="-23163" fill="none"/><line y2="-26375" y1="-25904" x2="-23310" x1="-23041" fill="none"/><line y2="-31870" y1="-31347" x2="-29897" x1="-28990" fill="none"/><line y2="-30448" y1="-31347" x2="-29530" x1="-28990" fill="none"/><line y2="-30428" y1="-31347" x2="-28481" x1="-28990" fill="none"/><line y2="-25113" y1="-25113" x2="-20930" x1="-22076" fill="none"/><line y2="-25113" y1="-24130" x2="-22076" x1="-21504" fill="none"/><line y2="-24130" y1="-25113" x2="-21504" x1="-20930" fill="none"/><polygon stroke-width="1" stroke="none" points=" -28455 -28221 -27770 -28698 -28524 -28340"/><polygon stroke-width="1" points=" -28455 -28221 -27770 -28698 -28524 -28340" fill="none"/><polygon stroke-width="1" stroke="none" points=" -25280 -30284 -25350 -31332 -25419 -30284"/><polygon stroke-width="1" points=" -25280 -30284 -25350 -31332 -25419 -30284" fill="none"/><line y2="-27886" y1="-27999" x2="-24850" x1="-24772" fill="none"/><line y2="-28017" y1="-28111" x2="-25023" x1="-24958" fill="none"/><line y2="-28147" y1="-28224" x2="-25196" x1="-25143" fill="none"/><line y2="-28278" y1="-28336" x2="-25369" x1="-25329" fill="none"/><line y2="-28408" y1="-28449" x2="-25543" x1="-25515" fill="none"/><line y2="-28539" y1="-28561" x2="-25716" x1="-25700" fill="none"/><line y2="-28669" y1="-28673" x2="-25889" x1="-25886" fill="none"/><line y2="-25875" y1="-25789" x2="-24760" x1="-24653" fill="none"/><line y2="-26040" y1="-25961" x2="-24619" x1="-24521" fill="none"/><line y2="-26205" y1="-26133" x2="-24479" x1="-24389" fill="none"/><line y2="-26370" y1="-26305" x2="-24338" x1="-24257" fill="none"/><line y2="-26535" y1="-26477" x2="-24198" x1="-24125" fill="none"/><line y2="-26700" y1="-26648" x2="-24057" x1="-23993" fill="none"/><line y2="-26865" y1="-26820" x2="-23917" x1="-23861" fill="none"/><line y2="-27030" y1="-26992" x2="-23776" x1="-23729" fill="none"/><line y2="-27195" y1="-27164" x2="-23636" x1="-23597" fill="none"/><line y2="-27360" y1="-27336" x2="-23495" x1="-23465" fill="none"/><line y2="-27525" y1="-27508" x2="-23355" x1="-23333" fill="none"/><line y2="-27690" y1="-27680" x2="-23214" x1="-23201" fill="none"/><line y2="-27855" y1="-27852" x2="-23074" x1="-23069" fill="none"/><line y2="-28406" y1="-28527" x2="-20909" x1="-20979" fill="none"/><line y2="-28310" y1="-28406" x2="-21104" x1="-21159" fill="none"/><line y2="-28215" y1="-28286" x2="-21299" x1="-21340" fill="none"/><line y2="-28119" y1="-28165" x2="-21494" x1="-21520" fill="none"/><line y2="-28023" y1="-28044" x2="-21689" x1="-21701" fill="none"/><text y="-28288" xml:space="preserve" x="-24055" stroke="none" font-size="433.3333" font-family="sans-serif">NH</text><text y="-26719" xml:space="preserve" x="-24962" stroke="none" font-size="433.3333" font-family="sans-serif">O</text><text y="-24876" xml:space="preserve" x="-24159" stroke="none" font-size="433.3333" font-family="sans-serif">NH</text><text y="-25436" xml:space="preserve" x="-25884" stroke="none" font-size="433.3333" font-family="sans-serif">O</text><text y="-25471" xml:space="preserve" x="-23128" stroke="none" font-size="433.3333" font-family="sans-serif">S</text><text y="-26381" xml:space="preserve" x="-22602" stroke="none" font-size="433.3333" font-family="sans-serif">O</text><text y="-26381" xml:space="preserve" x="-23651" stroke="none" font-size="433.3333" font-family="sans-serif">O</text><text y="-29582" xml:space="preserve" x="-24596" stroke="none" font-size="433.3333" font-family="sans-serif">O</text><text y="-31676" xml:space="preserve" x="-26410" stroke="none" font-size="433.3333" font-family="sans-serif">NH</text><text y="-31676" xml:space="preserve" x="-28227" stroke="none" font-size="433.3333" font-family="sans-serif">O</text><text y="-30105" xml:space="preserve" x="-27317" stroke="none" font-size="433.3333" font-family="sans-serif">O</text><text y="-27993" xml:space="preserve" x="-28831" stroke="none" font-size="433.3333" font-family="sans-serif">O</text><text y="-23605" xml:space="preserve" x="-28831" stroke="none" font-size="433.3333" font-family="sans-serif">O</text><text y="-23082" xml:space="preserve" x="-27924" stroke="none" font-size="433.3333" font-family="sans-serif">CH</text><text y="-22992" xml:space="preserve" x="-27346" stroke="none" font-size="313.3333" font-family="sans-serif">3</text><text y="-26898" xml:space="preserve" x="-32762" stroke="none" font-size="433.3333" font-family="sans-serif">Cl</text><text y="-29582" xml:space="preserve" x="-26407" stroke="none" font-size="433.3333" font-family="sans-serif">N</text><text y="-26372" xml:space="preserve" x="-27848" stroke="none" font-size="433.3333" font-family="sans-serif">N</text><text y="-31454" xml:space="preserve" x="-25503" stroke="none" font-style="italic" font-size="313.3333" font-family="sans-serif">S</text><text y="-28042" xml:space="preserve" x="-23076" stroke="none" font-style="italic" font-size="313.3333" font-family="sans-serif">R</text><text y="-28042" xml:space="preserve" x="-22076" stroke="none" font-style="italic" font-size="313.3333" font-family="sans-serif">S</text><text y="-28591" xml:space="preserve" x="-26358" stroke="none" font-style="italic" font-size="313.3333" font-family="sans-serif">S</text><text y="-28614" xml:space="preserve" x="-27655" stroke="none" font-style="italic" font-size="313.3333" font-family="sans-serif">R</text></g></g></svg>