<svg width="192.0" viewBox="0 0 6400 3156" text-rendering="auto" stroke-width="1" stroke-opacity="1" stroke-miterlimit="10" stroke-linejoin="miter" stroke-linecap="square" stroke-dashoffset="0" stroke-dasharray="none" stroke="black" shape-rendering="auto" image-rendering="auto" height="94.68" font-weight="normal" font-style="normal" font-size="12" font-family="'Dialog'" fill-opacity="1" fill="black" color-rendering="auto" color-interpolation="auto" xmlns="http://www.w3.org/2000/svg"><g><g stroke="white" fill="white"><rect y="0" x="0" width="6400" stroke="none" height="3156"/></g><g transform="translate(32866,32758)" text-rendering="geometricPrecision" stroke-width="44" stroke-linejoin="round" stroke-linecap="round"><line y2="-30590" y1="-31812" x2="-29758" x1="-29758" fill="none"/><line y2="-32315" y1="-31812" x2="-28897" x1="-29758" fill="none"/><line y2="-31812" y1="-32422" x2="-29758" x1="-30807" fill="none"/><line y2="-31740" y1="-32199" x2="-29975" x1="-30760" fill="none"/><line y2="-30590" y1="-30087" x2="-29758" x1="-28897" fill="none"/><line y2="-29978" y1="-30590" x2="-30807" x1="-29758" fill="none"/><line y2="-30200" y1="-30659" x2="-30760" x1="-29975" fill="none"/><line y2="-31812" y1="-32202" x2="-27664" x1="-28334" fill="none"/><line y2="-32422" y1="-31812" x2="-30807" x1="-31855" fill="none"/><line y2="-30197" y1="-30590" x2="-28334" x1="-27664" fill="none"/><line y2="-30590" y1="-29978" x2="-31855" x1="-30807" fill="none"/><line y2="-30590" y1="-31812" x2="-27664" x1="-27664" fill="none"/><line y2="-31812" y1="-30590" x2="-31855" x1="-31855" fill="none"/><line y2="-31659" y1="-30743" x2="-31685" x1="-31685" fill="none"/><line y2="-32335" y1="-31812" x2="-32762" x1="-31855" fill="none"/><line y2="-32289" y1="-31873" x2="-26979" x1="-27698" fill="none"/><line y2="-32167" y1="-31751" x2="-26910" x1="-27626" fill="none"/><line y2="-30235" y1="-30651" x2="-26910" x1="-27626" fill="none"/><line y2="-30113" y1="-30529" x2="-26979" x1="-27698" fill="none"/><text y="-32156" xml:space="preserve" x="-26907" stroke="none" font-size="433.3333" font-family="sans-serif">O</text><text y="-29885" xml:space="preserve" x="-26907" stroke="none" font-size="433.3333" font-family="sans-serif">O</text><text y="-32242" xml:space="preserve" x="-28862" stroke="none" font-size="433.3333" font-family="sans-serif">NH</text><text y="-29798" xml:space="preserve" x="-28862" stroke="none" font-size="433.3333" font-family="sans-serif">NH</text></g></g></svg>