<svg width="321.96" viewBox="0 0 10732 5320" text-rendering="auto" stroke-width="1" stroke-opacity="1" stroke-miterlimit="10" stroke-linejoin="miter" stroke-linecap="square" stroke-dashoffset="0" stroke-dasharray="none" stroke="black" shape-rendering="auto" image-rendering="auto" height="159.6" font-weight="normal" font-style="normal" font-size="12" font-family="'Dialog'" fill-opacity="1" fill="black" color-rendering="auto" color-interpolation="auto" xmlns="http://www.w3.org/2000/svg"><g><g stroke="white" fill="white"><rect y="0" x="0" width="10732" stroke="none" height="5320"/></g><g transform="translate(32866,32866)" text-rendering="geometricPrecision" stroke-width="44" stroke-linejoin="round" stroke-linecap="round"><line y2="-30489" y1="-29351" x2="-25196" x1="-25196" fill="none"/><line y2="-30344" y1="-29492" x2="-25026" x1="-25026" fill="none"/><line y2="-31055" y1="-30489" x2="-24208" x1="-25196" fill="none"/><line y2="-30489" y1="-31055" x2="-25196" x1="-26182" fill="none"/><line y2="-29351" y1="-29351" x2="-26638" x1="-25196" fill="none"/><line y2="-29351" y1="-28782" x2="-25196" x1="-24208" fill="none"/><line y2="-30489" y1="-31055" x2="-23226" x1="-24208" fill="none"/><line y2="-32193" y1="-31055" x2="-24208" x1="-24208" fill="none"/><line y2="-32052" y1="-31200" x2="-24038" x1="-24038" fill="none"/><line y2="-31055" y1="-30489" x2="-26182" x1="-27167" fill="none"/><line y2="-30489" y1="-29570" x2="-27167" x1="-27167" fill="none"/><line y2="-30373" y1="-29686" x2="-26996" x1="-26996" fill="none"/><line y2="-28782" y1="-29351" x2="-24208" x1="-23226" fill="none"/><line y2="-28998" y1="-29426" x2="-24171" x1="-23434" fill="none"/><line y2="-29351" y1="-30489" x2="-23226" x1="-23226" fill="none"/><line y2="-30489" y1="-31055" x2="-23226" x1="-22238" fill="none"/><line y2="-30706" y1="-31133" x2="-23189" x1="-22446" fill="none"/><line y2="-32762" y1="-32193" x2="-23226" x1="-24208" fill="none"/><line y2="-31055" y1="-32193" x2="-22238" x1="-22238" fill="none"/><line y2="-32193" y1="-32762" x2="-22238" x1="-23226" fill="none"/><line y2="-32118" y1="-32543" x2="-22446" x1="-23189" fill="none"/><line y2="-28828" y1="-29241" x2="-28074" x1="-27354" fill="none"/><line y2="-29351" y1="-28828" x2="-28981" x1="-28074" fill="none"/><line y2="-28828" y1="-29351" x2="-29888" x1="-28981" fill="none"/><line y2="-29351" y1="-28828" x2="-30795" x1="-29888" fill="none"/><line y2="-28935" y1="-29351" x2="-31514" x1="-30795" fill="none"/><line y2="-31881" y1="-31055" x2="-26826" x1="-26182" fill="none"/><line y2="-31847" y1="-31055" x2="-25491" x1="-26182" fill="none"/><line y2="-31012" y1="-30489" x2="-28074" x1="-27167" fill="none"/><line y2="-29186" y1="-28935" x2="-32326" x1="-31890" fill="none"/><line y2="-28103" y1="-28574" x2="-32040" x1="-31769" fill="none"/><line y2="-28175" y1="-28643" x2="-32162" x1="-31890" fill="none"/><line y2="-28175" y1="-28643" x2="-31246" x1="-31517" fill="none"/><line y2="-28103" y1="-28574" x2="-31367" x1="-31639" fill="none"/><text y="-28649" xml:space="preserve" x="-31855" stroke="none" font-size="433.3333" font-family="sans-serif">S</text><text y="-27742" xml:space="preserve" x="-32378" stroke="none" font-size="433.3333" font-family="sans-serif">O</text><text y="-27742" xml:space="preserve" x="-31332" stroke="none" font-size="433.3333" font-family="sans-serif">O</text><text y="-29172" xml:space="preserve" x="-32762" stroke="none" font-size="433.3333" font-family="sans-serif">O</text><text y="-29172" xml:space="preserve" x="-27320" stroke="none" font-size="433.3333" font-family="sans-serif">N</text><text y="-29226" xml:space="preserve" x="-32439" stroke="none" font-size="313.3333" font-family="sans-serif">-</text><text y="-29281" xml:space="preserve" x="-26979" stroke="none" font-size="313.3333" font-family="sans-serif">+</text></g></g></svg>