<svg width="542.4" viewBox="0 0 18080 8538" text-rendering="auto" stroke-width="1" stroke-opacity="1" stroke-miterlimit="10" stroke-linejoin="miter" stroke-linecap="square" stroke-dashoffset="0" stroke-dasharray="none" stroke="black" shape-rendering="auto" image-rendering="auto" height="256.14" font-weight="normal" font-style="normal" font-size="12" font-family="'Dialog'" fill-opacity="1" fill="black" color-rendering="auto" color-interpolation="auto" xmlns="http://www.w3.org/2000/svg"><g><g stroke="white" fill="white"><rect y="0" x="0" width="18080" stroke="none" height="8538"/></g><g transform="translate(32866,32758)" text-rendering="geometricPrecision" stroke-width="44" stroke-linejoin="round" stroke-linecap="round"><line y2="-25644" y1="-26216" x2="-25806" x1="-24824" fill="none"/><line y2="-26216" y1="-25685" x2="-24824" x1="-23842" fill="none"/><line y2="-27363" y1="-26216" x2="-24824" x1="-24824" fill="none"/><line y2="-27219" y1="-26361" x2="-24653" x1="-24653" fill="none"/><line y2="-26106" y1="-25644" x2="-26600" x1="-25806" fill="none"/><line y2="-25685" y1="-26216" x2="-23842" x1="-22859" fill="none"/><line y2="-25901" y1="-26300" x2="-23798" x1="-23062" fill="none"/><line y2="-27935" y1="-27363" x2="-23842" x1="-24824" fill="none"/><line y2="-25644" y1="-26106" x2="-27773" x1="-26976" fill="none"/><line y2="-26216" y1="-27363" x2="-22859" x1="-22859" fill="none"/><line y2="-27363" y1="-27935" x2="-22859" x1="-23842" fill="none"/><line y2="-27288" y1="-27718" x2="-23067" x1="-23804" fill="none"/><line y2="-26216" y1="-25644" x2="-28756" x1="-27773" fill="none"/><line y2="-27363" y1="-27935" x2="-22859" x1="-21877" fill="none"/><line y2="-26216" y1="-26216" x2="-30720" x1="-28756" fill="none"/><line y2="-27935" y1="-27473" x2="-21877" x1="-21083" fill="none"/><line y2="-27363" y1="-26216" x2="-30720" x1="-30720" fill="none"/><line y2="-27473" y1="-27935" x2="-20707" x1="-19910" fill="none"/><line y2="-27825" y1="-27363" x2="-31514" x1="-30720" fill="none"/><line y2="-27935" y1="-27363" x2="-19910" x1="-18928" fill="none"/><line y2="-29082" y1="-28155" x2="-31702" x1="-31702" fill="none"/><line y2="-27363" y1="-27935" x2="-18928" x1="-17945" fill="none"/><line y2="-29654" y1="-29082" x2="-30720" x1="-31702" fill="none"/><line y2="-27935" y1="-27363" x2="-17945" x1="-16963" fill="none"/><line y2="-30801" y1="-29654" x2="-30720" x1="-30720" fill="none"/><line y2="-29654" y1="-29082" x2="-30720" x1="-29738" fill="none"/><line y2="-29732" y1="-29302" x2="-30512" x1="-29772" fill="none"/><line y2="-27363" y1="-27825" x2="-16963" x1="-16169" fill="none"/><line y2="-31376" y1="-30801" x2="-29738" x1="-30720" fill="none"/><line y2="-31156" y1="-30726" x2="-29772" x1="-30512" fill="none"/><line y2="-29654" y1="-29082" x2="-28756" x1="-29738" fill="none"/><line y2="-28155" y1="-29082" x2="-15981" x1="-15981" fill="none"/><line y2="-30801" y1="-31376" x2="-28756" x1="-29738" fill="none"/><line y2="-29654" y1="-30801" x2="-28756" x1="-28756" fill="none"/><line y2="-29798" y1="-30659" x2="-28926" x1="-28926" fill="none"/><line y2="-29082" y1="-29654" x2="-15981" x1="-16963" fill="none"/><line y2="-30844" y1="-30801" x2="-26748" x1="-28756" fill="none"/><line y2="-29122" y1="-29654" x2="-17945" x1="-16963" fill="none"/><line y2="-29654" y1="-30801" x2="-16963" x1="-16963" fill="none"/><line y2="-29798" y1="-30659" x2="-17134" x1="-17134" fill="none"/><line y2="-31269" y1="-30844" x2="-25994" x1="-26748" fill="none"/><line y2="-29654" y1="-29122" x2="-18928" x1="-17945" fill="none"/><line y2="-29738" y1="-29339" x2="-18725" x1="-17989" fill="none"/><line y2="-30801" y1="-31376" x2="-16963" x1="-17945" fill="none"/><line y2="-30801" y1="-31266" x2="-24824" x1="-25618" fill="none"/><line y2="-30801" y1="-29654" x2="-18928" x1="-18928" fill="none"/><line y2="-31376" y1="-30801" x2="-17945" x1="-18928" fill="none"/><line y2="-31156" y1="-30726" x2="-17983" x1="-18720" fill="none"/><line y2="-31376" y1="-30801" x2="-23842" x1="-24824" fill="none"/><line y2="-30801" y1="-31376" x2="-18928" x1="-19910" fill="none"/><line y2="-30801" y1="-31376" x2="-22859" x1="-23842" fill="none"/><line y2="-31376" y1="-30911" x2="-19910" x1="-20707" fill="none"/><line y2="-31376" y1="-30801" x2="-21877" x1="-22859" fill="none"/><line y2="-30911" y1="-31376" x2="-21083" x1="-21877" fill="none"/><line y2="-24815" y1="-25644" x2="-25737" x1="-25737" fill="none"/><line y2="-24815" y1="-25644" x2="-25875" x1="-25875" fill="none"/><line y2="-27109" y1="-27895" x2="-21808" x1="-21808" fill="none"/><line y2="-27109" y1="-27895" x2="-21946" x1="-21946" fill="none"/><line y2="-29437" y1="-29021" x2="-32456" x1="-31737" fill="none"/><line y2="-29559" y1="-29143" x2="-32387" x1="-31668" fill="none"/><line y2="-29559" y1="-29143" x2="-15296" x1="-16016" fill="none"/><line y2="-29437" y1="-29021" x2="-15227" x1="-15946" fill="none"/><line y2="-31618" y1="-30841" x2="-27028" x1="-26820" fill="none"/><line y2="-31653" y1="-30879" x2="-26895" x1="-26687" fill="none"/><line y2="-32202" y1="-31376" x2="-19982" x1="-19982" fill="none"/><line y2="-32202" y1="-31376" x2="-19840" x1="-19840" fill="none"/><text y="-24416" xml:space="preserve" x="-25959" stroke="none" font-size="433.3333" font-family="sans-serif">O</text><text y="-26710" xml:space="preserve" x="-22030" stroke="none" font-size="433.3333" font-family="sans-serif">O</text><text y="-29426" xml:space="preserve" x="-32762" stroke="none" font-size="433.3333" font-family="sans-serif">O</text><text y="-29426" xml:space="preserve" x="-15227" stroke="none" font-size="433.3333" font-family="sans-serif">O</text><text y="-31676" xml:space="preserve" x="-27172" stroke="none" font-size="433.3333" font-family="sans-serif">O</text><text y="-32242" xml:space="preserve" x="-20063" stroke="none" font-size="433.3333" font-family="sans-serif">O</text><text y="-26037" xml:space="preserve" x="-26941" stroke="none" font-size="433.3333" font-family="sans-serif">O</text><text y="-27184" xml:space="preserve" x="-21048" stroke="none" font-size="433.3333" font-family="sans-serif">O</text><text y="-27756" xml:space="preserve" x="-31855" stroke="none" font-size="433.3333" font-family="sans-serif">O</text><text y="-27756" xml:space="preserve" x="-16134" stroke="none" font-size="433.3333" font-family="sans-serif">O</text><text y="-31197" xml:space="preserve" x="-25959" stroke="none" font-size="433.3333" font-family="sans-serif">O</text><text y="-30622" xml:space="preserve" x="-21048" stroke="none" font-size="433.3333" font-family="sans-serif">O</text></g></g></svg>