<svg width="279.99" viewBox="0 0 9333 4811" text-rendering="auto" stroke-width="1" stroke-opacity="1" stroke-miterlimit="10" stroke-linejoin="miter" stroke-linecap="square" stroke-dashoffset="0" stroke-dasharray="none" stroke="black" shape-rendering="auto" image-rendering="auto" height="144.33" font-weight="normal" font-style="normal" font-size="12" font-family="'Dialog'" fill-opacity="1" fill="black" color-rendering="auto" color-interpolation="auto" xmlns="http://www.w3.org/2000/svg"><g><g stroke="white" fill="white"><rect y="0" x="0" width="9333" stroke="none" height="4811"/></g><g transform="translate(32866,32758)" text-rendering="geometricPrecision" stroke-width="44" stroke-linejoin="round" stroke-linecap="round"><line y2="-29660" y1="-30807" x2="-30798" x1="-30798" fill="none"/><line y2="-29804" y1="-30662" x2="-30966" x1="-30966" fill="none"/><line y2="-31379" y1="-30807" x2="-29813" x1="-30798" fill="none"/><line y2="-30807" y1="-31379" x2="-30798" x1="-31780" fill="none"/><line y2="-29660" y1="-29088" x2="-30798" x1="-29813" fill="none"/><line y2="-29088" y1="-29660" x2="-31780" x1="-30798" fill="none"/><line y2="-30807" y1="-31379" x2="-28831" x1="-29813" fill="none"/><line y2="-30732" y1="-31162" x2="-29042" x1="-29778" fill="none"/><line y2="-31379" y1="-30807" x2="-31780" x1="-32762" fill="none"/><line y2="-31162" y1="-30732" x2="-31815" x1="-32552" fill="none"/><line y2="-29088" y1="-29660" x2="-29813" x1="-28831" fill="none"/><line y2="-29304" y1="-29735" x2="-29778" x1="-29042" fill="none"/><line y2="-29660" y1="-29088" x2="-32762" x1="-31780" fill="none"/><line y2="-29735" y1="-29304" x2="-32552" x1="-31815" fill="none"/><line y2="-29660" y1="-30807" x2="-28831" x1="-28831" fill="none"/><line y2="-30807" y1="-29660" x2="-32762" x1="-32762" fill="none"/><line y2="-31223" y1="-30807" x2="-28111" x1="-28831" fill="none"/><line y2="-31376" y1="-30807" x2="-26034" x1="-27016" fill="none"/><line y2="-30807" y1="-29888" x2="-27016" x1="-27016" fill="none"/><line y2="-30807" y1="-31376" x2="-25046" x1="-26034" fill="none"/><line y2="-29562" y1="-29099" x2="-26829" x1="-26034" fill="none"/><line y2="-29668" y1="-30807" x2="-25046" x1="-25046" fill="none"/><line y2="-29099" y1="-29668" x2="-26034" x1="-25046" fill="none"/><polygon stroke-width="1" stroke="none" points=" -27770 -31162 -27016 -30807 -27701 -31280"/><polygon stroke-width="1" points=" -27770 -31162 -27016 -30807 -27701 -31280" fill="none"/><polygon stroke-width="1" stroke="none" points=" -26034 -31376 -26104 -32202 -25965 -32202"/><polygon stroke-width="1" points=" -26034 -31376 -26104 -32202 -25965 -32202" fill="none"/><line y2="-28051" y1="-28054" x2="-26104" x1="-25965" fill="none"/><line y2="-28268" y1="-28270" x2="-26090" x1="-25979" fill="none"/><line y2="-28485" y1="-28487" x2="-26075" x1="-25994" fill="none"/><line y2="-28702" y1="-28703" x2="-26061" x1="-26008" fill="none"/><line y2="-28919" y1="-28919" x2="-26046" x1="-26022" fill="none"/><line y2="-31162" y1="-31280" x2="-24292" x1="-24362" fill="none"/><line y2="-31069" y1="-31156" x2="-24489" x1="-24541" fill="none"/><line y2="-30977" y1="-31033" x2="-24686" x1="-24719" fill="none"/><line y2="-30884" y1="-30909" x2="-24883" x1="-24898" fill="none"/><line y2="-29192" y1="-29313" x2="-24362" x1="-24295" fill="none"/><line y2="-29316" y1="-29406" x2="-24541" x1="-24491" fill="none"/><line y2="-29441" y1="-29499" x2="-24719" x1="-24688" fill="none"/><line y2="-29565" y1="-29591" x2="-24898" x1="-24884" fill="none"/><text y="-31150" xml:space="preserve" x="-28077" stroke="none" font-size="433.3333" font-family="sans-serif">O</text><text y="-32242" xml:space="preserve" x="-26187" stroke="none" font-size="433.3333" font-family="sans-serif">OH</text><text y="-31150" xml:space="preserve" x="-24292" stroke="none" font-size="433.3333" font-family="sans-serif">OH</text><text y="-28966" xml:space="preserve" x="-24292" stroke="none" font-size="433.3333" font-family="sans-serif">OH</text><text y="-29489" xml:space="preserve" x="-27170" stroke="none" font-size="433.3333" font-family="sans-serif">O</text><text y="-30483" xml:space="preserve" x="-26921" stroke="none" font-style="italic" font-size="313.3333" font-family="sans-serif">S</text><text y="-30893" xml:space="preserve" x="-26187" stroke="none" font-style="italic" font-size="313.3333" font-family="sans-serif">S</text><text y="-30483" xml:space="preserve" x="-25448" stroke="none" font-style="italic" font-size="313.3333" font-family="sans-serif">R</text><text y="-29224" xml:space="preserve" x="-26187" stroke="none" font-style="italic" font-size="313.3333" font-family="sans-serif">S</text><text y="-29634" xml:space="preserve" x="-25448" stroke="none" font-style="italic" font-size="313.3333" font-family="sans-serif">S</text></g></g></svg>