<svg width="215.85" viewBox="0 0 7195 6530" text-rendering="auto" stroke-width="1" stroke-opacity="1" stroke-miterlimit="10" stroke-linejoin="miter" stroke-linecap="square" stroke-dashoffset="0" stroke-dasharray="none" stroke="black" shape-rendering="auto" image-rendering="auto" height="195.9" font-weight="normal" font-style="normal" font-size="12" font-family="'Dialog'" fill-opacity="1" fill="black" color-rendering="auto" color-interpolation="auto" xmlns="http://www.w3.org/2000/svg"><g><g stroke="white" fill="white"><rect y="0" x="0" width="7195" stroke="none" height="6530"/></g><g transform="translate(32866,32758)" text-rendering="geometricPrecision" stroke-width="44" stroke-linejoin="round" stroke-linecap="round"><line y2="-28747" y1="-29894" x2="-28831" x1="-28831" fill="none"/><line y2="-30469" y1="-29894" x2="-27848" x1="-28831" fill="none"/><line y2="-29894" y1="-30469" x2="-28831" x1="-29813" fill="none"/><line y2="-29819" y1="-30249" x2="-29039" x1="-29778" fill="none"/><line y2="-28747" y1="-28175" x2="-28831" x1="-27848" fill="none"/><line y2="-28175" y1="-28747" x2="-29813" x1="-28831" fill="none"/><line y2="-28394" y1="-28822" x2="-29778" x1="-29039" fill="none"/><line y2="-29894" y1="-30469" x2="-26866" x1="-27848" fill="none"/><line y2="-29819" y1="-30249" x2="-27074" x1="-27811" fill="none"/><line y2="-30469" y1="-29894" x2="-29813" x1="-30795" fill="none"/><line y2="-28175" y1="-28747" x2="-27848" x1="-26866" fill="none"/><line y2="-28747" y1="-28175" x2="-30795" x1="-29813" fill="none"/><line y2="-28747" y1="-29894" x2="-26866" x1="-26866" fill="none"/><line y2="-29894" y1="-28747" x2="-30795" x1="-30795" fill="none"/><line y2="-29752" y1="-28891" x2="-30625" x1="-30625" fill="none"/><line y2="-31295" y1="-30469" x2="-27848" x1="-27848" fill="none"/><line y2="-30310" y1="-29894" x2="-31514" x1="-30795" fill="none"/><line y2="-27346" y1="-28175" x2="-27779" x1="-27779" fill="none"/><line y2="-27346" y1="-28175" x2="-27918" x1="-27918" fill="none"/><line y2="-26774" y1="-27025" x2="-27094" x1="-27531" fill="none"/><line y2="-26650" y1="-26904" x2="-27164" x1="-27600" fill="none"/><line y2="-28394" y1="-28810" x2="-26112" x1="-26832" fill="none"/><line y2="-28273" y1="-28686" x2="-26182" x1="-26901" fill="none"/><line y2="-31930" y1="-31624" x2="-27129" x1="-27661" fill="none"/><line y2="-32167" y1="-31699" x2="-28308" x1="-28036" fill="none"/><line y2="-32240" y1="-31769" x2="-28184" x1="-27915" fill="none"/><line y2="-31445" y1="-31445" x2="-28709" x1="-28036" fill="none"/><line y2="-31587" y1="-31587" x2="-28709" x1="-28036" fill="none"/><line y2="-31246" y1="-30639" x2="-31774" x1="-31774" fill="none"/><line y2="-31246" y1="-30639" x2="-31633" x1="-31633" fill="none"/><line y2="-29943" y1="-30249" x2="-32387" x1="-31855" fill="none"/><line y2="-30064" y1="-30370" x2="-32456" x1="-31928" fill="none"/><text y="-31335" xml:space="preserve" x="-28002" stroke="none" font-size="433.3333" font-family="sans-serif">S</text><text y="-32242" xml:space="preserve" x="-28524" stroke="none" font-size="433.3333" font-family="sans-serif">O</text><text y="-31335" xml:space="preserve" x="-29050" stroke="none" font-size="433.3333" font-family="sans-serif">O</text><text y="-31861" xml:space="preserve" x="-27094" stroke="none" font-size="433.3333" font-family="sans-serif">OH</text><text y="-26947" xml:space="preserve" x="-28002" stroke="none" font-size="433.3333" font-family="sans-serif">N</text><text y="-26424" xml:space="preserve" x="-27094" stroke="none" font-size="433.3333" font-family="sans-serif">N</text><text y="-30240" xml:space="preserve" x="-31855" stroke="none" font-size="433.3333" font-family="sans-serif">N</text><text y="-31286" xml:space="preserve" x="-31855" stroke="none" font-size="433.3333" font-family="sans-serif">O</text><text y="-29715" xml:space="preserve" x="-32762" stroke="none" font-size="433.3333" font-family="sans-serif">O</text><text y="-28045" xml:space="preserve" x="-26112" stroke="none" font-size="433.3333" font-family="sans-serif">O</text><text y="-27005" xml:space="preserve" x="-27678" stroke="none" font-size="313.3333" font-family="sans-serif">+</text><text y="-26479" xml:space="preserve" x="-26771" stroke="none" font-size="313.3333" font-family="sans-serif">-</text></g></g></svg>