<svg width="334.23" viewBox="0 0 11141 7900" text-rendering="auto" stroke-width="1" stroke-opacity="1" stroke-miterlimit="10" stroke-linejoin="miter" stroke-linecap="square" stroke-dashoffset="0" stroke-dasharray="none" stroke="black" shape-rendering="auto" image-rendering="auto" height="237.0" font-weight="normal" font-style="normal" font-size="12" font-family="'Dialog'" fill-opacity="1" fill="black" color-rendering="auto" color-interpolation="auto" xmlns="http://www.w3.org/2000/svg"><g><g stroke="white" fill="white"><rect y="0" x="0" width="11141" stroke="none" height="7900"/></g><g transform="translate(32866,32866)" text-rendering="geometricPrecision" stroke-width="44" stroke-linejoin="round" stroke-linecap="round"><line y2="-28374" y1="-29521" x2="-27092" x1="-26109" fill="none"/><line y2="-29521" y1="-28374" x2="-28077" x1="-27092" fill="none"/><line y2="-28374" y1="-27227" x2="-27092" x1="-28077" fill="none"/><line y2="-27447" y1="-28374" x2="-26297" x1="-27092" fill="none"/><line y2="-30668" y1="-29521" x2="-26109" x1="-26109" fill="none"/><line y2="-29521" y1="-28946" x2="-26109" x1="-25127" fill="none"/><line y2="-29596" y1="-29166" x2="-25901" x1="-25165" fill="none"/><line y2="-30668" y1="-29521" x2="-28077" x1="-28077" fill="none"/><line y2="-28946" y1="-29521" x2="-29059" x1="-28077" fill="none"/><line y2="-29166" y1="-29596" x2="-29021" x1="-28285" fill="none"/><line y2="-26080" y1="-27227" x2="-28077" x1="-28077" fill="none"/><line y2="-27227" y1="-27802" x2="-28077" x1="-29059" fill="none"/><line y2="-27152" y1="-27583" x2="-28285" x1="-29021" fill="none"/><line y2="-26080" y1="-27008" x2="-26109" x1="-26109" fill="none"/><line y2="-30668" y1="-31130" x2="-26109" x1="-26904" fill="none"/><line y2="-31240" y1="-30668" x2="-25127" x1="-26109" fill="none"/><line y2="-31020" y1="-30593" x2="-25165" x1="-25901" fill="none"/><line y2="-28946" y1="-29521" x2="-25127" x1="-24145" fill="none"/><line y2="-31130" y1="-30668" x2="-27282" x1="-28077" fill="none"/><line y2="-30668" y1="-31240" x2="-28077" x1="-29059" fill="none"/><line y2="-30593" y1="-31020" x2="-28285" x1="-29021" fill="none"/><line y2="-29521" y1="-28946" x2="-30041" x1="-29059" fill="none"/><line y2="-26080" y1="-26080" x2="-28077" x1="-26109" fill="none"/><line y2="-25508" y1="-26080" x2="-29059" x1="-28077" fill="none"/><line y2="-25728" y1="-26156" x2="-29021" x1="-28285" fill="none"/><line y2="-27802" y1="-27227" x2="-29059" x1="-30041" fill="none"/><line y2="-30668" y1="-31240" x2="-24145" x1="-25127" fill="none"/><line y2="-29521" y1="-30668" x2="-24145" x1="-24145" fill="none"/><line y2="-29663" y1="-30524" x2="-24315" x1="-24315" fill="none"/><line y2="-31240" y1="-30668" x2="-29059" x1="-30041" fill="none"/><line y2="-30668" y1="-29521" x2="-30041" x1="-30041" fill="none"/><line y2="-30524" y1="-29663" x2="-29871" x1="-29871" fill="none"/><line y2="-26080" y1="-25508" x2="-30041" x1="-29059" fill="none"/><line y2="-27227" y1="-26080" x2="-30041" x1="-30041" fill="none"/><line y2="-27086" y1="-26225" x2="-29871" x1="-29871" fill="none"/><line y2="-28995" y1="-29521" x2="-23238" x1="-24145" fill="none"/><line y2="-31081" y1="-30668" x2="-30760" x1="-30041" fill="none"/><line y2="-31081" y1="-30668" x2="-23426" x1="-24145" fill="none"/><line y2="-25578" y1="-26130" x2="-25508" x1="-26060" fill="none"/><line y2="-25480" y1="-26031" x2="-25607" x1="-26158" fill="none"/><line y2="-29411" y1="-28995" x2="-22518" x1="-23238" fill="none"/><line y2="-28169" y1="-28995" x2="-23168" x1="-23168" fill="none"/><line y2="-28169" y1="-28995" x2="-23307" x1="-23307" fill="none"/><line y2="-30668" y1="-31081" x2="-31855" x1="-31136" fill="none"/><line y2="-31191" y1="-30668" x2="-32762" x1="-31855" fill="none"/><line y2="-32240" y1="-31410" x2="-30948" x1="-30948" fill="none"/><line y2="-32762" y1="-32240" x2="-31855" x1="-30948" fill="none"/><text y="-25162" xml:space="preserve" x="-25523" stroke="none" font-size="433.3333" font-family="sans-serif">O</text><text y="-29342" xml:space="preserve" x="-22484" stroke="none" font-size="433.3333" font-family="sans-serif">OH</text><text y="-27770" xml:space="preserve" x="-23391" stroke="none" font-size="433.3333" font-family="sans-serif">O</text><text y="-31012" xml:space="preserve" x="-23391" stroke="none" font-size="433.3333" font-family="sans-serif">OH</text><text y="-31012" xml:space="preserve" x="-31101" stroke="none" font-size="433.3333" font-family="sans-serif">N</text><text y="-27048" xml:space="preserve" x="-26262" stroke="none" font-size="433.3333" font-family="sans-serif">O</text><text y="-31061" xml:space="preserve" x="-27245" stroke="none" font-size="433.3333" font-family="sans-serif">O</text></g></g></svg>