<svg width="225.45" viewBox="0 0 7515 6657" text-rendering="auto" stroke-width="1" stroke-opacity="1" stroke-miterlimit="10" stroke-linejoin="miter" stroke-linecap="square" stroke-dashoffset="0" stroke-dasharray="none" stroke="black" shape-rendering="auto" image-rendering="auto" height="199.71" font-weight="normal" font-style="normal" font-size="12" font-family="'Dialog'" fill-opacity="1" fill="black" color-rendering="auto" color-interpolation="auto" xmlns="http://www.w3.org/2000/svg"><g><g stroke="white" fill="white"><rect y="0" x="0" width="7515" stroke="none" height="6657"/></g><g transform="translate(32866,32758)" text-rendering="geometricPrecision" stroke-width="44" stroke-linejoin="round" stroke-linecap="round"><line y2="-30662" y1="-30662" x2="-31477" x1="-30518" fill="none"/><line y2="-30882" y1="-31725" x2="-30255" x1="-29963" fill="none"/><line y2="-31725" y1="-30662" x2="-31803" x1="-31477" fill="none"/><line y2="-31725" y1="-32202" x2="-29963" x1="-30578" fill="none"/><line y2="-32283" y1="-31725" x2="-31049" x1="-31803" fill="none"/><line y2="-30136" y1="-30552" x2="-29423" x1="-30142" fill="none"/><line y2="-31298" y1="-31725" x2="-32762" x1="-31803" fill="none"/><line y2="-32632" y1="-31725" x2="-32329" x1="-31803" fill="none"/><line y2="-29992" y1="-30619" x2="-31878" x1="-31419" fill="none"/><line y2="-30073" y1="-30703" x2="-31991" x1="-31532" fill="none"/><line y2="-32026" y1="-31792" x2="-29163" x1="-29980" fill="none"/><line y2="-31893" y1="-31659" x2="-29125" x1="-29943" fill="none"/><line y2="-30136" y1="-29001" x2="-29423" x1="-29423" fill="none"/><line y2="-29995" y1="-29143" x2="-29252" x1="-29252" fill="none"/><line y2="-30706" y1="-30136" x2="-28438" x1="-29423" fill="none"/><line y2="-29001" y1="-28432" x2="-29423" x1="-28438" fill="none"/><line y2="-30136" y1="-30706" x2="-27453" x1="-28438" fill="none"/><line y2="-30061" y1="-30489" x2="-27661" x1="-28397" fill="none"/><line y2="-28432" y1="-29001" x2="-28438" x1="-27453" fill="none"/><line y2="-28649" y1="-29076" x2="-28397" x1="-27661" fill="none"/><line y2="-29001" y1="-30136" x2="-27453" x1="-27453" fill="none"/><line y2="-27383" y1="-28432" x2="-28438" x1="-28438" fill="none"/><line y2="-28585" y1="-29001" x2="-26733" x1="-27453" fill="none"/><line y2="-26967" y1="-27383" x2="-29154" x1="-28438" fill="none"/><line y2="-26696" y1="-27383" x2="-28039" x1="-28438" fill="none"/><line y2="-27383" y1="-27383" x2="-27577" x1="-28438" fill="none"/><line y2="-27649" y1="-28256" x2="-26476" x1="-26476" fill="none"/><line y2="-27649" y1="-28256" x2="-26615" x1="-26615" fill="none"/><line y2="-28952" y1="-28646" x2="-25861" x1="-26392" fill="none"/><line y2="-28831" y1="-28524" x2="-25792" x1="-26323" fill="none"/><text y="-29634" xml:space="preserve" x="-32245" stroke="none" font-size="433.3333" font-family="sans-serif">O</text><text y="-31835" xml:space="preserve" x="-29108" stroke="none" font-size="433.3333" font-family="sans-serif">O</text><text y="-26681" xml:space="preserve" x="-29495" stroke="none" font-size="433.3333" font-family="sans-serif">F</text><text y="-26297" xml:space="preserve" x="-28065" stroke="none" font-size="433.3333" font-family="sans-serif">F</text><text y="-27204" xml:space="preserve" x="-27542" stroke="none" font-size="433.3333" font-family="sans-serif">F</text><text y="-28296" xml:space="preserve" x="-26699" stroke="none" font-size="433.3333" font-family="sans-serif">N</text><text y="-27250" xml:space="preserve" x="-26699" stroke="none" font-size="433.3333" font-family="sans-serif">O</text><text y="-28822" xml:space="preserve" x="-25792" stroke="none" font-size="433.3333" font-family="sans-serif">O</text><text y="-30483" xml:space="preserve" x="-30483" stroke="none" font-size="433.3333" font-family="sans-serif">N</text><text y="-32242" xml:space="preserve" x="-31015" stroke="none" font-size="433.3333" font-family="sans-serif">NH</text></g></g></svg>