<svg width="267.54" viewBox="0 0 8918 4909" text-rendering="auto" stroke-width="1" stroke-opacity="1" stroke-miterlimit="10" stroke-linejoin="miter" stroke-linecap="square" stroke-dashoffset="0" stroke-dasharray="none" stroke="black" shape-rendering="auto" image-rendering="auto" height="147.27" font-weight="normal" font-style="normal" font-size="12" font-family="'Dialog'" fill-opacity="1" fill="black" color-rendering="auto" color-interpolation="auto" xmlns="http://www.w3.org/2000/svg"><g><g stroke="white" fill="white"><rect y="0" x="0" width="8918" stroke="none" height="4909"/></g><g transform="translate(32866,32758)" text-rendering="geometricPrecision" stroke-width="44" stroke-linejoin="round" stroke-linecap="round"><line y2="-29654" y1="-30801" x2="-28738" x1="-28738" fill="none"/><line y2="-29798" y1="-30659" x2="-28909" x1="-28909" fill="none"/><line y2="-31376" y1="-30801" x2="-27756" x1="-28738" fill="none"/><line y2="-30801" y1="-31376" x2="-28738" x1="-29723" fill="none"/><line y2="-29082" y1="-29654" x2="-29723" x1="-28738" fill="none"/><line y2="-29654" y1="-29082" x2="-28738" x1="-27756" fill="none"/><line y2="-30801" y1="-31376" x2="-26774" x1="-27756" fill="none"/><line y2="-30726" y1="-31156" x2="-26985" x1="-27721" fill="none"/><line y2="-31376" y1="-30801" x2="-29723" x1="-30706" fill="none"/><line y2="-31156" y1="-30726" x2="-29758" x1="-30495" fill="none"/><line y2="-29654" y1="-29082" x2="-30706" x1="-29723" fill="none"/><line y2="-29732" y1="-29302" x2="-30495" x1="-29758" fill="none"/><line y2="-29082" y1="-29654" x2="-27756" x1="-26774" fill="none"/><line y2="-29302" y1="-29732" x2="-27721" x1="-26985" fill="none"/><line y2="-29654" y1="-30801" x2="-26774" x1="-26774" fill="none"/><line y2="-30801" y1="-29654" x2="-30706" x1="-30706" fill="none"/><line y2="-31217" y1="-30801" x2="-26054" x1="-26774" fill="none"/><line y2="-30801" y1="-31107" x2="-24960" x1="-25488" fill="none"/><line y2="-29241" y1="-29654" x2="-31425" x1="-30706" fill="none"/><line y2="-32202" y1="-31376" x2="-29723" x1="-29723" fill="none"/><line y2="-31327" y1="-30801" x2="-24052" x1="-24960" fill="none"/><line y2="-29975" y1="-30801" x2="-24890" x1="-24890" fill="none"/><line y2="-29975" y1="-30801" x2="-25029" x1="-25029" fill="none"/><line y2="-29486" y1="-29241" x2="-32231" x1="-31800" fill="none"/><line y2="-28409" y1="-28877" x2="-31948" x1="-31676" fill="none"/><line y2="-28478" y1="-28946" x2="-32069" x1="-31798" fill="none"/><line y2="-28478" y1="-28946" x2="-31153" x1="-31425" fill="none"/><line y2="-28409" y1="-28877" x2="-31275" x1="-31546" fill="none"/><text y="-32242" xml:space="preserve" x="-29874" stroke="none" font-size="433.3333" font-family="sans-serif">OH</text><text y="-31148" xml:space="preserve" x="-26020" stroke="none" font-size="433.3333" font-family="sans-serif">NH</text><text y="-29576" xml:space="preserve" x="-25113" stroke="none" font-size="433.3333" font-family="sans-serif">O</text><text y="-28952" xml:space="preserve" x="-31763" stroke="none" font-size="433.3333" font-family="sans-serif">S</text><text y="-28045" xml:space="preserve" x="-32289" stroke="none" font-size="433.3333" font-family="sans-serif">O</text><text y="-28045" xml:space="preserve" x="-31240" stroke="none" font-size="433.3333" font-family="sans-serif">O</text><text y="-29527" xml:space="preserve" x="-32762" stroke="none" font-size="433.3333" font-family="sans-serif">OH</text></g></g></svg>