<svg width="250.5" viewBox="0 0 8350 6970" text-rendering="auto" stroke-width="1" stroke-opacity="1" stroke-miterlimit="10" stroke-linejoin="miter" stroke-linecap="square" stroke-dashoffset="0" stroke-dasharray="none" stroke="black" shape-rendering="auto" image-rendering="auto" height="209.1" font-weight="normal" font-style="normal" font-size="12" font-family="'Dialog'" fill-opacity="1" fill="black" color-rendering="auto" color-interpolation="auto" xmlns="http://www.w3.org/2000/svg"><g><g stroke="white" fill="white"><rect y="0" x="0" width="8350" stroke="none" height="6970"/></g><g transform="translate(32866,32866)" text-rendering="geometricPrecision" stroke-width="44" stroke-linejoin="round" stroke-linecap="round"><line y2="-28077" y1="-29278" x2="-29775" x1="-29775" fill="none"/><line y2="-29278" y1="-29879" x2="-29775" x1="-30815" fill="none"/><line y2="-27479" y1="-28077" x2="-30815" x1="-29775" fill="none"/><line y2="-27701" y1="-28152" x2="-30772" x1="-29989" fill="none"/><line y2="-29879" y1="-29278" x2="-30815" x1="-31855" fill="none"/><line y2="-29657" y1="-29206" x2="-30862" x1="-31639" fill="none"/><line y2="-27857" y1="-27479" x2="-31474" x1="-30815" fill="none"/><line y2="-29278" y1="-28296" x2="-31855" x1="-31855" fill="none"/><line y2="-31055" y1="-29278" x2="-26696" x1="-29775" fill="none"/><line y2="-27571" y1="-28077" x2="-28860" x1="-29775" fill="none"/><line y2="-30928" y1="-29879" x2="-30815" x1="-30815" fill="none"/><line y2="-26430" y1="-27479" x2="-30815" x1="-30815" fill="none"/><line y2="-29801" y1="-29278" x2="-32762" x1="-31855" fill="none"/><line y2="-31055" y1="-30489" x2="-26696" x1="-25714" fill="none"/><line y2="-31133" y1="-30706" x2="-26488" x1="-25751" fill="none"/><line y2="-32193" y1="-31055" x2="-26696" x1="-26696" fill="none"/><line y2="-30489" y1="-31055" x2="-25714" x1="-24726" fill="none"/><line y2="-32762" y1="-32193" x2="-25714" x1="-26696" fill="none"/><line y2="-32546" y1="-32118" x2="-25751" x1="-26488" fill="none"/><line y2="-31055" y1="-32193" x2="-24726" x1="-24726" fill="none"/><line y2="-31200" y1="-32052" x2="-24896" x1="-24896" fill="none"/><line y2="-32193" y1="-32762" x2="-24726" x1="-25714" fill="none"/><line y2="-29660" y1="-30489" x2="-25714" x1="-25714" fill="none"/><line y2="-26742" y1="-27571" x2="-28860" x1="-28860" fill="none"/><line y2="-26000" y1="-26416" x2="-27952" x1="-28672" fill="none"/><line y2="-26522" y1="-26000" x2="-27045" x1="-27952" fill="none"/><line y2="-28048" y1="-27632" x2="-28175" x1="-28894" fill="none"/><line y2="-27926" y1="-27510" x2="-28106" x1="-28825" fill="none"/><line y2="-31341" y1="-30928" x2="-30096" x1="-30815" fill="none"/><line y2="-31046" y1="-31347" x2="-29180" x1="-29720" fill="none"/><line y2="-31280" y1="-30864" x2="-31569" x1="-30850" fill="none"/><line y2="-31402" y1="-30989" x2="-31500" x1="-30781" fill="none"/><line y2="-29085" y1="-29391" x2="-24960" x1="-25488" fill="none"/><line y2="-28964" y1="-29270" x2="-25029" x1="-25560" fill="none"/><line y2="-28964" y1="-29270" x2="-26398" x1="-25867" fill="none"/><line y2="-29085" y1="-29391" x2="-26468" x1="-25936" fill="none"/><line y2="-26000" y1="-26522" x2="-26138" x1="-27045" fill="none"/><line y2="-27571" y1="-26522" x2="-27045" x1="-27045" fill="none"/><text y="-26343" xml:space="preserve" x="-29010" stroke="none" font-size="433.3333" font-family="sans-serif">O</text><text y="-27915" xml:space="preserve" x="-28103" stroke="none" font-size="433.3333" font-family="sans-serif">O</text><text y="-31272" xml:space="preserve" x="-30058" stroke="none" font-size="433.3333" font-family="sans-serif">O</text><text y="-31272" xml:space="preserve" x="-31876" stroke="none" font-size="433.3333" font-family="sans-serif">O</text><text y="-30763" xml:space="preserve" x="-29143" stroke="none" font-size="433.3333" font-family="sans-serif">CH</text><text y="-30674" xml:space="preserve" x="-28565" stroke="none" font-size="313.3333" font-family="sans-serif">3</text><text y="-29261" xml:space="preserve" x="-25864" stroke="none" font-size="433.3333" font-family="sans-serif">N</text><text y="-28738" xml:space="preserve" x="-24957" stroke="none" font-size="433.3333" font-family="sans-serif">O</text><text y="-28738" xml:space="preserve" x="-26771" stroke="none" font-size="433.3333" font-family="sans-serif">O</text><text y="-27898" xml:space="preserve" x="-32006" stroke="none" font-size="433.3333" font-family="sans-serif">NH</text></g></g></svg>