<svg width="219.99" viewBox="0 0 7333 4419" text-rendering="auto" stroke-width="1" stroke-opacity="1" stroke-miterlimit="10" stroke-linejoin="miter" stroke-linecap="square" stroke-dashoffset="0" stroke-dasharray="none" stroke="black" shape-rendering="auto" image-rendering="auto" height="132.57" font-weight="normal" font-style="normal" font-size="12" font-family="'Dialog'" fill-opacity="1" fill="black" color-rendering="auto" color-interpolation="auto" xmlns="http://www.w3.org/2000/svg"><g><g stroke="white" fill="white"><rect y="0" x="0" width="7333" stroke="none" height="4419"/></g><g transform="translate(32866,32758)" text-rendering="geometricPrecision" stroke-width="44" stroke-linejoin="round" stroke-linecap="round"><line y2="-31376" y1="-30850" x2="-28077" x1="-28984" fill="none"/><line y2="-31376" y1="-30850" x2="-29891" x1="-28984" fill="none"/><line y2="-30960" y1="-31376" x2="-30610" x1="-29891" fill="none"/><line y2="-31376" y1="-30960" x2="-31705" x1="-30986" fill="none"/><line y2="-29302" y1="-30850" x2="-28984" x1="-28984" fill="none"/><line y2="-28886" y1="-29302" x2="-28264" x1="-28984" fill="none"/><line y2="-29302" y1="-28886" x2="-27170" x1="-27886" fill="none"/><line y2="-30327" y1="-30850" x2="-29891" x1="-28984" fill="none"/><line y2="-30850" y1="-31376" x2="-27170" x1="-28077" fill="none"/><line y2="-31376" y1="-30850" x2="-26260" x1="-27170" fill="none"/><line y2="-32422" y1="-31376" x2="-28077" x1="-28077" fill="none"/><line y2="-31070" y1="-31376" x2="-32231" x1="-31705" fill="none"/><line y2="-32202" y1="-31376" x2="-31774" x1="-31774" fill="none"/><line y2="-32202" y1="-31376" x2="-31633" x1="-31633" fill="none"/><line y2="-28886" y1="-29302" x2="-26450" x1="-27170" fill="none"/><line y2="-30131" y1="-29302" x2="-27239" x1="-27239" fill="none"/><line y2="-30131" y1="-29302" x2="-27097" x1="-27097" fill="none"/><text y="-30671" xml:space="preserve" x="-30948" stroke="none" font-size="433.3333" font-family="sans-serif">O</text><text y="-28600" xml:space="preserve" x="-28227" stroke="none" font-size="433.3333" font-family="sans-serif">O</text><text y="-30671" xml:space="preserve" x="-32762" stroke="none" font-size="433.3333" font-family="sans-serif">NH</text><text y="-30581" xml:space="preserve" x="-32185" stroke="none" font-size="313.3333" font-family="sans-serif">2</text><text y="-32242" xml:space="preserve" x="-31855" stroke="none" font-size="433.3333" font-family="sans-serif">O</text><text y="-28600" xml:space="preserve" x="-26413" stroke="none" font-size="433.3333" font-family="sans-serif">NH</text><text y="-28510" xml:space="preserve" x="-25835" stroke="none" font-size="313.3333" font-family="sans-serif">2</text><text y="-30171" xml:space="preserve" x="-27320" stroke="none" font-size="433.3333" font-family="sans-serif">O</text></g></g></svg>