<svg width="228.78" viewBox="0 0 7626 7606" text-rendering="auto" stroke-width="1" stroke-opacity="1" stroke-miterlimit="10" stroke-linejoin="miter" stroke-linecap="square" stroke-dashoffset="0" stroke-dasharray="none" stroke="black" shape-rendering="auto" image-rendering="auto" height="228.18" font-weight="normal" font-style="normal" font-size="12" font-family="'Dialog'" fill-opacity="1" fill="black" color-rendering="auto" color-interpolation="auto" xmlns="http://www.w3.org/2000/svg"><g><g stroke="white" fill="white"><rect y="0" x="0" width="7626" stroke="none" height="7606"/></g><g transform="translate(32866,32866)" text-rendering="geometricPrecision" stroke-width="44" stroke-linejoin="round" stroke-linecap="round"><line y2="-28712" y1="-29296" x2="-30558" x1="-31312" fill="none"/><line y2="-29302" y1="-28851" x2="-31688" x1="-32303" fill="none"/><line y2="-27594" y1="-28712" x2="-30942" x1="-30558" fill="none"/><line y2="-28493" y1="-27594" x2="-32422" x1="-32144" fill="none"/><line y2="-28429" y1="-27756" x2="-32225" x1="-32017" fill="none"/><line y2="-27594" y1="-27594" x2="-32144" x1="-30942" fill="none"/><line y2="-27178" y1="-27594" x2="-30223" x1="-30942" fill="none"/><line y2="-27548" y1="-27242" x2="-29351" x1="-29882" fill="none"/><line y2="-27427" y1="-27118" x2="-29281" x1="-29813" fill="none"/><line y2="-27071" y1="-27487" x2="-28221" x1="-28940" fill="none"/><line y2="-30489" y1="-29660" x2="-31500" x1="-31500" fill="none"/><line y2="-26748" y1="-27594" x2="-32762" x1="-32144" fill="none"/><line y2="-29013" y1="-28779" x2="-29758" x1="-30576" fill="none"/><line y2="-28880" y1="-28643" x2="-29720" x1="-30538" fill="none"/><line y2="-27640" y1="-27071" x2="-27239" x1="-28221" fill="none"/><line y2="-27421" y1="-26996" x2="-27276" x1="-28013" fill="none"/><line y2="-27071" y1="-25933" x2="-28221" x1="-28221" fill="none"/><line y2="-27071" y1="-27640" x2="-26251" x1="-27239" fill="none"/><line y2="-25933" y1="-25364" x2="-28221" x1="-27239" fill="none"/><line y2="-26011" y1="-25584" x2="-28013" x1="-27276" fill="none"/><line y2="-25933" y1="-27071" x2="-26251" x1="-26251" fill="none"/><line y2="-26078" y1="-26930" x2="-26421" x1="-26421" fill="none"/><line y2="-25364" y1="-25933" x2="-27239" x1="-26251" fill="none"/><line y2="-28689" y1="-27640" x2="-27239" x1="-27239" fill="none"/><line y2="-25410" y1="-25933" x2="-25344" x1="-26251" fill="none"/><line y2="-31055" y1="-30489" x2="-32488" x1="-31500" fill="none"/><line y2="-31133" y1="-30706" x2="-32280" x1="-31540" fill="none"/><line y2="-30489" y1="-31055" x2="-31500" x1="-30518" fill="none"/><line y2="-32193" y1="-31055" x2="-32488" x1="-32488" fill="none"/><line y2="-31055" y1="-32193" x2="-30518" x1="-30518" fill="none"/><line y2="-31200" y1="-32052" x2="-30688" x1="-30688" fill="none"/><line y2="-32762" y1="-32193" x2="-31500" x1="-32488" fill="none"/><line y2="-32543" y1="-32118" x2="-31540" x1="-32280" fill="none"/><line y2="-32193" y1="-32762" x2="-30518" x1="-31500" fill="none"/><text y="-28819" xml:space="preserve" x="-29703" stroke="none" font-size="433.3333" font-family="sans-serif">O</text><text y="-26892" xml:space="preserve" x="-30188" stroke="none" font-size="433.3333" font-family="sans-serif">N</text><text y="-27415" xml:space="preserve" x="-29281" stroke="none" font-size="433.3333" font-family="sans-serif">N</text><text y="-29261" xml:space="preserve" x="-31653" stroke="none" font-size="433.3333" font-family="sans-serif">N</text><text y="-28533" xml:space="preserve" x="-32644" stroke="none" font-size="433.3333" font-family="sans-serif">N</text></g></g></svg>