<svg width="280.17" viewBox="0 0 9339 6245" text-rendering="auto" stroke-width="1" stroke-opacity="1" stroke-miterlimit="10" stroke-linejoin="miter" stroke-linecap="square" stroke-dashoffset="0" stroke-dasharray="none" stroke="black" shape-rendering="auto" image-rendering="auto" height="187.35" font-weight="normal" font-style="normal" font-size="12" font-family="'Dialog'" fill-opacity="1" fill="black" color-rendering="auto" color-interpolation="auto" xmlns="http://www.w3.org/2000/svg"><g><g stroke="white" fill="white"><rect y="0" x="0" width="9339" stroke="none" height="6245"/></g><g transform="translate(32866,32758)" text-rendering="geometricPrecision" stroke-width="44" stroke-linejoin="round" stroke-linecap="round"><line y2="-29146" y1="-30064" x2="-29735" x1="-29735" fill="none"/><line y2="-28576" y1="-29146" x2="-30717" x1="-29735" fill="none"/><line y2="-30391" y1="-30850" x2="-29923" x1="-30717" fill="none"/><line y2="-29146" y1="-28576" x2="-31705" x1="-30717" fill="none"/><line y2="-30850" y1="-30281" x2="-30717" x1="-31705" fill="none"/><line y2="-30281" y1="-29146" x2="-31705" x1="-31705" fill="none"/><line y2="-29146" y1="-28730" x2="-27921" x1="-28637" fill="none"/><line y2="-32202" y1="-31899" x2="-31246" x1="-30717" fill="none"/><line y2="-30281" y1="-29146" x2="-27921" x1="-27921" fill="none"/><line y2="-30139" y1="-29287" x2="-27750" x1="-27750" fill="none"/><line y2="-29146" y1="-28576" x2="-27921" x1="-26933" fill="none"/><line y2="-30850" y1="-30281" x2="-26933" x1="-27921" fill="none"/><line y2="-28576" y1="-29146" x2="-26933" x1="-25950" fill="none"/><line y2="-28793" y1="-29221" x2="-26895" x1="-26156" fill="none"/><line y2="-30281" y1="-30850" x2="-25950" x1="-26933" fill="none"/><line y2="-30206" y1="-30633" x2="-26156" x1="-26895" fill="none"/><line y2="-29146" y1="-30281" x2="-25950" x1="-25950" fill="none"/><line y2="-30807" y1="-30281" x2="-25043" x1="-25950" fill="none"/><line y2="-30391" y1="-30807" x2="-24324" x1="-25043" fill="none"/><line y2="-30697" y1="-30281" x2="-28637" x1="-27921" fill="none"/><line y2="-31673" y1="-31023" x2="-28828" x1="-28828" fill="none"/><line y2="-27747" y1="-28576" x2="-26933" x1="-26933" fill="none"/><line y2="-27172" y1="-27421" x2="-27551" x1="-27120" fill="none"/><polygon stroke-width="1" stroke="none" points=" -29735 -29146 -28981 -28790 -29047 -28669"/><polygon stroke-width="1" points=" -29735 -29146 -28981 -28790 -29047 -28669" fill="none"/><polygon stroke-width="1" stroke="none" points=" -30717 -30850 -30786 -31899 -30648 -31899"/><polygon stroke-width="1" points=" -30717 -30850 -30786 -31899 -30648 -31899" fill="none"/><polygon stroke-width="1" stroke="none" points=" -31705 -29146 -32196 -28782 -32266 -28900"/><polygon stroke-width="1" points=" -31705 -29146 -32196 -28782 -32266 -28900" fill="none"/><line y2="-27747" y1="-27747" x2="-30786" x1="-30648" fill="none"/><line y2="-27964" y1="-27964" x2="-30768" x1="-30666" fill="none"/><line y2="-28180" y1="-28180" x2="-30750" x1="-30684" fill="none"/><line y2="-28397" y1="-28397" x2="-30732" x1="-30702" fill="none"/><line y2="-30645" y1="-30526" x2="-32196" x1="-32266" fill="none"/><line y2="-30515" y1="-30439" x2="-32021" x1="-32066" fill="none"/><line y2="-30385" y1="-30351" x2="-31846" x1="-31866" fill="none"/><text y="-28441" xml:space="preserve" x="-28978" stroke="none" font-size="433.3333" font-family="sans-serif">O</text><text y="-30628" xml:space="preserve" x="-28978" stroke="none" font-size="433.3333" font-family="sans-serif">O</text><text y="-31714" xml:space="preserve" x="-28978" stroke="none" font-size="433.3333" font-family="sans-serif">CH</text><text y="-31624" xml:space="preserve" x="-28400" stroke="none" font-size="313.3333" font-family="sans-serif">3</text><text y="-27349" xml:space="preserve" x="-27086" stroke="none" font-size="433.3333" font-family="sans-serif">O</text><text y="-26774" xml:space="preserve" x="-28082" stroke="none" font-size="433.3333" font-family="sans-serif">CH</text><text y="-26684" xml:space="preserve" x="-27505" stroke="none" font-size="313.3333" font-family="sans-serif">3</text><text y="-30102" xml:space="preserve" x="-24286" stroke="none" font-size="433.3333" font-family="sans-serif">OH</text><text y="-27349" xml:space="preserve" x="-30870" stroke="none" font-size="433.3333" font-family="sans-serif">OH</text><text y="-32242" xml:space="preserve" x="-31777" stroke="none" font-size="433.3333" font-family="sans-serif">OH</text><text y="-28441" xml:space="preserve" x="-32762" stroke="none" font-size="433.3333" font-family="sans-serif">OH</text><text y="-30628" xml:space="preserve" x="-32762" stroke="none" font-size="433.3333" font-family="sans-serif">OH</text><text y="-30102" xml:space="preserve" x="-29885" stroke="none" font-size="433.3333" font-family="sans-serif">O</text><text y="-29108" xml:space="preserve" x="-30134" stroke="none" font-style="italic" font-size="313.3333" font-family="sans-serif">S</text><text y="-28701" xml:space="preserve" x="-30870" stroke="none" font-style="italic" font-size="313.3333" font-family="sans-serif">R</text><text y="-30370" xml:space="preserve" x="-30870" stroke="none" font-style="italic" font-size="313.3333" font-family="sans-serif">R</text><text y="-29108" xml:space="preserve" x="-31607" stroke="none" font-style="italic" font-size="313.3333" font-family="sans-serif">S</text><text y="-29960" xml:space="preserve" x="-31607" stroke="none" font-style="italic" font-size="313.3333" font-family="sans-serif">S</text></g></g></svg>