<svg width="218.79" viewBox="0 0 7293 4513" text-rendering="auto" stroke-width="1" stroke-opacity="1" stroke-miterlimit="10" stroke-linejoin="miter" stroke-linecap="square" stroke-dashoffset="0" stroke-dasharray="none" stroke="black" shape-rendering="auto" image-rendering="auto" height="135.39" font-weight="normal" font-style="normal" font-size="12" font-family="'Dialog'" fill-opacity="1" fill="black" color-rendering="auto" color-interpolation="auto" xmlns="http://www.w3.org/2000/svg"><g><g stroke="white" fill="white"><rect y="0" x="0" width="7293" stroke="none" height="4513"/></g><g transform="translate(32866,32758)" text-rendering="geometricPrecision" stroke-width="44" stroke-linejoin="round" stroke-linecap="round"><line y2="-30281" y1="-30850" x2="-29885" x1="-30867" fill="none"/><line y2="-30206" y1="-30633" x2="-30093" x1="-30830" fill="none"/><line y2="-29146" y1="-30281" x2="-29885" x1="-29885" fill="none"/><line y2="-30850" y1="-30281" x2="-30867" x1="-31855" fill="none"/><line y2="-28576" y1="-29146" x2="-30867" x1="-29885" fill="none"/><line y2="-28793" y1="-29221" x2="-30830" x1="-30093" fill="none"/><line y2="-30281" y1="-29146" x2="-31855" x1="-31855" fill="none"/><line y2="-30139" y1="-29287" x2="-31685" x1="-31685" fill="none"/><line y2="-29146" y1="-28576" x2="-31855" x1="-30867" fill="none"/><line y2="-30697" y1="-30281" x2="-29166" x1="-29885" fill="none"/><line y2="-30281" y1="-30587" x2="-28071" x1="-28597" fill="none"/><line y2="-30807" y1="-30281" x2="-32762" x1="-31855" fill="none"/><line y2="-31679" y1="-30850" x2="-30867" x1="-30867" fill="none"/><line y2="-28816" y1="-29146" x2="-29316" x1="-29885" fill="none"/><line y2="-30850" y1="-30281" x2="-27086" x1="-28071" fill="none"/><line y2="-30633" y1="-30206" x2="-27123" x1="-27863" fill="none"/><line y2="-30281" y1="-29146" x2="-28071" x1="-28071" fill="none"/><line y2="-30281" y1="-30850" x2="-26101" x1="-27086" fill="none"/><line y2="-29146" y1="-28576" x2="-28071" x1="-27086" fill="none"/><line y2="-29221" y1="-28793" x2="-27863" x1="-27123" fill="none"/><line y2="-29146" y1="-30281" x2="-26101" x1="-26101" fill="none"/><line y2="-29287" y1="-30139" x2="-26271" x1="-26271" fill="none"/><line y2="-28576" y1="-29146" x2="-27086" x1="-26101" fill="none"/><line y2="-31899" y1="-30850" x2="-27086" x1="-27086" fill="none"/><line y2="-32315" y1="-31899" x2="-26366" x1="-27086" fill="none"/><line y2="-32254" y1="-31838" x2="-27840" x1="-27123" fill="none"/><line y2="-32375" y1="-31959" x2="-27770" x1="-27051" fill="none"/><text y="-30628" xml:space="preserve" x="-29131" stroke="none" font-size="433.3333" font-family="sans-serif">NH</text><text y="-31720" xml:space="preserve" x="-31098" stroke="none" font-size="433.3333" font-family="sans-serif">Cl</text><text y="-28441" xml:space="preserve" x="-29209" stroke="none" font-size="433.3333" font-family="sans-serif">Cl</text><text y="-32242" xml:space="preserve" x="-26332" stroke="none" font-size="433.3333" font-family="sans-serif">OH</text><text y="-32242" xml:space="preserve" x="-28146" stroke="none" font-size="433.3333" font-family="sans-serif">O</text></g></g></svg>