<svg width="346.74" viewBox="0 0 11558 4332" text-rendering="auto" stroke-width="1" stroke-opacity="1" stroke-miterlimit="10" stroke-linejoin="miter" stroke-linecap="square" stroke-dashoffset="0" stroke-dasharray="none" stroke="black" shape-rendering="auto" image-rendering="auto" height="129.96" font-weight="normal" font-style="normal" font-size="12" font-family="'Dialog'" fill-opacity="1" fill="black" color-rendering="auto" color-interpolation="auto" xmlns="http://www.w3.org/2000/svg"><g><g stroke="white" fill="white"><rect y="0" x="0" width="11558" stroke="none" height="4332"/></g><g transform="translate(32866,32758)" text-rendering="geometricPrecision" stroke-width="44" stroke-linejoin="round" stroke-linecap="round"><line y2="-30344" y1="-30758" x2="-25384" x1="-26104" fill="none"/><line y2="-30758" y1="-30454" x2="-24289" x1="-24818" fill="none"/><line y2="-30454" y1="-30758" x2="-26632" x1="-26104" fill="none"/><line y2="-30758" y1="-30344" x2="-27918" x1="-27198" fill="none"/><line y2="-31587" y1="-30758" x2="-26173" x1="-26173" fill="none"/><line y2="-31587" y1="-30758" x2="-26034" x1="-26034" fill="none"/><line y2="-30235" y1="-30758" x2="-23382" x1="-24289" fill="none"/><line y2="-31587" y1="-30758" x2="-24359" x1="-24359" fill="none"/><line y2="-31587" y1="-30758" x2="-24220" x1="-24220" fill="none"/><line y2="-30758" y1="-31896" x2="-27918" x1="-27918" fill="none"/><line y2="-30902" y1="-31754" x2="-28088" x1="-28088" fill="none"/><line y2="-30191" y1="-30758" x2="-28903" x1="-27918" fill="none"/><line y2="-31896" y1="-32465" x2="-27918" x1="-28903" fill="none"/><line y2="-30758" y1="-30191" x2="-29888" x1="-28903" fill="none"/><line y2="-30836" y1="-30408" x2="-29680" x1="-28940" fill="none"/><line y2="-32465" y1="-31896" x2="-28903" x1="-29888" fill="none"/><line y2="-32245" y1="-31821" x2="-28940" x1="-29680" fill="none"/><line y2="-31896" y1="-30758" x2="-29888" x1="-29888" fill="none"/><line y2="-32312" y1="-31896" x2="-30607" x1="-29888" fill="none"/><line y2="-31896" y1="-32312" x2="-31702" x1="-30983" fill="none"/><line y2="-30804" y1="-30235" x2="-22400" x1="-23382" fill="none"/><line y2="-30587" y1="-30160" x2="-22438" x1="-23174" fill="none"/><line y2="-30235" y1="-29096" x2="-23382" x1="-23382" fill="none"/><line y2="-30235" y1="-30804" x2="-21412" x1="-22400" fill="none"/><line y2="-29096" y1="-28530" x2="-23382" x1="-22400" fill="none"/><line y2="-29174" y1="-28747" x2="-23174" x1="-22438" fill="none"/><line y2="-29096" y1="-30235" x2="-21412" x1="-21412" fill="none"/><line y2="-29241" y1="-30093" x2="-21582" x1="-21582" fill="none"/><line y2="-28530" y1="-29096" x2="-22400" x1="-21412" fill="none"/><line y2="-31633" y1="-30804" x2="-22400" x1="-22400" fill="none"/><line y2="-32312" y1="-31896" x2="-32422" x1="-31702" fill="none"/><line y2="-31208" y1="-31896" x2="-32101" x1="-31702" fill="none"/><line y2="-31208" y1="-31896" x2="-31306" x1="-31702" fill="none"/><text y="-30056" xml:space="preserve" x="-27164" stroke="none" font-size="433.3333" font-family="sans-serif">NH</text><text y="-30056" xml:space="preserve" x="-25350" stroke="none" font-size="433.3333" font-family="sans-serif">NH</text><text y="-31627" xml:space="preserve" x="-26257" stroke="none" font-size="433.3333" font-family="sans-serif">O</text><text y="-31627" xml:space="preserve" x="-24442" stroke="none" font-size="433.3333" font-family="sans-serif">O</text><text y="-32242" xml:space="preserve" x="-30948" stroke="none" font-size="433.3333" font-family="sans-serif">O</text><text y="-32242" xml:space="preserve" x="-32762" stroke="none" font-size="433.3333" font-family="sans-serif">F</text><text y="-30810" xml:space="preserve" x="-32378" stroke="none" font-size="433.3333" font-family="sans-serif">F</text><text y="-30810" xml:space="preserve" x="-31332" stroke="none" font-size="433.3333" font-family="sans-serif">F</text><text y="-31673" xml:space="preserve" x="-22631" stroke="none" font-size="433.3333" font-family="sans-serif">Cl</text></g></g></svg>