<svg width="384.24" viewBox="0 0 12808 12091" text-rendering="auto" stroke-width="1" stroke-opacity="1" stroke-miterlimit="10" stroke-linejoin="miter" stroke-linecap="square" stroke-dashoffset="0" stroke-dasharray="none" stroke="black" shape-rendering="auto" image-rendering="auto" height="362.73" font-weight="normal" font-style="normal" font-size="12" font-family="'Dialog'" fill-opacity="1" fill="black" color-rendering="auto" color-interpolation="auto" xmlns="http://www.w3.org/2000/svg"><g><g stroke="white" fill="white"><rect y="0" x="0" width="12808" stroke="none" height="12091"/></g><g transform="translate(32866,32758)" text-rendering="geometricPrecision" stroke-width="44" stroke-linejoin="round" stroke-linecap="round"><line y2="-26000" y1="-25428" x2="-25953" x1="-24971" fill="none"/><line y2="-25428" y1="-24856" x2="-24971" x1="-23974" fill="none"/><line y2="-24281" y1="-25428" x2="-24971" x1="-24971" fill="none"/><line y2="-26000" y1="-25428" x2="-25953" x1="-26936" fill="none"/><line y2="-27146" y1="-26000" x2="-25953" x1="-25953" fill="none"/><line y2="-27146" y1="-26000" x2="-23986" x1="-23986" fill="none"/><line y2="-24856" y1="-26572" x2="-23974" x1="-22995" fill="none"/><line y2="-23706" y1="-24281" x2="-25953" x1="-24971" fill="none"/><line y2="-24281" y1="-25428" x2="-26936" x1="-26936" fill="none"/><line y2="-25428" y1="-26000" x2="-26936" x1="-27918" fill="none"/><line y2="-27718" y1="-27146" x2="-24971" x1="-25953" fill="none"/><line y2="-26572" y1="-27146" x2="-22995" x1="-23986" fill="none"/><line y2="-27146" y1="-27718" x2="-23986" x1="-24971" fill="none"/><line y2="-24281" y1="-23706" x2="-26936" x1="-25953" fill="none"/><line y2="-23706" y1="-24281" x2="-27918" x1="-26936" fill="none"/><line y2="-26000" y1="-25428" x2="-27918" x1="-28900" fill="none"/><line y2="-24281" y1="-23706" x2="-28900" x1="-27918" fill="none"/><line y2="-25428" y1="-24281" x2="-28900" x1="-28900" fill="none"/><line y2="-22660" y1="-23706" x2="-27918" x1="-27918" fill="none"/><line y2="-29099" y1="-28273" x2="-23463" x1="-23463" fill="none"/><line y2="-26843" y1="-26572" x2="-21984" x1="-22995" fill="none"/><line y2="-26710" y1="-26439" x2="-21946" x1="-22960" fill="none"/><line y2="-22244" y1="-22660" x2="-28637" x1="-27918" fill="none"/><line y2="-22305" y1="-22721" x2="-27164" x1="-27883" fill="none"/><line y2="-22183" y1="-22599" x2="-27233" x1="-27952" fill="none"/><line y2="-29099" y1="-29559" x2="-23463" x1="-22669" fill="none"/><line y2="-29666" y1="-29099" x2="-24448" x1="-23463" fill="none"/><line y2="-29888" y1="-30804" x2="-22481" x1="-22478" fill="none"/><line y2="-30807" y1="-29666" x2="-24448" x1="-24448" fill="none"/><line y2="-30804" y1="-31376" x2="-22478" x1="-23466" fill="none"/><line y2="-31376" y1="-30807" x2="-23466" x1="-24448" fill="none"/><line y2="-30914" y1="-31330" x2="-20852" x1="-21571" fill="none"/><line y2="-22660" y1="-23576" x2="-29732" x1="-29732" fill="none"/><line y2="-22091" y1="-22660" x2="-30714" x1="-29732" fill="none"/><line y2="-23905" y1="-24364" x2="-29920" x1="-30714" fill="none"/><line y2="-22660" y1="-22091" x2="-31702" x1="-30714" fill="none"/><line y2="-24364" y1="-23795" x2="-30714" x1="-31702" fill="none"/><line y2="-23795" y1="-22660" x2="-31702" x1="-31702" fill="none"/><line y2="-25716" y1="-25413" x2="-31243" x1="-30714" fill="none"/><polygon stroke-width="1" stroke="none" points=" -27918 -23706 -28790 -23122 -28860 -23244"/><polygon stroke-width="1" points=" -27918 -23706 -28790 -23122 -28860 -23244" fill="none"/><polygon stroke-width="1" stroke="none" points=" -25953 -26000 -25884 -25170 -26023 -25170"/><polygon stroke-width="1" points=" -25953 -26000 -25884 -25170 -26023 -25170" fill="none"/><polygon stroke-width="1" stroke="none" points=" -26936 -24281 -26866 -23452 -27005 -23452"/><polygon stroke-width="1" points=" -26936 -24281 -26866 -23452 -27005 -23452" fill="none"/><polygon stroke-width="1" stroke="none" points=" -28978 -22302 -29732 -22660 -29047 -22183"/><polygon stroke-width="1" points=" -28978 -22302 -29732 -22660 -29047 -22183" fill="none"/><polygon stroke-width="1" stroke="none" points=" -22478 -30804 -21606 -31387 -21536 -31269"/><polygon stroke-width="1" points=" -22478 -30804 -21606 -31387 -21536 -31269" fill="none"/><polygon stroke-width="1" stroke="none" points=" -24448 -30807 -25012 -31049 -24942 -31171"/><polygon stroke-width="1" points=" -24448 -30807 -25012 -31049 -24942 -31171" fill="none"/><polygon stroke-width="1" stroke="none" points=" -30714 -24364 -30784 -25413 -30648 -25413"/><polygon stroke-width="1" points=" -30714 -24364 -30784 -25413 -30648 -25413" fill="none"/><polygon stroke-width="1" stroke="none" points=" -31702 -22660 -32193 -22296 -32266 -22414"/><polygon stroke-width="1" points=" -31702 -22660 -32193 -22296 -32266 -22414" fill="none"/><line y2="-25939" y1="-26060" x2="-23951" x1="-24021" fill="none"/><line y2="-25842" y1="-25940" x2="-24145" x1="-24202" fill="none"/><line y2="-25745" y1="-25820" x2="-24339" x1="-24382" fill="none"/><line y2="-25647" y1="-25699" x2="-24533" x1="-24563" fill="none"/><line y2="-25550" y1="-25579" x2="-24727" x1="-24744" fill="none"/><line y2="-25453" y1="-25459" x2="-24921" x1="-24925" fill="none"/><line y2="-27799" y1="-27866" x2="-23530" x1="-23651" fill="none"/><line y2="-27620" y1="-27669" x2="-23655" x1="-23743" fill="none"/><line y2="-27442" y1="-27472" x2="-23779" x1="-23834" fill="none"/><line y2="-27263" y1="-27275" x2="-23904" x1="-23926" fill="none"/><line y2="-26473" y1="-26473" x2="-26866" x1="-27005" fill="none"/><line y2="-26256" y1="-26256" x2="-26881" x1="-26991" fill="none"/><line y2="-26040" y1="-26040" x2="-26895" x1="-26976" fill="none"/><line y2="-25823" y1="-25823" x2="-26910" x1="-26962" fill="none"/><line y2="-25606" y1="-25606" x2="-26924" x1="-26948" fill="none"/><line y2="-29423" y1="-29302" x2="-25009" x1="-24942" fill="none"/><line y2="-29510" y1="-29432" x2="-24809" x1="-24766" fill="none"/><line y2="-29596" y1="-29561" x2="-24610" x1="-24590" fill="none"/><line y2="-32202" y1="-32202" x2="-23397" x1="-23535" fill="none"/><line y2="-31985" y1="-31985" x2="-23415" x1="-23517" fill="none"/><line y2="-31769" y1="-31769" x2="-23433" x1="-23499" fill="none"/><line y2="-31552" y1="-31552" x2="-23451" x1="-23481" fill="none"/><line y2="-28744" y1="-28626" x2="-24217" x1="-24151" fill="none"/><line y2="-28837" y1="-28749" x2="-24021" x1="-23972" fill="none"/><line y2="-28929" y1="-28873" x2="-23824" x1="-23792" fill="none"/><line y2="-29022" y1="-28996" x2="-23628" x1="-23613" fill="none"/><line y2="-21262" y1="-21262" x2="-30784" x1="-30648" fill="none"/><line y2="-21479" y1="-21479" x2="-30766" x1="-30665" fill="none"/><line y2="-21695" y1="-21695" x2="-30747" x1="-30682" fill="none"/><line y2="-21912" y1="-21912" x2="-30729" x1="-30700" fill="none"/><line y2="-24159" y1="-24041" x2="-32196" x1="-32263" fill="none"/><line y2="-24030" y1="-23954" x2="-32020" x1="-32064" fill="none"/><line y2="-23900" y1="-23866" x2="-31845" x1="-31864" fill="none"/><text y="-27874" xml:space="preserve" x="-23616" stroke="none" font-size="433.3333" font-family="sans-serif">O</text><text y="-21955" xml:space="preserve" x="-28978" stroke="none" font-size="433.3333" font-family="sans-serif">O</text><text y="-21955" xml:space="preserve" x="-27164" stroke="none" font-size="433.3333" font-family="sans-serif">O</text><text y="-28964" xml:space="preserve" x="-25508" stroke="none" font-size="433.3333" font-family="sans-serif">OH</text><text y="-30625" xml:space="preserve" x="-20817" stroke="none" font-size="433.3333" font-family="sans-serif">OH</text><text y="-31150" xml:space="preserve" x="-25508" stroke="none" font-size="433.3333" font-family="sans-serif">OH</text><text y="-32242" xml:space="preserve" x="-23616" stroke="none" font-size="433.3333" font-family="sans-serif">OH</text><text y="-20863" xml:space="preserve" x="-30867" stroke="none" font-size="433.3333" font-family="sans-serif">OH</text><text y="-25757" xml:space="preserve" x="-31774" stroke="none" font-size="433.3333" font-family="sans-serif">OH</text><text y="-21955" xml:space="preserve" x="-32762" stroke="none" font-size="433.3333" font-family="sans-serif">OH</text><text y="-24142" xml:space="preserve" x="-32762" stroke="none" font-size="433.3333" font-family="sans-serif">OH</text><text y="-29489" xml:space="preserve" x="-22631" stroke="none" font-size="433.3333" font-family="sans-serif">O</text><text y="-23616" xml:space="preserve" x="-29885" stroke="none" font-size="433.3333" font-family="sans-serif">O</text><text y="-24772" xml:space="preserve" x="-26106" stroke="none" font-size="433.3333" font-family="sans-serif">H</text><text y="-23053" xml:space="preserve" x="-27089" stroke="none" font-size="433.3333" font-family="sans-serif">H</text><text y="-28397" xml:space="preserve" x="-24523" stroke="none" font-size="433.3333" font-family="sans-serif">H</text><text y="-25104" xml:space="preserve" x="-25373" stroke="none" font-style="italic" font-size="313.3333" font-family="sans-serif">R</text><text y="-25965" xml:space="preserve" x="-25858" stroke="none" font-style="italic" font-size="313.3333" font-family="sans-serif">R</text><text y="-25104" xml:space="preserve" x="-26840" stroke="none" font-style="italic" font-size="313.3333" font-family="sans-serif">S</text><text y="-26823" xml:space="preserve" x="-24388" stroke="none" font-style="italic" font-size="313.3333" font-family="sans-serif">S</text><text y="-24246" xml:space="preserve" x="-27337" stroke="none" font-style="italic" font-size="313.3333" font-family="sans-serif">S</text><text y="-23385" xml:space="preserve" x="-27822" stroke="none" font-style="italic" font-size="313.3333" font-family="sans-serif">R</text><text y="-28776" xml:space="preserve" x="-23368" stroke="none" font-style="italic" font-size="313.3333" font-family="sans-serif">S</text><text y="-29631" xml:space="preserve" x="-24353" stroke="none" font-style="italic" font-size="313.3333" font-family="sans-serif">R</text><text y="-30480" xml:space="preserve" x="-22880" stroke="none" font-style="italic" font-size="313.3333" font-family="sans-serif">R</text><text y="-30483" xml:space="preserve" x="-24353" stroke="none" font-style="italic" font-size="313.3333" font-family="sans-serif">S</text><text y="-30893" xml:space="preserve" x="-23616" stroke="none" font-style="italic" font-size="313.3333" font-family="sans-serif">S</text><text y="-22625" xml:space="preserve" x="-30134" stroke="none" font-style="italic" font-size="313.3333" font-family="sans-serif">S</text><text y="-22215" xml:space="preserve" x="-30867" stroke="none" font-style="italic" font-size="313.3333" font-family="sans-serif">R</text><text y="-23885" xml:space="preserve" x="-30867" stroke="none" font-style="italic" font-size="313.3333" font-family="sans-serif">R</text><text y="-22625" xml:space="preserve" x="-31607" stroke="none" font-style="italic" font-size="313.3333" font-family="sans-serif">S</text><text y="-23475" xml:space="preserve" x="-31607" stroke="none" font-style="italic" font-size="313.3333" font-family="sans-serif">S</text></g></g></svg>