<svg width="236.16" viewBox="0 0 7872 4182" text-rendering="auto" stroke-width="1" stroke-opacity="1" stroke-miterlimit="10" stroke-linejoin="miter" stroke-linecap="square" stroke-dashoffset="0" stroke-dasharray="none" stroke="black" shape-rendering="auto" image-rendering="auto" height="125.46" font-weight="normal" font-style="normal" font-size="12" font-family="'Dialog'" fill-opacity="1" fill="black" color-rendering="auto" color-interpolation="auto" xmlns="http://www.w3.org/2000/svg"><g><g stroke="white" fill="white"><rect y="0" x="0" width="7872" stroke="none" height="4182"/></g><g transform="translate(32866,32758)" text-rendering="geometricPrecision" stroke-width="44" stroke-linejoin="round" stroke-linecap="round"><line y2="-29420" y1="-30850" x2="-28316" x1="-28316" fill="none"/><line y2="-30850" y1="-31566" x2="-28316" x1="-29556" fill="none"/><line y2="-30792" y1="-31330" x2="-28559" x1="-29484" fill="none"/><line y2="-31457" y1="-30850" x2="-27265" x1="-28316" fill="none"/><line y2="-29420" y1="-29420" x2="-28316" x1="-25838" fill="none"/><line y2="-28706" y1="-29420" x2="-29556" x1="-28316" fill="none"/><line y2="-28943" y1="-29478" x2="-29484" x1="-28559" fill="none"/><line y2="-31566" y1="-30850" x2="-29556" x1="-30795" fill="none"/><line y2="-30960" y1="-31347" x2="-26026" x1="-26696" fill="none"/><line y2="-29420" y1="-30630" x2="-25838" x1="-25838" fill="none"/><line y2="-29573" y1="-30480" x2="-26008" x1="-26008" fill="none"/><line y2="-29420" y1="-28706" x2="-30795" x1="-29556" fill="none"/><line y2="-30850" y1="-29420" x2="-30795" x1="-30795" fill="none"/><line y2="-30671" y1="-29599" x2="-30625" x1="-30625" fill="none"/><line y2="-28680" y1="-29420" x2="-25098" x1="-25838" fill="none"/><line y2="-31266" y1="-30850" x2="-31514" x1="-30795" fill="none"/><line y2="-32202" y1="-31595" x2="-31772" x1="-31772" fill="none"/><line y2="-32202" y1="-31595" x2="-31633" x1="-31633" fill="none"/><line y2="-30899" y1="-31205" x2="-32387" x1="-31855" fill="none"/><line y2="-31020" y1="-31327" x2="-32456" x1="-31925" fill="none"/><text y="-31197" xml:space="preserve" x="-31855" stroke="none" font-size="433.3333" font-family="sans-serif">N</text><text y="-32242" xml:space="preserve" x="-31855" stroke="none" font-size="433.3333" font-family="sans-serif">O</text><text y="-30671" xml:space="preserve" x="-32762" stroke="none" font-size="433.3333" font-family="sans-serif">O</text><text y="-31387" xml:space="preserve" x="-27227" stroke="none" font-size="433.3333" font-family="sans-serif">NH</text><text y="-30671" xml:space="preserve" x="-25991" stroke="none" font-size="433.3333" font-family="sans-serif">N</text></g></g></svg>