<svg width="542.01" viewBox="0 0 18067 7908" text-rendering="auto" stroke-width="1" stroke-opacity="1" stroke-miterlimit="10" stroke-linejoin="miter" stroke-linecap="square" stroke-dashoffset="0" stroke-dasharray="none" stroke="black" shape-rendering="auto" image-rendering="auto" height="237.24" font-weight="normal" font-style="normal" font-size="12" font-family="'Dialog'" fill-opacity="1" fill="black" color-rendering="auto" color-interpolation="auto" xmlns="http://www.w3.org/2000/svg"><g><g stroke="white" fill="white"><rect y="0" x="0" width="18067" stroke="none" height="7908"/></g><g transform="translate(32866,32758)" text-rendering="geometricPrecision" stroke-width="44" stroke-linejoin="round" stroke-linecap="round"><line y2="-28458" y1="-29027" x2="-24286" x1="-25269" fill="none"/><line y2="-28383" y1="-28810" x2="-24494" x1="-25231" fill="none"/><line y2="-27323" y1="-28458" x2="-24286" x1="-24286" fill="none"/><line y2="-29027" y1="-28458" x2="-25269" x1="-26257" fill="none"/><line y2="-26754" y1="-27323" x2="-25269" x1="-24286" fill="none"/><line y2="-26970" y1="-27398" x2="-25231" x1="-24494" fill="none"/><line y2="-28458" y1="-27323" x2="-26257" x1="-26257" fill="none"/><line y2="-28316" y1="-27464" x2="-26086" x1="-26086" fill="none"/><line y2="-27323" y1="-26754" x2="-26257" x1="-25269" fill="none"/><line y2="-28984" y1="-28458" x2="-23379" x1="-24286" fill="none"/><line y2="-26907" y1="-27323" x2="-26976" x1="-26257" fill="none"/><line y2="-27152" y1="-26846" x2="-27918" x1="-27386" fill="none"/><line y2="-27274" y1="-26967" x2="-27848" x1="-27317" fill="none"/><line y2="-26797" y1="-27213" x2="-28978" x1="-28259" fill="none"/><line y2="-28874" y1="-28458" x2="-26976" x1="-26257" fill="none"/><line y2="-28626" y1="-28874" x2="-27782" x1="-27352" fill="none"/><line y2="-30119" y1="-28984" x2="-23379" x1="-23379" fill="none"/><line y2="-29978" y1="-29125" x2="-23209" x1="-23209" fill="none"/><line y2="-28984" y1="-28415" x2="-23379" x1="-22391" fill="none"/><line y2="-30688" y1="-30119" x2="-22391" x1="-23379" fill="none"/><line y2="-28415" y1="-28984" x2="-22391" x1="-21409" fill="none"/><line y2="-28631" y1="-29059" x2="-22354" x1="-21617" fill="none"/><line y2="-30119" y1="-30688" x2="-21409" x1="-22391" fill="none"/><line y2="-30044" y1="-30472" x2="-21617" x1="-22354" fill="none"/><line y2="-28984" y1="-30119" x2="-21409" x1="-21409" fill="none"/><line y2="-30535" y1="-30119" x2="-20690" x1="-21409" fill="none"/><line y2="-30290" y1="-30596" x2="-19748" x1="-20280" fill="none"/><line y2="-30168" y1="-30474" x2="-19817" x1="-20349" fill="none"/><line y2="-30645" y1="-30229" x2="-18688" x1="-19407" fill="none"/><line y2="-31517" y1="-30688" x2="-22391" x1="-22391" fill="none"/><line y2="-32092" y1="-31844" x2="-23010" x1="-22579" fill="none"/><line y2="-27323" y1="-26797" x2="-29885" x1="-28978" fill="none"/><line y2="-25751" y1="-26797" x2="-28978" x1="-28978" fill="none"/><line y2="-30119" y1="-30645" x2="-17781" x1="-18688" fill="none"/><line y2="-31691" y1="-30645" x2="-18688" x1="-18688" fill="none"/><line y2="-28149" y1="-27323" x2="-29885" x1="-29885" fill="none"/><line y2="-28894" y1="-28478" x2="-30792" x1="-30073" fill="none"/><line y2="-26846" y1="-27262" x2="-30570" x1="-29850" fill="none"/><line y2="-26967" y1="-27383" x2="-30639" x1="-29920" fill="none"/><line y2="-25225" y1="-25751" x2="-29885" x1="-28978" fill="none"/><line y2="-25396" y1="-25812" x2="-28224" x1="-28943" fill="none"/><line y2="-25274" y1="-25688" x2="-28293" x1="-29013" fill="none"/><line y2="-29293" y1="-30119" x2="-17781" x1="-17781" fill="none"/><line y2="-28548" y1="-28854" x2="-16874" x1="-17399" fill="none"/><line y2="-30596" y1="-30180" x2="-17096" x1="-17815" fill="none"/><line y2="-30474" y1="-30058" x2="-17027" x1="-17746" fill="none"/><line y2="-32216" y1="-31691" x2="-17781" x1="-18688" fill="none"/><line y2="-32046" y1="-31630" x2="-19442" x1="-18722" fill="none"/><line y2="-32167" y1="-31751" x2="-19372" x1="-18653" fill="none"/><line y2="-28894" y1="-30030" x2="-30792" x1="-30792" fill="none"/><line y2="-29036" y1="-29888" x2="-30963" x1="-30963" fill="none"/><line y2="-28325" y1="-28894" x2="-31774" x1="-30792" fill="none"/><line y2="-30030" y1="-30599" x2="-30792" x1="-31774" fill="none"/><line y2="-28894" y1="-28325" x2="-32762" x1="-31774" fill="none"/><line y2="-28969" y1="-28542" x2="-32554" x1="-31815" fill="none"/><line y2="-30599" y1="-30030" x2="-31774" x1="-32762" fill="none"/><line y2="-30382" y1="-29954" x2="-31815" x1="-32554" fill="none"/><line y2="-30030" y1="-28894" x2="-32762" x1="-32762" fill="none"/><line y2="-28548" y1="-27412" x2="-16874" x1="-16874" fill="none"/><line y2="-28406" y1="-27554" x2="-16703" x1="-16703" fill="none"/><line y2="-29117" y1="-28548" x2="-15886" x1="-16874" fill="none"/><line y2="-27412" y1="-26843" x2="-16874" x1="-15886" fill="none"/><line y2="-28548" y1="-29117" x2="-14903" x1="-15886" fill="none"/><line y2="-28472" y1="-28900" x2="-15111" x1="-15848" fill="none"/><line y2="-26843" y1="-27412" x2="-15886" x1="-14903" fill="none"/><line y2="-27060" y1="-27487" x2="-15848" x1="-15111" fill="none"/><line y2="-27412" y1="-28548" x2="-14903" x1="-14903" fill="none"/><text y="-28805" xml:space="preserve" x="-27317" stroke="none" font-size="433.3333" font-family="sans-serif">O</text><text y="-28227" xml:space="preserve" x="-28314" stroke="none" font-size="433.3333" font-family="sans-serif">CH</text><text y="-28137" xml:space="preserve" x="-27736" stroke="none" font-size="313.3333" font-family="sans-serif">3</text><text y="-31558" xml:space="preserve" x="-22544" stroke="none" font-size="433.3333" font-family="sans-serif">O</text><text y="-32242" xml:space="preserve" x="-23732" stroke="none" font-size="433.3333" font-family="sans-serif">CH</text><text y="-32153" xml:space="preserve" x="-23154" stroke="none" font-size="313.3333" font-family="sans-serif">3</text><text y="-26618" xml:space="preserve" x="-27317" stroke="none" font-size="433.3333" font-family="sans-serif">N</text><text y="-27144" xml:space="preserve" x="-28224" stroke="none" font-size="433.3333" font-family="sans-serif">N</text><text y="-28189" xml:space="preserve" x="-30038" stroke="none" font-size="433.3333" font-family="sans-serif">NH</text><text y="-26618" xml:space="preserve" x="-30945" stroke="none" font-size="433.3333" font-family="sans-serif">O</text><text y="-25046" xml:space="preserve" x="-28224" stroke="none" font-size="433.3333" font-family="sans-serif">O</text><text y="-30466" xml:space="preserve" x="-20655" stroke="none" font-size="433.3333" font-family="sans-serif">N</text><text y="-29940" xml:space="preserve" x="-19748" stroke="none" font-size="433.3333" font-family="sans-serif">N</text><text y="-28894" xml:space="preserve" x="-17931" stroke="none" font-size="433.3333" font-family="sans-serif">NH</text><text y="-30466" xml:space="preserve" x="-17024" stroke="none" font-size="433.3333" font-family="sans-serif">O</text><text y="-32037" xml:space="preserve" x="-19748" stroke="none" font-size="433.3333" font-family="sans-serif">O</text></g></g></svg>