<svg width="396.99" viewBox="0 0 13233 1033" text-rendering="auto" stroke-width="1" stroke-opacity="1" stroke-miterlimit="10" stroke-linejoin="miter" stroke-linecap="square" stroke-dashoffset="0" stroke-dasharray="none" stroke="black" shape-rendering="auto" image-rendering="auto" height="30.99" font-weight="normal" font-style="normal" font-size="12" font-family="'Dialog'" fill-opacity="1" fill="black" color-rendering="auto" color-interpolation="auto" xmlns="http://www.w3.org/2000/svg"><g><g stroke="white" fill="white"><rect y="0" x="0" width="13233" stroke="none" height="1033"/></g><g transform="translate(32866,32758)" text-rendering="geometricPrecision" stroke-width="44" stroke-linejoin="round" stroke-linecap="round"><line y2="-31899" y1="-31899" x2="-26271" x1="-27320" fill="none"/><line y2="-32037" y1="-32037" x2="-26404" x1="-27190" fill="none"/><line y2="-32422" y1="-31899" x2="-28227" x1="-27320" fill="none"/><line y2="-31899" y1="-32422" x2="-29134" x1="-28227" fill="none"/><line y2="-32422" y1="-31899" x2="-30041" x1="-29134" fill="none"/><line y2="-31899" y1="-32422" x2="-30948" x1="-30041" fill="none"/><line y2="-32422" y1="-31899" x2="-31855" x1="-30948" fill="none"/><line y2="-31899" y1="-32422" x2="-32762" x1="-31855" fill="none"/><line y2="-32422" y1="-31899" x2="-25364" x1="-26271" fill="none"/><line y2="-31899" y1="-32422" x2="-24457" x1="-25364" fill="none"/><line y2="-32422" y1="-31899" x2="-23550" x1="-24457" fill="none"/><line y2="-31899" y1="-32422" x2="-22643" x1="-23550" fill="none"/><line y2="-32422" y1="-31899" x2="-21736" x1="-22643" fill="none"/><line y2="-31899" y1="-32422" x2="-20828" x1="-21736" fill="none"/><line y2="-32315" y1="-31899" x2="-20109" x1="-20828" fill="none"/><line y2="-32141" y1="-31829" x2="-20129" x1="-20670" fill="none"/><text y="-32242" xml:space="preserve" x="-20074" stroke="none" font-size="433.3333" font-family="sans-serif">O</text><text y="-32185" xml:space="preserve" x="-26947" stroke="none" font-style="italic" font-size="313.3333" font-family="sans-serif">Z</text></g></g></svg>