<svg width="462.36" viewBox="0 0 15412 6645" text-rendering="auto" stroke-width="1" stroke-opacity="1" stroke-miterlimit="10" stroke-linejoin="miter" stroke-linecap="square" stroke-dashoffset="0" stroke-dasharray="none" stroke="black" shape-rendering="auto" image-rendering="auto" height="199.35" font-weight="normal" font-style="normal" font-size="12" font-family="'Dialog'" fill-opacity="1" fill="black" color-rendering="auto" color-interpolation="auto" xmlns="http://www.w3.org/2000/svg"><g><g stroke="white" fill="white"><rect y="0" x="0" width="15412" stroke="none" height="6645"/></g><g transform="translate(32866,32758)" text-rendering="geometricPrecision" stroke-width="44" stroke-linejoin="round" stroke-linecap="round"><line y2="-27536" y1="-28085" x2="-23194" x1="-23905" fill="none"/><line y2="-26470" y1="-27536" x2="-23561" x1="-23194" fill="none"/><line y2="-28094" y1="-27536" x2="-24281" x1="-25035" fill="none"/><line y2="-26470" y1="-26470" x2="-24708" x1="-23561" fill="none"/><line y2="-27536" y1="-26470" x2="-25035" x1="-24708" fill="none"/><line y2="-29278" y1="-28452" x2="-24093" x1="-24093" fill="none"/><line y2="-29804" y1="-29278" x2="-25000" x1="-24093" fill="none"/><line y2="-29755" y1="-29339" x2="-23411" x1="-24128" fill="none"/><line y2="-29634" y1="-29218" x2="-23339" x1="-24058" fill="none"/><line y2="-27643" y1="-28059" x2="-21568" x1="-22287" fill="none"/><line y2="-28059" y1="-27756" x2="-20473" x1="-20999" fill="none"/><line y2="-28888" y1="-28100" x2="-22357" x1="-22357" fill="none"/><line y2="-28888" y1="-28059" x2="-22218" x1="-22218" fill="none"/><line y2="-29296" y1="-29804" x2="-25919" x1="-25000" fill="none"/><line y2="-31376" y1="-30960" x2="-25907" x1="-25188" fill="none"/><line y2="-27536" y1="-28059" x2="-19566" x1="-20473" fill="none"/><line y2="-30867" y1="-31376" x2="-26826" x1="-25907" fill="none"/><line y2="-32202" y1="-31376" x2="-25979" x1="-25979" fill="none"/><line y2="-32202" y1="-31376" x2="-25838" x1="-25838" fill="none"/><line y2="-28059" y1="-27536" x2="-18659" x1="-19566" fill="none"/><line y2="-27733" y1="-28059" x2="-18090" x1="-18659" fill="none"/><line y2="-26707" y1="-27536" x2="-19497" x1="-19497" fill="none"/><line y2="-26707" y1="-27536" x2="-19635" x1="-19635" fill="none"/><line y2="-29631" y1="-29108" x2="-19566" x1="-20473" fill="none"/><line y2="-29631" y1="-29108" x2="-21380" x1="-20473" fill="none"/><line y2="-31390" y1="-30867" x2="-27733" x1="-26826" fill="none"/><line y2="-29310" y1="-29715" x2="-27742" x1="-27014" fill="none"/><line y2="-29833" y1="-29310" x2="-28649" x1="-27742" fill="none"/><line y2="-29325" y1="-29833" x2="-29564" x1="-28649" fill="none"/><line y2="-29848" y1="-29325" x2="-30472" x1="-29564" fill="none"/><line y2="-28481" y1="-29310" x2="-27669" x1="-27669" fill="none"/><line y2="-28481" y1="-29310" x2="-27811" x1="-27811" fill="none"/><line y2="-29446" y1="-29848" x2="-31200" x1="-30472" fill="none"/><line y2="-29718" y1="-29449" x2="-32040" x1="-31575" fill="none"/><line y2="-30677" y1="-29848" x2="-30541" x1="-30541" fill="none"/><line y2="-30677" y1="-29848" x2="-30402" x1="-30402" fill="none"/><polygon stroke-width="1" stroke="none" points=" -20473 -28059 -20542 -29105 -20404 -29108"/><polygon stroke-width="1" points=" -20473 -28059 -20542 -29105 -20404 -29108" fill="none"/><polygon stroke-width="1" stroke="none" points=" -26826 -30867 -26756 -30038 -26892 -30038"/><polygon stroke-width="1" points=" -26826 -30867 -26756 -30038 -26892 -30038" fill="none"/><line y2="-27999" y1="-28120" x2="-22253" x1="-22322" fill="none"/><line y2="-27903" y1="-27999" x2="-22448" x1="-22502" fill="none"/><line y2="-27807" y1="-27878" x2="-22643" x1="-22683" fill="none"/><line y2="-27712" y1="-27757" x2="-22837" x1="-22863" fill="none"/><line y2="-27616" y1="-27636" x2="-23032" x1="-23044" fill="none"/><line y2="-30630" y1="-30630" x2="-24934" x1="-25069" fill="none"/><line y2="-30413" y1="-30413" x2="-24951" x1="-25051" fill="none"/><line y2="-30197" y1="-30197" x2="-24969" x1="-25033" fill="none"/><line y2="-29980" y1="-29980" x2="-24986" x1="-25015" fill="none"/><text y="-27357" xml:space="preserve" x="-21530" stroke="none" font-size="433.3333" font-family="sans-serif">NH</text><text y="-28929" xml:space="preserve" x="-22438" stroke="none" font-size="433.3333" font-family="sans-serif">O</text><text y="-26309" xml:space="preserve" x="-19716" stroke="none" font-size="433.3333" font-family="sans-serif">O</text><text y="-27357" xml:space="preserve" x="-17983" stroke="none" font-size="433.3333" font-family="sans-serif">Cl</text><text y="-29625" xml:space="preserve" x="-23339" stroke="none" font-size="433.3333" font-family="sans-serif">O</text><text y="-30671" xml:space="preserve" x="-25153" stroke="none" font-size="433.3333" font-family="sans-serif">NH</text><text y="-32242" xml:space="preserve" x="-26060" stroke="none" font-size="433.3333" font-family="sans-serif">O</text><text y="-29640" xml:space="preserve" x="-26976" stroke="none" font-size="433.3333" font-family="sans-serif">NH</text><text y="-28082" xml:space="preserve" x="-27892" stroke="none" font-size="433.3333" font-family="sans-serif">O</text><text y="-29160" xml:space="preserve" x="-31540" stroke="none" font-size="433.3333" font-family="sans-serif">O</text><text y="-30717" xml:space="preserve" x="-30625" stroke="none" font-size="433.3333" font-family="sans-serif">O</text><text y="-29868" xml:space="preserve" x="-32762" stroke="none" font-size="433.3333" font-family="sans-serif">CH</text><text y="-29778" xml:space="preserve" x="-32185" stroke="none" font-size="313.3333" font-family="sans-serif">3</text><text y="-28054" xml:space="preserve" x="-24246" stroke="none" font-size="433.3333" font-family="sans-serif">N</text><text y="-27577" xml:space="preserve" x="-20623" stroke="none" font-style="italic" font-size="313.3333" font-family="sans-serif">S</text><text y="-29322" xml:space="preserve" x="-25153" stroke="none" font-style="italic" font-size="313.3333" font-family="sans-serif">S</text><text y="-30989" xml:space="preserve" x="-26976" stroke="none" font-style="italic" font-size="313.3333" font-family="sans-serif">S</text><text y="-27259" xml:space="preserve" x="-23616" stroke="none" font-style="italic" font-size="313.3333" font-family="sans-serif">S</text></g></g></svg>