<svg width="265.44" viewBox="0 0 8848 3716" text-rendering="auto" stroke-width="1" stroke-opacity="1" stroke-miterlimit="10" stroke-linejoin="miter" stroke-linecap="square" stroke-dashoffset="0" stroke-dasharray="none" stroke="black" shape-rendering="auto" image-rendering="auto" height="111.48" font-weight="normal" font-style="normal" font-size="12" font-family="'Dialog'" fill-opacity="1" fill="black" color-rendering="auto" color-interpolation="auto" xmlns="http://www.w3.org/2000/svg"><g><g stroke="white" fill="white"><rect y="0" x="0" width="8848" stroke="none" height="3716"/></g><g transform="translate(32866,32758)" text-rendering="geometricPrecision" stroke-width="44" stroke-linejoin="round" stroke-linecap="round"><line y2="-30850" y1="-29715" x2="-26260" x1="-26260" fill="none"/><line y2="-31419" y1="-30850" x2="-25274" x1="-26260" fill="none"/><line y2="-31202" y1="-30775" x2="-25312" x1="-26052" fill="none"/><line y2="-29715" y1="-29146" x2="-26260" x1="-25274" fill="none"/><line y2="-29790" y1="-29362" x2="-26052" x1="-25312" fill="none"/><line y2="-30960" y1="-31419" x2="-24477" x1="-25274" fill="none"/><line y2="-29146" y1="-29715" x2="-25274" x1="-24289" fill="none"/><line y2="-29715" y1="-30630" x2="-24289" x1="-24289" fill="none"/><line y2="-29827" y1="-30518" x2="-24460" x1="-24460" fill="none"/><line y2="-31376" y1="-30850" x2="-27167" x1="-26260" fill="none"/><line y2="-31070" y1="-31376" x2="-27695" x1="-27167" fill="none"/><line y2="-31376" y1="-30960" x2="-28981" x1="-28262" fill="none"/><line y2="-30850" y1="-31376" x2="-29888" x1="-28981" fill="none"/><line y2="-31266" y1="-30850" x2="-30607" x1="-29888" fill="none"/><line y2="-30960" y1="-31266" x2="-31514" x1="-30983" fill="none"/><line y2="-32202" y1="-31376" x2="-27236" x1="-27236" fill="none"/><line y2="-32202" y1="-31376" x2="-27097" x1="-27097" fill="none"/><line y2="-30024" y1="-30630" x2="-31633" x1="-31633" fill="none"/><line y2="-30024" y1="-30630" x2="-31774" x1="-31774" fill="none"/><line y2="-31205" y1="-30899" x2="-32456" x1="-31928" fill="none"/><line y2="-31327" y1="-31020" x2="-32387" x1="-31855" fill="none"/><text y="-30671" xml:space="preserve" x="-28227" stroke="none" font-size="433.3333" font-family="sans-serif">NH</text><text y="-32242" xml:space="preserve" x="-27320" stroke="none" font-size="433.3333" font-family="sans-serif">O</text><text y="-31197" xml:space="preserve" x="-30948" stroke="none" font-size="433.3333" font-family="sans-serif">O</text><text y="-30671" xml:space="preserve" x="-31855" stroke="none" font-size="433.3333" font-family="sans-serif">N</text><text y="-29625" xml:space="preserve" x="-31855" stroke="none" font-size="433.3333" font-family="sans-serif">O</text><text y="-31197" xml:space="preserve" x="-32762" stroke="none" font-size="433.3333" font-family="sans-serif">O</text><text y="-30671" xml:space="preserve" x="-24442" stroke="none" font-size="433.3333" font-family="sans-serif">N</text></g></g></svg>