<svg width="344.28" viewBox="0 0 11476 5857" text-rendering="auto" stroke-width="1" stroke-opacity="1" stroke-miterlimit="10" stroke-linejoin="miter" stroke-linecap="square" stroke-dashoffset="0" stroke-dasharray="none" stroke="black" shape-rendering="auto" image-rendering="auto" height="175.71" font-weight="normal" font-style="normal" font-size="12" font-family="'Dialog'" fill-opacity="1" fill="black" color-rendering="auto" color-interpolation="auto" xmlns="http://www.w3.org/2000/svg"><g><g stroke="white" fill="white"><rect y="0" x="0" width="11476" stroke="none" height="5857"/></g><g transform="translate(32866,32758)" text-rendering="geometricPrecision" stroke-width="44" stroke-linejoin="round" stroke-linecap="round"><line y2="-30281" y1="-30807" x2="-24916" x1="-25823" fill="none"/><line y2="-30391" y1="-30807" x2="-26543" x1="-25823" fill="none"/><line y2="-30636" y1="-30330" x2="-27484" x1="-26953" fill="none"/><line y2="-30758" y1="-30451" x2="-27415" x1="-26884" fill="none"/><line y2="-30281" y1="-30697" x2="-28545" x1="-27825" fill="none"/><line y2="-31855" y1="-30807" x2="-25823" x1="-25823" fill="none"/><line y2="-29455" y1="-30281" x2="-24916" x1="-24916" fill="none"/><line y2="-28709" y1="-29016" x2="-24009" x1="-24535" fill="none"/><line y2="-30758" y1="-30344" x2="-24232" x1="-24951" fill="none"/><line y2="-30636" y1="-30220" x2="-24162" x1="-24882" fill="none"/><line y2="-30281" y1="-30850" x2="-28545" x1="-29527" fill="none"/><line y2="-30206" y1="-30633" x2="-28753" x1="-29489" fill="none"/><line y2="-29146" y1="-30281" x2="-28545" x1="-28545" fill="none"/><line y2="-30850" y1="-30281" x2="-29527" x1="-30515" fill="none"/><line y2="-28576" y1="-29146" x2="-29527" x1="-28545" fill="none"/><line y2="-28793" y1="-29221" x2="-29489" x1="-28753" fill="none"/><line y2="-30281" y1="-29146" x2="-30515" x1="-30515" fill="none"/><line y2="-30139" y1="-29287" x2="-30344" x1="-30344" fill="none"/><line y2="-29146" y1="-28576" x2="-30515" x1="-29527" fill="none"/><line y2="-31679" y1="-30850" x2="-29527" x1="-29527" fill="none"/><line y2="-28730" y1="-29146" x2="-31234" x1="-30515" fill="none"/><line y2="-28978" y1="-28730" x2="-32040" x1="-31610" fill="none"/><line y2="-32378" y1="-31855" x2="-24916" x1="-25823" fill="none"/><line y2="-32208" y1="-31792" x2="-26577" x1="-25858" fill="none"/><line y2="-32329" y1="-31916" x2="-26508" x1="-25789" fill="none"/><line y2="-29278" y1="-28709" x2="-23024" x1="-24009" fill="none"/><line y2="-29062" y1="-28634" x2="-23064" x1="-23801" fill="none"/><line y2="-28709" y1="-27574" x2="-24009" x1="-24009" fill="none"/><line y2="-28709" y1="-29278" x2="-22039" x1="-23024" fill="none"/><line y2="-27574" y1="-27005" x2="-24009" x1="-23024" fill="none"/><line y2="-27649" y1="-27222" x2="-23801" x1="-23064" fill="none"/><line y2="-27574" y1="-28709" x2="-22039" x1="-22039" fill="none"/><line y2="-27716" y1="-28568" x2="-22209" x1="-22209" fill="none"/><line y2="-27005" y1="-27574" x2="-23024" x1="-22039" fill="none"/><line y2="-30108" y1="-29278" x2="-23024" x1="-23024" fill="none"/><line y2="-30743" y1="-30434" x2="-22308" x1="-22836" fill="none"/><line y2="-32254" y1="-31945" x2="-30281" x1="-29752" fill="none"/><line y2="-32375" y1="-32069" x2="-30212" x1="-29680" fill="none"/><line y2="-32375" y1="-32069" x2="-28845" x1="-29374" fill="none"/><line y2="-32254" y1="-31945" x2="-28773" x1="-29304" fill="none"/><text y="-30628" xml:space="preserve" x="-27791" stroke="none" font-size="433.3333" font-family="sans-serif">N</text><text y="-30102" xml:space="preserve" x="-26884" stroke="none" font-size="433.3333" font-family="sans-serif">N</text><text y="-29056" xml:space="preserve" x="-25069" stroke="none" font-size="433.3333" font-family="sans-serif">NH</text><text y="-30628" xml:space="preserve" x="-24162" stroke="none" font-size="433.3333" font-family="sans-serif">O</text><text y="-32199" xml:space="preserve" x="-26884" stroke="none" font-size="433.3333" font-family="sans-serif">O</text><text y="-31720" xml:space="preserve" x="-29680" stroke="none" font-size="433.3333" font-family="sans-serif">N</text><text y="-32242" xml:space="preserve" x="-30587" stroke="none" font-size="433.3333" font-family="sans-serif">O</text><text y="-32242" xml:space="preserve" x="-28773" stroke="none" font-size="433.3333" font-family="sans-serif">O</text><text y="-28441" xml:space="preserve" x="-31575" stroke="none" font-size="433.3333" font-family="sans-serif">O</text><text y="-29128" xml:space="preserve" x="-32762" stroke="none" font-size="433.3333" font-family="sans-serif">CH</text><text y="-29039" xml:space="preserve" x="-32185" stroke="none" font-size="313.3333" font-family="sans-serif">3</text><text y="-30148" xml:space="preserve" x="-23177" stroke="none" font-size="433.3333" font-family="sans-serif">O</text><text y="-30671" xml:space="preserve" x="-22270" stroke="none" font-size="433.3333" font-family="sans-serif">CH</text><text y="-30581" xml:space="preserve" x="-21692" stroke="none" font-size="313.3333" font-family="sans-serif">3</text></g></g></svg>