<svg width="189.54" viewBox="0 0 6318 6554" text-rendering="auto" stroke-width="1" stroke-opacity="1" stroke-miterlimit="10" stroke-linejoin="miter" stroke-linecap="square" stroke-dashoffset="0" stroke-dasharray="none" stroke="black" shape-rendering="auto" image-rendering="auto" height="196.62" font-weight="normal" font-style="normal" font-size="12" font-family="'Dialog'" fill-opacity="1" fill="black" color-rendering="auto" color-interpolation="auto" xmlns="http://www.w3.org/2000/svg"><g><g stroke="white" fill="white"><rect y="0" x="0" width="6318" stroke="none" height="6554"/></g><g transform="translate(32866,32758)" text-rendering="geometricPrecision" stroke-width="44" stroke-linejoin="round" stroke-linecap="round"><line y2="-29397" y1="-29966" x2="-28545" x1="-29530" fill="none"/><line y2="-29322" y1="-29749" x2="-28753" x1="-29492" fill="none"/><line y2="-28259" y1="-29397" x2="-28545" x1="-28545" fill="none"/><line y2="-29966" y1="-29397" x2="-29530" x1="-30515" fill="none"/><line y2="-27692" y1="-28259" x2="-29530" x1="-28545" fill="none"/><line y2="-27909" y1="-28337" x2="-29492" x1="-28753" fill="none"/><line y2="-29397" y1="-28259" x2="-30515" x1="-30515" fill="none"/><line y2="-29255" y1="-28403" x2="-30344" x1="-30344" fill="none"/><line y2="-28259" y1="-27692" x2="-30515" x1="-29530" fill="none"/><line y2="-29923" y1="-29397" x2="-27638" x1="-28545" fill="none"/><line y2="-31295" y1="-29966" x2="-29527" x1="-29530" fill="none"/><line y2="-27846" y1="-28259" x2="-31234" x1="-30515" fill="none"/><line y2="-26863" y1="-27692" x2="-29530" x1="-29530" fill="none"/><line y2="-29507" y1="-29923" x2="-26918" x1="-27638" fill="none"/><line y2="-30610" y1="-29923" x2="-27242" x1="-27638" fill="none"/><line y2="-30610" y1="-29923" x2="-28036" x1="-27638" fill="none"/><line y2="-31873" y1="-31624" x2="-30145" x1="-29718" fill="none"/><line y2="-32240" y1="-31769" x2="-29192" x1="-29463" fill="none"/><line y2="-32167" y1="-31699" x2="-29070" x1="-29342" fill="none"/><line y2="-31587" y1="-31587" x2="-28669" x1="-29339" fill="none"/><line y2="-31445" y1="-31445" x2="-28669" x1="-29339" fill="none"/><line y2="-28094" y1="-27846" x2="-32040" x1="-31610" fill="none"/><line y2="-27014" y1="-27482" x2="-31760" x1="-31488" fill="none"/><line y2="-27083" y1="-27551" x2="-31881" x1="-31610" fill="none"/><line y2="-27083" y1="-27551" x2="-30966" x1="-31237" fill="none"/><line y2="-27014" y1="-27482" x2="-31087" x1="-31358" fill="none"/><text y="-29218" xml:space="preserve" x="-26884" stroke="none" font-size="433.3333" font-family="sans-serif">F</text><text y="-30651" xml:space="preserve" x="-27268" stroke="none" font-size="433.3333" font-family="sans-serif">F</text><text y="-30651" xml:space="preserve" x="-28314" stroke="none" font-size="433.3333" font-family="sans-serif">F</text><text y="-31335" xml:space="preserve" x="-29680" stroke="none" font-size="433.3333" font-family="sans-serif">S</text><text y="-32023" xml:space="preserve" x="-30870" stroke="none" font-size="433.3333" font-family="sans-serif">NH</text><text y="-31933" xml:space="preserve" x="-30292" stroke="none" font-size="313.3333" font-family="sans-serif">2</text><text y="-32242" xml:space="preserve" x="-29157" stroke="none" font-size="433.3333" font-family="sans-serif">O</text><text y="-31335" xml:space="preserve" x="-28634" stroke="none" font-size="433.3333" font-family="sans-serif">O</text><text y="-26465" xml:space="preserve" x="-29680" stroke="none" font-size="433.3333" font-family="sans-serif">NH</text><text y="-26375" xml:space="preserve" x="-29102" stroke="none" font-size="313.3333" font-family="sans-serif">2</text><text y="-27557" xml:space="preserve" x="-31575" stroke="none" font-size="433.3333" font-family="sans-serif">S</text><text y="-28244" xml:space="preserve" x="-32762" stroke="none" font-size="433.3333" font-family="sans-serif">NH</text><text y="-28155" xml:space="preserve" x="-32185" stroke="none" font-size="313.3333" font-family="sans-serif">2</text><text y="-26650" xml:space="preserve" x="-32098" stroke="none" font-size="433.3333" font-family="sans-serif">O</text><text y="-26650" xml:space="preserve" x="-31052" stroke="none" font-size="433.3333" font-family="sans-serif">O</text></g></g></svg>