<svg width="185.43" viewBox="0 0 6181 5278" text-rendering="auto" stroke-width="1" stroke-opacity="1" stroke-miterlimit="10" stroke-linejoin="miter" stroke-linecap="square" stroke-dashoffset="0" stroke-dasharray="none" stroke="black" shape-rendering="auto" image-rendering="auto" height="158.34" font-weight="normal" font-style="normal" font-size="12" font-family="'Dialog'" fill-opacity="1" fill="black" color-rendering="auto" color-interpolation="auto" xmlns="http://www.w3.org/2000/svg"><g><g stroke="white" fill="white"><rect y="0" x="0" width="6181" stroke="none" height="5278"/></g><g transform="translate(32866,32866)" text-rendering="geometricPrecision" stroke-width="44" stroke-linejoin="round" stroke-linecap="round"><line y2="-30108" y1="-29278" x2="-29723" x1="-29723" fill="none"/><line y2="-30850" y1="-30437" x2="-30630" x1="-29911" fill="none"/><line y2="-28756" y1="-29278" x2="-28816" x1="-29723" fill="none"/><line y2="-28805" y1="-29218" x2="-30408" x1="-29689" fill="none"/><line y2="-28926" y1="-29342" x2="-30477" x1="-29758" fill="none"/><line y2="-30850" y1="-31916" x2="-30630" x1="-31000" fill="none"/><line y2="-30157" y1="-30850" x2="-31532" x1="-30630" fill="none"/><line y2="-30376" y1="-30899" x2="-31523" x1="-30847" fill="none"/><line y2="-31916" y1="-31916" x2="-31000" x1="-32147" fill="none"/><line y2="-31746" y1="-31746" x2="-31142" x1="-32003" fill="none"/><line y2="-30711" y1="-30157" x2="-32286" x1="-31532" fill="none"/><line y2="-31916" y1="-31070" x2="-32147" x1="-32407" fill="none"/><line y2="-29108" y1="-30157" x2="-31532" x1="-31532" fill="none"/><line y2="-32762" y1="-31916" x2="-32762" x1="-32147" fill="none"/><line y2="-28756" y1="-27692" x2="-28816" x1="-28490" fill="none"/><line y2="-29452" y1="-28756" x2="-27874" x1="-28816" fill="none"/><line y2="-29226" y1="-28706" x2="-27892" x1="-28597" fill="none"/><line y2="-27692" y1="-27692" x2="-28490" x1="-27343" fill="none"/><line y2="-27863" y1="-27863" x2="-28345" x1="-27487" fill="none"/><line y2="-28900" y1="-29452" x2="-27164" x1="-27874" fill="none"/><line y2="-27692" y1="-28536" x2="-27343" x1="-27051" fill="none"/><text y="-30148" xml:space="preserve" x="-29876" stroke="none" font-size="433.3333" font-family="sans-serif">S</text><text y="-28576" xml:space="preserve" x="-30784" stroke="none" font-size="433.3333" font-family="sans-serif">O</text><text y="-30671" xml:space="preserve" x="-32627" stroke="none" font-size="433.3333" font-family="sans-serif">O</text><text y="-28576" xml:space="preserve" x="-27126" stroke="none" font-size="433.3333" font-family="sans-serif">O</text></g></g></svg>