<svg width="267.09" viewBox="0 0 8903 5874" text-rendering="auto" stroke-width="1" stroke-opacity="1" stroke-miterlimit="10" stroke-linejoin="miter" stroke-linecap="square" stroke-dashoffset="0" stroke-dasharray="none" stroke="black" shape-rendering="auto" image-rendering="auto" height="176.22" font-weight="normal" font-style="normal" font-size="12" font-family="'Dialog'" fill-opacity="1" fill="black" color-rendering="auto" color-interpolation="auto" xmlns="http://www.w3.org/2000/svg"><g><g stroke="white" fill="white"><rect y="0" x="0" width="8903" stroke="none" height="5874"/></g><g transform="translate(32866,32758)" text-rendering="geometricPrecision" stroke-width="44" stroke-linejoin="round" stroke-linecap="round"><line y2="-30703" y1="-30131" x2="-29660" x1="-28678" fill="none"/><line y2="-30131" y1="-30703" x2="-28678" x1="-27695" fill="none"/><line y2="-31850" y1="-30703" x2="-29660" x1="-29660" fill="none"/><line y2="-30131" y1="-30703" x2="-30642" x1="-29660" fill="none"/><line y2="-30347" y1="-30778" x2="-30604" x1="-29868" fill="none"/><line y2="-30703" y1="-31850" x2="-27695" x1="-27695" fill="none"/><line y2="-30847" y1="-31705" x2="-27866" x1="-27866" fill="none"/><line y2="-32312" y1="-31850" x2="-28865" x1="-29660" fill="none"/><line y2="-31850" y1="-32422" x2="-29660" x1="-30642" fill="none"/><line y2="-31774" y1="-32205" x2="-29868" x1="-30604" fill="none"/><line y2="-30703" y1="-30131" x2="-31624" x1="-30642" fill="none"/><line y2="-31850" y1="-32312" x2="-27695" x1="-28490" fill="none"/><line y2="-32422" y1="-31850" x2="-30642" x1="-31624" fill="none"/><line y2="-31850" y1="-30703" x2="-31624" x1="-31624" fill="none"/><line y2="-31705" y1="-30847" x2="-31454" x1="-31454" fill="none"/><line y2="-28831" y1="-30131" x2="-28678" x1="-28678" fill="none"/><line y2="-30180" y1="-30703" x2="-26788" x1="-27695" fill="none"/><line y2="-32266" y1="-31850" x2="-26976" x1="-27695" fill="none"/><line y2="-30376" y1="-30703" x2="-32190" x1="-31624" fill="none"/><line y2="-28308" y1="-28831" x2="-29585" x1="-28678" fill="none"/><line y2="-30596" y1="-30180" x2="-26069" x1="-26788" fill="none"/><line y2="-30180" y1="-30596" x2="-24974" x1="-25693" fill="none"/><line y2="-30703" y1="-30180" x2="-24067" x1="-24974" fill="none"/><line y2="-29351" y1="-30180" x2="-26719" x1="-26719" fill="none"/><line y2="-29351" y1="-30180" x2="-26858" x1="-26858" fill="none"/><line y2="-28724" y1="-28308" x2="-30304" x1="-29585" fill="none"/><line y2="-28322" y1="-28727" x2="-31408" x1="-30680" fill="none"/><line y2="-28848" y1="-28322" x2="-32315" x1="-31408" fill="none"/><line y2="-27479" y1="-28308" x2="-29515" x1="-29515" fill="none"/><line y2="-27479" y1="-28308" x2="-29654" x1="-29654" fill="none"/><line y2="-28308" y1="-28308" x2="-26910" x1="-27770" fill="none"/><line y2="-28397" y1="-28397" x2="-26910" x1="-27770" fill="none"/><line y2="-28218" y1="-28218" x2="-26910" x1="-27770" fill="none"/><polygon stroke-width="1" stroke="none" points=" -28678 -30131 -29359 -29654 -29432 -29772"/><polygon stroke-width="1" points=" -28678 -30131 -29359 -29654 -29432 -29772" fill="none"/><line y2="-28247" y1="-28366" x2="-27805" x1="-27736" fill="none"/><line y2="-28368" y1="-28462" x2="-27985" x1="-27931" fill="none"/><line y2="-28488" y1="-28558" x2="-28166" x1="-28125" fill="none"/><line y2="-28609" y1="-28654" x2="-28346" x1="-28320" fill="none"/><line y2="-28730" y1="-28750" x2="-28527" x1="-28515" fill="none"/><text y="-28652" xml:space="preserve" x="-30645" stroke="none" font-size="433.3333" font-family="sans-serif">O</text><text y="-27080" xml:space="preserve" x="-29738" stroke="none" font-size="433.3333" font-family="sans-serif">O</text><text y="-28129" xml:space="preserve" x="-26875" stroke="none" font-size="433.3333" font-family="sans-serif">N</text><text y="-30524" xml:space="preserve" x="-26031" stroke="none" font-size="433.3333" font-family="sans-serif">O</text><text y="-28952" xml:space="preserve" x="-26941" stroke="none" font-size="433.3333" font-family="sans-serif">O</text><text y="-32193" xml:space="preserve" x="-26941" stroke="none" font-size="433.3333" font-family="sans-serif">NH</text><text y="-32104" xml:space="preserve" x="-26364" stroke="none" font-size="313.3333" font-family="sans-serif">2</text><text y="-30001" xml:space="preserve" x="-32762" stroke="none" font-size="433.3333" font-family="sans-serif">Br</text><text y="-32242" xml:space="preserve" x="-28831" stroke="none" font-size="433.3333" font-family="sans-serif">O</text><text y="-29426" xml:space="preserve" x="-29738" stroke="none" font-size="433.3333" font-family="sans-serif">H</text><text y="-28796" xml:space="preserve" x="-29076" stroke="none" font-style="italic" font-size="313.3333" font-family="sans-serif">R</text><text y="-29807" xml:space="preserve" x="-28582" stroke="none" font-style="italic" font-size="313.3333" font-family="sans-serif">R</text></g></g></svg>