<svg width="410.79" viewBox="0 0 13693 3758" text-rendering="auto" stroke-width="1" stroke-opacity="1" stroke-miterlimit="10" stroke-linejoin="miter" stroke-linecap="square" stroke-dashoffset="0" stroke-dasharray="none" stroke="black" shape-rendering="auto" image-rendering="auto" height="112.74" font-weight="normal" font-style="normal" font-size="12" font-family="'Dialog'" fill-opacity="1" fill="black" color-rendering="auto" color-interpolation="auto" xmlns="http://www.w3.org/2000/svg"><g><g stroke="white" fill="white"><rect y="0" x="0" width="13693" stroke="none" height="3758"/></g><g transform="translate(32866,32866)" text-rendering="geometricPrecision" stroke-width="44" stroke-linejoin="round" stroke-linecap="round"><line y2="-31055" y1="-31055" x2="-29807" x1="-28663" fill="none"/><line y2="-31055" y1="-32040" x2="-28663" x1="-29235" fill="none"/><line y2="-32040" y1="-31055" x2="-29235" x1="-29807" fill="none"/><line y2="-31055" y1="-30532" x2="-31621" x1="-30714" fill="none"/><line y2="-30870" y1="-30477" x2="-31578" x1="-30899" fill="none"/><line y2="-32728" y1="-32040" x2="-30027" x1="-29235" fill="none"/><line y2="-32713" y1="-32040" x2="-28432" x1="-29235" fill="none"/><line y2="-30948" y1="-30532" x2="-27037" x1="-27756" fill="none"/><line y2="-30532" y1="-30948" x2="-25939" x1="-26658" fill="none"/><line y2="-29703" y1="-30532" x2="-27684" x1="-27684" fill="none"/><line y2="-29703" y1="-30492" x2="-27825" x1="-27825" fill="none"/><line y2="-30729" y1="-31055" x2="-32188" x1="-31621" fill="none"/><line y2="-31884" y1="-31055" x2="-31621" x1="-31621" fill="none"/><line y2="-31055" y1="-30532" x2="-25032" x1="-25939" fill="none"/><line y2="-31055" y1="-30489" x2="-25032" x1="-24050" fill="none"/><line y2="-31133" y1="-30706" x2="-24827" x1="-24087" fill="none"/><line y2="-32193" y1="-31055" x2="-25032" x1="-25032" fill="none"/><line y2="-30489" y1="-31055" x2="-24050" x1="-23062" fill="none"/><line y2="-32762" y1="-32193" x2="-24050" x1="-25032" fill="none"/><line y2="-32546" y1="-32118" x2="-24087" x1="-24827" fill="none"/><line y2="-31055" y1="-32193" x2="-23062" x1="-23062" fill="none"/><line y2="-31200" y1="-32052" x2="-23232" x1="-23232" fill="none"/><line y2="-32193" y1="-32762" x2="-23062" x1="-24050" fill="none"/><line y2="-30642" y1="-31055" x2="-22345" x1="-23062" fill="none"/><line y2="-31055" y1="-30642" x2="-21247" x1="-21967" fill="none"/><line y2="-29484" y1="-29484" x2="-25081" x1="-25939" fill="none"/><line y2="-29573" y1="-29573" x2="-25081" x1="-25870" fill="none"/><line y2="-29394" y1="-29394" x2="-25081" x1="-25939" fill="none"/><line y2="-32193" y1="-31055" x2="-21247" x1="-21247" fill="none"/><line y2="-32052" y1="-31200" x2="-21080" x1="-21080" fill="none"/><line y2="-31055" y1="-30489" x2="-21247" x1="-20262" fill="none"/><line y2="-32762" y1="-32193" x2="-20262" x1="-21247" fill="none"/><line y2="-30489" y1="-31055" x2="-20262" x1="-19277" fill="none"/><line y2="-30706" y1="-31133" x2="-20225" x1="-19485" fill="none"/><line y2="-32193" y1="-32762" x2="-19277" x1="-20262" fill="none"/><line y2="-32118" y1="-32546" x2="-19485" x1="-20225" fill="none"/><line y2="-31055" y1="-32193" x2="-19277" x1="-19277" fill="none"/><polygon stroke-width="1" stroke="none" points=" -25939 -30532 -25872 -29484 -26008 -29484"/><polygon stroke-width="1" points=" -25939 -30532 -25872 -29484 -26008 -29484" fill="none"/><line y2="-30472" y1="-30593" x2="-27788" x1="-27721" fill="none"/><line y2="-30593" y1="-30689" x2="-27969" x1="-27916" fill="none"/><line y2="-30713" y1="-30784" x2="-28150" x1="-28110" fill="none"/><line y2="-30834" y1="-30880" x2="-28331" x1="-28305" fill="none"/><line y2="-30954" y1="-30975" x2="-28512" x1="-28500" fill="none"/><line y2="-30593" y1="-30472" x2="-30752" x1="-30680" fill="none"/><line y2="-30688" y1="-30592" x2="-30557" x1="-30500" fill="none"/><line y2="-30784" y1="-30713" x2="-30361" x1="-30319" fill="none"/><line y2="-30879" y1="-30833" x2="-30166" x1="-30139" fill="none"/><line y2="-30975" y1="-30954" x2="-29971" x1="-29958" fill="none"/><text y="-30876" xml:space="preserve" x="-26999" stroke="none" font-size="433.3333" font-family="sans-serif">O</text><text y="-29304" xml:space="preserve" x="-27906" stroke="none" font-size="433.3333" font-family="sans-serif">O</text><text y="-29304" xml:space="preserve" x="-25043" stroke="none" font-size="433.3333" font-family="sans-serif">N</text><text y="-30353" xml:space="preserve" x="-32762" stroke="none" font-size="433.3333" font-family="sans-serif">Cl</text><text y="-31925" xml:space="preserve" x="-31855" stroke="none" font-size="433.3333" font-family="sans-serif">Cl</text><text y="-30353" xml:space="preserve" x="-22308" stroke="none" font-size="433.3333" font-family="sans-serif">O</text><text y="-30656" xml:space="preserve" x="-26092" stroke="none" font-style="italic" font-size="313.3333" font-family="sans-serif">S</text><text y="-30602" xml:space="preserve" x="-28888" stroke="none" font-style="italic" font-size="313.3333" font-family="sans-serif">R</text><text y="-31153" xml:space="preserve" x="-30203" stroke="none" font-style="italic" font-size="313.3333" font-family="sans-serif">R</text></g></g></svg>