<svg width="226.62" viewBox="0 0 7554 7237" text-rendering="auto" stroke-width="1" stroke-opacity="1" stroke-miterlimit="10" stroke-linejoin="miter" stroke-linecap="square" stroke-dashoffset="0" stroke-dasharray="none" stroke="black" shape-rendering="auto" image-rendering="auto" height="217.11" font-weight="normal" font-style="normal" font-size="12" font-family="'Dialog'" fill-opacity="1" fill="black" color-rendering="auto" color-interpolation="auto" xmlns="http://www.w3.org/2000/svg"><g><g stroke="white" fill="white"><rect y="0" x="0" width="7554" stroke="none" height="7237"/></g><g transform="translate(32866,32866)" text-rendering="geometricPrecision" stroke-width="44" stroke-linejoin="round" stroke-linecap="round"><line y2="-29044" y1="-29614" x2="-30437" x1="-31422" fill="none"/><line y2="-28969" y1="-29394" x2="-30645" x1="-31384" fill="none"/><line y2="-27906" y1="-29044" x2="-30437" x1="-30437" fill="none"/><line y2="-29614" y1="-29044" x2="-31422" x1="-32407" fill="none"/><line y2="-27337" y1="-27906" x2="-31422" x1="-30437" fill="none"/><line y2="-27557" y1="-27984" x2="-31384" x1="-30645" fill="none"/><line y2="-29044" y1="-27906" x2="-32407" x1="-32407" fill="none"/><line y2="-28903" y1="-28048" x2="-32237" x1="-32237" fill="none"/><line y2="-27906" y1="-27337" x2="-32407" x1="-31422" fill="none"/><line y2="-30489" y1="-29044" x2="-30183" x1="-30437" fill="none"/><line y2="-30440" y1="-29614" x2="-31422" x1="-31422" fill="none"/><line y2="-31018" y1="-30769" x2="-32040" x1="-31610" fill="none"/><line y2="-26884" y1="-27906" x2="-30599" x1="-30437" fill="none"/><line y2="-26288" y1="-26557" x2="-31289" x1="-30824" fill="none"/><line y2="-30489" y1="-31055" x2="-30183" x1="-29200" fill="none"/><line y2="-30706" y1="-31133" x2="-30145" x1="-29408" fill="none"/><line y2="-31055" y1="-32193" x2="-29200" x1="-29200" fill="none"/><line y2="-31055" y1="-30489" x2="-31168" x1="-30183" fill="none"/><line y2="-32193" y1="-32762" x2="-29200" x1="-30183" fill="none"/><line y2="-32118" y1="-32543" x2="-29408" x1="-30145" fill="none"/><line y2="-32193" y1="-31055" x2="-31171" x1="-31168" fill="none"/><line y2="-32049" y1="-31197" x2="-31000" x1="-30997" fill="none"/><line y2="-32762" y1="-32193" x2="-30183" x1="-31171" fill="none"/><line y2="-30639" y1="-31055" x2="-28481" x1="-29200" fill="none"/><line y2="-31055" y1="-30639" x2="-27386" x1="-28106" fill="none"/><line y2="-29484" y1="-30313" x2="-28293" x1="-28293" fill="none"/><line y2="-32193" y1="-31055" x2="-27386" x1="-27386" fill="none"/><line y2="-31055" y1="-30486" x2="-27386" x1="-26398" fill="none"/><line y2="-32760" y1="-32193" x2="-26398" x1="-27386" fill="none"/><line y2="-30486" y1="-31055" x2="-26398" x1="-25416" fill="none"/><line y2="-32193" y1="-32760" x2="-25416" x1="-26398" fill="none"/><line y2="-31055" y1="-32193" x2="-25416" x1="-25416" fill="none"/><line y2="-29484" y1="-28917" x2="-28293" x1="-29278" fill="none"/><line y2="-28914" y1="-29484" x2="-27308" x1="-28293" fill="none"/><line y2="-28917" y1="-27779" x2="-29278" x1="-29278" fill="none"/><line y2="-27779" y1="-28914" x2="-27308" x1="-27308" fill="none"/><line y2="-27779" y1="-27210" x2="-29278" x1="-28293" fill="none"/><line y2="-27210" y1="-27779" x2="-28293" x1="-27308" fill="none"/><text y="-30350" xml:space="preserve" x="-28446" stroke="none" font-size="433.3333" font-family="sans-serif">P</text><text y="-30480" xml:space="preserve" x="-31572" stroke="none" font-size="433.3333" font-family="sans-serif">O</text><text y="-31168" xml:space="preserve" x="-32762" stroke="none" font-size="433.3333" font-family="sans-serif">CH</text><text y="-31078" xml:space="preserve" x="-32185" stroke="none" font-size="313.3333" font-family="sans-serif">3</text><text y="-26485" xml:space="preserve" x="-30786" stroke="none" font-size="433.3333" font-family="sans-serif">O</text><text y="-25890" xml:space="preserve" x="-31818" stroke="none" font-size="433.3333" font-family="sans-serif">CH</text><text y="-25800" xml:space="preserve" x="-31240" stroke="none" font-size="313.3333" font-family="sans-serif">3</text></g></g></svg>