<svg width="315.81" viewBox="0 0 10527 3716" text-rendering="auto" stroke-width="1" stroke-opacity="1" stroke-miterlimit="10" stroke-linejoin="miter" stroke-linecap="square" stroke-dashoffset="0" stroke-dasharray="none" stroke="black" shape-rendering="auto" image-rendering="auto" height="111.48" font-weight="normal" font-style="normal" font-size="12" font-family="'Dialog'" fill-opacity="1" fill="black" color-rendering="auto" color-interpolation="auto" xmlns="http://www.w3.org/2000/svg"><g><g stroke="white" fill="white"><rect y="0" x="0" width="10527" stroke="none" height="3716"/></g><g transform="translate(32866,32758)" text-rendering="geometricPrecision" stroke-width="44" stroke-linejoin="round" stroke-linecap="round"><line y2="-30850" y1="-31419" x2="-24393" x1="-25367" fill="none"/><line y2="-31419" y1="-30850" x2="-25367" x1="-26343" fill="none"/><line y2="-30281" y1="-31419" x2="-24841" x1="-25367" fill="none"/><line y2="-29715" y1="-30850" x2="-24393" x1="-24393" fill="none"/><line y2="-31419" y1="-30850" x2="-23417" x1="-24393" fill="none"/><line y2="-30850" y1="-29715" x2="-26343" x1="-26343" fill="none"/><line y2="-29146" y1="-30281" x2="-25367" x1="-24841" fill="none"/><line y2="-29146" y1="-29715" x2="-25367" x1="-24393" fill="none"/><line y2="-29715" y1="-29715" x2="-24393" x1="-22443" fill="none"/><line y2="-30850" y1="-31419" x2="-22443" x1="-23417" fill="none"/><line y2="-29715" y1="-29146" x2="-26343" x1="-25367" fill="none"/><line y2="-29715" y1="-30850" x2="-22443" x1="-22443" fill="none"/><line y2="-29856" y1="-30708" x2="-22614" x1="-22614" fill="none"/><line y2="-31266" y1="-30850" x2="-27063" x1="-26343" fill="none"/><line y2="-30850" y1="-31266" x2="-28158" x1="-27438" fill="none"/><line y2="-31376" y1="-30850" x2="-29065" x1="-28158" fill="none"/><line y2="-30960" y1="-31376" x2="-29784" x1="-29065" fill="none"/><line y2="-31376" y1="-30960" x2="-30879" x1="-30160" fill="none"/><line y2="-30850" y1="-31376" x2="-31786" x1="-30879" fill="none"/><line y2="-31376" y1="-30850" x2="-32693" x1="-31786" fill="none"/><line y2="-31254" y1="-30732" x2="-32762" x1="-31855" fill="none"/><line y2="-32202" y1="-31376" x2="-30948" x1="-30948" fill="none"/><line y2="-32202" y1="-31376" x2="-30810" x1="-30810" fill="none"/><text y="-31197" xml:space="preserve" x="-27404" stroke="none" font-size="433.3333" font-family="sans-serif">O</text><text y="-30671" xml:space="preserve" x="-30125" stroke="none" font-size="433.3333" font-family="sans-serif">O</text><text y="-32242" xml:space="preserve" x="-31032" stroke="none" font-size="433.3333" font-family="sans-serif">O</text></g></g></svg>