<svg width="263.76" viewBox="0 0 8792 7732" text-rendering="auto" stroke-width="1" stroke-opacity="1" stroke-miterlimit="10" stroke-linejoin="miter" stroke-linecap="square" stroke-dashoffset="0" stroke-dasharray="none" stroke="black" shape-rendering="auto" image-rendering="auto" height="231.96" font-weight="normal" font-style="normal" font-size="12" font-family="'Dialog'" fill-opacity="1" fill="black" color-rendering="auto" color-interpolation="auto" xmlns="http://www.w3.org/2000/svg"><g><g stroke="white" fill="white"><rect y="0" x="0" width="8792" stroke="none" height="7732"/></g><g transform="translate(32866,32758)" text-rendering="geometricPrecision" stroke-width="44" stroke-linejoin="round" stroke-linecap="round"><line y2="-28862" y1="-28051" x2="-27753" x1="-28565" fill="none"/><line y2="-28862" y1="-28862" x2="-26615" x1="-27753" fill="none"/><line y2="-29839" y1="-28862" x2="-28319" x1="-27753" fill="none"/><line y2="-29801" y1="-29070" x2="-28103" x1="-27675" fill="none"/><line y2="-26912" y1="-28051" x2="-28565" x1="-28565" fill="none"/><line y2="-28051" y1="-28620" x2="-28565" x1="-29538" fill="none"/><line y2="-27976" y1="-28400" x2="-28773" x1="-29504" fill="none"/><line y2="-28862" y1="-29839" x2="-26615" x1="-26046" fill="none"/><line y2="-29070" y1="-29801" x2="-26690" x1="-26262" fill="none"/><line y2="-28051" y1="-28862" x2="-25803" x1="-26615" fill="none"/><line y2="-30812" y1="-29839" x2="-27753" x1="-28319" fill="none"/><line y2="-26343" y1="-26912" x2="-29538" x1="-28565" fill="none"/><line y2="-26563" y1="-26990" x2="-29504" x1="-28773" fill="none"/><line y2="-26912" y1="-26101" x2="-28565" x1="-27753" fill="none"/><line y2="-28620" y1="-28051" x2="-29538" x1="-30515" fill="none"/><line y2="-29839" y1="-30812" x2="-26046" x1="-26615" fill="none"/><line y2="-26912" y1="-28051" x2="-25803" x1="-25803" fill="none"/><line y2="-30812" y1="-30812" x2="-26615" x1="-27753" fill="none"/><line y2="-30642" y1="-30642" x2="-26756" x1="-27609" fill="none"/><line y2="-26912" y1="-26343" x2="-30515" x1="-29538" fill="none"/><line y2="-26101" y1="-26101" x2="-27753" x1="-26615" fill="none"/><line y2="-28051" y1="-26912" x2="-30515" x1="-30515" fill="none"/><line y2="-27909" y1="-27057" x2="-30344" x1="-30344" fill="none"/><line y2="-26101" y1="-26912" x2="-26615" x1="-25803" fill="none"/><line y2="-26005" y1="-26912" x2="-25277" x1="-25803" fill="none"/><line y2="-25130" y1="-26101" x2="-26222" x1="-26615" fill="none"/><line y2="-30567" y1="-29839" x2="-29582" x1="-28319" fill="none"/><line y2="-30318" y1="-30567" x2="-30388" x1="-29957" fill="none"/><line y2="-31228" y1="-30812" x2="-28470" x1="-27753" fill="none"/><line y2="-32202" y1="-31555" x2="-28657" x1="-28657" fill="none"/><line y2="-28467" y1="-28051" x2="-31234" x1="-30515" fill="none"/><line y2="-28218" y1="-28467" x2="-32040" x1="-31610" fill="none"/><line y2="-31228" y1="-30812" x2="-25896" x1="-26615" fill="none"/><line y2="-30922" y1="-31228" x2="-24988" x1="-25520" fill="none"/><line y2="-26496" y1="-26912" x2="-31234" x1="-30515" fill="none"/><line y2="-26745" y1="-26496" x2="-32040" x1="-31610" fill="none"/><line y2="-27135" y1="-26912" x2="-24980" x1="-25803" fill="none"/><line y2="-29449" y1="-28620" x2="-29538" x1="-29538" fill="none"/><text y="-30498" xml:space="preserve" x="-29923" stroke="none" font-size="433.3333" font-family="sans-serif">O</text><text y="-29920" xml:space="preserve" x="-30919" stroke="none" font-size="433.3333" font-family="sans-serif">CH</text><text y="-29830" xml:space="preserve" x="-30342" stroke="none" font-size="313.3333" font-family="sans-serif">3</text><text y="-29486" xml:space="preserve" x="-29692" stroke="none" font-size="433.3333" font-family="sans-serif">OH</text><text y="-31156" xml:space="preserve" x="-28810" stroke="none" font-size="433.3333" font-family="sans-serif">O</text><text y="-32242" xml:space="preserve" x="-28810" stroke="none" font-size="433.3333" font-family="sans-serif">CH</text><text y="-32153" xml:space="preserve" x="-28233" stroke="none" font-size="313.3333" font-family="sans-serif">3</text><text y="-28394" xml:space="preserve" x="-31572" stroke="none" font-size="433.3333" font-family="sans-serif">O</text><text y="-27820" xml:space="preserve" x="-32572" stroke="none" font-size="433.3333" font-family="sans-serif">CH</text><text y="-27730" xml:space="preserve" x="-31994" stroke="none" font-size="313.3333" font-family="sans-serif">3</text><text y="-31159" xml:space="preserve" x="-25861" stroke="none" font-size="433.3333" font-family="sans-serif">O</text><text y="-30633" xml:space="preserve" x="-24954" stroke="none" font-size="433.3333" font-family="sans-serif">CH</text><text y="-30544" xml:space="preserve" x="-24376" stroke="none" font-size="313.3333" font-family="sans-serif">3</text><text y="-27005" xml:space="preserve" x="-24942" stroke="none" font-size="433.3333" font-family="sans-serif">OH</text><text y="-26210" xml:space="preserve" x="-31572" stroke="none" font-size="433.3333" font-family="sans-serif">O</text><text y="-26895" xml:space="preserve" x="-32762" stroke="none" font-size="433.3333" font-family="sans-serif">CH</text><text y="-26806" xml:space="preserve" x="-32185" stroke="none" font-size="313.3333" font-family="sans-serif">3</text></g></g></svg>