<svg width="224.94" viewBox="0 0 7498 4748" text-rendering="auto" stroke-width="1" stroke-opacity="1" stroke-miterlimit="10" stroke-linejoin="miter" stroke-linecap="square" stroke-dashoffset="0" stroke-dasharray="none" stroke="black" shape-rendering="auto" image-rendering="auto" height="142.44" font-weight="normal" font-style="normal" font-size="12" font-family="'Dialog'" fill-opacity="1" fill="black" color-rendering="auto" color-interpolation="auto" xmlns="http://www.w3.org/2000/svg"><g><g stroke="white" fill="white"><rect y="0" x="0" width="7498" stroke="none" height="4748"/></g><g transform="translate(32866,32758)" text-rendering="geometricPrecision" stroke-width="44" stroke-linejoin="round" stroke-linecap="round"><line y2="-30235" y1="-30804" x2="-29761" x1="-30743" fill="none"/><line y2="-29096" y1="-30235" x2="-29761" x1="-29761" fill="none"/><line y2="-29666" y1="-30804" x2="-30344" x1="-30743" fill="none"/><line y2="-30804" y1="-30235" x2="-30743" x1="-31731" fill="none"/><line y2="-28530" y1="-29096" x2="-30743" x1="-29761" fill="none"/><line y2="-28530" y1="-29666" x2="-30743" x1="-30344" fill="none"/><line y2="-30235" y1="-29096" x2="-31731" x1="-31731" fill="none"/><line y2="-29096" y1="-28530" x2="-31731" x1="-30743" fill="none"/><line y2="-30758" y1="-30235" x2="-28854" x1="-29761" fill="none"/><line y2="-29278" y1="-29096" x2="-32762" x1="-31731" fill="none"/><line y2="-28114" y1="-29096" x2="-32089" x1="-31731" fill="none"/><line y2="-30758" y1="-30235" x2="-32638" x1="-31731" fill="none"/><line y2="-31896" y1="-30758" x2="-28854" x1="-28854" fill="none"/><line y2="-30758" y1="-30191" x2="-28854" x1="-27866" fill="none"/><line y2="-32465" y1="-31896" x2="-27866" x1="-28854" fill="none"/><line y2="-30191" y1="-30758" x2="-27866" x1="-26884" fill="none"/><line y2="-31896" y1="-32465" x2="-26884" x1="-27866" fill="none"/><line y2="-30758" y1="-31896" x2="-26884" x1="-26884" fill="none"/><line y2="-32312" y1="-31896" x2="-26164" x1="-26884" fill="none"/><text y="-32242" xml:space="preserve" x="-26127" stroke="none" font-size="433.3333" font-family="sans-serif">OH</text></g></g></svg>