<svg width="384.33" viewBox="0 0 12811 7131" text-rendering="auto" stroke-width="1" stroke-opacity="1" stroke-miterlimit="10" stroke-linejoin="miter" stroke-linecap="square" stroke-dashoffset="0" stroke-dasharray="none" stroke="black" shape-rendering="auto" image-rendering="auto" height="213.93" font-weight="normal" font-style="normal" font-size="12" font-family="'Dialog'" fill-opacity="1" fill="black" color-rendering="auto" color-interpolation="auto" xmlns="http://www.w3.org/2000/svg"><g><g stroke="white" fill="white"><rect y="0" x="0" width="12811" stroke="none" height="7131"/></g><g transform="translate(32866,32758)" text-rendering="geometricPrecision" stroke-width="44" stroke-linejoin="round" stroke-linecap="round"><line y2="-30896" y1="-30327" x2="-27089" x1="-28077" fill="none"/><line y2="-30677" y1="-30249" x2="-27126" x1="-27866" fill="none"/><line y2="-30327" y1="-29189" x2="-28077" x1="-28077" fill="none"/><line y2="-30327" y1="-30896" x2="-26106" x1="-27089" fill="none"/><line y2="-29189" y1="-28620" x2="-28077" x1="-27089" fill="none"/><line y2="-29267" y1="-28839" x2="-27866" x1="-27126" fill="none"/><line y2="-29189" y1="-30327" x2="-26106" x1="-26106" fill="none"/><line y2="-29333" y1="-30186" x2="-26274" x1="-26274" fill="none"/><line y2="-28620" y1="-29189" x2="-27089" x1="-26106" fill="none"/><line y2="-30850" y1="-30327" x2="-25199" x1="-26106" fill="none"/><line y2="-27574" y1="-28620" x2="-27089" x1="-27089" fill="none"/><line y2="-30743" y1="-30327" x2="-28796" x1="-28077" fill="none"/><line y2="-31725" y1="-30896" x2="-27089" x1="-27089" fill="none"/><line y2="-28773" y1="-29189" x2="-28796" x1="-28077" fill="none"/><line y2="-28773" y1="-29189" x2="-25387" x1="-26106" fill="none"/><line y2="-30434" y1="-30850" x2="-24480" x1="-25199" fill="none"/><line y2="-30850" y1="-30547" x2="-23385" x1="-23911" fill="none"/><line y2="-30327" y1="-30850" x2="-22475" x1="-23385" fill="none"/><line y2="-31679" y1="-30850" x2="-25269" x1="-25269" fill="none"/><line y2="-31679" y1="-30850" x2="-25127" x1="-25127" fill="none"/><line y2="-27268" y1="-27574" x2="-27617" x1="-27089" fill="none"/><line y2="-27574" y1="-27158" x2="-28903" x1="-28184" fill="none"/><line y2="-27048" y1="-27574" x2="-29810" x1="-28903" fill="none"/><line y2="-27219" y1="-27635" x2="-26335" x1="-27054" fill="none"/><line y2="-27097" y1="-27513" x2="-26404" x1="-27123" fill="none"/><line y2="-30327" y1="-30743" x2="-29891" x1="-29172" fill="none"/><line y2="-30850" y1="-30327" x2="-30798" x1="-29891" fill="none"/><line y2="-31899" y1="-31070" x2="-28984" x1="-28984" fill="none"/><line y2="-30850" y1="-30327" x2="-21568" x1="-22475" fill="none"/><line y2="-30434" y1="-30850" x2="-20852" x1="-21568" fill="none"/><line y2="-29498" y1="-30327" x2="-22475" x1="-22475" fill="none"/><line y2="-27574" y1="-27048" x2="-30717" x1="-29810" fill="none"/><line y2="-27268" y1="-27574" x2="-31246" x1="-30717" fill="none"/><line y2="-26222" y1="-27048" x2="-29810" x1="-29810" fill="none"/><line y2="-30327" y1="-30850" x2="-31705" x1="-30798" fill="none"/><line y2="-30630" y1="-30327" x2="-32231" x1="-31705" fill="none"/><line y2="-31679" y1="-30850" x2="-30798" x1="-30798" fill="none"/><line y2="-32422" y1="-31899" x2="-29891" x1="-28984" fill="none"/><line y2="-32375" y1="-31959" x2="-28299" x1="-29018" fill="none"/><line y2="-32254" y1="-31838" x2="-28230" x1="-28949" fill="none"/><text y="-30671" xml:space="preserve" x="-29134" stroke="none" font-size="433.3333" font-family="sans-serif">N</text><text y="-32242" xml:space="preserve" x="-28227" stroke="none" font-size="433.3333" font-family="sans-serif">O</text><text y="-31720" xml:space="preserve" x="-30948" stroke="none" font-size="433.3333" font-family="sans-serif">OH</text><text y="-30671" xml:space="preserve" x="-32762" stroke="none" font-size="433.3333" font-family="sans-serif">OH</text><text y="-31766" xml:space="preserve" x="-27242" stroke="none" font-size="433.3333" font-family="sans-serif">I</text><text y="-28487" xml:space="preserve" x="-29134" stroke="none" font-size="433.3333" font-family="sans-serif">I</text><text y="-30148" xml:space="preserve" x="-24442" stroke="none" font-size="433.3333" font-family="sans-serif">NH</text><text y="-31720" xml:space="preserve" x="-25350" stroke="none" font-size="433.3333" font-family="sans-serif">O</text><text y="-29099" xml:space="preserve" x="-22628" stroke="none" font-size="433.3333" font-family="sans-serif">OH</text><text y="-30148" xml:space="preserve" x="-20814" stroke="none" font-size="433.3333" font-family="sans-serif">OH</text><text y="-26869" xml:space="preserve" x="-28149" stroke="none" font-size="433.3333" font-family="sans-serif">NH</text><text y="-26869" xml:space="preserve" x="-26335" stroke="none" font-size="433.3333" font-family="sans-serif">O</text><text y="-25823" xml:space="preserve" x="-29963" stroke="none" font-size="433.3333" font-family="sans-serif">OH</text><text y="-26869" xml:space="preserve" x="-31777" stroke="none" font-size="433.3333" font-family="sans-serif">OH</text><text y="-28487" xml:space="preserve" x="-25350" stroke="none" font-size="433.3333" font-family="sans-serif">I</text></g></g></svg>