<svg width="270.96" viewBox="0 0 9032 5581" text-rendering="auto" stroke-width="1" stroke-opacity="1" stroke-miterlimit="10" stroke-linejoin="miter" stroke-linecap="square" stroke-dashoffset="0" stroke-dasharray="none" stroke="black" shape-rendering="auto" image-rendering="auto" height="167.43" font-weight="normal" font-style="normal" font-size="12" font-family="'Dialog'" fill-opacity="1" fill="black" color-rendering="auto" color-interpolation="auto" xmlns="http://www.w3.org/2000/svg"><g><g stroke="white" fill="white"><rect y="0" x="0" width="9032" stroke="none" height="5581"/></g><g transform="translate(32866,32866)" text-rendering="geometricPrecision" stroke-width="44" stroke-linejoin="round" stroke-linecap="round"><line y2="-29096" y1="-29663" x2="-30792" x1="-31774" fill="none"/><line y2="-29018" y1="-29446" x2="-31000" x1="-31737" fill="none"/><line y2="-27958" y1="-29096" x2="-30792" x1="-30792" fill="none"/><line y2="-29663" y1="-29096" x2="-31774" x1="-32762" fill="none"/><line y2="-27389" y1="-27958" x2="-31774" x1="-30792" fill="none"/><line y2="-27606" y1="-28033" x2="-31737" x1="-31000" fill="none"/><line y2="-29096" y1="-27958" x2="-32762" x1="-32762" fill="none"/><line y2="-28952" y1="-28100" x2="-32592" x1="-32592" fill="none"/><line y2="-27958" y1="-27389" x2="-32762" x1="-31774" fill="none"/><line y2="-29619" y1="-29096" x2="-29885" x1="-30792" fill="none"/><line y2="-29203" y1="-29619" x2="-29166" x1="-29885" fill="none"/><line y2="-29619" y1="-29316" x2="-28068" x1="-28597" fill="none"/><line y2="-30448" y1="-29619" x2="-29954" x1="-29954" fill="none"/><line y2="-30448" y1="-29619" x2="-29813" x1="-29813" fill="none"/><line y2="-29096" y1="-29619" x2="-27161" x1="-28068" fill="none"/><line y2="-29619" y1="-29096" x2="-26254" x1="-27161" fill="none"/><line y2="-29096" y1="-29619" x2="-25347" x1="-26254" fill="none"/><line y2="-30668" y1="-29619" x2="-28068" x1="-28068" fill="none"/><line y2="-29510" y1="-29096" x2="-24627" x1="-25347" fill="none"/><line y2="-28267" y1="-29096" x2="-25277" x1="-25277" fill="none"/><line y2="-28267" y1="-29096" x2="-25419" x1="-25419" fill="none"/><line y2="-31081" y1="-30668" x2="-27352" x1="-28068" fill="none"/><line y2="-31020" y1="-30607" x2="-28825" x1="-28106" fill="none"/><line y2="-31145" y1="-30729" x2="-28753" x1="-28033" fill="none"/><line y2="-30668" y1="-31081" x2="-26254" x1="-26973" fill="none"/><line y2="-31191" y1="-30668" x2="-25347" x1="-26254" fill="none"/><line y2="-30668" y1="-31191" x2="-24440" x1="-25347" fill="none"/><line y2="-32240" y1="-31410" x2="-27161" x1="-27161" fill="none"/><line y2="-32762" y1="-32240" x2="-26254" x1="-27161" fill="none"/><line y2="-32240" y1="-32762" x2="-25347" x1="-26254" fill="none"/><text y="-28917" xml:space="preserve" x="-29128" stroke="none" font-size="433.3333" font-family="sans-serif">NH</text><text y="-31012" xml:space="preserve" x="-27314" stroke="none" font-size="433.3333" font-family="sans-serif">N</text><text y="-31012" xml:space="preserve" x="-29128" stroke="none" font-size="433.3333" font-family="sans-serif">O</text><text y="-30489" xml:space="preserve" x="-30035" stroke="none" font-size="433.3333" font-family="sans-serif">O</text><text y="-29440" xml:space="preserve" x="-24593" stroke="none" font-size="433.3333" font-family="sans-serif">OH</text><text y="-27869" xml:space="preserve" x="-25500" stroke="none" font-size="433.3333" font-family="sans-serif">O</text></g></g></svg>