<svg width="238.23" viewBox="0 0 7941 8914" text-rendering="auto" stroke-width="1" stroke-opacity="1" stroke-miterlimit="10" stroke-linejoin="miter" stroke-linecap="square" stroke-dashoffset="0" stroke-dasharray="none" stroke="black" shape-rendering="auto" image-rendering="auto" height="267.42" font-weight="normal" font-style="normal" font-size="12" font-family="'Dialog'" fill-opacity="1" fill="black" color-rendering="auto" color-interpolation="auto" xmlns="http://www.w3.org/2000/svg"><g><g stroke="white" fill="white"><rect y="0" x="0" width="7941" stroke="none" height="8914"/></g><g transform="translate(32866,32758)" text-rendering="geometricPrecision" stroke-width="44" stroke-linejoin="round" stroke-linecap="round"><line y2="-27684" y1="-26869" x2="-27944" x1="-28756" fill="none"/><line y2="-28657" y1="-27684" x2="-28513" x1="-27944" fill="none"/><line y2="-28623" y1="-27889" x2="-28293" x1="-27869" fill="none"/><line y2="-27684" y1="-27684" x2="-26806" x1="-27944" fill="none"/><line y2="-26869" y1="-27438" x2="-28756" x1="-29729" fill="none"/><line y2="-26794" y1="-27222" x2="-28964" x1="-29694" fill="none"/><line y2="-25734" y1="-26869" x2="-28756" x1="-28756" fill="none"/><line y2="-29634" y1="-28657" x2="-27944" x1="-28513" fill="none"/><line y2="-27684" y1="-28657" x2="-26806" x1="-26236" fill="none"/><line y2="-27889" y1="-28623" x2="-26884" x1="-26456" fill="none"/><line y2="-26869" y1="-27684" x2="-25994" x1="-26806" fill="none"/><line y2="-27438" y1="-26869" x2="-29729" x1="-30706" fill="none"/><line y2="-25165" y1="-25734" x2="-29729" x1="-28756" fill="none"/><line y2="-25381" y1="-25809" x2="-29694" x1="-28964" fill="none"/><line y2="-25734" y1="-24919" x2="-28756" x1="-27944" fill="none"/><line y2="-29634" y1="-29634" x2="-26806" x1="-27944" fill="none"/><line y2="-29463" y1="-29463" x2="-26950" x1="-27802" fill="none"/><line y2="-28657" y1="-29634" x2="-26236" x1="-26806" fill="none"/><line y2="-25734" y1="-26869" x2="-25994" x1="-25994" fill="none"/><line y2="-26869" y1="-25734" x2="-30706" x1="-30706" fill="none"/><line y2="-26728" y1="-25875" x2="-30535" x1="-30535" fill="none"/><line y2="-25734" y1="-25165" x2="-30706" x1="-29729" fill="none"/><line y2="-24919" y1="-24919" x2="-27944" x1="-26806" fill="none"/><line y2="-24919" y1="-25734" x2="-26806" x1="-25994" fill="none"/><line y2="-25324" y1="-25734" x2="-25029" x1="-25994" fill="none"/><line y2="-23948" y1="-24919" x2="-26413" x1="-26806" fill="none"/><line y2="-29172" y1="-28657" x2="-29125" x1="-28513" fill="none"/><line y2="-32202" y1="-29550" x2="-29313" x1="-29313" fill="none"/><line y2="-28253" y1="-27438" x2="-29874" x1="-29729" fill="none"/><line y2="-28848" y1="-28579" x2="-30564" x1="-30099" fill="none"/><line y2="-30047" y1="-29634" x2="-28663" x1="-27944" fill="none"/><line y2="-31023" y1="-30376" x2="-28851" x1="-28851" fill="none"/><line y2="-27285" y1="-26869" x2="-31425" x1="-30706" fill="none"/><line y2="-27037" y1="-27285" x2="-32231" x1="-31800" fill="none"/><line y2="-30321" y1="-29634" x2="-26410" x1="-26806" fill="none"/><line y2="-25428" y1="-25734" x2="-31234" x1="-30706" fill="none"/><text y="-29151" xml:space="preserve" x="-29466" stroke="none" font-size="433.3333" font-family="sans-serif">O</text><text y="-32242" xml:space="preserve" x="-29466" stroke="none" font-size="433.3333" font-family="sans-serif">CH</text><text y="-32153" xml:space="preserve" x="-28888" stroke="none" font-size="313.3333" font-family="sans-serif">3</text><text y="-28293" xml:space="preserve" x="-30064" stroke="none" font-size="433.3333" font-family="sans-serif">O</text><text y="-28998" xml:space="preserve" x="-31286" stroke="none" font-size="433.3333" font-family="sans-serif">CH</text><text y="-28909" xml:space="preserve" x="-30708" stroke="none" font-size="313.3333" font-family="sans-serif">3</text><text y="-29978" xml:space="preserve" x="-29001" stroke="none" font-size="433.3333" font-family="sans-serif">O</text><text y="-31064" xml:space="preserve" x="-29001" stroke="none" font-size="433.3333" font-family="sans-serif">CH</text><text y="-30974" xml:space="preserve" x="-28423" stroke="none" font-size="313.3333" font-family="sans-serif">3</text><text y="-27216" xml:space="preserve" x="-31766" stroke="none" font-size="433.3333" font-family="sans-serif">O</text><text y="-26638" xml:space="preserve" x="-32762" stroke="none" font-size="433.3333" font-family="sans-serif">CH</text><text y="-26548" xml:space="preserve" x="-32185" stroke="none" font-size="313.3333" font-family="sans-serif">3</text><text y="-30362" xml:space="preserve" x="-26436" stroke="none" font-size="433.3333" font-family="sans-serif">OH</text><text y="-25029" xml:space="preserve" x="-31766" stroke="none" font-size="433.3333" font-family="sans-serif">OH</text></g></g></svg>