<svg width="433.05" viewBox="0 0 14435 8424" text-rendering="auto" stroke-width="1" stroke-opacity="1" stroke-miterlimit="10" stroke-linejoin="miter" stroke-linecap="square" stroke-dashoffset="0" stroke-dasharray="none" stroke="black" shape-rendering="auto" image-rendering="auto" height="252.72" font-weight="normal" font-style="normal" font-size="12" font-family="'Dialog'" fill-opacity="1" fill="black" color-rendering="auto" color-interpolation="auto" xmlns="http://www.w3.org/2000/svg"><g><g stroke="white" fill="white"><rect y="0" x="0" width="14435" stroke="none" height="8424"/></g><g transform="translate(32866,32866)" text-rendering="geometricPrecision" stroke-width="44" stroke-linejoin="round" stroke-linecap="round"><line y2="-28961" y1="-29530" x2="-24133" x1="-25118" fill="none"/><line y2="-28886" y1="-29313" x2="-24341" x1="-25081" fill="none"/><line y2="-27822" y1="-28961" x2="-24133" x1="-24133" fill="none"/><line y2="-29530" y1="-28961" x2="-25118" x1="-26104" fill="none"/><line y2="-27256" y1="-27822" x2="-25118" x1="-24133" fill="none"/><line y2="-27473" y1="-27900" x2="-25081" x1="-24341" fill="none"/><line y2="-28961" y1="-27822" x2="-26104" x1="-26104" fill="none"/><line y2="-28819" y1="-27967" x2="-25933" x1="-25933" fill="none"/><line y2="-27822" y1="-27256" x2="-26104" x1="-25118" fill="none"/><line y2="-29377" y1="-28961" x2="-23414" x1="-24133" fill="none"/><line y2="-27300" y1="-27822" x2="-27011" x1="-26104" fill="none"/><line y2="-27822" y1="-27300" x2="-27918" x1="-27011" fill="none"/><line y2="-27519" y1="-27822" x2="-28446" x1="-27918" fill="none"/><line y2="-27822" y1="-27409" x2="-29732" x1="-29013" fill="none"/><line y2="-29070" y1="-29377" x2="-22507" x1="-23038" fill="none"/><line y2="-29484" y1="-29180" x2="-21412" x1="-21941" fill="none"/><line y2="-30209" y1="-29738" x2="-22891" x1="-23163" fill="none"/><line y2="-30136" y1="-29668" x2="-22770" x1="-23038" fill="none"/><line y2="-30136" y1="-29668" x2="-23686" x1="-23414" fill="none"/><line y2="-30209" y1="-29738" x2="-23561" x1="-23293" fill="none"/><line y2="-27300" y1="-27822" x2="-30639" x1="-29732" fill="none"/><line y2="-28652" y1="-27822" x2="-29801" x1="-29801" fill="none"/><line y2="-28652" y1="-27822" x2="-29663" x1="-29663" fill="none"/><line y2="-30313" y1="-29484" x2="-21412" x1="-21412" fill="none"/><line y2="-31055" y1="-30752" x2="-20505" x1="-21034" fill="none"/><line y2="-29131" y1="-29544" x2="-20658" x1="-21377" fill="none"/><line y2="-29007" y1="-29423" x2="-20727" x1="-21447" fill="none"/><line y2="-26381" y1="-27300" x2="-30639" x1="-30639" fill="none"/><line y2="-26496" y1="-27184" x2="-30810" x1="-30810" fill="none"/><line y2="-27300" y1="-27869" x2="-30639" x1="-31624" fill="none"/><line y2="-25592" y1="-26054" x2="-31624" x1="-30827" fill="none"/><line y2="-27869" y1="-27409" x2="-31624" x1="-32422" fill="none"/><line y2="-27664" y1="-27317" x2="-31639" x1="-32237" fill="none"/><line y2="-26161" y1="-25592" x2="-32609" x1="-31624" fill="none"/><line y2="-26239" y1="-25812" x2="-32401" x1="-31662" fill="none"/><line y2="-27080" y1="-26161" x2="-32609" x1="-32609" fill="none"/><line y2="-24546" y1="-25592" x2="-31624" x1="-31624" fill="none"/><line y2="-32193" y1="-31055" x2="-20505" x1="-20505" fill="none"/><line y2="-31055" y1="-30489" x2="-20505" x1="-19517" fill="none"/><line y2="-32762" y1="-32193" x2="-19517" x1="-20505" fill="none"/><line y2="-30489" y1="-31055" x2="-19517" x1="-18535" fill="none"/><line y2="-32193" y1="-32762" x2="-18535" x1="-19517" fill="none"/><line y2="-31055" y1="-32193" x2="-18535" x1="-18535" fill="none"/><text y="-29304" xml:space="preserve" x="-23379" stroke="none" font-size="433.3333" font-family="sans-serif">S</text><text y="-28782" xml:space="preserve" x="-22472" stroke="none" font-size="433.3333" font-family="sans-serif">NH</text><text y="-30212" xml:space="preserve" x="-22854" stroke="none" font-size="433.3333" font-family="sans-serif">O</text><text y="-30212" xml:space="preserve" x="-23902" stroke="none" font-size="433.3333" font-family="sans-serif">O</text><text y="-30353" xml:space="preserve" x="-21565" stroke="none" font-size="433.3333" font-family="sans-serif">NH</text><text y="-28782" xml:space="preserve" x="-20658" stroke="none" font-size="433.3333" font-family="sans-serif">O</text><text y="-27120" xml:space="preserve" x="-28978" stroke="none" font-size="433.3333" font-family="sans-serif">NH</text><text y="-28692" xml:space="preserve" x="-29885" stroke="none" font-size="433.3333" font-family="sans-serif">O</text><text y="-25982" xml:space="preserve" x="-30792" stroke="none" font-size="433.3333" font-family="sans-serif">N</text><text y="-27120" xml:space="preserve" x="-32762" stroke="none" font-size="433.3333" font-family="sans-serif">N</text></g></g></svg>