<svg width="257.28" viewBox="0 0 8576 2994" text-rendering="auto" stroke-width="1" stroke-opacity="1" stroke-miterlimit="10" stroke-linejoin="miter" stroke-linecap="square" stroke-dashoffset="0" stroke-dasharray="none" stroke="black" shape-rendering="auto" image-rendering="auto" height="89.82" font-weight="normal" font-style="normal" font-size="12" font-family="'Dialog'" fill-opacity="1" fill="black" color-rendering="auto" color-interpolation="auto" xmlns="http://www.w3.org/2000/svg"><g><g stroke="white" fill="white"><rect y="0" x="0" width="8576" stroke="none" height="2994"/></g><g transform="translate(32866,32758)" text-rendering="geometricPrecision" stroke-width="44" stroke-linejoin="round" stroke-linecap="round"><line y2="-30662" y1="-30662" x2="-28227" x1="-27080" fill="none"/><line y2="-31725" y1="-30662" x2="-28553" x1="-28227" fill="none"/><line y2="-30662" y1="-31725" x2="-27080" x1="-26710" fill="none"/><line y2="-32283" y1="-31725" x2="-27799" x1="-28553" fill="none"/><line y2="-31725" y1="-32202" x2="-26710" x1="-27328" fill="none"/><line y2="-31835" y1="-32251" x2="-25087" x1="-25803" fill="none"/><line y2="-30662" y1="-30246" x2="-30041" x1="-29322" fill="none"/><line y2="-30246" y1="-30662" x2="-30760" x1="-30041" fill="none"/><line y2="-30662" y1="-30246" x2="-31855" x1="-31136" fill="none"/><line y2="-31491" y1="-30662" x2="-30110" x1="-30110" fill="none"/><line y2="-31491" y1="-30662" x2="-29972" x1="-29972" fill="none"/><line y2="-30139" y1="-30662" x2="-32762" x1="-31855" fill="none"/><line y2="-31569" y1="-30662" x2="-32378" x1="-31855" fill="none"/><line y2="-31569" y1="-30662" x2="-31330" x1="-31855" fill="none"/><line y2="-32190" y1="-32309" x2="-25768" x1="-25838" fill="none"/><line y2="-32094" y1="-32188" x2="-25963" x1="-26018" fill="none"/><line y2="-31998" y1="-32067" x2="-26158" x1="-26199" fill="none"/><line y2="-31902" y1="-31947" x2="-26352" x1="-26379" fill="none"/><line y2="-31805" y1="-31826" x2="-26547" x1="-26559" fill="none"/><line y2="-30417" y1="-30298" x2="-28787" x1="-28718" fill="none"/><line y2="-30504" y1="-30428" x2="-28587" x1="-28543" fill="none"/><line y2="-30592" y1="-30558" x2="-28387" x1="-28368" fill="none"/><text y="-29960" xml:space="preserve" x="-29284" stroke="none" font-size="433.3333" font-family="sans-serif">NH</text><text y="-29960" xml:space="preserve" x="-31098" stroke="none" font-size="433.3333" font-family="sans-serif">O</text><text y="-31532" xml:space="preserve" x="-30191" stroke="none" font-size="433.3333" font-family="sans-serif">O</text><text y="-31546" xml:space="preserve" x="-25049" stroke="none" font-size="433.3333" font-family="sans-serif">OH</text><text y="-32242" xml:space="preserve" x="-27765" stroke="none" font-size="433.3333" font-family="sans-serif">NH</text><text y="-30769" xml:space="preserve" x="-28146" stroke="none" font-style="italic" font-size="313.3333" font-family="sans-serif">S</text><text y="-31448" xml:space="preserve" x="-27132" stroke="none" font-style="italic" font-size="313.3333" font-family="sans-serif">S</text></g></g></svg>