<svg width="712.29" viewBox="0 0 23743 2283" text-rendering="auto" stroke-width="1" stroke-opacity="1" stroke-miterlimit="10" stroke-linejoin="miter" stroke-linecap="square" stroke-dashoffset="0" stroke-dasharray="none" stroke="black" shape-rendering="auto" image-rendering="auto" height="68.49" font-weight="normal" font-style="normal" font-size="12" font-family="'Dialog'" fill-opacity="1" fill="black" color-rendering="auto" color-interpolation="auto" xmlns="http://www.w3.org/2000/svg"><g><g stroke="white" fill="white"><rect y="0" x="0" width="23743" stroke="none" height="2283"/></g><g transform="translate(32866,32758)" text-rendering="geometricPrecision" stroke-width="44" stroke-linejoin="round" stroke-linecap="round"><line y2="-31376" y1="-31376" x2="-20254" x1="-21302" fill="none"/><line y2="-31465" y1="-31465" x2="-20254" x1="-21302" fill="none"/><line y2="-31286" y1="-31286" x2="-20254" x1="-21302" fill="none"/><line y2="-31376" y1="-31376" x2="-22351" x1="-21302" fill="none"/><line y2="-31376" y1="-31376" x2="-19208" x1="-20254" fill="none"/><line y2="-30850" y1="-31376" x2="-18301" x1="-19208" fill="none"/><line y2="-31376" y1="-30850" x2="-17394" x1="-18301" fill="none"/><line y2="-30850" y1="-31376" x2="-16486" x1="-17394" fill="none"/><line y2="-31376" y1="-30850" x2="-15576" x1="-16486" fill="none"/><line y2="-30850" y1="-31376" x2="-14669" x1="-15576" fill="none"/><line y2="-31376" y1="-30850" x2="-13762" x1="-14669" fill="none"/><line y2="-30850" y1="-31376" x2="-12855" x1="-13762" fill="none"/><line y2="-31376" y1="-30850" x2="-11948" x1="-12855" fill="none"/><line y2="-30850" y1="-31376" x2="-11041" x1="-11948" fill="none"/><line y2="-31376" y1="-30850" x2="-10134" x1="-11041" fill="none"/><line y2="-30850" y1="-31376" x2="-9227" x1="-10134" fill="none"/><line y2="-31376" y1="-31376" x2="-23397" x1="-22351" fill="none"/><line y2="-31286" y1="-31286" x2="-23397" x1="-22351" fill="none"/><line y2="-31465" y1="-31465" x2="-23397" x1="-22351" fill="none"/><line y2="-31376" y1="-31376" x2="-24445" x1="-23397" fill="none"/><line y2="-30850" y1="-31376" x2="-25352" x1="-24445" fill="none"/><line y2="-31376" y1="-30850" x2="-26260" x1="-25352" fill="none"/><line y2="-30850" y1="-31376" x2="-27167" x1="-26260" fill="none"/><line y2="-31376" y1="-30850" x2="-28074" x1="-27167" fill="none"/><line y2="-30850" y1="-31376" x2="-28981" x1="-28074" fill="none"/><line y2="-31376" y1="-30850" x2="-29888" x1="-28981" fill="none"/><line y2="-30850" y1="-31376" x2="-30795" x1="-29888" fill="none"/><line y2="-31376" y1="-30850" x2="-31702" x1="-30795" fill="none"/><line y2="-31070" y1="-31376" x2="-32231" x1="-31702" fill="none"/><line y2="-32202" y1="-31376" x2="-31774" x1="-31774" fill="none"/><line y2="-32202" y1="-31376" x2="-31633" x1="-31633" fill="none"/><text y="-30671" xml:space="preserve" x="-32762" stroke="none" font-size="433.3333" font-family="sans-serif">OH</text><text y="-32242" xml:space="preserve" x="-31855" stroke="none" font-size="433.3333" font-family="sans-serif">O</text></g></g></svg>