<svg width="271.35" viewBox="0 0 9045 3772" text-rendering="auto" stroke-width="1" stroke-opacity="1" stroke-miterlimit="10" stroke-linejoin="miter" stroke-linecap="square" stroke-dashoffset="0" stroke-dasharray="none" stroke="black" shape-rendering="auto" image-rendering="auto" height="113.16" font-weight="normal" font-style="normal" font-size="12" font-family="'Dialog'" fill-opacity="1" fill="black" color-rendering="auto" color-interpolation="auto" xmlns="http://www.w3.org/2000/svg"><g><g stroke="white" fill="white"><rect y="0" x="0" width="9045" stroke="none" height="3772"/></g><g transform="translate(32866,32866)" text-rendering="geometricPrecision" stroke-width="44" stroke-linejoin="round" stroke-linecap="round"><line y2="-30532" y1="-31084" x2="-27291" x1="-28002" fill="none"/><line y2="-30466" y1="-30879" x2="-27482" x1="-28016" fill="none"/><line y2="-29689" y1="-30532" x2="-27583" x1="-27291" fill="none"/><line y2="-31090" y1="-30532" x2="-28377" x1="-29131" fill="none"/><line y2="-29469" y1="-29469" x2="-28805" x1="-27846" fill="none"/><line y2="-30532" y1="-29469" x2="-29131" x1="-28805" fill="none"/><line y2="-30448" y1="-29651" x2="-28929" x1="-28683" fill="none"/><line y2="-31055" y1="-30532" x2="-26384" x1="-27291" fill="none"/><line y2="-31055" y1="-30532" x2="-30038" x1="-29131" fill="none"/><line y2="-32193" y1="-31055" x2="-26384" x1="-26384" fill="none"/><line y2="-31055" y1="-30489" x2="-26384" x1="-25396" fill="none"/><line y2="-32762" y1="-32193" x2="-25396" x1="-26384" fill="none"/><line y2="-30489" y1="-31055" x2="-25396" x1="-24414" fill="none"/><line y2="-32303" y1="-32762" x2="-24601" x1="-25396" fill="none"/><line y2="-31055" y1="-31974" x2="-24414" x1="-24414" fill="none"/><line y2="-30642" y1="-31055" x2="-30758" x1="-30038" fill="none"/><line y2="-31055" y1="-30642" x2="-31855" x1="-31136" fill="none"/><line y2="-30532" y1="-31055" x2="-32762" x1="-31855" fill="none"/><line y2="-31884" y1="-31055" x2="-30110" x1="-30110" fill="none"/><line y2="-31884" y1="-31055" x2="-29969" x1="-29969" fill="none"/><text y="-30353" xml:space="preserve" x="-31098" stroke="none" font-size="433.3333" font-family="sans-serif">O</text><text y="-31925" xml:space="preserve" x="-30191" stroke="none" font-size="433.3333" font-family="sans-serif">O</text><text y="-31049" xml:space="preserve" x="-28342" stroke="none" font-size="433.3333" font-family="sans-serif">N</text><text y="-29290" xml:space="preserve" x="-27811" stroke="none" font-size="433.3333" font-family="sans-serif">O</text><text y="-32014" xml:space="preserve" x="-24564" stroke="none" font-size="433.3333" font-family="sans-serif">NH</text></g></g></svg>