<svg width="233.28" viewBox="0 0 7776 8903" text-rendering="auto" stroke-width="1" stroke-opacity="1" stroke-miterlimit="10" stroke-linejoin="miter" stroke-linecap="square" stroke-dashoffset="0" stroke-dasharray="none" stroke="black" shape-rendering="auto" image-rendering="auto" height="267.09" font-weight="normal" font-style="normal" font-size="12" font-family="'Dialog'" fill-opacity="1" fill="black" color-rendering="auto" color-interpolation="auto" xmlns="http://www.w3.org/2000/svg"><g><g stroke="white" fill="white"><rect y="0" x="0" width="7776" stroke="none" height="8903"/></g><g transform="translate(32866,32866)" text-rendering="geometricPrecision" stroke-width="44" stroke-linejoin="round" stroke-linecap="round"><line y2="-25771" y1="-26187" x2="-28978" x1="-29697" fill="none"/><line y2="-25771" y1="-26187" x2="-30792" x1="-30073" fill="none"/><line y2="-27346" y1="-26517" x2="-29885" x1="-29885" fill="none"/><line y2="-27869" y1="-27346" x2="-28978" x1="-29885" fill="none"/><line y2="-28917" y1="-27869" x2="-28978" x1="-28978" fill="none"/><line y2="-29330" y1="-28917" x2="-28259" x1="-28978" fill="none"/><line y2="-25771" y1="-24636" x2="-28978" x1="-28978" fill="none"/><line y2="-25630" y1="-24778" x2="-28808" x1="-28808" fill="none"/><line y2="-26340" y1="-25771" x2="-27990" x1="-28978" fill="none"/><line y2="-24636" y1="-24067" x2="-28978" x1="-27990" fill="none"/><line y2="-25771" y1="-26340" x2="-27008" x1="-27990" fill="none"/><line y2="-25696" y1="-26124" x2="-27216" x1="-27952" fill="none"/><line y2="-24067" y1="-24636" x2="-27990" x1="-27008" fill="none"/><line y2="-24284" y1="-24711" x2="-27952" x1="-27216" fill="none"/><line y2="-24636" y1="-25771" x2="-27008" x1="-27008" fill="none"/><line y2="-25771" y1="-26340" x2="-30792" x1="-31774" fill="none"/><line y2="-25696" y1="-26124" x2="-31000" x1="-31737" fill="none"/><line y2="-24636" y1="-25771" x2="-30792" x1="-30792" fill="none"/><line y2="-26340" y1="-25771" x2="-31774" x1="-32762" fill="none"/><line y2="-24067" y1="-24636" x2="-31774" x1="-30792" fill="none"/><line y2="-24284" y1="-24711" x2="-31737" x1="-31000" fill="none"/><line y2="-25771" y1="-24636" x2="-32762" x1="-32762" fill="none"/><line y2="-25630" y1="-24778" x2="-32592" x1="-32592" fill="none"/><line y2="-24636" y1="-24067" x2="-32762" x1="-31774" fill="none"/><line y2="-28917" y1="-29330" x2="-27164" x1="-27883" fill="none"/><line y2="-30489" y1="-29660" x2="-28071" x1="-28071" fill="none"/><line y2="-28917" y1="-27779" x2="-27164" x1="-27164" fill="none"/><line y2="-28773" y1="-27921" x2="-26993" x1="-26993" fill="none"/><line y2="-29484" y1="-28917" x2="-26176" x1="-27164" fill="none"/><line y2="-27779" y1="-27210" x2="-27164" x1="-26176" fill="none"/><line y2="-28917" y1="-29484" x2="-25194" x1="-26176" fill="none"/><line y2="-28839" y1="-29267" x2="-25402" x1="-26138" fill="none"/><line y2="-27210" y1="-27779" x2="-26176" x1="-25194" fill="none"/><line y2="-27427" y1="-27854" x2="-26138" x1="-25402" fill="none"/><line y2="-27779" y1="-28917" x2="-25194" x1="-25194" fill="none"/><line y2="-31055" y1="-30489" x2="-29059" x1="-28071" fill="none"/><line y2="-31133" y1="-30706" x2="-28848" x1="-28108" fill="none"/><line y2="-30489" y1="-31055" x2="-28071" x1="-27089" fill="none"/><line y2="-32193" y1="-31055" x2="-29059" x1="-29059" fill="none"/><line y2="-31055" y1="-32193" x2="-27089" x1="-27089" fill="none"/><line y2="-31200" y1="-32052" x2="-27259" x1="-27259" fill="none"/><line y2="-32762" y1="-32193" x2="-28071" x1="-29059" fill="none"/><line y2="-32543" y1="-32118" x2="-28108" x1="-28848" fill="none"/><line y2="-32193" y1="-32762" x2="-27089" x1="-28071" fill="none"/><text y="-26118" xml:space="preserve" x="-30038" stroke="none" font-size="433.3333" font-family="sans-serif">P</text><text y="-29261" xml:space="preserve" x="-28224" stroke="none" font-size="433.3333" font-family="sans-serif">P</text></g></g></svg>