<svg width="201.39" viewBox="0 0 6713 3988" text-rendering="auto" stroke-width="1" stroke-opacity="1" stroke-miterlimit="10" stroke-linejoin="miter" stroke-linecap="square" stroke-dashoffset="0" stroke-dasharray="none" stroke="black" shape-rendering="auto" image-rendering="auto" height="119.64" font-weight="normal" font-style="normal" font-size="12" font-family="'Dialog'" fill-opacity="1" fill="black" color-rendering="auto" color-interpolation="auto" xmlns="http://www.w3.org/2000/svg"><g><g stroke="white" fill="white"><rect y="0" x="0" width="6713" stroke="none" height="3988"/></g><g transform="translate(32866,32758)" text-rendering="geometricPrecision" stroke-width="44" stroke-linejoin="round" stroke-linecap="round"><line y2="-30850" y1="-29715" x2="-29134" x1="-29134" fill="none"/><line y2="-31419" y1="-30850" x2="-28149" x1="-29134" fill="none"/><line y2="-31202" y1="-30775" x2="-28186" x1="-28926" fill="none"/><line y2="-29715" y1="-29252" x2="-29134" x1="-28337" fill="none"/><line y2="-29804" y1="-29458" x2="-28949" x1="-28351" fill="none"/><line y2="-30960" y1="-31419" x2="-27352" x1="-28149" fill="none"/><line y2="-29252" y1="-29715" x2="-27958" x1="-27164" fill="none"/><line y2="-29715" y1="-30630" x2="-27164" x1="-27164" fill="none"/><line y2="-29827" y1="-30518" x2="-27334" x1="-27334" fill="none"/><line y2="-31376" y1="-30850" x2="-30041" x1="-29134" fill="none"/><line y2="-29189" y1="-29715" x2="-26257" x1="-27164" fill="none"/><line y2="-29408" y1="-29715" x2="-29663" x1="-29134" fill="none"/><line y2="-30960" y1="-31376" x2="-30760" x1="-30041" fill="none"/><line y2="-31376" y1="-30960" x2="-31855" x1="-31136" fill="none"/><line y2="-30850" y1="-31376" x2="-32762" x1="-31855" fill="none"/><line y2="-32202" y1="-31376" x2="-30110" x1="-30110" fill="none"/><line y2="-32202" y1="-31376" x2="-29972" x1="-29972" fill="none"/><text y="-30671" xml:space="preserve" x="-31101" stroke="none" font-size="433.3333" font-family="sans-serif">O</text><text y="-32242" xml:space="preserve" x="-30194" stroke="none" font-size="433.3333" font-family="sans-serif">O</text><text y="-29010" xml:space="preserve" x="-30194" stroke="none" font-size="433.3333" font-family="sans-serif">OH</text><text y="-28966" xml:space="preserve" x="-28299" stroke="none" font-size="433.3333" font-family="sans-serif">N</text><text y="-30671" xml:space="preserve" x="-27317" stroke="none" font-size="433.3333" font-family="sans-serif">N</text></g></g></svg>