<svg width="179.61" viewBox="0 0 5987 4900" text-rendering="auto" stroke-width="1" stroke-opacity="1" stroke-miterlimit="10" stroke-linejoin="miter" stroke-linecap="square" stroke-dashoffset="0" stroke-dasharray="none" stroke="black" shape-rendering="auto" image-rendering="auto" height="147.0" font-weight="normal" font-style="normal" font-size="12" font-family="'Dialog'" fill-opacity="1" fill="black" color-rendering="auto" color-interpolation="auto" xmlns="http://www.w3.org/2000/svg"><g><g stroke="white" fill="white"><rect y="0" x="0" width="5987" stroke="none" height="4900"/></g><g transform="translate(32866,32758)" text-rendering="geometricPrecision" stroke-width="44" stroke-linejoin="round" stroke-linecap="round"><line y2="-31376" y1="-30850" x2="-29888" x1="-30795" fill="none"/><line y2="-31376" y1="-30850" x2="-31702" x1="-30795" fill="none"/><line y2="-30024" y1="-30850" x2="-30795" x1="-30795" fill="none"/><line y2="-29278" y1="-29585" x2="-29888" x1="-30417" fill="none"/><line y2="-30850" y1="-31376" x2="-28981" x1="-29888" fill="none"/><line y2="-32422" y1="-31376" x2="-29888" x1="-29888" fill="none"/><line y2="-31792" y1="-31376" x2="-29169" x1="-29888" fill="none"/><line y2="-31483" y1="-31792" x2="-28262" x1="-28793" fill="none"/><line y2="-31852" y1="-31543" x2="-27389" x1="-27921" fill="none"/><line y2="-31728" y1="-31422" x2="-27320" x1="-27851" fill="none"/><line y2="-31070" y1="-31376" x2="-32231" x1="-31702" fill="none"/><line y2="-32202" y1="-31376" x2="-31772" x1="-31772" fill="none"/><line y2="-32202" y1="-31376" x2="-31633" x1="-31633" fill="none"/><line y2="-29804" y1="-29278" x2="-28981" x1="-29888" fill="none"/><line y2="-28452" y1="-29278" x2="-29819" x1="-29819" fill="none"/><line y2="-28452" y1="-29278" x2="-29957" x1="-29957" fill="none"/><text y="-29625" xml:space="preserve" x="-30948" stroke="none" font-size="433.3333" font-family="sans-serif">NH</text><text y="-31720" xml:space="preserve" x="-29134" stroke="none" font-size="433.3333" font-family="sans-serif">S</text><text y="-30671" xml:space="preserve" x="-32762" stroke="none" font-size="433.3333" font-family="sans-serif">OH</text><text y="-32242" xml:space="preserve" x="-31855" stroke="none" font-size="433.3333" font-family="sans-serif">O</text><text y="-31197" xml:space="preserve" x="-28227" stroke="none" font-size="433.3333" font-family="sans-serif">N</text><text y="-28054" xml:space="preserve" x="-30041" stroke="none" font-size="433.3333" font-family="sans-serif">O</text><text y="-31720" xml:space="preserve" x="-27320" stroke="none" font-size="433.3333" font-family="sans-serif">O</text></g></g></svg>