<svg width="382.02" viewBox="0 0 12734 6807" text-rendering="auto" stroke-width="1" stroke-opacity="1" stroke-miterlimit="10" stroke-linejoin="miter" stroke-linecap="square" stroke-dashoffset="0" stroke-dasharray="none" stroke="black" shape-rendering="auto" image-rendering="auto" height="204.21" font-weight="normal" font-style="normal" font-size="12" font-family="'Dialog'" fill-opacity="1" fill="black" color-rendering="auto" color-interpolation="auto" xmlns="http://www.w3.org/2000/svg"><g><g stroke="white" fill="white"><rect y="0" x="0" width="12734" stroke="none" height="6807"/></g><g transform="translate(32866,32758)" text-rendering="geometricPrecision" stroke-width="44" stroke-linejoin="round" stroke-linecap="round"><line y2="-26326" y1="-27262" x2="-25277" x1="-24954" fill="none"/><line y2="-27626" y1="-28094" x2="-25064" x1="-25667" fill="none"/><line y2="-26326" y1="-26326" x2="-26335" x1="-25277" fill="none"/><line y2="-26496" y1="-26496" x2="-26202" x1="-25410" fill="none"/><line y2="-28100" y1="-27482" x2="-26043" x1="-26878" fill="none"/><line y2="-27886" y1="-27421" x2="-26046" x1="-26673" fill="none"/><line y2="-27482" y1="-26546" x2="-26878" x1="-26589" fill="none"/><line y2="-28004" y1="-27591" x2="-23972" x1="-24688" fill="none"/><line y2="-29053" y1="-28004" x2="-23972" x1="-23972" fill="none"/><line y2="-29775" y1="-29053" x2="-24503" x1="-23972" fill="none"/><line y2="-29053" y1="-29322" x2="-23972" x1="-23093" fill="none"/><line y2="-30896" y1="-30214" x2="-23972" x1="-24497" fill="none"/><line y2="-29599" y1="-30526" x2="-22906" x1="-22906" fill="none"/><line y2="-30526" y1="-30896" x2="-22906" x1="-23972" fill="none"/><line y2="-32312" y1="-31896" x2="-24997" x1="-24278" fill="none"/><line y2="-31896" y1="-32312" x2="-26092" x1="-25373" fill="none"/><line y2="-30758" y1="-31896" x2="-26092" x1="-26092" fill="none"/><line y2="-30902" y1="-31754" x2="-26262" x1="-26262" fill="none"/><line y2="-31896" y1="-32465" x2="-26092" x1="-27080" fill="none"/><line y2="-30191" y1="-30758" x2="-27080" x1="-26092" fill="none"/><line y2="-32465" y1="-31896" x2="-27080" x1="-28062" fill="none"/><line y2="-32248" y1="-31821" x2="-27118" x1="-27854" fill="none"/><line y2="-30758" y1="-30191" x2="-28062" x1="-27080" fill="none"/><line y2="-30836" y1="-30408" x2="-27854" x1="-27118" fill="none"/><line y2="-31896" y1="-30758" x2="-28062" x1="-28062" fill="none"/><line y2="-30344" y1="-30758" x2="-28782" x1="-28062" fill="none"/><line y2="-28819" y1="-28250" x2="-22313" x1="-23298" fill="none"/><line y2="-28600" y1="-28172" x2="-22351" x1="-23090" fill="none"/><line y2="-28250" y1="-27112" x2="-23298" x1="-23298" fill="none"/><line y2="-28250" y1="-28819" x2="-21328" x1="-22313" fill="none"/><line y2="-27112" y1="-26543" x2="-23298" x1="-22313" fill="none"/><line y2="-27187" y1="-26762" x2="-23090" x1="-22351" fill="none"/><line y2="-27112" y1="-28250" x2="-21328" x1="-21328" fill="none"/><line y2="-27253" y1="-28108" x2="-21496" x1="-21496" fill="none"/><line y2="-26543" y1="-27112" x2="-22313" x1="-21328" fill="none"/><line y2="-29957" y1="-28819" x2="-22313" x1="-22313" fill="none"/><line y2="-26777" y1="-27112" x2="-20768" x1="-21328" fill="none"/><line y2="-29096" y1="-30015" x2="-28969" x1="-28969" fill="none"/><line y2="-30344" y1="-30804" x2="-29157" x1="-29957" fill="none"/><line y2="-28530" y1="-29096" x2="-29957" x1="-28969" fill="none"/><line y2="-30804" y1="-30235" x2="-29957" x1="-30940" fill="none"/><line y2="-28990" y1="-28530" x2="-30752" x1="-29957" fill="none"/><line y2="-30235" y1="-29316" x2="-30940" x1="-30940" fill="none"/><line y2="-28574" y1="-28990" x2="-31847" x1="-31127" fill="none"/><line y2="-29082" y1="-28574" x2="-32762" x1="-31847" fill="none"/><line y2="-27525" y1="-28574" x2="-31847" x1="-31847" fill="none"/><polygon stroke-width="1" stroke="none" points=" -23972 -30896 -24344 -31876 -24211 -31916"/><polygon stroke-width="1" points=" -23972 -30896 -24344 -31876 -24211 -31916" fill="none"/><line y2="-28204" y1="-28293" x2="-23350" x1="-23244" fill="none"/><line y2="-28379" y1="-28450" x2="-23478" x1="-23394" fill="none"/><line y2="-28554" y1="-28607" x2="-23607" x1="-23544" fill="none"/><line y2="-28729" y1="-28763" x2="-23735" x1="-23695" fill="none"/><line y2="-28905" y1="-28920" x2="-23863" x1="-23845" fill="none"/><text y="-29998" xml:space="preserve" x="-22544" stroke="none" font-size="433.3333" font-family="sans-serif">Cl</text><text y="-32242" xml:space="preserve" x="-25338" stroke="none" font-size="433.3333" font-family="sans-serif">O</text><text y="-26395" xml:space="preserve" x="-20661" stroke="none" font-size="433.3333" font-family="sans-serif">Cl</text><text y="-29816" xml:space="preserve" x="-24818" stroke="none" font-size="433.3333" font-family="sans-serif">O</text><text y="-29200" xml:space="preserve" x="-23059" stroke="none" font-size="433.3333" font-family="sans-serif">O</text><text y="-27302" xml:space="preserve" x="-25029" stroke="none" font-size="433.3333" font-family="sans-serif">N</text><text y="-28059" xml:space="preserve" x="-26008" stroke="none" font-size="433.3333" font-family="sans-serif">N</text><text y="-26147" xml:space="preserve" x="-26676" stroke="none" font-size="433.3333" font-family="sans-serif">N</text><text y="-30056" xml:space="preserve" x="-29122" stroke="none" font-size="433.3333" font-family="sans-serif">N</text><text y="-28917" xml:space="preserve" x="-31093" stroke="none" font-size="433.3333" font-family="sans-serif">N</text><text y="-28776" xml:space="preserve" x="-24393" stroke="none" font-style="italic" font-size="313.3333" font-family="sans-serif">R</text><text y="-30446" xml:space="preserve" x="-24026" stroke="none" font-style="italic" font-size="313.3333" font-family="sans-serif">S</text></g></g></svg>