<svg width="177.09" viewBox="0 0 5903 11524" text-rendering="auto" stroke-width="1" stroke-opacity="1" stroke-miterlimit="10" stroke-linejoin="miter" stroke-linecap="square" stroke-dashoffset="0" stroke-dasharray="none" stroke="black" shape-rendering="auto" image-rendering="auto" height="345.72" font-weight="normal" font-style="normal" font-size="12" font-family="'Dialog'" fill-opacity="1" fill="black" color-rendering="auto" color-interpolation="auto" xmlns="http://www.w3.org/2000/svg"><g><g stroke="white" fill="white"><rect y="0" x="0" width="5903" stroke="none" height="11524"/></g><g transform="translate(32866,32866)" text-rendering="geometricPrecision" stroke-width="44" stroke-linejoin="round" stroke-linecap="round"><line y2="-32193" y1="-31055" x2="-30896" x1="-30896" fill="none"/><line y2="-31055" y1="-30489" x2="-30896" x1="-29908" fill="none"/><line y2="-31133" y1="-30706" x2="-30688" x1="-29949" fill="none"/><line y2="-32762" y1="-32193" x2="-29908" x1="-30896" fill="none"/><line y2="-32543" y1="-32118" x2="-29949" x1="-30688" fill="none"/><line y2="-30489" y1="-31055" x2="-29908" x1="-28926" fill="none"/><line y2="-32193" y1="-32762" x2="-28926" x1="-29908" fill="none"/><line y2="-31055" y1="-32193" x2="-28926" x1="-28926" fill="none"/><line y2="-31200" y1="-32052" x2="-29096" x1="-29096" fill="none"/><line y2="-28218" y1="-27970" x2="-30347" x1="-30775" fill="none"/><line y2="-27750" y1="-27999" x2="-29157" x1="-29588" fill="none"/><line y2="-23879" y1="-23550" x2="-29330" x1="-29894" fill="none"/><line y2="-23353" y1="-23879" x2="-28423" x1="-29330" fill="none"/><line y2="-23769" y1="-23353" x2="-27704" x1="-28423" fill="none"/><line y2="-23818" y1="-23550" x2="-31041" x1="-30576" fill="none"/><line y2="-24795" y1="-24148" x2="-31228" x1="-31228" fill="none"/><line y2="-22524" y1="-23134" x2="-30238" x1="-30238" fill="none"/><line y2="-21892" y1="-22198" x2="-29518" x1="-30047" fill="none"/><line y2="-22773" y1="-23157" x2="-31234" x1="-30576" fill="none"/><line y2="-23021" y1="-22773" x2="-32040" x1="-31610" fill="none"/><text y="-28149" xml:space="preserve" x="-30310" stroke="none" font-size="433.3333" font-family="sans-serif">CH</text><text y="-28059" xml:space="preserve" x="-29732" stroke="none" font-size="313.3333" font-family="sans-serif">2</text><text y="-27571" xml:space="preserve" x="-31309" stroke="none" font-size="433.3333" font-family="sans-serif">D1</text><text y="-27375" xml:space="preserve" x="-29050" stroke="none" font-size="433.3333" font-family="sans-serif">Cl</text><text y="-23174" xml:space="preserve" x="-30469" stroke="none" font-size="433.3333" font-family="sans-serif">Si</text><text y="-23749" xml:space="preserve" x="-31382" stroke="none" font-size="433.3333" font-family="sans-serif">O</text><text y="-22126" xml:space="preserve" x="-30388" stroke="none" font-size="433.3333" font-family="sans-serif">O</text><text y="-22484" xml:space="preserve" x="-31575" stroke="none" font-size="433.3333" font-family="sans-serif">O</text><text y="-24835" xml:space="preserve" x="-31382" stroke="none" font-size="433.3333" font-family="sans-serif">CH</text><text y="-24746" xml:space="preserve" x="-30804" stroke="none" font-size="313.3333" font-family="sans-serif">3</text><text y="-21603" xml:space="preserve" x="-29481" stroke="none" font-size="433.3333" font-family="sans-serif">CH</text><text y="-21513" xml:space="preserve" x="-28903" stroke="none" font-size="313.3333" font-family="sans-serif">3</text><text y="-23171" xml:space="preserve" x="-32762" stroke="none" font-size="433.3333" font-family="sans-serif">CH</text><text y="-23082" xml:space="preserve" x="-32185" stroke="none" font-size="313.3333" font-family="sans-serif">3</text><text y="-23700" xml:space="preserve" x="-27666" stroke="none" font-size="433.3333" font-family="sans-serif">D1</text></g></g></svg>