<svg width="161.28" viewBox="0 0 5376 4430" text-rendering="auto" stroke-width="1" stroke-opacity="1" stroke-miterlimit="10" stroke-linejoin="miter" stroke-linecap="square" stroke-dashoffset="0" stroke-dasharray="none" stroke="black" shape-rendering="auto" image-rendering="auto" height="132.9" font-weight="normal" font-style="normal" font-size="12" font-family="'Dialog'" fill-opacity="1" fill="black" color-rendering="auto" color-interpolation="auto" xmlns="http://www.w3.org/2000/svg"><g><g stroke="white" fill="white"><rect y="0" x="0" width="5376" stroke="none" height="4430"/></g><g transform="translate(32866,32758)" text-rendering="geometricPrecision" stroke-width="44" stroke-linejoin="round" stroke-linecap="round"><line y2="-30246" y1="-30850" x2="-29668" x1="-30703" fill="none"/><line y2="-29039" y1="-30246" x2="-29668" x1="-29668" fill="none"/><line y2="-30850" y1="-30246" x2="-28631" x1="-29668" fill="none"/><line y2="-30628" y1="-30174" x2="-28675" x1="-29452" fill="none"/><line y2="-30850" y1="-30246" x2="-30703" x1="-31740" fill="none"/><line y2="-28432" y1="-29039" x2="-30703" x1="-29668" fill="none"/><line y2="-29039" y1="-28432" x2="-29668" x1="-28631" fill="none"/><line y2="-29108" y1="-28654" x2="-29452" x1="-28675" fill="none"/><line y2="-30246" y1="-30850" x2="-27594" x1="-28631" fill="none"/><line y2="-30246" y1="-29258" x2="-31740" x1="-31740" fill="none"/><line y2="-28819" y1="-28432" x2="-31364" x1="-30703" fill="none"/><line y2="-28432" y1="-29039" x2="-28631" x1="-27594" fill="none"/><line y2="-29039" y1="-30246" x2="-27594" x1="-27594" fill="none"/><line y2="-29189" y1="-30096" x2="-27765" x1="-27765" fill="none"/><line y2="-31899" y1="-30850" x2="-30703" x1="-30703" fill="none"/><line y2="-32315" y1="-31899" x2="-31422" x1="-30703" fill="none"/><line y2="-32066" y1="-32315" x2="-32228" x1="-31800" fill="none"/><line y2="-32375" y1="-31959" x2="-30021" x1="-30740" fill="none"/><line y2="-32254" y1="-31838" x2="-29949" x1="-30668" fill="none"/><text y="-32242" xml:space="preserve" x="-31763" stroke="none" font-size="433.3333" font-family="sans-serif">O</text><text y="-32242" xml:space="preserve" x="-29949" stroke="none" font-size="433.3333" font-family="sans-serif">O</text><text y="-31668" xml:space="preserve" x="-32762" stroke="none" font-size="433.3333" font-family="sans-serif">CH</text><text y="-31578" xml:space="preserve" x="-32185" stroke="none" font-size="313.3333" font-family="sans-serif">3</text><text y="-28860" xml:space="preserve" x="-31893" stroke="none" font-size="433.3333" font-family="sans-serif">NH</text></g></g></svg>