<svg width="361.62" viewBox="0 0 12054 5666" text-rendering="auto" stroke-width="1" stroke-opacity="1" stroke-miterlimit="10" stroke-linejoin="miter" stroke-linecap="square" stroke-dashoffset="0" stroke-dasharray="none" stroke="black" shape-rendering="auto" image-rendering="auto" height="169.98" font-weight="normal" font-style="normal" font-size="12" font-family="'Dialog'" fill-opacity="1" fill="black" color-rendering="auto" color-interpolation="auto" xmlns="http://www.w3.org/2000/svg"><g><g stroke="white" fill="white"><rect y="0" x="0" width="12054" stroke="none" height="5666"/></g><g transform="translate(32866,32758)" text-rendering="geometricPrecision" stroke-width="44" stroke-linejoin="round" stroke-linecap="round"><line y2="-30235" y1="-29088" x2="-27170" x1="-27170" fill="none"/><line y2="-28516" y1="-29088" x2="-28152" x1="-27170" fill="none"/><line y2="-28735" y1="-29163" x2="-28114" x1="-27378" fill="none"/><line y2="-29088" y1="-28516" x2="-27170" x1="-26187" fill="none"/><line y2="-30697" y1="-30235" x2="-26375" x1="-27170" fill="none"/><line y2="-30235" y1="-30810" x2="-27170" x1="-28152" fill="none"/><line y2="-30160" y1="-30590" x2="-27378" x1="-28114" fill="none"/><line y2="-29088" y1="-28516" x2="-29134" x1="-28152" fill="none"/><line y2="-28516" y1="-29088" x2="-26187" x1="-25202" fill="none"/><line y2="-30235" y1="-30697" x2="-25202" x1="-25997" fill="none"/><line y2="-30810" y1="-30235" x2="-28152" x1="-29134" fill="none"/><line y2="-30235" y1="-29088" x2="-29134" x1="-29134" fill="none"/><line y2="-30093" y1="-29232" x2="-28964" x1="-28964" fill="none"/><line y2="-29088" y1="-30235" x2="-25202" x1="-25202" fill="none"/><line y2="-28565" y1="-29088" x2="-30041" x1="-29134" fill="none"/><line y2="-29088" y1="-28565" x2="-30948" x1="-30041" fill="none"/><line y2="-28565" y1="-29088" x2="-31855" x1="-30948" fill="none"/><line y2="-28510" y1="-28903" x2="-31670" x1="-30992" fill="none"/><line y2="-27687" y1="-28516" x2="-28152" x1="-28152" fill="none"/><line y2="-30541" y1="-30235" x2="-29660" x1="-29134" fill="none"/><line y2="-27687" y1="-28516" x2="-26115" x1="-26115" fill="none"/><line y2="-27687" y1="-28516" x2="-26257" x1="-26257" fill="none"/><line y2="-31896" y1="-30758" x2="-24295" x1="-24295" fill="none"/><line y2="-31754" y1="-30902" x2="-24128" x1="-24128" fill="none"/><line y2="-30758" y1="-30191" x2="-24295" x1="-23310" fill="none"/><line y2="-32465" y1="-31896" x2="-23310" x1="-24295" fill="none"/><line y2="-30191" y1="-30758" x2="-23310" x1="-22325" fill="none"/><line y2="-30408" y1="-30836" x2="-23272" x1="-22533" fill="none"/><line y2="-31896" y1="-32465" x2="-22325" x1="-23310" fill="none"/><line y2="-31821" y1="-32248" x2="-22533" x1="-23272" fill="none"/><line y2="-30758" y1="-31896" x2="-22325" x1="-22325" fill="none"/><line y2="-32312" y1="-31896" x2="-21608" x1="-22325" fill="none"/><line y2="-29088" y1="-28565" x2="-32762" x1="-31855" fill="none"/><line y2="-27516" y1="-28565" x2="-31855" x1="-31855" fill="none"/><line y2="-30700" y1="-30818" x2="-24260" x1="-24330" fill="none"/><line y2="-30604" y1="-30697" x2="-24455" x1="-24510" fill="none"/><line y2="-30508" y1="-30577" x2="-24650" x1="-24691" fill="none"/><line y2="-30411" y1="-30456" x2="-24845" x1="-24871" fill="none"/><line y2="-30315" y1="-30336" x2="-25039" x1="-25051" fill="none"/><text y="-27288" xml:space="preserve" x="-28302" stroke="none" font-size="433.3333" font-family="sans-serif">OH</text><text y="-27288" xml:space="preserve" x="-26338" stroke="none" font-size="433.3333" font-family="sans-serif">O</text><text y="-30578" xml:space="preserve" x="-30191" stroke="none" font-size="433.3333" font-family="sans-serif">OH</text><text y="-32242" xml:space="preserve" x="-21571" stroke="none" font-size="433.3333" font-family="sans-serif">OH</text><text y="-30630" xml:space="preserve" x="-26338" stroke="none" font-size="433.3333" font-family="sans-serif">O</text><text y="-29911" xml:space="preserve" x="-25604" stroke="none" font-style="italic" font-size="313.3333" font-family="sans-serif">S</text></g></g></svg>