<svg width="397.71" viewBox="0 0 13257 3855" text-rendering="auto" stroke-width="1" stroke-opacity="1" stroke-miterlimit="10" stroke-linejoin="miter" stroke-linecap="square" stroke-dashoffset="0" stroke-dasharray="none" stroke="black" shape-rendering="auto" image-rendering="auto" height="115.65" font-weight="normal" font-style="normal" font-size="12" font-family="'Dialog'" fill-opacity="1" fill="black" color-rendering="auto" color-interpolation="auto" xmlns="http://www.w3.org/2000/svg"><g><g stroke="white" fill="white"><rect y="0" x="0" width="13257" stroke="none" height="3855"/></g><g transform="translate(32866,32758)" text-rendering="geometricPrecision" stroke-width="44" stroke-linejoin="round" stroke-linecap="round"><line y2="-30850" y1="-31402" x2="-28952" x1="-29666" fill="none"/><line y2="-29787" y1="-30850" x2="-29322" x1="-28952" fill="none"/><line y2="-29975" y1="-30772" x2="-29437" x1="-29160" fill="none"/><line y2="-31408" y1="-30850" x2="-30041" x1="-30795" fill="none"/><line y2="-29787" y1="-29787" x2="-30469" x1="-29322" fill="none"/><line y2="-30850" y1="-29787" x2="-30795" x1="-30469" fill="none"/><line y2="-30766" y1="-29972" x2="-30590" x1="-30344" fill="none"/><line y2="-30850" y1="-30850" x2="-27906" x1="-28952" fill="none"/><line y2="-31376" y1="-30850" x2="-31702" x1="-30795" fill="none"/><line y2="-30850" y1="-30301" x2="-27906" x1="-27193" fill="none"/><line y2="-31916" y1="-30850" x2="-27536" x1="-27906" fill="none"/><line y2="-31725" y1="-30928" x2="-27421" x1="-27698" fill="none"/><line y2="-30292" y1="-30850" x2="-26817" x1="-26063" fill="none"/><line y2="-30500" y1="-30919" x2="-26826" x1="-26260" fill="none"/><line y2="-31916" y1="-31916" x2="-26580" x1="-27536" fill="none"/><line y2="-30850" y1="-31696" x2="-26063" x1="-26323" fill="none"/><line y2="-30434" y1="-30850" x2="-25344" x1="-26063" fill="none"/><line y2="-30850" y1="-30434" x2="-24249" x1="-24968" fill="none"/><line y2="-30327" y1="-30850" x2="-23342" x1="-24249" fill="none"/><line y2="-31070" y1="-31376" x2="-32231" x1="-31702" fill="none"/><line y2="-32202" y1="-31376" x2="-31772" x1="-31772" fill="none"/><line y2="-32202" y1="-31376" x2="-31633" x1="-31633" fill="none"/><line y2="-30850" y1="-30327" x2="-22435" x1="-23342" fill="none"/><line y2="-30434" y1="-30850" x2="-21715" x1="-22435" fill="none"/><line y2="-30850" y1="-30547" x2="-20620" x1="-21146" fill="none"/><line y2="-29498" y1="-30327" x2="-23342" x1="-23342" fill="none"/><line y2="-30327" y1="-30850" x2="-19713" x1="-20620" fill="none"/><line y2="-31757" y1="-30850" x2="-20098" x1="-20620" fill="none"/><line y2="-31757" y1="-30850" x2="-21143" x1="-20620" fill="none"/><text y="-30671" xml:space="preserve" x="-32762" stroke="none" font-size="433.3333" font-family="sans-serif">NH</text><text y="-30581" xml:space="preserve" x="-32185" stroke="none" font-size="313.3333" font-family="sans-serif">2</text><text y="-32242" xml:space="preserve" x="-31855" stroke="none" font-size="433.3333" font-family="sans-serif">O</text><text y="-30148" xml:space="preserve" x="-25309" stroke="none" font-size="433.3333" font-family="sans-serif">S</text><text y="-29099" xml:space="preserve" x="-23495" stroke="none" font-size="433.3333" font-family="sans-serif">OH</text><text y="-30148" xml:space="preserve" x="-21681" stroke="none" font-size="433.3333" font-family="sans-serif">NH</text><text y="-31367" xml:space="preserve" x="-30006" stroke="none" font-size="433.3333" font-family="sans-serif">S</text><text y="-29975" xml:space="preserve" x="-27158" stroke="none" font-size="433.3333" font-family="sans-serif">N</text><text y="-31737" xml:space="preserve" x="-26543" stroke="none" font-size="433.3333" font-family="sans-serif">S</text></g></g></svg>