<svg width="237.9" viewBox="0 0 7930 5624" text-rendering="auto" stroke-width="1" stroke-opacity="1" stroke-miterlimit="10" stroke-linejoin="miter" stroke-linecap="square" stroke-dashoffset="0" stroke-dasharray="none" stroke="black" shape-rendering="auto" image-rendering="auto" height="168.72" font-weight="normal" font-style="normal" font-size="12" font-family="'Dialog'" fill-opacity="1" fill="black" color-rendering="auto" color-interpolation="auto" xmlns="http://www.w3.org/2000/svg"><g><g stroke="white" fill="white"><rect y="0" x="0" width="7930" stroke="none" height="5624"/></g><g transform="translate(32866,32866)" text-rendering="geometricPrecision" stroke-width="44" stroke-linejoin="round" stroke-linecap="round"><line y2="-30622" y1="-31191" x2="-29732" x1="-30717" fill="none"/><line y2="-30547" y1="-30974" x2="-29940" x1="-30680" fill="none"/><line y2="-29484" y1="-30622" x2="-29732" x1="-29732" fill="none"/><line y2="-31191" y1="-30622" x2="-30717" x1="-31702" fill="none"/><line y2="-28917" y1="-29484" x2="-30717" x1="-29732" fill="none"/><line y2="-29134" y1="-29562" x2="-30680" x1="-29940" fill="none"/><line y2="-30622" y1="-29484" x2="-31702" x1="-31702" fill="none"/><line y2="-30480" y1="-29628" x2="-31532" x1="-31532" fill="none"/><line y2="-29484" y1="-28917" x2="-31702" x1="-30717" fill="none"/><line y2="-31038" y1="-30622" x2="-29013" x1="-29732" fill="none"/><line y2="-30622" y1="-31038" x2="-27918" x1="-28637" fill="none"/><line y2="-32020" y1="-31191" x2="-30717" x1="-30717" fill="none"/><line y2="-32762" y1="-32346" x2="-31624" x1="-30905" fill="none"/><line y2="-32240" y1="-32762" x2="-32531" x1="-31624" fill="none"/><line y2="-28088" y1="-28917" x2="-30717" x1="-30717" fill="none"/><line y2="-27346" y1="-27759" x2="-31624" x1="-30905" fill="none"/><line y2="-27869" y1="-27346" x2="-32531" x1="-31624" fill="none"/><line y2="-29180" y1="-29484" x2="-32231" x1="-31702" fill="none"/><line y2="-30622" y1="-29484" x2="-27918" x1="-27918" fill="none"/><line y2="-30480" y1="-29628" x2="-27747" x1="-27747" fill="none"/><line y2="-31191" y1="-30622" x2="-26930" x1="-27918" fill="none"/><line y2="-29484" y1="-28917" x2="-27918" x1="-26930" fill="none"/><line y2="-30622" y1="-31191" x2="-25948" x1="-26930" fill="none"/><line y2="-30547" y1="-30974" x2="-26156" x1="-26892" fill="none"/><line y2="-28917" y1="-29484" x2="-26930" x1="-25948" fill="none"/><line y2="-29134" y1="-29562" x2="-26892" x1="-26156" fill="none"/><line y2="-29484" y1="-30622" x2="-25948" x1="-25948" fill="none"/><line y2="-28961" y1="-29484" x2="-25040" x1="-25948" fill="none"/><text y="-30966" xml:space="preserve" x="-28978" stroke="none" font-size="433.3333" font-family="sans-serif">S</text><text y="-32060" xml:space="preserve" x="-30867" stroke="none" font-size="433.3333" font-family="sans-serif">O</text><text y="-27690" xml:space="preserve" x="-30867" stroke="none" font-size="433.3333" font-family="sans-serif">O</text><text y="-28782" xml:space="preserve" x="-32762" stroke="none" font-size="433.3333" font-family="sans-serif">NH</text><text y="-28692" xml:space="preserve" x="-32185" stroke="none" font-size="313.3333" font-family="sans-serif">2</text></g></g></svg>