<svg width="187.44" viewBox="0 0 6248 4731" text-rendering="auto" stroke-width="1" stroke-opacity="1" stroke-miterlimit="10" stroke-linejoin="miter" stroke-linecap="square" stroke-dashoffset="0" stroke-dasharray="none" stroke="black" shape-rendering="auto" image-rendering="auto" height="141.93" font-weight="normal" font-style="normal" font-size="12" font-family="'Dialog'" fill-opacity="1" fill="black" color-rendering="auto" color-interpolation="auto" xmlns="http://www.w3.org/2000/svg"><g><g stroke="white" fill="white"><rect y="0" x="0" width="6248" stroke="none" height="4731"/></g><g transform="translate(32866,32866)" text-rendering="geometricPrecision" stroke-width="44" stroke-linejoin="round" stroke-linecap="round"><line y2="-30532" y1="-31072" x2="-29599" x1="-30301" fill="none"/><line y2="-29368" y1="-30532" x2="-30001" x1="-29599" fill="none"/><line y2="-31153" y1="-30532" x2="-30772" x1="-31613" fill="none"/><line y2="-29368" y1="-29368" x2="-30763" x1="-30001" fill="none"/><line y2="-30532" y1="-29588" x2="-31613" x1="-31324" fill="none"/><line y2="-31055" y1="-30532" x2="-28692" x1="-29599" fill="none"/><line y2="-31581" y1="-30532" x2="-29599" x1="-29599" fill="none"/><line y2="-28770" y1="-29408" x2="-29498" x1="-29946" fill="none"/><line y2="-28689" y1="-29328" x2="-29614" x1="-30058" fill="none"/><line y2="-30729" y1="-30466" x2="-32445" x1="-31636" fill="none"/><line y2="-30862" y1="-30599" x2="-32401" x1="-31592" fill="none"/><line y2="-32193" y1="-31055" x2="-28692" x1="-28692" fill="none"/><line y2="-32052" y1="-31200" x2="-28522" x1="-28522" fill="none"/><line y2="-31055" y1="-30489" x2="-28692" x1="-27707" fill="none"/><line y2="-32762" y1="-32193" x2="-27707" x1="-28692" fill="none"/><line y2="-30489" y1="-31055" x2="-27707" x1="-26722" fill="none"/><line y2="-30706" y1="-31133" x2="-27669" x1="-26930" fill="none"/><line y2="-32193" y1="-32762" x2="-26722" x1="-27707" fill="none"/><line y2="-32118" y1="-32546" x2="-26930" x1="-27669" fill="none"/><line y2="-31055" y1="-32193" x2="-26722" x1="-26722" fill="none"/><text y="-28331" xml:space="preserve" x="-29553" stroke="none" font-size="433.3333" font-family="sans-serif">O</text><text y="-30677" xml:space="preserve" x="-32762" stroke="none" font-size="433.3333" font-family="sans-serif">O</text><text y="-31113" xml:space="preserve" x="-30737" stroke="none" font-size="433.3333" font-family="sans-serif">NH</text><text y="-29189" xml:space="preserve" x="-31408" stroke="none" font-size="433.3333" font-family="sans-serif">NH</text></g></g></svg>