<svg width="261.3" viewBox="0 0 8710 3614" text-rendering="auto" stroke-width="1" stroke-opacity="1" stroke-miterlimit="10" stroke-linejoin="miter" stroke-linecap="square" stroke-dashoffset="0" stroke-dasharray="none" stroke="black" shape-rendering="auto" image-rendering="auto" height="108.42" font-weight="normal" font-style="normal" font-size="12" font-family="'Dialog'" fill-opacity="1" fill="black" color-rendering="auto" color-interpolation="auto" xmlns="http://www.w3.org/2000/svg"><g><g stroke="white" fill="white"><rect y="0" x="0" width="8710" stroke="none" height="3614"/></g><g transform="translate(32866,32866)" text-rendering="geometricPrecision" stroke-width="44" stroke-linejoin="round" stroke-linecap="round"><line y2="-32066" y1="-32635" x2="-27918" x1="-28900" fill="none"/><line y2="-31991" y1="-32419" x2="-28126" x1="-28862" fill="none"/><line y2="-30928" y1="-32066" x2="-27918" x1="-27918" fill="none"/><line y2="-32635" y1="-32066" x2="-28900" x1="-29888" fill="none"/><line y2="-30362" y1="-30928" x2="-28900" x1="-27918" fill="none"/><line y2="-30578" y1="-31006" x2="-28862" x1="-28126" fill="none"/><line y2="-32066" y1="-30928" x2="-29888" x1="-29888" fill="none"/><line y2="-31925" y1="-31072" x2="-29718" x1="-29718" fill="none"/><line y2="-30928" y1="-30362" x2="-29888" x1="-28900" fill="none"/><line y2="-32589" y1="-32066" x2="-27011" x1="-27918" fill="none"/><line y2="-32066" y1="-32589" x2="-26104" x1="-27011" fill="none"/><line y2="-30405" y1="-30928" x2="-30795" x1="-29888" fill="none"/><line y2="-32066" y1="-31003" x2="-26104" x1="-25774" fill="none"/><line y2="-32762" y1="-32066" x2="-25162" x1="-26104" fill="none"/><line y2="-31003" y1="-31003" x2="-25774" x1="-24630" fill="none"/><line y2="-32066" y1="-32762" x2="-24260" x1="-25162" fill="none"/><line y2="-31003" y1="-32066" x2="-24630" x1="-24260" fill="none"/><line y2="-30333" y1="-30963" x2="-26176" x1="-25719" fill="none"/><line y2="-30417" y1="-31044" x2="-26288" x1="-25832" fill="none"/><line y2="-30928" y1="-30405" x2="-31702" x1="-30795" fill="none"/><line y2="-29356" y1="-30405" x2="-30795" x1="-30795" fill="none"/><line y2="-30625" y1="-30928" x2="-32231" x1="-31702" fill="none"/><line y2="-31757" y1="-30928" x2="-31772" x1="-31772" fill="none"/><line y2="-31757" y1="-30928" x2="-31633" x1="-31633" fill="none"/><text y="-29975" xml:space="preserve" x="-26543" stroke="none" font-size="433.3333" font-family="sans-serif">O</text><text y="-30226" xml:space="preserve" x="-32762" stroke="none" font-size="433.3333" font-family="sans-serif">OH</text><text y="-31798" xml:space="preserve" x="-31855" stroke="none" font-size="433.3333" font-family="sans-serif">O</text></g></g></svg>