<svg width="575.01" viewBox="0 0 19167 6128" text-rendering="auto" stroke-width="1" stroke-opacity="1" stroke-miterlimit="10" stroke-linejoin="miter" stroke-linecap="square" stroke-dashoffset="0" stroke-dasharray="none" stroke="black" shape-rendering="auto" image-rendering="auto" height="183.84" font-weight="normal" font-style="normal" font-size="12" font-family="'Dialog'" fill-opacity="1" fill="black" color-rendering="auto" color-interpolation="auto" xmlns="http://www.w3.org/2000/svg"><g><g stroke="white" fill="white"><rect y="0" x="0" width="19167" stroke="none" height="6128"/></g><g transform="translate(32866,32758)" text-rendering="geometricPrecision" stroke-width="44" stroke-linejoin="round" stroke-linecap="round"><line y2="-28576" y1="-29146" x2="-19985" x1="-18997" fill="none"/><line y2="-29146" y1="-30281" x2="-18997" x1="-18997" fill="none"/><line y2="-29036" y1="-28576" x2="-20779" x1="-19985" fill="none"/><line y2="-30281" y1="-30850" x2="-18997" x1="-19985" fill="none"/><line y2="-30281" y1="-29365" x2="-20967" x1="-20967" fill="none"/><line y2="-30850" y1="-30281" x2="-19985" x1="-20967" fill="none"/><line y2="-29146" y1="-28730" x2="-17183" x1="-17902" fill="none"/><line y2="-27112" y1="-27528" x2="-19266" x1="-19985" fill="none"/><line y2="-30281" y1="-30697" x2="-22784" x1="-22065" fill="none"/><line y2="-30807" y1="-30281" x2="-23691" x1="-22784" fill="none"/><line y2="-30281" y1="-30807" x2="-24598" x1="-23691" fill="none"/><line y2="-30807" y1="-30281" x2="-25506" x1="-24598" fill="none"/><line y2="-30281" y1="-30807" x2="-26413" x1="-25506" fill="none"/><line y2="-30807" y1="-30281" x2="-27320" x1="-26413" fill="none"/><line y2="-30281" y1="-30807" x2="-28227" x1="-27320" fill="none"/><line y2="-30807" y1="-30281" x2="-29134" x1="-28227" fill="none"/><line y2="-30281" y1="-30807" x2="-30041" x1="-29134" fill="none"/><line y2="-30807" y1="-30281" x2="-30948" x1="-30041" fill="none"/><line y2="-30281" y1="-30807" x2="-31855" x1="-30948" fill="none"/><line y2="-30807" y1="-30281" x2="-32762" x1="-31855" fill="none"/><line y2="-30064" y1="-29146" x2="-17183" x1="-17183" fill="none"/><line y2="-29146" y1="-28576" x2="-17183" x1="-16200" fill="none"/><line y2="-30850" y1="-30391" x2="-16200" x1="-16995" fill="none"/><line y2="-28576" y1="-29146" x2="-16200" x1="-15212" fill="none"/><line y2="-30281" y1="-30850" x2="-15212" x1="-16200" fill="none"/><line y2="-29146" y1="-30281" x2="-15212" x1="-15212" fill="none"/><line y2="-32315" y1="-31899" x2="-15481" x1="-16200" fill="none"/><polygon stroke-width="1" stroke="none" points=" -19985 -28576 -19916 -27528 -20054 -27528"/><polygon stroke-width="1" points=" -19985 -28576 -19916 -27528 -20054 -27528" fill="none"/><polygon stroke-width="1" stroke="none" points=" -20967 -30281 -21721 -30639 -21652 -30758"/><polygon stroke-width="1" points=" -20967 -30281 -21721 -30639 -21652 -30758" fill="none"/><polygon stroke-width="1" stroke="none" points=" -18997 -30281 -18312 -30758 -18243 -30639"/><polygon stroke-width="1" points=" -18997 -30281 -18312 -30758 -18243 -30639" fill="none"/><polygon stroke-width="1" stroke="none" points=" -16200 -28576 -16131 -27747 -16270 -27747"/><polygon stroke-width="1" points=" -16200 -28576 -16131 -27747 -16270 -27747" fill="none"/><polygon stroke-width="1" stroke="none" points=" -15212 -30281 -14528 -30758 -14458 -30639"/><polygon stroke-width="1" points=" -15212 -30281 -14528 -30758 -14458 -30639" fill="none"/><line y2="-28669" y1="-28790" x2="-18312" x1="-18246" fill="none"/><line y2="-28794" y1="-28883" x2="-18491" x1="-18442" fill="none"/><line y2="-28918" y1="-28976" x2="-18670" x1="-18638" fill="none"/><line y2="-29043" y1="-29069" x2="-18848" x1="-18834" fill="none"/><line y2="-31679" y1="-31679" x2="-19916" x1="-20054" fill="none"/><line y2="-31462" y1="-31462" x2="-19934" x1="-20036" fill="none"/><line y2="-31246" y1="-31246" x2="-19952" x1="-20018" fill="none"/><line y2="-31029" y1="-31029" x2="-19970" x1="-20000" fill="none"/><line y2="-31899" y1="-31899" x2="-16131" x1="-16270" fill="none"/><line y2="-31682" y1="-31682" x2="-16145" x1="-16256" fill="none"/><line y2="-31466" y1="-31466" x2="-16160" x1="-16241" fill="none"/><line y2="-31249" y1="-31249" x2="-16174" x1="-16227" fill="none"/><line y2="-31032" y1="-31032" x2="-16188" x1="-16212" fill="none"/><line y2="-28669" y1="-28790" x2="-14528" x1="-14461" fill="none"/><line y2="-28794" y1="-28883" x2="-14707" x1="-14657" fill="none"/><line y2="-28918" y1="-28976" x2="-14885" x1="-14853" fill="none"/><line y2="-29043" y1="-29069" x2="-15064" x1="-15049" fill="none"/><line y2="-29619" y1="-29501" x2="-17867" x1="-17937" fill="none"/><line y2="-29495" y1="-29408" x2="-17688" x1="-17740" fill="none"/><line y2="-29372" y1="-29316" x2="-17510" x1="-17543" fill="none"/><line y2="-29248" y1="-29223" x2="-17331" x1="-17346" fill="none"/><text y="-28441" xml:space="preserve" x="-18243" stroke="none" font-size="433.3333" font-family="sans-serif">O</text><text y="-26826" xml:space="preserve" x="-19231" stroke="none" font-size="433.3333" font-family="sans-serif">OH</text><text y="-30628" xml:space="preserve" x="-18243" stroke="none" font-size="433.3333" font-family="sans-serif">OH</text><text y="-31720" xml:space="preserve" x="-20138" stroke="none" font-size="433.3333" font-family="sans-serif">OH</text><text y="-30628" xml:space="preserve" x="-22027" stroke="none" font-size="433.3333" font-family="sans-serif">O</text><text y="-27349" xml:space="preserve" x="-16354" stroke="none" font-size="433.3333" font-family="sans-serif">OH</text><text y="-32242" xml:space="preserve" x="-15446" stroke="none" font-size="433.3333" font-family="sans-serif">OH</text><text y="-28441" xml:space="preserve" x="-14458" stroke="none" font-size="433.3333" font-family="sans-serif">OH</text><text y="-30628" xml:space="preserve" x="-14458" stroke="none" font-size="433.3333" font-family="sans-serif">OH</text><text y="-28966" xml:space="preserve" x="-21120" stroke="none" font-size="433.3333" font-family="sans-serif">O</text><text y="-30102" xml:space="preserve" x="-17336" stroke="none" font-size="433.3333" font-family="sans-serif">O</text><text y="-29489" xml:space="preserve" x="-18243" stroke="none" font-size="433.3333" font-family="sans-serif">H</text><text y="-29108" xml:space="preserve" x="-19398" stroke="none" font-style="italic" font-size="313.3333" font-family="sans-serif">S</text><text y="-28701" xml:space="preserve" x="-20138" stroke="none" font-style="italic" font-size="313.3333" font-family="sans-serif">R</text><text y="-29960" xml:space="preserve" x="-19398" stroke="none" font-style="italic" font-size="313.3333" font-family="sans-serif">R</text><text y="-30370" xml:space="preserve" x="-20138" stroke="none" font-style="italic" font-size="313.3333" font-family="sans-serif">R</text><text y="-29960" xml:space="preserve" x="-20872" stroke="none" font-style="italic" font-size="313.3333" font-family="sans-serif">R</text><text y="-29108" xml:space="preserve" x="-17087" stroke="none" font-style="italic" font-size="313.3333" font-family="sans-serif">R</text><text y="-28701" xml:space="preserve" x="-16354" stroke="none" font-style="italic" font-size="313.3333" font-family="sans-serif">R</text><text y="-30370" xml:space="preserve" x="-16354" stroke="none" font-style="italic" font-size="313.3333" font-family="sans-serif">R</text><text y="-29108" xml:space="preserve" x="-15614" stroke="none" font-style="italic" font-size="313.3333" font-family="sans-serif">S</text><text y="-29960" xml:space="preserve" x="-15614" stroke="none" font-style="italic" font-size="313.3333" font-family="sans-serif">S</text></g></g></svg>