<svg width="261.63" viewBox="0 0 8721 3346" text-rendering="auto" stroke-width="1" stroke-opacity="1" stroke-miterlimit="10" stroke-linejoin="miter" stroke-linecap="square" stroke-dashoffset="0" stroke-dasharray="none" stroke="black" shape-rendering="auto" image-rendering="auto" height="100.38" font-weight="normal" font-style="normal" font-size="12" font-family="'Dialog'" fill-opacity="1" fill="black" color-rendering="auto" color-interpolation="auto" xmlns="http://www.w3.org/2000/svg"><g><g stroke="white" fill="white"><rect y="0" x="0" width="8721" stroke="none" height="3346"/></g><g transform="translate(32866,32758)" text-rendering="geometricPrecision" stroke-width="44" stroke-linejoin="round" stroke-linecap="round"><line y2="-30850" y1="-31402" x2="-29694" x1="-30405" fill="none"/><line y2="-30786" y1="-31200" x2="-29885" x1="-30420" fill="none"/><line y2="-30006" y1="-30850" x2="-29986" x1="-29694" fill="none"/><line y2="-31408" y1="-30850" x2="-30781" x1="-31535" fill="none"/><line y2="-29787" y1="-29787" x2="-31208" x1="-30249" fill="none"/><line y2="-30850" y1="-29787" x2="-31535" x1="-31208" fill="none"/><line y2="-30766" y1="-29972" x2="-31332" x1="-31087" fill="none"/><line y2="-31376" y1="-30850" x2="-28784" x1="-29694" fill="none"/><line y2="-30960" y1="-31376" x2="-28068" x1="-28784" fill="none"/><line y2="-31376" y1="-31070" x2="-26970" x1="-27499" fill="none"/><line y2="-31064" y1="-30850" x2="-32190" x1="-31535" fill="none"/><line y2="-30960" y1="-31376" x2="-26254" x1="-26970" fill="none"/><line y2="-31376" y1="-30960" x2="-25156" x1="-25875" fill="none"/><line y2="-32202" y1="-31376" x2="-27042" x1="-27042" fill="none"/><line y2="-32202" y1="-31376" x2="-26901" x1="-26901" fill="none"/><line y2="-30850" y1="-31376" x2="-24249" x1="-25156" fill="none"/><line y2="-32283" y1="-31376" x2="-24633" x1="-25156" fill="none"/><line y2="-32283" y1="-31376" x2="-25682" x1="-25156" fill="none"/><text y="-30671" xml:space="preserve" x="-28030" stroke="none" font-size="433.3333" font-family="sans-serif">NH</text><text y="-30671" xml:space="preserve" x="-26216" stroke="none" font-size="433.3333" font-family="sans-serif">O</text><text y="-32242" xml:space="preserve" x="-27123" stroke="none" font-size="433.3333" font-family="sans-serif">O</text><text y="-30997" xml:space="preserve" x="-32762" stroke="none" font-size="433.3333" font-family="sans-serif">Br</text><text y="-31367" xml:space="preserve" x="-30746" stroke="none" font-size="433.3333" font-family="sans-serif">N</text><text y="-29608" xml:space="preserve" x="-30214" stroke="none" font-size="433.3333" font-family="sans-serif">S</text></g></g></svg>