<svg width="278.88" viewBox="0 0 9296 5689" text-rendering="auto" stroke-width="1" stroke-opacity="1" stroke-miterlimit="10" stroke-linejoin="miter" stroke-linecap="square" stroke-dashoffset="0" stroke-dasharray="none" stroke="black" shape-rendering="auto" image-rendering="auto" height="170.67" font-weight="normal" font-style="normal" font-size="12" font-family="'Dialog'" fill-opacity="1" fill="black" color-rendering="auto" color-interpolation="auto" xmlns="http://www.w3.org/2000/svg"><g><g stroke="white" fill="white"><rect y="0" x="0" width="9296" stroke="none" height="5689"/></g><g transform="translate(32866,32758)" text-rendering="geometricPrecision" stroke-width="44" stroke-linejoin="round" stroke-linecap="round"><line y2="-30807" y1="-31376" x2="-29654" x1="-30636" fill="none"/><line y2="-30729" y1="-31156" x2="-29862" x1="-30599" fill="none"/><line y2="-29668" y1="-30807" x2="-29654" x1="-29654" fill="none"/><line y2="-31376" y1="-30807" x2="-30636" x1="-31624" fill="none"/><line y2="-29099" y1="-29668" x2="-30636" x1="-29654" fill="none"/><line y2="-29319" y1="-29744" x2="-30599" x1="-29862" fill="none"/><line y2="-30807" y1="-29668" x2="-31624" x1="-31624" fill="none"/><line y2="-30665" y1="-29810" x2="-31454" x1="-31454" fill="none"/><line y2="-29668" y1="-29099" x2="-31624" x1="-30636" fill="none"/><line y2="-31330" y1="-30807" x2="-28747" x1="-29654" fill="none"/><line y2="-30200" y1="-31330" x2="-26745" x1="-28747" fill="none"/><line y2="-32202" y1="-31376" x2="-30636" x1="-30636" fill="none"/><line y2="-29252" y1="-29668" x2="-28935" x1="-29654" fill="none"/><line y2="-31133" y1="-30807" x2="-32190" x1="-31624" fill="none"/><line y2="-28273" y1="-29099" x2="-30636" x1="-30636" fill="none"/><line y2="-30200" y1="-29062" x2="-26745" x1="-26745" fill="none"/><line y2="-30056" y1="-29203" x2="-26574" x1="-26574" fill="none"/><line y2="-30766" y1="-30200" x2="-25757" x1="-26745" fill="none"/><line y2="-29062" y1="-28493" x2="-26745" x1="-25757" fill="none"/><line y2="-30200" y1="-30766" x2="-24775" x1="-25757" fill="none"/><line y2="-30122" y1="-30550" x2="-24983" x1="-25719" fill="none"/><line y2="-28493" y1="-29062" x2="-25757" x1="-24775" fill="none"/><line y2="-28709" y1="-29137" x2="-25719" x1="-24983" fill="none"/><line y2="-29062" y1="-30200" x2="-24775" x1="-24775" fill="none"/><line y2="-28735" y1="-29062" x2="-27311" x1="-26745" fill="none"/><line y2="-31595" y1="-30766" x2="-25757" x1="-25757" fill="none"/><line y2="-27664" y1="-28493" x2="-25757" x1="-25757" fill="none"/><line y2="-30526" y1="-30200" x2="-24206" x1="-24775" fill="none"/><text y="-32242" xml:space="preserve" x="-30870" stroke="none" font-size="433.3333" font-family="sans-serif">Cl</text><text y="-28966" xml:space="preserve" x="-28900" stroke="none" font-size="433.3333" font-family="sans-serif">OH</text><text y="-31150" xml:space="preserve" x="-32762" stroke="none" font-size="433.3333" font-family="sans-serif">Cl</text><text y="-27874" xml:space="preserve" x="-30870" stroke="none" font-size="433.3333" font-family="sans-serif">Cl</text><text y="-28360" xml:space="preserve" x="-27883" stroke="none" font-size="433.3333" font-family="sans-serif">Cl</text><text y="-31636" xml:space="preserve" x="-25910" stroke="none" font-size="433.3333" font-family="sans-serif">OH</text><text y="-27265" xml:space="preserve" x="-25988" stroke="none" font-size="433.3333" font-family="sans-serif">Cl</text><text y="-30544" xml:space="preserve" x="-24099" stroke="none" font-size="433.3333" font-family="sans-serif">Cl</text></g></g></svg>