<svg width="493.53" viewBox="0 0 16451 15309" text-rendering="auto" stroke-width="1" stroke-opacity="1" stroke-miterlimit="10" stroke-linejoin="miter" stroke-linecap="square" stroke-dashoffset="0" stroke-dasharray="none" stroke="black" shape-rendering="auto" image-rendering="auto" height="459.27" font-weight="normal" font-style="normal" font-size="12" font-family="'Dialog'" fill-opacity="1" fill="black" color-rendering="auto" color-interpolation="auto" xmlns="http://www.w3.org/2000/svg"><g><g stroke="white" fill="white"><rect y="0" x="0" width="16451" stroke="none" height="15309"/></g><g transform="translate(32866,32758)" text-rendering="geometricPrecision" stroke-width="44" stroke-linejoin="round" stroke-linecap="round"><line y2="-24035" y1="-25124" x2="-22478" x1="-21854" fill="none"/><line y2="-25124" y1="-26210" x2="-21854" x1="-22478" fill="none"/><line y2="-25176" y1="-25991" x2="-22079" x1="-22547" fill="none"/><line y2="-24035" y1="-24035" x2="-23241" x1="-22478" fill="none"/><line y2="-22949" y1="-24035" x2="-21848" x1="-22478" fill="none"/><line y2="-22998" y1="-23816" x2="-22074" x1="-22547" fill="none"/><line y2="-26210" y1="-26210" x2="-23550" x1="-22478" fill="none"/><line y2="-26210" y1="-27297" x2="-22478" x1="-21854" fill="none"/><line y2="-22781" y1="-23816" x2="-23735" x1="-23735" fill="none"/><line y2="-22152" y1="-22949" x2="-22640" x1="-21848" fill="none"/><line y2="-27470" y1="-26430" x2="-23738" x1="-23738" fill="none"/><line y2="-27340" y1="-26560" x2="-23567" x1="-23567" fill="none"/><line y2="-27297" y1="-28097" x2="-21854" x1="-22648" fill="none"/><line y2="-27276" y1="-27877" x2="-22074" x1="-22672" fill="none"/><line y2="-22781" y1="-22152" x2="-23735" x1="-22640" fill="none"/><line y2="-22851" y1="-22377" x2="-23512" x1="-22692" fill="none"/><line y2="-22152" y1="-22781" x2="-24818" x1="-23735" fill="none"/><line y2="-28097" y1="-27470" x2="-22648" x1="-23738" fill="none"/><line y2="-27470" y1="-28097" x2="-23738" x1="-24830" fill="none"/><line y2="-22778" y1="-22152" x2="-25904" x1="-24818" fill="none"/><line y2="-22848" y1="-22377" x2="-25685" x1="-24867" fill="none"/><line y2="-28097" y1="-27473" x2="-24830" x1="-25919" fill="none"/><line y2="-27872" y1="-27404" x2="-24882" x1="-25696" fill="none"/><line y2="-23813" y1="-22778" x2="-25904" x1="-25904" fill="none"/><line y2="-22152" y1="-22778" x2="-26985" x1="-25904" fill="none"/><line y2="-26439" y1="-27473" x2="-25919" x1="-25919" fill="none"/><line y2="-27473" y1="-28097" x2="-25919" x1="-27002" fill="none"/><line y2="-24032" y1="-24032" x2="-26092" x1="-27158" fill="none"/><line y2="-23862" y1="-23862" x2="-26228" x1="-27025" fill="none"/><line y2="-22943" y1="-22152" x2="-27776" x1="-26985" fill="none"/><line y2="-22963" y1="-22371" x2="-27557" x1="-26964" fill="none"/><line y2="-26202" y1="-26216" x2="-27149" x1="-26106" fill="none"/><line y2="-28097" y1="-27282" x2="-27002" x1="-27776" fill="none"/><line y2="-27877" y1="-27268" x2="-26976" x1="-27557" fill="none"/><line y2="-24032" y1="-22943" x2="-27158" x1="-27776" fill="none"/><line y2="-25116" y1="-24032" x2="-27776" x1="-27158" fill="none"/><line y2="-27282" y1="-26202" x2="-27776" x1="-27149" fill="none"/><line y2="-26202" y1="-25116" x2="-27149" x1="-27776" fill="none"/><line y2="-25982" y1="-25168" x2="-27080" x1="-27551" fill="none"/><line y2="-25124" y1="-25124" x2="-20805" x1="-21854" fill="none"/><line y2="-21103" y1="-22152" x2="-24818" x1="-24818" fill="none"/><line y2="-29146" y1="-28097" x2="-24830" x1="-24830" fill="none"/><line y2="-25116" y1="-25116" x2="-28825" x1="-27776" fill="none"/><line y2="-25124" y1="-24555" x2="-20805" x1="-19820" fill="none"/><line y2="-25199" y1="-24772" x2="-20597" x1="-19861" fill="none"/><line y2="-26262" y1="-25124" x2="-20805" x1="-20805" fill="none"/><line y2="-24555" y1="-25124" x2="-19820" x1="-18835" fill="none"/><line y2="-26829" y1="-26262" x2="-19820" x1="-20805" fill="none"/><line y2="-26612" y1="-26184" x2="-19861" x1="-20597" fill="none"/><line y2="-25124" y1="-26262" x2="-18835" x1="-18835" fill="none"/><line y2="-25266" y1="-26118" x2="-19006" x1="-19006" fill="none"/><line y2="-26262" y1="-26829" x2="-18835" x1="-19820" fill="none"/><line y2="-24601" y1="-25124" x2="-17928" x1="-18835" fill="none"/><line y2="-21103" y1="-20534" x2="-24818" x1="-25800" fill="none"/><line y2="-20886" y1="-20459" x2="-24856" x1="-25592" fill="none"/><line y2="-20534" y1="-21103" x2="-23830" x1="-24818" fill="none"/><line y2="-20534" y1="-19396" x2="-25800" x1="-25800" fill="none"/><line y2="-19396" y1="-20534" x2="-23830" x1="-23830" fill="none"/><line y2="-19540" y1="-20392" x2="-24000" x1="-24000" fill="none"/><line y2="-19396" y1="-18829" x2="-25800" x1="-24818" fill="none"/><line y2="-19474" y1="-19046" x2="-25592" x1="-24856" fill="none"/><line y2="-18829" y1="-19396" x2="-24818" x1="-23830" fill="none"/><line y2="-18873" y1="-19396" x2="-26707" x1="-25800" fill="none"/><line y2="-29715" y1="-29146" x2="-25818" x1="-24830" fill="none"/><line y2="-29790" y1="-29362" x2="-25607" x1="-24867" fill="none"/><line y2="-29146" y1="-29715" x2="-24830" x1="-23847" fill="none"/><line y2="-30850" y1="-29715" x2="-25818" x1="-25818" fill="none"/><line y2="-29715" y1="-30850" x2="-23847" x1="-23847" fill="none"/><line y2="-29856" y1="-30708" x2="-24018" x1="-24018" fill="none"/><line y2="-31419" y1="-30850" x2="-24830" x1="-25818" fill="none"/><line y2="-31202" y1="-30775" x2="-24867" x1="-25607" fill="none"/><line y2="-30850" y1="-31419" x2="-23847" x1="-24830" fill="none"/><line y2="-31376" y1="-30850" x2="-26725" x1="-25818" fill="none"/><line y2="-24546" y1="-25116" x2="-29813" x1="-28825" fill="none"/><line y2="-24766" y1="-25194" x2="-29772" x1="-29033" fill="none"/><line y2="-25116" y1="-26254" x2="-28825" x1="-28825" fill="none"/><line y2="-25116" y1="-24546" x2="-30795" x1="-29813" fill="none"/><line y2="-26254" y1="-26823" x2="-28825" x1="-29813" fill="none"/><line y2="-26176" y1="-26603" x2="-29033" x1="-29772" fill="none"/><line y2="-26254" y1="-25116" x2="-30795" x1="-30795" fill="none"/><line y2="-26109" y1="-25257" x2="-30625" x1="-30625" fill="none"/><line y2="-26823" y1="-26254" x2="-29813" x1="-30795" fill="none"/><line y2="-24593" y1="-25116" x2="-31702" x1="-30795" fill="none"/><line y2="-25014" y1="-24601" x2="-17209" x1="-17928" fill="none"/><line y2="-23772" y1="-24601" x2="-17859" x1="-17859" fill="none"/><line y2="-23772" y1="-24601" x2="-17997" x1="-17997" fill="none"/><line y2="-19176" y1="-18873" x2="-27236" x1="-26707" fill="none"/><line y2="-18044" y1="-18873" x2="-26638" x1="-26638" fill="none"/><line y2="-18044" y1="-18873" x2="-26777" x1="-26777" fill="none"/><line y2="-31070" y1="-31376" x2="-27250" x1="-26725" fill="none"/><line y2="-32202" y1="-31376" x2="-26794" x1="-26794" fill="none"/><line y2="-32202" y1="-31376" x2="-26652" x1="-26652" fill="none"/><line y2="-24896" y1="-24593" x2="-32231" x1="-31702" fill="none"/><line y2="-23764" y1="-24593" x2="-31633" x1="-31633" fill="none"/><line y2="-23764" y1="-24593" x2="-31772" x1="-31772" fill="none"/><text y="-24945" xml:space="preserve" x="-17174" stroke="none" font-size="433.3333" font-family="sans-serif">OH</text><text y="-23374" xml:space="preserve" x="-18081" stroke="none" font-size="433.3333" font-family="sans-serif">O</text><text y="-19216" xml:space="preserve" x="-27768" stroke="none" font-size="433.3333" font-family="sans-serif">OH</text><text y="-17645" xml:space="preserve" x="-26860" stroke="none" font-size="433.3333" font-family="sans-serif">O</text><text y="-30671" xml:space="preserve" x="-27782" stroke="none" font-size="433.3333" font-family="sans-serif">OH</text><text y="-32242" xml:space="preserve" x="-26875" stroke="none" font-size="433.3333" font-family="sans-serif">O</text><text y="-24936" xml:space="preserve" x="-32762" stroke="none" font-size="433.3333" font-family="sans-serif">OH</text><text y="-23365" xml:space="preserve" x="-31855" stroke="none" font-size="433.3333" font-family="sans-serif">O</text><text y="-23856" xml:space="preserve" x="-23885" stroke="none" font-size="433.3333" font-family="sans-serif">NH</text><text y="-26031" xml:space="preserve" x="-23891" stroke="none" font-size="433.3333" font-family="sans-serif">N</text><text y="-23853" xml:space="preserve" x="-26057" stroke="none" font-size="433.3333" font-family="sans-serif">N</text><text y="-26040" xml:space="preserve" x="-26069" stroke="none" font-size="433.3333" font-family="sans-serif">NH</text></g></g></svg>