<svg width="339.0" viewBox="0 0 11300 5476" text-rendering="auto" stroke-width="1" stroke-opacity="1" stroke-miterlimit="10" stroke-linejoin="miter" stroke-linecap="square" stroke-dashoffset="0" stroke-dasharray="none" stroke="black" shape-rendering="auto" image-rendering="auto" height="164.28" font-weight="normal" font-style="normal" font-size="12" font-family="'Dialog'" fill-opacity="1" fill="black" color-rendering="auto" color-interpolation="auto" xmlns="http://www.w3.org/2000/svg"><g><g stroke="white" fill="white"><rect y="0" x="0" width="11300" stroke="none" height="5476"/></g><g transform="translate(32866,32866)" text-rendering="geometricPrecision" stroke-width="44" stroke-linejoin="round" stroke-linecap="round"><line y2="-29385" y1="-30532" x2="-25953" x1="-25953" fill="none"/><line y2="-30994" y1="-30532" x2="-25159" x1="-25953" fill="none"/><line y2="-30532" y1="-31107" x2="-25953" x1="-26936" fill="none"/><line y2="-30457" y1="-30888" x2="-26161" x1="-26898" fill="none"/><line y2="-29385" y1="-28813" x2="-25953" x1="-24971" fill="none"/><line y2="-28813" y1="-29385" x2="-26936" x1="-25953" fill="none"/><line y2="-29033" y1="-29460" x2="-26898" x1="-26161" fill="none"/><line y2="-30532" y1="-30994" x2="-23989" x1="-24783" fill="none"/><line y2="-31107" y1="-30532" x2="-26936" x1="-27918" fill="none"/><line y2="-28813" y1="-29385" x2="-24971" x1="-23989" fill="none"/><line y2="-29385" y1="-28813" x2="-27918" x1="-26936" fill="none"/><line y2="-29385" y1="-30532" x2="-23989" x1="-23989" fill="none"/><line y2="-29530" y1="-30391" x2="-24159" x1="-24159" fill="none"/><line y2="-30532" y1="-29385" x2="-27918" x1="-27918" fill="none"/><line y2="-30391" y1="-29530" x2="-27747" x1="-27747" fill="none"/><line y2="-30948" y1="-30532" x2="-28637" x1="-27918" fill="none"/><line y2="-32153" y1="-31324" x2="-24971" x1="-24971" fill="none"/><line y2="-32679" y1="-32153" x2="-24064" x1="-24971" fill="none"/><line y2="-28862" y1="-29385" x2="-23082" x1="-23989" fill="none"/><line y2="-28969" y1="-29385" x2="-28637" x1="-27918" fill="none"/><line y2="-27984" y1="-28813" x2="-24902" x1="-24902" fill="none"/><line y2="-27984" y1="-28813" x2="-25040" x1="-25040" fill="none"/><line y2="-30489" y1="-30948" x2="-29807" x1="-29013" fill="none"/><line y2="-31275" y1="-32193" x2="-28825" x1="-28825" fill="none"/><line y2="-31055" y1="-30489" x2="-30795" x1="-29807" fill="none"/><line y2="-32193" y1="-32762" x2="-28825" x1="-29807" fill="none"/><line y2="-31974" y1="-31055" x2="-30795" x1="-30795" fill="none"/><line y2="-32762" y1="-32303" x2="-29807" x1="-30607" fill="none"/><line y2="-32719" y1="-32303" x2="-31702" x1="-30983" fill="none"/><line y2="-32303" y1="-32719" x2="-32422" x1="-31702" fill="none"/><line y2="-32234" y1="-32546" x2="-32263" x1="-31722" fill="none"/><line y2="-29278" y1="-28862" x2="-22362" x1="-23082" fill="none"/><line y2="-28033" y1="-28862" x2="-23012" x1="-23012" fill="none"/><line y2="-28033" y1="-28862" x2="-23151" x1="-23151" fill="none"/><text y="-27586" xml:space="preserve" x="-25124" stroke="none" font-size="433.3333" font-family="sans-serif">O</text><text y="-29206" xml:space="preserve" x="-22325" stroke="none" font-size="433.3333" font-family="sans-serif">OH</text><text y="-27635" xml:space="preserve" x="-23232" stroke="none" font-size="433.3333" font-family="sans-serif">O</text><text y="-28683" xml:space="preserve" x="-28978" stroke="none" font-size="433.3333" font-family="sans-serif">F</text><text y="-32014" xml:space="preserve" x="-32762" stroke="none" font-size="433.3333" font-family="sans-serif">O</text><text y="-30928" xml:space="preserve" x="-25124" stroke="none" font-size="433.3333" font-family="sans-serif">N</text><text y="-30876" xml:space="preserve" x="-28978" stroke="none" font-size="433.3333" font-family="sans-serif">N</text><text y="-32014" xml:space="preserve" x="-30948" stroke="none" font-size="433.3333" font-family="sans-serif">N</text></g></g></svg>