<svg width="477.33" viewBox="0 0 15911 13050" text-rendering="auto" stroke-width="1" stroke-opacity="1" stroke-miterlimit="10" stroke-linejoin="miter" stroke-linecap="square" stroke-dashoffset="0" stroke-dasharray="none" stroke="black" shape-rendering="auto" image-rendering="auto" height="391.5" font-weight="normal" font-style="normal" font-size="12" font-family="'Dialog'" fill-opacity="1" fill="black" color-rendering="auto" color-interpolation="auto" xmlns="http://www.w3.org/2000/svg"><g><g stroke="white" fill="white"><rect y="0" x="0" width="15911" stroke="none" height="13050"/></g><g transform="translate(32866,32758)" text-rendering="geometricPrecision" stroke-width="44" stroke-linejoin="round" stroke-linecap="round"><line y2="-27476" y1="-28620" x2="-25052" x1="-25052" fill="none"/><line y2="-27617" y1="-28478" x2="-25222" x1="-25222" fill="none"/><line y2="-28620" y1="-29085" x2="-25052" x1="-25846" fill="none"/><line y2="-26901" y1="-27476" x2="-26034" x1="-25052" fill="none"/><line y2="-29085" y1="-28620" x2="-26222" x1="-27016" fill="none"/><line y2="-27476" y1="-26901" x2="-27016" x1="-26034" fill="none"/><line y2="-27476" y1="-28620" x2="-27016" x1="-27016" fill="none"/><line y2="-28620" y1="-29195" x2="-27016" x1="-27999" fill="none"/><line y2="-28545" y1="-28975" x2="-27224" x1="-27961" fill="none"/><line y2="-26901" y1="-27476" x2="-27999" x1="-27016" fill="none"/><line y2="-27120" y1="-27551" x2="-27961" x1="-27224" fill="none"/><line y2="-29195" y1="-28620" x2="-27999" x1="-28981" fill="none"/><line y2="-27476" y1="-26901" x2="-28981" x1="-27999" fill="none"/><line y2="-28620" y1="-27476" x2="-28981" x1="-28981" fill="none"/><line y2="-28478" y1="-27617" x2="-28810" x1="-28810" fill="none"/><line y2="-27060" y1="-27476" x2="-24333" x1="-25052" fill="none"/><line y2="-29146" y1="-28620" x2="-24145" x1="-25052" fill="none"/><line y2="-29036" y1="-28620" x2="-29700" x1="-28981" fill="none"/><line y2="-28620" y1="-29036" x2="-30795" x1="-30076" fill="none"/><line y2="-29146" y1="-28620" x2="-31702" x1="-30795" fill="none"/><line y2="-28839" y1="-29146" x2="-32231" x1="-31702" fill="none"/><line y2="-26072" y1="-26901" x2="-27999" x1="-27999" fill="none"/><line y2="-26072" y1="-26901" x2="-25965" x1="-25965" fill="none"/><line y2="-26072" y1="-26901" x2="-26104" x1="-26104" fill="none"/><line y2="-24607" y1="-25066" x2="-23348" x1="-24145" fill="none"/><line y2="-25066" y1="-24500" x2="-24145" x1="-25127" fill="none"/><line y2="-23362" y1="-24281" x2="-23160" x1="-23160" fill="none"/><line y2="-24500" y1="-23362" x2="-25127" x1="-25130" fill="none"/><line y2="-22793" y1="-23362" x2="-24145" x1="-23160" fill="none"/><line y2="-23362" y1="-22793" x2="-25130" x1="-24145" fill="none"/><line y2="-23255" y1="-22839" x2="-21533" x1="-22253" fill="none"/><line y2="-30281" y1="-29146" x2="-24145" x1="-24145" fill="none"/><line y2="-30139" y1="-29287" x2="-23974" x1="-23974" fill="none"/><line y2="-29146" y1="-28576" x2="-24145" x1="-23157" fill="none"/><line y2="-30850" y1="-30281" x2="-23157" x1="-24145" fill="none"/><line y2="-28576" y1="-29146" x2="-23157" x1="-22175" fill="none"/><line y2="-28793" y1="-29221" x2="-23119" x1="-22383" fill="none"/><line y2="-30281" y1="-30850" x2="-22175" x1="-23157" fill="none"/><line y2="-30206" y1="-30633" x2="-22383" x1="-23119" fill="none"/><line y2="-29146" y1="-30281" x2="-22175" x1="-22175" fill="none"/><line y2="-31679" y1="-30850" x2="-23157" x1="-23157" fill="none"/><line y2="-32422" y1="-32008" x2="-24064" x1="-23345" fill="none"/><line y2="-31899" y1="-32422" x2="-24971" x1="-24064" fill="none"/><line y2="-32202" y1="-31899" x2="-25500" x1="-24971" fill="none"/><line y2="-30697" y1="-30281" x2="-21455" x1="-22175" fill="none"/><line y2="-30281" y1="-30697" x2="-20360" x1="-21080" fill="none"/><line y2="-30807" y1="-30281" x2="-19453" x1="-20360" fill="none"/><line y2="-30391" y1="-30807" x2="-18734" x1="-19453" fill="none"/><line y2="-22839" y1="-21701" x2="-20438" x1="-20438" fill="none"/><line y2="-23298" y1="-22839" x2="-19644" x1="-20438" fill="none"/><line y2="-21701" y1="-21132" x2="-20438" x1="-19453" fill="none"/><line y2="-22839" y1="-23298" x2="-18468" x1="-19266" fill="none"/><line y2="-21132" y1="-21701" x2="-19453" x1="-18468" fill="none"/><line y2="-21701" y1="-22839" x2="-18468" x1="-18468" fill="none"/><polygon stroke-width="1" stroke="none" points=" -25127 -24500 -25690 -24746 -25621 -24864"/><polygon stroke-width="1" points=" -25127 -24500 -25690 -24746 -25621 -24864" fill="none"/><polygon stroke-width="1" stroke="none" points=" -24145 -22793 -24076 -21964 -24214 -21964"/><polygon stroke-width="1" points=" -24145 -22793 -24076 -21964 -24214 -21964" fill="none"/><polygon stroke-width="1" stroke="none" points=" -18468 -22839 -17596 -23423 -17526 -23301"/><polygon stroke-width="1" points=" -18468 -22839 -17596 -23423 -17526 -23301" fill="none"/><polygon stroke-width="1" stroke="none" points=" -20438 -21701 -20932 -21337 -21002 -21455"/><polygon stroke-width="1" points=" -20438 -21701 -20932 -21337 -21002 -21455" fill="none"/><polygon stroke-width="1" stroke="none" points=" -19453 -21132 -19387 -20303 -19523 -20303"/><polygon stroke-width="1" points=" -19453 -21132 -19387 -20303 -19523 -20303" fill="none"/><line y2="-26730" y1="-26730" x2="-24076" x1="-24214" fill="none"/><line y2="-26513" y1="-26513" x2="-24085" x1="-24205" fill="none"/><line y2="-26297" y1="-26297" x2="-24094" x1="-24196" fill="none"/><line y2="-26080" y1="-26080" x2="-24103" x1="-24187" fill="none"/><line y2="-25863" y1="-25863" x2="-24112" x1="-24178" fill="none"/><line y2="-25647" y1="-25647" x2="-24121" x1="-24169" fill="none"/><line y2="-25430" y1="-25430" x2="-24130" x1="-24160" fill="none"/><line y2="-25213" y1="-25213" x2="-24139" x1="-24151" fill="none"/><line y2="-22778" y1="-22900" x2="-22287" x1="-22218" fill="none"/><line y2="-22899" y1="-22996" x2="-22468" x1="-22413" fill="none"/><line y2="-23020" y1="-23091" x2="-22648" x1="-22608" fill="none"/><line y2="-23140" y1="-23187" x2="-22829" x1="-22803" fill="none"/><line y2="-23261" y1="-23282" x2="-23009" x1="-22997" fill="none"/><line y2="-23313" y1="-23194" x2="-21123" x1="-21192" fill="none"/><line y2="-23189" y1="-23101" x2="-20944" x1="-20995" fill="none"/><line y2="-23066" y1="-23009" x2="-20766" x1="-20799" fill="none"/><line y2="-22942" y1="-22916" x2="-20587" x1="-20602" fill="none"/><line y2="-23116" y1="-22998" x2="-25690" x1="-25621" fill="none"/><line y2="-23204" y1="-23128" x2="-25490" x1="-25446" fill="none"/><line y2="-23291" y1="-23258" x2="-25291" x1="-25271" fill="none"/><line y2="-21227" y1="-21346" x2="-17784" x1="-17714" fill="none"/><line y2="-21351" y1="-21439" x2="-17963" x1="-17911" fill="none"/><line y2="-21474" y1="-21531" x2="-18141" x1="-18108" fill="none"/><line y2="-21598" y1="-21624" x2="-18320" x1="-18305" fill="none"/><text y="-26771" xml:space="preserve" x="-24298" stroke="none" font-size="433.3333" font-family="sans-serif">O</text><text y="-25676" xml:space="preserve" x="-26187" stroke="none" font-size="433.3333" font-family="sans-serif">O</text><text y="-31720" xml:space="preserve" x="-23310" stroke="none" font-size="433.3333" font-family="sans-serif">O</text><text y="-32242" xml:space="preserve" x="-26031" stroke="none" font-size="433.3333" font-family="sans-serif">OH</text><text y="-25676" xml:space="preserve" x="-28152" stroke="none" font-size="433.3333" font-family="sans-serif">OH</text><text y="-24844" xml:space="preserve" x="-26187" stroke="none" font-size="433.3333" font-family="sans-serif">OH</text><text y="-30628" xml:space="preserve" x="-21421" stroke="none" font-size="433.3333" font-family="sans-serif">O</text><text y="-30102" xml:space="preserve" x="-18699" stroke="none" font-size="433.3333" font-family="sans-serif">OH</text><text y="-28966" xml:space="preserve" x="-30041" stroke="none" font-size="433.3333" font-family="sans-serif">O</text><text y="-28441" xml:space="preserve" x="-32762" stroke="none" font-size="433.3333" font-family="sans-serif">OH</text><text y="-23183" xml:space="preserve" x="-21499" stroke="none" font-size="433.3333" font-family="sans-serif">O</text><text y="-22657" xml:space="preserve" x="-26190" stroke="none" font-size="433.3333" font-family="sans-serif">OH</text><text y="-21565" xml:space="preserve" x="-24298" stroke="none" font-size="433.3333" font-family="sans-serif">OH</text><text y="-20999" xml:space="preserve" x="-21499" stroke="none" font-size="433.3333" font-family="sans-serif">OH</text><text y="-19904" xml:space="preserve" x="-19606" stroke="none" font-size="433.3333" font-family="sans-serif">OH</text><text y="-20999" xml:space="preserve" x="-17714" stroke="none" font-size="433.3333" font-family="sans-serif">OH</text><text y="-29016" xml:space="preserve" x="-26187" stroke="none" font-size="433.3333" font-family="sans-serif">O</text><text y="-24318" xml:space="preserve" x="-23313" stroke="none" font-size="433.3333" font-family="sans-serif">O</text><text y="-23229" xml:space="preserve" x="-19606" stroke="none" font-size="433.3333" font-family="sans-serif">O</text><text y="-24587" xml:space="preserve" x="-24298" stroke="none" font-style="italic" font-size="313.3333" font-family="sans-serif">S</text><text y="-24180" xml:space="preserve" x="-25032" stroke="none" font-style="italic" font-size="313.3333" font-family="sans-serif">R</text><text y="-23327" xml:space="preserve" x="-23561" stroke="none" font-style="italic" font-size="313.3333" font-family="sans-serif">R</text><text y="-23327" xml:space="preserve" x="-25035" stroke="none" font-style="italic" font-size="313.3333" font-family="sans-serif">S</text><text y="-22917" xml:space="preserve" x="-24298" stroke="none" font-style="italic" font-size="313.3333" font-family="sans-serif">S</text><text y="-22516" xml:space="preserve" x="-20343" stroke="none" font-style="italic" font-size="313.3333" font-family="sans-serif">R</text><text y="-21666" xml:space="preserve" x="-20343" stroke="none" font-style="italic" font-size="313.3333" font-family="sans-serif">R</text><text y="-21256" xml:space="preserve" x="-19606" stroke="none" font-style="italic" font-size="313.3333" font-family="sans-serif">R</text><text y="-22516" xml:space="preserve" x="-18870" stroke="none" font-style="italic" font-size="313.3333" font-family="sans-serif">S</text><text y="-21666" xml:space="preserve" x="-18870" stroke="none" font-style="italic" font-size="313.3333" font-family="sans-serif">R</text></g></g></svg>