<svg width="202.26" viewBox="0 0 6742 3501" text-rendering="auto" stroke-width="1" stroke-opacity="1" stroke-miterlimit="10" stroke-linejoin="miter" stroke-linecap="square" stroke-dashoffset="0" stroke-dasharray="none" stroke="black" shape-rendering="auto" image-rendering="auto" height="105.03" font-weight="normal" font-style="normal" font-size="12" font-family="'Dialog'" fill-opacity="1" fill="black" color-rendering="auto" color-interpolation="auto" xmlns="http://www.w3.org/2000/svg"><g><g stroke="white" fill="white"><rect y="0" x="0" width="6742" stroke="none" height="3501"/></g><g transform="translate(32866,32866)" text-rendering="geometricPrecision" stroke-width="44" stroke-linejoin="round" stroke-linecap="round"><line y2="-30489" y1="-31055" x2="-31774" x1="-30792" fill="none"/><line y2="-31055" y1="-31974" x2="-30792" x1="-30792" fill="none"/><line y2="-31055" y1="-30489" x2="-32762" x1="-31774" fill="none"/><line y2="-32303" y1="-32762" x2="-30980" x1="-31774" fill="none"/><line y2="-32193" y1="-31055" x2="-32762" x1="-32762" fill="none"/><line y2="-32762" y1="-32193" x2="-31774" x1="-32762" fill="none"/><line y2="-30642" y1="-31055" x2="-30073" x1="-30792" fill="none"/><line y2="-31055" y1="-30642" x2="-28978" x1="-29697" fill="none"/><line y2="-30532" y1="-31055" x2="-28071" x1="-28978" fill="none"/><line y2="-30532" y1="-29469" x2="-28071" x1="-27742" fill="none"/><line y2="-31090" y1="-30532" x2="-27317" x1="-28071" fill="none"/><line y2="-29469" y1="-29469" x2="-27742" x1="-26598" fill="none"/><line y2="-30532" y1="-31084" x2="-26228" x1="-26941" fill="none"/><line y2="-29469" y1="-30532" x2="-26598" x1="-26228" fill="none"/><text y="-30353" xml:space="preserve" x="-30038" stroke="none" font-size="433.3333" font-family="sans-serif">O</text><text y="-32014" xml:space="preserve" x="-30945" stroke="none" font-size="433.3333" font-family="sans-serif">O</text><text y="-31049" xml:space="preserve" x="-27279" stroke="none" font-size="433.3333" font-family="sans-serif">O</text></g></g></svg>