<svg width="243.69" viewBox="0 0 8123 3867" text-rendering="auto" stroke-width="1" stroke-opacity="1" stroke-miterlimit="10" stroke-linejoin="miter" stroke-linecap="square" stroke-dashoffset="0" stroke-dasharray="none" stroke="black" shape-rendering="auto" image-rendering="auto" height="116.01" font-weight="normal" font-style="normal" font-size="12" font-family="'Dialog'" fill-opacity="1" fill="black" color-rendering="auto" color-interpolation="auto" xmlns="http://www.w3.org/2000/svg"><g><g stroke="white" fill="white"><rect y="0" x="0" width="8123" stroke="none" height="3867"/></g><g transform="translate(32866,32758)" text-rendering="geometricPrecision" stroke-width="44" stroke-linejoin="round" stroke-linecap="round"><line y2="-30992" y1="-31408" x2="-27918" x1="-28637" fill="none"/><line y2="-30992" y1="-31408" x2="-29732" x1="-29013" fill="none"/><line y2="-32167" y1="-31699" x2="-29284" x1="-29013" fill="none"/><line y2="-32240" y1="-31769" x2="-29163" x1="-28891" fill="none"/><line y2="-32240" y1="-31769" x2="-28490" x1="-28761" fill="none"/><line y2="-32167" y1="-31699" x2="-28368" x1="-28640" fill="none"/><line y2="-30992" y1="-29853" x2="-27918" x1="-27918" fill="none"/><line y2="-30850" y1="-29998" x2="-27747" x1="-27747" fill="none"/><line y2="-31561" y1="-30992" x2="-26933" x1="-27918" fill="none"/><line y2="-29853" y1="-29284" x2="-27918" x1="-26933" fill="none"/><line y2="-30992" y1="-31561" x2="-25948" x1="-26933" fill="none"/><line y2="-30916" y1="-31344" x2="-26156" x1="-26895" fill="none"/><line y2="-29284" y1="-29853" x2="-26933" x1="-25948" fill="none"/><line y2="-29504" y1="-29931" x2="-26895" x1="-26156" fill="none"/><line y2="-29853" y1="-30992" x2="-25948" x1="-25948" fill="none"/><line y2="-29527" y1="-29853" x2="-25381" x1="-25948" fill="none"/><line y2="-29853" y1="-30992" x2="-29732" x1="-29732" fill="none"/><line y2="-29998" y1="-30850" x2="-29902" x1="-29902" fill="none"/><line y2="-30992" y1="-31561" x2="-29732" x1="-30720" fill="none"/><line y2="-29284" y1="-29853" x2="-30720" x1="-29732" fill="none"/><line y2="-31561" y1="-30992" x2="-30720" x1="-31702" fill="none"/><line y2="-31344" y1="-30916" x2="-30758" x1="-31494" fill="none"/><line y2="-29853" y1="-29284" x2="-31702" x1="-30720" fill="none"/><line y2="-29931" y1="-29504" x2="-31494" x1="-30758" fill="none"/><line y2="-30992" y1="-29853" x2="-31702" x1="-31702" fill="none"/><line y2="-29550" y1="-29853" x2="-32231" x1="-31702" fill="none"/><text y="-31335" xml:space="preserve" x="-28978" stroke="none" font-size="433.3333" font-family="sans-serif">S</text><text y="-32242" xml:space="preserve" x="-29501" stroke="none" font-size="433.3333" font-family="sans-serif">O</text><text y="-32242" xml:space="preserve" x="-28455" stroke="none" font-size="433.3333" font-family="sans-serif">O</text><text y="-29151" xml:space="preserve" x="-25272" stroke="none" font-size="433.3333" font-family="sans-serif">Cl</text><text y="-29151" xml:space="preserve" x="-32762" stroke="none" font-size="433.3333" font-family="sans-serif">NH</text><text y="-29062" xml:space="preserve" x="-32185" stroke="none" font-size="313.3333" font-family="sans-serif">2</text></g></g></svg>