<svg width="414.6" viewBox="0 0 13820 11150" text-rendering="auto" stroke-width="1" stroke-opacity="1" stroke-miterlimit="10" stroke-linejoin="miter" stroke-linecap="square" stroke-dashoffset="0" stroke-dasharray="none" stroke="black" shape-rendering="auto" image-rendering="auto" height="334.5" font-weight="normal" font-style="normal" font-size="12" font-family="'Dialog'" fill-opacity="1" fill="black" color-rendering="auto" color-interpolation="auto" xmlns="http://www.w3.org/2000/svg"><g><g stroke="white" fill="white"><rect y="0" x="0" width="13820" stroke="none" height="11150"/></g><g transform="translate(32866,32758)" text-rendering="geometricPrecision" stroke-width="44" stroke-linejoin="round" stroke-linecap="round"><line y2="-28210" y1="-27640" x2="-22279" x1="-21305" fill="none"/><line y2="-26782" y1="-28210" x2="-23324" x1="-22279" fill="none"/><line y2="-29345" y1="-28210" x2="-22279" x1="-22279" fill="none"/><line y2="-28210" y1="-27640" x2="-20329" x1="-21305" fill="none"/><line y2="-27640" y1="-26655" x2="-21305" x1="-20736" fill="none"/><line y2="-27389" y1="-26782" x2="-24552" x1="-23324" fill="none"/><line y2="-29345" y1="-30327" x2="-22279" x1="-22848" fill="none"/><line y2="-29914" y1="-29345" x2="-21305" x1="-22279" fill="none"/><line y2="-27447" y1="-28210" x2="-19881" x1="-20329" fill="none"/><line y2="-28210" y1="-29345" x2="-20329" x1="-20329" fill="none"/><line y2="-26655" y1="-27118" x2="-20736" x1="-19942" fill="none"/><line y2="-28366" y1="-27389" x2="-23983" x1="-24552" fill="none"/><line y2="-27389" y1="-27389" x2="-25688" x1="-24552" fill="none"/><line y2="-30327" y1="-30327" x2="-22848" x1="-23986" fill="none"/><line y2="-29345" y1="-29914" x2="-20329" x1="-21305" fill="none"/><line y2="-29339" y1="-28366" x2="-24552" x1="-23983" fill="none"/><line y2="-28366" y1="-27389" x2="-26257" x1="-25688" fill="none"/><line y2="-30327" y1="-29339" x2="-23986" x1="-24552" fill="none"/><line y2="-29339" y1="-29339" x2="-24552" x1="-25688" fill="none"/><line y2="-29169" y1="-29169" x2="-24694" x1="-25546" fill="none"/><line y2="-29339" y1="-28366" x2="-25688" x1="-26257" fill="none"/><line y2="-25035" y1="-25624" x2="-24492" x1="-23512" fill="none"/><line y2="-28366" y1="-28782" x2="-28071" x1="-27352" fill="none"/><line y2="-27678" y1="-28366" x2="-23192" x1="-23983" fill="none"/><line y2="-29024" y1="-28366" x2="-23168" x1="-23983" fill="none"/><line y2="-30255" y1="-29339" x2="-26196" x1="-25688" fill="none"/><line y2="-24477" y1="-24893" x2="-22868" x1="-22149" fill="none"/><line y2="-31899" y1="-31070" x2="-24893" x1="-24893" fill="none"/><line y2="-31049" y1="-30362" x2="-22513" x1="-22908" fill="none"/><line y2="-30980" y1="-30292" x2="-22388" x1="-22787" fill="none"/><line y2="-23986" y1="-25035" x2="-24492" x1="-24492" fill="none"/><line y2="-25390" y1="-24974" x2="-25246" x1="-24526" fill="none"/><line y2="-25511" y1="-25095" x2="-25176" x1="-24457" fill="none"/><line y2="-28888" y1="-28366" x2="-28978" x1="-28071" fill="none"/><line y2="-27536" y1="-28366" x2="-28002" x1="-28002" fill="none"/><line y2="-27536" y1="-28366" x2="-28143" x1="-28143" fill="none"/><line y2="-25003" y1="-24477" x2="-23775" x1="-22868" fill="none"/><line y2="-23651" y1="-24477" x2="-22799" x1="-22799" fill="none"/><line y2="-23651" y1="-24477" x2="-22937" x1="-22937" fill="none"/><line y2="-32422" y1="-31899" x2="-25800" x1="-24893" fill="none"/><line y2="-32375" y1="-31959" x2="-24206" x1="-24928" fill="none"/><line y2="-32254" y1="-31838" x2="-24136" x1="-24856" fill="none"/><line y2="-23986" y1="-23420" x2="-24492" x1="-25477" fill="none"/><line y2="-23769" y1="-23342" x2="-24529" x1="-25269" fill="none"/><line y2="-23420" y1="-23986" x2="-23509" x1="-24492" fill="none"/><line y2="-23420" y1="-22282" x2="-25477" x1="-25477" fill="none"/><line y2="-22282" y1="-23420" x2="-23506" x1="-23509" fill="none"/><line y2="-22423" y1="-23278" x2="-23677" x1="-23677" fill="none"/><line y2="-22282" y1="-21712" x2="-25477" x1="-24492" fill="none"/><line y2="-22357" y1="-21929" x2="-25269" x1="-24529" fill="none"/><line y2="-21712" y1="-22282" x2="-24492" x1="-23506" fill="none"/><line y2="-28366" y1="-28888" x2="-29885" x1="-28978" fill="none"/><line y2="-28888" y1="-28366" x2="-30792" x1="-29885" fill="none"/><line y2="-26777" y1="-27204" x2="-30784" x1="-30073" fill="none"/><line y2="-28888" y1="-30027" x2="-30792" x1="-30792" fill="none"/><line y2="-29030" y1="-29885" x2="-30963" x1="-30963" fill="none"/><line y2="-28319" y1="-28888" x2="-31777" x1="-30792" fill="none"/><line y2="-30027" y1="-30596" x2="-30792" x1="-31777" fill="none"/><line y2="-28888" y1="-28319" x2="-32762" x1="-31777" fill="none"/><line y2="-28966" y1="-28539" x2="-32554" x1="-31815" fill="none"/><line y2="-30596" y1="-30027" x2="-31777" x1="-32762" fill="none"/><line y2="-30376" y1="-29949" x2="-31815" x1="-32554" fill="none"/><line y2="-30027" y1="-28888" x2="-32762" x1="-32762" fill="none"/><line y2="-25731" y1="-26777" x2="-30784" x1="-30784" fill="none"/><line y2="-27132" y1="-26716" x2="-31538" x1="-30818" fill="none"/><line y2="-27253" y1="-26840" x2="-31468" x1="-30749" fill="none"/><line y2="-25205" y1="-25731" x2="-31691" x1="-30784" fill="none"/><line y2="-25150" y1="-25546" x2="-31506" x1="-30827" fill="none"/><line y2="-25205" y1="-25731" x2="-29876" x1="-30784" fill="none"/><line y2="-24159" y1="-25205" x2="-31691" x1="-31691" fill="none"/><polygon stroke-width="1" stroke="none" points=" -22279 -29345 -22348 -30394 -22209 -30394"/><polygon stroke-width="1" points=" -22279 -29345 -22348 -30394 -22209 -30394" fill="none"/><polygon stroke-width="1" stroke="none" points=" -23986 -30327 -24737 -30682 -24668 -30801"/><polygon stroke-width="1" points=" -23986 -30327 -24737 -30682 -24668 -30801" fill="none"/><polygon stroke-width="1" stroke="none" points=" -24552 -27389 -24483 -26563 -24622 -26560"/><polygon stroke-width="1" points=" -24552 -27389 -24483 -26563 -24622 -26560" fill="none"/><polygon stroke-width="1" stroke="none" points=" -21305 -29914 -21374 -30740 -21236 -30743"/><polygon stroke-width="1" points=" -21305 -29914 -21374 -30740 -21236 -30743" fill="none"/><polygon stroke-width="1" stroke="none" points=" -28978 -28888 -29047 -29718 -28909 -29718"/><polygon stroke-width="1" points=" -28978 -28888 -29047 -29718 -28909 -29718" fill="none"/><polygon stroke-width="1" stroke="none" points=" -29885 -28366 -29819 -27536 -29954 -27536"/><polygon stroke-width="1" points=" -29885 -28366 -29819 -27536 -29954 -27536" fill="none"/><line y2="-25953" y1="-25956" x2="-23394" x1="-23255" fill="none"/><line y2="-26170" y1="-26172" x2="-23376" x1="-23273" fill="none"/><line y2="-26387" y1="-26389" x2="-23357" x1="-23291" fill="none"/><line y2="-26604" y1="-26605" x2="-23339" x1="-23309" fill="none"/><line y2="-28839" y1="-28721" x2="-26941" x1="-27011" fill="none"/><line y2="-28715" y1="-28628" x2="-26762" x1="-26814" fill="none"/><line y2="-28592" y1="-28536" x2="-26584" x1="-26617" fill="none"/><line y2="-28468" y1="-28443" x2="-26405" x1="-26420" fill="none"/><line y2="-25237" y1="-25205" x2="-21972" x1="-21840" fill="none"/><line y2="-25446" y1="-25417" x2="-21914" x1="-21793" fill="none"/><line y2="-25655" y1="-25628" x2="-21856" x1="-21747" fill="none"/><line y2="-25864" y1="-25840" x2="-21798" x1="-21700" fill="none"/><line y2="-26073" y1="-26052" x2="-21740" x1="-21654" fill="none"/><line y2="-26281" y1="-26263" x2="-21682" x1="-21607" fill="none"/><line y2="-26490" y1="-26475" x2="-21624" x1="-21561" fill="none"/><line y2="-26699" y1="-26687" x2="-21566" x1="-21514" fill="none"/><line y2="-26908" y1="-26898" x2="-21508" x1="-21468" fill="none"/><line y2="-27117" y1="-27110" x2="-21450" x1="-21421" fill="none"/><line y2="-27326" y1="-27322" x2="-21392" x1="-21375" fill="none"/><line y2="-27535" y1="-27533" x2="-21334" x1="-21328" fill="none"/><line y2="-27378" y1="-27380" x2="-22348" x1="-22209" fill="none"/><line y2="-27595" y1="-27596" x2="-22330" x1="-22227" fill="none"/><line y2="-27812" y1="-27813" x2="-22312" x1="-22246" fill="none"/><line y2="-28029" y1="-28029" x2="-22294" x1="-22264" fill="none"/><line y2="-28363" y1="-28496" x2="-19488" x1="-19523" fill="none"/><line y2="-28324" y1="-28423" x2="-19702" x1="-19728" fill="none"/><line y2="-28285" y1="-28351" x2="-19916" x1="-19933" fill="none"/><line y2="-28246" y1="-28278" x2="-20129" x1="-20138" fill="none"/><text y="-24824" xml:space="preserve" x="-22114" stroke="none" font-size="433.3333" font-family="sans-serif">O</text><text y="-23252" xml:space="preserve" x="-23021" stroke="none" font-size="433.3333" font-family="sans-serif">O</text><text y="-25558" xml:space="preserve" x="-23478" stroke="none" font-size="433.3333" font-family="sans-serif">O</text><text y="-25378" xml:space="preserve" x="-25552" stroke="none" font-size="433.3333" font-family="sans-serif">O</text><text y="-26164" xml:space="preserve" x="-24702" stroke="none" font-size="433.3333" font-family="sans-serif">OH</text><text y="-31055" xml:space="preserve" x="-22475" stroke="none" font-size="433.3333" font-family="sans-serif">O</text><text y="-30784" xml:space="preserve" x="-21455" stroke="none" font-size="433.3333" font-family="sans-serif">OH</text><text y="-30671" xml:space="preserve" x="-25043" stroke="none" font-size="433.3333" font-family="sans-serif">O</text><text y="-32242" xml:space="preserve" x="-24136" stroke="none" font-size="433.3333" font-family="sans-serif">O</text><text y="-28709" xml:space="preserve" x="-27317" stroke="none" font-size="433.3333" font-family="sans-serif">O</text><text y="-27138" xml:space="preserve" x="-28224" stroke="none" font-size="433.3333" font-family="sans-serif">O</text><text y="-29758" xml:space="preserve" x="-29131" stroke="none" font-size="433.3333" font-family="sans-serif">OH</text><text y="-27138" xml:space="preserve" x="-30038" stroke="none" font-size="433.3333" font-family="sans-serif">NH</text><text y="-27123" xml:space="preserve" x="-31844" stroke="none" font-size="433.3333" font-family="sans-serif">O</text><text y="-27048" xml:space="preserve" x="-19904" stroke="none" font-size="433.3333" font-family="sans-serif">O</text><text y="-26982" xml:space="preserve" x="-22432" stroke="none" font-size="433.3333" font-family="sans-serif">H</text><text y="-28299" xml:space="preserve" x="-19468" stroke="none" font-size="433.3333" font-family="sans-serif">H</text><text y="-24841" xml:space="preserve" x="-31130" stroke="none" font-style="italic" font-size="313.3333" font-family="sans-serif">E</text><text y="-28406" xml:space="preserve" x="-29131" stroke="none" font-style="italic" font-size="313.3333" font-family="sans-serif">R</text><text y="-28487" xml:space="preserve" x="-30038" stroke="none" font-style="italic" font-size="313.3333" font-family="sans-serif">S</text><text y="-28103" xml:space="preserve" x="-22709" stroke="none" font-style="italic" font-size="313.3333" font-family="sans-serif">R</text><text y="-27762" xml:space="preserve" x="-21455" stroke="none" font-style="italic" font-size="313.3333" font-family="sans-serif">S</text><text y="-26881" xml:space="preserve" x="-23550" stroke="none" font-style="italic" font-size="313.3333" font-family="sans-serif">S</text><text y="-29091" xml:space="preserve" x="-22709" stroke="none" font-style="italic" font-size="313.3333" font-family="sans-serif">S</text><text y="-28172" xml:space="preserve" x="-20730" stroke="none" font-style="italic" font-size="313.3333" font-family="sans-serif">R</text><text y="-27461" xml:space="preserve" x="-24847" stroke="none" font-style="italic" font-size="313.3333" font-family="sans-serif">S</text><text y="-29432" xml:space="preserve" x="-21455" stroke="none" font-style="italic" font-size="313.3333" font-family="sans-serif">S</text><text y="-29900" xml:space="preserve" x="-23995" stroke="none" font-style="italic" font-size="313.3333" font-family="sans-serif">R</text><text y="-28186" xml:space="preserve" x="-26138" stroke="none" font-style="italic" font-size="313.3333" font-family="sans-serif">S</text></g></g></svg>