<svg width="154.74" viewBox="0 0 5158 5334" text-rendering="auto" stroke-width="1" stroke-opacity="1" stroke-miterlimit="10" stroke-linejoin="miter" stroke-linecap="square" stroke-dashoffset="0" stroke-dasharray="none" stroke="black" shape-rendering="auto" image-rendering="auto" height="160.02" font-weight="normal" font-style="normal" font-size="12" font-family="'Dialog'" fill-opacity="1" fill="black" color-rendering="auto" color-interpolation="auto" xmlns="http://www.w3.org/2000/svg"><g><g stroke="white" fill="white"><rect y="0" x="0" width="5158" stroke="none" height="5334"/></g><g transform="translate(32866,32758)" text-rendering="geometricPrecision" stroke-width="44" stroke-linejoin="round" stroke-linecap="round"><line y2="-29235" y1="-29804" x2="-29813" x1="-30795" fill="none"/><line y2="-29157" y1="-29585" x2="-30021" x1="-30758" fill="none"/><line y2="-29804" y1="-29235" x2="-30795" x1="-31783" fill="none"/><line y2="-28097" y1="-29235" x2="-29813" x1="-29813" fill="none"/><line y2="-29235" y1="-28097" x2="-31783" x1="-31783" fill="none"/><line y2="-29091" y1="-28238" x2="-31613" x1="-31613" fill="none"/><line y2="-27528" y1="-28097" x2="-30795" x1="-29813" fill="none"/><line y2="-27747" y1="-28172" x2="-30758" x1="-30021" fill="none"/><line y2="-28097" y1="-27528" x2="-31783" x1="-30795" fill="none"/><line y2="-29758" y1="-29235" x2="-28906" x1="-29813" fill="none"/><line y2="-29342" y1="-29758" x2="-28186" x1="-28906" fill="none"/><line y2="-29276" y1="-29588" x2="-28345" x1="-28886" fill="none"/><line y2="-30630" y1="-29804" x2="-30795" x1="-30795" fill="none"/><line y2="-31376" y1="-30960" x2="-31702" x1="-30983" fill="none"/><line y2="-30960" y1="-31376" x2="-32422" x1="-31702" fill="none"/><line y2="-32202" y1="-31376" x2="-31702" x1="-31702" fill="none"/><text y="-30671" xml:space="preserve" x="-30948" stroke="none" font-size="433.3333" font-family="sans-serif">O</text><text y="-30671" xml:space="preserve" x="-32762" stroke="none" font-size="433.3333" font-family="sans-serif">F</text><text y="-32242" xml:space="preserve" x="-31855" stroke="none" font-size="433.3333" font-family="sans-serif">F</text><text y="-29056" xml:space="preserve" x="-28149" stroke="none" font-size="433.3333" font-family="sans-serif">O</text></g></g></svg>