<svg width="309.27" viewBox="0 0 10309 2481" text-rendering="auto" stroke-width="1" stroke-opacity="1" stroke-miterlimit="10" stroke-linejoin="miter" stroke-linecap="square" stroke-dashoffset="0" stroke-dasharray="none" stroke="black" shape-rendering="auto" image-rendering="auto" height="74.43" font-weight="normal" font-style="normal" font-size="12" font-family="'Dialog'" fill-opacity="1" fill="black" color-rendering="auto" color-interpolation="auto" xmlns="http://www.w3.org/2000/svg"><g><g stroke="white" fill="white"><rect y="0" x="0" width="10309" stroke="none" height="2481"/></g><g transform="translate(32866,32866)" text-rendering="geometricPrecision" stroke-width="44" stroke-linejoin="round" stroke-linecap="round"><line y2="-32303" y1="-32762" x2="-27103" x1="-27898" fill="none"/><line y2="-31055" y1="-31974" x2="-26915" x1="-26915" fill="none"/><line y2="-32762" y1="-32193" x2="-27898" x1="-28886" fill="none"/><line y2="-30489" y1="-31055" x2="-27898" x1="-26915" fill="none"/><line y2="-32193" y1="-31275" x2="-28886" x1="-28886" fill="none"/><line y2="-30948" y1="-30489" x2="-28698" x1="-27898" fill="none"/><line y2="-32719" y1="-32303" x2="-26008" x1="-26728" fill="none"/><line y2="-32193" y1="-32719" x2="-25101" x1="-26008" fill="none"/><line y2="-32719" y1="-32193" x2="-24194" x1="-25101" fill="none"/><line y2="-32303" y1="-32719" x2="-23475" x1="-24194" fill="none"/><line y2="-30532" y1="-30948" x2="-29793" x1="-29073" fill="none"/><line y2="-31055" y1="-30532" x2="-30700" x1="-29793" fill="none"/><line y2="-30532" y1="-31055" x2="-31607" x1="-30700" fill="none"/><line y2="-30784" y1="-30532" x2="-32040" x1="-31607" fill="none"/><text y="-32014" xml:space="preserve" x="-23437" stroke="none" font-size="433.3333" font-family="sans-serif">NH</text><text y="-31925" xml:space="preserve" x="-22859" stroke="none" font-size="313.3333" font-family="sans-serif">2</text><text y="-30934" xml:space="preserve" x="-32762" stroke="none" font-size="433.3333" font-family="sans-serif">NH</text><text y="-30844" xml:space="preserve" x="-32185" stroke="none" font-size="313.3333" font-family="sans-serif">2</text><text y="-32014" xml:space="preserve" x="-27066" stroke="none" font-size="433.3333" font-family="sans-serif">N</text><text y="-30876" xml:space="preserve" x="-29036" stroke="none" font-size="433.3333" font-family="sans-serif">N</text></g></g></svg>