<svg width="242.58" viewBox="0 0 8086 6264" text-rendering="auto" stroke-width="1" stroke-opacity="1" stroke-miterlimit="10" stroke-linejoin="miter" stroke-linecap="square" stroke-dashoffset="0" stroke-dasharray="none" stroke="black" shape-rendering="auto" image-rendering="auto" height="187.92" font-weight="normal" font-style="normal" font-size="12" font-family="'Dialog'" fill-opacity="1" fill="black" color-rendering="auto" color-interpolation="auto" xmlns="http://www.w3.org/2000/svg"><g><g stroke="white" fill="white"><rect y="0" x="0" width="8086" stroke="none" height="6264"/></g><g transform="translate(32866,32758)" text-rendering="geometricPrecision" stroke-width="44" stroke-linejoin="round" stroke-linecap="round"><line y2="-29047" y1="-30249" x2="-29611" x1="-29611" fill="none"/><line y2="-30249" y1="-30850" x2="-29611" x1="-30651" fill="none"/><line y2="-28449" y1="-29047" x2="-30651" x1="-29611" fill="none"/><line y2="-28672" y1="-29122" x2="-30607" x1="-29824" fill="none"/><line y2="-30850" y1="-30249" x2="-30651" x1="-31691" fill="none"/><line y2="-30628" y1="-30177" x2="-30697" x1="-31474" fill="none"/><line y2="-28828" y1="-28449" x2="-31309" x1="-30651" fill="none"/><line y2="-30249" y1="-29267" x2="-31691" x1="-31691" fill="none"/><line y2="-30772" y1="-30249" x2="-28704" x1="-29611" fill="none"/><line y2="-27918" y1="-29047" x2="-27606" x1="-29611" fill="none"/><line y2="-31899" y1="-30850" x2="-30651" x1="-30651" fill="none"/><line y2="-27401" y1="-28449" x2="-30651" x1="-30651" fill="none"/><line y2="-30772" y1="-30249" x2="-32598" x1="-31691" fill="none"/><line y2="-30772" y1="-30206" x2="-28704" x1="-27718" fill="none"/><line y2="-30850" y1="-30422" x2="-28496" x1="-27756" fill="none"/><line y2="-31910" y1="-30772" x2="-28704" x1="-28704" fill="none"/><line y2="-30206" y1="-30772" x2="-27718" x1="-26733" fill="none"/><line y2="-32479" y1="-31910" x2="-27718" x1="-28704" fill="none"/><line y2="-32263" y1="-31835" x2="-27756" x1="-28496" fill="none"/><line y2="-30772" y1="-31910" x2="-26733" x1="-26733" fill="none"/><line y2="-30916" y1="-31769" x2="-26904" x1="-26904" fill="none"/><line y2="-31910" y1="-32479" x2="-26733" x1="-27718" fill="none"/><line y2="-29377" y1="-30206" x2="-27718" x1="-27718" fill="none"/><line y2="-30446" y1="-30772" x2="-26164" x1="-26733" fill="none"/><line y2="-28334" y1="-27918" x2="-26886" x1="-27606" fill="none"/><line y2="-27918" y1="-28334" x2="-25792" x1="-26511" fill="none"/><line y2="-28441" y1="-27918" x2="-24884" x1="-25792" fill="none"/><line y2="-27089" y1="-27918" x2="-27536" x1="-27536" fill="none"/><line y2="-27089" y1="-27918" x2="-27675" x1="-27675" fill="none"/><line y2="-32312" y1="-31899" x2="-31370" x1="-30651" fill="none"/><line y2="-32055" y1="-32318" x2="-32216" x1="-31746" fill="none"/><line y2="-32372" y1="-31959" x2="-29966" x1="-30685" fill="none"/><line y2="-32251" y1="-31835" x2="-29897" x1="-30616" fill="none"/><text y="-28262" xml:space="preserve" x="-26852" stroke="none" font-size="433.3333" font-family="sans-serif">O</text><text y="-26690" xml:space="preserve" x="-27759" stroke="none" font-size="433.3333" font-family="sans-serif">O</text><text y="-32242" xml:space="preserve" x="-31711" stroke="none" font-size="433.3333" font-family="sans-serif">O</text><text y="-32242" xml:space="preserve" x="-29897" stroke="none" font-size="433.3333" font-family="sans-serif">O</text><text y="-31656" xml:space="preserve" x="-32762" stroke="none" font-size="433.3333" font-family="sans-serif">CH</text><text y="-31566" xml:space="preserve" x="-32185" stroke="none" font-size="313.3333" font-family="sans-serif">3</text><text y="-28978" xml:space="preserve" x="-27950" stroke="none" font-size="433.3333" font-family="sans-serif">Cl</text><text y="-30070" xml:space="preserve" x="-26057" stroke="none" font-size="433.3333" font-family="sans-serif">Cl</text><text y="-28868" xml:space="preserve" x="-31844" stroke="none" font-size="433.3333" font-family="sans-serif">NH</text></g></g></svg>