<svg width="151.32" viewBox="0 0 5044 3002" text-rendering="auto" stroke-width="1" stroke-opacity="1" stroke-miterlimit="10" stroke-linejoin="miter" stroke-linecap="square" stroke-dashoffset="0" stroke-dasharray="none" stroke="black" shape-rendering="auto" image-rendering="auto" height="90.06" font-weight="normal" font-style="normal" font-size="12" font-family="'Dialog'" fill-opacity="1" fill="black" color-rendering="auto" color-interpolation="auto" xmlns="http://www.w3.org/2000/svg"><g><g stroke="white" fill="white"><rect y="0" x="0" width="5044" stroke="none" height="3002"/></g><g transform="translate(32866,32758)" text-rendering="geometricPrecision" stroke-width="44" stroke-linejoin="round" stroke-linecap="round"><line y2="-30703" y1="-31850" x2="-30798" x1="-30798" fill="none"/><line y2="-30847" y1="-31705" x2="-30968" x1="-30968" fill="none"/><line y2="-32312" y1="-31850" x2="-30004" x1="-30798" fill="none"/><line y2="-31850" y1="-32422" x2="-30798" x1="-31780" fill="none"/><line y2="-30703" y1="-30240" x2="-30798" x1="-30004" fill="none"/><line y2="-30131" y1="-30703" x2="-31780" x1="-30798" fill="none"/><line y2="-31850" y1="-32312" x2="-28834" x1="-29628" fill="none"/><line y2="-31760" y1="-32107" x2="-29018" x1="-29614" fill="none"/><line y2="-32422" y1="-31850" x2="-31780" x1="-32762" fill="none"/><line y2="-32205" y1="-31774" x2="-31818" x1="-32554" fill="none"/><line y2="-30240" y1="-30703" x2="-29628" x1="-28834" fill="none"/><line y2="-30446" y1="-30792" x2="-29614" x1="-29018" fill="none"/><line y2="-30703" y1="-30131" x2="-32762" x1="-31780" fill="none"/><line y2="-30778" y1="-30347" x2="-32554" x1="-31818" fill="none"/><line y2="-30703" y1="-31850" x2="-28834" x1="-28834" fill="none"/><line y2="-31850" y1="-30703" x2="-32762" x1="-32762" fill="none"/><line y2="-32372" y1="-31850" x2="-27926" x1="-28834" fill="none"/><text y="-32242" xml:space="preserve" x="-29969" stroke="none" font-size="433.3333" font-family="sans-serif">N</text><text y="-29952" xml:space="preserve" x="-29969" stroke="none" font-size="433.3333" font-family="sans-serif">N</text></g></g></svg>