<svg width="211.32" viewBox="0 0 7044 3860" text-rendering="auto" stroke-width="1" stroke-opacity="1" stroke-miterlimit="10" stroke-linejoin="miter" stroke-linecap="square" stroke-dashoffset="0" stroke-dasharray="none" stroke="black" shape-rendering="auto" image-rendering="auto" height="115.8" font-weight="normal" font-style="normal" font-size="12" font-family="'Dialog'" fill-opacity="1" fill="black" color-rendering="auto" color-interpolation="auto" xmlns="http://www.w3.org/2000/svg"><g><g stroke="white" fill="white"><rect y="0" x="0" width="7044" stroke="none" height="3860"/></g><g transform="translate(32866,32758)" text-rendering="geometricPrecision" stroke-width="44" stroke-linejoin="round" stroke-linecap="round"><line y2="-30136" y1="-30706" x2="-30619" x1="-29634" fill="none"/><line y2="-30353" y1="-30781" x2="-30581" x1="-29842" fill="none"/><line y2="-30706" y1="-31624" x2="-29634" x1="-29634" fill="none"/><line y2="-30706" y1="-30136" x2="-31604" x1="-30619" fill="none"/><line y2="-31951" y1="-32410" x2="-29822" x1="-30619" fill="none"/><line y2="-31861" y1="-32208" x2="-30006" x1="-30604" fill="none"/><line y2="-31841" y1="-30706" x2="-31604" x1="-31604" fill="none"/><line y2="-31699" y1="-30847" x2="-31434" x1="-31434" fill="none"/><line y2="-32410" y1="-31841" x2="-30619" x1="-31604" fill="none"/><line y2="-30290" y1="-30706" x2="-28914" x1="-29634" fill="none"/><line y2="-30706" y1="-30290" x2="-27820" x1="-28539" fill="none"/><line y2="-30180" y1="-30706" x2="-26912" x1="-27820" fill="none"/><line y2="-32092" y1="-31841" x2="-32040" x1="-31604" fill="none"/><line y2="-30596" y1="-30180" x2="-26193" x1="-26912" fill="none"/><line y2="-29492" y1="-30180" x2="-26514" x1="-26912" fill="none"/><line y2="-29492" y1="-30180" x2="-27311" x1="-26912" fill="none"/><text y="-30001" xml:space="preserve" x="-28880" stroke="none" font-size="433.3333" font-family="sans-serif">O</text><text y="-30526" xml:space="preserve" x="-26158" stroke="none" font-size="433.3333" font-family="sans-serif">F</text><text y="-29094" xml:space="preserve" x="-26540" stroke="none" font-size="433.3333" font-family="sans-serif">F</text><text y="-29094" xml:space="preserve" x="-27588" stroke="none" font-size="433.3333" font-family="sans-serif">F</text><text y="-32242" xml:space="preserve" x="-32762" stroke="none" font-size="433.3333" font-family="sans-serif">NH</text><text y="-32153" xml:space="preserve" x="-32185" stroke="none" font-size="313.3333" font-family="sans-serif">2</text><text y="-31662" xml:space="preserve" x="-29787" stroke="none" font-size="433.3333" font-family="sans-serif">N</text></g></g></svg>