<svg width="222.33" viewBox="0 0 7411 7264" text-rendering="auto" stroke-width="1" stroke-opacity="1" stroke-miterlimit="10" stroke-linejoin="miter" stroke-linecap="square" stroke-dashoffset="0" stroke-dasharray="none" stroke="black" shape-rendering="auto" image-rendering="auto" height="217.92" font-weight="normal" font-style="normal" font-size="12" font-family="'Dialog'" fill-opacity="1" fill="black" color-rendering="auto" color-interpolation="auto" xmlns="http://www.w3.org/2000/svg"><g><g stroke="white" fill="white"><rect y="0" x="0" width="7411" stroke="none" height="7264"/></g><g transform="translate(32866,32758)" text-rendering="geometricPrecision" stroke-width="44" stroke-linejoin="round" stroke-linecap="round"><line y2="-29050" y1="-28446" x2="-28730" x1="-29772" fill="none"/><line y2="-29050" y1="-28446" x2="-28730" x1="-27692" fill="none"/><line y2="-29120" y1="-28669" x2="-28513" x1="-27736" fill="none"/><line y2="-30030" y1="-29050" x2="-28730" x1="-28730" fill="none"/><line y2="-27248" y1="-28446" x2="-29772" x1="-29772" fill="none"/><line y2="-28446" y1="-29050" x2="-29772" x1="-30812" fill="none"/><line y2="-28374" y1="-28828" x2="-29989" x1="-30766" fill="none"/><line y2="-27248" y1="-28446" x2="-27692" x1="-27692" fill="none"/><line y2="-28446" y1="-29050" x2="-27692" x1="-26650" fill="none"/><line y2="-30850" y1="-30359" x2="-27692" x1="-28542" fill="none"/><line y2="-27248" y1="-26756" x2="-29772" x1="-28917" fill="none"/><line y2="-26647" y1="-27248" x2="-30812" x1="-29772" fill="none"/><line y2="-26869" y1="-27320" x2="-30766" x1="-29989" fill="none"/><line y2="-29050" y1="-28446" x2="-30812" x1="-31855" fill="none"/><line y2="-26866" y1="-27248" x2="-28351" x1="-27692" fill="none"/><line y2="-29050" y1="-30249" x2="-26650" x1="-26650" fill="none"/><line y2="-30249" y1="-30850" x2="-26650" x1="-27692" fill="none"/><line y2="-30177" y1="-30628" x2="-26866" x1="-27646" fill="none"/><line y2="-27248" y1="-26647" x2="-31855" x1="-30812" fill="none"/><line y2="-28446" y1="-27248" x2="-31855" x1="-31855" fill="none"/><line y2="-28296" y1="-27398" x2="-31685" x1="-31685" fill="none"/><line y2="-31899" y1="-30850" x2="-27692" x1="-27692" fill="none"/><line y2="-25598" y1="-26647" x2="-30812" x1="-30812" fill="none"/><line y2="-26725" y1="-27248" x2="-32762" x1="-31855" fill="none"/><line y2="-26892" y1="-27308" x2="-26938" x1="-27658" fill="none"/><line y2="-26771" y1="-27187" x2="-27008" x1="-27727" fill="none"/><line y2="-28695" y1="-29111" x2="-25896" x1="-26615" fill="none"/><line y2="-28574" y1="-28990" x2="-25968" x1="-26684" fill="none"/><line y2="-32315" y1="-31899" x2="-28412" x1="-27692" fill="none"/><line y2="-31899" y1="-32315" x2="-29507" x1="-28787" fill="none"/><line y2="-32422" y1="-31899" x2="-30414" x1="-29507" fill="none"/><line y2="-31899" y1="-32422" x2="-31321" x1="-30414" fill="none"/><line y2="-32375" y1="-31959" x2="-27008" x1="-27727" fill="none"/><line y2="-32254" y1="-31838" x2="-26938" x1="-27658" fill="none"/><line y2="-32422" y1="-31899" x2="-32228" x1="-31321" fill="none"/><line y2="-30850" y1="-31899" x2="-31321" x1="-31321" fill="none"/><text y="-26546" xml:space="preserve" x="-26938" stroke="none" font-size="433.3333" font-family="sans-serif">O</text><text y="-28345" xml:space="preserve" x="-25896" stroke="none" font-size="433.3333" font-family="sans-serif">O</text><text y="-32242" xml:space="preserve" x="-28753" stroke="none" font-size="433.3333" font-family="sans-serif">O</text><text y="-32242" xml:space="preserve" x="-26938" stroke="none" font-size="433.3333" font-family="sans-serif">O</text><text y="-30070" xml:space="preserve" x="-28883" stroke="none" font-size="433.3333" font-family="sans-serif">O</text><text y="-26468" xml:space="preserve" x="-28883" stroke="none" font-size="433.3333" font-family="sans-serif">NH</text></g></g></svg>