<svg width="279.27" viewBox="0 0 9309 4684" text-rendering="auto" stroke-width="1" stroke-opacity="1" stroke-miterlimit="10" stroke-linejoin="miter" stroke-linecap="square" stroke-dashoffset="0" stroke-dasharray="none" stroke="black" shape-rendering="auto" image-rendering="auto" height="140.52" font-weight="normal" font-style="normal" font-size="12" font-family="'Dialog'" fill-opacity="1" fill="black" color-rendering="auto" color-interpolation="auto" xmlns="http://www.w3.org/2000/svg"><g><g stroke="white" fill="white"><rect y="0" x="0" width="9309" stroke="none" height="4684"/></g><g transform="translate(32866,32758)" text-rendering="geometricPrecision" stroke-width="44" stroke-linejoin="round" stroke-linecap="round"><line y2="-30327" y1="-29189" x2="-30792" x1="-30792" fill="none"/><line y2="-29189" y1="-29189" x2="-30792" x1="-28819" fill="none"/><line y2="-28620" y1="-29189" x2="-31774" x1="-30792" fill="none"/><line y2="-28839" y1="-29267" x2="-31737" x1="-30997" fill="none"/><line y2="-30896" y1="-30327" x2="-29804" x1="-30792" fill="none"/><line y2="-30327" y1="-30896" x2="-30792" x1="-31774" fill="none"/><line y2="-30252" y1="-30677" x2="-30997" x1="-31737" fill="none"/><line y2="-29189" y1="-30108" x2="-28819" x1="-28819" fill="none"/><line y2="-29189" y1="-28620" x2="-32762" x1="-31774" fill="none"/><line y2="-30434" y1="-30896" x2="-29007" x1="-29804" fill="none"/><line y2="-30896" y1="-30327" x2="-31774" x1="-32762" fill="none"/><line y2="-30327" y1="-29189" x2="-32762" x1="-32762" fill="none"/><line y2="-30186" y1="-29333" x2="-32592" x1="-32592" fill="none"/><line y2="-30850" y1="-30434" x2="-27912" x1="-28631" fill="none"/><line y2="-30434" y1="-30850" x2="-27193" x1="-27912" fill="none"/><line y2="-30743" y1="-30434" x2="-26286" x1="-26817" fill="none"/><line y2="-28686" y1="-29238" x2="-28218" x1="-28770" fill="none"/><line y2="-28588" y1="-29140" x2="-28316" x1="-28868" fill="none"/><line y2="-31725" y1="-30896" x2="-29874" x1="-29874" fill="none"/><line y2="-31725" y1="-30896" x2="-29732" x1="-29732" fill="none"/><line y2="-30434" y1="-30743" x2="-25378" x1="-25910" fill="none"/><line y2="-30743" y1="-30434" x2="-24471" x1="-25003" fill="none"/><line y2="-31679" y1="-31070" x2="-26098" x1="-26098" fill="none"/><line y2="-32315" y1="-32008" x2="-25378" x1="-25910" fill="none"/><line y2="-31327" y1="-31020" x2="-25413" x1="-25945" fill="none"/><line y2="-31205" y1="-30899" x2="-25344" x1="-25875" fill="none"/><text y="-28270" xml:space="preserve" x="-28233" stroke="none" font-size="433.3333" font-family="sans-serif">O</text><text y="-31766" xml:space="preserve" x="-29954" stroke="none" font-size="433.3333" font-family="sans-serif">O</text><text y="-30148" xml:space="preserve" x="-27158" stroke="none" font-size="433.3333" font-family="sans-serif">S</text><text y="-30671" xml:space="preserve" x="-26251" stroke="none" font-size="433.3333" font-family="sans-serif">P</text><text y="-30148" xml:space="preserve" x="-25344" stroke="none" font-size="433.3333" font-family="sans-serif">O</text><text y="-31720" xml:space="preserve" x="-26251" stroke="none" font-size="433.3333" font-family="sans-serif">O</text><text y="-31197" xml:space="preserve" x="-25344" stroke="none" font-size="433.3333" font-family="sans-serif">S</text><text y="-30671" xml:space="preserve" x="-24437" stroke="none" font-size="433.3333" font-family="sans-serif">CH</text><text y="-30581" xml:space="preserve" x="-23859" stroke="none" font-size="313.3333" font-family="sans-serif">3</text><text y="-32242" xml:space="preserve" x="-25344" stroke="none" font-size="433.3333" font-family="sans-serif">CH</text><text y="-32153" xml:space="preserve" x="-24766" stroke="none" font-size="313.3333" font-family="sans-serif">3</text><text y="-30148" xml:space="preserve" x="-28972" stroke="none" font-size="433.3333" font-family="sans-serif">N</text></g></g></svg>