<svg width="206.73" viewBox="0 0 6891 3944" text-rendering="auto" stroke-width="1" stroke-opacity="1" stroke-miterlimit="10" stroke-linejoin="miter" stroke-linecap="square" stroke-dashoffset="0" stroke-dasharray="none" stroke="black" shape-rendering="auto" image-rendering="auto" height="118.32" font-weight="normal" font-style="normal" font-size="12" font-family="'Dialog'" fill-opacity="1" fill="black" color-rendering="auto" color-interpolation="auto" xmlns="http://www.w3.org/2000/svg"><g><g stroke="white" fill="white"><rect y="0" x="0" width="6891" stroke="none" height="3944"/></g><g transform="translate(32866,32758)" text-rendering="geometricPrecision" stroke-width="44" stroke-linejoin="round" stroke-linecap="round"><line y2="-30850" y1="-31419" x2="-28519" x1="-29501" fill="none"/><line y2="-30775" y1="-31202" x2="-28727" x1="-29463" fill="none"/><line y2="-29715" y1="-30850" x2="-28519" x1="-28519" fill="none"/><line y2="-31419" y1="-30850" x2="-29501" x1="-30489" fill="none"/><line y2="-29146" y1="-29715" x2="-29501" x1="-28519" fill="none"/><line y2="-29362" y1="-29790" x2="-29463" x1="-28727" fill="none"/><line y2="-30850" y1="-29715" x2="-30489" x1="-30489" fill="none"/><line y2="-30708" y1="-29856" x2="-30318" x1="-30318" fill="none"/><line y2="-29715" y1="-29146" x2="-30489" x1="-29501" fill="none"/><line y2="-31266" y1="-30850" x2="-27799" x1="-28519" fill="none"/><line y2="-29385" y1="-29715" x2="-31055" x1="-30489" fill="none"/><line y2="-29648" y1="-29385" x2="-32190" x1="-31734" fill="none"/><line y2="-30960" y1="-31266" x2="-26892" x1="-27424" fill="none"/><line y2="-32202" y1="-31595" x2="-27612" x1="-27612" fill="none"/><text y="-31197" xml:space="preserve" x="-27762" stroke="none" font-size="433.3333" font-family="sans-serif">N</text><text y="-30671" xml:space="preserve" x="-26855" stroke="none" font-size="433.3333" font-family="sans-serif">CH</text><text y="-30581" xml:space="preserve" x="-26277" stroke="none" font-size="313.3333" font-family="sans-serif">3</text><text y="-32242" xml:space="preserve" x="-27762" stroke="none" font-size="433.3333" font-family="sans-serif">CH</text><text y="-32153" xml:space="preserve" x="-27184" stroke="none" font-size="313.3333" font-family="sans-serif">3</text><text y="-29010" xml:space="preserve" x="-31699" stroke="none" font-size="433.3333" font-family="sans-serif">Mg</text><text y="-29666" xml:space="preserve" x="-32762" stroke="none" font-size="433.3333" font-family="sans-serif">Br</text></g></g></svg>