<svg width="531.39" viewBox="0 0 17713 10306" text-rendering="auto" stroke-width="1" stroke-opacity="1" stroke-miterlimit="10" stroke-linejoin="miter" stroke-linecap="square" stroke-dashoffset="0" stroke-dasharray="none" stroke="black" shape-rendering="auto" image-rendering="auto" height="309.18" font-weight="normal" font-style="normal" font-size="12" font-family="'Dialog'" fill-opacity="1" fill="black" color-rendering="auto" color-interpolation="auto" xmlns="http://www.w3.org/2000/svg"><g><g stroke="white" fill="white"><rect y="0" x="0" width="17713" stroke="none" height="10306"/></g><g transform="translate(32866,32758)" text-rendering="geometricPrecision" stroke-width="44" stroke-linejoin="round" stroke-linecap="round"><line y2="-26609" y1="-27528" x2="-19523" x1="-19523" fill="none"/><line y2="-27528" y1="-27528" x2="-19523" x1="-20661" fill="none"/><line y2="-27987" y1="-27528" x2="-18737" x1="-19523" fill="none"/><line y2="-26392" y1="-26392" x2="-19335" x1="-17573" fill="none"/><line y2="-26392" y1="-26392" x2="-20661" x1="-19710" fill="none"/><line y2="-27528" y1="-26392" x2="-20661" x1="-20661" fill="none"/><line y2="-27528" y1="-27987" x2="-17573" x1="-18361" fill="none"/><line y2="-26392" y1="-27528" x2="-17573" x1="-17573" fill="none"/><line y2="-27528" y1="-27944" x2="-22475" x1="-21756" fill="none"/><line y2="-27346" y1="-27528" x2="-16541" x1="-17573" fill="none"/><line y2="-28513" y1="-27528" x2="-17214" x1="-17573" fill="none"/><line y2="-25789" y1="-26340" x2="-21164" x1="-20612" fill="none"/><line y2="-25887" y1="-26442" x2="-21262" x1="-20710" fill="none"/><line y2="-28054" y1="-27528" x2="-23382" x1="-22475" fill="none"/><line y2="-26699" y1="-27528" x2="-22406" x1="-22406" fill="none"/><line y2="-26699" y1="-27528" x2="-22544" x1="-22544" fill="none"/><line y2="-26283" y1="-25867" x2="-15946" x1="-16666" fill="none"/><line y2="-25038" y1="-25867" x2="-16596" x1="-16596" fill="none"/><line y2="-25038" y1="-25826" x2="-16735" x1="-16735" fill="none"/><line y2="-27747" y1="-28054" x2="-23911" x1="-23382" fill="none"/><line y2="-28054" y1="-27638" x2="-25196" x1="-24477" fill="none"/><line y2="-27528" y1="-28054" x2="-26104" x1="-25196" fill="none"/><line y2="-28880" y1="-28054" x2="-25266" x1="-25266" fill="none"/><line y2="-28880" y1="-28054" x2="-25127" x1="-25127" fill="none"/><line y2="-29668" y1="-29099" x2="-24370" x1="-23382" fill="none"/><line y2="-29746" y1="-29319" x2="-24159" x1="-23420" fill="none"/><line y2="-29099" y1="-29668" x2="-23382" x1="-22400" fill="none"/><line y2="-30807" y1="-29668" x2="-24370" x1="-24370" fill="none"/><line y2="-29668" y1="-30807" x2="-22400" x1="-22400" fill="none"/><line y2="-29810" y1="-30665" x2="-22568" x1="-22568" fill="none"/><line y2="-31376" y1="-30807" x2="-23382" x1="-24370" fill="none"/><line y2="-31156" y1="-30729" x2="-23420" x1="-24159" fill="none"/><line y2="-30807" y1="-31376" x2="-22400" x1="-23382" fill="none"/><line y2="-32202" y1="-31376" x2="-23382" x1="-23382" fill="none"/><line y2="-27834" y1="-27528" x2="-26632" x1="-26104" fill="none"/><line y2="-27528" y1="-27944" x2="-27918" x1="-27198" fill="none"/><line y2="-26482" y1="-27528" x2="-26104" x1="-26104" fill="none"/><line y2="-28054" y1="-27528" x2="-28825" x1="-27918" fill="none"/><line y2="-26699" y1="-27528" x2="-27848" x1="-27848" fill="none"/><line y2="-26699" y1="-27528" x2="-27987" x1="-27987" fill="none"/><line y2="-26482" y1="-26005" x2="-26104" x1="-26719" fill="none"/><line y2="-25924" y1="-26482" x2="-25350" x1="-26104" fill="none"/><line y2="-25566" y1="-24723" x2="-26927" x1="-26635" fill="none"/><line y2="-24723" y1="-25566" x2="-25488" x1="-25228" fill="none"/><line y2="-24723" y1="-24723" x2="-26635" x1="-25488" fill="none"/><line y2="-23680" y1="-24723" x2="-25598" x1="-25488" fill="none"/><line y2="-24503" y1="-24723" x2="-24463" x1="-25488" fill="none"/><line y2="-27528" y1="-28054" x2="-29732" x1="-28825" fill="none"/><line y2="-24180" y1="-23873" x2="-27776" x1="-27250" fill="none"/><line y2="-23047" y1="-23853" x2="-27181" x1="-27181" fill="none"/><line y2="-23047" y1="-23873" x2="-27320" x1="-27320" fill="none"/><line y2="-26392" y1="-27528" x2="-29732" x1="-29732" fill="none"/><line y2="-26534" y1="-27386" x2="-29902" x1="-29902" fill="none"/><line y2="-27528" y1="-28097" x2="-29732" x1="-30717" fill="none"/><line y2="-25823" y1="-26392" x2="-30717" x1="-29732" fill="none"/><line y2="-28097" y1="-27528" x2="-30717" x1="-31702" fill="none"/><line y2="-27877" y1="-27453" x2="-30755" x1="-31494" fill="none"/><line y2="-26392" y1="-25823" x2="-31702" x1="-30717" fill="none"/><line y2="-26468" y1="-26040" x2="-31494" x1="-30755" fill="none"/><line y2="-27528" y1="-26392" x2="-31702" x1="-31702" fill="none"/><line y2="-26086" y1="-26392" x2="-32231" x1="-31702" fill="none"/><polygon stroke-width="1" stroke="none" points=" -20661 -27528 -21221 -27773 -21152 -27892"/><polygon stroke-width="1" points=" -20661 -27528 -21221 -27773 -21152 -27892" fill="none"/><polygon stroke-width="1" stroke="none" points=" -26104 -27528 -25350 -27172 -25419 -27051"/><polygon stroke-width="1" points=" -26104 -27528 -25350 -27172 -25419 -27051" fill="none"/><polygon stroke-width="1" stroke="none" points=" -28825 -28054 -28894 -28880 -28756 -28880"/><polygon stroke-width="1" points=" -28825 -28054 -28894 -28880 -28756 -28880" fill="none"/><line y2="-25806" y1="-25927" x2="-16700" x1="-16634" fill="none"/><line y2="-25927" y1="-26023" x2="-16881" x1="-16828" fill="none"/><line y2="-26048" y1="-26119" x2="-17061" x1="-17022" fill="none"/><line y2="-26170" y1="-26216" x2="-17242" x1="-17217" fill="none"/><line y2="-26291" y1="-26312" x2="-17422" x1="-17411" fill="none"/><line y2="-28357" y1="-28357" x2="-19453" x1="-19592" fill="none"/><line y2="-28140" y1="-28140" x2="-19471" x1="-19574" fill="none"/><line y2="-27924" y1="-27924" x2="-19490" x1="-19556" fill="none"/><line y2="-27707" y1="-27707" x2="-19508" x1="-19538" fill="none"/><line y2="-29099" y1="-29099" x2="-23313" x1="-23452" fill="none"/><line y2="-28882" y1="-28882" x2="-23327" x1="-23437" fill="none"/><line y2="-28666" y1="-28666" x2="-23342" x1="-23423" fill="none"/><line y2="-28449" y1="-28449" x2="-23356" x1="-23408" fill="none"/><line y2="-28232" y1="-28232" x2="-23370" x1="-23394" fill="none"/><line y2="-23914" y1="-23833" x2="-27305" x1="-27193" fill="none"/><line y2="-24081" y1="-24017" x2="-27167" x1="-27078" fill="none"/><line y2="-24248" y1="-24201" x2="-27028" x1="-26962" fill="none"/><line y2="-24416" y1="-24385" x2="-26890" x1="-26847" fill="none"/><line y2="-24583" y1="-24569" x2="-26751" x1="-26732" fill="none"/><line y2="-26910" y1="-26785" x2="-26826" x1="-26886" fill="none"/><line y2="-26799" y1="-26706" x2="-26639" x1="-26683" fill="none"/><line y2="-26688" y1="-26628" x2="-26452" x1="-26481" fill="none"/><line y2="-26577" y1="-26549" x2="-26265" x1="-26278" fill="none"/><text y="-27874" xml:space="preserve" x="-21721" stroke="none" font-size="433.3333" font-family="sans-serif">NH</text><text y="-26303" xml:space="preserve" x="-22628" stroke="none" font-size="433.3333" font-family="sans-serif">O</text><text y="-27349" xml:space="preserve" x="-24442" stroke="none" font-size="433.3333" font-family="sans-serif">NH</text><text y="-28920" xml:space="preserve" x="-25350" stroke="none" font-size="433.3333" font-family="sans-serif">O</text><text y="-27874" xml:space="preserve" x="-27164" stroke="none" font-size="433.3333" font-family="sans-serif">NH</text><text y="-26303" xml:space="preserve" x="-28071" stroke="none" font-size="433.3333" font-family="sans-serif">O</text><text y="-28920" xml:space="preserve" x="-28978" stroke="none" font-size="433.3333" font-family="sans-serif">NH</text><text y="-28831" xml:space="preserve" x="-28400" stroke="none" font-size="313.3333" font-family="sans-serif">2</text><text y="-26213" xml:space="preserve" x="-15912" stroke="none" font-size="433.3333" font-family="sans-serif">OH</text><text y="-24639" xml:space="preserve" x="-16819" stroke="none" font-size="433.3333" font-family="sans-serif">O</text><text y="-25471" xml:space="preserve" x="-21554" stroke="none" font-size="433.3333" font-family="sans-serif">O</text><text y="-32242" xml:space="preserve" x="-23535" stroke="none" font-size="433.3333" font-family="sans-serif">OH</text><text y="-24220" xml:space="preserve" x="-28311" stroke="none" font-size="433.3333" font-family="sans-serif">OH</text><text y="-22648" xml:space="preserve" x="-27404" stroke="none" font-size="433.3333" font-family="sans-serif">O</text><text y="-25688" xml:space="preserve" x="-32762" stroke="none" font-size="433.3333" font-family="sans-serif">OH</text><text y="-26213" xml:space="preserve" x="-19676" stroke="none" font-size="433.3333" font-family="sans-serif">N</text><text y="-27918" xml:space="preserve" x="-18702" stroke="none" font-size="433.3333" font-family="sans-serif">S</text><text y="-25607" xml:space="preserve" x="-27155" stroke="none" font-size="433.3333" font-family="sans-serif">NH</text><text y="-25607" xml:space="preserve" x="-25312" stroke="none" font-size="433.3333" font-family="sans-serif">S</text><text y="-28397" xml:space="preserve" x="-19676" stroke="none" font-size="433.3333" font-family="sans-serif">H</text><text y="-26826" xml:space="preserve" x="-25350" stroke="none" font-size="433.3333" font-family="sans-serif">H</text><text y="-26762" xml:space="preserve" x="-27196" stroke="none" font-size="433.3333" font-family="sans-serif">H</text><text y="-27571" xml:space="preserve" x="-23535" stroke="none" font-style="italic" font-size="313.3333" font-family="sans-serif">R</text><text y="-27207" xml:space="preserve" x="-26505" stroke="none" font-style="italic" font-size="313.3333" font-family="sans-serif">R</text><text y="-27571" xml:space="preserve" x="-28978" stroke="none" font-style="italic" font-size="313.3333" font-family="sans-serif">R</text><text y="-27207" xml:space="preserve" x="-19427" stroke="none" font-style="italic" font-size="313.3333" font-family="sans-serif">R</text><text y="-27074" xml:space="preserve" x="-20568" stroke="none" font-style="italic" font-size="313.3333" font-family="sans-serif">R</text><text y="-26488" xml:space="preserve" x="-17971" stroke="none" font-style="italic" font-size="313.3333" font-family="sans-serif">S</text><text y="-26447" xml:space="preserve" x="-26005" stroke="none" font-style="italic" font-size="313.3333" font-family="sans-serif">R</text><text y="-24830" xml:space="preserve" x="-26554" stroke="none" font-style="italic" font-size="313.3333" font-family="sans-serif">S</text></g></g></svg>