<svg width="371.76" viewBox="0 0 12392 3329" text-rendering="auto" stroke-width="1" stroke-opacity="1" stroke-miterlimit="10" stroke-linejoin="miter" stroke-linecap="square" stroke-dashoffset="0" stroke-dasharray="none" stroke="black" shape-rendering="auto" image-rendering="auto" height="99.87" font-weight="normal" font-style="normal" font-size="12" font-family="'Dialog'" fill-opacity="1" fill="black" color-rendering="auto" color-interpolation="auto" xmlns="http://www.w3.org/2000/svg"><g><g stroke="white" fill="white"><rect y="0" x="0" width="12392" stroke="none" height="3329"/></g><g transform="translate(32866,32758)" text-rendering="geometricPrecision" stroke-width="44" stroke-linejoin="round" stroke-linecap="round"><line y2="-30850" y1="-31402" x2="-28955" x1="-29666" fill="none"/><line y2="-29787" y1="-30850" x2="-29322" x1="-28955" fill="none"/><line y2="-29978" y1="-30772" x2="-29437" x1="-29163" fill="none"/><line y2="-31408" y1="-30850" x2="-30044" x1="-30798" fill="none"/><line y2="-29787" y1="-29787" x2="-30469" x1="-29322" fill="none"/><line y2="-30850" y1="-29787" x2="-30798" x1="-30469" fill="none"/><line y2="-30769" y1="-29972" x2="-30593" x1="-30347" fill="none"/><line y2="-31376" y1="-30850" x2="-28048" x1="-28955" fill="none"/><line y2="-30960" y1="-31376" x2="-27328" x1="-28048" fill="none"/><line y2="-30890" y1="-31202" x2="-27487" x1="-28028" fill="none"/><line y2="-31266" y1="-30960" x2="-26421" x1="-26953" fill="none"/><line y2="-30850" y1="-31266" x2="-25326" x1="-26046" fill="none"/><line y2="-30784" y1="-31096" x2="-25485" x1="-26026" fill="none"/><line y2="-31376" y1="-30850" x2="-24419" x1="-25326" fill="none"/><line y2="-31266" y1="-30850" x2="-31517" x1="-30798" fill="none"/><line y2="-31376" y1="-30824" x2="-24419" x1="-23706" fill="none"/><line y2="-32439" y1="-31376" x2="-24050" x1="-24419" fill="none"/><line y2="-32251" y1="-31454" x2="-23934" x1="-24211" fill="none"/><line y2="-30818" y1="-31376" x2="-23330" x1="-22576" fill="none"/><line y2="-32439" y1="-32439" x2="-22906" x1="-24050" fill="none"/><line y2="-31376" y1="-32439" x2="-22576" x1="-22906" fill="none"/><line y2="-31460" y1="-32254" x2="-22781" x1="-23027" fill="none"/><line y2="-30960" y1="-31376" x2="-21857" x1="-22576" fill="none"/><line y2="-32202" y1="-31595" x2="-31774" x1="-31774" fill="none"/><line y2="-32202" y1="-31595" x2="-31633" x1="-31633" fill="none"/><line y2="-30899" y1="-31205" x2="-32387" x1="-31858" fill="none"/><line y2="-31020" y1="-31327" x2="-32459" x1="-31928" fill="none"/><line y2="-30024" y1="-30630" x2="-21600" x1="-21600" fill="none"/><line y2="-30024" y1="-30630" x2="-21738" x1="-21738" fill="none"/><line y2="-31327" y1="-31020" x2="-20984" x1="-21516" fill="none"/><line y2="-31205" y1="-30899" x2="-20915" x1="-21447" fill="none"/><text y="-30671" xml:space="preserve" x="-27294" stroke="none" font-size="433.3333" font-family="sans-serif">N</text><text y="-31197" xml:space="preserve" x="-26387" stroke="none" font-size="433.3333" font-family="sans-serif">N</text><text y="-31197" xml:space="preserve" x="-31855" stroke="none" font-size="433.3333" font-family="sans-serif">N</text><text y="-32242" xml:space="preserve" x="-31855" stroke="none" font-size="433.3333" font-family="sans-serif">O</text><text y="-30671" xml:space="preserve" x="-32762" stroke="none" font-size="433.3333" font-family="sans-serif">O</text><text y="-30671" xml:space="preserve" x="-21822" stroke="none" font-size="433.3333" font-family="sans-serif">N</text><text y="-29625" xml:space="preserve" x="-21822" stroke="none" font-size="433.3333" font-family="sans-serif">O</text><text y="-31197" xml:space="preserve" x="-20915" stroke="none" font-size="433.3333" font-family="sans-serif">O</text><text y="-31367" xml:space="preserve" x="-30006" stroke="none" font-size="433.3333" font-family="sans-serif">O</text><text y="-30500" xml:space="preserve" x="-23671" stroke="none" font-size="433.3333" font-family="sans-serif">O</text></g></g></svg>