<svg width="310.26" viewBox="0 0 10342 5288" text-rendering="auto" stroke-width="1" stroke-opacity="1" stroke-miterlimit="10" stroke-linejoin="miter" stroke-linecap="square" stroke-dashoffset="0" stroke-dasharray="none" stroke="black" shape-rendering="auto" image-rendering="auto" height="158.64" font-weight="normal" font-style="normal" font-size="12" font-family="'Dialog'" fill-opacity="1" fill="black" color-rendering="auto" color-interpolation="auto" xmlns="http://www.w3.org/2000/svg"><g><g stroke="white" fill="white"><rect y="0" x="0" width="10342" stroke="none" height="5288"/></g><g transform="translate(32866,32758)" text-rendering="geometricPrecision" stroke-width="44" stroke-linejoin="round" stroke-linecap="round"><line y2="-29278" y1="-29848" x2="-30792" x1="-31774" fill="none"/><line y2="-28143" y1="-29278" x2="-30792" x1="-30792" fill="none"/><line y2="-29848" y1="-29278" x2="-31774" x1="-32762" fill="none"/><line y2="-27574" y1="-28143" x2="-31774" x1="-30792" fill="none"/><line y2="-29278" y1="-28143" x2="-32762" x1="-32762" fill="none"/><line y2="-28143" y1="-27574" x2="-32762" x1="-31774" fill="none"/><line y2="-29694" y1="-29278" x2="-30073" x1="-30792" fill="none"/><line y2="-29278" y1="-29694" x2="-28978" x1="-29697" fill="none"/><line y2="-29804" y1="-29278" x2="-28071" x1="-28978" fill="none"/><line y2="-29278" y1="-29804" x2="-27164" x1="-28071" fill="none"/><line y2="-29804" y1="-29278" x2="-26257" x1="-27164" fill="none"/><line y2="-28452" y1="-29278" x2="-28909" x1="-28909" fill="none"/><line y2="-28452" y1="-29278" x2="-29047" x1="-29047" fill="none"/><line y2="-29278" y1="-29804" x2="-25350" x1="-26257" fill="none"/><line y2="-31376" y1="-31070" x2="-25350" x1="-25875" fill="none"/><line y2="-29694" y1="-29278" x2="-24630" x1="-25350" fill="none"/><line y2="-28452" y1="-29278" x2="-25280" x1="-25280" fill="none"/><line y2="-28452" y1="-29278" x2="-25419" x1="-25419" fill="none"/><line y2="-30960" y1="-31376" x2="-24630" x1="-25350" fill="none"/><line y2="-31376" y1="-30960" x2="-23535" x1="-24255" fill="none"/><line y2="-32202" y1="-31376" x2="-25419" x1="-25419" fill="none"/><line y2="-32202" y1="-31376" x2="-25280" x1="-25280" fill="none"/><line y2="-30850" y1="-31376" x2="-22628" x1="-23535" fill="none"/><line y2="-32283" y1="-31376" x2="-23010" x1="-23535" fill="none"/><line y2="-32283" y1="-31376" x2="-24058" x1="-23535" fill="none"/><line y2="-30630" y1="-30630" x2="-26187" x1="-26326" fill="none"/><line y2="-30413" y1="-30413" x2="-26205" x1="-26308" fill="none"/><line y2="-30197" y1="-30197" x2="-26224" x1="-26290" fill="none"/><line y2="-29980" y1="-29980" x2="-26242" x1="-26272" fill="none"/><text y="-29625" xml:space="preserve" x="-30038" stroke="none" font-size="433.3333" font-family="sans-serif">O</text><text y="-28054" xml:space="preserve" x="-29131" stroke="none" font-size="433.3333" font-family="sans-serif">O</text><text y="-30671" xml:space="preserve" x="-26410" stroke="none" font-size="433.3333" font-family="sans-serif">NH</text><text y="-29625" xml:space="preserve" x="-24596" stroke="none" font-size="433.3333" font-family="sans-serif">OH</text><text y="-28054" xml:space="preserve" x="-25503" stroke="none" font-size="433.3333" font-family="sans-serif">O</text><text y="-30671" xml:space="preserve" x="-24596" stroke="none" font-size="433.3333" font-family="sans-serif">O</text><text y="-32242" xml:space="preserve" x="-25503" stroke="none" font-size="433.3333" font-family="sans-serif">O</text><text y="-29322" xml:space="preserve" x="-26410" stroke="none" font-style="italic" font-size="313.3333" font-family="sans-serif">S</text></g></g></svg>