<svg width="230.91" viewBox="0 0 7697 4364" text-rendering="auto" stroke-width="1" stroke-opacity="1" stroke-miterlimit="10" stroke-linejoin="miter" stroke-linecap="square" stroke-dashoffset="0" stroke-dasharray="none" stroke="black" shape-rendering="auto" image-rendering="auto" height="130.92" font-weight="normal" font-style="normal" font-size="12" font-family="'Dialog'" fill-opacity="1" fill="black" color-rendering="auto" color-interpolation="auto" xmlns="http://www.w3.org/2000/svg"><g><g stroke="white" fill="white"><rect y="0" x="0" width="7697" stroke="none" height="4364"/></g><g transform="translate(32866,32758)" text-rendering="geometricPrecision" stroke-width="44" stroke-linejoin="round" stroke-linecap="round"><line y2="-29576" y1="-30775" x2="-28715" x1="-28715" fill="none"/><line y2="-30775" y1="-31376" x2="-28715" x1="-29755" fill="none"/><line y2="-30703" y1="-31153" x2="-28932" x1="-29709" fill="none"/><line y2="-31376" y1="-30775" x2="-27675" x1="-28715" fill="none"/><line y2="-29576" y1="-29576" x2="-28715" x1="-26826" fill="none"/><line y2="-28975" y1="-29576" x2="-29755" x1="-28715" fill="none"/><line y2="-29198" y1="-29645" x2="-29709" x1="-28932" fill="none"/><line y2="-31376" y1="-30775" x2="-29755" x1="-30795" fill="none"/><line y2="-30885" y1="-31376" x2="-26826" x1="-27675" fill="none"/><line y2="-30798" y1="-31165" x2="-27016" x1="-27652" fill="none"/><line y2="-29796" y1="-30555" x2="-26638" x1="-26638" fill="none"/><line y2="-29576" y1="-28975" x2="-30795" x1="-29755" fill="none"/><line y2="-30775" y1="-29576" x2="-30795" x1="-30795" fill="none"/><line y2="-30625" y1="-29726" x2="-30625" x1="-30625" fill="none"/><line y2="-29021" y1="-29385" x2="-26086" x1="-26450" fill="none"/><line y2="-31191" y1="-30775" x2="-31514" x1="-30795" fill="none"/><line y2="-32202" y1="-31376" x2="-27675" x1="-27675" fill="none"/><line y2="-32127" y1="-31517" x2="-31772" x1="-31772" fill="none"/><line y2="-32127" y1="-31517" x2="-31633" x1="-31633" fill="none"/><line y2="-30821" y1="-31130" x2="-32387" x1="-31855" fill="none"/><line y2="-30945" y1="-31252" x2="-32456" x1="-31925" fill="none"/><text y="-32242" xml:space="preserve" x="-27906" stroke="none" font-size="433.3333" font-family="sans-serif">Br</text><text y="-28654" xml:space="preserve" x="-26049" stroke="none" font-size="433.3333" font-family="sans-serif">CH</text><text y="-28565" xml:space="preserve" x="-25471" stroke="none" font-size="313.3333" font-family="sans-serif">3</text><text y="-31119" xml:space="preserve" x="-31855" stroke="none" font-size="433.3333" font-family="sans-serif">N</text><text y="-32167" xml:space="preserve" x="-31855" stroke="none" font-size="433.3333" font-family="sans-serif">O</text><text y="-30596" xml:space="preserve" x="-32762" stroke="none" font-size="433.3333" font-family="sans-serif">O</text><text y="-29397" xml:space="preserve" x="-26791" stroke="none" font-size="433.3333" font-family="sans-serif">N</text><text y="-30596" xml:space="preserve" x="-26791" stroke="none" font-size="433.3333" font-family="sans-serif">N</text></g></g></svg>