<svg width="93.6" viewBox="0 0 3120 3763" text-rendering="auto" stroke-width="1" stroke-opacity="1" stroke-miterlimit="10" stroke-linejoin="miter" stroke-linecap="square" stroke-dashoffset="0" stroke-dasharray="none" stroke="black" shape-rendering="auto" image-rendering="auto" height="112.89" font-weight="normal" font-style="normal" font-size="12" font-family="'Dialog'" fill-opacity="1" fill="black" color-rendering="auto" color-interpolation="auto" xmlns="http://www.w3.org/2000/svg"><g><g stroke="white" fill="white"><rect y="0" x="0" width="3120" stroke="none" height="3763"/></g><g transform="translate(32866,32758)" text-rendering="geometricPrecision" stroke-width="44" stroke-linejoin="round" stroke-linecap="round"><line y2="-30807" y1="-31376" x2="-30792" x1="-31777" fill="none"/><line y2="-29668" y1="-30807" x2="-30792" x1="-30792" fill="none"/><line y2="-31376" y1="-30807" x2="-31777" x1="-32762" fill="none"/><line y2="-29099" y1="-29668" x2="-31777" x1="-30792" fill="none"/><line y2="-30807" y1="-29668" x2="-32762" x1="-32762" fill="none"/><line y2="-29668" y1="-29099" x2="-32762" x1="-31777" fill="none"/><line y2="-31269" y1="-31390" x2="-29850" x1="-29920" fill="none"/><line y2="-31173" y1="-31269" x2="-30045" x1="-30100" fill="none"/><line y2="-31078" y1="-31149" x2="-30240" x1="-30281" fill="none"/><line y2="-30982" y1="-31028" x2="-30435" x1="-30461" fill="none"/><line y2="-30886" y1="-30907" x2="-30630" x1="-30642" fill="none"/><line y2="-32202" y1="-32202" x2="-31708" x1="-31844" fill="none"/><line y2="-31985" y1="-31985" x2="-31726" x1="-31826" fill="none"/><line y2="-31769" y1="-31769" x2="-31744" x1="-31809" fill="none"/><line y2="-31552" y1="-31552" x2="-31762" x1="-31791" fill="none"/><text y="-32242" xml:space="preserve" x="-31928" stroke="none" font-size="433.3333" font-family="sans-serif">OH</text><text y="-30483" xml:space="preserve" x="-31194" stroke="none" font-style="italic" font-size="313.3333" font-family="sans-serif">R</text><text y="-30893" xml:space="preserve" x="-31928" stroke="none" font-style="italic" font-size="313.3333" font-family="sans-serif">S</text></g></g></svg>