<svg width="105.45" viewBox="0 0 3515 4880" text-rendering="auto" stroke-width="1" stroke-opacity="1" stroke-miterlimit="10" stroke-linejoin="miter" stroke-linecap="square" stroke-dashoffset="0" stroke-dasharray="none" stroke="black" shape-rendering="auto" image-rendering="auto" height="146.4" font-weight="normal" font-style="normal" font-size="12" font-family="'Dialog'" fill-opacity="1" fill="black" color-rendering="auto" color-interpolation="auto" xmlns="http://www.w3.org/2000/svg"><g><g stroke="white" fill="white"><rect y="0" x="0" width="3515" stroke="none" height="4880"/></g><g transform="translate(32866,32758)" text-rendering="geometricPrecision" stroke-width="44" stroke-linejoin="round" stroke-linecap="round"><line y2="-29302" y1="-29718" x2="-30362" x1="-31081" fill="none"/><line y2="-29469" y1="-29718" x2="-31887" x1="-31457" fill="none"/><line y2="-30654" y1="-30044" x2="-31269" x1="-31269" fill="none"/><line y2="-29824" y1="-29302" x2="-29455" x1="-30362" fill="none"/><line y2="-28472" y1="-29302" x2="-30292" x1="-30292" fill="none"/><line y2="-28472" y1="-29302" x2="-30431" x1="-30431" fill="none"/><line y2="-31332" y1="-31070" x2="-30474" x1="-30928" fill="none"/><line y2="-31318" y1="-31070" x2="-32037" x1="-31610" fill="none"/><line y2="-32202" y1="-31093" x2="-31269" x1="-31269" fill="none"/><text y="-29645" xml:space="preserve" x="-31422" stroke="none" font-size="433.3333" font-family="sans-serif">N</text><text y="-30694" xml:space="preserve" x="-31500" stroke="none" font-size="433.3333" font-family="sans-serif">Si</text><text y="-29070" xml:space="preserve" x="-32419" stroke="none" font-size="433.3333" font-family="sans-serif">CH</text><text y="-28981" xml:space="preserve" x="-31841" stroke="none" font-size="313.3333" font-family="sans-serif">3</text><text y="-31263" xml:space="preserve" x="-30437" stroke="none" font-size="433.3333" font-family="sans-serif">CH</text><text y="-31174" xml:space="preserve" x="-29859" stroke="none" font-size="313.3333" font-family="sans-serif">3</text><text y="-31468" xml:space="preserve" x="-32762" stroke="none" font-size="433.3333" font-family="sans-serif">CH</text><text y="-31379" xml:space="preserve" x="-32185" stroke="none" font-size="313.3333" font-family="sans-serif">3</text><text y="-32242" xml:space="preserve" x="-31422" stroke="none" font-size="433.3333" font-family="sans-serif">CH</text><text y="-32153" xml:space="preserve" x="-30844" stroke="none" font-size="313.3333" font-family="sans-serif">3</text><text y="-28074" xml:space="preserve" x="-30515" stroke="none" font-size="433.3333" font-family="sans-serif">O</text></g></g></svg>