<svg width="446.85" viewBox="0 0 14895 4947" text-rendering="auto" stroke-width="1" stroke-opacity="1" stroke-miterlimit="10" stroke-linejoin="miter" stroke-linecap="square" stroke-dashoffset="0" stroke-dasharray="none" stroke="black" shape-rendering="auto" image-rendering="auto" height="148.41" font-weight="normal" font-style="normal" font-size="12" font-family="'Dialog'" fill-opacity="1" fill="black" color-rendering="auto" color-interpolation="auto" xmlns="http://www.w3.org/2000/svg"><g><g stroke="white" fill="white"><rect y="0" x="0" width="14895" stroke="none" height="4947"/></g><g transform="translate(32866,32758)" text-rendering="geometricPrecision" stroke-width="44" stroke-linejoin="round" stroke-linecap="round"><line y2="-30110" y1="-30807" x2="-25335" x1="-26234" fill="none"/><line y2="-30807" y1="-30110" x2="-26234" x1="-27175" fill="none"/><line y2="-29044" y1="-30110" x2="-25702" x1="-25335" fill="none"/><line y2="-30110" y1="-29044" x2="-27175" x1="-26849" fill="none"/><line y2="-29044" y1="-29044" x2="-26849" x1="-25702" fill="none"/><line y2="-32378" y1="-31852" x2="-27141" x1="-26234" fill="none"/><line y2="-31867" y1="-32378" x2="-28056" x1="-27141" fill="none"/><line y2="-32393" y1="-31867" x2="-28964" x1="-28056" fill="none"/><line y2="-31884" y1="-32393" x2="-29882" x1="-28964" fill="none"/><line y2="-32407" y1="-31884" x2="-30789" x1="-29882" fill="none"/><line y2="-31899" y1="-32407" x2="-31705" x1="-30789" fill="none"/><line y2="-30110" y1="-30633" x2="-23521" x1="-24428" fill="none"/><line y2="-30056" y1="-30448" x2="-23703" x1="-24385" fill="none"/><line y2="-32202" y1="-31899" x2="-32231" x1="-31705" fill="none"/><line y2="-31070" y1="-31899" x2="-31636" x1="-31636" fill="none"/><line y2="-31070" y1="-31899" x2="-31774" x1="-31774" fill="none"/><line y2="-30633" y1="-30110" x2="-22614" x1="-23521" fill="none"/><line y2="-30110" y1="-30633" x2="-21707" x1="-22614" fill="none"/><line y2="-30633" y1="-30110" x2="-20800" x1="-21707" fill="none"/><line y2="-30110" y1="-30633" x2="-19892" x1="-20800" fill="none"/><line y2="-30633" y1="-30110" x2="-18985" x1="-19892" fill="none"/><line y2="-30110" y1="-30633" x2="-18075" x1="-18985" fill="none"/><polygon stroke-width="1" stroke="none" points=" -25335 -30110 -24460 -30691 -24393 -30573"/><polygon stroke-width="1" points=" -25335 -30110 -24460 -30691 -24393 -30573" fill="none"/><polygon stroke-width="1" stroke="none" points=" -22614 -30633 -22683 -31460 -22544 -31462"/><polygon stroke-width="1" points=" -22614 -30633 -22683 -31460 -22544 -31462" fill="none"/><line y2="-31852" y1="-31852" x2="-26164" x1="-26303" fill="none"/><line y2="-31635" y1="-31635" x2="-26179" x1="-26289" fill="none"/><line y2="-31419" y1="-31419" x2="-26193" x1="-26274" fill="none"/><line y2="-31202" y1="-31202" x2="-26208" x1="-26260" fill="none"/><line y2="-30985" y1="-30985" x2="-26222" x1="-26246" fill="none"/><line y2="-30339" y1="-30209" x2="-27664" x1="-27707" fill="none"/><line y2="-30246" y1="-30169" x2="-27466" x1="-27492" fill="none"/><line y2="-30154" y1="-30129" x2="-27269" x1="-27277" fill="none"/><line y2="-28366" y1="-28446" x2="-25312" x1="-25199" fill="none"/><line y2="-28555" y1="-28612" x2="-25421" x1="-25339" fill="none"/><line y2="-28743" y1="-28779" x2="-25529" x1="-25479" fill="none"/><line y2="-28932" y1="-28945" x2="-25638" x1="-25619" fill="none"/><text y="-32242" xml:space="preserve" x="-32762" stroke="none" font-size="433.3333" font-family="sans-serif">OH</text><text y="-30671" xml:space="preserve" x="-31855" stroke="none" font-size="433.3333" font-family="sans-serif">O</text><text y="-31503" xml:space="preserve" x="-22764" stroke="none" font-size="433.3333" font-family="sans-serif">OH</text><text y="-30255" xml:space="preserve" x="-28331" stroke="none" font-size="433.3333" font-family="sans-serif">OH</text><text y="-28007" xml:space="preserve" x="-25254" stroke="none" font-size="433.3333" font-family="sans-serif">OH</text><text y="-30584" xml:space="preserve" x="-23911" stroke="none" font-style="italic" font-size="313.3333" font-family="sans-serif">E</text><text y="-30154" xml:space="preserve" x="-22764" stroke="none" font-style="italic" font-size="313.3333" font-family="sans-serif">S</text><text y="-30324" xml:space="preserve" x="-26387" stroke="none" font-style="italic" font-size="313.3333" font-family="sans-serif">R</text><text y="-29833" xml:space="preserve" x="-25757" stroke="none" font-style="italic" font-size="313.3333" font-family="sans-serif">R</text><text y="-29856" xml:space="preserve" x="-27051" stroke="none" font-style="italic" font-size="313.3333" font-family="sans-serif">S</text><text y="-29154" xml:space="preserve" x="-26086" stroke="none" font-style="italic" font-size="313.3333" font-family="sans-serif">R</text></g></g></svg>