<svg width="228.6" viewBox="0 0 7620 5372" text-rendering="auto" stroke-width="1" stroke-opacity="1" stroke-miterlimit="10" stroke-linejoin="miter" stroke-linecap="square" stroke-dashoffset="0" stroke-dasharray="none" stroke="black" shape-rendering="auto" image-rendering="auto" height="161.16" font-weight="normal" font-style="normal" font-size="12" font-family="'Dialog'" fill-opacity="1" fill="black" color-rendering="auto" color-interpolation="auto" xmlns="http://www.w3.org/2000/svg"><g><g stroke="white" fill="white"><rect y="0" x="0" width="7620" stroke="none" height="5372"/></g><g transform="translate(32866,32866)" text-rendering="geometricPrecision" stroke-width="44" stroke-linejoin="round" stroke-linecap="round"><line y2="-28438" y1="-29354" x2="-28071" x1="-28071" fill="none"/><line y2="-27976" y1="-28438" x2="-28865" x1="-28071" fill="none"/><line y2="-29683" y1="-30142" x2="-28259" x1="-29053" fill="none"/><line y2="-28438" y1="-27976" x2="-30041" x1="-29244" fill="none"/><line y2="-30142" y1="-29683" x2="-29053" x1="-29853" fill="none"/><line y2="-29354" y1="-28438" x2="-30041" x1="-30041" fill="none"/><line y2="-27912" y1="-28438" x2="-27164" x1="-28071" fill="none"/><line y2="-28438" y1="-27912" x2="-26257" x1="-27164" fill="none"/><line y2="-31191" y1="-30142" x2="-29053" x1="-29053" fill="none"/><line y2="-31714" y1="-31191" x2="-29960" x1="-29053" fill="none"/><line y2="-27912" y1="-28438" x2="-30948" x1="-30041" fill="none"/><line y2="-28438" y1="-27912" x2="-31855" x1="-30948" fill="none"/><line y2="-27912" y1="-28438" x2="-25350" x1="-26257" fill="none"/><line y2="-29484" y1="-28438" x2="-26257" x1="-26257" fill="none"/><line y2="-31191" y1="-31714" x2="-30867" x1="-29960" fill="none"/><line y2="-32762" y1="-31714" x2="-29960" x1="-29960" fill="none"/><line y2="-27912" y1="-28438" x2="-32762" x1="-31855" fill="none"/><line y2="-29484" y1="-28438" x2="-31855" x1="-31855" fill="none"/><text y="-29394" xml:space="preserve" x="-28224" stroke="none" font-size="433.3333" font-family="sans-serif">NH</text><text y="-27690" xml:space="preserve" x="-29206" stroke="none" font-size="433.3333" font-family="sans-serif">S</text><text y="-29394" xml:space="preserve" x="-30194" stroke="none" font-size="433.3333" font-family="sans-serif">S</text></g></g></svg>