<svg width="468.3" viewBox="0 0 15610 9355" text-rendering="auto" stroke-width="1" stroke-opacity="1" stroke-miterlimit="10" stroke-linejoin="miter" stroke-linecap="square" stroke-dashoffset="0" stroke-dasharray="none" stroke="black" shape-rendering="auto" image-rendering="auto" height="280.65" font-weight="normal" font-style="normal" font-size="12" font-family="'Dialog'" fill-opacity="1" fill="black" color-rendering="auto" color-interpolation="auto" xmlns="http://www.w3.org/2000/svg"><g><g stroke="white" fill="white"><rect y="0" x="0" width="15610" stroke="none" height="9355"/></g><g transform="translate(32866,32758)" text-rendering="geometricPrecision" stroke-width="44" stroke-linejoin="round" stroke-linecap="round"><line y2="-26546" y1="-27008" x2="-27773" x1="-28568" fill="none"/><line y2="-25399" y1="-26546" x2="-27773" x1="-27773" fill="none"/><line y2="-27008" y1="-26546" x2="-28943" x1="-29738" fill="none"/><line y2="-24827" y1="-25399" x2="-28756" x1="-27773" fill="none"/><line y2="-25399" y1="-26546" x2="-29738" x1="-29738" fill="none"/><line y2="-26546" y1="-27118" x2="-29738" x1="-30720" fill="none"/><line y2="-26470" y1="-26901" x2="-29946" x1="-30682" fill="none"/><line y2="-25399" y1="-24827" x2="-29738" x1="-28756" fill="none"/><line y2="-24827" y1="-25399" x2="-30720" x1="-29738" fill="none"/><line y2="-25043" y1="-25474" x2="-30682" x1="-29946" fill="none"/><line y2="-27118" y1="-26546" x2="-30720" x1="-31702" fill="none"/><line y2="-25399" y1="-24827" x2="-31702" x1="-30720" fill="none"/><line y2="-26546" y1="-25399" x2="-31702" x1="-31702" fill="none"/><line y2="-26401" y1="-25543" x2="-31532" x1="-31532" fill="none"/><line y2="-26849" y1="-26546" x2="-32231" x1="-31702" fill="none"/><line y2="-23998" y1="-24827" x2="-28686" x1="-28686" fill="none"/><line y2="-23998" y1="-24827" x2="-28825" x1="-28825" fill="none"/><line y2="-27068" y1="-28207" x2="-24896" x1="-24896" fill="none"/><line y2="-27210" y1="-28065" x2="-25066" x1="-25066" fill="none"/><line y2="-28207" y1="-28776" x2="-24896" x1="-25878" fill="none"/><line y2="-26499" y1="-27068" x2="-25878" x1="-24896" fill="none"/><line y2="-28776" y1="-28207" x2="-25878" x1="-26866" fill="none"/><line y2="-28556" y1="-28129" x2="-25919" x1="-26658" fill="none"/><line y2="-27068" y1="-26499" x2="-26866" x1="-25878" fill="none"/><line y2="-27146" y1="-26719" x2="-26658" x1="-25919" fill="none"/><line y2="-28207" y1="-27068" x2="-26866" x1="-26866" fill="none"/><line y2="-28623" y1="-28207" x2="-24177" x1="-24896" fill="none"/><line y2="-28776" y1="-28207" x2="-22097" x1="-23082" fill="none"/><line y2="-28207" y1="-28776" x2="-21112" x1="-22097" fill="none"/><line y2="-28207" y1="-27288" x2="-23082" x1="-23082" fill="none"/><line y2="-27068" y1="-28207" x2="-21112" x1="-21112" fill="none"/><line y2="-26962" y1="-26499" x2="-22894" x1="-22097" fill="none"/><line y2="-26499" y1="-27068" x2="-22097" x1="-21112" fill="none"/><line y2="-30347" y1="-29931" x2="-21190" x1="-21909" fill="none"/><line y2="-25038" y1="-25454" x2="-21380" x1="-22097" fill="none"/><line y2="-31410" y1="-30347" x2="-20823" x1="-21190" fill="none"/><line y2="-30347" y1="-29796" x2="-21190" x1="-20479" fill="none"/><line y2="-31410" y1="-31410" x2="-19676" x1="-20823" fill="none"/><line y2="-29790" y1="-30347" x2="-20103" x1="-19349" fill="none"/><line y2="-30347" y1="-31410" x2="-19349" x1="-19676" fill="none"/><line y2="-31933" y1="-31410" x2="-18769" x1="-19676" fill="none"/><line y2="-31520" y1="-31933" x2="-18049" x1="-18769" fill="none"/><polygon stroke-width="1" stroke="none" points=" -23833 -28562 -23082 -28207 -23766 -28680"/><polygon stroke-width="1" points=" -23833 -28562 -23082 -28207 -23766 -28680" fill="none"/><polygon stroke-width="1" stroke="none" points=" -22097 -26499 -22030 -25454 -22166 -25451"/><polygon stroke-width="1" points=" -22097 -26499 -22030 -25454 -22166 -25451" fill="none"/><polygon stroke-width="1" stroke="none" points=" -21112 -28207 -20427 -28680 -20358 -28562"/><polygon stroke-width="1" points=" -21112 -28207 -20427 -28680 -20358 -28562" fill="none"/><line y2="-27008" y1="-27129" x2="-26832" x1="-26901" fill="none"/><line y2="-26912" y1="-27008" x2="-27027" x1="-27082" fill="none"/><line y2="-26817" y1="-26888" x2="-27222" x1="-27262" fill="none"/><line y2="-26721" y1="-26767" x2="-27417" x1="-27443" fill="none"/><line y2="-26625" y1="-26646" x2="-27611" x1="-27623" fill="none"/><line y2="-29602" y1="-29602" x2="-22030" x1="-22166" fill="none"/><line y2="-29385" y1="-29385" x2="-22048" x1="-22148" fill="none"/><line y2="-29169" y1="-29169" x2="-22065" x1="-22130" fill="none"/><line y2="-28952" y1="-28952" x2="-22083" x1="-22112" fill="none"/><line y2="-26592" y1="-26713" x2="-20424" x1="-20358" fill="none"/><line y2="-26716" y1="-26805" x2="-20603" x1="-20554" fill="none"/><line y2="-26840" y1="-26898" x2="-20782" x1="-20751" fill="none"/><line y2="-26964" y1="-26990" x2="-20961" x1="-20947" fill="none"/><line y2="-32219" y1="-32185" x2="-19820" x1="-19956" fill="none"/><line y2="-32005" y1="-31980" x2="-19782" x1="-19882" fill="none"/><line y2="-31791" y1="-31775" x2="-19744" x1="-19808" fill="none"/><line y2="-31578" y1="-31571" x2="-19706" x1="-19734" fill="none"/><line y2="-32089" y1="-32008" x2="-21213" x1="-21325" fill="none"/><line y2="-31900" y1="-31842" x2="-21105" x1="-21185" fill="none"/><line y2="-31711" y1="-31675" x2="-20996" x1="-21046" fill="none"/><line y2="-31522" y1="-31509" x2="-20888" x1="-20906" fill="none"/><line y2="-30914" y1="-30810" x2="-21762" x1="-21848" fill="none"/><line y2="-30761" y1="-30685" x2="-21607" x1="-21670" fill="none"/><line y2="-30608" y1="-30560" x2="-21453" x1="-21493" fill="none"/><line y2="-30455" y1="-30435" x2="-21298" x1="-21315" fill="none"/><text y="-29642" xml:space="preserve" x="-22250" stroke="none" font-size="433.3333" font-family="sans-serif">O</text><text y="-28550" xml:space="preserve" x="-24142" stroke="none" font-size="433.3333" font-family="sans-serif">O</text><text y="-28550" xml:space="preserve" x="-20358" stroke="none" font-size="433.3333" font-family="sans-serif">OH</text><text y="-26366" xml:space="preserve" x="-20358" stroke="none" font-size="433.3333" font-family="sans-serif">OH</text><text y="-24749" xml:space="preserve" x="-21343" stroke="none" font-size="433.3333" font-family="sans-serif">OH</text><text y="-32089" xml:space="preserve" x="-21577" stroke="none" font-size="433.3333" font-family="sans-serif">OH</text><text y="-31231" xml:space="preserve" x="-18015" stroke="none" font-size="433.3333" font-family="sans-serif">OH</text><text y="-32242" xml:space="preserve" x="-20100" stroke="none" font-size="433.3333" font-family="sans-serif">OH</text><text y="-23599" xml:space="preserve" x="-28909" stroke="none" font-size="433.3333" font-family="sans-serif">O</text><text y="-26889" xml:space="preserve" x="-32762" stroke="none" font-size="433.3333" font-family="sans-serif">OH</text><text y="-26889" xml:space="preserve" x="-23235" stroke="none" font-size="433.3333" font-family="sans-serif">O</text><text y="-29472" xml:space="preserve" x="-20444" stroke="none" font-size="433.3333" font-family="sans-serif">O</text><text y="-26938" xml:space="preserve" x="-28909" stroke="none" font-size="433.3333" font-family="sans-serif">O</text><text y="-30841" xml:space="preserve" x="-22146" stroke="none" font-size="433.3333" font-family="sans-serif">H</text><text y="-28293" xml:space="preserve" x="-22250" stroke="none" font-style="italic" font-size="313.3333" font-family="sans-serif">R</text><text y="-27883" xml:space="preserve" x="-22986" stroke="none" font-style="italic" font-size="313.3333" font-family="sans-serif">S</text><text y="-27883" xml:space="preserve" x="-21513" stroke="none" font-style="italic" font-size="313.3333" font-family="sans-serif">S</text><text y="-27034" xml:space="preserve" x="-21513" stroke="none" font-style="italic" font-size="313.3333" font-family="sans-serif">S</text><text y="-26624" xml:space="preserve" x="-22250" stroke="none" font-style="italic" font-size="313.3333" font-family="sans-serif">R</text><text y="-29865" xml:space="preserve" x="-21351" stroke="none" font-style="italic" font-size="313.3333" font-family="sans-serif">S</text><text y="-30945" xml:space="preserve" x="-20742" stroke="none" font-style="italic" font-size="313.3333" font-family="sans-serif">R</text><text y="-30945" xml:space="preserve" x="-20063" stroke="none" font-style="italic" font-size="313.3333" font-family="sans-serif">R</text><text y="-26222" xml:space="preserve" x="-28175" stroke="none" font-style="italic" font-size="313.3333" font-family="sans-serif">S</text></g></g></svg>