<svg width="169.41" viewBox="0 0 5647 3640" text-rendering="auto" stroke-width="1" stroke-opacity="1" stroke-miterlimit="10" stroke-linejoin="miter" stroke-linecap="square" stroke-dashoffset="0" stroke-dasharray="none" stroke="black" shape-rendering="auto" image-rendering="auto" height="109.2" font-weight="normal" font-style="normal" font-size="12" font-family="'Dialog'" fill-opacity="1" fill="black" color-rendering="auto" color-interpolation="auto" xmlns="http://www.w3.org/2000/svg"><g><g stroke="white" fill="white"><rect y="0" x="0" width="5647" stroke="none" height="3640"/></g><g transform="translate(32866,32866)" text-rendering="geometricPrecision" stroke-width="44" stroke-linejoin="round" stroke-linecap="round"><line y2="-29926" y1="-30899" x2="-29559" x1="-29559" fill="none"/><line y2="-31228" y1="-31714" x2="-29746" x1="-30590" fill="none"/><line y2="-31607" y1="-31228" x2="-28712" x1="-29371" fill="none"/><line y2="-29330" y1="-29926" x2="-30590" x1="-29559" fill="none"/><line y2="-29926" y1="-29926" x2="-29559" x1="-27681" fill="none"/><line y2="-30096" y1="-30096" x2="-29325" x1="-27915" fill="none"/><line y2="-31714" y1="-31119" x2="-30590" x1="-31624" fill="none"/><line y2="-31491" y1="-31046" x2="-30633" x1="-31410" fill="none"/><line y2="-31119" y1="-31607" x2="-27493" x1="-28334" fill="none"/><line y2="-31032" y1="-31399" x2="-27684" x1="-28314" fill="none"/><line y2="-29926" y1="-29330" x2="-31624" x1="-30590" fill="none"/><line y2="-30001" y1="-29553" x2="-31410" x1="-30633" fill="none"/><line y2="-30145" y1="-31119" x2="-27493" x1="-27493" fill="none"/><line y2="-31119" y1="-29926" x2="-31624" x1="-31624" fill="none"/><line y2="-32762" y1="-31714" x2="-30590" x1="-30590" fill="none"/><line y2="-31445" y1="-31119" x2="-32190" x1="-31624" fill="none"/><text y="-31465" xml:space="preserve" x="-32762" stroke="none" font-size="433.3333" font-family="sans-serif">Br</text><text y="-30940" xml:space="preserve" x="-29712" stroke="none" font-size="433.3333" font-family="sans-serif">N</text><text y="-31535" xml:space="preserve" x="-28675" stroke="none" font-size="433.3333" font-family="sans-serif">N</text><text y="-29746" xml:space="preserve" x="-27643" stroke="none" font-size="433.3333" font-family="sans-serif">N</text></g></g></svg>