<svg width="279.81" viewBox="0 0 9327 4363" text-rendering="auto" stroke-width="1" stroke-opacity="1" stroke-miterlimit="10" stroke-linejoin="miter" stroke-linecap="square" stroke-dashoffset="0" stroke-dasharray="none" stroke="black" shape-rendering="auto" image-rendering="auto" height="130.89" font-weight="normal" font-style="normal" font-size="12" font-family="'Dialog'" fill-opacity="1" fill="black" color-rendering="auto" color-interpolation="auto" xmlns="http://www.w3.org/2000/svg"><g><g stroke="white" fill="white"><rect y="0" x="0" width="9327" stroke="none" height="4363"/></g><g transform="translate(32866,32758)" text-rendering="geometricPrecision" stroke-width="44" stroke-linejoin="round" stroke-linecap="round"><line y2="-29345" y1="-30489" x2="-28831" x1="-28831" fill="none"/><line y2="-31064" y1="-30489" x2="-27848" x1="-28831" fill="none"/><line y2="-30844" y1="-30414" x2="-27886" x1="-28623" fill="none"/><line y2="-30489" y1="-31555" x2="-28831" x1="-29241" fill="none"/><line y2="-28880" y1="-29345" x2="-29625" x1="-28831" fill="none"/><line y2="-29345" y1="-28770" x2="-28831" x1="-27848" fill="none"/><line y2="-29420" y1="-28990" x2="-28623" x1="-27886" fill="none"/><line y2="-30489" y1="-31064" x2="-26866" x1="-27848" fill="none"/><line y2="-31555" y1="-31555" x2="-29241" x1="-30388" fill="none"/><line y2="-29345" y1="-28880" x2="-30798" x1="-30004" fill="none"/><line y2="-28770" y1="-29345" x2="-27848" x1="-26866" fill="none"/><line y2="-29345" y1="-30489" x2="-26866" x1="-26866" fill="none"/><line y2="-29486" y1="-30347" x2="-27037" x1="-27037" fill="none"/><line y2="-31555" y1="-30489" x2="-30388" x1="-30798" fill="none"/><line y2="-30489" y1="-29345" x2="-30798" x1="-30798" fill="none"/><line y2="-28770" y1="-29345" x2="-31780" x1="-30798" fill="none"/><line y2="-28990" y1="-29420" x2="-31743" x1="-31006" fill="none"/><line y2="-30489" y1="-31064" x2="-30798" x1="-31780" fill="none"/><line y2="-30414" y1="-30844" x2="-31006" x1="-31743" fill="none"/><line y2="-29345" y1="-28770" x2="-32762" x1="-31780" fill="none"/><line y2="-31064" y1="-30489" x2="-31780" x1="-32762" fill="none"/><line y2="-30489" y1="-29345" x2="-32762" x1="-32762" fill="none"/><line y2="-30347" y1="-29486" x2="-32592" x1="-32592" fill="none"/><line y2="-31015" y1="-30489" x2="-25959" x1="-26866" fill="none"/><line y2="-32164" y1="-31514" x2="-30885" x1="-30446" fill="none"/><line y2="-32242" y1="-31592" x2="-30766" x1="-30330" fill="none"/><line y2="-30489" y1="-31015" x2="-25052" x1="-25959" fill="none"/><line y2="-32060" y1="-31015" x2="-25959" x1="-25959" fill="none"/><line y2="-30905" y1="-30489" x2="-24333" x1="-25052" fill="none"/><line y2="-29663" y1="-30489" x2="-24983" x1="-24983" fill="none"/><line y2="-29663" y1="-30489" x2="-25121" x1="-25121" fill="none"/><text y="-30836" xml:space="preserve" x="-24298" stroke="none" font-size="433.3333" font-family="sans-serif">OH</text><text y="-29264" xml:space="preserve" x="-25205" stroke="none" font-size="433.3333" font-family="sans-serif">O</text><text y="-32242" xml:space="preserve" x="-31124" stroke="none" font-size="433.3333" font-family="sans-serif">O</text><text y="-28591" xml:space="preserve" x="-29966" stroke="none" font-size="433.3333" font-family="sans-serif">S</text></g></g></svg>