<svg width="227.01" viewBox="0 0 7567 3719" text-rendering="auto" stroke-width="1" stroke-opacity="1" stroke-miterlimit="10" stroke-linejoin="miter" stroke-linecap="square" stroke-dashoffset="0" stroke-dasharray="none" stroke="black" shape-rendering="auto" image-rendering="auto" height="111.57" font-weight="normal" font-style="normal" font-size="12" font-family="'Dialog'" fill-opacity="1" fill="black" color-rendering="auto" color-interpolation="auto" xmlns="http://www.w3.org/2000/svg"><g><g stroke="white" fill="white"><rect y="0" x="0" width="7567" stroke="none" height="3719"/></g><g transform="translate(32866,32758)" text-rendering="geometricPrecision" stroke-width="44" stroke-linejoin="round" stroke-linecap="round"><line y2="-30847" y1="-31416" x2="-28747" x1="-29732" fill="none"/><line y2="-30772" y1="-31200" x2="-28955" x1="-29694" fill="none"/><line y2="-29712" y1="-30847" x2="-28747" x1="-28747" fill="none"/><line y2="-31416" y1="-30847" x2="-29732" x1="-30717" fill="none"/><line y2="-29143" y1="-29712" x2="-29732" x1="-28747" fill="none"/><line y2="-29359" y1="-29787" x2="-29694" x1="-28955" fill="none"/><line y2="-30847" y1="-29712" x2="-30717" x1="-30717" fill="none"/><line y2="-30706" y1="-29853" x2="-30547" x1="-30547" fill="none"/><line y2="-29712" y1="-29143" x2="-30717" x1="-29732" fill="none"/><line y2="-31373" y1="-30847" x2="-27840" x1="-28747" fill="none"/><line y2="-29186" y1="-29712" x2="-31624" x1="-30717" fill="none"/><line y2="-29515" y1="-29186" x2="-32190" x1="-31624" fill="none"/><line y2="-32465" y1="-31416" x2="-29732" x1="-29732" fill="none"/><line y2="-30957" y1="-31373" x2="-27120" x1="-27840" fill="none"/><line y2="-31263" y1="-30957" x2="-26213" x1="-26745" fill="none"/><line y2="-32202" y1="-31373" x2="-27909" x1="-27909" fill="none"/><line y2="-32202" y1="-31373" x2="-27770" x1="-27770" fill="none"/><text y="-30668" xml:space="preserve" x="-27086" stroke="none" font-size="433.3333" font-family="sans-serif">O</text><text y="-32242" xml:space="preserve" x="-27993" stroke="none" font-size="433.3333" font-family="sans-serif">O</text><text y="-31194" xml:space="preserve" x="-26179" stroke="none" font-size="433.3333" font-family="sans-serif">CH</text><text y="-31104" xml:space="preserve" x="-25601" stroke="none" font-size="313.3333" font-family="sans-serif">3</text><text y="-29533" xml:space="preserve" x="-32762" stroke="none" font-size="433.3333" font-family="sans-serif">Br</text></g></g></svg>