<svg width="349.44" viewBox="0 0 11648 5321" text-rendering="auto" stroke-width="1" stroke-opacity="1" stroke-miterlimit="10" stroke-linejoin="miter" stroke-linecap="square" stroke-dashoffset="0" stroke-dasharray="none" stroke="black" shape-rendering="auto" image-rendering="auto" height="159.63" font-weight="normal" font-style="normal" font-size="12" font-family="'Dialog'" fill-opacity="1" fill="black" color-rendering="auto" color-interpolation="auto" xmlns="http://www.w3.org/2000/svg"><g><g stroke="white" fill="white"><rect y="0" x="0" width="11648" stroke="none" height="5321"/></g><g transform="translate(32866,32866)" text-rendering="geometricPrecision" stroke-width="44" stroke-linejoin="round" stroke-linecap="round"><line y2="-29697" y1="-30220" x2="-24200" x1="-25107" fill="none"/><line y2="-29697" y1="-30220" x2="-26014" x1="-25107" fill="none"/><line y2="-31055" y1="-30220" x2="-26554" x1="-25107" fill="none"/><line y2="-31049" y1="-30220" x2="-25107" x1="-25107" fill="none"/><line y2="-30220" y1="-29697" x2="-23293" x1="-24200" fill="none"/><line y2="-28649" y1="-29697" x2="-24200" x1="-24200" fill="none"/><line y2="-28126" y1="-28649" x2="-23293" x1="-24200" fill="none"/><line y2="-28559" y1="-29697" x2="-26014" x1="-26014" fill="none"/><line y2="-28701" y1="-29556" x2="-26184" x1="-26184" fill="none"/><line y2="-29697" y1="-30266" x2="-26014" x1="-26996" fill="none"/><line y2="-27990" y1="-28559" x2="-26996" x1="-26014" fill="none"/><line y2="-30266" y1="-29697" x2="-26996" x1="-27984" fill="none"/><line y2="-30047" y1="-29619" x2="-27034" x1="-27773" fill="none"/><line y2="-28559" y1="-27990" x2="-27984" x1="-26996" fill="none"/><line y2="-28637" y1="-28210" x2="-27773" x1="-27034" fill="none"/><line y2="-29697" y1="-28559" x2="-27984" x1="-27984" fill="none"/><line y2="-28143" y1="-28559" x2="-28704" x1="-27984" fill="none"/><line y2="-28559" y1="-28143" x2="-29798" x1="-29079" fill="none"/><line y2="-28036" y1="-28559" x2="-30706" x1="-29798" fill="none"/><line y2="-28452" y1="-28036" x2="-31425" x1="-30706" fill="none"/><line y2="-31055" y1="-32193" x2="-26554" x1="-26554" fill="none"/><line y2="-31200" y1="-32052" x2="-26722" x1="-26722" fill="none"/><line y2="-30489" y1="-31055" x2="-27536" x1="-26554" fill="none"/><line y2="-32193" y1="-32762" x2="-26554" x1="-27536" fill="none"/><line y2="-31055" y1="-30489" x2="-28524" x1="-27536" fill="none"/><line y2="-31133" y1="-30706" x2="-28314" x1="-27574" fill="none"/><line y2="-32762" y1="-32193" x2="-27536" x1="-28524" fill="none"/><line y2="-32543" y1="-32118" x2="-27574" x1="-28314" fill="none"/><line y2="-32193" y1="-31055" x2="-28524" x1="-28524" fill="none"/><line y2="-31358" y1="-30220" x2="-23293" x1="-23293" fill="none"/><line y2="-31217" y1="-30365" x2="-23122" x1="-23122" fill="none"/><line y2="-30220" y1="-29651" x2="-23293" x1="-22305" fill="none"/><line y2="-31928" y1="-31358" x2="-22305" x1="-23293" fill="none"/><line y2="-29651" y1="-30220" x2="-22305" x1="-21322" fill="none"/><line y2="-29871" y1="-30298" x2="-22267" x1="-21528" fill="none"/><line y2="-31358" y1="-31928" x2="-21322" x1="-22305" fill="none"/><line y2="-31283" y1="-31708" x2="-21528" x1="-22267" fill="none"/><line y2="-30220" y1="-31358" x2="-21322" x1="-21322" fill="none"/><line y2="-28204" y1="-28452" x2="-32231" x1="-31800" fill="none"/><line y2="-29388" y1="-28779" x2="-31613" x1="-31613" fill="none"/><text y="-31090" xml:space="preserve" x="-25257" stroke="none" font-size="433.3333" font-family="sans-serif">OH</text><text y="-27857" xml:space="preserve" x="-29042" stroke="none" font-size="433.3333" font-family="sans-serif">O</text><text y="-28380" xml:space="preserve" x="-31763" stroke="none" font-size="433.3333" font-family="sans-serif">N</text><text y="-27805" xml:space="preserve" x="-32762" stroke="none" font-size="433.3333" font-family="sans-serif">CH</text><text y="-27716" xml:space="preserve" x="-32185" stroke="none" font-size="313.3333" font-family="sans-serif">3</text><text y="-29429" xml:space="preserve" x="-31763" stroke="none" font-size="433.3333" font-family="sans-serif">CH</text><text y="-29339" xml:space="preserve" x="-31185" stroke="none" font-size="313.3333" font-family="sans-serif">3</text></g></g></svg>