<svg width="200.94" viewBox="0 0 6698 8504" text-rendering="auto" stroke-width="1" stroke-opacity="1" stroke-miterlimit="10" stroke-linejoin="miter" stroke-linecap="square" stroke-dashoffset="0" stroke-dasharray="none" stroke="black" shape-rendering="auto" image-rendering="auto" height="255.12" font-weight="normal" font-style="normal" font-size="12" font-family="'Dialog'" fill-opacity="1" fill="black" color-rendering="auto" color-interpolation="auto" xmlns="http://www.w3.org/2000/svg"><g><g stroke="white" fill="white"><rect y="0" x="0" width="6698" stroke="none" height="8504"/></g><g transform="translate(32866,32866)" text-rendering="geometricPrecision" stroke-width="44" stroke-linejoin="round" stroke-linecap="round"><line y2="-26187" y1="-27250" x2="-28834" x1="-29244" fill="none"/><line y2="-27250" y1="-27250" x2="-29244" x1="-30200" fill="none"/><line y2="-27080" y1="-27080" x2="-29362" x1="-30082" fill="none"/><line y2="-25040" y1="-26187" x2="-28834" x1="-28834" fill="none"/><line y2="-26759" y1="-26187" x2="-27851" x1="-28834" fill="none"/><line y2="-26540" y1="-26112" x2="-27886" x1="-28626" fill="none"/><line y2="-27031" y1="-26187" x2="-30472" x1="-30798" fill="none"/><line y2="-24466" y1="-25040" x2="-29816" x1="-28834" fill="none"/><line y2="-25040" y1="-24466" x2="-28834" x1="-27851" fill="none"/><line y2="-25116" y1="-24685" x2="-28626" x1="-27886" fill="none"/><line y2="-26187" y1="-26759" x2="-26869" x1="-27851" fill="none"/><line y2="-25040" y1="-26187" x2="-30798" x1="-30798" fill="none"/><line y2="-26187" y1="-26759" x2="-30798" x1="-31780" fill="none"/><line y2="-26112" y1="-26540" x2="-31009" x1="-31746" fill="none"/><line y2="-25040" y1="-24466" x2="-30798" x1="-29816" fill="none"/><line y2="-24466" y1="-25040" x2="-27851" x1="-26869" fill="none"/><line y2="-25040" y1="-26187" x2="-26869" x1="-26869" fill="none"/><line y2="-25182" y1="-26043" x2="-27040" x1="-27040" fill="none"/><line y2="-24466" y1="-25040" x2="-31780" x1="-30798" fill="none"/><line y2="-24685" y1="-25116" x2="-31746" x1="-31009" fill="none"/><line y2="-26759" y1="-26187" x2="-31780" x1="-32762" fill="none"/><line y2="-25040" y1="-24466" x2="-32762" x1="-31780" fill="none"/><line y2="-26187" y1="-25040" x2="-32762" x1="-32762" fill="none"/><line y2="-26043" y1="-25182" x2="-32595" x1="-32595" fill="none"/><line y2="-27773" y1="-27250" x2="-28337" x1="-29244" fill="none"/><line y2="-28602" y1="-27773" x2="-28337" x1="-28337" fill="none"/><line y2="-28822" y1="-28819" x2="-28149" x1="-27198" fill="none"/><line y2="-29804" y1="-29042" x2="-28906" x1="-28464" fill="none"/><line y2="-28819" y1="-30792" x2="-27198" x1="-27198" fill="none"/><line y2="-30792" y1="-29804" x2="-28337" x1="-28906" fill="none"/><line y2="-30792" y1="-30792" x2="-28337" x1="-27198" fill="none"/><line y2="-30792" y1="-31774" x2="-27198" x1="-26629" fill="none"/><line y2="-31000" y1="-31737" x2="-27274" x1="-26849" fill="none"/><line y2="-31774" y1="-30792" x2="-28906" x1="-28337" fill="none"/><line y2="-31737" y1="-31000" x2="-28686" x1="-28259" fill="none"/><line y2="-31774" y1="-32762" x2="-26629" x1="-27198" fill="none"/><line y2="-32762" y1="-31774" x2="-28337" x1="-28906" fill="none"/><line y2="-32762" y1="-32762" x2="-27198" x1="-28337" fill="none"/><line y2="-32592" y1="-32592" x2="-27340" x1="-28195" fill="none"/><line y2="-28316" y1="-28868" x2="-26598" x1="-27149" fill="none"/><line y2="-28218" y1="-28770" x2="-26696" x1="-27248" fill="none"/><line y2="-29735" y1="-29735" x2="-29764" x1="-28906" fill="none"/><line y2="-29874" y1="-29874" x2="-29764" x1="-28906" fill="none"/><text y="-27900" xml:space="preserve" x="-26609" stroke="none" font-size="433.3333" font-family="sans-serif">O</text><text y="-29625" xml:space="preserve" x="-30105" stroke="none" font-size="433.3333" font-family="sans-serif">O</text><text y="-27071" xml:space="preserve" x="-30541" stroke="none" font-size="433.3333" font-family="sans-serif">N</text><text y="-28643" xml:space="preserve" x="-28490" stroke="none" font-size="433.3333" font-family="sans-serif">N</text></g></g></svg>