<svg width="169.05" viewBox="0 0 5635 3947" text-rendering="auto" stroke-width="1" stroke-opacity="1" stroke-miterlimit="10" stroke-linejoin="miter" stroke-linecap="square" stroke-dashoffset="0" stroke-dasharray="none" stroke="black" shape-rendering="auto" image-rendering="auto" height="118.41" font-weight="normal" font-style="normal" font-size="12" font-family="'Dialog'" fill-opacity="1" fill="black" color-rendering="auto" color-interpolation="auto" xmlns="http://www.w3.org/2000/svg"><g><g stroke="white" fill="white"><rect y="0" x="0" width="5635" stroke="none" height="3947"/></g><g transform="translate(32866,32758)" text-rendering="geometricPrecision" stroke-width="44" stroke-linejoin="round" stroke-linecap="round"><line y2="-30847" y1="-31416" x2="-29654" x1="-30636" fill="none"/><line y2="-30772" y1="-31200" x2="-29859" x1="-30599" fill="none"/><line y2="-29712" y1="-30847" x2="-29654" x1="-29654" fill="none"/><line y2="-31416" y1="-30847" x2="-30636" x1="-31624" fill="none"/><line y2="-29143" y1="-29712" x2="-30636" x1="-29654" fill="none"/><line y2="-29359" y1="-29787" x2="-30599" x1="-29859" fill="none"/><line y2="-30847" y1="-29712" x2="-31624" x1="-31624" fill="none"/><line y2="-30706" y1="-29853" x2="-31454" x1="-31454" fill="none"/><line y2="-29712" y1="-29143" x2="-31624" x1="-30636" fill="none"/><line y2="-31373" y1="-30847" x2="-28747" x1="-29654" fill="none"/><line y2="-32465" y1="-31416" x2="-30636" x1="-30636" fill="none"/><line y2="-29385" y1="-29712" x2="-32188" x1="-31624" fill="none"/><line y2="-30957" y1="-31373" x2="-28028" x1="-28747" fill="none"/><line y2="-32202" y1="-31373" x2="-28816" x1="-28816" fill="none"/><line y2="-32202" y1="-31373" x2="-28675" x1="-28675" fill="none"/><text y="-30668" xml:space="preserve" x="-27990" stroke="none" font-size="433.3333" font-family="sans-serif">OH</text><text y="-32242" xml:space="preserve" x="-28897" stroke="none" font-size="433.3333" font-family="sans-serif">O</text><text y="-29007" xml:space="preserve" x="-32762" stroke="none" font-size="433.3333" font-family="sans-serif">Cl</text></g></g></svg>