<svg width="420.84" viewBox="0 0 14028 6091" text-rendering="auto" stroke-width="1" stroke-opacity="1" stroke-miterlimit="10" stroke-linejoin="miter" stroke-linecap="square" stroke-dashoffset="0" stroke-dasharray="none" stroke="black" shape-rendering="auto" image-rendering="auto" height="182.73" font-weight="normal" font-style="normal" font-size="12" font-family="'Dialog'" fill-opacity="1" fill="black" color-rendering="auto" color-interpolation="auto" xmlns="http://www.w3.org/2000/svg"><g><g stroke="white" fill="white"><rect y="0" x="0" width="14028" stroke="none" height="6091"/></g><g transform="translate(32866,32758)" text-rendering="geometricPrecision" stroke-width="44" stroke-linejoin="round" stroke-linecap="round"><line y2="-30662" y1="-30662" x2="-31286" x1="-30139" fill="none"/><line y2="-30833" y1="-30833" x2="-31145" x1="-30284" fill="none"/><line y2="-30662" y1="-31725" x2="-30139" x1="-29772" fill="none"/><line y2="-31725" y1="-30662" x2="-31616" x1="-31286" fill="none"/><line y2="-31725" y1="-32277" x2="-29772" x1="-30483" fill="none"/><line y2="-32283" y1="-31725" x2="-30862" x1="-31616" fill="none"/><line y2="-31925" y1="-31662" x2="-32445" x1="-31636" fill="none"/><line y2="-32058" y1="-31792" x2="-32401" x1="-31592" fill="none"/><line y2="-30139" y1="-29221" x2="-29232" x1="-29232" fill="none"/><line y2="-30708" y1="-30139" x2="-28250" x1="-29232" fill="none"/><line y2="-28894" y1="-28432" x2="-29044" x1="-28250" fill="none"/><line y2="-30139" y1="-30708" x2="-27262" x1="-28250" fill="none"/><line y2="-28432" y1="-29001" x2="-28250" x1="-27262" fill="none"/><line y2="-29001" y1="-30139" x2="-27262" x1="-27262" fill="none"/><line y2="-29143" y1="-29998" x2="-27432" x1="-27432" fill="none"/><line y2="-28478" y1="-29001" x2="-26355" x1="-27262" fill="none"/><line y2="-29001" y1="-28478" x2="-25448" x1="-26355" fill="none"/><line y2="-28478" y1="-29001" x2="-24541" x1="-25448" fill="none"/><line y2="-29001" y1="-28478" x2="-23634" x1="-24541" fill="none"/><line y2="-28816" y1="-28423" x2="-23677" x1="-24359" fill="none"/><line y2="-28478" y1="-29001" x2="-22726" x1="-23634" fill="none"/><line y2="-29001" y1="-28478" x2="-21819" x1="-22726" fill="none"/><line y2="-28478" y1="-29001" x2="-20912" x1="-21819" fill="none"/><line y2="-30050" y1="-29001" x2="-23634" x1="-23634" fill="none"/><line y2="-29047" y1="-28478" x2="-19927" x1="-20912" fill="none"/><line y2="-28478" y1="-27340" x2="-20912" x1="-20912" fill="none"/><line y2="-28337" y1="-27482" x2="-20742" x1="-20742" fill="none"/><line y2="-28478" y1="-29047" x2="-18942" x1="-19927" fill="none"/><line y2="-27340" y1="-26771" x2="-20912" x1="-19927" fill="none"/><line y2="-27340" y1="-28478" x2="-18942" x1="-18942" fill="none"/><line y2="-26771" y1="-27340" x2="-19927" x1="-18942" fill="none"/><line y2="-29871" y1="-29047" x2="-20571" x1="-19927" fill="none"/><line y2="-29836" y1="-29047" x2="-19240" x1="-19927" fill="none"/><line y2="-26817" y1="-27340" x2="-21819" x1="-20912" fill="none"/><polygon stroke-width="1" stroke="none" points=" -30174 -30602 -29232 -30139 -30108 -30723"/><polygon stroke-width="1" points=" -30174 -30602 -29232 -30139 -30108 -30723" fill="none"/><polygon stroke-width="1" stroke="none" points=" -29772 -31725 -28972 -32029 -28935 -31893"/><polygon stroke-width="1" points=" -29772 -31725 -28972 -32029 -28935 -31893" fill="none"/><line y2="-27603" y1="-27606" x2="-28319" x1="-28181" fill="none"/><line y2="-27820" y1="-27822" x2="-28301" x1="-28199" fill="none"/><line y2="-28037" y1="-28039" x2="-28283" x1="-28217" fill="none"/><line y2="-28254" y1="-28255" x2="-28265" x1="-28235" fill="none"/><text y="-31835" xml:space="preserve" x="-28917" stroke="none" font-size="433.3333" font-family="sans-serif">OH</text><text y="-31873" xml:space="preserve" x="-32762" stroke="none" font-size="433.3333" font-family="sans-serif">O</text><text y="-27207" xml:space="preserve" x="-28403" stroke="none" font-size="433.3333" font-family="sans-serif">OH</text><text y="-32242" xml:space="preserve" x="-30824" stroke="none" font-size="433.3333" font-family="sans-serif">O</text><text y="-28822" xml:space="preserve" x="-29385" stroke="none" font-size="433.3333" font-family="sans-serif">O</text><text y="-28949" xml:space="preserve" x="-24466" stroke="none" font-style="italic" font-size="313.3333" font-family="sans-serif">E</text><text y="-31451" xml:space="preserve" x="-30194" stroke="none" font-style="italic" font-size="313.3333" font-family="sans-serif">R</text><text y="-29816" xml:space="preserve" x="-29137" stroke="none" font-style="italic" font-size="313.3333" font-family="sans-serif">R</text><text y="-28556" xml:space="preserve" x="-28403" stroke="none" font-style="italic" font-size="313.3333" font-family="sans-serif">R</text></g></g></svg>