<svg width="345.06" viewBox="0 0 11502 10329" text-rendering="auto" stroke-width="1" stroke-opacity="1" stroke-miterlimit="10" stroke-linejoin="miter" stroke-linecap="square" stroke-dashoffset="0" stroke-dasharray="none" stroke="black" shape-rendering="auto" image-rendering="auto" height="309.87" font-weight="normal" font-style="normal" font-size="12" font-family="'Dialog'" fill-opacity="1" fill="black" color-rendering="auto" color-interpolation="auto" xmlns="http://www.w3.org/2000/svg"><g><g stroke="white" fill="white"><rect y="0" x="0" width="11502" stroke="none" height="10329"/></g><g transform="translate(32866,32758)" text-rendering="geometricPrecision" stroke-width="44" stroke-linejoin="round" stroke-linecap="round"><line y2="-29668" y1="-29209" x2="-26502" x1="-25702" fill="none"/><line y2="-29209" y1="-29668" x2="-25326" x1="-24532" fill="none"/><line y2="-30807" y1="-29668" x2="-26502" x1="-26502" fill="none"/><line y2="-29099" y1="-29668" x2="-27484" x1="-26502" fill="none"/><line y2="-29319" y1="-29744" x2="-27447" x1="-26710" fill="none"/><line y2="-30807" y1="-29668" x2="-24532" x1="-24532" fill="none"/><line y2="-29668" y1="-29209" x2="-24532" x1="-23732" fill="none"/><line y2="-29758" y1="-29414" x2="-24344" x1="-23746" fill="none"/><line y2="-31266" y1="-30807" x2="-25702" x1="-26502" fill="none"/><line y2="-30807" y1="-31376" x2="-26502" x1="-27484" fill="none"/><line y2="-30729" y1="-31156" x2="-26710" x1="-27447" fill="none"/><line y2="-29668" y1="-29099" x2="-28472" x1="-27484" fill="none"/><line y2="-30807" y1="-31266" x2="-24532" x1="-25326" fill="none"/><line y2="-30717" y1="-31061" x2="-24717" x1="-25312" fill="none"/><line y2="-31376" y1="-30807" x2="-23544" x1="-24532" fill="none"/><line y2="-29209" y1="-29668" x2="-23356" x1="-22559" fill="none"/><line y2="-31376" y1="-30807" x2="-27484" x1="-28472" fill="none"/><line y2="-30807" y1="-29668" x2="-28472" x1="-28472" fill="none"/><line y2="-30665" y1="-29810" x2="-28302" x1="-28302" fill="none"/><line y2="-30914" y1="-31376" x2="-22747" x1="-23544" fill="none"/><line y2="-29668" y1="-30587" x2="-22559" x1="-22559" fill="none"/><line y2="-28054" y1="-28880" x2="-25514" x1="-25514" fill="none"/><line y2="-27513" y1="-28054" x2="-26413" x1="-25514" fill="none"/><line y2="-29146" y1="-29668" x2="-29380" x1="-28472" fill="none"/><line y2="-31330" y1="-30807" x2="-29380" x1="-28472" fill="none"/><line y2="-32202" y1="-31376" x2="-23613" x1="-23613" fill="none"/><line y2="-32202" y1="-31376" x2="-23475" x1="-23475" fill="none"/><line y2="-29313" y1="-29729" x2="-21805" x1="-22524" fill="none"/><line y2="-29192" y1="-29608" x2="-21877" x1="-22594" fill="none"/><line y2="-25965" y1="-27513" x2="-26413" x1="-26413" fill="none"/><line y2="-27513" y1="-27929" x2="-28227" x1="-27508" fill="none"/><line y2="-25439" y1="-25965" x2="-27320" x1="-26413" fill="none"/><line y2="-25965" y1="-25549" x2="-24598" x1="-25318" fill="none"/><line y2="-28036" y1="-27513" x2="-29134" x1="-28227" fill="none"/><line y2="-27499" y1="-28036" x2="-30030" x1="-29134" fill="none"/><line y2="-28022" y1="-27499" x2="-30937" x1="-30030" fill="none"/><line y2="-26684" y1="-27513" x2="-28158" x1="-28158" fill="none"/><line y2="-26684" y1="-27513" x2="-28296" x1="-28296" fill="none"/><line y2="-25965" y1="-25439" x2="-28227" x1="-27320" fill="none"/><line y2="-25549" y1="-25965" x2="-28946" x1="-28227" fill="none"/><line y2="-25965" y1="-25549" x2="-30041" x1="-29322" fill="none"/><line y2="-23853" y1="-24281" x2="-26421" x1="-27132" fill="none"/><line y2="-25425" y1="-25965" x2="-23700" x1="-24598" fill="none"/><line y2="-25948" y1="-25425" x2="-22793" x1="-23700" fill="none"/><line y2="-25410" y1="-25948" x2="-21894" x1="-22793" fill="none"/><line y2="-26791" y1="-25965" x2="-24668" x1="-24668" fill="none"/><line y2="-26791" y1="-25965" x2="-24526" x1="-24526" fill="none"/><line y2="-25439" y1="-25965" x2="-30948" x1="-30041" fill="none"/><line y2="-25965" y1="-25439" x2="-31855" x1="-30948" fill="none"/><line y2="-25439" y1="-25965" x2="-32762" x1="-31855" fill="none"/><line y2="-26791" y1="-25965" x2="-30110" x1="-30110" fill="none"/><line y2="-26791" y1="-25965" x2="-29972" x1="-29972" fill="none"/><line y2="-24376" y1="-23853" x2="-25514" x1="-26421" fill="none"/><line y2="-23839" y1="-24376" x2="-24616" x1="-25514" fill="none"/><line y2="-24362" y1="-23839" x2="-23709" x1="-24616" fill="none"/><line y2="-23024" y1="-23853" x2="-26352" x1="-26352" fill="none"/><line y2="-23024" y1="-23853" x2="-26491" x1="-26491" fill="none"/><polygon stroke-width="1" stroke="none" points=" -26413 -27513 -27164 -27869 -27094 -27987"/><polygon stroke-width="1" points=" -26413 -27513 -27164 -27869 -27094 -27987" fill="none"/><line y2="-25488" y1="-25607" x2="-25728" x1="-25659" fill="none"/><line y2="-25612" y1="-25700" x2="-25906" x1="-25855" fill="none"/><line y2="-25736" y1="-25793" x2="-26085" x1="-26052" fill="none"/><line y2="-25861" y1="-25887" x2="-26263" x1="-26248" fill="none"/><line y2="-24610" y1="-24613" x2="-27389" x1="-27250" fill="none"/><line y2="-24827" y1="-24829" x2="-27371" x1="-27268" fill="none"/><line y2="-25044" y1="-25046" x2="-27353" x1="-27287" fill="none"/><line y2="-25261" y1="-25262" x2="-27335" x1="-27305" fill="none"/><text y="-27857" xml:space="preserve" x="-27470" stroke="none" font-size="433.3333" font-family="sans-serif">O</text><text y="-25260" xml:space="preserve" x="-25659" stroke="none" font-size="433.3333" font-family="sans-serif">O</text><text y="-24214" xml:space="preserve" x="-27470" stroke="none" font-size="433.3333" font-family="sans-serif">O</text><text y="-26286" xml:space="preserve" x="-28377" stroke="none" font-size="433.3333" font-family="sans-serif">O</text><text y="-25260" xml:space="preserve" x="-29284" stroke="none" font-size="433.3333" font-family="sans-serif">O</text><text y="-26832" xml:space="preserve" x="-24749" stroke="none" font-size="433.3333" font-family="sans-serif">O</text><text y="-22625" xml:space="preserve" x="-26572" stroke="none" font-size="433.3333" font-family="sans-serif">O</text><text y="-26832" xml:space="preserve" x="-30191" stroke="none" font-size="433.3333" font-family="sans-serif">O</text><text y="-32242" xml:space="preserve" x="-23694" stroke="none" font-size="433.3333" font-family="sans-serif">O</text><text y="-28966" xml:space="preserve" x="-21805" stroke="none" font-size="433.3333" font-family="sans-serif">O</text><text y="-28920" xml:space="preserve" x="-25667" stroke="none" font-size="433.3333" font-family="sans-serif">N</text><text y="-28920" xml:space="preserve" x="-23694" stroke="none" font-size="433.3333" font-family="sans-serif">N</text><text y="-31197" xml:space="preserve" x="-25667" stroke="none" font-size="433.3333" font-family="sans-serif">N</text><text y="-30628" xml:space="preserve" x="-22712" stroke="none" font-size="433.3333" font-family="sans-serif">NH</text><text y="-27190" xml:space="preserve" x="-26314" stroke="none" font-style="italic" font-size="313.3333" font-family="sans-serif">S</text><text y="-25930" xml:space="preserve" x="-26811" stroke="none" font-style="italic" font-size="313.3333" font-family="sans-serif">S</text><text y="-25563" xml:space="preserve" x="-27470" stroke="none" font-style="italic" font-size="313.3333" font-family="sans-serif">R</text></g></g></svg>