<svg width="532.56" viewBox="0 0 17752 4626" text-rendering="auto" stroke-width="1" stroke-opacity="1" stroke-miterlimit="10" stroke-linejoin="miter" stroke-linecap="square" stroke-dashoffset="0" stroke-dasharray="none" stroke="black" shape-rendering="auto" image-rendering="auto" height="138.78" font-weight="normal" font-style="normal" font-size="12" font-family="'Dialog'" fill-opacity="1" fill="black" color-rendering="auto" color-interpolation="auto" xmlns="http://www.w3.org/2000/svg"><g><g stroke="white" fill="white"><rect y="0" x="0" width="17752" stroke="none" height="4626"/></g><g transform="translate(32866,32758)" text-rendering="geometricPrecision" stroke-width="44" stroke-linejoin="round" stroke-linecap="round"><line y2="-30989" y1="-31558" x2="-29732" x1="-30714" fill="none"/><line y2="-30914" y1="-31341" x2="-29940" x1="-30677" fill="none"/><line y2="-29853" y1="-30989" x2="-29732" x1="-29732" fill="none"/><line y2="-31558" y1="-30989" x2="-30714" x1="-31702" fill="none"/><line y2="-29284" y1="-29853" x2="-30714" x1="-29732" fill="none"/><line y2="-30989" y1="-29853" x2="-31702" x1="-31702" fill="none"/><line y2="-29853" y1="-29284" x2="-31702" x1="-30714" fill="none"/><line y2="-29928" y1="-29504" x2="-31494" x1="-30755" fill="none"/><line y2="-31514" y1="-30989" x2="-28825" x1="-29732" fill="none"/><line y2="-30989" y1="-31514" x2="-27918" x1="-28825" fill="none"/><line y2="-31514" y1="-30989" x2="-27011" x1="-27918" fill="none"/><line y2="-32606" y1="-31558" x2="-30714" x1="-30714" fill="none"/><line y2="-28236" y1="-29284" x2="-30714" x1="-30714" fill="none"/><line y2="-29328" y1="-29853" x2="-32609" x1="-31702" fill="none"/><line y2="-29498" y1="-29914" x2="-28978" x1="-29697" fill="none"/><line y2="-29377" y1="-29793" x2="-29047" x1="-29767" fill="none"/><line y2="-31344" y1="-30928" x2="-32456" x1="-31737" fill="none"/><line y2="-31465" y1="-31052" x2="-32387" x1="-31668" fill="none"/><line y2="-30989" y1="-31514" x2="-26104" x1="-27011" fill="none"/><line y2="-31514" y1="-30989" x2="-25196" x1="-26104" fill="none"/><line y2="-30989" y1="-31514" x2="-24289" x1="-25196" fill="none"/><line y2="-31514" y1="-30989" x2="-23382" x1="-24289" fill="none"/><line y2="-30989" y1="-31514" x2="-22475" x1="-23382" fill="none"/><line y2="-31514" y1="-30989" x2="-21568" x1="-22475" fill="none"/><line y2="-30989" y1="-31514" x2="-20661" x1="-21568" fill="none"/><line y2="-31514" y1="-30989" x2="-19754" x1="-20661" fill="none"/><line y2="-30989" y1="-31514" x2="-18847" x1="-19754" fill="none"/><line y2="-31514" y1="-30989" x2="-17940" x1="-18847" fill="none"/><line y2="-30989" y1="-31514" x2="-17032" x1="-17940" fill="none"/><line y2="-31514" y1="-30989" x2="-16125" x1="-17032" fill="none"/><line y2="-30989" y1="-31514" x2="-15218" x1="-16125" fill="none"/><line y2="-32563" y1="-31514" x2="-16125" x1="-16125" fill="none"/><polygon stroke-width="1" stroke="none" points=" -27011 -31514 -26546 -32456 -26427 -32387"/><polygon stroke-width="1" points=" -27011 -31514 -26546 -32456 -26427 -32387" fill="none"/><line y2="-32237" y1="-32167" x2="-27349" x1="-27467" fill="none"/><line y2="-32040" y1="-31989" x2="-27257" x1="-27343" fill="none"/><line y2="-31843" y1="-31811" x2="-27165" x1="-27218" fill="none"/><line y2="-31645" y1="-31633" x2="-27072" x1="-27094" fill="none"/><line y2="-32563" y1="-32560" x2="-23313" x1="-23452" fill="none"/><line y2="-32346" y1="-32344" x2="-23327" x1="-23438" fill="none"/><line y2="-32129" y1="-32127" x2="-23342" x1="-23423" fill="none"/><line y2="-31912" y1="-31911" x2="-23356" x1="-23409" fill="none"/><line y2="-31695" y1="-31695" x2="-23370" x1="-23394" fill="none"/><line y2="-32563" y1="-32560" x2="-19684" x1="-19823" fill="none"/><line y2="-32346" y1="-32344" x2="-19698" x1="-19809" fill="none"/><line y2="-32129" y1="-32127" x2="-19713" x1="-19794" fill="none"/><line y2="-31912" y1="-31911" x2="-19727" x1="-19780" fill="none"/><line y2="-31695" y1="-31695" x2="-19742" x1="-19766" fill="none"/><text y="-32242" xml:space="preserve" x="-27687" stroke="none" font-size="433.3333" font-family="sans-serif">OH</text><text y="-29148" xml:space="preserve" x="-28978" stroke="none" font-size="433.3333" font-family="sans-serif">O</text><text y="-31335" xml:space="preserve" x="-32762" stroke="none" font-size="433.3333" font-family="sans-serif">O</text><text y="-31032" xml:space="preserve" x="-27164" stroke="none" font-style="italic" font-size="313.3333" font-family="sans-serif">R</text><text y="-31032" xml:space="preserve" x="-23535" stroke="none" font-style="italic" font-size="313.3333" font-family="sans-serif">R</text><text y="-31032" xml:space="preserve" x="-19904" stroke="none" font-style="italic" font-size="313.3333" font-family="sans-serif">R</text></g></g></svg>