<svg width="215.67" viewBox="0 0 7189 4513" text-rendering="auto" stroke-width="1" stroke-opacity="1" stroke-miterlimit="10" stroke-linejoin="miter" stroke-linecap="square" stroke-dashoffset="0" stroke-dasharray="none" stroke="black" shape-rendering="auto" image-rendering="auto" height="135.39" font-weight="normal" font-style="normal" font-size="12" font-family="'Dialog'" fill-opacity="1" fill="black" color-rendering="auto" color-interpolation="auto" xmlns="http://www.w3.org/2000/svg"><g><g stroke="white" fill="white"><rect y="0" x="0" width="7189" stroke="none" height="4513"/></g><g transform="translate(32866,32758)" text-rendering="geometricPrecision" stroke-width="44" stroke-linejoin="round" stroke-linecap="round"><line y2="-31896" y1="-32465" x2="-29732" x1="-30714" fill="none"/><line y2="-31821" y1="-32248" x2="-29940" x1="-30677" fill="none"/><line y2="-30758" y1="-31896" x2="-29732" x1="-29732" fill="none"/><line y2="-32465" y1="-31896" x2="-30714" x1="-31702" fill="none"/><line y2="-30191" y1="-30758" x2="-30714" x1="-29732" fill="none"/><line y2="-30408" y1="-30836" x2="-30677" x1="-29940" fill="none"/><line y2="-31896" y1="-30758" x2="-31702" x1="-31702" fill="none"/><line y2="-31754" y1="-30902" x2="-31532" x1="-31532" fill="none"/><line y2="-30758" y1="-30191" x2="-31702" x1="-30714" fill="none"/><line y2="-32312" y1="-31896" x2="-29013" x1="-29732" fill="none"/><line y2="-31896" y1="-32312" x2="-27918" x1="-28637" fill="none"/><line y2="-30454" y1="-30758" x2="-32231" x1="-31702" fill="none"/><line y2="-32312" y1="-31896" x2="-32422" x1="-31702" fill="none"/><line y2="-31896" y1="-30758" x2="-27918" x1="-27918" fill="none"/><line y2="-32465" y1="-31896" x2="-26930" x1="-27918" fill="none"/><line y2="-32245" y1="-31821" x2="-26970" x1="-27710" fill="none"/><line y2="-30758" y1="-30191" x2="-27918" x1="-26930" fill="none"/><line y2="-30836" y1="-30408" x2="-27710" x1="-26970" fill="none"/><line y2="-31896" y1="-32465" x2="-25948" x1="-26930" fill="none"/><line y2="-30191" y1="-30651" x2="-26930" x1="-26135" fill="none"/><line y2="-30977" y1="-31896" x2="-25948" x1="-25948" fill="none"/><line y2="-31093" y1="-31780" x2="-26118" x1="-26118" fill="none"/><line y2="-29143" y1="-30191" x2="-26930" x1="-26930" fill="none"/><line y2="-28839" y1="-29143" x2="-27458" x1="-26930" fill="none"/><line y2="-28975" y1="-28727" x2="-28455" x1="-28025" fill="none"/><line y2="-28787" y1="-29203" x2="-26176" x1="-26895" fill="none"/><line y2="-28666" y1="-29082" x2="-26245" x1="-26964" fill="none"/><text y="-32242" xml:space="preserve" x="-28978" stroke="none" font-size="433.3333" font-family="sans-serif">O</text><text y="-28441" xml:space="preserve" x="-27990" stroke="none" font-size="433.3333" font-family="sans-serif">NH</text><text y="-28441" xml:space="preserve" x="-26176" stroke="none" font-size="433.3333" font-family="sans-serif">O</text><text y="-29125" xml:space="preserve" x="-29177" stroke="none" font-size="433.3333" font-family="sans-serif">CH</text><text y="-29036" xml:space="preserve" x="-28600" stroke="none" font-size="313.3333" font-family="sans-serif">3</text><text y="-32242" xml:space="preserve" x="-32762" stroke="none" font-size="433.3333" font-family="sans-serif">F</text><text y="-30056" xml:space="preserve" x="-32762" stroke="none" font-size="433.3333" font-family="sans-serif">NH</text><text y="-29966" xml:space="preserve" x="-32185" stroke="none" font-size="313.3333" font-family="sans-serif">2</text><text y="-30578" xml:space="preserve" x="-26101" stroke="none" font-size="433.3333" font-family="sans-serif">N</text></g></g></svg>