<svg width="322.11" viewBox="0 0 10737 16002" text-rendering="auto" stroke-width="1" stroke-opacity="1" stroke-miterlimit="10" stroke-linejoin="miter" stroke-linecap="square" stroke-dashoffset="0" stroke-dasharray="none" stroke="black" shape-rendering="auto" image-rendering="auto" height="480.06" font-weight="normal" font-style="normal" font-size="12" font-family="'Dialog'" fill-opacity="1" fill="black" color-rendering="auto" color-interpolation="auto" xmlns="http://www.w3.org/2000/svg"><g><g stroke="white" fill="white"><rect y="0" x="0" width="10737" stroke="none" height="16002"/></g><g transform="translate(32866,32758)" text-rendering="geometricPrecision" stroke-width="44" stroke-linejoin="round" stroke-linecap="round"><line y2="-25390" y1="-26525" x2="-27831" x1="-27831" fill="none"/><line y2="-24821" y1="-25390" x2="-28819" x1="-27831" fill="none"/><line y2="-26525" y1="-27094" x2="-27831" x1="-28819" fill="none"/><line y2="-25280" y1="-24821" x2="-29614" x1="-28819" fill="none"/><line y2="-27094" y1="-26525" x2="-28819" x1="-29801" fill="none"/><line y2="-26525" y1="-25610" x2="-29801" x1="-29801" fill="none"/><line y2="-29099" y1="-27268" x2="-26927" x1="-26924" fill="none"/><line y2="-22247" y1="-22660" x2="-27909" x1="-28631" fill="none"/><line y2="-26745" y1="-27051" x2="-31237" x1="-30708" fill="none"/><line y2="-25390" y1="-25084" x2="-26017" x1="-26546" fill="none"/><line y2="-29666" y1="-29099" x2="-27906" x1="-26927" fill="none"/><line y2="-29099" y1="-29559" x2="-26927" x1="-26130" fill="none"/><line y2="-30807" y1="-29666" x2="-27909" x1="-27906" fill="none"/><line y2="-29888" y1="-30804" x2="-25942" x1="-25939" fill="none"/><line y2="-31376" y1="-30807" x2="-26927" x1="-27909" fill="none"/><line y2="-30804" y1="-31376" x2="-25939" x1="-26927" fill="none"/><line y2="-29666" y1="-29252" x2="-29720" x1="-29004" fill="none"/><line y2="-30914" y1="-31330" x2="-24312" x1="-25032" fill="none"/><line y2="-22247" y1="-21109" x2="-27909" x1="-27909" fill="none"/><line y2="-22813" y1="-22247" x2="-26924" x1="-27909" fill="none"/><line y2="-21109" y1="-20540" x2="-27909" x1="-26924" fill="none"/><line y2="-22247" y1="-22813" x2="-25942" x1="-26924" fill="none"/><line y2="-20540" y1="-20999" x2="-26924" x1="-26130" fill="none"/><line y2="-21328" y1="-22247" x2="-25942" x1="-25942" fill="none"/><line y2="-22354" y1="-22770" x2="-24315" x1="-25035" fill="none"/><line y2="-18954" y1="-19378" x2="-26026" x1="-26736" fill="none"/><line y2="-24864" y1="-25390" x2="-25110" x1="-26017" fill="none"/><line y2="-26216" y1="-25390" x2="-26086" x1="-26086" fill="none"/><line y2="-26216" y1="-25390" x2="-25948" x1="-25948" fill="none"/><line y2="-29099" y1="-29666" x2="-30706" x1="-29720" fill="none"/><line y2="-29666" y1="-30584" x2="-29720" x1="-29720" fill="none"/><line y2="-29666" y1="-29099" x2="-31694" x1="-30706" fill="none"/><line y2="-30914" y1="-31373" x2="-29911" x1="-30706" fill="none"/><line y2="-30804" y1="-29666" x2="-31694" x1="-31694" fill="none"/><line y2="-31373" y1="-30804" x2="-30706" x1="-31694" fill="none"/><line y2="-19476" y1="-18954" x2="-25118" x1="-26026" fill="none"/><line y2="-17654" y1="-18954" x2="-26026" x1="-26026" fill="none"/><line y2="-18936" y1="-19476" x2="-24223" x1="-25118" fill="none"/><line y2="-17131" y1="-17654" x2="-26936" x1="-26026" fill="none"/><line y2="-17434" y1="-17131" x2="-27461" x1="-26936" fill="none"/><line y2="-19462" y1="-18936" x2="-23316" x1="-24223" fill="none"/><line y2="-19034" y1="-19462" x2="-22605" x1="-23316" fill="none"/><line y2="-18971" y1="-19289" x2="-22767" x1="-23298" fill="none"/><polygon stroke-width="1" stroke="none" points=" -27831 -25390 -27077 -25035 -27146 -24913"/><polygon stroke-width="1" points=" -27831 -25390 -27077 -25035 -27146 -24913" fill="none"/><polygon stroke-width="1" stroke="none" points=" -28819 -27094 -28888 -27924 -28750 -27924"/><polygon stroke-width="1" points=" -28819 -27094 -28888 -27924 -28750 -27924" fill="none"/><polygon stroke-width="1" stroke="none" points=" -25939 -30804 -25066 -31387 -24997 -31269"/><polygon stroke-width="1" points=" -25939 -30804 -25066 -31387 -24997 -31269" fill="none"/><polygon stroke-width="1" stroke="none" points=" -27909 -30807 -28470 -31049 -28400 -31171"/><polygon stroke-width="1" points=" -27909 -30807 -28470 -31049 -28400 -31171" fill="none"/><polygon stroke-width="1" stroke="none" points=" -26927 -31376 -26996 -32202 -26858 -32202"/><polygon stroke-width="1" points=" -26927 -31376 -26996 -32202 -26858 -32202" fill="none"/><polygon stroke-width="1" stroke="none" points=" -25942 -22247 -25066 -22828 -25000 -22709"/><polygon stroke-width="1" points=" -25942 -22247 -25066 -22828 -25000 -22709" fill="none"/><polygon stroke-width="1" stroke="none" points=" -26924 -20540 -26855 -19710 -26993 -19710"/><polygon stroke-width="1" points=" -26924 -20540 -26855 -19710 -26993 -19710" fill="none"/><polygon stroke-width="1" stroke="none" points=" -26924 -22813 -26993 -23642 -26855 -23642"/><polygon stroke-width="1" points=" -26924 -22813 -26993 -23642 -26855 -23642" fill="none"/><polygon stroke-width="1" stroke="none" points=" -30706 -29099 -30636 -28270 -30775 -28270"/><polygon stroke-width="1" points=" -30706 -29099 -30636 -28270 -30775 -28270" fill="none"/><line y2="-26881" y1="-26999" x2="-27077" x1="-27146" fill="none"/><line y2="-26788" y1="-26875" x2="-27274" x1="-27325" fill="none"/><line y2="-26695" y1="-26752" x2="-27470" x1="-27503" fill="none"/><line y2="-26602" y1="-26628" x2="-27667" x1="-27682" fill="none"/><line y2="-22989" y1="-22989" x2="-28888" x1="-28750" fill="none"/><line y2="-23206" y1="-23206" x2="-28880" x1="-28758" fill="none"/><line y2="-23422" y1="-23422" x2="-28872" x1="-28766" fill="none"/><line y2="-23639" y1="-23639" x2="-28864" x1="-28774" fill="none"/><line y2="-23856" y1="-23856" x2="-28855" x1="-28783" fill="none"/><line y2="-24072" y1="-24072" x2="-28847" x1="-28791" fill="none"/><line y2="-24289" y1="-24289" x2="-28839" x1="-28799" fill="none"/><line y2="-24506" y1="-24506" x2="-28831" x1="-28807" fill="none"/><line y2="-24722" y1="-24722" x2="-28823" x1="-28815" fill="none"/><line y2="-27109" y1="-26990" x2="-30674" x1="-30743" fill="none"/><line y2="-26988" y1="-26894" x2="-30494" x1="-30548" fill="none"/><line y2="-26868" y1="-26798" x2="-30313" x1="-30354" fill="none"/><line y2="-26747" y1="-26702" x2="-30133" x1="-30159" fill="none"/><line y2="-26626" y1="-26606" x2="-29952" x1="-29964" fill="none"/><line y2="-29310" y1="-29192" x2="-28660" x1="-28591" fill="none"/><line y2="-29403" y1="-29316" x2="-28463" x1="-28412" fill="none"/><line y2="-29496" y1="-29439" x2="-28267" x1="-28234" fill="none"/><line y2="-29589" y1="-29563" x2="-28070" x1="-28055" fill="none"/><line y2="-28744" y1="-28626" x2="-27678" x1="-27609" fill="none"/><line y2="-28837" y1="-28750" x2="-27481" x1="-27430" fill="none"/><line y2="-28930" y1="-28874" x2="-27285" x1="-27252" fill="none"/><line y2="-29023" y1="-28998" x2="-27088" x1="-27073" fill="none"/><line y2="-20863" y1="-20745" x2="-28472" x1="-28403" fill="none"/><line y2="-20950" y1="-20874" x2="-28272" x1="-28228" fill="none"/><line y2="-21038" y1="-21003" x2="-28072" x1="-28052" fill="none"/><line y2="-23073" y1="-23073" x2="-27840" x1="-27978" fill="none"/><line y2="-22856" y1="-22856" x2="-27858" x1="-27960" fill="none"/><line y2="-22640" y1="-22640" x2="-27876" x1="-27942" fill="none"/><line y2="-22423" y1="-22423" x2="-27894" x1="-27924" fill="none"/><line y2="-32422" y1="-32419" x2="-30636" x1="-30775" fill="none"/><line y2="-32205" y1="-32203" x2="-30650" x1="-30761" fill="none"/><line y2="-31988" y1="-31986" x2="-30665" x1="-30746" fill="none"/><line y2="-31771" y1="-31770" x2="-30679" x1="-30732" fill="none"/><line y2="-31554" y1="-31554" x2="-30694" x1="-30718" fill="none"/><line y2="-29437" y1="-29316" x2="-32248" x1="-32179" fill="none"/><line y2="-29520" y1="-29444" x2="-32046" x1="-32002" fill="none"/><line y2="-29604" y1="-29571" x2="-31844" x1="-31826" fill="none"/><line y2="-31168" y1="-31049" x2="-32185" x1="-32254" fill="none"/><line y2="-31038" y1="-30962" x2="-32010" x1="-32054" fill="none"/><line y2="-30908" y1="-30874" x2="-31835" x1="-31854" fill="none"/><line y2="-30024" y1="-30142" x2="-28966" x1="-29036" fill="none"/><line y2="-29931" y1="-30018" x2="-29163" x1="-29214" fill="none"/><line y2="-29837" y1="-29894" x2="-29359" x1="-29393" fill="none"/><line y2="-29744" y1="-29770" x2="-29556" x1="-29571" fill="none"/><line y2="-18610" y1="-18488" x2="-26788" x1="-26722" fill="none"/><line y2="-18699" y1="-18609" x2="-26590" x1="-26541" fill="none"/><line y2="-18789" y1="-18730" x2="-26392" x1="-26360" fill="none"/><line y2="-18878" y1="-18851" x2="-26194" x1="-26180" fill="none"/><line y2="-20306" y1="-20303" x2="-25052" x1="-25188" fill="none"/><line y2="-20089" y1="-20087" x2="-25069" x1="-25170" fill="none"/><line y2="-19872" y1="-19870" x2="-25087" x1="-25151" fill="none"/><line y2="-19655" y1="-19654" x2="-25104" x1="-25133" fill="none"/><line y2="-17180" y1="-17298" x2="-25341" x1="-25272" fill="none"/><line y2="-17304" y1="-17391" x2="-25520" x1="-25469" fill="none"/><line y2="-17427" y1="-17484" x2="-25698" x1="-25665" fill="none"/><line y2="-17551" y1="-17577" x2="-25877" x1="-25862" fill="none"/><line y2="-18107" y1="-18110" x2="-24292" x1="-24154" fill="none"/><line y2="-18324" y1="-18326" x2="-24274" x1="-24172" fill="none"/><line y2="-18541" y1="-18543" x2="-24256" x1="-24190" fill="none"/><line y2="-18758" y1="-18759" x2="-24238" x1="-24208" fill="none"/><text y="-24685" xml:space="preserve" x="-27077" stroke="none" font-size="433.3333" font-family="sans-serif">NH</text><text y="-26257" xml:space="preserve" x="-26170" stroke="none" font-size="433.3333" font-family="sans-serif">O</text><text y="-26869" xml:space="preserve" x="-27077" stroke="none" font-size="433.3333" font-family="sans-serif">O</text><text y="-22591" xml:space="preserve" x="-28969" stroke="none" font-size="433.3333" font-family="sans-serif">O</text><text y="-27964" xml:space="preserve" x="-28969" stroke="none" font-size="433.3333" font-family="sans-serif">OH</text><text y="-26346" xml:space="preserve" x="-31769" stroke="none" font-size="433.3333" font-family="sans-serif">OH</text><text y="-28964" xml:space="preserve" x="-28966" stroke="none" font-size="433.3333" font-family="sans-serif">O</text><text y="-20404" xml:space="preserve" x="-28969" stroke="none" font-size="433.3333" font-family="sans-serif">OH</text><text y="-23683" xml:space="preserve" x="-27077" stroke="none" font-size="433.3333" font-family="sans-serif">OH</text><text y="-31150" xml:space="preserve" x="-28966" stroke="none" font-size="433.3333" font-family="sans-serif">OH</text><text y="-30625" xml:space="preserve" x="-24278" stroke="none" font-size="433.3333" font-family="sans-serif">OH</text><text y="-19312" xml:space="preserve" x="-27077" stroke="none" font-size="433.3333" font-family="sans-serif">O</text><text y="-20346" xml:space="preserve" x="-25272" stroke="none" font-size="433.3333" font-family="sans-serif">OH</text><text y="-16952" xml:space="preserve" x="-25272" stroke="none" font-size="433.3333" font-family="sans-serif">OH</text><text y="-17711" xml:space="preserve" x="-24373" stroke="none" font-size="433.3333" font-family="sans-serif">OH</text><text y="-17474" xml:space="preserve" x="-27993" stroke="none" font-size="433.3333" font-family="sans-serif">OH</text><text y="-18743" xml:space="preserve" x="-22570" stroke="none" font-size="433.3333" font-family="sans-serif">O</text><text y="-22068" xml:space="preserve" x="-24278" stroke="none" font-size="433.3333" font-family="sans-serif">OH</text><text y="-32242" xml:space="preserve" x="-27080" stroke="none" font-size="433.3333" font-family="sans-serif">OH</text><text y="-27872" xml:space="preserve" x="-30859" stroke="none" font-size="433.3333" font-family="sans-serif">OH</text><text y="-28978" xml:space="preserve" x="-32762" stroke="none" font-size="433.3333" font-family="sans-serif">OH</text><text y="-31150" xml:space="preserve" x="-32754" stroke="none" font-size="433.3333" font-family="sans-serif">OH</text><text y="-25211" xml:space="preserve" x="-29954" stroke="none" font-size="433.3333" font-family="sans-serif">O</text><text y="-29489" xml:space="preserve" x="-26092" stroke="none" font-size="433.3333" font-family="sans-serif">O</text><text y="-20930" xml:space="preserve" x="-26092" stroke="none" font-size="433.3333" font-family="sans-serif">O</text><text y="-30625" xml:space="preserve" x="-29874" stroke="none" font-size="433.3333" font-family="sans-serif">O</text><text y="-28397" xml:space="preserve" x="-27984" stroke="none" font-size="433.3333" font-family="sans-serif">H</text><text y="-30012" xml:space="preserve" x="-28966" stroke="none" font-size="433.3333" font-family="sans-serif">H</text><text y="-23114" xml:space="preserve" x="-28062" stroke="none" font-size="433.3333" font-family="sans-serif">H</text><text y="-18266" xml:space="preserve" x="-27097" stroke="none" font-size="433.3333" font-family="sans-serif">H</text><text y="-18630" xml:space="preserve" x="-25930" stroke="none" font-style="italic" font-size="313.3333" font-family="sans-serif">R</text><text y="-18997" xml:space="preserve" x="-25272" stroke="none" font-style="italic" font-size="313.3333" font-family="sans-serif">R</text><text y="-17619" xml:space="preserve" x="-26427" stroke="none" font-style="italic" font-size="313.3333" font-family="sans-serif">R</text><text y="-19060" xml:space="preserve" x="-24373" stroke="none" font-style="italic" font-size="313.3333" font-family="sans-serif">R</text><text y="-25352" xml:space="preserve" x="-28233" stroke="none" font-style="italic" font-size="313.3333" font-family="sans-serif">R</text><text y="-26202" xml:space="preserve" x="-28233" stroke="none" font-style="italic" font-size="313.3333" font-family="sans-serif">R</text><text y="-24945" xml:space="preserve" x="-28969" stroke="none" font-style="italic" font-size="313.3333" font-family="sans-serif">S</text><text y="-26612" xml:space="preserve" x="-28969" stroke="none" font-style="italic" font-size="313.3333" font-family="sans-serif">S</text><text y="-26202" xml:space="preserve" x="-29706" stroke="none" font-style="italic" font-size="313.3333" font-family="sans-serif">R</text><text y="-28776" xml:space="preserve" x="-26832" stroke="none" font-style="italic" font-size="313.3333" font-family="sans-serif">R</text><text y="-29631" xml:space="preserve" x="-27811" stroke="none" font-style="italic" font-size="313.3333" font-family="sans-serif">R</text><text y="-30483" xml:space="preserve" x="-27814" stroke="none" font-style="italic" font-size="313.3333" font-family="sans-serif">S</text><text y="-30480" xml:space="preserve" x="-26340" stroke="none" font-style="italic" font-size="313.3333" font-family="sans-serif">R</text><text y="-30893" xml:space="preserve" x="-27080" stroke="none" font-style="italic" font-size="313.3333" font-family="sans-serif">R</text><text y="-21923" xml:space="preserve" x="-27814" stroke="none" font-style="italic" font-size="313.3333" font-family="sans-serif">S</text><text y="-21074" xml:space="preserve" x="-27814" stroke="none" font-style="italic" font-size="313.3333" font-family="sans-serif">R</text><text y="-22334" xml:space="preserve" x="-27077" stroke="none" font-style="italic" font-size="313.3333" font-family="sans-serif">S</text><text y="-20664" xml:space="preserve" x="-27077" stroke="none" font-style="italic" font-size="313.3333" font-family="sans-serif">S</text><text y="-21923" xml:space="preserve" x="-26343" stroke="none" font-style="italic" font-size="313.3333" font-family="sans-serif">R</text><text y="-29186" xml:space="preserve" x="-29874" stroke="none" font-style="italic" font-size="313.3333" font-family="sans-serif">S</text><text y="-29221" xml:space="preserve" x="-30859" stroke="none" font-style="italic" font-size="313.3333" font-family="sans-serif">S</text><text y="-29631" xml:space="preserve" x="-31595" stroke="none" font-style="italic" font-size="313.3333" font-family="sans-serif">R</text><text y="-30890" xml:space="preserve" x="-30859" stroke="none" font-style="italic" font-size="313.3333" font-family="sans-serif">S</text><text y="-30480" xml:space="preserve" x="-31595" stroke="none" font-style="italic" font-size="313.3333" font-family="sans-serif">S</text></g></g></svg>