<svg width="451.05" viewBox="0 0 15035 13460" text-rendering="auto" stroke-width="1" stroke-opacity="1" stroke-miterlimit="10" stroke-linejoin="miter" stroke-linecap="square" stroke-dashoffset="0" stroke-dasharray="none" stroke="black" shape-rendering="auto" image-rendering="auto" height="403.8" font-weight="normal" font-style="normal" font-size="12" font-family="'Dialog'" fill-opacity="1" fill="black" color-rendering="auto" color-interpolation="auto" xmlns="http://www.w3.org/2000/svg"><g><g stroke="white" fill="white"><rect y="0" x="0" width="15035" stroke="none" height="13460"/></g><g transform="translate(32866,32758)" text-rendering="geometricPrecision" stroke-width="44" stroke-linejoin="round" stroke-linecap="round"><line y2="-29082" y1="-29654" x2="-27510" x1="-28493" fill="none"/><line y2="-30801" y1="-29654" x2="-28493" x1="-28493" fill="none"/><line y2="-29654" y1="-29319" x2="-28493" x1="-29371" fill="none"/><line y2="-29544" y1="-29082" x2="-26716" x1="-27510" fill="none"/><line y2="-31376" y1="-30801" x2="-27510" x1="-28493" fill="none"/><line y2="-29027" y1="-28181" x2="-29616" x1="-29845" fill="none"/><line y2="-30801" y1="-29874" x2="-26528" x1="-26528" fill="none"/><line y2="-30801" y1="-31376" x2="-26528" x1="-27510" fill="none"/><line y2="-28181" y1="-28221" x2="-29845" x1="-31032" fill="none"/><line y2="-27499" y1="-28181" x2="-29443" x1="-29845" fill="none"/><line y2="-31266" y1="-30801" x2="-25734" x1="-26528" fill="none"/><line y2="-28221" y1="-27239" x2="-31032" x1="-31564" fill="none"/><line y2="-26257" y1="-27060" x2="-29845" x1="-29426" fill="none"/><line y2="-30801" y1="-31266" x2="-24564" x1="-25358" fill="none"/><line y2="-27239" y1="-26257" x2="-31564" x1="-30992" fill="none"/><line y2="-26257" y1="-26257" x2="-30992" x1="-29845" fill="none"/><line y2="-29654" y1="-30801" x2="-24564" x1="-24564" fill="none"/><line y2="-31376" y1="-30801" x2="-23582" x1="-24564" fill="none"/><line y2="-26257" y1="-25494" x2="-30992" x1="-31436" fill="none"/><line y2="-29192" y1="-29654" x2="-23769" x1="-24564" fill="none"/><line y2="-30801" y1="-31376" x2="-22599" x1="-23582" fill="none"/><line y2="-25055" y1="-24292" x2="-31436" x1="-30992" fill="none"/><line y2="-29654" y1="-29192" x2="-22599" x1="-23394" fill="none"/><line y2="-29654" y1="-30801" x2="-22599" x1="-22599" fill="none"/><line y2="-24292" y1="-23310" x2="-30992" x1="-31564" fill="none"/><line y2="-24292" y1="-24292" x2="-30032" x1="-30992" fill="none"/><line y2="-29325" y1="-29654" x2="-21802" x1="-22599" fill="none"/><line y2="-23310" y1="-22328" x2="-31564" x1="-30992" fill="none"/><line y2="-23310" y1="-24073" x2="-29270" x1="-29718" fill="none"/><line y2="-28262" y1="-29027" x2="-21207" x1="-21525" fill="none"/><line y2="-22328" y1="-22328" x2="-30992" x1="-29845" fill="none"/><line y2="-22328" y1="-23310" x2="-29845" x1="-29270" fill="none"/><line y2="-27279" y1="-28262" x2="-21779" x1="-21207" fill="none"/><line y2="-28262" y1="-28262" x2="-20060" x1="-21207" fill="none"/><line y2="-22328" y1="-21565" x2="-29845" x1="-29400" fill="none"/><line y2="-26517" y1="-27279" x2="-21334" x1="-21779" fill="none"/><line y2="-27279" y1="-28262" x2="-19485" x1="-20060" fill="none"/><line y2="-21346" y1="-21346" x2="-29082" x1="-26979" fill="none"/><line y2="-26297" y1="-26297" x2="-20060" x1="-21019" fill="none"/><line y2="-26297" y1="-27279" x2="-20060" x1="-19485" fill="none"/><line y2="-22328" y1="-21346" x2="-26404" x1="-26979" fill="none"/><line y2="-21346" y1="-20583" x2="-26979" x1="-26534" fill="none"/><line y2="-25534" y1="-26297" x2="-19615" x1="-20060" fill="none"/><line y2="-22328" y1="-22328" x2="-25260" x1="-26404" fill="none"/><line y2="-20363" y1="-20363" x2="-26216" x1="-25260" fill="none"/><line y2="-24333" y1="-25095" x2="-20060" x1="-19615" fill="none"/><line y2="-21346" y1="-22328" x2="-24685" x1="-25260" fill="none"/><line y2="-20363" y1="-21346" x2="-25260" x1="-24685" fill="none"/><line y2="-24333" y1="-24333" x2="-21207" x1="-20060" fill="none"/><line y2="-23350" y1="-24333" x2="-19485" x1="-20060" fill="none"/><line y2="-21346" y1="-21383" x2="-24685" x1="-21967" fill="none"/><line y2="-23570" y1="-24333" x2="-21652" x1="-21207" fill="none"/><line y2="-22368" y1="-23350" x2="-20060" x1="-19485" fill="none"/><line y2="-21606" y1="-22368" x2="-21652" x1="-21207" fill="none"/><line y2="-22368" y1="-23131" x2="-21207" x1="-21652" fill="none"/><line y2="-22368" y1="-22368" x2="-21207" x1="-20060" fill="none"/><line y2="-27730" y1="-28033" x2="-28039" x1="-27510" fill="none"/><line y2="-26150" y1="-25734" x2="-28218" x1="-28938" fill="none"/><line y2="-28288" y1="-29117" x2="-25462" x1="-25462" fill="none"/><line y2="-24662" y1="-23833" x2="-28363" x1="-28363" fill="none"/><line y2="-27499" y1="-27805" x2="-23215" x1="-22686" fill="none"/><line y2="-19869" y1="-19456" x2="-24015" x1="-24734" fill="none"/><line y2="-24552" y1="-24856" x2="-22640" x1="-22114" fill="none"/><polygon stroke-width="1" stroke="none" points=" -25260 -20363 -24676 -19488 -24795 -19419"/><polygon stroke-width="1" points=" -25260 -20363 -24676 -19488 -24795 -19419" fill="none"/><polygon stroke-width="1" stroke="none" points=" -27510 -31376 -27580 -32202 -27441 -32202"/><polygon stroke-width="1" points=" -27510 -31376 -27580 -32202 -27441 -32202" fill="none"/><polygon stroke-width="1" stroke="none" points=" -31032 -28221 -31488 -28874 -31370 -28943"/><polygon stroke-width="1" points=" -31032 -28221 -31488 -28874 -31370 -28943" fill="none"/><polygon stroke-width="1" stroke="none" points=" -22599 -30801 -21915 -31278 -21845 -31156"/><polygon stroke-width="1" points=" -22599 -30801 -21915 -31278 -21845 -31156" fill="none"/><polygon stroke-width="1" stroke="none" points=" -31564 -23310 -32118 -23241 -32118 -23379"/><polygon stroke-width="1" points=" -31564 -23310 -32118 -23241 -32118 -23379" fill="none"/><polygon stroke-width="1" stroke="none" points=" -19485 -27279 -18627 -27349 -18627 -27210"/><polygon stroke-width="1" points=" -19485 -27279 -18627 -27349 -18627 -27210" fill="none"/><polygon stroke-width="1" stroke="none" points=" -25260 -22328 -24919 -23050 -24801 -22981"/><polygon stroke-width="1" points=" -25260 -22328 -24919 -23050 -24801 -22981" fill="none"/><polygon stroke-width="1" stroke="none" points=" -20060 -22368 -19612 -21707 -19734 -21637"/><polygon stroke-width="1" points=" -20060 -22368 -19612 -21707 -19734 -21637" fill="none"/><polygon stroke-width="1" stroke="none" points=" -26979 -21346 -26910 -19892 -27048 -19892"/><polygon stroke-width="1" points=" -26979 -21346 -26910 -19892 -27048 -19892" fill="none"/><polygon stroke-width="1" stroke="none" points=" -24685 -21346 -24616 -20516 -24754 -20516"/><polygon stroke-width="1" points=" -24685 -21346 -24616 -20516 -24754 -20516" fill="none"/><line y2="-28033" y1="-28033" x2="-27580" x1="-27441" fill="none"/><line y2="-28250" y1="-28250" x2="-27566" x1="-27455" fill="none"/><line y2="-28466" y1="-28466" x2="-27551" x1="-27470" fill="none"/><line y2="-28683" y1="-28683" x2="-27537" x1="-27484" fill="none"/><line y2="-28900" y1="-28900" x2="-27522" x1="-27498" fill="none"/><line y2="-25673" y1="-25792" x2="-28969" x1="-28903" fill="none"/><line y2="-25794" y1="-25888" x2="-29150" x1="-29097" fill="none"/><line y2="-25914" y1="-25984" x2="-29331" x1="-29292" fill="none"/><line y2="-26035" y1="-26080" x2="-29512" x1="-29486" fill="none"/><line y2="-26155" y1="-26176" x2="-29692" x1="-29681" fill="none"/><line y2="-29174" y1="-29056" x2="-25497" x1="-25425" fill="none"/><line y2="-29273" y1="-29180" x2="-25304" x1="-25247" fill="none"/><line y2="-29373" y1="-29304" x2="-25111" x1="-25068" fill="none"/><line y2="-29472" y1="-29427" x2="-24917" x1="-24890" fill="none"/><line y2="-29572" y1="-29551" x2="-24724" x1="-24712" fill="none"/><line y2="-23772" y1="-23894" x2="-28328" x1="-28397" fill="none"/><line y2="-23676" y1="-23773" x2="-28523" x1="-28578" fill="none"/><line y2="-23581" y1="-23652" x2="-28718" x1="-28758" fill="none"/><line y2="-23485" y1="-23532" x2="-28913" x1="-28939" fill="none"/><line y2="-23390" y1="-23411" x2="-29107" x1="-29119" fill="none"/><line y2="-27863" y1="-27744" x2="-22651" x1="-22721" fill="none"/><line y2="-27742" y1="-27648" x2="-22471" x1="-22526" fill="none"/><line y2="-27621" y1="-27552" x2="-22290" x1="-22331" fill="none"/><line y2="-27501" y1="-27456" x2="-22110" x1="-22137" fill="none"/><line y2="-27380" y1="-27359" x2="-21930" x1="-21942" fill="none"/><line y2="-24916" y1="-24798" x2="-22079" x1="-22146" fill="none"/><line y2="-24795" y1="-24702" x2="-21898" x1="-21952" fill="none"/><line y2="-24675" y1="-24605" x2="-21718" x1="-21757" fill="none"/><line y2="-24554" y1="-24509" x2="-21537" x1="-21563" fill="none"/><line y2="-24433" y1="-24413" x2="-21357" x1="-21368" fill="none"/><line y2="-31165" y1="-31046" x2="-28987" x1="-29053" fill="none"/><line y2="-31035" y1="-30959" x2="-28811" x1="-28854" fill="none"/><line y2="-30906" y1="-30872" x2="-28635" x1="-28654" fill="none"/><line y2="-27308" y1="-27172" x2="-32118" x1="-32118" fill="none"/><line y2="-27281" y1="-27198" x2="-31901" x1="-31901" fill="none"/><line y2="-27254" y1="-27224" x2="-31685" x1="-31685" fill="none"/><line y2="-32202" y1="-32202" x2="-23512" x1="-23651" fill="none"/><line y2="-31985" y1="-31985" x2="-23530" x1="-23633" fill="none"/><line y2="-31769" y1="-31769" x2="-23549" x1="-23615" fill="none"/><line y2="-31552" y1="-31552" x2="-23567" x1="-23597" fill="none"/><line y2="-21672" y1="-21606" x2="-31448" x1="-31327" fill="none"/><line y2="-21851" y1="-21803" x2="-31324" x1="-31236" fill="none"/><line y2="-22030" y1="-22000" x2="-31199" x1="-31144" fill="none"/><line y2="-22209" y1="-22197" x2="-31075" x1="-31053" fill="none"/><line y2="-28914" y1="-28984" x2="-19601" x1="-19722" fill="none"/><line y2="-28736" y1="-28787" x2="-19726" x1="-19814" fill="none"/><line y2="-28558" y1="-28590" x2="-19851" x1="-19906" fill="none"/><line y2="-28380" y1="-28393" x2="-19977" x1="-19999" fill="none"/><line y2="-23056" y1="-22989" x2="-26730" x1="-26852" fill="none"/><line y2="-22858" y1="-22809" x2="-26641" x1="-26730" fill="none"/><line y2="-22659" y1="-22629" x2="-26552" x1="-26608" fill="none"/><line y2="-22461" y1="-22449" x2="-26463" x1="-26486" fill="none"/><line y2="-23281" y1="-23420" x2="-18627" x1="-18627" fill="none"/><line y2="-23298" y1="-23402" x2="-18844" x1="-18844" fill="none"/><line y2="-23316" y1="-23385" x2="-19060" x1="-19060" fill="none"/><line y2="-23333" y1="-23367" x2="-19277" x1="-19277" fill="none"/><line y2="-28825" y1="-28828" x2="-28562" x1="-28423" fill="none"/><line y2="-29042" y1="-29044" x2="-28544" x1="-28441" fill="none"/><line y2="-29259" y1="-29261" x2="-28526" x1="-28460" fill="none"/><line y2="-29476" y1="-29477" x2="-28508" x1="-28478" fill="none"/><line y2="-27528" y1="-27458" x2="-30301" x1="-30183" fill="none"/><line y2="-27706" y1="-27655" x2="-30177" x1="-30091" fill="none"/><line y2="-27884" y1="-27852" x2="-30052" x1="-29999" fill="none"/><line y2="-28062" y1="-28050" x2="-29928" x1="-29906" fill="none"/><line y2="-31630" y1="-31630" x2="-26459" x1="-26598" fill="none"/><line y2="-31413" y1="-31413" x2="-26477" x1="-26580" fill="none"/><line y2="-31197" y1="-31197" x2="-26495" x1="-26561" fill="none"/><line y2="-30980" y1="-30980" x2="-26513" x1="-26543" fill="none"/><line y2="-27086" y1="-27083" x2="-30922" x1="-31061" fill="none"/><line y2="-26869" y1="-26867" x2="-30940" x1="-31043" fill="none"/><line y2="-26652" y1="-26650" x2="-30959" x1="-31025" fill="none"/><line y2="-26435" y1="-26434" x2="-30977" x1="-31007" fill="none"/><line y2="-31630" y1="-31630" x2="-24494" x1="-24633" fill="none"/><line y2="-31413" y1="-31413" x2="-24512" x1="-24615" fill="none"/><line y2="-31197" y1="-31197" x2="-24531" x1="-24597" fill="none"/><line y2="-30980" y1="-30980" x2="-24549" x1="-24579" fill="none"/><line y2="-24945" y1="-25014" x2="-30532" x1="-30651" fill="none"/><line y2="-24767" y1="-24817" x2="-30657" x1="-30744" fill="none"/><line y2="-24589" y1="-24621" x2="-30783" x1="-30837" fill="none"/><line y2="-24412" y1="-24424" x2="-30908" x1="-30930" fill="none"/><line y2="-28825" y1="-28828" x2="-22669" x1="-22530" fill="none"/><line y2="-29042" y1="-29044" x2="-22651" x1="-22548" fill="none"/><line y2="-29259" y1="-29261" x2="-22632" x1="-22566" fill="none"/><line y2="-29476" y1="-29477" x2="-22614" x1="-22584" fill="none"/><line y2="-20875" y1="-20875" x2="-29914" x1="-29775" fill="none"/><line y2="-21092" y1="-21092" x2="-29904" x1="-29785" fill="none"/><line y2="-21308" y1="-21308" x2="-29893" x1="-29796" fill="none"/><line y2="-21525" y1="-21525" x2="-29883" x1="-29806" fill="none"/><line y2="-21742" y1="-21742" x2="-29873" x1="-29817" fill="none"/><line y2="-21958" y1="-21958" x2="-29863" x1="-29827" fill="none"/><line y2="-22175" y1="-22175" x2="-29852" x1="-29838" fill="none"/><line y2="-29715" y1="-29715" x2="-21138" x1="-21273" fill="none"/><line y2="-29498" y1="-29498" x2="-21148" x1="-21263" fill="none"/><line y2="-29282" y1="-29282" x2="-21159" x1="-21253" fill="none"/><line y2="-29065" y1="-29065" x2="-21169" x1="-21243" fill="none"/><line y2="-28848" y1="-28848" x2="-21179" x1="-21234" fill="none"/><line y2="-28632" y1="-28632" x2="-21189" x1="-21224" fill="none"/><line y2="-28415" y1="-28415" x2="-21200" x1="-21214" fill="none"/><line y2="-27126" y1="-27126" x2="-19991" x1="-20129" fill="none"/><line y2="-26909" y1="-26909" x2="-20009" x1="-20111" fill="none"/><line y2="-26693" y1="-26693" x2="-20027" x1="-20093" fill="none"/><line y2="-26476" y1="-26476" x2="-20045" x1="-20075" fill="none"/><line y2="-25055" y1="-24986" x2="-20398" x1="-20516" fill="none"/><line y2="-24858" y1="-24808" x2="-20306" x1="-20392" fill="none"/><line y2="-24661" y1="-24630" x2="-20214" x1="-20267" fill="none"/><line y2="-24464" y1="-24451" x2="-20121" x1="-20143" fill="none"/><line y2="-20915" y1="-20915" x2="-21273" x1="-21138" fill="none"/><line y2="-21132" y1="-21132" x2="-21263" x1="-21148" fill="none"/><line y2="-21348" y1="-21348" x2="-21253" x1="-21159" fill="none"/><line y2="-21565" y1="-21565" x2="-21243" x1="-21169" fill="none"/><line y2="-21782" y1="-21782" x2="-21234" x1="-21179" fill="none"/><line y2="-21998" y1="-21998" x2="-21224" x1="-21189" fill="none"/><line y2="-22215" y1="-22215" x2="-21214" x1="-21200" fill="none"/><text y="-27331" xml:space="preserve" x="-28571" stroke="none" font-size="433.3333" font-family="sans-serif">OH</text><text y="-31148" xml:space="preserve" x="-29553" stroke="none" font-size="433.3333" font-family="sans-serif">OH</text><text y="-32242" xml:space="preserve" x="-27664" stroke="none" font-size="433.3333" font-family="sans-serif">OH</text><text y="-28949" xml:space="preserve" x="-31708" stroke="none" font-size="433.3333" font-family="sans-serif">OH</text><text y="-27060" xml:space="preserve" x="-32762" stroke="none" font-size="433.3333" font-family="sans-serif">OH</text><text y="-26078" xml:space="preserve" x="-28184" stroke="none" font-size="433.3333" font-family="sans-serif">OH</text><text y="-27889" xml:space="preserve" x="-25612" stroke="none" font-size="433.3333" font-family="sans-serif">OH</text><text y="-32242" xml:space="preserve" x="-23732" stroke="none" font-size="433.3333" font-family="sans-serif">OH</text><text y="-31148" xml:space="preserve" x="-21842" stroke="none" font-size="433.3333" font-family="sans-serif">OH</text><text y="-23131" xml:space="preserve" x="-32762" stroke="none" font-size="433.3333" font-family="sans-serif">OH</text><text y="-21242" xml:space="preserve" x="-31668" stroke="none" font-size="433.3333" font-family="sans-serif">OH</text><text y="-24702" xml:space="preserve" x="-28516" stroke="none" font-size="433.3333" font-family="sans-serif">OH</text><text y="-27100" xml:space="preserve" x="-23746" stroke="none" font-size="433.3333" font-family="sans-serif">OH</text><text y="-28990" xml:space="preserve" x="-19687" stroke="none" font-size="433.3333" font-family="sans-serif">OH</text><text y="-27100" xml:space="preserve" x="-18590" stroke="none" font-size="433.3333" font-family="sans-serif">OH</text><text y="-23064" xml:space="preserve" x="-27066" stroke="none" font-size="433.3333" font-family="sans-serif">OH</text><text y="-23056" xml:space="preserve" x="-24887" stroke="none" font-size="433.3333" font-family="sans-serif">OH</text><text y="-19800" xml:space="preserve" x="-23980" stroke="none" font-size="433.3333" font-family="sans-serif">OH</text><text y="-24154" xml:space="preserve" x="-23171" stroke="none" font-size="433.3333" font-family="sans-serif">OH</text><text y="-23171" xml:space="preserve" x="-18590" stroke="none" font-size="433.3333" font-family="sans-serif">OH</text><text y="-21273" xml:space="preserve" x="-19705" stroke="none" font-size="433.3333" font-family="sans-serif">OH</text><text y="-29068" xml:space="preserve" x="-29709" stroke="none" font-size="433.3333" font-family="sans-serif">O</text><text y="-29475" xml:space="preserve" x="-26681" stroke="none" font-size="433.3333" font-family="sans-serif">O</text><text y="-27100" xml:space="preserve" x="-29463" stroke="none" font-size="433.3333" font-family="sans-serif">O</text><text y="-31197" xml:space="preserve" x="-25699" stroke="none" font-size="433.3333" font-family="sans-serif">O</text><text y="-25095" xml:space="preserve" x="-31717" stroke="none" font-size="433.3333" font-family="sans-serif">O</text><text y="-28903" xml:space="preserve" x="-23732" stroke="none" font-size="433.3333" font-family="sans-serif">O</text><text y="-24113" xml:space="preserve" x="-29998" stroke="none" font-size="433.3333" font-family="sans-serif">O</text><text y="-29068" xml:space="preserve" x="-21767" stroke="none" font-size="433.3333" font-family="sans-serif">O</text><text y="-21166" xml:space="preserve" x="-29423" stroke="none" font-size="433.3333" font-family="sans-serif">O</text><text y="-26118" xml:space="preserve" x="-21357" stroke="none" font-size="433.3333" font-family="sans-serif">O</text><text y="-20184" xml:space="preserve" x="-26557" stroke="none" font-size="433.3333" font-family="sans-serif">O</text><text y="-25136" xml:space="preserve" x="-19638" stroke="none" font-size="433.3333" font-family="sans-serif">O</text><text y="-21207" xml:space="preserve" x="-21932" stroke="none" font-size="433.3333" font-family="sans-serif">O</text><text y="-23171" xml:space="preserve" x="-21932" stroke="none" font-size="433.3333" font-family="sans-serif">O</text><text y="-28429" xml:space="preserve" x="-28646" stroke="none" font-size="433.3333" font-family="sans-serif">H</text><text y="-27094" xml:space="preserve" x="-30521" stroke="none" font-size="433.3333" font-family="sans-serif">H</text><text y="-31670" xml:space="preserve" x="-26681" stroke="none" font-size="433.3333" font-family="sans-serif">H</text><text y="-27126" xml:space="preserve" x="-31142" stroke="none" font-size="433.3333" font-family="sans-serif">H</text><text y="-31670" xml:space="preserve" x="-24714" stroke="none" font-size="433.3333" font-family="sans-serif">H</text><text y="-25020" xml:space="preserve" x="-30619" stroke="none" font-size="433.3333" font-family="sans-serif">H</text><text y="-28429" xml:space="preserve" x="-22750" stroke="none" font-size="433.3333" font-family="sans-serif">H</text><text y="-20476" xml:space="preserve" x="-29998" stroke="none" font-size="433.3333" font-family="sans-serif">H</text><text y="-29755" xml:space="preserve" x="-21357" stroke="none" font-size="433.3333" font-family="sans-serif">H</text><text y="-19494" xml:space="preserve" x="-27132" stroke="none" font-size="433.3333" font-family="sans-serif">H</text><text y="-27167" xml:space="preserve" x="-20213" stroke="none" font-size="433.3333" font-family="sans-serif">H</text><text y="-20118" xml:space="preserve" x="-24838" stroke="none" font-size="433.3333" font-family="sans-serif">H</text><text y="-25061" xml:space="preserve" x="-20736" stroke="none" font-size="433.3333" font-family="sans-serif">H</text><text y="-20519" xml:space="preserve" x="-21357" stroke="none" font-size="433.3333" font-family="sans-serif">H</text><text y="-29619" xml:space="preserve" x="-28397" stroke="none" font-style="italic" font-size="313.3333" font-family="sans-serif">S</text><text y="-29206" xml:space="preserve" x="-27664" stroke="none" font-style="italic" font-size="313.3333" font-family="sans-serif">R</text><text y="-30477" xml:space="preserve" x="-28397" stroke="none" font-style="italic" font-size="313.3333" font-family="sans-serif">R</text><text y="-30893" xml:space="preserve" x="-27664" stroke="none" font-style="italic" font-size="313.3333" font-family="sans-serif">R</text><text y="-28054" xml:space="preserve" x="-29715" stroke="none" font-style="italic" font-size="313.3333" font-family="sans-serif">R</text><text y="-30477" xml:space="preserve" x="-26433" stroke="none" font-style="italic" font-size="313.3333" font-family="sans-serif">R</text><text y="-27796" xml:space="preserve" x="-31041" stroke="none" font-style="italic" font-size="313.3333" font-family="sans-serif">R</text><text y="-26814" xml:space="preserve" x="-31858" stroke="none" font-style="italic" font-size="313.3333" font-family="sans-serif">R</text><text y="-26364" xml:space="preserve" x="-30229" stroke="none" font-style="italic" font-size="313.3333" font-family="sans-serif">R</text><text y="-30477" xml:space="preserve" x="-24468" stroke="none" font-style="italic" font-size="313.3333" font-family="sans-serif">S</text><text y="-25829" xml:space="preserve" x="-30997" stroke="none" font-style="italic" font-size="313.3333" font-family="sans-serif">S</text><text y="-29619" xml:space="preserve" x="-24468" stroke="none" font-style="italic" font-size="313.3333" font-family="sans-serif">R</text><text y="-30893" xml:space="preserve" x="-23732" stroke="none" font-style="italic" font-size="313.3333" font-family="sans-serif">R</text><text y="-30477" xml:space="preserve" x="-23001" stroke="none" font-style="italic" font-size="313.3333" font-family="sans-serif">R</text><text y="-23865" xml:space="preserve" x="-30997" stroke="none" font-style="italic" font-size="313.3333" font-family="sans-serif">R</text><text y="-29619" xml:space="preserve" x="-23001" stroke="none" font-style="italic" font-size="313.3333" font-family="sans-serif">R</text><text y="-23131" xml:space="preserve" x="-31445" stroke="none" font-style="italic" font-size="313.3333" font-family="sans-serif">R</text><text y="-22397" xml:space="preserve" x="-30997" stroke="none" font-style="italic" font-size="313.3333" font-family="sans-serif">R</text><text y="-23131" xml:space="preserve" x="-29694" stroke="none" font-style="italic" font-size="313.3333" font-family="sans-serif">R</text><text y="-28082" xml:space="preserve" x="-21629" stroke="none" font-style="italic" font-size="313.3333" font-family="sans-serif">S</text><text y="-22149" xml:space="preserve" x="-29726" stroke="none" font-style="italic" font-size="313.3333" font-family="sans-serif">S</text><text y="-27100" xml:space="preserve" x="-21660" stroke="none" font-style="italic" font-size="313.3333" font-family="sans-serif">R</text><text y="-27837" xml:space="preserve" x="-20355" stroke="none" font-style="italic" font-size="313.3333" font-family="sans-serif">R</text><text y="-27352" xml:space="preserve" x="-19497" stroke="none" font-style="italic" font-size="313.3333" font-family="sans-serif">R</text><text y="-21166" xml:space="preserve" x="-26860" stroke="none" font-style="italic" font-size="313.3333" font-family="sans-serif">R</text><text y="-25870" xml:space="preserve" x="-20355" stroke="none" font-style="italic" font-size="313.3333" font-family="sans-serif">R</text><text y="-21900" xml:space="preserve" x="-26416" stroke="none" font-style="italic" font-size="313.3333" font-family="sans-serif">R</text><text y="-21900" xml:space="preserve" x="-25555" stroke="none" font-style="italic" font-size="313.3333" font-family="sans-serif">R</text><text y="-20433" xml:space="preserve" x="-25555" stroke="none" font-style="italic" font-size="313.3333" font-family="sans-serif">R</text><text y="-23905" xml:space="preserve" x="-20355" stroke="none" font-style="italic" font-size="313.3333" font-family="sans-serif">S</text><text y="-21166" xml:space="preserve" x="-25110" stroke="none" font-style="italic" font-size="313.3333" font-family="sans-serif">S</text><text y="-23905" xml:space="preserve" x="-21216" stroke="none" font-style="italic" font-size="313.3333" font-family="sans-serif">R</text><text y="-23171" xml:space="preserve" x="-19910" stroke="none" font-style="italic" font-size="313.3333" font-family="sans-serif">R</text><text y="-22438" xml:space="preserve" x="-20355" stroke="none" font-style="italic" font-size="313.3333" font-family="sans-serif">R</text><text y="-22438" xml:space="preserve" x="-21216" stroke="none" font-style="italic" font-size="313.3333" font-family="sans-serif">R</text></g></g></svg>