<svg width="187.08" viewBox="0 0 6236 12952" text-rendering="auto" stroke-width="1" stroke-opacity="1" stroke-miterlimit="10" stroke-linejoin="miter" stroke-linecap="square" stroke-dashoffset="0" stroke-dasharray="none" stroke="black" shape-rendering="auto" image-rendering="auto" height="388.56" font-weight="normal" font-style="normal" font-size="12" font-family="'Dialog'" fill-opacity="1" fill="black" color-rendering="auto" color-interpolation="auto" xmlns="http://www.w3.org/2000/svg"><g><g stroke="white" fill="white"><rect y="0" x="0" width="6236" stroke="none" height="12952"/></g><g transform="translate(32866,32758)" text-rendering="geometricPrecision" stroke-width="44" stroke-linejoin="round" stroke-linecap="round"><line y2="-29668" y1="-29668" x2="-30792" x1="-28822" fill="none"/><line y2="-29668" y1="-30587" x2="-28822" x1="-28822" fill="none"/><line y2="-30807" y1="-29668" x2="-30792" x1="-30792" fill="none"/><line y2="-29099" y1="-29668" x2="-31774" x1="-30792" fill="none"/><line y2="-29319" y1="-29744" x2="-31737" x1="-31000" fill="none"/><line y2="-30914" y1="-31376" x2="-29010" x1="-29804" fill="none"/><line y2="-31376" y1="-30807" x2="-29804" x1="-30792" fill="none"/><line y2="-30807" y1="-31376" x2="-30792" x1="-31774" fill="none"/><line y2="-30729" y1="-31156" x2="-31000" x1="-31737" fill="none"/><line y2="-29668" y1="-29099" x2="-32762" x1="-31774" fill="none"/><line y2="-31376" y1="-30807" x2="-31774" x1="-32762" fill="none"/><line y2="-30807" y1="-29668" x2="-32762" x1="-32762" fill="none"/><line y2="-30665" y1="-29810" x2="-32592" x1="-32592" fill="none"/><line y2="-28620" y1="-29668" x2="-28822" x1="-28822" fill="none"/><line y2="-29668" y1="-29668" x2="-28111" x1="-28822" fill="none"/><line y2="-32202" y1="-31376" x2="-29874" x1="-29874" fill="none"/><line y2="-32202" y1="-31376" x2="-29735" x1="-29735" fill="none"/><line y2="-28620" y1="-28054" x2="-28822" x1="-29804" fill="none"/><line y2="-28403" y1="-27978" x2="-28860" x1="-29596" fill="none"/><line y2="-28054" y1="-28620" x2="-27837" x1="-28822" fill="none"/><line y2="-28054" y1="-26918" x2="-29804" x1="-29804" fill="none"/><line y2="-26915" y1="-28054" x2="-27837" x1="-27837" fill="none"/><line y2="-27057" y1="-27912" x2="-28007" x1="-28007" fill="none"/><line y2="-26918" y1="-26349" x2="-29804" x1="-28822" fill="none"/><line y2="-26993" y1="-26566" x2="-29596" x1="-28860" fill="none"/><line y2="-26349" y1="-26915" x2="-28822" x1="-27837" fill="none"/><line y2="-26592" y1="-26918" x2="-30370" x1="-29804" fill="none"/><line y2="-26589" y1="-26915" x2="-27268" x1="-27837" fill="none"/><line y2="-25520" y1="-26349" x2="-28822" x1="-28822" fill="none"/><line y2="-23504" y1="-22934" x2="-29850" x1="-30836" fill="none"/><line y2="-23287" y1="-22859" x2="-29888" x1="-30628" fill="none"/><line y2="-22934" y1="-21799" x2="-30836" x1="-30836" fill="none"/><line y2="-22934" y1="-23504" x2="-28865" x1="-29850" fill="none"/><line y2="-21799" y1="-21230" x2="-30836" x1="-29850" fill="none"/><line y2="-21874" y1="-21450" x2="-30628" x1="-29891" fill="none"/><line y2="-21799" y1="-22934" x2="-28865" x1="-28865" fill="none"/><line y2="-21941" y1="-22793" x2="-29036" x1="-29036" fill="none"/><line y2="-21230" y1="-21799" x2="-29850" x1="-28865" fill="none"/><line y2="-23261" y1="-22934" x2="-28299" x1="-28865" fill="none"/><line y2="-20401" y1="-21230" x2="-29850" x1="-29850" fill="none"/><line y2="-21383" y1="-21799" x2="-28149" x1="-28865" fill="none"/><line y2="-23255" y1="-22934" x2="-31410" x1="-30836" fill="none"/><text y="-32242" xml:space="preserve" x="-29957" stroke="none" font-size="433.3333" font-family="sans-serif">O</text><text y="-26213" xml:space="preserve" x="-30942" stroke="none" font-size="433.3333" font-family="sans-serif">Br</text><text y="-26213" xml:space="preserve" x="-27161" stroke="none" font-size="433.3333" font-family="sans-serif">Br</text><text y="-25121" xml:space="preserve" x="-28972" stroke="none" font-size="433.3333" font-family="sans-serif">OH</text><text y="-30628" xml:space="preserve" x="-28972" stroke="none" font-size="433.3333" font-family="sans-serif">O</text><text y="-29489" xml:space="preserve" x="-28077" stroke="none" font-size="433.3333" font-family="sans-serif">@1</text><text y="-23278" xml:space="preserve" x="-28192" stroke="none" font-size="433.3333" font-family="sans-serif">Br</text><text y="-20002" xml:space="preserve" x="-30084" stroke="none" font-size="433.3333" font-family="sans-serif">Br</text><text y="-21097" xml:space="preserve" x="-28111" stroke="none" font-size="433.3333" font-family="sans-serif">OH</text><text y="-23264" xml:space="preserve" x="-32055" stroke="none" font-size="433.3333" font-family="sans-serif">@1</text></g></g></svg>