<svg width="230.73" viewBox="0 0 7691 2991" text-rendering="auto" stroke-width="1" stroke-opacity="1" stroke-miterlimit="10" stroke-linejoin="miter" stroke-linecap="square" stroke-dashoffset="0" stroke-dasharray="none" stroke="black" shape-rendering="auto" image-rendering="auto" height="89.73" font-weight="normal" font-style="normal" font-size="12" font-family="'Dialog'" fill-opacity="1" fill="black" color-rendering="auto" color-interpolation="auto" xmlns="http://www.w3.org/2000/svg"><g><g stroke="white" fill="white"><rect y="0" x="0" width="7691" stroke="none" height="2991"/></g><g transform="translate(32866,32758)" text-rendering="geometricPrecision" stroke-width="44" stroke-linejoin="round" stroke-linecap="round"><line y2="-30977" y1="-31870" x2="-30099" x1="-30304" fill="none"/><line y2="-29871" y1="-30541" x2="-30760" x1="-30226" fill="none"/><line y2="-31870" y1="-32364" x2="-30304" x1="-31330" fill="none"/><line y2="-29871" y1="-29871" x2="-31899" x1="-30760" fill="none"/><line y2="-32364" y1="-31870" x2="-31330" x1="-32352" fill="none"/><line y2="-30541" y1="-29871" x2="-32433" x1="-31899" fill="none"/><line y2="-31870" y1="-30977" x2="-32352" x1="-32557" fill="none"/><line y2="-30235" y1="-30651" x2="-29143" x1="-29862" fill="none"/><line y2="-30758" y1="-30235" x2="-28236" x1="-29143" fill="none"/><line y2="-31896" y1="-30758" x2="-28236" x1="-28236" fill="none"/><line y2="-31754" y1="-30902" x2="-28065" x1="-28065" fill="none"/><line y2="-30758" y1="-30191" x2="-28236" x1="-27248" fill="none"/><line y2="-32465" y1="-31896" x2="-27248" x1="-28236" fill="none"/><line y2="-30191" y1="-30758" x2="-27248" x1="-26265" fill="none"/><line y2="-30408" y1="-30836" x2="-27210" x1="-26473" fill="none"/><line y2="-31896" y1="-32465" x2="-26265" x1="-27248" fill="none"/><line y2="-31821" y1="-32248" x2="-26473" x1="-27210" fill="none"/><line y2="-30758" y1="-31896" x2="-26265" x1="-26265" fill="none"/><line y2="-32312" y1="-31896" x2="-25546" x1="-26265" fill="none"/><text y="-32242" xml:space="preserve" x="-25511" stroke="none" font-size="433.3333" font-family="sans-serif">F</text><text y="-30578" xml:space="preserve" x="-30203" stroke="none" font-size="433.3333" font-family="sans-serif">N</text><text y="-30578" xml:space="preserve" x="-32762" stroke="none" font-size="433.3333" font-family="sans-serif">NH</text></g></g></svg>