<svg width="260.85" viewBox="0 0 8695 8778" text-rendering="auto" stroke-width="1" stroke-opacity="1" stroke-miterlimit="10" stroke-linejoin="miter" stroke-linecap="square" stroke-dashoffset="0" stroke-dasharray="none" stroke="black" shape-rendering="auto" image-rendering="auto" height="263.34" font-weight="normal" font-style="normal" font-size="12" font-family="'Dialog'" fill-opacity="1" fill="black" color-rendering="auto" color-interpolation="auto" xmlns="http://www.w3.org/2000/svg"><g><g stroke="white" fill="white"><rect y="0" x="0" width="8695" stroke="none" height="8778"/></g><g transform="translate(32866,32758)" text-rendering="geometricPrecision" stroke-width="44" stroke-linejoin="round" stroke-linecap="round"><line y2="-28198" y1="-28767" x2="-26962" x1="-27944" fill="none"/><line y2="-28767" y1="-28308" x2="-27944" x1="-28744" fill="none"/><line y2="-27060" y1="-28198" x2="-26962" x1="-26962" fill="none"/><line y2="-27978" y1="-27060" x2="-28935" x1="-28935" fill="none"/><line y2="-26494" y1="-27060" x2="-27944" x1="-26962" fill="none"/><line y2="-26600" y1="-27060" x2="-26164" x1="-26962" fill="none"/><line y2="-26494" y1="-27060" x2="-27944" x1="-28935" fill="none"/><line y2="-27060" y1="-26494" x2="-28935" x1="-29917" fill="none"/><line y2="-26915" y1="-26569" x2="-24942" x1="-25789" fill="none"/><line y2="-26494" y1="-26808" x2="-29917" x1="-31046" fill="none"/><line y2="-25994" y1="-26915" x2="-24275" x1="-24942" fill="none"/><line y2="-26808" y1="-25890" x2="-31046" x1="-31717" fill="none"/><line y2="-25075" y1="-25994" x2="-24942" x1="-24275" fill="none"/><line y2="-25292" y1="-25979" x2="-24997" x1="-24494" fill="none"/><line y2="-25890" y1="-24968" x2="-31717" x1="-31046" fill="none"/><line y2="-25355" y1="-25075" x2="-25976" x1="-24942" fill="none"/><line y2="-24968" y1="-25355" x2="-31046" x1="-29917" fill="none"/><line y2="-25176" y1="-25468" x2="-30963" x1="-30113" fill="none"/><line y2="-24786" y1="-25355" x2="-26962" x1="-25976" fill="none"/><line y2="-25355" y1="-24786" x2="-29917" x1="-28935" fill="none"/><line y2="-25355" y1="-24786" x2="-27944" x1="-26962" fill="none"/><line y2="-24786" y1="-25355" x2="-28935" x1="-27944" fill="none"/><line y2="-25006" y1="-25433" x2="-28894" x1="-28155" fill="none"/><line y2="-29816" y1="-28767" x2="-27944" x1="-27944" fill="none"/><line y2="-24084" y1="-25075" x2="-24601" x1="-24942" fill="none"/><line y2="-27721" y1="-26933" x2="-24783" x1="-25009" fill="none"/><line y2="-27684" y1="-26895" x2="-24650" x1="-24876" fill="none"/><line y2="-30512" y1="-29816" x2="-28845" x1="-27944" fill="none"/><line y2="-29816" y1="-30370" x2="-27944" x1="-27190" fill="none"/><line y2="-31356" y1="-30512" x2="-28553" x1="-28845" fill="none"/><line y2="-30729" y1="-31575" x2="-27068" x1="-27331" fill="none"/><line y2="-31575" y1="-31575" x2="-27331" x1="-28288" fill="none"/><line y2="-32245" y1="-31616" x2="-26930" x1="-27386" fill="none"/><line y2="-32162" y1="-31535" x2="-26817" x1="-27274" fill="none"/><polygon stroke-width="1" stroke="none" points=" -31717 -25890 -32762 -25820 -32762 -25956"/><polygon stroke-width="1" points=" -31717 -25890 -32762 -25820 -32762 -25956" fill="none"/><polygon stroke-width="1" stroke="none" points=" -26962 -27060 -26892 -26234 -27031 -26231"/><polygon stroke-width="1" points=" -26962 -27060 -26892 -26234 -27031 -26231" fill="none"/><polygon stroke-width="1" stroke="none" points=" -27944 -29816 -28666 -29385 -28730 -29507"/><polygon stroke-width="1" points=" -27944 -29816 -28666 -29385 -28730 -29507" fill="none"/><line y2="-29122" y1="-29241" x2="-27190" x1="-27259" fill="none"/><line y2="-29029" y1="-29117" x2="-27387" x1="-27438" fill="none"/><line y2="-28937" y1="-28994" x2="-27583" x1="-27616" fill="none"/><line y2="-28844" y1="-28870" x2="-27780" x1="-27795" fill="none"/><line y2="-26231" y1="-26234" x2="-29001" x1="-28865" fill="none"/><line y2="-26448" y1="-26450" x2="-28984" x1="-28883" fill="none"/><line y2="-26665" y1="-26667" x2="-28966" x1="-28902" fill="none"/><line y2="-26882" y1="-26883" x2="-28949" x1="-28920" fill="none"/><text y="-29111" xml:space="preserve" x="-27190" stroke="none" font-size="433.3333" font-family="sans-serif">OH</text><text y="-32242" xml:space="preserve" x="-26866" stroke="none" font-size="433.3333" font-family="sans-serif">O</text><text y="-27744" xml:space="preserve" x="-24806" stroke="none" font-size="433.3333" font-family="sans-serif">O</text><text y="-28019" xml:space="preserve" x="-29085" stroke="none" font-size="433.3333" font-family="sans-serif">O</text><text y="-26314" xml:space="preserve" x="-26130" stroke="none" font-size="433.3333" font-family="sans-serif">O</text><text y="-30333" xml:space="preserve" x="-27155" stroke="none" font-size="433.3333" font-family="sans-serif">NH</text><text y="-31396" xml:space="preserve" x="-28628" stroke="none" font-size="433.3333" font-family="sans-serif">S</text><text y="-25835" xml:space="preserve" x="-27112" stroke="none" font-size="433.3333" font-family="sans-serif">H</text><text y="-25835" xml:space="preserve" x="-29085" stroke="none" font-size="433.3333" font-family="sans-serif">H</text><text y="-29177" xml:space="preserve" x="-29039" stroke="none" font-size="433.3333" font-family="sans-serif">H</text><text y="-25667" xml:space="preserve" x="-25205" stroke="none" font-style="italic" font-size="313.3333" font-family="sans-serif">Z</text><text y="-25488" xml:space="preserve" x="-30818" stroke="none" font-style="italic" font-size="313.3333" font-family="sans-serif">Z</text><text y="-25217" xml:space="preserve" x="-29117" stroke="none" font-style="italic" font-size="313.3333" font-family="sans-serif">E</text><text y="-28285" xml:space="preserve" x="-28097" stroke="none" font-style="italic" font-size="313.3333" font-family="sans-serif">R</text><text y="-27025" xml:space="preserve" x="-27363" stroke="none" font-style="italic" font-size="313.3333" font-family="sans-serif">R</text><text y="-27025" xml:space="preserve" x="-29333" stroke="none" font-style="italic" font-size="313.3333" font-family="sans-serif">R</text><text y="-25711" xml:space="preserve" x="-31598" stroke="none" font-style="italic" font-size="313.3333" font-family="sans-serif">S</text><text y="-29512" xml:space="preserve" x="-27837" stroke="none" font-style="italic" font-size="313.3333" font-family="sans-serif">R</text></g></g></svg>