<svg width="387.24" viewBox="0 0 12908 8188" text-rendering="auto" stroke-width="1" stroke-opacity="1" stroke-miterlimit="10" stroke-linejoin="miter" stroke-linecap="square" stroke-dashoffset="0" stroke-dasharray="none" stroke="black" shape-rendering="auto" image-rendering="auto" height="245.64" font-weight="normal" font-style="normal" font-size="12" font-family="'Dialog'" fill-opacity="1" fill="black" color-rendering="auto" color-interpolation="auto" xmlns="http://www.w3.org/2000/svg"><g><g stroke="white" fill="white"><rect y="0" x="0" width="12908" stroke="none" height="8188"/></g><g transform="translate(32866,32758)" text-rendering="geometricPrecision" stroke-width="44" stroke-linejoin="round" stroke-linecap="round"><line y2="-27574" y1="-26598" x2="-24029" x1="-24029" fill="none"/><line y2="-26378" y1="-26378" x2="-23842" x1="-21955" fill="none"/><line y2="-25780" y1="-26268" x2="-25066" x1="-24217" fill="none"/><line y2="-27574" y1="-28172" x2="-24029" x1="-25066" fill="none"/><line y2="-28065" y1="-27574" x2="-23177" x1="-24029" fill="none"/><line y2="-27854" y1="-27487" x2="-23200" x1="-23839" fill="none"/><line y2="-26378" y1="-27354" x2="-21955" x1="-21955" fill="none"/><line y2="-26517" y1="-27233" x2="-22126" x1="-22126" fill="none"/><line y2="-26378" y1="-25780" x2="-26104" x1="-25066" fill="none"/><line y2="-28172" y1="-27681" x2="-25066" x1="-25916" fill="none"/><line y2="-27681" y1="-28062" x2="-22143" x1="-22802" fill="none"/><line y2="-27354" y1="-26378" x2="-26104" x1="-26104" fill="none"/><line y2="-28097" y1="-27681" x2="-27011" x1="-26294" fill="none"/><line y2="-25852" y1="-26378" x2="-21048" x1="-21955" fill="none"/><line y2="-27574" y1="-28097" x2="-27918" x1="-27011" fill="none"/><line y2="-28097" y1="-27574" x2="-28828" x1="-27918" fill="none"/><line y2="-28926" y1="-28097" x2="-27083" x1="-27083" fill="none"/><line y2="-28926" y1="-28097" x2="-26941" x1="-26941" fill="none"/><line y2="-26268" y1="-25852" x2="-20329" x1="-21048" fill="none"/><line y2="-25165" y1="-25852" x2="-20649" x1="-21048" fill="none"/><line y2="-25165" y1="-25852" x2="-21444" x1="-21048" fill="none"/><line y2="-29146" y1="-28097" x2="-28828" x1="-28828" fill="none"/><line y2="-29668" y1="-29146" x2="-29735" x1="-28828" fill="none"/><line y2="-27620" y1="-28036" x2="-29510" x1="-28790" fill="none"/><line y2="-27742" y1="-28158" x2="-29582" x1="-28862" fill="none"/><line y2="-29099" y1="-29668" x2="-30717" x1="-29735" fill="none"/><line y2="-29319" y1="-29744" x2="-30680" x1="-29940" fill="none"/><line y2="-29668" y1="-30807" x2="-29735" x1="-29735" fill="none"/><line y2="-29668" y1="-29099" x2="-31705" x1="-30717" fill="none"/><line y2="-30807" y1="-31376" x2="-29735" x1="-30717" fill="none"/><line y2="-30729" y1="-31156" x2="-29940" x1="-30680" fill="none"/><line y2="-30807" y1="-29668" x2="-31705" x1="-31705" fill="none"/><line y2="-30665" y1="-29810" x2="-31535" x1="-31535" fill="none"/><line y2="-31376" y1="-30807" x2="-30717" x1="-31705" fill="none"/><line y2="-28273" y1="-29099" x2="-30717" x1="-30717" fill="none"/><line y2="-32202" y1="-31376" x2="-30717" x1="-30717" fill="none"/><line y2="-31223" y1="-30807" x2="-32422" x1="-31705" fill="none"/><text y="-26199" xml:space="preserve" x="-20294" stroke="none" font-size="433.3333" font-family="sans-serif">F</text><text y="-24766" xml:space="preserve" x="-20675" stroke="none" font-size="433.3333" font-family="sans-serif">F</text><text y="-24766" xml:space="preserve" x="-21724" stroke="none" font-size="433.3333" font-family="sans-serif">F</text><text y="-28966" xml:space="preserve" x="-27164" stroke="none" font-size="433.3333" font-family="sans-serif">O</text><text y="-27395" xml:space="preserve" x="-29885" stroke="none" font-size="433.3333" font-family="sans-serif">O</text><text y="-27874" xml:space="preserve" x="-30870" stroke="none" font-size="433.3333" font-family="sans-serif">F</text><text y="-32242" xml:space="preserve" x="-30870" stroke="none" font-size="433.3333" font-family="sans-serif">F</text><text y="-31150" xml:space="preserve" x="-32762" stroke="none" font-size="433.3333" font-family="sans-serif">F</text><text y="-26199" xml:space="preserve" x="-24182" stroke="none" font-size="433.3333" font-family="sans-serif">N</text><text y="-27993" xml:space="preserve" x="-23142" stroke="none" font-size="433.3333" font-family="sans-serif">N</text><text y="-27395" xml:space="preserve" x="-22108" stroke="none" font-size="433.3333" font-family="sans-serif">N</text><text y="-27395" xml:space="preserve" x="-26257" stroke="none" font-size="433.3333" font-family="sans-serif">N</text></g></g></svg>