<svg width="207.03" viewBox="0 0 6901 4639" text-rendering="auto" stroke-width="1" stroke-opacity="1" stroke-miterlimit="10" stroke-linejoin="miter" stroke-linecap="square" stroke-dashoffset="0" stroke-dasharray="none" stroke="black" shape-rendering="auto" image-rendering="auto" height="139.17" font-weight="normal" font-style="normal" font-size="12" font-family="'Dialog'" fill-opacity="1" fill="black" color-rendering="auto" color-interpolation="auto" xmlns="http://www.w3.org/2000/svg"><g><g stroke="white" fill="white"><rect y="0" x="0" width="6901" stroke="none" height="4639"/></g><g transform="translate(32866,32866)" text-rendering="geometricPrecision" stroke-width="44" stroke-linejoin="round" stroke-linecap="round"><line y2="-28602" y1="-29541" x2="-31159" x1="-30836" fill="none"/><line y2="-29905" y1="-30370" x2="-30948" x1="-31549" fill="none"/><line y2="-28602" y1="-28602" x2="-32216" x1="-31159" fill="none"/><line y2="-28773" y1="-28773" x2="-32084" x1="-31292" fill="none"/><line y2="-30376" y1="-29761" x2="-31925" x1="-32762" fill="none"/><line y2="-30162" y1="-29700" x2="-31930" x1="-32554" fill="none"/><line y2="-29761" y1="-28822" x2="-32762" x1="-32474" fill="none"/><line y2="-30284" y1="-29868" x2="-29853" x1="-30573" fill="none"/><line y2="-29761" y1="-30284" x2="-28946" x1="-29853" fill="none"/><line y2="-29706" y1="-30099" x2="-29128" x1="-29807" fill="none"/><line y2="-31332" y1="-30284" x2="-29853" x1="-29853" fill="none"/><line y2="-30284" y1="-29761" x2="-28039" x1="-28946" fill="none"/><line y2="-31855" y1="-31332" x2="-30760" x1="-29853" fill="none"/><line y2="-31746" y1="-31332" x2="-29134" x1="-29853" fill="none"/><line y2="-31422" y1="-30284" x2="-28039" x1="-28039" fill="none"/><line y2="-30284" y1="-29715" x2="-28039" x1="-27051" fill="none"/><line y2="-31988" y1="-31422" x2="-27051" x1="-28039" fill="none"/><line y2="-29715" y1="-30284" x2="-27051" x1="-26069" fill="none"/><line y2="-31422" y1="-31988" x2="-26069" x1="-27051" fill="none"/><line y2="-30284" y1="-31422" x2="-26069" x1="-26069" fill="none"/><line y2="-31347" y1="-31855" x2="-31676" x1="-30760" fill="none"/><line y2="-32762" y1="-31855" x2="-31283" x1="-30760" fill="none"/><line y2="-32762" y1="-31855" x2="-30235" x1="-30760" fill="none"/><text y="-31676" xml:space="preserve" x="-29096" stroke="none" font-size="433.3333" font-family="sans-serif">OH</text><text y="-29582" xml:space="preserve" x="-30911" stroke="none" font-size="433.3333" font-family="sans-serif">N</text><text y="-30336" xml:space="preserve" x="-31890" stroke="none" font-size="433.3333" font-family="sans-serif">N</text><text y="-28423" xml:space="preserve" x="-32557" stroke="none" font-size="433.3333" font-family="sans-serif">N</text><text y="-30232" xml:space="preserve" x="-29336" stroke="none" font-style="italic" font-size="313.3333" font-family="sans-serif">E</text></g></g></svg>