<svg width="176.34" viewBox="0 0 5878 6128" text-rendering="auto" stroke-width="1" stroke-opacity="1" stroke-miterlimit="10" stroke-linejoin="miter" stroke-linecap="square" stroke-dashoffset="0" stroke-dasharray="none" stroke="black" shape-rendering="auto" image-rendering="auto" height="183.84" font-weight="normal" font-style="normal" font-size="12" font-family="'Dialog'" fill-opacity="1" fill="black" color-rendering="auto" color-interpolation="auto" xmlns="http://www.w3.org/2000/svg"><g><g stroke="white" fill="white"><rect y="0" x="0" width="5878" stroke="none" height="6128"/></g><g transform="translate(32866,32758)" text-rendering="geometricPrecision" stroke-width="44" stroke-linejoin="round" stroke-linecap="round"><line y2="-30281" y1="-30850" x2="-28906" x1="-29888" fill="none"/><line y2="-30206" y1="-30633" x2="-29114" x1="-29850" fill="none"/><line y2="-30850" y1="-30281" x2="-29888" x1="-30876" fill="none"/><line y2="-29146" y1="-30281" x2="-28906" x1="-28906" fill="none"/><line y2="-30281" y1="-29146" x2="-30876" x1="-30876" fill="none"/><line y2="-30139" y1="-29287" x2="-30706" x1="-30706" fill="none"/><line y2="-28576" y1="-29146" x2="-29888" x1="-28906" fill="none"/><line y2="-28793" y1="-29221" x2="-29850" x1="-29114" fill="none"/><line y2="-29146" y1="-28576" x2="-30876" x1="-29888" fill="none"/><line y2="-30807" y1="-30281" x2="-27999" x1="-28906" fill="none"/><line y2="-31679" y1="-30850" x2="-29888" x1="-29888" fill="none"/><line y2="-32422" y1="-32008" x2="-30795" x1="-30076" fill="none"/><line y2="-31899" y1="-32422" x2="-31702" x1="-30795" fill="none"/><line y2="-27747" y1="-28576" x2="-29888" x1="-29888" fill="none"/><line y2="-27005" y1="-27421" x2="-30795" x1="-30076" fill="none"/><line y2="-27528" y1="-27005" x2="-31702" x1="-30795" fill="none"/><line y2="-30281" y1="-30807" x2="-27092" x1="-27999" fill="none"/><line y2="-31636" y1="-30807" x2="-28068" x1="-28068" fill="none"/><line y2="-31636" y1="-30807" x2="-27929" x1="-27929" fill="none"/><line y2="-32315" y1="-31899" x2="-32422" x1="-31702" fill="none"/><line y2="-31211" y1="-31899" x2="-32101" x1="-31702" fill="none"/><line y2="-31211" y1="-31899" x2="-31306" x1="-31702" fill="none"/><line y2="-27112" y1="-27528" x2="-32422" x1="-31702" fill="none"/><line y2="-28215" y1="-27528" x2="-32101" x1="-31702" fill="none"/><line y2="-28215" y1="-27528" x2="-31306" x1="-31702" fill="none"/><text y="-31720" xml:space="preserve" x="-30041" stroke="none" font-size="433.3333" font-family="sans-serif">O</text><text y="-32242" xml:space="preserve" x="-32762" stroke="none" font-size="433.3333" font-family="sans-serif">F</text><text y="-30812" xml:space="preserve" x="-32378" stroke="none" font-size="433.3333" font-family="sans-serif">F</text><text y="-30812" xml:space="preserve" x="-31332" stroke="none" font-size="433.3333" font-family="sans-serif">F</text><text y="-31676" xml:space="preserve" x="-28149" stroke="none" font-size="433.3333" font-family="sans-serif">O</text><text y="-27349" xml:space="preserve" x="-30041" stroke="none" font-size="433.3333" font-family="sans-serif">O</text><text y="-26826" xml:space="preserve" x="-32762" stroke="none" font-size="433.3333" font-family="sans-serif">F</text><text y="-28256" xml:space="preserve" x="-32378" stroke="none" font-size="433.3333" font-family="sans-serif">F</text><text y="-28256" xml:space="preserve" x="-31332" stroke="none" font-size="433.3333" font-family="sans-serif">F</text></g></g></svg>