<svg width="248.07" viewBox="0 0 8269 3517" text-rendering="auto" stroke-width="1" stroke-opacity="1" stroke-miterlimit="10" stroke-linejoin="miter" stroke-linecap="square" stroke-dashoffset="0" stroke-dasharray="none" stroke="black" shape-rendering="auto" image-rendering="auto" height="105.51" font-weight="normal" font-style="normal" font-size="12" font-family="'Dialog'" fill-opacity="1" fill="black" color-rendering="auto" color-interpolation="auto" xmlns="http://www.w3.org/2000/svg"><g><g stroke="white" fill="white"><rect y="0" x="0" width="8269" stroke="none" height="3517"/></g><g transform="translate(32866,32758)" text-rendering="geometricPrecision" stroke-width="44" stroke-linejoin="round" stroke-linecap="round"><line y2="-30680" y1="-31228" x2="-28952" x1="-29666" fill="none"/><line y2="-29833" y1="-30680" x2="-29247" x1="-28952" fill="none"/><line y2="-29995" y1="-30628" x2="-29371" x1="-29151" fill="none"/><line y2="-31237" y1="-30680" x2="-30041" x1="-30795" fill="none"/><line y2="-29616" y1="-29616" x2="-30469" x1="-29510" fill="none"/><line y2="-30680" y1="-29616" x2="-30795" x1="-30469" fill="none"/><line y2="-30596" y1="-29798" x2="-30590" x1="-30347" fill="none"/><line y2="-31202" y1="-30680" x2="-28045" x1="-28952" fill="none"/><line y2="-30786" y1="-31202" x2="-27328" x1="-28045" fill="none"/><line y2="-31202" y1="-30786" x2="-26231" x1="-26950" fill="none"/><line y2="-32202" y1="-31595" x2="-29853" x1="-29853" fill="none"/><line y2="-31096" y1="-30680" x2="-31514" x1="-30795" fill="none"/><line y2="-30786" y1="-31202" x2="-25511" x1="-26231" fill="none"/><line y2="-32032" y1="-31202" x2="-26303" x1="-26303" fill="none"/><line y2="-32032" y1="-31202" x2="-26161" x1="-26161" fill="none"/><line y2="-32032" y1="-31422" x2="-31772" x1="-31772" fill="none"/><line y2="-32032" y1="-31422" x2="-31633" x1="-31633" fill="none"/><line y2="-30726" y1="-31035" x2="-32387" x1="-31855" fill="none"/><line y2="-30847" y1="-31156" x2="-32456" x1="-31925" fill="none"/><text y="-30500" xml:space="preserve" x="-27291" stroke="none" font-size="433.3333" font-family="sans-serif">O</text><text y="-30500" xml:space="preserve" x="-25477" stroke="none" font-size="433.3333" font-family="sans-serif">NH</text><text y="-30411" xml:space="preserve" x="-24899" stroke="none" font-size="313.3333" font-family="sans-serif">2</text><text y="-32072" xml:space="preserve" x="-26384" stroke="none" font-size="433.3333" font-family="sans-serif">O</text><text y="-32242" xml:space="preserve" x="-30006" stroke="none" font-size="433.3333" font-family="sans-serif">CH</text><text y="-32153" xml:space="preserve" x="-29429" stroke="none" font-size="313.3333" font-family="sans-serif">3</text><text y="-31023" xml:space="preserve" x="-31855" stroke="none" font-size="433.3333" font-family="sans-serif">N</text><text y="-32072" xml:space="preserve" x="-31855" stroke="none" font-size="433.3333" font-family="sans-serif">O</text><text y="-30500" xml:space="preserve" x="-32762" stroke="none" font-size="433.3333" font-family="sans-serif">O</text><text y="-31197" xml:space="preserve" x="-30006" stroke="none" font-size="433.3333" font-family="sans-serif">N</text><text y="-29437" xml:space="preserve" x="-29475" stroke="none" font-size="433.3333" font-family="sans-serif">N</text></g></g></svg>