<svg width="395.49" viewBox="0 0 13183 1287" text-rendering="auto" stroke-width="1" stroke-opacity="1" stroke-miterlimit="10" stroke-linejoin="miter" stroke-linecap="square" stroke-dashoffset="0" stroke-dasharray="none" stroke="black" shape-rendering="auto" image-rendering="auto" height="38.61" font-weight="normal" font-style="normal" font-size="12" font-family="'Dialog'" fill-opacity="1" fill="black" color-rendering="auto" color-interpolation="auto" xmlns="http://www.w3.org/2000/svg"><g><g stroke="white" fill="white"><rect y="0" x="0" width="13183" stroke="none" height="1287"/></g><g transform="translate(32866,32686)" text-rendering="geometricPrecision" stroke-width="44" stroke-linejoin="round" stroke-linecap="round"><line y2="-32297" y1="-31774" x2="-24598" x1="-25506" fill="none"/><line y2="-32112" y1="-31720" x2="-24642" x1="-25321" fill="none"/><line y2="-32297" y1="-31774" x2="-26413" x1="-25506" fill="none"/><line y2="-31774" y1="-32297" x2="-23691" x1="-24598" fill="none"/><line y2="-31774" y1="-32297" x2="-27320" x1="-26413" fill="none"/><line y2="-31720" y1="-32112" x2="-27135" x1="-26456" fill="none"/><line y2="-32190" y1="-31774" x2="-22972" x1="-23691" fill="none"/><line y2="-32017" y1="-31705" x2="-22992" x1="-23530" fill="none"/><line y2="-32297" y1="-31774" x2="-28227" x1="-27320" fill="none"/><line y2="-31774" y1="-32297" x2="-29134" x1="-28227" fill="none"/><line y2="-31881" y1="-32190" x2="-22065" x1="-22596" fill="none"/><line y2="-32242" y1="-31994" x2="-21065" x1="-21496" fill="none"/><line y2="-31994" y1="-32303" x2="-20124" x1="-20655" fill="none"/><line y2="-31873" y1="-32182" x2="-20193" x1="-20724" fill="none"/><line y2="-32297" y1="-31774" x2="-30041" x1="-29134" fill="none"/><line y2="-32112" y1="-31720" x2="-29998" x1="-29316" fill="none"/><line y2="-31774" y1="-32297" x2="-30948" x1="-30041" fill="none"/><line y2="-32297" y1="-31774" x2="-31855" x1="-30948" fill="none"/><line y2="-31774" y1="-32297" x2="-32762" x1="-31855" fill="none"/><text y="-32118" xml:space="preserve" x="-22934" stroke="none" font-size="433.3333" font-family="sans-serif">N</text><text y="-31595" xml:space="preserve" x="-22027" stroke="none" font-size="433.3333" font-family="sans-serif">NH</text><text y="-32170" xml:space="preserve" x="-21031" stroke="none" font-size="433.3333" font-family="sans-serif">N</text><text y="-31647" xml:space="preserve" x="-20124" stroke="none" font-size="433.3333" font-family="sans-serif">O</text><text y="-32240" xml:space="preserve" x="-27248" stroke="none" font-style="italic" font-size="313.3333" font-family="sans-serif">E</text><text y="-32242" xml:space="preserve" x="-25428" stroke="none" font-style="italic" font-size="313.3333" font-family="sans-serif">E</text><text y="-32242" xml:space="preserve" x="-29515" stroke="none" font-style="italic" font-size="313.3333" font-family="sans-serif">E</text></g></g></svg>