<svg width="163.95" viewBox="0 0 5465 3813" text-rendering="auto" stroke-width="1" stroke-opacity="1" stroke-miterlimit="10" stroke-linejoin="miter" stroke-linecap="square" stroke-dashoffset="0" stroke-dasharray="none" stroke="black" shape-rendering="auto" image-rendering="auto" height="114.39" font-weight="normal" font-style="normal" font-size="12" font-family="'Dialog'" fill-opacity="1" fill="black" color-rendering="auto" color-interpolation="auto" xmlns="http://www.w3.org/2000/svg"><g><g stroke="white" fill="white"><rect y="0" x="0" width="5465" stroke="none" height="3813"/></g><g transform="translate(32866,32866)" text-rendering="geometricPrecision" stroke-width="44" stroke-linejoin="round" stroke-linecap="round"><line y2="-30864" y1="-31431" x2="-30792" x1="-31777" fill="none"/><line y2="-30786" y1="-31214" x2="-31000" x1="-31740" fill="none"/><line y2="-29726" y1="-30864" x2="-30792" x1="-30792" fill="none"/><line y2="-31431" y1="-30864" x2="-31777" x1="-32762" fill="none"/><line y2="-29157" y1="-29726" x2="-31777" x1="-30792" fill="none"/><line y2="-29374" y1="-29801" x2="-31740" x1="-31000" fill="none"/><line y2="-30864" y1="-29726" x2="-32762" x1="-32762" fill="none"/><line y2="-30720" y1="-29868" x2="-32592" x1="-32592" fill="none"/><line y2="-29726" y1="-29157" x2="-32762" x1="-31777" fill="none"/><line y2="-31699" y1="-30864" x2="-29345" x1="-30792" fill="none"/><line y2="-32762" y1="-31699" x2="-28978" x1="-29345" fill="none"/><line y2="-31699" y1="-31003" x2="-29345" x1="-28446" fill="none"/><line y2="-32762" y1="-32762" x2="-27831" x1="-28978" fill="none"/><line y2="-31003" y1="-31699" x2="-28446" x1="-27505" fill="none"/><line y2="-31699" y1="-32762" x2="-27505" x1="-27831" fill="none"/><line y2="-31699" y1="-31699" x2="-30394" x1="-29345" fill="none"/><line y2="-31699" y1="-31699" x2="-31252" x1="-30394" fill="none"/><line y2="-31610" y1="-31610" x2="-31252" x1="-30394" fill="none"/><line y2="-31789" y1="-31789" x2="-31252" x1="-30394" fill="none"/><text y="-31520" xml:space="preserve" x="-31592" stroke="none" font-size="433.3333" font-family="sans-serif">N</text></g></g></svg>