<svg width="278.37" viewBox="0 0 9279 3309" text-rendering="auto" stroke-width="1" stroke-opacity="1" stroke-miterlimit="10" stroke-linejoin="miter" stroke-linecap="square" stroke-dashoffset="0" stroke-dasharray="none" stroke="black" shape-rendering="auto" image-rendering="auto" height="99.27" font-weight="normal" font-style="normal" font-size="12" font-family="'Dialog'" fill-opacity="1" fill="black" color-rendering="auto" color-interpolation="auto" xmlns="http://www.w3.org/2000/svg"><g><g stroke="white" fill="white"><rect y="0" x="0" width="9279" stroke="none" height="3309"/></g><g transform="translate(32866,32758)" text-rendering="geometricPrecision" stroke-width="44" stroke-linejoin="round" stroke-linecap="round"><line y2="-29824" y1="-30350" x2="-27320" x1="-28227" fill="none"/><line y2="-30350" y1="-29824" x2="-26413" x1="-27320" fill="none"/><line y2="-29824" y1="-30350" x2="-29134" x1="-28227" fill="none"/><line y2="-30350" y1="-29824" x2="-30041" x1="-29134" fill="none"/><line y2="-31899" y1="-30350" x2="-28227" x1="-28227" fill="none"/><line y2="-30654" y1="-30350" x2="-28756" x1="-28227" fill="none"/><line y2="-29934" y1="-30350" x2="-25693" x1="-26413" fill="none"/><line y2="-30350" y1="-29934" x2="-24598" x1="-25318" fill="none"/><line y2="-29824" y1="-30350" x2="-23691" x1="-24598" fill="none"/><line y2="-31176" y1="-30350" x2="-26482" x1="-26482" fill="none"/><line y2="-31176" y1="-30350" x2="-26343" x1="-26343" fill="none"/><line y2="-29934" y1="-30350" x2="-30760" x1="-30041" fill="none"/><line y2="-30350" y1="-29934" x2="-31855" x1="-31136" fill="none"/><line y2="-29824" y1="-30350" x2="-32762" x1="-31855" fill="none"/><line y2="-31176" y1="-30350" x2="-30110" x1="-30110" fill="none"/><line y2="-31176" y1="-30350" x2="-29972" x1="-29972" fill="none"/><line y2="-32315" y1="-31899" x2="-27508" x1="-28227" fill="none"/><line y2="-31899" y1="-32315" x2="-26413" x1="-27132" fill="none"/><line y2="-32422" y1="-31899" x2="-25506" x1="-26413" fill="none"/><line y2="-32254" y1="-31838" x2="-28981" x1="-28262" fill="none"/><line y2="-32375" y1="-31959" x2="-28912" x1="-28192" fill="none"/><text y="-30694" xml:space="preserve" x="-29287" stroke="none" font-size="433.3333" font-family="sans-serif">OH</text><text y="-32242" xml:space="preserve" x="-27473" stroke="none" font-size="433.3333" font-family="sans-serif">O</text><text y="-32242" xml:space="preserve" x="-29284" stroke="none" font-size="433.3333" font-family="sans-serif">O</text><text y="-29645" xml:space="preserve" x="-25659" stroke="none" font-size="433.3333" font-family="sans-serif">O</text><text y="-31217" xml:space="preserve" x="-26566" stroke="none" font-size="433.3333" font-family="sans-serif">O</text><text y="-29645" xml:space="preserve" x="-31101" stroke="none" font-size="433.3333" font-family="sans-serif">O</text><text y="-31217" xml:space="preserve" x="-30194" stroke="none" font-size="433.3333" font-family="sans-serif">O</text></g></g></svg>