<svg width="170.07" viewBox="0 0 5669 2972" text-rendering="auto" stroke-width="1" stroke-opacity="1" stroke-miterlimit="10" stroke-linejoin="miter" stroke-linecap="square" stroke-dashoffset="0" stroke-dasharray="none" stroke="black" shape-rendering="auto" image-rendering="auto" height="89.16" font-weight="normal" font-style="normal" font-size="12" font-family="'Dialog'" fill-opacity="1" fill="black" color-rendering="auto" color-interpolation="auto" xmlns="http://www.w3.org/2000/svg"><g><g stroke="white" fill="white"><rect y="0" x="0" width="5669" stroke="none" height="2972"/></g><g transform="translate(32866,32758)" text-rendering="geometricPrecision" stroke-width="44" stroke-linejoin="round" stroke-linecap="round"><line y2="-30752" y1="-31899" x2="-30798" x1="-30798" fill="none"/><line y2="-30893" y1="-31754" x2="-30966" x1="-30966" fill="none"/><line y2="-32471" y1="-31899" x2="-29813" x1="-30798" fill="none"/><line y2="-31899" y1="-32471" x2="-30798" x1="-31780" fill="none"/><line y2="-30752" y1="-30177" x2="-30798" x1="-29813" fill="none"/><line y2="-30177" y1="-30752" x2="-31780" x1="-30798" fill="none"/><line y2="-31899" y1="-32471" x2="-28831" x1="-29813" fill="none"/><line y2="-31824" y1="-32251" x2="-29042" x1="-29778" fill="none"/><line y2="-32471" y1="-31899" x2="-31780" x1="-32762" fill="none"/><line y2="-32251" y1="-31824" x2="-31815" x1="-32552" fill="none"/><line y2="-30177" y1="-30752" x2="-29813" x1="-28831" fill="none"/><line y2="-30396" y1="-30827" x2="-29778" x1="-29042" fill="none"/><line y2="-30752" y1="-30177" x2="-32762" x1="-31780" fill="none"/><line y2="-30827" y1="-30396" x2="-32552" x1="-31815" fill="none"/><line y2="-30752" y1="-31899" x2="-28831" x1="-28831" fill="none"/><line y2="-31899" y1="-30752" x2="-32762" x1="-32762" fill="none"/><line y2="-32312" y1="-31899" x2="-28111" x1="-28831" fill="none"/><line y2="-30336" y1="-30752" x2="-28111" x1="-28831" fill="none"/><text y="-32242" xml:space="preserve" x="-28077" stroke="none" font-size="433.3333" font-family="sans-serif">NH</text><text y="-32153" xml:space="preserve" x="-27499" stroke="none" font-size="313.3333" font-family="sans-serif">2</text><text y="-30047" xml:space="preserve" x="-28077" stroke="none" font-size="433.3333" font-family="sans-serif">NH</text><text y="-29957" xml:space="preserve" x="-27499" stroke="none" font-size="313.3333" font-family="sans-serif">2</text></g></g></svg>