<svg width="166.23" viewBox="0 0 5541 4142" text-rendering="auto" stroke-width="1" stroke-opacity="1" stroke-miterlimit="10" stroke-linejoin="miter" stroke-linecap="square" stroke-dashoffset="0" stroke-dasharray="none" stroke="black" shape-rendering="auto" image-rendering="auto" height="124.26" font-weight="normal" font-style="normal" font-size="12" font-family="'Dialog'" fill-opacity="1" fill="black" color-rendering="auto" color-interpolation="auto" xmlns="http://www.w3.org/2000/svg"><g><g stroke="white" fill="white"><rect y="0" x="0" width="5541" stroke="none" height="4142"/></g><g transform="translate(32866,32866)" text-rendering="geometricPrecision" stroke-width="44" stroke-linejoin="round" stroke-linecap="round"><line y2="-30532" y1="-31101" x2="-30792" x1="-31777" fill="none"/><line y2="-30457" y1="-30885" x2="-31000" x1="-31740" fill="none"/><line y2="-29394" y1="-30532" x2="-30792" x1="-30792" fill="none"/><line y2="-31101" y1="-30532" x2="-31777" x1="-32762" fill="none"/><line y2="-28828" y1="-29394" x2="-31777" x1="-30792" fill="none"/><line y2="-29044" y1="-29472" x2="-31740" x1="-31000" fill="none"/><line y2="-30532" y1="-29394" x2="-32762" x1="-32762" fill="none"/><line y2="-30391" y1="-29538" x2="-32595" x1="-32595" fill="none"/><line y2="-29394" y1="-28828" x2="-32762" x1="-31777" fill="none"/><line y2="-31055" y1="-30532" x2="-29885" x1="-30792" fill="none"/><line y2="-32193" y1="-31055" x2="-29885" x1="-29885" fill="none"/><line y2="-31055" y1="-30489" x2="-29885" x1="-28900" fill="none"/><line y2="-32762" y1="-32193" x2="-28900" x1="-29885" fill="none"/><line y2="-30489" y1="-31055" x2="-28900" x1="-27915" fill="none"/><line y2="-32303" y1="-32762" x2="-28106" x1="-28900" fill="none"/><line y2="-31055" y1="-31974" x2="-27915" x1="-27915" fill="none"/><text y="-32014" xml:space="preserve" x="-28068" stroke="none" font-size="433.3333" font-family="sans-serif">NH</text></g></g></svg>