<svg width="326.64" viewBox="0 0 10888 3814" text-rendering="auto" stroke-width="1" stroke-opacity="1" stroke-miterlimit="10" stroke-linejoin="miter" stroke-linecap="square" stroke-dashoffset="0" stroke-dasharray="none" stroke="black" shape-rendering="auto" image-rendering="auto" height="114.42" font-weight="normal" font-style="normal" font-size="12" font-family="'Dialog'" fill-opacity="1" fill="black" color-rendering="auto" color-interpolation="auto" xmlns="http://www.w3.org/2000/svg"><g><g stroke="white" fill="white"><rect y="0" x="0" width="10888" stroke="none" height="3814"/></g><g transform="translate(32866,32758)" text-rendering="geometricPrecision" stroke-width="44" stroke-linejoin="round" stroke-linecap="round"><line y2="-30752" y1="-31899" x2="-28738" x1="-28738" fill="none"/><line y2="-30893" y1="-31754" x2="-28909" x1="-28909" fill="none"/><line y2="-32471" y1="-31899" x2="-27756" x1="-28738" fill="none"/><line y2="-31899" y1="-32471" x2="-28738" x1="-29723" fill="none"/><line y2="-30177" y1="-30752" x2="-29723" x1="-28738" fill="none"/><line y2="-30752" y1="-30177" x2="-28738" x1="-27756" fill="none"/><line y2="-31899" y1="-32471" x2="-26774" x1="-27756" fill="none"/><line y2="-31824" y1="-32251" x2="-26985" x1="-27721" fill="none"/><line y2="-32471" y1="-31899" x2="-29723" x1="-30706" fill="none"/><line y2="-32251" y1="-31824" x2="-29758" x1="-30495" fill="none"/><line y2="-30752" y1="-30177" x2="-30706" x1="-29723" fill="none"/><line y2="-30827" y1="-30396" x2="-30495" x1="-29758" fill="none"/><line y2="-30177" y1="-30752" x2="-27756" x1="-26774" fill="none"/><line y2="-30396" y1="-30827" x2="-27721" x1="-26985" fill="none"/><line y2="-30752" y1="-31899" x2="-26774" x1="-26774" fill="none"/><line y2="-31899" y1="-30752" x2="-30706" x1="-30706" fill="none"/><line y2="-32312" y1="-31899" x2="-26054" x1="-26774" fill="none"/><line y2="-31899" y1="-32202" x2="-24960" x1="-25488" fill="none"/><line y2="-30336" y1="-30752" x2="-31425" x1="-30706" fill="none"/><line y2="-31899" y1="-30760" x2="-24960" x1="-24960" fill="none"/><line y2="-31754" y1="-30902" x2="-24789" x1="-24789" fill="none"/><line y2="-32465" y1="-31899" x2="-23974" x1="-24960" fill="none"/><line y2="-30760" y1="-30191" x2="-24960" x1="-23974" fill="none"/><line y2="-31899" y1="-32465" x2="-22989" x1="-23974" fill="none"/><line y2="-31821" y1="-32248" x2="-23197" x1="-23937" fill="none"/><line y2="-30191" y1="-30760" x2="-23974" x1="-22989" fill="none"/><line y2="-30408" y1="-30836" x2="-23937" x1="-23197" fill="none"/><line y2="-30760" y1="-31899" x2="-22989" x1="-22989" fill="none"/><line y2="-30238" y1="-30760" x2="-22082" x1="-22989" fill="none"/><line y2="-30584" y1="-30336" x2="-32231" x1="-31800" fill="none"/><line y2="-29504" y1="-29972" x2="-31948" x1="-31676" fill="none"/><line y2="-29573" y1="-30044" x2="-32069" x1="-31798" fill="none"/><line y2="-29573" y1="-30044" x2="-31153" x1="-31425" fill="none"/><line y2="-29504" y1="-29972" x2="-31275" x1="-31546" fill="none"/><text y="-32242" xml:space="preserve" x="-26020" stroke="none" font-size="433.3333" font-family="sans-serif">NH</text><text y="-30047" xml:space="preserve" x="-31763" stroke="none" font-size="433.3333" font-family="sans-serif">S</text><text y="-29140" xml:space="preserve" x="-32289" stroke="none" font-size="433.3333" font-family="sans-serif">O</text><text y="-29140" xml:space="preserve" x="-31240" stroke="none" font-size="433.3333" font-family="sans-serif">O</text><text y="-30625" xml:space="preserve" x="-32762" stroke="none" font-size="433.3333" font-family="sans-serif">OH</text></g></g></svg>