<svg width="224.67" viewBox="0 0 7489 4808" text-rendering="auto" stroke-width="1" stroke-opacity="1" stroke-miterlimit="10" stroke-linejoin="miter" stroke-linecap="square" stroke-dashoffset="0" stroke-dasharray="none" stroke="black" shape-rendering="auto" image-rendering="auto" height="144.24" font-weight="normal" font-style="normal" font-size="12" font-family="'Dialog'" fill-opacity="1" fill="black" color-rendering="auto" color-interpolation="auto" xmlns="http://www.w3.org/2000/svg"><g><g stroke="white" fill="white"><rect y="0" x="0" width="7489" stroke="none" height="4808"/></g><g transform="translate(32866,32758)" text-rendering="geometricPrecision" stroke-width="44" stroke-linejoin="round" stroke-linecap="round"><line y2="-29758" y1="-30327" x2="-28825" x1="-29810" fill="none"/><line y2="-29683" y1="-30110" x2="-29033" x1="-29772" fill="none"/><line y2="-30327" y1="-29758" x2="-29810" x1="-30795" fill="none"/><line y2="-28620" y1="-29758" x2="-28825" x1="-28825" fill="none"/><line y2="-29758" y1="-28620" x2="-30795" x1="-30795" fill="none"/><line y2="-29616" y1="-28764" x2="-30625" x1="-30625" fill="none"/><line y2="-28054" y1="-28620" x2="-29810" x1="-28825" fill="none"/><line y2="-28270" y1="-28698" x2="-29772" x1="-29033" fill="none"/><line y2="-28620" y1="-28054" x2="-30795" x1="-29810" fill="none"/><line y2="-30281" y1="-29758" x2="-27918" x1="-28825" fill="none"/><line y2="-31376" y1="-30327" x2="-29810" x1="-29810" fill="none"/><line y2="-30174" y1="-29758" x2="-31514" x1="-30795" fill="none"/><line y2="-29868" y1="-30281" x2="-27198" x1="-27918" fill="none"/><line y2="-30174" y1="-29868" x2="-26291" x1="-26823" fill="none"/><line y2="-31110" y1="-30281" x2="-27987" x1="-27987" fill="none"/><line y2="-31110" y1="-30281" x2="-27848" x1="-27848" fill="none"/><line y2="-32202" y1="-31376" x2="-29810" x1="-29810" fill="none"/><line y2="-32202" y1="-31376" x2="-29900" x1="-29900" fill="none"/><line y2="-32202" y1="-31376" x2="-29720" x1="-29720" fill="none"/><line y2="-31110" y1="-30500" x2="-31774" x1="-31774" fill="none"/><line y2="-31110" y1="-30500" x2="-31633" x1="-31633" fill="none"/><line y2="-29807" y1="-30113" x2="-32387" x1="-31855" fill="none"/><line y2="-29928" y1="-30235" x2="-32456" x1="-31928" fill="none"/><text y="-32242" xml:space="preserve" x="-29960" stroke="none" font-size="433.3333" font-family="sans-serif">N</text><text y="-29579" xml:space="preserve" x="-27164" stroke="none" font-size="433.3333" font-family="sans-serif">O</text><text y="-31150" xml:space="preserve" x="-28071" stroke="none" font-size="433.3333" font-family="sans-serif">O</text><text y="-30102" xml:space="preserve" x="-26257" stroke="none" font-size="433.3333" font-family="sans-serif">CH</text><text y="-30012" xml:space="preserve" x="-25679" stroke="none" font-size="313.3333" font-family="sans-serif">3</text><text y="-30102" xml:space="preserve" x="-31855" stroke="none" font-size="433.3333" font-family="sans-serif">N</text><text y="-31150" xml:space="preserve" x="-31855" stroke="none" font-size="433.3333" font-family="sans-serif">O</text><text y="-29579" xml:space="preserve" x="-32762" stroke="none" font-size="433.3333" font-family="sans-serif">O</text></g></g></svg>