<svg width="162.12" viewBox="0 0 5404 3486" text-rendering="auto" stroke-width="1" stroke-opacity="1" stroke-miterlimit="10" stroke-linejoin="miter" stroke-linecap="square" stroke-dashoffset="0" stroke-dasharray="none" stroke="black" shape-rendering="auto" image-rendering="auto" height="104.58" font-weight="normal" font-style="normal" font-size="12" font-family="'Dialog'" fill-opacity="1" fill="black" color-rendering="auto" color-interpolation="auto" xmlns="http://www.w3.org/2000/svg"><g><g stroke="white" fill="white"><rect y="0" x="0" width="5404" stroke="none" height="3486"/></g><g transform="translate(32866,32866)" text-rendering="geometricPrecision" stroke-width="44" stroke-linejoin="round" stroke-linecap="round"><line y2="-31191" y1="-31760" x2="-30792" x1="-31774" fill="none"/><line y2="-31116" y1="-31540" x2="-30997" x1="-31737" fill="none"/><line y2="-30053" y1="-31191" x2="-30792" x1="-30792" fill="none"/><line y2="-31760" y1="-31191" x2="-31774" x1="-32762" fill="none"/><line y2="-29484" y1="-30053" x2="-31774" x1="-30792" fill="none"/><line y2="-29703" y1="-30131" x2="-31737" x1="-30997" fill="none"/><line y2="-31191" y1="-30053" x2="-32762" x1="-32762" fill="none"/><line y2="-31049" y1="-30197" x2="-32592" x1="-32592" fill="none"/><line y2="-30053" y1="-29484" x2="-32762" x1="-31774" fill="none"/><line y2="-31714" y1="-31191" x2="-29882" x1="-30792" fill="none"/><line y2="-31191" y1="-31714" x2="-28975" x1="-29882" fill="none"/><line y2="-31607" y1="-31191" x2="-28259" x1="-28975" fill="none"/><line y2="-30362" y1="-31191" x2="-28906" x1="-28906" fill="none"/><line y2="-30362" y1="-31191" x2="-29047" x1="-29047" fill="none"/><polygon stroke-width="1" stroke="none" points=" -29882 -31714 -29952 -32762 -29816 -32762"/><polygon stroke-width="1" points=" -29882 -31714 -29952 -32762 -29816 -32762" fill="none"/><text y="-31535" xml:space="preserve" x="-28221" stroke-width="1" stroke="none" font-size="433.3333" font-family="sans-serif">OH</text><text y="-29963" xml:space="preserve" x="-29128" stroke-width="1" stroke="none" font-size="433.3333" font-family="sans-serif">O</text></g><g transform="translate(32866,32866)" text-rendering="geometricPrecision" stroke-linejoin="round" stroke-linecap="round" font-style="italic" font-size="313.3333" font-family="sans-serif"><text y="-31234" xml:space="preserve" x="-30035" stroke="none">R</text></g></g></svg>