<svg width="223.23" viewBox="0 0 7441 2163" text-rendering="auto" stroke-width="1" stroke-opacity="1" stroke-miterlimit="10" stroke-linejoin="miter" stroke-linecap="square" stroke-dashoffset="0" stroke-dasharray="none" stroke="black" shape-rendering="auto" image-rendering="auto" height="64.89" font-weight="normal" font-style="normal" font-size="12" font-family="'Dialog'" fill-opacity="1" fill="black" color-rendering="auto" color-interpolation="auto" xmlns="http://www.w3.org/2000/svg"><g><g stroke="white" fill="white"><rect y="0" x="0" width="7441" stroke="none" height="2163"/></g><g transform="translate(32866,32866)" text-rendering="geometricPrecision" stroke-width="44" stroke-linejoin="round" stroke-linecap="round"><line y2="-31332" y1="-31332" x2="-26745" x1="-27794" fill="none"/><line y2="-30807" y1="-31332" x2="-28701" x1="-27794" fill="none"/><line y2="-32378" y1="-31332" x2="-27794" x1="-27794" fill="none"/><line y2="-31746" y1="-31332" x2="-28513" x1="-27794" fill="none"/><line y2="-31379" y1="-31685" x2="-29385" x1="-28854" fill="none"/><line y2="-31500" y1="-31809" x2="-29455" x1="-28923" fill="none"/><line y2="-31855" y1="-31439" x2="-30515" x1="-29796" fill="none"/><line y2="-31332" y1="-31332" x2="-25887" x1="-26745" fill="none"/><line y2="-31422" y1="-31422" x2="-25887" x1="-26745" fill="none"/><line y2="-31243" y1="-31243" x2="-25887" x1="-26745" fill="none"/><line y2="-31855" y1="-31855" x2="-31564" x1="-30515" fill="none"/><line y2="-32762" y1="-31855" x2="-31041" x1="-30515" fill="none"/><line y2="-32762" y1="-31855" x2="-29992" x1="-30515" fill="none"/><line y2="-31855" y1="-31855" x2="-32424" x1="-31564" fill="none"/><line y2="-31766" y1="-31766" x2="-32424" x1="-31564" fill="none"/><line y2="-31945" y1="-31945" x2="-32424" x1="-31564" fill="none"/><text y="-31676" xml:space="preserve" x="-28854" stroke="none" font-size="433.3333" font-family="sans-serif">N</text><text y="-31153" xml:space="preserve" x="-29761" stroke="none" font-size="433.3333" font-family="sans-serif">N</text><text y="-31153" xml:space="preserve" x="-25849" stroke="none" font-size="433.3333" font-family="sans-serif">N</text><text y="-31676" xml:space="preserve" x="-32762" stroke="none" font-size="433.3333" font-family="sans-serif">N</text></g></g></svg>