<svg width="727.44" viewBox="0 0 24248 6118" text-rendering="auto" stroke-width="1" stroke-opacity="1" stroke-miterlimit="10" stroke-linejoin="miter" stroke-linecap="square" stroke-dashoffset="0" stroke-dasharray="none" stroke="black" shape-rendering="auto" image-rendering="auto" height="183.54" font-weight="normal" font-style="normal" font-size="12" font-family="'Dialog'" fill-opacity="1" fill="black" color-rendering="auto" color-interpolation="auto" xmlns="http://www.w3.org/2000/svg"><g><g stroke="white" fill="white"><rect y="0" x="0" width="24248" stroke="none" height="6118"/></g><g transform="translate(32866,32866)" text-rendering="geometricPrecision" stroke-width="44" stroke-linejoin="round" stroke-linecap="round"><line y2="-31191" y1="-30986" x2="-19921" x1="-20880" fill="none"/><line y2="-30168" y1="-31191" x2="-19390" x1="-19921" fill="none"/><line y2="-29348" y1="-30168" x2="-20167" x1="-19390" fill="none"/><line y2="-29839" y1="-30304" x2="-21192" x1="-21987" fill="none"/><line y2="-28695" y1="-29839" x2="-21192" x1="-21192" fill="none"/><line y2="-30304" y1="-29839" x2="-22362" x1="-23157" fill="none"/><line y2="-28120" y1="-28695" x2="-22175" x1="-21192" fill="none"/><line y2="-28695" y1="-29839" x2="-23157" x1="-23157" fill="none"/><line y2="-29839" y1="-30414" x2="-23157" x1="-24139" fill="none"/><line y2="-28695" y1="-28120" x2="-23157" x1="-22175" fill="none"/><line y2="-28230" y1="-28695" x2="-23951" x1="-23157" fill="none"/><line y2="-30414" y1="-29839" x2="-24139" x1="-25121" fill="none"/><line y2="-28695" y1="-28230" x2="-25121" x1="-24327" fill="none"/><line y2="-29839" y1="-28695" x2="-25121" x1="-25121" fill="none"/><line y2="-28169" y1="-28695" x2="-26028" x1="-25121" fill="none"/><line y2="-30365" y1="-29839" x2="-26028" x1="-25121" fill="none"/><line y2="-30243" y1="-29720" x2="-26098" x1="-25191" fill="none"/><line y2="-28695" y1="-28169" x2="-26936" x1="-26028" fill="none"/><line y2="-28169" y1="-28695" x2="-27843" x1="-26936" fill="none"/><line y2="-31191" y1="-31714" x2="-18107" x1="-19014" fill="none"/><line y2="-31136" y1="-31529" x2="-18292" x1="-18971" fill="none"/><line y2="-28695" y1="-28169" x2="-28750" x1="-27843" fill="none"/><line y2="-31714" y1="-31191" x2="-17200" x1="-18107" fill="none"/><line y2="-28695" y1="-28695" x2="-29709" x1="-28750" fill="none"/><line y2="-28695" y1="-29677" x2="-28750" x1="-28178" fill="none"/><line y2="-29677" y1="-30659" x2="-28178" x1="-28750" fill="none"/><line y2="-29677" y1="-30659" x2="-30472" x1="-31044" fill="none"/><line y2="-28914" y1="-29677" x2="-30916" x1="-30472" fill="none"/><line y2="-30659" y1="-30659" x2="-28750" x1="-29897" fill="none"/><line y2="-30659" y1="-30659" x2="-31044" x1="-32190" fill="none"/><line y2="-28695" y1="-28695" x2="-32190" x1="-31231" fill="none"/><line y2="-30659" y1="-29677" x2="-32190" x1="-32762" fill="none"/><line y2="-29677" y1="-28695" x2="-32762" x1="-32190" fill="none"/><line y2="-31191" y1="-31714" x2="-16293" x1="-17200" fill="none"/><line y2="-30209" y1="-29443" x2="-14574" x1="-14129" fill="none"/><line y2="-31191" y1="-30209" x2="-14002" x1="-14574" fill="none"/><line y2="-31191" y1="-31191" x2="-15337" x1="-16293" fill="none"/><line y2="-29226" y1="-29226" x2="-13814" x1="-12855" fill="none"/><line y2="-31191" y1="-31191" x2="-12855" x1="-14002" fill="none"/><line y2="-29226" y1="-29226" x2="-16293" x1="-15146" fill="none"/><line y2="-29394" y1="-29394" x2="-16151" x1="-15290" fill="none"/><line y2="-31191" y1="-30209" x2="-16293" x1="-16868" fill="none"/><line y2="-29226" y1="-30209" x2="-12855" x1="-12280" fill="none"/><line y2="-30209" y1="-31191" x2="-12280" x1="-12855" fill="none"/><line y2="-30209" y1="-29226" x2="-16868" x1="-16293" fill="none"/><line y2="-29226" y1="-28701" x2="-11041" x1="-11948" fill="none"/><line y2="-28316" y1="-29226" x2="-16819" x1="-16293" fill="none"/><line y2="-28701" y1="-29226" x2="-10134" x1="-11041" fill="none"/><line y2="-29117" y1="-28701" x2="-9414" x1="-10134" fill="none"/><line y2="-27872" y1="-28701" x2="-10064" x1="-10064" fill="none"/><line y2="-27872" y1="-28701" x2="-10203" x1="-10203" fill="none"/><polygon stroke-width="1" stroke="none" points=" -21192 -29839 -21161 -30734 -21025 -30717"/><polygon stroke-width="1" points=" -21192 -29839 -21161 -30734 -21025 -30717" fill="none"/><polygon stroke-width="1" stroke="none" points=" -19921 -31191 -19049 -31774 -18980 -31656"/><polygon stroke-width="1" points=" -19921 -31191 -19049 -31774 -18980 -31656" fill="none"/><polygon stroke-width="1" stroke="none" points=" -24139 -30414 -24208 -31240 -24070 -31243"/><polygon stroke-width="1" points=" -24139 -30414 -24208 -31240 -24070 -31243" fill="none"/><polygon stroke-width="1" stroke="none" points=" -23157 -29839 -23226 -30668 -23088 -30668"/><polygon stroke-width="1" points=" -23157 -29839 -23226 -30668 -23088 -30668" fill="none"/><polygon stroke-width="1" stroke="none" points=" -25121 -28695 -25875 -29050 -25806 -29169"/><polygon stroke-width="1" points=" -25121 -28695 -25875 -29050 -25806 -29169" fill="none"/><polygon stroke-width="1" stroke="none" points=" -26028 -28169 -25959 -27343 -26098 -27340"/><polygon stroke-width="1" points=" -26028 -28169 -25959 -27343 -26098 -27340" fill="none"/><polygon stroke-width="1" stroke="none" points=" -29966 -28946 -30472 -29677 -30084 -28880"/><polygon stroke-width="1" points=" -29966 -28946 -30472 -29677 -30084 -28880" fill="none"/><polygon stroke-width="1" stroke="none" points=" -28178 -29677 -27129 -29746 -27129 -29608"/><polygon stroke-width="1" points=" -28178 -29677 -27129 -29746 -27129 -29608" fill="none"/><polygon stroke-width="1" stroke="none" points=" -17200 -31714 -17269 -32762 -17131 -32762"/><polygon stroke-width="1" points=" -17200 -31714 -17269 -32762 -17131 -32762" fill="none"/><polygon stroke-width="1" stroke="none" points=" -14574 -30209 -15085 -29192 -15207 -29258"/><polygon stroke-width="1" points=" -14574 -30209 -15085 -29192 -15207 -29258" fill="none"/><polygon stroke-width="1" stroke="none" points=" -12855 -29226 -11913 -28761 -11980 -28640"/><polygon stroke-width="1" points=" -12855 -29226 -11913 -28761 -11980 -28640" fill="none"/><polygon stroke-width="1" stroke="none" points=" -11041 -29226 -11497 -29879 -11379 -29946"/><polygon stroke-width="1" points=" -11041 -29226 -11497 -29879 -11379 -29946" fill="none"/><line y2="-29287" y1="-29411" x2="-20199" x1="-20138" fill="none"/><line y2="-29392" y1="-29493" x2="-20389" x1="-20339" fill="none"/><line y2="-29498" y1="-29574" x2="-20578" x1="-20540" fill="none"/><line y2="-29603" y1="-29656" x2="-20768" x1="-20742" fill="none"/><line y2="-29709" y1="-29738" x2="-20957" x1="-20943" fill="none"/><line y2="-29814" y1="-29820" x2="-21147" x1="-21144" fill="none"/><line y2="-27866" y1="-27866" x2="-23226" x1="-23088" fill="none"/><line y2="-28083" y1="-28083" x2="-23208" x1="-23106" fill="none"/><line y2="-28299" y1="-28299" x2="-23190" x1="-23124" fill="none"/><line y2="-28516" y1="-28516" x2="-23172" x1="-23142" fill="none"/><line y2="-27120" y1="-27123" x2="-27912" x1="-27773" fill="none"/><line y2="-27337" y1="-27339" x2="-27898" x1="-27787" fill="none"/><line y2="-27554" y1="-27556" x2="-27883" x1="-27802" fill="none"/><line y2="-27771" y1="-27772" x2="-27869" x1="-27816" fill="none"/><line y2="-27988" y1="-27988" x2="-27855" x1="-27831" fill="none"/><line y2="-30625" y1="-30694" x2="-29836" x1="-29957" fill="none"/><line y2="-30445" y1="-30500" x2="-29957" x1="-30055" fill="none"/><line y2="-30264" y1="-30307" x2="-30078" x1="-30153" fill="none"/><line y2="-30084" y1="-30113" x2="-30199" x1="-30251" fill="none"/><line y2="-29903" y1="-29920" x2="-30320" x1="-30349" fill="none"/><line y2="-29723" y1="-29726" x2="-30441" x1="-30447" fill="none"/><line y2="-27918" y1="-27883" x2="-29030" x1="-28897" fill="none"/><line y2="-28123" y1="-28097" x2="-28956" x1="-28858" fill="none"/><line y2="-28327" y1="-28311" x2="-28883" x1="-28820" fill="none"/><line y2="-28532" y1="-28525" x2="-28809" x1="-28781" fill="none"/><line y2="-31006" y1="-30937" x2="-14958" x1="-15080" fill="none"/><line y2="-30810" y1="-30758" x2="-14864" x1="-14956" fill="none"/><line y2="-30615" y1="-30580" x2="-14770" x1="-14832" fill="none"/><line y2="-30419" y1="-30401" x2="-14675" x1="-14707" fill="none"/><line y2="-30224" y1="-30222" x2="-14581" x1="-14583" fill="none"/><line y2="-31922" y1="-31852" x2="-14326" x1="-14447" fill="none"/><line y2="-31723" y1="-31672" x2="-14238" x1="-14326" fill="none"/><line y2="-31524" y1="-31492" x2="-14149" x1="-14204" fill="none"/><line y2="-31324" y1="-31312" x2="-14061" x1="-14083" fill="none"/><line y2="-31965" y1="-32000" x2="-16016" x1="-16148" fill="none"/><line y2="-31760" y1="-31786" x2="-16089" x1="-16186" fill="none"/><line y2="-31556" y1="-31572" x2="-16163" x1="-16225" fill="none"/><line y2="-31351" y1="-31358" x2="-16236" x1="-16263" fill="none"/><line y2="-30096" y1="-30165" x2="-10457" x1="-10576" fill="none"/><line y2="-29916" y1="-29970" x2="-10578" x1="-10672" fill="none"/><line y2="-29735" y1="-29776" x2="-10699" x1="-10769" fill="none"/><line y2="-29555" y1="-29581" x2="-10820" x1="-10865" fill="none"/><line y2="-29375" y1="-29387" x2="-10941" x1="-10961" fill="none"/><text y="-31928" xml:space="preserve" x="-14661" stroke="none" font-size="433.3333" font-family="sans-serif">OH</text><text y="-29954" xml:space="preserve" x="-11717" stroke="none" font-size="433.3333" font-family="sans-serif">OH</text><text y="-29047" xml:space="preserve" x="-9377" stroke="none" font-size="433.3333" font-family="sans-serif">OH</text><text y="-27473" xml:space="preserve" x="-10284" stroke="none" font-size="433.3333" font-family="sans-serif">O</text><text y="-31283" xml:space="preserve" x="-24292" stroke="none" font-size="433.3333" font-family="sans-serif">OH</text><text y="-26944" xml:space="preserve" x="-26182" stroke="none" font-size="433.3333" font-family="sans-serif">OH</text><text y="-31012" xml:space="preserve" x="-15299" stroke="none" font-size="433.3333" font-family="sans-serif">O</text><text y="-29047" xml:space="preserve" x="-14152" stroke="none" font-size="433.3333" font-family="sans-serif">O</text><text y="-30766" xml:space="preserve" x="-21221" stroke="none" font-size="433.3333" font-family="sans-serif">O</text><text y="-30235" xml:space="preserve" x="-22325" stroke="none" font-size="433.3333" font-family="sans-serif">O</text><text y="-27941" xml:space="preserve" x="-24292" stroke="none" font-size="433.3333" font-family="sans-serif">O</text><text y="-28516" xml:space="preserve" x="-30050" stroke="none" font-size="433.3333" font-family="sans-serif">O</text><text y="-28516" xml:space="preserve" x="-31197" stroke="none" font-size="433.3333" font-family="sans-serif">O</text><text y="-30708" xml:space="preserve" x="-23307" stroke="none" font-size="433.3333" font-family="sans-serif">H</text><text y="-27467" xml:space="preserve" x="-23307" stroke="none" font-size="433.3333" font-family="sans-serif">H</text><text y="-29039" xml:space="preserve" x="-26182" stroke="none" font-size="433.3333" font-family="sans-serif">H</text><text y="-27502" xml:space="preserve" x="-29174" stroke="none" font-size="433.3333" font-family="sans-serif">H</text><text y="-32023" xml:space="preserve" x="-16174" stroke="none" font-size="433.3333" font-family="sans-serif">H</text><text y="-31665" xml:space="preserve" x="-18497" stroke="none" font-style="italic" font-size="313.3333" font-family="sans-serif">E</text><text y="-31234" xml:space="preserve" x="-17353" stroke="none" font-style="italic" font-size="313.3333" font-family="sans-serif">R</text><text y="-28744" xml:space="preserve" x="-11194" stroke="none" font-style="italic" font-size="313.3333" font-family="sans-serif">R</text><text y="-28293" xml:space="preserve" x="-26182" stroke="none" font-style="italic" font-size="313.3333" font-family="sans-serif">S</text><text y="-28293" xml:space="preserve" x="-27996" stroke="none" font-style="italic" font-size="313.3333" font-family="sans-serif">S</text><text y="-30030" xml:space="preserve" x="-14456" stroke="none" font-style="italic" font-size="313.3333" font-family="sans-serif">R</text><text y="-30763" xml:space="preserve" x="-14011" stroke="none" font-style="italic" font-size="313.3333" font-family="sans-serif">R</text><text y="-30763" xml:space="preserve" x="-16302" stroke="none" font-style="italic" font-size="313.3333" font-family="sans-serif">S</text><text y="-29296" xml:space="preserve" x="-13150" stroke="none" font-style="italic" font-size="313.3333" font-family="sans-serif">S</text><text y="-30752" xml:space="preserve" x="-20196" stroke="none" font-style="italic" font-size="313.3333" font-family="sans-serif">R</text><text y="-29518" xml:space="preserve" x="-21591" stroke="none" font-style="italic" font-size="313.3333" font-family="sans-serif">R</text><text y="-29518" xml:space="preserve" x="-23059" stroke="none" font-style="italic" font-size="313.3333" font-family="sans-serif">S</text><text y="-28660" xml:space="preserve" x="-23556" stroke="none" font-style="italic" font-size="313.3333" font-family="sans-serif">R</text><text y="-29931" xml:space="preserve" x="-24292" stroke="none" font-style="italic" font-size="313.3333" font-family="sans-serif">R</text><text y="-28660" xml:space="preserve" x="-25026" stroke="none" font-style="italic" font-size="313.3333" font-family="sans-serif">S</text><text y="-28764" xml:space="preserve" x="-29047" stroke="none" font-style="italic" font-size="313.3333" font-family="sans-serif">S</text><text y="-29498" xml:space="preserve" x="-28600" stroke="none" font-style="italic" font-size="313.3333" font-family="sans-serif">R</text><text y="-29498" xml:space="preserve" x="-30893" stroke="none" font-style="italic" font-size="313.3333" font-family="sans-serif">S</text></g></g></svg>