<svg width="237.9" viewBox="0 0 7930 4851" text-rendering="auto" stroke-width="1" stroke-opacity="1" stroke-miterlimit="10" stroke-linejoin="miter" stroke-linecap="square" stroke-dashoffset="0" stroke-dasharray="none" stroke="black" shape-rendering="auto" image-rendering="auto" height="145.53" font-weight="normal" font-style="normal" font-size="12" font-family="'Dialog'" fill-opacity="1" fill="black" color-rendering="auto" color-interpolation="auto" xmlns="http://www.w3.org/2000/svg"><g><g stroke="white" fill="white"><rect y="0" x="0" width="7930" stroke="none" height="4851"/></g><g transform="translate(32866,32758)" text-rendering="geometricPrecision" stroke-width="44" stroke-linejoin="round" stroke-linecap="round"><line y2="-30960" y1="-31419" x2="-28857" x1="-29651" fill="none"/><line y2="-29715" y1="-30630" x2="-28669" x1="-28669" fill="none"/><line y2="-31419" y1="-30850" x2="-29651" x1="-30639" fill="none"/><line y2="-29146" y1="-29715" x2="-29651" x1="-28669" fill="none"/><line y2="-30850" y1="-29715" x2="-30639" x1="-30639" fill="none"/><line y2="-29715" y1="-29146" x2="-30639" x1="-29651" fill="none"/><line y2="-31376" y1="-30960" x2="-27762" x1="-28481" fill="none"/><line y2="-29299" y1="-29715" x2="-31358" x1="-30639" fill="none"/><line y2="-30960" y1="-31376" x2="-27042" x1="-27762" fill="none"/><line y2="-31376" y1="-30960" x2="-25948" x1="-26667" fill="none"/><line y2="-32202" y1="-31376" x2="-27831" x1="-27831" fill="none"/><line y2="-32202" y1="-31376" x2="-27692" x1="-27692" fill="none"/><line y2="-29562" y1="-29299" x2="-32188" x1="-31734" fill="none"/><line y2="-28467" y1="-28935" x2="-31881" x1="-31610" fill="none"/><line y2="-28536" y1="-29004" x2="-32003" x1="-31734" fill="none"/><line y2="-28536" y1="-29004" x2="-31087" x1="-31358" fill="none"/><line y2="-28467" y1="-28935" x2="-31211" x1="-31480" fill="none"/><line y2="-30850" y1="-31376" x2="-25040" x1="-25948" fill="none"/><line y2="-32283" y1="-31376" x2="-25422" x1="-25948" fill="none"/><line y2="-32283" y1="-31376" x2="-26470" x1="-25948" fill="none"/><text y="-30671" xml:space="preserve" x="-27005" stroke="none" font-size="433.3333" font-family="sans-serif">O</text><text y="-32242" xml:space="preserve" x="-27912" stroke="none" font-size="433.3333" font-family="sans-serif">O</text><text y="-29010" xml:space="preserve" x="-31699" stroke="none" font-size="433.3333" font-family="sans-serif">S</text><text y="-29579" xml:space="preserve" x="-32762" stroke="none" font-size="433.3333" font-family="sans-serif">Cl</text><text y="-28103" xml:space="preserve" x="-32222" stroke="none" font-size="433.3333" font-family="sans-serif">O</text><text y="-28103" xml:space="preserve" x="-31174" stroke="none" font-size="433.3333" font-family="sans-serif">O</text><text y="-30671" xml:space="preserve" x="-28819" stroke="none" font-size="433.3333" font-family="sans-serif">N</text></g></g></svg>