<svg width="178.77" viewBox="0 0 5959 5100" text-rendering="auto" stroke-width="1" stroke-opacity="1" stroke-miterlimit="10" stroke-linejoin="miter" stroke-linecap="square" stroke-dashoffset="0" stroke-dasharray="none" stroke="black" shape-rendering="auto" image-rendering="auto" height="153.0" font-weight="normal" font-style="normal" font-size="12" font-family="'Dialog'" fill-opacity="1" fill="black" color-rendering="auto" color-interpolation="auto" xmlns="http://www.w3.org/2000/svg"><g><g stroke="white" fill="white"><rect y="0" x="0" width="5959" stroke="none" height="5100"/></g><g transform="translate(32866,32758)" text-rendering="geometricPrecision" stroke-width="44" stroke-linejoin="round" stroke-linecap="round"><line y2="-30391" y1="-30850" x2="-30827" x1="-31621" fill="none"/><line y2="-29146" y1="-30064" x2="-30639" x1="-30639" fill="none"/><line y2="-30850" y1="-30281" x2="-31621" x1="-32609" fill="none"/><line y2="-28576" y1="-29146" x2="-31621" x1="-30639" fill="none"/><line y2="-30281" y1="-29365" x2="-32609" x1="-32609" fill="none"/><line y2="-29036" y1="-28576" x2="-32422" x1="-31621" fill="none"/><line y2="-30807" y1="-30391" x2="-29732" x1="-30451" fill="none"/><line y2="-27762" y1="-28576" x2="-30963" x1="-31621" fill="none"/><line y2="-27773" y1="-28576" x2="-32297" x1="-31621" fill="none"/><line y2="-30391" y1="-30807" x2="-29013" x1="-29732" fill="none"/><line y2="-30807" y1="-30391" x2="-27918" x1="-28637" fill="none"/><line y2="-31636" y1="-30807" x2="-29801" x1="-29801" fill="none"/><line y2="-31636" y1="-30807" x2="-29663" x1="-29663" fill="none"/><line y2="-32202" y1="-31899" x2="-32150" x1="-31621" fill="none"/><line y2="-32375" y1="-31959" x2="-30940" x1="-31659" fill="none"/><line y2="-32254" y1="-31858" x2="-30867" x1="-31552" fill="none"/><line y2="-30281" y1="-30807" x2="-27011" x1="-27918" fill="none"/><line y2="-31714" y1="-30807" x2="-27395" x1="-27918" fill="none"/><line y2="-31714" y1="-30807" x2="-28441" x1="-27918" fill="none"/><polygon stroke-width="1" stroke="none" points=" -31621 -30850 -31691 -31899 -31555 -31899"/><polygon stroke-width="1" points=" -31621 -30850 -31691 -31899 -31555 -31899" fill="none"/><text y="-30102" xml:space="preserve" x="-28978" stroke-width="1" stroke="none" font-size="433.3333" font-family="sans-serif">O</text><text y="-31676" xml:space="preserve" x="-29885" stroke-width="1" stroke="none" font-size="433.3333" font-family="sans-serif">O</text><text y="-32242" xml:space="preserve" x="-32682" stroke-width="1" stroke="none" font-size="433.3333" font-family="sans-serif">OH</text><text y="-32242" xml:space="preserve" x="-30867" stroke-width="1" stroke="none" font-size="433.3333" font-family="sans-serif">O</text><text y="-30102" xml:space="preserve" x="-30792" stroke-width="1" stroke="none" font-size="433.3333" font-family="sans-serif">N</text><text y="-28966" xml:space="preserve" x="-32762" stroke-width="1" stroke="none" font-size="433.3333" font-family="sans-serif">O</text></g><g transform="translate(32866,32758)" text-rendering="geometricPrecision" stroke-linejoin="round" stroke-linecap="round" font-style="italic" font-size="313.3333" font-family="sans-serif"><text y="-30370" xml:space="preserve" x="-31774" stroke="none">S</text></g></g></svg>