<svg width="229.38" viewBox="0 0 7646 3317" text-rendering="auto" stroke-width="1" stroke-opacity="1" stroke-miterlimit="10" stroke-linejoin="miter" stroke-linecap="square" stroke-dashoffset="0" stroke-dasharray="none" stroke="black" shape-rendering="auto" image-rendering="auto" height="99.51" font-weight="normal" font-style="normal" font-size="12" font-family="'Dialog'" fill-opacity="1" fill="black" color-rendering="auto" color-interpolation="auto" xmlns="http://www.w3.org/2000/svg"><g><g stroke="white" fill="white"><rect y="0" x="0" width="7646" stroke="none" height="3317"/></g><g transform="translate(32866,32758)" text-rendering="geometricPrecision" stroke-width="44" stroke-linejoin="round" stroke-linecap="round"><line y2="-31725" y1="-32202" x2="-28952" x1="-29570" fill="none"/><line y2="-30882" y1="-31725" x2="-29247" x1="-28952" fill="none"/><line y2="-31044" y1="-31676" x2="-29371" x1="-29151" fill="none"/><line y2="-32283" y1="-31725" x2="-30041" x1="-30795" fill="none"/><line y2="-30662" y1="-30662" x2="-30469" x1="-29510" fill="none"/><line y2="-31725" y1="-30662" x2="-30795" x1="-30469" fill="none"/><line y2="-31644" y1="-30847" x2="-30590" x1="-30347" fill="none"/><line y2="-32251" y1="-31725" x2="-28045" x1="-28952" fill="none"/><line y2="-31725" y1="-32251" x2="-27138" x1="-28045" fill="none"/><line y2="-32251" y1="-31725" x2="-26231" x1="-27138" fill="none"/><line y2="-31725" y1="-32251" x2="-25324" x1="-26231" fill="none"/><line y2="-32251" y1="-31725" x2="-31702" x1="-30795" fill="none"/><line y2="-31945" y1="-32251" x2="-32231" x1="-31702" fill="none"/><line y2="-30035" y1="-30662" x2="-30925" x1="-30469" fill="none"/><text y="-31546" xml:space="preserve" x="-32762" stroke="none" font-size="433.3333" font-family="sans-serif">OH</text><text y="-29637" xml:space="preserve" x="-31315" stroke="none" font-size="433.3333" font-family="sans-serif">Cl</text><text y="-32242" xml:space="preserve" x="-30006" stroke="none" font-size="433.3333" font-family="sans-serif">NH</text><text y="-30483" xml:space="preserve" x="-29475" stroke="none" font-size="433.3333" font-family="sans-serif">N</text></g></g></svg>