<svg width="205.98" viewBox="0 0 6866 3947" text-rendering="auto" stroke-width="1" stroke-opacity="1" stroke-miterlimit="10" stroke-linejoin="miter" stroke-linecap="square" stroke-dashoffset="0" stroke-dasharray="none" stroke="black" shape-rendering="auto" image-rendering="auto" height="118.41" font-weight="normal" font-style="normal" font-size="12" font-family="'Dialog'" fill-opacity="1" fill="black" color-rendering="auto" color-interpolation="auto" xmlns="http://www.w3.org/2000/svg"><g><g stroke="white" fill="white"><rect y="0" x="0" width="6866" stroke="none" height="3947"/></g><g transform="translate(32866,32758)" text-rendering="geometricPrecision" stroke-width="44" stroke-linejoin="round" stroke-linecap="round"><line y2="-30957" y1="-31416" x2="-29920" x1="-30714" fill="none"/><line y2="-29712" y1="-30630" x2="-29732" x1="-29732" fill="none"/><line y2="-31416" y1="-30847" x2="-30714" x1="-31702" fill="none"/><line y2="-29143" y1="-29712" x2="-30714" x1="-29732" fill="none"/><line y2="-30847" y1="-29712" x2="-31702" x1="-31702" fill="none"/><line y2="-29712" y1="-29143" x2="-31702" x1="-30714" fill="none"/><line y2="-31373" y1="-30957" x2="-28825" x1="-29544" fill="none"/><line y2="-30957" y1="-31373" x2="-28106" x1="-28825" fill="none"/><line y2="-31373" y1="-30957" x2="-27011" x1="-27730" fill="none"/><line y2="-32202" y1="-31373" x2="-28894" x1="-28894" fill="none"/><line y2="-32202" y1="-31373" x2="-28756" x1="-28756" fill="none"/><line y2="-30847" y1="-31373" x2="-26104" x1="-27011" fill="none"/><line y2="-32280" y1="-31373" x2="-26488" x1="-27011" fill="none"/><line y2="-32280" y1="-31373" x2="-27534" x1="-27011" fill="none"/><polygon stroke-width="1" stroke="none" points=" -30714 -31416 -30784 -32465 -30648 -32465"/><polygon stroke-width="1" points=" -30714 -31416 -30784 -32465 -30648 -32465" fill="none"/><polygon stroke-width="1" stroke="none" points=" -31702 -29712 -32193 -29348 -32266 -29466"/><polygon stroke-width="1" points=" -31702 -29712 -32193 -29348 -32266 -29466" fill="none"/><text y="-30668" xml:space="preserve" x="-28071" stroke-width="1" stroke="none" font-size="433.3333" font-family="sans-serif">O</text><text y="-32242" xml:space="preserve" x="-28978" stroke-width="1" stroke="none" font-size="433.3333" font-family="sans-serif">O</text><text y="-29007" xml:space="preserve" x="-32762" stroke-width="1" stroke="none" font-size="433.3333" font-family="sans-serif">OH</text><text y="-30668" xml:space="preserve" x="-29885" stroke-width="1" stroke="none" font-size="433.3333" font-family="sans-serif">N</text></g><g transform="translate(32866,32758)" text-rendering="geometricPrecision" stroke-linejoin="round" stroke-linecap="round" font-style="italic" font-size="313.3333" font-family="sans-serif"><text y="-30937" xml:space="preserve" x="-30867" stroke="none">R</text><text y="-29677" xml:space="preserve" x="-31607" stroke="none">R</text></g></g></svg>