<svg width="300.9" viewBox="0 0 10030 12653" text-rendering="auto" stroke-width="1" stroke-opacity="1" stroke-miterlimit="10" stroke-linejoin="miter" stroke-linecap="square" stroke-dashoffset="0" stroke-dasharray="none" stroke="black" shape-rendering="auto" image-rendering="auto" height="379.59" font-weight="normal" font-style="normal" font-size="12" font-family="'Dialog'" fill-opacity="1" fill="black" color-rendering="auto" color-interpolation="auto" xmlns="http://www.w3.org/2000/svg"><g><g stroke="white" fill="white"><rect y="0" x="0" width="10030" stroke="none" height="12653"/></g><g transform="translate(32866,32866)" text-rendering="geometricPrecision" stroke-width="44" stroke-linejoin="round" stroke-linecap="round"><line y2="-27187" y1="-25907" x2="-29463" x1="-29463" fill="none"/><line y2="-27187" y1="-27828" x2="-29463" x1="-28366" fill="none"/><line y2="-27415" y1="-27895" x2="-29414" x1="-28588" fill="none"/><line y2="-27828" y1="-27187" x2="-30564" x1="-29463" fill="none"/><line y2="-25907" y1="-25266" x2="-29463" x1="-28366" fill="none"/><line y2="-25974" y1="-25494" x2="-29241" x1="-28418" fill="none"/><line y2="-25907" y1="-25266" x2="-29463" x1="-30564" fill="none"/><line y2="-27828" y1="-29111" x2="-28366" x1="-28366" fill="none"/><line y2="-27672" y1="-27828" x2="-27271" x1="-28366" fill="none"/><line y2="-29111" y1="-27828" x2="-30564" x1="-30564" fill="none"/><line y2="-27187" y1="-27828" x2="-31662" x1="-30564" fill="none"/><line y2="-27415" y1="-27895" x2="-31610" x1="-30786" fill="none"/><line y2="-23983" y1="-25266" x2="-28366" x1="-28366" fill="none"/><line y2="-25266" y1="-25422" x2="-28366" x1="-27271" fill="none"/><line y2="-23983" y1="-25266" x2="-30564" x1="-30564" fill="none"/><line y2="-25266" y1="-25907" x2="-30564" x1="-31662" fill="none"/><line y2="-25199" y1="-25679" x2="-30786" x1="-31610" fill="none"/><line y2="-29111" y1="-29752" x2="-28366" x1="-29463" fill="none"/><line y2="-29044" y1="-29524" x2="-28588" x1="-29414" fill="none"/><line y2="-26768" y1="-27427" x2="-26572" x1="-26956" fill="none"/><line y2="-29752" y1="-29111" x2="-29463" x1="-30564" fill="none"/><line y2="-29111" y1="-29752" x2="-30564" x1="-31662" fill="none"/><line y2="-29044" y1="-29524" x2="-30786" x1="-31610" fill="none"/><line y2="-27828" y1="-27187" x2="-32762" x1="-31662" fill="none"/><line y2="-23342" y1="-23983" x2="-29463" x1="-28366" fill="none"/><line y2="-23570" y1="-24050" x2="-29414" x1="-28588" fill="none"/><line y2="-25670" y1="-26329" x2="-26956" x1="-26572" fill="none"/><line y2="-23983" y1="-23342" x2="-30564" x1="-29463" fill="none"/><line y2="-23342" y1="-23983" x2="-31662" x1="-30564" fill="none"/><line y2="-23570" y1="-24050" x2="-31610" x1="-30786" fill="none"/><line y2="-25907" y1="-25266" x2="-31662" x1="-32762" fill="none"/><line y2="-29752" y1="-29111" x2="-31662" x1="-32762" fill="none"/><line y2="-29111" y1="-27828" x2="-32762" x1="-32762" fill="none"/><line y2="-28952" y1="-27990" x2="-32592" x1="-32592" fill="none"/><line y2="-23983" y1="-23342" x2="-32762" x1="-31662" fill="none"/><line y2="-25266" y1="-23983" x2="-32762" x1="-32762" fill="none"/><line y2="-25107" y1="-24145" x2="-32592" x1="-32592" fill="none"/><line y2="-30053" y1="-29111" x2="-26733" x1="-28366" fill="none"/><line y2="-23041" y1="-23983" x2="-26733" x1="-28366" fill="none"/><line y2="-27054" y1="-26699" x2="-25818" x1="-26254" fill="none"/><line y2="-26078" y1="-26436" x2="-25794" x1="-26208" fill="none"/><line y2="-25971" y1="-26332" x2="-25887" x1="-26300" fill="none"/><line y2="-31191" y1="-30053" x2="-26733" x1="-26733" fill="none"/><line y2="-31049" y1="-30197" x2="-26563" x1="-26563" fill="none"/><line y2="-30053" y1="-29484" x2="-26733" x1="-25748" fill="none"/><line y2="-31760" y1="-31191" x2="-25748" x1="-26733" fill="none"/><line y2="-29484" y1="-30053" x2="-25748" x1="-24763" fill="none"/><line y2="-29703" y1="-30131" x2="-25711" x1="-24971" fill="none"/><line y2="-31191" y1="-31760" x2="-24763" x1="-25748" fill="none"/><line y2="-31116" y1="-31540" x2="-24971" x1="-25711" fill="none"/><line y2="-30053" y1="-31191" x2="-24763" x1="-24763" fill="none"/><line y2="-31714" y1="-31191" x2="-27640" x1="-26733" fill="none"/><line y2="-28438" y1="-29484" x2="-25748" x1="-25748" fill="none"/><line y2="-31714" y1="-31191" x2="-23856" x1="-24763" fill="none"/><line y2="-23041" y1="-21903" x2="-26733" x1="-26733" fill="none"/><line y2="-22900" y1="-22048" x2="-26563" x1="-26563" fill="none"/><line y2="-23610" y1="-23041" x2="-25748" x1="-26733" fill="none"/><line y2="-21903" y1="-21334" x2="-26733" x1="-25748" fill="none"/><line y2="-23041" y1="-23610" x2="-24763" x1="-25748" fill="none"/><line y2="-22966" y1="-23394" x2="-24971" x1="-25711" fill="none"/><line y2="-21334" y1="-21903" x2="-25748" x1="-24763" fill="none"/><line y2="-21554" y1="-21981" x2="-25711" x1="-24971" fill="none"/><line y2="-21903" y1="-23041" x2="-24763" x1="-24763" fill="none"/><line y2="-21366" y1="-21903" x2="-27632" x1="-26733" fill="none"/><line y2="-24659" y1="-23610" x2="-25748" x1="-25748" fill="none"/><line y2="-21395" y1="-21903" x2="-23847" x1="-24763" fill="none"/><line y2="-31174" y1="-31714" x2="-28539" x1="-27640" fill="none"/><line y2="-32762" y1="-31714" x2="-27640" x1="-27640" fill="none"/><line y2="-27898" y1="-28438" x2="-26644" x1="-25748" fill="none"/><line y2="-27929" y1="-28438" x2="-24832" x1="-25748" fill="none"/><line y2="-31205" y1="-31714" x2="-22940" x1="-23856" fill="none"/><line y2="-32762" y1="-31714" x2="-23856" x1="-23856" fill="none"/><line y2="-21889" y1="-21366" x2="-28539" x1="-27632" fill="none"/><line y2="-20317" y1="-21366" x2="-27632" x1="-27632" fill="none"/><line y2="-25182" y1="-24659" x2="-26655" x1="-25748" fill="none"/><line y2="-25182" y1="-24659" x2="-24841" x1="-25748" fill="none"/><line y2="-21920" y1="-21395" x2="-22940" x1="-23847" fill="none"/><line y2="-20349" y1="-21395" x2="-23847" x1="-23847" fill="none"/><text y="-25682" xml:space="preserve" x="-25803" stroke="none" font-size="433.3333" font-family="sans-serif">O</text><text y="-27028" xml:space="preserve" x="-25780" stroke="none" font-size="433.3333" font-family="sans-serif">OH</text><text y="-27467" xml:space="preserve" x="-27236" stroke="none" font-size="433.3333" font-family="sans-serif">O</text><text y="-25272" xml:space="preserve" x="-27236" stroke="none" font-size="433.3333" font-family="sans-serif">O</text><text y="-26369" xml:space="preserve" x="-26595" stroke="none" font-size="433.3333" font-family="sans-serif">P</text></g></g></svg>