<svg width="304.35" viewBox="0 0 10145 8328" text-rendering="auto" stroke-width="1" stroke-opacity="1" stroke-miterlimit="10" stroke-linejoin="miter" stroke-linecap="square" stroke-dashoffset="0" stroke-dasharray="none" stroke="black" shape-rendering="auto" image-rendering="auto" height="249.84" font-weight="normal" font-style="normal" font-size="12" font-family="'Dialog'" fill-opacity="1" fill="black" color-rendering="auto" color-interpolation="auto" xmlns="http://www.w3.org/2000/svg"><g><g stroke="white" fill="white"><rect y="0" x="0" width="10145" stroke="none" height="8328"/></g><g transform="translate(32866,32758)" text-rendering="geometricPrecision" stroke-width="44" stroke-linejoin="round" stroke-linecap="round"><line y2="-28036" y1="-29021" x2="-23810" x1="-24382" fill="none"/><line y2="-27054" y1="-28036" x2="-24382" x1="-23810" fill="none"/><line y2="-28036" y1="-27464" x2="-23810" x1="-22825" fill="none"/><line y2="-28611" y1="-28036" x2="-22825" x1="-23810" fill="none"/><line y2="-29021" y1="-29021" x2="-24382" x1="-25529" fill="none"/><line y2="-27054" y1="-27054" x2="-25341" x1="-24382" fill="none"/><line y2="-27464" y1="-28611" x2="-22825" x1="-22825" fill="none"/><line y2="-29021" y1="-28036" x2="-25529" x1="-26101" fill="none"/><line y2="-28036" y1="-27274" x2="-26101" x1="-25656" fill="none"/><line y2="-26517" y1="-26941" x2="-26424" x1="-25716" fill="none"/><line y2="-28146" y1="-28562" x2="-27727" x1="-27008" fill="none"/><line y2="-29388" y1="-28562" x2="-27077" x1="-27077" fill="none"/><line y2="-29388" y1="-28602" x2="-26938" x1="-26938" fill="none"/><line y2="-31070" y1="-31376" x2="-27415" x1="-26886" fill="none"/><line y2="-31228" y1="-30960" x2="-28446" x1="-27981" fill="none"/><line y2="-32202" y1="-31376" x2="-26956" x1="-26956" fill="none"/><line y2="-32202" y1="-31393" x2="-26817" x1="-26817" fill="none"/><line y2="-25688" y1="-26517" x2="-26424" x1="-26424" fill="none"/><line y2="-25090" y1="-25358" x2="-27077" x1="-26612" fill="none"/><line y2="-26869" y1="-26456" x2="-27178" x1="-26459" fill="none"/><line y2="-26993" y1="-26577" x2="-27109" x1="-26390" fill="none"/><line y2="-28146" y1="-28605" x2="-28103" x1="-28900" fill="none"/><line y2="-26901" y1="-27817" x2="-27915" x1="-27915" fill="none"/><line y2="-28605" y1="-28036" x2="-28900" x1="-29885" fill="none"/><line y2="-26332" y1="-26901" x2="-28900" x1="-27915" fill="none"/><line y2="-28036" y1="-27120" x2="-29885" x1="-29885" fill="none"/><line y2="-26791" y1="-26332" x2="-29697" x1="-28900" fill="none"/><line y2="-26375" y1="-26791" x2="-30792" x1="-30073" fill="none"/><line y2="-26375" y1="-26944" x2="-30792" x1="-31777" fill="none"/><line y2="-26300" y1="-26728" x2="-31000" x1="-31740" fill="none"/><line y2="-25240" y1="-26375" x2="-30792" x1="-30792" fill="none"/><line y2="-26944" y1="-26375" x2="-31777" x1="-32762" fill="none"/><line y2="-24671" y1="-25240" x2="-31777" x1="-30792" fill="none"/><line y2="-24887" y1="-25315" x2="-31740" x1="-31000" fill="none"/><line y2="-26375" y1="-25240" x2="-32762" x1="-32762" fill="none"/><line y2="-26234" y1="-25381" x2="-32592" x1="-32592" fill="none"/><line y2="-25240" y1="-24671" x2="-32762" x1="-31777" fill="none"/><polygon stroke-width="1" stroke="none" points=" -25529 -29021 -26947 -31341 -26829 -31408"/><polygon stroke-width="1" points=" -25529 -29021 -26947 -31341 -26829 -31408" fill="none"/><line y2="-28620" y1="-28501" x2="-26973" x1="-27042" fill="none"/><line y2="-28499" y1="-28405" x2="-26793" x1="-26847" fill="none"/><line y2="-28378" y1="-28309" x2="-26612" x1="-26653" fill="none"/><line y2="-28258" y1="-28212" x2="-26432" x1="-26458" fill="none"/><line y2="-28137" y1="-28116" x2="-26251" x1="-26263" fill="none"/><text y="-30671" xml:space="preserve" x="-27947" stroke="none" font-size="433.3333" font-family="sans-serif">NH</text><text y="-32242" xml:space="preserve" x="-27040" stroke="none" font-size="433.3333" font-family="sans-serif">O</text><text y="-31269" xml:space="preserve" x="-28978" stroke="none" font-size="433.3333" font-family="sans-serif">OH</text><text y="-25289" xml:space="preserve" x="-26577" stroke="none" font-size="433.3333" font-family="sans-serif">O</text><text y="-26860" xml:space="preserve" x="-27484" stroke="none" font-size="433.3333" font-family="sans-serif">O</text><text y="-24691" xml:space="preserve" x="-27609" stroke="none" font-size="433.3333" font-family="sans-serif">CH</text><text y="-24601" xml:space="preserve" x="-27031" stroke="none" font-size="313.3333" font-family="sans-serif">3</text><text y="-29429" xml:space="preserve" x="-27161" stroke="none" font-size="433.3333" font-family="sans-serif">O</text><text y="-26875" xml:space="preserve" x="-25679" stroke="none" font-size="433.3333" font-family="sans-serif">N</text><text y="-27857" xml:space="preserve" x="-28068" stroke="none" font-size="433.3333" font-family="sans-serif">N</text><text y="-26722" xml:space="preserve" x="-30038" stroke="none" font-size="433.3333" font-family="sans-serif">N</text><text y="-28594" xml:space="preserve" x="-25537" stroke="none" font-style="italic" font-size="313.3333" font-family="sans-serif">S</text><text y="-27857" xml:space="preserve" x="-25982" stroke="none" font-style="italic" font-size="313.3333" font-family="sans-serif">S</text></g></g></svg>