<svg width="265.8" viewBox="0 0 8860 3612" text-rendering="auto" stroke-width="1" stroke-opacity="1" stroke-miterlimit="10" stroke-linejoin="miter" stroke-linecap="square" stroke-dashoffset="0" stroke-dasharray="none" stroke="black" shape-rendering="auto" image-rendering="auto" height="108.36" font-weight="normal" font-style="normal" font-size="12" font-family="'Dialog'" fill-opacity="1" fill="black" color-rendering="auto" color-interpolation="auto" xmlns="http://www.w3.org/2000/svg"><g><g stroke="white" fill="white"><rect y="0" x="0" width="8860" stroke="none" height="3612"/></g><g transform="translate(32866,32758)" text-rendering="geometricPrecision" stroke-width="44" stroke-linejoin="round" stroke-linecap="round"><line y2="-30590" y1="-31613" x2="-30581" x1="-30229" fill="none"/><line y2="-31613" y1="-32277" x2="-30229" x1="-31090" fill="none"/><line y2="-31561" y1="-32060" x2="-30440" x1="-31087" fill="none"/><line y2="-30370" y1="-30370" x2="-31994" x1="-30844" fill="none"/><line y2="-32283" y1="-31829" x2="-31465" x1="-32081" fill="none"/><line y2="-31393" y1="-30370" x2="-32312" x1="-31994" fill="none"/><line y2="-32026" y1="-31613" x2="-29510" x1="-30229" fill="none"/><line y2="-31613" y1="-31916" x2="-28415" x1="-28940" fill="none"/><line y2="-32026" y1="-31613" x2="-27695" x1="-28415" fill="none"/><line y2="-31613" y1="-31916" x2="-26600" x1="-27126" fill="none"/><line y2="-29700" y1="-30330" x2="-32396" x1="-31939" fill="none"/><line y2="-29781" y1="-30411" x2="-32508" x1="-32052" fill="none"/><line y2="-31613" y1="-30674" x2="-26600" x1="-26312" fill="none"/><line y2="-32228" y1="-31613" x2="-25763" x1="-26600" fill="none"/><line y2="-32014" y1="-31552" x2="-25768" x1="-26392" fill="none"/><line y2="-30454" y1="-30454" x2="-26054" x1="-24997" fill="none"/><line y2="-31757" y1="-32222" x2="-24786" x1="-25387" fill="none"/><line y2="-30454" y1="-31393" x2="-24997" x1="-24674" fill="none"/><line y2="-29856" y1="-30495" x2="-24494" x1="-24939" fill="none"/><line y2="-29775" y1="-30414" x2="-24607" x1="-25055" fill="none"/><text y="-31956" xml:space="preserve" x="-29472" stroke="none" font-size="433.3333" font-family="sans-serif">NH</text><text y="-31956" xml:space="preserve" x="-27658" stroke="none" font-size="433.3333" font-family="sans-serif">NH</text><text y="-29342" xml:space="preserve" x="-32762" stroke="none" font-size="433.3333" font-family="sans-serif">S</text><text y="-29417" xml:space="preserve" x="-24549" stroke="none" font-size="433.3333" font-family="sans-serif">S</text><text y="-30191" xml:space="preserve" x="-30810" stroke="none" font-size="433.3333" font-family="sans-serif">S</text><text y="-32242" xml:space="preserve" x="-31431" stroke="none" font-size="433.3333" font-family="sans-serif">N</text><text y="-31434" xml:space="preserve" x="-32528" stroke="none" font-size="433.3333" font-family="sans-serif">NH</text><text y="-30275" xml:space="preserve" x="-26395" stroke="none" font-size="433.3333" font-family="sans-serif">S</text><text y="-32188" xml:space="preserve" x="-25728" stroke="none" font-size="433.3333" font-family="sans-serif">N</text><text y="-31434" xml:space="preserve" x="-24749" stroke="none" font-size="433.3333" font-family="sans-serif">NH</text></g></g></svg>