<svg width="410.01" viewBox="0 0 13667 6628" text-rendering="auto" stroke-width="1" stroke-opacity="1" stroke-miterlimit="10" stroke-linejoin="miter" stroke-linecap="square" stroke-dashoffset="0" stroke-dasharray="none" stroke="black" shape-rendering="auto" image-rendering="auto" height="198.84" font-weight="normal" font-style="normal" font-size="12" font-family="'Dialog'" fill-opacity="1" fill="black" color-rendering="auto" color-interpolation="auto" xmlns="http://www.w3.org/2000/svg"><g><g stroke="white" fill="white"><rect y="0" x="0" width="13667" stroke="none" height="6628"/></g><g transform="translate(32866,32758)" text-rendering="geometricPrecision" stroke-width="44" stroke-linejoin="round" stroke-linecap="round"><line y2="-29796" y1="-30370" x2="-22328" x1="-23310" fill="none"/><line y2="-30370" y1="-29796" x2="-23310" x1="-24292" fill="none"/><line y2="-31514" y1="-30370" x2="-23310" x1="-23310" fill="none"/><line y2="-28649" y1="-29796" x2="-22328" x1="-22328" fill="none"/><line y2="-29796" y1="-29226" x2="-22328" x1="-21331" fill="none"/><line y2="-28649" y1="-29796" x2="-24292" x1="-24292" fill="none"/><line y2="-29796" y1="-30370" x2="-24292" x1="-25274" fill="none"/><line y2="-32089" y1="-31514" x2="-22328" x1="-23310" fill="none"/><line y2="-31514" y1="-30370" x2="-21346" x1="-21346" fill="none"/><line y2="-28077" y1="-28649" x2="-23310" x1="-22328" fill="none"/><line y2="-29226" y1="-30942" x2="-21331" x1="-20352" fill="none"/><line y2="-28649" y1="-28077" x2="-24292" x1="-23310" fill="none"/><line y2="-28077" y1="-28649" x2="-25274" x1="-24292" fill="none"/><line y2="-30370" y1="-29796" x2="-25274" x1="-26257" fill="none"/><line y2="-31514" y1="-32089" x2="-21346" x1="-22328" fill="none"/><line y2="-30942" y1="-31514" x2="-20352" x1="-21346" fill="none"/><line y2="-28649" y1="-28077" x2="-26257" x1="-25274" fill="none"/><line y2="-29796" y1="-28649" x2="-26257" x1="-26257" fill="none"/><line y2="-28649" y1="-28233" x2="-28071" x1="-27352" fill="none"/><line y2="-27028" y1="-28077" x2="-25274" x1="-25274" fill="none"/><line y2="-31214" y1="-30942" x2="-19341" x1="-20352" fill="none"/><line y2="-31078" y1="-30807" x2="-19303" x1="-20317" fill="none"/><line y2="-28126" y1="-28649" x2="-28978" x1="-28071" fill="none"/><line y2="-29478" y1="-28649" x2="-28143" x1="-28143" fill="none"/><line y2="-29478" y1="-28649" x2="-28002" x1="-28002" fill="none"/><line y2="-26725" y1="-27028" x2="-25803" x1="-25274" fill="none"/><line y2="-26673" y1="-27089" x2="-24520" x1="-25240" fill="none"/><line y2="-26551" y1="-26967" x2="-24590" x1="-25309" fill="none"/><line y2="-28649" y1="-28126" x2="-29885" x1="-28978" fill="none"/><line y2="-28464" y1="-28071" x2="-29842" x1="-29163" fill="none"/><line y2="-28126" y1="-28649" x2="-30792" x1="-29885" fill="none"/><line y2="-28126" y1="-28695" x2="-30792" x1="-31777" fill="none"/><line y2="-28051" y1="-28478" x2="-31000" x1="-31740" fill="none"/><line y2="-26988" y1="-28126" x2="-30792" x1="-30792" fill="none"/><line y2="-28695" y1="-28126" x2="-31777" x1="-32762" fill="none"/><line y2="-26418" y1="-26988" x2="-31777" x1="-30792" fill="none"/><line y2="-26638" y1="-27066" x2="-31740" x1="-31000" fill="none"/><line y2="-28126" y1="-26988" x2="-32762" x1="-32762" fill="none"/><line y2="-27984" y1="-27132" x2="-32595" x1="-32595" fill="none"/><line y2="-26988" y1="-26418" x2="-32762" x1="-31777" fill="none"/><polygon stroke-width="1" stroke="none" points=" -25274 -28077 -26147 -27493 -26216 -27612"/><polygon stroke-width="1" points=" -25274 -28077 -26147 -27493 -26216 -27612" fill="none"/><polygon stroke-width="1" stroke="none" points=" -23310 -30370 -23241 -29541 -23379 -29538"/><polygon stroke-width="1" points=" -23310 -30370 -23241 -29541 -23379 -29538" fill="none"/><polygon stroke-width="1" stroke="none" points=" -24292 -28649 -24223 -27822 -24362 -27820"/><polygon stroke-width="1" points=" -24292 -28649 -24223 -27822 -24362 -27820" fill="none"/><line y2="-30310" y1="-30428" x2="-21311" x1="-21377" fill="none"/><line y2="-30212" y1="-30308" x2="-21505" x1="-21558" fill="none"/><line y2="-30114" y1="-30187" x2="-21698" x1="-21739" fill="none"/><line y2="-30017" y1="-30067" x2="-21892" x1="-21920" fill="none"/><line y2="-29919" y1="-29947" x2="-22085" x1="-22101" fill="none"/><line y2="-29821" y1="-29827" x2="-22279" x1="-22282" fill="none"/><line y2="-28293" y1="-28175" x2="-27011" x1="-26941" fill="none"/><line y2="-28386" y1="-28299" x2="-26814" x1="-26762" fill="none"/><line y2="-28479" y1="-28422" x2="-26617" x1="-26584" fill="none"/><line y2="-28572" y1="-28546" x2="-26421" x1="-26405" fill="none"/><line y2="-30844" y1="-30844" x2="-24223" x1="-24362" fill="none"/><line y2="-30627" y1="-30627" x2="-24237" x1="-24348" fill="none"/><line y2="-30411" y1="-30411" x2="-24252" x1="-24333" fill="none"/><line y2="-30194" y1="-30194" x2="-24266" x1="-24319" fill="none"/><line y2="-29977" y1="-29977" x2="-24280" x1="-24304" fill="none"/><line y2="-32167" y1="-32237" x2="-20886" x1="-21005" fill="none"/><line y2="-31989" y1="-32040" x2="-21011" x1="-21098" fill="none"/><line y2="-31812" y1="-31843" x2="-21136" x1="-21191" fill="none"/><line y2="-31634" y1="-31647" x2="-21262" x1="-21283" fill="none"/><text y="-26326" xml:space="preserve" x="-26335" stroke="none" font-size="433.3333" font-family="sans-serif">OH</text><text y="-26326" xml:space="preserve" x="-24520" stroke="none" font-size="433.3333" font-family="sans-serif">O</text><text y="-27947" xml:space="preserve" x="-27317" stroke="none" font-size="433.3333" font-family="sans-serif">O</text><text y="-29518" xml:space="preserve" x="-28224" stroke="none" font-size="433.3333" font-family="sans-serif">O</text><text y="-29143" xml:space="preserve" x="-23463" stroke="none" font-size="433.3333" font-family="sans-serif">H</text><text y="-32242" xml:space="preserve" x="-20973" stroke="none" font-size="433.3333" font-family="sans-serif">H</text><text y="-27424" xml:space="preserve" x="-24445" stroke="none" font-size="433.3333" font-family="sans-serif">H</text><text y="-28597" xml:space="preserve" x="-29362" stroke="none" font-style="italic" font-size="313.3333" font-family="sans-serif">E</text><text y="-30333" xml:space="preserve" x="-23712" stroke="none" font-style="italic" font-size="313.3333" font-family="sans-serif">R</text><text y="-29475" xml:space="preserve" x="-22729" stroke="none" font-style="italic" font-size="313.3333" font-family="sans-serif">S</text><text y="-29475" xml:space="preserve" x="-24197" stroke="none" font-style="italic" font-size="313.3333" font-family="sans-serif">S</text><text y="-28614" xml:space="preserve" x="-24694" stroke="none" font-style="italic" font-size="313.3333" font-family="sans-serif">S</text><text y="-31191" xml:space="preserve" x="-21747" stroke="none" font-style="italic" font-size="313.3333" font-family="sans-serif">R</text><text y="-27753" xml:space="preserve" x="-25179" stroke="none" font-style="italic" font-size="313.3333" font-family="sans-serif">S</text><text y="-28614" xml:space="preserve" x="-26161" stroke="none" font-style="italic" font-size="313.3333" font-family="sans-serif">R</text></g></g></svg>