<svg width="129.12" viewBox="0 0 4304 9061" text-rendering="auto" stroke-width="1" stroke-opacity="1" stroke-miterlimit="10" stroke-linejoin="miter" stroke-linecap="square" stroke-dashoffset="0" stroke-dasharray="none" stroke="black" shape-rendering="auto" image-rendering="auto" height="271.83" font-weight="normal" font-style="normal" font-size="12" font-family="'Dialog'" fill-opacity="1" fill="black" color-rendering="auto" color-interpolation="auto" xmlns="http://www.w3.org/2000/svg"><g><g stroke="white" fill="white"><rect y="0" x="0" width="4304" stroke="none" height="9061"/></g><g transform="translate(32866,32758)" text-rendering="geometricPrecision" stroke-width="44" stroke-linejoin="round" stroke-linecap="round"><line y2="-27479" y1="-28054" x2="-30630" x1="-31613" fill="none"/><line y2="-26332" y1="-27479" x2="-30630" x1="-30630" fill="none"/><line y2="-28054" y1="-27479" x2="-29648" x1="-30630" fill="none"/><line y2="-27834" y1="-27404" x2="-29686" x1="-30422" fill="none"/><line y2="-28054" y1="-27479" x2="-31613" x1="-32595" fill="none"/><line y2="-25760" y1="-26332" x2="-31613" x1="-30630" fill="none"/><line y2="-26332" y1="-25760" x2="-30630" x1="-29648" fill="none"/><line y2="-26407" y1="-25979" x2="-30422" x1="-29686" fill="none"/><line y2="-27479" y1="-28054" x2="-28666" x1="-29648" fill="none"/><line y2="-27479" y1="-26332" x2="-32595" x1="-32595" fill="none"/><line y2="-26332" y1="-25760" x2="-32595" x1="-31613" fill="none"/><line y2="-25760" y1="-26332" x2="-29648" x1="-28666" fill="none"/><line y2="-26332" y1="-27479" x2="-28666" x1="-28666" fill="none"/><line y2="-26476" y1="-27337" x2="-28836" x1="-28836" fill="none"/><line y2="-29099" y1="-28054" x2="-31613" x1="-31613" fill="none"/><line y2="-24931" y1="-25760" x2="-31543" x1="-31543" fill="none"/><line y2="-24931" y1="-25760" x2="-31682" x1="-31682" fill="none"/><line y2="-24356" y1="-24604" x2="-32231" x1="-31800" fill="none"/><line y2="-29099" y1="-29668" x2="-31613" x1="-30630" fill="none"/><line y2="-29319" y1="-29744" x2="-31575" x1="-30838" fill="none"/><line y2="-29668" y1="-29099" x2="-32601" x1="-31613" fill="none"/><line y2="-29668" y1="-30807" x2="-30630" x1="-30630" fill="none"/><line y2="-30807" y1="-29668" x2="-32601" x1="-32601" fill="none"/><line y2="-30665" y1="-29810" x2="-32430" x1="-32430" fill="none"/><line y2="-30807" y1="-31376" x2="-30630" x1="-31613" fill="none"/><line y2="-30729" y1="-31156" x2="-30838" x1="-31575" fill="none"/><line y2="-31376" y1="-30807" x2="-31613" x1="-32601" fill="none"/><line y2="-31133" y1="-30807" x2="-30061" x1="-30630" fill="none"/><line y2="-32202" y1="-31376" x2="-31613" x1="-31613" fill="none"/><text y="-24532" xml:space="preserve" x="-31766" stroke="none" font-size="433.3333" font-family="sans-serif">N</text><text y="-23957" xml:space="preserve" x="-32762" stroke="none" font-size="433.3333" font-family="sans-serif">CH</text><text y="-23868" xml:space="preserve" x="-32185" stroke="none" font-size="313.3333" font-family="sans-serif">3</text><text y="-31150" xml:space="preserve" x="-29954" stroke="none" font-size="433.3333" font-family="sans-serif">Cl</text><text y="-32242" xml:space="preserve" x="-31844" stroke="none" font-size="433.3333" font-family="sans-serif">Cl</text></g></g></svg>