<svg width="324.75" viewBox="0 0 10825 5975" text-rendering="auto" stroke-width="1" stroke-opacity="1" stroke-miterlimit="10" stroke-linejoin="miter" stroke-linecap="square" stroke-dashoffset="0" stroke-dasharray="none" stroke="black" shape-rendering="auto" image-rendering="auto" height="179.25" font-weight="normal" font-style="normal" font-size="12" font-family="'Dialog'" fill-opacity="1" fill="black" color-rendering="auto" color-interpolation="auto" xmlns="http://www.w3.org/2000/svg"><g><g stroke="white" fill="white"><rect y="0" x="0" width="10825" stroke="none" height="5975"/></g><g transform="translate(32866,32758)" text-rendering="geometricPrecision" stroke-width="44" stroke-linejoin="round" stroke-linecap="round"><line y2="-30281" y1="-30850" x2="-28828" x1="-29810" fill="none"/><line y2="-30206" y1="-30633" x2="-29036" x1="-29772" fill="none"/><line y2="-29146" y1="-30281" x2="-28828" x1="-28828" fill="none"/><line y2="-30850" y1="-30281" x2="-29810" x1="-30798" fill="none"/><line y2="-28576" y1="-29146" x2="-29810" x1="-28828" fill="none"/><line y2="-28793" y1="-29221" x2="-29772" x1="-29036" fill="none"/><line y2="-30281" y1="-29146" x2="-30798" x1="-30798" fill="none"/><line y2="-30139" y1="-29287" x2="-30628" x1="-30628" fill="none"/><line y2="-29146" y1="-28576" x2="-30798" x1="-29810" fill="none"/><line y2="-30697" y1="-30281" x2="-28108" x1="-28828" fill="none"/><line y2="-29726" y1="-30587" x2="-26008" x1="-27531" fill="none"/><line y2="-28620" y1="-29146" x2="-31705" x1="-30798" fill="none"/><line y2="-31679" y1="-30850" x2="-29810" x1="-29810" fill="none"/><line y2="-28730" y1="-29146" x2="-28108" x1="-28828" fill="none"/><line y2="-30610" y1="-30281" x2="-31364" x1="-30798" fill="none"/><line y2="-30292" y1="-29726" x2="-25026" x1="-26008" fill="none"/><line y2="-30076" y1="-29648" x2="-25064" x1="-25800" fill="none"/><line y2="-29726" y1="-28808" x2="-26008" x1="-26008" fill="none"/><line y2="-29726" y1="-30292" x2="-24038" x1="-25026" fill="none"/><line y2="-28481" y1="-28019" x2="-25820" x1="-25026" fill="none"/><line y2="-28571" y1="-28224" x2="-25636" x1="-25040" fill="none"/><line y2="-28588" y1="-29726" x2="-24038" x1="-24038" fill="none"/><line y2="-28732" y1="-29585" x2="-24208" x1="-24208" fill="none"/><line y2="-28019" y1="-28588" x2="-25026" x1="-24038" fill="none"/><line y2="-28065" y1="-28588" x2="-23131" x1="-24038" fill="none"/><line y2="-31122" y1="-30292" x2="-25026" x1="-25026" fill="none"/><line y2="-29036" y1="-28620" x2="-32424" x1="-31705" fill="none"/><line y2="-27932" y1="-28620" x2="-32101" x1="-31705" fill="none"/><line y2="-27932" y1="-28620" x2="-31306" x1="-31705" fill="none"/><line y2="-32254" y1="-31945" x2="-30564" x1="-30032" fill="none"/><line y2="-32375" y1="-32069" x2="-30495" x1="-29963" fill="none"/><line y2="-32375" y1="-32069" x2="-29125" x1="-29657" fill="none"/><line y2="-32254" y1="-31945" x2="-29056" x1="-29588" fill="none"/><line y2="-27794" y1="-28400" x2="-27848" x1="-27848" fill="none"/><line y2="-27794" y1="-28400" x2="-27990" x1="-27990" fill="none"/><line y2="-29096" y1="-28790" x2="-27236" x1="-27768" fill="none"/><line y2="-28975" y1="-28669" x2="-27167" x1="-27695" fill="none"/><line y2="-28481" y1="-28065" x2="-22412" x1="-23131" fill="none"/><line y2="-27378" y1="-28065" x2="-22732" x1="-23131" fill="none"/><line y2="-27378" y1="-28065" x2="-23530" x1="-23131" fill="none"/><text y="-30628" xml:space="preserve" x="-28071" stroke="none" font-size="433.3333" font-family="sans-serif">NH</text><text y="-31720" xml:space="preserve" x="-29963" stroke="none" font-size="433.3333" font-family="sans-serif">N</text><text y="-32242" xml:space="preserve" x="-30870" stroke="none" font-size="433.3333" font-family="sans-serif">O</text><text y="-32242" xml:space="preserve" x="-29056" stroke="none" font-size="433.3333" font-family="sans-serif">O</text><text y="-28441" xml:space="preserve" x="-28071" stroke="none" font-size="433.3333" font-family="sans-serif">N</text><text y="-27395" xml:space="preserve" x="-28071" stroke="none" font-size="433.3333" font-family="sans-serif">O</text><text y="-28966" xml:space="preserve" x="-27164" stroke="none" font-size="433.3333" font-family="sans-serif">O</text><text y="-30628" xml:space="preserve" x="-31936" stroke="none" font-size="433.3333" font-family="sans-serif">Cl</text><text y="-28966" xml:space="preserve" x="-32762" stroke="none" font-size="433.3333" font-family="sans-serif">F</text><text y="-27534" xml:space="preserve" x="-32381" stroke="none" font-size="433.3333" font-family="sans-serif">F</text><text y="-27534" xml:space="preserve" x="-31332" stroke="none" font-size="433.3333" font-family="sans-serif">F</text><text y="-31162" xml:space="preserve" x="-25257" stroke="none" font-size="433.3333" font-family="sans-serif">Cl</text><text y="-28409" xml:space="preserve" x="-22377" stroke="none" font-size="433.3333" font-family="sans-serif">F</text><text y="-26979" xml:space="preserve" x="-22758" stroke="none" font-size="433.3333" font-family="sans-serif">F</text><text y="-26979" xml:space="preserve" x="-23807" stroke="none" font-size="433.3333" font-family="sans-serif">F</text><text y="-28409" xml:space="preserve" x="-26161" stroke="none" font-size="433.3333" font-family="sans-serif">N</text></g></g></svg>