<svg width="320.1" viewBox="0 0 10670 5825" text-rendering="auto" stroke-width="1" stroke-opacity="1" stroke-miterlimit="10" stroke-linejoin="miter" stroke-linecap="square" stroke-dashoffset="0" stroke-dasharray="none" stroke="black" shape-rendering="auto" image-rendering="auto" height="174.75" font-weight="normal" font-style="normal" font-size="12" font-family="'Dialog'" fill-opacity="1" fill="black" color-rendering="auto" color-interpolation="auto" xmlns="http://www.w3.org/2000/svg"><g><g stroke="white" fill="white"><rect y="0" x="0" width="10670" stroke="none" height="5825"/></g><g transform="translate(32866,32758)" text-rendering="geometricPrecision" stroke-width="44" stroke-linejoin="round" stroke-linecap="round"><line y2="-28929" y1="-30076" x2="-26580" x1="-26580" fill="none"/><line y2="-30538" y1="-30076" x2="-25786" x1="-26580" fill="none"/><line y2="-30076" y1="-30648" x2="-26580" x1="-27562" fill="none"/><line y2="-30001" y1="-30431" x2="-26788" x1="-27525" fill="none"/><line y2="-28929" y1="-28357" x2="-26580" x1="-25598" fill="none"/><line y2="-28357" y1="-28929" x2="-27562" x1="-26580" fill="none"/><line y2="-28574" y1="-29004" x2="-27525" x1="-26788" fill="none"/><line y2="-30076" y1="-30538" x2="-24616" x1="-25410" fill="none"/><line y2="-30648" y1="-30076" x2="-27562" x1="-28545" fill="none"/><line y2="-28357" y1="-28929" x2="-25598" x1="-24616" fill="none"/><line y2="-28929" y1="-28357" x2="-28545" x1="-27562" fill="none"/><line y2="-28929" y1="-30076" x2="-24616" x1="-24616" fill="none"/><line y2="-29073" y1="-29931" x2="-24786" x1="-24786" fill="none"/><line y2="-30076" y1="-28929" x2="-28545" x1="-28545" fill="none"/><line y2="-29931" y1="-29073" x2="-28374" x1="-28374" fill="none"/><line y2="-30492" y1="-30076" x2="-29264" x1="-28545" fill="none"/><line y2="-31696" y1="-30867" x2="-25598" x1="-25598" fill="none"/><line y2="-32219" y1="-31696" x2="-24691" x1="-25598" fill="none"/><line y2="-31803" y1="-32219" x2="-23972" x1="-24691" fill="none"/><line y2="-28406" y1="-28929" x2="-23709" x1="-24616" fill="none"/><line y2="-31477" y1="-30648" x2="-27562" x1="-27562" fill="none"/><line y2="-28513" y1="-28929" x2="-29264" x1="-28545" fill="none"/><line y2="-27528" y1="-28357" x2="-25529" x1="-25529" fill="none"/><line y2="-27528" y1="-28357" x2="-25667" x1="-25667" fill="none"/><line y2="-30030" y1="-30492" x2="-30437" x1="-29640" fill="none"/><line y2="-30818" y1="-31737" x2="-29452" x1="-29452" fill="none"/><line y2="-30599" y1="-30030" x2="-31422" x1="-30437" fill="none"/><line y2="-31737" y1="-32306" x2="-29452" x1="-30437" fill="none"/><line y2="-31517" y1="-30599" x2="-31422" x1="-31422" fill="none"/><line y2="-32306" y1="-31844" x2="-30437" x1="-31234" fill="none"/><line y2="-32092" y1="-31844" x2="-32040" x1="-31610" fill="none"/><line y2="-28822" y1="-28406" x2="-22989" x1="-23709" fill="none"/><line y2="-27577" y1="-28406" x2="-23639" x1="-23639" fill="none"/><line y2="-27577" y1="-28406" x2="-23778" x1="-23778" fill="none"/><text y="-31517" xml:space="preserve" x="-23937" stroke="none" font-size="433.3333" font-family="sans-serif">F</text><text y="-31517" xml:space="preserve" x="-27716" stroke="none" font-size="433.3333" font-family="sans-serif">F</text><text y="-27129" xml:space="preserve" x="-25751" stroke="none" font-size="433.3333" font-family="sans-serif">O</text><text y="-28750" xml:space="preserve" x="-22955" stroke="none" font-size="433.3333" font-family="sans-serif">OH</text><text y="-27178" xml:space="preserve" x="-23862" stroke="none" font-size="433.3333" font-family="sans-serif">O</text><text y="-28227" xml:space="preserve" x="-29605" stroke="none" font-size="433.3333" font-family="sans-serif">F</text><text y="-32242" xml:space="preserve" x="-32762" stroke="none" font-size="433.3333" font-family="sans-serif">CH</text><text y="-32153" xml:space="preserve" x="-32185" stroke="none" font-size="313.3333" font-family="sans-serif">3</text><text y="-30469" xml:space="preserve" x="-25751" stroke="none" font-size="433.3333" font-family="sans-serif">N</text><text y="-30420" xml:space="preserve" x="-29605" stroke="none" font-size="433.3333" font-family="sans-serif">N</text><text y="-31558" xml:space="preserve" x="-31575" stroke="none" font-size="433.3333" font-family="sans-serif">N</text></g></g></svg>