<svg width="1017.87" viewBox="0 0 33929 3947" text-rendering="auto" stroke-width="1" stroke-opacity="1" stroke-miterlimit="10" stroke-linejoin="miter" stroke-linecap="square" stroke-dashoffset="0" stroke-dasharray="none" stroke="black" shape-rendering="auto" image-rendering="auto" height="118.41" font-weight="normal" font-style="normal" font-size="12" font-family="'Dialog'" fill-opacity="1" fill="black" color-rendering="auto" color-interpolation="auto" xmlns="http://www.w3.org/2000/svg"><g><g stroke="white" fill="white"><rect y="0" x="0" width="33929" stroke="none" height="3947"/></g><g transform="translate(32866,32758)" text-rendering="geometricPrecision" stroke-width="44" stroke-linejoin="round" stroke-linecap="round"><line y2="-30191" y1="-30758" x2="-16354" x1="-15371" fill="none"/><line y2="-30408" y1="-30836" x2="-16316" x1="-15579" fill="none"/><line y2="-30758" y1="-31676" x2="-15371" x1="-15371" fill="none"/><line y2="-30758" y1="-30191" x2="-17342" x1="-16354" fill="none"/><line y2="-32006" y1="-32465" x2="-15559" x1="-16354" fill="none"/><line y2="-31896" y1="-30758" x2="-17342" x1="-17342" fill="none"/><line y2="-32465" y1="-31896" x2="-16354" x1="-17342" fill="none"/><line y2="-32245" y1="-31821" x2="-16391" x1="-17131" fill="none"/><line y2="-30235" y1="-30758" x2="-14464" x1="-15371" fill="none"/><line y2="-30651" y1="-30235" x2="-13745" x1="-14464" fill="none"/><line y2="-30235" y1="-30651" x2="-12650" x1="-13366" fill="none"/><line y2="-32312" y1="-31896" x2="-18061" x1="-17342" fill="none"/><line y2="-31896" y1="-32312" x2="-19156" x1="-18436" fill="none"/><line y2="-30284" y1="-30697" x2="-18023" x1="-17307" fill="none"/><line y2="-30405" y1="-30821" x2="-18096" x1="-17376" fill="none"/><line y2="-30758" y1="-30235" x2="-11743" x1="-12650" fill="none"/><line y2="-30235" y1="-30758" x2="-10836" x1="-11743" fill="none"/><line y2="-30758" y1="-30235" x2="-9926" x1="-10836" fill="none"/><line y2="-30235" y1="-30758" x2="-9019" x1="-9926" fill="none"/><line y2="-30758" y1="-30235" x2="-8112" x1="-9019" fill="none"/><line y2="-30235" y1="-30758" x2="-7204" x1="-8112" fill="none"/><line y2="-30758" y1="-30235" x2="-6297" x1="-7204" fill="none"/><line y2="-30235" y1="-30758" x2="-5390" x1="-6297" fill="none"/><line y2="-30758" y1="-30235" x2="-4483" x1="-5390" fill="none"/><line y2="-30235" y1="-30758" x2="-3576" x1="-4483" fill="none"/><line y2="-30758" y1="-30235" x2="-2669" x1="-3576" fill="none"/><line y2="-30235" y1="-30758" x2="-1762" x1="-2669" fill="none"/><line y2="-30758" y1="-30235" x2="-855" x1="-1762" fill="none"/><line y2="-30235" y1="-30758" x2="52" x1="-855" fill="none"/><line y2="-30758" y1="-30235" x2="959" x1="52" fill="none"/><line y2="-29406" y1="-30235" x2="-12578" x1="-12578" fill="none"/><line y2="-29406" y1="-30235" x2="-12719" x1="-12719" fill="none"/><line y2="-32422" y1="-31896" x2="-20063" x1="-19156" fill="none"/><line y2="-31896" y1="-32422" x2="-20970" x1="-20063" fill="none"/><line y2="-32422" y1="-31896" x2="-21877" x1="-20970" fill="none"/><line y2="-31896" y1="-32422" x2="-22784" x1="-21877" fill="none"/><line y2="-32422" y1="-31896" x2="-23691" x1="-22784" fill="none"/><line y2="-31896" y1="-32422" x2="-24598" x1="-23691" fill="none"/><line y2="-32422" y1="-31896" x2="-25506" x1="-24598" fill="none"/><line y2="-31896" y1="-32422" x2="-26413" x1="-25506" fill="none"/><line y2="-32422" y1="-31896" x2="-27320" x1="-26413" fill="none"/><line y2="-31896" y1="-32422" x2="-28227" x1="-27320" fill="none"/><line y2="-32422" y1="-31896" x2="-29134" x1="-28227" fill="none"/><line y2="-31896" y1="-32422" x2="-30041" x1="-29134" fill="none"/><line y2="-32422" y1="-31896" x2="-30948" x1="-30041" fill="none"/><line y2="-31896" y1="-32422" x2="-31855" x1="-30948" fill="none"/><line y2="-32422" y1="-31896" x2="-32762" x1="-31855" fill="none"/><line y2="-31067" y1="-31896" x2="-19086" x1="-19086" fill="none"/><line y2="-31067" y1="-31896" x2="-19225" x1="-19225" fill="none"/><text y="-30578" xml:space="preserve" x="-13707" stroke="none" font-size="433.3333" font-family="sans-serif">O</text><text y="-29007" xml:space="preserve" x="-12800" stroke="none" font-size="433.3333" font-family="sans-serif">O</text><text y="-30056" xml:space="preserve" x="-18399" stroke="none" font-size="433.3333" font-family="sans-serif">O</text><text y="-32242" xml:space="preserve" x="-18399" stroke="none" font-size="433.3333" font-family="sans-serif">O</text><text y="-30668" xml:space="preserve" x="-19306" stroke="none" font-size="433.3333" font-family="sans-serif">O</text><text y="-31717" xml:space="preserve" x="-15522" stroke="none" font-size="433.3333" font-family="sans-serif">O</text></g></g></svg>