<svg width="216.15" viewBox="0 0 7205 8157" text-rendering="auto" stroke-width="1" stroke-opacity="1" stroke-miterlimit="10" stroke-linejoin="miter" stroke-linecap="square" stroke-dashoffset="0" stroke-dasharray="none" stroke="black" shape-rendering="auto" image-rendering="auto" height="244.71" font-weight="normal" font-style="normal" font-size="12" font-family="'Dialog'" fill-opacity="1" fill="black" color-rendering="auto" color-interpolation="auto" xmlns="http://www.w3.org/2000/svg"><g><g stroke="white" fill="white"><rect y="0" x="0" width="7205" stroke="none" height="8157"/></g><g transform="translate(32866,32866)" text-rendering="geometricPrecision" stroke-width="44" stroke-linejoin="round" stroke-linecap="round"><line y2="-29980" y1="-30552" x2="-29813" x1="-28831" fill="none"/><line y2="-30552" y1="-29980" x2="-30798" x1="-29813" fill="none"/><line y2="-31699" y1="-30552" x2="-28831" x1="-28831" fill="none"/><line y2="-30552" y1="-29980" x2="-28831" x1="-27848" fill="none"/><line y2="-30628" y1="-30197" x2="-28623" x1="-27886" fill="none"/><line y2="-31699" y1="-30552" x2="-30798" x1="-30798" fill="none"/><line y2="-30090" y1="-30552" x2="-31592" x1="-30798" fill="none"/><line y2="-30295" y1="-30642" x2="-31578" x1="-30983" fill="none"/><line y2="-32271" y1="-31699" x2="-27848" x1="-28831" fill="none"/><line y2="-32052" y1="-31624" x2="-27886" x1="-28623" fill="none"/><line y2="-31699" y1="-32762" x2="-28831" x1="-29241" fill="none"/><line y2="-29980" y1="-30552" x2="-27848" x1="-26866" fill="none"/><line y2="-32762" y1="-31699" x2="-30388" x1="-30798" fill="none"/><line y2="-31699" y1="-32271" x2="-30798" x1="-31780" fill="none"/><line y2="-31624" y1="-32052" x2="-31006" x1="-31743" fill="none"/><line y2="-30552" y1="-30090" x2="-32762" x1="-31968" fill="none"/><line y2="-31699" y1="-32271" x2="-26866" x1="-27848" fill="none"/><line y2="-32762" y1="-32762" x2="-29241" x1="-30388" fill="none"/><line y2="-30552" y1="-31699" x2="-26866" x1="-26866" fill="none"/><line y2="-30697" y1="-31555" x2="-27037" x1="-27037" fill="none"/><line y2="-32271" y1="-31699" x2="-31780" x1="-32762" fill="none"/><line y2="-31699" y1="-30552" x2="-32762" x1="-32762" fill="none"/><line y2="-31555" y1="-30697" x2="-32592" x1="-32592" fill="none"/><line y2="-28932" y1="-29980" x2="-29744" x1="-29744" fill="none"/><line y2="-28932" y1="-29980" x2="-29885" x1="-29885" fill="none"/><line y2="-32026" y1="-31699" x2="-26300" x1="-26866" fill="none"/><line y2="-28932" y1="-28363" x2="-29813" x1="-30801" fill="none"/><line y2="-28363" y1="-28932" x2="-28831" x1="-29813" fill="none"/><line y2="-28363" y1="-27224" x2="-30801" x1="-30801" fill="none"/><line y2="-27224" y1="-28363" x2="-28831" x1="-28831" fill="none"/><line y2="-27224" y1="-26765" x2="-30801" x1="-30004" fill="none"/><line y2="-26765" y1="-27224" x2="-29625" x1="-28831" fill="none"/><line y2="-25610" y1="-26436" x2="-29813" x1="-29813" fill="none"/><line y2="-25194" y1="-25610" x2="-30532" x1="-29813" fill="none"/><line y2="-25610" y1="-25194" x2="-31630" x1="-30911" fill="none"/><line y2="-25084" y1="-25610" x2="-32537" x1="-31630" fill="none"/><line y2="-25254" y1="-25670" x2="-29059" x1="-29778" fill="none"/><line y2="-25133" y1="-25549" x2="-29131" x1="-29850" fill="none"/><text y="-32043" xml:space="preserve" x="-26190" stroke="none" font-size="433.3333" font-family="sans-serif">Cl</text><text y="-24905" xml:space="preserve" x="-30873" stroke="none" font-size="433.3333" font-family="sans-serif">O</text><text y="-24905" xml:space="preserve" x="-29059" stroke="none" font-size="433.3333" font-family="sans-serif">O</text><text y="-29801" xml:space="preserve" x="-31933" stroke="none" font-size="433.3333" font-family="sans-serif">N</text><text y="-26476" xml:space="preserve" x="-29966" stroke="none" font-size="433.3333" font-family="sans-serif">N</text></g></g></svg>