<svg width="128.82" viewBox="0 0 4294 3960" text-rendering="auto" stroke-width="1" stroke-opacity="1" stroke-miterlimit="10" stroke-linejoin="miter" stroke-linecap="square" stroke-dashoffset="0" stroke-dasharray="none" stroke="black" shape-rendering="auto" image-rendering="auto" height="118.8" font-weight="normal" font-style="normal" font-size="12" font-family="'Dialog'" fill-opacity="1" fill="black" color-rendering="auto" color-interpolation="auto" xmlns="http://www.w3.org/2000/svg"><g><g stroke="white" fill="white"><rect y="0" x="0" width="4294" stroke="none" height="3960"/></g><g transform="translate(32866,32866)" text-rendering="geometricPrecision" stroke-width="44" stroke-linejoin="round" stroke-linecap="round"><line y2="-31777" y1="-30633" x2="-31731" x1="-31731" fill="none"/><line y2="-31205" y1="-30633" x2="-30749" x1="-31731" fill="none"/><line y2="-30633" y1="-30058" x2="-31731" x1="-30749" fill="none"/><line y2="-32352" y1="-31777" x2="-30749" x1="-31731" fill="none"/><line y2="-32352" y1="-31205" x2="-30749" x1="-30749" fill="none"/><line y2="-30058" y1="-30633" x2="-30749" x1="-29767" fill="none"/><line y2="-30278" y1="-30708" x2="-30714" x1="-29975" fill="none"/><line y2="-31777" y1="-32352" x2="-29767" x1="-30749" fill="none"/><line y2="-30633" y1="-31777" x2="-29767" x1="-29767" fill="none"/><line y2="-32762" y1="-31777" x2="-32089" x1="-31731" fill="none"/><line y2="-31595" y1="-31777" x2="-32762" x1="-31731" fill="none"/><line y2="-29010" y1="-30058" x2="-30749" x1="-30749" fill="none"/><line y2="-32254" y1="-31838" x2="-29082" x1="-29801" fill="none"/><line y2="-32133" y1="-31717" x2="-29013" x1="-29732" fill="none"/><text y="-32124" xml:space="preserve" x="-29013" stroke="none" font-size="433.3333" font-family="sans-serif">O</text></g></g></svg>