<svg width="335.79" viewBox="0 0 11193 3988" text-rendering="auto" stroke-width="1" stroke-opacity="1" stroke-miterlimit="10" stroke-linejoin="miter" stroke-linecap="square" stroke-dashoffset="0" stroke-dasharray="none" stroke="black" shape-rendering="auto" image-rendering="auto" height="119.64" font-weight="normal" font-style="normal" font-size="12" font-family="'Dialog'" fill-opacity="1" fill="black" color-rendering="auto" color-interpolation="auto" xmlns="http://www.w3.org/2000/svg"><g><g stroke="white" fill="white"><rect y="0" x="0" width="11193" stroke="none" height="3988"/></g><g transform="translate(32866,32758)" text-rendering="geometricPrecision" stroke-width="44" stroke-linejoin="round" stroke-linecap="round"><line y2="-31855" y1="-32422" x2="-28828" x1="-29810" fill="none"/><line y2="-31777" y1="-32205" x2="-29036" x1="-29772" fill="none"/><line y2="-30717" y1="-31855" x2="-28828" x1="-28828" fill="none"/><line y2="-32422" y1="-31855" x2="-29810" x1="-30798" fill="none"/><line y2="-30148" y1="-30717" x2="-29810" x1="-28828" fill="none"/><line y2="-30365" y1="-30792" x2="-29772" x1="-29036" fill="none"/><line y2="-31855" y1="-30717" x2="-30798" x1="-30798" fill="none"/><line y2="-31711" y1="-30859" x2="-30628" x1="-30628" fill="none"/><line y2="-30717" y1="-30148" x2="-30798" x1="-29810" fill="none"/><line y2="-32268" y1="-31855" x2="-28108" x1="-28828" fill="none"/><line y2="-31855" y1="-32268" x2="-27014" x1="-27733" fill="none"/><line y2="-30301" y1="-30717" x2="-31517" x1="-30798" fill="none"/><line y2="-32268" y1="-31855" x2="-26294" x1="-27014" fill="none"/><line y2="-31855" y1="-32268" x2="-25199" x1="-25916" fill="none"/><line y2="-32378" y1="-31855" x2="-24292" x1="-25199" fill="none"/><line y2="-32049" y1="-32378" x2="-23723" x1="-24292" fill="none"/><line y2="-31026" y1="-31855" x2="-26941" x1="-26941" fill="none"/><line y2="-31026" y1="-31855" x2="-27083" x1="-27083" fill="none"/><line y2="-29365" y1="-29975" x2="-31636" x1="-31636" fill="none"/><line y2="-29365" y1="-29975" x2="-31774" x1="-31774" fill="none"/><line y2="-30547" y1="-30240" x2="-32459" x1="-31928" fill="none"/><line y2="-30668" y1="-30362" x2="-32390" x1="-31858" fill="none"/><line y2="-32315" y1="-32052" x2="-22588" x1="-23041" fill="none"/><line y2="-30524" y1="-31636" x2="-23385" x1="-23385" fill="none"/><line y2="-31393" y1="-31656" x2="-22588" x1="-23041" fill="none"/><text y="-32199" xml:space="preserve" x="-28071" stroke="none" font-size="433.3333" font-family="sans-serif">O</text><text y="-32199" xml:space="preserve" x="-26257" stroke="none" font-size="433.3333" font-family="sans-serif">O</text><text y="-30628" xml:space="preserve" x="-27164" stroke="none" font-size="433.3333" font-family="sans-serif">O</text><text y="-31676" xml:space="preserve" x="-23616" stroke="none" font-size="433.3333" font-family="sans-serif">Si</text><text y="-32242" xml:space="preserve" x="-22553" stroke="none" font-size="433.3333" font-family="sans-serif">CH</text><text y="-32153" xml:space="preserve" x="-21975" stroke="none" font-size="313.3333" font-family="sans-serif">3</text><text y="-30125" xml:space="preserve" x="-23535" stroke="none" font-size="433.3333" font-family="sans-serif">CH</text><text y="-30035" xml:space="preserve" x="-22958" stroke="none" font-size="313.3333" font-family="sans-serif">3</text><text y="-31107" xml:space="preserve" x="-22553" stroke="none" font-size="433.3333" font-family="sans-serif">CH</text><text y="-31018" xml:space="preserve" x="-21975" stroke="none" font-size="313.3333" font-family="sans-serif">3</text><text y="-30012" xml:space="preserve" x="-31855" stroke="none" font-size="433.3333" font-family="sans-serif">N</text><text y="-28966" xml:space="preserve" x="-31855" stroke="none" font-size="433.3333" font-family="sans-serif">O</text><text y="-30538" xml:space="preserve" x="-32762" stroke="none" font-size="433.3333" font-family="sans-serif">O</text></g></g></svg>