<svg width="354.63" viewBox="0 0 11821 5458" text-rendering="auto" stroke-width="1" stroke-opacity="1" stroke-miterlimit="10" stroke-linejoin="miter" stroke-linecap="square" stroke-dashoffset="0" stroke-dasharray="none" stroke="black" shape-rendering="auto" image-rendering="auto" height="163.74" font-weight="normal" font-style="normal" font-size="12" font-family="'Dialog'" fill-opacity="1" fill="black" color-rendering="auto" color-interpolation="auto" xmlns="http://www.w3.org/2000/svg"><g><g stroke="white" fill="white"><rect y="0" x="0" width="11821" stroke="none" height="5458"/></g><g transform="translate(32866,32758)" text-rendering="geometricPrecision" stroke-width="44" stroke-linejoin="round" stroke-linecap="round"><line y2="-28010" y1="-29226" x2="-28550" x1="-28550" fill="none"/><line y2="-28163" y1="-29073" x2="-28721" x1="-28721" fill="none"/><line y2="-29226" y1="-29614" x2="-28550" x1="-29221" fill="none"/><line y2="-28010" y1="-28010" x2="-30656" x1="-28550" fill="none"/><line y2="-29723" y1="-29226" x2="-29790" x1="-30656" fill="none"/><line y2="-29226" y1="-28010" x2="-30656" x1="-30656" fill="none"/><line y2="-27404" y1="-28010" x2="-31708" x1="-30656" fill="none"/><line y2="-27626" y1="-28082" x2="-31662" x1="-30873" fill="none"/><line y2="-29226" y1="-29833" x2="-30656" x1="-31708" fill="none"/><line y2="-29154" y1="-29611" x2="-30873" x1="-31662" fill="none"/><line y2="-28010" y1="-27404" x2="-32762" x1="-31708" fill="none"/><line y2="-29833" y1="-29226" x2="-31708" x1="-32762" fill="none"/><line y2="-29226" y1="-28010" x2="-32762" x1="-32762" fill="none"/><line y2="-29073" y1="-28163" x2="-32592" x1="-32592" fill="none"/><line y2="-29749" y1="-29226" x2="-27643" x1="-28550" fill="none"/><line y2="-29749" y1="-29198" x2="-27643" x1="-26933" fill="none"/><line y2="-29816" y1="-29403" x2="-27453" x1="-26918" fill="none"/><line y2="-30812" y1="-29749" x2="-27276" x1="-27643" fill="none"/><line y2="-29192" y1="-29749" x2="-26557" x1="-25803" fill="none"/><line y2="-30812" y1="-30812" x2="-26130" x1="-27276" fill="none"/><line y2="-30642" y1="-30642" x2="-26274" x1="-27132" fill="none"/><line y2="-29749" y1="-30812" x2="-25803" x1="-26130" fill="none"/><line y2="-29226" y1="-29749" x2="-24896" x1="-25803" fill="none"/><line y2="-29172" y1="-29564" x2="-25078" x1="-25760" fill="none"/><line y2="-29749" y1="-29226" x2="-23989" x1="-24896" fill="none"/><line y2="-31228" y1="-30812" x2="-25413" x1="-26130" fill="none"/><line y2="-32202" y1="-31555" x2="-25222" x1="-25222" fill="none"/><line y2="-30812" y1="-29749" x2="-23619" x1="-23989" fill="none"/><line y2="-30625" y1="-29827" x2="-23504" x1="-23781" fill="none"/><line y2="-29749" y1="-29198" x2="-23989" x1="-23275" fill="none"/><line y2="-30812" y1="-30812" x2="-22472" x1="-23619" fill="none"/><line y2="-29273" y1="-29749" x2="-22790" x1="-22146" fill="none"/><line y2="-29749" y1="-30812" x2="-22146" x1="-22472" fill="none"/><line y2="-29833" y1="-30630" x2="-22351" x1="-22596" fill="none"/><line y2="-31670" y1="-30812" x2="-24220" x1="-23619" fill="none"/><line y2="-29426" y1="-29749" x2="-21149" x1="-22146" fill="none"/><text y="-31156" xml:space="preserve" x="-25376" stroke="none" font-size="433.3333" font-family="sans-serif">O</text><text y="-32242" xml:space="preserve" x="-25376" stroke="none" font-size="433.3333" font-family="sans-serif">CH</text><text y="-32153" xml:space="preserve" x="-24798" stroke="none" font-size="313.3333" font-family="sans-serif">3</text><text y="-28874" xml:space="preserve" x="-26898" stroke="none" font-size="433.3333" font-family="sans-serif">N</text><text y="-29654" xml:space="preserve" x="-29752" stroke="none" font-size="433.3333" font-family="sans-serif">NH</text><text y="-28874" xml:space="preserve" x="-23241" stroke="none" font-size="433.3333" font-family="sans-serif">NH</text></g></g></svg>