<svg width="181.98" viewBox="0 0 6066 3737" text-rendering="auto" stroke-width="1" stroke-opacity="1" stroke-miterlimit="10" stroke-linejoin="miter" stroke-linecap="square" stroke-dashoffset="0" stroke-dasharray="none" stroke="black" shape-rendering="auto" image-rendering="auto" height="112.11" font-weight="normal" font-style="normal" font-size="12" font-family="'Dialog'" fill-opacity="1" fill="black" color-rendering="auto" color-interpolation="auto" xmlns="http://www.w3.org/2000/svg"><g><g stroke="white" fill="white"><rect y="0" x="0" width="6066" stroke="none" height="3737"/></g><g transform="translate(32866,32866)" text-rendering="geometricPrecision" stroke-width="44" stroke-linejoin="round" stroke-linecap="round"><line y2="-31174" y1="-31743" x2="-29654" x1="-30636" fill="none"/><line y2="-31098" y1="-31526" x2="-29862" x1="-30599" fill="none"/><line y2="-30038" y1="-31174" x2="-29654" x1="-29654" fill="none"/><line y2="-31743" y1="-31174" x2="-30636" x1="-31624" fill="none"/><line y2="-29469" y1="-30038" x2="-30636" x1="-29654" fill="none"/><line y2="-29686" y1="-30113" x2="-30599" x1="-29862" fill="none"/><line y2="-31174" y1="-30038" x2="-31624" x1="-31624" fill="none"/><line y2="-31032" y1="-30180" x2="-31454" x1="-31454" fill="none"/><line y2="-30038" y1="-29469" x2="-31624" x1="-30636" fill="none"/><line y2="-31699" y1="-31174" x2="-28747" x1="-29654" fill="none"/><line y2="-29712" y1="-30038" x2="-32190" x1="-31624" fill="none"/><line y2="-32762" y1="-31699" x2="-28377" x1="-28747" fill="none"/><line y2="-31699" y1="-31003" x2="-28747" x1="-27846" fill="none"/><line y2="-32762" y1="-32762" x2="-27233" x1="-28377" fill="none"/><line y2="-31003" y1="-31699" x2="-27846" x1="-26904" fill="none"/><line y2="-31699" y1="-32762" x2="-26904" x1="-27233" fill="none"/><line y2="-30027" y1="-31699" x2="-28747" x1="-28747" fill="none"/><line y2="-29723" y1="-30027" x2="-29273" x1="-28747" fill="none"/><line y2="-29674" y1="-30087" x2="-27993" x1="-28712" fill="none"/><line y2="-29550" y1="-29966" x2="-28062" x1="-28782" fill="none"/><text y="-29325" xml:space="preserve" x="-29804" stroke="none" font-size="433.3333" font-family="sans-serif">OH</text><text y="-29325" xml:space="preserve" x="-27990" stroke="none" font-size="433.3333" font-family="sans-serif">O</text><text y="-29333" xml:space="preserve" x="-32762" stroke="none" font-size="433.3333" font-family="sans-serif">Cl</text></g></g></svg>