<svg width="298.02" viewBox="0 0 9934 6649" text-rendering="auto" stroke-width="1" stroke-opacity="1" stroke-miterlimit="10" stroke-linejoin="miter" stroke-linecap="square" stroke-dashoffset="0" stroke-dasharray="none" stroke="black" shape-rendering="auto" image-rendering="auto" height="199.47" font-weight="normal" font-style="normal" font-size="12" font-family="'Dialog'" fill-opacity="1" fill="black" color-rendering="auto" color-interpolation="auto" xmlns="http://www.w3.org/2000/svg"><g><g stroke="white" fill="white"><rect y="0" x="0" width="9934" stroke="none" height="6649"/></g><g transform="translate(32866,32758)" text-rendering="geometricPrecision" stroke-width="44" stroke-linejoin="round" stroke-linecap="round"><line y2="-28166" y1="-29302" x2="-28819" x1="-28819" fill="none"/><line y2="-29871" y1="-29302" x2="-27831" x1="-28819" fill="none"/><line y2="-29654" y1="-29226" x2="-27872" x1="-28611" fill="none"/><line y2="-29302" y1="-29871" x2="-28819" x1="-29804" fill="none"/><line y2="-27597" y1="-28166" x2="-29804" x1="-28819" fill="none"/><line y2="-28166" y1="-27597" x2="-28819" x1="-27831" fill="none"/><line y2="-28241" y1="-27814" x2="-28611" x1="-27872" fill="none"/><line y2="-29302" y1="-29871" x2="-26849" x1="-27831" fill="none"/><line y2="-29871" y1="-29302" x2="-29804" x1="-30789" fill="none"/><line y2="-28166" y1="-27597" x2="-30789" x1="-29804" fill="none"/><line y2="-27597" y1="-28166" x2="-27831" x1="-26849" fill="none"/><line y2="-28166" y1="-29302" x2="-26849" x1="-26849" fill="none"/><line y2="-28308" y1="-29160" x2="-27019" x1="-27019" fill="none"/><line y2="-28166" y1="-29302" x2="-30789" x1="-30789" fill="none"/><line y2="-29302" y1="-29871" x2="-30789" x1="-31774" fill="none"/><line y2="-29226" y1="-29654" x2="-30997" x1="-31737" fill="none"/><line y2="-27597" y1="-28166" x2="-31774" x1="-30789" fill="none"/><line y2="-27814" y1="-28241" x2="-31737" x1="-30997" fill="none"/><line y2="-29871" y1="-29302" x2="-31774" x1="-32762" fill="none"/><line y2="-28166" y1="-27597" x2="-32762" x1="-31774" fill="none"/><line y2="-29302" y1="-28166" x2="-32762" x1="-32762" fill="none"/><line y2="-29160" y1="-28308" x2="-32592" x1="-32592" fill="none"/><line y2="-30700" y1="-29871" x2="-27831" x1="-27831" fill="none"/><line y2="-31408" y1="-31139" x2="-26988" x1="-27453" fill="none"/><line y2="-27750" y1="-28166" x2="-26130" x1="-26849" fill="none"/><line y2="-28056" y1="-27750" x2="-25222" x1="-25754" fill="none"/><line y2="-26768" y1="-27597" x2="-27831" x1="-27831" fill="none"/><line y2="-30700" y1="-29871" x2="-29874" x1="-29874" fill="none"/><line y2="-30700" y1="-29871" x2="-29735" x1="-29735" fill="none"/><line y2="-26768" y1="-27597" x2="-29735" x1="-29735" fill="none"/><line y2="-26768" y1="-27597" x2="-29874" x1="-29874" fill="none"/><line y2="-30974" y1="-31402" x2="-25901" x1="-26612" fill="none"/><line y2="-32240" y1="-31769" x2="-26465" x1="-26733" fill="none"/><line y2="-32167" y1="-31699" x2="-26343" x1="-26612" fill="none"/><line y2="-32167" y1="-31699" x2="-27256" x1="-26988" fill="none"/><line y2="-32240" y1="-31769" x2="-27135" x1="-26866" fill="none"/><line y2="-30974" y1="-29839" x2="-25901" x1="-25901" fill="none"/><line y2="-30833" y1="-29980" x2="-25731" x1="-25731" fill="none"/><line y2="-31543" y1="-30974" x2="-24919" x1="-25901" fill="none"/><line y2="-29839" y1="-29270" x2="-25901" x1="-24919" fill="none"/><line y2="-30974" y1="-31543" x2="-23931" x1="-24919" fill="none"/><line y2="-30899" y1="-31327" x2="-24142" x1="-24882" fill="none"/><line y2="-29270" y1="-29839" x2="-24919" x1="-23931" fill="none"/><line y2="-29486" y1="-29914" x2="-24882" x1="-24142" fill="none"/><line y2="-29839" y1="-30974" x2="-23931" x1="-23931" fill="none"/><line y2="-29299" y1="-29839" x2="-23036" x1="-23931" fill="none"/><text y="-30740" xml:space="preserve" x="-27984" stroke="none" font-size="433.3333" font-family="sans-serif">NH</text><text y="-31335" xml:space="preserve" x="-26953" stroke="none" font-size="433.3333" font-family="sans-serif">S</text><text y="-32242" xml:space="preserve" x="-26427" stroke="none" font-size="433.3333" font-family="sans-serif">O</text><text y="-32242" xml:space="preserve" x="-27476" stroke="none" font-size="433.3333" font-family="sans-serif">O</text><text y="-30740" xml:space="preserve" x="-29954" stroke="none" font-size="433.3333" font-family="sans-serif">O</text><text y="-26369" xml:space="preserve" x="-29954" stroke="none" font-size="433.3333" font-family="sans-serif">O</text><text y="-26369" xml:space="preserve" x="-27984" stroke="none" font-size="433.3333" font-family="sans-serif">NH</text><text y="-26280" xml:space="preserve" x="-27406" stroke="none" font-size="313.3333" font-family="sans-serif">2</text><text y="-27461" xml:space="preserve" x="-26095" stroke="none" font-size="433.3333" font-family="sans-serif">O</text><text y="-27987" xml:space="preserve" x="-25188" stroke="none" font-size="433.3333" font-family="sans-serif">CH</text><text y="-27898" xml:space="preserve" x="-24610" stroke="none" font-size="313.3333" font-family="sans-serif">3</text></g></g></svg>