<svg width="562.29" viewBox="0 0 18743 3265" text-rendering="auto" stroke-width="1" stroke-opacity="1" stroke-miterlimit="10" stroke-linejoin="miter" stroke-linecap="square" stroke-dashoffset="0" stroke-dasharray="none" stroke="black" shape-rendering="auto" image-rendering="auto" height="97.95" font-weight="normal" font-style="normal" font-size="12" font-family="'Dialog'" fill-opacity="1" fill="black" color-rendering="auto" color-interpolation="auto" xmlns="http://www.w3.org/2000/svg"><g><g stroke="white" fill="white"><rect y="0" x="0" width="18743" stroke="none" height="3265"/></g><g transform="translate(32866,32758)" text-rendering="geometricPrecision" stroke-width="44" stroke-linejoin="round" stroke-linecap="round"><line y2="-31439" y1="-31439" x2="-25352" x1="-24208" fill="none"/><line y2="-31439" y1="-32202" x2="-24208" x1="-24653" fill="none"/><line y2="-32202" y1="-31439" x2="-24908" x1="-25352" fill="none"/><line y2="-30916" y1="-31439" x2="-23301" x1="-24208" fill="none"/><line y2="-31439" y1="-30916" x2="-22394" x1="-23301" fill="none"/><line y2="-30916" y1="-31439" x2="-21487" x1="-22394" fill="none"/><line y2="-30862" y1="-31254" x2="-21669" x1="-22348" fill="none"/><line y2="-31439" y1="-30916" x2="-20580" x1="-21487" fill="none"/><line y2="-30916" y1="-31439" x2="-19670" x1="-20580" fill="none"/><line y2="-31439" y1="-30916" x2="-18763" x1="-19670" fill="none"/><line y2="-31254" y1="-30862" x2="-18809" x1="-19488" fill="none"/><line y2="-30916" y1="-31439" x2="-17856" x1="-18763" fill="none"/><line y2="-31439" y1="-30916" x2="-16949" x1="-17856" fill="none"/><line y2="-30916" y1="-31439" x2="-16042" x1="-16949" fill="none"/><line y2="-31439" y1="-30916" x2="-15134" x1="-16042" fill="none"/><line y2="-30916" y1="-31439" x2="-14227" x1="-15134" fill="none"/><line y2="-30916" y1="-31439" x2="-26260" x1="-25352" fill="none"/><line y2="-31439" y1="-30916" x2="-27167" x1="-26260" fill="none"/><line y2="-30916" y1="-31439" x2="-28077" x1="-27167" fill="none"/><line y2="-30862" y1="-31254" x2="-27892" x1="-27213" fill="none"/><line y2="-31439" y1="-30916" x2="-28984" x1="-28077" fill="none"/><line y2="-30916" y1="-31439" x2="-29891" x1="-28984" fill="none"/><line y2="-31439" y1="-30916" x2="-30798" x1="-29891" fill="none"/><line y2="-30916" y1="-31439" x2="-31705" x1="-30798" fill="none"/><line y2="-31220" y1="-30916" x2="-32231" x1="-31705" fill="none"/><line y2="-30087" y1="-30916" x2="-31633" x1="-31633" fill="none"/><line y2="-30087" y1="-30916" x2="-31774" x1="-31774" fill="none"/><text y="-31260" xml:space="preserve" x="-32762" stroke="none" font-size="433.3333" font-family="sans-serif">OH</text><text y="-29689" xml:space="preserve" x="-31855" stroke="none" font-size="433.3333" font-family="sans-serif">O</text><text y="-32242" xml:space="preserve" x="-24934" stroke="none" font-size="433.3333" font-family="sans-serif">O</text></g></g></svg>