<svg width="243.48" viewBox="0 0 8116 2714" text-rendering="auto" stroke-width="1" stroke-opacity="1" stroke-miterlimit="10" stroke-linejoin="miter" stroke-linecap="square" stroke-dashoffset="0" stroke-dasharray="none" stroke="black" shape-rendering="auto" image-rendering="auto" height="81.42" font-weight="normal" font-style="normal" font-size="12" font-family="'Dialog'" fill-opacity="1" fill="black" color-rendering="auto" color-interpolation="auto" xmlns="http://www.w3.org/2000/svg"><g><g stroke="white" fill="white"><rect y="0" x="0" width="8116" stroke="none" height="2714"/></g><g transform="translate(32866,32758)" text-rendering="geometricPrecision" stroke-width="44" stroke-linejoin="round" stroke-linecap="round"><line y2="-30717" y1="-31855" x2="-27011" x1="-27011" fill="none"/><line y2="-31855" y1="-32422" x2="-27011" x1="-27993" fill="none"/><line y2="-31777" y1="-32205" x2="-27219" x1="-27955" fill="none"/><line y2="-32315" y1="-31855" x2="-26210" x1="-27011" fill="none"/><line y2="-30148" y1="-30717" x2="-27993" x1="-27011" fill="none"/><line y2="-30365" y1="-30792" x2="-27955" x1="-27219" fill="none"/><line y2="-30717" y1="-30717" x2="-27011" x1="-25228" fill="none"/><line y2="-32422" y1="-31855" x2="-27993" x1="-28981" fill="none"/><line y2="-31855" y1="-32315" x2="-25040" x1="-25835" fill="none"/><line y2="-30717" y1="-30148" x2="-28981" x1="-27993" fill="none"/><line y2="-30937" y1="-31855" x2="-25040" x1="-25040" fill="none"/><line y2="-31855" y1="-30717" x2="-28981" x1="-28981" fill="none"/><line y2="-31711" y1="-30859" x2="-28810" x1="-28810" fill="none"/><line y2="-32159" y1="-31855" x2="-29510" x1="-28981" fill="none"/><line y2="-31855" y1="-32268" x2="-30795" x1="-30076" fill="none"/><line y2="-32378" y1="-31855" x2="-31702" x1="-30795" fill="none"/><line y2="-32072" y1="-32378" x2="-32231" x1="-31702" fill="none"/><text y="-32199" xml:space="preserve" x="-30041" stroke="none" font-size="433.3333" font-family="sans-serif">NH</text><text y="-31676" xml:space="preserve" x="-32762" stroke="none" font-size="433.3333" font-family="sans-serif">OH</text><text y="-32242" xml:space="preserve" x="-26176" stroke="none" font-size="433.3333" font-family="sans-serif">O</text><text y="-30538" xml:space="preserve" x="-25191" stroke="none" font-size="433.3333" font-family="sans-serif">O</text></g></g></svg>