<svg width="261.03" viewBox="0 0 8701 5865" text-rendering="auto" stroke-width="1" stroke-opacity="1" stroke-miterlimit="10" stroke-linejoin="miter" stroke-linecap="square" stroke-dashoffset="0" stroke-dasharray="none" stroke="black" shape-rendering="auto" image-rendering="auto" height="175.95" font-weight="normal" font-style="normal" font-size="12" font-family="'Dialog'" fill-opacity="1" fill="black" color-rendering="auto" color-interpolation="auto" xmlns="http://www.w3.org/2000/svg"><g><g stroke="white" fill="white"><rect y="0" x="0" width="8701" stroke="none" height="5865"/></g><g transform="translate(32866,32758)" text-rendering="geometricPrecision" stroke-width="44" stroke-linejoin="round" stroke-linecap="round"><line y2="-28839" y1="-29986" x2="-28834" x1="-28834" fill="none"/><line y2="-29986" y1="-30448" x2="-28834" x1="-29628" fill="none"/><line y2="-29897" y1="-30243" x2="-29018" x1="-29614" fill="none"/><line y2="-28267" y1="-28839" x2="-29816" x1="-28834" fill="none"/><line y2="-28487" y1="-28914" x2="-29778" x1="-29042" fill="none"/><line y2="-30448" y1="-29986" x2="-30004" x1="-30798" fill="none"/><line y2="-28839" y1="-28267" x2="-30798" x1="-29816" fill="none"/><line y2="-28839" y1="-29986" x2="-30798" x1="-30798" fill="none"/><line y2="-28984" y1="-29845" x2="-30968" x1="-30968" fill="none"/><line y2="-29986" y1="-30561" x2="-30798" x1="-31780" fill="none"/><line y2="-28267" y1="-28839" x2="-31780" x1="-30798" fill="none"/><line y2="-30561" y1="-29986" x2="-31780" x1="-32762" fill="none"/><line y2="-30342" y1="-29911" x2="-31818" x1="-32554" fill="none"/><line y2="-28839" y1="-28267" x2="-32762" x1="-31780" fill="none"/><line y2="-28914" y1="-28487" x2="-32554" x1="-31818" fill="none"/><line y2="-29986" y1="-28839" x2="-32762" x1="-32762" fill="none"/><line y2="-30512" y1="-29986" x2="-27926" x1="-28834" fill="none"/><line y2="-28316" y1="-28839" x2="-27926" x1="-28834" fill="none"/><line y2="-30512" y1="-29960" x2="-27926" x1="-27213" fill="none"/><line y2="-31356" y1="-30512" x2="-27635" x1="-27926" fill="none"/><line y2="-31194" y1="-30561" x2="-27510" x1="-27727" fill="none"/><line y2="-30035" y1="-30512" x2="-26728" x1="-26083" fill="none"/><line y2="-31575" y1="-31575" x2="-26413" x1="-27369" fill="none"/><line y2="-30512" y1="-31575" x2="-26083" x1="-26413" fill="none"/><line y2="-29986" y1="-30512" x2="-25176" x1="-26083" fill="none"/><line y2="-29463" y1="-30512" x2="-26083" x1="-26083" fill="none"/><line y2="-32245" y1="-31616" x2="-26011" x1="-26468" fill="none"/><line y2="-32162" y1="-31535" x2="-25898" x1="-26355" fill="none"/><line y2="-28732" y1="-28316" x2="-27207" x1="-27926" fill="none"/><line y2="-27487" y1="-28316" x2="-27857" x1="-27857" fill="none"/><line y2="-27487" y1="-28316" x2="-27996" x1="-27996" fill="none"/><line y2="-30512" y1="-29986" x2="-24269" x1="-25176" fill="none"/><line y2="-28938" y1="-29986" x2="-25176" x1="-25176" fill="none"/><text y="-28660" xml:space="preserve" x="-27170" stroke="none" font-size="433.3333" font-family="sans-serif">OH</text><text y="-27089" xml:space="preserve" x="-28077" stroke="none" font-size="433.3333" font-family="sans-serif">O</text><text y="-32242" xml:space="preserve" x="-25948" stroke="none" font-size="433.3333" font-family="sans-serif">O</text><text y="-30382" xml:space="preserve" x="-29969" stroke="none" font-size="433.3333" font-family="sans-serif">N</text><text y="-29637" xml:space="preserve" x="-27178" stroke="none" font-size="433.3333" font-family="sans-serif">NH</text><text y="-31396" xml:space="preserve" x="-27710" stroke="none" font-size="433.3333" font-family="sans-serif">N</text></g></g></svg>