<svg width="762.99" viewBox="0 0 25433 8542" text-rendering="auto" stroke-width="1" stroke-opacity="1" stroke-miterlimit="10" stroke-linejoin="miter" stroke-linecap="square" stroke-dashoffset="0" stroke-dasharray="none" stroke="black" shape-rendering="auto" image-rendering="auto" height="256.26" font-weight="normal" font-style="normal" font-size="12" font-family="'Dialog'" fill-opacity="1" fill="black" color-rendering="auto" color-interpolation="auto" xmlns="http://www.w3.org/2000/svg"><g><g stroke="white" fill="white"><rect y="0" x="0" width="25433" stroke="none" height="8542"/></g><g transform="translate(32866,32866)" text-rendering="geometricPrecision" stroke-width="44" stroke-linejoin="round" stroke-linecap="round"><line y2="-26655" y1="-28470" x2="-18376" x1="-18376" fill="none"/><line y2="-28470" y1="-29267" x2="-18376" x1="-19760" fill="none"/><line y2="-25745" y1="-26655" x2="-19947" x1="-18376" fill="none"/><line y2="-29267" y1="-28470" x2="-20135" x1="-21525" fill="none"/><line y2="-26655" y1="-25745" x2="-21525" x1="-19947" fill="none"/><line y2="-26687" y1="-26008" x2="-21242" x1="-20060" fill="none"/><line y2="-28470" y1="-29377" x2="-21525" x1="-23093" fill="none"/><line y2="-25745" y1="-26655" x2="-23093" x1="-21525" fill="none"/><line y2="-29377" y1="-28470" x2="-23093" x1="-24665" fill="none"/><line y2="-29114" y1="-28435" x2="-23206" x1="-24385" fill="none"/><line y2="-26655" y1="-25745" x2="-24665" x1="-23093" fill="none"/><line y2="-26687" y1="-26008" x2="-24385" x1="-23206" fill="none"/><line y2="-28470" y1="-29377" x2="-24665" x1="-26236" fill="none"/><line y2="-25745" y1="-26655" x2="-26236" x1="-24665" fill="none"/><line y2="-29377" y1="-28470" x2="-26236" x1="-27808" fill="none"/><line y2="-29114" y1="-28435" x2="-26346" x1="-27525" fill="none"/><line y2="-26655" y1="-25745" x2="-27808" x1="-26236" fill="none"/><line y2="-28470" y1="-29377" x2="-27808" x1="-29377" fill="none"/><line y2="-25745" y1="-26655" x2="-29377" x1="-27808" fill="none"/><line y2="-29377" y1="-28470" x2="-29377" x1="-30948" fill="none"/><line y2="-26655" y1="-25745" x2="-30948" x1="-29377" fill="none"/><line y2="-28470" y1="-26655" x2="-30948" x1="-30948" fill="none"/><line y2="-27961" y1="-28470" x2="-17460" x1="-18376" fill="none"/><line y2="-26655" y1="-26130" x2="-32762" x1="-31855" fill="none"/><line y2="-25607" y1="-26655" x2="-24665" x1="-24665" fill="none"/><line y2="-30422" y1="-29377" x2="-26236" x1="-26236" fill="none"/><line y2="-26546" y1="-26239" x2="-16749" x1="-17281" fill="none"/><line y2="-30203" y1="-29377" x2="-23093" x1="-23093" fill="none"/><line y2="-30838" y1="-30532" x2="-22374" x1="-22906" fill="none"/><line y2="-29296" y1="-28510" x2="-21594" x1="-21594" fill="none"/><line y2="-29296" y1="-28510" x2="-21452" x1="-21452" fill="none"/><line y2="-28470" y1="-27961" x2="-16544" x1="-17460" fill="none"/><line y2="-27944" y1="-28470" x2="-15637" x1="-16544" fill="none"/><line y2="-28452" y1="-27944" x2="-14721" x1="-15637" fill="none"/><line y2="-28452" y1="-27883" x2="-14721" x1="-13736" fill="none"/><line y2="-29371" y1="-28452" x2="-14721" x1="-14721" fill="none"/><line y2="-27883" y1="-28452" x2="-13736" x1="-12751" fill="none"/><line y2="-30160" y1="-29700" x2="-13736" x1="-14531" fill="none"/><line y2="-28452" y1="-29590" x2="-12751" x1="-12751" fill="none"/><line y2="-29590" y1="-30160" x2="-12751" x1="-13736" fill="none"/><line y2="-28438" y1="-28033" x2="-10925" x1="-11653" fill="none"/><line y2="-28438" y1="-27869" x2="-10925" x1="-9943" fill="none"/><line y2="-29356" y1="-28438" x2="-10925" x1="-10925" fill="none"/><line y2="-27869" y1="-28438" x2="-9943" x1="-8955" fill="none"/><line y2="-30145" y1="-29683" x2="-9943" x1="-10738" fill="none"/><line y2="-28438" y1="-29576" x2="-8955" x1="-8955" fill="none"/><line y2="-29576" y1="-30145" x2="-8955" x1="-9943" fill="none"/><line y2="-31714" y1="-31208" x2="-12820" x1="-13736" fill="none"/><line y2="-31529" y1="-31148" x2="-12870" x1="-13554" fill="none"/><line y2="-32762" y1="-31714" x2="-12820" x1="-12820" fill="none"/><polygon stroke-width="1" stroke="none" points=" -18376 -26655 -17622 -26297 -17691 -26179"/><polygon stroke-width="1" points=" -18376 -26655 -17622 -26297 -17691 -26179" fill="none"/><polygon stroke-width="1" stroke="none" points=" -18376 -28470 -18038 -29189 -17919 -29122"/><polygon stroke-width="1" points=" -18376 -28470 -18038 -29189 -17919 -29122" fill="none"/><polygon stroke-width="1" stroke="none" points=" -16544 -28470 -16614 -29296 -16475 -29296"/><polygon stroke-width="1" points=" -16544 -28470 -16614 -29296 -16475 -29296" fill="none"/><polygon stroke-width="1" stroke="none" points=" -15637 -27944 -15568 -26898 -15706 -26895"/><polygon stroke-width="1" points=" -15637 -27944 -15568 -26898 -15706 -26895" fill="none"/><polygon stroke-width="1" stroke="none" points=" -12751 -29590 -11867 -30160 -11801 -30038"/><polygon stroke-width="1" points=" -12751 -29590 -11867 -30160 -11801 -30038" fill="none"/><polygon stroke-width="1" stroke="none" points=" -14721 -28452 -14652 -27626 -14788 -27623"/><polygon stroke-width="1" points=" -14721 -28452 -14652 -27626 -14788 -27623" fill="none"/><polygon stroke-width="1" stroke="none" points=" -8955 -29576 -8262 -30038 -8195 -29917"/><polygon stroke-width="1" points=" -8955 -29576 -8262 -30038 -8195 -29917" fill="none"/><polygon stroke-width="1" stroke="none" points=" -10925 -28438 -10859 -27609 -10995 -27609"/><polygon stroke-width="1" points=" -10925 -28438 -10859 -27609 -10995 -27609" fill="none"/><line y2="-26190" y1="-26069" x2="-31890" x1="-31821" fill="none"/><line y2="-26286" y1="-26190" x2="-31695" x1="-31641" fill="none"/><line y2="-26382" y1="-26311" x2="-31501" x1="-31460" fill="none"/><line y2="-26478" y1="-26432" x2="-31306" x1="-31280" fill="none"/><line y2="-26574" y1="-26553" x2="-31111" x1="-31100" fill="none"/><line y2="-27574" y1="-27574" x2="-27739" x1="-27874" fill="none"/><line y2="-27357" y1="-27357" x2="-27755" x1="-27858" fill="none"/><line y2="-27141" y1="-27141" x2="-27772" x1="-27843" fill="none"/><line y2="-26924" y1="-26924" x2="-27788" x1="-27827" fill="none"/><line y2="-26707" y1="-26707" x2="-27804" x1="-27812" fill="none"/><line y2="-30422" y1="-30422" x2="-29307" x1="-29446" fill="none"/><line y2="-30205" y1="-30205" x2="-29322" x1="-29432" fill="none"/><line y2="-29989" y1="-29989" x2="-29336" x1="-29417" fill="none"/><line y2="-29772" y1="-29772" x2="-29351" x1="-29403" fill="none"/><line y2="-29555" y1="-29555" x2="-29365" x1="-29389" fill="none"/><line y2="-24916" y1="-24919" x2="-29446" x1="-29307" fill="none"/><line y2="-25133" y1="-25135" x2="-29428" x1="-29325" fill="none"/><line y2="-25350" y1="-25352" x2="-29410" x1="-29344" fill="none"/><line y2="-25567" y1="-25568" x2="-29392" x1="-29362" fill="none"/><line y2="-28831" y1="-28712" x2="-31442" x1="-31509" fill="none"/><line y2="-28702" y1="-28626" x2="-31266" x1="-31309" fill="none"/><line y2="-28574" y1="-28539" x2="-31090" x1="-31109" fill="none"/><line y2="-26912" y1="-26912" x2="-17529" x1="-17391" fill="none"/><line y2="-27129" y1="-27129" x2="-17515" x1="-17405" fill="none"/><line y2="-27345" y1="-27345" x2="-17500" x1="-17420" fill="none"/><line y2="-27562" y1="-27562" x2="-17486" x1="-17434" fill="none"/><line y2="-27779" y1="-27779" x2="-17472" x1="-17448" fill="none"/><line y2="-27978" y1="-28097" x2="-12064" x1="-11997" fill="none"/><line y2="-28102" y1="-28190" x2="-12243" x1="-12194" fill="none"/><line y2="-28225" y1="-28282" x2="-12422" x1="-12390" fill="none"/><line y2="-28349" y1="-28375" x2="-12601" x1="-12587" fill="none"/><line y2="-31208" y1="-31205" x2="-13667" x1="-13806" fill="none"/><line y2="-30991" y1="-30989" x2="-13681" x1="-13792" fill="none"/><line y2="-30774" y1="-30772" x2="-13696" x1="-13777" fill="none"/><line y2="-30557" y1="-30556" x2="-13710" x1="-13763" fill="none"/><line y2="-30340" y1="-30340" x2="-13724" x1="-13748" fill="none"/><line y2="-31191" y1="-31191" x2="-9874" x1="-10012" fill="none"/><line y2="-30974" y1="-30974" x2="-9888" x1="-9998" fill="none"/><line y2="-30758" y1="-30758" x2="-9903" x1="-9983" fill="none"/><line y2="-30541" y1="-30541" x2="-9917" x1="-9969" fill="none"/><line y2="-30324" y1="-30324" x2="-9931" x1="-9955" fill="none"/><line y2="-27961" y1="-28082" x2="-8270" x1="-8201" fill="none"/><line y2="-28085" y1="-28175" x2="-8449" x1="-8398" fill="none"/><line y2="-28210" y1="-28268" x2="-8627" x1="-8594" fill="none"/><line y2="-28334" y1="-28360" x2="-8806" x1="-8791" fill="none"/><text y="-29336" xml:space="preserve" x="-16694" stroke="none" font-size="433.3333" font-family="sans-serif">OH</text><text y="-27227" xml:space="preserve" x="-14872" stroke="none" font-size="433.3333" font-family="sans-serif">OH</text><text y="-27750" xml:space="preserve" x="-11994" stroke="none" font-size="433.3333" font-family="sans-serif">O</text><text y="-25950" xml:space="preserve" x="-17622" stroke="none" font-size="433.3333" font-family="sans-serif">O</text><text y="-26476" xml:space="preserve" x="-16715" stroke="none" font-size="433.3333" font-family="sans-serif">CH</text><text y="-26387" xml:space="preserve" x="-16137" stroke="none" font-size="313.3333" font-family="sans-serif">3</text><text y="-27736" xml:space="preserve" x="-8201" stroke="none" font-size="433.3333" font-family="sans-serif">OH</text><text y="-29336" xml:space="preserve" x="-21675" stroke="none" font-size="433.3333" font-family="sans-serif">O</text><text y="-29902" xml:space="preserve" x="-8192" stroke="none" font-size="433.3333" font-family="sans-serif">OH</text><text y="-30243" xml:space="preserve" x="-23246" stroke="none" font-size="433.3333" font-family="sans-serif">O</text><text y="-30769" xml:space="preserve" x="-22339" stroke="none" font-size="433.3333" font-family="sans-serif">CH</text><text y="-30680" xml:space="preserve" x="-21762" stroke="none" font-size="313.3333" font-family="sans-serif">3</text><text y="-24520" xml:space="preserve" x="-29530" stroke="none" font-size="433.3333" font-family="sans-serif">OH</text><text y="-28813" xml:space="preserve" x="-32008" stroke="none" font-size="433.3333" font-family="sans-serif">OH</text><text y="-29411" xml:space="preserve" x="-14872" stroke="none" font-size="433.3333" font-family="sans-serif">O</text><text y="-29397" xml:space="preserve" x="-11078" stroke="none" font-size="433.3333" font-family="sans-serif">O</text><text y="-29198" xml:space="preserve" x="-20098" stroke="none" font-size="433.3333" font-family="sans-serif">O</text><text y="-29198" xml:space="preserve" x="-18003" stroke="none" font-size="433.3333" font-family="sans-serif">H</text><text y="-27210" xml:space="preserve" x="-11078" stroke="none" font-size="433.3333" font-family="sans-serif">H</text><text y="-31670" xml:space="preserve" x="-13647" stroke="none" font-style="italic" font-size="313.3333" font-family="sans-serif">E</text><text y="-26496" xml:space="preserve" x="-20612" stroke="none" font-style="italic" font-size="313.3333" font-family="sans-serif">E</text><text y="-28267" xml:space="preserve" x="-23758" stroke="none" font-style="italic" font-size="313.3333" font-family="sans-serif">Z</text><text y="-26496" xml:space="preserve" x="-23758" stroke="none" font-style="italic" font-size="313.3333" font-family="sans-serif">E</text><text y="-28267" xml:space="preserve" x="-26898" stroke="none" font-style="italic" font-size="313.3333" font-family="sans-serif">E</text><text y="-28068" xml:space="preserve" x="-15787" stroke="none" font-style="italic" font-size="313.3333" font-family="sans-serif">S</text><text y="-27987" xml:space="preserve" x="-16694" stroke="none" font-style="italic" font-size="313.3333" font-family="sans-serif">R</text><text y="-28085" xml:space="preserve" x="-17613" stroke="none" font-style="italic" font-size="313.3333" font-family="sans-serif">S</text><text y="-28418" xml:space="preserve" x="-14623" stroke="none" font-style="italic" font-size="313.3333" font-family="sans-serif">R</text><text y="-28418" xml:space="preserve" x="-13150" stroke="none" font-style="italic" font-size="313.3333" font-family="sans-serif">R</text><text y="-29677" xml:space="preserve" x="-13889" stroke="none" font-style="italic" font-size="313.3333" font-family="sans-serif">R</text><text y="-29267" xml:space="preserve" x="-13150" stroke="none" font-style="italic" font-size="313.3333" font-family="sans-serif">S</text><text y="-28403" xml:space="preserve" x="-10830" stroke="none" font-style="italic" font-size="313.3333" font-family="sans-serif">R</text><text y="-28403" xml:space="preserve" x="-9357" stroke="none" font-style="italic" font-size="313.3333" font-family="sans-serif">R</text><text y="-29663" xml:space="preserve" x="-10096" stroke="none" font-style="italic" font-size="313.3333" font-family="sans-serif">R</text><text y="-29252" xml:space="preserve" x="-9357" stroke="none" font-style="italic" font-size="313.3333" font-family="sans-serif">S</text><text y="-28146" xml:space="preserve" x="-18777" stroke="none" font-style="italic" font-size="313.3333" font-family="sans-serif">R</text><text y="-26618" xml:space="preserve" x="-18777" stroke="none" font-style="italic" font-size="313.3333" font-family="sans-serif">S</text><text y="-26173" xml:space="preserve" x="-27958" stroke="none" font-style="italic" font-size="313.3333" font-family="sans-serif">R</text><text y="-28894" xml:space="preserve" x="-29530" stroke="none" font-style="italic" font-size="313.3333" font-family="sans-serif">R</text><text y="-25870" xml:space="preserve" x="-29530" stroke="none" font-style="italic" font-size="313.3333" font-family="sans-serif">S</text><text y="-28146" xml:space="preserve" x="-30853" stroke="none" font-style="italic" font-size="313.3333" font-family="sans-serif">R</text><text y="-26618" xml:space="preserve" x="-30853" stroke="none" font-style="italic" font-size="313.3333" font-family="sans-serif">S</text></g></g></svg>