<svg width="411.12" viewBox="0 0 13704 6930" text-rendering="auto" stroke-width="1" stroke-opacity="1" stroke-miterlimit="10" stroke-linejoin="miter" stroke-linecap="square" stroke-dashoffset="0" stroke-dasharray="none" stroke="black" shape-rendering="auto" image-rendering="auto" height="207.9" font-weight="normal" font-style="normal" font-size="12" font-family="'Dialog'" fill-opacity="1" fill="black" color-rendering="auto" color-interpolation="auto" xmlns="http://www.w3.org/2000/svg"><g><g stroke="white" fill="white"><rect y="0" x="0" width="13704" stroke="none" height="6930"/></g><g transform="translate(32866,32748)" text-rendering="geometricPrecision" stroke-width="44" stroke-linejoin="round" stroke-linecap="round"><line y2="-28363" y1="-29501" x2="-25428" x1="-25428" fill="none"/><line y2="-29501" y1="-30070" x2="-25428" x1="-26413" fill="none"/><line y2="-30070" y1="-29501" x2="-24442" x1="-25428" fill="none"/><line y2="-28363" y1="-27794" x2="-25428" x1="-24442" fill="none"/><line y2="-28363" y1="-28363" x2="-27401" x1="-25428" fill="none"/><line y2="-30070" y1="-29501" x2="-26413" x1="-27401" fill="none"/><line y2="-29501" y1="-30070" x2="-23457" x1="-24442" fill="none"/><line y2="-27794" y1="-28363" x2="-24442" x1="-23457" fill="none"/><line y2="-29501" y1="-28363" x2="-27401" x1="-27401" fill="none"/><line y2="-28363" y1="-29501" x2="-23457" x1="-23457" fill="none"/><line y2="-30070" y1="-29501" x2="-22472" x1="-23457" fill="none"/><line y2="-29850" y1="-29423" x2="-22510" x1="-23249" fill="none"/><line y2="-28363" y1="-27794" x2="-23457" x1="-22472" fill="none"/><line y2="-28441" y1="-28013" x2="-23249" x1="-22510" fill="none"/><line y2="-29501" y1="-30070" x2="-21487" x1="-22472" fill="none"/><line y2="-27794" y1="-28363" x2="-22472" x1="-21487" fill="none"/><line y2="-28363" y1="-29501" x2="-21487" x1="-21487" fill="none"/><line y2="-28507" y1="-29359" x2="-21658" x1="-21658" fill="none"/><line y2="-32644" y1="-32121" x2="-27320" x1="-26413" fill="none"/><line y2="-32121" y1="-32644" x2="-28227" x1="-27320" fill="none"/><line y2="-26967" y1="-27794" x2="-22472" x1="-22472" fill="none"/><line y2="-26208" y1="-26635" x2="-21574" x1="-22284" fill="none"/><line y2="-26730" y1="-26208" x2="-20667" x1="-21574" fill="none"/><line y2="-32644" y1="-32121" x2="-29134" x1="-28227" fill="none"/><line y2="-32121" y1="-32644" x2="-30041" x1="-29134" fill="none"/><line y2="-32644" y1="-32121" x2="-30948" x1="-30041" fill="none"/><line y2="-32121" y1="-32644" x2="-31855" x1="-30948" fill="none"/><line y2="-32644" y1="-32121" x2="-32762" x1="-31855" fill="none"/><line y2="-26306" y1="-26730" x2="-19959" x1="-20667" fill="none"/><line y2="-27560" y1="-26730" x2="-20736" x1="-20736" fill="none"/><line y2="-27560" y1="-26730" x2="-20597" x1="-20597" fill="none"/><polygon stroke-width="1" stroke="none" points=" -27401 -29501 -27961 -29746 -27892 -29865"/><polygon stroke-width="1" points=" -27401 -29501 -27961 -29746 -27892 -29865" fill="none"/><polygon stroke-width="1" stroke="none" points=" -28227 -32121 -28158 -31292 -28296 -31292"/><polygon stroke-width="1" points=" -28227 -32121 -28158 -31292 -28296 -31292" fill="none"/><line y2="-32121" y1="-32118" x2="-26343" x1="-26482" fill="none"/><line y2="-31904" y1="-31901" x2="-26350" x1="-26475" fill="none"/><line y2="-31687" y1="-31685" x2="-26358" x1="-26467" fill="none"/><line y2="-31471" y1="-31468" x2="-26365" x1="-26460" fill="none"/><line y2="-31254" y1="-31252" x2="-26373" x1="-26453" fill="none"/><line y2="-31037" y1="-31035" x2="-26380" x1="-26446" fill="none"/><line y2="-30820" y1="-30819" x2="-26387" x1="-26438" fill="none"/><line y2="-30603" y1="-30602" x2="-26395" x1="-26431" fill="none"/><line y2="-30386" y1="-30386" x2="-26402" x1="-26424" fill="none"/><line y2="-30170" y1="-30169" x2="-26410" x1="-26416" fill="none"/><line y2="-30330" y1="-30327" x2="-25361" x1="-25497" fill="none"/><line y2="-30113" y1="-30111" x2="-25379" x1="-25479" fill="none"/><line y2="-29896" y1="-29894" x2="-25396" x1="-25461" fill="none"/><line y2="-29679" y1="-29678" x2="-25414" x1="-25443" fill="none"/><line y2="-27534" y1="-27534" x2="-25497" x1="-25361" fill="none"/><line y2="-27751" y1="-27751" x2="-25479" x1="-25379" fill="none"/><line y2="-27967" y1="-27967" x2="-25461" x1="-25396" fill="none"/><line y2="-28184" y1="-28184" x2="-25443" x1="-25414" fill="none"/><text y="-30893" xml:space="preserve" x="-28380" stroke="none" font-size="433.3333" font-family="sans-serif">OH</text><text y="-29845" xml:space="preserve" x="-28461" stroke="none" font-size="433.3333" font-family="sans-serif">OH</text><text y="-26569" xml:space="preserve" x="-22625" stroke="none" font-size="433.3333" font-family="sans-serif">O</text><text y="-26014" xml:space="preserve" x="-19921" stroke="none" font-size="433.3333" font-family="sans-serif">OH</text><text y="-27600" xml:space="preserve" x="-20820" stroke="none" font-size="433.3333" font-family="sans-serif">O</text><text y="-30370" xml:space="preserve" x="-25581" stroke="none" font-size="433.3333" font-family="sans-serif">H</text><text y="-27138" xml:space="preserve" x="-25581" stroke="none" font-size="433.3333" font-family="sans-serif">H</text><text y="-32242" xml:space="preserve" x="-28380" stroke="none" font-style="italic" font-size="313.3333" font-family="sans-serif">S</text><text y="-29177" xml:space="preserve" x="-25332" stroke="none" font-style="italic" font-size="313.3333" font-family="sans-serif">S</text><text y="-28328" xml:space="preserve" x="-25332" stroke="none" font-style="italic" font-size="313.3333" font-family="sans-serif">S</text><text y="-29588" xml:space="preserve" x="-26566" stroke="none" font-style="italic" font-size="313.3333" font-family="sans-serif">R</text><text y="-29177" xml:space="preserve" x="-27302" stroke="none" font-style="italic" font-size="313.3333" font-family="sans-serif">R</text></g></g></svg>