<svg width="188.97" viewBox="0 0 6299 6128" text-rendering="auto" stroke-width="1" stroke-opacity="1" stroke-miterlimit="10" stroke-linejoin="miter" stroke-linecap="square" stroke-dashoffset="0" stroke-dasharray="none" stroke="black" shape-rendering="auto" image-rendering="auto" height="183.84" font-weight="normal" font-style="normal" font-size="12" font-family="'Dialog'" fill-opacity="1" fill="black" color-rendering="auto" color-interpolation="auto" xmlns="http://www.w3.org/2000/svg"><g><g stroke="white" fill="white"><rect y="0" x="0" width="6299" stroke="none" height="6128"/></g><g transform="translate(32866,32758)" text-rendering="geometricPrecision" stroke-width="44" stroke-linejoin="round" stroke-linecap="round"><line y2="-29146" y1="-30281" x2="-28750" x1="-28750" fill="none"/><line y2="-30281" y1="-30850" x2="-28750" x1="-29732" fill="none"/><line y2="-30850" y1="-30281" x2="-27762" x1="-28750" fill="none"/><line y2="-30633" y1="-30206" x2="-27799" x1="-28542" fill="none"/><line y2="-28576" y1="-29146" x2="-29732" x1="-28750" fill="none"/><line y2="-29146" y1="-28576" x2="-28750" x1="-27762" fill="none"/><line y2="-29221" y1="-28796" x2="-28542" x1="-27799" fill="none"/><line y2="-30850" y1="-30281" x2="-29732" x1="-30720" fill="none"/><line y2="-30281" y1="-30850" x2="-26780" x1="-27762" fill="none"/><line y2="-29146" y1="-28576" x2="-30720" x1="-29732" fill="none"/><line y2="-28576" y1="-29146" x2="-27762" x1="-26780" fill="none"/><line y2="-29146" y1="-30281" x2="-30720" x1="-30720" fill="none"/><line y2="-30281" y1="-30850" x2="-30720" x1="-31702" fill="none"/><line y2="-30206" y1="-30633" x2="-30928" x1="-31665" fill="none"/><line y2="-29146" y1="-30281" x2="-26780" x1="-26780" fill="none"/><line y2="-29287" y1="-30139" x2="-26950" x1="-26950" fill="none"/><line y2="-28576" y1="-29146" x2="-31702" x1="-30720" fill="none"/><line y2="-28793" y1="-29221" x2="-31665" x1="-30928" fill="none"/><line y2="-30850" y1="-30281" x2="-31702" x1="-32690" fill="none"/><line y2="-29146" y1="-28576" x2="-32690" x1="-31702" fill="none"/><line y2="-30281" y1="-29146" x2="-32690" x1="-32690" fill="none"/><line y2="-30139" y1="-29287" x2="-32520" x1="-32520" fill="none"/><line y2="-31679" y1="-30850" x2="-27762" x1="-27762" fill="none"/><line y2="-27747" y1="-28576" x2="-31702" x1="-31702" fill="none"/><line y2="-31679" y1="-30850" x2="-29804" x1="-29804" fill="none"/><line y2="-31679" y1="-30850" x2="-29663" x1="-29663" fill="none"/><line y2="-27747" y1="-28576" x2="-29663" x1="-29663" fill="none"/><line y2="-27747" y1="-28576" x2="-29804" x1="-29804" fill="none"/><line y2="-32254" y1="-31945" x2="-28516" x1="-27984" fill="none"/><line y2="-32375" y1="-32069" x2="-28446" x1="-27915" fill="none"/><line y2="-32375" y1="-32069" x2="-27077" x1="-27609" fill="none"/><line y2="-32254" y1="-31945" x2="-27008" x1="-27539" fill="none"/><line y2="-27051" y1="-27360" x2="-32387" x1="-31855" fill="none"/><line y2="-27172" y1="-27482" x2="-32456" x1="-31928" fill="none"/><line y2="-27172" y1="-27482" x2="-30948" x1="-31480" fill="none"/><line y2="-27051" y1="-27360" x2="-31020" x1="-31549" fill="none"/><text y="-31720" xml:space="preserve" x="-29885" stroke="none" font-size="433.3333" font-family="sans-serif">O</text><text y="-31720" xml:space="preserve" x="-27915" stroke="none" font-size="433.3333" font-family="sans-serif">N</text><text y="-32242" xml:space="preserve" x="-28822" stroke="none" font-size="433.3333" font-family="sans-serif">O</text><text y="-32242" xml:space="preserve" x="-27008" stroke="none" font-size="433.3333" font-family="sans-serif">O</text><text y="-27349" xml:space="preserve" x="-29885" stroke="none" font-size="433.3333" font-family="sans-serif">O</text><text y="-27349" xml:space="preserve" x="-31855" stroke="none" font-size="433.3333" font-family="sans-serif">N</text><text y="-26826" xml:space="preserve" x="-32762" stroke="none" font-size="433.3333" font-family="sans-serif">O</text><text y="-26826" xml:space="preserve" x="-30948" stroke="none" font-size="433.3333" font-family="sans-serif">O</text></g></g></svg>