<svg width="441.63" viewBox="0 0 14721 5426" text-rendering="auto" stroke-width="1" stroke-opacity="1" stroke-miterlimit="10" stroke-linejoin="miter" stroke-linecap="square" stroke-dashoffset="0" stroke-dasharray="none" stroke="black" shape-rendering="auto" image-rendering="auto" height="162.78" font-weight="normal" font-style="normal" font-size="12" font-family="'Dialog'" fill-opacity="1" fill="black" color-rendering="auto" color-interpolation="auto" xmlns="http://www.w3.org/2000/svg"><g><g stroke="white" fill="white"><rect y="0" x="0" width="14721" stroke="none" height="5426"/></g><g transform="translate(32866,32758)" text-rendering="geometricPrecision" stroke-width="44" stroke-linejoin="round" stroke-linecap="round"><line y2="-30327" y1="-30850" x2="-25506" x1="-26413" fill="none"/><line y2="-30434" y1="-30850" x2="-27132" x1="-26413" fill="none"/><line y2="-30850" y1="-30434" x2="-28227" x1="-27508" fill="none"/><line y2="-30327" y1="-30850" x2="-29134" x1="-28227" fill="none"/><line y2="-30850" y1="-30327" x2="-30041" x1="-29134" fill="none"/><line y2="-30327" y1="-30850" x2="-30948" x1="-30041" fill="none"/><line y2="-30850" y1="-30327" x2="-31855" x1="-30948" fill="none"/><line y2="-30327" y1="-30850" x2="-32762" x1="-31855" fill="none"/><line y2="-31679" y1="-30850" x2="-26482" x1="-26482" fill="none"/><line y2="-31679" y1="-30850" x2="-26343" x1="-26343" fill="none"/><line y2="-30850" y1="-30327" x2="-24598" x1="-25506" fill="none"/><line y2="-31899" y1="-30850" x2="-24598" x1="-24598" fill="none"/><line y2="-29278" y1="-30327" x2="-25506" x1="-25506" fill="none"/><line y2="-28756" y1="-29278" x2="-24598" x1="-25506" fill="none"/><line y2="-29911" y1="-30327" x2="-24786" x1="-25506" fill="none"/><line y2="-30327" y1="-29911" x2="-23691" x1="-24411" fill="none"/><line y2="-32315" y1="-31899" x2="-23879" x1="-24598" fill="none"/><line y2="-31899" y1="-32315" x2="-22784" x1="-23504" fill="none"/><line y2="-32422" y1="-31899" x2="-21877" x1="-22784" fill="none"/><line y2="-31899" y1="-32422" x2="-20970" x1="-21877" fill="none"/><line y2="-32422" y1="-31899" x2="-20063" x1="-20970" fill="none"/><line y2="-31899" y1="-32422" x2="-19156" x1="-20063" fill="none"/><line y2="-32422" y1="-31899" x2="-18249" x1="-19156" fill="none"/><line y2="-32254" y1="-31838" x2="-25355" x1="-24633" fill="none"/><line y2="-32375" y1="-31959" x2="-25283" x1="-24564" fill="none"/><line y2="-29172" y1="-28756" x2="-23879" x1="-24598" fill="none"/><line y2="-28756" y1="-29172" x2="-22784" x1="-23504" fill="none"/><line y2="-29278" y1="-28756" x2="-21877" x1="-22784" fill="none"/><line y2="-28756" y1="-29278" x2="-20970" x1="-21877" fill="none"/><line y2="-29278" y1="-28756" x2="-20063" x1="-20970" fill="none"/><line y2="-28756" y1="-29278" x2="-19156" x1="-20063" fill="none"/><line y2="-29278" y1="-28756" x2="-18249" x1="-19156" fill="none"/><line y2="-27926" y1="-28756" x2="-24529" x1="-24529" fill="none"/><line y2="-27926" y1="-28756" x2="-24668" x1="-24668" fill="none"/><line y2="-29804" y1="-30327" x2="-22784" x1="-23691" fill="none"/><line y2="-30327" y1="-29804" x2="-21877" x1="-22784" fill="none"/><line y2="-29804" y1="-30327" x2="-20970" x1="-21877" fill="none"/><line y2="-31156" y1="-30327" x2="-23761" x1="-23761" fill="none"/><line y2="-31156" y1="-30327" x2="-23622" x1="-23622" fill="none"/><text y="-29625" xml:space="preserve" x="-24752" stroke="none" font-size="433.3333" font-family="sans-serif">O</text><text y="-30148" xml:space="preserve" x="-27473" stroke="none" font-size="433.3333" font-family="sans-serif">O</text><text y="-31720" xml:space="preserve" x="-26566" stroke="none" font-size="433.3333" font-family="sans-serif">O</text><text y="-32242" xml:space="preserve" x="-23844" stroke="none" font-size="433.3333" font-family="sans-serif">O</text><text y="-32242" xml:space="preserve" x="-25659" stroke="none" font-size="433.3333" font-family="sans-serif">O</text><text y="-29099" xml:space="preserve" x="-23844" stroke="none" font-size="433.3333" font-family="sans-serif">O</text><text y="-27528" xml:space="preserve" x="-24752" stroke="none" font-size="433.3333" font-family="sans-serif">O</text><text y="-31197" xml:space="preserve" x="-23844" stroke="none" font-size="433.3333" font-family="sans-serif">O</text></g></g></svg>