<svg width="258.06" viewBox="0 0 8602 11637" text-rendering="auto" stroke-width="1" stroke-opacity="1" stroke-miterlimit="10" stroke-linejoin="miter" stroke-linecap="square" stroke-dashoffset="0" stroke-dasharray="none" stroke="black" shape-rendering="auto" image-rendering="auto" height="349.11" font-weight="normal" font-style="normal" font-size="12" font-family="'Dialog'" fill-opacity="1" fill="black" color-rendering="auto" color-interpolation="auto" xmlns="http://www.w3.org/2000/svg"><g><g stroke="white" fill="white"><rect y="0" x="0" width="8602" stroke="none" height="11637"/></g><g transform="translate(32866,32758)" text-rendering="geometricPrecision" stroke-width="44" stroke-linejoin="round" stroke-linecap="round"><line y2="-24818" y1="-24252" x2="-27747" x1="-28735" fill="none"/><line y2="-24252" y1="-24818" x2="-26765" x1="-27747" fill="none"/><line y2="-25737" y1="-24818" x2="-27747" x1="-27747" fill="none"/><line y2="-23114" y1="-24252" x2="-28735" x1="-28735" fill="none"/><line y2="-24252" y1="-24818" x2="-28735" x1="-29718" fill="none"/><line y2="-24174" y1="-24601" x2="-28943" x1="-29680" fill="none"/><line y2="-23333" y1="-24252" x2="-26765" x1="-26765" fill="none"/><line y2="-24252" y1="-24818" x2="-26765" x1="-25777" fill="none"/><line y2="-26525" y1="-26066" x2="-26765" x1="-27560" fill="none"/><line y2="-23114" y1="-22544" x2="-28735" x1="-27747" fill="none"/><line y2="-22544" y1="-23114" x2="-29718" x1="-28735" fill="none"/><line y2="-22761" y1="-23189" x2="-29680" x1="-28943" fill="none"/><line y2="-24818" y1="-24252" x2="-29718" x1="-30706" fill="none"/><line y2="-22544" y1="-23004" x2="-27747" x1="-26953" fill="none"/><line y2="-24818" y1="-25956" x2="-25777" x1="-25777" fill="none"/><line y2="-25956" y1="-26525" x2="-25777" x1="-26765" fill="none"/><line y2="-23114" y1="-22544" x2="-30706" x1="-29718" fill="none"/><line y2="-24252" y1="-23114" x2="-30706" x1="-30706" fill="none"/><line y2="-24107" y1="-23255" x2="-30535" x1="-30535" fill="none"/><line y2="-27990" y1="-27574" x2="-27482" x1="-26765" fill="none"/><line y2="-29146" y1="-28316" x2="-27672" x1="-27672" fill="none"/><line y2="-24665" y1="-24252" x2="-31425" x1="-30706" fill="none"/><line y2="-24419" y1="-24665" x2="-32231" x1="-31800" fill="none"/><line y2="-25647" y1="-24818" x2="-29718" x1="-29718" fill="none"/><line y2="-22810" y1="-23114" x2="-31231" x1="-30706" fill="none"/><line y2="-21715" y1="-22544" x2="-27678" x1="-27678" fill="none"/><line y2="-21715" y1="-22544" x2="-27817" x1="-27817" fill="none"/><line y2="-29668" y1="-29146" x2="-28579" x1="-27672" fill="none"/><line y2="-29622" y1="-29206" x2="-26988" x1="-27707" fill="none"/><line y2="-29501" y1="-29085" x2="-26918" x1="-27638" fill="none"/><line y2="-29668" y1="-30807" x2="-28579" x1="-28579" fill="none"/><line y2="-29810" y1="-30665" x2="-28750" x1="-28750" fill="none"/><line y2="-29099" y1="-29668" x2="-29562" x1="-28579" fill="none"/><line y2="-30807" y1="-31376" x2="-28579" x1="-29562" fill="none"/><line y2="-29668" y1="-29099" x2="-30550" x1="-29562" fill="none"/><line y2="-29746" y1="-29319" x2="-30339" x1="-29599" fill="none"/><line y2="-31376" y1="-30807" x2="-29562" x1="-30550" fill="none"/><line y2="-31156" y1="-30729" x2="-29599" x1="-30339" fill="none"/><line y2="-30807" y1="-29668" x2="-30550" x1="-30550" fill="none"/><line y2="-32202" y1="-31376" x2="-29562" x1="-29562" fill="none"/><line y2="-29365" y1="-29668" x2="-31075" x1="-30550" fill="none"/><line y2="-31110" y1="-30807" x2="-31075" x1="-30550" fill="none"/><polygon stroke-width="1" stroke="none" points=" -25777 -25956 -25092 -26430 -25023 -26312"/><polygon stroke-width="1" points=" -25777 -25956 -25092 -26430 -25023 -26312" fill="none"/><polygon stroke-width="1" stroke="none" points=" -27747 -24818 -27678 -23992 -27817 -23989"/><polygon stroke-width="1" points=" -27747 -24818 -27678 -23992 -27817 -23989" fill="none"/><line y2="-27574" y1="-27571" x2="-26696" x1="-26832" fill="none"/><line y2="-27357" y1="-27355" x2="-26710" x1="-26818" fill="none"/><line y2="-27140" y1="-27138" x2="-26725" x1="-26804" fill="none"/><line y2="-26923" y1="-26922" x2="-26739" x1="-26790" fill="none"/><line y2="-26706" y1="-26706" x2="-26753" x1="-26777" fill="none"/><line y2="-24344" y1="-24463" x2="-25090" x1="-25023" fill="none"/><line y2="-24468" y1="-24556" x2="-25269" x1="-25220" fill="none"/><line y2="-24591" y1="-24648" x2="-25448" x1="-25416" fill="none"/><line y2="-24715" y1="-24741" x2="-25627" x1="-25613" fill="none"/><line y2="-25078" y1="-25078" x2="-26696" x1="-26832" fill="none"/><line y2="-24861" y1="-24861" x2="-26714" x1="-26814" fill="none"/><line y2="-24645" y1="-24645" x2="-26732" x1="-26797" fill="none"/><line y2="-24428" y1="-24428" x2="-26750" x1="-26779" fill="none"/><text y="-25688" xml:space="preserve" x="-29871" stroke="none" font-size="433.3333" font-family="sans-serif">OH</text><text y="-24116" xml:space="preserve" x="-25023" stroke="none" font-size="433.3333" font-family="sans-serif">OH</text><text y="-27918" xml:space="preserve" x="-27822" stroke="none" font-size="433.3333" font-family="sans-serif">O</text><text y="-29489" xml:space="preserve" x="-26915" stroke="none" font-size="433.3333" font-family="sans-serif">O</text><text y="-21317" xml:space="preserve" x="-27900" stroke="none" font-size="433.3333" font-family="sans-serif">O</text><text y="-24596" xml:space="preserve" x="-31766" stroke="none" font-size="433.3333" font-family="sans-serif">O</text><text y="-24021" xml:space="preserve" x="-32762" stroke="none" font-size="433.3333" font-family="sans-serif">CH</text><text y="-23931" xml:space="preserve" x="-32185" stroke="none" font-size="313.3333" font-family="sans-serif">3</text><text y="-26303" xml:space="preserve" x="-25023" stroke="none" font-size="433.3333" font-family="sans-serif">OH</text><text y="-22412" xml:space="preserve" x="-31766" stroke="none" font-size="433.3333" font-family="sans-serif">OH</text><text y="-32242" xml:space="preserve" x="-29715" stroke="none" font-size="433.3333" font-family="sans-serif">OH</text><text y="-28966" xml:space="preserve" x="-31607" stroke="none" font-size="433.3333" font-family="sans-serif">OH</text><text y="-31150" xml:space="preserve" x="-31607" stroke="none" font-size="433.3333" font-family="sans-serif">OH</text><text y="-25777" xml:space="preserve" x="-27900" stroke="none" font-size="433.3333" font-family="sans-serif">O</text><text y="-22934" xml:space="preserve" x="-26915" stroke="none" font-size="433.3333" font-family="sans-serif">O</text><text y="-23593" xml:space="preserve" x="-27900" stroke="none" font-size="433.3333" font-family="sans-serif">H</text><text y="-25118" xml:space="preserve" x="-26915" stroke="none" font-size="433.3333" font-family="sans-serif">H</text><text y="-24783" xml:space="preserve" x="-28149" stroke="none" font-style="italic" font-size="313.3333" font-family="sans-serif">S</text><text y="-23928" xml:space="preserve" x="-26667" stroke="none" font-style="italic" font-size="313.3333" font-family="sans-serif">R</text><text y="-24783" xml:space="preserve" x="-26179" stroke="none" font-style="italic" font-size="313.3333" font-family="sans-serif">S</text><text y="-26043" xml:space="preserve" x="-26915" stroke="none" font-style="italic" font-size="313.3333" font-family="sans-serif">R</text><text y="-25633" xml:space="preserve" x="-26179" stroke="none" font-style="italic" font-size="313.3333" font-family="sans-serif">S</text></g></g></svg>