<svg width="346.71" viewBox="0 0 11557 8016" text-rendering="auto" stroke-width="1" stroke-opacity="1" stroke-miterlimit="10" stroke-linejoin="miter" stroke-linecap="square" stroke-dashoffset="0" stroke-dasharray="none" stroke="black" shape-rendering="auto" image-rendering="auto" height="240.48" font-weight="normal" font-style="normal" font-size="12" font-family="'Dialog'" fill-opacity="1" fill="black" color-rendering="auto" color-interpolation="auto" xmlns="http://www.w3.org/2000/svg"><g><g stroke="white" fill="white"><rect y="0" x="0" width="11557" stroke="none" height="8016"/></g><g transform="translate(32866,32758)" text-rendering="geometricPrecision" stroke-width="44" stroke-linejoin="round" stroke-linecap="round"><line y2="-28458" y1="-28984" x2="-26730" x1="-27638" fill="none"/><line y2="-28403" y1="-28796" x2="-26912" x1="-27591" fill="none"/><line y2="-28458" y1="-28984" x2="-28545" x1="-27638" fill="none"/><line y2="-28984" y1="-28458" x2="-25823" x1="-26730" fill="none"/><line y2="-27323" y1="-28458" x2="-28545" x1="-28545" fill="none"/><line y2="-27464" y1="-28316" x2="-28715" x1="-28715" fill="none"/><line y2="-28458" y1="-29027" x2="-28545" x1="-29530" fill="none"/><line y2="-26754" y1="-27323" x2="-29530" x1="-28545" fill="none"/><line y2="-29027" y1="-28458" x2="-29530" x1="-30515" fill="none"/><line y2="-28810" y1="-28383" x2="-29567" x1="-30307" fill="none"/><line y2="-27323" y1="-26754" x2="-30515" x1="-29530" fill="none"/><line y2="-27398" y1="-26970" x2="-30307" x1="-29567" fill="none"/><line y2="-28458" y1="-27323" x2="-30515" x1="-30515" fill="none"/><line y2="-25924" y1="-26754" x2="-29530" x1="-29530" fill="none"/><line y2="-25289" y1="-25598" x2="-28810" x1="-29342" fill="none"/><line y2="-26907" y1="-27323" x2="-31234" x1="-30515" fill="none"/><line y2="-27155" y1="-26907" x2="-32040" x1="-31610" fill="none"/><line y2="-30119" y1="-28984" x2="-25823" x1="-25823" fill="none"/><line y2="-29978" y1="-29125" x2="-25653" x1="-25653" fill="none"/><line y2="-28984" y1="-28415" x2="-25823" x1="-24835" fill="none"/><line y2="-30688" y1="-30119" x2="-24835" x1="-25823" fill="none"/><line y2="-28415" y1="-28984" x2="-24835" x1="-23853" fill="none"/><line y2="-28631" y1="-29059" x2="-24798" x1="-24058" fill="none"/><line y2="-30119" y1="-30688" x2="-23853" x1="-24835" fill="none"/><line y2="-30044" y1="-30472" x2="-24058" x1="-24798" fill="none"/><line y2="-28984" y1="-30119" x2="-23853" x1="-23853" fill="none"/><line y2="-31517" y1="-30688" x2="-24835" x1="-24835" fill="none"/><line y2="-32092" y1="-31844" x2="-25454" x1="-25023" fill="none"/><line y2="-28568" y1="-28984" x2="-23134" x1="-23853" fill="none"/><line y2="-28874" y1="-28568" x2="-22227" x1="-22755" fill="none"/><text y="-25526" xml:space="preserve" x="-29683" stroke="none" font-size="433.3333" font-family="sans-serif">O</text><text y="-25003" xml:space="preserve" x="-28776" stroke="none" font-size="433.3333" font-family="sans-serif">CH</text><text y="-24913" xml:space="preserve" x="-28198" stroke="none" font-size="313.3333" font-family="sans-serif">3</text><text y="-26618" xml:space="preserve" x="-31572" stroke="none" font-size="433.3333" font-family="sans-serif">O</text><text y="-27305" xml:space="preserve" x="-32762" stroke="none" font-size="433.3333" font-family="sans-serif">CH</text><text y="-27216" xml:space="preserve" x="-32185" stroke="none" font-size="313.3333" font-family="sans-serif">3</text><text y="-31558" xml:space="preserve" x="-24988" stroke="none" font-size="433.3333" font-family="sans-serif">O</text><text y="-32242" xml:space="preserve" x="-26176" stroke="none" font-size="433.3333" font-family="sans-serif">CH</text><text y="-32153" xml:space="preserve" x="-25598" stroke="none" font-size="313.3333" font-family="sans-serif">3</text><text y="-28279" xml:space="preserve" x="-23096" stroke="none" font-size="433.3333" font-family="sans-serif">O</text><text y="-28805" xml:space="preserve" x="-22189" stroke="none" font-size="433.3333" font-family="sans-serif">CH</text><text y="-28715" xml:space="preserve" x="-21611" stroke="none" font-size="313.3333" font-family="sans-serif">3</text><text y="-28932" xml:space="preserve" x="-27120" stroke="none" font-style="italic" font-size="313.3333" font-family="sans-serif">E</text></g></g></svg>