<svg width="532.65" viewBox="0 0 17755 4142" text-rendering="auto" stroke-width="1" stroke-opacity="1" stroke-miterlimit="10" stroke-linejoin="miter" stroke-linecap="square" stroke-dashoffset="0" stroke-dasharray="none" stroke="black" shape-rendering="auto" image-rendering="auto" height="124.26" font-weight="normal" font-style="normal" font-size="12" font-family="'Dialog'" fill-opacity="1" fill="black" color-rendering="auto" color-interpolation="auto" xmlns="http://www.w3.org/2000/svg"><g><g stroke="white" fill="white"><rect y="0" x="0" width="17755" stroke="none" height="4142"/></g><g transform="translate(32866,32866)" text-rendering="geometricPrecision" stroke-width="44" stroke-linejoin="round" stroke-linecap="round"><line y2="-30642" y1="-31055" x2="-27352" x1="-28071" fill="none"/><line y2="-31055" y1="-30752" x2="-26257" x1="-26785" fill="none"/><line y2="-30532" y1="-31055" x2="-25350" x1="-26257" fill="none"/><line y2="-31055" y1="-30532" x2="-24442" x1="-25350" fill="none"/><line y2="-30532" y1="-31055" x2="-23535" x1="-24442" fill="none"/><line y2="-31055" y1="-30532" x2="-22628" x1="-23535" fill="none"/><line y2="-30532" y1="-31055" x2="-21721" x1="-22628" fill="none"/><line y2="-30948" y1="-30532" x2="-21002" x1="-21721" fill="none"/><line y2="-30532" y1="-30838" x2="-19907" x1="-20433" fill="none"/><line y2="-30642" y1="-31055" x2="-28790" x1="-28071" fill="none"/><line y2="-30948" y1="-30642" x2="-29697" x1="-29166" fill="none"/><line y2="-30472" y1="-30888" x2="-30758" x1="-30038" fill="none"/><line y2="-30593" y1="-31009" x2="-30827" x1="-30108" fill="none"/><line y2="-31884" y1="-31055" x2="-28140" x1="-28140" fill="none"/><line y2="-31884" y1="-31055" x2="-28002" x1="-28002" fill="none"/><line y2="-30948" y1="-30532" x2="-19188" x1="-19907" fill="none"/><line y2="-30642" y1="-30948" x2="-18280" x1="-18812" fill="none"/><line y2="-31119" y1="-30703" x2="-17220" x1="-17940" fill="none"/><line y2="-30994" y1="-30581" x2="-17151" x1="-17867" fill="none"/><line y2="-29703" y1="-30532" x2="-19838" x1="-19838" fill="none"/><line y2="-29703" y1="-30532" x2="-19976" x1="-19976" fill="none"/><line y2="-30532" y1="-31101" x2="-30792" x1="-31774" fill="none"/><line y2="-29394" y1="-30532" x2="-30792" x1="-30792" fill="none"/><line y2="-31101" y1="-30532" x2="-31774" x1="-32762" fill="none"/><line y2="-28828" y1="-29394" x2="-31774" x1="-30792" fill="none"/><line y2="-30532" y1="-29394" x2="-32762" x1="-32762" fill="none"/><line y2="-29394" y1="-28828" x2="-32762" x1="-31774" fill="none"/><line y2="-32193" y1="-31055" x2="-17186" x1="-17186" fill="none"/><line y2="-31055" y1="-30489" x2="-17186" x1="-16198" fill="none"/><line y2="-32762" y1="-32193" x2="-16198" x1="-17186" fill="none"/><line y2="-30489" y1="-31055" x2="-16198" x1="-15215" fill="none"/><line y2="-32193" y1="-32762" x2="-15215" x1="-16198" fill="none"/><line y2="-31055" y1="-32193" x2="-15215" x1="-15215" fill="none"/><text y="-30876" xml:space="preserve" x="-30038" stroke="none" font-size="433.3333" font-family="sans-serif">N</text><text y="-30353" xml:space="preserve" x="-29131" stroke="none" font-size="433.3333" font-family="sans-serif">O</text><text y="-30353" xml:space="preserve" x="-27317" stroke="none" font-size="433.3333" font-family="sans-serif">NH</text><text y="-31925" xml:space="preserve" x="-28224" stroke="none" font-size="433.3333" font-family="sans-serif">O</text><text y="-30876" xml:space="preserve" x="-20964" stroke="none" font-size="433.3333" font-family="sans-serif">NH</text><text y="-30876" xml:space="preserve" x="-19150" stroke="none" font-size="433.3333" font-family="sans-serif">O</text><text y="-29304" xml:space="preserve" x="-20057" stroke="none" font-size="433.3333" font-family="sans-serif">O</text><text y="-30353" xml:space="preserve" x="-18243" stroke="none" font-size="433.3333" font-family="sans-serif">N</text></g></g></svg>