<svg width="628.56" viewBox="0 0 20952 6908" text-rendering="auto" stroke-width="1" stroke-opacity="1" stroke-miterlimit="10" stroke-linejoin="miter" stroke-linecap="square" stroke-dashoffset="0" stroke-dasharray="none" stroke="black" shape-rendering="auto" image-rendering="auto" height="207.24" font-weight="normal" font-style="normal" font-size="12" font-family="'Dialog'" fill-opacity="1" fill="black" color-rendering="auto" color-interpolation="auto" xmlns="http://www.w3.org/2000/svg"><g><g stroke="white" fill="white"><rect y="0" x="0" width="20952" stroke="none" height="6908"/></g><g transform="translate(32866,32758)" text-rendering="geometricPrecision" stroke-width="44" stroke-linejoin="round" stroke-linecap="round"><line y2="-31376" y1="-30850" x2="-22501" x1="-23408" fill="none"/><line y2="-31188" y1="-30795" x2="-22544" x1="-23223" fill="none"/><line y2="-31376" y1="-30850" x2="-24315" x1="-23408" fill="none"/><line y2="-30850" y1="-31376" x2="-21594" x1="-22501" fill="none"/><line y2="-31376" y1="-31376" x2="-25364" x1="-24315" fill="none"/><line y2="-31237" y1="-31237" x2="-25231" x1="-24445" fill="none"/><line y2="-31376" y1="-30850" x2="-20687" x1="-21594" fill="none"/><line y2="-31188" y1="-30795" x2="-20730" x1="-21409" fill="none"/><line y2="-30850" y1="-31376" x2="-26271" x1="-25364" fill="none"/><line y2="-31376" y1="-30850" x2="-27178" x1="-26271" fill="none"/><line y2="-30850" y1="-31376" x2="-19780" x1="-20687" fill="none"/><line y2="-31376" y1="-31376" x2="-28224" x1="-27178" fill="none"/><line y2="-31237" y1="-31237" x2="-28094" x1="-27308" fill="none"/><line y2="-31376" y1="-30850" x2="-18873" x1="-19780" fill="none"/><line y2="-27274" y1="-27690" x2="-18873" x1="-19592" fill="none"/><line y2="-27796" y1="-27274" x2="-17966" x1="-18873" fill="none"/><line y2="-30850" y1="-31376" x2="-29134" x1="-28224" fill="none"/><line y2="-31376" y1="-30850" x2="-30041" x1="-29134" fill="none"/><line y2="-30850" y1="-31376" x2="-30948" x1="-30041" fill="none"/><line y2="-31376" y1="-30850" x2="-31855" x1="-30948" fill="none"/><line y2="-30850" y1="-31376" x2="-32762" x1="-31855" fill="none"/><line y2="-30850" y1="-31376" x2="-17966" x1="-18873" fill="none"/><line y2="-31376" y1="-30850" x2="-17058" x1="-17966" fill="none"/><line y2="-30850" y1="-31376" x2="-16151" x1="-17058" fill="none"/><line y2="-31376" y1="-30850" x2="-15244" x1="-16151" fill="none"/><line y2="-27274" y1="-27796" x2="-17058" x1="-17966" fill="none"/><line y2="-29368" y1="-29065" x2="-17058" x1="-17584" fill="none"/><line y2="-30960" y1="-31376" x2="-14525" x1="-15244" fill="none"/><line y2="-32202" y1="-31376" x2="-15314" x1="-15314" fill="none"/><line y2="-32202" y1="-31376" x2="-15175" x1="-15175" fill="none"/><line y2="-27690" y1="-27274" x2="-16339" x1="-17058" fill="none"/><line y2="-26444" y1="-27274" x2="-16989" x1="-16989" fill="none"/><line y2="-26444" y1="-27274" x2="-17128" x1="-17128" fill="none"/><line y2="-28845" y1="-29368" x2="-16151" x1="-17058" fill="none"/><line y2="-29368" y1="-28845" x2="-15244" x1="-16151" fill="none"/><line y2="-28845" y1="-29368" x2="-14337" x1="-15244" fill="none"/><line y2="-30197" y1="-29368" x2="-17128" x1="-17128" fill="none"/><line y2="-30197" y1="-29368" x2="-16989" x1="-16989" fill="none"/><line y2="-29368" y1="-28845" x2="-13430" x1="-14337" fill="none"/><line y2="-28952" y1="-29368" x2="-12711" x1="-13430" fill="none"/><line y2="-30197" y1="-29368" x2="-13499" x1="-13499" fill="none"/><line y2="-30197" y1="-29368" x2="-13358" x1="-13358" fill="none"/><polygon stroke-width="1" stroke="none" points=" -18873 -31376 -18942 -32202 -18803 -32202"/><polygon stroke-width="1" points=" -18873 -31376 -18942 -32202 -18803 -32202" fill="none"/><polygon stroke-width="1" stroke="none" points=" -14337 -28845 -14268 -28016 -14406 -28016"/><polygon stroke-width="1" points=" -14337 -28845 -14268 -28016 -14406 -28016" fill="none"/><line y2="-28016" y1="-28016" x2="-19849" x1="-19710" fill="none"/><line y2="-28233" y1="-28233" x2="-19844" x1="-19715" fill="none"/><line y2="-28449" y1="-28449" x2="-19838" x1="-19721" fill="none"/><line y2="-28666" y1="-28666" x2="-19833" x1="-19726" fill="none"/><line y2="-28883" y1="-28883" x2="-19828" x1="-19731" fill="none"/><line y2="-29099" y1="-29099" x2="-19823" x1="-19737" fill="none"/><line y2="-29316" y1="-29316" x2="-19817" x1="-19742" fill="none"/><line y2="-29533" y1="-29533" x2="-19812" x1="-19747" fill="none"/><line y2="-29749" y1="-29749" x2="-19807" x1="-19753" fill="none"/><line y2="-29966" y1="-29966" x2="-19802" x1="-19758" fill="none"/><line y2="-30183" y1="-30183" x2="-19796" x1="-19764" fill="none"/><line y2="-30399" y1="-30399" x2="-19791" x1="-19769" fill="none"/><line y2="-30616" y1="-30616" x2="-19786" x1="-19774" fill="none"/><line y2="-30833" y1="-30833" x2="-19780" x1="-19780" fill="none"/><line y2="-28626" y1="-28626" x2="-17896" x1="-18035" fill="none"/><line y2="-28409" y1="-28409" x2="-17914" x1="-18017" fill="none"/><line y2="-28193" y1="-28193" x2="-17933" x1="-17999" fill="none"/><line y2="-27976" y1="-27976" x2="-17951" x1="-17981" fill="none"/><text y="-27617" xml:space="preserve" x="-19933" stroke="none" font-size="433.3333" font-family="sans-serif">S</text><text y="-32242" xml:space="preserve" x="-19026" stroke="none" font-size="433.3333" font-family="sans-serif">OH</text><text y="-28666" xml:space="preserve" x="-18119" stroke="none" font-size="433.3333" font-family="sans-serif">NH</text><text y="-27617" xml:space="preserve" x="-16302" stroke="none" font-size="433.3333" font-family="sans-serif">OH</text><text y="-26046" xml:space="preserve" x="-17209" stroke="none" font-size="433.3333" font-family="sans-serif">O</text><text y="-30238" xml:space="preserve" x="-17209" stroke="none" font-size="433.3333" font-family="sans-serif">O</text><text y="-30671" xml:space="preserve" x="-14487" stroke="none" font-size="433.3333" font-family="sans-serif">OH</text><text y="-32242" xml:space="preserve" x="-15394" stroke="none" font-size="433.3333" font-family="sans-serif">O</text><text y="-27617" xml:space="preserve" x="-14487" stroke="none" font-size="433.3333" font-family="sans-serif">NH</text><text y="-27528" xml:space="preserve" x="-13910" stroke="none" font-size="313.3333" font-family="sans-serif">2</text><text y="-28666" xml:space="preserve" x="-12673" stroke="none" font-size="433.3333" font-family="sans-serif">OH</text><text y="-30238" xml:space="preserve" x="-13580" stroke="none" font-size="433.3333" font-family="sans-serif">O</text><text y="-31321" xml:space="preserve" x="-21516" stroke="none" font-style="italic" font-size="313.3333" font-family="sans-serif">E</text><text y="-31321" xml:space="preserve" x="-23330" stroke="none" font-style="italic" font-size="313.3333" font-family="sans-serif">E</text><text y="-30729" xml:space="preserve" x="-24991" stroke="none" font-style="italic" font-size="313.3333" font-family="sans-serif">Z</text><text y="-30729" xml:space="preserve" x="-27854" stroke="none" font-style="italic" font-size="313.3333" font-family="sans-serif">Z</text><text y="-30974" xml:space="preserve" x="-19933" stroke="none" font-style="italic" font-size="313.3333" font-family="sans-serif">R</text><text y="-30893" xml:space="preserve" x="-19026" stroke="none" font-style="italic" font-size="313.3333" font-family="sans-serif">S</text><text y="-27317" xml:space="preserve" x="-18119" stroke="none" font-style="italic" font-size="313.3333" font-family="sans-serif">R</text><text y="-28969" xml:space="preserve" x="-14487" stroke="none" font-style="italic" font-size="313.3333" font-family="sans-serif">S</text></g></g></svg>