<svg width="253.11" viewBox="0 0 8437 3849" text-rendering="auto" stroke-width="1" stroke-opacity="1" stroke-miterlimit="10" stroke-linejoin="miter" stroke-linecap="square" stroke-dashoffset="0" stroke-dasharray="none" stroke="black" shape-rendering="auto" image-rendering="auto" height="115.47" font-weight="normal" font-style="normal" font-size="12" font-family="'Dialog'" fill-opacity="1" fill="black" color-rendering="auto" color-interpolation="auto" xmlns="http://www.w3.org/2000/svg"><g><g stroke="white" fill="white"><rect y="0" x="0" width="8437" stroke="none" height="3849"/></g><g transform="translate(32866,32758)" text-rendering="geometricPrecision" stroke-width="44" stroke-linejoin="round" stroke-linecap="round"><line y2="-30717" y1="-30717" x2="-30792" x1="-28822" fill="none"/><line y2="-31855" y1="-30717" x2="-28822" x1="-28822" fill="none"/><line y2="-30717" y1="-30148" x2="-28822" x1="-27834" fill="none"/><line y2="-30792" y1="-30368" x2="-28611" x1="-27872" fill="none"/><line y2="-31855" y1="-30717" x2="-30792" x1="-30792" fill="none"/><line y2="-30148" y1="-30717" x2="-31774" x1="-30792" fill="none"/><line y2="-30365" y1="-30792" x2="-31737" x1="-31000" fill="none"/><line y2="-31855" y1="-32315" x2="-28822" x1="-29616" fill="none"/><line y2="-32422" y1="-31855" x2="-27834" x1="-28822" fill="none"/><line y2="-32205" y1="-31777" x2="-27872" x1="-28611" fill="none"/><line y2="-30148" y1="-30717" x2="-27834" x1="-26852" fill="none"/><line y2="-32315" y1="-31855" x2="-29992" x1="-30792" fill="none"/><line y2="-31855" y1="-32422" x2="-30792" x1="-31774" fill="none"/><line y2="-31777" y1="-32205" x2="-31000" x1="-31737" fill="none"/><line y2="-30717" y1="-30148" x2="-32762" x1="-31774" fill="none"/><line y2="-31855" y1="-32422" x2="-26852" x1="-27834" fill="none"/><line y2="-30717" y1="-31855" x2="-26852" x1="-26852" fill="none"/><line y2="-30859" y1="-31711" x2="-27022" x1="-27022" fill="none"/><line y2="-32422" y1="-31855" x2="-31774" x1="-32762" fill="none"/><line y2="-31855" y1="-30717" x2="-32762" x1="-32762" fill="none"/><line y2="-31711" y1="-30859" x2="-32592" x1="-32592" fill="none"/><line y2="-30301" y1="-30717" x2="-26132" x1="-26852" fill="none"/><line y2="-30607" y1="-30301" x2="-25225" x1="-25757" fill="none"/><line y2="-29538" y1="-30009" x2="-25485" x1="-25757" fill="none"/><line y2="-29469" y1="-29937" x2="-25607" x1="-25878" fill="none"/><line y2="-29469" y1="-29937" x2="-26280" x1="-26008" fill="none"/><line y2="-29538" y1="-30009" x2="-26401" x1="-26130" fill="none"/><text y="-30012" xml:space="preserve" x="-26095" stroke="none" font-size="433.3333" font-family="sans-serif">S</text><text y="-29105" xml:space="preserve" x="-25572" stroke="none" font-size="433.3333" font-family="sans-serif">O</text><text y="-29105" xml:space="preserve" x="-26621" stroke="none" font-size="433.3333" font-family="sans-serif">O</text><text y="-30538" xml:space="preserve" x="-25188" stroke="none" font-size="433.3333" font-family="sans-serif">OH</text><text y="-32242" xml:space="preserve" x="-29957" stroke="none" font-size="433.3333" font-family="sans-serif">O</text></g></g></svg>