<svg width="312.51" viewBox="0 0 10417 4286" text-rendering="auto" stroke-width="1" stroke-opacity="1" stroke-miterlimit="10" stroke-linejoin="miter" stroke-linecap="square" stroke-dashoffset="0" stroke-dasharray="none" stroke="black" shape-rendering="auto" image-rendering="auto" height="128.58" font-weight="normal" font-style="normal" font-size="12" font-family="'Dialog'" fill-opacity="1" fill="black" color-rendering="auto" color-interpolation="auto" xmlns="http://www.w3.org/2000/svg"><g><g stroke="white" fill="white"><rect y="0" x="0" width="10417" stroke="none" height="4286"/></g><g transform="translate(32866,32758)" text-rendering="geometricPrecision" stroke-width="44" stroke-linejoin="round" stroke-linecap="round"><line y2="-30281" y1="-30804" x2="-28071" x1="-28978" fill="none"/><line y2="-30391" y1="-30804" x2="-29697" x1="-28978" fill="none"/><line y2="-30804" y1="-30391" x2="-30792" x1="-30073" fill="none"/><line y2="-31633" y1="-30804" x2="-29047" x1="-29047" fill="none"/><line y2="-31633" y1="-30804" x2="-28909" x1="-28909" fill="none"/><line y2="-30850" y1="-30281" x2="-27089" x1="-28071" fill="none"/><line y2="-30633" y1="-30206" x2="-27126" x1="-27863" fill="none"/><line y2="-30281" y1="-29143" x2="-28071" x1="-28071" fill="none"/><line y2="-30281" y1="-30850" x2="-26101" x1="-27089" fill="none"/><line y2="-29143" y1="-28576" x2="-28071" x1="-27089" fill="none"/><line y2="-29221" y1="-28793" x2="-27863" x1="-27126" fill="none"/><line y2="-29143" y1="-30281" x2="-26101" x1="-26101" fill="none"/><line y2="-29287" y1="-30139" x2="-26271" x1="-26271" fill="none"/><line y2="-28576" y1="-29143" x2="-27089" x1="-26101" fill="none"/><line y2="-31899" y1="-30850" x2="-27089" x1="-27089" fill="none"/><line y2="-30804" y1="-31942" x2="-30792" x1="-30792" fill="none"/><line y2="-30238" y1="-30804" x2="-31777" x1="-30792" fill="none"/><line y2="-31942" y1="-32511" x2="-30792" x1="-31777" fill="none"/><line y2="-30804" y1="-30238" x2="-32762" x1="-31777" fill="none"/><line y2="-32511" y1="-31942" x2="-31777" x1="-32762" fill="none"/><line y2="-31942" y1="-30804" x2="-32762" x1="-32762" fill="none"/><line y2="-32315" y1="-31899" x2="-26369" x1="-27089" fill="none"/><line y2="-31899" y1="-32315" x2="-25274" x1="-25994" fill="none"/><line y2="-32422" y1="-31899" x2="-24367" x1="-25274" fill="none"/><line y2="-31899" y1="-32422" x2="-23460" x1="-24367" fill="none"/><line y2="-32422" y1="-31899" x2="-22553" x1="-23460" fill="none"/><line y2="-32251" y1="-31838" x2="-27843" x1="-27123" fill="none"/><line y2="-32375" y1="-31959" x2="-27773" x1="-27054" fill="none"/><text y="-30102" xml:space="preserve" x="-30038" stroke="none" font-size="433.3333" font-family="sans-serif">O</text><text y="-31673" xml:space="preserve" x="-29131" stroke="none" font-size="433.3333" font-family="sans-serif">O</text><text y="-32242" xml:space="preserve" x="-26335" stroke="none" font-size="433.3333" font-family="sans-serif">O</text><text y="-32242" xml:space="preserve" x="-28149" stroke="none" font-size="433.3333" font-family="sans-serif">O</text></g></g></svg>