<svg width="443.97" viewBox="0 0 14799 4286" text-rendering="auto" stroke-width="1" stroke-opacity="1" stroke-miterlimit="10" stroke-linejoin="miter" stroke-linecap="square" stroke-dashoffset="0" stroke-dasharray="none" stroke="black" shape-rendering="auto" image-rendering="auto" height="128.58" font-weight="normal" font-style="normal" font-size="12" font-family="'Dialog'" fill-opacity="1" fill="black" color-rendering="auto" color-interpolation="auto" xmlns="http://www.w3.org/2000/svg"><g><g stroke="white" fill="white"><rect y="0" x="0" width="14799" stroke="none" height="4286"/></g><g transform="translate(32866,32758)" text-rendering="geometricPrecision" stroke-width="44" stroke-linejoin="round" stroke-linecap="round"><line y2="-30281" y1="-30850" x2="-25428" x1="-26410" fill="none"/><line y2="-30206" y1="-30633" x2="-25636" x1="-26372" fill="none"/><line y2="-29146" y1="-30281" x2="-25428" x1="-25428" fill="none"/><line y2="-30850" y1="-30281" x2="-26410" x1="-27398" fill="none"/><line y2="-28576" y1="-29146" x2="-26410" x1="-25428" fill="none"/><line y2="-28793" y1="-29221" x2="-26372" x1="-25636" fill="none"/><line y2="-30281" y1="-29146" x2="-27398" x1="-27398" fill="none"/><line y2="-30139" y1="-29287" x2="-27227" x1="-27227" fill="none"/><line y2="-29146" y1="-28576" x2="-27398" x1="-26410" fill="none"/><line y2="-30807" y1="-30281" x2="-24520" x1="-25428" fill="none"/><line y2="-31899" y1="-30850" x2="-26410" x1="-26410" fill="none"/><line y2="-30391" y1="-30807" x2="-23801" x1="-24520" fill="none"/><line y2="-30807" y1="-30391" x2="-22706" x1="-23426" fill="none"/><line y2="-30281" y1="-30807" x2="-21799" x1="-22706" fill="none"/><line y2="-30807" y1="-30281" x2="-20892" x1="-21799" fill="none"/><line y2="-30281" y1="-30807" x2="-19985" x1="-20892" fill="none"/><line y2="-30807" y1="-30281" x2="-19078" x1="-19985" fill="none"/><line y2="-30281" y1="-30807" x2="-18171" x1="-19078" fill="none"/><line y2="-31636" y1="-30807" x2="-24590" x1="-24590" fill="none"/><line y2="-31636" y1="-30807" x2="-24451" x1="-24451" fill="none"/><line y2="-32315" y1="-31899" x2="-27129" x1="-26410" fill="none"/><line y2="-31899" y1="-32315" x2="-28224" x1="-27508" fill="none"/><line y2="-32422" y1="-31899" x2="-29131" x1="-28224" fill="none"/><line y2="-31899" y1="-32422" x2="-30041" x1="-29131" fill="none"/><line y2="-32422" y1="-31899" x2="-30948" x1="-30041" fill="none"/><line y2="-31899" y1="-32422" x2="-31855" x1="-30948" fill="none"/><line y2="-32422" y1="-31899" x2="-32762" x1="-31855" fill="none"/><line y2="-32375" y1="-31959" x2="-25728" x1="-26444" fill="none"/><line y2="-32254" y1="-31838" x2="-25656" x1="-26375" fill="none"/><text y="-30102" xml:space="preserve" x="-23766" stroke="none" font-size="433.3333" font-family="sans-serif">O</text><text y="-31676" xml:space="preserve" x="-24674" stroke="none" font-size="433.3333" font-family="sans-serif">O</text><text y="-32242" xml:space="preserve" x="-27470" stroke="none" font-size="433.3333" font-family="sans-serif">O</text><text y="-32242" xml:space="preserve" x="-25656" stroke="none" font-size="433.3333" font-family="sans-serif">O</text></g></g></svg>