<svg width="409.08" viewBox="0 0 13636 5947" text-rendering="auto" stroke-width="1" stroke-opacity="1" stroke-miterlimit="10" stroke-linejoin="miter" stroke-linecap="square" stroke-dashoffset="0" stroke-dasharray="none" stroke="black" shape-rendering="auto" image-rendering="auto" height="178.41" font-weight="normal" font-style="normal" font-size="12" font-family="'Dialog'" fill-opacity="1" fill="black" color-rendering="auto" color-interpolation="auto" xmlns="http://www.w3.org/2000/svg"><g><g stroke="white" fill="white"><rect y="0" x="0" width="13636" stroke="none" height="5947"/></g><g transform="translate(32866,32758)" text-rendering="geometricPrecision" stroke-width="44" stroke-linejoin="round" stroke-linecap="round"><line y2="-29146" y1="-30064" x2="-29732" x1="-29732" fill="none"/><line y2="-28576" y1="-29146" x2="-30714" x1="-29732" fill="none"/><line y2="-30391" y1="-30850" x2="-29920" x1="-30714" fill="none"/><line y2="-29146" y1="-28576" x2="-31702" x1="-30714" fill="none"/><line y2="-30850" y1="-30281" x2="-30714" x1="-31702" fill="none"/><line y2="-30281" y1="-29146" x2="-31702" x1="-31702" fill="none"/><line y2="-32202" y1="-31899" x2="-31243" x1="-30714" fill="none"/><line y2="-29189" y1="-28620" x2="-27837" x1="-28825" fill="none"/><line y2="-28972" y1="-28545" x2="-27874" x1="-28617" fill="none"/><line y2="-28620" y1="-27484" x2="-28825" x1="-28825" fill="none"/><line y2="-28620" y1="-29189" x2="-26855" x1="-27837" fill="none"/><line y2="-27484" y1="-26915" x2="-28825" x1="-27837" fill="none"/><line y2="-27560" y1="-27135" x2="-28617" x1="-27874" fill="none"/><line y2="-27484" y1="-28620" x2="-26855" x1="-26855" fill="none"/><line y2="-27626" y1="-28478" x2="-27025" x1="-27025" fill="none"/><line y2="-26915" y1="-27484" x2="-27837" x1="-26855" fill="none"/><line y2="-29146" y1="-28620" x2="-25948" x1="-26855" fill="none"/><line y2="-28620" y1="-29146" x2="-25040" x1="-25948" fill="none"/><line y2="-26959" y1="-27484" x2="-25948" x1="-26855" fill="none"/><line y2="-29177" y1="-28620" x2="-24286" x1="-25040" fill="none"/><line y2="-28620" y1="-27557" x2="-25040" x1="-24711" fill="none"/><line y2="-28539" y1="-27742" x2="-24835" x1="-24590" fill="none"/><line y2="-28620" y1="-29172" x2="-23197" x1="-23908" fill="none"/><line y2="-27557" y1="-27557" x2="-24711" x1="-23564" fill="none"/><line y2="-27557" y1="-28620" x2="-23564" x1="-23197" fill="none"/><line y2="-27747" y1="-28542" x2="-23680" x1="-23405" fill="none"/><line y2="-29146" y1="-28620" x2="-22290" x1="-23197" fill="none"/><line y2="-30281" y1="-29146" x2="-22290" x1="-22290" fill="none"/><line y2="-30139" y1="-29287" x2="-22120" x1="-22120" fill="none"/><line y2="-29146" y1="-28576" x2="-22290" x1="-21302" fill="none"/><line y2="-30850" y1="-30281" x2="-21302" x1="-22290" fill="none"/><line y2="-28576" y1="-29146" x2="-21302" x1="-20320" fill="none"/><line y2="-28793" y1="-29221" x2="-21265" x1="-20528" fill="none"/><line y2="-30281" y1="-30850" x2="-20320" x1="-21302" fill="none"/><line y2="-30206" y1="-30633" x2="-20528" x1="-21265" fill="none"/><line y2="-29146" y1="-30281" x2="-20320" x1="-20320" fill="none"/><line y2="-30697" y1="-30281" x2="-19601" x1="-20320" fill="none"/><polygon stroke-width="1" stroke="none" points=" -29732 -29146 -28790 -28680 -28857 -28559"/><polygon stroke-width="1" points=" -29732 -29146 -28790 -28680 -28857 -28559" fill="none"/><polygon stroke-width="1" stroke="none" points=" -30714 -30850 -30784 -31899 -30645 -31899"/><polygon stroke-width="1" points=" -30714 -30850 -30784 -31899 -30645 -31899" fill="none"/><polygon stroke-width="1" stroke="none" points=" -31702 -29146 -32193 -28782 -32263 -28900"/><polygon stroke-width="1" points=" -31702 -29146 -32193 -28782 -32263 -28900" fill="none"/><line y2="-27747" y1="-27747" x2="-30784" x1="-30645" fill="none"/><line y2="-27964" y1="-27964" x2="-30766" x1="-30663" fill="none"/><line y2="-28180" y1="-28180" x2="-30747" x1="-30681" fill="none"/><line y2="-28397" y1="-28397" x2="-30729" x1="-30699" fill="none"/><line y2="-30645" y1="-30526" x2="-32193" x1="-32263" fill="none"/><line y2="-30515" y1="-30439" x2="-32018" x1="-32063" fill="none"/><line y2="-30385" y1="-30351" x2="-31843" x1="-31863" fill="none"/><text y="-27349" xml:space="preserve" x="-30867" stroke="none" font-size="433.3333" font-family="sans-serif">OH</text><text y="-32242" xml:space="preserve" x="-31774" stroke="none" font-size="433.3333" font-family="sans-serif">OH</text><text y="-28441" xml:space="preserve" x="-32762" stroke="none" font-size="433.3333" font-family="sans-serif">OH</text><text y="-30628" xml:space="preserve" x="-32762" stroke="none" font-size="433.3333" font-family="sans-serif">OH</text><text y="-30628" xml:space="preserve" x="-19566" stroke="none" font-size="433.3333" font-family="sans-serif">F</text><text y="-30102" xml:space="preserve" x="-29882" stroke="none" font-size="433.3333" font-family="sans-serif">O</text><text y="-29137" xml:space="preserve" x="-24249" stroke="none" font-size="433.3333" font-family="sans-serif">S</text><text y="-29108" xml:space="preserve" x="-30134" stroke="none" font-style="italic" font-size="313.3333" font-family="sans-serif">S</text><text y="-28698" xml:space="preserve" x="-30867" stroke="none" font-style="italic" font-size="313.3333" font-family="sans-serif">R</text><text y="-30370" xml:space="preserve" x="-30867" stroke="none" font-style="italic" font-size="313.3333" font-family="sans-serif">R</text><text y="-29108" xml:space="preserve" x="-31604" stroke="none" font-style="italic" font-size="313.3333" font-family="sans-serif">R</text><text y="-29960" xml:space="preserve" x="-31604" stroke="none" font-style="italic" font-size="313.3333" font-family="sans-serif">S</text></g></g></svg>