<svg width="288.3" viewBox="0 0 9610 4818" text-rendering="auto" stroke-width="1" stroke-opacity="1" stroke-miterlimit="10" stroke-linejoin="miter" stroke-linecap="square" stroke-dashoffset="0" stroke-dasharray="none" stroke="black" shape-rendering="auto" image-rendering="auto" height="144.54" font-weight="normal" font-style="normal" font-size="12" font-family="'Dialog'" fill-opacity="1" fill="black" color-rendering="auto" color-interpolation="auto" xmlns="http://www.w3.org/2000/svg"><g><g stroke="white" fill="white"><rect y="0" x="0" width="9610" stroke="none" height="4818"/></g><g transform="translate(32866,32866)" text-rendering="geometricPrecision" stroke-width="44" stroke-linejoin="round" stroke-linecap="round"><line y2="-30044" y1="-31191" x2="-28550" x1="-28550" fill="none"/><line y2="-30188" y1="-31046" x2="-28721" x1="-28721" fill="none"/><line y2="-31763" y1="-31191" x2="-27568" x1="-28550" fill="none"/><line y2="-31191" y1="-31763" x2="-28550" x1="-29533" fill="none"/><line y2="-29472" y1="-30044" x2="-29533" x1="-28550" fill="none"/><line y2="-30044" y1="-29472" x2="-28550" x1="-27568" fill="none"/><line y2="-31191" y1="-31763" x2="-26586" x1="-27568" fill="none"/><line y2="-31116" y1="-31546" x2="-26794" x1="-27531" fill="none"/><line y2="-31763" y1="-31191" x2="-29533" x1="-30515" fill="none"/><line y2="-31546" y1="-31116" x2="-29570" x1="-30307" fill="none"/><line y2="-30044" y1="-29472" x2="-30515" x1="-29533" fill="none"/><line y2="-30119" y1="-29689" x2="-30307" x1="-29570" fill="none"/><line y2="-29472" y1="-30044" x2="-27568" x1="-26586" fill="none"/><line y2="-29689" y1="-30119" x2="-27531" x1="-26794" fill="none"/><line y2="-30044" y1="-31191" x2="-26586" x1="-26586" fill="none"/><line y2="-31191" y1="-30044" x2="-30515" x1="-30515" fill="none"/><line y2="-31714" y1="-31191" x2="-25679" x1="-26586" fill="none"/><line y2="-29628" y1="-30044" x2="-31234" x1="-30515" fill="none"/><line y2="-29876" y1="-29628" x2="-32040" x1="-31610" fill="none"/><line y2="-28643" y1="-29472" x2="-29533" x1="-29533" fill="none"/><line y2="-31191" y1="-31714" x2="-24772" x1="-25679" fill="none"/><line y2="-31607" y1="-31191" x2="-24052" x1="-24772" fill="none"/><line y2="-30362" y1="-31191" x2="-24702" x1="-24702" fill="none"/><line y2="-30362" y1="-31191" x2="-24841" x1="-24841" fill="none"/><line y2="-32762" y1="-32762" x2="-25610" x1="-25748" fill="none"/><line y2="-32545" y1="-32545" x2="-25624" x1="-25734" fill="none"/><line y2="-32329" y1="-32329" x2="-25639" x1="-25719" fill="none"/><line y2="-32112" y1="-32112" x2="-25653" x1="-25705" fill="none"/><line y2="-31895" y1="-31895" x2="-25667" x1="-25691" fill="none"/><text y="-28244" xml:space="preserve" x="-29764" stroke="none" font-size="433.3333" font-family="sans-serif">Br</text><text y="-31535" xml:space="preserve" x="-24015" stroke="none" font-size="433.3333" font-family="sans-serif">OH</text><text y="-29963" xml:space="preserve" x="-24922" stroke="none" font-size="433.3333" font-family="sans-serif">O</text><text y="-29342" xml:space="preserve" x="-31575" stroke="none" font-size="433.3333" font-family="sans-serif">O</text><text y="-30027" xml:space="preserve" x="-32762" stroke="none" font-size="433.3333" font-family="sans-serif">CH</text><text y="-29937" xml:space="preserve" x="-32185" stroke="none" font-size="313.3333" font-family="sans-serif">3</text><text y="-31234" xml:space="preserve" x="-25829" stroke="none" font-style="italic" font-size="313.3333" font-family="sans-serif">S</text></g></g></svg>