<svg width="276.9" viewBox="0 0 9230 9063" text-rendering="auto" stroke-width="1" stroke-opacity="1" stroke-miterlimit="10" stroke-linejoin="miter" stroke-linecap="square" stroke-dashoffset="0" stroke-dasharray="none" stroke="black" shape-rendering="auto" image-rendering="auto" height="271.89" font-weight="normal" font-style="normal" font-size="12" font-family="'Dialog'" fill-opacity="1" fill="black" color-rendering="auto" color-interpolation="auto" xmlns="http://www.w3.org/2000/svg"><g><g stroke="white" fill="white"><rect y="0" x="0" width="9230" stroke="none" height="9063"/></g><g transform="translate(32866,32758)" text-rendering="geometricPrecision" stroke-width="44" stroke-linejoin="round" stroke-linecap="round"><line y2="-27453" y1="-26254" x2="-29793" x1="-29793" fill="none"/><line y2="-26254" y1="-26254" x2="-29793" x1="-27716" fill="none"/><line y2="-26424" y1="-26424" x2="-29533" x1="-27976" fill="none"/><line y2="-26254" y1="-26254" x2="-31870" x1="-29793" fill="none"/><line y2="-27453" y1="-28054" x2="-29793" x1="-30830" fill="none"/><line y2="-27380" y1="-27831" x2="-30009" x1="-30786" fill="none"/><line y2="-28054" y1="-27453" x2="-28753" x1="-29793" fill="none"/><line y2="-26254" y1="-27233" x2="-27716" x1="-27716" fill="none"/><line y2="-27233" y1="-26254" x2="-31870" x1="-31870" fill="none"/><line y2="-28054" y1="-27672" x2="-30830" x1="-31488" fill="none"/><line y2="-27562" y1="-28054" x2="-27906" x1="-28753" fill="none"/><line y2="-25731" y1="-26254" x2="-26808" x1="-27716" fill="none"/><line y2="-29099" y1="-28054" x2="-30830" x1="-30830" fill="none"/><line y2="-25653" y1="-26205" x2="-32372" x1="-31821" fill="none"/><line y2="-25751" y1="-26303" x2="-32471" x1="-31919" fill="none"/><line y2="-28880" y1="-28054" x2="-28825" x1="-28825" fill="none"/><line y2="-28880" y1="-28054" x2="-28683" x1="-28683" fill="none"/><line y2="-25731" y1="-24593" x2="-26808" x1="-26808" fill="none"/><line y2="-25589" y1="-24737" x2="-26641" x1="-26641" fill="none"/><line y2="-26300" y1="-25731" x2="-25823" x1="-26808" fill="none"/><line y2="-24593" y1="-24024" x2="-26808" x1="-25823" fill="none"/><line y2="-25731" y1="-26300" x2="-24838" x1="-25823" fill="none"/><line y2="-25656" y1="-26083" x2="-25046" x1="-25786" fill="none"/><line y2="-24024" y1="-24593" x2="-25823" x1="-24838" fill="none"/><line y2="-24243" y1="-24671" x2="-25786" x1="-25046" fill="none"/><line y2="-24593" y1="-25731" x2="-24838" x1="-24838" fill="none"/><line y2="-24266" y1="-24593" x2="-24272" x1="-24838" fill="none"/><line y2="-29668" y1="-29099" x2="-31818" x1="-30830" fill="none"/><line y2="-29746" y1="-29319" x2="-31607" x1="-30867" fill="none"/><line y2="-29099" y1="-29668" x2="-30830" x1="-29848" fill="none"/><line y2="-30807" y1="-29668" x2="-31818" x1="-31818" fill="none"/><line y2="-29668" y1="-30807" x2="-29848" x1="-29848" fill="none"/><line y2="-29810" y1="-30665" x2="-30018" x1="-30018" fill="none"/><line y2="-31376" y1="-30807" x2="-30830" x1="-31818" fill="none"/><line y2="-31156" y1="-30729" x2="-30867" x1="-31607" fill="none"/><line y2="-30807" y1="-31376" x2="-29848" x1="-30830" fill="none"/><line y2="-32202" y1="-31376" x2="-30830" x1="-30830" fill="none"/><text y="-25335" xml:space="preserve" x="-32762" stroke="none" font-size="433.3333" font-family="sans-serif">O</text><text y="-28920" xml:space="preserve" x="-28906" stroke="none" font-size="433.3333" font-family="sans-serif">O</text><text y="-23891" xml:space="preserve" x="-24165" stroke="none" font-size="433.3333" font-family="sans-serif">Cl</text><text y="-32242" xml:space="preserve" x="-31061" stroke="none" font-size="433.3333" font-family="sans-serif">Cl</text><text y="-27274" xml:space="preserve" x="-27869" stroke="none" font-size="433.3333" font-family="sans-serif">NH</text><text y="-27274" xml:space="preserve" x="-32023" stroke="none" font-size="433.3333" font-family="sans-serif">NH</text></g></g></svg>