<svg width="127.92" viewBox="0 0 4264 3346" text-rendering="auto" stroke-width="1" stroke-opacity="1" stroke-miterlimit="10" stroke-linejoin="miter" stroke-linecap="square" stroke-dashoffset="0" stroke-dasharray="none" stroke="black" shape-rendering="auto" image-rendering="auto" height="100.38" font-weight="normal" font-style="normal" font-size="12" font-family="'Dialog'" fill-opacity="1" fill="black" color-rendering="auto" color-interpolation="auto" xmlns="http://www.w3.org/2000/svg"><g><g stroke="white" fill="white"><rect y="0" x="0" width="4264" stroke="none" height="3346"/></g><g transform="translate(32866,32758)" text-rendering="geometricPrecision" stroke-width="44" stroke-linejoin="round" stroke-linecap="round"><line y2="-29787" y1="-30850" x2="-31289" x1="-30922" fill="none"/><line y2="-29975" y1="-30772" x2="-31405" x1="-31127" fill="none"/><line y2="-30850" y1="-31327" x2="-30922" x1="-31538" fill="none"/><line y2="-29787" y1="-29787" x2="-32248" x1="-31289" fill="none"/><line y2="-31408" y1="-30850" x2="-32008" x1="-32762" fill="none"/><line y2="-30850" y1="-30006" x2="-32762" x1="-32502" fill="none"/><line y2="-30795" y1="-30162" x2="-32569" x1="-32372" fill="none"/><line y2="-31376" y1="-30850" x2="-30015" x1="-30922" fill="none"/><line y2="-30960" y1="-31376" x2="-29296" x1="-30015" fill="none"/><line y2="-32202" y1="-31376" x2="-30084" x1="-30084" fill="none"/><line y2="-32202" y1="-31376" x2="-29943" x1="-29943" fill="none"/><text y="-32242" xml:space="preserve" x="-30165" stroke="none" font-size="433.3333" font-family="sans-serif">S</text><text y="-30671" xml:space="preserve" x="-29258" stroke="none" font-size="433.3333" font-family="sans-serif">SH</text><text y="-31367" xml:space="preserve" x="-31974" stroke="none" font-size="433.3333" font-family="sans-serif">NH</text><text y="-29608" xml:space="preserve" x="-32589" stroke="none" font-size="433.3333" font-family="sans-serif">N</text></g></g></svg>