<svg width="342.9" viewBox="0 0 11430 4808" text-rendering="auto" stroke-width="1" stroke-opacity="1" stroke-miterlimit="10" stroke-linejoin="miter" stroke-linecap="square" stroke-dashoffset="0" stroke-dasharray="none" stroke="black" shape-rendering="auto" image-rendering="auto" height="144.24" font-weight="normal" font-style="normal" font-size="12" font-family="'Dialog'" fill-opacity="1" fill="black" color-rendering="auto" color-interpolation="auto" xmlns="http://www.w3.org/2000/svg"><g><g stroke="white" fill="white"><rect y="0" x="0" width="11430" stroke="none" height="4808"/></g><g transform="translate(32866,32758)" text-rendering="geometricPrecision" stroke-width="44" stroke-linejoin="round" stroke-linecap="round"><line y2="-29668" y1="-29668" x2="-29735" x1="-27950" fill="none"/><line y2="-30807" y1="-29668" x2="-29735" x1="-29735" fill="none"/><line y2="-29209" y1="-29668" x2="-30529" x1="-29735" fill="none"/><line y2="-29411" y1="-29758" x2="-30515" x1="-29917" fill="none"/><line y2="-29888" y1="-30807" x2="-27762" x1="-27762" fill="none"/><line y2="-31266" y1="-30807" x2="-28935" x1="-29735" fill="none"/><line y2="-30807" y1="-31376" x2="-29735" x1="-30717" fill="none"/><line y2="-30729" y1="-31156" x2="-29943" x1="-30680" fill="none"/><line y2="-29668" y1="-29209" x2="-31705" x1="-30905" fill="none"/><line y2="-30807" y1="-31266" x2="-27762" x1="-28559" fill="none"/><line y2="-30717" y1="-31061" x2="-27947" x1="-28545" fill="none"/><line y2="-31376" y1="-30914" x2="-30717" x1="-31517" fill="none"/><line y2="-30587" y1="-29668" x2="-31705" x1="-31705" fill="none"/><line y2="-30472" y1="-29784" x2="-31535" x1="-31535" fill="none"/><line y2="-29146" y1="-29562" x2="-26855" x1="-27574" fill="none"/><line y2="-29668" y1="-29146" x2="-25948" x1="-26855" fill="none"/><line y2="-29365" y1="-29668" x2="-32231" x1="-31705" fill="none"/><line y2="-32202" y1="-31376" x2="-30717" x1="-30717" fill="none"/><line y2="-29668" y1="-29099" x2="-25948" x1="-24965" fill="none"/><line y2="-29744" y1="-29319" x2="-25740" x1="-25003" fill="none"/><line y2="-30587" y1="-29668" x2="-25948" x1="-25948" fill="none"/><line y2="-29099" y1="-29668" x2="-24965" x1="-23977" fill="none"/><line y2="-31376" y1="-30914" x2="-24965" x1="-25760" fill="none"/><line y2="-31171" y1="-30824" x2="-24980" x1="-25575" fill="none"/><line y2="-29668" y1="-30807" x2="-23977" x1="-23977" fill="none"/><line y2="-29810" y1="-30665" x2="-24148" x1="-24148" fill="none"/><line y2="-30807" y1="-31376" x2="-23977" x1="-24965" fill="none"/><line y2="-28054" y1="-29099" x2="-24965" x1="-24965" fill="none"/><line y2="-31330" y1="-30807" x2="-23070" x1="-23977" fill="none"/><line y2="-29252" y1="-29668" x2="-23258" x1="-23977" fill="none"/><line y2="-29562" y1="-29252" x2="-22351" x1="-22882" fill="none"/><text y="-32242" xml:space="preserve" x="-30948" stroke="none" font-size="433.3333" font-family="sans-serif">Cl</text><text y="-28966" xml:space="preserve" x="-32762" stroke="none" font-size="433.3333" font-family="sans-serif">NH</text><text y="-28877" xml:space="preserve" x="-32185" stroke="none" font-size="313.3333" font-family="sans-serif">2</text><text y="-28966" xml:space="preserve" x="-23223" stroke="none" font-size="433.3333" font-family="sans-serif">O</text><text y="-29489" xml:space="preserve" x="-22316" stroke="none" font-size="433.3333" font-family="sans-serif">CH</text><text y="-29400" xml:space="preserve" x="-21738" stroke="none" font-size="313.3333" font-family="sans-serif">3</text><text y="-29489" xml:space="preserve" x="-27915" stroke="none" font-size="433.3333" font-family="sans-serif">N</text><text y="-28920" xml:space="preserve" x="-30870" stroke="none" font-size="433.3333" font-family="sans-serif">N</text><text y="-31197" xml:space="preserve" x="-28897" stroke="none" font-size="433.3333" font-family="sans-serif">N</text><text y="-30628" xml:space="preserve" x="-31855" stroke="none" font-size="433.3333" font-family="sans-serif">N</text><text y="-30628" xml:space="preserve" x="-26101" stroke="none" font-size="433.3333" font-family="sans-serif">N</text></g></g></svg>