<svg width="369.63" viewBox="0 0 12321 10303" text-rendering="auto" stroke-width="1" stroke-opacity="1" stroke-miterlimit="10" stroke-linejoin="miter" stroke-linecap="square" stroke-dashoffset="0" stroke-dasharray="none" stroke="black" shape-rendering="auto" image-rendering="auto" height="309.09" font-weight="normal" font-style="normal" font-size="12" font-family="'Dialog'" fill-opacity="1" fill="black" color-rendering="auto" color-interpolation="auto" xmlns="http://www.w3.org/2000/svg"><g><g stroke="white" fill="white"><rect y="0" x="0" width="12321" stroke="none" height="10303"/></g><g transform="translate(32866,32758)" text-rendering="geometricPrecision" stroke-width="44" stroke-linejoin="round" stroke-linecap="round"><line y2="-24266" y1="-24671" x2="-22620" x1="-23319" fill="none"/><line y2="-24168" y1="-24471" x2="-22793" x1="-23316" fill="none"/><line y2="-24726" y1="-24266" x2="-23792" x1="-24590" fill="none"/><line y2="-23128" y1="-24266" x2="-22620" x1="-22620" fill="none"/><line y2="-24835" y1="-24266" x2="-21632" x1="-22620" fill="none"/><line y2="-24266" y1="-23128" x2="-24590" x1="-24590" fill="none"/><line y2="-24125" y1="-23270" x2="-24419" x1="-24419" fill="none"/><line y2="-23128" y1="-23128" x2="-22620" x1="-20649" fill="none"/><line y2="-22559" y1="-23128" x2="-23605" x1="-22620" fill="none"/><line y2="-22778" y1="-23206" x2="-23567" x1="-22828" fill="none"/><line y2="-24266" y1="-24835" x2="-20649" x1="-21632" fill="none"/><line y2="-23128" y1="-22559" x2="-24590" x1="-23605" fill="none"/><line y2="-23128" y1="-24266" x2="-20649" x1="-20649" fill="none"/><line y2="-26505" y1="-25055" x2="-23605" x1="-23605" fill="none"/><line y2="-27031" y1="-26505" x2="-24509" x1="-23605" fill="none"/><line y2="-28166" y1="-27248" x2="-26482" x1="-26482" fill="none"/><line y2="-26921" y1="-26462" x2="-26294" x1="-25494" fill="none"/><line y2="-27031" y1="-27031" x2="-27617" x1="-26670" fill="none"/><line y2="-28166" y1="-28166" x2="-26482" x1="-27617" fill="none"/><line y2="-28628" y1="-28166" x2="-25682" x1="-26482" fill="none"/><line y2="-26462" y1="-27031" x2="-25494" x1="-24509" fill="none"/><line y2="-26678" y1="-27106" x2="-25456" x1="-24717" fill="none"/><line y2="-28166" y1="-27031" x2="-27617" x1="-27617" fill="none"/><line y2="-28166" y1="-28628" x2="-24509" x1="-25306" fill="none"/><line y2="-27031" y1="-28166" x2="-24509" x1="-24509" fill="none"/><line y2="-29738" y1="-28909" x2="-28524" x1="-28524" fill="none"/><line y2="-25413" y1="-26462" x2="-25494" x1="-25494" fill="none"/><line y2="-26427" y1="-26979" x2="-28123" x1="-27568" fill="none"/><line y2="-26525" y1="-27080" x2="-28221" x1="-27666" fill="none"/><line y2="-30261" y1="-29738" x2="-29432" x1="-28524" fill="none"/><line y2="-30214" y1="-29798" x2="-27840" x1="-28559" fill="none"/><line y2="-30093" y1="-29677" x2="-27770" x1="-28490" fill="none"/><line y2="-24997" y1="-25413" x2="-26213" x1="-25494" fill="none"/><line y2="-25058" y1="-25474" x2="-24740" x1="-25459" fill="none"/><line y2="-24936" y1="-25352" x2="-24809" x1="-25529" fill="none"/><line y2="-30191" y1="-30191" x2="-30292" x1="-29432" fill="none"/><line y2="-30333" y1="-30333" x2="-30292" x1="-29432" fill="none"/><line y2="-31358" y1="-30261" x2="-27528" x1="-29432" fill="none"/><line y2="-29845" y1="-30154" x2="-31200" x1="-30668" fill="none"/><line y2="-30113" y1="-29845" x2="-32040" x1="-31575" fill="none"/><line y2="-32422" y1="-31358" x2="-27161" x1="-27528" fill="none"/><line y2="-32234" y1="-31436" x2="-27045" x1="-27323" fill="none"/><line y2="-31358" y1="-30807" x2="-27528" x1="-26817" fill="none"/><line y2="-32422" y1="-32422" x2="-26202" x1="-27161" fill="none"/><line y2="-30801" y1="-31358" x2="-26442" x1="-25688" fill="none"/><line y2="-31009" y1="-31425" x2="-26447" x1="-25881" fill="none"/><line y2="-31358" y1="-32202" x2="-25688" x1="-25948" fill="none"/><line y2="-31110" y1="-31358" x2="-24873" x1="-25688" fill="none"/><polygon stroke-width="1" stroke="none" points=" -27617 -28166 -28178 -28412 -28108 -28530"/><polygon stroke-width="1" points=" -27617 -28166 -28178 -28412 -28108 -28530" fill="none"/><line y2="-28995" y1="-28995" x2="-26413" x1="-26551" fill="none"/><line y2="-28778" y1="-28778" x2="-26431" x1="-26533" fill="none"/><line y2="-28562" y1="-28562" x2="-26449" x1="-26515" fill="none"/><line y2="-28345" y1="-28345" x2="-26467" x1="-26497" fill="none"/><text y="-24711" xml:space="preserve" x="-26554" stroke="none" font-size="433.3333" font-family="sans-serif">O</text><text y="-24711" xml:space="preserve" x="-24740" stroke="none" font-size="433.3333" font-family="sans-serif">O</text><text y="-26109" xml:space="preserve" x="-28510" stroke="none" font-size="433.3333" font-family="sans-serif">O</text><text y="-28510" xml:space="preserve" x="-28678" stroke="none" font-size="433.3333" font-family="sans-serif">NH</text><text y="-30082" xml:space="preserve" x="-27768" stroke="none" font-size="433.3333" font-family="sans-serif">O</text><text y="-30082" xml:space="preserve" x="-30633" stroke="none" font-size="433.3333" font-family="sans-serif">N</text><text y="-29559" xml:space="preserve" x="-31540" stroke="none" font-size="433.3333" font-family="sans-serif">O</text><text y="-30266" xml:space="preserve" x="-32762" stroke="none" font-size="433.3333" font-family="sans-serif">CH</text><text y="-30177" xml:space="preserve" x="-32185" stroke="none" font-size="313.3333" font-family="sans-serif">3</text><text y="-30873" xml:space="preserve" x="-24835" stroke="none" font-size="433.3333" font-family="sans-serif">NH</text><text y="-30784" xml:space="preserve" x="-24258" stroke="none" font-size="313.3333" font-family="sans-serif">2</text><text y="-26852" xml:space="preserve" x="-26632" stroke="none" font-size="433.3333" font-family="sans-serif">N</text><text y="-28556" xml:space="preserve" x="-25647" stroke="none" font-size="433.3333" font-family="sans-serif">S</text><text y="-24656" xml:space="preserve" x="-23755" stroke="none" font-size="433.3333" font-family="sans-serif">N</text><text y="-30483" xml:space="preserve" x="-26782" stroke="none" font-size="433.3333" font-family="sans-serif">N</text><text y="-32242" xml:space="preserve" x="-26167" stroke="none" font-size="433.3333" font-family="sans-serif">S</text><text y="-29036" xml:space="preserve" x="-26632" stroke="none" font-size="433.3333" font-family="sans-serif">H</text><text y="-29686" xml:space="preserve" x="-30012" stroke="none" font-style="italic" font-size="313.3333" font-family="sans-serif">Z</text><text y="-24766" xml:space="preserve" x="-26875" stroke="none" font-size="313.3333" font-family="sans-serif">-</text><text y="-24711" xml:space="preserve" x="-23434" stroke="none" font-size="313.3333" font-family="sans-serif">+</text><text y="-27843" xml:space="preserve" x="-26384" stroke="none" font-style="italic" font-size="313.3333" font-family="sans-serif">R</text><text y="-27713" xml:space="preserve" x="-27525" stroke="none" font-style="italic" font-size="313.3333" font-family="sans-serif">R</text></g></g></svg>