<svg width="649.11" viewBox="0 0 21637 8234" text-rendering="auto" stroke-width="1" stroke-opacity="1" stroke-miterlimit="10" stroke-linejoin="miter" stroke-linecap="square" stroke-dashoffset="0" stroke-dasharray="none" stroke="black" shape-rendering="auto" image-rendering="auto" height="247.02" font-weight="normal" font-style="normal" font-size="12" font-family="'Dialog'" fill-opacity="1" fill="black" color-rendering="auto" color-interpolation="auto" xmlns="http://www.w3.org/2000/svg"><g><g stroke="white" fill="white"><rect y="0" x="0" width="21637" stroke="none" height="8234"/></g><g transform="translate(32866,32758)" text-rendering="geometricPrecision" stroke-width="44" stroke-linejoin="round" stroke-linecap="round"><line y2="-28565" y1="-29183" x2="-18965" x1="-19765" fill="none"/><line y2="-28510" y1="-28972" x2="-19170" x1="-19768" fill="none"/><line y2="-27620" y1="-28565" x2="-19294" x1="-18965" fill="none"/><line y2="-29189" y1="-28704" x2="-20141" x1="-20797" fill="none"/><line y2="-27401" y1="-27401" x2="-20438" x1="-19557" fill="none"/><line y2="-27571" y1="-27571" x2="-20329" x1="-19667" fill="none"/><line y2="-28345" y1="-27620" x2="-20918" x1="-20693" fill="none"/><line y2="-29091" y1="-28565" x2="-18058" x1="-18965" fill="none"/><line y2="-29091" y1="-28675" x2="-21892" x1="-21172" fill="none"/><line y2="-29091" y1="-28522" x2="-18058" x1="-17076" fill="none"/><line y2="-29166" y1="-28738" x2="-17850" x1="-17113" fill="none"/><line y2="-30226" y1="-29091" x2="-18058" x1="-18058" fill="none"/><line y2="-28522" y1="-29091" x2="-17076" x1="-16088" fill="none"/><line y2="-30795" y1="-30226" x2="-17076" x1="-18058" fill="none"/><line y2="-30578" y1="-30151" x2="-17113" x1="-17850" fill="none"/><line y2="-29091" y1="-30226" x2="-16088" x1="-16088" fill="none"/><line y2="-29232" y1="-30084" x2="-16258" x1="-16258" fill="none"/><line y2="-30226" y1="-30795" x2="-16088" x1="-17076" fill="none"/><line y2="-26690" y1="-28522" x2="-17076" x1="-17076" fill="none"/><line y2="-25948" y1="-26251" x2="-16169" x1="-16697" fill="none"/><line y2="-31624" y1="-30795" x2="-17076" x1="-17076" fill="none"/><line y2="-32260" y1="-31954" x2="-16356" x1="-16888" fill="none"/><line y2="-30642" y1="-30226" x2="-15368" x1="-16088" fill="none"/><line y2="-30336" y1="-30642" x2="-14461" x1="-14993" fill="none"/><line y2="-29091" y1="-30226" x2="-21892" x1="-21892" fill="none"/><line y2="-29232" y1="-30084" x2="-22062" x1="-22062" fill="none"/><line y2="-28522" y1="-29091" x2="-22877" x1="-21892" fill="none"/><line y2="-30226" y1="-30795" x2="-21892" x1="-22877" fill="none"/><line y2="-29091" y1="-28522" x2="-23862" x1="-22877" fill="none"/><line y2="-29166" y1="-28741" x2="-23654" x1="-22914" fill="none"/><line y2="-30795" y1="-30226" x2="-22877" x1="-23862" fill="none"/><line y2="-30578" y1="-30151" x2="-22914" x1="-23654" fill="none"/><line y2="-30226" y1="-29091" x2="-23862" x1="-23862" fill="none"/><line y2="-30752" y1="-30226" x2="-24769" x1="-23862" fill="none"/><line y2="-30226" y1="-30752" x2="-25676" x1="-24769" fill="none"/><line y2="-30642" y1="-30226" x2="-26395" x1="-25676" fill="none"/><line y2="-26470" y1="-25948" x2="-15262" x1="-16169" fill="none"/><line y2="-25118" y1="-25948" x2="-16099" x1="-16099" fill="none"/><line y2="-25118" y1="-25948" x2="-16238" x1="-16238" fill="none"/><line y2="-30177" y1="-30642" x2="-27565" x1="-26771" fill="none"/><line y2="-30971" y1="-31899" x2="-26583" x1="-26583" fill="none"/><line y2="-30752" y1="-30177" x2="-28548" x1="-27565" fill="none"/><line y2="-31899" y1="-32471" x2="-26583" x1="-27565" fill="none"/><line y2="-31899" y1="-30752" x2="-28548" x1="-28548" fill="none"/><line y2="-30177" y1="-30752" x2="-29530" x1="-28548" fill="none"/><line y2="-30396" y1="-30827" x2="-29495" x1="-28758" fill="none"/><line y2="-32471" y1="-31899" x2="-27565" x1="-28548" fill="none"/><line y2="-31899" y1="-32471" x2="-28548" x1="-29530" fill="none"/><line y2="-31824" y1="-32251" x2="-28758" x1="-29495" fill="none"/><line y2="-30752" y1="-30177" x2="-30515" x1="-29530" fill="none"/><line y2="-32471" y1="-31899" x2="-29530" x1="-30515" fill="none"/><line y2="-31899" y1="-30752" x2="-30515" x1="-30515" fill="none"/><line y2="-31754" y1="-30893" x2="-30344" x1="-30344" fill="none"/><line y2="-30336" y1="-30752" x2="-31231" x1="-30515" fill="none"/><line y2="-30584" y1="-30336" x2="-32037" x1="-31610" fill="none"/><line y2="-32312" y1="-31899" x2="-31231" x1="-30515" fill="none"/><line y2="-32066" y1="-32312" x2="-32037" x1="-31610" fill="none"/><line y2="-26470" y1="-26008" x2="-15262" x1="-14467" fill="none"/><line y2="-27617" y1="-26470" x2="-15262" x1="-15262" fill="none"/><line y2="-27473" y1="-26615" x2="-15091" x1="-15091" fill="none"/><line y2="-26008" y1="-26470" x2="-14092" x1="-13297" fill="none"/><line y2="-28189" y1="-27617" x2="-14279" x1="-15262" fill="none"/><line y2="-27617" y1="-26470" x2="-13297" x1="-13297" fill="none"/><line y2="-26470" y1="-25898" x2="-13297" x1="-12315" fill="none"/><line y2="-26546" y1="-26115" x2="-13089" x1="-12350" fill="none"/><line y2="-27617" y1="-28189" x2="-13297" x1="-14279" fill="none"/><line y2="-28189" y1="-27617" x2="-12315" x1="-13297" fill="none"/><line y2="-27973" y1="-27542" x2="-12350" x1="-13089" fill="none"/><line y2="-25898" y1="-26470" x2="-12315" x1="-11333" fill="none"/><line y2="-27617" y1="-28189" x2="-11333" x1="-12315" fill="none"/><line y2="-26470" y1="-27617" x2="-11333" x1="-11333" fill="none"/><line y2="-26615" y1="-27473" x2="-11503" x1="-11503" fill="none"/><line y2="-29018" y1="-28189" x2="-14349" x1="-14349" fill="none"/><line y2="-29018" y1="-28189" x2="-14210" x1="-14210" fill="none"/><text y="-26291" xml:space="preserve" x="-17229" stroke="none" font-size="433.3333" font-family="sans-serif">NH</text><text y="-24720" xml:space="preserve" x="-16322" stroke="none" font-size="433.3333" font-family="sans-serif">O</text><text y="-31665" xml:space="preserve" x="-17229" stroke="none" font-size="433.3333" font-family="sans-serif">O</text><text y="-32188" xml:space="preserve" x="-16322" stroke="none" font-size="433.3333" font-family="sans-serif">CH</text><text y="-32098" xml:space="preserve" x="-15744" stroke="none" font-size="313.3333" font-family="sans-serif">3</text><text y="-30573" xml:space="preserve" x="-15334" stroke="none" font-size="433.3333" font-family="sans-serif">O</text><text y="-30047" xml:space="preserve" x="-14427" stroke="none" font-size="433.3333" font-family="sans-serif">CH</text><text y="-29957" xml:space="preserve" x="-13849" stroke="none" font-size="313.3333" font-family="sans-serif">3</text><text y="-29059" xml:space="preserve" x="-14432" stroke="none" font-size="433.3333" font-family="sans-serif">O</text><text y="-30047" xml:space="preserve" x="-31572" stroke="none" font-size="433.3333" font-family="sans-serif">O</text><text y="-30734" xml:space="preserve" x="-32762" stroke="none" font-size="433.3333" font-family="sans-serif">CH</text><text y="-30645" xml:space="preserve" x="-32185" stroke="none" font-size="313.3333" font-family="sans-serif">3</text><text y="-32242" xml:space="preserve" x="-31572" stroke="none" font-size="433.3333" font-family="sans-serif">O</text><text y="-31668" xml:space="preserve" x="-32572" stroke="none" font-size="433.3333" font-family="sans-serif">CH</text><text y="-31578" xml:space="preserve" x="-31994" stroke="none" font-size="313.3333" font-family="sans-serif">3</text><text y="-29148" xml:space="preserve" x="-20103" stroke="none" font-size="433.3333" font-family="sans-serif">N</text><text y="-27222" xml:space="preserve" x="-19523" stroke="none" font-size="433.3333" font-family="sans-serif">N</text><text y="-28386" xml:space="preserve" x="-21138" stroke="none" font-size="433.3333" font-family="sans-serif">N</text><text y="-27222" xml:space="preserve" x="-20779" stroke="none" font-size="433.3333" font-family="sans-serif">N</text><text y="-25719" xml:space="preserve" x="-14432" stroke="none" font-size="433.3333" font-family="sans-serif">O</text><text y="-30573" xml:space="preserve" x="-26736" stroke="none" font-size="433.3333" font-family="sans-serif">N</text></g></g></svg>