<svg width="193.83" viewBox="0 0 6461 5039" text-rendering="auto" stroke-width="1" stroke-opacity="1" stroke-miterlimit="10" stroke-linejoin="miter" stroke-linecap="square" stroke-dashoffset="0" stroke-dasharray="none" stroke="black" shape-rendering="auto" image-rendering="auto" height="151.17" font-weight="normal" font-style="normal" font-size="12" font-family="'Dialog'" fill-opacity="1" fill="black" color-rendering="auto" color-interpolation="auto" xmlns="http://www.w3.org/2000/svg"><g><g stroke="white" fill="white"><rect y="0" x="0" width="6461" stroke="none" height="5039"/></g><g transform="translate(32866,32758)" text-rendering="geometricPrecision" stroke-width="44" stroke-linejoin="round" stroke-linecap="round"><line y2="-30847" y1="-31416" x2="-28828" x1="-29810" fill="none"/><line y2="-30772" y1="-31200" x2="-29036" x1="-29772" fill="none"/><line y2="-29712" y1="-30847" x2="-28828" x1="-28828" fill="none"/><line y2="-31416" y1="-30847" x2="-29810" x1="-30798" fill="none"/><line y2="-29143" y1="-29712" x2="-29810" x1="-28828" fill="none"/><line y2="-29359" y1="-29787" x2="-29772" x1="-29036" fill="none"/><line y2="-30847" y1="-29712" x2="-30798" x1="-30798" fill="none"/><line y2="-30706" y1="-29853" x2="-30628" x1="-30628" fill="none"/><line y2="-29712" y1="-29143" x2="-30798" x1="-29810" fill="none"/><line y2="-31373" y1="-30847" x2="-27921" x1="-28828" fill="none"/><line y2="-32465" y1="-31416" x2="-29810" x1="-29810" fill="none"/><line y2="-31263" y1="-30847" x2="-31517" x1="-30798" fill="none"/><line y2="-28314" y1="-29143" x2="-29810" x1="-29810" fill="none"/><line y2="-30957" y1="-31373" x2="-27201" x1="-27921" fill="none"/><line y2="-32202" y1="-31373" x2="-27990" x1="-27990" fill="none"/><line y2="-32202" y1="-31373" x2="-27851" x1="-27851" fill="none"/><line y2="-32202" y1="-31592" x2="-31774" x1="-31774" fill="none"/><line y2="-32202" y1="-31592" x2="-31636" x1="-31636" fill="none"/><line y2="-30896" y1="-31202" x2="-32390" x1="-31858" fill="none"/><line y2="-31018" y1="-31324" x2="-32459" x1="-31928" fill="none"/><text y="-30668" xml:space="preserve" x="-27164" stroke="none" font-size="433.3333" font-family="sans-serif">OH</text><text y="-32242" xml:space="preserve" x="-28071" stroke="none" font-size="433.3333" font-family="sans-serif">O</text><text y="-31194" xml:space="preserve" x="-31855" stroke="none" font-size="433.3333" font-family="sans-serif">N</text><text y="-32242" xml:space="preserve" x="-31855" stroke="none" font-size="433.3333" font-family="sans-serif">O</text><text y="-30668" xml:space="preserve" x="-32762" stroke="none" font-size="433.3333" font-family="sans-serif">O</text><text y="-27915" xml:space="preserve" x="-29963" stroke="none" font-size="433.3333" font-family="sans-serif">F</text></g></g></svg>