<svg width="236.67" viewBox="0 0 7889 5072" text-rendering="auto" stroke-width="1" stroke-opacity="1" stroke-miterlimit="10" stroke-linejoin="miter" stroke-linecap="square" stroke-dashoffset="0" stroke-dasharray="none" stroke="black" shape-rendering="auto" image-rendering="auto" height="152.16" font-weight="normal" font-style="normal" font-size="12" font-family="'Dialog'" fill-opacity="1" fill="black" color-rendering="auto" color-interpolation="auto" xmlns="http://www.w3.org/2000/svg"><g><g stroke="white" fill="white"><rect y="0" x="0" width="7889" stroke="none" height="5072"/></g><g transform="translate(32866,32866)" text-rendering="geometricPrecision" stroke-width="44" stroke-linejoin="round" stroke-linecap="round"><line y2="-29602" y1="-30171" x2="-28735" x1="-29720" fill="none"/><line y2="-29527" y1="-29954" x2="-28943" x1="-29683" fill="none"/><line y2="-28467" y1="-29602" x2="-28735" x1="-28735" fill="none"/><line y2="-30171" y1="-29602" x2="-29720" x1="-30706" fill="none"/><line y2="-27898" y1="-28467" x2="-29720" x1="-28735" fill="none"/><line y2="-28114" y1="-28542" x2="-29683" x1="-28943" fill="none"/><line y2="-29602" y1="-28467" x2="-30706" x1="-30706" fill="none"/><line y2="-29460" y1="-28608" x2="-30535" x1="-30535" fill="none"/><line y2="-28467" y1="-27898" x2="-30706" x1="-29720" fill="none"/><line y2="-30128" y1="-29602" x2="-27828" x1="-28735" fill="none"/><line y2="-30018" y1="-29602" x2="-31425" x1="-30706" fill="none"/><line y2="-30954" y1="-30128" x2="-27828" x1="-27828" fill="none"/><line y2="-31699" y1="-31393" x2="-26921" x1="-27450" fill="none"/><line y2="-29772" y1="-30188" x2="-27074" x1="-27794" fill="none"/><line y2="-29651" y1="-30067" x2="-27144" x1="-27863" fill="none"/><line y2="-29770" y1="-30018" x2="-32231" x1="-31800" fill="none"/><line y2="-30954" y1="-30347" x2="-31613" x1="-31613" fill="none"/><line y2="-32762" y1="-31699" x2="-26554" x1="-26921" fill="none"/><line y2="-31699" y1="-31003" x2="-26921" x1="-26023" fill="none"/><line y2="-32762" y1="-32762" x2="-25407" x1="-26554" fill="none"/><line y2="-31003" y1="-31699" x2="-26023" x1="-25081" fill="none"/><line y2="-31699" y1="-32762" x2="-25081" x1="-25407" fill="none"/><text y="-30994" xml:space="preserve" x="-27981" stroke="none" font-size="433.3333" font-family="sans-serif">NH</text><text y="-29423" xml:space="preserve" x="-27074" stroke="none" font-size="433.3333" font-family="sans-serif">O</text><text y="-29949" xml:space="preserve" x="-31766" stroke="none" font-size="433.3333" font-family="sans-serif">B</text><text y="-29371" xml:space="preserve" x="-32762" stroke="none" font-size="433.3333" font-family="sans-serif">OH</text><text y="-30994" xml:space="preserve" x="-31766" stroke="none" font-size="433.3333" font-family="sans-serif">OH</text></g></g></svg>