<svg width="235.89" viewBox="0 0 7863 4851" text-rendering="auto" stroke-width="1" stroke-opacity="1" stroke-miterlimit="10" stroke-linejoin="miter" stroke-linecap="square" stroke-dashoffset="0" stroke-dasharray="none" stroke="black" shape-rendering="auto" image-rendering="auto" height="145.53" font-weight="normal" font-style="normal" font-size="12" font-family="'Dialog'" fill-opacity="1" fill="black" color-rendering="auto" color-interpolation="auto" xmlns="http://www.w3.org/2000/svg"><g><g stroke="white" fill="white"><rect y="0" x="0" width="7863" stroke="none" height="4851"/></g><g transform="translate(32866,32758)" text-rendering="geometricPrecision" stroke-width="44" stroke-linejoin="round" stroke-linecap="round"><line y2="-30992" y1="-31561" x2="-28735" x1="-29718" fill="none"/><line y2="-30916" y1="-31344" x2="-28943" x1="-29680" fill="none"/><line y2="-29853" y1="-30992" x2="-28735" x1="-28735" fill="none"/><line y2="-31561" y1="-30992" x2="-29718" x1="-30706" fill="none"/><line y2="-29284" y1="-29853" x2="-29718" x1="-28735" fill="none"/><line y2="-29504" y1="-29931" x2="-29680" x1="-28943" fill="none"/><line y2="-30992" y1="-29853" x2="-30706" x1="-30706" fill="none"/><line y2="-30850" y1="-29998" x2="-30535" x1="-30535" fill="none"/><line y2="-29853" y1="-29284" x2="-30706" x1="-29718" fill="none"/><line y2="-31408" y1="-30992" x2="-28016" x1="-28735" fill="none"/><line y2="-29437" y1="-29853" x2="-31425" x1="-30706" fill="none"/><line y2="-31098" y1="-31408" x2="-27109" x1="-27640" fill="none"/><line y2="-32240" y1="-31769" x2="-27490" x1="-27762" fill="none"/><line y2="-32167" y1="-31699" x2="-27369" x1="-27640" fill="none"/><line y2="-32167" y1="-31699" x2="-28285" x1="-28013" fill="none"/><line y2="-32240" y1="-31769" x2="-28163" x1="-27892" fill="none"/><line y2="-29686" y1="-29437" x2="-32231" x1="-31800" fill="none"/><line y2="-28501" y1="-29111" x2="-31613" x1="-31613" fill="none"/><line y2="-31514" y1="-31098" x2="-26014" x1="-26733" fill="none"/><line y2="-30992" y1="-31514" x2="-25107" x1="-26014" fill="none"/><line y2="-29943" y1="-30772" x2="-26921" x1="-26921" fill="none"/><line y2="-29420" y1="-29943" x2="-26014" x1="-26921" fill="none"/><text y="-31335" xml:space="preserve" x="-27978" stroke="none" font-size="433.3333" font-family="sans-serif">S</text><text y="-30812" xml:space="preserve" x="-27071" stroke="none" font-size="433.3333" font-family="sans-serif">N</text><text y="-32242" xml:space="preserve" x="-27456" stroke="none" font-size="433.3333" font-family="sans-serif">O</text><text y="-32242" xml:space="preserve" x="-28504" stroke="none" font-size="433.3333" font-family="sans-serif">O</text><text y="-29151" xml:space="preserve" x="-31763" stroke="none" font-size="433.3333" font-family="sans-serif">B</text><text y="-29726" xml:space="preserve" x="-32762" stroke="none" font-size="433.3333" font-family="sans-serif">OH</text><text y="-28103" xml:space="preserve" x="-31763" stroke="none" font-size="433.3333" font-family="sans-serif">OH</text></g></g></svg>