<svg width="303.57" viewBox="0 0 10119 7764" text-rendering="auto" stroke-width="1" stroke-opacity="1" stroke-miterlimit="10" stroke-linejoin="miter" stroke-linecap="square" stroke-dashoffset="0" stroke-dasharray="none" stroke="black" shape-rendering="auto" image-rendering="auto" height="232.92" font-weight="normal" font-style="normal" font-size="12" font-family="'Dialog'" fill-opacity="1" fill="black" color-rendering="auto" color-interpolation="auto" xmlns="http://www.w3.org/2000/svg"><g><g stroke="white" fill="white"><rect y="0" x="0" width="10119" stroke="none" height="7764"/></g><g transform="translate(32866,32866)" text-rendering="geometricPrecision" stroke-width="44" stroke-linejoin="round" stroke-linecap="round"><line y2="-28868" y1="-27721" x2="-26791" x1="-26791" fill="none"/><line y2="-27146" y1="-27721" x2="-27773" x1="-26791" fill="none"/><line y2="-27721" y1="-27721" x2="-26791" x1="-24827" fill="none"/><line y2="-29440" y1="-28868" x2="-25809" x1="-26791" fill="none"/><line y2="-28868" y1="-29440" x2="-26791" x1="-27773" fill="none"/><line y2="-27721" y1="-27146" x2="-28756" x1="-27773" fill="none"/><line y2="-26002" y1="-27146" x2="-27773" x1="-27773" fill="none"/><line y2="-27721" y1="-28868" x2="-24827" x1="-24827" fill="none"/><line y2="-28868" y1="-29440" x2="-24827" x1="-25809" fill="none"/><line y2="-28790" y1="-29221" x2="-25035" x1="-25771" fill="none"/><line y2="-29440" y1="-28868" x2="-27773" x1="-28756" fill="none"/><line y2="-28868" y1="-27721" x2="-28756" x1="-28756" fill="none"/><line y2="-27721" y1="-27146" x2="-28756" x1="-29738" fill="none"/><line y2="-25428" y1="-26002" x2="-28756" x1="-27773" fill="none"/><line y2="-26002" y1="-27146" x2="-29738" x1="-29738" fill="none"/><line y2="-27146" y1="-27721" x2="-29738" x1="-30723" fill="none"/><line y2="-26002" y1="-25428" x2="-29738" x1="-28756" fill="none"/><line y2="-26078" y1="-25647" x2="-29530" x1="-28793" fill="none"/><line y2="-25428" y1="-26002" x2="-30723" x1="-29738" fill="none"/><line y2="-27721" y1="-27146" x2="-30723" x1="-31705" fill="none"/><line y2="-26002" y1="-25428" x2="-31705" x1="-30723" fill="none"/><line y2="-27146" y1="-26002" x2="-31705" x1="-31705" fill="none"/><line y2="-30269" y1="-29440" x2="-25809" x1="-25809" fill="none"/><line y2="-30596" y1="-31055" x2="-25621" x1="-24821" fill="none"/><line y2="-31055" y1="-30596" x2="-26791" x1="-25997" fill="none"/><line y2="-32193" y1="-31055" x2="-24821" x1="-24821" fill="none"/><line y2="-31055" y1="-30489" x2="-24821" x1="-23839" fill="none"/><line y2="-31133" y1="-30706" x2="-24613" x1="-23876" fill="none"/><line y2="-31974" y1="-31055" x2="-26791" x1="-26791" fill="none"/><line y2="-31861" y1="-31171" x2="-26621" x1="-26621" fill="none"/><line y2="-32193" y1="-32193" x2="-24821" x1="-26603" fill="none"/><line y2="-32762" y1="-32193" x2="-23839" x1="-24821" fill="none"/><line y2="-32546" y1="-32118" x2="-23876" x1="-24613" fill="none"/><line y2="-30489" y1="-31055" x2="-23839" x1="-22851" fill="none"/><line y2="-32193" y1="-32762" x2="-22851" x1="-23839" fill="none"/><line y2="-31055" y1="-32193" x2="-22851" x1="-22851" fill="none"/><line y2="-31200" y1="-32052" x2="-23021" x1="-23021" fill="none"/><polygon stroke-width="1" stroke="none" points=" -26791 -28868 -26860 -29914 -26722 -29914"/><polygon stroke-width="1" points=" -26791 -28868 -26860 -29914 -26722 -29914" fill="none"/><polygon stroke-width="1" stroke="none" points=" -29738 -27146 -29807 -28195 -29671 -28195"/><polygon stroke-width="1" points=" -29738 -27146 -29807 -28195 -29671 -28195" fill="none"/><polygon stroke-width="1" stroke="none" points=" -31705 -26002 -32196 -25636 -32266 -25757"/><polygon stroke-width="1" points=" -31705 -26002 -32196 -25636 -32266 -25757" fill="none"/><polygon stroke-width="1" stroke="none" points=" -27773 -27146 -27843 -27976 -27704 -27976"/><polygon stroke-width="1" points=" -27773 -27146 -27843 -27976 -27704 -27976" fill="none"/><line y2="-26892" y1="-26892" x2="-28825" x1="-28689" fill="none"/><line y2="-27109" y1="-27109" x2="-28807" x1="-28707" fill="none"/><line y2="-27325" y1="-27325" x2="-28789" x1="-28724" fill="none"/><line y2="-27542" y1="-27542" x2="-28771" x1="-28742" fill="none"/><line y2="-26892" y1="-26892" x2="-26860" x1="-26722" fill="none"/><line y2="-27109" y1="-27109" x2="-26842" x1="-26740" fill="none"/><line y2="-27325" y1="-27325" x2="-26824" x1="-26758" fill="none"/><line y2="-27542" y1="-27542" x2="-26806" x1="-26776" fill="none"/><text y="-25298" xml:space="preserve" x="-32762" stroke="none" font-size="433.3333" font-family="sans-serif">OH</text><text y="-30310" xml:space="preserve" x="-25962" stroke="none" font-size="433.3333" font-family="sans-serif">N</text><text y="-32014" xml:space="preserve" x="-26944" stroke="none" font-size="433.3333" font-family="sans-serif">N</text><text y="-28016" xml:space="preserve" x="-27926" stroke="none" font-size="433.3333" font-family="sans-serif">H</text><text y="-26494" xml:space="preserve" x="-28909" stroke="none" font-size="433.3333" font-family="sans-serif">H</text><text y="-26494" xml:space="preserve" x="-26944" stroke="none" font-size="433.3333" font-family="sans-serif">H</text><text y="-27687" xml:space="preserve" x="-27193" stroke="none" font-style="italic" font-size="313.3333" font-family="sans-serif">S</text><text y="-28545" xml:space="preserve" x="-26696" stroke="none" font-style="italic" font-size="313.3333" font-family="sans-serif">S</text><text y="-26826" xml:space="preserve" x="-27678" stroke="none" font-style="italic" font-size="313.3333" font-family="sans-serif">R</text><text y="-27687" xml:space="preserve" x="-28660" stroke="none" font-style="italic" font-size="313.3333" font-family="sans-serif">S</text><text y="-26826" xml:space="preserve" x="-29642" stroke="none" font-style="italic" font-size="313.3333" font-family="sans-serif">R</text><text y="-25965" xml:space="preserve" x="-31607" stroke="none" font-style="italic" font-size="313.3333" font-family="sans-serif">S</text></g></g></svg>