<svg width="212.55" viewBox="0 0 7085 3593" text-rendering="auto" stroke-width="1" stroke-opacity="1" stroke-miterlimit="10" stroke-linejoin="miter" stroke-linecap="square" stroke-dashoffset="0" stroke-dasharray="none" stroke="black" shape-rendering="auto" image-rendering="auto" height="107.79" font-weight="normal" font-style="normal" font-size="12" font-family="'Dialog'" fill-opacity="1" fill="black" color-rendering="auto" color-interpolation="auto" xmlns="http://www.w3.org/2000/svg"><g><g stroke="white" fill="white"><rect y="0" x="0" width="7085" stroke="none" height="3593"/></g><g transform="translate(32866,32866)" text-rendering="geometricPrecision" stroke-width="44" stroke-linejoin="round" stroke-linecap="round"><line y2="-29377" y1="-30313" x2="-31162" x1="-30838" fill="none"/><line y2="-30677" y1="-31145" x2="-30951" x1="-31552" fill="none"/><line y2="-29377" y1="-29377" x2="-32407" x1="-31162" fill="none"/><line y2="-29547" y1="-29547" x2="-32251" x1="-31318" fill="none"/><line y2="-31150" y1="-30532" x2="-31928" x1="-32762" fill="none"/><line y2="-30937" y1="-30472" x2="-31930" x1="-32557" fill="none"/><line y2="-30532" y1="-29377" x2="-32762" x1="-32407" fill="none"/><line y2="-31055" y1="-30642" x2="-29856" x1="-30573" fill="none"/><line y2="-31055" y1="-30489" x2="-29856" x1="-28871" fill="none"/><line y2="-31133" y1="-30706" x2="-29648" x1="-28909" fill="none"/><line y2="-32193" y1="-31055" x2="-29856" x1="-29856" fill="none"/><line y2="-30489" y1="-31055" x2="-28871" x1="-27886" fill="none"/><line y2="-32762" y1="-32193" x2="-28871" x1="-29856" fill="none"/><line y2="-32546" y1="-32118" x2="-28909" x1="-29648" fill="none"/><line y2="-31055" y1="-32193" x2="-27886" x1="-27886" fill="none"/><line y2="-31200" y1="-32052" x2="-28054" x1="-28054" fill="none"/><line y2="-32193" y1="-32762" x2="-27886" x1="-28871" fill="none"/><line y2="-30532" y1="-31055" x2="-26976" x1="-27886" fill="none"/><line y2="-30948" y1="-30532" x2="-26260" x1="-26976" fill="none"/><line y2="-30775" y1="-30466" x2="-26277" x1="-26817" fill="none"/><text y="-30876" xml:space="preserve" x="-26222" stroke="none" font-size="433.3333" font-family="sans-serif">O</text><text y="-30353" xml:space="preserve" x="-30914" stroke="none" font-size="433.3333" font-family="sans-serif">N</text><text y="-31110" xml:space="preserve" x="-31893" stroke="none" font-size="433.3333" font-family="sans-serif">N</text></g></g></svg>