<svg width="155.67" viewBox="0 0 5189 6912" text-rendering="auto" stroke-width="1" stroke-opacity="1" stroke-miterlimit="10" stroke-linejoin="miter" stroke-linecap="square" stroke-dashoffset="0" stroke-dasharray="none" stroke="black" shape-rendering="auto" image-rendering="auto" height="207.36" font-weight="normal" font-style="normal" font-size="12" font-family="'Dialog'" fill-opacity="1" fill="black" color-rendering="auto" color-interpolation="auto" xmlns="http://www.w3.org/2000/svg"><g><g stroke="white" fill="white"><rect y="0" x="0" width="5189" stroke="none" height="6912"/></g><g transform="translate(32866,32758)" text-rendering="geometricPrecision" stroke-width="44" stroke-linejoin="round" stroke-linecap="round"><line y2="-26332" y1="-26858" x2="-28758" x1="-29666" fill="none"/><line y2="-26332" y1="-26858" x2="-30573" x1="-29666" fill="none"/><line y2="-27903" y1="-26858" x2="-29666" x1="-29666" fill="none"/><line y2="-27184" y1="-26858" x2="-30229" x1="-29666" fill="none"/><line y2="-26858" y1="-27184" x2="-31480" x1="-30911" fill="none"/><line y2="-28210" y1="-27600" x2="-30573" x1="-30573" fill="none"/><line y2="-28845" y1="-28536" x2="-29853" x1="-30382" fill="none"/><line y2="-27846" y1="-27577" x2="-31376" x1="-30911" fill="none"/><line y2="-30789" y1="-28172" x2="-31564" x1="-31564" fill="none"/><line y2="-27380" y1="-26858" x2="-32387" x1="-31480" fill="none"/><line y2="-25950" y1="-26858" x2="-32003" x1="-31480" fill="none"/><line y2="-25950" y1="-26858" x2="-30954" x1="-31480" fill="none"/><line y2="-28412" y1="-28839" x2="-28767" x1="-29475" fill="none"/><line y2="-29674" y1="-29206" x2="-29328" x1="-29599" fill="none"/><line y2="-29605" y1="-29137" x2="-29206" x1="-29478" fill="none"/><line y2="-29605" y1="-29137" x2="-30122" x1="-29850" fill="none"/><line y2="-29674" y1="-29206" x2="-30001" x1="-29729" fill="none"/><line y2="-31514" y1="-31113" x2="-30645" x1="-31376" fill="none"/><line y2="-31662" y1="-31191" x2="-32020" x1="-31751" fill="none"/><line y2="-31731" y1="-31263" x2="-31899" x1="-31627" fill="none"/><line y2="-30937" y1="-30937" x2="-32422" x1="-31751" fill="none"/><line y2="-31078" y1="-31078" x2="-32422" x1="-31751" fill="none"/><line y2="-28828" y1="-28412" x2="-28048" x1="-28767" fill="none"/><line y2="-27716" y1="-28412" x2="-28380" x1="-28767" fill="none"/><line y2="-27733" y1="-28412" x2="-29174" x1="-28767" fill="none"/><line y2="-31087" y1="-31514" x2="-29934" x1="-30645" fill="none"/><line y2="-32202" y1="-31514" x2="-30249" x1="-30645" fill="none"/><line y2="-32202" y1="-31514" x2="-31044" x1="-30645" fill="none"/><text y="-27201" xml:space="preserve" x="-30804" stroke="none" font-size="433.3333" font-family="sans-serif">Si</text><text y="-28250" xml:space="preserve" x="-30723" stroke="none" font-size="433.3333" font-family="sans-serif">O</text><text y="-27773" xml:space="preserve" x="-31717" stroke="none" font-size="433.3333" font-family="sans-serif">O</text><text y="-28773" xml:space="preserve" x="-29816" stroke="none" font-size="433.3333" font-family="sans-serif">S</text><text y="-30830" xml:space="preserve" x="-31714" stroke="none" font-size="433.3333" font-family="sans-serif">S</text><text y="-29680" xml:space="preserve" x="-29293" stroke="none" font-size="433.3333" font-family="sans-serif">O</text><text y="-29680" xml:space="preserve" x="-30342" stroke="none" font-size="433.3333" font-family="sans-serif">O</text><text y="-31737" xml:space="preserve" x="-32240" stroke="none" font-size="433.3333" font-family="sans-serif">O</text><text y="-30830" xml:space="preserve" x="-32762" stroke="none" font-size="433.3333" font-family="sans-serif">O</text><text y="-28758" xml:space="preserve" x="-28013" stroke="none" font-size="433.3333" font-family="sans-serif">F</text><text y="-27317" xml:space="preserve" x="-28412" stroke="none" font-size="433.3333" font-family="sans-serif">F</text><text y="-27334" xml:space="preserve" x="-29460" stroke="none" font-size="433.3333" font-family="sans-serif">F</text><text y="-30795" xml:space="preserve" x="-29900" stroke="none" font-size="433.3333" font-family="sans-serif">F</text><text y="-32242" xml:space="preserve" x="-30275" stroke="none" font-size="433.3333" font-family="sans-serif">F</text><text y="-32242" xml:space="preserve" x="-31321" stroke="none" font-size="433.3333" font-family="sans-serif">F</text></g></g></svg>