<svg width="361.56" viewBox="0 0 12052 5144" text-rendering="auto" stroke-width="1" stroke-opacity="1" stroke-miterlimit="10" stroke-linejoin="miter" stroke-linecap="square" stroke-dashoffset="0" stroke-dasharray="none" stroke="black" shape-rendering="auto" image-rendering="auto" height="154.32" font-weight="normal" font-style="normal" font-size="12" font-family="'Dialog'" fill-opacity="1" fill="black" color-rendering="auto" color-interpolation="auto" xmlns="http://www.w3.org/2000/svg"><g><g stroke="white" fill="white"><rect y="0" x="0" width="12052" stroke="none" height="5144"/></g><g transform="translate(32866,32758)" text-rendering="geometricPrecision" stroke-width="44" stroke-linejoin="round" stroke-linecap="round"><line y2="-29668" y1="-30807" x2="-25049" x1="-25049" fill="none"/><line y2="-29810" y1="-30665" x2="-25220" x1="-25220" fill="none"/><line y2="-31266" y1="-30807" x2="-24249" x1="-25049" fill="none"/><line y2="-30807" y1="-31376" x2="-25049" x1="-26031" fill="none"/><line y2="-29209" y1="-29668" x2="-25844" x1="-25049" fill="none"/><line y2="-29668" y1="-29668" x2="-25049" x1="-23267" fill="none"/><line y2="-30807" y1="-31266" x2="-23079" x1="-23873" fill="none"/><line y2="-31376" y1="-30914" x2="-26031" x1="-26832" fill="none"/><line y2="-29668" y1="-29209" x2="-27019" x1="-26222" fill="none"/><line y2="-29888" y1="-30807" x2="-23079" x1="-23079" fill="none"/><line y2="-30004" y1="-30691" x2="-23249" x1="-23249" fill="none"/><line y2="-30587" y1="-29668" x2="-27019" x1="-27019" fill="none"/><line y2="-31330" y1="-30914" x2="-27926" x1="-27207" fill="none"/><line y2="-30807" y1="-31330" x2="-28834" x1="-27926" fill="none"/><line y2="-32422" y1="-31595" x2="-24061" x1="-24061" fill="none"/><line y2="-32422" y1="-32422" x2="-23012" x1="-24061" fill="none"/><line y2="-28273" y1="-28880" x2="-26031" x1="-26031" fill="none"/><line y2="-31133" y1="-30807" x2="-22510" x1="-23079" fill="none"/><line y2="-32202" y1="-31376" x2="-26104" x1="-26104" fill="none"/><line y2="-32202" y1="-31376" x2="-25962" x1="-25962" fill="none"/><line y2="-29192" y1="-29608" x2="-27704" x1="-26985" fill="none"/><line y2="-29313" y1="-29729" x2="-27773" x1="-27054" fill="none"/><line y2="-30807" y1="-31269" x2="-28834" x1="-29628" fill="none"/><line y2="-30717" y1="-31064" x2="-29018" x1="-29614" fill="none"/><line y2="-29879" y1="-30807" x2="-28834" x1="-28834" fill="none"/><line y2="-31269" y1="-30807" x2="-30004" x1="-30798" fill="none"/><line y2="-29088" y1="-29550" x2="-29816" x1="-29021" fill="none"/><line y2="-29293" y1="-29640" x2="-29804" x1="-29206" fill="none"/><line y2="-29660" y1="-30807" x2="-30798" x1="-30798" fill="none"/><line y2="-29804" y1="-30662" x2="-30968" x1="-30968" fill="none"/><line y2="-30807" y1="-31379" x2="-30798" x1="-31780" fill="none"/><line y2="-29660" y1="-29088" x2="-30798" x1="-29816" fill="none"/><line y2="-29088" y1="-29660" x2="-31780" x1="-30798" fill="none"/><line y2="-31379" y1="-30807" x2="-31780" x1="-32762" fill="none"/><line y2="-31162" y1="-30732" x2="-31818" x1="-32554" fill="none"/><line y2="-29660" y1="-29088" x2="-32762" x1="-31780" fill="none"/><line y2="-29735" y1="-29304" x2="-32554" x1="-31818" fill="none"/><line y2="-30807" y1="-29660" x2="-32762" x1="-32762" fill="none"/><line y2="-28039" y1="-29088" x2="-29816" x1="-29816" fill="none"/><line y2="-32422" y1="-32422" x2="-21967" x1="-23012" fill="none"/><line y2="-32511" y1="-32511" x2="-21967" x1="-23012" fill="none"/><line y2="-32332" y1="-32332" x2="-21967" x1="-23012" fill="none"/><line y2="-32422" y1="-32422" x2="-20918" x1="-21967" fill="none"/><text y="-32242" xml:space="preserve" x="-26184" stroke="none" font-size="433.3333" font-family="sans-serif">O</text><text y="-27874" xml:space="preserve" x="-26184" stroke="none" font-size="433.3333" font-family="sans-serif">CH</text><text y="-27785" xml:space="preserve" x="-25607" stroke="none" font-size="313.3333" font-family="sans-serif">3</text><text y="-31150" xml:space="preserve" x="-22403" stroke="none" font-size="433.3333" font-family="sans-serif">Br</text><text y="-28966" xml:space="preserve" x="-28080" stroke="none" font-size="433.3333" font-family="sans-serif">O</text><text y="-31197" xml:space="preserve" x="-24214" stroke="none" font-size="433.3333" font-family="sans-serif">N</text><text y="-28920" xml:space="preserve" x="-26184" stroke="none" font-size="433.3333" font-family="sans-serif">N</text><text y="-29489" xml:space="preserve" x="-23229" stroke="none" font-size="433.3333" font-family="sans-serif">N</text><text y="-30628" xml:space="preserve" x="-27172" stroke="none" font-size="433.3333" font-family="sans-serif">N</text><text y="-31200" xml:space="preserve" x="-29969" stroke="none" font-size="433.3333" font-family="sans-serif">N</text><text y="-29481" xml:space="preserve" x="-28987" stroke="none" font-size="433.3333" font-family="sans-serif">N</text></g></g></svg>