<svg width="321.78" viewBox="0 0 10726 8881" text-rendering="auto" stroke-width="1" stroke-opacity="1" stroke-miterlimit="10" stroke-linejoin="miter" stroke-linecap="square" stroke-dashoffset="0" stroke-dasharray="none" stroke="black" shape-rendering="auto" image-rendering="auto" height="266.43" font-weight="normal" font-style="normal" font-size="12" font-family="'Dialog'" fill-opacity="1" fill="black" color-rendering="auto" color-interpolation="auto" xmlns="http://www.w3.org/2000/svg"><g><g stroke="white" fill="white"><rect y="0" x="0" width="10726" stroke="none" height="8881"/></g><g transform="translate(32866,32758)" text-rendering="geometricPrecision" stroke-width="44" stroke-linejoin="round" stroke-linecap="round"><line y2="-27005" y1="-27574" x2="-27843" x1="-28825" fill="none"/><line y2="-26930" y1="-27354" x2="-28051" x1="-28787" fill="none"/><line y2="-25867" y1="-27005" x2="-27843" x1="-27843" fill="none"/><line y2="-27574" y1="-27005" x2="-28825" x1="-29813" fill="none"/><line y2="-25298" y1="-25867" x2="-28825" x1="-27843" fill="none"/><line y2="-25517" y1="-25945" x2="-28787" x1="-28051" fill="none"/><line y2="-27005" y1="-25867" x2="-29813" x1="-29813" fill="none"/><line y2="-26863" y1="-26008" x2="-29642" x1="-29642" fill="none"/><line y2="-25867" y1="-25298" x2="-29813" x1="-28825" fill="none"/><line y2="-27528" y1="-27005" x2="-26936" x1="-27843" fill="none"/><line y2="-27112" y1="-27528" x2="-26216" x1="-26936" fill="none"/><line y2="-27528" y1="-27112" x2="-25121" x1="-25841" fill="none"/><line y2="-28400" y1="-27574" x2="-28825" x1="-28825" fill="none"/><line y2="-24471" y1="-25298" x2="-28825" x1="-28825" fill="none"/><line y2="-27005" y1="-27528" x2="-24214" x1="-25121" fill="none"/><line y2="-28357" y1="-27528" x2="-25191" x1="-25191" fill="none"/><line y2="-28357" y1="-27528" x2="-25052" x1="-25052" fill="none"/><line y2="-29146" y1="-30064" x2="-29732" x1="-29732" fill="none"/><line y2="-28576" y1="-29146" x2="-30717" x1="-29732" fill="none"/><line y2="-30391" y1="-30850" x2="-29920" x1="-30717" fill="none"/><line y2="-29146" y1="-28576" x2="-31702" x1="-30717" fill="none"/><line y2="-30850" y1="-30281" x2="-30717" x1="-31702" fill="none"/><line y2="-30281" y1="-29146" x2="-31702" x1="-31702" fill="none"/><line y2="-32202" y1="-31899" x2="-31243" x1="-30717" fill="none"/><line y2="-27005" y1="-25867" x2="-24214" x1="-24214" fill="none"/><line y2="-26863" y1="-26008" x2="-24044" x1="-24044" fill="none"/><line y2="-27574" y1="-27005" x2="-23226" x1="-24214" fill="none"/><line y2="-25867" y1="-25298" x2="-24214" x1="-23226" fill="none"/><line y2="-27005" y1="-27574" x2="-22244" x1="-23226" fill="none"/><line y2="-26930" y1="-27354" x2="-22452" x1="-23189" fill="none"/><line y2="-25298" y1="-25867" x2="-23226" x1="-22244" fill="none"/><line y2="-25517" y1="-25945" x2="-23189" x1="-22452" fill="none"/><line y2="-25867" y1="-27005" x2="-22244" x1="-22244" fill="none"/><line y2="-25451" y1="-25867" x2="-24934" x1="-24214" fill="none"/><line y2="-25699" y1="-25451" x2="-25740" x1="-25309" fill="none"/><line y2="-28400" y1="-27574" x2="-23226" x1="-23226" fill="none"/><line y2="-28978" y1="-28730" x2="-23844" x1="-23414" fill="none"/><polygon stroke-width="1" stroke="none" points=" -28978 -28787 -29732 -29146 -29047 -28669"/><polygon stroke-width="1" points=" -28978 -28787 -29732 -29146 -29047 -28669" fill="none"/><polygon stroke-width="1" stroke="none" points=" -30717 -30850 -30786 -31899 -30648 -31899"/><polygon stroke-width="1" points=" -30717 -30850 -30786 -31899 -30648 -31899" fill="none"/><polygon stroke-width="1" stroke="none" points=" -31702 -29146 -32196 -28782 -32266 -28900"/><polygon stroke-width="1" points=" -31702 -29146 -32196 -28782 -32266 -28900" fill="none"/><line y2="-27747" y1="-27747" x2="-30786" x1="-30648" fill="none"/><line y2="-27964" y1="-27964" x2="-30768" x1="-30666" fill="none"/><line y2="-28180" y1="-28180" x2="-30750" x1="-30684" fill="none"/><line y2="-28397" y1="-28397" x2="-30732" x1="-30702" fill="none"/><line y2="-30645" y1="-30526" x2="-32196" x1="-32266" fill="none"/><line y2="-30516" y1="-30439" x2="-32021" x1="-32066" fill="none"/><line y2="-30387" y1="-30352" x2="-31845" x1="-31866" fill="none"/><text y="-26826" xml:space="preserve" x="-26182" stroke="none" font-size="433.3333" font-family="sans-serif">O</text><text y="-28397" xml:space="preserve" x="-25274" stroke="none" font-size="433.3333" font-family="sans-serif">O</text><text y="-25165" xml:space="preserve" x="-25274" stroke="none" font-size="433.3333" font-family="sans-serif">O</text><text y="-25849" xml:space="preserve" x="-26462" stroke="none" font-size="433.3333" font-family="sans-serif">CH</text><text y="-25760" xml:space="preserve" x="-25884" stroke="none" font-size="313.3333" font-family="sans-serif">3</text><text y="-28441" xml:space="preserve" x="-23379" stroke="none" font-size="433.3333" font-family="sans-serif">O</text><text y="-29128" xml:space="preserve" x="-24567" stroke="none" font-size="433.3333" font-family="sans-serif">CH</text><text y="-29039" xml:space="preserve" x="-23989" stroke="none" font-size="313.3333" font-family="sans-serif">3</text><text y="-28441" xml:space="preserve" x="-28978" stroke="none" font-size="433.3333" font-family="sans-serif">O</text><text y="-24073" xml:space="preserve" x="-28978" stroke="none" font-size="433.3333" font-family="sans-serif">OH</text><text y="-27349" xml:space="preserve" x="-30867" stroke="none" font-size="433.3333" font-family="sans-serif">OH</text><text y="-32242" xml:space="preserve" x="-31774" stroke="none" font-size="433.3333" font-family="sans-serif">OH</text><text y="-28441" xml:space="preserve" x="-32762" stroke="none" font-size="433.3333" font-family="sans-serif">OH</text><text y="-30628" xml:space="preserve" x="-32762" stroke="none" font-size="433.3333" font-family="sans-serif">OH</text><text y="-30102" xml:space="preserve" x="-29885" stroke="none" font-size="433.3333" font-family="sans-serif">O</text><text y="-29108" xml:space="preserve" x="-30134" stroke="none" font-style="italic" font-size="313.3333" font-family="sans-serif">S</text><text y="-28698" xml:space="preserve" x="-30867" stroke="none" font-style="italic" font-size="313.3333" font-family="sans-serif">R</text><text y="-30370" xml:space="preserve" x="-30867" stroke="none" font-style="italic" font-size="313.3333" font-family="sans-serif">R</text><text y="-29108" xml:space="preserve" x="-31607" stroke="none" font-style="italic" font-size="313.3333" font-family="sans-serif">S</text><text y="-29960" xml:space="preserve" x="-31607" stroke="none" font-style="italic" font-size="313.3333" font-family="sans-serif">S</text></g></g></svg>