<svg width="331.2" viewBox="0 0 11040 3948" text-rendering="auto" stroke-width="1" stroke-opacity="1" stroke-miterlimit="10" stroke-linejoin="miter" stroke-linecap="square" stroke-dashoffset="0" stroke-dasharray="none" stroke="black" shape-rendering="auto" image-rendering="auto" height="118.44" font-weight="normal" font-style="normal" font-size="12" font-family="'Dialog'" fill-opacity="1" fill="black" color-rendering="auto" color-interpolation="auto" xmlns="http://www.w3.org/2000/svg"><g><g stroke="white" fill="white"><rect y="0" x="0" width="11040" stroke="none" height="3948"/></g><g transform="translate(32866,32758)" text-rendering="geometricPrecision" stroke-width="44" stroke-linejoin="round" stroke-linecap="round"><line y2="-30327" y1="-30850" x2="-30798" x1="-31705" fill="none"/><line y2="-30434" y1="-30850" x2="-32424" x1="-31705" fill="none"/><line y2="-31538" y1="-30850" x2="-31306" x1="-31705" fill="none"/><line y2="-31538" y1="-30850" x2="-32101" x1="-31705" fill="none"/><line y2="-30850" y1="-30327" x2="-29891" x1="-30798" fill="none"/><line y2="-29640" y1="-30327" x2="-30399" x1="-30798" fill="none"/><line y2="-29640" y1="-30327" x2="-31194" x1="-30798" fill="none"/><line y2="-30327" y1="-30850" x2="-28984" x1="-29891" fill="none"/><line y2="-31538" y1="-30850" x2="-29492" x1="-29891" fill="none"/><line y2="-31538" y1="-30850" x2="-30287" x1="-29891" fill="none"/><line y2="-30850" y1="-30327" x2="-28077" x1="-28984" fill="none"/><line y2="-29640" y1="-30327" x2="-28585" x1="-28984" fill="none"/><line y2="-29640" y1="-30327" x2="-29380" x1="-28984" fill="none"/><line y2="-30327" y1="-30850" x2="-27170" x1="-28077" fill="none"/><line y2="-31538" y1="-30850" x2="-27678" x1="-28077" fill="none"/><line y2="-31538" y1="-30850" x2="-28472" x1="-28077" fill="none"/><line y2="-30850" y1="-30327" x2="-26262" x1="-27170" fill="none"/><line y2="-30327" y1="-30850" x2="-25355" x1="-26262" fill="none"/><line y2="-30654" y1="-30327" x2="-24786" x1="-25355" fill="none"/><line y2="-29640" y1="-30327" x2="-26771" x1="-27170" fill="none"/><line y2="-29640" y1="-30327" x2="-27565" x1="-27170" fill="none"/><line y2="-30402" y1="-30662" x2="-23636" x1="-24104" fill="none"/><line y2="-29469" y1="-30079" x2="-23449" x1="-23449" fill="none"/><line y2="-31679" y1="-31070" x2="-24448" x1="-24448" fill="none"/><line y2="-32315" y1="-32008" x2="-23729" x1="-24258" fill="none"/><line y2="-31312" y1="-31049" x2="-23651" x1="-24104" fill="none"/><line y2="-31003" y1="-31312" x2="-22744" x1="-23275" fill="none"/><text y="-30671" xml:space="preserve" x="-24679" stroke="none" font-size="433.3333" font-family="sans-serif">Si</text><text y="-30119" xml:space="preserve" x="-23602" stroke="none" font-size="433.3333" font-family="sans-serif">O</text><text y="-31720" xml:space="preserve" x="-24598" stroke="none" font-size="433.3333" font-family="sans-serif">O</text><text y="-31240" xml:space="preserve" x="-23616" stroke="none" font-size="433.3333" font-family="sans-serif">O</text><text y="-29070" xml:space="preserve" x="-23602" stroke="none" font-size="433.3333" font-family="sans-serif">CH</text><text y="-28981" xml:space="preserve" x="-23024" stroke="none" font-size="313.3333" font-family="sans-serif">3</text><text y="-32242" xml:space="preserve" x="-23691" stroke="none" font-size="433.3333" font-family="sans-serif">CH</text><text y="-32153" xml:space="preserve" x="-23114" stroke="none" font-size="313.3333" font-family="sans-serif">3</text><text y="-30717" xml:space="preserve" x="-22706" stroke="none" font-size="433.3333" font-family="sans-serif">CH</text><text y="-30628" xml:space="preserve" x="-22128" stroke="none" font-size="313.3333" font-family="sans-serif">3</text><text y="-29241" xml:space="preserve" x="-26797" stroke="none" font-size="433.3333" font-family="sans-serif">F</text><text y="-29241" xml:space="preserve" x="-27846" stroke="none" font-size="433.3333" font-family="sans-serif">F</text><text y="-31578" xml:space="preserve" x="-27704" stroke="none" font-size="433.3333" font-family="sans-serif">F</text><text y="-31578" xml:space="preserve" x="-28753" stroke="none" font-size="433.3333" font-family="sans-serif">F</text><text y="-29241" xml:space="preserve" x="-28611" stroke="none" font-size="433.3333" font-family="sans-serif">F</text><text y="-29241" xml:space="preserve" x="-29660" stroke="none" font-size="433.3333" font-family="sans-serif">F</text><text y="-31578" xml:space="preserve" x="-29518" stroke="none" font-size="433.3333" font-family="sans-serif">F</text><text y="-31578" xml:space="preserve" x="-30567" stroke="none" font-size="433.3333" font-family="sans-serif">F</text><text y="-29241" xml:space="preserve" x="-30425" stroke="none" font-size="433.3333" font-family="sans-serif">F</text><text y="-29241" xml:space="preserve" x="-31474" stroke="none" font-size="433.3333" font-family="sans-serif">F</text><text y="-30148" xml:space="preserve" x="-32762" stroke="none" font-size="433.3333" font-family="sans-serif">F</text><text y="-31578" xml:space="preserve" x="-31332" stroke="none" font-size="433.3333" font-family="sans-serif">F</text><text y="-31578" xml:space="preserve" x="-32381" stroke="none" font-size="433.3333" font-family="sans-serif">F</text></g></g></svg>