<svg width="211.62" viewBox="0 0 7054 4330" text-rendering="auto" stroke-width="1" stroke-opacity="1" stroke-miterlimit="10" stroke-linejoin="miter" stroke-linecap="square" stroke-dashoffset="0" stroke-dasharray="none" stroke="black" shape-rendering="auto" image-rendering="auto" height="129.9" font-weight="normal" font-style="normal" font-size="12" font-family="'Dialog'" fill-opacity="1" fill="black" color-rendering="auto" color-interpolation="auto" xmlns="http://www.w3.org/2000/svg"><g><g stroke="white" fill="white"><rect y="0" x="0" width="7054" stroke="none" height="4330"/></g><g transform="translate(32866,32866)" text-rendering="geometricPrecision" stroke-width="44" stroke-linejoin="round" stroke-linecap="round"><line y2="-29902" y1="-30622" x2="-30128" x1="-29876" fill="none"/><line y2="-30986" y1="-31451" x2="-29989" x1="-30593" fill="none"/><line y2="-29683" y1="-29683" x2="-31451" x1="-30391" fill="none"/><line y2="-31460" y1="-30841" x2="-30971" x1="-31806" fill="none"/><line y2="-30841" y1="-29683" x2="-31806" x1="-31451" fill="none"/><line y2="-30841" y1="-30841" x2="-28753" x1="-29614" fill="none"/><line y2="-28640" y1="-29683" x2="-31341" x1="-31451" fill="none"/><line y2="-29466" y1="-29683" x2="-32474" x1="-31451" fill="none"/><line y2="-30414" y1="-30841" x2="-32762" x1="-31806" fill="none"/><line y2="-31748" y1="-30841" x2="-32329" x1="-31806" fill="none"/><line y2="-30841" y1="-30290" x2="-28753" x1="-28042" fill="none"/><line y2="-31904" y1="-30841" x2="-28386" x1="-28753" fill="none"/><line y2="-31717" y1="-30919" x2="-28270" x1="-28548" fill="none"/><line y2="-30284" y1="-30841" x2="-27666" x1="-26912" fill="none"/><line y2="-31904" y1="-31904" x2="-27427" x1="-28386" fill="none"/><line y2="-30841" y1="-31685" x2="-26912" x1="-27172" fill="none"/><line y2="-30896" y1="-31529" x2="-27106" x1="-27302" fill="none"/><line y2="-32762" y1="-31904" x2="-28987" x1="-28386" fill="none"/><line y2="-30518" y1="-30841" x2="-25916" x1="-26912" fill="none"/><text y="-29966" xml:space="preserve" x="-28004" stroke="none" font-size="433.3333" font-family="sans-serif">S</text><text y="-31725" xml:space="preserve" x="-27392" stroke="none" font-size="433.3333" font-family="sans-serif">N</text><text y="-30662" xml:space="preserve" x="-29954" stroke="none" font-size="433.3333" font-family="sans-serif">B</text><text y="-29504" xml:space="preserve" x="-30356" stroke="none" font-size="433.3333" font-family="sans-serif">O</text><text y="-31419" xml:space="preserve" x="-30934" stroke="none" font-size="433.3333" font-family="sans-serif">O</text></g></g></svg>