<svg width="183.54" viewBox="0 0 6118 4053" text-rendering="auto" stroke-width="1" stroke-opacity="1" stroke-miterlimit="10" stroke-linejoin="miter" stroke-linecap="square" stroke-dashoffset="0" stroke-dasharray="none" stroke="black" shape-rendering="auto" image-rendering="auto" height="121.59" font-weight="normal" font-style="normal" font-size="12" font-family="'Dialog'" fill-opacity="1" fill="black" color-rendering="auto" color-interpolation="auto" xmlns="http://www.w3.org/2000/svg"><g><g stroke="white" fill="white"><rect y="0" x="0" width="6118" stroke="none" height="4053"/></g><g transform="translate(32866,32866)" text-rendering="geometricPrecision" stroke-width="44" stroke-linejoin="round" stroke-linecap="round"><line y2="-29484" y1="-29484" x2="-30792" x1="-28822" fill="none"/><line y2="-30622" y1="-29484" x2="-30792" x1="-30792" fill="none"/><line y2="-28917" y1="-29484" x2="-31777" x1="-30792" fill="none"/><line y2="-29134" y1="-29562" x2="-31740" x1="-31000" fill="none"/><line y2="-30622" y1="-29484" x2="-28822" x1="-28822" fill="none"/><line y2="-29484" y1="-28917" x2="-28822" x1="-27834" fill="none"/><line y2="-29562" y1="-29134" x2="-28614" x1="-27874" fill="none"/><line y2="-31081" y1="-30622" x2="-29995" x1="-30792" fill="none"/><line y2="-30622" y1="-31191" x2="-30792" x1="-31777" fill="none"/><line y2="-30547" y1="-30974" x2="-31000" x1="-31740" fill="none"/><line y2="-29484" y1="-28917" x2="-32762" x1="-31777" fill="none"/><line y2="-30622" y1="-31081" x2="-28822" x1="-29616" fill="none"/><line y2="-31191" y1="-30622" x2="-27834" x1="-28822" fill="none"/><line y2="-30971" y1="-30544" x2="-27874" x1="-28614" fill="none"/><line y2="-28917" y1="-29484" x2="-27834" x1="-26852" fill="none"/><line y2="-31191" y1="-30622" x2="-31777" x1="-32762" fill="none"/><line y2="-30622" y1="-29484" x2="-32762" x1="-32762" fill="none"/><line y2="-30480" y1="-29628" x2="-32592" x1="-32592" fill="none"/><line y2="-30622" y1="-31191" x2="-26852" x1="-27834" fill="none"/><line y2="-29484" y1="-30622" x2="-26852" x1="-26852" fill="none"/><line y2="-29628" y1="-30480" x2="-27022" x1="-27022" fill="none"/><line y2="-32240" y1="-31410" x2="-29804" x1="-29804" fill="none"/><line y2="-32762" y1="-32240" x2="-30711" x1="-29804" fill="none"/><text y="-31012" xml:space="preserve" x="-29957" stroke="none" font-size="433.3333" font-family="sans-serif">N</text></g></g></svg>