<svg width="235.65" viewBox="0 0 7855 3732" text-rendering="auto" stroke-width="1" stroke-opacity="1" stroke-miterlimit="10" stroke-linejoin="miter" stroke-linecap="square" stroke-dashoffset="0" stroke-dasharray="none" stroke="black" shape-rendering="auto" image-rendering="auto" height="111.96" font-weight="normal" font-style="normal" font-size="12" font-family="'Dialog'" fill-opacity="1" fill="black" color-rendering="auto" color-interpolation="auto" xmlns="http://www.w3.org/2000/svg"><g><g stroke="white" fill="white"><rect y="0" x="0" width="7855" stroke="none" height="3732"/></g><g transform="translate(32866,32866)" text-rendering="geometricPrecision" stroke-width="44" stroke-linejoin="round" stroke-linecap="round"><line y2="-31514" y1="-30945" x2="-29180" x1="-30168" fill="none"/><line y2="-30945" y1="-29807" x2="-30168" x1="-30168" fill="none"/><line y2="-30801" y1="-29949" x2="-29998" x1="-29998" fill="none"/><line y2="-30945" y1="-31514" x2="-28198" x1="-29180" fill="none"/><line y2="-30867" y1="-31295" x2="-28406" x1="-29143" fill="none"/><line y2="-29807" y1="-29238" x2="-30168" x1="-29180" fill="none"/><line y2="-29807" y1="-30945" x2="-28198" x1="-28198" fill="none"/><line y2="-31405" y1="-30945" x2="-27398" x1="-28198" fill="none"/><line y2="-29238" y1="-29807" x2="-29180" x1="-28198" fill="none"/><line y2="-29455" y1="-29882" x2="-29143" x1="-28406" fill="none"/><line y2="-29807" y1="-29807" x2="-28198" x1="-26416" fill="none"/><line y2="-30945" y1="-31405" x2="-26228" x1="-27022" fill="none"/><line y2="-30027" y1="-30945" x2="-26228" x1="-26228" fill="none"/><line y2="-31780" y1="-30945" x2="-31616" x1="-30168" fill="none"/><line y2="-30795" y1="-30945" x2="-25384" x1="-26228" fill="none"/><line y2="-31708" y1="-30945" x2="-25948" x1="-26228" fill="none"/><line y2="-31780" y1="-31780" x2="-32762" x1="-31616" fill="none"/><line y2="-31780" y1="-32762" x2="-31616" x1="-32188" fill="none"/><line y2="-32762" y1="-31780" x2="-32188" x1="-32762" fill="none"/><line y2="-30734" y1="-31780" x2="-31616" x1="-31616" fill="none"/><line y2="-30318" y1="-30734" x2="-30896" x1="-31616" fill="none"/><line y2="-30258" y1="-30671" x2="-32300" x1="-31581" fill="none"/><line y2="-30379" y1="-30795" x2="-32370" x1="-31650" fill="none"/><text y="-30030" xml:space="preserve" x="-30862" stroke="none" font-size="433.3333" font-family="sans-serif">OH</text><text y="-30030" xml:space="preserve" x="-32676" stroke="none" font-size="433.3333" font-family="sans-serif">O</text><text y="-30584" xml:space="preserve" x="-25347" stroke="none" font-size="433.3333" font-family="sans-serif">F</text><text y="-31748" xml:space="preserve" x="-26020" stroke="none" font-size="433.3333" font-family="sans-serif">F</text><text y="-31335" xml:space="preserve" x="-27363" stroke="none" font-size="433.3333" font-family="sans-serif">O</text><text y="-29628" xml:space="preserve" x="-26378" stroke="none" font-size="433.3333" font-family="sans-serif">O</text></g></g></svg>