<svg width="480.66" viewBox="0 0 16022 7638" text-rendering="auto" stroke-width="1" stroke-opacity="1" stroke-miterlimit="10" stroke-linejoin="miter" stroke-linecap="square" stroke-dashoffset="0" stroke-dasharray="none" stroke="black" shape-rendering="auto" image-rendering="auto" height="229.14" font-weight="normal" font-style="normal" font-size="12" font-family="'Dialog'" fill-opacity="1" fill="black" color-rendering="auto" color-interpolation="auto" xmlns="http://www.w3.org/2000/svg"><g><g stroke="white" fill="white"><rect y="0" x="0" width="16022" stroke="none" height="7638"/></g><g transform="translate(32866,32866)" text-rendering="geometricPrecision" stroke-width="44" stroke-linejoin="round" stroke-linecap="round"><line y2="-29394" y1="-29394" x2="-26066" x1="-24284" fill="none"/><line y2="-30532" y1="-29394" x2="-26066" x1="-26066" fill="none"/><line y2="-28828" y1="-29394" x2="-27051" x1="-26066" fill="none"/><line y2="-29044" y1="-29472" x2="-27014" x1="-26274" fill="none"/><line y2="-29614" y1="-30532" x2="-24096" x1="-24096" fill="none"/><line y2="-30992" y1="-30532" x2="-25266" x1="-26066" fill="none"/><line y2="-30532" y1="-31101" x2="-26066" x1="-27051" fill="none"/><line y2="-30457" y1="-30885" x2="-26274" x1="-27014" fill="none"/><line y2="-29394" y1="-28828" x2="-28036" x1="-27051" fill="none"/><line y2="-30532" y1="-30992" x2="-24096" x1="-24890" fill="none"/><line y2="-30443" y1="-30789" x2="-24281" x1="-24876" fill="none"/><line y2="-31101" y1="-30532" x2="-27051" x1="-28036" fill="none"/><line y2="-30532" y1="-29394" x2="-28036" x1="-28036" fill="none"/><line y2="-30391" y1="-29538" x2="-27866" x1="-27866" fill="none"/><line y2="-28871" y1="-29287" x2="-23189" x1="-23908" fill="none"/><line y2="-29394" y1="-28871" x2="-22282" x1="-23189" fill="none"/><line y2="-27779" y1="-28828" x2="-27051" x1="-27051" fill="none"/><line y2="-30948" y1="-30532" x2="-23376" x1="-24096" fill="none"/><line y2="-32104" y1="-31275" x2="-23189" x1="-23189" fill="none"/><line y2="-32627" y1="-32104" x2="-22282" x1="-23189" fill="none"/><line y2="-30532" y1="-29394" x2="-22282" x1="-22282" fill="none"/><line y2="-30391" y1="-29538" x2="-22111" x1="-22111" fill="none"/><line y2="-29394" y1="-28828" x2="-22282" x1="-21294" fill="none"/><line y2="-31101" y1="-30532" x2="-21294" x1="-22282" fill="none"/><line y2="-28828" y1="-29394" x2="-21294" x1="-20311" fill="none"/><line y2="-29044" y1="-29472" x2="-21256" x1="-20519" fill="none"/><line y2="-30532" y1="-31101" x2="-20311" x1="-21294" fill="none"/><line y2="-30457" y1="-30885" x2="-20519" x1="-21256" fill="none"/><line y2="-29394" y1="-30532" x2="-20311" x1="-20311" fill="none"/><line y2="-31055" y1="-30532" x2="-19404" x1="-20311" fill="none"/><line y2="-27363" y1="-27779" x2="-27770" x1="-27051" fill="none"/><line y2="-27779" y1="-27363" x2="-28865" x1="-28146" fill="none"/><line y2="-27256" y1="-27779" x2="-29772" x1="-28865" fill="none"/><line y2="-27424" y1="-27840" x2="-26297" x1="-27014" fill="none"/><line y2="-27302" y1="-27718" x2="-26366" x1="-27086" fill="none"/><line y2="-31055" y1="-30489" x2="-19404" x1="-18419" fill="none"/><line y2="-31133" y1="-30706" x2="-19196" x1="-18457" fill="none"/><line y2="-32193" y1="-31055" x2="-19404" x1="-19404" fill="none"/><line y2="-30489" y1="-31055" x2="-18419" x1="-17434" fill="none"/><line y2="-32762" y1="-32193" x2="-18419" x1="-19404" fill="none"/><line y2="-32546" y1="-32118" x2="-18457" x1="-19196" fill="none"/><line y2="-31055" y1="-32193" x2="-17434" x1="-17434" fill="none"/><line y2="-31200" y1="-32052" x2="-17604" x1="-17604" fill="none"/><line y2="-32193" y1="-32762" x2="-17434" x1="-18419" fill="none"/><line y2="-29440" y1="-30489" x2="-18419" x1="-18419" fill="none"/><line y2="-27256" y1="-27805" x2="-29772" x1="-30483" fill="none"/><line y2="-26190" y1="-27256" x2="-30139" x1="-29772" fill="none"/><line y2="-26381" y1="-27178" x2="-30255" x1="-29978" fill="none"/><line y2="-27811" y1="-27256" x2="-30859" x1="-31613" fill="none"/><line y2="-26190" y1="-26190" x2="-31098" x1="-30139" fill="none"/><line y2="-27256" y1="-26410" x2="-31613" x1="-31353" fill="none"/><line y2="-25332" y1="-26190" x2="-29538" x1="-30139" fill="none"/><line y2="-27453" y1="-27190" x2="-32445" x1="-31636" fill="none"/><line y2="-27586" y1="-27320" x2="-32401" x1="-31592" fill="none"/><line y2="-28822" y1="-29440" x2="-17622" x1="-18419" fill="none"/><line y2="-29440" y1="-28816" x2="-18419" x1="-19266" fill="none"/><line y2="-29226" y1="-28758" x2="-18425" x1="-19058" fill="none"/><line y2="-27510" y1="-28458" x2="-17838" x1="-17509" fill="none"/><line y2="-28458" y1="-27730" x2="-19387" x1="-19162" fill="none"/><line y2="-27510" y1="-27510" x2="-18904" x1="-17838" fill="none"/><line y2="-26912" y1="-27551" x2="-17333" x1="-17781" fill="none"/><line y2="-26832" y1="-27470" x2="-17448" x1="-17893" fill="none"/><text y="-27077" xml:space="preserve" x="-28108" stroke="none" font-size="433.3333" font-family="sans-serif">O</text><text y="-27077" xml:space="preserve" x="-26294" stroke="none" font-size="433.3333" font-family="sans-serif">O</text><text y="-30876" xml:space="preserve" x="-23342" stroke="none" font-size="433.3333" font-family="sans-serif">O</text><text y="-27401" xml:space="preserve" x="-32762" stroke="none" font-size="433.3333" font-family="sans-serif">O</text><text y="-26473" xml:space="preserve" x="-17388" stroke="none" font-size="433.3333" font-family="sans-serif">O</text><text y="-29215" xml:space="preserve" x="-24249" stroke="none" font-size="433.3333" font-family="sans-serif">N</text><text y="-30922" xml:space="preserve" x="-25231" stroke="none" font-size="433.3333" font-family="sans-serif">N</text><text y="-27770" xml:space="preserve" x="-30824" stroke="none" font-size="433.3333" font-family="sans-serif">O</text><text y="-26011" xml:space="preserve" x="-31439" stroke="none" font-size="433.3333" font-family="sans-serif">O</text><text y="-28498" xml:space="preserve" x="-17587" stroke="none" font-size="433.3333" font-family="sans-serif">NH</text><text y="-28498" xml:space="preserve" x="-19606" stroke="none" font-size="433.3333" font-family="sans-serif">N</text><text y="-27331" xml:space="preserve" x="-19245" stroke="none" font-size="433.3333" font-family="sans-serif">O</text></g></g></svg>