<svg width="389.01" viewBox="0 0 12967 5080" text-rendering="auto" stroke-width="1" stroke-opacity="1" stroke-miterlimit="10" stroke-linejoin="miter" stroke-linecap="square" stroke-dashoffset="0" stroke-dasharray="none" stroke="black" shape-rendering="auto" image-rendering="auto" height="152.4" font-weight="normal" font-style="normal" font-size="12" font-family="'Dialog'" fill-opacity="1" fill="black" color-rendering="auto" color-interpolation="auto" xmlns="http://www.w3.org/2000/svg"><g><g stroke="white" fill="white"><rect y="0" x="0" width="12967" stroke="none" height="5080"/></g><g transform="translate(32866,32758)" text-rendering="geometricPrecision" stroke-width="44" stroke-linejoin="round" stroke-linecap="round"><line y2="-30807" y1="-31376" x2="-29735" x1="-30717" fill="none"/><line y2="-30729" y1="-31156" x2="-29943" x1="-30680" fill="none"/><line y2="-29668" y1="-30807" x2="-29735" x1="-29735" fill="none"/><line y2="-31376" y1="-30807" x2="-30717" x1="-31705" fill="none"/><line y2="-29099" y1="-29668" x2="-30717" x1="-29735" fill="none"/><line y2="-29319" y1="-29744" x2="-30680" x1="-29943" fill="none"/><line y2="-30807" y1="-29668" x2="-31705" x1="-31705" fill="none"/><line y2="-30665" y1="-29810" x2="-31535" x1="-31535" fill="none"/><line y2="-29668" y1="-29099" x2="-31705" x1="-30717" fill="none"/><line y2="-31223" y1="-30807" x2="-29016" x1="-29735" fill="none"/><line y2="-30807" y1="-31223" x2="-27921" x1="-28640" fill="none"/><line y2="-32202" y1="-31376" x2="-30717" x1="-30717" fill="none"/><line y2="-28273" y1="-29099" x2="-30717" x1="-30717" fill="none"/><line y2="-29252" y1="-29668" x2="-32424" x1="-31705" fill="none"/><line y2="-30807" y1="-29668" x2="-27921" x1="-27921" fill="none"/><line y2="-30665" y1="-29810" x2="-27750" x1="-27750" fill="none"/><line y2="-31376" y1="-30807" x2="-26933" x1="-27921" fill="none"/><line y2="-29668" y1="-29099" x2="-27921" x1="-26933" fill="none"/><line y2="-30807" y1="-31376" x2="-25950" x1="-26933" fill="none"/><line y2="-30729" y1="-31156" x2="-26158" x1="-26895" fill="none"/><line y2="-29099" y1="-29668" x2="-26933" x1="-25950" fill="none"/><line y2="-29319" y1="-29744" x2="-26895" x1="-26158" fill="none"/><line y2="-29668" y1="-30807" x2="-25950" x1="-25950" fill="none"/><line y2="-29252" y1="-29668" x2="-25231" x1="-25950" fill="none"/><line y2="-29668" y1="-29365" x2="-24136" x1="-24662" fill="none"/><line y2="-29146" y1="-29668" x2="-23229" x1="-24136" fill="none"/><line y2="-29668" y1="-29146" x2="-22322" x1="-23229" fill="none"/><line y2="-30498" y1="-29668" x2="-24206" x1="-24206" fill="none"/><line y2="-30498" y1="-29668" x2="-24064" x1="-24064" fill="none"/><line y2="-29146" y1="-29668" x2="-21412" x1="-22322" fill="none"/><line y2="-29562" y1="-29146" x2="-20696" x1="-21412" fill="none"/><line y2="-28316" y1="-29146" x2="-21343" x1="-21343" fill="none"/><line y2="-28316" y1="-29146" x2="-21484" x1="-21484" fill="none"/><line y2="-30498" y1="-30498" x2="-22253" x1="-22388" fill="none"/><line y2="-30281" y1="-30281" x2="-22271" x1="-22371" fill="none"/><line y2="-30065" y1="-30065" x2="-22289" x1="-22354" fill="none"/><line y2="-29848" y1="-29848" x2="-22307" x1="-22336" fill="none"/><text y="-31150" xml:space="preserve" x="-28978" stroke="none" font-size="433.3333" font-family="sans-serif">O</text><text y="-32242" xml:space="preserve" x="-30948" stroke="none" font-size="433.3333" font-family="sans-serif">Br</text><text y="-27874" xml:space="preserve" x="-30870" stroke="none" font-size="433.3333" font-family="sans-serif">F</text><text y="-28966" xml:space="preserve" x="-32762" stroke="none" font-size="433.3333" font-family="sans-serif">F</text><text y="-28966" xml:space="preserve" x="-25194" stroke="none" font-size="433.3333" font-family="sans-serif">NH</text><text y="-30538" xml:space="preserve" x="-24286" stroke="none" font-size="433.3333" font-family="sans-serif">O</text><text y="-30538" xml:space="preserve" x="-22472" stroke="none" font-size="433.3333" font-family="sans-serif">NH</text><text y="-30448" xml:space="preserve" x="-21894" stroke="none" font-size="313.3333" font-family="sans-serif">2</text><text y="-29489" xml:space="preserve" x="-20658" stroke="none" font-size="433.3333" font-family="sans-serif">OH</text><text y="-27918" xml:space="preserve" x="-21565" stroke="none" font-size="433.3333" font-family="sans-serif">O</text><text y="-29189" xml:space="preserve" x="-22472" stroke="none" font-style="italic" font-size="313.3333" font-family="sans-serif">S</text></g></g></svg>