<svg width="129.39" viewBox="0 0 4313 4900" text-rendering="auto" stroke-width="1" stroke-opacity="1" stroke-miterlimit="10" stroke-linejoin="miter" stroke-linecap="square" stroke-dashoffset="0" stroke-dasharray="none" stroke="black" shape-rendering="auto" image-rendering="auto" height="147.0" font-weight="normal" font-style="normal" font-size="12" font-family="'Dialog'" fill-opacity="1" fill="black" color-rendering="auto" color-interpolation="auto" xmlns="http://www.w3.org/2000/svg"><g><g stroke="white" fill="white"><rect y="0" x="0" width="4313" stroke="none" height="4900"/></g><g transform="translate(32866,32758)" text-rendering="geometricPrecision" stroke-width="44" stroke-linejoin="round" stroke-linecap="round"><line y2="-30154" y1="-30706" x2="-30480" x1="-31191" fill="none"/><line y2="-30711" y1="-30154" x2="-31566" x1="-32320" fill="none"/><line y2="-29091" y1="-30154" x2="-30847" x1="-30480" fill="none"/><line y2="-30154" y1="-29091" x2="-32320" x1="-31994" fill="none"/><line y2="-29091" y1="-29091" x2="-31994" x1="-30847" fill="none"/><line y2="-31899" y1="-31070" x2="-31379" x1="-31379" fill="none"/><line y2="-32315" y1="-31899" x2="-30659" x1="-31379" fill="none"/><line y2="-31899" y1="-32315" x2="-29564" x1="-30284" fill="none"/><line y2="-32254" y1="-31838" x2="-32133" x1="-31413" fill="none"/><line y2="-32375" y1="-31959" x2="-32063" x1="-31344" fill="none"/><line y2="-32422" y1="-31899" x2="-28657" x1="-29564" fill="none"/><line y2="-30992" y1="-31899" x2="-29042" x1="-29564" fill="none"/><line y2="-30992" y1="-31899" x2="-30087" x1="-29564" fill="none"/><polygon stroke-width="1" stroke="none" points=" -30847 -29091 -30344 -28493 -30454 -28412"/><polygon stroke-width="1" points=" -30847 -29091 -30344 -28493 -30454 -28412" fill="none"/><line y2="-28501" y1="-28423" x2="-32505" x1="-32393" fill="none"/><line y2="-28666" y1="-28609" x2="-32362" x1="-32282" fill="none"/><line y2="-28830" y1="-28796" x2="-32220" x1="-32170" fill="none"/><line y2="-28995" y1="-28982" x2="-32077" x1="-32059" fill="none"/><text y="-32242" xml:space="preserve" x="-30625" stroke="none" font-size="433.3333" font-family="sans-serif">O</text><text y="-32242" xml:space="preserve" x="-32439" stroke="none" font-size="433.3333" font-family="sans-serif">O</text><text y="-28054" xml:space="preserve" x="-30399" stroke="none" font-size="433.3333" font-family="sans-serif">F</text><text y="-28065" xml:space="preserve" x="-32762" stroke="none" font-size="433.3333" font-family="sans-serif">OH</text><text y="-30671" xml:space="preserve" x="-31532" stroke="none" font-size="433.3333" font-family="sans-serif">N</text><text y="-29198" xml:space="preserve" x="-31231" stroke="none" font-style="italic" font-size="313.3333" font-family="sans-serif">R</text><text y="-29198" xml:space="preserve" x="-31913" stroke="none" font-style="italic" font-size="313.3333" font-family="sans-serif">R</text></g></g></svg>