<svg width="390.96" viewBox="0 0 13032 5730" text-rendering="auto" stroke-width="1" stroke-opacity="1" stroke-miterlimit="10" stroke-linejoin="miter" stroke-linecap="square" stroke-dashoffset="0" stroke-dasharray="none" stroke="black" shape-rendering="auto" image-rendering="auto" height="171.9" font-weight="normal" font-style="normal" font-size="12" font-family="'Dialog'" fill-opacity="1" fill="black" color-rendering="auto" color-interpolation="auto" xmlns="http://www.w3.org/2000/svg"><g><g stroke="white" fill="white"><rect y="0" x="0" width="13032" stroke="none" height="5730"/></g><g transform="translate(32866,32758)" text-rendering="geometricPrecision" stroke-width="44" stroke-linejoin="round" stroke-linecap="round"><line y2="-29576" y1="-29576" x2="-28680" x1="-26788" fill="none"/><line y2="-30775" y1="-29576" x2="-26788" x1="-26788" fill="none"/><line y2="-30625" y1="-29726" x2="-26618" x1="-26618" fill="none"/><line y2="-29576" y1="-28975" x2="-26788" x1="-25748" fill="none"/><line y2="-30775" y1="-29796" x2="-28868" x1="-28868" fill="none"/><line y2="-28975" y1="-29466" x2="-29905" x1="-29056" fill="none"/><line y2="-30775" y1="-31376" x2="-26788" x1="-27825" fill="none"/><line y2="-31376" y1="-30775" x2="-25748" x1="-26788" fill="none"/><line y2="-28975" y1="-29466" x2="-25748" x1="-24899" fill="none"/><line y2="-29183" y1="-29550" x2="-25725" x1="-25090" fill="none"/><line y2="-31376" y1="-30775" x2="-27825" x1="-28868" fill="none"/><line y2="-31150" y1="-30703" x2="-27872" x1="-28652" fill="none"/><line y2="-30775" y1="-31376" x2="-28868" x1="-29905" fill="none"/><line y2="-29576" y1="-28975" x2="-30948" x1="-29905" fill="none"/><line y2="-30885" y1="-31376" x2="-24899" x1="-25748" fill="none"/><line y2="-29796" y1="-30555" x2="-24711" x1="-24711" fill="none"/><line y2="-31376" y1="-30882" x2="-29905" x1="-30758" fill="none"/><line y2="-30555" y1="-29576" x2="-30948" x1="-30948" fill="none"/><line y2="-31298" y1="-30882" x2="-23804" x1="-24523" fill="none"/><line y2="-30775" y1="-31298" x2="-22897" x1="-23804" fill="none"/><line y2="-31298" y1="-30882" x2="-31855" x1="-31136" fill="none"/><line y2="-30775" y1="-31298" x2="-32762" x1="-31855" fill="none"/><line y2="-27926" y1="-28975" x2="-25748" x1="-25748" fill="none"/><line y2="-32202" y1="-31376" x2="-27825" x1="-27825" fill="none"/><line y2="-32202" y1="-31376" x2="-25818" x1="-25818" fill="none"/><line y2="-32202" y1="-31376" x2="-25676" x1="-25676" fill="none"/><line y2="-32202" y1="-31376" x2="-29975" x1="-29975" fill="none"/><line y2="-32202" y1="-31376" x2="-29836" x1="-29836" fill="none"/><line y2="-30775" y1="-29637" x2="-22897" x1="-22897" fill="none"/><line y2="-30633" y1="-29781" x2="-22726" x1="-22726" fill="none"/><line y2="-31344" y1="-30775" x2="-21909" x1="-22897" fill="none"/><line y2="-29637" y1="-29068" x2="-22897" x1="-21909" fill="none"/><line y2="-30775" y1="-31344" x2="-20927" x1="-21909" fill="none"/><line y2="-30700" y1="-31124" x2="-21135" x1="-21871" fill="none"/><line y2="-29068" y1="-29637" x2="-21909" x1="-20927" fill="none"/><line y2="-29287" y1="-29715" x2="-21871" x1="-21135" fill="none"/><line y2="-29637" y1="-30775" x2="-20927" x1="-20927" fill="none"/><line y2="-28241" y1="-29068" x2="-21909" x1="-21909" fill="none"/><line y2="-29221" y1="-29637" x2="-20207" x1="-20927" fill="none"/><line y2="-27623" y1="-27926" x2="-26274" x1="-25748" fill="none"/><line y2="-27759" y1="-27510" x2="-27274" x1="-26843" fill="none"/><line y2="-27571" y1="-27987" x2="-24994" x1="-25714" fill="none"/><line y2="-27450" y1="-27866" x2="-25064" x1="-25783" fill="none"/><polygon stroke-width="1" stroke="none" points=" -29905 -28975 -29836 -27926 -29975 -27926"/><polygon stroke-width="1" points=" -29905 -28975 -29836 -27926 -29975 -27926" fill="none"/><text y="-27224" xml:space="preserve" x="-26806" stroke-width="1" stroke="none" font-size="433.3333" font-family="sans-serif">NH</text><text y="-27224" xml:space="preserve" x="-24991" stroke-width="1" stroke="none" font-size="433.3333" font-family="sans-serif">O</text><text y="-27909" xml:space="preserve" x="-27996" stroke-width="1" stroke="none" font-size="433.3333" font-family="sans-serif">CH</text><text y="-27820" xml:space="preserve" x="-27418" stroke-width="1" stroke="none" font-size="313.3333" font-family="sans-serif">3</text><text y="-32242" xml:space="preserve" x="-27978" stroke-width="1" stroke="none" font-size="433.3333" font-family="sans-serif">OH</text><text y="-32242" xml:space="preserve" x="-25898" stroke-width="1" stroke="none" font-size="433.3333" font-family="sans-serif">O</text><text y="-32242" xml:space="preserve" x="-30058" stroke-width="1" stroke="none" font-size="433.3333" font-family="sans-serif">O</text><text y="-27843" xml:space="preserve" x="-22140" stroke-width="1" stroke="none" font-size="433.3333" font-family="sans-serif">Cl</text><text y="-28935" xml:space="preserve" x="-20170" stroke-width="1" stroke="none" font-size="433.3333" font-family="sans-serif">F</text><text y="-29397" xml:space="preserve" x="-29021" stroke-width="1" stroke="none" font-size="433.3333" font-family="sans-serif">N</text><text y="-29397" xml:space="preserve" x="-24861" stroke-width="1" stroke="none" font-size="433.3333" font-family="sans-serif">N</text><text y="-30596" xml:space="preserve" x="-24861" stroke-width="1" stroke="none" font-size="433.3333" font-family="sans-serif">N</text><text y="-30596" xml:space="preserve" x="-31098" stroke-width="1" stroke="none" font-size="433.3333" font-family="sans-serif">N</text></g><g transform="translate(32866,32758)" text-rendering="geometricPrecision" stroke-linejoin="round" stroke-linecap="round" font-style="italic" font-size="313.3333" font-family="sans-serif"><text y="-29096" xml:space="preserve" x="-30058" stroke="none">S</text></g></g></svg>