<svg width="233.64" viewBox="0 0 7788 6578" text-rendering="auto" stroke-width="1" stroke-opacity="1" stroke-miterlimit="10" stroke-linejoin="miter" stroke-linecap="square" stroke-dashoffset="0" stroke-dasharray="none" stroke="black" shape-rendering="auto" image-rendering="auto" height="197.34" font-weight="normal" font-style="normal" font-size="12" font-family="'Dialog'" fill-opacity="1" fill="black" color-rendering="auto" color-interpolation="auto" xmlns="http://www.w3.org/2000/svg"><g><g stroke="white" fill="white"><rect y="0" x="0" width="7788" stroke="none" height="6578"/></g><g transform="translate(32866,32866)" text-rendering="geometricPrecision" stroke-width="44" stroke-linejoin="round" stroke-linecap="round"><line y2="-29452" y1="-28623" x2="-28059" x1="-28059" fill="none"/><line y2="-30194" y1="-29778" x2="-28966" x1="-28250" fill="none"/><line y2="-28100" y1="-28623" x2="-27152" x1="-28059" fill="none"/><line y2="-28146" y1="-28562" x2="-28744" x1="-28025" fill="none"/><line y2="-28267" y1="-28683" x2="-28813" x1="-28097" fill="none"/><line y2="-30194" y1="-31332" x2="-28966" x1="-28966" fill="none"/><line y2="-30336" y1="-31188" x2="-29137" x1="-29137" fill="none"/><line y2="-29625" y1="-30194" x2="-29954" x1="-28966" fill="none"/><line y2="-31332" y1="-31899" x2="-28966" x1="-29954" fill="none"/><line y2="-30194" y1="-29625" x2="-30937" x1="-29954" fill="none"/><line y2="-30269" y1="-29842" x2="-30732" x1="-29992" fill="none"/><line y2="-31899" y1="-31332" x2="-29954" x1="-30937" fill="none"/><line y2="-31682" y1="-31254" x2="-29992" x1="-30732" fill="none"/><line y2="-31332" y1="-30194" x2="-30937" x1="-30937" fill="none"/><line y2="-31855" y1="-31332" x2="-31847" x1="-30937" fill="none"/><line y2="-28666" y1="-28100" x2="-26170" x1="-27152" fill="none"/><line y2="-28449" y1="-28022" x2="-26208" x1="-26947" fill="none"/><line y2="-28100" y1="-26962" x2="-27152" x1="-27152" fill="none"/><line y2="-28100" y1="-28666" x2="-25182" x1="-26170" fill="none"/><line y2="-26962" y1="-26392" x2="-27152" x1="-26170" fill="none"/><line y2="-27037" y1="-26609" x2="-26947" x1="-26208" fill="none"/><line y2="-26962" y1="-28100" x2="-25182" x1="-25182" fill="none"/><line y2="-27103" y1="-27955" x2="-25352" x1="-25352" fill="none"/><line y2="-26392" y1="-26962" x2="-26170" x1="-25182" fill="none"/><line y2="-29495" y1="-28666" x2="-26170" x1="-26170" fill="none"/><line y2="-31347" y1="-31855" x2="-32762" x1="-31847" fill="none"/><line y2="-32762" y1="-31855" x2="-32370" x1="-31847" fill="none"/><line y2="-32762" y1="-31855" x2="-31321" x1="-31847" fill="none"/><text y="-29492" xml:space="preserve" x="-28212" stroke="none" font-size="433.3333" font-family="sans-serif">O</text><text y="-27921" xml:space="preserve" x="-29120" stroke="none" font-size="433.3333" font-family="sans-serif">O</text><text y="-29536" xml:space="preserve" x="-26323" stroke="none" font-size="433.3333" font-family="sans-serif">OH</text></g></g></svg>