<svg width="194.97" viewBox="0 0 6499 5654" text-rendering="auto" stroke-width="1" stroke-opacity="1" stroke-miterlimit="10" stroke-linejoin="miter" stroke-linecap="square" stroke-dashoffset="0" stroke-dasharray="none" stroke="black" shape-rendering="auto" image-rendering="auto" height="169.62" font-weight="normal" font-style="normal" font-size="12" font-family="'Dialog'" fill-opacity="1" fill="black" color-rendering="auto" color-interpolation="auto" xmlns="http://www.w3.org/2000/svg"><g><g stroke="white" fill="white"><rect y="0" x="0" width="6499" stroke="none" height="5654"/></g><g transform="translate(32866,32758)" text-rendering="geometricPrecision" stroke-width="44" stroke-linejoin="round" stroke-linecap="round"><line y2="-30252" y1="-30850" x2="-28718" x1="-29755" fill="none"/><line y2="-30180" y1="-30628" x2="-28935" x1="-29712" fill="none"/><line y2="-29050" y1="-30252" x2="-28718" x1="-28718" fill="none"/><line y2="-30743" y1="-30252" x2="-27866" x1="-28718" fill="none"/><line y2="-30850" y1="-30252" x2="-29755" x1="-30798" fill="none"/><line y2="-28452" y1="-29050" x2="-29755" x1="-28718" fill="none"/><line y2="-28672" y1="-29122" x2="-29712" x1="-28935" fill="none"/><line y2="-29050" y1="-29050" x2="-28718" x1="-26829" fill="none"/><line y2="-30359" y1="-30740" x2="-26829" x1="-27487" fill="none"/><line y2="-30252" y1="-29050" x2="-30798" x1="-30798" fill="none"/><line y2="-30102" y1="-29200" x2="-30628" x1="-30628" fill="none"/><line y2="-29050" y1="-28452" x2="-30798" x1="-29755" fill="none"/><line y2="-29270" y1="-30032" x2="-26638" x1="-26638" fill="none"/><line y2="-29365" y1="-29937" x2="-26808" x1="-26808" fill="none"/><line y2="-31679" y1="-30850" x2="-29755" x1="-29755" fill="none"/><line y2="-28634" y1="-29050" x2="-31514" x1="-30798" fill="none"/><line y2="-32254" y1="-31945" x2="-30509" x1="-29978" fill="none"/><line y2="-32375" y1="-32069" x2="-30440" x1="-29908" fill="none"/><line y2="-32375" y1="-32069" x2="-29070" x1="-29602" fill="none"/><line y2="-32254" y1="-31945" x2="-29001" x1="-29533" fill="none"/><line y2="-27698" y1="-28308" x2="-31633" x1="-31633" fill="none"/><line y2="-27698" y1="-28308" x2="-31774" x1="-31774" fill="none"/><line y2="-28883" y1="-28574" x2="-32459" x1="-31928" fill="none"/><line y2="-29004" y1="-28695" x2="-32387" x1="-31858" fill="none"/><text y="-31720" xml:space="preserve" x="-29908" stroke="none" font-size="433.3333" font-family="sans-serif">N</text><text y="-32242" xml:space="preserve" x="-30815" stroke="none" font-size="433.3333" font-family="sans-serif">O</text><text y="-32242" xml:space="preserve" x="-29001" stroke="none" font-size="433.3333" font-family="sans-serif">O</text><text y="-28348" xml:space="preserve" x="-31855" stroke="none" font-size="433.3333" font-family="sans-serif">N</text><text y="-27300" xml:space="preserve" x="-31855" stroke="none" font-size="433.3333" font-family="sans-serif">O</text><text y="-28871" xml:space="preserve" x="-32762" stroke="none" font-size="433.3333" font-family="sans-serif">O</text><text y="-30671" xml:space="preserve" x="-27828" stroke="none" font-size="433.3333" font-family="sans-serif">O</text><text y="-28871" xml:space="preserve" x="-26791" stroke="none" font-size="433.3333" font-family="sans-serif">N</text><text y="-30073" xml:space="preserve" x="-26791" stroke="none" font-size="433.3333" font-family="sans-serif">N</text></g></g></svg>