<svg width="462.24" viewBox="0 0 15408 9310" text-rendering="auto" stroke-width="1" stroke-opacity="1" stroke-miterlimit="10" stroke-linejoin="miter" stroke-linecap="square" stroke-dashoffset="0" stroke-dasharray="none" stroke="black" shape-rendering="auto" image-rendering="auto" height="279.3" font-weight="normal" font-style="normal" font-size="12" font-family="'Dialog'" fill-opacity="1" fill="black" color-rendering="auto" color-interpolation="auto" xmlns="http://www.w3.org/2000/svg"><g><g stroke="white" fill="white"><rect y="0" x="0" width="15408" stroke="none" height="9310"/></g><g transform="translate(32866,32866)" text-rendering="geometricPrecision" stroke-width="44" stroke-linejoin="round" stroke-linecap="round"><line y2="-28302" y1="-29440" x2="-27762" x1="-27762" fill="none"/><line y2="-30009" y1="-29440" x2="-26774" x1="-27762" fill="none"/><line y2="-30009" y1="-29440" x2="-28744" x1="-27762" fill="none"/><line y2="-28302" y1="-27843" x2="-27762" x1="-26962" fill="none"/><line y2="-27843" y1="-28302" x2="-28556" x1="-27762" fill="none"/><line y2="-29440" y1="-30009" x2="-25792" x1="-26774" fill="none"/><line y2="-30009" y1="-31145" x2="-26774" x1="-26774" fill="none"/><line y2="-30009" y1="-29440" x2="-28744" x1="-29732" fill="none"/><line y2="-31145" y1="-30009" x2="-28744" x1="-28744" fill="none"/><line y2="-27843" y1="-28302" x2="-26586" x1="-25792" fill="none"/><line y2="-28302" y1="-27843" x2="-29732" x1="-28932" fill="none"/><line y2="-28302" y1="-29440" x2="-25792" x1="-25792" fill="none"/><line y2="-30009" y1="-29440" x2="-24806" x1="-25792" fill="none"/><line y2="-29790" y1="-29365" x2="-24844" x1="-25584" fill="none"/><line y2="-31145" y1="-31714" x2="-26774" x1="-27762" fill="none"/><line y2="-31070" y1="-31497" x2="-26982" x1="-27724" fill="none"/><line y2="-28302" y1="-29440" x2="-29732" x1="-29732" fill="none"/><line y2="-29440" y1="-30009" x2="-29732" x1="-30714" fill="none"/><line y2="-29365" y1="-29790" x2="-29940" x1="-30677" fill="none"/><line y2="-31714" y1="-31145" x2="-27762" x1="-28744" fill="none"/><line y2="-28302" y1="-27733" x2="-25792" x1="-24806" fill="none"/><line y2="-28380" y1="-27952" x2="-25584" x1="-24844" fill="none"/><line y2="-27733" y1="-28302" x2="-30714" x1="-29732" fill="none"/><line y2="-27952" y1="-28380" x2="-30677" x1="-29940" fill="none"/><line y2="-29440" y1="-30009" x2="-23821" x1="-24806" fill="none"/><line y2="-30009" y1="-29440" x2="-30714" x1="-31702" fill="none"/><line y2="-27733" y1="-28302" x2="-24806" x1="-23821" fill="none"/><line y2="-28302" y1="-27733" x2="-31702" x1="-30714" fill="none"/><line y2="-28302" y1="-29440" x2="-23821" x1="-23821" fill="none"/><line y2="-28446" y1="-29299" x2="-23989" x1="-23989" fill="none"/><line y2="-29440" y1="-28302" x2="-31702" x1="-31702" fill="none"/><line y2="-29299" y1="-28446" x2="-31532" x1="-31532" fill="none"/><line y2="-27779" y1="-28302" x2="-22914" x1="-23821" fill="none"/><line y2="-32762" y1="-31714" x2="-27762" x1="-27762" fill="none"/><line y2="-30838" y1="-30009" x2="-24806" x1="-24806" fill="none"/><line y2="-27999" y1="-28302" x2="-32231" x1="-31702" fill="none"/><line y2="-26687" y1="-27256" x2="-26780" x1="-27762" fill="none"/><line y2="-26609" y1="-27037" x2="-26985" x1="-27724" fill="none"/><line y2="-27256" y1="-26687" x2="-27762" x1="-28750" fill="none"/><line y2="-25549" y1="-26687" x2="-26780" x1="-26780" fill="none"/><line y2="-26687" y1="-25549" x2="-28750" x1="-28750" fill="none"/><line y2="-26543" y1="-25690" x2="-28579" x1="-28579" fill="none"/><line y2="-24980" y1="-25549" x2="-27762" x1="-26780" fill="none"/><line y2="-25196" y1="-25624" x2="-27724" x1="-26985" fill="none"/><line y2="-25549" y1="-24980" x2="-28750" x1="-27762" fill="none"/><line y2="-27103" y1="-26687" x2="-26060" x1="-26780" fill="none"/><line y2="-24151" y1="-24980" x2="-27762" x1="-27762" fill="none"/><line y2="-27779" y1="-26860" x2="-22914" x1="-22914" fill="none"/><line y2="-28348" y1="-27779" x2="-21929" x1="-22914" fill="none"/><line y2="-28129" y1="-27704" x2="-21967" x1="-22706" fill="none"/><line y2="-26641" y1="-26641" x2="-22724" x1="-20941" fill="none"/><line y2="-27779" y1="-28348" x2="-20941" x1="-21929" fill="none"/><line y2="-27779" y1="-26641" x2="-20941" x1="-20941" fill="none"/><line y2="-26641" y1="-26072" x2="-20941" x1="-19959" fill="none"/><line y2="-26719" y1="-26291" x2="-20733" x1="-19996" fill="none"/><line y2="-28348" y1="-27779" x2="-19959" x1="-20941" fill="none"/><line y2="-28129" y1="-27704" x2="-19996" x1="-20733" fill="none"/><line y2="-26072" y1="-26641" x2="-19959" x1="-18971" fill="none"/><line y2="-27779" y1="-28348" x2="-18971" x1="-19959" fill="none"/><line y2="-26641" y1="-27779" x2="-18971" x1="-18971" fill="none"/><line y2="-26782" y1="-27638" x2="-19141" x1="-19141" fill="none"/><line y2="-26225" y1="-26641" x2="-18252" x1="-18971" fill="none"/><polygon stroke-width="1" stroke="none" points=" -27762 -28302 -27692 -27256 -27831 -27253"/><polygon stroke-width="1" points=" -27762 -28302 -27692 -27256 -27831 -27253" fill="none"/><polygon stroke-width="1" stroke="none" points=" -27762 -29440 -27831 -30266 -27692 -30269"/><polygon stroke-width="1" points=" -27762 -29440 -27831 -30266 -27692 -30269" fill="none"/><polygon stroke-width="1" stroke="none" points=" -26774 -30009 -26704 -29180 -26843 -29180"/><polygon stroke-width="1" points=" -26774 -30009 -26704 -29180 -26843 -29180" fill="none"/><line y2="-29180" y1="-29180" x2="-28813" x1="-28675" fill="none"/><line y2="-29397" y1="-29397" x2="-28795" x1="-28693" fill="none"/><line y2="-29613" y1="-29613" x2="-28777" x1="-28711" fill="none"/><line y2="-29830" y1="-29830" x2="-28759" x1="-28729" fill="none"/><text y="-27031" xml:space="preserve" x="-26023" stroke="none" font-size="433.3333" font-family="sans-serif">OH</text><text y="-30876" xml:space="preserve" x="-24960" stroke="none" font-size="433.3333" font-family="sans-serif">OH</text><text y="-23752" xml:space="preserve" x="-27915" stroke="none" font-size="433.3333" font-family="sans-serif">OH</text><text y="-27600" xml:space="preserve" x="-32762" stroke="none" font-size="433.3333" font-family="sans-serif">OH</text><text y="-25939" xml:space="preserve" x="-18217" stroke="none" font-size="433.3333" font-family="sans-serif">OH</text><text y="-27554" xml:space="preserve" x="-26927" stroke="none" font-size="433.3333" font-family="sans-serif">O</text><text y="-27554" xml:space="preserve" x="-28897" stroke="none" font-size="433.3333" font-family="sans-serif">O</text><text y="-26462" xml:space="preserve" x="-23064" stroke="none" font-size="433.3333" font-family="sans-serif">O</text><text y="-30310" xml:space="preserve" x="-27915" stroke="none" font-size="433.3333" font-family="sans-serif">H</text><text y="-28782" xml:space="preserve" x="-28897" stroke="none" font-size="433.3333" font-family="sans-serif">H</text><text y="-28782" xml:space="preserve" x="-26927" stroke="none" font-size="433.3333" font-family="sans-serif">H</text><text y="-29117" xml:space="preserve" x="-27664" stroke="none" font-style="italic" font-size="313.3333" font-family="sans-serif">R</text><text y="-28267" xml:space="preserve" x="-28160" stroke="none" font-style="italic" font-size="313.3333" font-family="sans-serif">R</text><text y="-29972" xml:space="preserve" x="-27175" stroke="none" font-style="italic" font-size="313.3333" font-family="sans-serif">S</text><text y="-29972" xml:space="preserve" x="-28649" stroke="none" font-style="italic" font-size="313.3333" font-family="sans-serif">S</text></g></g></svg>