<svg width="169.29" viewBox="0 0 5643 3168" text-rendering="auto" stroke-width="1" stroke-opacity="1" stroke-miterlimit="10" stroke-linejoin="miter" stroke-linecap="square" stroke-dashoffset="0" stroke-dasharray="none" stroke="black" shape-rendering="auto" image-rendering="auto" height="95.04" font-weight="normal" font-style="normal" font-size="12" font-family="'Dialog'" fill-opacity="1" fill="black" color-rendering="auto" color-interpolation="auto" xmlns="http://www.w3.org/2000/svg"><g><g stroke="white" fill="white"><rect y="0" x="0" width="5643" stroke="none" height="3168"/></g><g transform="translate(32866,32758)" text-rendering="geometricPrecision" stroke-width="44" stroke-linejoin="round" stroke-linecap="round"><line y2="-30997" y1="-31462" x2="-29954" x1="-30555" fill="none"/><line y2="-29694" y1="-30630" x2="-30165" x1="-29842" fill="none"/><line y2="-31468" y1="-30850" x2="-30931" x1="-31766" fill="none"/><line y2="-31254" y1="-30792" x2="-30934" x1="-31561" fill="none"/><line y2="-29694" y1="-29694" x2="-31410" x1="-30165" fill="none"/><line y2="-29865" y1="-29865" x2="-31254" x1="-30321" fill="none"/><line y2="-30850" y1="-29694" x2="-31766" x1="-31410" fill="none"/><line y2="-31376" y1="-30960" x2="-28857" x1="-29576" fill="none"/><line y2="-31176" y1="-30850" x2="-32762" x1="-31766" fill="none"/><line y2="-30960" y1="-31376" x2="-28137" x1="-28857" fill="none"/><line y2="-32202" y1="-31376" x2="-28929" x1="-28929" fill="none"/><line y2="-32202" y1="-31376" x2="-28787" x1="-28787" fill="none"/><text y="-30671" xml:space="preserve" x="-28103" stroke="none" font-size="433.3333" font-family="sans-serif">NH</text><text y="-30581" xml:space="preserve" x="-27525" stroke="none" font-size="313.3333" font-family="sans-serif">2</text><text y="-32242" xml:space="preserve" x="-29010" stroke="none" font-size="433.3333" font-family="sans-serif">O</text><text y="-30671" xml:space="preserve" x="-29917" stroke="none" font-size="433.3333" font-family="sans-serif">N</text><text y="-31428" xml:space="preserve" x="-30896" stroke="none" font-size="433.3333" font-family="sans-serif">N</text></g></g></svg>