<svg width="154.35" viewBox="0 0 5145 3719" text-rendering="auto" stroke-width="1" stroke-opacity="1" stroke-miterlimit="10" stroke-linejoin="miter" stroke-linecap="square" stroke-dashoffset="0" stroke-dasharray="none" stroke="black" shape-rendering="auto" image-rendering="auto" height="111.57" font-weight="normal" font-style="normal" font-size="12" font-family="'Dialog'" fill-opacity="1" fill="black" color-rendering="auto" color-interpolation="auto" xmlns="http://www.w3.org/2000/svg"><g><g stroke="white" fill="white"><rect y="0" x="0" width="5145" stroke="none" height="3719"/></g><g transform="translate(32866,32758)" text-rendering="geometricPrecision" stroke-width="44" stroke-linejoin="round" stroke-linecap="round"><line y2="-32465" y1="-31896" x2="-29718" x1="-30703" fill="none"/><line y2="-32245" y1="-31821" x2="-29755" x1="-30495" fill="none"/><line y2="-31896" y1="-30758" x2="-30703" x1="-30703" fill="none"/><line y2="-31896" y1="-32465" x2="-28732" x1="-29718" fill="none"/><line y2="-30758" y1="-30191" x2="-30703" x1="-29718" fill="none"/><line y2="-30836" y1="-30408" x2="-30495" x1="-29755" fill="none"/><line y2="-30758" y1="-31896" x2="-28732" x1="-28732" fill="none"/><line y2="-30902" y1="-31754" x2="-28903" x1="-28903" fill="none"/><line y2="-30191" y1="-30758" x2="-29718" x1="-28732" fill="none"/><line y2="-32422" y1="-31896" x2="-27825" x1="-28732" fill="none"/><line y2="-29143" y1="-30191" x2="-29718" x1="-29718" fill="none"/><line y2="-32312" y1="-31896" x2="-31422" x1="-30703" fill="none"/><line y2="-32063" y1="-32312" x2="-32228" x1="-31800" fill="none"/><text y="-32242" xml:space="preserve" x="-31763" stroke="none" font-size="433.3333" font-family="sans-serif">O</text><text y="-31665" xml:space="preserve" x="-32762" stroke="none" font-size="433.3333" font-family="sans-serif">CH</text><text y="-31575" xml:space="preserve" x="-32185" stroke="none" font-size="313.3333" font-family="sans-serif">3</text></g></g></svg>