<svg width="256.23" viewBox="0 0 8541 3953" text-rendering="auto" stroke-width="1" stroke-opacity="1" stroke-miterlimit="10" stroke-linejoin="miter" stroke-linecap="square" stroke-dashoffset="0" stroke-dasharray="none" stroke="black" shape-rendering="auto" image-rendering="auto" height="118.59" font-weight="normal" font-style="normal" font-size="12" font-family="'Dialog'" fill-opacity="1" fill="black" color-rendering="auto" color-interpolation="auto" xmlns="http://www.w3.org/2000/svg"><g><g stroke="white" fill="white"><rect y="0" x="0" width="8541" stroke="none" height="3953"/></g><g transform="translate(32866,32758)" text-rendering="geometricPrecision" stroke-width="44" stroke-linejoin="round" stroke-linecap="round"><line y2="-29706" y1="-30850" x2="-29738" x1="-29738" fill="none"/><line y2="-31315" y1="-30850" x2="-28943" x1="-29738" fill="none"/><line y2="-30850" y1="-31425" x2="-29738" x1="-30723" fill="none"/><line y2="-30775" y1="-31205" x2="-29949" x1="-30685" fill="none"/><line y2="-29131" y1="-29706" x2="-30723" x1="-29738" fill="none"/><line y2="-29351" y1="-29781" x2="-30685" x1="-29949" fill="none"/><line y2="-29706" y1="-29131" x2="-29738" x1="-28756" fill="none"/><line y2="-30850" y1="-31315" x2="-27773" x1="-28568" fill="none"/><line y2="-31425" y1="-30850" x2="-30723" x1="-31705" fill="none"/><line y2="-29706" y1="-29131" x2="-31705" x1="-30723" fill="none"/><line y2="-29131" y1="-29706" x2="-28756" x1="-27773" fill="none"/><line y2="-29706" y1="-30850" x2="-27773" x1="-27773" fill="none"/><line y2="-30850" y1="-29706" x2="-31705" x1="-31705" fill="none"/><line y2="-30708" y1="-29848" x2="-31535" x1="-31535" fill="none"/><line y2="-31376" y1="-30850" x2="-26866" x1="-27773" fill="none"/><line y2="-29290" y1="-29706" x2="-32424" x1="-31705" fill="none"/><line y2="-30960" y1="-31376" x2="-26147" x1="-26866" fill="none"/><line y2="-31266" y1="-30960" x2="-25240" x1="-25771" fill="none"/><line y2="-32202" y1="-31376" x2="-26936" x1="-26936" fill="none"/><line y2="-32202" y1="-31376" x2="-26797" x1="-26797" fill="none"/><text y="-30671" xml:space="preserve" x="-26112" stroke="none" font-size="433.3333" font-family="sans-serif">O</text><text y="-32242" xml:space="preserve" x="-27019" stroke="none" font-size="433.3333" font-family="sans-serif">O</text><text y="-31197" xml:space="preserve" x="-25205" stroke="none" font-size="433.3333" font-family="sans-serif">CH</text><text y="-31107" xml:space="preserve" x="-24627" stroke="none" font-size="313.3333" font-family="sans-serif">3</text><text y="-29001" xml:space="preserve" x="-32762" stroke="none" font-size="433.3333" font-family="sans-serif">F</text><text y="-31246" xml:space="preserve" x="-28909" stroke="none" font-size="433.3333" font-family="sans-serif">O</text></g></g></svg>