<svg width="381.18" viewBox="0 0 12706 9866" text-rendering="auto" stroke-width="1" stroke-opacity="1" stroke-miterlimit="10" stroke-linejoin="miter" stroke-linecap="square" stroke-dashoffset="0" stroke-dasharray="none" stroke="black" shape-rendering="auto" image-rendering="auto" height="295.98" font-weight="normal" font-style="normal" font-size="12" font-family="'Dialog'" fill-opacity="1" fill="black" color-rendering="auto" color-interpolation="auto" xmlns="http://www.w3.org/2000/svg"><g><g stroke="white" fill="white"><rect y="0" x="0" width="12706" stroke="none" height="9866"/></g><g transform="translate(32866,32758)" text-rendering="geometricPrecision" stroke-width="44" stroke-linejoin="round" stroke-linecap="round"><line y2="-24281" y1="-25344" x2="-29651" x1="-29281" fill="none"/><line y2="-25344" y1="-25893" x2="-29281" x1="-29995" fill="none"/><line y2="-24281" y1="-24281" x2="-30798" x1="-29651" fill="none"/><line y2="-25901" y1="-25344" x2="-30370" x1="-31124" fill="none"/><line y2="-25344" y1="-24281" x2="-31124" x1="-30798" fill="none"/><line y2="-25344" y1="-25760" x2="-27467" x1="-28186" fill="none"/><line y2="-23755" y1="-24281" x2="-31705" x1="-30798" fill="none"/><line y2="-24061" y1="-23755" x2="-32231" x1="-31705" fill="none"/><line y2="-27574" y1="-27112" x2="-25578" x1="-26372" fill="none"/><line y2="-27005" y1="-27574" x2="-24590" x1="-25578" fill="none"/><line y2="-26785" y1="-25867" x2="-26560" x1="-26560" fill="none"/><line y2="-25867" y1="-27005" x2="-24590" x1="-24590" fill="none"/><line y2="-25867" y1="-25298" x2="-26560" x1="-25578" fill="none"/><line y2="-25298" y1="-25867" x2="-25578" x1="-24590" fill="none"/><line y2="-29146" y1="-28730" x2="-24671" x1="-25390" fill="none"/><line y2="-29146" y1="-30281" x2="-22700" x1="-22700" fill="none"/><line y2="-29287" y1="-30139" x2="-22871" x1="-22871" fill="none"/><line y2="-30281" y1="-30850" x2="-22700" x1="-23688" fill="none"/><line y2="-28576" y1="-29146" x2="-23688" x1="-22700" fill="none"/><line y2="-30850" y1="-30281" x2="-23688" x1="-24671" fill="none"/><line y2="-30633" y1="-30206" x2="-23726" x1="-24463" fill="none"/><line y2="-29146" y1="-28576" x2="-24671" x1="-23688" fill="none"/><line y2="-29221" y1="-28793" x2="-24463" x1="-23726" fill="none"/><line y2="-30281" y1="-29146" x2="-24671" x1="-24671" fill="none"/><line y2="-30697" y1="-30281" x2="-21981" x1="-22700" fill="none"/><line y2="-30391" y1="-30697" x2="-21074" x1="-21606" fill="none"/><line y2="-28730" y1="-29146" x2="-21981" x1="-22700" fill="none"/><line y2="-29036" y1="-28730" x2="-21074" x1="-21606" fill="none"/><line y2="-31679" y1="-30850" x2="-23688" x1="-23688" fill="none"/><line y2="-32315" y1="-32008" x2="-22969" x1="-23498" fill="none"/><polygon stroke-width="1" stroke="none" points=" -29281 -25344 -28597 -25818 -28527 -25699"/><polygon stroke-width="1" points=" -29281 -25344 -28597 -25818 -28527 -25699" fill="none"/><polygon stroke-width="1" stroke="none" points=" -27432 -25283 -26560 -25867 -27502 -25402"/><polygon stroke-width="1" points=" -27432 -25283 -26560 -25867 -27502 -25402" fill="none"/><polygon stroke-width="1" stroke="none" points=" -25578 -27574 -25647 -28400 -25508 -28400"/><polygon stroke-width="1" points=" -25578 -27574 -25647 -28400 -25508 -28400" fill="none"/><polygon stroke-width="1" stroke="none" points=" -24590 -25867 -23839 -25511 -23905 -25390"/><polygon stroke-width="1" points=" -24590 -25867 -23839 -25511 -23905 -25390" fill="none"/><line y2="-23466" y1="-23506" x2="-30651" x1="-30518" fill="none"/><line y2="-23681" y1="-23710" x2="-30690" x1="-30592" fill="none"/><line y2="-23895" y1="-23914" x2="-30728" x1="-30665" fill="none"/><line y2="-24110" y1="-24118" x2="-30767" x1="-30739" fill="none"/><line y2="-23599" y1="-23680" x2="-29258" x1="-29148" fill="none"/><line y2="-23788" y1="-23846" x2="-29367" x1="-29287" fill="none"/><line y2="-23977" y1="-24013" x2="-29476" x1="-29427" fill="none"/><line y2="-24166" y1="-24179" x2="-29584" x1="-29566" fill="none"/><line y2="-27360" y1="-27479" x2="-23836" x1="-23905" fill="none"/><line y2="-27267" y1="-27355" x2="-24033" x1="-24084" fill="none"/><line y2="-27175" y1="-27232" x2="-24229" x1="-24262" fill="none"/><line y2="-27082" y1="-27108" x2="-24426" x1="-24441" fill="none"/><line y2="-24468" y1="-24471" x2="-25647" x1="-25508" fill="none"/><line y2="-24685" y1="-24687" x2="-25629" x1="-25526" fill="none"/><line y2="-24902" y1="-24904" x2="-25611" x1="-25545" fill="none"/><line y2="-25119" y1="-25120" x2="-25593" x1="-25563" fill="none"/><text y="-30628" xml:space="preserve" x="-21946" stroke="none" font-size="433.3333" font-family="sans-serif">O</text><text y="-30102" xml:space="preserve" x="-21039" stroke="none" font-size="433.3333" font-family="sans-serif">CH</text><text y="-30012" xml:space="preserve" x="-20462" stroke="none" font-size="313.3333" font-family="sans-serif">3</text><text y="-28441" xml:space="preserve" x="-21946" stroke="none" font-size="433.3333" font-family="sans-serif">O</text><text y="-28966" xml:space="preserve" x="-21039" stroke="none" font-size="433.3333" font-family="sans-serif">CH</text><text y="-28877" xml:space="preserve" x="-20462" stroke="none" font-size="313.3333" font-family="sans-serif">3</text><text y="-31720" xml:space="preserve" x="-23839" stroke="none" font-size="433.3333" font-family="sans-serif">O</text><text y="-32242" xml:space="preserve" x="-22932" stroke="none" font-size="433.3333" font-family="sans-serif">CH</text><text y="-32153" xml:space="preserve" x="-22354" stroke="none" font-size="313.3333" font-family="sans-serif">3</text><text y="-28441" xml:space="preserve" x="-25731" stroke="none" font-size="433.3333" font-family="sans-serif">O</text><text y="-27349" xml:space="preserve" x="-23836" stroke="none" font-size="433.3333" font-family="sans-serif">OH</text><text y="-25688" xml:space="preserve" x="-28527" stroke="none" font-size="433.3333" font-family="sans-serif">O</text><text y="-25165" xml:space="preserve" x="-23836" stroke="none" font-size="433.3333" font-family="sans-serif">OH</text><text y="-24073" xml:space="preserve" x="-25731" stroke="none" font-size="433.3333" font-family="sans-serif">OH</text><text y="-23244" xml:space="preserve" x="-29203" stroke="none" font-size="433.3333" font-family="sans-serif">OH</text><text y="-24102" xml:space="preserve" x="-32762" stroke="none" font-size="433.3333" font-family="sans-serif">OH</text><text y="-23088" xml:space="preserve" x="-30677" stroke="none" font-size="433.3333" font-family="sans-serif">OH</text><text y="-26826" xml:space="preserve" x="-26713" stroke="none" font-size="433.3333" font-family="sans-serif">O</text><text y="-25861" xml:space="preserve" x="-30336" stroke="none" font-size="433.3333" font-family="sans-serif">O</text><text y="-27092" xml:space="preserve" x="-25731" stroke="none" font-style="italic" font-size="313.3333" font-family="sans-serif">S</text><text y="-26681" xml:space="preserve" x="-24991" stroke="none" font-style="italic" font-size="313.3333" font-family="sans-serif">R</text><text y="-25832" xml:space="preserve" x="-26465" stroke="none" font-style="italic" font-size="313.3333" font-family="sans-serif">R</text><text y="-25832" xml:space="preserve" x="-24991" stroke="none" font-style="italic" font-size="313.3333" font-family="sans-serif">S</text><text y="-25422" xml:space="preserve" x="-25731" stroke="none" font-style="italic" font-size="313.3333" font-family="sans-serif">S</text><text y="-25066" xml:space="preserve" x="-29703" stroke="none" font-style="italic" font-size="313.3333" font-family="sans-serif">R</text><text y="-24388" xml:space="preserve" x="-30035" stroke="none" font-style="italic" font-size="313.3333" font-family="sans-serif">R</text><text y="-24388" xml:space="preserve" x="-30717" stroke="none" font-style="italic" font-size="313.3333" font-family="sans-serif">R</text></g></g></svg>