<svg width="222.6" viewBox="0 0 7420 7570" text-rendering="auto" stroke-width="1" stroke-opacity="1" stroke-miterlimit="10" stroke-linejoin="miter" stroke-linecap="square" stroke-dashoffset="0" stroke-dasharray="none" stroke="black" shape-rendering="auto" image-rendering="auto" height="227.1" font-weight="normal" font-style="normal" font-size="12" font-family="'Dialog'" fill-opacity="1" fill="black" color-rendering="auto" color-interpolation="auto" xmlns="http://www.w3.org/2000/svg"><g><g stroke="white" fill="white"><rect y="0" x="0" width="7420" stroke="none" height="7570"/></g><g transform="translate(32866,32758)" text-rendering="geometricPrecision" stroke-width="44" stroke-linejoin="round" stroke-linecap="round"><line y2="-29042" y1="-29616" x2="-29640" x1="-30622" fill="none"/><line y2="-29616" y1="-29042" x2="-30622" x1="-31604" fill="none"/><line y2="-29397" y1="-28966" x2="-30659" x1="-31396" fill="none"/><line y2="-27895" y1="-29042" x2="-29640" x1="-29640" fill="none"/><line y2="-28039" y1="-28900" x2="-29810" x1="-29810" fill="none"/><line y2="-29616" y1="-29042" x2="-28657" x1="-29640" fill="none"/><line y2="-29042" y1="-27895" x2="-31604" x1="-31604" fill="none"/><line y2="-27323" y1="-27895" x2="-30622" x1="-29640" fill="none"/><line y2="-27895" y1="-27323" x2="-29640" x1="-28657" fill="none"/><line y2="-29042" y1="-29616" x2="-27675" x1="-28657" fill="none"/><line y2="-28966" y1="-29397" x2="-27883" x1="-28623" fill="none"/><line y2="-27895" y1="-27323" x2="-31604" x1="-30622" fill="none"/><line y2="-27970" y1="-27542" x2="-31396" x1="-30659" fill="none"/><line y2="-27323" y1="-27895" x2="-28657" x1="-27675" fill="none"/><line y2="-27542" y1="-27970" x2="-28623" x1="-27883" fill="none"/><line y2="-27895" y1="-29042" x2="-27675" x1="-27675" fill="none"/><line y2="-30443" y1="-29616" x2="-30622" x1="-30622" fill="none"/><line y2="-26274" y1="-27323" x2="-30622" x1="-30622" fill="none"/><line y2="-30801" y1="-31358" x2="-30434" x1="-29680" fill="none"/><line y2="-31358" y1="-30807" x2="-31523" x1="-30810" fill="none"/><line y2="-31358" y1="-32202" x2="-29680" x1="-29940" fill="none"/><line y2="-31413" y1="-32046" x2="-29876" x1="-30073" fill="none"/><line y2="-32202" y1="-31358" x2="-31231" x1="-31523" fill="none"/><line y2="-32043" y1="-31408" x2="-31107" x1="-31324" fill="none"/><line y2="-32422" y1="-32422" x2="-30197" x1="-30966" fill="none"/><line y2="-30942" y1="-31358" x2="-28961" x1="-29680" fill="none"/><line y2="-31358" y1="-30942" x2="-27866" x1="-28585" fill="none"/><line y2="-30836" y1="-31358" x2="-26959" x1="-27866" fill="none"/><line y2="-31168" y1="-31358" x2="-32190" x1="-31523" fill="none"/><line y2="-25292" y1="-26274" x2="-30050" x1="-30622" fill="none"/><line y2="-26274" y1="-25292" x2="-30622" x1="-31197" fill="none"/><line y2="-25292" y1="-25292" x2="-31197" x1="-30050" fill="none"/><line y2="-31252" y1="-30836" x2="-26239" x1="-26959" fill="none"/><line y2="-30006" y1="-30836" x2="-26889" x1="-26889" fill="none"/><line y2="-30006" y1="-30836" x2="-27028" x1="-27028" fill="none"/><text y="-30656" xml:space="preserve" x="-28926" stroke="none" font-size="433.3333" font-family="sans-serif">S</text><text y="-31179" xml:space="preserve" x="-26205" stroke="none" font-size="433.3333" font-family="sans-serif">OH</text><text y="-29608" xml:space="preserve" x="-27112" stroke="none" font-size="433.3333" font-family="sans-serif">O</text><text y="-30890" xml:space="preserve" x="-32762" stroke="none" font-size="433.3333" font-family="sans-serif">Br</text><text y="-30483" xml:space="preserve" x="-30775" stroke="none" font-size="433.3333" font-family="sans-serif">N</text><text y="-32242" xml:space="preserve" x="-30160" stroke="none" font-size="433.3333" font-family="sans-serif">N</text><text y="-32242" xml:space="preserve" x="-31306" stroke="none" font-size="433.3333" font-family="sans-serif">N</text></g></g></svg>