<svg width="628.59" viewBox="0 0 20953 5419" text-rendering="auto" stroke-width="1" stroke-opacity="1" stroke-miterlimit="10" stroke-linejoin="miter" stroke-linecap="square" stroke-dashoffset="0" stroke-dasharray="none" stroke="black" shape-rendering="auto" image-rendering="auto" height="162.57" font-weight="normal" font-style="normal" font-size="12" font-family="'Dialog'" fill-opacity="1" fill="black" color-rendering="auto" color-interpolation="auto" xmlns="http://www.w3.org/2000/svg"><g><g stroke="white" fill="white"><rect y="0" x="0" width="20953" stroke="none" height="5419"/></g><g transform="translate(32866,32866)" text-rendering="geometricPrecision" stroke-width="44" stroke-linejoin="round" stroke-linecap="round"><line y2="-30532" y1="-31084" x2="-14895" x1="-15605" fill="none"/><line y2="-30466" y1="-30879" x2="-15085" x1="-15623" fill="none"/><line y2="-29689" y1="-30532" x2="-15186" x1="-14895" fill="none"/><line y2="-31090" y1="-30532" x2="-15981" x1="-16735" fill="none"/><line y2="-29469" y1="-29469" x2="-16408" x1="-15449" fill="none"/><line y2="-30532" y1="-29469" x2="-16735" x1="-16408" fill="none"/><line y2="-30448" y1="-29651" x2="-16533" x1="-16287" fill="none"/><line y2="-31055" y1="-30532" x2="-13988" x1="-14895" fill="none"/><line y2="-31055" y1="-30532" x2="-17642" x1="-16735" fill="none"/><line y2="-30532" y1="-31055" x2="-18552" x1="-17642" fill="none"/><line y2="-30948" y1="-30532" x2="-19268" x1="-18552" fill="none"/><line y2="-30532" y1="-30948" x2="-20366" x1="-19647" fill="none"/><line y2="-28620" y1="-29469" x2="-17024" x1="-16408" fill="none"/><line y2="-32193" y1="-31055" x2="-13988" x1="-13988" fill="none"/><line y2="-32052" y1="-31200" x2="-13817" x1="-13817" fill="none"/><line y2="-31055" y1="-30489" x2="-13988" x1="-13000" fill="none"/><line y2="-32762" y1="-32193" x2="-13000" x1="-13988" fill="none"/><line y2="-30489" y1="-31055" x2="-13000" x1="-12017" fill="none"/><line y2="-30706" y1="-31133" x2="-12962" x1="-12225" fill="none"/><line y2="-32193" y1="-32762" x2="-12017" x1="-13000" fill="none"/><line y2="-32118" y1="-32546" x2="-12225" x1="-12962" fill="none"/><line y2="-31055" y1="-32193" x2="-12017" x1="-12017" fill="none"/><line y2="-29394" y1="-30532" x2="-20366" x1="-20366" fill="none"/><line y2="-29538" y1="-30391" x2="-20534" x1="-20534" fill="none"/><line y2="-30532" y1="-31101" x2="-20366" x1="-21348" fill="none"/><line y2="-28828" y1="-29394" x2="-21348" x1="-20366" fill="none"/><line y2="-31101" y1="-30532" x2="-21348" x1="-22336" fill="none"/><line y2="-30882" y1="-30454" x2="-21386" x1="-22126" fill="none"/><line y2="-29394" y1="-28828" x2="-22336" x1="-21348" fill="none"/><line y2="-29472" y1="-29044" x2="-22126" x1="-21386" fill="none"/><line y2="-30532" y1="-29394" x2="-22336" x1="-22336" fill="none"/><line y2="-28871" y1="-29394" x2="-23244" x1="-22336" fill="none"/><line y2="-29394" y1="-28871" x2="-24151" x1="-23244" fill="none"/><line y2="-29091" y1="-29394" x2="-24676" x1="-24151" fill="none"/><line y2="-29394" y1="-28981" x2="-25965" x1="-25246" fill="none"/><line y2="-31751" y1="-31445" x2="-24676" x1="-24151" fill="none"/><line y2="-31445" y1="-31861" x2="-25965" x1="-25246" fill="none"/><line y2="-29394" y1="-29394" x2="-27011" x1="-25965" fill="none"/><line y2="-29255" y1="-29255" x2="-26881" x1="-26095" fill="none"/><line y2="-29920" y1="-29394" x2="-25058" x1="-25965" fill="none"/><line y2="-31971" y1="-31445" x2="-26872" x1="-25965" fill="none"/><line y2="-31445" y1="-31971" x2="-27779" x1="-26872" fill="none"/><line y2="-30619" y1="-31445" x2="-25896" x1="-25896" fill="none"/><line y2="-30619" y1="-31445" x2="-26034" x1="-26034" fill="none"/><line y2="-28871" y1="-29394" x2="-27918" x1="-27011" fill="none"/><line y2="-29394" y1="-28871" x2="-28825" x1="-27918" fill="none"/><line y2="-28042" y1="-28871" x2="-27848" x1="-27848" fill="none"/><line y2="-28042" y1="-28871" x2="-27990" x1="-27990" fill="none"/><line y2="-29394" y1="-30532" x2="-28825" x1="-28825" fill="none"/><line y2="-29538" y1="-30391" x2="-28995" x1="-28995" fill="none"/><line y2="-28828" y1="-29394" x2="-29813" x1="-28825" fill="none"/><line y2="-30532" y1="-31101" x2="-28825" x1="-29813" fill="none"/><line y2="-29394" y1="-28828" x2="-30795" x1="-29813" fill="none"/><line y2="-29472" y1="-29044" x2="-30590" x1="-29850" fill="none"/><line y2="-31101" y1="-30532" x2="-29813" x1="-30795" fill="none"/><line y2="-30885" y1="-30457" x2="-29850" x1="-30590" fill="none"/><line y2="-30532" y1="-29394" x2="-30795" x1="-30795" fill="none"/><line y2="-31055" y1="-30532" x2="-31702" x1="-30795" fill="none"/><line y2="-30642" y1="-31055" x2="-32422" x1="-31702" fill="none"/><line y2="-31746" y1="-31055" x2="-32101" x1="-31702" fill="none"/><line y2="-31746" y1="-31055" x2="-31306" x1="-31702" fill="none"/><line y2="-31445" y1="-31445" x2="-24081" x1="-24220" fill="none"/><line y2="-31228" y1="-31228" x2="-24088" x1="-24213" fill="none"/><line y2="-31012" y1="-31012" x2="-24096" x1="-24205" fill="none"/><line y2="-30795" y1="-30795" x2="-24103" x1="-24198" fill="none"/><line y2="-30578" y1="-30578" x2="-24111" x1="-24191" fill="none"/><line y2="-30362" y1="-30362" x2="-24118" x1="-24184" fill="none"/><line y2="-30145" y1="-30145" x2="-24125" x1="-24176" fill="none"/><line y2="-29928" y1="-29928" x2="-24133" x1="-24169" fill="none"/><line y2="-29712" y1="-29712" x2="-24140" x1="-24162" fill="none"/><line y2="-29495" y1="-29495" x2="-24148" x1="-24154" fill="none"/><text y="-30876" xml:space="preserve" x="-19609" stroke="none" font-size="433.3333" font-family="sans-serif">O</text><text y="-28692" xml:space="preserve" x="-25208" stroke="none" font-size="433.3333" font-family="sans-serif">NH</text><text y="-31792" xml:space="preserve" x="-25208" stroke="none" font-size="433.3333" font-family="sans-serif">NH</text><text y="-30220" xml:space="preserve" x="-26115" stroke="none" font-size="433.3333" font-family="sans-serif">O</text><text y="-27643" xml:space="preserve" x="-28071" stroke="none" font-size="433.3333" font-family="sans-serif">O</text><text y="-30353" xml:space="preserve" x="-32762" stroke="none" font-size="433.3333" font-family="sans-serif">F</text><text y="-31783" xml:space="preserve" x="-32381" stroke="none" font-size="433.3333" font-family="sans-serif">F</text><text y="-31783" xml:space="preserve" x="-31332" stroke="none" font-size="433.3333" font-family="sans-serif">F</text><text y="-31049" xml:space="preserve" x="-15946" stroke="none" font-size="433.3333" font-family="sans-serif">N</text><text y="-29290" xml:space="preserve" x="-15415" stroke="none" font-size="433.3333" font-family="sans-serif">O</text><text y="-28750" xml:space="preserve" x="-26638" stroke="none" font-style="italic" font-size="313.3333" font-family="sans-serif">Z</text><text y="-28914" xml:space="preserve" x="-24301" stroke="none" font-style="italic" font-size="313.3333" font-family="sans-serif">S</text></g></g></svg>