<svg width="340.5" viewBox="0 0 11350 10691" text-rendering="auto" stroke-width="1" stroke-opacity="1" stroke-miterlimit="10" stroke-linejoin="miter" stroke-linecap="square" stroke-dashoffset="0" stroke-dasharray="none" stroke="black" shape-rendering="auto" image-rendering="auto" height="320.73" font-weight="normal" font-style="normal" font-size="12" font-family="'Dialog'" fill-opacity="1" fill="black" color-rendering="auto" color-interpolation="auto" xmlns="http://www.w3.org/2000/svg"><g><g stroke="white" fill="white"><rect y="0" x="0" width="11350" stroke="none" height="10691"/></g><g transform="translate(32866,32866)" text-rendering="geometricPrecision" stroke-width="44" stroke-linejoin="round" stroke-linecap="round"><line y2="-24997" y1="-24997" x2="-28631" x1="-29050" fill="none"/><line y2="-23446" y1="-24778" x2="-29186" x1="-28418" fill="none"/><line y2="-23449" y1="-24778" x2="-27684" x1="-28207" fill="none"/><line y2="-24780" y1="-23446" x2="-29813" x1="-29382" fill="none"/><line y2="-23226" y1="-23229" x2="-28819" x1="-27785" fill="none"/><line y2="-23397" y1="-23400" x2="-28689" x1="-27915" fill="none"/><line y2="-26621" y1="-25332" x2="-25618" x1="-27851" fill="none"/><line y2="-26499" y1="-25211" x2="-25549" x1="-27782" fill="none"/><line y2="-25523" y1="-25107" x2="-30792" x1="-30073" fill="none"/><line y2="-26872" y1="-25217" x2="-28290" x1="-28290" fill="none"/><line y2="-26505" y1="-26057" x2="-25182" x1="-24604" fill="none"/><line y2="-27609" y1="-26889" x2="-25072" x1="-25321" fill="none"/><line y2="-26052" y1="-26670" x2="-24229" x1="-23391" fill="none"/><line y2="-27828" y1="-27828" x2="-23749" x1="-24806" fill="none"/><line y2="-26670" y1="-27828" x2="-23391" x1="-23749" fill="none"/><line y2="-24552" y1="-25693" x2="-24416" x1="-24416" fill="none"/><line y2="-30053" y1="-28048" x2="-26557" x1="-25150" fill="none"/><line y2="-25523" y1="-26661" x2="-30792" x1="-30792" fill="none"/><line y2="-25667" y1="-26520" x2="-30960" x1="-30960" fill="none"/><line y2="-24954" y1="-25523" x2="-31774" x1="-30792" fill="none"/><line y2="-26661" y1="-27230" x2="-30792" x1="-31774" fill="none"/><line y2="-25523" y1="-24954" x2="-32762" x1="-31774" fill="none"/><line y2="-25601" y1="-25173" x2="-32552" x1="-31812" fill="none"/><line y2="-27230" y1="-26661" x2="-31774" x1="-32762" fill="none"/><line y2="-27011" y1="-26583" x2="-31812" x1="-32552" fill="none"/><line y2="-26661" y1="-25523" x2="-32762" x1="-32762" fill="none"/><line y2="-24552" y1="-23983" x2="-24416" x1="-25404" fill="none"/><line y2="-24336" y1="-23908" x2="-24454" x1="-25194" fill="none"/><line y2="-23983" y1="-24552" x2="-23434" x1="-24416" fill="none"/><line y2="-23983" y1="-22848" x2="-25404" x1="-25404" fill="none"/><line y2="-22848" y1="-23983" x2="-23434" x1="-23434" fill="none"/><line y2="-22989" y1="-23842" x2="-23602" x1="-23602" fill="none"/><line y2="-22848" y1="-22279" x2="-25404" x1="-24416" fill="none"/><line y2="-22923" y1="-22495" x2="-25194" x1="-24454" fill="none"/><line y2="-22279" y1="-22848" x2="-24416" x1="-23434" fill="none"/><line y2="-24509" y1="-23983" x2="-26312" x1="-25404" fill="none"/><line y2="-24509" y1="-23983" x2="-22527" x1="-23434" fill="none"/><line y2="-30053" y1="-31191" x2="-26557" x1="-26557" fill="none"/><line y2="-30197" y1="-31049" x2="-26725" x1="-26725" fill="none"/><line y2="-29484" y1="-30053" x2="-27539" x1="-26557" fill="none"/><line y2="-31191" y1="-31760" x2="-26557" x1="-27539" fill="none"/><line y2="-30053" y1="-29484" x2="-28527" x1="-27539" fill="none"/><line y2="-30131" y1="-29703" x2="-28316" x1="-27577" fill="none"/><line y2="-31760" y1="-31191" x2="-27539" x1="-28527" fill="none"/><line y2="-31540" y1="-31113" x2="-27577" x1="-28316" fill="none"/><line y2="-31191" y1="-30053" x2="-28527" x1="-28527" fill="none"/><line y2="-31714" y1="-31191" x2="-25650" x1="-26557" fill="none"/><line y2="-28438" y1="-29484" x2="-27539" x1="-27539" fill="none"/><line y2="-23983" y1="-24509" x2="-27219" x1="-26312" fill="none"/><line y2="-25555" y1="-24509" x2="-26312" x1="-26312" fill="none"/><line y2="-23983" y1="-24509" x2="-21620" x1="-22527" fill="none"/><line y2="-25555" y1="-24509" x2="-22527" x1="-22527" fill="none"/><line y2="-31205" y1="-31714" x2="-24731" x1="-25650" fill="none"/><line y2="-32762" y1="-31714" x2="-25650" x1="-25650" fill="none"/><line y2="-27898" y1="-28438" x2="-28438" x1="-27539" fill="none"/><line y2="-27929" y1="-28438" x2="-26624" x1="-27539" fill="none"/><text y="-26912" xml:space="preserve" x="-28522" stroke="none" font-size="433.3333" font-family="sans-serif">Cl</text><text y="-24818" xml:space="preserve" x="-28594" stroke="none" font-size="433.3333" font-family="sans-serif">Pd</text><text y="-24821" xml:space="preserve" x="-30035" stroke="none" font-size="433.3333" font-family="sans-serif">CH</text><text y="-23047" xml:space="preserve" x="-29463" stroke="none" font-size="433.3333" font-family="sans-serif">CH</text><text y="-23050" xml:space="preserve" x="-27750" stroke="none" font-size="433.3333" font-family="sans-serif">CH</text><text y="-22960" xml:space="preserve" x="-27172" stroke="none" font-size="313.3333" font-family="sans-serif">2</text><text y="-26491" xml:space="preserve" x="-25549" stroke="none" font-size="433.3333" font-family="sans-serif">C</text><text y="-25734" xml:space="preserve" x="-24570" stroke="none" font-size="433.3333" font-family="sans-serif">N</text><text y="-27649" xml:space="preserve" x="-25147" stroke="none" font-size="433.3333" font-family="sans-serif">N</text><text y="-26967" xml:space="preserve" x="-27967" stroke="none" font-size="313.3333" font-family="sans-serif">-</text><text y="-24873" xml:space="preserve" x="-27967" stroke="none" font-size="313.3333" font-family="sans-serif">4+</text><text y="-24931" xml:space="preserve" x="-29391" stroke="none" font-size="313.3333" font-family="sans-serif">-</text><text y="-26546" xml:space="preserve" x="-25225" stroke="none" font-size="313.3333" font-family="sans-serif">2-</text></g></g></svg>