<svg width="172.74" viewBox="0 0 5758 3925" text-rendering="auto" stroke-width="1" stroke-opacity="1" stroke-miterlimit="10" stroke-linejoin="miter" stroke-linecap="square" stroke-dashoffset="0" stroke-dasharray="none" stroke="black" shape-rendering="auto" image-rendering="auto" height="117.75" font-weight="normal" font-style="normal" font-size="12" font-family="'Dialog'" fill-opacity="1" fill="black" color-rendering="auto" color-interpolation="auto" xmlns="http://www.w3.org/2000/svg"><g><g stroke="white" fill="white"><rect y="0" x="0" width="5758" stroke="none" height="3925"/></g><g transform="translate(32866,32866)" text-rendering="geometricPrecision" stroke-width="44" stroke-linejoin="round" stroke-linecap="round"><line y2="-30963" y1="-32162" x2="-29778" x1="-29778" fill="none"/><line y2="-32162" y1="-32762" x2="-29778" x1="-30815" fill="none"/><line y2="-32092" y1="-32540" x2="-29992" x1="-30769" fill="none"/><line y2="-32762" y1="-32162" x2="-28735" x1="-29778" fill="none"/><line y2="-30362" y1="-30963" x2="-30815" x1="-29778" fill="none"/><line y2="-30584" y1="-31035" x2="-30769" x1="-29992" fill="none"/><line y2="-30963" y1="-30963" x2="-29778" x1="-27886" fill="none"/><line y2="-32762" y1="-32162" x2="-30815" x1="-31855" fill="none"/><line y2="-32271" y1="-32762" x2="-27886" x1="-28735" fill="none"/><line y2="-32188" y1="-32554" x2="-28077" x1="-28712" fill="none"/><line y2="-30963" y1="-30362" x2="-31855" x1="-30815" fill="none"/><line y2="-31182" y1="-31942" x2="-27698" x1="-27698" fill="none"/><line y2="-32162" y1="-30963" x2="-31855" x1="-31855" fill="none"/><line y2="-32011" y1="-31113" x2="-31685" x1="-31685" fill="none"/><line y2="-32687" y1="-32162" x2="-32762" x1="-31855" fill="none"/><line y2="-29533" y1="-30362" x2="-30815" x1="-30815" fill="none"/><text y="-29137" xml:space="preserve" x="-31046" stroke="none" font-size="433.3333" font-family="sans-serif">Br</text><text y="-30784" xml:space="preserve" x="-27851" stroke="none" font-size="433.3333" font-family="sans-serif">NH</text><text y="-31982" xml:space="preserve" x="-27851" stroke="none" font-size="433.3333" font-family="sans-serif">N</text></g></g></svg>