<svg width="233.22" viewBox="0 0 7774 2671" text-rendering="auto" stroke-width="1" stroke-opacity="1" stroke-miterlimit="10" stroke-linejoin="miter" stroke-linecap="square" stroke-dashoffset="0" stroke-dasharray="none" stroke="black" shape-rendering="auto" image-rendering="auto" height="80.13" font-weight="normal" font-style="normal" font-size="12" font-family="'Dialog'" fill-opacity="1" fill="black" color-rendering="auto" color-interpolation="auto" xmlns="http://www.w3.org/2000/svg"><g><g stroke="white" fill="white"><rect y="0" x="0" width="7774" stroke="none" height="2671"/></g><g transform="translate(32866,32758)" text-rendering="geometricPrecision" stroke-width="44" stroke-linejoin="round" stroke-linecap="round"><line y2="-31896" y1="-32465" x2="-29732" x1="-30717" fill="none"/><line y2="-30758" y1="-31896" x2="-29732" x1="-29732" fill="none"/><line y2="-32465" y1="-31896" x2="-30717" x1="-31702" fill="none"/><line y2="-30191" y1="-30758" x2="-30717" x1="-29732" fill="none"/><line y2="-31896" y1="-30758" x2="-31702" x1="-31702" fill="none"/><line y2="-30758" y1="-30191" x2="-31702" x1="-30717" fill="none"/><line y2="-32312" y1="-31896" x2="-29013" x1="-29732" fill="none"/><line y2="-31896" y1="-32202" x2="-27918" x1="-28446" fill="none"/><line y2="-32251" y1="-31835" x2="-32456" x1="-31737" fill="none"/><line y2="-32372" y1="-31956" x2="-32387" x1="-31668" fill="none"/><line y2="-32312" y1="-31896" x2="-27198" x1="-27918" fill="none"/><line y2="-31896" y1="-32312" x2="-26104" x1="-26823" fill="none"/><line y2="-31067" y1="-31896" x2="-27848" x1="-27848" fill="none"/><line y2="-31067" y1="-31896" x2="-27987" x1="-27987" fill="none"/><line y2="-32422" y1="-31896" x2="-25196" x1="-26104" fill="none"/><line y2="-30989" y1="-31896" x2="-25581" x1="-26104" fill="none"/><line y2="-30989" y1="-31896" x2="-26626" x1="-26104" fill="none"/><text y="-32242" xml:space="preserve" x="-28978" stroke="none" font-size="433.3333" font-family="sans-serif">NH</text><text y="-32242" xml:space="preserve" x="-27164" stroke="none" font-size="433.3333" font-family="sans-serif">O</text><text y="-30668" xml:space="preserve" x="-28071" stroke="none" font-size="433.3333" font-family="sans-serif">O</text><text y="-32242" xml:space="preserve" x="-32762" stroke="none" font-size="433.3333" font-family="sans-serif">O</text></g></g></svg>