<svg width="269.88" viewBox="0 0 8996 4774" text-rendering="auto" stroke-width="1" stroke-opacity="1" stroke-miterlimit="10" stroke-linejoin="miter" stroke-linecap="square" stroke-dashoffset="0" stroke-dasharray="none" stroke="black" shape-rendering="auto" image-rendering="auto" height="143.22" font-weight="normal" font-style="normal" font-size="12" font-family="'Dialog'" fill-opacity="1" fill="black" color-rendering="auto" color-interpolation="auto" xmlns="http://www.w3.org/2000/svg"><g><g stroke="white" fill="white"><rect y="0" x="0" width="8996" stroke="none" height="4774"/></g><g transform="translate(32866,32758)" text-rendering="geometricPrecision" stroke-width="44" stroke-linejoin="round" stroke-linecap="round"><line y2="-28504" y1="-29440" x2="-31159" x1="-30836" fill="none"/><line y2="-29807" y1="-30272" x2="-30948" x1="-31552" fill="none"/><line y2="-28504" y1="-28504" x2="-32216" x1="-31159" fill="none"/><line y2="-28675" y1="-28675" x2="-32086" x1="-31292" fill="none"/><line y2="-30278" y1="-29660" x2="-31928" x1="-32762" fill="none"/><line y2="-30064" y1="-29602" x2="-31930" x1="-32557" fill="none"/><line y2="-29660" y1="-28724" x2="-32762" x1="-32474" fill="none"/><line y2="-30186" y1="-29770" x2="-29853" x1="-30573" fill="none"/><line y2="-29660" y1="-30186" x2="-28946" x1="-29853" fill="none"/><line y2="-30758" y1="-29660" x2="-27045" x1="-28946" fill="none"/><line y2="-28614" y1="-29660" x2="-28946" x1="-28946" fill="none"/><line y2="-28088" y1="-28614" x2="-28039" x1="-28946" fill="none"/><line y2="-28614" y1="-28088" x2="-27132" x1="-28039" fill="none"/><line y2="-28088" y1="-28614" x2="-26225" x1="-27132" fill="none"/><line y2="-29660" y1="-29660" x2="-27898" x1="-28946" fill="none"/><line y2="-31896" y1="-30758" x2="-27045" x1="-27045" fill="none"/><line y2="-31754" y1="-30902" x2="-26875" x1="-26875" fill="none"/><line y2="-30758" y1="-30191" x2="-27045" x1="-26057" fill="none"/><line y2="-32465" y1="-31896" x2="-26057" x1="-27045" fill="none"/><line y2="-30191" y1="-30758" x2="-26057" x1="-25075" fill="none"/><line y2="-30408" y1="-30836" x2="-26020" x1="-25283" fill="none"/><line y2="-31896" y1="-32465" x2="-25075" x1="-26057" fill="none"/><line y2="-31821" y1="-32248" x2="-25283" x1="-26020" fill="none"/><line y2="-30758" y1="-31896" x2="-25075" x1="-25075" fill="none"/><line y2="-32225" y1="-31896" x2="-24506" x1="-25075" fill="none"/><line y2="-29660" y1="-29660" x2="-27040" x1="-27898" fill="none"/><line y2="-29749" y1="-29749" x2="-27040" x1="-27898" fill="none"/><line y2="-29570" y1="-29570" x2="-27040" x1="-27898" fill="none"/><text y="-29481" xml:space="preserve" x="-27002" stroke="none" font-size="433.3333" font-family="sans-serif">N</text><text y="-32242" xml:space="preserve" x="-24399" stroke="none" font-size="433.3333" font-family="sans-serif">Cl</text><text y="-29481" xml:space="preserve" x="-30914" stroke="none" font-size="433.3333" font-family="sans-serif">N</text><text y="-30238" xml:space="preserve" x="-31890" stroke="none" font-size="433.3333" font-family="sans-serif">N</text><text y="-28325" xml:space="preserve" x="-32557" stroke="none" font-size="433.3333" font-family="sans-serif">N</text></g></g></svg>