<svg width="264.66" viewBox="0 0 8822 5191" text-rendering="auto" stroke-width="1" stroke-opacity="1" stroke-miterlimit="10" stroke-linejoin="miter" stroke-linecap="square" stroke-dashoffset="0" stroke-dasharray="none" stroke="black" shape-rendering="auto" image-rendering="auto" height="155.73" font-weight="normal" font-style="normal" font-size="12" font-family="'Dialog'" fill-opacity="1" fill="black" color-rendering="auto" color-interpolation="auto" xmlns="http://www.w3.org/2000/svg"><g><g stroke="white" fill="white"><rect y="0" x="0" width="8822" stroke="none" height="5191"/></g><g transform="translate(32866,32866)" text-rendering="geometricPrecision" stroke-width="44" stroke-linejoin="round" stroke-linecap="round"><line y2="-30079" y1="-30079" x2="-29027" x1="-29885" fill="none"/><line y2="-29940" y1="-29940" x2="-29027" x1="-29885" fill="none"/><line y2="-29484" y1="-30009" x2="-30792" x1="-29885" fill="none"/><line y2="-30532" y1="-30009" x2="-30792" x1="-29885" fill="none"/><line y2="-29593" y1="-29900" x2="-28120" x1="-28652" fill="none"/><line y2="-30009" y1="-29703" x2="-27025" x1="-27551" fill="none"/><line y2="-29484" y1="-30053" x2="-30792" x1="-31777" fill="none"/><line y2="-29408" y1="-29836" x2="-31000" x1="-31740" fill="none"/><line y2="-28348" y1="-29484" x2="-30792" x1="-30792" fill="none"/><line y2="-30053" y1="-29484" x2="-31777" x1="-32762" fill="none"/><line y2="-27779" y1="-28348" x2="-31777" x1="-30792" fill="none"/><line y2="-27996" y1="-28423" x2="-31740" x1="-31000" fill="none"/><line y2="-29484" y1="-28348" x2="-32762" x1="-32762" fill="none"/><line y2="-29342" y1="-28490" x2="-32595" x1="-32595" fill="none"/><line y2="-28348" y1="-27779" x2="-32762" x1="-31777" fill="none"/><line y2="-31101" y1="-30053" x2="-31777" x1="-31777" fill="none"/><line y2="-30009" y1="-29547" x2="-27025" x1="-26228" fill="none"/><line y2="-30928" y1="-30009" x2="-27025" x1="-27025" fill="none"/><line y2="-30812" y1="-30122" x2="-26855" x1="-26855" fill="none"/><line y2="-29547" y1="-30009" x2="-25852" x1="-25055" fill="none"/><line y2="-29752" y1="-30099" x2="-25838" x1="-25240" fill="none"/><line y2="-31714" y1="-31254" x2="-26040" x1="-26837" fill="none"/><line y2="-30009" y1="-31145" x2="-25055" x1="-25055" fill="none"/><line y2="-31145" y1="-31714" x2="-25055" x1="-26040" fill="none"/><line y2="-31070" y1="-31497" x2="-25263" x1="-26002" fill="none"/><line y2="-29484" y1="-30009" x2="-24148" x1="-25055" fill="none"/><line y2="-32762" y1="-31714" x2="-26040" x1="-26040" fill="none"/><text y="-29830" xml:space="preserve" x="-28990" stroke="none" font-size="433.3333" font-family="sans-serif">N</text><text y="-29304" xml:space="preserve" x="-28082" stroke="none" font-size="433.3333" font-family="sans-serif">NH</text><text y="-29261" xml:space="preserve" x="-26193" stroke="none" font-size="433.3333" font-family="sans-serif">N</text><text y="-30966" xml:space="preserve" x="-27175" stroke="none" font-size="433.3333" font-family="sans-serif">N</text><text y="-29434" xml:space="preserve" x="-29608" stroke="none" font-style="italic" font-size="313.3333" font-family="sans-serif">Z</text></g></g></svg>