<svg width="248.88" viewBox="0 0 8296 5998" text-rendering="auto" stroke-width="1" stroke-opacity="1" stroke-miterlimit="10" stroke-linejoin="miter" stroke-linecap="square" stroke-dashoffset="0" stroke-dasharray="none" stroke="black" shape-rendering="auto" image-rendering="auto" height="179.94" font-weight="normal" font-style="normal" font-size="12" font-family="'Dialog'" fill-opacity="1" fill="black" color-rendering="auto" color-interpolation="auto" xmlns="http://www.w3.org/2000/svg"><g><g stroke="white" fill="white"><rect y="0" x="0" width="8296" stroke="none" height="5998"/></g><g transform="translate(32866,32758)" text-rendering="geometricPrecision" stroke-width="44" stroke-linejoin="round" stroke-linecap="round"><line y2="-28706" y1="-30136" x2="-29469" x1="-29469" fill="none"/><line y2="-30136" y1="-30850" x2="-29469" x1="-30706" fill="none"/><line y2="-30079" y1="-30613" x2="-29709" x1="-30636" fill="none"/><line y2="-30743" y1="-30136" x2="-28415" x1="-29469" fill="none"/><line y2="-28706" y1="-28706" x2="-29469" x1="-26990" fill="none"/><line y2="-27990" y1="-28706" x2="-30706" x1="-29469" fill="none"/><line y2="-28227" y1="-28764" x2="-30636" x1="-29709" fill="none"/><line y2="-30850" y1="-30136" x2="-30706" x1="-31945" fill="none"/><line y2="-30243" y1="-30630" x2="-27178" x1="-27848" fill="none"/><line y2="-28706" y1="-29917" x2="-26990" x1="-26990" fill="none"/><line y2="-28857" y1="-29767" x2="-27161" x1="-27161" fill="none"/><line y2="-28706" y1="-27990" x2="-31945" x1="-30706" fill="none"/><line y2="-30136" y1="-28706" x2="-31945" x1="-31945" fill="none"/><line y2="-29957" y1="-28886" x2="-31774" x1="-31774" fill="none"/><line y2="-31899" y1="-30850" x2="-30706" x1="-30706" fill="none"/><line y2="-28184" y1="-28706" x2="-26083" x1="-26990" fill="none"/><line y2="-32315" y1="-31899" x2="-31425" x1="-30706" fill="none"/><line y2="-32066" y1="-32315" x2="-32231" x1="-31800" fill="none"/><line y2="-32375" y1="-31959" x2="-30021" x1="-30740" fill="none"/><line y2="-32254" y1="-31838" x2="-29952" x1="-30671" fill="none"/><line y2="-28597" y1="-28184" x2="-25364" x1="-26083" fill="none"/><line y2="-27354" y1="-28184" x2="-26014" x1="-26014" fill="none"/><line y2="-27354" y1="-28184" x2="-26153" x1="-26153" fill="none"/><text y="-32242" xml:space="preserve" x="-31766" stroke="none" font-size="433.3333" font-family="sans-serif">O</text><text y="-32242" xml:space="preserve" x="-29952" stroke="none" font-size="433.3333" font-family="sans-serif">O</text><text y="-31668" xml:space="preserve" x="-32762" stroke="none" font-size="433.3333" font-family="sans-serif">CH</text><text y="-31578" xml:space="preserve" x="-32185" stroke="none" font-size="313.3333" font-family="sans-serif">3</text><text y="-28527" xml:space="preserve" x="-25329" stroke="none" font-size="433.3333" font-family="sans-serif">OH</text><text y="-26956" xml:space="preserve" x="-26236" stroke="none" font-size="433.3333" font-family="sans-serif">O</text><text y="-30671" xml:space="preserve" x="-28380" stroke="none" font-size="433.3333" font-family="sans-serif">NH</text><text y="-29957" xml:space="preserve" x="-27144" stroke="none" font-size="433.3333" font-family="sans-serif">N</text></g></g></svg>