<svg width="237.03" viewBox="0 0 7901 3584" text-rendering="auto" stroke-width="1" stroke-opacity="1" stroke-miterlimit="10" stroke-linejoin="miter" stroke-linecap="square" stroke-dashoffset="0" stroke-dasharray="none" stroke="black" shape-rendering="auto" image-rendering="auto" height="107.52" font-weight="normal" font-style="normal" font-size="12" font-family="'Dialog'" fill-opacity="1" fill="black" color-rendering="auto" color-interpolation="auto" xmlns="http://www.w3.org/2000/svg"><g><g stroke="white" fill="white"><rect y="0" x="0" width="7901" stroke="none" height="3584"/></g><g transform="translate(32866,32758)" text-rendering="geometricPrecision" stroke-width="44" stroke-linejoin="round" stroke-linecap="round"><line y2="-29278" y1="-29804" x2="-25976" x1="-26884" fill="none"/><line y2="-29278" y1="-29804" x2="-27791" x1="-26884" fill="none"/><line y2="-30630" y1="-29804" x2="-26884" x1="-26884" fill="none"/><line y2="-31376" y1="-30960" x2="-25976" x1="-26696" fill="none"/><line y2="-31266" y1="-30960" x2="-27603" x1="-27074" fill="none"/><line y2="-30850" y1="-31376" x2="-25069" x1="-25976" fill="none"/><line y2="-32422" y1="-31376" x2="-25976" x1="-25976" fill="none"/><line y2="-30960" y1="-31266" x2="-28510" x1="-27981" fill="none"/><line y2="-31376" y1="-30960" x2="-29605" x1="-28888" fill="none"/><line y2="-30850" y1="-31376" x2="-30515" x1="-29605" fill="none"/><line y2="-30850" y1="-30850" x2="-31561" x1="-30515" fill="none"/><line y2="-32202" y1="-31595" x2="-27791" x1="-27791" fill="none"/><line y2="-30850" y1="-30850" x2="-32422" x1="-31561" fill="none"/><line y2="-30760" y1="-30760" x2="-32422" x1="-31561" fill="none"/><line y2="-30940" y1="-30940" x2="-32422" x1="-31561" fill="none"/><text y="-30671" xml:space="preserve" x="-27037" stroke="none" font-size="433.3333" font-family="sans-serif">N</text><text y="-31197" xml:space="preserve" x="-27944" stroke="none" font-size="433.3333" font-family="sans-serif">P</text><text y="-30671" xml:space="preserve" x="-28851" stroke="none" font-size="433.3333" font-family="sans-serif">O</text><text y="-32242" xml:space="preserve" x="-28025" stroke="none" font-size="433.3333" font-family="sans-serif">Cl</text><text y="-30671" xml:space="preserve" x="-32762" stroke="none" font-size="433.3333" font-family="sans-serif">N</text></g></g></svg>