<svg width="293.34" viewBox="0 0 9778 2201" text-rendering="auto" stroke-width="1" stroke-opacity="1" stroke-miterlimit="10" stroke-linejoin="miter" stroke-linecap="square" stroke-dashoffset="0" stroke-dasharray="none" stroke="black" shape-rendering="auto" image-rendering="auto" height="66.03" font-weight="normal" font-style="normal" font-size="12" font-family="'Dialog'" fill-opacity="1" fill="black" color-rendering="auto" color-interpolation="auto" xmlns="http://www.w3.org/2000/svg"><g><g stroke="white" fill="white"><rect y="0" x="0" width="9778" stroke="none" height="2201"/></g><g transform="translate(32866,32866)" text-rendering="geometricPrecision" stroke-width="44" stroke-linejoin="round" stroke-linecap="round"><line y2="-32762" y1="-31292" x2="-26762" x1="-26762" fill="none"/><line y2="-32762" y1="-32762" x2="-27037" x1="-26762" fill="none"/><line y2="-31292" y1="-31292" x2="-27037" x1="-26762" fill="none"/><line y2="-32240" y1="-30769" x2="-31266" x1="-31266" fill="none"/><line y2="-32240" y1="-32240" x2="-30994" x1="-31266" fill="none"/><line y2="-30769" y1="-30769" x2="-30994" x1="-31266" fill="none"/><line y2="-32029" y1="-32029" x2="-25913" x1="-27614" fill="none"/><line y2="-31616" y1="-31919" x2="-28519" x1="-27990" fill="none"/><line y2="-32552" y1="-32029" x2="-25006" x1="-25913" fill="none"/><line y2="-32029" y1="-32552" x2="-24099" x1="-25006" fill="none"/><line y2="-32552" y1="-32029" x2="-23192" x1="-24099" fill="none"/><line y2="-31503" y1="-31503" x2="-32118" x1="-30417" fill="none"/><text y="-31298" xml:space="preserve" x="-26661" stroke="none" font-size="433.3333" font-family="sans-serif">n</text><text y="-31850" xml:space="preserve" x="-27955" stroke="none" font-size="433.3333" font-family="sans-serif">O</text><text y="-31324" xml:space="preserve" x="-30382" stroke="none" font-size="433.3333" font-family="sans-serif">(C</text><text y="-31234" xml:space="preserve" x="-29804" stroke="none" font-size="313.3333" font-family="sans-serif">3</text><text y="-31324" xml:space="preserve" x="-29515" stroke="none" font-size="433.3333" font-family="sans-serif">H</text><text y="-31234" xml:space="preserve" x="-29226" stroke="none" font-size="313.3333" font-family="sans-serif">6</text><text y="-31324" xml:space="preserve" x="-28938" stroke="none" font-size="433.3333" font-family="sans-serif">)</text><text y="-31324" xml:space="preserve" x="-32762" stroke="none" font-size="433.3333" font-family="sans-serif">OH</text></g></g></svg>