<svg width="171.75" viewBox="0 0 5725 5334" text-rendering="auto" stroke-width="1" stroke-opacity="1" stroke-miterlimit="10" stroke-linejoin="miter" stroke-linecap="square" stroke-dashoffset="0" stroke-dasharray="none" stroke="black" shape-rendering="auto" image-rendering="auto" height="160.02" font-weight="normal" font-style="normal" font-size="12" font-family="'Dialog'" fill-opacity="1" fill="black" color-rendering="auto" color-interpolation="auto" xmlns="http://www.w3.org/2000/svg"><g><g stroke="white" fill="white"><rect y="0" x="0" width="5725" stroke="none" height="5334"/></g><g transform="translate(32866,32758)" text-rendering="geometricPrecision" stroke-width="44" stroke-linejoin="round" stroke-linecap="round"><line y2="-29342" y1="-29804" x2="-28340" x1="-29134" fill="none"/><line y2="-29804" y1="-29235" x2="-29134" x1="-30122" fill="none"/><line y2="-29585" y1="-29157" x2="-29174" x1="-29914" fill="none"/><line y2="-28097" y1="-29016" x2="-28152" x1="-28152" fill="none"/><line y2="-28212" y1="-28900" x2="-28322" x1="-28322" fill="none"/><line y2="-29235" y1="-28097" x2="-30122" x1="-30122" fill="none"/><line y2="-27528" y1="-28097" x2="-29134" x1="-28152" fill="none"/><line y2="-28097" y1="-27528" x2="-30122" x1="-29134" fill="none"/><line y2="-28175" y1="-27747" x2="-29914" x1="-29174" fill="none"/><line y2="-27574" y1="-28097" x2="-27245" x1="-28152" fill="none"/><line y2="-30630" y1="-29804" x2="-29134" x1="-29134" fill="none"/><line y2="-31376" y1="-30960" x2="-30041" x1="-29322" fill="none"/><line y2="-30960" y1="-31376" x2="-30760" x1="-30041" fill="none"/><line y2="-31376" y1="-30960" x2="-31855" x1="-31136" fill="none"/><line y2="-32202" y1="-31376" x2="-30113" x1="-30113" fill="none"/><line y2="-32202" y1="-31376" x2="-29972" x1="-29972" fill="none"/><line y2="-30850" y1="-31376" x2="-32762" x1="-31855" fill="none"/><line y2="-32283" y1="-31376" x2="-32381" x1="-31855" fill="none"/><line y2="-32283" y1="-31376" x2="-31332" x1="-31855" fill="none"/><text y="-30671" xml:space="preserve" x="-29287" stroke="none" font-size="433.3333" font-family="sans-serif">NH</text><text y="-30671" xml:space="preserve" x="-31101" stroke="none" font-size="433.3333" font-family="sans-serif">O</text><text y="-32242" xml:space="preserve" x="-30194" stroke="none" font-size="433.3333" font-family="sans-serif">O</text><text y="-29056" xml:space="preserve" x="-28305" stroke="none" font-size="433.3333" font-family="sans-serif">N</text></g></g></svg>