<svg width="357.36" viewBox="0 0 11912 4740" text-rendering="auto" stroke-width="1" stroke-opacity="1" stroke-miterlimit="10" stroke-linejoin="miter" stroke-linecap="square" stroke-dashoffset="0" stroke-dasharray="none" stroke="black" shape-rendering="auto" image-rendering="auto" height="142.2" font-weight="normal" font-style="normal" font-size="12" font-family="'Dialog'" fill-opacity="1" fill="black" color-rendering="auto" color-interpolation="auto" xmlns="http://www.w3.org/2000/svg"><g><g stroke="white" fill="white"><rect y="0" x="0" width="11912" stroke="none" height="4740"/></g><g transform="translate(32866,32866)" text-rendering="geometricPrecision" stroke-width="44" stroke-linejoin="round" stroke-linecap="round"><line y2="-32240" y1="-30769" x2="-28848" x1="-28848" fill="none"/><line y2="-32240" y1="-32240" x2="-28576" x1="-28848" fill="none"/><line y2="-30769" y1="-30769" x2="-28576" x1="-28848" fill="none"/><line y2="-32762" y1="-31292" x2="-24344" x1="-24344" fill="none"/><line y2="-32762" y1="-32762" x2="-24619" x1="-24344" fill="none"/><line y2="-31292" y1="-31292" x2="-24619" x1="-24344" fill="none"/><line y2="-31503" y1="-31503" x2="-27999" x1="-29700" fill="none"/><line y2="-30980" y1="-31396" x2="-30795" x1="-30076" fill="none"/><line y2="-31503" y1="-30980" x2="-31702" x1="-30795" fill="none"/><line y2="-31200" y1="-31503" x2="-32231" x1="-31702" fill="none"/><line y2="-31919" y1="-31616" x2="-25572" x1="-26101" fill="none"/><line y2="-32029" y1="-32029" x2="-23495" x1="-25196" fill="none"/><line y2="-32552" y1="-32029" x2="-22588" x1="-23495" fill="none"/><line y2="-32136" y1="-32552" x2="-21868" x1="-22588" fill="none"/><line y2="-28695" y1="-28695" x2="-26421" x1="-26959" fill="none"/><line y2="-29047" y1="-28230" x2="-28045" x1="-28045" fill="none"/><line y2="-29047" y1="-29047" x2="-27773" x1="-28045" fill="none"/><line y2="-28230" y1="-28230" x2="-27773" x1="-28045" fill="none"/><line y2="-29047" y1="-28230" x2="-25029" x1="-25029" fill="none"/><line y2="-29047" y1="-29047" x2="-25300" x1="-25029" fill="none"/><line y2="-28230" y1="-28230" x2="-25300" x1="-25029" fill="none"/><text y="-31298" xml:space="preserve" x="-24243" stroke="none" font-size="433.3333" font-family="sans-serif">n</text><text y="-31324" xml:space="preserve" x="-27961" stroke="none" font-size="433.3333" font-family="sans-serif">(C</text><text y="-31234" xml:space="preserve" x="-27383" stroke="none" font-size="313.3333" font-family="sans-serif">3</text><text y="-31324" xml:space="preserve" x="-27094" stroke="none" font-size="433.3333" font-family="sans-serif">H</text><text y="-31234" xml:space="preserve" x="-26806" stroke="none" font-size="313.3333" font-family="sans-serif">6</text><text y="-31324" xml:space="preserve" x="-26517" stroke="none" font-size="433.3333" font-family="sans-serif">)</text><text y="-31324" xml:space="preserve" x="-30041" stroke="none" font-size="433.3333" font-family="sans-serif">O</text><text y="-31850" xml:space="preserve" x="-25537" stroke="none" font-size="433.3333" font-family="sans-serif">O</text><text y="-30801" xml:space="preserve" x="-32762" stroke="none" font-size="433.3333" font-family="sans-serif">NH</text><text y="-30711" xml:space="preserve" x="-32185" stroke="none" font-size="313.3333" font-family="sans-serif">2</text><text y="-31850" xml:space="preserve" x="-21834" stroke="none" font-size="433.3333" font-family="sans-serif">NH</text><text y="-31760" xml:space="preserve" x="-21256" stroke="none" font-size="313.3333" font-family="sans-serif">2</text><text y="-28516" xml:space="preserve" x="-27603" stroke="none" font-size="433.3333" font-family="sans-serif">D1</text><text y="-28516" xml:space="preserve" x="-26384" stroke="none" font-size="433.3333" font-family="sans-serif">CH</text><text y="-28426" xml:space="preserve" x="-25806" stroke="none" font-size="313.3333" font-family="sans-serif">3</text><text y="-28516" xml:space="preserve" x="-28652" stroke="none" font-size="433.3333" font-family="sans-serif">2</text></g></g></svg>