<svg width="739.74" viewBox="0 0 24658 5710" text-rendering="auto" stroke-width="1" stroke-opacity="1" stroke-miterlimit="10" stroke-linejoin="miter" stroke-linecap="square" stroke-dashoffset="0" stroke-dasharray="none" stroke="black" shape-rendering="auto" image-rendering="auto" height="171.3" font-weight="normal" font-style="normal" font-size="12" font-family="'Dialog'" fill-opacity="1" fill="black" color-rendering="auto" color-interpolation="auto" xmlns="http://www.w3.org/2000/svg"><g><g stroke="white" fill="white"><rect y="0" x="0" width="24658" stroke="none" height="5710"/></g><g transform="translate(32866,32866)" text-rendering="geometricPrecision" stroke-width="44" stroke-linejoin="round" stroke-linecap="round"><line y2="-29562" y1="-28576" x2="-19762" x1="-20334" fill="none"/><line y2="-28576" y1="-29562" x2="-20334" x1="-20909" fill="none"/><line y2="-27594" y1="-28576" x2="-20909" x1="-20334" fill="none"/><line y2="-28576" y1="-27594" x2="-20334" x1="-19762" fill="none"/><line y2="-29562" y1="-29562" x2="-18803" x1="-19762" fill="none"/><line y2="-29562" y1="-29562" x2="-20909" x1="-21866" fill="none"/><line y2="-27594" y1="-27594" x2="-21866" x1="-20909" fill="none"/><line y2="-27594" y1="-27594" x2="-19762" x1="-18803" fill="none"/><line y2="-28576" y1="-29342" x2="-18044" x1="-18488" fill="none"/><line y2="-29342" y1="-28576" x2="-22183" x1="-22628" fill="none"/><line y2="-28576" y1="-27814" x2="-22628" x1="-22183" fill="none"/><line y2="-27814" y1="-28576" x2="-18488" x1="-18044" fill="none"/><line y2="-29102" y1="-28576" x2="-17136" x1="-18044" fill="none"/><line y2="-29102" y1="-28576" x2="-23535" x1="-22628" fill="none"/><line y2="-28576" y1="-29102" x2="-16229" x1="-17136" fill="none"/><line y2="-28992" y1="-28576" x2="-15510" x1="-16229" fill="none"/><line y2="-28576" y1="-28992" x2="-14415" x1="-15134" fill="none"/><line y2="-30009" y1="-29102" x2="-16611" x1="-17136" fill="none"/><line y2="-30009" y1="-29102" x2="-17659" x1="-17136" fill="none"/><line y2="-28576" y1="-29102" x2="-24442" x1="-23535" fill="none"/><line y2="-28992" y1="-28576" x2="-25162" x1="-24442" fill="none"/><line y2="-28576" y1="-28992" x2="-26257" x1="-25537" fill="none"/><line y2="-30009" y1="-29102" x2="-24058" x1="-23535" fill="none"/><line y2="-30009" y1="-29102" x2="-23012" x1="-23535" fill="none"/><line y2="-29102" y1="-28576" x2="-13508" x1="-14415" fill="none"/><line y2="-28576" y1="-29102" x2="-12601" x1="-13508" fill="none"/><line y2="-29102" y1="-28576" x2="-11691" x1="-12601" fill="none"/><line y2="-27750" y1="-28576" x2="-14343" x1="-14343" fill="none"/><line y2="-27750" y1="-28576" x2="-14484" x1="-14484" fill="none"/><line y2="-29102" y1="-28576" x2="-27164" x1="-26257" fill="none"/><line y2="-28576" y1="-29102" x2="-28071" x1="-27164" fill="none"/><line y2="-29102" y1="-28576" x2="-28978" x1="-28071" fill="none"/><line y2="-27750" y1="-28576" x2="-26187" x1="-26187" fill="none"/><line y2="-27750" y1="-28576" x2="-26326" x1="-26326" fill="none"/><line y2="-30238" y1="-29102" x2="-11691" x1="-11691" fill="none"/><line y2="-30096" y1="-29244" x2="-11523" x1="-11523" fill="none"/><line y2="-29102" y1="-28533" x2="-11691" x1="-10709" fill="none"/><line y2="-30807" y1="-30238" x2="-10709" x1="-11691" fill="none"/><line y2="-28533" y1="-29102" x2="-10709" x1="-9721" fill="none"/><line y2="-28753" y1="-29177" x2="-10671" x1="-9932" fill="none"/><line y2="-30238" y1="-30807" x2="-9721" x1="-10709" fill="none"/><line y2="-30162" y1="-30590" x2="-9932" x1="-10671" fill="none"/><line y2="-29102" y1="-30238" x2="-9721" x1="-9721" fill="none"/><line y2="-31855" y1="-30807" x2="-10709" x1="-10709" fill="none"/><line y2="-28576" y1="-29102" x2="-8814" x1="-9721" fill="none"/><line y2="-30654" y1="-30238" x2="-9004" x1="-9721" fill="none"/><line y2="-28533" y1="-29102" x2="-29960" x1="-28978" fill="none"/><line y2="-28750" y1="-29177" x2="-29923" x1="-29186" fill="none"/><line y2="-29102" y1="-30238" x2="-28978" x1="-28978" fill="none"/><line y2="-29102" y1="-28533" x2="-30948" x1="-29960" fill="none"/><line y2="-30238" y1="-30807" x2="-28978" x1="-29960" fill="none"/><line y2="-30162" y1="-30590" x2="-29186" x1="-29923" fill="none"/><line y2="-30238" y1="-29102" x2="-30948" x1="-30948" fill="none"/><line y2="-30096" y1="-29244" x2="-30778" x1="-30778" fill="none"/><line y2="-30807" y1="-30238" x2="-29960" x1="-30948" fill="none"/><line y2="-28576" y1="-29102" x2="-31855" x1="-30948" fill="none"/><line y2="-31855" y1="-30807" x2="-29960" x1="-29960" fill="none"/><line y2="-30544" y1="-30238" x2="-31477" x1="-30948" fill="none"/><line y2="-32378" y1="-31855" x2="-9802" x1="-10709" fill="none"/><line y2="-32762" y1="-31855" x2="-11232" x1="-10709" fill="none"/><line y2="-31855" y1="-31855" x2="-11757" x1="-10709" fill="none"/><line y2="-29102" y1="-28576" x2="-32762" x1="-31855" fill="none"/><line y2="-27669" y1="-28576" x2="-32378" x1="-31855" fill="none"/><line y2="-27669" y1="-28576" x2="-31332" x1="-31855" fill="none"/><text y="-28923" xml:space="preserve" x="-15472" stroke="none" font-size="433.3333" font-family="sans-serif">O</text><text y="-27352" xml:space="preserve" x="-14565" stroke="none" font-size="433.3333" font-family="sans-serif">O</text><text y="-28923" xml:space="preserve" x="-25503" stroke="none" font-size="433.3333" font-family="sans-serif">O</text><text y="-27352" xml:space="preserve" x="-26410" stroke="none" font-size="433.3333" font-family="sans-serif">O</text><text y="-30584" xml:space="preserve" x="-8967" stroke="none" font-size="433.3333" font-family="sans-serif">OH</text><text y="-30584" xml:space="preserve" x="-32008" stroke="none" font-size="433.3333" font-family="sans-serif">OH</text><text y="-29382" xml:space="preserve" x="-18769" stroke="none" font-size="433.3333" font-family="sans-serif">O</text><text y="-29382" xml:space="preserve" x="-22206" stroke="none" font-size="433.3333" font-family="sans-serif">O</text><text y="-27415" xml:space="preserve" x="-22206" stroke="none" font-size="433.3333" font-family="sans-serif">O</text><text y="-27415" xml:space="preserve" x="-18769" stroke="none" font-size="433.3333" font-family="sans-serif">O</text></g></g></svg>