<svg width="278.37" viewBox="0 0 9279 4820" text-rendering="auto" stroke-width="1" stroke-opacity="1" stroke-miterlimit="10" stroke-linejoin="miter" stroke-linecap="square" stroke-dashoffset="0" stroke-dasharray="none" stroke="black" shape-rendering="auto" image-rendering="auto" height="144.6" font-weight="normal" font-style="normal" font-size="12" font-family="'Dialog'" fill-opacity="1" fill="black" color-rendering="auto" color-interpolation="auto" xmlns="http://www.w3.org/2000/svg"><g><g stroke="white" fill="white"><rect y="0" x="0" width="9279" stroke="none" height="4820"/></g><g transform="translate(32866,32758)" text-rendering="geometricPrecision" stroke-width="44" stroke-linejoin="round" stroke-linecap="round"><line y2="-29108" y1="-29657" x2="-29134" x1="-29845" fill="none"/><line y2="-29666" y1="-29108" x2="-30220" x1="-30974" fill="none"/><line y2="-28042" y1="-29108" x2="-29501" x1="-29134" fill="none"/><line y2="-29108" y1="-28042" x2="-30974" x1="-30648" fill="none"/><line y2="-28042" y1="-28042" x2="-30648" x1="-29501" fill="none"/><line y2="-30850" y1="-30024" x2="-30032" x1="-30032" fill="none"/><line y2="-31376" y1="-30850" x2="-30940" x1="-30032" fill="none"/><line y2="-31327" y1="-30911" x2="-29348" x1="-30067" fill="none"/><line y2="-31205" y1="-30789" x2="-29278" x1="-29998" fill="none"/><line y2="-29215" y1="-29631" x2="-27508" x1="-28227" fill="none"/><line y2="-29631" y1="-29328" x2="-26413" x1="-26938" fill="none"/><line y2="-30460" y1="-29671" x2="-28296" x1="-28296" fill="none"/><line y2="-30460" y1="-29631" x2="-28158" x1="-28158" fill="none"/><line y2="-30867" y1="-31376" x2="-31855" x1="-30940" fill="none"/><line y2="-29108" y1="-29631" x2="-25506" x1="-26413" fill="none"/><line y2="-29631" y1="-29108" x2="-24598" x1="-25506" fill="none"/><line y2="-31390" y1="-30867" x2="-32762" x1="-31855" fill="none"/><line y2="-29819" y1="-30867" x2="-31855" x1="-31855" fill="none"/><line y2="-29108" y1="-29631" x2="-23691" x1="-24598" fill="none"/><line y2="-30680" y1="-29631" x2="-24598" x1="-24598" fill="none"/><line y2="-31096" y1="-30680" x2="-25693" x1="-26413" fill="none"/><line y2="-31035" y1="-30639" x2="-27167" x1="-26482" fill="none"/><line y2="-31156" y1="-30740" x2="-27097" x1="-26378" fill="none"/><line y2="-29570" y1="-29692" x2="-28192" x1="-28262" fill="none"/><line y2="-29474" y1="-29571" x2="-28387" x1="-28442" fill="none"/><line y2="-29379" y1="-29450" x2="-28582" x1="-28623" fill="none"/><line y2="-29283" y1="-29329" x2="-28777" x1="-28803" fill="none"/><line y2="-29188" y1="-29209" x2="-28972" x1="-28984" fill="none"/><line y2="-32202" y1="-32202" x2="-30870" x1="-31009" fill="none"/><line y2="-31985" y1="-31985" x2="-30888" x1="-30991" fill="none"/><line y2="-31769" y1="-31769" x2="-30907" x1="-30973" fill="none"/><line y2="-31552" y1="-31552" x2="-30925" x1="-30955" fill="none"/><line y2="-30680" y1="-30677" x2="-26343" x1="-26482" fill="none"/><line y2="-30463" y1="-30461" x2="-26357" x1="-26468" fill="none"/><line y2="-30246" y1="-30244" x2="-26372" x1="-26453" fill="none"/><line y2="-30029" y1="-30028" x2="-26386" x1="-26439" fill="none"/><line y2="-29812" y1="-29812" x2="-26401" x1="-26425" fill="none"/><text y="-31197" xml:space="preserve" x="-29278" stroke="none" font-size="433.3333" font-family="sans-serif">O</text><text y="-32242" xml:space="preserve" x="-31093" stroke="none" font-size="433.3333" font-family="sans-serif">NH</text><text y="-32153" xml:space="preserve" x="-30515" stroke="none" font-size="313.3333" font-family="sans-serif">2</text><text y="-28929" xml:space="preserve" x="-27470" stroke="none" font-size="433.3333" font-family="sans-serif">NH</text><text y="-30500" xml:space="preserve" x="-28377" stroke="none" font-size="433.3333" font-family="sans-serif">O</text><text y="-31023" xml:space="preserve" x="-25656" stroke="none" font-size="433.3333" font-family="sans-serif">OH</text><text y="-31023" xml:space="preserve" x="-27470" stroke="none" font-size="433.3333" font-family="sans-serif">O</text><text y="-29625" xml:space="preserve" x="-30186" stroke="none" font-size="433.3333" font-family="sans-serif">N</text><text y="-30893" xml:space="preserve" x="-31093" stroke="none" font-style="italic" font-size="313.3333" font-family="sans-serif">S</text><text y="-29151" xml:space="preserve" x="-26563" stroke="none" font-style="italic" font-size="313.3333" font-family="sans-serif">S</text><text y="-28831" xml:space="preserve" x="-29556" stroke="none" font-style="italic" font-size="313.3333" font-family="sans-serif">S</text></g></g></svg>