<svg width="195.06" viewBox="0 0 6502 8186" text-rendering="auto" stroke-width="1" stroke-opacity="1" stroke-miterlimit="10" stroke-linejoin="miter" stroke-linecap="square" stroke-dashoffset="0" stroke-dasharray="none" stroke="black" shape-rendering="auto" image-rendering="auto" height="245.58" font-weight="normal" font-style="normal" font-size="12" font-family="'Dialog'" fill-opacity="1" fill="black" color-rendering="auto" color-interpolation="auto" xmlns="http://www.w3.org/2000/svg"><g><g stroke="white" fill="white"><rect y="0" x="0" width="6502" stroke="none" height="8186"/></g><g transform="translate(32866,32758)" text-rendering="geometricPrecision" stroke-width="44" stroke-linejoin="round" stroke-linecap="round"><line y2="-29839" y1="-28701" x2="-29056" x1="-29056" fill="none"/><line y2="-29839" y1="-29839" x2="-28106" x1="-29056" fill="none"/><line y2="-28701" y1="-28701" x2="-29056" x1="-27918" fill="none"/><line y2="-28701" y1="-29619" x2="-27918" x1="-27918" fill="none"/><line y2="-28178" y1="-28701" x2="-29963" x1="-29056" fill="none"/><line y2="-30850" y1="-29839" x2="-28784" x1="-29056" fill="none"/><line y2="-28198" y1="-28750" x2="-27317" x1="-27869" fill="none"/><line y2="-28100" y1="-28652" x2="-27415" x1="-27967" fill="none"/><line y2="-28701" y1="-28178" x2="-30870" x1="-29963" fill="none"/><line y2="-26759" y1="-27022" x2="-30607" x1="-30151" fill="none"/><line y2="-31376" y1="-30850" x2="-27877" x1="-28784" fill="none"/><line y2="-27086" y1="-26756" x2="-31855" x1="-31286" fill="none"/><line y2="-25231" y1="-26340" x2="-30948" x1="-30948" fill="none"/><line y2="-26118" y1="-26366" x2="-31717" x1="-31286" fill="none"/><line y2="-30960" y1="-31376" x2="-27161" x1="-27877" fill="none"/><line y2="-32202" y1="-31376" x2="-27950" x1="-27950" fill="none"/><line y2="-32202" y1="-31376" x2="-27808" x1="-27808" fill="none"/><line y2="-26560" y1="-27086" x2="-32762" x1="-31855" fill="none"/><line y2="-27993" y1="-27086" x2="-32378" x1="-31855" fill="none"/><line y2="-27993" y1="-27086" x2="-31330" x1="-31855" fill="none"/><polygon stroke-width="1" stroke="none" points=" -29056 -28701 -28776 -27926 -28912 -27889"/><polygon stroke-width="1" points=" -29056 -28701 -28776 -27926 -28912 -27889" fill="none"/><polygon stroke-width="1" stroke="none" points=" -28784 -30850 -29726 -31315 -29657 -31434"/><polygon stroke-width="1" points=" -28784 -30850 -29726 -31315 -29657 -31434" fill="none"/><line y2="-29980" y1="-29845" x2="-29905" x1="-29917" fill="none"/><line y2="-29944" y1="-29843" x2="-29691" x1="-29700" fill="none"/><line y2="-29909" y1="-29842" x2="-29476" x1="-29482" fill="none"/><line y2="-29873" y1="-29840" x2="-29262" x1="-29265" fill="none"/><line y2="-27349" y1="-27349" x2="-30032" x1="-29894" fill="none"/><line y2="-27566" y1="-27566" x2="-30014" x1="-29912" fill="none"/><line y2="-27782" y1="-27782" x2="-29996" x1="-29930" fill="none"/><line y2="-27999" y1="-27999" x2="-29978" x1="-29948" fill="none"/><text y="-30671" xml:space="preserve" x="-27123" stroke="none" font-size="433.3333" font-family="sans-serif">OH</text><text y="-32242" xml:space="preserve" x="-28030" stroke="none" font-size="433.3333" font-family="sans-serif">O</text><text y="-26950" xml:space="preserve" x="-30116" stroke="none" font-size="433.3333" font-family="sans-serif">O</text><text y="-26381" xml:space="preserve" x="-31179" stroke="none" font-size="433.3333" font-family="sans-serif">Si</text><text y="-24832" xml:space="preserve" x="-31101" stroke="none" font-size="433.3333" font-family="sans-serif">CH</text><text y="-24743" xml:space="preserve" x="-30524" stroke="none" font-size="313.3333" font-family="sans-serif">3</text><text y="-25719" xml:space="preserve" x="-32248" stroke="none" font-size="433.3333" font-family="sans-serif">CH</text><text y="-25630" xml:space="preserve" x="-31670" stroke="none" font-size="313.3333" font-family="sans-serif">3</text><text y="-27782" xml:space="preserve" x="-27331" stroke="none" font-size="433.3333" font-family="sans-serif">O</text><text y="-29660" xml:space="preserve" x="-28071" stroke="none" font-size="433.3333" font-family="sans-serif">NH</text><text y="-27510" xml:space="preserve" x="-28938" stroke="none" font-size="433.3333" font-family="sans-serif">H</text><text y="-29749" xml:space="preserve" x="-30252" stroke="none" font-size="433.3333" font-family="sans-serif">H</text><text y="-30408" xml:space="preserve" x="-28683" stroke="none" font-style="italic" font-size="313.3333" font-family="sans-serif">R</text><text y="-28302" xml:space="preserve" x="-30116" stroke="none" font-style="italic" font-size="313.3333" font-family="sans-serif">R</text><text y="-29385" xml:space="preserve" x="-28964" stroke="none" font-style="italic" font-size="313.3333" font-family="sans-serif">S</text><text y="-28666" xml:space="preserve" x="-29458" stroke="none" font-style="italic" font-size="313.3333" font-family="sans-serif">S</text></g></g></svg>