<svg width="358.5" viewBox="0 0 11950 6995" text-rendering="auto" stroke-width="1" stroke-opacity="1" stroke-miterlimit="10" stroke-linejoin="miter" stroke-linecap="square" stroke-dashoffset="0" stroke-dasharray="none" stroke="black" shape-rendering="auto" image-rendering="auto" height="209.85" font-weight="normal" font-style="normal" font-size="12" font-family="'Dialog'" fill-opacity="1" fill="black" color-rendering="auto" color-interpolation="auto" xmlns="http://www.w3.org/2000/svg"><g><g stroke="white" fill="white"><rect y="0" x="0" width="11950" stroke="none" height="6995"/></g><g transform="translate(32866,32758)" text-rendering="geometricPrecision" stroke-width="44" stroke-linejoin="round" stroke-linecap="round"><line y2="-27681" y1="-27990" x2="-27430" x1="-27961" fill="none"/><line y2="-28097" y1="-27794" x2="-26335" x1="-26863" fill="none"/><line y2="-27574" y1="-27990" x2="-29056" x1="-28337" fill="none"/><line y2="-28750" y1="-28282" x2="-28605" x1="-28337" fill="none"/><line y2="-28819" y1="-28351" x2="-28484" x1="-28215" fill="none"/><line y2="-28819" y1="-28351" x2="-27814" x1="-28082" fill="none"/><line y2="-28750" y1="-28282" x2="-27692" x1="-27961" fill="none"/><line y2="-28926" y1="-28097" x2="-26335" x1="-26335" fill="none"/><line y2="-29668" y1="-29365" x2="-25428" x1="-25956" fill="none"/><line y2="-27742" y1="-28158" x2="-25581" x1="-26300" fill="none"/><line y2="-27620" y1="-28036" x2="-25650" x1="-26369" fill="none"/><line y2="-27574" y1="-28143" x2="-29056" x1="-30038" fill="none"/><line y2="-27496" y1="-27924" x2="-29264" x1="-30001" fill="none"/><line y2="-28143" y1="-27574" x2="-30038" x1="-31026" fill="none"/><line y2="-26436" y1="-27574" x2="-29056" x1="-29056" fill="none"/><line y2="-27574" y1="-26436" x2="-31026" x1="-31026" fill="none"/><line y2="-27430" y1="-26577" x2="-30856" x1="-30856" fill="none"/><line y2="-25867" y1="-26436" x2="-30038" x1="-29056" fill="none"/><line y2="-26083" y1="-26511" x2="-30001" x1="-29264" fill="none"/><line y2="-26436" y1="-25867" x2="-31026" x1="-30038" fill="none"/><line y2="-29189" y1="-28143" x2="-30038" x1="-30038" fill="none"/><line y2="-29668" y1="-29209" x2="-25428" x1="-24633" fill="none"/><line y2="-30587" y1="-29668" x2="-25428" x1="-25428" fill="none"/><line y2="-30472" y1="-29784" x2="-25257" x1="-25257" fill="none"/><line y2="-29209" y1="-29668" x2="-24255" x1="-23457" fill="none"/><line y2="-29414" y1="-29758" x2="-24240" x1="-23642" fill="none"/><line y2="-31376" y1="-30914" x2="-24445" x1="-25240" fill="none"/><line y2="-29668" y1="-30807" x2="-23457" x1="-23457" fill="none"/><line y2="-30807" y1="-31376" x2="-23457" x1="-24445" fill="none"/><line y2="-30729" y1="-31156" x2="-23665" x1="-24405" fill="none"/><line y2="-29252" y1="-29668" x2="-22738" x1="-23457" fill="none"/><line y2="-29562" y1="-29252" x2="-21831" x1="-22362" fill="none"/><line y2="-32202" y1="-31376" x2="-24445" x1="-24445" fill="none"/><line y2="-29605" y1="-29189" x2="-30758" x1="-30038" fill="none"/><line y2="-29189" y1="-29605" x2="-31852" x1="-31136" fill="none"/><line y2="-29715" y1="-29189" x2="-32762" x1="-31852" fill="none"/><line y2="-29666" y1="-29250" x2="-29356" x1="-30076" fill="none"/><line y2="-29544" y1="-29128" x2="-29284" x1="-30004" fill="none"/><text y="-29536" xml:space="preserve" x="-31098" stroke="none" font-size="433.3333" font-family="sans-serif">O</text><text y="-29536" xml:space="preserve" x="-29284" stroke="none" font-size="433.3333" font-family="sans-serif">O</text><text y="-27918" xml:space="preserve" x="-28302" stroke="none" font-size="433.3333" font-family="sans-serif">S</text><text y="-27395" xml:space="preserve" x="-27395" stroke="none" font-size="433.3333" font-family="sans-serif">NH</text><text y="-28825" xml:space="preserve" x="-28825" stroke="none" font-size="433.3333" font-family="sans-serif">O</text><text y="-28825" xml:space="preserve" x="-27776" stroke="none" font-size="433.3333" font-family="sans-serif">O</text><text y="-28966" xml:space="preserve" x="-26488" stroke="none" font-size="433.3333" font-family="sans-serif">NH</text><text y="-27395" xml:space="preserve" x="-25581" stroke="none" font-size="433.3333" font-family="sans-serif">O</text><text y="-28966" xml:space="preserve" x="-22703" stroke="none" font-size="433.3333" font-family="sans-serif">O</text><text y="-29489" xml:space="preserve" x="-21796" stroke="none" font-size="433.3333" font-family="sans-serif">CH</text><text y="-29400" xml:space="preserve" x="-21218" stroke="none" font-size="313.3333" font-family="sans-serif">3</text><text y="-32242" xml:space="preserve" x="-24676" stroke="none" font-size="433.3333" font-family="sans-serif">Cl</text><text y="-28920" xml:space="preserve" x="-24596" stroke="none" font-size="433.3333" font-family="sans-serif">N</text><text y="-30628" xml:space="preserve" x="-25581" stroke="none" font-size="433.3333" font-family="sans-serif">N</text></g></g></svg>