<svg width="287.58" viewBox="0 0 9586 5903" text-rendering="auto" stroke-width="1" stroke-opacity="1" stroke-miterlimit="10" stroke-linejoin="miter" stroke-linecap="square" stroke-dashoffset="0" stroke-dasharray="none" stroke="black" shape-rendering="auto" image-rendering="auto" height="177.09" font-weight="normal" font-style="normal" font-size="12" font-family="'Dialog'" fill-opacity="1" fill="black" color-rendering="auto" color-interpolation="auto" xmlns="http://www.w3.org/2000/svg"><g><g stroke="white" fill="white"><rect y="0" x="0" width="9586" stroke="none" height="5903"/></g><g transform="translate(32866,32758)" text-rendering="geometricPrecision" stroke-width="44" stroke-linejoin="round" stroke-linecap="round"><line y2="-30235" y1="-29406" x2="-28701" x1="-28701" fill="none"/><line y2="-30758" y1="-30235" x2="-27794" x1="-28701" fill="none"/><line y2="-28663" y1="-29079" x2="-27794" x1="-28510" fill="none"/><line y2="-28663" y1="-29079" x2="-29608" x1="-28888" fill="none"/><line y2="-29186" y1="-28663" x2="-30515" x1="-29608" fill="none"/><line y2="-28773" y1="-29186" x2="-31234" x1="-30515" fill="none"/><line y2="-31896" y1="-30758" x2="-27794" x1="-27794" fill="none"/><line y2="-31754" y1="-30902" x2="-27623" x1="-27623" fill="none"/><line y2="-30758" y1="-30191" x2="-27794" x1="-26806" fill="none"/><line y2="-32465" y1="-31896" x2="-26806" x1="-27794" fill="none"/><line y2="-30191" y1="-30758" x2="-26806" x1="-25823" fill="none"/><line y2="-30408" y1="-30836" x2="-26768" x1="-26028" fill="none"/><line y2="-31896" y1="-32465" x2="-25823" x1="-26806" fill="none"/><line y2="-31821" y1="-32248" x2="-26028" x1="-26768" fill="none"/><line y2="-30758" y1="-31896" x2="-25823" x1="-25823" fill="none"/><line y2="-32312" y1="-31896" x2="-25104" x1="-25823" fill="none"/><line y2="-32006" y1="-32312" x2="-24197" x1="-24726" fill="none"/><line y2="-29122" y1="-28663" x2="-26996" x1="-27794" fill="none"/><line y2="-28663" y1="-27744" x2="-27794" x1="-27794" fill="none"/><line y2="-28548" y1="-27860" x2="-27623" x1="-27623" fill="none"/><line y2="-28663" y1="-29122" x2="-25823" x1="-26621" fill="none"/><line y2="-28574" y1="-28917" x2="-26008" x1="-26606" fill="none"/><line y2="-27418" y1="-26959" x2="-27603" x1="-26808" fill="none"/><line y2="-27525" y1="-28663" x2="-25823" x1="-25823" fill="none"/><line y2="-26959" y1="-27525" x2="-26808" x1="-25823" fill="none"/><line y2="-27175" y1="-27603" x2="-26771" x1="-26031" fill="none"/><line y2="-29018" y1="-28773" x2="-32040" x1="-31610" fill="none"/><line y2="-27834" y1="-28444" x2="-31422" x1="-31422" fill="none"/><text y="-29007" xml:space="preserve" x="-28851" stroke="none" font-size="433.3333" font-family="sans-serif">N</text><text y="-28484" xml:space="preserve" x="-31572" stroke="none" font-size="433.3333" font-family="sans-serif">N</text><text y="-29172" xml:space="preserve" x="-32762" stroke="none" font-size="433.3333" font-family="sans-serif">CH</text><text y="-29082" xml:space="preserve" x="-32185" stroke="none" font-size="313.3333" font-family="sans-serif">3</text><text y="-27435" xml:space="preserve" x="-31572" stroke="none" font-size="433.3333" font-family="sans-serif">CH</text><text y="-27346" xml:space="preserve" x="-30994" stroke="none" font-size="313.3333" font-family="sans-serif">3</text><text y="-32242" xml:space="preserve" x="-25066" stroke="none" font-size="433.3333" font-family="sans-serif">O</text><text y="-31717" xml:space="preserve" x="-24159" stroke="none" font-size="433.3333" font-family="sans-serif">CH</text><text y="-31627" xml:space="preserve" x="-23582" stroke="none" font-size="313.3333" font-family="sans-serif">3</text><text y="-29053" xml:space="preserve" x="-26962" stroke="none" font-size="433.3333" font-family="sans-serif">N</text><text y="-27346" xml:space="preserve" x="-27944" stroke="none" font-size="433.3333" font-family="sans-serif">N</text></g></g></svg>