<svg width="231.69" viewBox="0 0 7723 5713" text-rendering="auto" stroke-width="1" stroke-opacity="1" stroke-miterlimit="10" stroke-linejoin="miter" stroke-linecap="square" stroke-dashoffset="0" stroke-dasharray="none" stroke="black" shape-rendering="auto" image-rendering="auto" height="171.39" font-weight="normal" font-style="normal" font-size="12" font-family="'Dialog'" fill-opacity="1" fill="black" color-rendering="auto" color-interpolation="auto" xmlns="http://www.w3.org/2000/svg"><g><g stroke="white" fill="white"><rect y="0" x="0" width="7723" stroke="none" height="5713"/></g><g transform="translate(32866,32758)" text-rendering="geometricPrecision" stroke-width="44" stroke-linejoin="round" stroke-linecap="round"><line y2="-29146" y1="-29715" x2="-29654" x1="-30639" fill="none"/><line y2="-29068" y1="-29495" x2="-29862" x1="-30602" fill="none"/><line y2="-28007" y1="-29146" x2="-29654" x1="-29654" fill="none"/><line y2="-29715" y1="-29146" x2="-30639" x1="-31624" fill="none"/><line y2="-27438" y1="-28007" x2="-30639" x1="-29654" fill="none"/><line y2="-27658" y1="-28082" x2="-30602" x1="-29862" fill="none"/><line y2="-29146" y1="-28007" x2="-31624" x1="-31624" fill="none"/><line y2="-29001" y1="-28149" x2="-31454" x1="-31454" fill="none"/><line y2="-28007" y1="-27438" x2="-31624" x1="-30639" fill="none"/><line y2="-29668" y1="-29146" x2="-28747" x1="-29654" fill="none"/><line y2="-27704" y1="-28007" x2="-32153" x1="-31624" fill="none"/><line y2="-29472" y1="-29146" x2="-32190" x1="-31624" fill="none"/><line y2="-30807" y1="-29668" x2="-28747" x1="-28747" fill="none"/><line y2="-30665" y1="-29810" x2="-28576" x1="-28576" fill="none"/><line y2="-29668" y1="-29099" x2="-28747" x1="-27762" fill="none"/><line y2="-31376" y1="-30807" x2="-27762" x1="-28747" fill="none"/><line y2="-29099" y1="-29668" x2="-27762" x1="-26777" fill="none"/><line y2="-29319" y1="-29744" x2="-27724" x1="-26985" fill="none"/><line y2="-30807" y1="-31376" x2="-26777" x1="-27762" fill="none"/><line y2="-30729" y1="-31156" x2="-26985" x1="-27724" fill="none"/><line y2="-29668" y1="-30807" x2="-26777" x1="-26777" fill="none"/><line y2="-31223" y1="-30807" x2="-26057" x1="-26777" fill="none"/><line y2="-32202" y1="-31376" x2="-27762" x1="-27762" fill="none"/><text y="-29489" xml:space="preserve" x="-32762" stroke="none" font-size="433.3333" font-family="sans-serif">Cl</text><text y="-32242" xml:space="preserve" x="-27993" stroke="none" font-size="433.3333" font-family="sans-serif">Cl</text><text y="-27305" xml:space="preserve" x="-32684" stroke="none" font-size="433.3333" font-family="sans-serif">NH</text><text y="-27216" xml:space="preserve" x="-32107" stroke="none" font-size="313.3333" font-family="sans-serif">2</text><text y="-31150" xml:space="preserve" x="-26023" stroke="none" font-size="433.3333" font-family="sans-serif">NH</text><text y="-31061" xml:space="preserve" x="-25445" stroke="none" font-size="313.3333" font-family="sans-serif">2</text></g></g></svg>