<svg width="706.74" viewBox="0 0 23558 26350" text-rendering="auto" stroke-width="1" stroke-opacity="1" stroke-miterlimit="10" stroke-linejoin="miter" stroke-linecap="square" stroke-dashoffset="0" stroke-dasharray="none" stroke="black" shape-rendering="auto" image-rendering="auto" height="790.5" font-weight="normal" font-style="normal" font-size="12" font-family="'Dialog'" fill-opacity="1" fill="black" color-rendering="auto" color-interpolation="auto" xmlns="http://www.w3.org/2000/svg"><g><g stroke="white" fill="white"><rect y="0" x="0" width="23558" stroke="none" height="26350"/></g><g transform="translate(32866,32758)" text-rendering="geometricPrecision" stroke-width="44" stroke-linejoin="round" stroke-linecap="round"><line y2="-10059" y1="-10660" x2="-16689" x1="-15649" fill="none"/><line y2="-10660" y1="-11861" x2="-15649" x1="-15649" fill="none"/><line y2="-10059" y1="-10660" x2="-14609" x1="-15649" fill="none"/><line y2="-9986" y1="-10437" x2="-14822" x1="-15605" fill="none"/><line y2="-10660" y1="-10059" x2="-17732" x1="-16689" fill="none"/><line y2="-10059" y1="-8860" x2="-16689" x1="-16689" fill="none"/><line y2="-9908" y1="-9010" x2="-16518" x1="-16518" fill="none"/><line y2="-12462" y1="-11861" x2="-16689" x1="-15649" fill="none"/><line y2="-12534" y1="-12084" x2="-16475" x1="-15695" fill="none"/><line y2="-11861" y1="-12462" x2="-15649" x1="-14609" fill="none"/><line y2="-8860" y1="-10059" x2="-14609" x1="-14609" fill="none"/><line y2="-10278" y1="-10660" x2="-18390" x1="-17732" fill="none"/><line y2="-8860" y1="-8259" x2="-16689" x1="-15649" fill="none"/><line y2="-13661" y1="-12462" x2="-16689" x1="-16689" fill="none"/><line y2="-12462" y1="-13661" x2="-14609" x1="-14609" fill="none"/><line y2="-12612" y1="-13511" x2="-14776" x1="-14776" fill="none"/><line y2="-8259" y1="-8860" x2="-15649" x1="-14609" fill="none"/><line y2="-8481" y1="-8932" x2="-15605" x1="-14822" fill="none"/><line y2="-10660" y1="-10168" x2="-19809" x1="-18959" fill="none"/><line y2="-13661" y1="-14262" x2="-16689" x1="-17732" fill="none"/><line y2="-14262" y1="-13661" x2="-15649" x1="-16689" fill="none"/><line y2="-14042" y1="-13592" x2="-15695" x1="-16475" fill="none"/><line y2="-13661" y1="-14262" x2="-14609" x1="-15649" fill="none"/><line y2="-11861" y1="-10660" x2="-19809" x1="-19809" fill="none"/><line y2="-13661" y1="-14262" x2="-18769" x1="-17732" fill="none"/><line y2="-14262" y1="-15244" x2="-17732" x1="-17732" fill="none"/><line y2="-12462" y1="-11861" x2="-20852" x1="-19809" fill="none"/><line y2="-12352" y1="-11861" x2="-18959" x1="-19809" fill="none"/><line y2="-12682" y1="-13661" x2="-18769" x1="-18769" fill="none"/><line y2="-15683" y1="-16065" x2="-17350" x1="-16689" fill="none"/><line y2="-13661" y1="-12462" x2="-20852" x1="-20852" fill="none"/><line y2="-16065" y1="-17266" x2="-16689" x1="-16689" fill="none"/><line y2="-14262" y1="-13661" x2="-21889" x1="-20852" fill="none"/><line y2="-13661" y1="-14262" x2="-20852" x1="-19809" fill="none"/><line y2="-13886" y1="-14337" x2="-20805" x1="-20022" fill="none"/><line y2="-17867" y1="-17266" x2="-17732" x1="-16689" fill="none"/><line y2="-17266" y1="-17758" x2="-16689" x1="-15836" fill="none"/><line y2="-15464" y1="-14262" x2="-21889" x1="-21889" fill="none"/><line y2="-15314" y1="-14415" x2="-21721" x1="-21721" fill="none"/><line y2="-15464" y1="-14262" x2="-19809" x1="-19809" fill="none"/><line y2="-17266" y1="-17867" x2="-18769" x1="-17732" fill="none"/><line y2="-17489" y1="-17940" x2="-18725" x1="-17945" fill="none"/><line y2="-19069" y1="-17867" x2="-17732" x1="-17732" fill="none"/><line y2="-18087" y1="-20046" x2="-15582" x1="-14961" fill="none"/><line y2="-16065" y1="-15464" x2="-20852" x1="-21889" fill="none"/><line y2="-15464" y1="-16065" x2="-19809" x1="-20852" fill="none"/><line y2="-15392" y1="-15842" x2="-20022" x1="-20805" fill="none"/><line y2="-17867" y1="-17266" x2="-19809" x1="-18769" fill="none"/><line y2="-19069" y1="-19670" x2="-17732" x1="-18769" fill="none"/><line y2="-18997" y1="-19448" x2="-17945" x1="-18725" fill="none"/><line y2="-20046" y1="-24474" x2="-14961" x1="-15649" fill="none"/><line y2="-17047" y1="-16065" x2="-20852" x1="-20852" fill="none"/><line y2="-17867" y1="-17373" x2="-19809" x1="-20664" fill="none"/><line y2="-19069" y1="-17867" x2="-19809" x1="-19809" fill="none"/><line y2="-18919" y1="-18018" x2="-19638" x1="-19638" fill="none"/><line y2="-19670" y1="-19069" x2="-18769" x1="-19809" fill="none"/><line y2="-20724" y1="-19670" x2="-19130" x1="-18769" fill="none"/><line y2="-24474" y1="-25075" x2="-15649" x1="-14609" fill="none"/><line y2="-24856" y1="-24474" x2="-16310" x1="-15649" fill="none"/><line y2="-22672" y1="-21164" x2="-18769" x1="-19150" fill="none"/><line y2="-26277" y1="-25075" x2="-14609" x1="-14609" fill="none"/><line y2="-25075" y1="-24474" x2="-14609" x1="-13569" fill="none"/><line y2="-25147" y1="-24697" x2="-14392" x1="-13615" fill="none"/><line y2="-26277" y1="-25295" x2="-16689" x1="-16689" fill="none"/><line y2="-23272" y1="-22672" x2="-19809" x1="-18769" fill="none"/><line y2="-22672" y1="-23272" x2="-18769" x1="-17732" fill="none"/><line y2="-22894" y1="-23345" x2="-18725" x1="-17945" fill="none"/><line y2="-26878" y1="-26277" x2="-13569" x1="-14609" fill="none"/><line y2="-26655" y1="-26205" x2="-13615" x1="-14392" fill="none"/><line y2="-24474" y1="-25075" x2="-13569" x1="-12526" fill="none"/><line y2="-26878" y1="-26277" x2="-17732" x1="-16689" fill="none"/><line y2="-24474" y1="-23272" x2="-19809" x1="-19809" fill="none"/><line y2="-24324" y1="-23423" x2="-19638" x1="-19638" fill="none"/><line y2="-24474" y1="-23272" x2="-17732" x1="-17732" fill="none"/><line y2="-26878" y1="-28045" x2="-13569" x1="-13257" fill="none"/><line y2="-26277" y1="-26878" x2="-12526" x1="-13569" fill="none"/><line y2="-25075" y1="-26277" x2="-12526" x1="-12526" fill="none"/><line y2="-25225" y1="-26127" x2="-12696" x1="-12696" fill="none"/><line y2="-26878" y1="-26277" x2="-17732" x1="-18769" fill="none"/><line y2="-29660" y1="-26878" x2="-17732" x1="-17732" fill="none"/><line y2="-25075" y1="-24474" x2="-18769" x1="-19809" fill="none"/><line y2="-24474" y1="-25075" x2="-17732" x1="-18769" fill="none"/><line y2="-24402" y1="-24853" x2="-17945" x1="-18725" fill="none"/><line y2="-28484" y1="-29879" x2="-13248" x1="-13569" fill="none"/><line y2="-26277" y1="-25075" x2="-18769" x1="-18769" fill="none"/><line y2="-30480" y1="-30099" x2="-16689" x1="-17350" fill="none"/><line y2="-30480" y1="-29879" x2="-14609" x1="-13569" fill="none"/><line y2="-29879" y1="-30480" x2="-13569" x1="-12526" fill="none"/><line y2="-30102" y1="-30552" x2="-13522" x1="-12742" fill="none"/><line y2="-31682" y1="-30480" x2="-16689" x1="-16689" fill="none"/><line y2="-31682" y1="-30480" x2="-14609" x1="-14609" fill="none"/><line y2="-31532" y1="-30630" x2="-14438" x1="-14438" fill="none"/><line y2="-30480" y1="-31682" x2="-12526" x1="-12526" fill="none"/><line y2="-31682" y1="-31682" x2="-14609" x1="-16689" fill="none"/><line y2="-32283" y1="-31682" x2="-13569" x1="-14609" fill="none"/><line y2="-31682" y1="-32283" x2="-12526" x1="-13569" fill="none"/><line y2="-31610" y1="-32060" x2="-12742" x1="-13522" fill="none"/><line y2="-10475" y1="-10059" x2="-13889" x1="-14609" fill="none"/><line y2="-12462" y1="-12046" x2="-22666" x1="-21946" fill="none"/><line y2="-20109" y1="-19069" x2="-21611" x1="-19809" fill="none"/><line y2="-12046" y1="-12462" x2="-13889" x1="-14609" fill="none"/><line y2="-7430" y1="-8259" x2="-15649" x1="-15649" fill="none"/><line y2="-15790" y1="-15464" x2="-22455" x1="-21889" fill="none"/><line y2="-22946" y1="-23272" x2="-20375" x1="-19809" fill="none"/><line y2="-24659" y1="-25075" x2="-11806" x1="-12526" fill="none"/><line y2="-30064" y1="-30480" x2="-11806" x1="-12526" fill="none"/><line y2="-10183" y1="-10599" x2="-20493" x1="-19774" fill="none"/><line y2="-10304" y1="-10720" x2="-20563" x1="-19843" fill="none"/><line y2="-13742" y1="-13595" x2="-19627" x1="-18783" fill="none"/><line y2="-13881" y1="-13730" x2="-19601" x1="-18757" fill="none"/><line y2="-15709" y1="-16125" x2="-15935" x1="-16654" fill="none"/><line y2="-15588" y1="-16004" x2="-16004" x1="-16723" fill="none"/><line y2="-20040" y1="-20115" x2="-14100" x1="-14955" fill="none"/><line y2="-19898" y1="-19973" x2="-14112" x1="-14967" fill="none"/><line y2="-26754" y1="-26338" x2="-16004" x1="-16723" fill="none"/><line y2="-26632" y1="-26216" x2="-15935" x1="-16654" fill="none"/><line y2="-30836" y1="-30440" x2="-17443" x1="-16758" fill="none"/><line y2="-30957" y1="-30561" x2="-17373" x1="-16689" fill="none"/><line y2="-10059" y1="-9143" x2="-12792" x1="-12792" fill="none"/><line y2="-10628" y1="-10059" x2="-11809" x1="-12792" fill="none"/><line y2="-8814" y1="-8354" x2="-12604" x1="-11809" fill="none"/><line y2="-10059" y1="-10628" x2="-10821" x1="-11809" fill="none"/><line y2="-8354" y1="-8923" x2="-11809" x1="-10821" fill="none"/><line y2="-8923" y1="-10059" x2="-10821" x1="-10821" fill="none"/><line y2="-6890" y1="-7306" x2="-11090" x1="-11809" fill="none"/><line y2="-11893" y1="-12462" x2="-23648" x1="-22666" fill="none"/><line y2="-12462" y1="-13381" x2="-22666" x1="-22666" fill="none"/><line y2="-12462" y1="-11893" x2="-24636" x1="-23648" fill="none"/><line y2="-13707" y1="-14167" x2="-22854" x1="-23648" fill="none"/><line y2="-13598" y1="-12462" x2="-24636" x1="-24636" fill="none"/><line y2="-14167" y1="-13598" x2="-23648" x1="-24636" fill="none"/><line y2="-15519" y1="-15215" x2="-24177" x1="-23648" fill="none"/><line y2="-10322" y1="-10738" x2="-24555" x1="-23836" fill="none"/><line y2="-19696" y1="-20262" x2="-22706" x1="-23691" fill="none"/><line y2="-18777" y1="-19696" x2="-22706" x1="-22706" fill="none"/><line y2="-20262" y1="-19696" x2="-23691" x1="-24676" fill="none"/><line y2="-17989" y1="-18448" x2="-23691" x1="-22897" fill="none"/><line y2="-19696" y1="-18558" x2="-24676" x1="-24676" fill="none"/><line y2="-18558" y1="-17989" x2="-24676" x1="-23691" fill="none"/><line y2="-16637" y1="-16940" x2="-24217" x1="-23691" fill="none"/><line y2="-21837" y1="-21421" x2="-24598" x1="-23879" fill="none"/><line y2="-8470" y1="-8776" x2="-18257" x1="-17732" fill="none"/><line y2="-8421" y1="-8816" x2="-16975" x1="-17662" fill="none"/><line y2="-8299" y1="-8715" x2="-17047" x1="-17766" fill="none"/><line y2="-10844" y1="-10322" x2="-25462" x1="-24555" fill="none"/><line y2="-9492" y1="-10322" x2="-24486" x1="-24486" fill="none"/><line y2="-9492" y1="-10322" x2="-24627" x1="-24627" fill="none"/><line y2="-21311" y1="-21837" x2="-25506" x1="-24598" fill="none"/><line y2="-21837" y1="-21311" x2="-26413" x1="-25506" fill="none"/><line y2="-21311" y1="-21837" x2="-27320" x1="-26413" fill="none"/><line y2="-21837" y1="-21311" x2="-28227" x1="-27320" fill="none"/><line y2="-21311" y1="-21837" x2="-29134" x1="-28227" fill="none"/><line y2="-21837" y1="-21311" x2="-30041" x1="-29134" fill="none"/><line y2="-21311" y1="-21837" x2="-30948" x1="-30041" fill="none"/><line y2="-21837" y1="-21311" x2="-31855" x1="-30948" fill="none"/><line y2="-21311" y1="-21837" x2="-32762" x1="-31855" fill="none"/><line y2="-22663" y1="-21837" x2="-24668" x1="-24668" fill="none"/><line y2="-22663" y1="-21837" x2="-24529" x1="-24529" fill="none"/><line y2="-11489" y1="-10660" x2="-17732" x1="-17732" fill="none"/><polygon stroke-width="1" stroke="none" points=" -17732 -14262 -17662 -13436 -17801 -13433"/><polygon stroke-width="1" points=" -17732 -14262 -17662 -13436 -17801 -13433" fill="none"/><polygon stroke-width="1" stroke="none" points=" -19809 -11861 -19878 -12688 -19739 -12690"/><polygon stroke-width="1" points=" -19809 -11861 -19878 -12688 -19739 -12690" fill="none"/><polygon stroke-width="1" stroke="none" points=" -11809 -8354 -11740 -7306 -11879 -7306"/><polygon stroke-width="1" points=" -11809 -8354 -11740 -7306 -11879 -7306" fill="none"/><polygon stroke-width="1" stroke="none" points=" -11809 -10628 -11879 -11457 -11740 -11457"/><polygon stroke-width="1" points=" -11809 -10628 -11879 -11457 -11740 -11457" fill="none"/><polygon stroke-width="1" stroke="none" points=" -10821 -10059 -10137 -10535 -10067 -10414"/><polygon stroke-width="1" points=" -10821 -10059 -10137 -10535 -10067 -10414" fill="none"/><polygon stroke-width="1" stroke="none" points=" -23648 -14167 -23717 -15215 -23579 -15215"/><polygon stroke-width="1" points=" -23648 -14167 -23717 -15215 -23579 -15215" fill="none"/><polygon stroke-width="1" stroke="none" points=" -24636 -12462 -25127 -12098 -25199 -12217"/><polygon stroke-width="1" points=" -24636 -12462 -25127 -12098 -25199 -12217" fill="none"/><polygon stroke-width="1" stroke="none" points=" -23691 -20262 -23761 -21091 -23622 -21091"/><polygon stroke-width="1" points=" -23691 -20262 -23761 -21091 -23622 -21091" fill="none"/><polygon stroke-width="1" stroke="none" points=" -24676 -18558 -25170 -18194 -25240 -18312"/><polygon stroke-width="1" points=" -24676 -18558 -25170 -18194 -25240 -18312" fill="none"/><line y2="-10535" y1="-10414" x2="-13479" x1="-13546" fill="none"/><line y2="-10411" y1="-10322" x2="-13300" x1="-13350" fill="none"/><line y2="-10287" y1="-10229" x2="-13121" x1="-13153" fill="none"/><line y2="-10163" y1="-10137" x2="-12942" x1="-12957" fill="none"/><line y2="-12104" y1="-11986" x2="-21606" x1="-21533" fill="none"/><line y2="-12197" y1="-12110" x2="-21409" x1="-21355" fill="none"/><line y2="-12291" y1="-12235" x2="-21212" x1="-21177" fill="none"/><line y2="-12384" y1="-12359" x2="-21015" x1="-21000" fill="none"/><line y2="-20051" y1="-20170" x2="-21952" x1="-22024" fill="none"/><line y2="-19958" y1="-20046" x2="-22149" x1="-22202" fill="none"/><line y2="-19865" y1="-19922" x2="-22346" x1="-22380" fill="none"/><line y2="-19773" y1="-19798" x2="-22543" x1="-22559" fill="none"/><line y2="-8776" y1="-8776" x2="-17801" x1="-17662" fill="none"/><line y2="-8993" y1="-8993" x2="-17793" x1="-17670" fill="none"/><line y2="-9209" y1="-9209" x2="-17785" x1="-17678" fill="none"/><line y2="-9426" y1="-9426" x2="-17777" x1="-17686" fill="none"/><line y2="-9643" y1="-9643" x2="-17769" x1="-17694" fill="none"/><line y2="-9859" y1="-9859" x2="-17761" x1="-17702" fill="none"/><line y2="-10076" y1="-10076" x2="-17753" x1="-17710" fill="none"/><line y2="-10293" y1="-10293" x2="-17745" x1="-17718" fill="none"/><line y2="-10509" y1="-10509" x2="-17738" x1="-17726" fill="none"/><line y2="-32251" y1="-32153" x2="-17160" x1="-17258" fill="none"/><line y2="-32083" y1="-32014" x2="-17021" x1="-17090" fill="none"/><line y2="-31916" y1="-31875" x2="-16882" x1="-16923" fill="none"/><line y2="-31748" y1="-31737" x2="-16744" x1="-16755" fill="none"/><line y2="-18096" y1="-18093" x2="-16619" x1="-16758" fill="none"/><line y2="-17879" y1="-17877" x2="-16637" x1="-16740" fill="none"/><line y2="-17662" y1="-17660" x2="-16656" x1="-16722" fill="none"/><line y2="-17445" y1="-17444" x2="-16674" x1="-16704" fill="none"/><line y2="-25303" y1="-25303" x2="-15582" x1="-15718" fill="none"/><line y2="-25086" y1="-25086" x2="-15600" x1="-15700" fill="none"/><line y2="-24870" y1="-24870" x2="-15617" x1="-15682" fill="none"/><line y2="-24653" y1="-24653" x2="-15635" x1="-15664" fill="none"/><line y2="-26046" y1="-26049" x2="-17801" x1="-17662" fill="none"/><line y2="-26263" y1="-26265" x2="-17783" x1="-17680" fill="none"/><line y2="-26480" y1="-26482" x2="-17765" x1="-17699" fill="none"/><line y2="-26697" y1="-26698" x2="-17747" x1="-17717" fill="none"/><line y2="-8447" y1="-8568" x2="-10137" x1="-10070" fill="none"/><line y2="-8571" y1="-8661" x2="-10316" x1="-10266" fill="none"/><line y2="-8696" y1="-8754" x2="-10494" x1="-10463" fill="none"/><line y2="-8820" y1="-8846" x2="-10673" x1="-10659" fill="none"/><line y2="-11064" y1="-11064" x2="-23717" x1="-23579" fill="none"/><line y2="-11281" y1="-11281" x2="-23699" x1="-23597" fill="none"/><line y2="-11497" y1="-11497" x2="-23681" x1="-23615" fill="none"/><line y2="-11714" y1="-11714" x2="-23663" x1="-23633" fill="none"/><line y2="-13962" y1="-13843" x2="-25127" x1="-25196" fill="none"/><line y2="-13832" y1="-13756" x2="-24952" x1="-24996" fill="none"/><line y2="-13702" y1="-13668" x2="-24777" x1="-24796" fill="none"/><line y2="-11633" y1="-11633" x2="-22735" x1="-22596" fill="none"/><line y2="-11850" y1="-11850" x2="-22717" x1="-22614" fill="none"/><line y2="-12066" y1="-12066" x2="-22699" x1="-22633" fill="none"/><line y2="-12283" y1="-12283" x2="-22681" x1="-22651" fill="none"/><line y2="-16940" y1="-16940" x2="-23761" x1="-23622" fill="none"/><line y2="-17157" y1="-17157" x2="-23747" x1="-23636" fill="none"/><line y2="-17373" y1="-17373" x2="-23732" x1="-23651" fill="none"/><line y2="-17590" y1="-17590" x2="-23718" x1="-23665" fill="none"/><line y2="-17807" y1="-17807" x2="-23703" x1="-23679" fill="none"/><line y2="-20060" y1="-19939" x2="-25170" x1="-25240" fill="none"/><line y2="-19931" y1="-19853" x2="-24995" x1="-25040" fill="none"/><line y2="-19801" y1="-19766" x2="-24819" x1="-24839" fill="none"/><text y="-10405" xml:space="preserve" x="-13852" stroke="none" font-size="433.3333" font-family="sans-serif">O</text><text y="-8071" xml:space="preserve" x="-18792" stroke="none" font-size="433.3333" font-family="sans-serif">OH</text><text y="-8071" xml:space="preserve" x="-16975" stroke="none" font-size="433.3333" font-family="sans-serif">O</text><text y="-11757" xml:space="preserve" x="-13852" stroke="none" font-size="433.3333" font-family="sans-serif">OH</text><text y="-7031" xml:space="preserve" x="-15802" stroke="none" font-size="433.3333" font-family="sans-serif">OH</text><text y="-9958" xml:space="preserve" x="-20866" stroke="none" font-size="433.3333" font-family="sans-serif">O</text><text y="-11497" xml:space="preserve" x="-11962" stroke="none" font-size="433.3333" font-family="sans-serif">OH</text><text y="-13664" xml:space="preserve" x="-19953" stroke="none" font-size="433.3333" font-family="sans-serif">O</text><text y="-6604" xml:space="preserve" x="-11055" stroke="none" font-size="433.3333" font-family="sans-serif">OH</text><text y="-10405" xml:space="preserve" x="-10067" stroke="none" font-size="433.3333" font-family="sans-serif">OH</text><text y="-11757" xml:space="preserve" x="-21912" stroke="none" font-size="433.3333" font-family="sans-serif">O</text><text y="-15363" xml:space="preserve" x="-15935" stroke="none" font-size="433.3333" font-family="sans-serif">O</text><text y="-8218" xml:space="preserve" x="-10067" stroke="none" font-size="433.3333" font-family="sans-serif">OH</text><text y="-15810" xml:space="preserve" x="-23030" stroke="none" font-size="433.3333" font-family="sans-serif">Cl</text><text y="-10665" xml:space="preserve" x="-23801" stroke="none" font-size="433.3333" font-family="sans-serif">NH</text><text y="-9094" xml:space="preserve" x="-24708" stroke="none" font-size="433.3333" font-family="sans-serif">O</text><text y="-19774" xml:space="preserve" x="-14071" stroke="none" font-size="433.3333" font-family="sans-serif">O</text><text y="-11757" xml:space="preserve" x="-25696" stroke="none" font-size="433.3333" font-family="sans-serif">OH</text><text y="-15559" xml:space="preserve" x="-24708" stroke="none" font-size="433.3333" font-family="sans-serif">OH</text><text y="-13944" xml:space="preserve" x="-25696" stroke="none" font-size="433.3333" font-family="sans-serif">OH</text><text y="-20040" xml:space="preserve" x="-21952" stroke="none" font-size="433.3333" font-family="sans-serif">O</text><text y="-26621" xml:space="preserve" x="-15935" stroke="none" font-size="433.3333" font-family="sans-serif">O</text><text y="-22570" xml:space="preserve" x="-20947" stroke="none" font-size="433.3333" font-family="sans-serif">Cl</text><text y="-24373" xml:space="preserve" x="-11772" stroke="none" font-size="433.3333" font-family="sans-serif">OH</text><text y="-21132" xml:space="preserve" x="-23844" stroke="none" font-size="433.3333" font-family="sans-serif">NH</text><text y="-22703" xml:space="preserve" x="-24752" stroke="none" font-size="433.3333" font-family="sans-serif">O</text><text y="-20040" xml:space="preserve" x="-25737" stroke="none" font-size="433.3333" font-family="sans-serif">OH</text><text y="-16238" xml:space="preserve" x="-24752" stroke="none" font-size="433.3333" font-family="sans-serif">OH</text><text y="-30824" xml:space="preserve" x="-17749" stroke="none" font-size="433.3333" font-family="sans-serif">O</text><text y="-17856" xml:space="preserve" x="-25737" stroke="none" font-size="433.3333" font-family="sans-serif">OH</text><text y="-29778" xml:space="preserve" x="-11772" stroke="none" font-size="433.3333" font-family="sans-serif">OH</text><text y="-32242" xml:space="preserve" x="-17581" stroke="none" font-size="433.3333" font-family="sans-serif">NH</text><text y="-32153" xml:space="preserve" x="-17004" stroke="none" font-size="313.3333" font-family="sans-serif">2</text><text y="-9880" xml:space="preserve" x="-18922" stroke="none" font-size="433.3333" font-family="sans-serif">NH</text><text y="-15285" xml:space="preserve" x="-17885" stroke="none" font-size="433.3333" font-family="sans-serif">NH</text><text y="-12283" xml:space="preserve" x="-18922" stroke="none" font-size="433.3333" font-family="sans-serif">NH</text><text y="-17688" xml:space="preserve" x="-15802" stroke="none" font-size="433.3333" font-family="sans-serif">NH</text><text y="-17087" xml:space="preserve" x="-21005" stroke="none" font-size="433.3333" font-family="sans-serif">O</text><text y="-20765" xml:space="preserve" x="-19355" stroke="none" font-size="433.3333" font-family="sans-serif">O</text><text y="-24896" xml:space="preserve" x="-16842" stroke="none" font-size="433.3333" font-family="sans-serif">NH</text><text y="-28085" xml:space="preserve" x="-13352" stroke="none" font-size="433.3333" font-family="sans-serif">O</text><text y="-29700" xml:space="preserve" x="-17885" stroke="none" font-size="433.3333" font-family="sans-serif">NH</text><text y="-8744" xml:space="preserve" x="-12945" stroke="none" font-size="433.3333" font-family="sans-serif">O</text><text y="-13418" xml:space="preserve" x="-22819" stroke="none" font-size="433.3333" font-family="sans-serif">O</text><text y="-18379" xml:space="preserve" x="-22859" stroke="none" font-size="433.3333" font-family="sans-serif">O</text><text y="-18136" xml:space="preserve" x="-16842" stroke="none" font-size="433.3333" font-family="sans-serif">H</text><text y="-13037" xml:space="preserve" x="-17885" stroke="none" font-size="433.3333" font-family="sans-serif">H</text><text y="-25344" xml:space="preserve" x="-15802" stroke="none" font-size="433.3333" font-family="sans-serif">H</text><text y="-12728" xml:space="preserve" x="-19959" stroke="none" font-size="433.3333" font-family="sans-serif">H</text><text y="-25650" xml:space="preserve" x="-17885" stroke="none" font-size="433.3333" font-family="sans-serif">H</text><text y="-11234" xml:space="preserve" x="-22819" stroke="none" font-size="433.3333" font-family="sans-serif">H</text><text y="-11529" xml:space="preserve" x="-17882" stroke="none" font-size="433.3333" font-family="sans-serif">H</text><text y="-10625" xml:space="preserve" x="-18130" stroke="none" font-style="italic" font-size="313.3333" font-family="sans-serif">S</text><text y="-14227" xml:space="preserve" x="-18130" stroke="none" font-style="italic" font-size="313.3333" font-family="sans-serif">R</text><text y="-11538" xml:space="preserve" x="-19710" stroke="none" font-style="italic" font-size="313.3333" font-family="sans-serif">S</text><text y="-12425" xml:space="preserve" x="-20753" stroke="none" font-style="italic" font-size="313.3333" font-family="sans-serif">R</text><text y="-16943" xml:space="preserve" x="-16590" stroke="none" font-style="italic" font-size="313.3333" font-family="sans-serif">R</text><text y="-24032" xml:space="preserve" x="-16056" stroke="none" font-style="italic" font-size="313.3333" font-family="sans-serif">S</text><text y="-26840" xml:space="preserve" x="-17633" stroke="none" font-style="italic" font-size="313.3333" font-family="sans-serif">R</text><text y="-31228" xml:space="preserve" x="-16596" stroke="none" font-style="italic" font-size="313.3333" font-family="sans-serif">R</text><text y="-9738" xml:space="preserve" x="-12696" stroke="none" font-style="italic" font-size="313.3333" font-family="sans-serif">R</text><text y="-10145" xml:space="preserve" x="-11962" stroke="none" font-style="italic" font-size="313.3333" font-family="sans-serif">S</text><text y="-8478" xml:space="preserve" x="-11962" stroke="none" font-style="italic" font-size="313.3333" font-family="sans-serif">R</text><text y="-9738" xml:space="preserve" x="-11223" stroke="none" font-style="italic" font-size="313.3333" font-family="sans-serif">S</text><text y="-8889" xml:space="preserve" x="-11223" stroke="none" font-style="italic" font-size="313.3333" font-family="sans-serif">S</text><text y="-12425" xml:space="preserve" x="-23064" stroke="none" font-style="italic" font-size="313.3333" font-family="sans-serif">R</text><text y="-12014" xml:space="preserve" x="-23801" stroke="none" font-style="italic" font-size="313.3333" font-family="sans-serif">R</text><text y="-12425" xml:space="preserve" x="-24538" stroke="none" font-style="italic" font-size="313.3333" font-family="sans-serif">R</text><text y="-13687" xml:space="preserve" x="-23801" stroke="none" font-style="italic" font-size="313.3333" font-family="sans-serif">R</text><text y="-13277" xml:space="preserve" x="-24538" stroke="none" font-style="italic" font-size="313.3333" font-family="sans-serif">S</text><text y="-19372" xml:space="preserve" x="-23108" stroke="none" font-style="italic" font-size="313.3333" font-family="sans-serif">S</text><text y="-19783" xml:space="preserve" x="-23844" stroke="none" font-style="italic" font-size="313.3333" font-family="sans-serif">R</text><text y="-19372" xml:space="preserve" x="-24581" stroke="none" font-style="italic" font-size="313.3333" font-family="sans-serif">R</text><text y="-18113" xml:space="preserve" x="-23844" stroke="none" font-style="italic" font-size="313.3333" font-family="sans-serif">R</text><text y="-18523" xml:space="preserve" x="-24581" stroke="none" font-style="italic" font-size="313.3333" font-family="sans-serif">S</text></g></g></svg>