<svg width="289.98" viewBox="0 0 9666 5985" text-rendering="auto" stroke-width="1" stroke-opacity="1" stroke-miterlimit="10" stroke-linejoin="miter" stroke-linecap="square" stroke-dashoffset="0" stroke-dasharray="none" stroke="black" shape-rendering="auto" image-rendering="auto" height="179.55" font-weight="normal" font-style="normal" font-size="12" font-family="'Dialog'" fill-opacity="1" fill="black" color-rendering="auto" color-interpolation="auto" xmlns="http://www.w3.org/2000/svg"><g><g stroke="white" fill="white"><rect y="0" x="0" width="9666" stroke="none" height="5985"/></g><g transform="translate(32866,32866)" text-rendering="geometricPrecision" stroke-width="44" stroke-linejoin="round" stroke-linecap="round"><line y2="-28917" y1="-28917" x2="-27276" x1="-28227" fill="none"/><line y2="-27779" y1="-28698" x2="-27089" x1="-27089" fill="none"/><line y2="-28917" y1="-27779" x2="-28227" x1="-28227" fill="none"/><line y2="-27779" y1="-27779" x2="-28227" x1="-27089" fill="none"/><line y2="-29440" y1="-29024" x2="-26182" x1="-26901" fill="none"/><line y2="-27473" y1="-27779" x2="-28756" x1="-28227" fill="none"/><line y2="-27779" y1="-27363" x2="-30041" x1="-29322" fill="none"/><line y2="-28917" y1="-29440" x2="-25274" x1="-26182" fill="none"/><line y2="-30489" y1="-29440" x2="-26182" x1="-26182" fill="none"/><line y2="-27363" y1="-27779" x2="-30760" x1="-30041" fill="none"/><line y2="-27779" y1="-27363" x2="-31855" x1="-31136" fill="none"/><line y2="-28608" y1="-27779" x2="-30110" x1="-30110" fill="none"/><line y2="-28608" y1="-27779" x2="-29972" x1="-29972" fill="none"/><line y2="-28917" y1="-27779" x2="-25274" x1="-25274" fill="none"/><line y2="-28773" y1="-27921" x2="-25104" x1="-25104" fill="none"/><line y2="-29484" y1="-28917" x2="-24289" x1="-25274" fill="none"/><line y2="-27779" y1="-27210" x2="-25274" x1="-24289" fill="none"/><line y2="-28917" y1="-29484" x2="-23304" x1="-24289" fill="none"/><line y2="-28839" y1="-29267" x2="-23512" x1="-24252" fill="none"/><line y2="-27210" y1="-27779" x2="-24289" x1="-23304" fill="none"/><line y2="-27427" y1="-27854" x2="-24252" x1="-23512" fill="none"/><line y2="-27779" y1="-28917" x2="-23304" x1="-23304" fill="none"/><line y2="-31055" y1="-30489" x2="-27170" x1="-26182" fill="none"/><line y2="-31133" y1="-30706" x2="-26962" x1="-26222" fill="none"/><line y2="-30489" y1="-31055" x2="-26182" x1="-25199" fill="none"/><line y2="-32193" y1="-31055" x2="-27170" x1="-27170" fill="none"/><line y2="-31055" y1="-32193" x2="-25199" x1="-25199" fill="none"/><line y2="-31200" y1="-32052" x2="-25370" x1="-25370" fill="none"/><line y2="-32762" y1="-32193" x2="-26182" x1="-27170" fill="none"/><line y2="-32543" y1="-32118" x2="-26222" x1="-26962" fill="none"/><line y2="-32193" y1="-32762" x2="-25199" x1="-26182" fill="none"/><line y2="-27256" y1="-27779" x2="-32762" x1="-31855" fill="none"/><line y2="-28686" y1="-27779" x2="-32378" x1="-31855" fill="none"/><line y2="-28686" y1="-27779" x2="-31332" x1="-31855" fill="none"/><text y="-27077" xml:space="preserve" x="-29287" stroke="none" font-size="433.3333" font-family="sans-serif">NH</text><text y="-27077" xml:space="preserve" x="-31101" stroke="none" font-size="433.3333" font-family="sans-serif">O</text><text y="-28649" xml:space="preserve" x="-30194" stroke="none" font-size="433.3333" font-family="sans-serif">O</text><text y="-28738" xml:space="preserve" x="-27242" stroke="none" font-size="433.3333" font-family="sans-serif">N</text></g></g></svg>