<svg width="237.63" viewBox="0 0 7921 5100" text-rendering="auto" stroke-width="1" stroke-opacity="1" stroke-miterlimit="10" stroke-linejoin="miter" stroke-linecap="square" stroke-dashoffset="0" stroke-dasharray="none" stroke="black" shape-rendering="auto" image-rendering="auto" height="153.0" font-weight="normal" font-style="normal" font-size="12" font-family="'Dialog'" fill-opacity="1" fill="black" color-rendering="auto" color-interpolation="auto" xmlns="http://www.w3.org/2000/svg"><g><g stroke="white" fill="white"><rect y="0" x="0" width="7921" stroke="none" height="5100"/></g><g transform="translate(32866,32758)" text-rendering="geometricPrecision" stroke-width="44" stroke-linejoin="round" stroke-linecap="round"><line y2="-30801" y1="-29654" x2="-27014" x1="-27014" fill="none"/><line y2="-29082" y1="-29654" x2="-27996" x1="-27014" fill="none"/><line y2="-29654" y1="-29082" x2="-27014" x1="-26031" fill="none"/><line y2="-29732" y1="-29302" x2="-26806" x1="-26069" fill="none"/><line y2="-30801" y1="-31376" x2="-27014" x1="-27996" fill="none"/><line y2="-31266" y1="-30801" x2="-26219" x1="-27014" fill="none"/><line y2="-31061" y1="-30714" x2="-26234" x1="-26829" fill="none"/><line y2="-29654" y1="-29082" x2="-28978" x1="-27996" fill="none"/><line y2="-29082" y1="-29654" x2="-26031" x1="-25049" fill="none"/><line y2="-31376" y1="-30801" x2="-27996" x1="-28978" fill="none"/><line y2="-30801" y1="-31266" x2="-25049" x1="-25844" fill="none"/><line y2="-30801" y1="-29654" x2="-28978" x1="-28978" fill="none"/><line y2="-30659" y1="-29798" x2="-28808" x1="-28808" fill="none"/><line y2="-29654" y1="-30801" x2="-25049" x1="-25049" fill="none"/><line y2="-29798" y1="-30659" x2="-25220" x1="-25220" fill="none"/><line y2="-29351" y1="-29654" x2="-29507" x1="-28978" fill="none"/><line y2="-29654" y1="-29241" x2="-30792" x1="-30073" fill="none"/><line y2="-28253" y1="-29082" x2="-27926" x1="-27926" fill="none"/><line y2="-28253" y1="-29082" x2="-28065" x1="-28065" fill="none"/><line y2="-32202" y1="-31376" x2="-28065" x1="-28065" fill="none"/><line y2="-32202" y1="-31376" x2="-27926" x1="-27926" fill="none"/><line y2="-29654" y1="-30792" x2="-30792" x1="-30792" fill="none"/><line y2="-29798" y1="-30651" x2="-30963" x1="-30963" fill="none"/><line y2="-29088" y1="-29654" x2="-31777" x1="-30792" fill="none"/><line y2="-30792" y1="-31361" x2="-30792" x1="-31777" fill="none"/><line y2="-29654" y1="-29088" x2="-32762" x1="-31777" fill="none"/><line y2="-29732" y1="-29304" x2="-32554" x1="-31815" fill="none"/><line y2="-31361" y1="-30792" x2="-31777" x1="-32762" fill="none"/><line y2="-31142" y1="-30717" x2="-31815" x1="-32554" fill="none"/><line y2="-30792" y1="-29654" x2="-32762" x1="-32762" fill="none"/><text y="-27854" xml:space="preserve" x="-28149" stroke="none" font-size="433.3333" font-family="sans-serif">O</text><text y="-32242" xml:space="preserve" x="-28149" stroke="none" font-size="433.3333" font-family="sans-serif">O</text><text y="-28952" xml:space="preserve" x="-30038" stroke="none" font-size="433.3333" font-family="sans-serif">NH</text><text y="-31197" xml:space="preserve" x="-26184" stroke="none" font-size="433.3333" font-family="sans-serif">N</text></g></g></svg>