<svg width="502.98" viewBox="0 0 16766 5259" text-rendering="auto" stroke-width="1" stroke-opacity="1" stroke-miterlimit="10" stroke-linejoin="miter" stroke-linecap="square" stroke-dashoffset="0" stroke-dasharray="none" stroke="black" shape-rendering="auto" image-rendering="auto" height="157.77" font-weight="normal" font-style="normal" font-size="12" font-family="'Dialog'" fill-opacity="1" fill="black" color-rendering="auto" color-interpolation="auto" xmlns="http://www.w3.org/2000/svg"><g><g stroke="white" fill="white"><rect y="0" x="0" width="16766" stroke="none" height="5259"/></g><g transform="translate(32866,32758)" text-rendering="geometricPrecision" stroke-width="44" stroke-linejoin="round" stroke-linecap="round"><line y2="-32422" y1="-31812" x2="-20438" x1="-21487" fill="none"/><line y2="-31812" y1="-30590" x2="-21487" x1="-21487" fill="none"/><line y2="-31659" y1="-30743" x2="-21317" x1="-21317" fill="none"/><line y2="-31812" y1="-32422" x2="-19393" x1="-20438" fill="none"/><line y2="-31740" y1="-32199" x2="-19609" x1="-20395" fill="none"/><line y2="-30590" y1="-29978" x2="-21487" x1="-20438" fill="none"/><line y2="-30590" y1="-31812" x2="-19393" x1="-19393" fill="none"/><line y2="-32315" y1="-31812" x2="-18532" x1="-19393" fill="none"/><line y2="-29978" y1="-30590" x2="-20438" x1="-19393" fill="none"/><line y2="-30200" y1="-30659" x2="-20395" x1="-19609" fill="none"/><line y2="-30590" y1="-29978" x2="-19393" x1="-18344" fill="none"/><line y2="-31812" y1="-32202" x2="-17295" x1="-17966" fill="none"/><line y2="-29978" y1="-30590" x2="-18344" x1="-17295" fill="none"/><line y2="-30200" y1="-30659" x2="-18298" x1="-17512" fill="none"/><line y2="-30590" y1="-31812" x2="-17295" x1="-17295" fill="none"/><line y2="-32228" y1="-31812" x2="-22206" x1="-21487" fill="none"/><line y2="-31812" y1="-32228" x2="-23301" x1="-22582" fill="none"/><line y2="-32335" y1="-31812" x2="-24208" x1="-23301" fill="none"/><line y2="-31812" y1="-32335" x2="-25116" x1="-24208" fill="none"/><line y2="-32335" y1="-31812" x2="-26023" x1="-25116" fill="none"/><line y2="-31919" y1="-32335" x2="-26742" x1="-26023" fill="none"/><line y2="-32289" y1="-31873" x2="-16611" x1="-17330" fill="none"/><line y2="-32167" y1="-31751" x2="-16541" x1="-17261" fill="none"/><line y2="-31812" y1="-30893" x2="-28900" x1="-28900" fill="none"/><line y2="-30567" y1="-30105" x2="-28712" x1="-27915" fill="none"/><line y2="-32381" y1="-31812" x2="-27915" x1="-28900" fill="none"/><line y2="-30105" y1="-30674" x2="-27915" x1="-26930" fill="none"/><line y2="-31919" y1="-32381" x2="-27118" x1="-27915" fill="none"/><line y2="-30674" y1="-31592" x2="-26930" x1="-26930" fill="none"/><line y2="-30151" y1="-30567" x2="-29807" x1="-29088" fill="none"/><line y2="-30151" y1="-29582" x2="-29807" x1="-30792" fill="none"/><line y2="-29934" y1="-29507" x2="-29845" x1="-30584" fill="none"/><line y2="-29582" y1="-30151" x2="-28822" x1="-29807" fill="none"/><line y2="-28444" y1="-29582" x2="-30792" x1="-30792" fill="none"/><line y2="-29582" y1="-29582" x2="-30792" x1="-32762" fill="none"/><line y2="-28444" y1="-29582" x2="-28822" x1="-28822" fill="none"/><line y2="-28588" y1="-29440" x2="-28992" x1="-28992" fill="none"/><line y2="-27984" y1="-28444" x2="-31590" x1="-30792" fill="none"/><line y2="-28444" y1="-27874" x2="-30792" x1="-29807" fill="none"/><line y2="-28522" y1="-28094" x2="-30584" x1="-29845" fill="none"/><line y2="-29582" y1="-28444" x2="-32762" x1="-32762" fill="none"/><line y2="-29440" y1="-28588" x2="-32592" x1="-32592" fill="none"/><line y2="-27874" y1="-28444" x2="-29807" x1="-28822" fill="none"/><line y2="-28444" y1="-27984" x2="-32762" x1="-31968" fill="none"/><text y="-32156" xml:space="preserve" x="-22547" stroke="none" font-size="433.3333" font-family="sans-serif">O</text><text y="-32156" xml:space="preserve" x="-16541" stroke="none" font-size="433.3333" font-family="sans-serif">O</text><text y="-27695" xml:space="preserve" x="-31930" stroke="none" font-size="433.3333" font-family="sans-serif">S</text><text y="-30495" xml:space="preserve" x="-29053" stroke="none" font-size="433.3333" font-family="sans-serif">N</text><text y="-31633" xml:space="preserve" x="-27083" stroke="none" font-size="433.3333" font-family="sans-serif">N</text><text y="-32242" xml:space="preserve" x="-18494" stroke="none" font-size="433.3333" font-family="sans-serif">NH</text></g></g></svg>