<svg width="284.76" viewBox="0 0 9492 6546" text-rendering="auto" stroke-width="1" stroke-opacity="1" stroke-miterlimit="10" stroke-linejoin="miter" stroke-linecap="square" stroke-dashoffset="0" stroke-dasharray="none" stroke="black" shape-rendering="auto" image-rendering="auto" height="196.38" font-weight="normal" font-style="normal" font-size="12" font-family="'Dialog'" fill-opacity="1" fill="black" color-rendering="auto" color-interpolation="auto" xmlns="http://www.w3.org/2000/svg"><g><g stroke="white" fill="white"><rect y="0" x="0" width="9492" stroke="none" height="6546"/></g><g transform="translate(32866,32866)" text-rendering="geometricPrecision" stroke-width="44" stroke-linejoin="round" stroke-linecap="round"><line y2="-28698" y1="-28129" x2="-26433" x1="-27421" fill="none"/><line y2="-28129" y1="-28698" x2="-25448" x1="-26433" fill="none"/><line y2="-26990" y1="-28129" x2="-27421" x1="-27421" fill="none"/><line y2="-28129" y1="-28698" x2="-27421" x1="-28403" fill="none"/><line y2="-28054" y1="-28481" x2="-27629" x1="-28366" fill="none"/><line y2="-26990" y1="-28129" x2="-25448" x1="-25448" fill="none"/><line y2="-28698" y1="-28129" x2="-24463" x1="-25448" fill="none"/><line y2="-28478" y1="-28051" x2="-24500" x1="-25240" fill="none"/><line y2="-26990" y1="-26990" x2="-27421" x1="-25448" fill="none"/><line y2="-26424" y1="-26990" x2="-28403" x1="-27421" fill="none"/><line y2="-26641" y1="-27068" x2="-28366" x1="-27629" fill="none"/><line y2="-28698" y1="-28129" x2="-28403" x1="-29391" fill="none"/><line y2="-26990" y1="-26424" x2="-25448" x1="-24463" fill="none"/><line y2="-27068" y1="-26641" x2="-25240" x1="-24500" fill="none"/><line y2="-28129" y1="-28698" x2="-23478" x1="-24463" fill="none"/><line y2="-26990" y1="-26424" x2="-29391" x1="-28403" fill="none"/><line y2="-28129" y1="-26990" x2="-29391" x1="-29391" fill="none"/><line y2="-27987" y1="-27135" x2="-29221" x1="-29221" fill="none"/><line y2="-26424" y1="-26990" x2="-24463" x1="-23478" fill="none"/><line y2="-26990" y1="-28129" x2="-23478" x1="-23478" fill="none"/><line y2="-27135" y1="-27987" x2="-23648" x1="-23648" fill="none"/><line y2="-29746" y1="-28698" x2="-26433" x1="-26433" fill="none"/><line y2="-30160" y1="-29746" x2="-27149" x1="-26433" fill="none"/><line y2="-31315" y1="-30489" x2="-27337" x1="-27337" fill="none"/><line y2="-31621" y1="-31315" x2="-27866" x1="-27337" fill="none"/><line y2="-31315" y1="-31731" x2="-29151" x1="-28435" fill="none"/><line y2="-31792" y1="-31376" x2="-26655" x1="-27372" fill="none"/><line y2="-31670" y1="-31254" x2="-26583" x1="-27302" fill="none"/><line y2="-31855" y1="-31315" x2="-30050" x1="-29151" fill="none"/><line y2="-31439" y1="-31855" x2="-30769" x1="-30050" fill="none"/><line y2="-31855" y1="-31439" x2="-31864" x1="-31145" fill="none"/><line y2="-30269" y1="-31315" x2="-29151" x1="-29151" fill="none"/><line y2="-31315" y1="-31855" x2="-32762" x1="-31864" fill="none"/><line y2="-32762" y1="-31855" x2="-32387" x1="-31864" fill="none"/><line y2="-32762" y1="-31855" x2="-31341" x1="-31864" fill="none"/><line y2="-29842" y1="-30269" x2="-28444" x1="-29151" fill="none"/><line y2="-29804" y1="-30209" x2="-29848" x1="-29120" fill="none"/><line y2="-29926" y1="-30330" x2="-29914" x1="-29186" fill="none"/><polygon stroke-width="1" stroke="none" points=" -29151 -31315 -30024 -30732 -30093 -30850"/><polygon stroke-width="1" points=" -29151 -31315 -30024 -30732 -30093 -30850" fill="none"/><text y="-30090" xml:space="preserve" x="-27490" stroke-width="1" stroke="none" font-size="433.3333" font-family="sans-serif">O</text><text y="-31662" xml:space="preserve" x="-28397" stroke-width="1" stroke="none" font-size="433.3333" font-family="sans-serif">NH</text><text y="-31662" xml:space="preserve" x="-26583" stroke-width="1" stroke="none" font-size="433.3333" font-family="sans-serif">O</text><text y="-31153" xml:space="preserve" x="-31110" stroke-width="1" stroke="none" font-size="433.3333" font-family="sans-serif">O</text><text y="-29550" xml:space="preserve" x="-28406" stroke-width="1" stroke="none" font-size="433.3333" font-family="sans-serif">OH</text><text y="-29582" xml:space="preserve" x="-30220" stroke-width="1" stroke="none" font-size="433.3333" font-family="sans-serif">O</text></g><g transform="translate(32866,32866)" text-rendering="geometricPrecision" stroke-linejoin="round" stroke-linecap="round" font-style="italic" font-size="313.3333" font-family="sans-serif"><text y="-30992" xml:space="preserve" x="-29056" stroke="none">S</text></g></g></svg>