<svg width="301.92" viewBox="0 0 10064 6188" text-rendering="auto" stroke-width="1" stroke-opacity="1" stroke-miterlimit="10" stroke-linejoin="miter" stroke-linecap="square" stroke-dashoffset="0" stroke-dasharray="none" stroke="black" shape-rendering="auto" image-rendering="auto" height="185.64" font-weight="normal" font-style="normal" font-size="12" font-family="'Dialog'" fill-opacity="1" fill="black" color-rendering="auto" color-interpolation="auto" xmlns="http://www.w3.org/2000/svg"><g><g stroke="white" fill="white"><rect y="0" x="0" width="10064" stroke="none" height="6188"/></g><g transform="translate(32866,32866)" text-rendering="geometricPrecision" stroke-width="44" stroke-linejoin="round" stroke-linecap="round"><line y2="-28912" y1="-27765" x2="-28747" x1="-28747" fill="none"/><line y2="-27765" y1="-27765" x2="-28478" x1="-28747" fill="none"/><line y2="-27765" y1="-27765" x2="-27600" x1="-28198" fill="none"/><line y2="-27765" y1="-26782" x2="-28747" x1="-29322" fill="none"/><line y2="-29484" y1="-28912" x2="-27765" x1="-28747" fill="none"/><line y2="-28340" y1="-27765" x2="-26618" x1="-27600" fill="none"/><line y2="-26782" y1="-27357" x2="-29322" x1="-28337" fill="none"/><line y2="-28501" y1="-29484" x2="-28337" x1="-27765" fill="none"/><line y2="-29281" y1="-29484" x2="-26823" x1="-27765" fill="none"/><line y2="-28340" y1="-29281" x2="-26618" x1="-26823" fill="none"/><line y2="-27357" y1="-28340" x2="-27193" x1="-26618" fill="none"/><line y2="-28501" y1="-27357" x2="-28337" x1="-28337" fill="none"/><line y2="-27357" y1="-27357" x2="-28337" x1="-27193" fill="none"/><line y2="-30532" y1="-29484" x2="-27765" x1="-27765" fill="none"/><line y2="-28290" y1="-27765" x2="-29654" x1="-28747" fill="none"/><line y2="-30948" y1="-30532" x2="-27045" x1="-27765" fill="none"/><line y2="-30532" y1="-30838" x2="-25950" x1="-26479" fill="none"/><line y2="-31055" y1="-30532" x2="-25043" x1="-25950" fill="none"/><line y2="-30888" y1="-30472" x2="-28519" x1="-27799" fill="none"/><line y2="-31009" y1="-30593" x2="-28449" x1="-27730" fill="none"/><line y2="-28290" y1="-29426" x2="-29654" x1="-29654" fill="none"/><line y2="-28432" y1="-29284" x2="-29824" x1="-29824" fill="none"/><line y2="-27721" y1="-28290" x2="-30639" x1="-29654" fill="none"/><line y2="-29426" y1="-29995" x2="-29654" x1="-30639" fill="none"/><line y2="-28290" y1="-27721" x2="-31624" x1="-30639" fill="none"/><line y2="-28366" y1="-27938" x2="-31416" x1="-30677" fill="none"/><line y2="-29995" y1="-29426" x2="-30639" x1="-31624" fill="none"/><line y2="-29775" y1="-29351" x2="-30677" x1="-31416" fill="none"/><line y2="-29426" y1="-28290" x2="-31624" x1="-31624" fill="none"/><line y2="-29752" y1="-29426" x2="-32190" x1="-31624" fill="none"/><line y2="-32193" y1="-31055" x2="-25043" x1="-25043" fill="none"/><line y2="-31055" y1="-30489" x2="-25043" x1="-24055" fill="none"/><line y2="-31133" y1="-30706" x2="-24835" x1="-24096" fill="none"/><line y2="-32762" y1="-32193" x2="-24055" x1="-25043" fill="none"/><line y2="-32543" y1="-32118" x2="-24096" x1="-24835" fill="none"/><line y2="-30489" y1="-31055" x2="-24055" x1="-23073" fill="none"/><line y2="-32303" y1="-32762" x2="-23261" x1="-24055" fill="none"/><line y2="-31055" y1="-31974" x2="-23073" x1="-23073" fill="none"/><line y2="-31171" y1="-31861" x2="-23244" x1="-23244" fill="none"/><text y="-30876" xml:space="preserve" x="-27011" stroke="none" font-size="433.3333" font-family="sans-serif">NH</text><text y="-30876" xml:space="preserve" x="-28825" stroke="none" font-size="433.3333" font-family="sans-serif">O</text><text y="-29772" xml:space="preserve" x="-32762" stroke="none" font-size="433.3333" font-family="sans-serif">Cl</text><text y="-32014" xml:space="preserve" x="-23226" stroke="none" font-size="433.3333" font-family="sans-serif">N</text></g></g></svg>