<svg width="365.04" viewBox="0 0 12168 12800" text-rendering="auto" stroke-width="1" stroke-opacity="1" stroke-miterlimit="10" stroke-linejoin="miter" stroke-linecap="square" stroke-dashoffset="0" stroke-dasharray="none" stroke="black" shape-rendering="auto" image-rendering="auto" height="384.0" font-weight="normal" font-style="normal" font-size="12" font-family="'Dialog'" fill-opacity="1" fill="black" color-rendering="auto" color-interpolation="auto" xmlns="http://www.w3.org/2000/svg"><g><g stroke="white" fill="white"><rect y="0" x="0" width="12168" stroke="none" height="12800"/></g><g transform="translate(32866,32866)" text-rendering="geometricPrecision" stroke-width="44" stroke-linejoin="round" stroke-linecap="round"><line y2="-25378" y1="-26468" x2="-24448" x1="-23821" fill="none"/><line y2="-26468" y1="-27554" x2="-23821" x1="-24448" fill="none"/><line y2="-26517" y1="-27331" x2="-24047" x1="-24518" fill="none"/><line y2="-25378" y1="-25378" x2="-25208" x1="-24448" fill="none"/><line y2="-24289" y1="-25378" x2="-23816" x1="-24448" fill="none"/><line y2="-24341" y1="-25156" x2="-24041" x1="-24515" fill="none"/><line y2="-27554" y1="-27554" x2="-25517" x1="-24448" fill="none"/><line y2="-27554" y1="-28637" x2="-24448" x1="-23821" fill="none"/><line y2="-24125" y1="-25159" x2="-25702" x1="-25702" fill="none"/><line y2="-23495" y1="-24289" x2="-24607" x1="-23816" fill="none"/><line y2="-28813" y1="-27773" x2="-25705" x1="-25705" fill="none"/><line y2="-28683" y1="-27903" x2="-25534" x1="-25534" fill="none"/><line y2="-28637" y1="-29440" x2="-23821" x1="-24616" fill="none"/><line y2="-28620" y1="-29221" x2="-24041" x1="-24639" fill="none"/><line y2="-24125" y1="-23495" x2="-25702" x1="-24607" fill="none"/><line y2="-24194" y1="-23720" x2="-25480" x1="-24659" fill="none"/><line y2="-23495" y1="-24125" x2="-26785" x1="-25702" fill="none"/><line y2="-29440" y1="-28813" x2="-24616" x1="-25705" fill="none"/><line y2="-28813" y1="-29440" x2="-25705" x1="-26797" fill="none"/><line y2="-24122" y1="-23495" x2="-27874" x1="-26785" fill="none"/><line y2="-24188" y1="-23720" x2="-27652" x1="-26837" fill="none"/><line y2="-29440" y1="-28816" x2="-26797" x1="-27886" fill="none"/><line y2="-29215" y1="-28747" x2="-26849" x1="-27666" fill="none"/><line y2="-25156" y1="-24122" x2="-27874" x1="-27874" fill="none"/><line y2="-23495" y1="-24122" x2="-28952" x1="-27874" fill="none"/><line y2="-27782" y1="-28816" x2="-27886" x1="-27886" fill="none"/><line y2="-28816" y1="-29440" x2="-27886" x1="-28972" fill="none"/><line y2="-25376" y1="-25376" x2="-28062" x1="-29128" fill="none"/><line y2="-25205" y1="-25205" x2="-28195" x1="-28992" fill="none"/><line y2="-24286" y1="-23495" x2="-29746" x1="-28952" fill="none"/><line y2="-24307" y1="-23712" x2="-29527" x1="-28932" fill="none"/><line y2="-27545" y1="-27560" x2="-29120" x1="-28074" fill="none"/><line y2="-29440" y1="-28626" x2="-28972" x1="-29746" fill="none"/><line y2="-29221" y1="-28611" x2="-28943" x1="-29524" fill="none"/><line y2="-25376" y1="-24286" x2="-29128" x1="-29746" fill="none"/><line y2="-26459" y1="-25376" x2="-29746" x1="-29128" fill="none"/><line y2="-28626" y1="-27545" x2="-29746" x1="-29120" fill="none"/><line y2="-27545" y1="-26459" x2="-29120" x1="-29746" fill="none"/><line y2="-27323" y1="-26511" x2="-29050" x1="-29518" fill="none"/><line y2="-26468" y1="-26468" x2="-22773" x1="-23821" fill="none"/><line y2="-22446" y1="-23495" x2="-26785" x1="-26785" fill="none"/><line y2="-30489" y1="-29440" x2="-26797" x1="-26797" fill="none"/><line y2="-26459" y1="-26459" x2="-30792" x1="-29746" fill="none"/><line y2="-27603" y1="-26468" x2="-22773" x1="-22773" fill="none"/><line y2="-27461" y1="-26609" x2="-22602" x1="-22602" fill="none"/><line y2="-26468" y1="-25898" x2="-22773" x1="-21788" fill="none"/><line y2="-28172" y1="-27603" x2="-21788" x1="-22773" fill="none"/><line y2="-25898" y1="-26468" x2="-21788" x1="-20802" fill="none"/><line y2="-26115" y1="-26543" x2="-21750" x1="-21010" fill="none"/><line y2="-27603" y1="-28172" x2="-20802" x1="-21788" fill="none"/><line y2="-27528" y1="-27955" x2="-21010" x1="-21750" fill="none"/><line y2="-26468" y1="-27603" x2="-20802" x1="-20802" fill="none"/><line y2="-22446" y1="-21877" x2="-26785" x1="-27773" fill="none"/><line y2="-22227" y1="-21799" x2="-26823" x1="-27562" fill="none"/><line y2="-21877" y1="-22446" x2="-25803" x1="-26785" fill="none"/><line y2="-21877" y1="-20739" x2="-27773" x1="-27773" fill="none"/><line y2="-20739" y1="-21877" x2="-25803" x1="-25803" fill="none"/><line y2="-20883" y1="-21736" x2="-25971" x1="-25971" fill="none"/><line y2="-20739" y1="-20170" x2="-27773" x1="-26785" fill="none"/><line y2="-20817" y1="-20389" x2="-27562" x1="-26823" fill="none"/><line y2="-20170" y1="-20739" x2="-26785" x1="-25803" fill="none"/><line y2="-31055" y1="-30489" x2="-27785" x1="-26797" fill="none"/><line y2="-31133" y1="-30706" x2="-27577" x1="-26837" fill="none"/><line y2="-30489" y1="-31055" x2="-26797" x1="-25815" fill="none"/><line y2="-32193" y1="-31055" x2="-27785" x1="-27785" fill="none"/><line y2="-31055" y1="-32193" x2="-25815" x1="-25815" fill="none"/><line y2="-31200" y1="-32052" x2="-25985" x1="-25985" fill="none"/><line y2="-32762" y1="-32193" x2="-26797" x1="-27785" fill="none"/><line y2="-32543" y1="-32118" x2="-26837" x1="-27577" fill="none"/><line y2="-32193" y1="-32762" x2="-25815" x1="-26797" fill="none"/><line y2="-26459" y1="-27597" x2="-30792" x1="-30792" fill="none"/><line y2="-26600" y1="-27453" x2="-30963" x1="-30963" fill="none"/><line y2="-25890" y1="-26459" x2="-31777" x1="-30792" fill="none"/><line y2="-27597" y1="-28163" x2="-30792" x1="-31777" fill="none"/><line y2="-26459" y1="-25890" x2="-32762" x1="-31777" fill="none"/><line y2="-26537" y1="-26109" x2="-32554" x1="-31815" fill="none"/><line y2="-28163" y1="-27597" x2="-31777" x1="-32762" fill="none"/><line y2="-27947" y1="-27519" x2="-31815" x1="-32554" fill="none"/><line y2="-27597" y1="-26459" x2="-32762" x1="-32762" fill="none"/><text y="-25199" xml:space="preserve" x="-25855" stroke="none" font-size="433.3333" font-family="sans-serif">NH</text><text y="-27375" xml:space="preserve" x="-25858" stroke="none" font-size="433.3333" font-family="sans-serif">N</text><text y="-25196" xml:space="preserve" x="-28025" stroke="none" font-size="433.3333" font-family="sans-serif">N</text><text y="-27383" xml:space="preserve" x="-28039" stroke="none" font-size="433.3333" font-family="sans-serif">NH</text></g></g></svg>