<svg width="369.93" viewBox="0 0 12331 8829" text-rendering="auto" stroke-width="1" stroke-opacity="1" stroke-miterlimit="10" stroke-linejoin="miter" stroke-linecap="square" stroke-dashoffset="0" stroke-dasharray="none" stroke="black" shape-rendering="auto" image-rendering="auto" height="264.87" font-weight="normal" font-style="normal" font-size="12" font-family="'Dialog'" fill-opacity="1" fill="black" color-rendering="auto" color-interpolation="auto" xmlns="http://www.w3.org/2000/svg"><g><g stroke="white" fill="white"><rect y="0" x="0" width="12331" stroke="none" height="8829"/></g><g transform="translate(32866,32866)" text-rendering="geometricPrecision" stroke-width="44" stroke-linejoin="round" stroke-linecap="round"><line y2="-27944" y1="-28871" x2="-28831" x1="-28831" fill="none"/><line y2="-27152" y1="-27614" x2="-29813" x1="-29018" fill="none"/><line y2="-28871" y1="-29333" x2="-28831" x1="-29625" fill="none"/><line y2="-28782" y1="-29128" x2="-29016" x1="-29614" fill="none"/><line y2="-27724" y1="-27152" x2="-30795" x1="-29813" fill="none"/><line y2="-29333" y1="-28871" x2="-30001" x1="-30795" fill="none"/><line y2="-28871" y1="-27724" x2="-30795" x1="-30795" fill="none"/><line y2="-27152" y1="-27724" x2="-31777" x1="-30795" fill="none"/><line y2="-27372" y1="-27799" x2="-31743" x1="-31006" fill="none"/><line y2="-28871" y1="-29443" x2="-30795" x1="-31777" fill="none"/><line y2="-28796" y1="-29226" x2="-31006" x1="-31743" fill="none"/><line y2="-27724" y1="-27152" x2="-32762" x1="-31777" fill="none"/><line y2="-29443" y1="-28871" x2="-31777" x1="-32762" fill="none"/><line y2="-28871" y1="-27724" x2="-32762" x1="-32762" fill="none"/><line y2="-28727" y1="-27869" x2="-32592" x1="-32592" fill="none"/><line y2="-29287" y1="-28871" x2="-28111" x1="-28831" fill="none"/><line y2="-27201" y1="-27617" x2="-27924" x1="-28643" fill="none"/><line y2="-25595" y1="-26104" x2="-30729" x1="-29813" fill="none"/><line y2="-30272" y1="-29443" x2="-31777" x1="-31777" fill="none"/><line y2="-30532" y1="-29614" x2="-27924" x1="-27924" fill="none"/><line y2="-29287" y1="-28828" x2="-27736" x1="-26938" fill="none"/><line y2="-31101" y1="-30532" x2="-26938" x1="-27924" fill="none"/><line y2="-28828" y1="-29394" x2="-26938" x1="-25953" fill="none"/><line y2="-30642" y1="-31101" x2="-26141" x1="-26938" fill="none"/><line y2="-29394" y1="-30313" x2="-25953" x1="-25953" fill="none"/><line y2="-31055" y1="-30642" x2="-25046" x1="-25766" fill="none"/><line y2="-27201" y1="-26063" x2="-27924" x1="-27924" fill="none"/><line y2="-27060" y1="-26208" x2="-27753" x1="-27753" fill="none"/><line y2="-27770" y1="-27201" x2="-26938" x1="-27924" fill="none"/><line y2="-26063" y1="-25494" x2="-27924" x1="-26938" fill="none"/><line y2="-27201" y1="-27770" x2="-25953" x1="-26938" fill="none"/><line y2="-27126" y1="-27551" x2="-26161" x1="-26901" fill="none"/><line y2="-25494" y1="-26063" x2="-26938" x1="-25953" fill="none"/><line y2="-25714" y1="-26141" x2="-26901" x1="-26161" fill="none"/><line y2="-26063" y1="-27201" x2="-25953" x1="-25953" fill="none"/><line y2="-27724" y1="-27201" x2="-25046" x1="-25953" fill="none"/><line y2="-25638" y1="-26063" x2="-28634" x1="-27924" fill="none"/><line y2="-24697" y1="-25306" x2="-28822" x1="-28822" fill="none"/><line y2="-25901" y1="-25595" x2="-31257" x1="-30729" fill="none"/><line y2="-24769" y1="-25595" x2="-30659" x1="-30659" fill="none"/><line y2="-24769" y1="-25595" x2="-30801" x1="-30801" fill="none"/><line y2="-31055" y1="-30489" x2="-25046" x1="-24064" fill="none"/><line y2="-31133" y1="-30706" x2="-24838" x1="-24102" fill="none"/><line y2="-32193" y1="-31055" x2="-25046" x1="-25046" fill="none"/><line y2="-30489" y1="-31055" x2="-24064" x1="-23076" fill="none"/><line y2="-32762" y1="-32193" x2="-24064" x1="-25046" fill="none"/><line y2="-32546" y1="-32118" x2="-24102" x1="-24838" fill="none"/><line y2="-31055" y1="-32193" x2="-23076" x1="-23076" fill="none"/><line y2="-31200" y1="-32052" x2="-23246" x1="-23246" fill="none"/><line y2="-32193" y1="-32762" x2="-23076" x1="-24064" fill="none"/><line y2="-30642" y1="-31055" x2="-22357" x1="-23076" fill="none"/><line y2="-30948" y1="-30642" x2="-21450" x1="-21981" fill="none"/><line y2="-27308" y1="-27724" x2="-24327" x1="-25046" fill="none"/><line y2="-28412" y1="-27724" x2="-24650" x1="-25046" fill="none"/><line y2="-28412" y1="-27724" x2="-25445" x1="-25046" fill="none"/><polygon stroke-width="1" stroke="none" points=" -29813 -27152 -29744 -26104 -29882 -26104"/><polygon stroke-width="1" points=" -29813 -27152 -29744 -26104 -29882 -26104" fill="none"/><text y="-25942" xml:space="preserve" x="-31789" stroke-width="1" stroke="none" font-size="433.3333" font-family="sans-serif">OH</text><text y="-24370" xml:space="preserve" x="-30882" stroke-width="1" stroke="none" font-size="433.3333" font-family="sans-serif">O</text><text y="-25347" xml:space="preserve" x="-28975" stroke-width="1" stroke="none" font-size="433.3333" font-family="sans-serif">O</text><text y="-24298" xml:space="preserve" x="-28975" stroke-width="1" stroke="none" font-size="433.3333" font-family="sans-serif">CH</text><text y="-24208" xml:space="preserve" x="-28397" stroke-width="1" stroke="none" font-size="313.3333" font-family="sans-serif">3</text><text y="-27022" xml:space="preserve" x="-24292" stroke-width="1" stroke="none" font-size="433.3333" font-family="sans-serif">F</text><text y="-28452" xml:space="preserve" x="-24676" stroke-width="1" stroke="none" font-size="433.3333" font-family="sans-serif">F</text><text y="-28452" xml:space="preserve" x="-25722" stroke-width="1" stroke="none" font-size="433.3333" font-family="sans-serif">F</text><text y="-30313" xml:space="preserve" x="-31930" stroke-width="1" stroke="none" font-size="433.3333" font-family="sans-serif">F</text><text y="-30353" xml:space="preserve" x="-22322" stroke-width="1" stroke="none" font-size="433.3333" font-family="sans-serif">O</text><text y="-30876" xml:space="preserve" x="-21415" stroke-width="1" stroke="none" font-size="433.3333" font-family="sans-serif">CH</text><text y="-30786" xml:space="preserve" x="-20837" stroke-width="1" stroke="none" font-size="313.3333" font-family="sans-serif">3</text><text y="-27545" xml:space="preserve" x="-28984" stroke-width="1" stroke="none" font-size="433.3333" font-family="sans-serif">N</text><text y="-29264" xml:space="preserve" x="-29966" stroke-width="1" stroke="none" font-size="433.3333" font-family="sans-serif">N</text><text y="-29215" xml:space="preserve" x="-28077" stroke-width="1" stroke="none" font-size="433.3333" font-family="sans-serif">N</text><text y="-30353" xml:space="preserve" x="-26106" stroke-width="1" stroke="none" font-size="433.3333" font-family="sans-serif">N</text></g><g transform="translate(32866,32866)" text-rendering="geometricPrecision" stroke-linejoin="round" stroke-linecap="round" font-style="italic" font-size="313.3333" font-family="sans-serif"><text y="-27274" xml:space="preserve" x="-29966" stroke="none">S</text></g></g></svg>