<svg width="310.83" viewBox="0 0 10361 7229" text-rendering="auto" stroke-width="1" stroke-opacity="1" stroke-miterlimit="10" stroke-linejoin="miter" stroke-linecap="square" stroke-dashoffset="0" stroke-dasharray="none" stroke="black" shape-rendering="auto" image-rendering="auto" height="216.87" font-weight="normal" font-style="normal" font-size="12" font-family="'Dialog'" fill-opacity="1" fill="black" color-rendering="auto" color-interpolation="auto" xmlns="http://www.w3.org/2000/svg"><g><g stroke="white" fill="white"><rect y="0" x="0" width="10361" stroke="none" height="7229"/></g><g transform="translate(32866,32758)" text-rendering="geometricPrecision" stroke-width="44" stroke-linejoin="round" stroke-linecap="round"><line y2="-26427" y1="-27574" x2="-30795" x1="-30795" fill="none"/><line y2="-26572" y1="-27430" x2="-30966" x1="-30966" fill="none"/><line y2="-28146" y1="-27574" x2="-29813" x1="-30795" fill="none"/><line y2="-27574" y1="-28146" x2="-30795" x1="-31777" fill="none"/><line y2="-26427" y1="-25855" x2="-30795" x1="-29813" fill="none"/><line y2="-25855" y1="-26427" x2="-31777" x1="-30795" fill="none"/><line y2="-27574" y1="-28146" x2="-28831" x1="-29813" fill="none"/><line y2="-27499" y1="-27926" x2="-29039" x1="-29778" fill="none"/><line y2="-28146" y1="-27574" x2="-31777" x1="-32762" fill="none"/><line y2="-27926" y1="-27499" x2="-31815" x1="-32552" fill="none"/><line y2="-25855" y1="-26427" x2="-29813" x1="-28831" fill="none"/><line y2="-26072" y1="-26502" x2="-29778" x1="-29039" fill="none"/><line y2="-26427" y1="-25855" x2="-32762" x1="-31777" fill="none"/><line y2="-26502" y1="-26072" x2="-32552" x1="-31815" fill="none"/><line y2="-26427" y1="-27574" x2="-28831" x1="-28831" fill="none"/><line y2="-27574" y1="-26427" x2="-32762" x1="-32762" fill="none"/><line y2="-28097" y1="-27574" x2="-27924" x1="-28831" fill="none"/><line y2="-26011" y1="-26427" x2="-28111" x1="-28831" fill="none"/><line y2="-28926" y1="-28097" x2="-27924" x1="-27924" fill="none"/><line y2="-29668" y1="-29365" x2="-27016" x1="-27545" fill="none"/><line y2="-27742" y1="-28158" x2="-27170" x1="-27889" fill="none"/><line y2="-27620" y1="-28036" x2="-27239" x1="-27958" fill="none"/><line y2="-29668" y1="-29099" x2="-27016" x1="-26031" fill="none"/><line y2="-29746" y1="-29319" x2="-26808" x1="-26069" fill="none"/><line y2="-30807" y1="-29668" x2="-27016" x1="-27016" fill="none"/><line y2="-29099" y1="-29668" x2="-26031" x1="-25046" fill="none"/><line y2="-31376" y1="-30807" x2="-26031" x1="-27016" fill="none"/><line y2="-31156" y1="-30729" x2="-26069" x1="-26808" fill="none"/><line y2="-29668" y1="-30807" x2="-25046" x1="-25046" fill="none"/><line y2="-29810" y1="-30665" x2="-25217" x1="-25217" fill="none"/><line y2="-30807" y1="-31376" x2="-25046" x1="-26031" fill="none"/><line y2="-28273" y1="-29099" x2="-26031" x1="-26031" fill="none"/><line y2="-27626" y1="-27941" x2="-25321" x1="-25841" fill="none"/><line y2="-31223" y1="-30807" x2="-24327" x1="-25046" fill="none"/><line y2="-30914" y1="-31223" x2="-23420" x1="-23951" fill="none"/><line y2="-32202" y1="-31376" x2="-26031" x1="-26031" fill="none"/><text y="-28966" xml:space="preserve" x="-28077" stroke="none" font-size="433.3333" font-family="sans-serif">NH</text><text y="-27395" xml:space="preserve" x="-27170" stroke="none" font-size="433.3333" font-family="sans-serif">O</text><text y="-25725" xml:space="preserve" x="-28077" stroke="none" font-size="433.3333" font-family="sans-serif">OH</text><text y="-27874" xml:space="preserve" x="-26182" stroke="none" font-size="433.3333" font-family="sans-serif">O</text><text y="-27334" xml:space="preserve" x="-25286" stroke="none" font-size="433.3333" font-family="sans-serif">CH</text><text y="-27245" xml:space="preserve" x="-24708" stroke="none" font-size="313.3333" font-family="sans-serif">3</text><text y="-32242" xml:space="preserve" x="-26262" stroke="none" font-size="433.3333" font-family="sans-serif">Cl</text><text y="-31150" xml:space="preserve" x="-24292" stroke="none" font-size="433.3333" font-family="sans-serif">O</text><text y="-30628" xml:space="preserve" x="-23385" stroke="none" font-size="433.3333" font-family="sans-serif">CH</text><text y="-30538" xml:space="preserve" x="-22807" stroke="none" font-size="313.3333" font-family="sans-serif">3</text></g></g></svg>