<svg width="406.26" viewBox="0 0 13542 8671" text-rendering="auto" stroke-width="1" stroke-opacity="1" stroke-miterlimit="10" stroke-linejoin="miter" stroke-linecap="square" stroke-dashoffset="0" stroke-dasharray="none" stroke="black" shape-rendering="auto" image-rendering="auto" height="260.13" font-weight="normal" font-style="normal" font-size="12" font-family="'Dialog'" fill-opacity="1" fill="black" color-rendering="auto" color-interpolation="auto" xmlns="http://www.w3.org/2000/svg"><g><g stroke="white" fill="white"><rect y="0" x="0" width="13542" stroke="none" height="8671"/></g><g transform="translate(32866,32758)" text-rendering="geometricPrecision" stroke-width="44" stroke-linejoin="round" stroke-linecap="round"><line y2="-27574" y1="-26436" x2="-27164" x1="-27164" fill="none"/><line y2="-27430" y1="-26577" x2="-26993" x1="-26993" fill="none"/><line y2="-26436" y1="-25867" x2="-27164" x1="-26176" fill="none"/><line y2="-28143" y1="-27574" x2="-26176" x1="-27164" fill="none"/><line y2="-25867" y1="-26436" x2="-26176" x1="-25194" fill="none"/><line y2="-26083" y1="-26511" x2="-26138" x1="-25402" fill="none"/><line y2="-27574" y1="-28143" x2="-25194" x1="-26176" fill="none"/><line y2="-27496" y1="-27924" x2="-25402" x1="-26138" fill="none"/><line y2="-26436" y1="-27574" x2="-25194" x1="-25194" fill="none"/><line y2="-28097" y1="-27574" x2="-24286" x1="-25194" fill="none"/><line y2="-28926" y1="-28097" x2="-24286" x1="-24286" fill="none"/><line y2="-29668" y1="-29252" x2="-23379" x1="-24099" fill="none"/><line y2="-27742" y1="-28158" x2="-23532" x1="-24252" fill="none"/><line y2="-27620" y1="-28036" x2="-23602" x1="-24321" fill="none"/><line y2="-24775" y1="-25913" x2="-28071" x1="-28071" fill="none"/><line y2="-25913" y1="-26482" x2="-28071" x1="-29053" fill="none"/><line y2="-24206" y1="-24775" x2="-29053" x1="-28071" fill="none"/><line y2="-26482" y1="-25913" x2="-29053" x1="-30041" fill="none"/><line y2="-24775" y1="-24206" x2="-30041" x1="-29053" fill="none"/><line y2="-25913" y1="-24775" x2="-30041" x1="-30041" fill="none"/><line y2="-24775" y1="-24252" x2="-31855" x1="-30948" fill="none"/><line y2="-24252" y1="-24775" x2="-32762" x1="-31855" fill="none"/><line y2="-30807" y1="-29668" x2="-23379" x1="-23379" fill="none"/><line y2="-30665" y1="-29810" x2="-23209" x1="-23209" fill="none"/><line y2="-29668" y1="-29099" x2="-23379" x1="-22391" fill="none"/><line y2="-31376" y1="-30807" x2="-22391" x1="-23379" fill="none"/><line y2="-29099" y1="-29668" x2="-22391" x1="-21409" fill="none"/><line y2="-29319" y1="-29744" x2="-22354" x1="-21617" fill="none"/><line y2="-30807" y1="-31376" x2="-21409" x1="-22391" fill="none"/><line y2="-30729" y1="-31156" x2="-21617" x1="-22354" fill="none"/><line y2="-29668" y1="-30807" x2="-21409" x1="-21409" fill="none"/><line y2="-31330" y1="-30807" x2="-20502" x1="-21409" fill="none"/><line y2="-32202" y1="-31376" x2="-22391" x1="-22391" fill="none"/><line y2="-31746" y1="-31330" x2="-19783" x1="-20502" fill="none"/><line y2="-31824" y1="-31408" x2="-19826" x1="-20545" fill="none"/><line y2="-31668" y1="-31252" x2="-19736" x1="-20456" fill="none"/><polygon stroke-width="1" stroke="none" points=" -27198 -26494 -28071 -25913 -27129 -26375"/><polygon stroke-width="1" points=" -27198 -26494 -28071 -25913 -27129 -26375" fill="none"/><line y2="-24310" y1="-24191" x2="-30983" x1="-30914" fill="none"/><line y2="-24406" y1="-24312" x2="-30788" x1="-30734" fill="none"/><line y2="-24502" y1="-24432" x2="-30594" x1="-30553" fill="none"/><line y2="-24598" y1="-24553" x2="-30399" x1="-30373" fill="none"/><line y2="-24694" y1="-24674" x2="-30204" x1="-30192" fill="none"/><text y="-28966" xml:space="preserve" x="-24440" stroke="none" font-size="433.3333" font-family="sans-serif">O</text><text y="-27395" xml:space="preserve" x="-23532" stroke="none" font-size="433.3333" font-family="sans-serif">O</text><text y="-32242" xml:space="preserve" x="-22544" stroke="none" font-size="433.3333" font-family="sans-serif">F</text><text y="-31676" xml:space="preserve" x="-19748" stroke="none" font-size="433.3333" font-family="sans-serif">N</text></g></g></svg>