<svg width="447.24" viewBox="0 0 14908 4332" text-rendering="auto" stroke-width="1" stroke-opacity="1" stroke-miterlimit="10" stroke-linejoin="miter" stroke-linecap="square" stroke-dashoffset="0" stroke-dasharray="none" stroke="black" shape-rendering="auto" image-rendering="auto" height="129.96" font-weight="normal" font-style="normal" font-size="12" font-family="'Dialog'" fill-opacity="1" fill="black" color-rendering="auto" color-interpolation="auto" xmlns="http://www.w3.org/2000/svg"><g><g stroke="white" fill="white"><rect y="0" x="0" width="14908" stroke="none" height="4332"/></g><g transform="translate(32866,32758)" text-rendering="geometricPrecision" stroke-width="44" stroke-linejoin="round" stroke-linecap="round"><line y2="-30235" y1="-29096" x2="-30792" x1="-30792" fill="none"/><line y2="-29096" y1="-29096" x2="-30792" x1="-29007" fill="none"/><line y2="-28530" y1="-29096" x2="-31774" x1="-30792" fill="none"/><line y2="-28747" y1="-29174" x2="-31737" x1="-31000" fill="none"/><line y2="-30694" y1="-30235" x2="-29992" x1="-30792" fill="none"/><line y2="-30235" y1="-30804" x2="-30792" x1="-31774" fill="none"/><line y2="-30160" y1="-30587" x2="-31000" x1="-31737" fill="none"/><line y2="-29316" y1="-30235" x2="-28819" x1="-28819" fill="none"/><line y2="-29096" y1="-28530" x2="-32762" x1="-31774" fill="none"/><line y2="-30235" y1="-30694" x2="-28819" x1="-29616" fill="none"/><line y2="-30145" y1="-30492" x2="-29004" x1="-29602" fill="none"/><line y2="-30804" y1="-30235" x2="-31774" x1="-32762" fill="none"/><line y2="-30235" y1="-29096" x2="-32762" x1="-32762" fill="none"/><line y2="-30093" y1="-29241" x2="-32592" x1="-32592" fill="none"/><line y2="-30651" y1="-30235" x2="-28100" x1="-28819" fill="none"/><line y2="-30235" y1="-30651" x2="-27005" x1="-27724" fill="none"/><line y2="-30758" y1="-30235" x2="-26098" x1="-27005" fill="none"/><line y2="-30758" y1="-30191" x2="-26098" x1="-25116" fill="none"/><line y2="-30836" y1="-30408" x2="-25890" x1="-25153" fill="none"/><line y2="-31676" y1="-30758" x2="-26098" x1="-26098" fill="none"/><line y2="-30191" y1="-30758" x2="-25116" x1="-24128" fill="none"/><line y2="-32465" y1="-32006" x2="-25116" x1="-25910" fill="none"/><line y2="-32260" y1="-31916" x2="-25130" x1="-25725" fill="none"/><line y2="-30758" y1="-31896" x2="-24128" x1="-24128" fill="none"/><line y2="-30902" y1="-31754" x2="-24298" x1="-24298" fill="none"/><line y2="-31896" y1="-32465" x2="-24128" x1="-25116" fill="none"/><line y2="-29143" y1="-30191" x2="-25116" x1="-25116" fill="none"/><line y2="-30344" y1="-30758" x2="-23408" x1="-24128" fill="none"/><line y2="-30758" y1="-30344" x2="-22313" x1="-23033" fill="none"/><line y2="-30235" y1="-30758" x2="-21406" x1="-22313" fill="none"/><line y2="-30758" y1="-30235" x2="-20499" x1="-21406" fill="none"/><line y2="-30344" y1="-30758" x2="-19780" x1="-20499" fill="none"/><line y2="-30651" y1="-30344" x2="-18873" x1="-19404" fill="none"/><line y2="-32251" y1="-31945" x2="-26852" x1="-26320" fill="none"/><line y2="-32372" y1="-32066" x2="-26782" x1="-26251" fill="none"/><text y="-30578" xml:space="preserve" x="-28065" stroke="none" font-size="433.3333" font-family="sans-serif">S</text><text y="-32242" xml:space="preserve" x="-27158" stroke="none" font-size="433.3333" font-family="sans-serif">O</text><text y="-30056" xml:space="preserve" x="-23374" stroke="none" font-size="433.3333" font-family="sans-serif">O</text><text y="-30056" xml:space="preserve" x="-19745" stroke="none" font-size="433.3333" font-family="sans-serif">O</text><text y="-30578" xml:space="preserve" x="-18838" stroke="none" font-size="433.3333" font-family="sans-serif">CH</text><text y="-30489" xml:space="preserve" x="-18260" stroke="none" font-size="313.3333" font-family="sans-serif">3</text><text y="-28917" xml:space="preserve" x="-28972" stroke="none" font-size="433.3333" font-family="sans-serif">NH</text><text y="-30625" xml:space="preserve" x="-29954" stroke="none" font-size="433.3333" font-family="sans-serif">N</text><text y="-31717" xml:space="preserve" x="-26251" stroke="none" font-size="433.3333" font-family="sans-serif">N</text></g></g></svg>