<svg width="388.74" viewBox="0 0 12958 3329" text-rendering="auto" stroke-width="1" stroke-opacity="1" stroke-miterlimit="10" stroke-linejoin="miter" stroke-linecap="square" stroke-dashoffset="0" stroke-dasharray="none" stroke="black" shape-rendering="auto" image-rendering="auto" height="99.87" font-weight="normal" font-style="normal" font-size="12" font-family="'Dialog'" fill-opacity="1" fill="black" color-rendering="auto" color-interpolation="auto" xmlns="http://www.w3.org/2000/svg"><g><g stroke="white" fill="white"><rect y="0" x="0" width="12958" stroke="none" height="3329"/></g><g transform="translate(32866,32758)" text-rendering="geometricPrecision" stroke-width="44" stroke-linejoin="round" stroke-linecap="round"><line y2="-31376" y1="-30850" x2="-29798" x1="-30706" fill="none"/><line y2="-30850" y1="-31376" x2="-28891" x1="-29798" fill="none"/><line y2="-31376" y1="-30850" x2="-27984" x1="-28891" fill="none"/><line y2="-30850" y1="-31376" x2="-27077" x1="-27984" fill="none"/><line y2="-31376" y1="-30850" x2="-26170" x1="-27077" fill="none"/><line y2="-30850" y1="-31376" x2="-25263" x1="-26170" fill="none"/><line y2="-31376" y1="-30850" x2="-24356" x1="-25263" fill="none"/><line y2="-30850" y1="-31376" x2="-23449" x1="-24356" fill="none"/><line y2="-31376" y1="-30850" x2="-22542" x1="-23449" fill="none"/><line y2="-31156" y1="-30850" x2="-31234" x1="-30706" fill="none"/><line y2="-31018" y1="-31266" x2="-32231" x1="-31803" fill="none"/><line y2="-30024" y1="-30850" x2="-30636" x1="-30636" fill="none"/><line y2="-30024" y1="-30850" x2="-30778" x1="-30778" fill="none"/><line y2="-30960" y1="-31376" x2="-21822" x1="-22542" fill="none"/><line y2="-31318" y1="-31070" x2="-20826" x1="-21256" fill="none"/><line y2="-32202" y1="-31376" x2="-22611" x1="-22611" fill="none"/><line y2="-32202" y1="-31376" x2="-22472" x1="-22472" fill="none"/><text y="-30671" xml:space="preserve" x="-21788" stroke="none" font-size="433.3333" font-family="sans-serif">NH</text><text y="-32242" xml:space="preserve" x="-22695" stroke="none" font-size="433.3333" font-family="sans-serif">O</text><text y="-31249" xml:space="preserve" x="-20788" stroke="none" font-size="433.3333" font-family="sans-serif">NH</text><text y="-31159" xml:space="preserve" x="-20210" stroke="none" font-size="313.3333" font-family="sans-serif">2</text><text y="-31197" xml:space="preserve" x="-31766" stroke="none" font-size="433.3333" font-family="sans-serif">NH</text><text y="-29625" xml:space="preserve" x="-30859" stroke="none" font-size="433.3333" font-family="sans-serif">O</text><text y="-30619" xml:space="preserve" x="-32762" stroke="none" font-size="433.3333" font-family="sans-serif">NH</text><text y="-30529" xml:space="preserve" x="-32185" stroke="none" font-size="313.3333" font-family="sans-serif">2</text></g></g></svg>