<svg width="218.88" viewBox="0 0 7296 4002" text-rendering="auto" stroke-width="1" stroke-opacity="1" stroke-miterlimit="10" stroke-linejoin="miter" stroke-linecap="square" stroke-dashoffset="0" stroke-dasharray="none" stroke="black" shape-rendering="auto" image-rendering="auto" height="120.06" font-weight="normal" font-style="normal" font-size="12" font-family="'Dialog'" fill-opacity="1" fill="black" color-rendering="auto" color-interpolation="auto" xmlns="http://www.w3.org/2000/svg"><g><g stroke="white" fill="white"><rect y="0" x="0" width="7296" stroke="none" height="4002"/></g><g transform="translate(32866,32758)" text-rendering="geometricPrecision" stroke-width="44" stroke-linejoin="round" stroke-linecap="round"><line y2="-30801" y1="-31376" x2="-28741" x1="-29723" fill="none"/><line y2="-29654" y1="-30801" x2="-28741" x1="-28741" fill="none"/><line y2="-29798" y1="-30659" x2="-28912" x1="-28912" fill="none"/><line y2="-31376" y1="-30801" x2="-27759" x1="-28741" fill="none"/><line y2="-31376" y1="-30801" x2="-29723" x1="-30706" fill="none"/><line y2="-31156" y1="-30726" x2="-29758" x1="-30498" fill="none"/><line y2="-29082" y1="-29654" x2="-29723" x1="-28741" fill="none"/><line y2="-29654" y1="-29082" x2="-28741" x1="-27759" fill="none"/><line y2="-30801" y1="-31376" x2="-26777" x1="-27759" fill="none"/><line y2="-30726" y1="-31156" x2="-26985" x1="-27721" fill="none"/><line y2="-30801" y1="-29654" x2="-30706" x1="-30706" fill="none"/><line y2="-29654" y1="-29082" x2="-30706" x1="-29723" fill="none"/><line y2="-29732" y1="-29302" x2="-30498" x1="-29758" fill="none"/><line y2="-29082" y1="-29654" x2="-27759" x1="-26777" fill="none"/><line y2="-29302" y1="-29732" x2="-27721" x1="-26985" fill="none"/><line y2="-29654" y1="-30801" x2="-26777" x1="-26777" fill="none"/><line y2="-32422" y1="-31376" x2="-29723" x1="-29723" fill="none"/><line y2="-32422" y1="-32422" x2="-30769" x1="-29723" fill="none"/><line y2="-31217" y1="-30801" x2="-31425" x1="-30706" fill="none"/><line y2="-30968" y1="-31217" x2="-32231" x1="-31800" fill="none"/><line y2="-29328" y1="-29654" x2="-26208" x1="-26777" fill="none"/><line y2="-32422" y1="-32422" x2="-31630" x1="-30769" fill="none"/><line y2="-32332" y1="-32332" x2="-31630" x1="-30769" fill="none"/><line y2="-32511" y1="-32511" x2="-31630" x1="-30769" fill="none"/><text y="-32242" xml:space="preserve" x="-31971" stroke="none" font-size="433.3333" font-family="sans-serif">N</text><text y="-31148" xml:space="preserve" x="-31766" stroke="none" font-size="433.3333" font-family="sans-serif">O</text><text y="-30570" xml:space="preserve" x="-32762" stroke="none" font-size="433.3333" font-family="sans-serif">CH</text><text y="-30480" xml:space="preserve" x="-32185" stroke="none" font-size="313.3333" font-family="sans-serif">3</text><text y="-28952" xml:space="preserve" x="-26101" stroke="none" font-size="433.3333" font-family="sans-serif">Br</text></g></g></svg>