<svg width="178.53" viewBox="0 0 5951 2731" text-rendering="auto" stroke-width="1" stroke-opacity="1" stroke-miterlimit="10" stroke-linejoin="miter" stroke-linecap="square" stroke-dashoffset="0" stroke-dasharray="none" stroke="black" shape-rendering="auto" image-rendering="auto" height="81.93" font-weight="normal" font-style="normal" font-size="12" font-family="'Dialog'" fill-opacity="1" fill="black" color-rendering="auto" color-interpolation="auto" xmlns="http://www.w3.org/2000/svg"><g><g stroke="white" fill="white"><rect y="0" x="0" width="5951" stroke="none" height="2731"/></g><g transform="translate(32866,32758)" text-rendering="geometricPrecision" stroke-width="44" stroke-linejoin="round" stroke-linecap="round"><line y2="-31850" y1="-30703" x2="-29891" x1="-29891" fill="none"/><line y2="-31705" y1="-30847" x2="-29720" x1="-29720" fill="none"/><line y2="-30703" y1="-30131" x2="-29891" x1="-28909" fill="none"/><line y2="-30131" y1="-30703" x2="-30873" x1="-29891" fill="none"/><line y2="-31850" y1="-32422" x2="-29891" x1="-30873" fill="none"/><line y2="-32312" y1="-31850" x2="-29096" x1="-29891" fill="none"/><line y2="-30131" y1="-30703" x2="-28909" x1="-27926" fill="none"/><line y2="-30347" y1="-30778" x2="-28871" x1="-28134" fill="none"/><line y2="-30703" y1="-30131" x2="-31855" x1="-30873" fill="none"/><line y2="-30778" y1="-30347" x2="-31647" x1="-30911" fill="none"/><line y2="-32422" y1="-31850" x2="-30873" x1="-31855" fill="none"/><line y2="-32205" y1="-31774" x2="-30911" x1="-31647" fill="none"/><line y2="-31850" y1="-32312" x2="-27926" x1="-28721" fill="none"/><line y2="-31760" y1="-32107" x2="-28111" x1="-28706" fill="none"/><line y2="-30703" y1="-31850" x2="-27926" x1="-27926" fill="none"/><line y2="-31850" y1="-30703" x2="-31855" x1="-31855" fill="none"/><line y2="-32372" y1="-31850" x2="-32762" x1="-31855" fill="none"/><line y2="-32372" y1="-31850" x2="-27019" x1="-27926" fill="none"/><text y="-32242" xml:space="preserve" x="-29062" stroke="none" font-size="433.3333" font-family="sans-serif">N</text></g></g></svg>