<svg width="168.0" viewBox="0 0 5600 5193" text-rendering="auto" stroke-width="1" stroke-opacity="1" stroke-miterlimit="10" stroke-linejoin="miter" stroke-linecap="square" stroke-dashoffset="0" stroke-dasharray="none" stroke="black" shape-rendering="auto" image-rendering="auto" height="155.79" font-weight="normal" font-style="normal" font-size="12" font-family="'Dialog'" fill-opacity="1" fill="black" color-rendering="auto" color-interpolation="auto" xmlns="http://www.w3.org/2000/svg"><g><g stroke="white" fill="white"><rect y="0" x="0" width="5600" stroke="none" height="5193"/></g><g transform="translate(32866,32758)" text-rendering="geometricPrecision" stroke-width="44" stroke-linejoin="round" stroke-linecap="round"><line y2="-29943" y1="-29374" x2="-29810" x1="-30795" fill="none"/><line y2="-29726" y1="-29299" x2="-29848" x1="-30587" fill="none"/><line y2="-29484" y1="-29943" x2="-29013" x1="-29810" fill="none"/><line y2="-29374" y1="-28238" x2="-30795" x1="-30795" fill="none"/><line y2="-28238" y1="-29154" x2="-28825" x1="-28825" fill="none"/><line y2="-28351" y1="-29042" x2="-28995" x1="-28995" fill="none"/><line y2="-28238" y1="-27669" x2="-30795" x1="-29810" fill="none"/><line y2="-28314" y1="-27889" x2="-30587" x1="-29848" fill="none"/><line y2="-27669" y1="-28238" x2="-29810" x1="-28825" fill="none"/><line y2="-29900" y1="-29374" x2="-31702" x1="-30795" fill="none"/><line y2="-29593" y1="-29900" x2="-32231" x1="-31702" fill="none"/><line y2="-30772" y1="-29943" x2="-29810" x1="-29810" fill="none"/><line y2="-31347" y1="-31098" x2="-30428" x1="-29998" fill="none"/><line y2="-31408" y1="-31098" x2="-29091" x1="-29622" fill="none"/><line y2="-31098" y1="-31408" x2="-28184" x1="-28712" fill="none"/><line y2="-32240" y1="-31769" x2="-28565" x1="-28836" fill="none"/><line y2="-32167" y1="-31699" x2="-28444" x1="-28715" fill="none"/><line y2="-32167" y1="-31699" x2="-29359" x1="-29088" fill="none"/><line y2="-32240" y1="-31769" x2="-29238" x1="-28966" fill="none"/><text y="-30812" xml:space="preserve" x="-29960" stroke="none" font-size="433.3333" font-family="sans-serif">N</text><text y="-31335" xml:space="preserve" x="-29053" stroke="none" font-size="433.3333" font-family="sans-serif">S</text><text y="-31497" xml:space="preserve" x="-31150" stroke="none" font-size="433.3333" font-family="sans-serif">CH</text><text y="-31408" xml:space="preserve" x="-30573" stroke="none" font-size="313.3333" font-family="sans-serif">3</text><text y="-30812" xml:space="preserve" x="-28146" stroke="none" font-size="433.3333" font-family="sans-serif">CH</text><text y="-30723" xml:space="preserve" x="-27568" stroke="none" font-size="313.3333" font-family="sans-serif">3</text><text y="-32242" xml:space="preserve" x="-28530" stroke="none" font-size="433.3333" font-family="sans-serif">O</text><text y="-32242" xml:space="preserve" x="-29579" stroke="none" font-size="433.3333" font-family="sans-serif">O</text><text y="-29195" xml:space="preserve" x="-32762" stroke="none" font-size="433.3333" font-family="sans-serif">NH</text><text y="-29105" xml:space="preserve" x="-32185" stroke="none" font-size="313.3333" font-family="sans-serif">2</text><text y="-29195" xml:space="preserve" x="-28978" stroke="none" font-size="433.3333" font-family="sans-serif">N</text></g></g></svg>