<svg width="383.46" viewBox="0 0 12782 3944" text-rendering="auto" stroke-width="1" stroke-opacity="1" stroke-miterlimit="10" stroke-linejoin="miter" stroke-linecap="square" stroke-dashoffset="0" stroke-dasharray="none" stroke="black" shape-rendering="auto" image-rendering="auto" height="118.32" font-weight="normal" font-style="normal" font-size="12" font-family="'Dialog'" fill-opacity="1" fill="black" color-rendering="auto" color-interpolation="auto" xmlns="http://www.w3.org/2000/svg"><g><g stroke="white" fill="white"><rect y="0" x="0" width="12782" stroke="none" height="3944"/></g><g transform="translate(32866,32758)" text-rendering="geometricPrecision" stroke-width="44" stroke-linejoin="round" stroke-linecap="round"><line y2="-30850" y1="-31419" x2="-26257" x1="-27239" fill="none"/><line y2="-30775" y1="-31202" x2="-26462" x1="-27201" fill="none"/><line y2="-29715" y1="-30850" x2="-26257" x1="-26257" fill="none"/><line y2="-31419" y1="-30850" x2="-27239" x1="-28227" fill="none"/><line y2="-29146" y1="-29715" x2="-27239" x1="-26257" fill="none"/><line y2="-29362" y1="-29790" x2="-27201" x1="-26462" fill="none"/><line y2="-30850" y1="-29715" x2="-28227" x1="-28227" fill="none"/><line y2="-30708" y1="-29856" x2="-28056" x1="-28056" fill="none"/><line y2="-29715" y1="-29146" x2="-28227" x1="-27239" fill="none"/><line y2="-31376" y1="-30850" x2="-25347" x1="-26257" fill="none"/><line y2="-29408" y1="-29715" x2="-28753" x1="-28227" fill="none"/><line y2="-29715" y1="-29299" x2="-30041" x1="-29322" fill="none"/><line y2="-29189" y1="-29715" x2="-30948" x1="-30041" fill="none"/><line y2="-29715" y1="-29189" x2="-31855" x1="-30948" fill="none"/><line y2="-29189" y1="-29715" x2="-32762" x1="-31855" fill="none"/><line y2="-30960" y1="-31376" x2="-24630" x1="-25347" fill="none"/><line y2="-31376" y1="-30960" x2="-23532" x1="-24252" fill="none"/><line y2="-30850" y1="-31376" x2="-22625" x1="-23532" fill="none"/><line y2="-31266" y1="-30850" x2="-21906" x1="-22625" fill="none"/><line y2="-32202" y1="-31376" x2="-25419" x1="-25419" fill="none"/><line y2="-32202" y1="-31376" x2="-25277" x1="-25277" fill="none"/><line y2="-30960" y1="-31266" x2="-20999" x1="-21530" fill="none"/><line y2="-32202" y1="-31595" x2="-21718" x1="-21718" fill="none"/><text y="-30671" xml:space="preserve" x="-24593" stroke="none" font-size="433.3333" font-family="sans-serif">O</text><text y="-32242" xml:space="preserve" x="-25500" stroke="none" font-size="433.3333" font-family="sans-serif">O</text><text y="-31197" xml:space="preserve" x="-21871" stroke="none" font-size="433.3333" font-family="sans-serif">N</text><text y="-30671" xml:space="preserve" x="-20964" stroke="none" font-size="433.3333" font-family="sans-serif">CH</text><text y="-30581" xml:space="preserve" x="-20386" stroke="none" font-size="313.3333" font-family="sans-serif">3</text><text y="-32242" xml:space="preserve" x="-21871" stroke="none" font-size="433.3333" font-family="sans-serif">CH</text><text y="-32153" xml:space="preserve" x="-21294" stroke="none" font-size="313.3333" font-family="sans-serif">3</text><text y="-29010" xml:space="preserve" x="-29284" stroke="none" font-size="433.3333" font-family="sans-serif">NH</text></g></g></svg>