<svg width="240.84" viewBox="0 0 8028 4387" text-rendering="auto" stroke-width="1" stroke-opacity="1" stroke-miterlimit="10" stroke-linejoin="miter" stroke-linecap="square" stroke-dashoffset="0" stroke-dasharray="none" stroke="black" shape-rendering="auto" image-rendering="auto" height="131.61" font-weight="normal" font-style="normal" font-size="12" font-family="'Dialog'" fill-opacity="1" fill="black" color-rendering="auto" color-interpolation="auto" xmlns="http://www.w3.org/2000/svg"><g><g stroke="white" fill="white"><rect y="0" x="0" width="8028" stroke="none" height="4387"/></g><g transform="translate(32866,32758)" text-rendering="geometricPrecision" stroke-width="44" stroke-linejoin="round" stroke-linecap="round"><line y2="-30136" y1="-30706" x2="-30622" x1="-29634" fill="none"/><line y2="-30356" y1="-30781" x2="-30581" x1="-29842" fill="none"/><line y2="-30706" y1="-31841" x2="-29634" x1="-29634" fill="none"/><line y2="-30596" y1="-30136" x2="-31416" x1="-30622" fill="none"/><line y2="-31841" y1="-32410" x2="-29634" x1="-30622" fill="none"/><line y2="-31766" y1="-32193" x2="-29842" x1="-30581" fill="none"/><line y2="-31841" y1="-30925" x2="-31604" x1="-31604" fill="none"/><line y2="-31728" y1="-31038" x2="-31434" x1="-31434" fill="none"/><line y2="-32410" y1="-31841" x2="-30622" x1="-31604" fill="none"/><line y2="-30290" y1="-30706" x2="-28914" x1="-29634" fill="none"/><line y2="-30656" y1="-30350" x2="-28042" x1="-28574" fill="none"/><line y2="-30535" y1="-30229" x2="-27973" x1="-28504" fill="none"/><line y2="-30180" y1="-30596" x2="-26912" x1="-27632" fill="none"/><line y2="-29307" y1="-30136" x2="-30622" x1="-30622" fill="none"/><line y2="-32092" y1="-31841" x2="-32037" x1="-31604" fill="none"/><line y2="-30180" y1="-29044" x2="-26912" x1="-26912" fill="none"/><line y2="-30038" y1="-29186" x2="-26742" x1="-26742" fill="none"/><line y2="-30749" y1="-30180" x2="-25924" x1="-26912" fill="none"/><line y2="-29044" y1="-28475" x2="-26912" x1="-25924" fill="none"/><line y2="-30180" y1="-30749" x2="-24942" x1="-25924" fill="none"/><line y2="-30105" y1="-30532" x2="-25150" x1="-25887" fill="none"/><line y2="-28475" y1="-29044" x2="-25924" x1="-24942" fill="none"/><line y2="-28692" y1="-29120" x2="-25887" x1="-25150" fill="none"/><line y2="-29044" y1="-30180" x2="-24942" x1="-24942" fill="none"/><text y="-30001" xml:space="preserve" x="-28880" stroke="none" font-size="433.3333" font-family="sans-serif">N</text><text y="-30526" xml:space="preserve" x="-27973" stroke="none" font-size="433.3333" font-family="sans-serif">N</text><text y="-28909" xml:space="preserve" x="-30772" stroke="none" font-size="433.3333" font-family="sans-serif">NH</text><text y="-28819" xml:space="preserve" x="-30194" stroke="none" font-size="313.3333" font-family="sans-serif">2</text><text y="-32242" xml:space="preserve" x="-32762" stroke="none" font-size="433.3333" font-family="sans-serif">NH</text><text y="-32153" xml:space="preserve" x="-32185" stroke="none" font-size="313.3333" font-family="sans-serif">2</text><text y="-30526" xml:space="preserve" x="-31757" stroke="none" font-size="433.3333" font-family="sans-serif">N</text></g></g></svg>