<svg width="179.76" viewBox="0 0 5992 2838" text-rendering="auto" stroke-width="1" stroke-opacity="1" stroke-miterlimit="10" stroke-linejoin="miter" stroke-linecap="square" stroke-dashoffset="0" stroke-dasharray="none" stroke="black" shape-rendering="auto" image-rendering="auto" height="85.14" font-weight="normal" font-style="normal" font-size="12" font-family="'Dialog'" fill-opacity="1" fill="black" color-rendering="auto" color-interpolation="auto" xmlns="http://www.w3.org/2000/svg"><g><g stroke="white" fill="white"><rect y="0" x="0" width="5992" stroke="none" height="2838"/></g><g transform="translate(32866,32758)" text-rendering="geometricPrecision" stroke-width="44" stroke-linejoin="round" stroke-linecap="round"><line y2="-31824" y1="-30622" x2="-29547" x1="-29547" fill="none"/><line y2="-30024" y1="-30622" x2="-30584" x1="-29547" fill="none"/><line y2="-30243" y1="-30694" x2="-30538" x1="-29761" fill="none"/><line y2="-30622" y1="-30622" x2="-29547" x1="-27655" fill="none"/><line y2="-31824" y1="-32422" x2="-29547" x1="-30584" fill="none"/><line y2="-31751" y1="-32199" x2="-29761" x1="-30538" fill="none"/><line y2="-32315" y1="-31824" x2="-28692" x1="-29547" fill="none"/><line y2="-30622" y1="-30024" x2="-31624" x1="-30584" fill="none"/><line y2="-30841" y1="-31604" x2="-27467" x1="-27467" fill="none"/><line y2="-32422" y1="-31824" x2="-30584" x1="-31624" fill="none"/><line y2="-31930" y1="-32315" x2="-27655" x1="-28316" fill="none"/><line y2="-31832" y1="-32118" x2="-27822" x1="-28319" fill="none"/><line y2="-31824" y1="-30622" x2="-31624" x1="-31624" fill="none"/><line y2="-31673" y1="-30772" x2="-31454" x1="-31454" fill="none"/><line y2="-32150" y1="-31824" x2="-32190" x1="-31624" fill="none"/><text y="-32167" xml:space="preserve" x="-32762" stroke="none" font-size="433.3333" font-family="sans-serif">Cl</text><text y="-30443" xml:space="preserve" x="-27617" stroke="none" font-size="433.3333" font-family="sans-serif">NH</text><text y="-32242" xml:space="preserve" x="-28654" stroke="none" font-size="433.3333" font-family="sans-serif">N</text><text y="-31644" xml:space="preserve" x="-27617" stroke="none" font-size="433.3333" font-family="sans-serif">N</text></g></g></svg>