<svg width="227.49" viewBox="0 0 7583 2471" text-rendering="auto" stroke-width="1" stroke-opacity="1" stroke-miterlimit="10" stroke-linejoin="miter" stroke-linecap="square" stroke-dashoffset="0" stroke-dasharray="none" stroke="black" shape-rendering="auto" image-rendering="auto" height="74.13" font-weight="normal" font-style="normal" font-size="12" font-family="'Dialog'" fill-opacity="1" fill="black" color-rendering="auto" color-interpolation="auto" xmlns="http://www.w3.org/2000/svg"><g><g stroke="white" fill="white"><rect y="0" x="0" width="7583" stroke="none" height="2471"/></g><g transform="translate(32866,32758)" text-rendering="geometricPrecision" stroke-width="44" stroke-linejoin="round" stroke-linecap="round"><line y2="-31725" y1="-32277" x2="-29926" x1="-30636" fill="none"/><line y2="-30882" y1="-31725" x2="-30217" x1="-29926" fill="none"/><line y2="-32283" y1="-31725" x2="-31012" x1="-31766" fill="none"/><line y2="-30662" y1="-30662" x2="-31439" x1="-30480" fill="none"/><line y2="-31725" y1="-30662" x2="-31766" x1="-31439" fill="none"/><line y2="-32251" y1="-31725" x2="-29018" x1="-29926" fill="none"/><line y2="-32052" y1="-31725" x2="-32762" x1="-31766" fill="none"/><line y2="-31725" y1="-32251" x2="-28111" x1="-29018" fill="none"/><line y2="-31673" y1="-32066" x2="-28293" x1="-28972" fill="none"/><line y2="-32251" y1="-31725" x2="-27204" x1="-28111" fill="none"/><line y2="-31725" y1="-32251" x2="-26294" x1="-27204" fill="none"/><line y2="-32251" y1="-31725" x2="-25387" x1="-26294" fill="none"/><text y="-32242" xml:space="preserve" x="-30977" stroke="none" font-size="433.3333" font-family="sans-serif">O</text><text y="-30483" xml:space="preserve" x="-30446" stroke="none" font-size="433.3333" font-family="sans-serif">O</text><text y="-32199" xml:space="preserve" x="-28501" stroke="none" font-style="italic" font-size="313.3333" font-family="sans-serif">E</text></g></g></svg>