<svg width="196.26" viewBox="0 0 6542 4551" text-rendering="auto" stroke-width="1" stroke-opacity="1" stroke-miterlimit="10" stroke-linejoin="miter" stroke-linecap="square" stroke-dashoffset="0" stroke-dasharray="none" stroke="black" shape-rendering="auto" image-rendering="auto" height="136.53" font-weight="normal" font-style="normal" font-size="12" font-family="'Dialog'" fill-opacity="1" fill="black" color-rendering="auto" color-interpolation="auto" xmlns="http://www.w3.org/2000/svg"><g><g stroke="white" fill="white"><rect y="0" x="0" width="6542" stroke="none" height="4551"/></g><g transform="translate(32866,32758)" text-rendering="geometricPrecision" stroke-width="44" stroke-linejoin="round" stroke-linecap="round"><line y2="-29573" y1="-30292" x2="-30125" x1="-29876" fill="none"/><line y2="-30656" y1="-31122" x2="-29989" x1="-30593" fill="none"/><line y2="-29354" y1="-29354" x2="-31451" x1="-30391" fill="none"/><line y2="-31127" y1="-30512" x2="-30968" x1="-31806" fill="none"/><line y2="-30512" y1="-29354" x2="-31806" x1="-31451" fill="none"/><line y2="-30512" y1="-30512" x2="-28753" x1="-29614" fill="none"/><line y2="-28311" y1="-29354" x2="-31341" x1="-31451" fill="none"/><line y2="-29134" y1="-29354" x2="-32474" x1="-31451" fill="none"/><line y2="-30084" y1="-30512" x2="-32762" x1="-31806" fill="none"/><line y2="-31419" y1="-30512" x2="-32329" x1="-31806" fill="none"/><line y2="-31575" y1="-30512" x2="-28386" x1="-28753" fill="none"/><line y2="-30512" y1="-29816" x2="-28753" x1="-27854" fill="none"/><line y2="-30558" y1="-30035" x2="-28536" x1="-27863" fill="none"/><line y2="-31575" y1="-31575" x2="-27239" x1="-28386" fill="none"/><line y2="-31405" y1="-31405" x2="-27380" x1="-28241" fill="none"/><line y2="-29816" y1="-30370" x2="-27854" x1="-27100" fill="none"/><line y2="-30729" y1="-31575" x2="-26979" x1="-27239" fill="none"/><line y2="-28987" y1="-29816" x2="-27854" x1="-27854" fill="none"/><line y2="-32202" y1="-31575" x2="-26782" x1="-27239" fill="none"/><text y="-28588" xml:space="preserve" x="-28085" stroke="none" font-size="433.3333" font-family="sans-serif">Br</text><text y="-32242" xml:space="preserve" x="-26855" stroke="none" font-size="433.3333" font-family="sans-serif">Br</text><text y="-30333" xml:space="preserve" x="-27063" stroke="none" font-size="433.3333" font-family="sans-serif">S</text><text y="-30333" xml:space="preserve" x="-29952" stroke="none" font-size="433.3333" font-family="sans-serif">B</text><text y="-29174" xml:space="preserve" x="-30353" stroke="none" font-size="433.3333" font-family="sans-serif">O</text><text y="-31087" xml:space="preserve" x="-30934" stroke="none" font-size="433.3333" font-family="sans-serif">O</text></g></g></svg>