<svg width="557.4" viewBox="0 0 18580 7902" text-rendering="auto" stroke-width="1" stroke-opacity="1" stroke-miterlimit="10" stroke-linejoin="miter" stroke-linecap="square" stroke-dashoffset="0" stroke-dasharray="none" stroke="black" shape-rendering="auto" image-rendering="auto" height="237.06" font-weight="normal" font-style="normal" font-size="12" font-family="'Dialog'" fill-opacity="1" fill="black" color-rendering="auto" color-interpolation="auto" xmlns="http://www.w3.org/2000/svg"><g><g stroke="white" fill="white"><rect y="0" x="0" width="18580" stroke="none" height="7902"/></g><g transform="translate(32866,32758)" text-rendering="geometricPrecision" stroke-width="44" stroke-linejoin="round" stroke-linecap="round"><line y2="-26667" y1="-26667" x2="-30498" x1="-28602" fill="none"/><line y2="-27866" y1="-26886" x2="-30685" x1="-30685" fill="none"/><line y2="-26173" y1="-26557" x2="-31535" x1="-30873" fill="none"/><line y2="-26667" y1="-27866" x2="-28602" x1="-28602" fill="none"/><line y2="-26817" y1="-27716" x2="-28773" x1="-28773" fill="none"/><line y2="-28357" y1="-27866" x2="-29830" x1="-30685" fill="none"/><line y2="-28149" y1="-27779" x2="-29850" x1="-30492" fill="none"/><line y2="-27866" y1="-28467" x2="-30685" x1="-31722" fill="none"/><line y2="-26667" y1="-26173" x2="-32762" x1="-31910" fill="none"/><line y2="-26751" y1="-26384" x2="-32572" x1="-31930" fill="none"/><line y2="-27866" y1="-28357" x2="-28602" x1="-29455" fill="none"/><line y2="-28467" y1="-27866" x2="-31722" x1="-32762" fill="none"/><line y2="-28244" y1="-27794" x2="-31766" x1="-32549" fill="none"/><line y2="-27866" y1="-26667" x2="-32762" x1="-32762" fill="none"/><line y2="-26667" y1="-26667" x2="-27557" x1="-28602" fill="none"/><line y2="-26667" y1="-26667" x2="-26508" x1="-27557" fill="none"/><line y2="-26756" y1="-26756" x2="-26508" x1="-27557" fill="none"/><line y2="-26577" y1="-26577" x2="-26508" x1="-27557" fill="none"/><line y2="-26667" y1="-26667" x2="-25459" x1="-26508" fill="none"/><line y2="-27236" y1="-26667" x2="-24474" x1="-25459" fill="none"/><line y2="-27016" y1="-26589" x2="-24512" x1="-25251" fill="none"/><line y2="-26667" y1="-25529" x2="-25459" x1="-25459" fill="none"/><line y2="-26667" y1="-27236" x2="-23489" x1="-24474" fill="none"/><line y2="-25529" y1="-24960" x2="-25459" x1="-24474" fill="none"/><line y2="-25607" y1="-25179" x2="-25251" x1="-24512" fill="none"/><line y2="-25529" y1="-26667" x2="-23489" x1="-23489" fill="none"/><line y2="-25670" y1="-26522" x2="-23660" x1="-23660" fill="none"/><line y2="-24960" y1="-25529" x2="-24474" x1="-23489" fill="none"/><line y2="-27190" y1="-26667" x2="-22582" x1="-23489" fill="none"/><line y2="-25006" y1="-25529" x2="-26366" x1="-25459" fill="none"/><line y2="-28019" y1="-27190" x2="-22582" x1="-22582" fill="none"/><line y2="-28761" y1="-28458" x2="-21675" x1="-22204" fill="none"/><line y2="-26834" y1="-27250" x2="-21828" x1="-22547" fill="none"/><line y2="-26713" y1="-27129" x2="-21900" x1="-22617" fill="none"/><line y2="-29900" y1="-28761" x2="-21675" x1="-21675" fill="none"/><line y2="-29755" y1="-28903" x2="-21504" x1="-21504" fill="none"/><line y2="-28761" y1="-28192" x2="-21675" x1="-20690" fill="none"/><line y2="-30469" y1="-29900" x2="-20690" x1="-21675" fill="none"/><line y2="-28192" y1="-28761" x2="-20690" x1="-19705" fill="none"/><line y2="-28412" y1="-28836" x2="-20652" x1="-19913" fill="none"/><line y2="-29900" y1="-30469" x2="-19705" x1="-20690" fill="none"/><line y2="-29822" y1="-30249" x2="-19913" x1="-20652" fill="none"/><line y2="-28761" y1="-29900" x2="-19705" x1="-19705" fill="none"/><line y2="-30422" y1="-29900" x2="-18798" x1="-19705" fill="none"/><line y2="-30006" y1="-30422" x2="-18078" x1="-18798" fill="none"/><line y2="-31514" y1="-30469" x2="-20690" x1="-20690" fill="none"/><line y2="-30469" y1="-30006" x2="-16908" x1="-17703" fill="none"/><line y2="-29680" y1="-28761" x2="-17890" x1="-17890" fill="none"/><line y2="-29900" y1="-30469" x2="-15920" x1="-16908" fill="none"/><line y2="-28761" y1="-28192" x2="-17890" x1="-16908" fill="none"/><line y2="-28981" y1="-29900" x2="-15920" x1="-15920" fill="none"/><line y2="-28192" y1="-28654" x2="-16908" x1="-16108" fill="none"/><line y2="-28345" y1="-28654" x2="-15201" x1="-15732" fill="none"/><line y2="-31930" y1="-31514" x2="-21409" x1="-20690" fill="none"/><line y2="-32202" y1="-31514" x2="-20291" x1="-20690" fill="none"/><line y2="-31514" y1="-31514" x2="-19829" x1="-20690" fill="none"/><text y="-28059" xml:space="preserve" x="-22735" stroke="none" font-size="433.3333" font-family="sans-serif">NH</text><text y="-26488" xml:space="preserve" x="-21828" stroke="none" font-size="433.3333" font-family="sans-serif">O</text><text y="-31861" xml:space="preserve" x="-21747" stroke="none" font-size="433.3333" font-family="sans-serif">F</text><text y="-32242" xml:space="preserve" x="-20317" stroke="none" font-size="433.3333" font-family="sans-serif">F</text><text y="-31335" xml:space="preserve" x="-19794" stroke="none" font-size="433.3333" font-family="sans-serif">F</text><text y="-28059" xml:space="preserve" x="-15166" stroke="none" font-size="433.3333" font-family="sans-serif">CH</text><text y="-27970" xml:space="preserve" x="-14588" stroke="none" font-size="313.3333" font-family="sans-serif">3</text><text y="-26488" xml:space="preserve" x="-30836" stroke="none" font-size="433.3333" font-family="sans-serif">N</text><text y="-25887" xml:space="preserve" x="-31876" stroke="none" font-size="433.3333" font-family="sans-serif">N</text><text y="-28288" xml:space="preserve" x="-29793" stroke="none" font-size="433.3333" font-family="sans-serif">N</text><text y="-29720" xml:space="preserve" x="-18044" stroke="none" font-size="433.3333" font-family="sans-serif">N</text><text y="-28582" xml:space="preserve" x="-16073" stroke="none" font-size="433.3333" font-family="sans-serif">N</text></g></g></svg>