<svg width="288.45" viewBox="0 0 9615 8832" text-rendering="auto" stroke-width="1" stroke-opacity="1" stroke-miterlimit="10" stroke-linejoin="miter" stroke-linecap="square" stroke-dashoffset="0" stroke-dasharray="none" stroke="black" shape-rendering="auto" image-rendering="auto" height="264.96" font-weight="normal" font-style="normal" font-size="12" font-family="'Dialog'" fill-opacity="1" fill="black" color-rendering="auto" color-interpolation="auto" xmlns="http://www.w3.org/2000/svg"><g><g stroke="white" fill="white"><rect y="0" x="0" width="9615" stroke="none" height="8832"/></g><g transform="translate(32866,32758)" text-rendering="geometricPrecision" stroke-width="44" stroke-linejoin="round" stroke-linecap="round"><line y2="-26826" y1="-27395" x2="-28747" x1="-27765" fill="none"/><line y2="-27395" y1="-28311" x2="-27765" x1="-27765" fill="none"/><line y2="-27508" y1="-28198" x2="-27932" x1="-27932" fill="none"/><line y2="-27395" y1="-26826" x2="-29735" x1="-28747" fill="none"/><line y2="-27470" y1="-27045" x2="-29524" x1="-28784" fill="none"/><line y2="-28640" y1="-29099" x2="-27952" x1="-28747" fill="none"/><line y2="-28311" y1="-27395" x2="-29735" x1="-29735" fill="none"/><line y2="-29099" y1="-28640" x2="-28747" x1="-29544" fill="none"/><line y2="-28894" y1="-28550" x2="-28761" x1="-29359" fill="none"/><line y2="-26869" y1="-27395" x2="-26855" x1="-27765" fill="none"/><line y2="-26979" y1="-27395" x2="-30451" x1="-29735" fill="none"/><line y2="-29928" y1="-29099" x2="-28747" x1="-28747" fill="none"/><line y2="-26869" y1="-25734" x2="-26855" x1="-26855" fill="none"/><line y2="-27438" y1="-26869" x2="-25870" x1="-26855" fill="none"/><line y2="-27222" y1="-26794" x2="-25907" x1="-26647" fill="none"/><line y2="-25734" y1="-25165" x2="-26855" x1="-25870" fill="none"/><line y2="-25809" y1="-25381" x2="-26647" x1="-25907" fill="none"/><line y2="-26979" y1="-27438" x2="-25075" x1="-25870" fill="none"/><line y2="-25165" y1="-25734" x2="-25870" x1="-24884" fill="none"/><line y2="-25734" y1="-26650" x2="-24884" x1="-24884" fill="none"/><line y2="-25846" y1="-26537" x2="-25055" x1="-25055" fill="none"/><line y2="-25208" y1="-25734" x2="-27765" x1="-26855" fill="none"/><line y2="-25318" y1="-25734" x2="-24168" x1="-24884" fill="none"/><line y2="-26979" y1="-27438" x2="-30830" x1="-31624" fill="none"/><line y2="-25734" y1="-26650" x2="-30642" x1="-30642" fill="none"/><line y2="-27438" y1="-26869" x2="-31624" x1="-32612" fill="none"/><line y2="-25165" y1="-25734" x2="-31624" x1="-30642" fill="none"/><line y2="-26869" y1="-25953" x2="-32612" x1="-32612" fill="none"/><line y2="-25624" y1="-25165" x2="-32422" x1="-31624" fill="none"/><line y2="-30717" y1="-30255" x2="-29735" x1="-28935" fill="none"/><line y2="-30255" y1="-30717" x2="-28559" x1="-27765" fill="none"/><line y2="-31855" y1="-30717" x2="-29735" x1="-29735" fill="none"/><line y2="-30717" y1="-31855" x2="-27765" x1="-27765" fill="none"/><line y2="-32315" y1="-31855" x2="-28935" x1="-29735" fill="none"/><line y2="-31855" y1="-32315" x2="-27765" x1="-28559" fill="none"/><line y2="-25624" y1="-25208" x2="-28481" x1="-27765" fill="none"/><line y2="-24520" y1="-25208" x2="-28160" x1="-27765" fill="none"/><line y2="-24520" y1="-25208" x2="-27366" x1="-27765" fill="none"/><text y="-25555" xml:space="preserve" x="-28822" stroke="none" font-size="433.3333" font-family="sans-serif">F</text><text y="-24122" xml:space="preserve" x="-28441" stroke="none" font-size="433.3333" font-family="sans-serif">F</text><text y="-24122" xml:space="preserve" x="-27392" stroke="none" font-size="433.3333" font-family="sans-serif">F</text><text y="-25029" xml:space="preserve" x="-24130" stroke="none" font-size="433.3333" font-family="sans-serif">NH</text><text y="-24939" xml:space="preserve" x="-23553" stroke="none" font-size="313.3333" font-family="sans-serif">2</text><text y="-28351" xml:space="preserve" x="-27915" stroke="none" font-size="433.3333" font-family="sans-serif">N</text><text y="-28351" xml:space="preserve" x="-29885" stroke="none" font-size="433.3333" font-family="sans-serif">N</text><text y="-26690" xml:space="preserve" x="-25038" stroke="none" font-size="433.3333" font-family="sans-serif">N</text><text y="-26690" xml:space="preserve" x="-30792" stroke="none" font-size="433.3333" font-family="sans-serif">N</text><text y="-25555" xml:space="preserve" x="-32762" stroke="none" font-size="433.3333" font-family="sans-serif">O</text><text y="-29969" xml:space="preserve" x="-28900" stroke="none" font-size="433.3333" font-family="sans-serif">N</text><text y="-32242" xml:space="preserve" x="-28900" stroke="none" font-size="433.3333" font-family="sans-serif">O</text></g></g></svg>