<svg width="796.26" viewBox="0 0 26542 46017" text-rendering="auto" stroke-width="1" stroke-opacity="1" stroke-miterlimit="10" stroke-linejoin="miter" stroke-linecap="square" stroke-dashoffset="0" stroke-dasharray="none" stroke="black" shape-rendering="auto" image-rendering="auto" height="1380.51" font-weight="normal" font-style="normal" font-size="12" font-family="'Dialog'" fill-opacity="1" fill="black" color-rendering="auto" color-interpolation="auto" xmlns="http://www.w3.org/2000/svg"><g><g stroke="white" fill="white"><rect y="0" x="0" width="26542" stroke="none" height="46017"/></g><g transform="translate(32866,32758)" text-rendering="geometricPrecision" stroke-width="44" stroke-linejoin="round" stroke-linecap="round"><line y2="-21473" y1="-30070" x2="-18306" x1="-12728" fill="none"/><line y2="-27938" y1="-21473" x2="-16342" x1="-18379" fill="none"/><line y2="-28022" y1="-21473" x2="-17113" x1="-18405" fill="none"/><line y2="-32202" y1="-28461" x2="-16287" x1="-17027" fill="none"/><line y2="-28022" y1="-21473" x2="-19696" x1="-18488" fill="none"/><line y2="-32202" y1="-28461" x2="-20467" x1="-19777" fill="none"/><line y2="-27938" y1="-21473" x2="-20470" x1="-18514" fill="none"/><line y2="-30070" y1="-21473" x2="-24070" x1="-18587" fill="none"/><line y2="-16281" y1="-20979" x2="-10801" x1="-18026" fill="none"/><line y2="-21051" y1="-16406" x2="-18789" x1="-26551" fill="none"/><line y2="-28374" y1="-30180" x2="-15894" x1="-12771" fill="none"/><line y2="-30399" y1="-32202" x2="-12771" x1="-15868" fill="none"/><line y2="-30477" y1="-31829" x2="-13245" x1="-15568" fill="none"/><line y2="-28158" y1="-28158" x2="-20043" x1="-16460" fill="none"/><line y2="-28325" y1="-28325" x2="-19595" x1="-16908" fill="none"/><line y2="-32422" y1="-32422" x2="-16432" x1="-20014" fill="none"/><line y2="-32315" y1="-30396" x2="-20696" x1="-24021" fill="none"/><line y2="-31928" y1="-30489" x2="-21025" x1="-23521" fill="none"/><line y2="-30180" y1="-28264" x2="-24021" x1="-20724" fill="none"/><line y2="-10128" y1="-15938" x2="-13014" x1="-10700" fill="none"/><line y2="-16073" y1="-9981" x2="-26722" x1="-26210" fill="none"/><line y2="-6427" y1="-10128" x2="-15146" x1="-13014" fill="none"/><line y2="-10128" y1="-10128" x2="-8747" x1="-13014" fill="none"/><line y2="-9958" y1="-9958" x2="-9282" x1="-12480" fill="none"/><line y2="-6292" y1="-9981" x2="-24076" x1="-26210" fill="none"/><line y2="-9981" y1="-9981" x2="-26210" x1="-30477" fill="none"/><line y2="-9810" y1="-9810" x2="-26745" x1="-29943" fill="none"/><line y2="-6292" y1="-6427" x2="-24076" x1="-15146" fill="none"/><line y2="-6427" y1="-2738" x2="-15146" x1="-13014" fill="none"/><line y2="-6049" y1="-3284" x2="-14733" x1="-13132" fill="none"/><line y2="-6427" y1="-10128" x2="-6612" x1="-8747" fill="none"/><line y2="-2588" y1="-6292" x2="-26210" x1="-24076" fill="none"/><line y2="-3137" y1="-5913" x2="-26092" x1="-24492" fill="none"/><line y2="-9981" y1="-6292" x2="-30477" x1="-32609" fill="none"/><line y2="-2738" y1="-2738" x2="-8747" x1="-13014" fill="none"/><line y2="-2738" y1="4434" x2="-13014" x1="-13014" fill="none"/><line y2="-2738" y1="-6427" x2="-8747" x1="-6612" fill="none"/><line y2="-3284" y1="-6049" x2="-8626" x1="-7028" fill="none"/><line y2="-2588" y1="-2588" x2="-30477" x1="-26210" fill="none"/><line y2="4584" y1="-2588" x2="-26210" x1="-26210" fill="none"/><line y2="-6292" y1="-2588" x2="-32609" x1="-30477" fill="none"/><line y2="-5913" y1="-3137" x2="-32196" x1="-30596" fill="none"/><line y2="745" y1="-2738" x2="-6739" x1="-8747" fill="none"/><line y2="4654" y1="4654" x2="-12826" x1="-8747" fill="none"/><line y2="-2588" y1="881" x2="-30477" x1="-32482" fill="none"/><line y2="4804" y1="4804" x2="-30477" x1="-26398" fill="none"/><line y2="4654" y1="1184" x2="-8747" x1="-6742" fill="none"/><line y2="1320" y1="4804" x2="-32482" x1="-30477" fill="none"/><line y2="-17206" y1="-16377" x2="-10613" x1="-10613" fill="none"/><line y2="-16030" y1="-16125" x2="-9897" x1="-10426" fill="none"/><line y2="-17342" y1="-16512" x2="-26739" x1="-26739" fill="none"/><line y2="-16229" y1="-16276" x2="-27464" x1="-26930" fill="none"/><line y2="-30812" y1="-30396" x2="-11676" x1="-12396" fill="none"/><line y2="-30544" y1="-30336" x2="-25225" x1="-24396" fill="none"/><line y2="-21617" y1="-21418" x2="-16738" x1="-17674" fill="none"/><line y2="-21594" y1="-21337" x2="-19820" x1="-18789" fill="none"/><line y2="-17775" y1="-17206" x2="-11598" x1="-10613" fill="none"/><line y2="-17850" y1="-17422" x2="-11390" x1="-10651" fill="none"/><line y2="-17206" y1="-17775" x2="-10613" x1="-9628" fill="none"/><line y2="-18913" y1="-17775" x2="-11598" x1="-11598" fill="none"/><line y2="-17775" y1="-18913" x2="-9628" x1="-9628" fill="none"/><line y2="-17919" y1="-18772" x2="-9799" x1="-9799" fill="none"/><line y2="-19482" y1="-18913" x2="-10613" x1="-11598" fill="none"/><line y2="-19263" y1="-18838" x2="-10651" x1="-11390" fill="none"/><line y2="-18913" y1="-19482" x2="-9628" x1="-10613" fill="none"/><line y2="-17342" y1="-17911" x2="-26739" x1="-25754" fill="none"/><line y2="-17558" y1="-17986" x2="-26702" x1="-25962" fill="none"/><line y2="-17911" y1="-17342" x2="-27721" x1="-26739" fill="none"/><line y2="-17911" y1="-19046" x2="-25754" x1="-25754" fill="none"/><line y2="-19049" y1="-17911" x2="-27724" x1="-27721" fill="none"/><line y2="-18907" y1="-18052" x2="-27554" x1="-27554" fill="none"/><line y2="-19046" y1="-19615" x2="-25754" x1="-26739" fill="none"/><line y2="-18971" y1="-19398" x2="-25962" x1="-26702" fill="none"/><line y2="-19615" y1="-19049" x2="-26739" x1="-27724" fill="none"/><line y2="-30290" y1="-30812" x2="-10769" x1="-11676" fill="none"/><line y2="-31861" y1="-30812" x2="-11676" x1="-11676" fill="none"/><line y2="7164" y1="8305" x2="-21949" x1="-21949" fill="none"/><line y2="7308" y1="8164" x2="-21779" x1="-21779" fill="none"/><line y2="8305" y1="8871" x2="-21949" x1="-20964" fill="none"/><line y2="6598" y1="7164" x2="-20964" x1="-21949" fill="none"/><line y2="8871" y1="8302" x2="-20964" x1="-19979" fill="none"/><line y2="8652" y1="8227" x2="-20927" x1="-20187" fill="none"/><line y2="7167" y1="6598" x2="-19979" x1="-20964" fill="none"/><line y2="7242" y1="6814" x2="-20187" x1="-20927" fill="none"/><line y2="8302" y1="7167" x2="-19979" x1="-19979" fill="none"/><line y2="8634" y1="8305" x2="-22516" x1="-21949" fill="none"/><line y2="12927" y1="12361" x2="-22004" x1="-21019" fill="none"/><line y2="12711" y1="12283" x2="-21967" x1="-21227" fill="none"/><line y2="12361" y1="11223" x2="-21019" x1="-21019" fill="none"/><line y2="12361" y1="12927" x2="-22989" x1="-22004" fill="none"/><line y2="11223" y1="10654" x2="-21019" x1="-22004" fill="none"/><line y2="11298" y1="10873" x2="-21230" x1="-21967" fill="none"/><line y2="11220" y1="12361" x2="-22989" x1="-22989" fill="none"/><line y2="11364" y1="12217" x2="-22819" x1="-22819" fill="none"/><line y2="10654" y1="11220" x2="-22004" x1="-22989" fill="none"/><line y2="12688" y1="12361" x2="-20453" x1="-21019" fill="none"/><text y="-21510" xml:space="preserve" x="-16631" stroke="none" font-size="433.3333" font-family="sans-serif">Cl</text><text y="-21582" xml:space="preserve" x="-20713" stroke="none" font-size="433.3333" font-family="sans-serif">Cl</text><text y="-21074" xml:space="preserve" x="-18751" stroke="none" font-size="433.3333" font-family="sans-serif">Ru</text><text y="-30110" xml:space="preserve" x="-12737" stroke="none" font-size="433.3333" font-family="sans-serif">C</text><text y="-27978" xml:space="preserve" x="-16426" stroke="none" font-size="433.3333" font-family="sans-serif">CH</text><text y="-32242" xml:space="preserve" x="-16397" stroke="none" font-size="433.3333" font-family="sans-serif">CH</text><text y="-32242" xml:space="preserve" x="-20661" stroke="none" font-size="433.3333" font-family="sans-serif">CH</text><text y="-27978" xml:space="preserve" x="-20687" stroke="none" font-size="433.3333" font-family="sans-serif">CH</text><text y="-30110" xml:space="preserve" x="-24362" stroke="none" font-size="433.3333" font-family="sans-serif">C</text><text y="-15978" xml:space="preserve" x="-10764" stroke="none" font-size="433.3333" font-family="sans-serif">P</text><text y="-16114" xml:space="preserve" x="-26892" stroke="none" font-size="433.3333" font-family="sans-serif">P</text><text y="4833" xml:space="preserve" x="-13164" stroke="none" font-size="433.3333" font-family="sans-serif">O</text><text y="4983" xml:space="preserve" x="-26364" stroke="none" font-size="433.3333" font-family="sans-serif">O</text><text y="1144" xml:space="preserve" x="-6765" stroke="none" font-size="433.3333" font-family="sans-serif">O</text><text y="1279" xml:space="preserve" x="-32762" stroke="none" font-size="433.3333" font-family="sans-serif">O</text><text y="-15793" xml:space="preserve" x="-9859" stroke="none" font-size="433.3333" font-family="sans-serif">@1</text><text y="-16021" xml:space="preserve" x="-28106" stroke="none" font-size="433.3333" font-family="sans-serif">@2</text><text y="-21565" xml:space="preserve" x="-16076" stroke="none" font-size="313.3333" font-family="sans-serif">-</text><text y="-21634" xml:space="preserve" x="-20158" stroke="none" font-size="313.3333" font-family="sans-serif">-</text><text y="-21019" xml:space="preserve" x="-18124" stroke="none" font-size="313.3333" font-family="sans-serif">2+</text><text y="9007" xml:space="preserve" x="-23160" stroke="none" font-size="433.3333" font-family="sans-serif">@1</text><text y="13063" xml:space="preserve" x="-20418" stroke="none" font-size="433.3333" font-family="sans-serif">@2</text></g></g></svg>