<svg width="384.54" viewBox="0 0 12818 5536" text-rendering="auto" stroke-width="1" stroke-opacity="1" stroke-miterlimit="10" stroke-linejoin="miter" stroke-linecap="square" stroke-dashoffset="0" stroke-dasharray="none" stroke="black" shape-rendering="auto" image-rendering="auto" height="166.08" font-weight="normal" font-style="normal" font-size="12" font-family="'Dialog'" fill-opacity="1" fill="black" color-rendering="auto" color-interpolation="auto" xmlns="http://www.w3.org/2000/svg"><g><g stroke="white" fill="white"><rect y="0" x="0" width="12818" stroke="none" height="5536"/></g><g transform="translate(32866,32758)" text-rendering="geometricPrecision" stroke-width="44" stroke-linejoin="round" stroke-linecap="round"><line y2="-30602" y1="-30602" x2="-30656" x1="-28550" fill="none"/><line y2="-30602" y1="-31815" x2="-28550" x1="-28550" fill="none"/><line y2="-30752" y1="-31662" x2="-28721" x1="-28721" fill="none"/><line y2="-31815" y1="-30602" x2="-30656" x1="-30656" fill="none"/><line y2="-29992" y1="-30602" x2="-31708" x1="-30656" fill="none"/><line y2="-30217" y1="-30671" x2="-31662" x1="-30873" fill="none"/><line y2="-31815" y1="-32202" x2="-28550" x1="-29221" fill="none"/><line y2="-32315" y1="-31815" x2="-29790" x1="-30656" fill="none"/><line y2="-31815" y1="-32315" x2="-30656" x1="-31520" fill="none"/><line y2="-31731" y1="-32104" x2="-30850" x1="-31497" fill="none"/><line y2="-30602" y1="-29992" x2="-32762" x1="-31708" fill="none"/><line y2="-32315" y1="-31815" x2="-31896" x1="-32762" fill="none"/><line y2="-31815" y1="-30602" x2="-32762" x1="-32762" fill="none"/><line y2="-31662" y1="-30752" x2="-32592" x1="-32592" fill="none"/><line y2="-30076" y1="-30602" x2="-27643" x1="-28550" fill="none"/><line y2="-30538" y1="-30076" x2="-26849" x1="-27643" fill="none"/><line y2="-30076" y1="-29157" x2="-27643" x1="-27643" fill="none"/><line y2="-29960" y1="-29273" x2="-27473" x1="-27473" fill="none"/><line y2="-30076" y1="-30538" x2="-25673" x1="-26473" fill="none"/><line y2="-29986" y1="-30333" x2="-25858" x1="-26456" fill="none"/><line y2="-28831" y1="-28371" x2="-27456" x1="-26661" fill="none"/><line y2="-28938" y1="-30076" x2="-25673" x1="-25673" fill="none"/><line y2="-28371" y1="-28938" x2="-26661" x1="-25673" fill="none"/><line y2="-28588" y1="-29016" x2="-26621" x1="-25881" fill="none"/><line y2="-30492" y1="-30076" x2="-24954" x1="-25673" fill="none"/><line y2="-30076" y1="-30382" x2="-23859" x1="-24388" fill="none"/><line y2="-30602" y1="-30076" x2="-22952" x1="-23859" fill="none"/><line y2="-30076" y1="-30602" x2="-22045" x1="-22952" fill="none"/><line y2="-29027" y1="-30076" x2="-23859" x1="-23859" fill="none"/><line y2="-28614" y1="-29027" x2="-23140" x1="-23859" fill="none"/><line y2="-29027" y1="-28724" x2="-22045" x1="-22573" fill="none"/><line y2="-28504" y1="-29027" x2="-21138" x1="-22045" fill="none"/><line y2="-28553" y1="-28966" x2="-24544" x1="-23824" fill="none"/><line y2="-28675" y1="-29091" x2="-24613" x1="-23894" fill="none"/><line y2="-28920" y1="-28504" x2="-20418" x1="-21138" fill="none"/><line y2="-27817" y1="-28504" x2="-20739" x1="-21138" fill="none"/><line y2="-27817" y1="-28504" x2="-21536" x1="-21138" fill="none"/><polygon stroke-width="1" stroke="none" points=" -23859 -30076 -22917 -29614 -22984 -29492"/><polygon stroke-width="1" points=" -23859 -30076 -22917 -29614 -22984 -29492" fill="none"/><text y="-30422" xml:space="preserve" x="-24919" stroke-width="1" stroke="none" font-size="433.3333" font-family="sans-serif">NH</text><text y="-28325" xml:space="preserve" x="-23105" stroke-width="1" stroke="none" font-size="433.3333" font-family="sans-serif">NH</text><text y="-28325" xml:space="preserve" x="-24919" stroke-width="1" stroke="none" font-size="433.3333" font-family="sans-serif">O</text><text y="-28848" xml:space="preserve" x="-20384" stroke-width="1" stroke="none" font-size="433.3333" font-family="sans-serif">F</text><text y="-27418" xml:space="preserve" x="-20765" stroke-width="1" stroke="none" font-size="433.3333" font-family="sans-serif">F</text><text y="-27418" xml:space="preserve" x="-21814" stroke-width="1" stroke="none" font-size="433.3333" font-family="sans-serif">F</text><text y="-32242" xml:space="preserve" x="-29752" stroke-width="1" stroke="none" font-size="433.3333" font-family="sans-serif">NH</text><text y="-32242" xml:space="preserve" x="-31861" stroke-width="1" stroke="none" font-size="433.3333" font-family="sans-serif">N</text><text y="-30466" xml:space="preserve" x="-26811" stroke-width="1" stroke="none" font-size="433.3333" font-family="sans-serif">N</text><text y="-28758" xml:space="preserve" x="-27796" stroke-width="1" stroke="none" font-size="433.3333" font-family="sans-serif">N</text></g><g transform="translate(32866,32758)" text-rendering="geometricPrecision" stroke-linejoin="round" stroke-linecap="round" font-style="italic" font-size="313.3333" font-family="sans-serif"><text y="-30200" xml:space="preserve" x="-24012" stroke="none">R</text></g></g></svg>