<svg width="216.18" viewBox="0 0 7206 6559" text-rendering="auto" stroke-width="1" stroke-opacity="1" stroke-miterlimit="10" stroke-linejoin="miter" stroke-linecap="square" stroke-dashoffset="0" stroke-dasharray="none" stroke="black" shape-rendering="auto" image-rendering="auto" height="196.77" font-weight="normal" font-style="normal" font-size="12" font-family="'Dialog'" fill-opacity="1" fill="black" color-rendering="auto" color-interpolation="auto" xmlns="http://www.w3.org/2000/svg"><g><g stroke="white" fill="white"><rect y="0" x="0" width="7206" stroke="none" height="6559"/></g><g transform="translate(32866,32758)" text-rendering="geometricPrecision" stroke-width="44" stroke-linejoin="round" stroke-linecap="round"><line y2="-28576" y1="-28007" x2="-27837" x1="-28825" fill="none"/><line y2="-28007" y1="-28576" x2="-26855" x1="-27837" fill="none"/><line y2="-29146" y1="-28576" x2="-28825" x1="-27837" fill="none"/><line y2="-28576" y1="-29146" x2="-27837" x1="-26855" fill="none"/><line y2="-26869" y1="-28007" x2="-28825" x1="-28825" fill="none"/><line y2="-28007" y1="-28576" x2="-28825" x1="-29810" fill="none"/><line y2="-27932" y1="-28360" x2="-29033" x1="-29772" fill="none"/><line y2="-27089" y1="-28007" x2="-26855" x1="-26855" fill="none"/><line y2="-30281" y1="-29146" x2="-28825" x1="-28825" fill="none"/><line y2="-29146" y1="-30281" x2="-26855" x1="-26855" fill="none"/><line y2="-26869" y1="-26869" x2="-28825" x1="-27042" fill="none"/><line y2="-26303" y1="-26869" x2="-29810" x1="-28825" fill="none"/><line y2="-26520" y1="-26947" x2="-29772" x1="-29033" fill="none"/><line y2="-28576" y1="-28007" x2="-29810" x1="-30795" fill="none"/><line y2="-30743" y1="-30281" x2="-28025" x1="-28825" fill="none"/><line y2="-30281" y1="-30743" x2="-26855" x1="-27649" fill="none"/><line y2="-26869" y1="-26303" x2="-30795" x1="-29810" fill="none"/><line y2="-28007" y1="-26869" x2="-30795" x1="-30795" fill="none"/><line y2="-27866" y1="-27014" x2="-30625" x1="-30625" fill="none"/><line y2="-31899" y1="-31070" x2="-27837" x1="-27837" fill="none"/><line y2="-28530" y1="-28007" x2="-31702" x1="-30795" fill="none"/><line y2="-28484" y1="-28068" x2="-26170" x1="-26889" fill="none"/><line y2="-28363" y1="-27947" x2="-26101" x1="-26820" fill="none"/><line y2="-32315" y1="-31899" x2="-28556" x1="-27837" fill="none"/><line y2="-31899" y1="-32315" x2="-29651" x1="-28932" fill="none"/><line y2="-32375" y1="-31959" x2="-27152" x1="-27872" fill="none"/><line y2="-32254" y1="-31838" x2="-27083" x1="-27802" fill="none"/><line y2="-28227" y1="-28530" x2="-32231" x1="-31702" fill="none"/><line y2="-29359" y1="-28530" x2="-31772" x1="-31772" fill="none"/><line y2="-29359" y1="-28530" x2="-31633" x1="-31633" fill="none"/><line y2="-32422" y1="-31899" x2="-30558" x1="-29651" fill="none"/><line y2="-30992" y1="-31899" x2="-30177" x1="-29651" fill="none"/><line y2="-30992" y1="-31899" x2="-29128" x1="-29651" fill="none"/><text y="-28351" xml:space="preserve" x="-26101" stroke="none" font-size="433.3333" font-family="sans-serif">O</text><text y="-27828" xml:space="preserve" x="-32762" stroke="none" font-size="433.3333" font-family="sans-serif">OH</text><text y="-29400" xml:space="preserve" x="-31855" stroke="none" font-size="433.3333" font-family="sans-serif">O</text><text y="-32242" xml:space="preserve" x="-28897" stroke="none" font-size="433.3333" font-family="sans-serif">O</text><text y="-32242" xml:space="preserve" x="-27083" stroke="none" font-size="433.3333" font-family="sans-serif">O</text><text y="-26690" xml:space="preserve" x="-27008" stroke="none" font-size="433.3333" font-family="sans-serif">NH</text><text y="-30671" xml:space="preserve" x="-27990" stroke="none" font-size="433.3333" font-family="sans-serif">N</text></g></g></svg>