<svg width="159.21" viewBox="0 0 5307 5387" text-rendering="auto" stroke-width="1" stroke-opacity="1" stroke-miterlimit="10" stroke-linejoin="miter" stroke-linecap="square" stroke-dashoffset="0" stroke-dasharray="none" stroke="black" shape-rendering="auto" image-rendering="auto" height="161.61" font-weight="normal" font-style="normal" font-size="12" font-family="'Dialog'" fill-opacity="1" fill="black" color-rendering="auto" color-interpolation="auto" xmlns="http://www.w3.org/2000/svg"><g><g stroke="white" fill="white"><rect y="0" x="0" width="5307" stroke="none" height="5387"/></g><g transform="translate(32866,32866)" text-rendering="geometricPrecision" stroke-width="44" stroke-linejoin="round" stroke-linecap="round"><line y2="-31041" y1="-30474" x2="-30119" x1="-29134" fill="none"/><line y2="-30474" y1="-31041" x2="-29134" x1="-28149" fill="none"/><line y2="-32179" y1="-31041" x2="-30119" x1="-30119" fill="none"/><line y2="-31041" y1="-31959" x2="-28149" x1="-28149" fill="none"/><line y2="-32748" y1="-32179" x2="-29134" x1="-30119" fill="none"/><line y2="-32289" y1="-32748" x2="-28337" x1="-29134" fill="none"/><line y2="-28903" y1="-29316" x2="-30041" x1="-29322" fill="none"/><line y2="-29316" y1="-28903" x2="-30760" x1="-30041" fill="none"/><line y2="-28903" y1="-29316" x2="-31855" x1="-31136" fill="none"/><line y2="-28074" y1="-28903" x2="-29972" x1="-29972" fill="none"/><line y2="-28074" y1="-28903" x2="-30110" x1="-30110" fill="none"/><line y2="-29426" y1="-28903" x2="-32762" x1="-31855" fill="none"/><line y2="-27996" y1="-28903" x2="-32378" x1="-31855" fill="none"/><line y2="-27996" y1="-28903" x2="-31332" x1="-31855" fill="none"/><polygon stroke-width="1" stroke="none" points=" -29134 -30474 -29065 -29645 -29203 -29645"/><polygon stroke-width="1" points=" -29134 -30474 -29065 -29645 -29203 -29645" fill="none"/><line y2="-32762" y1="-32644" x2="-30992" x1="-31061" fill="none"/><line y2="-32641" y1="-32548" x2="-30811" x1="-30866" fill="none"/><line y2="-32521" y1="-32452" x2="-30631" x1="-30671" fill="none"/><line y2="-32400" y1="-32356" x2="-30450" x1="-30477" fill="none"/><line y2="-32280" y1="-32259" x2="-30270" x1="-30282" fill="none"/><text y="-29247" xml:space="preserve" x="-29284" stroke="none" font-size="433.3333" font-family="sans-serif">NH</text><text y="-29247" xml:space="preserve" x="-31101" stroke="none" font-size="433.3333" font-family="sans-serif">O</text><text y="-27675" xml:space="preserve" x="-30191" stroke="none" font-size="433.3333" font-family="sans-serif">O</text><text y="-32000" xml:space="preserve" x="-28302" stroke="none" font-size="433.3333" font-family="sans-serif">NH</text><text y="-30596" xml:space="preserve" x="-29284" stroke="none" font-style="italic" font-size="313.3333" font-family="sans-serif">S</text><text y="-31855" xml:space="preserve" x="-30024" stroke="none" font-style="italic" font-size="313.3333" font-family="sans-serif">S</text></g></g></svg>