<svg width="270.06" viewBox="0 0 9002 4918" text-rendering="auto" stroke-width="1" stroke-opacity="1" stroke-miterlimit="10" stroke-linejoin="miter" stroke-linecap="square" stroke-dashoffset="0" stroke-dasharray="none" stroke="black" shape-rendering="auto" image-rendering="auto" height="147.54" font-weight="normal" font-style="normal" font-size="12" font-family="'Dialog'" fill-opacity="1" fill="black" color-rendering="auto" color-interpolation="auto" xmlns="http://www.w3.org/2000/svg"><g><g stroke="white" fill="white"><rect y="0" x="0" width="9002" stroke="none" height="4918"/></g><g transform="translate(32866,32758)" text-rendering="geometricPrecision" stroke-width="44" stroke-linejoin="round" stroke-linecap="round"><line y2="-30836" y1="-29697" x2="-27037" x1="-27037" fill="none"/><line y2="-31405" y1="-30836" x2="-26052" x1="-27037" fill="none"/><line y2="-31185" y1="-30758" x2="-26089" x1="-26829" fill="none"/><line y2="-29697" y1="-29128" x2="-27037" x1="-26052" fill="none"/><line y2="-29775" y1="-29348" x2="-26829" x1="-26089" fill="none"/><line y2="-30942" y1="-31405" x2="-25257" x1="-26052" fill="none"/><line y2="-29128" y1="-29697" x2="-26052" x1="-25066" fill="none"/><line y2="-29697" y1="-30616" x2="-25066" x1="-25066" fill="none"/><line y2="-29813" y1="-30500" x2="-25237" x1="-25237" fill="none"/><line y2="-31358" y1="-30836" x2="-27944" x1="-27037" fill="none"/><line y2="-30942" y1="-31358" x2="-28663" x1="-27944" fill="none"/><line y2="-29371" y1="-29697" x2="-24500" x1="-25066" fill="none"/><line y2="-31358" y1="-30942" x2="-29761" x1="-29042" fill="none"/><line y2="-29787" y1="-30616" x2="-28854" x1="-28854" fill="none"/><line y2="-29264" y1="-29787" x2="-29761" x1="-28854" fill="none"/><line y2="-30662" y1="-31358" x2="-30703" x1="-29761" fill="none"/><line y2="-30888" y1="-31408" x2="-30685" x1="-29978" fill="none"/><line y2="-31358" y1="-32422" x2="-29761" x1="-30087" fill="none"/><line y2="-31358" y1="-30662" x2="-31601" x1="-30703" fill="none"/><line y2="-32422" y1="-32422" x2="-30087" x1="-31046" fill="none"/><line y2="-32202" y1="-31358" x2="-31309" x1="-31601" fill="none"/><line y2="-31058" y1="-31292" x2="-32401" x1="-31584" fill="none"/><line y2="-31191" y1="-31425" x2="-32439" x1="-31621" fill="none"/><line y2="-29680" y1="-29264" x2="-30477" x1="-29761" fill="none"/><line y2="-28435" y1="-29264" x2="-29761" x1="-29761" fill="none"/><text y="-30656" xml:space="preserve" x="-29004" stroke="none" font-size="433.3333" font-family="sans-serif">N</text><text y="-29608" xml:space="preserve" x="-30818" stroke="none" font-size="433.3333" font-family="sans-serif">F</text><text y="-28036" xml:space="preserve" x="-29911" stroke="none" font-size="433.3333" font-family="sans-serif">F</text><text y="-30890" xml:space="preserve" x="-32762" stroke="none" font-size="433.3333" font-family="sans-serif">O</text><text y="-28995" xml:space="preserve" x="-24393" stroke="none" font-size="433.3333" font-family="sans-serif">Cl</text><text y="-32242" xml:space="preserve" x="-31387" stroke="none" font-size="433.3333" font-family="sans-serif">O</text><text y="-30656" xml:space="preserve" x="-25220" stroke="none" font-size="433.3333" font-family="sans-serif">N</text></g></g></svg>