<svg width="338.82" viewBox="0 0 11294 7874" text-rendering="auto" stroke-width="1" stroke-opacity="1" stroke-miterlimit="10" stroke-linejoin="miter" stroke-linecap="square" stroke-dashoffset="0" stroke-dasharray="none" stroke="black" shape-rendering="auto" image-rendering="auto" height="236.22" font-weight="normal" font-style="normal" font-size="12" font-family="'Dialog'" fill-opacity="1" fill="black" color-rendering="auto" color-interpolation="auto" xmlns="http://www.w3.org/2000/svg"><g><g stroke="white" fill="white"><rect y="0" x="0" width="11294" stroke="none" height="7874"/></g><g transform="translate(32866,32758)" text-rendering="geometricPrecision" stroke-width="44" stroke-linejoin="round" stroke-linecap="round"><line y2="-27510" y1="-28082" x2="-27773" x1="-26788" fill="none"/><line y2="-29229" y1="-28082" x2="-26788" x1="-26788" fill="none"/><line y2="-28082" y1="-28082" x2="-26788" x1="-24824" fill="none"/><line y2="-28082" y1="-27510" x2="-28756" x1="-27773" fill="none"/><line y2="-28158" y1="-27730" x2="-28548" x1="-27811" fill="none"/><line y2="-26364" y1="-27510" x2="-27773" x1="-27773" fill="none"/><line y2="-29804" y1="-29229" x2="-25806" x1="-26788" fill="none"/><line y2="-29229" y1="-29804" x2="-26788" x1="-27773" fill="none"/><line y2="-28082" y1="-29229" x2="-24824" x1="-24824" fill="none"/><line y2="-28082" y1="-27510" x2="-28756" x1="-29738" fill="none"/><line y2="-29229" y1="-28082" x2="-28756" x1="-28756" fill="none"/><line y2="-25792" y1="-26364" x2="-28756" x1="-27773" fill="none"/><line y2="-29229" y1="-29804" x2="-24824" x1="-25806" fill="none"/><line y2="-29804" y1="-29229" x2="-27773" x1="-28756" fill="none"/><line y2="-26364" y1="-27510" x2="-29738" x1="-29738" fill="none"/><line y2="-27510" y1="-28082" x2="-29738" x1="-30720" fill="none"/><line y2="-26364" y1="-25792" x2="-29738" x1="-28756" fill="none"/><line y2="-25792" y1="-26364" x2="-30720" x1="-29738" fill="none"/><line y2="-28082" y1="-27510" x2="-30720" x1="-31702" fill="none"/><line y2="-26364" y1="-25792" x2="-31702" x1="-30720" fill="none"/><line y2="-27510" y1="-26364" x2="-31702" x1="-31702" fill="none"/><line y2="-30850" y1="-29804" x2="-25806" x1="-25806" fill="none"/><line y2="-24988" y1="-25792" x2="-31393" x1="-30720" fill="none"/><line y2="-24988" y1="-25792" x2="-30047" x1="-30720" fill="none"/><line y2="-27580" y1="-28132" x2="-24223" x1="-24775" fill="none"/><line y2="-27482" y1="-28033" x2="-24321" x1="-24873" fill="none"/><line y2="-29585" y1="-29169" x2="-29510" x1="-28790" fill="none"/><line y2="-29706" y1="-29290" x2="-29440" x1="-28721" fill="none"/><line y2="-25887" y1="-26303" x2="-32387" x1="-31668" fill="none"/><line y2="-26008" y1="-26424" x2="-32456" x1="-31737" fill="none"/><line y2="-31376" y1="-30850" x2="-24899" x1="-25806" fill="none"/><line y2="-30850" y1="-31376" x2="-23992" x1="-24899" fill="none"/><line y2="-31376" y1="-30850" x2="-23085" x1="-23992" fill="none"/><line y2="-30960" y1="-31376" x2="-22365" x1="-23085" fill="none"/><line y2="-32202" y1="-31376" x2="-23157" x1="-23157" fill="none"/><line y2="-32202" y1="-31376" x2="-23015" x1="-23015" fill="none"/><polygon stroke-width="1" stroke="none" points=" -26788 -29229 -26858 -30278 -26722 -30278"/><polygon stroke-width="1" points=" -26788 -29229 -26858 -30278 -26722 -30278" fill="none"/><polygon stroke-width="1" stroke="none" points=" -29738 -27510 -29807 -28556 -29668 -28559"/><polygon stroke-width="1" points=" -29738 -27510 -29807 -28556 -29668 -28559" fill="none"/><polygon stroke-width="1" stroke="none" points=" -27773 -26364 -27019 -26008 -27086 -25887"/><polygon stroke-width="1" points=" -27773 -26364 -27019 -26008 -27086 -25887" fill="none"/><line y2="-27034" y1="-27037" x2="-26858" x1="-26722" fill="none"/><line y2="-27251" y1="-27253" x2="-26844" x1="-26736" fill="none"/><line y2="-27468" y1="-27470" x2="-26829" x1="-26749" fill="none"/><line y2="-27685" y1="-27686" x2="-26815" x1="-26763" fill="none"/><line y2="-27902" y1="-27902" x2="-26800" x1="-26777" fill="none"/><line y2="-25534" y1="-25534" x2="-29807" x1="-29668" fill="none"/><line y2="-25751" y1="-25751" x2="-29789" x1="-29686" fill="none"/><line y2="-25967" y1="-25967" x2="-29771" x1="-29705" fill="none"/><line y2="-26184" y1="-26184" x2="-29753" x1="-29723" fill="none"/><line y2="-30160" y1="-30278" x2="-25052" x1="-25121" fill="none"/><line y2="-30067" y1="-30154" x2="-25249" x1="-25300" fill="none"/><line y2="-29974" y1="-30031" x2="-25445" x1="-25478" fill="none"/><line y2="-29881" y1="-29907" x2="-25642" x1="-25657" fill="none"/><line y2="-31434" y1="-31315" x2="-26678" x1="-26748" fill="none"/><line y2="-31313" y1="-31219" x2="-26498" x1="-26553" fill="none"/><line y2="-31192" y1="-31123" x2="-26317" x1="-26358" fill="none"/><line y2="-31072" y1="-31027" x2="-26137" x1="-26164" fill="none"/><line y2="-30951" y1="-30930" x2="-25957" x1="-25969" fill="none"/><text y="-27164" xml:space="preserve" x="-24237" stroke="none" font-size="433.3333" font-family="sans-serif">O</text><text y="-25662" xml:space="preserve" x="-27019" stroke="none" font-size="433.3333" font-family="sans-serif">OH</text><text y="-30671" xml:space="preserve" x="-22331" stroke="none" font-size="433.3333" font-family="sans-serif">OH</text><text y="-32242" xml:space="preserve" x="-23238" stroke="none" font-size="433.3333" font-family="sans-serif">O</text><text y="-29576" xml:space="preserve" x="-29816" stroke="none" font-size="433.3333" font-family="sans-serif">O</text><text y="-25662" xml:space="preserve" x="-32762" stroke="none" font-size="433.3333" font-family="sans-serif">O</text><text y="-25139" xml:space="preserve" x="-29891" stroke="none" font-size="433.3333" font-family="sans-serif">H</text><text y="-30148" xml:space="preserve" x="-25052" stroke="none" font-size="433.3333" font-family="sans-serif">H</text><text y="-30526" xml:space="preserve" x="-25711" stroke="none" font-style="italic" font-size="313.3333" font-family="sans-serif">R</text><text y="-28048" xml:space="preserve" x="-27190" stroke="none" font-style="italic" font-size="313.3333" font-family="sans-serif">R</text><text y="-28906" xml:space="preserve" x="-26693" stroke="none" font-style="italic" font-size="313.3333" font-family="sans-serif">R</text><text y="-26329" xml:space="preserve" x="-28172" stroke="none" font-style="italic" font-size="313.3333" font-family="sans-serif">S</text><text y="-29322" xml:space="preserve" x="-25959" stroke="none" font-style="italic" font-size="313.3333" font-family="sans-serif">R</text><text y="-27187" xml:space="preserve" x="-29642" stroke="none" font-style="italic" font-size="313.3333" font-family="sans-serif">S</text><text y="-26329" xml:space="preserve" x="-30139" stroke="none" font-style="italic" font-size="313.3333" font-family="sans-serif">R</text></g></g></svg>