<svg width="266.4" viewBox="0 0 8880 3944" text-rendering="auto" stroke-width="1" stroke-opacity="1" stroke-miterlimit="10" stroke-linejoin="miter" stroke-linecap="square" stroke-dashoffset="0" stroke-dasharray="none" stroke="black" shape-rendering="auto" image-rendering="auto" height="118.32" font-weight="normal" font-style="normal" font-size="12" font-family="'Dialog'" fill-opacity="1" fill="black" color-rendering="auto" color-interpolation="auto" xmlns="http://www.w3.org/2000/svg"><g><g stroke="white" fill="white"><rect y="0" x="0" width="8880" stroke="none" height="3944"/></g><g transform="translate(32866,32758)" text-rendering="geometricPrecision" stroke-width="44" stroke-linejoin="round" stroke-linecap="round"><line y2="-30850" y1="-31376" x2="-28975" x1="-29882" fill="none"/><line y2="-31376" y1="-30850" x2="-28068" x1="-28975" fill="none"/><line y2="-31188" y1="-30795" x2="-28114" x1="-28793" fill="none"/><line y2="-30850" y1="-31376" x2="-27161" x1="-28068" fill="none"/><line y2="-30850" y1="-31376" x2="-30792" x1="-29882" fill="none"/><line y2="-32202" y1="-31376" x2="-29954" x1="-29954" fill="none"/><line y2="-32202" y1="-31376" x2="-29813" x1="-29813" fill="none"/><line y2="-30850" y1="-29715" x2="-27161" x1="-27161" fill="none"/><line y2="-30708" y1="-29856" x2="-26990" x1="-26990" fill="none"/><line y2="-31419" y1="-30850" x2="-26176" x1="-27161" fill="none"/><line y2="-29715" y1="-29146" x2="-27161" x1="-26176" fill="none"/><line y2="-30850" y1="-31419" x2="-25191" x1="-26176" fill="none"/><line y2="-30775" y1="-31202" x2="-25399" x1="-26138" fill="none"/><line y2="-29146" y1="-29715" x2="-26176" x1="-25191" fill="none"/><line y2="-29362" y1="-29790" x2="-26138" x1="-25399" fill="none"/><line y2="-29715" y1="-30850" x2="-25191" x1="-25191" fill="none"/><line y2="-29385" y1="-29715" x2="-24624" x1="-25191" fill="none"/><line y2="-30850" y1="-31419" x2="-30792" x1="-31774" fill="none"/><line y2="-30775" y1="-31202" x2="-30997" x1="-31737" fill="none"/><line y2="-29715" y1="-30850" x2="-30792" x1="-30792" fill="none"/><line y2="-31419" y1="-30850" x2="-31774" x1="-32762" fill="none"/><line y2="-29146" y1="-29715" x2="-31774" x1="-30792" fill="none"/><line y2="-29362" y1="-29790" x2="-31737" x1="-30997" fill="none"/><line y2="-30850" y1="-29715" x2="-32762" x1="-32762" fill="none"/><line y2="-30708" y1="-29856" x2="-32592" x1="-32592" fill="none"/><line y2="-29715" y1="-29146" x2="-32762" x1="-31774" fill="none"/><text y="-32242" xml:space="preserve" x="-30035" stroke="none" font-size="433.3333" font-family="sans-serif">O</text><text y="-29010" xml:space="preserve" x="-24515" stroke="none" font-size="433.3333" font-family="sans-serif">Cl</text></g></g></svg>