<svg width="212.04" viewBox="0 0 7068 4306" text-rendering="auto" stroke-width="1" stroke-opacity="1" stroke-miterlimit="10" stroke-linejoin="miter" stroke-linecap="square" stroke-dashoffset="0" stroke-dasharray="none" stroke="black" shape-rendering="auto" image-rendering="auto" height="129.18" font-weight="normal" font-style="normal" font-size="12" font-family="'Dialog'" fill-opacity="1" fill="black" color-rendering="auto" color-interpolation="auto" xmlns="http://www.w3.org/2000/svg"><g><g stroke="white" fill="white"><rect y="0" x="0" width="7068" stroke="none" height="4306"/></g><g transform="translate(32866,32758)" text-rendering="geometricPrecision" stroke-width="44" stroke-linejoin="round" stroke-linecap="round"><line y2="-28556" y1="-29495" x2="-31162" x1="-30838" fill="none"/><line y2="-29859" y1="-30324" x2="-30951" x1="-31552" fill="none"/><line y2="-28556" y1="-28556" x2="-32407" x1="-31162" fill="none"/><line y2="-28727" y1="-28727" x2="-32251" x1="-31318" fill="none"/><line y2="-30330" y1="-29715" x2="-31928" x1="-32762" fill="none"/><line y2="-30116" y1="-29654" x2="-31930" x1="-32557" fill="none"/><line y2="-29715" y1="-28556" x2="-32762" x1="-32407" fill="none"/><line y2="-30238" y1="-29822" x2="-29856" x1="-30573" fill="none"/><line y2="-30238" y1="-29668" x2="-29856" x1="-28871" fill="none"/><line y2="-30313" y1="-29885" x2="-29648" x1="-28909" fill="none"/><line y2="-31156" y1="-30238" x2="-29856" x1="-29856" fill="none"/><line y2="-29668" y1="-30238" x2="-28871" x1="-27886" fill="none"/><line y2="-31945" y1="-31483" x2="-28871" x1="-29666" fill="none"/><line y2="-31740" y1="-31393" x2="-28886" x1="-29484" fill="none"/><line y2="-30238" y1="-31376" x2="-27886" x1="-27886" fill="none"/><line y2="-30379" y1="-31231" x2="-28054" x1="-28054" fill="none"/><line y2="-31376" y1="-31945" x2="-27886" x1="-28871" fill="none"/><line y2="-31899" y1="-31376" x2="-26976" x1="-27886" fill="none"/><line y2="-32315" y1="-31899" x2="-26260" x1="-26976" fill="none"/><line y2="-32393" y1="-31977" x2="-26303" x1="-27022" fill="none"/><line y2="-32237" y1="-31821" x2="-26213" x1="-26933" fill="none"/><text y="-32242" xml:space="preserve" x="-26222" stroke="none" font-size="433.3333" font-family="sans-serif">N</text><text y="-31197" xml:space="preserve" x="-30006" stroke="none" font-size="433.3333" font-family="sans-serif">N</text><text y="-29536" xml:space="preserve" x="-30914" stroke="none" font-size="433.3333" font-family="sans-serif">N</text><text y="-30290" xml:space="preserve" x="-31893" stroke="none" font-size="433.3333" font-family="sans-serif">N</text></g></g></svg>