<svg width="189.84" viewBox="0 0 6328 7827" text-rendering="auto" stroke-width="1" stroke-opacity="1" stroke-miterlimit="10" stroke-linejoin="miter" stroke-linecap="square" stroke-dashoffset="0" stroke-dasharray="none" stroke="black" shape-rendering="auto" image-rendering="auto" height="234.81" font-weight="normal" font-style="normal" font-size="12" font-family="'Dialog'" fill-opacity="1" fill="black" color-rendering="auto" color-interpolation="auto" xmlns="http://www.w3.org/2000/svg"><g><g stroke="white" fill="white"><rect y="0" x="0" width="6328" stroke="none" height="7827"/></g><g transform="translate(32866,32758)" text-rendering="geometricPrecision" stroke-width="44" stroke-linejoin="round" stroke-linecap="round"><line y2="-31514" y1="-32084" x2="-27892" x1="-28874" fill="none"/><line y2="-30379" y1="-31514" x2="-27892" x1="-27892" fill="none"/><line y2="-32084" y1="-31514" x2="-28874" x1="-29862" fill="none"/><line y2="-29810" y1="-30379" x2="-28874" x1="-27892" fill="none"/><line y2="-31514" y1="-30379" x2="-29862" x1="-29862" fill="none"/><line y2="-30379" y1="-29810" x2="-29862" x1="-28874" fill="none"/><line y2="-30379" y1="-29853" x2="-31676" x1="-30769" fill="none"/><line y2="-29853" y1="-30379" x2="-32583" x1="-31676" fill="none"/><line y2="-26967" y1="-25829" x2="-31543" x1="-31543" fill="none"/><line y2="-27536" y1="-26967" x2="-30555" x1="-31543" fill="none"/><line y2="-25829" y1="-25260" x2="-31543" x1="-30555" fill="none"/><line y2="-26967" y1="-27536" x2="-29573" x1="-30555" fill="none"/><line y2="-25260" y1="-25829" x2="-30555" x1="-29573" fill="none"/><line y2="-25829" y1="-26967" x2="-29573" x1="-29573" fill="none"/><line y2="-25815" y1="-25410" x2="-27750" x1="-28478" fill="none"/><line y2="-25292" y1="-25815" x2="-26843" x1="-27750" fill="none"/><polygon stroke-width="1" stroke="none" points=" -29862 -30379 -30734 -29796 -30804 -29914"/><polygon stroke-width="1" points=" -29862 -30379 -30734 -29796 -30804 -29914" fill="none"/><polygon stroke-width="1" stroke="none" points=" -27892 -31514 -27554 -32237 -27435 -32167"/><polygon stroke-width="1" points=" -27892 -31514 -27554 -32237 -27435 -32167" fill="none"/><polygon stroke-width="1" stroke="none" points=" -29573 -25829 -28819 -25474 -28888 -25355"/><polygon stroke-width="1" points=" -29573 -25829 -28819 -25474 -28888 -25355" fill="none"/><polygon stroke-width="1" stroke="none" points=" -31543 -26967 -31613 -27794 -31474 -27796"/><polygon stroke-width="1" points=" -31543 -26967 -31613 -27794 -31474 -27796" fill="none"/><line y2="-31127" y1="-31246" x2="-27357" x1="-27288" fill="none"/><line y2="-31255" y1="-31334" x2="-27533" x1="-27487" fill="none"/><line y2="-31382" y1="-31423" x2="-27710" x1="-27686" fill="none"/><line y2="-31510" y1="-31511" x2="-27886" x1="-27886" fill="none"/><line y2="-27346" y1="-27224" x2="-32086" x1="-32153" fill="none"/><line y2="-27221" y1="-27139" x2="-31907" x1="-31952" fill="none"/><line y2="-27097" y1="-27055" x2="-31729" x1="-31752" fill="none"/><line y2="-26972" y1="-26970" x2="-31550" x1="-31551" fill="none"/><text y="-32242" xml:space="preserve" x="-27519" stroke="none" font-size="433.3333" font-family="sans-serif">H</text><text y="-30812" xml:space="preserve" x="-27288" stroke="none" font-size="433.3333" font-family="sans-serif">@1</text><text y="-25127" xml:space="preserve" x="-28816" stroke="none" font-size="433.3333" font-family="sans-serif">O</text><text y="-27837" xml:space="preserve" x="-31696" stroke="none" font-size="433.3333" font-family="sans-serif">H</text><text y="-27297" xml:space="preserve" x="-32762" stroke="none" font-size="433.3333" font-family="sans-serif">@1</text></g></g></svg>