<svg width="342.15" viewBox="0 0 11405 4774" text-rendering="auto" stroke-width="1" stroke-opacity="1" stroke-miterlimit="10" stroke-linejoin="miter" stroke-linecap="square" stroke-dashoffset="0" stroke-dasharray="none" stroke="black" shape-rendering="auto" image-rendering="auto" height="143.22" font-weight="normal" font-style="normal" font-size="12" font-family="'Dialog'" fill-opacity="1" fill="black" color-rendering="auto" color-interpolation="auto" xmlns="http://www.w3.org/2000/svg"><g><g stroke="white" fill="white"><rect y="0" x="0" width="11405" stroke="none" height="4774"/></g><g transform="translate(32866,32758)" text-rendering="geometricPrecision" stroke-width="44" stroke-linejoin="round" stroke-linecap="round"><line y2="-29902" y1="-30318" x2="-25537" x1="-26257" fill="none"/><line y2="-30318" y1="-29902" x2="-24442" x1="-25162" fill="none"/><line y2="-29796" y1="-30318" x2="-23535" x1="-24442" fill="none"/><line y2="-29796" y1="-30318" x2="-27164" x1="-26257" fill="none"/><line y2="-30318" y1="-29796" x2="-28071" x1="-27164" fill="none"/><line y2="-29902" y1="-30318" x2="-28790" x1="-28071" fill="none"/><line y2="-30318" y1="-29902" x2="-29885" x1="-29166" fill="none"/><line y2="-29796" y1="-30318" x2="-30792" x1="-29885" fill="none"/><line y2="-31867" y1="-30318" x2="-26257" x1="-26257" fill="none"/><line y2="-32393" y1="-31867" x2="-27164" x1="-26257" fill="none"/><line y2="-31884" y1="-32393" x2="-28080" x1="-27164" fill="none"/><line y2="-32407" y1="-31884" x2="-28987" x1="-28080" fill="none"/><line y2="-31899" y1="-32407" x2="-29902" x1="-28987" fill="none"/><line y2="-29796" y1="-28657" x2="-23535" x1="-23535" fill="none"/><line y2="-29654" y1="-28799" x2="-23365" x1="-23365" fill="none"/><line y2="-30365" y1="-29796" x2="-22547" x1="-23535" fill="none"/><line y2="-28657" y1="-28088" x2="-23535" x1="-22547" fill="none"/><line y2="-29796" y1="-30365" x2="-21565" x1="-22547" fill="none"/><line y2="-29718" y1="-30145" x2="-21773" x1="-22510" fill="none"/><line y2="-28088" y1="-28657" x2="-22547" x1="-21565" fill="none"/><line y2="-28308" y1="-28732" x2="-22510" x1="-21773" fill="none"/><line y2="-28657" y1="-29796" x2="-21565" x1="-21565" fill="none"/><line y2="-29796" y1="-30365" x2="-30792" x1="-31777" fill="none"/><line y2="-29718" y1="-30145" x2="-31000" x1="-31740" fill="none"/><line y2="-28657" y1="-29796" x2="-30792" x1="-30792" fill="none"/><line y2="-30365" y1="-29796" x2="-31777" x1="-32762" fill="none"/><line y2="-28088" y1="-28657" x2="-31777" x1="-30792" fill="none"/><line y2="-28308" y1="-28732" x2="-31740" x1="-31000" fill="none"/><line y2="-29796" y1="-28657" x2="-32762" x1="-32762" fill="none"/><line y2="-29654" y1="-28799" x2="-32592" x1="-32592" fill="none"/><line y2="-28657" y1="-28088" x2="-32762" x1="-31777" fill="none"/><line y2="-32202" y1="-31899" x2="-30431" x1="-29902" fill="none"/><line y2="-31070" y1="-31899" x2="-29833" x1="-29833" fill="none"/><line y2="-31070" y1="-31899" x2="-29972" x1="-29972" fill="none"/><text y="-29616" xml:space="preserve" x="-25503" stroke="none" font-size="433.3333" font-family="sans-serif">S</text><text y="-29616" xml:space="preserve" x="-29131" stroke="none" font-size="433.3333" font-family="sans-serif">S</text><text y="-32242" xml:space="preserve" x="-30963" stroke="none" font-size="433.3333" font-family="sans-serif">OH</text><text y="-30671" xml:space="preserve" x="-30056" stroke="none" font-size="433.3333" font-family="sans-serif">O</text></g></g></svg>