<svg width="402.12" viewBox="0 0 13404 5605" text-rendering="auto" stroke-width="1" stroke-opacity="1" stroke-miterlimit="10" stroke-linejoin="miter" stroke-linecap="square" stroke-dashoffset="0" stroke-dasharray="none" stroke="black" shape-rendering="auto" image-rendering="auto" height="168.15" font-weight="normal" font-style="normal" font-size="12" font-family="'Dialog'" fill-opacity="1" fill="black" color-rendering="auto" color-interpolation="auto" xmlns="http://www.w3.org/2000/svg"><g><g stroke="white" fill="white"><rect y="0" x="0" width="13404" stroke="none" height="5605"/></g><g transform="translate(32866,32758)" text-rendering="geometricPrecision" stroke-width="44" stroke-linejoin="round" stroke-linecap="round"><line y2="-29787" y1="-30850" x2="-31289" x1="-30919" fill="none"/><line y2="-30850" y1="-31546" x2="-30919" x1="-31821" fill="none"/><line y2="-29787" y1="-29787" x2="-32433" x1="-31289" fill="none"/><line y2="-31546" y1="-30850" x2="-31821" x1="-32762" fill="none"/><line y2="-30850" y1="-29787" x2="-32762" x1="-32433" fill="none"/><line y2="-30850" y1="-31376" x2="-29105" x1="-30012" fill="none"/><line y2="-32202" y1="-31416" x2="-30082" x1="-30082" fill="none"/><line y2="-32202" y1="-31376" x2="-29943" x1="-29943" fill="none"/><line y2="-28452" y1="-29281" x2="-30373" x1="-30373" fill="none"/><line y2="-29755" y1="-29359" x2="-29689" x1="-30373" fill="none"/><line y2="-29634" y1="-29218" x2="-29619" x1="-30339" fill="none"/><line y2="-30850" y1="-29715" x2="-29105" x1="-29105" fill="none"/><line y2="-30708" y1="-29856" x2="-28935" x1="-28935" fill="none"/><line y2="-31419" y1="-30850" x2="-28117" x1="-29105" fill="none"/><line y2="-29715" y1="-29146" x2="-29105" x1="-28117" fill="none"/><line y2="-30850" y1="-31419" x2="-27135" x1="-28117" fill="none"/><line y2="-30775" y1="-31202" x2="-27343" x1="-28080" fill="none"/><line y2="-29146" y1="-29715" x2="-28117" x1="-27135" fill="none"/><line y2="-29362" y1="-29790" x2="-28080" x1="-27343" fill="none"/><line y2="-29715" y1="-30850" x2="-27135" x1="-27135" fill="none"/><line y2="-29189" y1="-29715" x2="-26228" x1="-27135" fill="none"/><line y2="-29189" y1="-28054" x2="-26228" x1="-26228" fill="none"/><line y2="-29047" y1="-28195" x2="-26057" x1="-26057" fill="none"/><line y2="-29758" y1="-29189" x2="-25240" x1="-26228" fill="none"/><line y2="-28054" y1="-27484" x2="-26228" x1="-25240" fill="none"/><line y2="-29189" y1="-29758" x2="-24258" x1="-25240" fill="none"/><line y2="-29114" y1="-29541" x2="-24466" x1="-25202" fill="none"/><line y2="-27484" y1="-28054" x2="-25240" x1="-24258" fill="none"/><line y2="-27701" y1="-28129" x2="-25202" x1="-24466" fill="none"/><line y2="-28054" y1="-29189" x2="-24258" x1="-24258" fill="none"/><line y2="-27638" y1="-28054" x2="-23538" x1="-24258" fill="none"/><line y2="-28054" y1="-27747" x2="-22443" x1="-22972" fill="none"/><line y2="-28880" y1="-28054" x2="-22443" x1="-22443" fill="none"/><line y2="-29625" y1="-29319" x2="-21536" x1="-22065" fill="none"/><line y2="-27698" y1="-28114" x2="-21689" x1="-22409" fill="none"/><line y2="-27577" y1="-27990" x2="-21759" x1="-22478" fill="none"/><line y2="-30760" y1="-29625" x2="-21536" x1="-21536" fill="none"/><line y2="-30619" y1="-29767" x2="-21366" x1="-21366" fill="none"/><line y2="-29625" y1="-29056" x2="-21536" x1="-20554" fill="none"/><line y2="-31330" y1="-30760" x2="-20554" x1="-21536" fill="none"/><line y2="-29056" y1="-29625" x2="-20554" x1="-19566" fill="none"/><line y2="-29273" y1="-29700" x2="-20514" x1="-19774" fill="none"/><line y2="-30760" y1="-31330" x2="-19566" x1="-20554" fill="none"/><line y2="-30685" y1="-31113" x2="-19774" x1="-20514" fill="none"/><line y2="-29625" y1="-30760" x2="-19566" x1="-19566" fill="none"/><polygon stroke-width="1" stroke="none" points=" -30919 -30850 -30047 -31434 -29978 -31315"/><polygon stroke-width="1" points=" -30919 -30850 -30047 -31434 -29978 -31315" fill="none"/><line y2="-29218" y1="-29339" x2="-30405" x1="-30339" fill="none"/><line y2="-29336" y1="-29432" x2="-30588" x1="-30535" fill="none"/><line y2="-29453" y1="-29524" x2="-30770" x1="-30732" fill="none"/><line y2="-29571" y1="-29617" x2="-30953" x1="-30928" fill="none"/><line y2="-29688" y1="-29709" x2="-31136" x1="-31124" fill="none"/><text y="-32242" xml:space="preserve" x="-30165" stroke="none" font-size="433.3333" font-family="sans-serif">O</text><text y="-28054" xml:space="preserve" x="-30524" stroke="none" font-size="433.3333" font-family="sans-serif">OH</text><text y="-29625" xml:space="preserve" x="-29616" stroke="none" font-size="433.3333" font-family="sans-serif">O</text><text y="-27349" xml:space="preserve" x="-23504" stroke="none" font-size="433.3333" font-family="sans-serif">NH</text><text y="-28920" xml:space="preserve" x="-22596" stroke="none" font-size="433.3333" font-family="sans-serif">NH</text><text y="-27349" xml:space="preserve" x="-21689" stroke="none" font-size="433.3333" font-family="sans-serif">O</text><text y="-30576" xml:space="preserve" x="-31341" stroke="none" font-style="italic" font-size="313.3333" font-family="sans-serif">R</text><text y="-29894" xml:space="preserve" x="-31673" stroke="none" font-style="italic" font-size="313.3333" font-family="sans-serif">R</text></g></g></svg>