<svg width="445.77" viewBox="0 0 14859 7180" text-rendering="auto" stroke-width="1" stroke-opacity="1" stroke-miterlimit="10" stroke-linejoin="miter" stroke-linecap="square" stroke-dashoffset="0" stroke-dasharray="none" stroke="black" shape-rendering="auto" image-rendering="auto" height="215.4" font-weight="normal" font-style="normal" font-size="12" font-family="'Dialog'" fill-opacity="1" fill="black" color-rendering="auto" color-interpolation="auto" xmlns="http://www.w3.org/2000/svg"><g><g stroke="white" fill="white"><rect y="0" x="0" width="14859" stroke="none" height="7180"/></g><g transform="translate(32866,32758)" text-rendering="geometricPrecision" stroke-width="44" stroke-linejoin="round" stroke-linecap="round"><line y2="-28709" y1="-29276" x2="-24214" x1="-25196" fill="none"/><line y2="-28631" y1="-29059" x2="-24419" x1="-25159" fill="none"/><line y2="-27571" y1="-28709" x2="-24214" x1="-24214" fill="none"/><line y2="-29276" y1="-28709" x2="-25196" x1="-26184" fill="none"/><line y2="-27002" y1="-27571" x2="-25196" x1="-24214" fill="none"/><line y2="-27219" y1="-27646" x2="-25159" x1="-24419" fill="none"/><line y2="-28709" y1="-27571" x2="-26184" x1="-26184" fill="none"/><line y2="-28565" y1="-27713" x2="-26014" x1="-26014" fill="none"/><line y2="-27571" y1="-27002" x2="-26184" x1="-25196" fill="none"/><line y2="-29232" y1="-28709" x2="-23304" x1="-24214" fill="none"/><line y2="-30324" y1="-29276" x2="-25196" x1="-25196" fill="none"/><line y2="-27155" y1="-27571" x2="-23495" x1="-24214" fill="none"/><line y2="-26173" y1="-27002" x2="-25196" x1="-25196" fill="none"/><line y2="-28709" y1="-29232" x2="-22397" x1="-23304" fill="none"/><line y2="-28654" y1="-29047" x2="-22582" x1="-23261" fill="none"/><line y2="-30847" y1="-30324" x2="-26104" x1="-25196" fill="none"/><line y2="-30662" y1="-30269" x2="-26060" x1="-25378" fill="none"/><line y2="-29232" y1="-28709" x2="-21490" x1="-22397" fill="none"/><line y2="-31896" y1="-30847" x2="-26104" x1="-26104" fill="none"/><line y2="-30370" y1="-29232" x2="-21490" x1="-21490" fill="none"/><line y2="-30226" y1="-29374" x2="-21322" x1="-21322" fill="none"/><line y2="-29232" y1="-28663" x2="-21490" x1="-20505" fill="none"/><line y2="-30937" y1="-30370" x2="-20505" x1="-21490" fill="none"/><line y2="-28663" y1="-29232" x2="-20505" x1="-19520" fill="none"/><line y2="-28880" y1="-29307" x2="-20467" x1="-19728" fill="none"/><line y2="-30370" y1="-30937" x2="-19520" x1="-20505" fill="none"/><line y2="-30292" y1="-30720" x2="-19728" x1="-20467" fill="none"/><line y2="-29232" y1="-30370" x2="-19520" x1="-19520" fill="none"/><line y2="-31766" y1="-30937" x2="-20505" x1="-20505" fill="none"/><line y2="-30784" y1="-30370" x2="-18800" x1="-19520" fill="none"/><line y2="-32312" y1="-31896" x2="-26823" x1="-26104" fill="none"/><line y2="-31896" y1="-32312" x2="-27918" x1="-27198" fill="none"/><line y2="-32372" y1="-31956" x2="-25419" x1="-26138" fill="none"/><line y2="-32251" y1="-31835" x2="-25350" x1="-26069" fill="none"/><line y2="-32422" y1="-31896" x2="-28825" x1="-27918" fill="none"/><line y2="-31896" y1="-32422" x2="-29732" x1="-28825" fill="none"/><line y2="-30758" y1="-31896" x2="-29732" x1="-29732" fill="none"/><line y2="-30902" y1="-31754" x2="-29902" x1="-29902" fill="none"/><line y2="-31896" y1="-32465" x2="-29732" x1="-30720" fill="none"/><line y2="-30191" y1="-30758" x2="-30720" x1="-29732" fill="none"/><line y2="-32465" y1="-31896" x2="-30720" x1="-31702" fill="none"/><line y2="-32248" y1="-31821" x2="-30758" x1="-31494" fill="none"/><line y2="-30758" y1="-30191" x2="-31702" x1="-30720" fill="none"/><line y2="-30836" y1="-30408" x2="-31494" x1="-30758" fill="none"/><line y2="-31896" y1="-30758" x2="-31702" x1="-31702" fill="none"/><line y2="-29362" y1="-30191" x2="-30720" x1="-30720" fill="none"/><line y2="-30454" y1="-30758" x2="-32231" x1="-31702" fill="none"/><line y2="-30544" y1="-30847" x2="-28446" x1="-27918" fill="none"/><line y2="-30495" y1="-30888" x2="-27164" x1="-27848" fill="none"/><line y2="-30373" y1="-30786" x2="-27233" x1="-27952" fill="none"/><polygon stroke-width="1" stroke="none" points=" -27918 -31896 -27848 -30847 -27987 -30847"/><polygon stroke-width="1" points=" -27918 -31896 -27848 -30847 -27987 -30847" fill="none"/><text y="-32242" xml:space="preserve" x="-27164" stroke-width="1" stroke="none" font-size="433.3333" font-family="sans-serif">O</text><text y="-32242" xml:space="preserve" x="-25350" stroke-width="1" stroke="none" font-size="433.3333" font-family="sans-serif">O</text><text y="-30145" xml:space="preserve" x="-28978" stroke-width="1" stroke="none" font-size="433.3333" font-family="sans-serif">OH</text><text y="-30145" xml:space="preserve" x="-27164" stroke-width="1" stroke="none" font-size="433.3333" font-family="sans-serif">O</text><text y="-26869" xml:space="preserve" x="-23457" stroke-width="1" stroke="none" font-size="433.3333" font-family="sans-serif">OH</text><text y="-25774" xml:space="preserve" x="-25350" stroke-width="1" stroke="none" font-size="433.3333" font-family="sans-serif">OH</text><text y="-31806" xml:space="preserve" x="-20658" stroke-width="1" stroke="none" font-size="433.3333" font-family="sans-serif">OH</text><text y="-30714" xml:space="preserve" x="-18766" stroke-width="1" stroke="none" font-size="433.3333" font-family="sans-serif">OH</text><text y="-28964" xml:space="preserve" x="-30870" stroke-width="1" stroke="none" font-size="433.3333" font-family="sans-serif">OH</text><text y="-30056" xml:space="preserve" x="-32762" stroke-width="1" stroke="none" font-size="433.3333" font-family="sans-serif">OH</text></g><g transform="translate(32866,32758)" text-rendering="geometricPrecision" stroke-linejoin="round" stroke-linecap="round" font-style="italic" font-size="313.3333" font-family="sans-serif"><text y="-29180" xml:space="preserve" x="-22790" stroke="none">E</text><text y="-30795" xml:space="preserve" x="-25578" stroke="none">E</text><text y="-32020" xml:space="preserve" x="-28071" stroke="none">R</text></g></g></svg>