<svg width="257.7" viewBox="0 0 8590 6074" text-rendering="auto" stroke-width="1" stroke-opacity="1" stroke-miterlimit="10" stroke-linejoin="miter" stroke-linecap="square" stroke-dashoffset="0" stroke-dasharray="none" stroke="black" shape-rendering="auto" image-rendering="auto" height="182.22" font-weight="normal" font-style="normal" font-size="12" font-family="'Dialog'" fill-opacity="1" fill="black" color-rendering="auto" color-interpolation="auto" xmlns="http://www.w3.org/2000/svg"><g><g stroke="white" fill="white"><rect y="0" x="0" width="8590" stroke="none" height="6074"/></g><g transform="translate(32866,32866)" text-rendering="geometricPrecision" stroke-width="44" stroke-linejoin="round" stroke-linecap="round"><line y2="-29440" y1="-28871" x2="-28744" x1="-29732" fill="none"/><line y2="-28871" y1="-29440" x2="-27762" x1="-28744" fill="none"/><line y2="-28796" y1="-29224" x2="-27970" x1="-28706" fill="none"/><line y2="-27733" y1="-28871" x2="-29732" x1="-29732" fill="none"/><line y2="-28871" y1="-29440" x2="-29732" x1="-30714" fill="none"/><line y2="-28796" y1="-29224" x2="-29940" x1="-30677" fill="none"/><line y2="-27733" y1="-28871" x2="-27762" x1="-27762" fill="none"/><line y2="-29440" y1="-28871" x2="-26774" x1="-27762" fill="none"/><line y2="-27733" y1="-27274" x2="-29732" x1="-28932" fill="none"/><line y2="-27167" y1="-27733" x2="-30714" x1="-29732" fill="none"/><line y2="-27383" y1="-27811" x2="-30677" x1="-29940" fill="none"/><line y2="-29440" y1="-28871" x2="-30714" x1="-31702" fill="none"/><line y2="-27274" y1="-27733" x2="-28556" x1="-27762" fill="none"/><line y2="-27733" y1="-27167" x2="-27762" x1="-26774" fill="none"/><line y2="-27811" y1="-27383" x2="-27554" x1="-26811" fill="none"/><line y2="-28871" y1="-29440" x2="-25789" x1="-26774" fill="none"/><line y2="-28796" y1="-29224" x2="-25997" x1="-26736" fill="none"/><line y2="-27733" y1="-27167" x2="-31702" x1="-30714" fill="none"/><line y2="-28871" y1="-27733" x2="-31702" x1="-31702" fill="none"/><line y2="-28730" y1="-27877" x2="-31532" x1="-31532" fill="none"/><line y2="-27167" y1="-27733" x2="-26774" x1="-25789" fill="none"/><line y2="-27733" y1="-28871" x2="-25789" x1="-25789" fill="none"/><line y2="-30489" y1="-29440" x2="-28744" x1="-28744" fill="none"/><line y2="-29174" y1="-28871" x2="-32231" x1="-31702" fill="none"/><line y2="-29287" y1="-28871" x2="-25069" x1="-25789" fill="none"/><line y2="-27430" y1="-27733" x2="-32231" x1="-31702" fill="none"/><line y2="-27380" y1="-27794" x2="-25035" x1="-25754" fill="none"/><line y2="-27256" y1="-27672" x2="-25107" x1="-25826" fill="none"/><line y2="-31055" y1="-30489" x2="-29732" x1="-28744" fill="none"/><line y2="-31133" y1="-30706" x2="-29524" x1="-28782" fill="none"/><line y2="-30489" y1="-31055" x2="-28744" x1="-27762" fill="none"/><line y2="-32193" y1="-31055" x2="-29732" x1="-29732" fill="none"/><line y2="-31055" y1="-32193" x2="-27762" x1="-27762" fill="none"/><line y2="-31200" y1="-32052" x2="-27932" x1="-27932" fill="none"/><line y2="-32762" y1="-32193" x2="-28744" x1="-29732" fill="none"/><line y2="-32543" y1="-32118" x2="-28782" x1="-29524" fill="none"/><line y2="-32193" y1="-32762" x2="-27762" x1="-28744" fill="none"/><text y="-29215" xml:space="preserve" x="-32762" stroke="none" font-size="433.3333" font-family="sans-serif">OH</text><text y="-29215" xml:space="preserve" x="-25035" stroke="none" font-size="433.3333" font-family="sans-serif">OH</text><text y="-27031" xml:space="preserve" x="-32762" stroke="none" font-size="433.3333" font-family="sans-serif">OH</text><text y="-27031" xml:space="preserve" x="-25035" stroke="none" font-size="433.3333" font-family="sans-serif">O</text><text y="-26988" xml:space="preserve" x="-28897" stroke="none" font-size="433.3333" font-family="sans-serif">O</text></g></g></svg>