<svg width="330.87" viewBox="0 0 11029 11052" text-rendering="auto" stroke-width="1" stroke-opacity="1" stroke-miterlimit="10" stroke-linejoin="miter" stroke-linecap="square" stroke-dashoffset="0" stroke-dasharray="none" stroke="black" shape-rendering="auto" image-rendering="auto" height="331.56" font-weight="normal" font-style="normal" font-size="12" font-family="'Dialog'" fill-opacity="1" fill="black" color-rendering="auto" color-interpolation="auto" xmlns="http://www.w3.org/2000/svg"><g><g stroke="white" fill="white"><rect y="0" x="0" width="11029" stroke="none" height="11052"/></g><g transform="translate(32866,32866)" text-rendering="geometricPrecision" stroke-width="44" stroke-linejoin="round" stroke-linecap="round"><line y2="-24148" y1="-25211" x2="-24818" x1="-24451" fill="none"/><line y2="-24148" y1="-24148" x2="-25965" x1="-24818" fill="none"/><line y2="-25211" y1="-25763" x2="-24451" x1="-25162" fill="none"/><line y2="-25211" y1="-24148" x2="-26291" x1="-25965" fill="none"/><line y2="-25768" y1="-25211" x2="-25537" x1="-26291" fill="none"/><line y2="-28961" y1="-26127" x2="-25350" x1="-25350" fill="none"/><line y2="-29484" y1="-28961" x2="-26257" x1="-25350" fill="none"/><line y2="-29070" y1="-29484" x2="-26976" x1="-26257" fill="none"/><line y2="-29437" y1="-29021" x2="-24665" x1="-25384" fill="none"/><line y2="-29316" y1="-28900" x2="-24596" x1="-25315" fill="none"/><line y2="-23622" y1="-22487" x2="-23911" x1="-23911" fill="none"/><line y2="-24191" y1="-23622" x2="-22923" x1="-23911" fill="none"/><line y2="-22487" y1="-21918" x2="-23911" x1="-22923" fill="none"/><line y2="-23622" y1="-24191" x2="-21941" x1="-22923" fill="none"/><line y2="-21918" y1="-22487" x2="-22923" x1="-21941" fill="none"/><line y2="-22487" y1="-23622" x2="-21941" x1="-21941" fill="none"/><line y2="-25430" y1="-25734" x2="-27727" x1="-27198" fill="none"/><line y2="-26563" y1="-25734" x2="-27271" x1="-27271" fill="none"/><line y2="-26563" y1="-25774" x2="-27129" x1="-27129" fill="none"/><line y2="-29484" y1="-29070" x2="-28071" x1="-27352" fill="none"/><line y2="-30532" y1="-29484" x2="-28071" x1="-28071" fill="none"/><line y2="-31055" y1="-30532" x2="-28978" x1="-28071" fill="none"/><line y2="-30532" y1="-31055" x2="-29885" x1="-28978" fill="none"/><line y2="-31055" y1="-30532" x2="-30792" x1="-29885" fill="none"/><line y2="-28132" y1="-28741" x2="-27164" x1="-27164" fill="none"/><line y2="-27389" y1="-27805" x2="-28071" x1="-27352" fill="none"/><line y2="-31055" y1="-32193" x2="-30792" x1="-30792" fill="none"/><line y2="-31200" y1="-32052" x2="-30963" x1="-30963" fill="none"/><line y2="-30489" y1="-31055" x2="-31777" x1="-30792" fill="none"/><line y2="-32193" y1="-32762" x2="-30792" x1="-31777" fill="none"/><line y2="-31055" y1="-30489" x2="-32762" x1="-31777" fill="none"/><line y2="-31133" y1="-30706" x2="-32554" x1="-31815" fill="none"/><line y2="-32762" y1="-32193" x2="-31777" x1="-32762" fill="none"/><line y2="-32543" y1="-32118" x2="-31815" x1="-32554" fill="none"/><line y2="-32193" y1="-31055" x2="-32762" x1="-32762" fill="none"/><line y2="-27912" y1="-27389" x2="-28978" x1="-28071" fill="none"/><line y2="-25818" y1="-26234" x2="-28978" x1="-28259" fill="none"/><line y2="-27389" y1="-27912" x2="-29885" x1="-28978" fill="none"/><line y2="-28961" y1="-27912" x2="-28978" x1="-28978" fill="none"/><line y2="-26340" y1="-25818" x2="-29885" x1="-28978" fill="none"/><line y2="-25818" y1="-26340" x2="-30792" x1="-29885" fill="none"/><line y2="-24988" y1="-25818" x2="-28909" x1="-28909" fill="none"/><line y2="-24988" y1="-25818" x2="-29047" x1="-29047" fill="none"/><polygon stroke-width="1" stroke="none" points=" -26291 -25211 -27233 -25676 -27164 -25794"/><polygon stroke-width="1" points=" -26291 -25211 -27233 -25676 -27164 -25794" fill="none"/><polygon stroke-width="1" stroke="none" points=" -27326 -28805 -27857 -28498 -27794 -28397"/><polygon stroke-width="1" points=" -27326 -28805 -27857 -28498 -27794 -28397" fill="none"/><polygon stroke-width="1" stroke="none" points=" -27378 -28900 -27909 -28591 -27970 -28692"/><polygon stroke-width="1" points=" -27378 -28900 -27909 -28591 -27970 -28692" fill="none"/><line y2="-23561" y1="-23683" x2="-23943" x1="-23876" fill="none"/><line y2="-23682" y1="-23779" x2="-24124" x1="-24070" fill="none"/><line y2="-23803" y1="-23875" x2="-24304" x1="-24265" fill="none"/><line y2="-23924" y1="-23971" x2="-24485" x1="-24459" fill="none"/><line y2="-24046" y1="-24067" x2="-24665" x1="-24654" fill="none"/><line y2="-26560" y1="-26560" x2="-28140" x1="-28002" fill="none"/><line y2="-26777" y1="-26777" x2="-28122" x1="-28020" fill="none"/><line y2="-26993" y1="-26993" x2="-28104" x1="-28038" fill="none"/><line y2="-27210" y1="-27210" x2="-28086" x1="-28056" fill="none"/><text y="-29304" xml:space="preserve" x="-24596" stroke="none" font-size="433.3333" font-family="sans-serif">O</text><text y="-28782" xml:space="preserve" x="-27317" stroke="none" font-size="433.3333" font-family="sans-serif">P</text><text y="-27733" xml:space="preserve" x="-27317" stroke="none" font-size="433.3333" font-family="sans-serif">O</text><text y="-28259" xml:space="preserve" x="-28224" stroke="none" font-size="433.3333" font-family="sans-serif">O</text><text y="-26161" xml:space="preserve" x="-28224" stroke="none" font-size="433.3333" font-family="sans-serif">O</text><text y="-24590" xml:space="preserve" x="-29131" stroke="none" font-size="433.3333" font-family="sans-serif">O</text><text y="-25032" xml:space="preserve" x="-28259" stroke="none" font-size="433.3333" font-family="sans-serif">OH</text><text y="-26603" xml:space="preserve" x="-27352" stroke="none" font-size="433.3333" font-family="sans-serif">O</text><text y="-25728" xml:space="preserve" x="-25503" stroke="none" font-size="433.3333" font-family="sans-serif">N</text><text y="-28568" xml:space="preserve" x="-26947" stroke="none" font-style="italic" font-size="313.3333" font-family="sans-serif">R</text><text y="-27510" xml:space="preserve" x="-28224" stroke="none" font-style="italic" font-size="313.3333" font-family="sans-serif">S</text><text y="-24255" xml:space="preserve" x="-25202" stroke="none" font-style="italic" font-size="313.3333" font-family="sans-serif">S</text><text y="-24960" xml:space="preserve" x="-26167" stroke="none" font-style="italic" font-size="313.3333" font-family="sans-serif">S</text></g></g></svg>