<svg width="308.91" viewBox="0 0 10297 7937" text-rendering="auto" stroke-width="1" stroke-opacity="1" stroke-miterlimit="10" stroke-linejoin="miter" stroke-linecap="square" stroke-dashoffset="0" stroke-dasharray="none" stroke="black" shape-rendering="auto" image-rendering="auto" height="238.11" font-weight="normal" font-style="normal" font-size="12" font-family="'Dialog'" fill-opacity="1" fill="black" color-rendering="auto" color-interpolation="auto" xmlns="http://www.w3.org/2000/svg"><g><g stroke="white" fill="white"><rect y="0" x="0" width="10297" stroke="none" height="7937"/></g><g transform="translate(32866,32758)" text-rendering="geometricPrecision" stroke-width="44" stroke-linejoin="round" stroke-linecap="round"><line y2="-29059" y1="-28288" x2="-27733" x1="-26410" fill="none"/><line y2="-26745" y1="-28288" x2="-26410" x1="-26410" fill="none"/><line y2="-29059" y1="-28288" x2="-25087" x1="-26410" fill="none"/><line y2="-29059" y1="-28288" x2="-27733" x1="-29056" fill="none"/><line y2="-30602" y1="-29059" x2="-27733" x1="-27733" fill="none"/><line y2="-25974" y1="-26745" x2="-27733" x1="-26410" fill="none"/><line y2="-26745" y1="-26083" x2="-26410" x1="-25274" fill="none"/><line y2="-29059" y1="-30602" x2="-25087" x1="-25087" fill="none"/><line y2="-28288" y1="-29059" x2="-23764" x1="-25087" fill="none"/><line y2="-30162" y1="-29501" x2="-26343" x1="-25968" fill="none"/><line y2="-26745" y1="-28288" x2="-29056" x1="-29056" fill="none"/><line y2="-28288" y1="-29059" x2="-29056" x1="-30379" fill="none"/><line y2="-31376" y1="-30602" x2="-26410" x1="-27733" fill="none"/><line y2="-26745" y1="-25974" x2="-29056" x1="-27733" fill="none"/><line y2="-26083" y1="-26745" x2="-24899" x1="-23764" fill="none"/><line y2="-30602" y1="-31376" x2="-25087" x1="-26410" fill="none"/><line y2="-26745" y1="-28288" x2="-23764" x1="-23764" fill="none"/><line y2="-25974" y1="-26745" x2="-30379" x1="-29056" fill="none"/><line y2="-29059" y1="-28288" x2="-30379" x1="-31702" fill="none"/><line y2="-26745" y1="-25974" x2="-31702" x1="-30379" fill="none"/><line y2="-26794" y1="-26216" x2="-31451" x1="-30457" fill="none"/><line y2="-28288" y1="-26745" x2="-31702" x1="-31702" fill="none"/><line y2="-24925" y1="-25974" x2="-30379" x1="-30379" fill="none"/><line y2="-31127" y1="-30602" x2="-24180" x1="-25087" fill="none"/><line y2="-31006" y1="-30483" x2="-24110" x1="-25017" fill="none"/><line y2="-30908" y1="-30602" x2="-28262" x1="-27733" fill="none"/><line y2="-26390" y1="-26806" x2="-23010" x1="-23729" fill="none"/><line y2="-26268" y1="-26684" x2="-23079" x1="-23798" fill="none"/><line y2="-28643" y1="-28227" x2="-32456" x1="-31737" fill="none"/><line y2="-28764" y1="-28348" x2="-32387" x1="-31668" fill="none"/><polygon stroke-width="1" stroke="none" points=" -26410 -28288 -26034 -29524 -25904 -29475"/><polygon stroke-width="1" points=" -26410 -28288 -26034 -29524 -25904 -29475" fill="none"/><polygon stroke-width="1" stroke="none" points=" -27733 -30602 -26641 -30483 -26664 -30347"/><polygon stroke-width="1" points=" -27733 -30602 -26641 -30483 -26664 -30347" fill="none"/><polygon stroke-width="1" stroke="none" points=" -29056 -28288 -29125 -29333 -28987 -29336"/><polygon stroke-width="1" points=" -29056 -28288 -29125 -29333 -28987 -29336" fill="none"/><polygon stroke-width="1" stroke="none" points=" -30379 -29059 -30448 -29885 -30310 -29888"/><polygon stroke-width="1" points=" -30379 -29059 -30448 -29885 -30310 -29888" fill="none"/><polygon stroke-width="1" stroke="none" points=" -26410 -26745 -26340 -25916 -26479 -25916"/><polygon stroke-width="1" points=" -26410 -26745 -26340 -25916 -26479 -25916" fill="none"/><polygon stroke-width="1" stroke="none" points=" -25087 -29059 -25017 -28230 -25156 -28230"/><polygon stroke-width="1" points=" -25087 -29059 -25017 -28230 -25156 -28230" fill="none"/><line y2="-32202" y1="-32202" x2="-26340" x1="-26479" fill="none"/><line y2="-31985" y1="-31985" x2="-26358" x1="-26461" fill="none"/><line y2="-31769" y1="-31769" x2="-26377" x1="-26443" fill="none"/><line y2="-31552" y1="-31552" x2="-26395" x1="-26425" fill="none"/><line y2="-28230" y1="-28230" x2="-27802" x1="-27664" fill="none"/><line y2="-28447" y1="-28447" x2="-27784" x1="-27682" fill="none"/><line y2="-28663" y1="-28663" x2="-27766" x1="-27700" fill="none"/><line y2="-28880" y1="-28880" x2="-27748" x1="-27718" fill="none"/><line y2="-25916" y1="-25916" x2="-29125" x1="-28987" fill="none"/><line y2="-26133" y1="-26133" x2="-29107" x1="-29005" fill="none"/><line y2="-26349" y1="-26349" x2="-29089" x1="-29023" fill="none"/><line y2="-26566" y1="-26566" x2="-29071" x1="-29041" fill="none"/><text y="-30948" xml:space="preserve" x="-28793" stroke="none" font-size="433.3333" font-family="sans-serif">OH</text><text y="-29928" xml:space="preserve" x="-30529" stroke="none" font-size="433.3333" font-family="sans-serif">OH</text><text y="-32242" xml:space="preserve" x="-26563" stroke="none" font-size="433.3333" font-family="sans-serif">OH</text><text y="-26043" xml:space="preserve" x="-23010" stroke="none" font-size="433.3333" font-family="sans-serif">O</text><text y="-28631" xml:space="preserve" x="-32762" stroke="none" font-size="433.3333" font-family="sans-serif">O</text><text y="-25794" xml:space="preserve" x="-25240" stroke="none" font-size="433.3333" font-family="sans-serif">O</text><text y="-30203" xml:space="preserve" x="-26618" stroke="none" font-size="433.3333" font-family="sans-serif">O</text><text y="-27831" xml:space="preserve" x="-27886" stroke="none" font-size="433.3333" font-family="sans-serif">H</text><text y="-25517" xml:space="preserve" x="-26563" stroke="none" font-size="433.3333" font-family="sans-serif">H</text><text y="-27831" xml:space="preserve" x="-25240" stroke="none" font-size="433.3333" font-family="sans-serif">H</text><text y="-25517" xml:space="preserve" x="-29209" stroke="none" font-size="433.3333" font-family="sans-serif">H</text><text y="-27964" xml:space="preserve" x="-26314" stroke="none" font-style="italic" font-size="313.3333" font-family="sans-serif">S</text><text y="-29024" xml:space="preserve" x="-27638" stroke="none" font-style="italic" font-size="313.3333" font-family="sans-serif">R</text><text y="-26710" xml:space="preserve" x="-26811" stroke="none" font-style="italic" font-size="313.3333" font-family="sans-serif">R</text><text y="-29024" xml:space="preserve" x="-25488" stroke="none" font-style="italic" font-size="313.3333" font-family="sans-serif">S</text><text y="-27964" xml:space="preserve" x="-28961" stroke="none" font-style="italic" font-size="313.3333" font-family="sans-serif">S</text><text y="-30281" xml:space="preserve" x="-28134" stroke="none" font-style="italic" font-size="313.3333" font-family="sans-serif">R</text><text y="-26710" xml:space="preserve" x="-29455" stroke="none" font-style="italic" font-size="313.3333" font-family="sans-serif">S</text><text y="-28576" xml:space="preserve" x="-30529" stroke="none" font-style="italic" font-size="313.3333" font-family="sans-serif">S</text><text y="-30893" xml:space="preserve" x="-26563" stroke="none" font-style="italic" font-size="313.3333" font-family="sans-serif">R</text></g></g></svg>