<svg width="342.15" viewBox="0 0 11405 2709" text-rendering="auto" stroke-width="1" stroke-opacity="1" stroke-miterlimit="10" stroke-linejoin="miter" stroke-linecap="square" stroke-dashoffset="0" stroke-dasharray="none" stroke="black" shape-rendering="auto" image-rendering="auto" height="81.27" font-weight="normal" font-style="normal" font-size="12" font-family="'Dialog'" fill-opacity="1" fill="black" color-rendering="auto" color-interpolation="auto" xmlns="http://www.w3.org/2000/svg"><g><g stroke="white" fill="white"><rect y="0" x="0" width="11405" stroke="none" height="2709"/></g><g transform="translate(32866,32866)" text-rendering="geometricPrecision" stroke-width="44" stroke-linejoin="round" stroke-linecap="round"><line y2="-32193" y1="-32762" x2="-25350" x1="-26332" fill="none"/><line y2="-32118" y1="-32546" x2="-25558" x1="-26294" fill="none"/><line y2="-31055" y1="-32193" x2="-25350" x1="-25350" fill="none"/><line y2="-32762" y1="-32193" x2="-26332" x1="-27320" fill="none"/><line y2="-30489" y1="-31055" x2="-26332" x1="-25350" fill="none"/><line y2="-30706" y1="-31133" x2="-26294" x1="-25558" fill="none"/><line y2="-32193" y1="-31055" x2="-27320" x1="-27320" fill="none"/><line y2="-32052" y1="-31200" x2="-27149" x1="-27149" fill="none"/><line y2="-31055" y1="-30489" x2="-27320" x1="-26332" fill="none"/><line y2="-32719" y1="-32193" x2="-24442" x1="-25350" fill="none"/><line y2="-32193" y1="-32719" x2="-23535" x1="-24442" fill="none"/><line y2="-30642" y1="-31055" x2="-28039" x1="-27320" fill="none"/><line y2="-31055" y1="-30642" x2="-29134" x1="-28415" fill="none"/><line y2="-30532" y1="-31055" x2="-30041" x1="-29134" fill="none"/><line y2="-30948" y1="-30532" x2="-30760" x1="-30041" fill="none"/><line y2="-32193" y1="-31055" x2="-23535" x1="-23535" fill="none"/><line y2="-32052" y1="-31200" x2="-23365" x1="-23365" fill="none"/><line y2="-32762" y1="-32193" x2="-22547" x1="-23535" fill="none"/><line y2="-31055" y1="-30489" x2="-23535" x1="-22547" fill="none"/><line y2="-32193" y1="-32762" x2="-21565" x1="-22547" fill="none"/><line y2="-32118" y1="-32546" x2="-21773" x1="-22510" fill="none"/><line y2="-30489" y1="-31055" x2="-22547" x1="-21565" fill="none"/><line y2="-30706" y1="-31133" x2="-22510" x1="-21773" fill="none"/><line y2="-31055" y1="-32193" x2="-21565" x1="-21565" fill="none"/><line y2="-30532" y1="-30948" x2="-31855" x1="-31136" fill="none"/><line y2="-31055" y1="-30532" x2="-32762" x1="-31855" fill="none"/><line y2="-32104" y1="-31275" x2="-30948" x1="-30948" fill="none"/><line y2="-32630" y1="-32104" x2="-31855" x1="-30948" fill="none"/><text y="-30353" xml:space="preserve" x="-28380" stroke="none" font-size="433.3333" font-family="sans-serif">O</text><text y="-30876" xml:space="preserve" x="-31101" stroke="none" font-size="433.3333" font-family="sans-serif">N</text></g></g></svg>