<svg width="189.75" viewBox="0 0 6325 4825" text-rendering="auto" stroke-width="1" stroke-opacity="1" stroke-miterlimit="10" stroke-linejoin="miter" stroke-linecap="square" stroke-dashoffset="0" stroke-dasharray="none" stroke="black" shape-rendering="auto" image-rendering="auto" height="144.75" font-weight="normal" font-style="normal" font-size="12" font-family="'Dialog'" fill-opacity="1" fill="black" color-rendering="auto" color-interpolation="auto" xmlns="http://www.w3.org/2000/svg"><g><g stroke="white" fill="white"><rect y="0" x="0" width="6325" stroke="none" height="4825"/></g><g transform="translate(32866,32758)" text-rendering="geometricPrecision" stroke-width="44" stroke-linejoin="round" stroke-linecap="round"><line y2="-31376" y1="-30850" x2="-28964" x1="-29871" fill="none"/><line y2="-30850" y1="-31376" x2="-28056" x1="-28964" fill="none"/><line y2="-31376" y1="-30850" x2="-30778" x1="-29871" fill="none"/><line y2="-29018" y1="-30850" x2="-29871" x1="-29871" fill="none"/><line y2="-28293" y1="-28695" x2="-30786" x1="-30058" fill="none"/><line y2="-28816" y1="-28293" x2="-31694" x1="-30786" fill="none"/><line y2="-31266" y1="-30850" x2="-27337" x1="-28056" fill="none"/><line y2="-30024" y1="-30850" x2="-27984" x1="-27984" fill="none"/><line y2="-30024" y1="-30850" x2="-28126" x1="-28126" fill="none"/><line y2="-31070" y1="-31376" x2="-31304" x1="-30778" fill="none"/><line y2="-32202" y1="-31376" x2="-30847" x1="-30847" fill="none"/><line y2="-32202" y1="-31376" x2="-30706" x1="-30706" fill="none"/><line y2="-28527" y1="-28816" x2="-32214" x1="-31694" fill="none"/><line y2="-29645" y1="-28816" x2="-31763" x1="-31763" fill="none"/><line y2="-29645" y1="-28816" x2="-31624" x1="-31624" fill="none"/><text y="-28620" xml:space="preserve" x="-30021" stroke="none" font-size="433.3333" font-family="sans-serif">S</text><text y="-30671" xml:space="preserve" x="-31835" stroke="none" font-size="433.3333" font-family="sans-serif">OH</text><text y="-32242" xml:space="preserve" x="-30928" stroke="none" font-size="433.3333" font-family="sans-serif">O</text><text y="-31197" xml:space="preserve" x="-27300" stroke="none" font-size="433.3333" font-family="sans-serif">OH</text><text y="-29625" xml:space="preserve" x="-28207" stroke="none" font-size="433.3333" font-family="sans-serif">O</text><text y="-28129" xml:space="preserve" x="-32762" stroke="none" font-size="433.3333" font-family="sans-serif">OH</text><text y="-29686" xml:space="preserve" x="-31844" stroke="none" font-size="433.3333" font-family="sans-serif">O</text></g></g></svg>