<svg width="184.11" viewBox="0 0 6137 6311" text-rendering="auto" stroke-width="1" stroke-opacity="1" stroke-miterlimit="10" stroke-linejoin="miter" stroke-linecap="square" stroke-dashoffset="0" stroke-dasharray="none" stroke="black" shape-rendering="auto" image-rendering="auto" height="189.33" font-weight="normal" font-style="normal" font-size="12" font-family="'Dialog'" fill-opacity="1" fill="black" color-rendering="auto" color-interpolation="auto" xmlns="http://www.w3.org/2000/svg"><g><g stroke="white" fill="white"><rect y="0" x="0" width="6137" stroke="none" height="6311"/></g><g transform="translate(32866,32758)" text-rendering="geometricPrecision" stroke-width="44" stroke-linejoin="round" stroke-linecap="round"><line y2="-30703" y1="-30131" x2="-30798" x1="-29816" fill="none"/><line y2="-30131" y1="-30703" x2="-29816" x1="-28834" fill="none"/><line y2="-30347" y1="-30778" x2="-29778" x1="-29042" fill="none"/><line y2="-31850" y1="-30703" x2="-30798" x1="-30798" fill="none"/><line y2="-31705" y1="-30847" x2="-30628" x1="-30628" fill="none"/><line y2="-30131" y1="-30703" x2="-31780" x1="-30798" fill="none"/><line y2="-30703" y1="-31850" x2="-28834" x1="-28834" fill="none"/><line y2="-32312" y1="-31850" x2="-30004" x1="-30798" fill="none"/><line y2="-31850" y1="-32422" x2="-30798" x1="-31780" fill="none"/><line y2="-30703" y1="-30131" x2="-32762" x1="-31780" fill="none"/><line y2="-30778" y1="-30347" x2="-32554" x1="-31818" fill="none"/><line y2="-31850" y1="-32312" x2="-28834" x1="-29628" fill="none"/><line y2="-31760" y1="-32107" x2="-29018" x1="-29614" fill="none"/><line y2="-32422" y1="-31850" x2="-31780" x1="-32762" fill="none"/><line y2="-32205" y1="-31774" x2="-31818" x1="-32554" fill="none"/><line y2="-31850" y1="-30703" x2="-32762" x1="-32762" fill="none"/><line y2="-27297" y1="-30131" x2="-29816" x1="-29816" fill="none"/><line y2="-26551" y1="-26858" x2="-28909" x1="-29434" fill="none"/><line y2="-27077" y1="-26551" x2="-28002" x1="-28909" fill="none"/><line y2="-30287" y1="-30703" x2="-28114" x1="-28834" fill="none"/><line y2="-26551" y1="-27077" x2="-27094" x1="-28002" fill="none"/><line y2="-28123" y1="-27077" x2="-28002" x1="-28002" fill="none"/><line y2="-29351" y1="-29960" x2="-27857" x1="-27857" fill="none"/><line y2="-29351" y1="-29960" x2="-27996" x1="-27996" fill="none"/><line y2="-30656" y1="-30347" x2="-27242" x1="-27773" fill="none"/><line y2="-30535" y1="-30226" x2="-27172" x1="-27704" fill="none"/><text y="-26898" xml:space="preserve" x="-29969" stroke="none" font-size="433.3333" font-family="sans-serif">NH</text><text y="-30001" xml:space="preserve" x="-28077" stroke="none" font-size="433.3333" font-family="sans-serif">N</text><text y="-28952" xml:space="preserve" x="-28077" stroke="none" font-size="433.3333" font-family="sans-serif">O</text><text y="-30524" xml:space="preserve" x="-27170" stroke="none" font-size="433.3333" font-family="sans-serif">O</text><text y="-32242" xml:space="preserve" x="-29969" stroke="none" font-size="433.3333" font-family="sans-serif">N</text></g></g></svg>