<svg width="237.96" viewBox="0 0 7932 9128" text-rendering="auto" stroke-width="1" stroke-opacity="1" stroke-miterlimit="10" stroke-linejoin="miter" stroke-linecap="square" stroke-dashoffset="0" stroke-dasharray="none" stroke="black" shape-rendering="auto" image-rendering="auto" height="273.84" font-weight="normal" font-style="normal" font-size="12" font-family="'Dialog'" fill-opacity="1" fill="black" color-rendering="auto" color-interpolation="auto" xmlns="http://www.w3.org/2000/svg"><g><g stroke="white" fill="white"><rect y="0" x="0" width="7932" stroke="none" height="9128"/></g><g transform="translate(32866,32866)" text-rendering="geometricPrecision" stroke-width="44" stroke-linejoin="round" stroke-linecap="round"><line y2="-28871" y1="-29440" x2="-27915" x1="-28897" fill="none"/><line y2="-28796" y1="-29224" x2="-28123" x1="-28860" fill="none"/><line y2="-27733" y1="-28871" x2="-27915" x1="-27915" fill="none"/><line y2="-29440" y1="-28871" x2="-28897" x1="-29885" fill="none"/><line y2="-27167" y1="-27733" x2="-28897" x1="-27915" fill="none"/><line y2="-27383" y1="-27811" x2="-28860" x1="-28123" fill="none"/><line y2="-28871" y1="-27733" x2="-29885" x1="-29885" fill="none"/><line y2="-28730" y1="-27877" x2="-29715" x1="-29715" fill="none"/><line y2="-27733" y1="-27167" x2="-29885" x1="-28897" fill="none"/><line y2="-29394" y1="-28871" x2="-27008" x1="-27915" fill="none"/><line y2="-30489" y1="-29440" x2="-28897" x1="-28897" fill="none"/><line y2="-27210" y1="-27733" x2="-27008" x1="-27915" fill="none"/><line y2="-29394" y1="-28871" x2="-30792" x1="-29885" fill="none"/><line y2="-26118" y1="-27167" x2="-28897" x1="-28897" fill="none"/><line y2="-27210" y1="-27733" x2="-30792" x1="-29885" fill="none"/><line y2="-30532" y1="-29394" x2="-27008" x1="-27008" fill="none"/><line y2="-30391" y1="-29538" x2="-26837" x1="-26837" fill="none"/><line y2="-29394" y1="-28828" x2="-27008" x1="-26020" fill="none"/><line y2="-31101" y1="-30532" x2="-26020" x1="-27008" fill="none"/><line y2="-28828" y1="-29394" x2="-26020" x1="-25038" fill="none"/><line y2="-29044" y1="-29472" x2="-25982" x1="-25246" fill="none"/><line y2="-30532" y1="-31101" x2="-25038" x1="-26020" fill="none"/><line y2="-30457" y1="-30885" x2="-25246" x1="-25982" fill="none"/><line y2="-29394" y1="-30532" x2="-25038" x1="-25038" fill="none"/><line y2="-31055" y1="-30489" x2="-29885" x1="-28897" fill="none"/><line y2="-31133" y1="-30706" x2="-29677" x1="-28938" fill="none"/><line y2="-30489" y1="-31055" x2="-28897" x1="-27915" fill="none"/><line y2="-32193" y1="-31055" x2="-29885" x1="-29885" fill="none"/><line y2="-31055" y1="-32193" x2="-27915" x1="-27915" fill="none"/><line y2="-31200" y1="-32052" x2="-28085" x1="-28085" fill="none"/><line y2="-32762" y1="-32193" x2="-28897" x1="-29885" fill="none"/><line y2="-32543" y1="-32118" x2="-28938" x1="-29677" fill="none"/><line y2="-32193" y1="-32762" x2="-27915" x1="-28897" fill="none"/><line y2="-27210" y1="-26072" x2="-27008" x1="-27008" fill="none"/><line y2="-27068" y1="-26216" x2="-26837" x1="-26837" fill="none"/><line y2="-27779" y1="-27210" x2="-26020" x1="-27008" fill="none"/><line y2="-26072" y1="-25503" x2="-27008" x1="-26020" fill="none"/><line y2="-27210" y1="-27779" x2="-25038" x1="-26020" fill="none"/><line y2="-27135" y1="-27562" x2="-25246" x1="-25982" fill="none"/><line y2="-25503" y1="-26072" x2="-26020" x1="-25038" fill="none"/><line y2="-25722" y1="-26150" x2="-25982" x1="-25246" fill="none"/><line y2="-26072" y1="-27210" x2="-25038" x1="-25038" fill="none"/><line y2="-29394" y1="-30532" x2="-30792" x1="-30792" fill="none"/><line y2="-29538" y1="-30391" x2="-30963" x1="-30963" fill="none"/><line y2="-28828" y1="-29394" x2="-31774" x1="-30792" fill="none"/><line y2="-30532" y1="-31101" x2="-30792" x1="-31774" fill="none"/><line y2="-29394" y1="-28828" x2="-32762" x1="-31774" fill="none"/><line y2="-29472" y1="-29044" x2="-32554" x1="-31815" fill="none"/><line y2="-31101" y1="-30532" x2="-31774" x1="-32762" fill="none"/><line y2="-30882" y1="-30454" x2="-31815" x1="-32554" fill="none"/><line y2="-30532" y1="-29394" x2="-32762" x1="-32762" fill="none"/><line y2="-26118" y1="-25549" x2="-28897" x1="-29885" fill="none"/><line y2="-25898" y1="-25471" x2="-28938" x1="-29677" fill="none"/><line y2="-25549" y1="-26118" x2="-27915" x1="-28897" fill="none"/><line y2="-25549" y1="-24411" x2="-29885" x1="-29885" fill="none"/><line y2="-24411" y1="-25549" x2="-27915" x1="-27915" fill="none"/><line y2="-24555" y1="-25407" x2="-28085" x1="-28085" fill="none"/><line y2="-24411" y1="-23842" x2="-29885" x1="-28897" fill="none"/><line y2="-24489" y1="-24061" x2="-29677" x1="-28938" fill="none"/><line y2="-23842" y1="-24411" x2="-28897" x1="-27915" fill="none"/><line y2="-27210" y1="-27779" x2="-30792" x1="-31774" fill="none"/><line y2="-27135" y1="-27562" x2="-31000" x1="-31737" fill="none"/><line y2="-26072" y1="-27210" x2="-30792" x1="-30792" fill="none"/><line y2="-27779" y1="-27210" x2="-31774" x1="-32762" fill="none"/><line y2="-25503" y1="-26072" x2="-31774" x1="-30792" fill="none"/><line y2="-25722" y1="-26150" x2="-31737" x1="-31000" fill="none"/><line y2="-27210" y1="-26072" x2="-32762" x1="-32762" fill="none"/><line y2="-27068" y1="-26216" x2="-32592" x1="-32592" fill="none"/><line y2="-26072" y1="-25503" x2="-32762" x1="-31774" fill="none"/></g></g></svg>