<svg width="556.44" viewBox="0 0 18548 5800" text-rendering="auto" stroke-width="1" stroke-opacity="1" stroke-miterlimit="10" stroke-linejoin="miter" stroke-linecap="square" stroke-dashoffset="0" stroke-dasharray="none" stroke="black" shape-rendering="auto" image-rendering="auto" height="174.0" font-weight="normal" font-style="normal" font-size="12" font-family="'Dialog'" fill-opacity="1" fill="black" color-rendering="auto" color-interpolation="auto" xmlns="http://www.w3.org/2000/svg"><g><g stroke="white" fill="white"><rect y="0" x="0" width="18548" stroke="none" height="5800"/></g><g transform="translate(32866,32758)" text-rendering="geometricPrecision" stroke-width="44" stroke-linejoin="round" stroke-linecap="round"><line y2="-28969" y1="-30116" x2="-26869" x1="-26869" fill="none"/><line y2="-30116" y1="-30688" x2="-26869" x1="-27851" fill="none"/><line y2="-30688" y1="-30116" x2="-25884" x1="-26869" fill="none"/><line y2="-28397" y1="-28969" x2="-27851" x1="-26869" fill="none"/><line y2="-28969" y1="-28397" x2="-26869" x1="-25884" fill="none"/><line y2="-30688" y1="-30116" x2="-27851" x1="-28834" fill="none"/><line y2="-30116" y1="-30688" x2="-24902" x1="-25884" fill="none"/><line y2="-28969" y1="-28397" x2="-28834" x1="-27851" fill="none"/><line y2="-29044" y1="-28614" x2="-28626" x1="-27886" fill="none"/><line y2="-28397" y1="-28969" x2="-25884" x1="-24902" fill="none"/><line y2="-28969" y1="-30116" x2="-28834" x1="-28834" fill="none"/><line y2="-30116" y1="-30688" x2="-28834" x1="-29816" fill="none"/><line y2="-28969" y1="-30116" x2="-24902" x1="-24902" fill="none"/><line y2="-29114" y1="-29972" x2="-25072" x1="-25072" fill="none"/><line y2="-28397" y1="-28969" x2="-29816" x1="-28834" fill="none"/><line y2="-30688" y1="-30116" x2="-29816" x1="-30798" fill="none"/><line y2="-28969" y1="-28397" x2="-30798" x1="-29816" fill="none"/><line y2="-28969" y1="-30116" x2="-30798" x1="-30798" fill="none"/><line y2="-30116" y1="-30688" x2="-30798" x1="-31780" fill="none"/><line y2="-30041" y1="-30472" x2="-31006" x1="-31743" fill="none"/><line y2="-28397" y1="-28969" x2="-31780" x1="-30798" fill="none"/><line y2="-28614" y1="-29044" x2="-31743" x1="-31006" fill="none"/><line y2="-30688" y1="-30116" x2="-31780" x1="-32762" fill="none"/><line y2="-28969" y1="-28397" x2="-32762" x1="-31780" fill="none"/><line y2="-30116" y1="-28969" x2="-32762" x1="-32762" fill="none"/><line y2="-29972" y1="-29114" x2="-32592" x1="-32592" fill="none"/><line y2="-28446" y1="-28969" x2="-23995" x1="-24902" fill="none"/><line y2="-27568" y1="-28397" x2="-27851" x1="-27851" fill="none"/><line y2="-30532" y1="-30116" x2="-24182" x1="-24902" fill="none"/><line y2="-27568" y1="-28397" x2="-31780" x1="-31780" fill="none"/><line y2="-27568" y1="-28397" x2="-25815" x1="-25815" fill="none"/><line y2="-27568" y1="-28397" x2="-25956" x1="-25956" fill="none"/><line y2="-27568" y1="-28397" x2="-29746" x1="-29746" fill="none"/><line y2="-27568" y1="-28397" x2="-29885" x1="-29885" fill="none"/><line y2="-28860" y1="-28446" x2="-23275" x1="-23995" fill="none"/><line y2="-28446" y1="-28750" x2="-22180" x1="-22709" fill="none"/><line y2="-28860" y1="-28446" x2="-21461" x1="-22180" fill="none"/><line y2="-28446" y1="-28750" x2="-20366" x1="-20895" fill="none"/><line y2="-28969" y1="-28446" x2="-19459" x1="-20366" fill="none"/><line y2="-28446" y1="-28969" x2="-18552" x1="-19459" fill="none"/><line y2="-28969" y1="-28446" x2="-17645" x1="-18552" fill="none"/><line y2="-28446" y1="-28969" x2="-16738" x1="-17645" fill="none"/><line y2="-27617" y1="-28446" x2="-23925" x1="-23925" fill="none"/><line y2="-27617" y1="-28446" x2="-24067" x1="-24067" fill="none"/><line y2="-32153" y1="-31844" x2="-25168" x1="-25696" fill="none"/><line y2="-32092" y1="-31844" x2="-26502" x1="-26075" fill="none"/><line y2="-28969" y1="-28446" x2="-15831" x1="-16738" fill="none"/><line y2="-28553" y1="-28969" x2="-15111" x1="-15831" fill="none"/><line y2="-29798" y1="-28969" x2="-15900" x1="-15900" fill="none"/><line y2="-29798" y1="-28969" x2="-15761" x1="-15761" fill="none"/><polygon stroke-width="1" stroke="none" points=" -29816 -30688 -30356 -31228 -30252 -31315"/><polygon stroke-width="1" points=" -29816 -30688 -30356 -31228 -30252 -31315" fill="none"/><polygon stroke-width="1" stroke="none" points=" -16738 -28446 -16668 -27617 -16807 -27617"/><polygon stroke-width="1" points=" -16738 -28446 -16668 -27617 -16807 -27617" fill="none"/><line y2="-31445" y1="-31535" x2="-29091" x1="-29195" fill="none"/><line y2="-31288" y1="-31360" x2="-29241" x1="-29324" fill="none"/><line y2="-31132" y1="-31184" x2="-29391" x1="-29452" fill="none"/><line y2="-30975" y1="-31009" x2="-29541" x1="-29581" fill="none"/><line y2="-30818" y1="-30834" x2="-29691" x1="-29709" fill="none"/><line y2="-31517" y1="-31517" x2="-25818" x1="-25953" fill="none"/><line y2="-31300" y1="-31300" x2="-25835" x1="-25935" fill="none"/><line y2="-31084" y1="-31084" x2="-25852" x1="-25917" fill="none"/><line y2="-30867" y1="-30867" x2="-25870" x1="-25899" fill="none"/><line y2="-28140" y1="-28140" x2="-26936" x1="-26800" fill="none"/><line y2="-28357" y1="-28357" x2="-26918" x1="-26818" fill="none"/><line y2="-28573" y1="-28573" x2="-26901" x1="-26836" fill="none"/><line y2="-28790" y1="-28790" x2="-26883" x1="-26854" fill="none"/><line y2="-30945" y1="-30942" x2="-28764" x1="-28903" fill="none"/><line y2="-30728" y1="-30726" x2="-28782" x1="-28885" fill="none"/><line y2="-30511" y1="-30509" x2="-28801" x1="-28867" fill="none"/><line y2="-30294" y1="-30293" x2="-28819" x1="-28849" fill="none"/><line y2="-30945" y1="-30942" x2="-26800" x1="-26936" fill="none"/><line y2="-30728" y1="-30726" x2="-26818" x1="-26918" fill="none"/><line y2="-30511" y1="-30509" x2="-26836" x1="-26901" fill="none"/><line y2="-30294" y1="-30293" x2="-26854" x1="-26883" fill="none"/><text y="-27742" xml:space="preserve" x="-27019" stroke="none" font-size="433.3333" font-family="sans-serif">OH</text><text y="-31558" xml:space="preserve" x="-26037" stroke="none" font-size="433.3333" font-family="sans-serif">N</text><text y="-32081" xml:space="preserve" x="-25130" stroke="none" font-size="433.3333" font-family="sans-serif">CH</text><text y="-31991" xml:space="preserve" x="-24552" stroke="none" font-size="313.3333" font-family="sans-serif">3</text><text y="-32242" xml:space="preserve" x="-27227" stroke="none" font-size="433.3333" font-family="sans-serif">CH</text><text y="-32153" xml:space="preserve" x="-26650" stroke="none" font-size="313.3333" font-family="sans-serif">3</text><text y="-27170" xml:space="preserve" x="-28002" stroke="none" font-size="433.3333" font-family="sans-serif">OH</text><text y="-27170" xml:space="preserve" x="-26037" stroke="none" font-size="433.3333" font-family="sans-serif">O</text><text y="-30460" xml:space="preserve" x="-24148" stroke="none" font-size="433.3333" font-family="sans-serif">OH</text><text y="-28790" xml:space="preserve" x="-23241" stroke="none" font-size="433.3333" font-family="sans-serif">NH</text><text y="-27219" xml:space="preserve" x="-24148" stroke="none" font-size="433.3333" font-family="sans-serif">O</text><text y="-28790" xml:space="preserve" x="-21426" stroke="none" font-size="433.3333" font-family="sans-serif">NH</text><text y="-27219" xml:space="preserve" x="-16891" stroke="none" font-size="433.3333" font-family="sans-serif">NH</text><text y="-27129" xml:space="preserve" x="-16313" stroke="none" font-size="313.3333" font-family="sans-serif">2</text><text y="-28267" xml:space="preserve" x="-15077" stroke="none" font-size="433.3333" font-family="sans-serif">OH</text><text y="-29839" xml:space="preserve" x="-15984" stroke="none" font-size="433.3333" font-family="sans-serif">O</text><text y="-31312" xml:space="preserve" x="-30642" stroke="none" font-size="433.3333" font-family="sans-serif">OH</text><text y="-27170" xml:space="preserve" x="-29969" stroke="none" font-size="433.3333" font-family="sans-serif">O</text><text y="-27170" xml:space="preserve" x="-31933" stroke="none" font-size="433.3333" font-family="sans-serif">OH</text><text y="-30986" xml:space="preserve" x="-28987" stroke="none" font-size="433.3333" font-family="sans-serif">H</text><text y="-30986" xml:space="preserve" x="-27019" stroke="none" font-size="433.3333" font-family="sans-serif">H</text><text y="-28568" xml:space="preserve" x="-16891" stroke="none" font-style="italic" font-size="313.3333" font-family="sans-serif">S</text><text y="-29793" xml:space="preserve" x="-26771" stroke="none" font-style="italic" font-size="313.3333" font-family="sans-serif">S</text><text y="-28935" xml:space="preserve" x="-27268" stroke="none" font-style="italic" font-size="313.3333" font-family="sans-serif">S</text><text y="-30206" xml:space="preserve" x="-26037" stroke="none" font-style="italic" font-size="313.3333" font-family="sans-serif">S</text><text y="-29793" xml:space="preserve" x="-28735" stroke="none" font-style="italic" font-size="313.3333" font-family="sans-serif">S</text><text y="-30206" xml:space="preserve" x="-29969" stroke="none" font-style="italic" font-size="313.3333" font-family="sans-serif">S</text></g></g></svg>