<svg width="291.57" viewBox="0 0 9719 7016" text-rendering="auto" stroke-width="1" stroke-opacity="1" stroke-miterlimit="10" stroke-linejoin="miter" stroke-linecap="square" stroke-dashoffset="0" stroke-dasharray="none" stroke="black" shape-rendering="auto" image-rendering="auto" height="210.48" font-weight="normal" font-style="normal" font-size="12" font-family="'Dialog'" fill-opacity="1" fill="black" color-rendering="auto" color-interpolation="auto" xmlns="http://www.w3.org/2000/svg"><g><g stroke="white" fill="white"><rect y="0" x="0" width="9719" stroke="none" height="7016"/></g><g transform="translate(32866,32758)" text-rendering="geometricPrecision" stroke-width="44" stroke-linejoin="round" stroke-linecap="round"><line y2="-30327" y1="-30327" x2="-29036" x1="-30084" fill="none"/><line y2="-30327" y1="-30327" x2="-31812" x1="-30763" fill="none"/><line y2="-31156" y1="-30547" x2="-30425" x1="-30425" fill="none"/><line y2="-31376" y1="-31376" x2="-27935" x1="-30238" fill="none"/><line y2="-28496" y1="-30108" x2="-30425" x1="-30425" fill="none"/><line y2="-28276" y1="-28276" x2="-29189" x1="-30238" fill="none"/><line y2="-31376" y1="-31376" x2="-26208" x1="-27256" fill="none"/><line y2="-32202" y1="-31595" x2="-27597" x1="-27597" fill="none"/><line y2="-30547" y1="-31156" x2="-27597" x1="-27597" fill="none"/><line y2="-30327" y1="-30327" x2="-26095" x1="-27409" fill="none"/><line y2="-28276" y1="-28276" x2="-27461" x1="-28510" fill="none"/><line y2="-29105" y1="-28496" x2="-28851" x1="-28851" fill="none"/><line y2="-27447" y1="-28056" x2="-28851" x1="-28851" fill="none"/><line y2="-27227" y1="-27227" x2="-27349" x1="-28663" fill="none"/><line y2="-30327" y1="-30327" x2="-24064" x1="-25110" fill="none"/><line y2="-29368" y1="-30108" x2="-24798" x1="-25537" fill="none"/><line y2="-27227" y1="-27227" x2="-25318" x1="-26364" fill="none"/><line y2="-26401" y1="-27008" x2="-27011" x1="-27011" fill="none"/><text y="-30148" xml:space="preserve" x="-30656" stroke="none" font-size="433.3333" font-family="sans-serif">Si</text><text y="-31197" xml:space="preserve" x="-30578" stroke="none" font-size="433.3333" font-family="sans-serif">O</text><text y="-28097" xml:space="preserve" x="-30578" stroke="none" font-size="433.3333" font-family="sans-serif">O</text><text y="-30148" xml:space="preserve" x="-29001" stroke="none" font-size="433.3333" font-family="sans-serif">CH</text><text y="-30058" xml:space="preserve" x="-28423" stroke="none" font-size="313.3333" font-family="sans-serif">3</text><text y="-30148" xml:space="preserve" x="-32762" stroke="none" font-size="433.3333" font-family="sans-serif">CH</text><text y="-30058" xml:space="preserve" x="-32185" stroke="none" font-size="313.3333" font-family="sans-serif">3</text><text y="-31197" xml:space="preserve" x="-27828" stroke="none" font-size="433.3333" font-family="sans-serif">Si</text><text y="-28097" xml:space="preserve" x="-29082" stroke="none" font-size="433.3333" font-family="sans-serif">Si</text><text y="-30148" xml:space="preserve" x="-27747" stroke="none" font-size="433.3333" font-family="sans-serif">O</text><text y="-31197" xml:space="preserve" x="-26170" stroke="none" font-size="433.3333" font-family="sans-serif">CH</text><text y="-31107" xml:space="preserve" x="-25592" stroke="none" font-size="313.3333" font-family="sans-serif">3</text><text y="-32242" xml:space="preserve" x="-27747" stroke="none" font-size="433.3333" font-family="sans-serif">CH</text><text y="-32153" xml:space="preserve" x="-27170" stroke="none" font-size="313.3333" font-family="sans-serif">3</text><text y="-27048" xml:space="preserve" x="-29001" stroke="none" font-size="433.3333" font-family="sans-serif">O</text><text y="-28097" xml:space="preserve" x="-27424" stroke="none" font-size="433.3333" font-family="sans-serif">CH</text><text y="-28007" xml:space="preserve" x="-26846" stroke="none" font-size="313.3333" font-family="sans-serif">3</text><text y="-29146" xml:space="preserve" x="-29001" stroke="none" font-size="433.3333" font-family="sans-serif">CH</text><text y="-29056" xml:space="preserve" x="-28423" stroke="none" font-size="313.3333" font-family="sans-serif">3</text><text y="-30148" xml:space="preserve" x="-26060" stroke="none" font-size="433.3333" font-family="sans-serif">SiH</text><text y="-27048" xml:space="preserve" x="-27314" stroke="none" font-size="433.3333" font-family="sans-serif">SiH</text><text y="-30148" xml:space="preserve" x="-24026" stroke="none" font-size="433.3333" font-family="sans-serif">CH</text><text y="-30058" xml:space="preserve" x="-23449" stroke="none" font-size="313.3333" font-family="sans-serif">3</text><text y="-29001" xml:space="preserve" x="-24760" stroke="none" font-size="433.3333" font-family="sans-serif">CH</text><text y="-28912" xml:space="preserve" x="-24182" stroke="none" font-size="313.3333" font-family="sans-serif">3</text><text y="-27048" xml:space="preserve" x="-25280" stroke="none" font-size="433.3333" font-family="sans-serif">CH</text><text y="-26959" xml:space="preserve" x="-24702" stroke="none" font-size="313.3333" font-family="sans-serif">3</text><text y="-26002" xml:space="preserve" x="-27164" stroke="none" font-size="433.3333" font-family="sans-serif">CH</text><text y="-25913" xml:space="preserve" x="-26586" stroke="none" font-size="313.3333" font-family="sans-serif">3</text></g></g></svg>