<svg width="303.93" viewBox="0 0 10131 7180" text-rendering="auto" stroke-width="1" stroke-opacity="1" stroke-miterlimit="10" stroke-linejoin="miter" stroke-linecap="square" stroke-dashoffset="0" stroke-dasharray="none" stroke="black" shape-rendering="auto" image-rendering="auto" height="215.4" font-weight="normal" font-style="normal" font-size="12" font-family="'Dialog'" fill-opacity="1" fill="black" color-rendering="auto" color-interpolation="auto" xmlns="http://www.w3.org/2000/svg"><g><g stroke="white" fill="white"><rect y="0" x="0" width="10131" stroke="none" height="7180"/></g><g transform="translate(32866,32758)" text-rendering="geometricPrecision" stroke-width="44" stroke-linejoin="round" stroke-linecap="round"><line y2="-29079" y1="-30015" x2="-28004" x1="-27684" fill="none"/><line y2="-30382" y1="-30847" x2="-27796" x1="-28394" fill="none"/><line y2="-29079" y1="-29079" x2="-29065" x1="-28004" fill="none"/><line y2="-29250" y1="-29250" x2="-28932" x1="-28137" fill="none"/><line y2="-30853" y1="-30235" x2="-28773" x1="-29608" fill="none"/><line y2="-30639" y1="-30174" x2="-28776" x1="-29400" fill="none"/><line y2="-30235" y1="-29299" x2="-29608" x1="-29319" fill="none"/><line y2="-30758" y1="-30344" x2="-26699" x1="-27418" fill="none"/><line y2="-28571" y1="-29079" x2="-27092" x1="-28004" fill="none"/><line y2="-27744" y1="-28571" x2="-27092" x1="-27092" fill="none"/><line y2="-26999" y1="-27415" x2="-27999" x1="-27279" fill="none"/><line y2="-30758" y1="-30235" x2="-30515" x1="-29608" fill="none"/><line y2="-30758" y1="-30191" x2="-26699" x1="-25716" fill="none"/><line y2="-30836" y1="-30408" x2="-26494" x1="-25754" fill="none"/><line y2="-31896" y1="-30758" x2="-26699" x1="-26699" fill="none"/><line y2="-30191" y1="-30758" x2="-25716" x1="-24728" fill="none"/><line y2="-32465" y1="-31896" x2="-25716" x1="-26699" fill="none"/><line y2="-32248" y1="-31821" x2="-25754" x1="-26494" fill="none"/><line y2="-30758" y1="-31896" x2="-24728" x1="-24728" fill="none"/><line y2="-30902" y1="-31754" x2="-24899" x1="-24899" fill="none"/><line y2="-31896" y1="-32465" x2="-24728" x1="-25716" fill="none"/><line y2="-29143" y1="-30191" x2="-25716" x1="-25716" fill="none"/><line y2="-32225" y1="-31896" x2="-24162" x1="-24728" fill="none"/><line y2="-27525" y1="-26999" x2="-28906" x1="-27999" fill="none"/><line y2="-27219" y1="-27525" x2="-29434" x1="-28906" fill="none"/><line y2="-26173" y1="-26999" x2="-27929" x1="-27929" fill="none"/><line y2="-26173" y1="-26999" x2="-28068" x1="-28068" fill="none"/><line y2="-30344" y1="-30758" x2="-31234" x1="-30515" fill="none"/><line y2="-31587" y1="-30758" x2="-30584" x1="-30584" fill="none"/><line y2="-31587" y1="-30758" x2="-30446" x1="-30446" fill="none"/><line y2="-28620" y1="-29143" x2="-24809" x1="-25716" fill="none"/><line y2="-28666" y1="-29082" x2="-26401" x1="-25682" fill="none"/><line y2="-28787" y1="-29203" x2="-26470" x1="-25751" fill="none"/><line y2="-30590" y1="-30344" x2="-32040" x1="-31610" fill="none"/><line y2="-29406" y1="-30015" x2="-31422" x1="-31422" fill="none"/><line y2="-29186" y1="-28620" x2="-23827" x1="-24809" fill="none"/><line y2="-28969" y1="-28542" x2="-23865" x1="-24601" fill="none"/><line y2="-28620" y1="-27482" x2="-24809" x1="-24809" fill="none"/><line y2="-28620" y1="-29186" x2="-22839" x1="-23827" fill="none"/><line y2="-27482" y1="-26912" x2="-24809" x1="-23827" fill="none"/><line y2="-27557" y1="-27129" x2="-24601" x1="-23865" fill="none"/><line y2="-27482" y1="-28620" x2="-22839" x1="-22839" fill="none"/><line y2="-27623" y1="-28475" x2="-23010" x1="-23010" fill="none"/><line y2="-26912" y1="-27482" x2="-23827" x1="-22839" fill="none"/><line y2="-30015" y1="-29186" x2="-23827" x1="-23827" fill="none"/><text y="-27346" xml:space="preserve" x="-27242" stroke="none" font-size="433.3333" font-family="sans-serif">NH</text><text y="-25774" xml:space="preserve" x="-28152" stroke="none" font-size="433.3333" font-family="sans-serif">O</text><text y="-26820" xml:space="preserve" x="-29966" stroke="none" font-size="433.3333" font-family="sans-serif">NH</text><text y="-26730" xml:space="preserve" x="-29388" stroke="none" font-size="313.3333" font-family="sans-serif">2</text><text y="-28441" xml:space="preserve" x="-26777" stroke="none" font-size="433.3333" font-family="sans-serif">O</text><text y="-30056" xml:space="preserve" x="-31575" stroke="none" font-size="433.3333" font-family="sans-serif">N</text><text y="-31627" xml:space="preserve" x="-30665" stroke="none" font-size="433.3333" font-family="sans-serif">O</text><text y="-30743" xml:space="preserve" x="-32762" stroke="none" font-size="433.3333" font-family="sans-serif">CH</text><text y="-30654" xml:space="preserve" x="-32185" stroke="none" font-size="313.3333" font-family="sans-serif">3</text><text y="-29007" xml:space="preserve" x="-31575" stroke="none" font-size="433.3333" font-family="sans-serif">CH</text><text y="-28917" xml:space="preserve" x="-30997" stroke="none" font-size="313.3333" font-family="sans-serif">3</text><text y="-32242" xml:space="preserve" x="-24055" stroke="none" font-size="433.3333" font-family="sans-serif">Cl</text><text y="-30056" xml:space="preserve" x="-24058" stroke="none" font-size="433.3333" font-family="sans-serif">Cl</text><text y="-30056" xml:space="preserve" x="-27759" stroke="none" font-size="433.3333" font-family="sans-serif">N</text><text y="-30812" xml:space="preserve" x="-28735" stroke="none" font-size="433.3333" font-family="sans-serif">N</text><text y="-28900" xml:space="preserve" x="-29403" stroke="none" font-size="433.3333" font-family="sans-serif">N</text></g></g></svg>