<svg width="434.16" viewBox="0 0 14472 3855" text-rendering="auto" stroke-width="1" stroke-opacity="1" stroke-miterlimit="10" stroke-linejoin="miter" stroke-linecap="square" stroke-dashoffset="0" stroke-dasharray="none" stroke="black" shape-rendering="auto" image-rendering="auto" height="115.65" font-weight="normal" font-style="normal" font-size="12" font-family="'Dialog'" fill-opacity="1" fill="black" color-rendering="auto" color-interpolation="auto" xmlns="http://www.w3.org/2000/svg"><g><g stroke="white" fill="white"><rect y="0" x="0" width="14472" stroke="none" height="3855"/></g><g transform="translate(32866,32758)" text-rendering="geometricPrecision" stroke-width="44" stroke-linejoin="round" stroke-linecap="round"><line y2="-31376" y1="-30850" x2="-28074" x1="-27167" fill="none"/><line y2="-30850" y1="-31376" x2="-28981" x1="-28074" fill="none"/><line y2="-31376" y1="-30850" x2="-29888" x1="-28981" fill="none"/><line y2="-31070" y1="-31376" x2="-30414" x1="-29888" fill="none"/><line y2="-31376" y1="-30960" x2="-31702" x1="-30983" fill="none"/><line y2="-31376" y1="-30850" x2="-26260" x1="-27167" fill="none"/><line y2="-31070" y1="-31376" x2="-32228" x1="-31702" fill="none"/><line y2="-32202" y1="-31376" x2="-31772" x1="-31772" fill="none"/><line y2="-32202" y1="-31376" x2="-31633" x1="-31633" fill="none"/><line y2="-30960" y1="-31376" x2="-25540" x1="-26260" fill="none"/><line y2="-31376" y1="-31070" x2="-24445" x1="-24971" fill="none"/><line y2="-30850" y1="-31376" x2="-23538" x1="-24445" fill="none"/><line y2="-32202" y1="-31376" x2="-26329" x1="-26329" fill="none"/><line y2="-32202" y1="-31376" x2="-26187" x1="-26187" fill="none"/><line y2="-31266" y1="-30850" x2="-22819" x1="-23538" fill="none"/><line y2="-30850" y1="-31156" x2="-21721" x1="-22250" fill="none"/><line y2="-30024" y1="-30850" x2="-23466" x1="-23466" fill="none"/><line y2="-30024" y1="-30850" x2="-23608" x1="-23608" fill="none"/><line y2="-31376" y1="-30850" x2="-20814" x1="-21721" fill="none"/><line y2="-30850" y1="-31376" x2="-19907" x1="-20814" fill="none"/><line y2="-31266" y1="-30850" x2="-19188" x1="-19907" fill="none"/><line y2="-30024" y1="-30850" x2="-19838" x1="-19838" fill="none"/><line y2="-30024" y1="-30850" x2="-19979" x1="-19979" fill="none"/><line y2="-29388" y1="-29804" x2="-21005" x1="-21721" fill="none"/><line y2="-29328" y1="-29744" x2="-22406" x1="-21686" fill="none"/><line y2="-29449" y1="-29845" x2="-22475" x1="-21793" fill="none"/><polygon stroke-width="1" stroke="none" points=" -27167 -30850 -27097 -30024 -27233 -30021"/><polygon stroke-width="1" points=" -27167 -30850 -27097 -30024 -27233 -30021" fill="none"/><polygon stroke-width="1" stroke="none" points=" -21721 -30850 -21655 -29804 -21790 -29801"/><polygon stroke-width="1" points=" -21721 -30850 -21655 -29804 -21790 -29801" fill="none"/><text y="-31197" xml:space="preserve" x="-22781" stroke-width="1" stroke="none" font-size="433.3333" font-family="sans-serif">NH</text><text y="-29099" xml:space="preserve" x="-20967" stroke-width="1" stroke="none" font-size="433.3333" font-family="sans-serif">OH</text><text y="-29099" xml:space="preserve" x="-22781" stroke-width="1" stroke="none" font-size="433.3333" font-family="sans-serif">O</text><text y="-29625" xml:space="preserve" x="-23688" stroke-width="1" stroke="none" font-size="433.3333" font-family="sans-serif">O</text><text y="-31197" xml:space="preserve" x="-19153" stroke-width="1" stroke="none" font-size="433.3333" font-family="sans-serif">OH</text><text y="-29625" xml:space="preserve" x="-20060" stroke-width="1" stroke="none" font-size="433.3333" font-family="sans-serif">O</text><text y="-30671" xml:space="preserve" x="-25503" stroke-width="1" stroke="none" font-size="433.3333" font-family="sans-serif">NH</text><text y="-32242" xml:space="preserve" x="-26410" stroke-width="1" stroke="none" font-size="433.3333" font-family="sans-serif">O</text><text y="-29625" xml:space="preserve" x="-27317" stroke-width="1" stroke="none" font-size="433.3333" font-family="sans-serif">NH</text><text y="-29536" xml:space="preserve" x="-26739" stroke-width="1" stroke="none" font-size="313.3333" font-family="sans-serif">2</text><text y="-30671" xml:space="preserve" x="-30945" stroke-width="1" stroke="none" font-size="433.3333" font-family="sans-serif">NH</text><text y="-32242" xml:space="preserve" x="-31852" stroke-width="1" stroke="none" font-size="433.3333" font-family="sans-serif">NH</text><text y="-30671" xml:space="preserve" x="-32762" stroke-width="1" stroke="none" font-size="433.3333" font-family="sans-serif">NH</text><text y="-30581" xml:space="preserve" x="-32185" stroke-width="1" stroke="none" font-size="313.3333" font-family="sans-serif">2</text></g><g transform="translate(32866,32758)" text-rendering="geometricPrecision" stroke-linejoin="round" stroke-linecap="round" font-style="italic" font-size="313.3333" font-family="sans-serif"><text y="-30974" xml:space="preserve" x="-21874" stroke="none">S</text><text y="-30974" xml:space="preserve" x="-27317" stroke="none">S</text></g></g></svg>